<?xml version="1.0" encoding="UTF-8" standalone="no"?>
<!-- Created for Inkscape (http://www.inkscape.org/) -->

<svg
   xmlns:dc="http://purl.org/dc/elements/1.1/"
   xmlns:cc="http://creativecommons.org/ns#"
   xmlns:rdf="http://www.w3.org/1999/02/22-rdf-syntax-ns#"
   xmlns:svg="http://www.w3.org/2000/svg"
   xmlns="http://www.w3.org/2000/svg"
   xmlns:sodipodi="http://sodipodi.sourceforge.net/DTD/sodipodi-0.dtd"
   xmlns:inkscape="http://www.inkscape.org/namespaces/inkscape"
   width="3200"
   height="800"
   id="svg2985"
   version="1.1"
   inkscape:version="0.48.1 r9760">
  <defs
     id="defs2987" />
  <sodipodi:namedview
     id="base"
     pagecolor="#ffffff"
     bordercolor="#666666"
     borderopacity="1.0"
     inkscape:pageopacity="0.0"
     inkscape:pageshadow="2"
     inkscape:zoom="0.35"
     inkscape:cx="1600"
     inkscape:cy="400"
     inkscape:document-units="px"
     inkscape:current-layer="layer1"
     showgrid="false"  />
  <metadata
     id="metadata2990">
    <rdf:RDF>
      <cc:Work
         rdf:about="">
        <dc:format>image/svg+xml</dc:format>
        <dc:type
           rdf:resource="http://purl.org/dc/dcmitype/StillImage" />
        <dc:title />
      </cc:Work>
    </rdf:RDF>
  </metadata>
  <g
     inkscape:label="Layer 1"
     inkscape:groupmode="layer"
     id="layer1"> 
     <g>
<path style="fill:none;stroke:black;stroke-width:2px;stroke-linejoin:round;stroke-linecap:round;" d="M 
1769.83 534.2201
1771.0581 527.312
1773.5576 520.08435
1769.0685 518.0278
1765.3204 524.64856
1763.3594 519.0407
1760.1692 513.7106
1753.9022 513.5143
1751.388 521.79126
1757.6968 521.82025
1763.1235 529.8568
1760.2714 535.39215
1755.9932 529.43463
1750.6967 531.963
1746.3566 526.8164
1740.7117 524.0783
1744.7737 519.6843
1747.0062 513.59174
1748.0482 507.30975
1754.45 505.6913
1761.4583 506.9917
1767.0773 511.91522
1770.2489 505.88824
1766.8264 501.21613
1760.6328 500.35495
1754.0535 499.29446
1750.886 488.7451
1748.4177 493.8082
1746.4999 499.96185
1741.4863 504.5757
1735.7535 508.93713
1740.3848 514.01245
1736.385 519.10657
1730.2478 515.2285
1727.7566 508.8925
1724.5339 503.42114
1718.8918 506.32724
1712.7776 510.7517
1706.0525 510.92432
1711.2607 504.04968
1715.4963 499.43375
1709.8456 496.046
1713.2551 489.3049
1717.4119 493.1288
1722.791 482.22986
1722.0887 488.7345
1722.0135 497.11594
1728.863 498.5694
1730.3535 492.1239
1735.4012 500.14505
1740.55 493.74512
1737.032 487.2305
1729.854 485.60083
1731.8396 480.47247
1733.4995 475.29807
1739.0322 473.50436
1739.8125 467.8796
1738.6724 461.08096
1732.7059 462.41983
1732.2858 469.19815
1726.9465 464.85846
1724.162 470.17996
1727.2734 475.40396
1721.2179 475.97583
1714.9594 477.88
1713.7084 483.01193
1707.6135 485.131
1705.3264 490.76743
1703.3234 496.4282
1705.0525 503.3186
1699.6292 501.16367
1694.6163 502.9976
1700.1259 510.0038
1694.6328 515.0853
1693.7771 508.49554
1687.8401 502.647
1683.4972 507.0696
1678.9653 502.43146
1680.6605 496.41617
1686.2546 496.34045
1685.2574 490.2999
1680.2935 487.7241
1677.0283 482.03085
1673.1901 486.67828
1675.2617 493.75803
1669.037 495.94427
1663.8461 500.9823
1671.8129 501.94473
1667.6731 507.93088
1675.1383 509.00586
1680.4185 512.96674
1688.1309 511.7249
1683.6752 517.9307
1684.5293 523.38794
1683.1072 528.8312
1684.8569 536.0709
1690.7789 533.2491
1689.8219 526.99963
1691.1548 520.3569
1699.5371 520.28265
1705.6658 518.3733
1711.0406 517.9977
1705.5631 526.87866
1696.4539 527.0678
1699.3864 532.7387
1704.5154 536.86615
1697.6968 539.68866
1691.6483 540.27014
1702.0588 544.16
1704.0358 549.04016
1695.3975 547.86487
1689.8906 550.8225
1682.9092 549.8799
1679.58 555.74347
1682.4786 563.7417
1687.4712 558.38654
1695.1129 558.86884
1700.0808 553.5915
1703.6499 559.31116
1703.0547 565.8316
1707.0824 571.4003
1708.5731 577.7763
1712.8558 580.42114
1714.06 587.6692
1706.9364 585.076
1700.3114 587.3828
1693.451 582.01904
1701.5073 578.99316
1697.2621 573.6276
1694.8346 566.7662
1687.7019 567.8728
1688.1643 574.6042
1686.155 580.3179
1686.5012 585.96924
1680.5801 579.80975
1679.4556 574.3451
1677.7993 569.5899
1675.1926 564.8151
1674.9255 559.57043
1671.4816 554.2558
1670.0099 547.86865
1675.9883 549.86194
1676.6421 544.59216
1685.951 543.6048
1680.0161 540.0621
1673.6094 539.65375
1674.5168 535.1055
1679.4398 533.1122
1675.7421 528.9487
1677.1959 523.32654
1674.9264 517.5171
1669.1793 514.51587
1665.7485 518.942
1668.5563 522.657
1670.7686 526.3389
1670.7023 531.66833
1665.8568 530.3612
1662.6997 525.99194
1657.3866 524.6841
1661.2075 521.36273
1661.6819 515.6155
1656.574 519.1634
1655.9738 514.4899
1661.5562 510.0979
1657.9695 505.39563
1653.7228 509.96286
1648.2012 507.98593
1650.7527 502.76294
1656.4998 499.40576
1654.2301 493.2208
1659.8801 494.4125
1663.9592 491.92892
1668.1387 489.19843
1667.1748 483.0883
1671.6462 477.53452
1678.6902 474.5452
1682.9551 479.03806
1686.8711 483.70746
1691.176 486.5797
1691.8606 491.26245
1691.5298 496.9984
1696.5916 495.86063
1698.6938 490.09015
1695.5421 483.41928
1701.7101 483.12442
1705.994 476.98593
1710.9822 471.81842
1716.8611 471.3873
1719.5308 466.40018
1712.8937 463.3382
1717.1562 460.89038
1722.9639 460.10492
1722.4651 453.31967
1729.3143 456.18842
1735.8561 453.63232
1744.7256 457.61847
1743.0294 451.77725
1750.0365 449.44226
1756.6353 451.48947
1757.9603 445.9982
1755.3048 442.25632
1760.0066 432.15134
1763.7451 427.4548
1769.8726 430.642
1770.573 437.4183
1764.2749 436.13147
1764.286 446.10278
1767.8042 452.8999
1772.8948 443.99222
1773.6664 451.43176
1782.5082 453.28653
1791.2424 453.05313
1787.6213 446.66077
1782.7489 443.09158
1780.4867 437.40802
1778.469 429.0368
1774.8728 424.62277
1769.788 422.68396
1764.2065 421.21863
1758.6771 420.1449
1756.9226 425.381
1753.5778 429.8993
1753.8535 435.59055
1750.5408 442.63925
1744.6398 445.2301
1740.9757 439.40204
1735.3777 439.59387
1738.6334 446.3322
1732.4774 444.99008
1727.5496 448.1606
1725.5076 439.72583
1729.2662 435.2652
1734.4839 433.54895
1729.1489 428.46805
1727.227 421.72186
1716.2728 422.9694
1712.531 418.31757
1716.1014 414.65024
1713.6271 409.16498
1707.3997 404.23364
1708.185 411.3474
1706.5112 417.20926
1700.6133 418.72546
1701.0212 412.50397
1701.5964 405.8424
1696.0828 404.43484
1693.064 395.98422
1702.3282 397.58246
1703.3817 389.6044
1696.151 387.11417
1688.0343 388.39465
1680.4926 391.78076
1683.0765 399.39502
1689.7461 403.47562
1683.3806 407.12796
1687.5708 412.04654
1693.9487 410.64578
1694.4524 416.26385
1696.0521 422.53464
1693.0591 427.18808
1701.22 434.42462
1699.923 439.60672
1705.866 440.21198
1710.783 438.1923
1706.5908 431.83798
1699.574 428.9456
1702.6826 424.2664
1708.3986 423.41116
1711.5105 428.05667
1718.4297 429.80057
1714.3973 433.5357
1717.9867 439.13968
1720.2654 446.2132
1713.6267 445.775
1715.6045 454.17633
1703.8317 452.8917
1706.5887 445.71042
1701.5964 446.301
1696.1426 444.5252
1689.3323 447.09766
1692.2144 452.228
1689.1533 458.13492
1696.6709 458.0112
1698.2085 451.3275
1705.4159 459.22906
1700.0061 463.55063
1705.8254 467.6568
1699.3489 470.86847
1696.5684 476.4638
1689.77 478.31537
1688.3511 472.069
1692.1172 465.70737
1682.3905 467.43378
1674.2822 468.93488
1673.9182 461.48843
1673.9579 453.1308
1682.5347 460.42014
1683.1735 452.60254
1679.8337 446.4487
1673.2644 443.84366
1679.0404 437.19464
1684.9629 440.99646
1691.2422 440.4277
1694.6207 434.99588
1689.9109 431.14047
1685.7015 425.99826
1690.2511 420.8569
1685.9943 418.0461
1680.5477 422.8012
1673.332 429.17627
1671.293 435.56033
1665.8811 441.11823
1665.9042 448.37277
1660.1775 452.32944
1665.8453 457.44736
1664.9198 464.8864
1667.4912 471.4609
1663.9012 476.98044
1660.6359 482.4024
1659.4884 487.56717
1652.8771 487.65292
1653.2478 481.9638
1646.0164 483.01245
1638.335 483.6929
1641.3572 477.01807
1649.9177 475.52698
1656.9009 476.62967
1659.0763 470.25122
1656.9608 461.47668
1652.0784 467.4073
1645.3188 470.04922
1638.1417 470.8362
1640.4492 464.21655
1645.8071 461.86462
1649.6816 457.8026
1654.6215 454.36014
1650.8259 448.67233
1657.7004 444.3071
1648.8615 443.385
1648.7089 437.41257
1643.5768 440.2324
1639.4802 437.1934
1634.7887 441.62708
1628.8275 440.98288
1626.7804 447.9777
1621.2262 442.12415
1625.0792 434.4361
1633.2627 434.5657
1631.3519 428.14993
1624.7881 427.6742
1622.6831 421.74326
1616.7227 426.08072
1611.2643 419.40683
1613.5458 413.88763
1619.9948 416.81213
1624.2181 411.05875
1628.2976 414.94128
1629.8534 421.25803
1636.2124 420.53464
1637.0378 426.83267
1640.2834 431.61035
1646.2607 432.08334
1643.6567 425.21606
1650.2979 424.63058
1653.1951 431.24332
1654.4664 438.09903
1660.6453 435.24698
1658.6759 426.87015
1661.2571 420.37317
1666.8865 416.60382
1673.52 417.36163
1680.2856 416.21387
1677.3959 409.08472
1670.5236 408.1928
1664.3342 403.3957
1660.9803 410.8371
1654.2181 408.9716
1654.7329 400.79108
1649.6549 394.57397
1652.1907 387.22766
1659.7688 390.5609
1664.4343 396.26617
1673.9546 398.97815
1670.8323 389.98108
1665.1724 383.7072
1669.1411 378.33328
1675.871 383.74612
1683.7953 382.1004
1679.5015 375.8035
1673.8789 374.57114
1668.1096 369.94693
1660.0972 367.65784
1661.2048 374.95517
1657.8479 381.44492
1651.4615 378.6687
1644.5876 379.98196
1643.993 387.04904
1638.7837 392.26816
1630.8346 394.21936
1633.7235 400.97992
1643.2595 400.62173
1639.3203 408.52478
1647.3137 408.9094
1653.4651 417.83936
1645.7256 416.1608
1641.2413 418.83554
1634.9165 414.32446
1631.1521 407.95032
1625.7212 403.60757
1620.788 400.75497
1621.8468 394.86
1625.8171 389.17923
1631.1388 385.00998
1636.1941 382.026
1627.0405 377.2277
1624.28 382.48175
1618.9541 379.7178
1619.061 386.94366
1614.5627 391.08768
1611.0688 396.73907
1614.5488 401.62592
1618.9788 408.85663
1613.1235 407.0923
1607.6545 410.5593
1602.0259 413.19342
1595.5146 416.6968
1601.345 422.20718
1608.2922 425.35245
1607.9424 432.17642
1616.7909 433.22003
1613.7667 439.59192
1612.1624 447.4957
1605.5083 451.5823
1611.407 458.4956
1618.2297 457.5851
1618.2975 450.44797
1624.6935 454.4673
1631.2148 454.80893
1634.2367 448.85278
1639.08 444.9656
1643.6011 447.42322
1645.2809 453.36615
1639.9187 452.97504
1637.6045 457.36172
1634.9551 462.4042
1629.7045 461.82016
1624.1849 460.8944
1631.6814 468.8556
1632.2292 476.26385
1629.906 484.16937
1624.3678 479.43854
1623.2173 472.61533
1625.5166 467.3828
1618.3184 465.1213
1613.6924 470.06934
1616.8488 475.76318
1616.6641 482.086
1621.683 486.83963
1617.7354 492.97867
1612.72 489.56186
1610.2902 482.69757
1608.0952 475.90924
1602.0934 483.27567
1600.3256 477.35266
1601.2577 470.2698
1608.4266 466.09158
1602.2734 461.76675
1594.9359 460.36276
1594.9202 452.7886
1588.6622 446.62946
1580.461 444.75085
1580.4695 452.08295
1587.1638 455.06433
1585.6726 463.0173
1585.6323 472.47473
1592.3607 468.40482
1593.6504 475.07074
1594.5709 482.93628
1588.7933 480.47623
1583.5157 480.77942
1578.2888 483.1279
1573.3295 479.5522
1578.3003 475.00342
1577.9712 468.62085
1578.5446 462.12314
1575.6938 457.70752
1568.7032 459.18628
1570.196 464.62457
1568.5983 470.04648
1569.004 475.55148
1566.7659 482.37057
1572.7888 487.25714
1578.0017 491.48853
1583.807 487.9218
1590.3572 489.55588
1592.8983 497.9645
1585.6481 495.0192
1578.9457 498.5202
1572.2966 502.25876
1571.5856 495.20035
1566.347 488.83728
1560.3318 490.10028
1559.2236 483.0426
1561.7842 475.63043
1555.5918 472.91885
1551.9534 476.82632
1552.485 482.35977
1552.2463 487.51938
1545.7697 488.53198
1542.014 482.78018
1546.9521 480.48596
1542.9995 475.88217
1548.1901 470.50983
1544.275 464.16418
1538.1428 462.37177
1543.8905 456.0816
1537.5188 450.09988
1535.4172 455.53732
1530.7064 459.2467
1526.5765 463.5506
1522.0969 460.95416
1522.6831 453.36124
1528.4536 453.7133
1529.1024 447.26318
1531.9695 440.44473
1523.5404 442.36572
1516.3523 454.40723
1517.1901 447.50015
1515.513 439.3618
1510.558 442.3457
1507.6547 448.34695
1502.7229 454.19324
1508.5735 456.31848
1512.881 459.52783
1516.617 463.07526
1517.1934 468.81424
1522.7617 469.12268
1528.8646 469.16504
1532.583 464.66055
1540.6765 469.78506
1534.9084 469.90933
1531.6451 475.1239
1537.1864 475.87872
1535.7228 481.32364
1537.0343 486.81635
1540.6287 491.6682
1536.2466 494.40875
1535.5713 500.0814
1536.276 506.19775
1542.5435 503.57535
1544.9113 497.31915
1550.4164 494.49658
1555.442 491.82217
1558.1814 497.60504
1564.7087 494.93387
1565.5876 500.6763
1560.2163 504.23492
1565.9294 507.59598
1571.6595 508.89862
1573.0088 513.7525
1578.6064 511.85876
1576.9099 506.70923
1582.0508 505.37186
1586.6199 502.08588
1591.6614 506.11594
1597.9102 505.7604
1604.1252 508.2234
1604.3557 502.1538
1599.5812 498.85434
1600.5315 492.87393
1596.5378 489.41287
1605.8079 488.0086
1607.0833 495.01102
1609.7324 502.1179
1613.4141 497.72382
1619.3762 500.38855
1623.9783 494.3749
1629.7881 492.5802
1635.326 490.2366
1641.2546 492.8143
1646.8917 489.8141
1648.9939 496.4624
1643.5654 500.14465
1641.235 507.04813
1636.5944 499.9359
1630.1187 500.2168
1632.3953 508.4949
1624.9995 503.66254
1622.9001 509.91672
1617.4734 513.5612
1615.3494 506.01114
1610.1943 509.27182
1605.3995 514.48254
1599.8715 513.3121
1593.9333 513.01624
1588.2698 511.634
1583.8032 512.595
1584.6309 519.23206
1579.626 516.8873
1579.0138 522.561
1573.0468 522.6325
1575.0442 518.3963
1569.4896 517.6174
1565.1847 513.57544
1558.7253 517.8318
1557.2365 510.13437
1552.6233 501.68375
1549.4797 507.56134
1545.4138 513.37616
1551.6779 517.35626
1546.3062 525.54224
1554.2194 526.4569
1561.1855 527.35944
1563.4873 520.5868
1567.784 522.32526
1568.4763 526.1144
1567.7764 529.8202
1574.5957 527.6092
1580.3821 528.4338
1584.9851 525.737
1590.9563 526.95435
1590.4453 519.91345
1596.906 519.2465
1598.1418 525.21075
1603.9614 520.9901
1608.5414 524.6463
1610.4496 515.6356
1613.7964 519.19934
1616.8055 523.33057
1623.0912 519.8808
1629.6346 517.2778
1637.0214 515.73285
1643.4623 514.0576
1649.4187 514.0165
1650.5413 518.0099
1649.7244 522.2478
1653.3944 521.7154
1653.1921 526.1251
1656.0952 529.7986
1660.7041 530.6345
1657.4844 535.4037
1662.3125 535.5576
1668.1881 536.1456
1669.5122 542.5256
1664.9951 539.9267
1660.4746 541.5907
1664.49 545.528
1662.1753 549.5951
1666.1257 552.70544
1663.5415 557.44324
1667.8369 560.7892
1668.2612 567.0965
1671.1334 573.15533
1672.7853 578.91455
1676.9363 582.8759
1674.1887 586.0122
1680.0625 588.78827
1671.6765 600.22894
1664.6719 622.5657
1630.6774 614.2263
1633.2456 643.94507
1639.2422 657.0258
1653.7429 657.2084
1661.9744 646.6486
1675.2029 658.8213
1684.6594 670.4696
1689.3341 664.39606
1696.1952 663.39514
1692.8983 656.6763
1698.022 655.69885
1704.1038 653.97327
1702.9397 659.9636
1705.1301 665.7108
1700.4847 669.8255
1698.8513 676.6657
1702.4695 682.79065
1704.7843 688.95636
1698.3748 688.3676
1694.1125 684.2903
1691.9316 677.7651
1693.1163 671.0726
1686.0287 681.60864
1686.3628 689.0878
1691.9396 692.2253
1695.3782 697.1313
1700.171 694.13275
1705.0071 696.4567
1699.3174 701.808
1691.2649 701.25793
1687.2483 698.6411
1683.5591 695.9946
1675.1018 693.17804
1664.8899 693.3529
1659.8883 686.517
1674.3203 682.08203
1665.2122 670.26544
1641.2325 673.88043
1632.569 680.6062
1629.7365 670.0325
1620.2236 678.3473
1613.0411 680.35516
1614.441 689.26074
1608.0891 700.2657
1582.9729 693.00916
1586.1274 711.60706
1597.801 719.78766
1607.2368 732.9207
1595.2653 727.30383
1581.9565 739.22943
1556.1895 723.8927
1555.6697 710.6977
1545.4528 735.7107
1559.0543 749.5576
1573.722 757.6463
1540.0625 764.0381
1529.488 762.7977
1521.095 754.4501
1529.1328 743.76025
1519.584 740.5992
1521.8999 734.3022
1527.6099 730.26984
1516.0537 722.1513
1510.5349 740.0846
1499.427 746.7303
1493.7107 764.23016
1491.5176 781.22974
1502.8201 778.0822
1511.4832 770.1061
1515.3873 783.9604
1526.7395 778.93604
1537.0237 782.9515
1546.2294 774.73065
1554.6621 782.9515
1559.0435 773.3623
1572.3641 782.9515
1573.1548 774.4314
1580.6261 769.391
1590.4799 782.9515
1607.9734 782.9515
1597.211 771.32434
1599.5337 756.1272
1602.0621 742.0808
1615.5878 755.51306
1615.2941 744.02295
1625.5651 736.64984
1631.7032 718.7558
1627.2146 696.08636
1641.0662 699.5741
1649.207 690.1233
1659.2496 700.6123
1660.0413 713.79956
1671.0332 713.42004
1683.3054 713.3619
1687.4064 706.1167
1693.1047 717.3398
1678.703 723.192
1682.2144 730.3471
1688.7385 736.66156
1693.0988 752.6781
1677.344 762.2154
1660.9236 761.8116
1653.5365 745.4665
1664.2104 735.4237
1671.4081 731.0822
1664.7809 724.7553
1649.3494 718.38873
1645.4828 726.3025
1644.8667 735.4781
1640.6007 739.37286
1632.5757 742.90533
1627.045 752.30096
1634.8337 754.3096
1639.4191 750.2761
1643.8939 755.23596
1645.9426 761.5599
1640.1859 758.90753
1635.2179 763.8178
1631.5842 772.37915
1625.8092 768.87683
1617.0122 769.854
1623.1737 781.8042
1631.2665 782.9515
1640.3363 782.9515
1643.3994 774.47485
1645.8856 768.3106
1649.5176 782.9515
1659.5529 782.9515
1661.3796 776.77576
1674.7649 783.6475
1691.1288 782.3089
1709.1573 779.5885
1713.7491 753.86615
1735.6278 758.8588
1733.6008 767.0652
1729.0238 782.9515
1740.4246 772.8812
1746.3104 763.2258
1746.9529 755.3606
1742.5914 750.88916
1736.1511 742.9226
1725.0272 740.5204
1716.6547 726.6742
1737.7291 723.6197
1743.3499 714.99347
1754.7441 720.81647
1747.2981 734.62805
1758.2759 738.6774
1766.3945 732.2763
1782.146 733.89655
1780.0532 718.3035
1794.4634 722.85315
1808.9437 720.51135
1817.3835 730.9386
1828.2263 740.1305
1831.6327 731.4062
1834.2817 713.76404
1835.68 701.14575
1839.1836 695.2827
1843.5571 701.3663
1852.8795 704.54175
1858.0625 709.2958
1844.5062 725.42004
1851.1549 741.55176
1855.4717 753.5035
1842.3839 752.3874
1827.5485 751.3576
1823.2325 762.10254
1801.0779 756.2588
1796.6841 741.08777
1777.777 754.77356
1759.2673 752.55054
1752.9155 755.8556
1758.1011 759.98914
1764.2397 766.72363
1753.9314 766.9296
1747.9022 773.7106
1750.2773 782.9515
1761.7509 779.3881
1775.3984 783.8693
1792.7141 779.8343
1805.8318 782.9515
1815.9363 774.40704
1826.1844 782.9515
1844.0789 782.9515
1849.0227 769.0273
1866.0883 782.6054
1863.2283 759.5559
1869.3506 745.5322
1869.9872 729.9426
1870.8198 706.0945
1865.6925 693.5052
1852.7327 688.1049
1851.0259 696.0603
1845.7303 692.0362
1840.2139 687.45764
1835.1509 679.6027
1829.4397 694.7923
1829.533 702.9149
1818.2947 685.7988
1816.1292 693.73096
1810.5073 701.22253
1798.7932 689.6162
1793.9878 699.56396
1783.8737 701.00146
1785.8663 709.31244
1778.4236 707.6734
1771.9457 715.05365
1765.252 706.49524
1766.4946 700.6554
1775.2292 702.4741
1771.2585 696.08673
1765.6162 691.6179
1778.1215 685.5023
1783.684 676.7874
1786.855 690.9251
1802.8275 681.6704
1803.0085 673.5005
1814.0068 664.52045
1824.9065 672.42487
1830.4337 668.09174
1839.487 666.7361
1838.5718 659.0295
1843.4103 654.8074
1850.4058 658.0672
1846.4401 662.0809
1854.5437 667.3332
1855.238 661.87225
1858.9447 657.37024
1860.2521 650.44116
1847.9207 647.3364
1843.8873 646.9437
1839.3481 648.1942
1835.3552 651.219
1831.9885 658.5431
1828.9761 653.8082
1828.617 647.1531
1833.8606 642.77704
1840.1934 640.5726
1845.297 638.1617
1842.8524 631.0438
1835.9001 628.64307
1831.846 623.8781
1835.3835 619.61865
1828.3213 615.425
1832.0906 611.1872
1829.7457 603.98016
1824.471 608.91614
1819.2808 612.19037
1822.9542 617.4778
1826.4603 622.1487
1816.1097 618.2109
1812.829 612.98816
1810.8188 622.7708
1812.1165 631.49207
1816.2507 627.55536
1819.8813 622.85126
1821.8826 629.18695
1828.4626 628.73987
1834.457 635.2225
1827.7635 639.4104
1825.8658 634.04193
1818.623 636.52576
1822.2675 643.40533
1822.0405 650.7226
1794.9376 650.3862
1778.2366 665.6921
1770.8356 677.2193
1752.8204 667.23773
1753.0723 657.9429
1738.3328 656.7246
1740.3948 640.21063
1723.0262 628.3809
1717.6859 626.153
1710.9985 626.78467
1713.6888 620.6099
1720.1829 618.72345
1714.6993 613.5577
1708.8113 614.2832
1706.8566 619.55444
1705.5228 624.67267
1702.2394 628.98126
1707.5503 632.3669
1714.088 632.9492
1719.8518 634.3071
1717.9327 641.5195
1710.3801 637.99023
1710.7526 644.0746
1716.1569 649.2985
1711.6357 655.1943
1721.0942 659.5477
1716.5686 667.6811
1733.8026 688.001
1739.7771 680.91626
1749.9211 675.4108
1754.8 680.71045
1749.7622 691.6298
1757.5277 694.8285
1759.7958 701.6443
1752.6633 703.6675
1740.7709 699.0569
1722.9169 694.891
1718.647 701.2275
1713.0306 697.8224
1715.8853 690.20905
1718.4276 684.5245
1709.4698 680.4661
1705.4177 676.28
1710.2429 671.4404
1710.7079 661.4399
1709.1628 649.5265
1703.2489 647.51904
1696.8807 648.953
1692.0591 639.11456
1698.8103 641.74994
1704.7727 641.1449
1702.1783 635.73724
1697.0522 633.2232
1695.4623 626.9672
1693.6396 620.5953
1700.0232 622.17365
1699.8005 615.5771
1697.7429 608.9363
1691.3727 614.196
1689.7659 606.55865
1687.9656 598.41925
1685.8055 592.30304
1694.0394 591.3225
1698.6421 596.7948
1695.2986 602.5922
1705.3893 610.4863
1705.0149 605.01636
1705.3065 599.30054
1707.9548 593.3342
1712.8274 602.94916
1717.958 594.7747
1722.8483 602.0741
1717.3799 608.11707
1723.8829 609.8976
1725.0876 621.73553
1726.2104 614.8599
1758.0647 594.57574
1814.3965 576.56696
1815.6283 570.6822
1817.1316 581.6477
1817.7126 587.83167
1813.9828 594.548
1813.6848 604.2444
1820.1328 604.06995
1820.5115 596.62836
1826.3577 597.44196
1830.5844 595.2175
1826.8745 588.6264
1827.122 581.0595
1821.7003 574.8586
1828.0376 572.2245
1827.5068 564.6781
1821.8066 567.36694
1815.9673 565.2999
1813.0786 561.8549
1816.9685 558.0815
1812.9608 555.3434
1815.1216 551.0109
1820.376 552.36206
1821.6858 560.2837
1828.8049 558.32336
1825.9498 553.90314
1830.388 548.8968
1824.5469 546.3524
1818.3562 544.32764
1811.6315 547.58466
1811.6472 542.18225
1805.7339 539.3973
1809.5605 535.12366
1804.4622 531.5841
1797.876 533.78864
1792.1357 534.5036
1785.3472 535.72516
1778.1461 536.3101
1777.9849 531.6006
1778.8585 527.6659
1784.0166 526.1719
1787.3707 529.7244
1789.2025 521.98175
1784.45 520.51587
1780.3378 516.61597
1775.5375 514.6075
1774.6228 509.62045
1778.737 503.24548
1781.7319 509.5007
1786.0198 513.9475
1790.8486 515.7286
1795.2318 512.271
1800.3883 516.01483
1795.9547 520.8425
1803.6792 521.84686
1809.4385 523.90186
1813.0214 528.85236
1815.6157 536.60236
1820.8098 531.8131
1822.7391 538.49567
1829.4381 540.61395
1828.9373 532.83545
1828.5378 525.7672
1830.0293 519.2966
1832.9838 513.8005
1830.7257 507.92435
1828.8896 501.31992
1820.6915 504.0387
1817.7859 512.6804
1824.2784 512.92084
1820.1134 521.0963
1813.4376 518.3888
1807.738 515.0143
1803.9797 508.95743
1812.2124 508.6311
1811.6249 500.8517
1801.9635 501.14874
1796.5839 505.92947
1791.4459 500.0488
1786.9329 505.599
1782.0684 496.69238
1788.4935 493.3759
1785.7507 486.22974
1787.1453 478.75195
1787.9668 471.1148
1782.1553 467.75287
1778.5409 472.87033
1779.2526 479.95383
1774.7256 484.99158
1778.3951 490.26974
1773.5221 498.3559
1770.8749 491.71396
1764.5635 494.37598
1766.3087 484.07538
1766.1716 474.23355
1755.7535 474.52255
1755.465 484.81305
1751.1946 481.00797
1744.5082 485.5945
1739.972 479.85532
1746.951 476.6677
1746.5588 470.78247
1752.0776 467.3239
1757.238 465.20422
1746.0306 463.82678
1751.1396 457.2008
1757.1945 457.95367
1769.7556 462.04352
1779.7655 461.40967
1787.9751 461.62485
1799.6864 459.89536
1806.0635 464.8177
1811.9443 471.09857
1821.9585 465.65927
1827.824 468.15967
1833.2998 463.2901
1833.2417 473.4309
1841.77 479.85428
1853.405 487.9004
1867.157 496.11383
1870.5109 485.7418
1870.7665 474.94135
1861.0906 479.86642
1853.083 475.22235
1845.2977 471.4647
1838.6691 468.0303
1853.233 465.118
1861.3751 468.02835
1870.8403 465.223
1868.5677 457.97235
1870.6626 450.57965
1859.7605 455.39096
1851.9038 455.6834
1848.4049 444.98633
1856.4795 446.70212
1862.7898 445.02457
1854.5513 438.4043
1845.9537 438.13275
1849.6262 432.11774
1847.013 426.21933
1844.2454 420.18274
1841.6089 414.32156
1838.2507 419.0442
1839.8252 425.40735
1840.7775 432.5077
1838.4895 439.6747
1840.7501 446.6858
1845.2378 452.57706
1845.2405 461.94455
1838.4626 458.26297
1836.1367 451.71973
1833.8018 445.5492
1827.8638 445.7259
1830.0857 439.87595
1832.5552 434.6144
1834.177 428.12244
1833.0002 419.5666
1828.2867 422.99045
1827.0875 429.06235
1819.2805 428.63977
1821.0784 422.43246
1827.1788 415.87454
1820.8848 416.28653
1816.933 411.45297
1815.0695 405.10074
1809.987 401.9885
1816.447 394.4548
1820.6617 400.5542
1823.4679 408.51263
1828.2163 404.2545
1833.459 406.81113
1830.227 411.19623
1835.4583 413.37317
1838.8262 408.79614
1835.7004 402.64188
1832.4548 396.59137
1826.936 398.52072
1825.8766 392.15063
1823.4799 386.159
1820.835 379.62766
1817.5201 373.92194
1815.5161 366.03387
1809.7018 362.75348
1811.449 353.7641
1808.9089 341.8469
1804.3973 348.85992
1797.5332 351.62918
1790.0082 348.7093
1794.2522 343.6925
1800.982 341.215
1800.1802 334.94992
1790.719 335.68726
1782.3982 334.887
1785.9282 341.984
1783.1223 348.97012
1777.1249 349.43512
1776.255 356.1235
1782.7384 355.5285
1778.8145 361.1169
1782.7137 364.7388
1786.2087 360.21408
1789.6935 354.65454
1791.481 361.6764
1796.3903 358.81342
1803.3049 358.45044
1803.7013 367.79587
1800.7163 374.6056
1797.2773 366.98813
1791.7969 367.9366
1786.4133 367.41446
1788.048 372.966
1793.9294 375.26727
1790.9062 380.84567
1790.6328 386.0128
1794.3945 394.98102
1793.5897 389.13162
1797.728 382.41837
1804.3358 380.17926
1809.6469 373.39978
1810.7489 381.52695
1815.9595 386.00906
1809.6959 390.18073
1803.7363 387.5575
1798.7258 390.23447
1807.426 396.5615
1801.1721 395.82364
1796.1733 401.04047
1802.0231 402.72205
1803.9865 407.97693
1808.7872 410.3943
1810.2064 416.03937
1813.3403 421.4409
1811.8938 429.07788
1810.6942 437.38275
1817.189 436.15274
1824.3024 434.48312
1822.5571 440.53815
1816.1318 445.44205
1821.4899 447.01764
1824.8154 451.11288
1830.6846 454.33276
1827.4207 460.0154
1821.7354 455.7399
1817.4761 460.47546
1812.7662 454.61212
1809.5813 447.24213
1802.1509 451.0134
1796.0723 445.42145
1789.4696 438.20828
1784.3601 433.4272
1788.0212 428.54007
1789.3354 421.6792
1795.4569 418.21432
1796.0009 426.20132
1794.1399 432.95752
1797.6953 438.95477
1804.6272 441.1351
1801.9071 433.11514
1805.1611 427.95932
1803.5916 421.5711
1801.5377 414.96423
1797.1838 409.62677
1792.2249 406.9714
1787.3391 409.92087
1789.0084 415.1215
1782.5588 423.5388
1778.3209 418.7519
1778.6582 412.02316
1773.3923 414.12195
1768.4893 415.70392
1762.2344 414.7818
1766.0735 408.9853
1763.3256 402.87048
1762.0825 394.10483
1762.115 385.6582
1767.5493 378.74646
1760.4404 374.92368
1753.9537 371.1385
1759.0165 364.83286
1765.2036 363.95425
1767.9219 370.36996
1774.1135 373.31662
1776.5209 378.87775
1778.5375 384.32837
1771.1266 386.1732
1777.6302 390.73987
1769.2491 399.59604
1773.8071 405.84592
1779.0422 398.19247
1782.3568 407.00714
1784.4448 402.22574
1789.9141 400.86478
1788.9629 394.67828
1783.5908 395.1675
1785.3284 389.46365
1784.4928 383.8213
1784.7549 378.07498
1781.3191 372.60532
1777.1838 367.55533
1772.3824 363.4465
1768.9558 357.65018
1771.6821 351.79602
1766.3708 350.789
1765.7861 344.6189
1772.2698 344.97324
1778.6592 342.085
1774.3933 336.37814
1769.451 339.35645
1764.3247 338.60455
1759.7405 342.33087
1756.385 345.84866
1760.8477 349.06613
1761.753 356.3834
1755.4077 354.6795
1753.198 350.1906
1751.2363 345.0135
1747.637 349.0507
1742.7002 348.63388
1738.5962 351.4303
1732.4669 352.6189
1726.4733 348.45847
1725.9215 354.43298
1719.9888 356.91037
1713.1797 360.81387
1711.6471 367.44467
1717.0059 374.19952
1718.9573 368.85403
1721.3896 363.74503
1727.2007 360.98456
1733.2759 358.7259
1737.8246 362.84186
1739.7157 356.47055
1743.9929 360.21353
1747.5115 355.17474
1753.8954 360.37396
1749.1433 363.4404
1747.8325 369.49402
1741.9385 367.0859
1736.2349 370.5766
1731.8109 365.66702
1726.8278 370.19745
1725.2607 377.10516
1720.7817 383.86182
1729.365 383.44336
1734.062 376.23666
1737.0139 382.2056
1736.6581 388.58426
1744.804 381.5253
1744.3884 374.8486
1753.5166 380.79977
1753.5219 389.19803
1752.0161 395.85345
1745.3369 388.66168
1740.5227 393.78937
1745.0541 398.2542
1738.2631 400.8724
1738.8711 406.96637
1739.2043 416.22226
1743.3827 412.08047
1745.0719 405.84338
1750.5028 403.1523
1757.1289 400.57095
1757.0217 407.4526
1756.6113 413.39505
1750.2563 411.27902
1746.592 418.21777
1752.845 418.84662
1749.6023 424.7411
1745.23 428.11163
1746.458 433.33902
1740.1226 428.47095
1741.175 422.6722
1733.4463 421.10815
1728.2245 415.0719
1726.0844 408.38968
1733.1664 410.03265
1731.1407 403.1785
1725.2543 400.3323
1727.4814 395.90262
1733.9391 396.56873
1731.1669 390.90964
1725.8759 389.13205
1721.6732 391.61014
1717.0018 391.33435
1719.4293 397.34735
1721.5413 403.0707
1714.3442 401.52167
1713.0748 395.47232
1712.5889 389.11044
1710.8108 384.55496
1714.7676 379.36502
1706.0879 380.63593
1699.6771 377.18274
1706.8384 372.8727
1704.0167 365.48737
1695.0813 359.855
1700.3142 359.91693
1706.615 355.72552
1713.5363 352.59
1719.8823 347.8853
1713.9304 343.3097
1707.5966 345.2077
1700.833 349.89645
1701.8218 341.10486
1692.782 340.13303
1684.9152 340.13293
1688.7681 346.6099
1694.532 350.65488
1690.3339 356.29758
1685.1475 354.04413
1688.9585 363.13193
1695.2068 369.33707
1692.3463 378.73563
1686.5632 374.49454
1684.866 368.57242
1681.5011 362.11725
1676.4297 368.1481
1672.9532 361.86795
1677.4933 355.9226
1679.691 349.70856
1679.5063 344.13364
1674.8525 339.95236
1665.739 338.8038
1662.9971 345.61133
1671.0941 347.9168
1668.2496 354.93152
1664.8817 361.99875
1658.4412 352.55072
1655.1255 341.4956
1646.1024 345.14606
1635.4485 346.10147
1631.0284 354.1734
1623.0381 352.93073
1616.0566 356.646
1619.9585 363.93298
1628.0355 362.9631
1636.0796 363.61703
1640.0646 355.68625
1649.0104 355.08035
1655.4337 361.1347
1653.0525 370.0985
1645.3425 364.2235
1645.8612 372.13324
1638.8855 376.1315
1637.542 370.416
1630.6989 372.00824
1622.6857 370.89566
1616.2549 375.14044
1613.0648 370.7497
1612.6321 365.15677
1609.2686 360.8636
1608.7501 355.83603
1602.5413 356.98312
1600.1627 361.96036
1598.2555 368.33023
1604.8427 365.50824
1605.5093 371.13562
1608.7451 377.07187
1612.29 383.2201
1607.1763 389.87253
1604.515 383.3312
1597.594 382.9789
1600.8403 376.4264
1594.4741 373.22873
1590.6007 378.1445
1582.909 379.07022
1586.7261 385.54556
1592.6104 387.4854
1599.2542 391.11353
1602.7063 396.99057
1605.7534 403.76666
1597.8037 403.27817
1592.3 408.33322
1588.9565 414.913
1590.0859 423.12262
1596.1354 428.41565
1601.4128 433.42313
1605.9086 441.48672
1597.7417 445.92606
1598.4398 439.01218
1593.0371 437.9549
1587.1633 440.1564
1589.6813 432.56647
1584.7821 428.6233
1583.015 435.91522
1577.6853 438.4386
1577.0128 432.00943
1575.4893 426.90164
1580.755 422.903
1583.2571 418.26892
1582.6399 412.22345
1582.2428 406.96283
1588.607 401.37485
1592.4526 395.1314
1584.6978 393.67728
1581.0891 400.85327
1573.7048 406.10327
1575.3704 399.5459
1569.927 397.01846
1573.4451 393.62177
1578.419 393.0
1579.563 386.60873
1574.1709 381.1962
1577.4021 374.30844
1569.8157 373.7756
1563.8531 369.40942
1560.5731 361.70413
1569.8545 363.37906
1568.9985 355.1681
1561.6797 353.50208
1555.4585 354.1645
1550.9037 358.08368
1547.7048 352.2501
1554.0426 347.07413
1559.4684 345.1998
1564.9386 347.08533
1570.8324 347.04266
1577.1931 358.51178
1577.2772 366.41644
1583.9956 370.21808
1589.86 367.9301
1593.5369 362.2851
1594.6215 356.31522
1586.261 360.62177
1583.7251 354.41904
1576.2983 350.67126
1579.0132 343.60672
1581.6707 336.7537
1572.6443 341.11862
1567.1011 339.10342
1574.4158 335.6631
1568.7637 331.38977
1563.0596 333.35925
1563.5686 325.3165
1558.79 328.48135
1555.992 333.72104
1561.1569 339.14508
1555.4473 339.77185
1550.3627 339.70633
1545.8046 335.8295
1544.5477 341.988
1547.8865 346.16824
1539.2444 342.7669
1540.0056 335.65265
1536.1162 331.86346
1530.5116 334.74973
1533.7471 342.32266
1528.3215 347.28714
1533.7224 352.25943
1540.4543 349.6007
1541.6562 356.95663
1542.7789 365.00977
1537.0905 361.54297
1533.1139 366.326
1529.9253 359.41937
1525.01 353.81122
1522.1746 346.0595
1524.1312 339.35114
1518.5195 334.91812
1524.6989 330.30887
1522.7462 324.20914
1517.3523 320.70944
1510.4608 317.34055
1515.3313 314.18866
1509.9038 307.7028
1508.8896 298.23016
1507.2717 291.4824
1516.7045 292.1375
1525.8594 291.54965
1522.0653 299.48904
1515.0939 302.27496
1519.1041 309.2014
1524.6003 315.63043
1529.883 320.16522
1530.8529 326.59433
1537.3094 324.63617
1536.3568 317.34402
1542.8679 324.06232
1544.6478 329.5296
1550.452 332.55078
1552.096 327.00476
1549.0536 321.7115
1545.6344 317.7681
1551.0099 311.51898
1555.2952 315.54987
1555.7781 321.98984
1561.6849 318.65042
1567.7999 318.15338
1572.982 321.19415
1569.2673 325.0229
1575.0682 326.0103
1581.1133 324.21198
1578.6841 320.1078
1582.8079 315.95715
1574.675 316.67224
1574.8262 310.13162
1576.3528 303.7448
1567.6044 305.8798
1567.4613 312.1165
1560.3912 310.70175
1558.2772 304.044
1563.4119 300.06894
1566.7712 294.0962
1574.1968 289.9914
1567.0326 283.55203
1571.5874 268.67334
1562.1527 274.11404
1546.1581 262.07584
1539.7428 266.43018
1538.7384 274.48285
1536.3529 280.4681
1542.1509 285.12506
1546.6333 279.3477
1555.5005 281.39746
1559.6783 288.6308
1550.6365 289.0382
1555.504 296.21356
1551.7405 304.27167
1546.3405 298.7141
1543.3826 292.22433
1538.2212 302.7023
1544.8867 306.73715
1543.1818 313.53937
1538.173 310.1474
1531.6982 310.20154
1525.7971 306.9063
1530.2825 300.14047
1536.107 295.27213
1534.4905 288.29407
1528.2489 284.15997
1520.1936 282.7996
1511.4406 284.22324
1502.4836 279.75183
1506.6759 274.56754
1507.3917 263.8648
1511.4948 269.37006
1514.6012 276.6498
1519.0076 270.33655
1523.3354 274.50198
1528.1355 278.1031
1532.9186 274.8369
1534.7687 269.88745
1531.8081 266.13986
1528.4232 270.74786
1524.9432 265.8932
1521.0648 260.4465
1515.2484 263.5691
1513.9054 256.7274
1519.1185 249.97557
1512.1252 248.9801
1507.1265 255.48569
1505.1876 249.07195
1502.6428 243.00293
1499.2292 250.10718
1493.9688 245.70338
1496.2068 240.59752
1497.7498 236.21574
1491.4968 234.5231
1489.5488 240.52684
1482.9402 241.40324
1484.9435 234.25061
1487.4366 228.00725
1479.9036 228.32463
1478.0597 235.22717
1472.0162 236.45857
1467.8531 231.86852
1465.3167 237.15915
1456.454 236.07362
1460.4832 239.44554
1460.2219 244.2978
1462.0685 249.91925
1465.0137 255.66353
1456.0359 255.91142
1454.8866 248.41801
1448.6237 248.01003
1443.1251 244.49464
1435.3708 245.30945
1429.8967 250.59554
1417.0442 244.49733
1409.697 249.80473
1408.1309 256.55463
1399.1484 260.13486
1395.8768 265.02136
1390.4518 263.87183
1385.9226 261.09537
1392.3336 257.90878
1394.7107 251.4495
1401.4167 253.43965
1399.0232 245.09734
1392.6453 238.4822
1399.2736 236.7287
1407.294 244.66336
1406.8417 238.68153
1405.8041 232.41548
1407.2339 226.90288
1412.6665 224.72903
1411.5972 218.11429
1409.9465 211.21873
1415.5189 205.60658
1418.9423 212.40395
1422.5238 218.62202
1419.5978 224.58517
1415.3679 230.70166
1413.6274 237.06693
1421.681 236.73317
1429.3983 236.45328
1436.2065 236.91647
1443.561 237.52133
1451.1167 240.17725
1446.4692 231.03299
1452.6099 231.38823
1460.7108 230.64557
1462.4551 224.08412
1467.5671 225.67596
1473.3647 227.71078
1465.4364 218.52509
1470.8225 217.52068
1474.6494 221.23976
1480.4 221.26988
1485.2911 222.66548
1493.2953 230.16867
1495.9806 227.6539
1492.9347 222.44467
1489.445 218.50752
1495.1953 213.66805
1501.01 206.0837
1490.1072 208.39583
1486.4844 213.97232
1481.7344 210.14102
1478.8351 215.50363
1475.086 211.19412
1469.735 211.3475
1463.9412 213.04396
1459.1987 214.8818
1454.2957 213.04688
1458.558 220.07858
1455.2704 225.3192
1451.8268 218.4425
1447.8677 223.95755
1443.7983 217.10725
1448.0012 211.69363
1443.7948 204.31967
1439.3865 202.50667
1437.3633 197.6415
1444.3198 196.45921
1439.2139 191.94992
1433.8792 187.5283
1438.2528 183.59084
1445.5483 188.98508
1453.5737 185.5019
1449.8854 182.46039
1443.9698 181.01564
1439.6355 174.4159
1433.1926 167.30086
1430.0704 178.81311
1422.763 184.75471
1427.4524 188.46243
1422.6378 193.65042
1431.3369 193.27727
1432.3876 198.14113
1432.2247 203.59865
1434.7313 208.81308
1440.5785 211.01152
1434.4034 218.0541
1440.2634 222.9663
1439.7709 230.3258
1433.5604 227.49306
1427.7799 225.01068
1428.8036 213.98735
1425.7979 207.66086
1426.9994 199.09128
1421.9155 202.44804
1417.3607 198.47447
1416.3787 191.75331
1411.2767 187.98346
1403.3082 185.92453
1395.7708 185.13048
1390.1528 176.34778
1388.0388 167.55098
1389.704 183.598
1390.5696 192.034
1391.4141 198.95267
1396.9276 196.71927
1399.9767 191.51173
1404.5421 196.73462
1408.2616 191.85904
1411.2245 198.5352
1407.3827 204.38785
1400.692 202.81418
1394.4945 206.21956
1401.0134 210.79695
1402.2307 217.3931
1403.2809 222.9401
1398.6945 228.63344
1391.8955 229.1495
1394.5222 221.3422
1391.0856 214.10889
1386.395 220.65047
1381.5018 223.68744
1386.4635 231.99588
1379.7703 230.76645
1375.5726 225.23639
1370.9325 228.73273
1373.3336 235.08687
1367.051 233.99165
1368.4658 242.36986
1374.3226 242.55624
1372.5303 249.53883
1364.9567 251.88464
1361.5669 258.87048
1355.7084 262.42764
1352.4998 268.30508
1348.6339 273.5872
1342.1643 275.6965
1337.145 281.3908
1332.4916 286.713
1331.0615 293.44504
1334.5393 299.6918
1329.0145 301.49448
1332.8667 308.0144
1335.0839 314.4953
1338.0543 320.18915
1342.0432 314.4871
1342.1415 308.52728
1339.5721 304.18344
1349.5603 300.63602
1346.3679 295.5793
1340.767 298.10913
1339.0056 290.8296
1344.3712 282.9958
1346.3806 288.999
1352.8024 292.11942
1359.639 292.83838
1357.5327 299.2542
1355.115 305.83023
1361.7819 305.51334
1363.6022 312.60507
1358.5568 311.1988
1354.3513 313.81564
1349.1545 306.4451
1348.0718 311.12933
1348.5598 315.83838
1351.7919 319.92813
1357.6582 320.60583
1350.6355 324.95175
1345.1506 320.8001
1342.2184 325.74088
1349.7806 329.60455
1356.3746 329.2395
1361.708 327.59415
1365.6838 323.00977
1363.1425 317.6958
1369.0171 316.7414
1374.5515 316.06693
1380.9485 314.8797
1379.9448 309.12152
1372.8247 310.07712
1367.7534 308.16998
1365.7725 300.30807
1368.5392 295.39355
1366.0449 286.4892
1368.1378 282.02585
1368.8502 275.8118
1371.2854 270.56168
1363.3892 273.5078
1362.2892 280.57104
1357.4597 285.36438
1351.355 282.1552
1356.2958 276.17767
1360.0833 268.09506
1366.6798 265.09555
1370.0897 258.01324
1376.654 255.56061
1380.9368 250.00775
1380.795 244.19495
1379.4944 237.30408
1385.7677 239.55084
1389.585 245.75139
1387.7836 252.24405
1383.4094 256.38885
1378.618 261.29453
1374.3534 265.35056
1381.6317 266.03748
1382.1758 272.3411
1392.7687 270.436
1395.5457 275.71384
1395.5376 282.43378
1388.2546 277.16965
1379.7179 279.46744
1387.1335 284.64233
1387.5511 294.37387
1395.2849 296.97845
1394.0338 290.22934
1401.6503 289.53204
1409.5247 286.64212
1403.8973 281.18747
1401.8059 275.087
1400.3866 269.05243
1404.5068 264.00546
1410.2562 263.17047
1416.4175 260.65515
1423.0519 257.27295
1428.856 263.1191
1420.8217 267.65594
1413.6262 269.84708
1407.4081 272.37094
1412.7362 278.59494
1421.6346 276.81564
1418.9983 284.14774
1415.5817 291.2107
1408.2236 295.8013
1402.0553 299.62457
1393.6448 304.9873
1387.7483 301.3099
1382.482 303.66885
1388.7899 311.109
1399.8048 308.1607
1409.3678 306.09604
1418.6 305.5479
1421.719 312.84518
1426.4635 307.6861
1429.2603 301.28452
1422.6664 297.59644
1415.0454 298.94785
1424.2754 290.62598
1428.4039 284.5178
1433.6399 278.9123
1427.6112 271.99603
1434.2118 269.50476
1440.5214 272.44962
1442.9523 280.1265
1447.4153 285.77707
1454.081 282.2937
1454.0 275.65503
1448.7426 272.68796
1446.038 266.52252
1444.7345 260.13254
1438.27 262.8604
1433.2977 256.5951
1440.7281 252.89066
1449.029 255.50096
1453.2417 264.11502
1461.2659 261.66513
1459.3405 269.12357
1468.2992 268.66687
1470.8337 261.97693
1475.4182 256.46704
1470.6177 250.909
1468.1263 243.75346
1475.281 242.80597
1478.7576 248.37793
1486.4274 248.00139
1491.2936 252.25113
1496.457 256.3058
1501.2524 259.61865
1499.7334 266.6955
1497.1858 273.22543
1494.6257 280.4121
1487.7253 282.46588
1486.5636 274.89764
1489.8086 267.83362
1490.4307 260.35123
1483.0461 254.97847
1481.301 263.11874
1478.1211 270.73035
1469.547 277.10147
1462.209 276.05057
1461.9736 283.42108
1467.1656 287.58777
1476.0121 279.13297
1480.8247 283.6265
1473.3613 287.56223
1477.6865 293.62567
1484.5345 290.67136
1494.5632 288.36185
1502.2804 286.47385
1499.1473 295.14307
1502.2814 303.30197
1494.8401 302.00055
1488.3789 297.03275
1486.1448 303.61502
1481.9003 308.34055
1480.5153 314.8576
1481.8094 320.8433
1486.1747 323.89285
1480.7852 329.82596
1476.5325 334.4972
1477.799 339.89053
1468.9128 342.91525
1474.9908 344.2088
1480.2205 350.22992
1482.9192 344.6514
1488.5421 343.6178
1483.7632 337.8616
1485.8876 333.20667
1487.362 327.9266
1494.1882 324.9765
1491.9058 330.99374
1491.7185 336.8879
1494.456 341.80362
1498.8265 345.7996
1493.4852 350.02603
1487.1553 352.29303
1484.165 359.09686
1477.6472 357.8395
1473.6284 350.82248
1471.4685 357.48996
1471.2886 364.13968
1478.1487 366.36963
1470.1736 371.4065
1475.2769 378.28397
1480.867 372.53412
1487.4458 374.24396
1494.4873 371.2145
1488.5718 365.08685
1493.9796 358.14288
1501.2874 353.024
1499.8201 362.59528
1502.129 369.68298
1501.2097 377.30475
1498.0542 383.48083
1510.2471 382.54584
1508.1361 376.1503
1510.2799 370.80283
1515.1877 366.9266
1508.0149 364.03568
1507.2993 357.29678
1509.5012 351.08878
1504.664 344.3837
1501.2014 337.93243
1507.234 332.68213
1502.9978 328.73334
1497.6263 332.16287
1500.2373 323.84094
1501.2745 318.61108
1498.4762 314.5066
1494.0848 317.6766
1488.8057 319.56415
1487.0616 313.9321
1490.5802 308.944
1496.2472 309.33725
1502.4297 309.61206
1505.922 313.7959
1506.4424 321.7494
1510.8804 325.67096
1515.9435 329.36142
1510.6775 337.2908
1516.7103 340.93753
1510.5585 344.30154
1516.0442 347.37338
1517.2773 353.3036
1514.3691 359.88712
1521.3818 359.27985
1521.7329 364.7646
1526.4229 367.5325
1538.5017 371.58334
1534.56 377.91956
1530.348 372.8179
1523.8063 375.3253
1518.941 371.78387
1516.2416 378.385
1516.9218 387.46042
1505.6648 386.6529
1500.8165 390.94467
1492.7275 393.44135
1497.2803 396.99628
1502.9486 398.27448
1508.6543 399.1636
1509.7216 394.20752
1513.5946 390.88538
1521.3943 385.46338
1526.2128 381.12674
1533.6093 385.46286
1539.999 391.43314
1547.8569 389.4543
1557.2144 386.73578
1552.6505 382.10065
1542.1418 382.36908
1544.1293 374.33484
1550.0243 376.87262
1548.4331 369.13272
1550.3145 363.09833
1555.7466 369.82513
1560.5494 377.56015
1566.1768 383.1106
1570.9397 388.5104
1561.4854 391.0378
1565.103 395.0671
1559.8086 400.2717
1567.1786 402.3371
1564.1443 408.08014
1574.7155 413.88568
1571.3157 421.8202
1562.6145 414.17148
1564.3481 420.25812
1562.4315 427.19073
1568.692 430.78848
1571.4493 438.06454
1572.6719 445.15073
1572.8124 452.09506
1566.0056 447.10956
1566.3093 453.44794
1561.8645 457.58334
1562.3041 464.5247
1557.0306 467.38614
1550.2997 462.37592
1555.552 458.70837
1551.0857 452.9445
1550.6736 446.12317
1543.8896 447.06512
1537.9679 442.50714
1545.7074 438.69098
1553.7765 439.39584
1558.6239 451.0598
1559.4858 444.1086
1564.5653 438.53766
1558.8883 433.68393
1541.1261 433.67706
1541.9556 425.10324
1549.5538 429.5076
1556.095 421.6817
1548.9274 420.2434
1542.7926 416.58087
1540.7656 408.9812
1547.1819 409.13977
1554.3331 412.89136
1554.2952 404.8791
1553.3721 395.53656
1546.8344 399.57657
1540.9442 401.1321
1535.8693 397.3237
1530.9585 393.97546
1526.2727 389.60028
1523.544 396.50363
1516.8395 398.72055
1517.1831 407.93533
1524.1432 410.69254
1527.4148 417.55148
1530.3042 413.71674
1530.2848 407.9456
1523.3628 403.8894
1530.3636 401.6502
1535.9329 405.29303
1536.1025 412.99033
1535.1954 419.28476
1533.264 425.2127
1535.5038 431.00635
1526.8494 423.4904
1522.3302 418.93848
1519.3903 423.91525
1520.868 432.52155
1515.5441 429.85632
1507.9392 432.3564
1503.9215 438.4818
1499.2323 444.7048
1496.8647 451.20285
1489.9261 450.9828
1486.8262 456.6182
1481.5227 457.47513
1478.0955 452.88
1473.9482 448.08542
1477.6182 441.8426
1483.2375 447.61746
1491.1475 443.26175
1484.3817 438.80734
1490.1495 433.75275
1497.5028 435.73196
1497.6873 427.22983
1504.5397 424.33734
1511.2434 425.19452
1513.4554 419.43512
1518.3425 414.54404
1509.813 413.6865
1511.5797 405.7781
1505.6542 405.3784
1501.2274 410.19888
1503.1671 417.1479
1495.5836 417.92453
1490.0819 424.9487
1486.2793 418.25565
1486.0927 409.11014
1493.1854 410.7205
1498.5652 403.8504
1492.3334 402.5841
1486.2695 400.47748
1478.9512 400.45673
1480.7378 394.52115
1485.2885 391.40158
1490.4023 387.21326
1491.5105 380.30527
1483.0137 382.00778
1477.3074 386.69028
1474.2524 392.95462
1471.5356 399.37775
1462.5797 400.97238
1466.9227 393.3302
1469.4216 385.82285
1467.9161 378.33026
1461.8552 375.18936
1462.423 382.16946
1460.9482 388.46664
1458.7686 394.71005
1453.6733 401.46613
1453.9524 409.21533
1462.2974 409.5509
1469.4795 406.02893
1477.6492 406.83878
1479.1497 413.92633
1470.1 415.077
1476.6123 421.67813
1483.0481 427.9696
1478.1721 433.38156
1471.9365 438.26462
1467.0237 433.98254
1460.321 438.811
1457.8595 444.55795
1467.1632 443.42862
1465.603 449.45212
1463.223 457.33286
1459.1235 452.53818
1453.6366 451.02383
1450.0168 446.48135
1447.3826 441.0448
1441.6713 442.13248
1442.878 448.64355
1439.7937 454.93484
1436.4069 444.9855
1435.8239 438.43375
1443.5665 434.86194
1452.0846 436.2128
1448.2932 426.81595
1455.396 427.45343
1460.5918 431.79388
1472.2793 428.1794
1465.2231 424.16824
1460.6494 418.02112
1453.2474 417.6638
1446.9099 418.61392
1441.0331 421.94345
1441.0155 429.40692
1435.3884 426.43732
1433.8094 432.19238
1428.2389 434.99936
1428.2328 441.08127
1430.5818 446.63687
1434.8003 451.46396
1429.3871 455.31146
1424.8545 449.24823
1420.7891 455.7339
1417.4094 462.0964
1423.3997 468.5489
1427.1897 461.67963
1432.1731 467.73654
1436.5421 460.79102
1446.2638 455.13083
1443.495 464.2817
1449.814 467.40262
1451.1318 474.89786
1457.6746 469.7276
1451.726 458.77866
1457.7267 461.62088
1463.8884 464.8209
1469.829 463.26794
1468.5151 454.97607
1472.7668 456.35773
1476.1152 459.93106
1477.1311 464.3477
1480.6462 468.25992
1479.9873 473.72665
1483.3112 478.71585
1488.5961 481.3954
1496.101 479.19556
1490.9631 488.34943
1497.3556 487.25146
1506.3225 491.52618
1514.6705 491.2032
1517.4583 483.65842
1509.9623 484.63968
1502.911 483.1552
1504.462 475.34357
1499.0361 469.39352
1493.4291 472.9006
1487.5232 471.18414
1484.8291 463.81628
1491.5891 463.8454
1494.1641 457.29053
1499.0743 461.42764
1504.6212 464.50378
1509.8563 466.3245
1511.7202 472.05902
1512.4294 478.02118
1519.7256 476.0262
1525.9292 475.02896
1529.6104 481.01694
1523.9277 483.21628
1522.886 490.81372
1530.2784 488.1674
1529.8696 494.98566
1524.5315 498.534
1518.814 497.6119
1511.9607 499.0919
1504.8103 500.5506
1499.97 494.03354
1495.1516 497.23837
1488.7811 495.7021
1482.5642 498.7622
1483.3667 489.68503
1478.171 485.37747
1475.1666 479.32162
1473.4901 470.06104
1465.7358 471.0589
1469.9259 475.748
1467.9639 482.80234
1461.5979 477.17932
1456.6658 481.4631
1461.9647 487.26578
1459.496 493.89267
1452.6917 490.25092
1454.2914 497.96045
1457.9113 504.42703
1458.358 512.21765
1452.8357 517.99817
1443.911 516.0896
1449.6057 509.71014
1442.9373 505.52985
1448.8962 501.47748
1446.1837 493.0273
1442.0414 497.74423
1437.1715 503.0028
1434.2546 498.77405
1429.0929 501.93808
1429.9259 508.5185
1437.274 510.95135
1436.8441 520.62494
1431.6495 517.22864
1424.9519 515.40076
1418.238 512.07056
1411.6034 512.3062
1406.5181 518.1988
1403.5 511.46994
1404.9652 504.72015
1413.8862 503.06033
1422.0757 506.39
1421.5522 499.5938
1419.0333 493.15936
1412.1893 492.7161
1407.8789 497.54572
1402.2058 491.19614
1400.1621 497.7777
1396.0564 503.38043
1389.2065 507.81467
1396.1237 512.7439
1390.0115 522.906
1399.2811 522.70746
1408.8557 525.2716
1417.014 520.7246
1420.7871 527.25134
1427.6241 524.0094
1429.4664 530.7062
1435.1422 527.8438
1440.0665 530.986
1442.3662 524.21747
1446.7772 529.3561
1450.8145 524.43646
1460.1678 521.80676
1467.081 523.65485
1472.4402 528.7046
1477.0974 524.58356
1480.03 519.7887
1479.5337 513.00885
1473.0477 514.45154
1472.0867 520.76306
1465.5598 515.35736
1468.2205 508.83636
1465.2418 503.0495
1466.1365 496.08792
1471.2292 489.7358
1475.7928 495.4305
1472.7726 502.2454
1478.3951 505.91803
1485.9475 508.87006
1490.5138 503.73303
1498.0994 505.358
1494.0533 513.0994
1487.0023 517.89154
1493.4824 522.2934
1499.9441 524.2588
1497.3834 531.4552
1504.5123 527.9396
1509.9158 530.6594
1515.848 532.0967
1516.9286 523.26245
1519.4313 513.757
1511.8384 515.612
1508.6344 522.0617
1501.7787 516.7289
1504.626 509.58698
1511.7183 507.6961
1517.6802 505.26794
1523.35 506.07336
1529.3972 501.98715
1529.4617 507.23004
1527.28 512.13226
1533.3997 512.64764
1539.1393 512.5406
1540.5533 520.0591
1536.85 527.4407
1532.377 520.6942
1525.6556 517.2744
1524.174 523.4728
1527.4625 528.97974
1522.8171 535.05804
1519.5269 540.4487
1513.234 542.1634
1507.3889 539.6916
1504.2975 534.8921
1498.5787 538.9819
1498.9213 545.21436
1502.1523 551.82495
1506.8182 546.51227
1510.4897 552.8222
1516.1945 549.5642
1521.9946 546.6193
1519.1039 555.71405
1518.2153 563.4037
1512.658 560.50366
1505.612 558.9409
1498.9802 561.4364
1496.3977 555.5054
1492.9176 549.71423
1490.7891 543.6638
1491.3662 536.19116
1489.8196 529.4728
1484.4938 526.0545
1478.6534 529.88873
1482.5618 534.341
1475.2618 535.2795
1479.238 541.5813
1485.3363 540.22894
1482.949 548.1979
1480.5547 554.8998
1482.6295 560.362
1487.8656 554.5174
1491.4088 560.6462
1487.0155 564.5453
1484.3077 569.73584
1480.4233 565.2883
1479.4364 570.5683
1481.3258 574.64154
1479.764 579.6574
1485.1276 581.897
1491.1046 579.7912
1486.9099 575.29266
1490.0731 569.96265
1495.8538 574.6302
1495.0955 567.2173
1501.7057 568.163
1508.2422 567.74817
1515.789 569.56744
1512.9927 575.58057
1511.784 582.10516
1510.9126 588.9555
1503.7535 591.2351
1503.4121 584.711
1503.6377 576.4392
1496.2662 583.65466
1494.4111 591.7264
1487.8778 588.341
1480.1184 587.0054
1481.8082 594.51373
1488.8846 598.45337
1494.5642 599.8634
1485.1733 603.97656
1479.1257 602.35004
1479.6022 610.646
1478.4333 618.3443
1484.2556 623.71686
1485.9497 616.6649
1487.7888 610.13086
1493.595 608.00806
1493.0323 616.1803
1491.3397 622.49506
1493.9625 626.94476
1498.9487 624.9303
1498.6628 619.51404
1498.6301 612.6083
1498.507 603.49554
1500.7278 596.6628
1509.322 596.0168
1506.4982 601.5759
1502.3445 607.01953
1509.9371 608.90515
1503.9111 614.6379
1504.0896 621.83563
1501.4275 628.8135
1500.6045 633.9474
1495.493 631.55896
1495.5148 636.5491
1499.5933 639.6027
1513.1738 639.9524
1512.2593 650.22614
1518.1885 658.8806
1524.0404 639.21765
1539.8875 636.12195
1535.705 646.1371
1549.4564 650.1584
1572.3599 646.41595
1591.907 633.59033
1610.0085 638.6585
1621.2915 650.3858
1613.2632 658.23157
1608.565 666.9664
1590.2493 664.168
1577.9785 671.2059
1564.7092 677.14825
1561.663 691.3341
1551.8025 693.3619
1544.5728 682.21735
1549.7112 671.7929
1533.0378 667.5751
1528.1741 675.78766
1532.7609 683.66595
1530.9998 696.5524
1538.3748 695.6253
1545.1128 698.68353
1534.556 710.30334
1514.994 702.6887
1499.7485 718.7623
1501.7491 705.81995
1512.2367 694.47736
1511.3193 684.2981
1520.1056 684.1444
1514.2667 672.7337
1504.8972 666.25366
1494.343 656.85565
1495.164 650.5546
1498.975 645.6845
1494.5631 643.7308
1490.8497 638.51074
1485.3398 641.24994
1484.8787 635.2226
1488.876 630.4141
1480.7931 629.94867
1474.8264 625.8907
1472.6104 632.7142
1478.259 638.0895
1481.5515 645.36743
1488.8649 646.46436
1487.6467 652.3539
1484.8744 657.0731
1477.4451 657.1751
1471.7184 658.49854
1472.5303 666.98535
1477.1647 664.00323
1481.7985 667.5143
1483.5225 662.30347
1489.8746 662.8903
1487.1886 669.8847
1481.5878 673.2712
1476.4846 673.0233
1485.5769 677.04785
1491.5927 677.73413
1499.9467 676.2624
1496.5103 685.2368
1499.8636 693.83185
1493.27 694.6761
1484.069 694.99634
1481.017 702.4941
1473.0979 704.4048
1467.1511 698.9501
1474.4525 696.28625
1475.4937 689.4235
1483.999 686.80493
1481.1057 680.8736
1475.1768 681.86194
1470.2579 673.9277
1465.2227 678.97656
1466.2096 687.76764
1459.8167 693.5305
1456.337 685.9957
1447.7881 681.5306
1439.4219 683.54535
1431.3162 689.0814
1431.05 678.846
1431.1726 670.1133
1437.9512 664.5005
1440.6941 673.96326
1455.6462 666.8929
1437.5452 652.814
1450.3755 651.59863
1469.9313 648.254
1479.3 651.5333
1475.7817 645.8654
1470.7421 640.6577
1459.534 630.8487
1444.5869 609.329
1410.0474 629.4208
1415.7379 658.3142
1425.6671 662.39606
1417.6812 668.92444
1424.9541 672.3269
1420.551 676.8501
1425.54 683.13446
1422.6542 689.24677
1424.7278 695.577
1421.1046 703.0664
1428.8213 703.09424
1432.3486 699.52246
1438.9191 696.1516
1438.5942 689.92267
1444.3273 692.6199
1444.5493 703.2304
1437.0786 708.7054
1429.6221 710.3875
1417.5364 711.20386
1407.7593 705.6307
1400.2906 721.7768
1407.4948 740.43286
1414.9929 733.53864
1425.6199 732.6549
1423.4119 745.807
1437.6935 737.55835
1438.0925 725.8284
1431.1803 721.70575
1437.439 717.37463
1448.9515 717.78503
1453.4178 724.3538
1453.085 735.11487
1465.3171 725.3661
1464.2913 717.46826
1457.9473 715.61194
1455.676 704.69336
1464.3066 708.02545
1467.772 711.72015
1477.2806 712.58673
1487.6292 711.722
1484.651 721.7117
1476.266 729.4374
1468.9718 735.42395
1473.7206 743.3624
1477.8566 755.76245
1461.6416 741.2658
1445.0455 744.5163
1459.312 757.7039
1453.5721 764.70105
1456.064 772.2934
1455.0366 782.3455
1443.8077 766.1443
1433.7069 782.9515
1431.4374 776.2231
1427.7035 767.81744
1413.624 771.29535
1399.7756 779.4076
1401.8254 751.9387
1401.4558 736.678
1388.9385 730.19006
1385.3438 719.11194
1395.633 708.7032
1411.1305 693.3946
1413.0082 682.61145
1410.5833 674.13654
1398.2435 673.7786
1402.4315 667.74927
1408.6049 664.758
1398.4272 656.23315
1393.9385 663.22064
1389.5361 669.40875
1394.1693 680.2425
1398.9318 690.3675
1391.5413 688.7245
1380.7618 695.54407
1380.2156 684.9082
1386.1609 680.32135
1376.4738 672.50275
1371.9271 662.0763
1354.5001 659.0077
1349.6725 669.8128
1356.7656 676.3953
1358.0385 685.8736
1368.2947 680.8478
1369.6797 691.4751
1368.9265 703.4187
1359.4241 698.68304
1350.3121 695.38794
1347.464 688.1979
1346.8627 681.0865
1339.199 685.6563
1333.2621 690.44244
1330.9829 697.53735
1336.6985 696.8712
1335.3766 707.0698
1336.0454 734.2097
1343.767 734.45074
1369.6359 730.6931
1375.4688 745.159
1384.3724 750.93506
1363.8225 747.7883
1357.5513 778.1504
1335.742 782.9515
1342.4761 761.43286
1327.9393 765.7044
1325.5648 749.0219
1338.7015 752.31287
1335.3475 742.2776
1325.2598 736.2071
1325.4497 711.02783
1326.328 704.2183
1325.4005 699.20575
1325.7666 693.51215
1326.1249 687.1947
1331.8643 682.96576
1326.4192 678.7537
1325.7595 669.6711
1332.6875 671.94116
1337.1019 678.0639
1343.8433 675.7932
1340.474 670.397
1344.0839 660.85034
1334.159 655.2913
1324.6488 654.20056
1325.086 645.2962
1334.7483 640.0856
1346.3649 632.885
1358.9008 632.5837
1350.5706 639.7186
1349.1027 647.5286
1358.3267 648.0836
1360.142 641.0815
1368.7878 647.04834
1369.1193 637.7461
1382.0267 616.30963
1366.6665 606.78754
1358.1624 606.2833
1349.8325 606.65515
1348.7396 598.584
1349.7009 590.8816
1351.5739 584.89014
1346.0554 583.69916
1340.3511 584.4861
1342.9918 590.4236
1341.5953 597.18866
1342.8586 603.89514
1337.5387 607.20135
1337.1802 613.5097
1343.0078 611.21075
1347.4705 615.06415
1354.0565 615.4135
1361.3776 617.38385
1354.5427 625.48706
1346.8097 623.0297
1340.0135 619.1619
1340.3511 626.97577
1325.8037 624.25323
1323.9288 607.6374
1329.3114 597.3065
1334.8419 601.4475
1335.806 592.5304
1328.4811 590.14276
1334.4008 585.1118
1329.4745 581.98267
1331.907 576.96387
1337.7056 579.1582
1340.5187 574.9821
1344.2925 578.2059
1349.679 578.2119
1349.5792 571.107
1345.965 573.216
1341.9193 570.5743
1337.8738 568.97656
1335.4395 573.09
1330.7919 571.1397
1333.1848 566.0503
1334.8624 561.48737
1333.0665 556.4265
1334.009 548.6848
1337.6582 553.38165
1340.7677 559.2121
1341.2139 564.4481
1345.3983 567.7699
1347.6831 563.72675
1347.3633 557.574
1343.5775 553.1274
1348.2859 548.21674
1344.3855 543.00214
1339.9309 547.10693
1335.4623 541.9288
1335.4974 535.1711
1335.6404 527.1211
1334.6526 520.15356
1335.7998 510.9778
1338.3369 514.9101
1341.8213 520.0755
1343.1641 526.2098
1341.2499 531.6622
1342.0908 537.2756
1349.2815 537.6153
1351.1793 529.56775
1349.9866 522.2596
1360.5089 519.9688
1361.1083 512.6275
1368.9325 512.6712
1376.9082 518.68005
1387.5634 516.41364
1381.9719 511.62213
1375.3738 508.4072
1374.4738 501.34717
1367.9857 501.14044
1360.9938 505.4413
1353.9763 505.8639
1350.8771 510.51767
1353.3174 516.325
1344.9333 513.38983
1340.0369 506.35312
1346.7388 504.37106
1342.2905 499.42532
1348.7692 495.67957
1353.4937 499.5238
1356.456 493.26294
1361.4387 498.68353
1365.2417 492.49146
1372.4434 489.33325
1373.6577 494.78906
1381.8663 497.0295
1381.9604 503.48804
1388.7633 500.15216
1392.8201 494.28088
1386.3156 490.96268
1379.8234 491.77057
1380.3356 486.6045
1387.2825 483.2215
1391.2572 486.1881
1396.5795 486.66223
1398.3835 479.8935
1404.4681 483.97888
1410.7505 485.7738
1417.4279 484.63907
1422.3779 479.7762
1424.6016 487.10828
1431.2552 486.8474
1426.8325 494.68973
1432.8046 493.52264
1438.5632 492.3684
1438.8107 485.877
1445.0629 485.40762
1450.6658 482.9794
1443.2621 477.16983
1438.4309 471.53378
1434.5966 479.85376
1428.442 475.9604
1418.0859 473.65585
1411.8168 477.70865
1405.5488 475.34564
1411.968 468.2312
1407.8777 461.20212
1404.6603 453.48935
1412.4324 454.07663
1417.671 448.46237
1421.7273 442.0255
1420.6694 434.49472
1425.1145 428.91034
1418.1206 426.34924
1413.1195 433.57333
1414.713 440.63544
1410.1458 445.99963
1403.3894 445.37775
1405.6177 437.9108
1405.9023 429.6883
1411.4222 425.94266
1408.3619 420.21216
1411.444 413.00677
1415.1307 418.52225
1420.9004 419.9487
1425.5864 422.27744
1430.3049 424.2186
1434.6946 419.78946
1437.1459 414.42584
1431.1022 415.0932
1426.0967 415.47406
1421.3385 413.5787
1417.4741 410.8502
1414.0557 407.14902
1417.8971 403.10132
1423.311 406.3563
1429.1587 409.0689
1436.2783 408.33154
1442.9548 413.38748
1445.878 407.56274
1444.8513 399.8898
1437.4213 402.30615
1438.0968 394.69974
1434.3678 388.6283
1431.4963 395.69794
1429.1722 402.4795
1425.7137 396.2262
1420.0123 397.86914
1422.0145 390.1029
1427.4634 385.75604
1426.4939 378.9692
1432.5338 375.63983
1428.0842 369.5206
1435.234 367.56186
1441.5853 363.1349
1443.1744 369.603
1440.1033 375.3531
1437.0416 382.40378
1448.2013 378.5834
1444.713 384.18585
1444.1571 391.39392
1451.3252 394.0196
1452.4191 387.2109
1455.583 382.3979
1455.5256 376.78476
1448.8063 372.5018
1454.5675 370.86786
1456.2393 365.62585
1461.2909 369.8199
1464.6212 365.6775
1465.5002 359.09592
1460.4624 361.21204
1457.2819 356.89804
1451.759 353.9905
1453.7977 360.91187
1448.8926 365.58408
1448.3066 359.61636
1443.8989 355.98416
1444.9368 348.9706
1452.769 347.9352
1460.2546 352.76102
1466.9551 353.22723
1466.6558 347.83975
1460.6196 346.2655
1455.6667 342.01398
1453.2948 336.4491
1451.9706 330.1672
1446.2527 325.1838
1438.9171 322.89868
1439.0498 330.56018
1436.0647 338.032
1444.9083 334.29068
1446.328 341.6681
1438.1742 344.5926
1437.5459 352.739
1435.4474 359.37054
1428.4333 361.85406
1428.1381 353.97592
1431.8663 347.9289
1426.322 344.4186
1427.4308 337.47067
1423.7676 332.06516
1431.9525 330.10428
1425.1542 326.573
1421.7598 320.38892
1426.7834 321.20334
1432.2593 322.24564
1428.3544 314.9889
1434.8373 315.59906
1440.4573 314.41486
1445.7045 317.1013
1451.9087 317.6397
1457.2122 313.75647
1463.5553 309.6269
1469.6082 306.9094
1463.3651 301.94766
1456.8755 298.18555
1456.7959 305.86774
1450.6337 308.4768
1450.3585 298.9447
1445.5299 301.90213
1442.3253 308.11795
1434.2211 307.93103
1438.154 300.50217
1432.2358 294.31595
1437.1456 287.79947
1442.8381 293.2602
1450.9065 292.11383
1457.4302 289.8066
1463.7491 294.1063
1470.4285 298.11246
1478.2817 300.99527
1475.4763 308.2741
1474.0688 314.28735
1469.2356 317.2867
1475.3505 320.267
1477.3724 325.92734
1471.2551 324.5194
1470.8577 330.65753
1465.5286 325.3741
1464.0529 316.11136
1460.4231 321.39087
1454.9847 324.39844
1460.864 331.11554
1462.2921 338.52402
1469.0979 336.4504
" />
</g></g></svg>
