<?xml version="1.0" encoding="UTF-8" standalone="no"?>
<!-- Created for Inkscape (http://www.inkscape.org/) -->

<svg
   xmlns:dc="http://purl.org/dc/elements/1.1/"
   xmlns:cc="http://creativecommons.org/ns#"
   xmlns:rdf="http://www.w3.org/1999/02/22-rdf-syntax-ns#"
   xmlns:svg="http://www.w3.org/2000/svg"
   xmlns="http://www.w3.org/2000/svg"
   xmlns:sodipodi="http://sodipodi.sourceforge.net/DTD/sodipodi-0.dtd"
   xmlns:inkscape="http://www.inkscape.org/namespaces/inkscape"
   width="3200"
   height="800"
   id="svg2985"
   version="1.1"
   inkscape:version="0.48.1 r9760">
  <defs
     id="defs2987" />
  <sodipodi:namedview
     id="base"
     pagecolor="#ffffff"
     bordercolor="#666666"
     borderopacity="1.0"
     inkscape:pageopacity="0.0"
     inkscape:pageshadow="2"
     inkscape:zoom="0.35"
     inkscape:cx="1600"
     inkscape:cy="400"
     inkscape:document-units="px"
     inkscape:current-layer="layer1"
     showgrid="false"  />
  <metadata
     id="metadata2990">
    <rdf:RDF>
      <cc:Work
         rdf:about="">
        <dc:format>image/svg+xml</dc:format>
        <dc:type
           rdf:resource="http://purl.org/dc/dcmitype/StillImage" />
        <dc:title />
      </cc:Work>
    </rdf:RDF>
  </metadata>
  <g
     inkscape:label="Layer 1"
     inkscape:groupmode="layer"
     id="layer1"> 
     <g>
<path style="fill:none;stroke:black;stroke-width:2px;stroke-linejoin:round;stroke-linecap:round;" d="M 
1391.5353 761.9142
1386.1979 762.0595
1384.5157 758.0148
1380.2932 761.07874
1379.7148 756.0798
1376.3956 753.1364
1381.972 748.048
1385.9766 752.1585
1389.6644 756.3512
1394.6997 757.86115
1397.0365 762.6846
1402.0515 762.33887
1406.6355 761.83777
1410.2264 762.73126
1414.4702 762.1315
1410.789 758.7236
1409.8219 753.67346
1411.9288 748.7758
1416.4469 744.828
1416.9124 739.3135
1422.6978 742.173
1422.1323 748.4246
1421.8826 754.5885
1416.8998 751.8492
1414.8351 756.35974
1418.4194 760.3712
1423.3994 760.86816
1427.3214 755.8849
1429.1896 750.0123
1426.8375 744.5854
1430.8406 743.32166
1430.6973 737.95026
1426.7434 737.28174
1422.1353 737.26294
1420.318 733.2326
1415.9087 733.82434
1411.2593 734.3883
1410.6211 739.52924
1408.5876 744.3812
1404.9279 735.87177
1403.2051 741.3336
1398.4929 746.0244
1404.5165 748.9699
1404.3944 754.05194
1405.6292 758.181
1400.2295 757.9691
1398.6655 753.0859
1393.6466 751.2351
1389.981 746.6127
1391.8608 741.14703
1397.1743 738.44116
1394.1714 731.4714
1399.9629 732.69684
1401.2062 726.9437
1397.328 723.1331
1392.1494 723.3945
1389.7042 727.65466
1382.6438 724.7907
1386.4122 721.914
1386.4172 716.37994
1381.093 716.4922
1379.1505 720.7155
1380.0781 728.6361
1381.6199 733.9497
1386.3182 730.8194
1387.8713 736.6894
1382.8301 741.8529
1374.8488 747.66785
1374.5454 741.4887
1376.9111 737.0369
1374.5261 732.11383
1372.3142 726.24634
1376.2972 725.41846
1373.4773 720.72797
1371.8838 716.05225
1375.9646 715.22284
1372.7349 710.535
1374.0292 706.5519
1371.6185 703.1907
1372.6522 697.1954
1373.3922 689.6276
1376.5193 694.26575
1381.8749 694.7672
1380.1666 690.05005
1378.6376 684.616
1384.1434 685.2398
1387.4451 681.2637
1391.7843 682.91974
1389.8733 687.3302
1385.5677 689.99896
1388.8986 693.0418
1386.2601 696.5632
1382.9554 699.5041
1378.6973 699.4538
1376.0756 702.43524
1380.9126 705.14825
1377.9604 707.4509
1378.0021 711.5284
1382.0654 711.299
1385.263 709.8936
1384.3275 703.97974
1387.3646 701.16675
1390.3396 703.5609
1388.3485 707.44055
1393.7107 706.4518
1394.3716 710.411
1390.2247 712.7012
1393.1672 717.7941
1397.5165 713.45294
1400.6595 716.40594
1402.8877 720.3962
1407.0852 722.0788
1406.9209 726.7533
1406.7684 731.2117
1412.2224 728.5039
1416.9222 728.29486
1421.5391 728.9395
1425.3418 732.0056
1430.1935 732.66504
1432.496 727.9216
1437.826 727.89813
1438.1924 724.1144
1436.441 719.4675
1441.8734 721.8897
1443.7245 727.39886
1446.8175 723.1902
1450.6254 727.82697
1452.0751 723.2174
1457.2861 726.1952
1458.1351 719.7093
1463.0092 718.4759
1463.1505 722.5662
1463.3933 727.45416
1468.2402 725.08044
1472.199 728.1508
1473.7034 723.836
1470.0571 719.57495
1466.3395 716.4642
1473.7275 714.8958
1479.147 714.8958
1476.7417 720.12744
1478.3599 726.7607
1482.3773 723.9615
1483.3201 718.4121
1488.1375 723.6622
1494.0933 724.4198
1499.8944 724.05615
1507.1008 724.49414
1503.3816 720.9391
1500.3572 716.4305
1496.2001 713.36755
1494.9783 719.21594
1489.3622 717.676
1485.6156 712.5302
1491.0646 711.3691
1497.129 708.19293
1493.357 706.30963
1493.7527 702.1407
1488.4681 703.09454
1485.3657 706.2377
1481.0022 709.26556
1476.2646 709.3415
1473.1538 705.8664
1470.6848 709.77295
1468.8209 713.3817
1463.9484 711.4987
1460.9044 714.50024
1456.162 713.2779
1453.8561 718.5624
1450.0542 716.5272
1445.7194 717.28705
1441.2676 716.2435
1442.6473 710.0999
1437.3383 712.778
1431.852 711.99347
1432.4717 717.0176
1427.0493 715.5547
1424.0255 720.7933
1428.9054 721.5296
1433.1525 723.6598
1428.3762 727.67334
1424.9755 725.8084
1420.4039 724.39905
1415.692 723.1699
1411.6338 721.8315
1408.0908 715.95514
1404.4409 710.88983
1399.5682 708.1617
1399.2625 703.1977
1397.2681 698.21216
1394.5779 701.9262
1391.1669 698.0686
1394.3088 694.2015
1394.5171 689.4968
1400.273 693.7932
1400.9708 688.50275
1396.6204 683.64545
1401.9495 681.8682
1397.9819 676.65894
1393.009 677.4188
1399.9077 671.56274
1393.0896 670.66595
1389.1533 666.3594
1397.3756 665.70557
1395.9705 659.3185
1402.8024 662.1613
1408.4194 661.9034
1412.0651 658.1533
1400.4712 656.1891
1402.3785 650.0502
1406.6335 655.1638
1410.8744 650.1892
1413.9587 653.9653
1417.6812 649.7498
1423.3086 646.8893
1426.5673 642.133
1423.6616 637.2995
1420.158 632.695
1418.4796 639.6996
1415.0222 644.58374
1407.5466 646.43726
1406.9562 640.9116
1411.9093 638.7437
1413.7684 633.2892
1410.0979 628.7678
1407.1486 623.6156
1405.4462 618.0615
1402.2609 612.28375
1405.3606 606.3916
1401.9587 601.9116
1396.6163 600.79926
1397.6755 606.6551
1390.218 611.8763
1396.0381 612.0065
1399.3694 617.28925
1392.9529 617.3692
1387.7866 617.2895
1384.9133 620.91595
1381.4092 617.98773
1379.1317 622.35986
1378.8987 627.3237
1382.4614 625.16016
1384.4736 629.2794
1387.1462 625.764
1390.5208 622.92664
1395.6868 621.8288
1401.2784 622.7057
1403.6359 628.572
1406.4303 634.0876
1401.6388 637.1684
1396.5266 639.2459
1401.0449 643.57446
1396.6781 648.655
1394.0746 652.36926
1388.2268 651.1458
1391.408 655.78284
1391.4866 662.1243
1387.8048 657.14954
1383.7375 654.298
1380.9824 657.91473
1385.9343 660.78564
1382.5203 663.0341
1384.3297 667.96027
1385.6912 672.4772
1388.2902 675.93365
1382.8519 679.0259
1378.3718 677.49426
1373.5184 682.3707
1373.2219 675.8622
1373.0065 669.5235
1379.2478 671.9632
1379.2894 666.8094
1377.4828 661.8126
1374.2054 665.2075
1371.7501 660.57153
1375.1335 657.851
1372.4951 652.6522
1377.3217 654.5286
1378.5936 650.73865
1383.3195 649.29706
1388.6405 646.4218
1393.7311 643.6756
1388.5914 641.48517
1388.0227 637.08746
1393.0651 635.72034
1398.3823 632.3927
1398.1542 627.04944
1393.4844 627.5031
1390.9923 630.76324
1386.8773 632.8638
1381.1967 632.24084
1382.5616 636.6215
1383.7614 641.1107
1381.2975 645.21704
1375.7007 647.03955
1372.0607 644.97705
1374.1704 640.4087
1378.606 640.8076
1377.6836 635.3187
1373.3589 635.1605
1376.2698 630.1845
1372.5712 629.4769
1374.1221 624.6184
1373.8367 620.27606
1377.1124 618.0495
1377.9607 613.63214
1372.5975 615.4242
1373.3505 610.57434
1373.8314 605.4834
1374.876 600.02563
1373.7721 594.6314
1379.9207 592.2169
1386.231 592.58594
1383.973 598.3659
1381.457 602.98987
1379.3315 608.57184
1383.6001 613.82764
1385.1641 608.5366
1390.1825 605.0109
1390.7593 598.2743
1396.1049 594.6034
1401.7496 595.8878
1400.4843 589.8894
1396.9587 585.60284
1396.4999 579.5109
1390.9421 582.82605
1391.8157 590.1904
1384.9119 586.43585
1379.5576 582.6491
1374.5105 588.60077
1373.134 583.43835
1375.2295 577.5849
1378.364 572.06006
1384.2654 573.9743
1385.6486 579.5897
1392.027 574.6474
1400.6025 574.53
1404.2241 577.2093
1397.3138 569.8848
1388.4921 568.03455
1382.2843 564.82745
1387.4861 557.9482
1394.6458 559.11017
1394.6877 564.8359
1401.3246 559.30835
1405.8638 554.08057
1412.3773 565.57965
1420.3787 561.4741
1426.6038 561.90607
1428.7689 571.14276
1420.227 570.8951
1417.5807 576.849
1414.8135 591.6734
1415.1803 598.5019
1411.3812 599.04767
1407.3851 598.3843
1406.2844 593.8797
1417.1921 584.92035
1424.7218 575.78906
1431.1173 577.7268
1435.6543 576.1162
1433.4072 566.19946
1437.6904 569.5957
1442.3971 571.16693
1444.4147 566.84985
1440.5732 564.0326
1436.2161 560.466
1441.2384 558.0388
1446.1794 555.1352
1445.9506 561.9691
1449.7968 559.9853
1453.5911 554.15015
1449.4458 546.947
1441.7645 548.7414
1434.8315 544.3714
1430.2932 550.202
1426.0098 542.93225
1418.4728 544.76416
1411.4294 547.39966
1404.4836 545.0133
1398.8757 548.0963
1395.4397 553.20557
1390.3593 548.75574
1397.3173 542.5359
1399.9878 537.0023
1397.7883 532.99097
1396.2406 528.1962
1389.5984 528.12177
1384.6156 526.5069
1382.3152 519.05756
1376.1528 520.6311
1379.8046 526.9977
1374.2155 526.36975
1368.7223 522.78107
1360.319 516.4473
1362.2847 502.55838
1376.7163 494.6111
1385.9316 498.80743
1390.2843 495.32834
1394.7802 498.19098
1392.5208 503.1504
1392.0344 508.83316
1385.8279 508.36584
1386.938 513.1585
1389.5569 516.58563
1388.415 521.9575
1393.2944 524.5015
1398.261 523.0747
1394.572 518.91284
1396.533 513.7691
1398.4031 507.93167
1398.963 502.301
1403.4132 501.13715
1404.6848 506.7351
1403.351 511.9348
1405.0371 516.13617
1401.0078 518.71
1403.1749 524.8265
1400.8099 528.8189
1403.7072 532.48615
1408.1897 525.3619
1406.865 521.0444
1412.0781 528.07574
1407.7306 530.35297
1407.7067 540.2195
1412.7238 536.06647
1419.2123 533.5573
1428.5754 532.9355
1424.6354 531.12244
1422.6376 525.94025
1416.4783 524.1907
1418.8525 519.50397
1420.512 513.31586
1425.887 510.49057
1422.803 506.33524
1424.8649 501.24368
1425.52 496.11465
1428.1919 492.18216
1432.5128 492.60287
1434.9541 497.67465
1436.8688 492.22052
1437.5116 487.66855
1430.4592 486.0848
1436.0612 483.5325
1442.4631 482.20535
1443.1938 475.18857
1439.133 479.04453
1432.7919 478.86298
1436.3933 473.52344
1441.0052 470.37988
1445.6261 469.82224
1448.5768 465.4322
1449.0286 460.03088
1443.8594 464.59366
1437.693 466.3686
1441.6487 460.31088
1445.1521 455.3454
1452.109 454.74374
1453.9674 449.2177
1447.6903 450.5331
1448.8197 445.25345
1452.9445 442.02637
1457.4535 445.11472
1458.7937 439.9077
1454.4667 436.234
1458.499 433.04678
1463.2385 435.1118
1467.3732 430.6793
1459.4641 427.70068
1464.1023 425.48105
1467.1627 420.87054
1471.1432 425.64493
1473.4388 429.73737
1474.6509 432.8137
1479.5458 430.75934
1486.1411 430.43146
1490.9781 429.85254
1495.6554 429.33527
1501.015 430.61597
1505.188 427.04767
1509.9608 429.28317
1515.1261 428.06357
1520.6205 428.6911
1525.6534 429.51056
1529.8933 427.64267
1534.42 428.14575
1537.9802 427.59064
1541.2382 429.55942
1541.435 425.8073
1545.0 424.79742
1542.873 422.13953
1537.7906 423.3106
1532.4084 423.50903
1525.4766 423.90506
1518.4716 423.54114
1510.4252 423.5951
1500.3267 424.96457
1494.7416 424.25998
1489.8549 425.18307
1485.0924 425.6288
1481.7167 427.9434
1476.6571 426.25378
1479.2473 422.9196
1472.1084 418.00717
1475.718 412.26407
1479.4434 417.33868
1484.6533 414.1203
1491.17 416.46112
1497.3127 412.6523
1500.4885 415.8834
1506.1925 414.45615
1511.0441 411.16263
1513.4938 415.1115
1520.1172 414.6143
1521.7386 410.29755
1526.8065 414.36182
1530.1793 410.0751
1534.168 413.20688
1540.1571 413.3959
1540.3032 408.1463
1546.2676 412.18802
1551.9707 411.6493
1557.3513 412.67557
1561.0658 408.7596
1563.7936 412.9866
1567.9347 409.97247
1572.1885 412.6733
1574.8362 407.46014
1578.7676 412.3602
1582.8167 408.2435
1585.7191 412.8624
1588.6172 408.4393
1593.6128 412.78104
1594.6942 407.07693
1600.2805 410.35068
1606.2231 410.78174
1612.3619 406.65723
1612.8673 412.38077
1618.9205 411.32797
1623.002 407.61777
1625.3538 412.86276
1629.7734 409.56168
1633.4601 413.7694
1638.1638 410.10703
1643.1089 413.61176
1646.5928 409.26865
1652.4006 413.6109
1657.9667 410.00443
1660.7693 414.66644
1666.3074 412.39648
1671.7941 415.21466
1676.0948 410.95544
1678.6096 415.92487
1683.0992 413.0708
1687.635 416.8117
1689.5259 412.47058
1697.646 413.24832
1707.3088 410.80045
1716.0955 414.16364
1714.696 419.2897
1710.833 414.88074
1707.9955 418.0149
1702.3196 417.178
1695.1648 417.70697
1689.9265 424.90405
1683.4198 425.01813
1677.4569 424.72308
1671.7382 423.8096
1664.9678 424.1985
1658.0967 424.79062
1651.6243 423.8124
1643.8015 423.147
1640.7456 427.23572
1647.2085 427.68213
1654.2341 429.18787
1662.842 429.25995
1670.8479 428.99124
1678.8214 429.84262
1685.5701 429.6288
1691.5625 430.5298
1696.1018 426.98965
1701.6372 428.0833
1707.8494 430.15793
1708.4756 425.30246
1714.0806 428.63358
1714.4227 432.62756
1720.3346 430.46692
1716.4607 425.35504
1720.6421 422.34616
1721.9524 419.17722
1724.8068 424.9604
1726.5679 429.14844
1725.264 434.2431
1726.4028 438.70233
1732.3236 436.60425
1734.8049 442.2647
1729.5966 442.26038
1729.1321 446.7966
1733.0607 449.50052
1738.0674 446.51794
1739.8909 452.0288
1735.3143 456.0389
1738.412 462.6573
1743.544 458.40475
1743.6367 465.4734
1742.7229 471.994
1748.9497 468.25687
1750.5908 474.52216
1754.5078 481.6054
1750.1431 480.10095
1744.9037 478.2728
1746.7626 484.2618
1749.7837 488.01062
1749.9941 494.73923
1753.7725 491.44012
1756.2919 486.82693
1761.4102 488.3438
1759.2605 492.40524
1761.3154 497.89847
1758.9856 502.41724
1756.1033 496.44492
1753.0752 500.4775
1752.451 505.916
1758.2852 507.05237
1764.0396 503.86606
1765.5974 509.75522
1767.7896 516.878
1762.5233 518.4911
1761.5173 512.27356
1754.8875 511.1377
1749.3291 511.6535
1749.7831 516.57935
1752.5803 519.74774
1756.7493 515.2409
1757.3877 519.5761
1758.6436 523.9179
1764.0084 524.6035
1768.9602 523.67334
1774.022 524.393
1779.7397 523.0922
1783.5024 526.96484
1785.3677 521.3241
1782.0194 517.2804
1782.0974 510.883
1782.6924 503.29013
1795.8396 493.40756
1802.6519 499.81818
1807.8636 496.3643
1810.9404 501.13034
1806.8054 504.7501
1804.4131 509.51318
1801.4495 514.1364
1807.9111 515.5417
1804.8605 519.7042
1809.9796 522.6352
1813.6565 519.2761
1813.8801 513.98315
1810.4281 509.90683
1814.1543 504.87268
1816.9897 509.51587
1819.7208 504.48672
1817.2266 497.84982
1826.0991 504.84418
1826.6584 512.6752
1822.0452 511.09943
1819.0 516.44574
1823.7792 519.3776
1817.9493 523.6419
1812.9254 527.1802
1807.0427 527.0413
1802.0647 528.6251
1801.727 523.7381
1796.5891 527.6953
1794.6099 523.3682
1798.3401 519.1116
1791.1593 519.5471
1793.985 514.6112
1797.3901 509.06308
1788.412 509.6476
1787.5359 515.4307
1789.1162 524.927
1789.4475 529.5565
1789.8976 534.86804
1785.794 534.1139
1782.1392 531.4867
1777.011 529.27686
1772.8444 536.3537
1778.4596 537.68854
1776.357 542.3161
1769.1664 544.5509
1759.5452 543.4769
1752.8071 554.1993
1749.9446 545.74554
1741.1058 547.75604
1739.5685 538.5416
1745.2373 535.8586
1751.248 533.4691
1757.7566 534.5642
1767.4917 534.1375
1762.8298 531.3842
1756.7483 529.41675
1753.5334 525.0414
1748.6604 524.4819
1744.3848 527.35724
1737.7206 528.6088
1733.3652 526.09454
1740.5857 523.97656
1744.7236 519.7412
1743.7029 514.88556
1737.7096 515.3194
1737.898 519.9462
1732.475 519.867
1731.878 514.8123
1726.266 513.936
1728.021 518.4492
1726.1631 522.738
1727.2665 526.5795
1729.8824 529.1855
1731.4915 532.6704
1735.3776 536.22656
1732.1812 540.3554
1726.9698 542.8716
1720.2224 542.9506
1723.271 539.61774
1727.3435 536.915
1726.4061 532.4928
1721.6002 534.94916
1718.8967 530.7085
1714.148 529.1388
1711.6 533.41956
1715.9087 534.43555
1717.5757 538.41815
1714.6967 542.29266
1710.708 540.2802
1708.091 536.83704
1705.4701 532.0338
1708.6392 528.1446
1711.2487 524.9499
1717.1226 519.431
1717.1453 525.85077
1723.3064 530.0688
1721.9323 526.2343
1720.9347 520.9773
1723.4387 518.0607
1720.7743 514.70496
1717.1245 513.1074
1713.3586 513.56323
1709.7434 513.6908
1713.444 517.84564
1710.0494 520.7993
1707.0276 517.95013
1705.3838 512.767
1700.0187 512.3955
1694.0223 509.10263
1694.3147 514.2056
1696.8733 518.3318
1702.197 517.84686
1702.9761 525.6961
1696.2598 525.5584
1689.6783 525.6248
1683.1411 524.99506
1675.1211 523.568
1675.7959 517.24475
1683.0419 517.2635
1689.2 517.49
1688.2441 512.234
1687.0994 507.0019
1682.2295 509.10983
1679.8035 514.34235
1676.417 511.25317
1676.0508 506.64783
1671.273 511.28088
1668.6223 507.4578
1663.9277 505.1376
1657.0243 506.1382
1661.9453 510.62796
1657.0071 514.2802
1651.3054 515.8714
1654.3057 524.7554
1661.385 526.0515
1659.6163 520.88904
1664.7686 515.49536
1670.6886 515.8818
1669.8997 520.344
1666.8563 524.01154
1666.279 528.5067
1663.0168 532.26404
1660.1986 535.70197
1655.1821 536.2994
1657.5745 530.2577
1653.0607 529.5406
1652.1593 533.3757
1649.898 536.4991
1646.8729 532.3239
1641.433 533.6563
1645.1375 535.98065
1642.166 544.15326
1643.1351 549.4659
1639.1414 547.4921
1635.4044 546.704
1633.3914 543.16187
1628.7 541.8303
1624.9475 544.73694
1621.5012 541.41144
1616.587 540.85474
1611.5016 540.7174
1605.782 540.4827
1601.9628 545.5522
1609.8782 546.2677
1617.4541 546.4229
1614.4806 551.0191
1614.7534 557.0577
1609.6344 554.527
1606.1189 550.55896
1602.7367 555.40985
1596.6075 555.04407
1599.1638 550.3587
1599.2524 540.13544
1592.6626 540.4122
1594.2191 546.433
1590.324 551.07635
1586.453 546.1899
1585.5575 540.22034
1577.6782 539.9033
1578.8324 545.40674
1576.2731 550.66113
1570.3491 550.76624
1565.0338 548.79626
1561.2029 542.8422
1570.1229 542.41187
1564.354 528.99286
1568.9354 529.34314
1573.0951 527.4607
1575.558 530.46606
1578.9214 528.0458
1583.3164 527.837
1588.949 527.9957
1594.0542 528.47797
1598.612 527.3194
1602.0942 528.2734
1603.1141 522.7415
1606.3015 525.68243
1607.1267 529.7545
1611.1743 528.09326
1615.4749 528.5291
1620.06 528.1477
1623.716 530.3737
1628.3086 530.2922
1633.2842 530.3525
1636.9539 532.7674
1639.2584 528.747
1644.1212 528.2147
1649.0964 528.16516
1647.8772 523.6331
1641.4939 523.633
1636.2024 524.83527
1632.042 521.77045
1630.5135 526.06354
1624.7607 525.17267
1625.7915 520.5499
1630.1707 514.88806
1635.5969 515.451
1640.333 515.2825
1645.2565 516.39935
1645.8855 510.7955
1651.2751 509.1428
1650.5204 503.5172
1643.6874 504.05368
1639.406 509.1613
1635.3796 503.42297
1631.8843 508.98914
1626.1301 505.6258
1624.1559 513.9501
1618.6448 510.89038
1618.9967 504.4321
1613.1208 506.59265
1608.8212 503.67294
1602.9912 505.03336
1598.3315 504.63614
1597.9957 508.54657
1602.5945 510.7975
1606.3518 507.80304
1608.1458 511.64563
1611.9177 514.4018
1617.1277 516.70013
1618.1815 522.9613
1611.2842 522.484
1607.3542 519.0081
1604.2827 516.12305
1600.7579 515.55524
1598.0748 513.62616
1594.8529 512.1596
1592.0996 508.90573
1587.3563 509.1234
1582.9956 507.60522
1592.3031 504.87616
1581.224 430.48294
1584.6439 426.00488
1586.6598 430.29834
1591.2119 430.3449
1595.5477 430.94315
1599.7255 430.3074
1603.895 429.36182
1608.2745 429.23386
1612.5657 429.99893
1616.6448 428.09833
1622.0852 427.75537
1627.3877 428.04324
1632.0566 426.9822
1636.0282 428.58295
1636.3275 422.76126
1629.5693 422.66827
1624.3975 423.24594
1620.2709 421.32886
1617.6945 423.8908
1612.0825 421.8528
1612.0286 425.7126
1606.9095 424.2151
1602.8633 422.16736
1599.8406 425.32324
1595.4747 422.2655
1595.0369 426.78528
1590.4058 425.76178
1588.3955 422.11517
1581.4125 422.6844
1578.0377 427.4801
1572.9326 428.64944
1575.5137 423.01462
1570.0029 422.8844
1567.6418 427.43335
1563.2217 427.99118
1563.8235 422.70355
1558.8662 425.40802
1558.926 429.04065
1554.7521 428.78638
1553.3328 425.78693
1557.6462 422.06213
1552.6332 422.1371
1548.167 422.08875
1548.9194 425.84326
1545.2192 428.45505
1549.7532 429.28467
1556.4617 509.88547
1564.4534 510.61865
1559.434 512.5834
1551.511 511.07758
1546.786 510.4948
1541.9583 510.87973
1537.3396 510.23026
1531.699 509.42212
1525.3008 509.3499
1528.3953 512.2728
1529.3169 516.20355
1533.5839 517.5916
1534.2256 513.413
1538.7765 516.1587
1543.7305 516.04767
1548.4755 516.272
1553.6 516.0473
1558.4258 517.4528
1563.3993 516.10614
1568.1803 515.9955
1569.7915 509.9592
1573.1555 512.1289
1572.6967 516.4325
1577.7997 516.2445
1577.785 510.4455
1583.1809 514.3277
1587.7725 518.02185
1590.7573 514.4739
1595.4506 517.9113
1599.0793 521.55206
1595.5613 524.1601
1591.4905 522.81616
1586.1796 523.605
1581.7191 521.2189
1577.5134 524.38184
1574.9645 521.3778
1569.9158 523.7105
1565.1923 522.589
1561.2008 524.6267
1558.7024 529.8712
1553.1588 531.3274
1557.1407 523.63446
1553.1919 525.3527
1548.4727 523.26184
1548.856 528.81274
1545.5806 526.5733
1542.4917 525.0486
1539.7632 522.8067
1536.754 527.2755
1531.0974 526.8257
1526.4359 533.74066
1522.0254 530.22943
1524.3789 525.78894
1527.2085 521.5092
1524.817 515.7868
1521.7664 513.5374
1519.541 517.70703
1513.784 517.10785
1517.777 524.70416
1510.3474 525.10504
1508.443 517.0346
1507.4473 511.60287
1512.343 511.6054
1516.9767 513.2474
1520.4136 510.1674
1521.1084 506.4788
1516.3143 508.2461
1511.9288 506.78488
1507.5935 506.54498
1503.9457 507.95157
1500.4622 505.75937
1498.0076 509.08188
1494.5118 507.39752
1489.9523 506.26855
1485.0339 506.96402
1485.7952 512.73004
1490.9427 511.51526
1491.142 517.3877
1496.1019 513.94257
1501.5536 511.8427
1503.4858 516.3707
1498.5522 518.2275
1503.2207 525.1618
1496.4304 525.63837
1489.9917 525.3491
1485.1747 527.7346
1481.4902 525.08417
1483.6449 517.59735
1476.1705 517.3564
1479.165 512.65216
1479.5092 507.35214
1472.8075 507.84827
1471.2185 513.14014
1468.4856 517.4731
1465.1798 509.24683
1459.0164 509.74637
1462.7224 516.46313
1457.8387 514.9643
1453.7992 509.27448
1453.2346 515.0013
1456.1971 519.63293
1450.137 519.1656
1447.9023 515.44525
1450.3114 512.33673
1448.3098 509.65033
1444.1255 510.33124
1443.5964 513.5751
1438.3354 513.11
1434.8917 506.23456
1430.8756 500.07535
1429.6825 505.77475
1432.5905 510.97278
1433.1115 515.90424
1427.5961 515.2748
1424.2017 519.31714
1429.631 521.9114
1434.7551 520.3984
1439.4921 518.36456
1444.2153 517.9764
1445.5652 522.33813
1452.2771 527.78143
1446.0115 527.3813
1439.5188 525.42957
1433.5122 531.00793
1433.8235 535.0142
1439.7437 534.95935
1445.6183 537.4927
1452.9072 538.66425
1459.6282 540.7613
1459.8695 548.8885
1465.5535 551.03564
1470.0706 552.7932
1472.9983 557.70807
1479.2816 555.4097
1482.3817 558.3059
1485.0463 561.23206
1486.8765 556.325
1484.9962 551.60486
1480.031 549.91327
1474.6418 551.02716
1473.2817 542.9743
1476.0985 540.3359
1472.2308 536.7373
1468.8132 533.01984
1467.1782 541.4743
1462.9785 535.3451
1457.5966 529.98047
1462.6626 528.16724
1468.4169 527.3823
1475.0186 526.18665
1474.2443 531.1288
1479.0869 530.7401
1482.822 533.9948
1478.7253 537.05817
1484.1208 539.5987
1487.3854 546.37256
1490.426 550.03503
1491.3397 554.5326
1492.302 558.8911
1496.3435 562.11035
1498.0509 566.2887
1503.2548 562.1727
1508.3967 564.00275
1503.1947 567.9647
1500.8588 572.69666
1499.1495 577.9545
1503.9146 578.59
1503.6307 586.41516
1499.6865 590.09973
1502.1003 596.6253
1495.5647 598.83856
1493.8546 591.78516
1488.2385 592.79315
1484.5638 596.7689
1478.7972 585.90643
1486.8727 583.098
1494.4512 582.34546
1487.3379 574.3376
1491.1145 572.2703
1496.4923 572.1233
1493.5945 568.5272
1491.7611 564.3279
1488.6089 561.58777
1488.7024 567.6792
1484.5692 565.8343
1480.5383 563.6508
1476.9712 561.47485
1472.0793 564.12445
1466.8673 562.5317
1461.9784 565.22516
1455.0043 567.1625
1455.4457 561.33307
1451.452 564.23016
1449.3658 568.16064
1453.4946 571.3298
1458.2743 572.2933
1460.261 577.12714
1463.2611 572.1585
1466.0332 567.5404
1468.7937 571.07916
1474.7413 569.09357
1479.8984 569.2727
1485.0804 570.7752
1481.8141 574.96216
1476.706 576.3651
1471.7073 574.6593
1470.73 580.1352
1465.7664 577.46387
1464.7931 583.71387
1471.3206 590.50555
1465.9741 596.4284
1460.727 601.81323
1467.2529 604.42896
1477.5416 599.57434
1474.8683 605.83746
1476.5762 613.68365
1469.7697 611.9898
1462.4419 612.6868
1459.435 607.6333
1456.2297 612.2291
1456.9985 617.646
1460.9971 620.42255
1465.1545 622.8593
1468.3063 618.30774
1470.4222 623.13104
1475.2704 621.32947
1481.2583 619.72845
1487.02 617.06384
1489.3248 611.6491
1483.0258 609.8909
1482.8027 603.5903
1489.832 603.31683
1495.282 606.7692
1501.1975 604.3661
1506.1237 607.3967
1508.7692 613.3891
1514.4691 613.45953
1509.426 619.3457
1513.3711 618.0988
1519.2854 619.0883
1515.8933 623.92975
1510.0823 623.4858
1508.1621 626.5934
1503.5891 623.36786
1505.9589 618.4153
1502.7441 616.4577
1502.7684 611.8604
1497.4052 612.5108
1493.4945 616.11847
1498.9398 618.4487
1499.1458 624.9282
1494.4235 623.34564
1487.7554 623.7233
1487.8212 631.8059
1482.3052 632.40106
1478.4802 628.59674
1476.3334 634.2897
1471.5085 630.85724
1471.2178 635.7777
1466.3044 633.9337
1462.9039 631.1058
1459.0972 635.542
1456.9208 631.0883
1451.542 630.0395
1453.0457 635.74915
1448.4321 634.6243
1445.3042 630.8276
1440.1593 630.06586
1433.7107 630.7199
1431.108 624.82495
1424.8148 622.10516
1419.2058 620.7057
1415.7236 614.95544
1421.194 614.4392
1427.7216 617.4118
1428.2745 611.738
1434.5083 610.2045
1434.1108 615.13837
1435.4081 619.79156
1438.3994 624.4582
1443.7715 620.1683
1450.6794 613.5945
1445.525 613.76605
1440.0355 613.0357
1437.2643 606.0999
1439.3187 599.8585
1441.3578 593.87445
1445.8562 596.46857
1447.4521 589.70917
1451.6731 592.41315
1452.9327 586.357
1458.0261 588.1692
1460.4939 582.4895
1455.3367 581.57776
1454.8633 576.45703
1449.098 574.51276
1446.5876 581.46375
1440.3411 585.89655
1434.0052 586.8449
1427.2263 588.023
1432.9789 595.059
1432.6909 601.9779
1430.5024 606.6372
1425.8228 604.4511
1422.9037 609.1388
1417.5812 607.73694
1412.2559 608.37756
1407.2239 610.9222
1410.2831 614.2499
1411.5396 619.2301
1413.6782 623.7696
1417.8368 627.3639
1424.9587 628.0537
1427.9159 633.6596
1433.0243 637.3379
1433.1763 643.14044
1431.5284 648.4
1428.5009 653.0291
1422.9099 653.4156
1418.2544 656.31055
1428.3313 664.4399
1428.8793 668.8728
1423.4816 665.9994
1418.7963 665.36053
1414.2704 663.06885
1412.4429 667.68616
1417.5885 670.05426
1420.3796 679.39453
1424.694 684.81085
1418.5754 687.43286
1424.5919 691.1392
1420.5619 695.26105
1425.0563 699.92267
1420.2659 703.2949
1417.3969 709.2448
1413.8055 704.4162
1415.2064 698.9336
1413.9816 693.7351
1412.0454 688.9134
1413.7148 682.4969
1413.6809 674.9351
1408.7467 672.19324
1404.5391 667.91907
1404.3171 675.1809
1407.894 679.17816
1407.2544 685.5707
1406.6864 692.71246
1409.0125 699.2678
1403.1835 698.27875
1404.1569 703.703
1408.3412 706.08276
1411.5548 710.7586
1414.7753 715.88873
1418.7639 719.5999
1421.3392 715.84753
1421.7683 711.2656
1425.6213 708.49115
1431.1198 707.52203
1428.9823 703.3485
1433.1842 699.70734
1430.124 695.21265
1430.4003 689.64655
1431.3776 684.8948
1427.6934 679.7791
1432.9065 680.4374
1435.2083 676.16473
1437.7448 680.1403
1442.8182 681.03735
1446.7246 683.7332
1451.156 685.28156
1449.6235 690.55804
1444.966 693.6186
1443.2747 688.50665
1438.3649 685.2188
1436.2661 690.22424
1438.5024 694.8915
1438.5801 701.1973
1436.6312 706.3557
1443.5879 698.9395
1449.3732 697.8469
1450.1375 704.2208
1444.3391 704.73645
1449.134 710.8382
1454.9346 708.5403
1455.6993 703.74603
1455.0376 699.02246
1459.4637 695.53436
1454.4958 693.09125
1455.9191 687.51276
1460.1637 685.56726
1464.0992 682.64594
1468.4264 679.9065
1473.4183 678.534
1474.6049 683.7326
1475.0557 689.0703
1468.6342 687.1408
1463.1562 690.44696
1465.4559 695.52875
1463.6832 700.8023
1460.2454 703.36694
1460.8185 708.16766
1466.1705 707.1708
1468.6512 703.06
1470.2661 698.51416
1475.1731 701.43427
1480.7351 702.425
1482.6436 691.9569
1481.9313 686.8429
1480.4641 681.44214
1478.3433 676.0482
1480.6003 670.2649
1474.7161 671.8638
1469.6981 674.20483
1463.8866 676.7004
1464.9723 671.3979
1463.6698 666.61523
1461.1643 662.384
1457.2014 664.546
1452.4934 666.0041
1448.1243 668.33826
1453.3401 673.43604
1457.9741 669.583
1459.6239 673.97174
1458.5192 679.4309
1453.5857 680.4131
1448.5632 677.98486
1446.6228 673.40247
1441.5536 675.88196
1441.8448 670.3477
1436.5243 672.04016
1437.7285 667.44727
1433.3645 665.7007
1434.7012 655.32513
1438.5648 648.67224
1443.401 652.67285
1448.5293 655.3743
1441.2042 657.6251
1437.4507 661.3744
1442.2747 664.2502
1447.4132 661.5077
1453.1476 659.5689
1458.6038 657.45013
1464.5208 659.10284
1455.0632 653.04266
1461.4926 652.0047
1466.3263 654.0175
1471.7866 651.42267
1476.426 653.49615
1470.4204 657.5418
1469.1592 663.21545
1469.75 668.43964
1475.1207 666.15265
1474.8538 659.88544
1479.2928 657.6278
1479.7245 663.79193
1483.2699 659.8249
1487.3649 659.3116
1485.0577 664.6925
1491.2461 667.6505
1485.8512 669.6448
1484.3467 676.306
1489.3557 673.55927
1494.9388 671.9189
1492.4111 678.50214
1487.0195 682.06134
1490.0386 687.2703
1489.2008 693.6587
1495.2302 691.0025
1496.8928 695.6386
1501.4883 690.9338
1497.0568 685.9451
1498.0258 679.9427
1499.6584 674.0588
1503.7585 677.9503
1503.6843 685.10394
1504.9746 695.3273
1510.1984 696.8502
1512.4176 693.79486
1517.964 697.30585
1524.0312 697.215
1529.9967 696.7752
1535.1727 694.8008
1527.3044 691.18304
1532.8378 689.74774
1539.1897 688.01013
1539.662 696.7038
1544.6008 694.59106
1546.6997 688.3972
1551.4695 692.86035
1553.188 687.391
1558.29 686.44037
1561.0702 683.09973
1563.3888 679.10583
1560.122 676.97296
1556.6333 680.546
1551.1329 682.25977
1545.1387 682.5735
1540.3418 680.1883
1534.7722 680.35077
1530.8357 684.6767
1524.9465 686.52856
1522.0006 691.52203
1517.385 692.92474
1516.8379 688.6855
1516.3529 683.4552
1520.2567 685.3804
1524.1003 681.2925
1528.4136 678.5016
1525.9749 673.2349
1521.085 670.3085
1518.1353 673.83466
1519.3612 678.3396
1513.0917 680.8065
1511.3245 685.9102
1512.2051 690.0534
1507.2144 689.5182
1507.833 680.8739
1511.332 676.9098
1513.1307 672.75446
1515.3838 668.1204
1512.3965 664.12756
1515.5381 660.723
1514.1138 656.2118
1513.6824 651.4551
1510.8175 647.8776
1514.2965 643.8574
1519.6931 645.3845
1521.0133 650.2474
1518.7202 654.14105
1520.0963 659.1243
1519.0864 664.538
1523.9912 664.3124
1529.2993 660.1129
1525.5648 656.6329
1531.9132 655.0276
1536.2827 653.1902
1544.7142 654.81494
1549.7401 654.239
1556.0098 653.99414
1561.227 653.54016
1566.1494 656.5327
1559.2572 659.5038
1552.6387 659.1321
1545.481 659.59296
1540.4485 656.6746
1536.4551 659.6402
1532.7234 673.0315
1539.0128 673.3528
1544.9414 671.17633
1546.1808 675.72345
1551.6573 677.0575
1552.2947 671.80164
1556.5923 674.8251
1559.1641 671.3826
1564.3491 671.22784
1563.931 675.04535
1568.6492 674.63824
1569.9463 670.7599
1574.8575 672.6064
1579.2689 676.33936
1580.3468 680.97516
1583.5034 685.3452
1579.2808 689.7977
1582.3547 691.91534
1585.6392 689.97284
1589.4503 690.586
1593.8922 688.79706
1596.0056 692.9466
1596.3712 698.53986
1591.3999 694.4603
1589.8198 698.641
1585.1276 695.4189
1585.2714 700.2789
1580.3645 698.95496
1578.7828 694.6735
1574.9388 699.10657
1573.0382 695.32025
1567.6191 698.3171
1568.9027 692.2314
1570.2339 686.13776
1574.1711 690.61224
1577.1138 686.11597
1574.3013 682.4508
1573.0614 678.0686
1568.5143 679.58484
1565.8549 682.4855
1564.7202 686.6966
1563.8914 691.5374
1558.0431 692.219
1560.7727 697.7397
1552.954 698.1057
1554.1545 706.2571
1561.4614 706.6807
1561.7556 715.5183
1556.2845 712.8614
1549.8193 711.99786
1547.1572 708.04834
1546.696 704.0555
1540.2871 704.9752
1537.9523 708.9033
1534.0273 706.02216
1529.1516 705.88025
1524.1028 705.40894
1519.2976 705.06604
1514.1411 704.5639
1509.3759 704.57355
1504.3396 703.3134
1499.3745 703.4638
1501.1459 709.8117
1505.1573 707.1931
1505.491 711.9218
1505.9043 716.11224
1508.8878 719.74133
1511.4475 714.9466
1510.4188 709.8179
1515.595 709.77167
1516.8281 714.85846
1520.7673 711.29254
1525.8022 711.09814
1531.02 711.8877
1528.6116 716.90393
1523.556 716.48456
1519.6094 718.9697
1514.6246 719.57214
1512.2014 723.28503
1516.459 724.8954
1520.9792 723.8551
1525.1462 721.7504
1528.1001 725.1688
1531.2651 721.5475
1535.0226 717.81665
1536.4603 713.12634
1542.6361 710.4659
1543.1709 715.0174
1541.7024 719.17255
1535.5203 724.2782
1541.4536 724.0979
1548.572 723.26013
1549.5802 717.48987
1555.3726 721.2589
1561.4653 723.77625
1571.873 722.95593
1579.5264 723.54407
1566.6727 719.69794
1566.5804 711.2041
1570.415 707.03296
1576.3927 708.3359
1572.5942 715.0522
1578.8445 717.01996
1582.5262 712.1225
1582.2847 706.6362
1588.863 708.1119
1596.0714 707.2524
1603.2764 708.32513
1609.2206 706.5947
1610.2849 711.90735
1615.523 706.61896
1611.9628 698.40344
1608.877 693.6119
1603.9275 698.5389
1600.4456 694.0443
1604.0814 690.9322
1608.5654 688.00366
1610.2426 682.6731
1608.3059 677.38
1612.0381 672.3444
1618.015 673.2467
1623.0117 672.0073
1626.8564 675.9739
1627.7273 680.587
1625.0957 684.015
1621.9384 678.3141
1614.8452 678.61505
1618.572 683.00745
1615.1814 687.994
1622.8174 687.9777
1631.1697 684.2673
1631.9033 678.5665
1636.4858 678.3149
1640.3693 676.2698
1641.516 671.48157
1636.4807 672.11346
1632.3615 673.52515
1628.4841 671.30786
1627.6508 659.5131
1623.4556 654.2319
1616.9628 656.7585
1613.9836 659.9414
1615.2727 652.4959
1611.5919 655.2044
1606.4595 652.9168
1607.0681 658.7033
1600.4688 660.581
1598.2687 656.8724
1599.1625 651.322
1595.1171 653.8346
1589.1305 653.43695
1590.4131 657.0945
1594.1149 659.851
1596.6854 672.7712
1604.3784 672.2193
1601.8862 677.903
1603.0205 683.56757
1599.4495 688.01184
1595.2971 683.855
1594.9712 678.7678
1589.4119 684.6179
1587.0151 678.7279
1589.37 672.94006
1582.1769 672.09955
1580.7876 659.536
1586.6361 659.7633
1584.5526 653.2069
1579.9446 654.4399
1574.8602 656.6499
1574.1042 641.1799
1577.9165 642.49854
1581.809 641.1975
1577.8728 637.23804
1572.9412 636.62164
1569.9674 642.44543
1567.9026 639.2449
1563.6448 642.2536
1558.4718 640.0141
1552.3147 637.566
1552.3071 642.1808
1544.2886 641.6494
1541.433 650.5837
1537.7583 639.5394
1531.5182 640.8829
1524.6752 640.7246
1518.9548 638.93536
1513.7546 637.2136
1509.6869 639.5135
1506.7524 643.3685
1504.896 648.8273
1500.8254 643.7565
1498.6672 649.1446
1501.6174 653.9016
1498.4402 658.63934
1501.4716 663.1809
1504.3647 658.703
1507.742 653.9821
1509.943 659.1727
1506.8206 663.887
1508.9766 668.4578
1506.7886 673.0528
1502.5143 668.8842
1497.2659 666.8
1495.1556 662.3633
1490.2478 663.0257
1492.0208 658.04517
1495.7755 654.61926
1492.8611 651.2453
1493.3481 646.5667
1494.4829 641.6168
1489.0868 640.89185
1487.0364 644.7951
1487.5292 649.53265
1488.6824 654.2389
1483.7668 655.084
1481.9199 651.5116
1482.2523 647.1302
1481.49 642.6024
1477.2164 647.70526
1472.7334 645.2011
1467.4923 648.1719
1465.1205 644.152
1460.2422 647.0153
1455.2528 645.8339
1451.523 649.3238
1446.6888 648.6772
1443.321 644.802
1439.1276 641.44025
1439.6132 635.5583
1445.5773 638.8029
1449.5417 643.28955
1453.4946 640.04395
1458.1821 641.2542
1462.6154 639.3906
1467.8002 639.918
1472.5023 640.3097
1476.8265 640.75226
1480.2933 637.3955
1484.8414 637.83655
1489.6573 636.2067
1493.7809 634.29865
1498.4117 632.63965
1499.3466 638.3132
1505.1111 637.07196
1504.3237 632.28394
1511.1489 632.6764
1518.2716 632.9244
1524.3887 632.1464
1527.5126 635.5551
1533.5029 633.165
1541.0814 632.66266
1545.6001 636.0911
1551.1179 632.37964
1558.5798 633.1439
1563.4706 636.916
1564.9297 632.0807
1568.6017 635.29565
1570.7871 631.76276
1575.793 632.13586
1580.4047 632.9231
1584.8885 632.1218
1583.8584 637.0764
1586.9054 641.753
1592.2915 642.0815
1594.6655 638.2536
1589.0831 636.73834
1589.8185 631.8133
1594.3658 633.07605
1599.3773 633.07153
1600.3108 638.0607
1598.6084 642.47076
1604.3057 641.2925
1609.1665 641.6993
1614.8025 641.6534
1618.3079 637.18427
1613.6641 632.4026
1611.7854 637.1336
1606.4592 635.85
1605.1445 631.78864
1607.3186 624.04425
1611.5928 623.4993
1616.1709 623.79016
1621.595 624.11383
1621.5029 632.9067
1627.9077 632.4938
1629.8264 637.34174
1634.7678 633.2083
1640.558 634.5605
1646.8641 633.12115
1653.6777 633.2263
1658.9639 635.11346
1660.4728 623.40826
1664.1633 628.10736
1666.2129 633.73883
1672.4736 632.6113
1679.2573 631.8515
1683.1077 636.46436
1677.7717 637.1032
1673.2347 638.0803
1672.3325 642.83527
1668.5703 646.1044
1664.2263 644.65155
1668.1107 639.4071
1663.1483 638.88385
1658.3356 641.73645
1652.4998 640.5341
1646.578 640.00757
1640.4648 641.2794
1634.5089 640.60583
1624.6254 638.9555
1620.6614 642.0056
1628.3715 642.55524
1628.0841 653.4605
1633.0249 652.51965
1634.1455 658.88464
1639.5731 655.4754
1645.5277 655.8201
1652.3757 656.1975
1658.958 656.39417
1664.6509 650.6618
1667.5422 654.57153
1665.7716 662.5844
1675.2792 666.95996
1669.0598 669.5027
1665.5388 674.0999
1666.1313 681.1333
1662.2013 687.591
1654.6981 683.2221
1659.6155 678.4773
1657.4133 671.8356
1650.8059 672.97437
1646.8457 670.7912
1645.3694 675.0336
1653.805 677.29724
1653.132 688.4119
1647.6097 689.9687
1647.2328 684.3184
1648.9877 679.132
1644.0365 679.5862
1641.3203 682.67
1636.7567 683.2668
1641.144 687.6464
1642.4592 692.6705
1645.1074 696.9176
1636.8711 698.385
1635.4434 694.6861
1636.4762 690.97687
1634.4028 687.41003
1629.3252 690.60333
1628.1906 697.0772
1622.3872 692.7002
1615.7897 693.3415
1620.3358 698.272
1622.5703 705.78705
1619.7003 709.66345
1622.0195 714.44836
1623.5938 719.2176
1618.4606 719.77454
1616.6725 715.7923
1616.5315 712.2786
1613.2178 717.5615
1609.0708 717.94696
1604.3057 717.00867
1599.2786 714.35547
1592.8955 714.0413
1586.9102 717.06287
1587.0438 723.6275
1594.2203 721.8468
1600.6943 723.3719
1607.6263 723.8885
1613.7524 723.343
1619.5859 724.68445
1624.9391 723.0147
1627.2112 725.3653
1629.6046 717.8958
1627.1519 714.5074
1625.884 710.00726
1628.5171 705.9074
1632.3411 703.42773
1632.2545 710.92444
1634.1799 716.22437
1637.9927 714.63696
1638.7887 710.62415
1636.3016 706.1978
1641.6644 705.86847
1645.5718 709.7429
1643.6023 714.40405
1644.1855 719.8361
1639.751 718.51605
1634.2814 720.60187
1630.3551 722.9167
1634.9209 725.07477
1638.7035 722.9092
1642.4521 724.716
1647.0293 724.05884
1654.015 725.6257
1650.8477 722.8871
1648.9226 718.52094
1654.407 717.71155
1655.1794 722.2648
1659.9111 724.70636
1659.0365 720.274
1663.7946 720.3517
1664.8232 724.264
1669.1683 723.1567
1673.0759 724.722
1676.8444 724.12524
1680.5513 723.9737
1683.3274 725.21954
1686.8568 724.16565
1684.0486 720.9446
1689.3823 719.34174
1694.4888 719.3187
1690.8186 723.98364
1695.192 724.4033
1699.5862 718.83527
1700.258 724.0263
1704.9054 727.53925
1710.7808 726.8465
1707.0945 724.2258
1704.9473 720.7655
1709.7009 718.07904
1703.811 715.37964
1697.3346 713.03143
1691.4663 713.5006
1693.7234 705.65045
1700.2703 702.94305
1701.5321 708.9545
1707.6846 711.57935
1713.4646 713.6885
1713.0709 707.9309
1708.0974 705.60095
1707.3888 700.9932
1714.6827 700.8433
1718.2065 707.67126
1719.3752 712.27673
1725.3097 708.5398
1725.3396 714.08356
1730.9636 713.6934
1731.8289 708.9575
1736.8408 714.8572
1742.6521 714.66864
1747.9513 715.48096
1752.5784 714.81226
1745.1453 720.4997
1739.5712 721.27716
1734.1062 719.9739
1729.2878 719.4609
1724.549 720.57086
1720.6583 717.03455
1715.9586 718.3343
1713.3062 722.44885
1715.9684 727.3258
1719.5062 722.8973
1722.3057 727.188
1728.0654 726.035
1733.9211 726.2253
1739.4397 727.32104
1744.6729 726.2824
1749.8257 726.7534
1758.5098 735.88715
1757.4546 747.7718
1761.1514 740.9894
1769.8081 739.84375
1769.8889 746.6168
1763.8948 747.4635
1767.7332 754.6372
1760.2412 753.83356
1762.0366 759.0698
1764.5806 763.1376
1768.9204 761.64886
1775.2952 762.4171
1773.5981 757.02826
1779.4225 755.44885
1782.3667 749.4629
1775.0483 749.91705
1777.8188 742.4684
1774.8267 734.6405
1781.8226 735.952
1785.6875 739.29266
1785.0408 744.24255
1788.9268 747.9939
1788.8618 752.85284
1785.3723 756.70325
1781.8916 761.8294
1788.5132 762.8226
1791.0063 758.7742
1793.8142 754.9749
1796.3129 758.97943
1795.2478 763.2101
1800.3228 762.33636
1804.5626 761.4708
1802.9392 757.5986
1799.1925 756.3735
1805.0002 753.4082
1801.5985 751.9995
1797.9473 751.9692
1794.0544 750.3814
1793.4763 745.84515
1790.739 742.1077
1799.4905 737.18744
1797.0785 741.9826
1798.5085 747.156
1802.8971 744.6366
1804.8507 747.834
1808.138 750.5069
1807.2262 756.8752
1808.502 761.8552
1810.6216 757.931
1811.7454 753.8549
1813.0388 748.7179
1810.8601 744.3239
1813.4878 739.12024
1808.4917 739.7887
1803.2029 741.0317
1804.5415 736.601
1809.3258 734.2385
1814.2979 732.8975
1811.696 729.4177
1813.944 725.39105
1808.2639 726.12854
1808.467 722.0363
1813.4321 719.9484
1814.7183 714.1482
1810.4226 710.9115
1806.6063 706.6629
1814.4 706.5415
1811.4536 701.2393
1814.4371 696.67847
1813.4241 690.3203
1813.8379 684.0047
1808.553 681.6341
1806.7545 688.2496
1807.3123 694.76575
1805.5266 701.51013
1801.9141 698.842
1799.9493 694.4283
1800.5627 689.8986
1801.254 685.4735
1802.4966 681.34216
1801.3379 676.13605
1796.9666 674.1858
1800.823 670.33405
1807.9055 671.15625
1806.7208 676.54584
1814.3733 676.36694
1814.4199 667.9764
1808.1808 664.3562
1814.023 660.2994
1813.7864 653.0894
1807.4523 650.1944
1802.9335 646.42114
1798.9344 643.1018
1794.7137 647.0627
1788.4221 648.52716
1785.3008 652.0245
1782.0232 654.93036
1784.8357 659.97003
1789.658 656.1378
1794.5471 653.0988
1800.626 652.0975
1807.4146 657.18744
1801.2631 658.227
1795.6246 659.445
1802.2506 664.4813
1796.6093 665.57404
1793.0698 669.4366
1790.9741 662.8281
1787.2173 666.29236
1788.1244 671.36163
1793.0803 674.9145
1789.1526 676.22363
1785.1909 675.39386
1785.1633 680.1464
1789.6274 683.67334
1791.7566 679.726
1796.7239 680.3742
1795.4468 685.5538
1790.9362 688.4895
1795.4198 691.4426
1790.8048 693.4926
1785.376 693.3899
1786.0831 688.06055
1782.4042 683.48596
1780.8416 675.12744
1777.387 677.9112
1776.2865 682.4605
1780.8087 688.0509
1779.6813 692.74194
1775.8446 687.75824
1772.0256 691.2761
1770.7827 686.1716
1769.6279 681.82227
1769.9855 675.1148
1775.8345 670.22424
1782.4988 670.16614
1781.6294 664.69653
1775.9902 662.9738
1770.6628 666.9929
1765.4584 664.88525
1759.3887 666.54297
1753.4259 666.748
1750.1486 673.47614
1746.1221 677.11334
1750.6945 679.9846
1750.8812 685.6656
1748.5453 690.41406
1753.0226 692.3337
1757.6263 689.63184
1757.4789 685.63617
1756.1478 682.01746
1755.8207 677.4956
1762.8317 679.5948
1763.123 685.85016
1767.0676 689.4249
1763.1161 692.426
1766.6417 695.841
1770.7982 696.2419
1775.2363 694.79767
1778.4176 698.1976
1783.082 698.67914
1788.3884 698.9601
1793.2715 697.7424
1797.0375 699.7919
1799.314 705.07684
1800.6909 710.00684
1804.7782 712.9228
1808.5879 716.71967
1803.3917 719.44745
1799.1129 715.87067
1797.7693 720.50336
1793.5667 722.29297
1799.3481 725.4754
1803.6357 725.0232
1806.6418 729.65314
1804.0651 732.5467
1801.2615 730.3519
1797.7698 731.4161
1795.1721 735.0
1792.6719 738.2498
1788.595 734.31085
1787.7938 728.8105
1792.8025 730.6969
1794.491 726.6754
1788.5774 722.57074
1791.7 716.91486
1795.4369 711.6662
1790.3276 709.77374
1793.0103 704.4882
1786.2881 704.20056
1783.3295 709.20087
1786.1263 714.38306
1782.8463 719.2057
1782.9686 724.9061
1781.4426 730.7845
1776.9518 727.295
1771.1743 727.6354
1766.6752 733.7417
1762.3146 729.80884
1757.2151 729.689
1760.7772 724.15857
1765.9983 725.2507
1769.0481 720.4472
1775.5621 720.9339
1778.2537 714.8687
1777.0015 709.0143
1779.0848 703.7335
1773.5952 701.1675
1771.1295 707.05347
1771.8632 713.71893
1765.9543 711.59503
1766.4661 716.2882
1761.6532 719.17676
1756.5574 721.52936
1754.6575 725.32605
1750.638 720.78906
1755.37 717.897
1756.9293 713.4973
1760.9111 714.5069
1762.105 709.4782
1764.9161 705.70245
1767.9792 701.611
1762.5808 699.14777
1759.5938 703.353
1758.574 708.22144
1755.0522 708.99536
1751.3274 710.9968
1747.2188 710.0573
1744.3816 707.4879
1739.2175 709.76776
1735.3794 706.0522
1741.404 704.20715
1737.7102 701.9078
1734.0494 699.4152
1729.2129 697.4007
1725.181 694.8223
1730.0677 703.4135
1725.2109 702.38477
1720.3447 703.71173
1720.5986 697.8775
1720.5718 691.4871
1725.1411 688.5952
1729.331 690.6086
1733.8541 693.9289
1738.6155 695.4898
1742.0745 698.583
1745.7535 701.6364
1749.4648 702.9286
1751.3127 706.56036
1754.6445 703.1088
1756.99 698.3051
1758.6838 694.16974
1752.1287 697.94495
1747.5939 696.4075
1743.7466 692.9803
1739.1239 689.93695
1734.217 688.9821
1732.065 685.2174
1730.8325 681.2855
1738.6445 684.3707
1744.2686 687.32336
1744.4988 682.44934
1740.739 677.75494
1735.7776 679.69934
1735.198 674.37134
1730.5227 672.15094
1725.1597 668.55475
1722.9854 661.90753
1720.6785 666.3168
1719.0684 670.9689
1715.1842 674.7216
1712.313 670.7
1707.073 670.1451
1700.771 669.4108
1700.8221 663.4655
1694.8485 659.44574
1696.5361 653.83875
1701.6411 651.7247
1705.3152 647.7846
1703.7612 642.4071
1697.6938 645.4358
1693.9808 639.58014
1692.7664 648.2344
1686.8396 648.2563
1681.7029 648.36255
1679.0204 652.547
1684.3552 655.4931
1690.1852 653.84283
1688.3303 660.83246
1694.2922 666.04785
1693.7568 673.1957
1687.5471 678.63043
1696.4635 680.6683
1703.8008 682.50665
1701.2753 675.4629
1707.2227 676.5314
1710.8644 679.7048
1715.7916 679.1055
1718.7958 681.81226
1721.6553 676.7516
1725.585 673.63586
1728.1873 677.89404
1725.2104 683.02295
1720.3894 685.99554
1715.2637 687.56714
1711.0442 684.9356
1708.0022 691.0447
1704.0326 688.2447
1698.8914 689.8511
1693.139 694.6525
1691.0923 687.8226
1682.8887 686.699
1681.8217 694.30194
1686.6575 702.0987
1687.344 708.0327
1684.0916 712.45337
1685.6936 716.841
1678.89 720.35315
1680.2815 716.5586
1676.8167 712.8456
1680.0574 707.27954
1676.1707 702.4732
1671.5845 706.7301
1671.1357 713.1174
1673.8975 718.92676
1668.0013 717.69965
1661.3293 715.5471
1664.8633 711.32654
1665.2437 704.8912
1659.003 707.1388
1656.3002 712.96906
1649.4365 713.83905
1652.026 709.4528
1647.3688 705.1275
1653.553 704.89294
1651.8823 696.139
1656.9302 692.0355
1660.8057 696.44666
1667.8125 694.3247
1674.6166 691.47565
1672.0961 685.48517
1676.2295 677.68787
1681.9398 672.2761
1687.6448 668.14514
1681.7798 663.36084
1677.7438 658.7205
1671.575 659.5906
1673.7075 653.56616
1673.1296 648.6746
1676.9429 644.90753
1680.3575 641.8673
1684.9156 642.36163
1690.0239 642.8803
1688.8965 637.01086
1686.7305 632.1153
1693.9952 632.9322
1695.185 623.1401
1689.6361 615.7052
1685.5674 610.124
1689.6602 623.20264
1684.4982 624.0474
1680.1355 621.81305
1680.9747 615.4988
1678.1332 609.50793
1673.3206 606.0249
1669.37 603.9331
1664.1127 603.2239
1659.3397 602.5966
1658.097 597.0488
1653.7058 594.4806
1648.705 592.8873
1650.8903 586.9671
1654.9248 585.38324
1655.8086 578.3691
1660.7957 575.8146
1665.1904 575.08966
1662.413 570.4998
1662.4216 565.72894
1667.5371 568.23926
1669.6372 572.55304
1669.2402 577.77814
1674.759 574.91693
1679.2435 573.63226
1675.8922 578.9395
1669.9832 584.4782
1673.6367 588.0464
1676.1033 584.84796
1679.7758 589.6713
1681.279 584.99316
1685.4614 587.70874
1689.7014 589.52936
1694.3486 588.80615
1698.5311 592.3749
1702.6107 595.7413
1707.2283 599.5856
1711.1442 604.7583
1719.0842 604.0832
1723.2771 597.717
1716.9534 591.3255
1711.2834 587.55334
1704.5529 584.3515
1696.6356 582.10596
1689.0654 578.9666
1683.1376 578.27686
1684.7021 572.6982
1689.4468 570.71204
1694.2158 568.1126
1696.7711 572.0284
1702.0775 570.8788
1705.5189 574.7759
1708.6165 570.63135
1710.9799 575.17065
1714.4481 577.8421
1719.1035 578.11926
1722.4033 581.441
1726.4277 579.1876
1730.2554 575.9309
1732.2522 580.2208
1726.9854 585.3511
1732.089 585.4639
1734.8115 590.2042
1740.1938 594.024
1745.4044 596.5998
1749.006 600.98
1753.6824 604.2236
1758.8649 611.41833
1754.823 609.29443
1748.7672 609.9732
1751.1636 614.8226
1756.298 616.9813
1759.888 621.1061
1754.3552 625.20825
1749.3278 620.6909
1743.8094 614.01886
1736.6571 612.7849
1727.2888 608.0986
1729.6747 614.7539
1727.8525 620.7099
1722.9388 617.3182
1721.974 623.13214
1717.0049 621.6873
1711.5664 623.2535
1712.9048 617.09705
1719.0875 612.0355
1712.1129 611.7317
1704.6948 609.7587
1700.9607 604.8676
1696.1237 599.81006
1693.2325 594.20685
1688.8512 597.4634
1684.6697 593.78326
1680.5132 596.8874
1676.3458 593.6166
1671.6692 592.434
1667.4489 589.51886
1664.263 586.8225
1663.8203 582.3105
1659.4385 584.8353
1658.7023 591.0191
1662.8037 594.8337
1667.3191 594.24475
1666.7448 598.57367
1671.5333 596.85364
1675.1921 599.0574
1677.9977 603.46564
1683.0723 602.9956
1688.4052 603.8696
1693.2322 606.57043
1696.1084 611.9811
1698.5491 616.26776
1705.2998 615.5817
1707.2089 620.55273
1700.7739 622.1844
1704.9402 624.5924
1701.2382 632.0279
1698.9095 638.18365
1705.5183 637.48834
1707.9985 633.2834
1712.2529 630.6736
1713.6503 635.32245
1719.28 635.9835
1718.5232 631.027
1724.4365 631.42847
1725.2123 636.3076
1728.5779 643.009
1722.5427 640.348
1721.1937 645.1187
1714.9299 640.54553
1710.5471 644.009
1716.0085 648.8205
1710.1483 652.59656
1712.0693 658.63165
1703.6107 657.7897
1708.0643 663.7219
1715.2057 664.6382
1718.1729 657.078
1721.7657 652.1721
1727.303 649.79486
1726.4755 656.9713
1730.7721 662.1073
1729.4958 666.65314
1734.6451 668.1218
1738.4221 666.35126
1741.6375 672.04736
1747.2955 669.14655
1744.1758 666.01715
1741.786 662.1949
1737.2449 659.68225
1732.7019 655.95074
1733.5242 648.5453
1738.6407 652.2561
1744.6565 648.6448
1745.4265 653.408
1743.2406 657.7316
1748.6868 662.6664
1750.3408 657.524
1753.1488 653.2419
1757.8645 654.7426
1758.1475 648.17004
1755.397 643.22687
1750.7317 647.63745
1747.451 642.30865
1747.7606 635.8365
1740.642 637.58954
1740.263 644.6255
1734.8817 641.01263
1730.8975 636.3253
1730.492 630.70026
1736.2069 631.8658
1742.4318 631.05786
1748.1094 628.25964
1754.0872 632.01227
1760.228 627.05975
1760.9089 633.11957
1754.8003 637.92804
1762.1044 640.1071
1763.8223 646.5756
1762.6924 652.60297
1769.0977 648.2318
1773.5403 650.94525
1767.5996 654.52765
1772.5042 657.20294
1778.0278 657.3274
1778.5981 650.1163
1782.3413 646.1991
1774.8071 644.2189
1768.6167 642.1582
1771.1516 637.3003
1766.6102 634.3583
1772.0298 630.2419
1776.2001 633.331
1776.6732 637.9665
1779.6543 641.4923
1784.8918 640.8585
1782.3186 635.61584
1783.9585 630.6671
1779.1572 629.1771
1779.375 622.5446
1775.4137 625.062
1771.3197 623.1676
1766.7401 627.99365
1765.4187 622.64026
1768.4607 618.3372
1762.7805 616.1983
1763.4744 610.8055
1766.7749 607.05804
1772.3772 609.14746
1768.5865 613.1838
1773.9629 617.3213
1777.3 614.01
1780.4811 617.638
1785.7126 615.7253
1784.9653 620.2856
1783.9263 625.2586
1789.082 624.4787
1789.5942 620.3039
1793.7085 618.0327
1790.6324 614.5655
1795.579 612.20294
1798.7815 615.29987
1803.5173 611.8497
1807.919 616.16724
1809.013 623.5361
1804.6008 622.41876
1802.2194 618.517
1797.9398 621.7354
1793.8765 623.7627
1792.4326 628.1043
1788.1536 628.8841
1787.8887 634.07153
1790.0354 643.3054
1789.9398 638.0629
1793.4343 632.82214
1799.2075 632.8631
1797.3552 627.8217
1802.292 627.2565
1807.7085 628.88873
1805.1807 634.2581
1795.1086 638.77356
1801.2349 638.25745
1807.3483 641.1099
1812.6458 645.3844
1813.7224 638.3551
1811.4844 633.7319
1814.0271 627.8952
1812.2407 621.28235
1814.5012 618.65955
1813.1562 613.28
1808.6423 608.4298
1813.8843 606.859
1813.0701 600.8841
1814.3795 593.47614
1812.4381 586.6294
1813.9846 581.0672
1809.814 578.1031
1810.8115 574.14636
1805.4435 571.92035
1808.6626 568.4685
1804.446 563.5039
1801.3604 568.83356
1795.367 566.813
1797.2446 561.8
1800.2897 556.755
1796.9454 549.10657
1788.9331 549.7713
1789.897 544.61554
1787.9757 539.8919
1782.67 543.0091
1780.2056 548.8013
1780.2449 556.1612
1786.2388 556.16187
1793.2957 555.4079
1789.4333 562.43646
1789.4896 570.5733
1795.7075 572.2178
1798.8207 575.46936
1799.4586 580.1271
1804.2676 576.7752
1807.1742 582.6603
1809.0771 591.17645
1808.762 596.52216
1806.4363 601.0754
1803.6575 605.0658
1799.288 606.9324
1794.9042 607.6147
1790.5375 608.56836
1787.884 603.36615
1792.8254 603.40875
1796.0138 600.1798
1800.2764 598.8822
1802.5709 593.94586
1803.7987 588.6638
1802.2023 584.19415
1796.5618 585.38446
1795.7622 591.84314
1791.4854 596.81805
1786.6693 595.41125
1787.7855 589.7413
1790.3712 584.3956
1792.1794 578.0313
1784.0273 576.9548
1770.7424 579.67914
1767.6744 585.79083
1772.3623 590.6424
1777.0499 598.2502
1781.6519 594.7634
1783.1123 602.0257
1783.0127 606.8047
1787.5103 610.79785
1783.3221 611.6374
1778.6523 610.2788
1777.0488 606.0657
1772.0856 600.25446
1767.5277 599.1174
1762.1594 599.48334
1760.2518 605.3677
1757.1025 599.352
1752.761 595.61383
1756.0378 588.62494
1752.293 582.1273
1757.0632 577.7015
1758.943 571.7246
1764.618 575.55707
1768.0801 571.27057
1774.9736 571.2955
1777.1377 564.49634
1771.6 565.1314
1772.4275 559.61255
1767.111 556.95917
1766.5923 562.09216
1761.3306 559.5202
1760.2695 564.3986
1751.9885 567.93915
1749.1263 563.09534
1746.0508 558.8179
1742.3457 553.9867
1738.8322 558.79144
1741.5898 563.7366
1745.0874 568.9292
1751.4786 574.3055
1742.4099 585.631
1739.3948 581.6026
1738.3988 575.1908
1734.6938 573.03986
1737.3893 567.4686
1731.7113 569.5502
1723.5095 573.9782
1721.281 568.514
1717.6177 573.0473
1714.7031 569.6868
1711.631 566.4772
1716.1063 563.8766
1720.082 562.4816
1731.2278 565.13947
1733.8043 561.8413
1733.3784 553.43176
1724.0618 550.33484
1716.5126 551.1035
1716.8693 556.43475
1710.0261 562.77106
1705.5438 566.36383
1699.0176 565.4205
1699.1465 559.446
1703.4512 561.7268
1707.4537 558.791
1712.4797 558.3416
1710.592 552.1516
1704.174 555.0365
1705.2727 549.57745
1703.2467 538.6385
1699.06 543.71564
1698.7944 549.1279
1697.7625 553.7363
1694.3772 558.25867
1692.1963 563.74243
1688.063 561.13696
1683.1013 560.65656
1676.4421 558.29913
1679.3181 561.1589
1685.5891 565.87036
1680.5701 567.7951
1676.3397 564.93134
1674.2793 569.79626
1670.8546 565.3051
1672.2456 561.4457
1670.8351 557.7309
1665.7554 561.9443
1665.9268 557.14355
1660.8787 557.34796
1657.9238 561.8417
1655.923 567.32654
1657.2665 572.416
1652.0774 573.46906
1648.3516 582.0863
1644.91 586.47943
1639.0969 585.6095
1632.3589 587.496
1633.4757 594.0545
1637.0476 598.5212
1641.8743 593.27625
1644.741 598.5749
1650.1582 599.3219
1653.0527 603.47705
1656.7754 606.242
1660.8816 607.89166
1665.9753 607.8932
1669.6492 612.0971
1673.4397 616.2586
1672.6445 623.4755
1666.027 619.1481
1662.7283 613.61383
1658.0841 617.64276
1653.7925 623.6344
1652.4832 616.5836
1656.351 612.474
1652.2145 608.88684
1648.7756 614.1971
1648.7186 622.1601
1644.3013 624.26843
1645.566 617.26624
1641.0154 618.41766
1638.6277 623.90173
1633.1073 623.7092
1627.9542 622.9322
1635.1239 618.07135
1637.0605 613.0446
1642.5903 612.6655
1646.4407 609.6171
1647.1678 604.9236
1641.289 603.4756
1638.4039 607.22296
1632.5648 605.6368
1628.4993 600.7246
1626.7234 594.54004
1622.6318 590.95874
1625.0806 584.8486
1618.2231 584.75287
1611.3671 585.8514
1612.8862 592.04846
1605.9089 592.0451
1604.7518 585.8632
1600.6396 581.41986
1598.1132 586.42224
1597.2378 592.1184
1600.7244 595.2895
1604.2695 599.16986
1608.808 596.61615
1615.3744 603.5148
1613.7589 597.68195
1618.1619 593.22906
1619.735 597.9329
1621.7023 602.6314
1625.6777 606.87164
1625.0828 613.28076
1630.733 614.36005
1623.7672 618.6413
1618.7332 613.82104
1616.5275 618.15955
1610.2051 618.0713
1605.2029 617.9564
1602.8345 623.4591
1597.8899 623.85406
1592.565 623.33435
1585.9854 623.6679
1579.7415 623.47766
1575.1499 621.6428
1571.3423 624.19354
1565.2828 624.03876
1562.2495 619.3151
1559.0817 622.7511
1555.9985 624.8639
1550.6317 623.4679
1550.7026 615.77734
1556.0751 617.5122
1557.8514 612.7945
1563.0586 614.1534
1568.3367 613.38586
1567.871 618.46155
1573.068 616.89764
1573.6226 611.6535
1578.3132 615.30206
1583.6324 617.21497
1582.6135 611.70026
1584.6761 605.38727
1589.8652 603.79114
1595.4897 604.9961
1594.1892 609.44995
1588.1113 611.31683
1591.4937 614.4447
1589.1404 618.3862
1595.3945 615.92163
1599.4124 617.9748
1599.4603 611.3807
1603.8434 613.6862
1607.4465 610.55005
1612.0148 613.6779
1618.7913 608.1671
1612.1719 607.89
1609.0762 603.1737
1603.6982 606.2314
1599.8569 602.6946
1594.8252 598.74634
1591.3059 594.7089
1591.5758 587.9165
1593.3777 582.2208
1595.4344 575.24835
1603.731 575.0015
1608.356 579.7939
1614.6172 577.76874
1623.8268 576.1334
1630.7993 581.64197
1636.1521 577.8363
1643.902 577.4201
1643.6696 563.97406
1646.4663 559.6944
1651.0627 564.2715
1652.0093 558.2383
1656.3585 554.531
1651.8408 552.17413
1655.1887 547.6103
1658.7393 544.14575
1649.3412 545.0812
1648.1936 548.9198
1646.4977 554.1118
1641.1478 554.9771
1639.9431 559.7232
1636.3297 563.4687
1629.8682 562.2695
1633.6353 557.94073
1635.8923 552.67426
1629.9119 549.1232
1628.5011 554.28735
1623.2563 549.73065
1620.2974 553.7796
1625.6451 558.0324
1623.6704 562.37427
1619.9073 558.5603
1617.2561 562.23267
1612.4277 562.56134
1609.7667 559.47064
1605.3137 560.3403
1600.1584 560.93744
1594.3777 560.46436
1591.4305 556.21875
1585.8054 555.854
1582.6652 551.25824
1579.7454 556.657
1573.205 556.35077
1576.8086 560.9769
1580.1406 563.7752
1583.3689 561.2705
1588.3859 560.9159
1582.9053 574.9102
1588.8118 577.2562
1586.7565 583.14716
1584.935 587.7293
1579.6677 586.42377
1580.974 581.23376
1574.6348 575.19354
1575.144 582.39874
1574.234 588.1407
1567.9392 585.6973
1569.6913 581.42053
1565.4672 574.96484
1570.1967 561.2751
1565.6178 557.465
1560.4021 551.97675
1554.5592 551.776
1558.1986 557.9959
1562.1863 562.6464
1555.3191 562.97784
1549.5269 563.515
1551.1682 557.4095
1545.8179 559.82697
1542.477 563.57513
1537.9618 558.9069
1537.1057 553.1694
1543.0543 555.16504
1542.1412 548.1115
1548.1979 551.0234
1553.531 544.5705
1545.9939 544.3913
1541.4506 535.2652
1547.1693 533.6684
1542.408 530.32965
1536.6299 533.73395
1531.9052 534.9932
1528.7849 544.27344
1535.8431 546.4117
1531.5863 550.82404
1530.2976 557.2217
1533.1221 561.4654
1537.6337 564.4176
1533.8389 567.212
1529.8091 569.5006
1533.3752 572.48193
1529.04 576.13214
1525.9326 572.1194
1520.2909 571.51874
1522.1512 576.9401
1522.6769 584.9149
1527.7747 587.475
1530.4928 583.52747
1537.1332 582.92316
1535.855 576.1907
1544.3853 576.8313
1554.3123 576.7644
1560.672 581.87695
1562.4436 586.04803
1558.2893 588.87964
1553.5652 584.74927
1547.2661 584.0794
1541.4971 585.8649
1535.3116 589.482
1533.3834 595.403
1530.0806 600.54254
1531.8174 606.43506
1537.0333 602.0976
1539.6948 596.71954
1543.3074 592.2255
1549.3208 592.8127
1554.2822 592.525
1558.0654 595.34033
1561.6515 596.1986
1564.2231 591.43524
1569.92 591.75287
1566.1326 596.88196
1571.0441 596.73346
1575.648 595.3744
1580.2471 593.4025
1585.9951 593.0804
1585.4727 598.50024
1579.0833 600.9397
1579.068 606.9619
1573.7899 605.782
1570.9725 602.0809
1566.1676 604.1433
1567.1426 608.52264
1560.7856 607.5349
1561.6978 601.8313
1556.4093 604.1381
1553.7205 598.7133
1545.9154 599.2115
1549.8151 604.06036
1553.0647 609.3454
1546.6324 611.3679
1543.3193 605.95807
1537.8652 607.21173
1538.8258 613.9446
1546.3138 619.48737
1543.1282 624.0926
1542.179 616.7235
1534.1182 612.24725
1532.8828 617.76416
1536.6887 623.0459
1529.6567 623.4226
1523.0735 623.90015
1525.0471 617.12537
1529.1857 613.83905
1526.2241 610.4585
1526.1259 604.3452
1523.2802 596.74457
1527.7871 593.22253
1520.4117 592.18036
1514.3317 594.2375
1514.0967 599.9992
1520.396 602.2711
1522.0879 607.9749
1519.827 613.4272
1517.1356 606.50366
1511.9796 606.74677
1507.842 601.37195
1507.6819 593.6123
1509.7755 586.3632
1515.9235 586.9998
1516.5587 581.2915
1514.9049 574.7715
1509.9965 577.6291
1505.7632 573.40857
1509.7125 570.2022
1515.0293 568.3459
1519.471 565.07056
1524.5272 567.25195
1529.1119 564.17505
1524.7769 561.92114
1523.2506 558.0699
1517.6998 560.08154
1512.7114 561.6879
" />
</g></g></svg>
