<?xml version="1.0" encoding="UTF-8" standalone="no"?>
<!-- Created for Inkscape (http://www.inkscape.org/) -->

<svg
   xmlns:dc="http://purl.org/dc/elements/1.1/"
   xmlns:cc="http://creativecommons.org/ns#"
   xmlns:rdf="http://www.w3.org/1999/02/22-rdf-syntax-ns#"
   xmlns:svg="http://www.w3.org/2000/svg"
   xmlns="http://www.w3.org/2000/svg"
   xmlns:sodipodi="http://sodipodi.sourceforge.net/DTD/sodipodi-0.dtd"
   xmlns:inkscape="http://www.inkscape.org/namespaces/inkscape"
   width="3200"
   height="800"
   id="svg2985"
   version="1.1"
   inkscape:version="0.48.1 r9760">
  <defs
     id="defs2987" />
  <sodipodi:namedview
     id="base"
     pagecolor="#ffffff"
     bordercolor="#666666"
     borderopacity="1.0"
     inkscape:pageopacity="0.0"
     inkscape:pageshadow="2"
     inkscape:zoom="0.35"
     inkscape:cx="1600"
     inkscape:cy="400"
     inkscape:document-units="px"
     inkscape:current-layer="layer1"
     showgrid="false"  />
  <metadata
     id="metadata2990">
    <rdf:RDF>
      <cc:Work
         rdf:about="">
        <dc:format>image/svg+xml</dc:format>
        <dc:type
           rdf:resource="http://purl.org/dc/dcmitype/StillImage" />
        <dc:title />
      </cc:Work>
    </rdf:RDF>
  </metadata>
  <g
     inkscape:label="Layer 1"
     inkscape:groupmode="layer"
     id="layer1"> 
     <g>
<path style="fill:none;stroke:black;stroke-width:2px;stroke-linejoin:round;stroke-linecap:round;" d="M 
1631.5366 209.12724
1634.5781 210.2628
1637.0947 214.21822
1634.2212 214.56837
1631.8239 212.30829
1630.1315 214.27277
1631.5586 216.74097
1634.1055 218.24358
1630.8167 220.28218
1633.9167 221.18066
1634.6807 224.11528
1631.7717 223.8204
1629.1888 224.44539
1626.7743 225.46858
1622.776 227.19856
1624.323 225.2043
1625.5978 222.5273
1628.0238 221.494
1627.9156 218.6706
1627.9296 215.91806
1625.101 217.02898
1622.966 215.35861
1624.772 213.00719
1627.6777 212.73651
1625.9541 209.84457
1628.981 209.3985
1626.9586 206.71243
1629.9039 204.9458
1633.2637 206.8859
1634.3726 204.20232
1632.4277 201.87071
1629.343 200.79915
1626.6866 202.25584
1623.2107 201.71529
1620.2109 201.78587
1620.7959 205.32735
1620.2701 208.76865
1624.7036 204.65126
1623.3906 207.63014
1622.911 210.86171
1620.3304 212.22543
1620.1876 215.5496
1620.3806 219.31801
1623.9012 219.79138
1621.9353 222.62245
1620.1309 225.01897
1620.1302 229.49393
1620.5588 233.86447
1620.233 236.69647
1620.4221 239.70668
1623.2032 240.52917
1626.2853 240.64998
1628.8556 242.92894
1629.9622 240.23447
1632.4071 238.59068
1627.447 237.98863
1626.9761 235.47118
1623.7092 237.26373
1624.1764 234.30942
1626.5605 232.47841
1622.459 231.94022
1623.8138 229.83916
1626.1462 229.49487
1627.8965 227.5807
1630.9937 227.19746
1634.0497 227.1995
1634.8652 230.29366
1632.0442 230.15285
1628.9766 229.9295
1629.7253 232.10161
1629.4452 234.48582
1630.6772 236.69926
1632.0978 233.68402
1634.5886 233.4661
1634.4869 236.76479
1633.6897 240.92506
1634.341 243.67627
1631.5549 244.79593
1634.2175 246.80501
1633.8062 249.60387
1630.8535 248.51883
1628.93 246.2485
1626.2522 245.63309
1624.2201 243.55722
1620.5991 243.26663
1620.5564 246.53807
1619.0571 249.61201
1619.0334 252.57228
1620.0518 254.73087
1617.1707 256.0365
1612.9106 255.28288
1615.9868 254.01187
1616.5626 251.31377
1616.144 248.56929
1613.6389 249.89737
1613.4227 252.49268
1610.7546 250.7335
1612.6257 247.44594
1609.4397 247.68227
1607.4534 245.24684
1605.8431 247.36688
1603.5724 244.98825
1600.8136 243.14928
1599.9003 245.30093
1601.8865 247.61642
1605.0305 249.96481
1607.7686 251.18791
1609.4037 254.3821
1607.9795 258.0123
1605.227 257.7422
1602.8667 258.41852
1600.5913 257.7261
1598.8838 255.3815
1599.7693 252.8451
1602.3816 254.60149
1605.5015 253.95403
1602.3823 250.83644
1599.222 250.43875
1596.7708 251.83444
1594.0823 251.73042
1591.667 250.35033
1589.2141 251.36621
1589.3464 248.25699
1586.2982 247.9133
1586.004 243.30743
1588.2764 245.30283
1591.0762 245.9639
1592.5388 247.39723
1594.0648 249.01692
1596.3718 249.23155
1599.1392 248.225
1597.4584 246.8409
1597.1187 244.47443
1595.1077 246.44861
1593.8324 244.41483
1595.2548 242.36998
1597.8406 242.09917
1593.8435 240.37279
1590.7822 239.34468
1592.0079 241.96118
1591.1344 243.8928
1588.9613 242.46014
1588.5228 240.13736
1585.9644 239.08781
1583.0603 242.28358
1582.8049 238.63277
1579.9758 236.08507
1578.9036 239.11778
1576.1952 237.16121
1574.391 234.47743
1571.8376 236.57487
1570.6584 232.68759
1568.8759 234.43623
1565.0227 235.7673
1562.7126 234.21014
1565.9994 232.18784
1562.6782 230.43365
1558.6732 229.68347
1555.4982 228.31593
1557.3226 218.45767
1561.6685 217.0945
1560.0107 214.87286
1562.051 212.90356
1564.6797 214.90216
1567.9387 214.76694
1570.9075 213.42673
1567.2058 211.83461
1564.5314 210.43059
1562.897 207.57216
1562.7153 203.72331
1565.5298 205.31676
1567.8912 203.02275
1571.9596 202.05933
1573.6448 204.83554
1573.3684 207.36394
1570.3246 206.13469
1567.616 208.22021
1570.2445 210.45247
1572.7859 209.67014
1573.8842 212.3234
1576.7743 211.50769
1579.448 209.7974
1575.942 208.54802
1578.4777 206.64357
1576.574 204.15378
1575.8281 201.07112
1573.6982 198.32458
1577.7888 197.62054
1581.3434 197.29884
1582.3025 200.4538
1579.1534 201.15508
1580.8655 204.11377
1582.3876 207.12978
1582.8066 209.93857
1584.8025 204.74927
1586.3652 207.70717
1589.815 206.72643
1593.0632 205.37671
1596.935 205.09573
1596.1877 202.15396
1593.7822 201.70406
1592.824 198.16594
1595.9316 198.4633
1598.8754 197.77089
1599.3951 194.12129
1602.3215 195.74712
1605.1316 193.20169
1608.5824 194.28108
1608.7725 191.55344
1612.4602 189.72687
1614.9028 191.84631
1615.8595 195.84718
1612.284 193.87735
1610.6714 196.36559
1608.067 197.81664
1605.9397 195.93881
1605.2043 198.35043
1602.5034 198.85799
1600.2903 200.29805
1598.8569 202.58247
1601.7246 202.91338
1604.663 202.9669
1604.2698 200.82759
1606.884 200.95682
1609.0505 200.4191
1611.1368 199.2251
1613.9248 198.0562
1619.0308 197.3818
1622.121 198.02612
1625.647 198.8108
1628.2148 196.68669
1624.2539 195.40659
1625.7762 193.22702
1626.0833 190.76521
1626.1089 188.33224
1624.8071 186.09064
1628.3062 186.20619
1630.853 185.00047
1634.509 184.19441
1634.8735 187.06952
1632.2693 188.64363
1629.5386 189.63536
1629.0402 193.21944
1631.8396 193.31303
1631.3951 197.65985
1634.462 199.3579
1634.2986 195.43793
1634.428 191.24597
1637.2158 190.14848
1637.8026 186.9883
1640.3931 188.44966
1640.3936 190.74973
1643.3435 188.3768
1646.5016 187.96956
1646.5604 185.09692
1646.4222 182.2945
1644.8167 180.37024
1643.998 177.83757
1645.891 174.91911
1649.4987 174.75131
1652.1744 177.49164
1647.7432 178.00058
1649.7092 180.33746
1653.2144 180.80315
1649.6503 183.39757
1649.731 186.54198
1652.7864 184.56055
1656.016 183.62242
1659.6215 182.40475
1663.464 181.95364
1667.6775 180.84541
1670.766 179.28671
1673.4738 178.84581
1673.4084 176.66191
1675.5227 174.32011
1673.1125 174.6675
1671.4137 173.63568
1669.5167 172.69449
1673.5984 172.12202
1673.938 169.76659
1675.0226 167.34964
1674.1045 163.83119
1798.5349 37.569393
1801.9563 38.538536
1804.7184 41.466106
1810.0388 42.72289
1810.3947 39.375614
1814.425 37.90638
1814.689 41.11013
1818.2278 42.551838
1819.1423 38.842945
1816.9076 35.978798
1820.512 35.60433
1823.5427 36.666912
1821.0557 32.221237
1824.0737 32.1395
1824.6997 28.473364
1825.2758 24.64454
1822.4314 21.687048
1826.2162 20.784895
1828.1292 17.412369
1831.7678 18.420414
1831.5988 15.070489
1834.5652 12.501215
1838.2485 13.954663
1835.4788 16.891775
1839.9882 17.87431
1842.3586 14.330618
1844.5002 18.161547
1846.5679 15.005162
1845.0803 11.229614
1840.5488 10.362927
1836.6321 9.092776
1832.7319 7.5357966
1828.5825 5.8742375
1825.5754 6.60216
1822.953 6.5723066
1820.408 5.98291
1817.8218 6.7518167
1814.4614 6.2447915
1810.0244 6.0121074
1805.6005 6.2817173
1800.6189 6.2577896
1803.2064 7.8326526
1808.534 8.8163
1812.6843 9.179052
1816.7528 10.015578
1820.6758 9.448116
1823.8832 10.071673
1827.241 9.9882555
1829.1768 8.250868
1831.456 10.759901
1829.1361 12.982303
1826.6403 14.8861685
1825.7947 12.310384
1823.1357 14.102624
1820.4365 12.7342825
1819.0922 16.398378
1824.4236 17.42525
1821.4385 18.089922
1818.537 21.368427
1817.2772 25.666681
1821.1282 25.236637
1821.2366 28.689852
1817.2836 29.402689
1818.2102 32.78601
1815.126 32.88136
1812.0818 33.22397
1811.9065 36.12792
1808.7092 34.586243
1806.791 38.355587
1805.1603 35.10269
1804.6865 31.744411
1801.7795 33.98153
1798.2996 33.475166
1797.104 29.556948
1800.3647 30.180292
1802.126 28.441174
1798.2965 25.938192
1794.0703 26.543253
1793.1637 29.942844
1794.2505 33.199955
1795.0569 37.065765
1672.951 160.32703
1668.5869 160.599
1664.6077 161.9743
1666.5022 165.02083
1670.239 164.0399
1672.0774 166.91614
1670.9852 170.34459
1668.8899 168.12712
1665.6318 168.96674
1662.4897 166.59764
1660.7004 163.54726
1656.9113 164.10513
1657.2046 166.92632
1658.8246 169.14143
1658.8695 172.0876
1659.2374 174.64873
1661.9124 175.32321
1664.1942 176.56712
1664.2518 172.86497
1662.1488 170.48145
1667.2686 171.96193
1666.5339 175.46017
1668.9579 175.22948
1671.0471 176.59265
1668.6748 177.916
1666.3809 178.67218
1664.292 179.4465
1661.6748 179.30537
1659.2168 178.20729
1656.5906 180.2266
1656.0815 176.52148
1655.5284 172.03012
1653.1449 174.13777
1650.703 171.03491
1653.6694 168.9989
1652.6721 165.66519
1648.5823 167.55986
1647.0009 171.22029
1643.7429 168.992
1643.6521 172.58954
1641.8494 175.94667
1639.011 175.61783
1635.5077 175.32442
1637.541 173.16574
1640.801 172.07082
1638.7966 170.041
1635.1943 171.53421
1632.8765 173.76689
1629.7678 173.8502
1626.6443 175.25005
1623.2478 176.62845
1620.9902 179.00595
1620.1213 181.79726
1624.102 180.8087
1626.9338 178.596
1630.4369 176.88725
1634.0807 177.60782
1637.3086 178.21283
1639.9432 179.51613
1641.7247 181.27652
1642.6053 183.47632
1643.8171 185.67122
1640.6588 185.74686
1638.2925 183.50302
1636.0312 181.07224
1632.3888 182.26865
1632.421 179.52176
1629.4805 180.84006
1626.9658 182.91127
1623.0781 184.35118
1620.6272 184.99074
1619.4719 187.6651
1622.4683 189.66612
1621.3876 193.46205
1618.0942 193.60742
1618.1553 190.30344
1617.6653 184.90306
1615.0742 187.19652
1611.3606 185.33537
1613.3044 182.97597
1616.2509 182.73466
1618.6589 177.28297
1616.2833 179.64806
1612.2361 180.3538
1608.4701 182.11545
1607.414 185.8456
1609.6333 188.48616
1605.8596 189.54704
1602.1572 191.48952
1603.3612 187.25409
1604.1466 183.31505
1599.9487 184.78973
1599.7367 188.35045
1597.515 190.79758
1595.331 186.74571
1593.6735 190.09837
1589.7816 188.36359
1590.7349 192.12146
1595.9764 194.32918
1592.8721 194.60068
1589.3677 195.85878
1590.0726 199.36404
1591.189 202.33795
1588.4008 203.88849
1587.6632 200.86111
1584.8131 201.77054
1586.5292 198.22885
1584.2738 196.86752
1585.9502 194.17575
1587.3627 191.26166
1583.707 190.64905
1582.1096 193.53625
1578.8516 194.49667
1577.8804 192.05536
1574.1044 194.6875
1569.2157 195.907
1569.5247 199.3789
1565.3304 198.87816
1561.7898 199.61417
1559.5059 203.22554
1557.9879 199.74805
1554.6783 201.92966
1551.7247 202.17268
1549.7224 204.86958
1547.6201 202.59695
1544.9496 204.85098
1543.4587 207.6299
1540.1213 205.66057
1539.9349 208.83026
1536.0226 208.14273
1534.7582 211.49854
1538.3987 211.70993
1537.0454 214.92831
1534.4994 215.66415
1535.6573 217.9527
1536.8519 220.1517
1533.5414 220.7251
1532.4836 218.16228
1532.7823 214.18593
1530.5096 216.15651
1527.8063 214.09906
1530.6989 212.3766
1531.3939 209.44876
1413.7096 38.947712
1414.4409 34.755894
1414.5641 30.496216
1415.149 25.348091
1412.7634 22.314983
1411.9202 18.87611
1410.3312 16.032553
1407.7854 14.214346
1404.8463 14.856619
1401.2594 14.517952
1399.6765 17.275427
1396.5746 16.14979
1393.725 17.941853
1390.7705 19.560896
1389.5745 23.130062
1386.0682 23.293276
1387.4236 20.72776
1387.2026 18.074917
1386.2029 15.587081
1383.4224 13.015028
1383.5742 16.034939
1384.2736 18.741934
1383.8323 21.38633
1381.4614 19.880917
1378.609 21.768644
1378.9459 18.986713
1380.5375 16.760994
1376.6384 17.827929
1374.1108 16.211744
1370.7789 14.852403
1369.891 12.312583
1374.1953 12.633555
1377.3658 13.807639
1380.5685 14.156553
1380.7065 11.168511
1378.0088 9.917419
1375.6106 7.82131
1372.615 10.004452
1371.8079 6.654753
1369.133 9.046818
1367.0677 6.3555045
1365.4242 8.832167
1366.5303 11.793075
1366.7931 14.718332
1362.7167 10.697397
1359.4011 11.671988
1362.1635 7.0543847
1358.1971 7.960503
1355.4147 10.516167
1356.002 14.369796
1357.8976 16.05562
1352.8768 13.418235
1352.4718 16.994406
1354.9047 18.933733
1352.4543 21.036299
1354.7443 22.79765
1357.1471 19.19958
1358.9667 21.076193
1359.6057 18.246881
1360.7858 14.963106
1363.5658 13.911485
1361.9453 18.2296
1362.0565 21.50915
1362.4651 24.904768
1359.4121 26.804083
1360.0131 23.81553
1357.3185 23.227806
1356.2191 25.867989
1353.3247 25.828949
1354.3804 29.71837
1356.9758 28.63727
1360.1658 29.95988
1362.8899 27.69317
1363.4607 30.495739
1364.0634 33.305584
1361.804 35.851368
1360.2539 33.214943
1357.1454 31.922703
1355.3268 34.827152
1358.0577 36.35123
1356.017 39.72082
1358.0073 42.748646
1359.192 46.166023
1361.8893 43.410847
1364.1332 41.26576
1359.9883 39.621883
1362.9224 38.764652
1365.0323 36.935764
1383.3057 31.914862
1384.7454 34.63161
1387.5212 36.83974
1388.4818 34.186207
1391.75 35.261375
1390.5894 31.996693
1387.1268 31.147694
1385.0524 28.882996
1382.1388 28.862482
1381.9209 25.840765
1381.896 23.227106
1384.73 25.740921
1387.7632 26.679996
1390.3838 28.741693
1393.363 31.073236
1394.3245 26.679861
1391.4271 25.493309
1393.6609 22.188053
1397.3246 24.115686
1397.4188 20.450508
1401.3483 20.228596
1403.7313 17.87743
1407.5746 18.07101
1409.0931 21.535332
1405.3152 21.358105
1401.4608 23.337198
1406.33 25.315283
1409.8901 25.343653
1413.0608 27.001692
1410.4552 29.353163
1406.9427 30.395908
1410.4774 33.579697
1407.6198 36.80713
1409.7599 41.39625
1527.1832 211.40196
1525.2222 216.03471
1528.1527 217.55334
1525.7268 219.73563
1527.7627 221.60042
1525.223 223.74423
1527.6348 224.75508
1530.4583 224.04109
1530.2946 220.36612
1533.782 223.20006
1536.935 222.91086
1540.0118 221.65858
1539.9364 224.83362
1536.9843 226.26923
1533.4996 225.76552
1534.4305 229.36427
1538.1412 229.38475
1541.8473 229.20544
1542.6306 234.73714
1540.0787 232.72537
1536.3306 232.84554
1532.8279 233.38113
1530.8473 230.995
1531.57 227.7479
1528.838 228.10167
1525.9103 227.52484
1526.1134 230.68864
1527.9907 232.775
1529.5569 235.59329
1534.3777 236.52623
1538.147 236.3532
1539.5039 239.30315
1542.228 237.50352
1543.5822 239.9862
1545.813 236.03937
1544.6147 231.55887
1542.8608 226.40633
1543.3131 223.16125
1541.8086 219.74762
1539.0754 218.22026
1539.9241 214.9033
1542.406 216.90878
1543.214 214.16727
1542.2456 211.37062
1546.3259 212.67102
1545.831 209.85207
1547.9214 207.40808
1550.723 209.8892
1552.7356 206.32634
1555.116 208.59488
1556.4695 204.555
1559.2885 206.86523
1560.8812 210.3626
1558.1425 209.72643
1556.8052 212.14328
1557.0388 215.09694
1553.1896 212.99991
1554.1869 216.73573
1552.6154 219.38104
1550.2799 221.78192
1547.9722 219.54163
1550.1023 216.65083
1549.4272 213.40807
1546.1958 216.28108
1544.6011 219.49942
1546.3655 222.69052
1546.8308 226.6502
1548.3041 230.10426
1548.3665 233.75087
1551.8708 233.13344
1551.3969 227.66867
1554.1938 231.24002
1560.1176 232.47754
1557.0836 233.73782
1555.02 236.39182
1551.2056 236.73056
1548.3894 237.85347
1546.2987 239.69258
1546.9656 242.37065
1549.7936 240.34657
1550.8156 242.86209
1554.023 243.35901
1553.0786 239.80167
1556.3802 240.24792
1559.1907 238.70758
1560.258 236.22583
1560.3401 241.92897
1557.3436 244.36073
1561.0427 245.51645
1564.2224 247.63515
1567.2604 246.96585
1569.9613 249.92116
1571.0514 246.6954
1568.8871 243.6268
1564.5265 243.40091
1563.5005 239.26575
1567.0574 240.70877
1567.5624 237.20906
1570.1326 239.54904
1573.5098 239.69273
1576.0002 241.913
1572.3911 243.15709
1575.1445 245.96078
1574.0636 248.81139
1573.9354 251.58224
1577.1644 252.24272
1577.9598 249.55121
1578.3984 245.06036
1579.8141 242.11067
1583.0469 245.71684
1580.5111 247.90726
1583.7463 249.90024
1580.7926 252.79523
1584.0657 253.77911
1587.2965 252.85065
1587.6921 256.071
1591.2462 256.8177
1592.1211 253.97556
1596.0497 254.21869
1595.2278 256.51828
1594.3438 259.0619
1597.8744 258.15518
1598.379 260.72958
1602.206 261.48392
1605.6235 261.7865
1608.7351 262.2652
1611.1553 264.76263
1614.6903 266.02948
1618.087 266.7379
1614.2856 263.2481
1612.0232 261.02682
1610.9741 258.01053
1614.4565 258.37225
1616.1912 261.08313
1618.009 263.60892
1619.5917 260.94235
1617.9952 258.41553
1621.6517 258.94592
1622.6257 261.84723
1624.6023 258.39178
1621.1276 256.65347
1623.793 255.25119
1624.998 252.5361
1624.7408 249.93585
1622.113 252.76138
1621.7173 249.98463
1623.53 247.11975
1627.4479 249.01056
1627.9551 252.07999
1630.7198 251.47588
1632.965 252.65062
1635.5814 252.77287
1633.6041 255.48535
1637.3899 256.60446
1635.0732 258.5028
1631.2472 257.56833
1629.9824 254.7137
1626.7275 255.03728
1627.6091 257.65204
1628.898 259.85867
1625.8416 261.6994
1629.009 262.53528
1632.1384 260.7204
1635.285 261.24332
1637.7993 262.602
1639.9412 260.46588
1640.626 257.35318
1643.9106 258.3022
1644.0708 261.71158
1641.8099 263.95972
1639.5804 265.541
1639.0212 269.01285
1635.4229 268.32156
1636.9532 266.08722
1634.6134 264.36206
1631.4912 264.12534
1627.8435 265.22296
1625.6045 267.40454
1624.1279 264.92276
1620.9713 264.80267
1621.4374 268.07324
1624.284 269.78152
1627.7012 270.07135
1629.8207 267.92413
1632.6204 266.97696
1633.0337 270.14868
1630.5211 271.59067
1634.0211 273.15875
1636.509 271.31128
1638.1716 274.51904
1640.1879 272.49783
1643.2429 275.94427
1648.1489 277.49805
1651.8757 278.9834
1654.4844 280.56778
1656.8267 279.72726
1655.4657 277.4015
1652.5586 276.15616
1649.9553 273.8954
1646.6096 273.69604
1643.3708 271.85568
1642.3851 268.24084
1644.9619 265.62238
1647.7234 263.17114
1647.0889 259.67526
1650.2427 260.32697
1651.463 262.9784
1654.4397 264.6314
1654.4077 261.44977
1657.5264 262.8572
1657.8127 265.51816
1659.4603 267.75333
1661.1151 264.26187
1662.4117 267.23172
1665.1185 265.4512
1665.1292 269.15393
1662.2576 270.57108
1660.0122 270.17392
1660.2104 273.41663
1658.0298 271.60223
1655.6324 270.78198
1656.53 267.99353
1653.6863 267.95087
1651.5023 266.28326
1648.5415 266.34753
1646.2987 269.43213
1649.7114 269.94186
1652.5299 270.78015
1653.4274 273.3737
1656.2246 274.12518
1658.1221 275.9046
1659.1696 278.69305
1660.483 276.5277
1662.9458 274.8073
1662.5613 277.84442
1662.599 280.46243
1659.3713 280.94055
1657.4065 282.34418
1660.9246 282.77563
1663.7898 283.6594
1665.8911 281.67886
1665.5055 277.94397
1666.3397 274.35178
1664.2468 272.1108
1667.821 271.31415
1668.0011 268.22974
1669.1609 266.21982
1671.7928 267.899
1670.9009 271.20578
1673.814 270.53265
1673.9514 274.09015
1670.227 274.27264
1668.942 276.95218
1673.0819 277.5768
1673.4552 281.01282
1668.9788 279.85333
1669.9353 282.47586
1674.1099 284.6707
1671.2313 285.15555
1667.6492 284.85693
1668.3676 294.4012
1671.6267 294.93564
1673.5751 297.5784
1672.2959 300.88007
1668.3801 302.88956
1668.4998 300.3359
1670.3297 298.07767
1666.6677 297.3148
1664.8613 293.65274
1660.8536 294.33374
1657.9877 296.41995
1659.9803 298.3124
1661.564 300.08392
1663.3477 296.53955
1664.8542 299.8899
1665.4601 302.77618
1666.6171 305.20227
1663.6875 306.54575
1663.043 304.56714
1662.7529 302.27963
1659.967 302.98953
1657.8463 301.4727
1657.7502 305.99216
1660.4052 305.59494
1659.7837 308.31424
1657.7505 310.28857
1658.2708 313.79712
1658.0234 317.3312
1661.0073 316.3363
1662.3434 313.9581
1660.7634 311.51767
1662.0872 308.51324
1663.9647 310.1563
1664.7551 312.5417
1667.4836 310.83224
1665.6713 308.1589
1668.156 307.33694
1670.3531 308.45517
1670.4857 304.4518
1673.4763 303.39154
1672.9006 306.32034
1673.4866 309.457
1671.2877 311.3417
1673.7388 313.26675
1671.3529 314.79947
1668.5739 313.4334
1668.8287 316.54163
1665.51 315.5625
1663.3784 318.5129
1659.5044 320.3501
1662.1858 323.02365
1658.4794 324.18207
1661.5183 326.8068
1658.4694 328.6988
1661.5702 331.3231
1664.1035 328.98264
1665.4695 325.3357
1667.8936 322.47412
1664.918 321.3894
1667.1494 319.01175
1670.3391 319.60312
1673.0947 317.325
1673.0059 320.7322
1673.5065 323.7578
1670.3378 323.84824
1668.8652 326.97726
1666.8086 329.7881
1668.1466 334.03268
1669.3491 331.6118
1671.2104 329.8213
1672.6343 326.80493
1674.1227 330.19992
1672.8005 333.76108
1671.4802 336.50467
1673.2876 339.0549
1670.4888 341.32373
1673.1628 343.08597
1673.7883 346.54782
1670.5922 345.56573
1667.826 343.7204
1667.8036 346.6318
1665.6797 348.36667
1662.8821 349.32095
1665.626 351.3158
1667.7593 353.451
1670.68 352.54434
1668.929 349.66998
1672.1326 349.0551
1673.3824 351.77963
1673.2144 355.08276
1670.219 356.0028
1667.5125 357.09143
1664.5015 357.5159
1662.3782 359.40408
1663.0017 362.15353
1659.7412 360.794
1657.2458 362.13174
1655.9478 364.4354
1659.033 365.8109
1660.5215 363.57034
1663.0024 365.98434
1665.3077 363.85223
1667.821 362.21423
1665.9271 360.0686
1669.8423 359.63885
1673.082 358.3078
1672.9274 361.31598
1674.1434 364.31516
1671.677 366.34805
1669.8545 368.6157
1670.5101 363.37726
1667.8861 365.78885
1666.5254 368.63562
1663.4973 369.05344
1660.0789 369.03085
1656.6661 368.60144
1652.9225 369.09903
1654.0732 366.3382
1650.8899 365.55402
1649.3395 369.20905
1647.9513 366.8258
1647.5067 363.8078
1645.2891 366.24774
1644.3547 363.94284
1642.2903 362.97012
1639.9546 361.6234
1640.6545 358.22888
1643.891 357.74643
1645.9434 356.2142
1643.2961 360.54483
1646.3982 360.84262
1648.672 358.55908
1650.0183 361.83884
1653.1233 362.40054
1652.2428 358.45883
1655.4135 359.77136
1658.7388 358.27472
1655.8326 356.71536
1653.8535 354.78076
1656.1128 353.24634
1658.8267 355.30426
1661.6361 356.34137
1664.8672 354.74783
1662.5747 352.91177
1659.3966 352.92154
1660.3501 350.64923
1659.6571 348.19202
1661.7645 346.10568
1664.4915 345.7034
1661.9061 342.79758
1661.3723 339.9544
1664.6378 339.36282
1664.5409 342.7894
1667.0557 340.90906
1668.8408 338.2249
1666.0933 336.4868
1664.4316 333.39865
1662.478 336.95493
1660.4539 334.8653
1658.0911 332.8375
1658.3595 337.68338
1657.9541 341.26575
1659.5803 343.16238
1658.9988 345.19534
1657.2323 346.56937
1657.205 350.51788
1653.8892 350.57443
1652.2966 352.37814
1649.8749 351.3414
1651.2512 355.26016
1648.6003 354.85635
1646.9221 351.2141
1645.0376 353.3821
1642.5564 351.04425
1641.6147 354.46844
1638.3936 355.0783
1635.152 356.1577
1635.6981 352.67535
1638.5833 351.23282
1632.7366 350.7268
1632.7577 354.36142
1629.8475 352.84222
1626.9714 351.17145
1625.5236 354.33405
1622.7074 357.45096
1622.097 354.33252
1621.8391 351.38098
1618.2866 353.73557
1616.7585 351.59933
1613.178 351.50458
1608.1497 351.3341
1603.721 351.69562
1599.7769 351.70895
1597.8147 355.0107
1595.4357 351.6727
1591.3197 350.81876
1591.5201 353.8521
1588.7716 354.7424
1587.3132 351.41406
1584.8496 353.51385
1582.6792 351.23416
1582.6191 355.4103
1580.2004 354.18155
1578.7668 351.31842
1575.2393 350.9235
1572.1273 351.92133
1568.825 350.70978
1569.4164 352.99698
1573.9448 354.304
1576.8258 354.37225
1578.5532 356.89005
1581.2725 358.27927
1584.1598 357.82977
1586.4226 356.2777
1587.0092 359.16867
1587.3864 361.8405
1589.852 362.81125
1591.4373 365.22296
1587.9277 366.00537
1589.2506 368.81332
1592.4952 367.71008
1592.636 370.17035
1597.0864 369.50095
1595.4829 367.8532
1595.076 364.98688
1594.0151 361.9203
1592.4658 359.36066
1589.8777 358.13733
1594.0977 355.7908
1596.851 358.61575
1597.6997 362.08737
1598.7288 365.1721
1599.3853 367.55695
1600.2988 370.05325
1602.3054 368.23337
1602.8156 365.21976
1601.218 362.4483
1600.7747 359.12134
1601.3158 355.45657
1604.8743 354.8987
1607.8077 354.75577
1610.9546 354.071
1614.1047 355.75497
1616.9823 357.05127
1619.7559 356.38345
1619.8562 359.27893
1620.884 362.12045
1618.1613 361.7359
1615.4211 359.36014
1614.9592 361.96848
1616.3562 364.20035
1618.7711 365.25836
1617.0012 366.91577
1613.3765 364.4128
1612.0103 360.8401
1611.1531 357.7515
1608.196 361.45908
1607.8987 358.36224
1604.3079 357.98343
1604.5555 361.18723
1606.1958 364.07834
1610.2612 363.64185
1606.2048 366.85562
1604.7983 369.19177
1608.0698 369.27887
1609.208 366.3423
1611.9957 366.80457
1610.8456 369.28665
1613.6106 369.49716
1614.769 367.26205
1616.7628 369.6855
1619.3132 368.5023
1621.7485 369.66464
1624.5635 369.2698
1626.9728 368.1878
1624.7947 366.42947
1621.9712 367.06613
1620.7395 364.7144
1623.0822 364.1661
1623.1013 360.83487
1625.1086 358.39838
1627.4642 357.16266
1629.7655 355.83374
1632.6692 357.73984
1635.0878 359.42197
1637.6571 358.37137
1637.3435 361.774
1634.868 362.32062
1632.6039 361.13226
1631.2671 363.9866
1628.3992 363.35223
1630.1373 361.62006
1630.4829 358.9051
1628.0992 360.10822
1625.9554 361.16025
1625.4441 363.5339
1627.3423 365.52274
1629.3826 366.50476
1632.0977 366.72952
1634.004 364.63345
1637.7585 364.64838
1640.6664 364.9946
1642.4889 367.1708
1645.2769 369.29935
1641.3434 369.73407
1639.0599 367.52426
1637.292 369.57153
1635.8494 366.53235
1634.447 368.62576
1632.4082 369.83667
1630.1532 368.7058
1628.1879 370.20688
1626.269 405.14517
1622.6741 405.00375
1619.9419 407.06888
1618.7886 403.86697
1616.2202 406.03357
1613.8417 403.08856
1609.1807 402.25534
1610.6719 405.02814
1613.0303 406.16043
1612.7693 409.34445
1609.5764 408.4168
1609.8816 411.461
1615.4279 410.0076
1618.3817 409.9139
1621.6162 410.56717
1623.4858 408.36502
1626.0908 407.58212
1628.7427 408.1541
1630.5673 406.22504
1631.6053 409.4341
1634.3427 407.7756
1637.2367 409.68585
1640.3992 410.3649
1645.1776 412.3044
1644.9276 415.57556
1641.0659 416.78073
1641.6327 413.24234
1637.7118 413.47516
1634.3005 411.11508
1634.0089 413.8987
1631.3918 414.73517
1634.3535 417.61893
1637.5883 416.73837
1637.8259 419.96948
1636.0051 422.73062
1640.5906 422.59827
1638.3868 425.5859
1640.8932 428.70706
1642.322 425.7841
1644.8611 423.13382
1649.3318 424.64557
1646.4275 425.98282
1644.7306 428.30148
1643.6138 430.6037
1643.3259 433.1078
1639.0272 430.58505
1636.1079 428.14548
1633.9084 425.64288
1630.729 426.23734
1629.2709 423.49713
1626.1648 424.49347
1628.5483 420.49063
1632.6406 421.50485
1631.0696 418.16843
1628.7471 415.11813
1625.9448 414.58942
1629.6531 411.88397
1626.8192 410.12753
1625.4495 411.88016
1622.9196 413.31595
1619.4064 413.68066
1622.1123 415.95966
1622.258 418.84512
1624.8923 417.7177
1627.524 417.64883
1624.9481 421.07898
1622.698 423.66977
1620.6426 420.93555
1618.842 423.57465
1617.2915 420.7213
1614.9978 423.36536
1614.5775 420.07376
1618.8678 417.48767
1616.1084 413.4147
1612.5615 413.61606
1615.6559 416.73703
1612.6182 417.54282
1610.884 420.0532
1612.3115 422.06277
1608.9363 422.09323
1608.2932 419.11096
1605.8665 422.12534
1605.0238 419.93362
1602.8185 418.35178
1602.7985 415.57425
1605.2795 414.23956
1606.1079 417.1049
1609.9065 416.348
1608.2853 414.10696
1606.2446 411.1566
1602.6604 412.63287
1602.7423 409.78696
1599.0886 407.73334
1602.8296 406.57236
1606.1677 407.85092
1607.9753 405.36893
1605.6306 403.49146
1602.4713 402.9736
1599.0652 403.59818
1595.1691 403.50046
1595.4557 407.96536
1596.0444 411.03677
1599.3665 411.2091
1599.7284 413.7524
1600.2942 415.82553
1599.7418 417.80038
1597.5735 415.85803
1596.3373 413.75217
1596.4125 418.88278
1599.8544 420.1306
1602.0315 421.80765
1597.3119 421.70364
1593.0266 421.60916
1592.317 418.6499
1594.5526 416.522
1593.3942 413.46402
1590.9751 415.59366
1587.7493 416.36597
1588.5687 412.87787
1588.8247 409.37405
1591.977 410.8204
1592.0535 406.8162
1590.4922 403.11218
1584.8561 403.2112
1587.6229 405.9714
1585.2576 409.82968
1584.7057 413.34113
1582.2742 415.6201
1579.3214 414.09317
1575.7471 415.00772
1574.6173 418.17645
1574.5197 421.77347
1577.003 420.27872
1578.6001 417.7811
1581.5603 419.51892
1585.1459 418.12186
1589.1804 420.58237
1585.5397 421.75098
1581.8391 423.08487
1577.7869 423.14252
1573.7051 424.46805
1570.5876 424.32074
1572.0835 421.01978
1569.4532 421.3044
1567.0204 421.418
1567.6606 424.29227
1568.5374 426.68552
1565.421 425.36255
1565.067 427.83954
1563.1534 425.9736
1562.0874 428.23505
1560.1338 429.2871
1560.5209 425.93234
1558.1575 427.05548
1556.3562 429.4878
1558.3085 430.6019
1556.3551 432.90457
1553.4734 433.3195
1553.2478 430.71924
1554.5001 428.31647
1555.3547 425.6689
1552.6335 426.65466
1551.0344 424.54117
1554.5065 422.4952
1556.7533 423.46475
1558.8381 424.15228
1559.7211 421.83698
1557.3912 420.50833
1555.1731 418.64215
1551.8331 417.75537
1555.0105 415.0218
1558.1664 415.258
1559.1328 417.73444
1561.0101 419.51282
1562.4081 421.7341
1561.9542 423.93353
1564.7961 422.9147
1564.5737 419.94846
1563.1965 417.6369
1567.4218 418.19037
1570.5782 418.18488
1572.4163 415.98807
1570.4813 413.59
1568.0249 414.7438
1565.1663 415.28903
1561.6091 414.78113
1563.0253 411.68195
1566.6301 410.94638
1564.1836 407.71442
1568.6008 406.52142
1570.034 409.97156
1573.3716 408.19275
1573.295 411.9737
1576.6248 411.51062
1578.3213 408.55347
1581.274 410.71722
1582.9735 406.8621
1580.0238 404.25037
1576.5002 405.52017
1572.9487 404.6453
1573.0432 369.4176
1576.648 369.17188
1580.1401 368.8885
1578.3516 366.94986
1579.0853 364.3158
1581.8378 364.96085
1582.9136 367.15305
1582.625 369.64276
1585.6411 370.33975
1585.8495 368.17868
1585.338 365.1005
1584.5504 362.84067
1584.1074 360.31186
1581.925 362.03113
1579.9592 360.9715
1577.0779 362.29
1577.9127 359.5944
1575.632 358.16312
1572.8513 357.5206
1569.3707 359.74493
1569.9252 355.87033
1566.0985 353.44305
1564.4 350.64417
1562.2881 352.82092
1558.7218 351.58176
1554.9431 353.1468
1551.592 351.7807
1550.5715 356.10822
1552.1929 358.64755
1549.1938 361.16586
1546.2836 358.79013
1545.1847 361.94083
1542.1072 362.78094
1539.3827 364.43713
1541.3531 359.30896
1542.0015 356.2096
1545.539 355.60214
1548.3524 353.20044
1545.722 351.22952
1542.0146 352.2594
1538.3135 355.80292
1538.6282 360.68286
1536.0132 360.11218
1535.2196 357.5484
1534.4943 353.9114
1538.0789 351.70074
1532.5569 351.21143
1527.6882 351.81284
1528.9257 354.87515
1531.6946 356.6923
1531.3503 360.1857
1528.02 359.82248
1525.6013 357.06308
1525.2539 362.42276
1528.8934 363.1724
1527.4816 366.16483
1526.462 368.7505
1530.0338 368.66544
1533.094 368.5478
1531.0581 365.07468
1533.5183 364.68088
1533.6115 361.60983
1536.4513 363.3524
1535.9062 366.35434
1536.3383 369.52686
1538.9786 367.66428
1541.4194 369.38907
1542.6349 366.23575
1545.7808 365.48
1545.1205 368.9626
1548.8511 367.95282
1548.7709 364.58774
1551.7139 365.56076
1554.6243 364.52295
1553.1033 361.67615
1555.7772 358.0418
1558.5117 355.9737
1562.0889 356.73334
1566.1512 356.79346
1564.928 360.4092
1566.5117 364.1161
1569.7806 365.70035
1571.2124 362.82678
1574.0017 361.2925
1575.2764 365.1665
1572.5814 366.9307
1568.032 368.665
1563.4652 368.782
1562.2068 365.1135
1560.8218 360.97946
1557.4382 362.03204
1557.3993 366.09915
1559.0042 368.84872
1553.5968 368.7906
1549.0691 370.33917
1559.77 408.83777
1558.5206 412.01617
1554.7493 410.98352
1551.4614 413.6384
1548.0288 415.19226
1548.536 418.86545
1552.155 421.48453
1549.0514 421.936
1547.307 424.28955
1548.6968 426.629
1550.5087 428.58408
1550.08 430.88544
1549.6047 433.0315
1548.0188 435.12967
1551.6638 434.933
1550.3624 437.19803
1548.5167 439.564
1547.0477 437.62808
1544.5829 436.47034
1543.9272 433.58926
1542.7577 430.6801
1546.4615 432.05093
1546.957 428.90387
1544.271 428.56287
1541.8147 426.91568
1539.0977 426.0551
1540.4952 423.7852
1542.9348 423.21722
1544.8608 425.47772
1545.5287 421.27283
1544.6963 417.6416
1542.1587 420.03253
1539.795 421.05466
1537.8368 423.2905
1535.3184 425.46994
1536.9099 427.05164
1535.0835 428.71396
1533.0831 430.32312
1531.8579 433.31238
1529.904 437.03253
1534.1542 435.88336
1533.536 439.40723
1537.1364 439.38495
1537.8986 435.96906
1536.404 432.42886
1538.2087 428.91174
1539.8616 430.13818
1540.1566 432.86
1541.2329 435.4364
1541.2578 438.191
1543.9263 439.86118
1546.1486 440.65744
1546.9508 443.2023
1544.5494 443.77283
1543.3618 447.22324
1540.9349 445.48135
1542.3015 442.85364
1540.3867 440.7922
1538.3794 443.0727
1534.8282 443.00333
1534.309 446.83618
1537.492 446.44672
1539.7971 448.6523
1541.7471 451.11902
1538.5862 452.24033
1540.6249 455.60922
1537.5465 455.83286
1534.6984 457.5603
1533.8591 453.34805
1535.8079 450.22153
1531.4796 449.52045
1531.2463 445.0616
1530.565 441.2008
1527.5344 442.1473
1527.6724 446.25864
1526.6134 449.59183
1525.4015 454.11743
1529.1409 452.68512
1531.0306 455.90985
1527.4575 457.15234
1524.6664 458.92963
1524.2778 462.9077
1524.4005 465.9931
1526.4446 467.3224
1527.6244 469.99203
1523.7136 470.7248
1526.3865 473.51404
1525.1437 476.7481
1525.4902 480.6234
1527.3002 482.95886
1529.1051 479.97546
1529.4081 476.37268
1532.4038 478.20477
1535.0546 478.91776
1537.1382 476.90576
1533.5679 475.1074
1531.3102 473.0444
1530.2589 470.34393
1529.7694 466.3802
1527.3958 462.36823
1530.5409 462.94238
1531.167 459.71136
1535.6866 460.98273
1539.3223 460.35522
1533.6016 464.55963
1533.2494 468.88617
1537.7838 464.40775
1539.6527 468.08496
1536.5615 467.97516
1536.3541 471.25537
1536.3431 474.10858
1539.4913 473.53488
1540.1146 477.85632
1537.8563 480.22537
1540.3069 481.6048
1542.6237 483.83362
1539.919 484.81573
1537.1945 485.8004
1534.8313 487.96796
1531.3794 486.86227
1533.8292 484.9128
1536.7887 483.2653
1534.9929 481.63885
1532.3087 481.5181
1530.5902 483.6687
1528.4377 485.70187
1525.2825 485.24316
1527.5387 488.35013
1531.0795 489.55347
1527.6528 491.7231
1530.288 492.74106
1533.5254 491.322
1533.0074 494.23566
1529.8203 496.30945
1532.913 497.2105
1531.6979 500.1764
1534.3015 502.53546
1535.0546 506.5533
1538.16 507.95013
1540.7828 509.669
1539.3646 511.6888
1540.7839 514.3136
1543.0961 513.8447
1543.9882 516.36554
1545.5325 518.58575
1548.3778 519.0899
1548.6362 521.7002
1551.8357 522.41644
1554.3861 523.108
1557.3431 525.6831
1557.065 522.58154
1559.4323 520.2388
1559.1893 517.2099
1556.6005 513.8581
1559.0642 514.2725
1561.3845 513.92615
1563.754 511.98544
1562.06 509.4755
1558.77 510.97943
1555.6769 510.66632
1552.9191 509.35956
1550.0686 509.32346
1550.0162 512.28046
1553.437 512.995
1555.609 516.6298
1556.434 519.5515
1553.5153 519.491
1550.7367 520.2791
1550.8585 517.7897
1552.7197 515.8909
1550.145 514.5868
1548.7 516.1217
1546.9749 516.9737
1546.4906 513.98083
1544.0161 511.50714
1542.367 507.56793
1545.3633 508.87222
1547.55 510.5981
1547.7389 506.24054
1544.7817 505.12683
1541.4478 504.1134
1537.9639 504.08072
1536.1663 498.38144
1536.133 494.56512
1539.0776 494.13675
1538.1929 491.39954
1536.0043 490.59985
1538.778 488.1723
1542.3949 487.4646
1541.0962 490.59906
1544.5181 490.74976
1542.2501 494.07217
1540.4092 497.34015
1538.944 500.67746
1543.1212 501.03748
1546.8396 501.74777
1544.5126 497.95905
1545.6722 494.18692
1548.1511 496.81256
1550.49 499.2945
1550.094 502.8897
1553.8623 501.47784
1553.2612 504.69238
1550.8721 506.40613
1555.659 507.32428
1556.9058 504.32632
1558.973 507.85684
1561.0955 506.0447
1565.875 509.2113
1570.2238 510.4016
1569.848 513.59973
1566.7848 513.08276
1564.028 515.2911
1562.1423 517.96185
1563.8677 520.6778
1561.7407 522.03906
1559.8574 523.7917
1561.0339 526.6513
1563.7489 525.88293
1564.576 523.39734
1566.9736 520.32715
1565.0854 518.3296
1567.1395 516.49164
1569.6594 517.42096
1569.8839 520.0994
1567.677 522.9345
1571.2311 521.87354
1573.4844 519.942
1575.7498 518.0464
1572.4595 516.4786
1573.2507 512.8733
1576.329 511.90195
1575.9495 515.0872
1578.5839 516.69727
1580.9153 517.8032
1578.8579 519.93616
1576.665 521.2078
1575.0234 523.2061
1572.6187 523.78125
1569.7375 524.5801
1566.978 526.16693
1564.7634 528.66364
1568.3999 529.4612
1571.994 530.4679
1570.2131 527.3545
1572.6979 526.6082
1574.4442 528.8481
1577.6771 528.7693
1575.9595 531.54126
1579.4855 532.33453
1580.8568 530.01733
1582.6989 527.90155
1585.8357 528.89465
1584.713 531.3415
1583.177 533.0012
1579.8481 566.0648
1575.9672 567.11035
1572.6483 567.0018
1578.8188 568.8068
1582.0691 568.04956
1584.5529 569.5911
1585.0726 566.61487
1588.891 566.6733
1587.62 569.0221
1587.8574 571.85504
1590.4993 570.6517
1592.1687 567.52075
1593.5773 534.0822
1591.2252 532.67804
1588.1338 533.6723
1587.688 531.0551
1590.3152 529.8228
1594.2274 531.3746
1593.446 529.08966
1594.6276 526.30396
1593.2272 523.82544
1591.3601 526.6306
1588.4077 527.1362
1586.8453 524.0299
1585.241 526.23425
1583.1309 524.1737
1579.807 526.4619
1575.7496 526.05383
1577.9846 524.0609
1580.3986 523.0236
1581.9401 520.9039
1585.3958 521.1128
1583.7546 518.97046
1583.5316 516.56836
1581.6804 514.78186
1579.0852 513.56726
1582.1748 512.1787
1585.0193 513.92816
1588.3595 513.52997
1586.3309 516.3655
1587.4719 518.55725
1589.8137 520.0371
1588.4669 521.9229
1590.2999 523.827
1592.7361 521.06464
1592.3171 518.6308
1590.3739 517.2255
1589.4236 515.41547
1592.8728 513.9775
1592.8159 516.16187
1595.501 515.594
1597.9396 514.7361
1598.0925 518.4706
1595.214 518.78235
1595.6536 522.1808
1598.3859 521.3425
1597.564 524.4744
1599.7518 526.64276
1597.1178 527.77563
1597.7219 530.19135
1596.6704 532.3567
1596.9802 534.72095
1600.0316 533.1656
1601.1663 529.6516
1601.0884 524.57074
1600.8147 521.82666
1601.6587 518.48303
1600.1538 515.96436
1602.9636 514.742
1606.0454 515.21
1608.6641 513.72076
1610.6371 515.29565
1607.8744 517.74835
1604.9279 518.41156
1603.4521 520.95105
1605.6064 522.55054
1603.704 524.06244
1603.3745 527.0386
1605.1808 530.24365
1603.5032 533.2676
1608.079 533.2461
1609.4885 529.76715
1612.713 527.8816
1615.9498 526.7158
1618.1431 524.34705
1619.2443 521.8371
1621.144 526.1878
1618.8657 528.0764
1615.9246 530.2282
1612.6489 531.42456
1613.1917 533.94775
1618.2471 532.54236
1621.0288 530.2531
1623.6794 528.4613
1624.4008 525.7194
1622.2562 523.7086
1625.012 522.6014
1627.8226 522.46246
1626.7433 524.9017
1629.4421 525.5824
1630.2781 522.0533
1632.7631 524.31384
1635.2251 523.0195
1632.468 520.3855
1629.5957 518.21625
1627.206 519.42975
1626.3809 516.31396
1623.1418 518.0714
1624.7861 520.0618
1621.9507 520.93195
1619.5858 518.6217
1617.8936 516.4227
1616.2456 520.25415
1615.0953 523.31396
1612.7053 521.32166
1610.0151 521.1091
1612.4517 524.58936
1609.8074 525.46545
1606.7688 527.2778
1607.4055 524.2231
1607.4073 520.8107
1610.3079 517.7657
1612.7117 518.25446
1615.0625 517.2268
1613.1505 514.33325
1615.999 513.8442
1619.1835 513.43604
1621.8325 515.7688
1622.3513 512.6026
1625.3784 513.39185
1628.1232 511.26953
1629.907 514.1265
1632.6925 510.719
1633.9336 514.0835
1632.4321 516.945
1636.1388 517.4524
1635.218 519.8622
1638.2673 519.79974
1640.3783 521.5388
1642.8108 520.80066
1640.7 517.8584
1643.6516 516.91327
1645.022 519.84424
1648.7944 521.2416
1647.3063 519.68915
1646.6343 517.11816
1643.4126 513.8211
1640.4404 514.64825
1637.4419 515.57
1637.0482 512.7734
1638.7952 510.7968
1636.0369 509.06055
1639.4893 507.59457
1642.1172 505.7722
1643.2444 508.3957
1641.493 511.11145
1644.6572 511.0809
1645.53 506.44574
1644.9354 503.73846
1647.3187 502.47314
1648.3176 505.56107
1653.4509 506.95697
1655.9961 505.0889
1657.5302 507.64392
1660.6544 508.80847
1659.1609 504.23462
1656.6978 502.08844
1654.3739 500.12125
1653.2964 503.14505
1650.6215 503.80475
1648.9088 500.58154
1651.1252 499.84958
1652.104 497.57312
1652.839 494.55154
1654.7603 496.94882
1656.7921 495.90714
1659.0908 494.82437
1655.7373 492.89642
1655.8341 489.39685
1658.1304 490.31693
1660.4885 491.83594
1660.233 488.1382
1657.4985 485.79126
1659.1853 481.3978
1661.0807 483.95312
1659.9456 485.54083
1663.7228 486.5433
1667.0739 488.23956
1667.2322 485.4505
1664.8209 483.8448
1662.5742 482.32498
1664.9409 480.52182
1662.9861 479.41528
1661.0516 478.326
1659.0784 476.92126
1664.3444 476.4882
1665.7637 473.6811
1661.5809 474.41986
1661.0186 471.0771
1665.4705 469.88034
1669.4742 472.23865
1670.3655 469.05707
1667.0428 465.8675
1661.813 467.33743
1660.4563 463.84363
1664.3842 463.801
1666.1946 460.25085
1662.7877 460.59988
1659.6588 459.94513
1659.179 455.98502
1658.1128 452.15714
1655.86 446.2438
1659.2455 449.06308
1662.0146 454.02005
1662.7344 457.29056
1666.1755 456.34174
1665.7167 453.09885
1668.741 452.92447
1670.9246 454.65506
1669.4294 449.50778
1667.9543 442.58777
1666.177 439.4737
1664.0076 437.29727
1660.4725 438.22394
1661.8779 441.5557
1664.5254 443.38113
1667.2386 446.1023
1666.005 449.34073
1662.8496 450.96942
1662.9534 446.9822
1659.657 444.95837
1657.6249 441.2956
1653.6895 441.9745
1650.9792 438.78253
1647.354 436.32648
1649.474 434.4932
1653.8326 436.89078
1656.9154 437.21738
1659.1641 434.57877
1657.2786 431.48996
1654.4515 429.8662
1655.1791 433.27756
1652.1713 433.97278
1651.0767 431.14713
1646.6597 432.58072
1647.7881 429.40543
1650.4824 428.19083
1652.6696 426.3574
1655.3083 427.23386
1655.8154 424.31073
1652.8862 422.70486
1650.1143 421.2123
1646.8639 420.71097
1642.9757 419.65054
1647.2612 417.5795
1649.5698 415.05804
1651.0311 418.1372
1654.16 418.64236
1656.0508 421.04245
1659.052 422.28625
1658.9255 424.7816
1657.532 427.4058
1660.1001 426.7743
1662.1987 425.45966
1662.1094 428.32327
1664.8638 429.58096
1662.4619 431.35724
1659.163 429.25687
1659.971 431.7184
1662.516 434.59033
1665.7844 433.03317
1668.094 436.16287
1670.1796 440.28363
1670.9677 444.89398
1674.6941 446.80515
1672.2898 448.5682
1673.0793 451.58405
1674.3566 454.259
1674.3302 457.05023
1671.7286 458.0913
1668.9697 457.9105
1669.3529 461.85632
1673.2006 460.69308
1675.8969 459.84018
1675.7421 463.47784
1672.544 463.39313
1670.8224 465.75473
1674.651 466.2391
1675.0897 469.2565
1674.7556 472.49292
1672.4703 474.63135
1675.3192 477.48505
1671.7203 477.683
1668.788 475.88187
1666.8785 478.46774
1666.8756 482.1382
1669.4381 479.5898
1672.5763 480.63675
1675.0618 482.4309
1674.1609 487.6659
1672.7073 484.093
1669.3896 482.02512
1669.6796 484.28546
1670.7004 486.81262
1671.2661 489.65845
1667.859 491.04465
1672.0295 492.38638
1671.7529 495.48712
1670.4033 497.73944
1667.4454 497.62268
1664.2307 496.947
1667.8053 494.46246
1664.8387 492.55518
1663.3 489.66037
1662.3098 494.29886
1661.0066 497.83994
1657.6438 498.90918
1660.1769 501.03424
1663.3635 501.37634
1666.1787 500.3735
1669.9589 500.85553
1667.9016 503.60193
1665.4127 504.86737
1661.7993 504.80188
1663.1456 507.359
1665.5134 508.54282
1663.5701 511.47797
1660.9009 512.302
1659.8464 514.5789
1656.3726 513.45544
1657.874 510.90973
1654.4485 510.18918
1652.6926 513.1044
1650.9055 510.52097
1650.4974 507.70602
1647.3418 508.93655
1647.2972 511.74768
1646.4653 514.499
1649.5035 512.93494
1649.7334 515.26746
1649.4528 517.9143
1651.9495 516.7481
1654.0615 515.23395
1655.9633 516.625
1658.416 516.5871
1656.6672 519.1753
1653.9897 518.44666
1653.5631 521.3181
1651.4259 519.9766
1650.0237 523.28674
1646.7722 525.03107
1645.3611 522.894
1643.2788 526.244
1641.2372 524.40155
1637.9332 523.7748
1639.227 527.6467
1635.8024 527.32623
1633.2705 529.91235
1631.7672 527.2569
1629.3698 530.33356
1627.0558 527.8209
1626.1011 531.04504
1623.1382 532.45276
1624.0792 567.1583
1627.7188 567.6702
1620.5219 568.2173
1622.4755 570.5484
1625.2799 571.3413
1628.3994 571.8127
1629.7003 575.0445
1626.583 578.52
1629.2278 578.3337
1632.2856 577.8056
1635.9246 574.866
1639.1096 576.90375
1640.1836 580.01416
1642.3944 582.68475
1643.3617 580.7191
1642.3937 578.46045
1642.3129 576.0624
1644.266 574.16974
1641.3228 573.17633
1638.3447 573.1444
1635.7462 570.6348
1633.0588 574.66956
1632.0713 571.62714
1630.7927 568.3366
1633.9022 567.2038
1638.289 567.21
1640.3219 569.7505
1643.6008 567.32733
1644.3423 570.8329
1647.5935 572.07056
1647.0035 574.47687
1645.5144 577.17053
1647.852 579.0598
1645.6824 580.191
1646.1659 582.59784
1650.0093 581.2024
1649.5626 576.67053
1652.5935 574.37933
1655.5558 575.1568
1659.3152 574.59753
1657.8048 571.75793
1655.8417 569.24585
1654.2523 571.79346
1650.403 572.90564
1648.4265 569.7079
1648.0105 566.89667
1651.7347 568.8091
1653.9635 566.5733
1658.1511 566.84564
1662.52 566.63776
1664.392 569.0142
1660.1649 569.23206
1661.7924 572.1015
1664.9089 573.52954
1667.5593 570.9378
1668.2642 567.2011
1672.2894 568.55664
1674.2655 572.3417
1670.6406 572.52686
1668.024 575.57776
1670.2256 578.4806
1672.877 575.6866
1673.7388 579.1866
1674.5 583.00696
1670.7733 585.276
1671.1018 582.3143
1667.7074 581.1212
1665.3369 578.76886
1666.6813 584.20135
1663.0472 584.24347
1661.964 581.26074
1662.6017 576.3252
1660.1445 578.8569
1657.2532 577.5646
1652.9905 578.2936
1656.8853 580.9055
1658.1396 584.3666
1653.9421 582.57947
1651.8765 584.7259
1648.0005 584.74493
1644.5743 584.73505
1642.4597 585.68134
1640.672 584.1161
1639.5127 586.1017
1636.5186 585.19836
1638.2383 583.9821
1639.3015 582.1918
1635.5725 582.4106
1637.2053 580.3253
1635.6174 578.15204
1632.6989 580.5444
1632.346 582.99286
1634.0564 585.00916
1630.5769 584.9463
1629.1464 581.75793
1625.9469 582.1795
1627.2476 584.84534
1623.5219 584.8333
1620.0659 584.0715
1620.3279 580.5293
1622.6189 581.821
1624.4397 579.9088
1619.3291 578.45325
1620.7017 576.14264
1623.1198 577.8453
1626.1709 575.1481
1623.2516 574.6468
1620.8156 573.16077
1618.6456 571.2112
1616.3167 569.1123
1617.9573 566.5996
1613.0525 567.2401
1608.1538 567.2035
1609.8342 570.16095
1612.9536 570.84937
1615.3339 572.364
1617.6174 573.918
1617.8721 576.26416
1614.8647 575.90643
1611.7096 577.441
1612.4413 574.29065
1609.5115 573.4736
1608.7588 578.0462
1610.7245 581.39014
1613.7224 580.07935
1616.2408 578.63245
1617.045 581.6527
1616.7899 584.7913
1613.4728 583.97375
1609.3801 584.58014
1607.1945 581.293
1605.266 584.95654
1604.0662 582.3208
1603.43 579.82275
1605.3446 577.65295
1607.3821 575.0358
1604.959 573.8779
1605.5891 570.23395
1602.9952 567.0611
1600.3313 569.14984
1596.7019 566.7729
1595.6741 569.32556
1593.4178 570.8746
1597.0125 571.16077
1599.1711 571.9685
1602.4247 572.5718
1602.2516 576.7181
1600.7244 579.87
1599.1646 576.889
1600.2831 574.43195
1597.6545 574.20544
1595.0924 573.45294
1596.2266 576.0237
1593.5262 577.3711
1593.1106 575.3554
1591.8524 573.4007
1589.2612 574.4232
1590.1635 576.9562
1590.577 579.4901
1586.9117 577.4931
1586.1028 574.9639
1584.9576 572.3872
1581.7084 571.55835
1578.7327 572.34064
1576.1798 571.0872
1573.7979 569.93506
1572.7189 572.92694
1570.783 569.532
1569.5015 572.1693
1571.2673 576.12195
1568.5742 575.0559
1565.8243 573.65796
1566.5237 571.3788
1567.5251 568.87085
1568.9392 566.56024
1564.2312 566.84155
1564.418 569.25684
1563.3013 571.47046
1560.9812 569.62683
1560.0231 567.03076
1558.2148 571.1915
1555.1747 572.4408
1556.4333 567.81305
1552.8945 567.8144
1550.1384 569.1
1552.1104 572.6577
1549.0266 574.0891
1545.6377 573.51086
1548.06 571.3013
1547.2041 567.1052
1545.4282 570.25507
1543.2616 573.08704
1543.9489 576.5366
1546.6562 576.76337
1549.7911 577.0395
1548.9609 580.2025
1545.2362 580.18286
1542.1152 580.94965
1539.0665 581.14636
1541.1075 578.3085
1541.7097 575.8428
1539.3065 575.6099
1540.8892 573.7591
1541.7253 571.4566
1540.4644 569.033
1543.4446 569.0152
1542.2869 566.5342
1537.7424 566.9932
1533.3098 566.848
1530.5092 568.65125
1527.5939 567.02185
1528.1122 570.80725
1525.7991 571.20544
1525.8248 574.86365
1529.766 572.6852
1531.8651 574.35864
1532.611 570.94653
1535.1548 569.50085
1537.7809 569.9076
1539.4268 571.59174
1538.3291 573.31116
1536.2048 572.2778
1534.1982 573.6467
1536.3145 575.12054
1537.1907 577.00757
1537.644 578.9785
1535.4202 580.96985
1534.0964 578.8879
1533.0621 576.77356
1529.4758 575.6968
1527.6261 577.4708
1525.8552 579.3327
1525.3027 582.39935
1527.5671 585.1271
1528.598 582.138
1530.1611 579.28284
1532.3075 581.6565
1530.9012 584.52454
1533.9698 584.6848
1536.4382 582.8747
1537.2788 585.1613
1539.915 584.2295
1542.5903 583.87177
1545.1143 584.5793
1547.8368 583.84595
1550.8232 583.55646
1553.4681 584.98596
1555.5814 583.20166
1553.0625 580.5065
1552.7854 576.7732
1555.8646 576.7805
1558.3242 574.7187
1559.6416 577.8446
1561.5421 575.71106
1561.3687 573.03534
1564.1199 575.4307
1562.9661 578.55237
1560.8147 580.82556
1556.9229 579.78345
1558.4015 582.4004
1558.7848 585.09576
1562.021 583.4279
1564.1835 585.09576
1566.5923 583.1933
1564.9598 580.73706
1566.4243 577.3561
1568.7744 579.46814
1569.9437 582.73755
1568.9943 585.2587
1573.1053 584.4877
1576.8984 584.9049
1578.99 582.67993
1575.3492 581.7707
1572.0424 580.8878
1573.5013 578.25006
1575.5167 575.0484
1577.1991 578.7764
1579.3315 575.7916
1582.6381 575.17145
1580.613 579.72156
1583.6448 578.66406
1586.9027 580.5052
1583.2094 582.46515
1581.7136 585.1654
1586.4402 584.3522
1589.5172 582.4418
1592.8102 582.5153
1593.2947 579.62537
1595.6509 580.5885
1596.1334 578.18066
1598.2405 579.31726
1598.432 582.0495
1595.8706 583.1696
1598.4258 585.55426
1601.0029 583.2118
1602.0251 585.97595
1601.2415 588.5251
1604.4948 589.0566
1601.7034 591.3425
1604.2751 593.4898
1604.3975 597.7155
1604.166 602.88934
1602.0663 599.7762
1599.8358 597.3136
1601.2294 595.024
1596.9768 594.5818
1598.7548 592.25867
1595.6287 590.5747
1598.1194 588.6741
1595.0 585.81573
1593.1841 588.126
1592.261 591.39874
1590.7883 585.4066
1589.3296 588.6543
1588.6556 592.4882
1590.9769 594.18774
1594.2291 594.3655
1592.2379 596.40436
1589.0967 596.45074
1588.1377 599.11755
1590.9479 599.48663
1593.2007 598.3723
1595.5088 597.8912
1597.8789 598.5728
1597.0846 601.46826
1600.0824 602.2243
1597.6669 605.1157
1601.5516 605.4685
1604.3392 607.53107
1601.5555 609.8423
1604.4061 611.7507
1602.3286 613.9304
1604.4105 616.62476
1601.2665 617.7186
1599.6195 613.42926
1598.757 611.0542
1599.2073 607.84155
1596.3325 608.43744
1593.4221 608.0861
1593.8359 605.62756
1594.9912 603.4424
1593.873 600.8634
1591.6403 603.08136
1589.1133 601.8134
1588.5173 604.80096
1590.7457 606.42694
1588.4165 608.9117
1591.0571 609.6708
1589.9221 612.32983
1587.9861 613.0802
1588.5679 616.12775
1591.0833 615.9364
1591.781 614.039
1592.6156 612.1792
1594.1102 610.6052
1596.3876 611.7619
1595.078 613.74615
1593.7722 615.52246
1595.5884 617.1917
1597.1741 614.96967
1599.42 616.09186
1600.043 620.39014
1603.4982 620.28955
1600.0352 623.022
1602.4368 624.4734
1604.8948 623.4603
1604.1078 627.7333
1603.9868 630.68646
1605.2649 633.5804
1602.8064 633.87604
1604.0518 636.6185
1600.7996 638.5218
1604.0243 639.39874
1604.3464 642.3137
1600.865 641.62036
1601.4227 644.4714
1601.7007 647.38904
1604.5381 645.9055
1604.8589 649.63116
1602.6812 650.9449
1600.7681 650.3851
1598.6469 649.0495
1598.5604 652.234
1600.174 654.41034
1597.697 656.49634
1594.9827 657.65314
1592.4847 659.22314
1597.8823 659.483
1600.9442 657.0199
1603.565 655.66736
1603.9581 653.19196
1607.0752 654.9983
1609.5938 653.9218
1610.1064 656.99963
1612.1799 655.0266
1614.8551 654.3639
1616.5984 656.80414
1618.2395 658.8155
1618.3448 660.8268
1617.171 662.36
1618.6359 663.5868
1620.848 663.99677
1620.6418 661.1735
1622.6547 662.95734
1625.3666 662.1533
1623.4645 660.1058
1620.9038 658.87726
1619.4486 656.8336
1618.1482 654.3791
1621.5703 653.8447
1621.5787 655.7954
1623.2238 657.44543
1626.0051 657.28
1625.1843 654.5182
1628.7358 655.3084
1631.9984 654.904
1627.1558 659.8039
1630.466 658.92645
1633.7234 657.929
1635.9089 654.95294
1637.8076 658.542
1641.2551 658.1376
1639.7113 654.79175
1643.7676 655.1279
1647.7479 654.23676
1649.303 657.1377
1650.9574 659.07117
1646.7542 657.1661
1645.0408 659.33905
1648.3655 660.9521
1647.7666 667.67816
1651.9653 667.1657
1649.6067 664.0763
1653.3058 662.63947
1653.102 658.77094
1655.3381 659.508
1656.4235 656.4776
1654.1016 655.7992
1651.2151 655.38605
1652.7494 653.5061
1656.8173 653.9967
1658.1675 657.7276
1660.7009 658.5989
1660.1072 654.79193
1663.0511 655.8819
1666.1042 657.24603
1667.075 654.40564
1671.4337 655.4607
1669.2783 658.9378
1673.1975 658.5673
1673.4275 661.7992
1669.6803 662.56085
1671.8875 665.2698
1674.774 665.0304
1673.3864 668.5105
1795.484 760.7985
1799.7089 760.92444
1798.7732 763.72723
1794.7144 766.7879
1797.792 766.6119
1800.3728 769.5589
1802.3813 766.11334
1803.7789 761.9944
1807.9032 763.14124
1806.4431 766.57904
1804.5823 770.12933
1806.3204 773.17035
1808.1174 776.50244
1810.3665 773.4203
1810.307 770.0922
1810.639 766.8009
1813.9683 772.4427
1817.1884 771.6526
1817.9498 774.4804
1820.5176 775.73865
1823.2145 775.2573
1824.1752 778.0863
1827.3232 777.0682
1830.1543 778.7676
1833.3022 776.42633
1832.5488 772.20483
1833.1758 768.19165
1837.0393 770.02563
1836.3484 766.46533
1838.3953 763.54865
1833.8538 763.5758
1835.3726 760.1305
1835.9918 756.57135
1836.6678 753.14484
1836.8611 749.7903
1840.6382 750.7597
1840.8008 746.23987
1837.197 746.45807
1837.7009 742.5797
1842.0236 741.9001
1839.9891 738.9341
1836.9773 736.94934
1840.1011 734.6722
1840.2053 731.07275
1844.6772 733.3505
1844.698 737.8158
1845.3423 742.34735
1844.3943 746.18463
1844.2668 749.86774
1843.6523 753.7237
1840.2954 755.2362
1843.0215 758.18506
1839.5183 759.55804
1842.1597 762.9721
1840.736 767.4786
1840.3506 772.2218
1835.6158 773.2433
1837.7803 775.3874
1840.1943 777.8855
1840.0592 783.5094
1837.4437 783.2308
1836.9364 779.45795
1832.9707 780.25977
1833.5544 783.2308
1829.4661 783.2308
1828.032 780.80786
1825.7883 783.2308
1825.1775 780.5182
1821.4962 779.87897
1821.6433 783.2308
1818.6166 782.69336
1818.2742 778.9762
1814.7793 780.28186
1815.5742 776.7112
1812.4016 776.33136
1810.9421 779.1285
1808.429 783.2308
1800.8115 783.2308
1797.9346 778.38727
1801.3535 776.36975
1798.5354 773.01196
1794.2356 779.66895
1793.6362 775.8713
1794.006 772.9864
1796.1458 770.0378
1792.264 770.2511
1792.0977 766.5913
1793.5845 763.5724
1673.1848 672.4442
1670.3721 670.1091
1668.7119 673.15765
1666.586 670.4636
1663.7983 672.9949
1662.733 670.3597
1659.5145 671.9179
1659.3597 668.102
1661.9059 664.7848
1663.3672 667.6375
1666.2194 666.80145
1669.2379 666.7382
1666.0238 663.4396
1665.5065 660.14874
1662.2041 661.2982
1657.7401 660.967
1658.4242 663.68304
1655.8662 665.8115
1655.4052 669.4217
1655.7875 672.6197
1651.8029 671.549
1648.1893 671.5655
1645.1394 672.5893
1644.0055 669.54706
1641.7983 672.1472
1639.7834 669.10443
1638.8899 666.1308
1643.1329 666.4838
1645.3872 663.9369
1642.9839 661.3645
1640.4072 662.57794
1637.1056 662.9106
1634.9899 660.6192
1632.5366 662.859
1629.4396 662.515
1627.4087 664.6962
1630.4602 666.8968
1634.6758 665.67865
1634.2405 668.7477
1636.6293 670.7836
1638.8234 672.7573
1633.7429 672.7095
1630.7339 670.91473
1627.5835 672.12744
1621.9294 672.8101
1620.5002 669.87744
1624.4075 670.79736
1626.727 668.14954
1624.3599 665.1231
1622.8093 667.42834
1619.8579 666.5116
1617.1608 666.1053
1617.0157 669.3392
1617.4958 672.6265
1613.9484 672.0417
1613.1772 669.0706
1614.53 666.9866
1610.692 669.9097
1609.3159 666.5676
1611.7852 665.8504
1612.6433 662.5453
1614.7017 664.46185
1615.4421 662.39655
1615.7391 659.71655
1613.7639 657.33514
1612.8954 659.82855
1609.719 659.8519
1606.6631 657.5972
1606.401 660.5287
1607.0797 662.9285
1609.941 663.07367
1607.0405 665.43536
1606.2716 669.06067
1608.5381 669.3713
1610.5879 673.00757
1607.2207 672.42633
1604.0498 671.8276
1600.1804 672.0084
1602.481 668.87726
1599.3423 667.9264
1601.95 665.38086
1604.8446 666.7612
1604.0195 663.46265
1602.7025 661.4025
1603.9663 658.6521
1601.0151 659.43286
1599.5913 662.09106
1598.6154 665.06964
1596.4769 663.28125
1594.5896 661.56116
1591.2308 662.1977
1594.312 666.29456
1596.5951 669.6797
1594.5745 672.7459
1591.7859 670.13654
1587.8579 672.0224
1583.3889 672.5439
1580.0776 671.20276
1577.0403 673.5273
1576.9534 670.49384
1573.868 671.25806
1571.0905 672.0945
1567.9644 672.50397
1569.6924 668.7387
1566.5089 669.7867
1564.5902 672.3763
1562.8699 669.91064
1564.3154 666.9468
1561.4426 667.6164
1561.4233 672.3232
1558.8947 672.5516
1556.1257 673.55383
1553.7991 672.3338
1553.8424 670.1594
1551.9982 668.7992
1549.7004 667.67694
1547.893 665.97516
1545.1843 665.9878
1543.9835 663.0739
1543.2161 660.55975
1541.1523 661.61346
1542.4545 664.64307
1539.9633 665.768
1539.0737 669.62665
1542.4309 667.54034
1542.7216 670.18604
1546.2274 668.8728
1549.9397 670.31903
1550.9663 673.0997
1547.7843 671.9751
1544.9 672.38324
1540.761 672.8263
1536.1326 672.07574
1533.9222 668.6938
1530.4343 667.52985
1530.9624 671.9598
1400.8285 776.27405
1396.4076 774.4638
1395.4132 778.16254
1390.3624 777.5892
1391.0398 773.9251
1386.259 776.21466
1382.7614 780.73895
1382.188 776.64325
1382.5065 773.0979
1379.2555 773.53754
1377.4938 776.0009
1372.3606 780.9464
1370.1979 783.2308
1363.9525 779.9159
1362.8922 774.99304
1359.3685 774.5863
1358.6436 771.20087
1355.0924 771.484
1354.0376 767.85547
1355.3384 762.1858
1357.0658 766.0834
1359.3171 768.1862
1360.5303 764.6093
1364.0443 764.8874
1367.0946 764.2252
1362.6677 767.8344
1362.2275 771.42883
1365.7692 772.59644
1365.5446 769.6395
1367.0696 767.4865
1370.5507 766.0276
1374.1075 767.51556
1370.2653 769.7236
1371.9349 773.09625
1368.7504 773.3381
1366.2311 776.84863
1369.1749 778.2049
1373.3461 776.09564
1375.3666 771.84814
1378.1154 768.7274
1381.4882 769.95276
1384.4442 768.779
1386.1315 772.3374
1389.0487 769.72974
1394.3835 770.9021
1400.3938 771.45166
1527.1868 670.45996
1525.894 665.23004
1529.569 664.24786
1528.386 660.90717
1525.7021 659.4826
1526.3285 655.4456
1529.7888 654.3166
1528.873 656.9799
1531.2968 657.93964
1531.7184 660.73364
1533.0636 663.2116
1535.504 663.90436
1536.884 666.9194
1538.6031 663.2566
1538.56 660.4813
1536.444 659.5771
1534.3787 658.2421
1532.795 655.0996
1535.9062 654.3403
1538.0227 656.12006
1541.0137 654.5421
1540.5951 658.1054
1543.5616 657.4361
1545.0302 654.6801
1548.9188 654.88324
1552.2334 653.9764
1554.9829 655.3705
1551.9646 656.8345
1550.8633 659.0543
1554.5536 659.1055
1552.8003 661.96155
1550.0984 661.61633
1547.862 660.11084
1547.237 657.265
1545.3779 659.8284
1546.2422 662.91986
1548.5428 663.41345
1550.9078 664.93866
1553.6904 667.12054
1556.7524 670.9826
1559.1433 669.318
1556.1362 668.5645
1556.6526 666.18365
1553.4255 664.90137
1555.3071 663.6066
1556.4497 661.1306
1559.743 661.75824
1558.1522 663.7364
1559.4116 666.0793
1562.1138 664.2899
1562.8213 660.9481
1562.0197 657.43744
1559.2491 659.034
1557.3344 657.18524
1558.9327 654.5421
1563.5706 654.7807
1567.131 655.5348
1566.1677 659.5997
1565.8824 663.3888
1567.3141 666.4832
1569.9038 664.566
1572.5309 667.87335
1573.5001 664.6736
1573.489 661.12427
1569.9142 661.33356
1570.2035 658.0128
1571.3163 654.70404
1576.2258 654.58777
1574.1521 657.3141
1576.5825 660.3888
1578.2015 657.602
1580.2129 654.6227
1581.2358 657.71014
1579.7601 661.0548
1581.8527 662.8586
1580.2048 664.9178
1576.9067 664.00775
1575.9232 667.5952
1579.3545 667.61993
1582.927 668.6986
1583.6672 665.11725
1585.8514 667.8289
1588.8672 667.93445
1590.7477 665.21277
1586.9093 664.29156
1587.6876 661.52295
1583.9877 661.3127
1583.5513 658.2226
1584.0312 654.75726
1589.3389 652.24567
1587.5845 655.44946
1586.1658 658.5646
1589.4644 658.5549
1591.8779 655.57935
1595.6069 653.85236
1595.452 649.6726
1592.5907 651.41144
1589.2366 647.5347
1592.7655 646.572
1597.3765 646.53094
1597.3331 643.8153
1597.4546 640.5711
1593.5381 642.69946
1589.5076 642.04126
1590.1243 637.39014
1589.0464 633.6525
1590.8583 630.1274
1588.5791 628.52594
1590.8069 626.28455
1593.4618 627.8507
1595.6316 629.9124
1595.6694 632.8657
1592.6853 632.25574
1594.0387 635.4989
1593.9467 638.9825
1597.6312 637.20624
1598.1663 634.19324
1600.7726 635.4315
1601.1152 631.50604
1598.3059 631.29614
1596.342 627.0972
1599.3474 628.83405
1601.1455 627.0167
1598.6451 625.6526
1596.6393 623.95544
1597.2092 621.2864
1597.7498 618.5088
1594.7734 619.70715
1594.4175 622.16583
1593.7385 624.76263
1591.8989 620.48456
1592.8428 617.9055
1590.1145 618.3506
1588.7234 620.53326
1588.6405 624.0989
1591.269 622.9838
" />
</g></g></svg>
