<?xml version="1.0" encoding="UTF-8" standalone="no"?>
<!-- Created for Inkscape (http://www.inkscape.org/) -->

<svg
   xmlns:dc="http://purl.org/dc/elements/1.1/"
   xmlns:cc="http://creativecommons.org/ns#"
   xmlns:rdf="http://www.w3.org/1999/02/22-rdf-syntax-ns#"
   xmlns:svg="http://www.w3.org/2000/svg"
   xmlns="http://www.w3.org/2000/svg"
   xmlns:sodipodi="http://sodipodi.sourceforge.net/DTD/sodipodi-0.dtd"
   xmlns:inkscape="http://www.inkscape.org/namespaces/inkscape"
   width="3200"
   height="800"
   id="svg2985"
   version="1.1"
   inkscape:version="0.48.1 r9760">
  <defs
     id="defs2987" />
  <sodipodi:namedview
     id="base"
     pagecolor="#ffffff"
     bordercolor="#666666"
     borderopacity="1.0"
     inkscape:pageopacity="0.0"
     inkscape:pageshadow="2"
     inkscape:zoom="0.35"
     inkscape:cx="1600"
     inkscape:cy="400"
     inkscape:document-units="px"
     inkscape:current-layer="layer1"
     showgrid="false"  />
  <metadata
     id="metadata2990">
    <rdf:RDF>
      <cc:Work
         rdf:about="">
        <dc:format>image/svg+xml</dc:format>
        <dc:type
           rdf:resource="http://purl.org/dc/dcmitype/StillImage" />
        <dc:title />
      </cc:Work>
    </rdf:RDF>
  </metadata>
  <g
     inkscape:label="Layer 1"
     inkscape:groupmode="layer"
     id="layer1"> 
     <g>
<path style="fill:none;stroke:black;stroke-width:2px;stroke-linejoin:round;stroke-linecap:round;" d="M 
1616.0155 215.63469
1613.4299 213.82307
1610.8047 212.2134
1608.5366 213.85294
1607.4094 216.4456
1609.8374 218.5157
1610.641 215.6096
1613.2329 217.0991
1615.7456 219.07544
1612.9288 220.23627
1610.29 221.49977
1612.1395 223.72089
1615.224 223.026
1618.6044 223.56886
1621.4348 223.90407
1617.7251 221.37694
1618.9304 219.3775
1618.697 216.66455
1621.4287 218.27011
1621.3219 220.99634
1623.2563 222.661
1624.7264 220.83217
1624.1669 218.15909
1625.1871 214.8515
1626.9108 212.50258
1628.7034 216.48541
1626.9957 218.4891
1627.1693 221.63391
1625.5726 223.79538
1629.3043 223.85706
1629.5314 220.75574
1631.7981 218.28192
1634.4569 220.26768
1631.94 221.5408
1633.3352 223.63034
1636.0358 222.80458
1638.2971 224.28368
1638.6888 222.20341
1640.1974 220.28441
1641.5681 222.04584
1641.4141 224.14821
1644.1149 223.62927
1646.4087 222.70035
1647.0173 219.42332
1649.1245 221.22354
1649.1964 224.04108
1652.8481 222.98009
1651.6768 220.02293
1656.2847 219.91586
1656.5349 223.38393
1660.45 222.81331
1661.9517 219.95409
1662.6703 216.14157
1659.1785 218.00984
1656.8821 215.03964
1660.0645 213.88255
1662.4741 211.5482
1659.1056 210.34042
1655.7468 211.08113
1653.2307 214.37852
1653.5416 217.6193
1649.4321 217.08955
1649.4331 213.90527
1652.3672 210.76752
1649.5028 210.37129
1646.5271 209.45584
1644.0852 210.34308
1647.2229 211.47409
1645.6616 212.83855
1645.98 215.20116
1645.2673 217.72954
1643.962 220.58337
1642.06 218.50583
1643.1036 216.08769
1640.6492 215.40863
1642.9014 213.05193
1640.1163 212.70761
1641.2654 210.09653
1638.1246 210.86926
1635.395 210.23012
1637.5283 214.6726
1639.155 217.73262
1637.3083 219.73073
1635.5573 217.48048
1634.3634 215.22116
1633.9391 212.49355
1631.4604 215.13814
1629.7471 212.83232
1631.1066 210.19804
1626.1907 210.00648
1622.7046 211.11557
1622.17 215.45271
1620.1769 213.47287
1618.9373 210.18173
1617.3712 213.06836
1615.3989 210.93628
1612.7109 210.12994
1609.0111 209.65532
1607.3529 211.45427
1604.7871 210.11783
1603.4806 212.4025
1605.6956 213.82465
1603.8141 216.11046
1605.6665 218.6181
1607.1858 220.818
1608.2407 223.57211
1604.8713 223.79237
1603.4768 221.5043
1602.7063 218.92862
1601.5769 214.44998
1598.788 212.88777
1600.7937 211.73784
1600.7319 209.80714
1596.6248 210.67107
1591.7751 211.85692
1583.4313 190.07181
1584.9038 187.80885
1584.5546 184.87013
1581.7188 183.50443
1579.2096 182.66896
1579.2441 180.18393
1576.8707 179.11165
1579.7059 177.72037
1580.7643 175.63309
1583.428 174.92781
1584.6343 177.90273
1582.0371 179.85927
1584.7662 181.52216
1588.0068 175.61568
1589.8818 173.4617
1585.46 173.56093
1587.1173 171.55951
1589.6747 170.99632
1592.6001 173.07188
1591.7466 175.9159
1595.6453 175.90822
1599.4801 175.55524
1598.198 173.19142
1600.1184 169.6316
1601.2673 171.90233
1603.1167 173.449
1602.2994 176.00111
1605.1167 175.64372
1606.6421 173.15576
1605.3739 170.66066
1607.8126 167.64557
1605.4963 165.01866
1610.4482 165.7555
1613.6017 166.09586
1616.1598 167.58147
1618.2556 169.79391
1612.5732 169.68732
1609.1984 170.6267
1610.3416 173.56796
1608.3712 176.00333
1612.9342 175.54109
1614.6771 172.47148
1617.4863 175.56117
1619.053 172.82185
1622.5099 168.17415
1622.2808 171.31892
1622.3519 175.54773
1625.277 172.97652
1627.4224 175.66978
1632.2786 175.04247
1636.3442 175.01733
1639.9675 175.48587
1643.1625 174.35786
1646.1187 174.7235
1648.9448 173.83655
1651.8889 173.06987
1654.9781 171.73837
1652.725 169.76382
1651.3018 167.32567
1647.6666 168.0677
1649.4924 170.5628
1645.9517 171.45526
1642.72 170.40851
1639.9069 172.13022
1638.6313 168.67133
1641.2388 167.2617
1644.6193 168.02628
1643.8568 165.69508
1642.168 163.97612
1645.036 163.20105
1646.8201 164.79276
1649.4832 164.76772
1652.262 164.11597
1655.1068 163.03664
1655.8508 160.13808
1659.0156 160.39578
1658.3542 163.22035
1657.6185 166.08435
1654.6372 166.10509
1655.4019 168.6673
1657.6245 169.56866
1659.7372 168.11977
1660.7058 165.41107
1661.921 162.36928
1663.082 159.14748
1660.5381 157.9546
1661.2092 154.6318
1664.1313 155.35393
1663.6034 151.9288
1663.6627 148.10632
1662.6768 144.58186
1660.468 143.28204
1657.9412 144.3374
1654.9237 144.56012
1654.0186 141.74568
1656.4766 141.4184
1658.8423 140.88835
1661.8027 140.24446
1659.0764 137.77002
1656.1853 138.54425
1654.1697 136.80324
1652.8392 139.30583
1650.1758 138.37569
1651.1091 142.29788
1652.3019 146.15599
1652.96 149.77327
1655.6698 148.6545
1657.8483 147.36328
1660.4795 147.4382
1661.231 150.46475
1658.4933 151.79433
1655.5701 153.31732
1657.8768 156.20901
1654.3861 157.56471
1652.1876 152.69434
1651.9799 155.69559
1649.6372 158.09784
1651.9205 160.82253
1648.4702 161.54176
1646.1385 159.92944
1643.8717 161.39078
1641.8235 160.96646
1640.2285 162.5672
1639.4558 165.11945
1636.8165 164.72095
1637.8604 161.72679
1634.2733 162.37328
1632.4531 165.03445
1634.9119 167.4093
1636.0869 171.20854
1632.589 170.57951
1629.317 172.162
1626.4491 169.7103
1626.1694 166.54187
1629.9246 167.51834
1630.3069 162.45692
1627.241 163.37415
1624.0864 162.0308
1623.0121 164.77332
1619.5057 166.13681
1620.031 162.5135
1616.409 163.12958
1612.5852 162.53116
1608.3053 162.66919
1604.1372 161.86769
1602.1444 163.5172
1599.1091 161.99763
1598.0876 164.64886
1600.1963 165.19128
1602.1605 166.7727
1603.8607 168.61432
1598.2769 167.7734
1596.7501 170.6673
1595.1539 173.30844
1593.8228 170.51485
1592.9746 168.07996
1595.4844 167.86139
1593.7334 165.3483
1596.0469 165.11449
1595.5671 162.31046
1592.5059 162.1496
1587.8158 161.55508
1586.3071 163.71507
1589.7516 163.11061
1591.5702 164.82413
1590.8354 167.44153
1591.1147 169.77975
1589.2427 166.01527
1586.6833 166.1467
1587.5555 168.60664
1584.2003 169.7329
1583.5592 165.27078
1581.4155 162.18108
1579.6277 159.79991
1584.3522 161.24153
1584.5359 157.50142
1581.0757 157.62329
1581.3547 154.30864
1580.532 150.90315
1584.5164 153.20721
1585.0427 149.19052
1582.6672 148.21532
1580.2126 147.53032
1577.8118 147.0151
1580.5879 143.95024
1579.4539 140.58948
1584.3131 144.60645
1584.364 140.52496
1588.7788 115.714745
1590.9321 113.00482
1588.6572 109.08254
1585.0009 106.88364
1586.8469 104.589195
1585.0819 101.252365
1583.7644 98.027084
1583.0854 94.94263
1579.0441 93.504364
1576.085 90.90135
1578.21 86.51852
1578.8123 89.456535
1582.6552 91.622086
1582.0792 88.29979
1583.0198 85.11835
1581.7896 81.56606
1580.6171 84.14007
1577.8848 83.10029
1578.562 80.27599
1575.3667 76.93475
1575.9055 74.33064
1577.5322 72.35098
1579.6824 70.491325
1582.7886 70.65544
1582.5989 74.058205
1580.3196 74.796036
1578.3071 76.88949
1581.2704 78.34721
1583.8135 80.65141
1584.5261 78.192024
1583.6019 76.46452
1585.5276 74.59705
1584.4744 72.46828
1587.4557 72.67271
1586.583 70.78652
1589.9536 69.90299
1588.2611 68.235176
1589.1143 65.22152
1591.8804 63.28447
1595.0864 59.426273
1594.5728 63.920727
1592.0544 67.21146
1595.5063 66.83299
1597.4125 63.93044
1596.9612 60.798916
1599.4486 61.172993
1600.1133 63.578667
1599.0732 66.299576
1602.1641 64.4016
1602.8064 66.1068
1606.0781 65.66625
1607.1401 63.32062
1607.8098 60.481968
1606.9167 57.63062
1605.4292 55.296093
1604.1277 58.66377
1605.0254 61.30411
1603.1627 62.600323
1601.7129 60.032303
1600.1274 58.120895
1598.2671 56.707634
1596.1511 56.24169
1593.321 56.567677
1590.3328 54.392906
1593.1794 53.391712
1595.999 53.246414
1598.4517 52.709137
1600.4915 55.01692
1602.8859 56.15067
1601.2246 52.585068
1603.8044 52.580116
1606.6489 53.095165
1608.728 52.60669
1610.6226 54.65147
1609.2524 56.61971
1610.5216 60.061127
1613.3196 59.918888
1615.1592 61.682617
1615.6475 64.164
1614.2345 66.66846
1612.4359 63.152546
1609.6338 64.41291
1611.5579 66.73519
1611.7544 70.09948
1614.7208 70.278885
1617.1403 72.91292
1612.5071 73.86048
1612.2994 78.37453
1615.7062 76.76919
1620.3423 80.10293
1619.7151 76.59819
1620.6769 73.130585
1617.8657 69.30476
1617.1377 66.677826
1618.3944 63.84688
1620.5405 66.17241
1620.7681 69.50536
1624.6079 65.84063
1622.7693 63.649593
1622.7144 60.083603
1620.6106 59.294903
1620.3937 62.24169
1617.6422 60.762314
1618.8131 58.294426
1615.3768 58.304466
1612.4443 57.28578
1613.8608 55.213528
1612.8656 53.159863
1611.1814 51.955696
1614.9231 52.269737
1616.6621 55.230316
1617.3336 57.356773
1617.5833 52.75512
1620.4822 52.753162
1620.2468 56.273674
1622.4048 54.98107
1624.6361 52.9444
1624.6042 56.74075
1625.1646 60.41834
1626.1149 63.248627
1628.375 65.94279
1629.2673 63.48194
1628.6729 60.601635
1627.0964 58.051384
1629.0658 56.44219
1627.9635 52.8937
1630.7979 54.38638
1633.485 56.288067
1631.885 59.04904
1636.0608 58.978058
1635.5466 61.996483
1632.1213 61.971645
1631.8427 65.26612
1634.3674 64.96758
1636.0757 66.436516
1637.517 64.85966
1640.0034 66.05246
1642.0482 64.01762
1639.0032 62.69287
1639.7997 60.08894
1642.8577 61.711857
1645.0833 65.19333
1642.6675 66.462654
1642.5559 68.84898
1644.811 68.53879
1647.3169 68.43318
1650.243 69.10079
1648.3291 71.67861
1645.6747 71.398315
1648.3796 74.66309
1650.4414 76.74135
1652.1346 78.783394
1651.5339 81.52545
1653.7788 81.41592
1656.0781 80.507126
1657.8462 78.6254
1658.4102 82.98827
1655.7296 83.22948
1653.3679 84.68464
1656.6201 85.73591
1658.8939 87.66965
1655.9578 88.98402
1653.4622 87.93734
1653.6992 92.1502
1655.8059 95.18254
1653.2001 96.86093
1651.4755 100.0821
1648.9213 101.66227
1650.3055 103.47569
1654.2083 100.47377
1656.6952 100.46772
1659.1001 98.959015
1658.4829 103.360634
1656.6306 106.12548
1653.9309 103.82446
1653.1422 107.05687
1656.1832 108.72686
1654.6343 110.34514
1652.5652 110.33843
1650.3984 110.0694
1649.8555 108.0536
1650.0911 105.715416
1646.9474 107.086136
1646.4446 104.27605
1643.3016 106.08927
1644.4739 109.0404
1641.6239 109.65047
1639.595 106.53217
1638.6062 109.736946
1636.3296 111.14623
1635.5562 106.828674
1633.2897 110.175064
1630.3611 110.26425
1631.8982 106.24582
1629.1459 103.950485
1626.3048 102.311714
1623.0568 102.80229
1621.0292 101.27663
1625.0431 99.56571
1622.8716 97.93007
1623.0701 94.44159
1619.9756 98.31816
1619.8958 95.58718
1620.562 92.67732
1621.5925 90.107796
1620.9485 87.02997
1618.4601 90.07831
1617.4358 87.41593
1620.1078 83.94954
1616.7192 81.133316
1612.6733 82.48366
1615.829 84.92983
1612.5927 87.024376
1614.9463 90.126945
1617.3541 92.79856
1616.0187 94.8552
1612.6687 91.94617
1613.3812 95.73447
1614.1411 99.13781
1616.9087 97.70117
1616.4086 100.80802
1618.6505 100.53163
1619.5317 104.24515
1617.5946 103.233345
1614.7886 102.60133
1616.1143 105.43488
1618.0199 106.75433
1617.7026 109.344734
1619.711 108.46044
1621.025 105.77795
1623.2417 106.246155
1625.7091 105.4899
1628.1981 107.61401
1625.1852 109.06981
1622.1449 108.943565
1620.8439 111.05035
1620.0548 112.68403
1622.8126 114.57738
1624.0792 111.9564
1627.6288 112.05641
1625.7507 115.603226
1628.3035 116.71654
1629.349 118.92495
1631.8928 118.51919
1630.7888 114.46158
1634.103 113.69981
1637.6346 114.62104
1640.6853 113.14903
1642.2874 116.25296
1639.7803 117.32016
1636.9283 117.957375
1634.2714 116.72819
1634.6025 120.04809
1637.697 120.387
1640.3461 120.30707
1642.7482 119.4948
1645.583 120.00093
1645.2987 117.6701
1648.8883 118.5187
1652.4379 116.747444
1650.0146 115.65312
1647.3264 115.90406
1644.546 114.74585
1644.1914 112.075035
1647.2854 110.190475
1647.3784 113.13929
1649.8137 112.38188
1651.895 113.51544
1653.9698 113.34147
1655.2705 115.11579
1656.3159 112.47525
1658.6062 112.217964
1658.057 110.07002
1659.7998 108.68391
1660.2855 106.36876
1662.0078 104.31924
1662.0903 100.84609
1662.8813 97.02379
1662.7651 93.27579
1659.1862 95.45799
1657.4941 92.006905
1660.0305 90.36312
1663.1974 89.83361
1663.4552 86.11532
1660.5422 85.857445
1661.5203 83.360565
1662.6504 81.37934
1659.8237 80.640854
1661.2837 78.46164
1659.4976 76.16185
1658.022 73.27043
1656.2876 75.27598
1654.7971 77.81867
1653.3289 74.92852
1650.904 73.043625
1653.2413 71.40161
1656.1117 70.909256
1653.6952 68.15875
1651.097 65.80914
1647.8184 65.221436
1645.9241 61.460033
1649.061 62.525963
1652.0763 62.055386
1654.5504 63.717834
1656.262 61.548885
1658.1034 59.997894
1658.1582 63.63057
1660.8884 63.26412
1662.4209 61.329006
1663.2267 58.53379
1660.5139 58.83607
1660.0559 55.89584
1662.3721 55.89366
1663.6583 53.532383
1661.3871 53.070312
1659.0359 51.991978
1658.3837 54.035225
1656.6337 55.356274
1657.8549 57.46174
1654.1086 59.51871
1654.9877 57.098827
1653.971 54.993813
1655.3953 52.430397
1652.1821 54.058548
1650.7119 52.0729
1645.508 52.33554
1647.5735 54.0628
1649.5994 55.62854
1651.7528 57.642635
1649.3015 59.35766
1646.4741 57.695988
1643.1378 58.585102
1643.7806 55.42336
1641.7716 53.092228
1638.7667 52.865578
1639.8838 56.912704
1636.9435 55.700306
1635.4094 52.853554
1632.3271 52.441154
1630.0934 21.536198
1626.9418 21.192331
1624.8113 19.699476
1623.0404 21.883944
1622.4514 18.666733
1625.1039 16.933155
1620.4833 17.574556
1619.9844 21.20427
1616.3953 22.018198
1613.4441 20.323483
1616.278 19.380274
1618.4905 18.620516
1619.0037 15.264703
1621.9202 15.195734
1624.3123 14.229738
1627.3119 14.466382
1627.9308 17.67716
1630.5924 18.725813
1633.7826 21.23438
1635.7942 18.467186
1632.7437 16.94763
1635.5691 15.243833
1638.6085 14.78969
1639.7339 18.13229
1637.9022 21.310123
1641.7831 21.223871
1644.0225 18.872322
1645.783 21.510683
1647.9493 18.691833
1649.4352 21.781189
1651.2532 19.862127
1653.855 21.469622
1657.4133 22.583755
1656.9735 20.965946
1656.5193 18.876156
1655.5262 16.342482
1653.6519 18.236885
1650.9678 16.725025
1652.9489 14.345469
1655.7278 13.586395
1655.1741 11.268508
1658.4575 10.278149
1659.0046 12.468548
1657.9518 14.574442
1658.4891 16.979952
1660.7809 18.02117
1659.2227 19.907661
1660.6902 22.105848
1661.74 20.280785
1663.1389 19.387423
1662.8457 17.203959
1662.6703 15.27261
1660.5087 15.454571
1661.2554 13.000139
1663.336 12.943644
1662.0923 10.267354
1660.7972 7.960781
1657.5381 7.8906817
1654.8851 8.42343
1652.1654 7.567913
1652.2279 10.445758
1650.5189 12.638047
1649.3702 8.493419
1647.7196 11.356697
1648.3494 15.034561
1645.3315 16.237566
1644.9808 12.774758
1642.065 15.422064
1641.2987 11.873965
1646.1378 8.420079
1643.035 8.67783
1639.4001 8.534351
1637.1243 11.58299
1635.6571 7.873473
1633.6704 9.666737
1629.7317 8.005972
1631.1837 10.998397
1633.4458 13.184523
1630.4092 14.756469
1628.7444 11.663838
1626.2029 11.010392
1624.7646 8.0976715
1622.8204 11.318397
1619.6693 12.257952
1620.0195 8.484309
1615.6538 7.7113132
1616.1967 10.25515
1616.462 13.134909
1613.5122 13.140476
1612.3597 10.819049
1612.1757 8.186287
1608.9409 7.501481
1609.4191 10.161633
1610.1655 12.943403
1611.1855 15.590511
1616.4294 16.224073
1613.7478 16.493647
1610.4136 18.738857
1609.6111 21.697119
1604.1755 21.348713
1606.2954 18.863914
1608.2803 16.392843
1607.6368 13.851136
1606.7881 11.640104
1606.7783 9.02383
1604.854 7.8815956
1602.2378 7.7322216
1599.1353 8.171801
1596.4249 8.375057
1593.4875 7.5041046
1591.1934 8.922028
1588.7798 7.9798226
1586.6165 9.271208
1584.0991 8.899708
1585.4973 12.679621
1587.9341 13.722875
1583.2556 14.405312
1580.5137 14.92037
1577.4753 14.775957
1575.8243 11.819955
1579.3416 12.028845
1582.3586 11.324378
1582.1158 7.2914124
1580.1301 8.876137
1577.3318 8.665126
1574.388 7.6433516
1572.4545 9.008072
1571.6504 11.447155
1573.0189 13.959716
1569.3408 13.361438
1566.6156 15.188298
1563.0209 15.759
1559.69 15.97296
1564.6595 11.921802
1568.4475 9.036385
1564.6935 8.352699
1561.1166 8.26831
1560.6376 11.73186
1557.1909 12.216795
1557.557 8.309641
1554.3298 9.230484
1551.2455 7.7935724
1550.4489 10.7125845
1553.7432 13.029278
1550.6785 14.346003
1552.9268 17.83935
1549.8142 17.245646
1549.1769 19.760538
1546.8984 16.350773
1544.3915 18.01541
1541.3365 17.5539
1536.8789 17.475924
1541.8601 14.160884
1544.4977 13.053194
1547.4711 12.359274
1547.0127 8.406007
1543.4418 9.073985
1540.232 9.149872
1534.5139 8.108591
1532.4274 10.779173
1537.2455 9.759219
1538.6519 13.920842
1535.2338 13.212679
1532.8811 15.346095
1533.102 18.272068
1534.1182 21.568352
1537.6772 21.397078
1539.7393 19.721992
1542.4655 21.358498
1546.0062 21.012474
1549.0737 22.23607
1552.2258 21.271858
1555.3539 21.30268
1555.707 15.795511
1557.0929 18.532583
1559.0676 20.990734
1562.321 20.669619
1565.151 19.171041
1567.1931 21.754734
1568.5586 19.052832
1570.1506 16.672745
1574.2119 15.865217
1573.4509 18.159075
1571.5732 19.664019
1570.9768 21.87578
1574.2655 22.509293
1574.1581 20.614426
1576.3679 19.940247
1576.4446 17.405394
1578.9749 17.947298
1581.5016 17.829865
1584.3436 17.40216
1587.2639 17.096518
1589.605 19.313257
1590.1968 15.853633
1590.1981 11.783085
1592.5793 14.997352
1594.1646 12.992069
1593.7517 10.26498
1596.8116 11.643719
1598.8472 14.316333
1599.7283 11.553357
1601.5283 10.01027
1604.0573 11.148571
1602.0729 13.926489
1604.9102 15.055411
1602.0776 17.737564
1600.0634 21.552687
1596.4623 21.806728
1598.7932 19.077747
1597.9028 16.495043
1595.1184 16.171415
1595.5469 19.069258
1592.3638 18.42297
1593.9279 21.11761
1591.762 21.663252
1588.7576 21.863005
1586.2622 20.657806
1583.5544 21.032312
1580.9106 21.33027
1578.7767 20.432974
1577.4894 22.264072
1587.1913 55.23304
1586.4594 58.393887
1590.0614 57.843372
1592.3315 60.14627
1589.0065 61.378273
1586.1079 61.99811
1583.3458 60.480427
1583.4117 57.02757
1580.1223 59.60311
1583.2754 64.09386
1585.9247 65.37514
1585.1398 68.33315
1581.7698 67.313934
1580.4698 63.449947
1577.4027 63.170143
1577.966 66.46816
1575.4587 68.50042
1573.7095 71.45484
1573.224 74.98131
1572.8018 78.071625
1575.4998 79.67413
1574.5265 82.46353
1572.1436 81.32533
1572.4563 85.27173
1575.4299 85.44341
1573.3523 88.699326
1573.5173 92.75133
1574.4308 95.83503
1579.9274 97.39797
1581.3218 100.720436
1582.3457 103.84081
1578.3159 101.92997
1576.8596 97.84058
1574.9747 100.7323
1575.6246 104.63938
1577.2408 108.56403
1578.5825 105.52153
1581.3247 106.39534
1582.8574 108.78533
1579.8834 108.91671
1578.9696 111.92002
1581.5416 114.03912
1582.1542 111.334816
1585.4138 110.40105
1586.432 113.13181
1584.1084 115.78735
1581.8484 137.50839
1576.3748 138.12708
1574.4866 141.69609
1576.7031 144.17627
1574.0282 146.88762
1576.0294 149.27666
1574.2356 152.15439
1577.6036 152.11037
1577.9259 155.21101
1574.4316 155.80348
1576.7288 158.11378
1577.2999 160.91335
1573.8009 159.24782
1574.6295 161.9462
1571.6359 162.83917
1568.5281 162.98064
1565.1865 163.28227
1562.0037 162.86972
1558.0532 162.68292
1555.605 165.45192
1553.608 162.0693
1551.564 164.66791
1551.3578 168.99152
1552.8169 172.0041
1552.8945 175.47424
1557.7229 174.79042
1563.6348 175.70473
1565.568 172.56508
1567.2393 169.82222
1561.6095 172.8944
1559.0566 170.35187
1555.7524 169.15562
1560.1395 166.31943
1563.4144 168.42357
1566.984 166.56734
1571.2803 166.13475
1570.3989 168.89929
1573.7072 169.56198
1576.6931 167.98373
1574.6417 165.28566
1577.5762 163.53333
1579.5065 165.46785
1581.712 167.69292
1579.4996 169.87236
1581.072 172.49498
1576.6106 172.3447
1572.5704 172.96297
1569.5591 172.17339
1568.7152 175.47563
1573.4309 175.66733
1577.1653 175.69112
1574.3501 178.44176
1573.8926 181.41678
1576.4342 182.06906
1574.4353 184.52281
1577.7865 185.05893
1581.1473 186.8528
1577.6097 187.81451
1574.2627 187.47021
1574.988 190.15984
1577.7605 191.009
1580.3689 190.11658
1588.4255 213.24382
1590.5785 215.46097
1593.4316 217.59935
1593.6724 215.22736
1593.946 212.71117
1596.3917 213.62209
1596.2463 216.34871
1599.0217 215.63211
1600.4429 217.79457
1597.5267 218.46954
1597.4119 221.11328
1600.2455 221.18796
1600.9828 224.22668
1597.5586 223.78714
1596.6686 226.04308
1594.4546 225.20267
1592.4954 223.9267
1594.0946 222.05588
1594.8046 219.79279
1591.1984 218.88312
1590.6853 221.75893
1589.5175 224.05629
1585.6727 221.49979
1588.3351 219.75964
1587.4669 216.69661
1584.9786 214.98491
1584.9344 218.97177
1582.8624 217.99767
1581.5085 216.49646
1580.0427 219.73892
1577.5483 222.0675
1579.2902 224.69731
1582.5288 221.97145
1581.927 224.74948
1582.6381 227.95425
1583.2211 230.87514
1585.1313 229.95396
1585.6487 227.32286
1584.3983 225.16154
1586.9546 223.43654
1587.8895 225.95108
1588.0647 228.17549
1590.4089 228.02531
1591.1704 225.94519
1593.0056 227.51668
1589.5189 230.25337
1587.2914 230.29758
1586.3906 232.70778
1584.4207 234.72708
1581.1261 231.43782
1581.0388 233.755
1583.6368 238.20299
1583.8622 241.98637
1584.4875 246.44606
1582.1132 245.02887
1581.0707 241.74936
1579.232 244.54628
1577.4513 242.80472
1577.8862 240.56319
1579.9543 238.61131
1580.8018 236.13142
1577.9698 234.7912
1577.5441 231.92308
1578.0896 229.38402
1579.9008 227.69597
1575.8701 225.69351
1574.1863 228.75943
1574.1277 231.59975
1572.7238 233.58379
1575.3148 234.89224
1572.6155 236.30765
1571.926 239.61057
1574.2229 237.70888
1576.8787 237.84122
1574.6997 240.11784
1573.9897 242.15102
1572.7953 244.05206
1575.3483 244.61552
1577.8169 246.51683
1580.6958 247.37787
1581.2034 249.92825
1581.331 253.45291
1579.432 251.5206
1576.7356 250.75229
1578.094 248.92467
1575.3739 247.48532
1573.438 248.36893
1574.447 251.17924
1577.1542 253.45729
1576.8416 256.04688
1579.8479 255.94653
1579.8027 259.1576
1582.2417 261.68912
1583.0288 257.53693
1585.8666 256.25955
1584.0532 253.38097
1583.6128 249.39426
1585.998 251.2677
1588.4417 255.14615
1588.2709 259.74866
1585.6511 260.84155
1584.991 264.39542
1587.9292 266.07126
1590.4652 263.63593
1591.0908 259.02234
1593.9976 262.45865
1593.832 266.91403
1597.404 265.25702
1602.25 268.31653
1598.9167 268.51645
1596.9268 270.6069
1595.8718 273.2973
1593.203 270.64087
1589.8065 269.19577
1585.3927 269.671
1581.2225 269.85602
1577.1855 269.29596
1574.2549 271.15622
1574.6158 274.9935
1573.6846 278.78348
1577.2472 280.98932
1580.9995 278.05066
1577.7114 277.0699
1577.7583 272.63147
1580.7313 274.0278
1583.8845 273.02023
1587.8115 273.17212
1585.1725 276.63065
1583.0131 280.95596
1587.3315 280.44156
1589.8513 277.2479
1591.6031 273.93497
1596.0159 275.71124
1593.8398 277.90225
1591.5266 281.00327
1595.6062 280.88828
1598.7412 281.06165
1601.482 280.42136
1598.5453 277.42065
1600.4067 272.8355
1604.4764 270.90665
1606.5521 267.94748
1610.9102 267.77396
1608.9614 270.2761
1609.73 274.0482
1607.0764 273.2696
1604.0905 274.34503
1601.9625 276.72852
1604.2974 280.55878
1606.2543 277.3413
1609.9229 276.7529
1613.117 275.33936
1616.2096 278.3743
1619.1472 278.45853
1621.5558 277.3136
1626.3324 276.7055
1629.0015 276.15698
1627.8209 273.7177
1626.2095 271.87848
1623.2888 271.99
1623.897 275.23355
1620.5457 274.25027
1620.8734 270.77408
1618.1785 272.51425
1617.1146 275.5771
1615.0466 273.13376
1611.7937 272.0671
1613.4626 270.13724
1616.2194 270.3579
1614.437 267.7658
1617.3064 267.3229
1618.4398 269.389
1620.409 267.95673
1622.772 267.33286
1624.239 269.03168
1626.8467 268.17505
1629.4226 268.57913
1633.1205 267.5609
1636.4819 268.98245
1637.5236 267.2438
1640.6583 267.86206
1639.1178 270.60776
1640.4452 272.87143
1639.0309 275.61484
1637.1614 278.26547
1639.5605 279.19016
1641.7642 277.05222
1642.9453 275.06668
1644.0851 272.89514
1645.8662 270.81335
1642.5739 270.08347
1644.3037 267.68442
1647.3937 267.9509
1650.2645 267.85953
1653.3734 267.38275
1654.7103 269.44376
1656.9644 267.9364
1659.6819 267.76865
1662.6842 268.76025
1660.8387 270.20145
1662.54 272.92493
1661.5618 276.21487
1661.5864 279.9383
1658.2683 281.1976
1657.8185 277.98892
1657.425 274.51343
1659.595 272.53516
1657.0485 270.9404
1653.9739 272.7767
1651.8943 270.1666
1648.676 270.721
1650.5381 273.1486
1654.3018 276.41614
1653.9993 280.57938
1650.1201 280.45013
1650.7344 276.6502
1647.2451 274.52267
1646.3279 277.68542
1646.8259 281.0735
1643.7534 281.32266
1642.9084 279.0769
1640.489 281.61377
1637.0928 281.37207
1633.6807 281.81427
1634.7048 279.53543
1635.7836 275.9465
1633.5145 277.18005
1631.6654 275.34454
1633.5299 273.3562
1636.7977 273.5158
1635.9594 271.31424
1633.5878 270.21707
1631.1154 270.332
1630.2194 272.6486
1630.4509 278.13254
1631.9198 279.88565
1630.0232 281.6506
1627.9854 279.519
1626.129 281.6856
1624.5985 279.1657
1622.1938 281.039
1618.7303 281.32986
1615.2842 281.24725
1613.1919 278.3804
1611.7755 281.3354
1609.5747 279.416
1607.4119 281.29822
1606.6342 307.51178
1601.9153 308.06836
1600.1587 310.54364
1596.3699 309.5004
1597.5886 312.0391
1602.1008 313.1381
1603.288 318.23215
1600.275 315.5715
1597.4583 316.92664
1596.1412 314.2727
1592.9426 311.82108
1593.1445 315.6549
1590.1605 316.40253
1589.6178 313.10275
1586.1835 314.2978
1587.5968 316.26422
1591.7566 319.46118
1595.0836 318.48718
1594.8397 321.1927
1593.8163 323.62576
1590.7053 323.19983
1588.8818 320.66806
1586.3209 319.42682
1584.6078 316.8043
1582.571 318.6875
1582.0938 321.4976
1585.1552 322.25626
1583.8627 324.94366
1582.983 327.56403
1586.1786 328.26477
1588.2825 331.07693
1589.3494 328.19055
1587.539 324.68677
1591.2822 325.96054
1592.6808 327.969
1595.3739 325.6983
1597.8198 323.36304
1599.0579 319.46317
1600.7002 322.1614
1603.6124 322.05783
1606.4823 320.7595
1609.9591 320.6848
1613.3062 321.83408
1613.1555 319.87604
1611.9539 317.39606
1614.9803 316.64194
1614.1049 313.52945
1614.199 308.6058
1611.4203 310.93616
1610.9048 314.44888
1608.0946 317.68164
1607.6631 314.34628
1604.7065 315.02948
1604.5873 310.71823
1608.1349 310.81842
1611.1284 307.0927
1617.3273 306.9576
1621.6128 307.40335
1625.2798 307.86035
1625.5126 311.56784
1622.2522 311.59628
1619.4106 310.3038
1616.3243 310.926
1617.637 313.37747
1619.9875 313.7523
1617.2178 315.73514
1615.6602 318.8895
1616.8661 320.79483
1620.0149 320.64435
1618.851 318.45126
1620.196 316.61276
1622.3115 314.9313
1625.0564 315.0612
1622.9246 317.99188
1623.3428 320.91794
1628.1104 321.31735
1626.1274 318.95117
1628.0226 315.59412
1630.6208 318.72183
1632.1486 321.87094
1635.13 321.5651
1637.3325 319.19772
1639.7101 320.72244
1640.6857 323.0612
1637.4833 323.677
1640.524 325.97906
1642.7919 324.56152
1644.9302 324.23767
1642.8807 321.2888
1645.3826 321.7922
1647.6957 323.55164
1650.6595 324.0733
1649.9297 321.55948
1649.7855 319.12555
1647.3608 320.14615
1646.593 316.965
1644.9817 318.98486
1642.5831 318.54507
1640.2085 317.57874
1637.5256 315.91187
1634.2322 317.8548
1634.4843 314.42316
1631.3818 315.08423
1629.5605 311.78873
1628.7593 308.0518
1632.1615 308.48975
1633.6527 311.37344
1636.0332 309.19064
1639.164 310.64862
1637.0792 312.61304
1640.2975 314.32092
1642.0841 311.79105
1643.324 315.6798
1644.9811 313.21118
1647.8641 314.6167
1650.3058 316.72037
1653.0808 319.00125
1653.2512 321.60162
1655.9648 322.69458
1653.7037 324.74002
1653.391 328.24875
1655.3883 327.00693
1657.7367 325.52356
1657.3558 328.62723
1659.8503 328.8732
1659.488 331.6149
1660.946 333.857
1660.713 337.1829
1662.7528 336.30988
1663.7959 340.15164
1661.5017 339.8114
1661.6536 343.01215
1663.5599 344.6758
1663.8286 347.7593
1661.1774 346.48126
1658.9707 347.27234
1656.8958 345.70404
1658.5732 343.70383
1659.0668 341.43613
1658.5349 339.08517
1658.1534 336.62128
1656.7917 334.89108
1655.8665 340.03235
1654.546 337.1087
1652.8264 334.03668
1656.2329 332.77805
1655.281 330.63052
1652.0701 330.87582
1651.2849 327.14923
1648.832 327.10663
1646.4498 326.37363
1643.675 327.53305
1646.1982 329.9362
1649.0853 330.5752
1649.217 333.82852
1650.9833 336.9538
1652.4897 339.74942
1652.2161 342.68613
1655.4047 342.8926
1653.4962 345.714
1652.9991 348.8139
1656.45 348.91516
1656.6719 352.26947
1659.7761 351.40936
1661.2549 349.42596
1663.9896 350.96677
1662.8168 353.783
1663.6719 356.99664
1660.9598 356.8655
1658.8782 354.51776
1653.4695 351.97247
1652.3052 354.86148
1651.5598 358.1678
1654.7618 359.45605
1656.8295 361.50717
1655.2278 355.8759
1657.7689 357.7479
1659.741 359.76187
1662.4791 360.6886
1662.2297 364.84198
1660.7429 363.73172
1659.2699 362.25766
1657.9344 364.69498
1656.1545 366.3371
1659.8246 367.15915
1659.657 370.03226
1658.1741 372.22626
1656.4844 369.40945
1653.7009 370.172
1652.902 372.77792
1656.1006 373.75665
1655.2036 376.12122
1653.6255 378.32495
1651.1531 379.32602
1651.7767 375.84265
1649.3722 373.3915
1648.3245 376.27643
1647.9205 378.87158
1649.2412 381.5611
1646.763 383.49707
1645.8763 380.34775
1644.0173 382.3753
1643.6775 385.0688
1640.5886 386.6627
1638.155 386.10367
1636.6924 387.65656
1634.6573 388.26712
1632.9302 387.56393
1629.8262 389.78183
1630.6938 387.82117
1628.9333 385.70502
1631.8757 384.84024
1635.2272 384.9081
1636.1755 381.6173
1638.4475 383.30338
1641.1217 384.29614
1641.1001 381.47
1642.7059 379.05478
1638.7472 379.4773
1638.1937 376.41226
1641.4912 375.34857
1644.8071 376.73682
1645.2485 373.55856
1646.3927 370.56305
1649.5319 370.14984
1651.3616 368.29373
1653.565 366.78482
1651.7551 364.2778
1654.5188 363.23782
1651.496 361.0705
1648.5857 363.0534
1648.9937 366.30762
1645.475 367.40076
1642.0879 370.86035
1638.2495 372.47958
1634.9717 374.5784
1631.5103 374.2913
1631.1934 377.63004
1634.6401 378.49103
1633.3818 381.91064
1630.8826 381.66168
1628.825 379.5738
1626.1589 378.9242
1627.7251 375.43948
1624.1409 375.56055
1623.2506 378.40256
1621.469 380.3497
1619.5474 382.89536
1618.2013 379.75278
1619.9177 377.3329
1620.3684 374.96814
1616.4255 376.02838
1612.9353 375.81244
1611.4069 378.74017
1609.0388 382.2393
1608.5875 379.72614
1608.1511 376.83795
1609.6819 374.81805
1605.6356 374.73862
1602.6448 373.99072
1603.1958 377.81622
1605.7822 378.79733
1603.2689 381.28912
1600.2115 380.4724
1604.116 384.92444
1605.9854 382.23758
1607.2324 385.18448
1610.1495 384.56723
1612.4565 385.86758
1612.3695 382.08057
1614.7694 379.33902
1616.0773 382.2531
1617.7307 384.92355
1622.6138 386.57245
1621.8501 384.79205
1622.644 382.64694
1625.1349 381.9296
1628.1547 382.82635
1625.6547 384.76797
1624.1399 387.9333
1626.2673 387.01926
1627.6858 388.70493
1625.0208 389.879
1621.8208 389.37903
1619.0754 389.61783
1619.3359 387.0121
1614.6658 384.57135
1615.3766 387.06866
1616.4153 388.78638
1616.2917 390.64343
1613.5054 389.4754
1611.4515 388.7097
1609.4248 387.21866
1608.1914 389.23303
1605.7069 387.82047
1602.7278 387.67206
1594.785 416.23605
1592.0477 415.46542
1589.9452 413.8272
1587.4281 412.50482
1585.9635 416.27798
1588.7734 417.28806
1589.6082 420.49097
1592.4645 418.59402
1592.9619 421.4367
1595.8625 422.0626
1596.4958 418.59286
1599.5605 419.45688
1601.6929 421.55627
1599.0923 423.37387
1597.3737 425.06
1602.5188 424.4881
1601.1621 427.58768
1597.8308 428.09796
1595.083 426.30264
1591.7639 423.96646
1592.3699 426.8491
1593.7964 429.908
1597.9291 431.34088
1600.8391 433.66623
1604.6997 435.28436
1603.8856 430.55936
1607.9548 429.7369
1605.4221 426.44043
1605.4586 422.99127
1609.6079 426.04468
1613.3411 428.46106
1616.3223 431.2815
1611.2303 432.06198
1608.8036 435.3124
1613.6929 435.5094
1615.4198 439.72992
1612.145 438.82498
1608.332 439.07812
1612.0187 442.07794
1614.7275 442.5973
1616.3258 444.8166
1617.5719 442.1372
1618.9742 444.11786
1619.1078 446.70093
1621.647 447.63205
1621.425 444.51053
1624.1448 445.13412
1623.9667 442.8279
1624.9447 440.95703
1625.7186 438.5936
1622.5088 438.99448
1620.51 436.82132
1621.1002 441.68683
1619.0953 439.96024
1617.2906 437.69833
1617.4375 434.62494
1620.6543 432.99786
1624.0054 435.44022
1628.0969 437.11588
1628.7902 440.22195
1632.7139 440.4034
1630.5264 442.6347
1627.3749 443.5455
1629.8816 445.81442
1633.0198 446.62512
1633.0621 443.74185
1636.7246 442.84778
1635.3762 445.11456
1636.7136 446.97894
1639.031 445.83298
1641.617 446.25842
1640.7778 450.15427
1638.8706 454.25833
1637.1652 451.8262
1638.0151 449.2986
1635.1825 448.72128
1634.5325 451.08932
1632.8646 449.08923
1630.6163 448.45987
1627.939 449.04697
1626.8809 446.56604
1624.4832 447.57578
1623.9679 449.80255
1626.2744 451.02475
1628.446 452.68015
1629.8978 451.33038
1631.894 451.2767
1631.2661 454.56497
1633.3082 453.44305
1635.7886 454.2889
1634.8734 456.72308
1638.3392 457.9365
1641.4962 456.36667
1642.058 453.24396
1644.6868 451.83795
1644.2258 448.4292
1647.5803 450.0425
1650.4017 453.55847
1651.1295 455.8816
1653.4312 455.73257
1655.101 453.8948
1656.01 456.39008
1654.4089 458.15143
1656.7892 459.4787
1658.992 458.91916
1658.199 456.51233
1657.9097 454.34747
1656.653 451.97647
1659.3081 452.27383
1658.7052 449.4281
1657.8441 446.45328
1654.6035 447.06702
1654.9248 449.92795
1653.0214 452.73126
1651.1879 450.6766
1651.4526 447.6728
1650.9644 444.372
1654.5703 444.2152
1651.9421 441.7743
1651.1713 439.532
1650.8407 436.85925
1651.7227 434.1477
1651.2247 430.78244
1652.9121 427.8979
1651.7471 424.4173
1657.1018 428.1508
1656.15 424.50986
1658.2777 421.4556
1654.6317 420.04465
1651.1637 419.7873
1652.526 415.4953
1651.5515 411.56445
1653.5476 408.72144
1656.3411 412.51007
1657.1304 408.6894
1660.3943 408.6629
1661.7816 410.75986
1659.5764 413.5229
1662.7834 414.09427
1661.1062 416.76578
1657.1523 416.9576
1661.407 419.88284
1661.4268 423.80643
1660.7844 427.17004
1662.2085 430.50168
1658.8717 431.64713
1655.1713 431.4173
1655.1028 434.6419
1653.6742 437.59958
1654.6731 440.88
1657.1482 442.2677
1659.1007 439.60233
1656.4513 438.3861
1658.2137 435.58575
1661.4789 434.20837
1661.5175 437.48856
1661.8057 440.94763
1659.4448 443.69266
1662.2242 443.98492
1661.4409 447.05017
1662.0261 449.78558
1661.8345 452.03745
1662.212 454.0857
1660.6572 455.1109
1660.2351 456.83896
1663.1172 457.0422
1661.5625 458.30225
1661.3843 460.37067
1662.075 462.60025
1661.2772 465.05237
1658.7091 465.00168
1658.5413 462.00235
1656.6971 464.38306
1655.1049 462.9169
1654.3204 460.59912
1652.1555 463.14417
1651.146 460.81546
1651.7435 458.29718
1648.5815 459.2485
1648.4951 456.53146
1647.9204 453.08386
1645.7347 455.16675
1644.2552 457.483
1641.4917 460.15207
1645.515 459.92657
1644.8274 462.9065
1648.1781 462.35828
1648.9565 465.0349
1652.0967 465.94168
1654.9521 466.3217
1658.4031 467.07782
1656.3492 490.87552
1660.6467 491.52414
1662.4307 494.6327
1662.8059 498.4353
1659.7544 497.62823
1658.6633 494.5544
1656.1777 493.43213
1656.3137 497.70322
1657.0227 500.80017
1660.2063 501.03528
1662.9337 502.4782
1660.6669 504.44247
1657.1593 504.53412
1654.1359 503.08972
1650.405 501.42932
1647.7651 503.2059
1651.1552 504.88864
1653.6099 558.23737
1657.9608 559.61444
1661.5627 559.73944
1661.4062 562.86316
1663.0906 565.2577
1658.5688 564.14526
1655.9249 562.53394
1654.7109 560.0778
1652.825 562.38544
1653.2915 564.7814
1655.6791 565.8364
1658.3003 567.3763
1661.4081 567.43243
1662.4956 570.6275
1659.891 572.6149
1659.325 570.19037
1656.3534 569.382
1656.0515 572.3733
1652.2738 572.3013
1653.876 569.515
1652.9801 567.2975
1650.8127 566.2175
1650.6509 564.13184
1649.8597 561.819
1651.3894 559.659
1648.539 558.9825
1646.1182 561.4166
1645.646 563.8132
1648.2292 563.7629
1646.9664 566.3377
1645.8849 568.8103
1648.8992 567.5898
1650.7893 569.46716
1648.6486 571.5043
1645.8547 572.45953
1643.9949 570.9464
1641.1326 572.21204
1637.9088 571.90857
1635.7162 569.54944
1634.7697 572.24554
1632.1575 572.1226
1629.8097 572.5343
1626.6991 598.4915
1620.7146 597.6226
1623.7682 600.55255
1622.9629 606.3405
1625.2881 603.3994
1628.8842 601.70544
1631.3828 599.588
1634.9211 600.2815
1633.0756 603.7272
1630.4188 605.44916
1628.0393 604.95624
1626.3295 607.065
1628.8041 609.507
1631.913 607.7248
1635.3594 607.14575
1638.6013 607.9825
1639.7578 605.11194
1636.5089 603.6834
1638.4297 601.27704
1641.1477 602.3005
1643.5591 603.33105
1646.5717 604.888
1643.3296 606.03687
1641.8152 608.44653
1644.241 610.46844
1646.0454 607.95166
1648.1022 610.94055
1649.5148 607.6148
1652.6587 610.4859
1650.3032 613.1955
1654.5869 614.6343
1656.693 614.0477
1658.2577 618.03265
1659.7261 621.92365
1657.0732 625.1158
1658.7024 627.55176
1661.3608 625.2569
1661.841 628.63544
1662.7941 631.7291
1663.6769 635.1464
1660.746 634.734
1658.2968 635.66974
1661.138 637.77704
1658.8009 639.9357
1656.0844 642.50806
1659.0621 643.52203
1661.373 641.26953
1663.6533 638.7534
1664.5443 641.3144
1663.2637 643.7331
1663.635 647.3174
1661.1262 649.364
1660.5747 645.98676
1656.929 646.8593
1652.6578 647.37354
1652.9824 643.9657
1653.0807 639.8877
1656.537 638.471
1654.3074 636.4757
1656.5055 633.8554
1659.0945 631.4731
1656.0527 629.2424
1654.6375 632.11383
1652.2944 634.8583
1651.7039 631.6125
1652.2338 629.1864
1649.8549 625.7594
1653.2958 626.55
1654.5398 623.7413
1655.908 621.1064
1654.1177 618.3844
1651.7615 615.51874
1650.638 618.8408
1651.5142 622.36945
1647.3782 621.75183
1647.2391 618.209
1643.1519 617.7324
1647.1765 615.19635
1644.9 613.4869
1641.8497 614.0517
1638.5004 615.068
1640.1124 611.4626
1636.8265 610.82245
1634.8308 613.3871
1632.9025 610.3933
1630.9061 612.8485
1626.9603 612.0734
1624.355 609.18665
1623.3704 611.8773
1620.8254 610.49945
1617.1876 611.7401
1614.4902 609.87256
1611.3181 611.9542
1611.0525 608.54895
1612.5251 605.2474
1615.5105 604.3075
1616.543 607.01764
1618.9459 608.5128
1620.9019 604.87317
1618.49 603.58685
1619.8896 600.75653
1615.0938 597.9483
1615.256 601.1365
1610.2417 602.2452
1610.244 598.46405
1605.9133 599.1442
1605.7699 603.0802
1608.1067 606.60706
1603.941 606.2077
1604.5447 609.334
1607.3888 611.5085
1603.4761 613.0672
1599.52 614.0238
1596.6637 615.5543
1593.5004 616.89355
1594.3556 614.2747
1591.2878 613.3564
1594.8058 611.9751
1596.0837 609.4874
1598.3373 611.1729
1601.2917 610.30963
1600.0466 607.43164
1600.8483 603.9639
1602.129 600.1666
1598.3429 600.30853
1596.9375 603.07153
1597.0175 606.431
1593.5887 607.3232
1592.2988 610.07086
1589.3691 611.0634
1587.482 612.70245
1587.123 615.118
1586.1729 617.52277
1584.6458 619.28375
1583.1053 621.7976
1580.4417 622.7082
1582.2378 624.44257
1583.6802 625.98584
1585.2319 624.1787
1585.7042 621.5568
1587.8174 620.1571
1589.0287 618.0777
1590.2859 615.8463
1591.6001 618.87756
1589.8739 621.3774
1587.6517 622.9866
1586.997 625.5393
1585.2668 628.0771
1583.429 632.30347
1581.8857 635.03815
1582.6943 638.48773
1582.293 642.07904
1584.2114 645.37634
1584.3943 648.88354
1582.1185 646.6481
1579.4637 644.8705
1576.6234 647.4236
1579.685 648.61505
1578.4066 652.16394
1579.3965 656.0325
1582.3008 654.80426
1581.4106 651.1769
1583.9357 652.0734
1586.4546 651.6724
1586.6741 654.49854
1588.1829 656.95544
1590.948 658.2314
1588.2661 660.2034
1585.7466 662.13257
1584.0386 660.19574
1584.6821 657.44867
1581.2568 658.8091
1582.2053 662.41296
1585.7319 665.4375
1588.3452 663.4189
1591.2014 661.7666
1593.6582 660.21655
1593.6177 663.44037
1596.3391 661.91846
1599.2172 663.2946
1599.204 666.50977
1602.1875 664.59094
1606.2489 665.75604
1609.8369 666.37366
1607.9634 669.3092
1610.4999 672.16095
1608.2109 672.7381
1603.6349 675.5205
1608.0193 675.8054
1611.8384 677.3333
1612.8082 674.7529
1616.1859 676.6671
1616.6206 680.3046
1619.677 677.7593
1621.3362 680.5317
1623.1561 677.1477
1625.2526 679.7897
1626.9569 676.6785
1625.1495 674.00555
1623.1709 671.4223
1621.933 674.1052
1619.1957 674.2408
1617.9951 671.56995
1615.588 672.4139
1613.4241 671.2185
1611.6155 669.1298
1613.8007 666.97516
1617.0774 667.3312
1619.9144 669.3768
1621.5146 666.41235
1623.871 668.9397
1625.5588 666.66266
1628.1718 665.8718
1627.4683 670.04083
1628.5328 673.2207
1632.2637 671.8709
1630.9159 669.48016
1630.4878 666.7787
1632.719 664.9567
1635.9406 664.691
1639.1267 662.5986
1642.1604 661.9239
1645.3992 663.67395
1644.2927 668.9639
1647.0366 670.5498
1649.3906 668.8234
1646.8451 666.55005
1647.8154 660.05194
1644.3911 660.18665
1645.6808 657.7609
1647.6255 656.0856
1649.7112 655.2401
1652.4675 656.1916
1652.0309 653.5658
1649.6698 652.14996
1652.3744 650.3887
1654.9592 653.19824
1656.5244 650.27045
1659.2627 652.3382
1662.6117 652.7382
1660.553 655.9978
1657.2133 655.545
1654.8177 657.0711
1656.4443 659.64075
1660.2515 659.6216
1657.7832 662.46545
1655.9716 666.10596
1653.8463 663.7529
1651.8158 661.6557
1653.2576 659.4222
1650.2764 658.48444
1648.8213 663.1127
1651.0374 665.9738
1653.0326 669.4214
1649.4672 672.58026
1645.0813 672.8138
1645.2894 675.3749
1641.453 676.34796
1639.2917 673.5298
1641.8593 671.81256
1641.0088 668.4721
1642.5272 665.54913
1638.9006 665.8008
1637.9478 669.37726
1634.4749 668.36035
1635.8462 672.1765
1636.5981 675.69775
1637.3136 678.3425
1633.1418 678.7384
1632.7645 674.9189
1630.0857 676.7336
1628.9949 679.9602
1631.1437 707.63525
1627.6328 708.234
1624.3888 708.72845
1630.2523 711.4105
1633.2476 709.85626
1635.5813 707.5792
1639.6512 707.68536
1637.1702 710.5808
1634.7363 712.55927
1632.1681 714.39
1630.7216 716.5845
1628.2267 717.3751
1625.6516 719.03906
1623.3258 718.26514
1620.6968 718.1682
1618.8724 716.60205
1616.1489 716.29553
1616.2229 713.1529
1619.1041 713.18445
1622.0872 715.1007
1625.9136 715.66455
1627.4648 712.5578
1624.0575 712.58685
1620.8253 710.7923
1620.8005 707.5565
1616.9155 708.4861
1613.9232 711.29956
1613.1001 715.1393
1613.9136 718.5107
1613.333 721.3567
1615.9365 721.704
1617.1548 719.1857
1618.8727 721.4853
1621.2131 720.9619
1623.3043 721.7556
1625.801 721.6474
1628.8452 722.3637
1628.5676 720.0405
1631.5886 720.4725
1634.6509 721.61334
1634.8467 718.47345
1635.7689 715.4713
1638.854 717.609
1638.9414 713.7231
1641.7483 715.4739
1644.2399 716.8983
1641.8662 720.50854
1638.4268 721.3056
1645.1545 721.85266
1645.934 719.0028
1648.4071 716.64075
1649.2542 712.83344
1645.1365 713.1899
1641.0078 711.23596
1643.1812 708.63306
1646.3142 708.9844
1649.6444 707.87964
1651.8657 710.1895
1654.9779 708.1596
1654.7157 712.13367
1658.3065 711.27374
1658.9467 707.8739
1661.9004 709.10126
1661.957 712.16254
1663.4886 714.83185
1661.0796 714.98486
1658.8413 714.52045
1656.3362 715.19403
1653.1439 715.00604
1651.679 717.51953
1648.7644 721.0431
1651.926 721.047
1654.9958 721.4473
1655.5436 718.5789
1658.2203 717.8618
1660.5897 717.967
1663.1558 718.39703
1661.4379 721.0769
1658.4836 721.4516
1657.4229 778.7115
1662.2949 780.4161
1660.133 780.9204
1657.8022 781.1578
1657.1272 783.27014
1654.8947 780.79645
1652.8214 783.27014
1650.737 779.7315
1648.3312 783.27014
1643.5493 783.27014
1641.0588 779.9745
1637.7642 783.27014
1635.0522 780.1233
1632.3225 783.27014
1630.1539 779.9786
1627.447 783.27014
1625.7771 780.07446
1622.9691 783.27014
1621.5413 779.9441
1617.1987 779.9012
1618.8828 783.27014
1615.0591 783.27014
1611.6115 783.27014
1613.0803 779.9904
1609.2556 779.8406
1605.7501 777.13513
1604.1902 775.0533
1604.9644 780.0438
1606.9456 781.57025
1608.4148 783.27014
1605.3859 783.27014
1602.9829 783.27014
1600.1417 783.27014
1601.4814 780.5081
1602.6099 777.78577
1598.5856 779.2093
1596.7637 776.2871
1600.2125 775.2289
1602.7562 772.9298
1605.4702 772.04333
1602.5159 770.0246
1599.791 771.5458
1596.802 772.6385
1599.776 768.2743
1596.8248 768.719
1593.6119 768.3809
1593.5018 771.6938
1593.4352 775.4773
1590.5791 780.0091
1594.4398 779.5631
1596.561 783.27014
1592.5676 783.27014
1588.574 783.27014
1585.0223 783.27014
1586.7661 779.9784
1582.9169 779.96423
1581.5901 783.27014
1578.4963 779.87317
1578.2983 783.27014
1574.8259 783.27014
1573.7404 779.89716
1571.1552 783.27014
1569.2262 779.989
1567.3245 783.27014
1563.461 783.27014
1564.8096 780.07153
1560.8162 780.0167
1559.669 783.27014
1557.2432 780.0727
1555.7399 783.27014
1553.887 781.39435
1551.212 783.27014
1550.5923 781.43976
1544.3866 783.27014
1543.3092 780.72626
1548.7275 779.75024
1553.5258 778.9779
1548.0994 721.43915
1551.1759 720.54114
1553.4941 717.75385
1555.6539 715.0728
1558.8096 717.1119
1555.3904 720.9499
1559.6068 721.0093
1563.1829 719.781
1565.4418 721.3703
1568.3845 721.0846
1572.2041 721.5649
1570.4181 719.3754
1568.2462 717.1347
1572.0328 717.5461
1574.3821 718.8124
1575.5986 721.4563
1578.6619 721.53625
1577.6023 718.9995
1580.664 718.8283
1581.7477 721.53625
1584.8372 720.69507
1583.4373 718.2174
1587.5723 717.3348
1585.3815 715.926
1585.6682 712.33484
1583.3047 713.0492
1581.9773 715.54755
1579.2341 716.671
1576.1666 716.91626
1577.143 714.7025
1579.4028 714.12103
1580.8455 712.0875
1579.411 710.00867
1577.1111 711.9989
1574.903 710.3614
1573.418 712.66705
1574.7114 714.9344
1571.9739 715.22986
1569.9645 713.4869
1568.2393 711.22363
1565.4194 711.0897
1566.0898 715.26263
1562.6029 716.27484
1562.8787 712.72925
1559.1464 712.82947
1554.5754 711.8516
1549.7637 710.66144
1551.0469 714.4783
1548.0428 717.25226
1545.4631 720.2502
1542.723 721.0496
1541.1309 718.3221
1543.8395 716.56006
1546.8928 713.28296
1543.5334 712.6789
1540.7996 713.829
1541.5256 708.8205
1544.4316 709.1572
1547.0138 707.9077
1550.9828 707.5056
1553.9769 708.81006
1556.8744 707.47565
1558.7593 709.3665
1561.9907 708.43365
1565.7068 707.6902
1569.4402 707.79736
1571.5668 710.09937
1573.7249 707.55457
1577.0985 707.96515
1580.5485 707.4404
1583.1202 709.20874
1585.8871 707.5501
1587.6001 709.99695
1590.1846 707.5091
1591.2261 710.3084
1588.6155 713.13135
1590.088 715.2437
1592.516 716.1183
1592.4954 712.9788
1595.4581 714.18567
1598.6348 714.2998
1594.9154 710.6424
1594.1453 707.66986
1597.6991 707.8802
1600.6093 708.3638
1597.8345 711.4737
1600.7036 712.4326
1602.6799 710.6192
1604.2498 707.5708
1605.8131 710.5885
1606.7573 713.34143
1603.1117 713.9945
1600.4166 716.0929
1601.7365 718.4494
1599.5759 718.7664
1597.3157 716.9904
1598.2504 720.4568
1595.9706 720.88916
1595.0182 719.0413
1594.3542 717.0996
1590.5889 718.1861
1588.916 720.4899
1587.1595 721.9897
1592.1046 720.61414
1592.4163 724.26465
1594.4205 722.61725
1597.2216 723.4763
1601.5931 721.0769
1599.9242 723.186
1598.3214 726.19836
1595.0955 726.0384
1593.2401 728.7069
1597.0278 729.2481
1594.5348 731.656
1592.9955 734.44495
1593.8032 738.33075
1596.0598 735.0961
1597.9854 732.4655
1600.6418 731.1925
1600.2169 734.602
1601.9902 736.9306
1600.4712 739.9118
1597.8905 737.6618
1596.9006 741.3455
1593.4225 741.9882
1593.1311 745.4334
1595.1411 747.6084
1592.5447 749.6134
1594.3303 750.65643
1596.0862 751.74817
1597.091 754.175
1596.0559 756.8821
1593.445 754.3481
1593.1083 758.1514
1593.5024 761.9236
1593.0914 765.2383
1595.9304 765.05963
1596.9976 762.2968
1596.0074 759.9042
1599.4221 762.92456
1599.1034 765.44574
1601.8965 763.39923
1602.3325 766.68256
1605.0029 768.9668
1605.4161 766.45276
1604.5905 764.4053
1603.997 762.0699
1605.9927 761.31384
1605.1245 758.4064
1605.4794 756.0815
1602.5676 756.1892
1601.1921 758.45654
1603.1415 759.7902
1600.3418 760.8691
1598.5553 758.9022
1599.3416 756.2031
1600.5299 753.7464
1599.0939 751.5383
1597.7927 748.7772
1596.98 744.9169
1600.4774 743.2702
1600.3674 746.4223
1600.9485 749.01495
1602.6566 750.5363
1602.8788 752.95026
1605.0269 753.79297
1605.48 750.99445
1604.6256 748.0438
1604.1213 745.32965
1604.4498 742.39294
1604.2144 739.6117
1605.5964 737.0771
1604.0862 734.72864
1603.1492 732.047
1605.6815 732.51917
1605.4362 729.285
1602.9242 728.79803
1600.1471 728.43823
1601.5361 725.799
1604.6959 726.3986
1605.6617 724.0888
1603.0073 723.4396
1605.4509 721.6515
1603.9817 719.75037
1603.2732 716.9535
1605.3801 715.7748
1606.0906 718.2766
1607.7599 719.7858
1608.6903 721.7836
1611.0444 721.75116
1610.7634 718.7202
1608.1816 716.5183
1610.3114 715.11005
1610.0881 711.65717
1608.4585 708.0601
1612.5537 708.03613
1612.509 680.1174
1608.4998 679.3152
1604.8441 678.75806
1600.9904 677.93555
1597.5354 676.89545
1594.2944 675.33325
1595.1201 671.55963
1597.4946 673.4579
1600.3839 674.1479
1602.4541 671.7317
1605.4608 672.90424
1604.9891 669.5321
1603.2001 667.31934
1600.5686 669.38873
1597.9823 670.4709
1596.3635 668.179
1596.5544 664.7583
1594.4745 666.34564
1591.9651 666.4118
1593.0817 669.2019
1592.6062 672.68353
1590.1958 673.61053
1587.4958 671.867
1590.1979 669.91565
1590.3754 664.8262
1588.5919 666.8908
1587.2433 669.0508
1584.7432 669.0598
1582.6548 667.69135
1582.8452 665.1252
1579.9651 664.66437
1578.9901 661.80835
1577.9808 659.44836
1575.8081 658.2458
1576.6294 655.76764
1574.7902 653.94745
1574.9307 651.0016
1573.1656 648.38086
1573.705 644.9666
1573.3846 641.5484
1577.4089 642.15906
1578.3049 638.2472
1573.2056 637.3303
1573.4268 632.09753
1576.079 634.8648
1578.7432 632.0312
1583.0745 629.89734
1581.4375 628.0882
1578.6608 628.1491
1575.7799 628.5212
1573.2001 626.87665
1574.6809 623.2249
1577.0957 624.51263
1579.8005 625.357
1578.0981 621.36597
1575.6118 619.76355
1576.7142 617.01965
1578.8052 618.1463
1580.5615 620.04626
1582.4268 618.41797
1580.823 615.96655
1578.314 614.17224
1583.7125 615.2483
1584.4354 612.18085
1580.7968 612.4057
1582.4025 609.73883
1584.2441 607.2894
1586.7806 606.1326
1586.4335 609.4416
1589.8142 608.32214
1589.4772 606.04456
1588.9009 603.48566
1591.5077 604.50256
1594.178 604.2982
1593.5613 601.392
1591.5146 572.5347
1588.8477 572.4706
1593.0891 570.42175
1590.739 569.8101
1588.8103 569.31836
1586.7688 567.93695
1586.9935 570.76843
1586.1636 572.8206
1583.7842 572.70123
1581.9373 572.12213
1579.9241 571.57965
1578.2549 573.13025
1577.5658 570.81793
1574.9507 572.3305
1573.374 569.6794
1575.6461 569.1733
1578.7175 568.1767
1576.5973 566.46027
1573.9143 566.38947
1573.4744 563.22516
1574.9834 560.50696
1576.4049 563.6761
1579.4677 564.32666
1581.3365 566.5431
1581.29 569.4845
1584.5905 570.51715
1583.7742 568.4231
1584.295 565.93616
1586.7762 564.90607
1589.6516 566.0678
1592.3588 564.46533
1592.3718 567.5435
1595.0684 567.05994
1595.2874 564.14496
1594.7501 562.01215
1593.0453 560.5489
1590.6356 562.0039
1587.65 562.31274
1584.7247 560.5932
1583.1345 563.38477
1581.0864 560.79895
1578.0891 560.78613
1580.5869 551.9267
1578.3081 548.88513
1578.1119 545.03015
1575.1948 545.66705
1576.6079 542.10046
1573.6335 541.6662
1572.2705 538.1593
1574.4059 537.4796
1572.7544 534.2743
1573.0966 530.5186
1575.9939 529.7028
1574.4082 526.55835
1577.607 524.6028
1578.3661 527.54144
1581.2191 525.2857
1584.2899 525.29156
1587.0507 525.8294
1586.4938 528.82526
1584.5614 530.499
1582.0469 528.5425
1580.0972 530.4624
1578.0219 531.67413
1575.9982 533.50977
1576.5381 536.6437
1577.906 539.2221
1581.3992 539.601
1579.3114 536.44556
1579.7185 533.8845
1582.4785 532.88275
1585.211 534.2197
1582.4915 536.6999
1585.5409 538.2154
1584.2998 540.3247
1585.0061 542.9998
1586.885 544.8802
1582.1765 542.9117
1579.5854 541.8638
1580.5938 545.5069
1582.9879 546.69855
1583.3896 549.7939
1583.8062 553.65137
1585.8253 556.7605
1588.7972 558.8038
1592.0676 558.17303
1594.2275 556.0569
1590.7092 555.044
1587.5936 554.5475
1587.8765 551.50134
1586.5752 548.3968
1589.6951 547.5165
1591.5558 550.4991
1593.328 552.72235
1595.9501 552.9093
1597.4856 554.96576
1599.9674 555.6423
1601.8652 557.8593
1599.0801 558.5517
1596.7742 557.41534
1595.5308 559.3333
1597.4143 561.1749
1598.6726 563.45514
1597.7576 565.70905
1598.3278 568.4368
1595.7192 569.8556
1594.9744 572.5302
1598.3108 572.01514
1600.9495 570.27496
1602.2534 572.5426
1604.233 569.5699
1606.0421 572.2888
1609.8324 572.2612
1613.591 572.493
1612.208 570.5249
1610.4387 568.751
1607.4991 569.6372
1608.5833 566.53986
1607.8479 563.6921
1604.8206 563.22723
1605.0986 566.38696
1601.4454 567.46
1601.5527 564.7207
1600.1576 561.0575
1602.326 561.74567
1603.9706 560.04877
1605.1548 558.1294
1606.8828 560.67474
1608.7306 558.6036
1609.9946 561.21484
1610.967 563.8528
1612.0767 565.9452
1613.5978 567.6391
1614.9552 569.81824
1616.3844 572.1146
1618.9783 572.68896
1620.3323 571.09174
1617.9097 569.54474
1616.1725 567.2013
1617.7301 563.3533
1614.7915 564.3135
1613.1556 561.6692
1612.0605 558.8642
1615.5837 558.6235
1615.8488 561.0536
1618.6306 560.6285
1620.2441 558.7987
1622.9738 559.73535
1621.8956 562.5125
1620.6062 564.8771
1618.2483 566.1684
1620.6812 568.017
1622.5887 570.67255
1623.479 572.70514
1626.8984 572.4237
1628.8577 570.2041
1630.0208 568.07074
1632.413 569.60297
1634.2274 567.1818
1632.1459 565.913
1634.858 563.44543
1636.9265 566.1347
1638.31 562.32153
1640.1118 565.16125
1638.8721 568.6346
1641.7125 569.2016
1642.6256 566.7929
1644.1545 565.3153
1642.362 562.08594
1644.6322 558.97723
1640.2007 559.2099
1635.7516 559.59015
1632.1396 559.30524
1631.6416 562.5268
1628.7849 559.33154
1628.1943 562.7755
1629.4426 565.203
1626.939 566.9301
1625.8623 570.05414
1623.7461 568.54596
1623.6238 566.0164
1625.1246 563.7462
1625.8608 560.94617
1625.4779 558.4266
1622.5283 505.27112
1623.4794 503.7189
1626.6265 504.81686
1625.1566 502.01398
1622.6855 500.85516
1624.04 497.2594
1625.8984 498.95566
1627.5269 495.92218
1631.7983 496.41608
1629.3153 498.73157
1627.4723 501.09586
1628.6797 503.12958
1630.5178 505.392
1631.4696 503.47437
1634.281 504.40314
1637.9048 505.16107
1641.3506 504.20978
1645.4325 505.07477
1644.0576 502.77054
1641.977 500.23117
1645.3171 500.14618
1647.5784 498.8746
1648.0731 495.85336
1650.2765 497.6223
1652.9451 499.35587
1654.0481 495.9715
1651.5652 494.99252
1653.3433 492.02167
1650.9972 492.57608
1649.865 490.68332
1648.6125 493.13306
1646.1929 491.25153
1645.6433 494.37033
1643.8242 496.92764
1638.9899 499.79755
1638.2562 502.63394
1635.4147 501.68524
1631.2239 501.2269
1632.9609 499.3938
1635.7529 499.03622
1636.3223 496.67914
1639.8667 496.92484
1641.3306 494.34854
1642.9403 491.7802
1639.0 491.1958
1637.6683 493.70523
1634.4475 494.27847
1634.096 491.21115
1630.8047 492.64624
1627.5669 493.17474
1626.3202 491.25272
1622.5747 491.6015
1622.6099 494.9262
1619.1598 493.05844
1615.6998 495.95282
1615.9958 491.88
1611.9901 491.29892
1612.8962 494.26068
1610.4435 495.66275
1609.8174 498.10016
1609.6416 500.74994
1610.0881 502.988
1613.3158 498.96844
1617.9042 498.07962
1620.8551 498.29468
1619.4794 501.61105
1619.7692 504.70117
1616.7681 504.2058
1615.4755 501.49478
1613.2175 503.4666
1611.4434 505.2682
1607.9963 504.56757
1606.0155 501.97873
1605.5018 504.9708
1603.4241 504.31876
1600.9388 504.8335
1598.6685 504.2207
1599.5331 501.69012
1602.3673 502.03033
1599.723 499.1146
1597.4635 497.16718
1600.4153 496.06577
1603.2086 495.83954
1603.3346 499.27417
1606.5627 498.91415
1606.498 495.95764
1608.5571 493.48727
1607.8445 491.09128
1605.022 492.97034
1603.083 491.18613
1600.6506 492.47614
1597.1714 491.17203
1597.8926 493.9494
1594.8799 494.14642
1594.7468 497.40323
1591.1548 496.6147
1591.446 493.77695
1592.7333 491.1526
1587.9805 491.84186
1583.7067 492.4084
1579.8844 495.03036
1578.0876 498.13696
1582.5068 497.12265
1587.1001 495.65738
1585.0735 499.34946
1587.4518 501.48712
1589.5422 499.10648
1593.4891 499.71478
1596.2231 501.18024
1596.4717 504.47067
1594.1542 504.6247
1592.4583 503.59122
1591.4092 501.59747
1590.1554 504.6906
1587.2533 504.38687
1583.6135 504.22128
1581.178 502.17374
1578.016 501.2261
1576.7385 504.49664
1574.2288 501.47165
1554.5155 502.6103
1552.0509 505.77832
1549.2246 504.99997
1545.7836 506.28622
1546.5012 503.07675
1545.3293 500.12308
1542.3611 499.19385
1543.0071 502.9202
1541.5996 505.71472
1539.4373 502.15192
1537.8754 498.2142
1540.1301 497.9344
1538.9471 494.81863
1538.581 491.5681
1542.0203 494.99832
1544.8998 496.48865
1547.002 493.42673
1543.421 492.5349
1541.9108 490.01212
1545.2773 489.8677
1548.5153 490.038
1551.6211 490.90628
1553.9858 493.55283
1550.4452 494.83655
1552.4314 498.02515
1548.2123 497.51654
1549.053 500.67572
1551.9792 501.52377
1555.225 497.6591
1574.1649 497.53827
1573.6497 493.97974
1576.6097 494.53598
1575.6511 491.37943
1579.5906 491.63065
1578.5271 465.4045
1575.0981 464.07993
1574.0322 460.86493
1574.6128 457.21057
1573.8647 453.7029
1577.1965 454.26617
1576.3335 451.23245
1574.0568 449.2734
1574.7656 444.95715
1577.5593 447.70255
1579.7435 450.84393
1580.6494 454.03696
1581.3455 456.9457
1583.6768 457.4152
1583.1362 460.75098
1580.465 460.4382
1578.2087 457.50006
1576.7491 460.2519
1578.5748 462.75092
1581.8767 464.31403
1584.8458 463.54642
1585.5251 460.3686
1585.6978 456.5111
1584.6354 453.49054
1583.9525 450.3818
1581.5585 447.3164
1584.7488 445.46054
1583.0339 440.82382
1584.4015 436.69165
1584.057 432.4054
1579.7975 435.92374
1579.3713 443.65524
1575.9928 440.33572
1575.1229 435.7885
1574.3151 431.77402
1577.8547 431.0762
1577.7063 426.072
1574.1659 426.54587
1574.9509 422.972
1574.9182 419.39157
1574.6829 415.87198
1573.0671 413.30167
1575.5131 411.55597
1577.6123 413.25812
1577.5842 416.87524
1580.1101 418.52182
1578.9302 421.7049
1581.185 425.26013
1581.021 429.68268
1584.707 428.18002
1584.916 424.43588
1589.1084 426.8838
1588.2285 423.43234
1586.071 420.2355
1582.8359 421.19772
1582.9412 417.18777
1580.3961 414.77777
1579.084 410.35464
1581.4939 411.7197
1584.042 413.78516
1584.4614 410.70685
1599.8241 386.63333
1601.4587 383.86502
1598.5653 383.36044
1596.4347 385.46765
1593.3494 384.14996
1591.5339 381.9496
1588.3864 381.26016
1585.27 379.49927
1585.234 377.0756
1582.6274 376.6819
1585.641 374.78912
1587.8035 377.7775
1590.6791 378.6472
1592.7959 376.3909
1594.1282 379.29428
1595.9912 381.6727
1597.8251 378.59634
1600.5879 376.72
1598.2004 374.83752
1595.8842 376.47446
1594.934 374.02036
1600.0454 372.65488
1597.3938 371.7843
1595.6104 369.7802
1594.5311 371.918
1591.8978 373.35577
1589.5809 375.32913
1587.51 373.16296
1589.0532 371.93246
1590.2131 370.53275
1591.8754 369.98947
1593.4135 370.37604
1593.0099 367.88174
1590.4443 368.13214
1590.4126 366.10638
1588.5718 364.79102
1586.8241 362.13885
1585.9534 364.58566
1585.7112 366.7527
1588.1617 368.40106
1586.1938 369.45462
1583.8005 369.73105
1585.4536 371.9821
1583.0322 372.13016
1582.3198 374.3081
1579.9603 374.448
1580.5103 372.05087
1578.4159 370.73508
1576.9469 368.1141
1579.8892 366.7537
1581.1194 369.27774
1583.073 366.99985
1581.9039 364.3669
1583.8663 362.68948
1582.4055 360.61774
1585.5267 359.74368
1585.2756 356.3772
1583.363 358.0363
1580.5851 358.45886
1579.0721 356.21884
1581.233 353.65506
1583.0396 355.46533
1583.498 351.99274
1582.8616 348.73364
1583.5757 345.309
1580.7333 345.92093
1579.8176 350.71976
1578.9011 347.8361
1577.6094 343.8632
1577.6904 340.5759
1580.8103 340.43298
1580.7906 343.20624
1583.6741 342.12436
1583.8201 339.31552
1585.6171 336.99564
1586.4269 333.80444
1583.7214 335.44846
1581.5527 337.09473
1581.5171 333.28207
1584.738 331.6171
1582.1584 330.11545
1580.3177 325.45523
1579.1914 322.30566
1576.7191 326.2477
1578.968 329.46533
1575.4258 330.28207
1574.4875 334.23804
1578.2646 333.73285
1579.0024 337.401
1576.0789 337.6717
1573.0619 337.8626
1572.5605 341.21286
1574.9276 341.85764
1572.9197 345.01062
1575.8799 346.58517
1572.7942 348.50046
1575.9076 350.3738
1577.6914 353.40677
1575.6061 356.89975
1577.3213 359.81015
1579.398 361.9065
1578.2029 364.55942
1575.451 363.93378
1574.1858 360.11774
1573.7291 354.97177
1572.7936 352.53815
" />
</g></g></svg>
