<?xml version="1.0" encoding="UTF-8" standalone="no"?>
<!-- Created for Inkscape (http://www.inkscape.org/) -->

<svg
   xmlns:dc="http://purl.org/dc/elements/1.1/"
   xmlns:cc="http://creativecommons.org/ns#"
   xmlns:rdf="http://www.w3.org/1999/02/22-rdf-syntax-ns#"
   xmlns:svg="http://www.w3.org/2000/svg"
   xmlns="http://www.w3.org/2000/svg"
   xmlns:sodipodi="http://sodipodi.sourceforge.net/DTD/sodipodi-0.dtd"
   xmlns:inkscape="http://www.inkscape.org/namespaces/inkscape"
   width="3200"
   height="800"
   id="svg2985"
   version="1.1"
   inkscape:version="0.48.1 r9760">
  <defs
     id="defs2987" />
  <sodipodi:namedview
     id="base"
     pagecolor="#ffffff"
     bordercolor="#666666"
     borderopacity="1.0"
     inkscape:pageopacity="0.0"
     inkscape:pageshadow="2"
     inkscape:zoom="0.35"
     inkscape:cx="1600"
     inkscape:cy="400"
     inkscape:document-units="px"
     inkscape:current-layer="layer1"
     showgrid="false"  />
  <metadata
     id="metadata2990">
    <rdf:RDF>
      <cc:Work
         rdf:about="">
        <dc:format>image/svg+xml</dc:format>
        <dc:type
           rdf:resource="http://purl.org/dc/dcmitype/StillImage" />
        <dc:title />
      </cc:Work>
    </rdf:RDF>
  </metadata>
  <g
     inkscape:label="Layer 1"
     inkscape:groupmode="layer"
     id="layer1"> 
     <g>
<path style="fill:none;stroke:black;stroke-width:2px;stroke-linejoin:round;stroke-linecap:round;" d="M 
1741.316 690.76
1748.2437 694.44354
1749.2345 701.782
1754.3993 698.45825
1756.8976 692.7004
1763.2228 695.57605
1760.5933 700.88153
1765.7109 703.5632
1760.2966 711.19696
1754.1763 714.485
1752.4111 708.50854
1745.9277 712.45233
1748.8796 715.7256
1746.9818 720.4958
1741.3445 719.03754
1735.6531 713.66504
1740.9899 711.3915
1746.2899 707.2857
1743.2325 703.1324
1739.0106 696.8726
1737.2139 705.3656
1732.4329 707.9225
1726.2727 706.636
1727.8489 712.52295
1730.1204 718.0325
1736.2583 721.2357
1731.0256 724.6174
1735.9663 728.1034
1742.1434 727.2365
1746.8644 726.3942
1751.6367 725.1424
1754.5676 720.8905
1759.1425 717.5573
1763.7959 719.44
1769.5142 720.6509
1767.6124 714.9684
1767.7106 709.79944
1774.423 707.7987
1771.7126 704.4673
1769.6764 699.86096
1773.166 695.3021
1776.5259 700.89514
1780.2109 706.0663
1782.0638 699.1654
1778.247 694.85144
1776.9614 689.90027
1778.6143 685.077
1781.4615 680.4278
1786.1992 676.3044
1790.0402 680.7485
1793.3452 675.1667
1798.4438 675.7507
1795.6199 667.27466
1801.7031 670.7366
1805.6838 666.5387
1811.997 663.9442
1812.9641 658.66565
1809.7175 655.25934
1806.6609 660.1335
1800.6904 661.8108
1794.8969 659.71466
1789.5957 662.38776
1786.5024 657.0011
1790.6841 653.82947
1789.9126 648.0216
1785.3171 650.8606
1780.1614 652.63904
1775.5813 656.88916
1780.906 658.07355
1780.861 662.8902
1785.0492 667.25916
1789.1011 670.7585
1779.555 674.1865
1777.47 668.34467
1770.777 674.18365
1773.0972 680.697
1771.5593 687.4992
1768.5516 694.254
1765.9708 688.7528
1760.5374 686.17017
1764.8959 680.6686
1759.6252 676.09393
1764.0496 670.8443
1765.8967 664.9083
1772.1404 666.1152
1770.5742 659.98254
1762.2712 659.22705
1766.0161 655.33685
1770.8792 652.8418
1773.5785 648.37317
1769.5302 644.245
1772.0459 638.56885
1766.064 638.30554
1763.4464 633.21344
1769.8455 631.27856
1776.2164 634.95667
1777.1359 641.877
1779.258 647.2892
1784.7268 645.10974
1783.526 639.79724
1790.7949 642.77167
1790.1038 637.4642
1782.4358 633.4696
1784.4083 628.47034
1776.2924 628.8885
1775.154 623.8512
1779.4642 618.8144
1781.43 623.7298
1786.3889 621.71545
1790.8464 624.6792
1796.3386 625.8904
1790.5612 631.0396
1797.9249 632.63306
1797.2476 639.44366
1800.8848 645.0301
1795.9269 645.6669
1795.2083 650.0703
1795.9596 654.438
1801.2745 655.3523
1801.8904 649.7844
1806.6444 652.39703
1813.4945 651.86743
1813.2546 646.9474
1807.5549 646.8425
1803.9734 641.8013
1810.081 642.01013
1815.1533 641.9463
1818.8206 645.32153
1819.0883 650.9827
1818.2522 656.18475
1818.3586 661.16547
1818.428 667.4105
1819.9183 673.5837
1815.336 673.76733
1812.7041 669.1956
1808.7426 673.1614
1804.7211 677.2857
1800.1986 681.4189
1795.9219 683.97394
1791.5803 686.20764
1785.5973 685.8468
1783.1494 691.25977
1786.8439 695.5264
1790.2853 691.5258
1795.9607 691.8596
1800.8519 688.29504
1805.2177 684.47516
1809.4254 681.1287
1813.2278 678.2327
1818.5554 679.7156
1818.9907 684.46405
1813.7739 684.8879
1817.7031 688.6796
1819.9762 692.15326
1817.1078 694.1895
1819.8516 698.0453
1814.2009 698.2045
1809.644 696.07385
1813.1147 691.88684
1809.5839 688.1186
1806.0225 691.9482
1801.5385 694.586
1805.1566 699.7118
1810.0111 702.2316
1802.5127 704.27747
1804.0476 709.19867
1809.4154 710.7639
1808.8865 706.6032
1814.3677 705.1845
1817.287 701.449
1820.1742 704.60956
1818.5718 708.60626
1814.185 710.5631
1818.8944 713.3042
1819.6361 718.55835
1818.8601 725.4792
1813.4731 726.1011
1817.9022 732.828
1817.8108 740.04517
1811.1868 732.9273
1807.5029 738.3051
1812.6139 743.68304
1817.8167 748.05646
1817.8278 754.82947
1811.6307 752.81775
1805.4087 752.3001
1806.1594 759.12396
1807.4167 765.33545
1812.5862 761.1285
1818.612 761.0695
1818.3342 767.7846
1813.1746 770.162
1808.3274 771.5406
1817.8833 776.19806
1819.5138 783.06866
1807.5322 783.06866
1807.3008 776.79645
1800.5449 778.1253
1797.2965 783.06866
1793.3501 777.2771
1787.3789 774.9892
1787.26 779.30316
1788.4818 783.06866
1781.1338 783.06866
1782.123 778.8173
1776.6718 779.7843
1776.4083 775.90295
1775.4453 771.2818
1775.3864 766.4517
1776.2002 761.09576
1782.0581 760.6505
1781.7332 766.7905
1780.9597 773.55286
1785.1586 770.5583
1791.0426 769.975
1796.7208 770.9449
1802.4813 770.5562
1800.4907 764.2574
1799.4341 757.12213
1794.2732 762.5852
1788.0942 764.1414
1788.1244 757.60565
1793.2811 753.5797
1799.3002 749.61285
1806.6238 745.6597
1800.6228 742.54
1794.6272 739.35455
1793.677 745.7678
1788.3112 745.20844
1786.9318 750.82965
1781.8601 753.8688
1781.0286 747.5844
1783.8516 742.89276
1779.7935 740.0771
1779.3473 735.55505
1786.1359 738.947
1789.415 736.40674
1793.0023 732.7026
1797.027 728.809
1799.8511 735.5012
1804.1289 731.43567
1801.1079 725.5879
1803.4924 720.9763
1807.614 725.93884
1809.4548 720.01733
1815.3129 719.88574
1813.5022 715.3851
1808.3649 714.6704
1803.887 715.4075
1799.8165 711.68384
1799.139 717.92694
1795.4172 722.14215
1794.5646 716.61786
1790.5077 718.45233
1786.1257 716.00806
1790.666 712.24725
1795.2051 712.5099
1795.931 708.2744
1791.5215 705.2575
1797.0425 703.7648
1798.854 698.7903
1793.2612 698.1594
1788.171 700.4596
1785.5956 704.7617
1787.0005 709.6576
1782.2073 711.74603
1775.3027 712.0564
1773.7279 717.5022
1778.9419 716.01227
1782.6962 719.6164
1782.6897 725.8846
1787.6251 722.6943
1791.8342 726.2249
1787.4999 729.3639
1783.3712 732.56866
1777.5161 728.6908
1777.983 722.1934
1773.0475 724.5947
1770.4673 729.5836
1766.3103 725.55133
1760.8623 725.2385
1756.3835 727.73846
1751.4778 731.75977
1745.9423 734.3146
1740.2305 733.63214
1736.5847 739.24036
1733.8181 734.3218
1729.2623 739.3223
1723.1765 740.62946
1728.9747 746.15717
1723.1437 748.74
1719.8247 744.9339
1714.7347 745.0373
1711.708 740.3025
1712.8528 733.46844
1708.722 735.3223
1705.9528 731.833
1700.9271 733.519
1696.6451 738.7573
1702.4382 742.07025
1705.6411 738.69855
1708.2164 746.5419
1708.4562 753.07697
1716.1311 752.4192
1719.2695 758.9687
1724.2448 765.50146
1727.5044 760.1935
1724.5846 753.95465
1730.6488 754.07654
1734.4856 749.74866
1735.5653 744.9466
1740.6492 750.2464
1736.7196 755.1319
1734.9537 761.1326
1730.7135 767.10535
1737.6412 766.90546
1744.1552 764.559
1749.3229 761.6787
1741.7972 758.30475
1745.7234 752.7333
1748.5203 756.63055
1755.1345 759.29205
1755.5448 754.7367
1751.4244 750.7458
1756.6606 749.3534
1760.7424 751.3272
1761.5756 757.9077
1759.1279 762.81537
1765.9109 755.9741
1764.9753 750.62494
1767.6858 747.50385
1769.4473 743.7428
1766.363 739.77747
1761.6761 737.88934
1761.4989 744.2271
1755.5118 744.0305
1750.0464 744.9388
1745.5919 747.34796
1741.1163 743.1861
1745.0286 740.2534
1750.8018 738.9678
1755.9707 737.70917
1758.7158 732.5718
1764.6378 732.0436
1769.761 735.60236
1774.7207 733.9423
1773.3845 740.424
1776.739 744.20685
1774.3678 748.8978
1776.5417 754.94604
1770.8135 753.4798
1770.5186 759.8325
1765.0275 763.53577
1769.9062 766.0602
1767.1797 770.3268
1769.8094 774.28094
1771.4113 778.5276
1775.2068 783.06866
1769.1836 783.06866
1765.3027 778.6495
1761.7139 783.06866
1758.1284 780.15
1752.4174 783.06866
1754.7179 775.24866
1761.7821 773.6878
1759.7388 768.4061
1753.5564 765.7368
1750.5632 770.45953
1743.0101 771.0699
1747.2078 776.58954
1743.9154 783.06866
1741.0681 779.0019
1737.1285 776.98206
1735.0792 772.46204
1730.9783 778.34796
1735.1562 783.06866
1726.9054 783.06866
1717.928 783.06866
1717.44 777.6079
1707.5592 783.06866
1693.9218 783.06866
1678.5657 782.155
1687.0809 769.2309
1696.2772 767.86993
1706.2603 768.57837
1707.3291 774.54285
1714.0042 772.619
1723.314 775.47595
1724.004 780.17725
1728.1599 773.003
1721.1981 770.6208
1716.3479 765.77277
1710.8164 760.67444
1701.6497 758.7925
1699.7343 752.2465
1699.2046 745.7096
1692.6455 753.32184
1688.0154 750.4841
1682.505 752.1795
1670.7175 749.4366
1677.3254 748.3855
1683.4364 747.9797
1684.6641 743.3776
1692.0225 745.46124
1688.5859 737.11145
1694.8512 729.8824
1698.9364 724.90356
1703.9662 726.83
1710.3048 728.0092
1708.6765 722.6538
1703.3922 720.41156
1699.388 716.9688
1695.2737 720.3623
1692.5071 723.8621
1688.1833 720.2936
1683.2488 717.0471
1688.0532 710.1339
1693.6746 715.2836
1698.8972 711.4615
1704.8276 713.6351
1709.9016 715.4335
1713.3956 719.94775
1715.8624 724.2423
1721.0114 727.04224
1716.804 730.5924
1717.7521 737.18835
1723.5148 734.00684
1728.5487 730.97174
1725.3291 724.0714
1722.9069 717.6019
1717.4813 715.95135
1720.4366 709.7078
1721.9326 700.0045
1721.013 692.6172
1717.6699 685.6371
1711.7825 691.1711
1714.8032 697.1119
1714.3531 703.5074
1712.1802 710.0751
1704.5946 705.1956
1706.4426 697.5584
1697.8594 697.4877
1683.9673 694.36615
1687.0269 688.46686
1696.0835 687.62585
1703.7527 687.9701
1705.8973 680.44824
1711.1599 684.2621
1713.5095 678.76636
1721.7288 677.88184
1727.8705 676.3209
1728.362 682.21173
1724.4248 687.0469
1729.0315 692.1716
1729.4913 701.52844
1732.4413 697.62024
1734.7637 686.5032
1734.5542 678.01337
1731.2692 671.7405
1736.3601 669.17926
1739.9388 674.01807
1740.9923 664.8214
1743.8469 669.0909
1746.1196 673.6489
1741.8358 678.6747
1747.5651 679.47363
1754.2664 681.5767
1752.1151 674.5921
1756.113 669.9284
1759.1361 664.1182
1753.684 659.2608
1752.993 664.55774
1748.8065 667.37164
1746.669 660.6531
1750.7651 653.29504
1756.3342 654.14465
1760.1456 651.6644
1765.2008 649.6278
1763.5815 645.0712
1759.7314 642.1806
1757.2288 636.9534
1757.3125 630.46643
1757.4536 623.96375
1752.4004 627.079
1750.7012 632.6983
1749.3967 637.9516
1754.0352 645.45404
1747.0541 648.0116
1745.2694 642.521
1738.7635 641.8056
1735.1927 637.8558
1730.7595 636.18585
1725.412 637.5221
1728.5852 643.62463
1733.0681 647.18494
1722.6085 644.2554
1721.2482 651.4467
1727.2655 652.11084
1733.2424 655.43695
1739.3408 649.48755
1744.4001 654.0739
1739.8926 658.0386
1734.8453 662.2456
1728.957 663.88947
1724.0188 658.45917
1720.4365 664.18427
1723.8997 670.21936
1717.5842 672.20734
1712.8358 667.6604
1709.8915 673.7366
1699.7316 666.70056
1684.2175 654.70276
1695.0065 642.41003
1698.1865 656.53503
1706.3341 653.3484
1706.4429 661.9624
1712.3928 661.91174
1716.2722 658.5405
1714.3376 653.6168
1715.286 647.99384
1715.4731 641.11066
1712.0374 635.2391
1707.5005 645.46295
1704.0365 638.50195
1697.7196 622.9364
1683.2084 621.5936
1675.0707 610.32306
1697.3353 611.922
1703.8386 615.7065
1709.159 620.2533
1708.3057 627.901
1714.3907 626.5334
1719.4542 628.736
1719.8516 635.6979
1727.7295 631.72595
1725.4867 627.4539
1724.4363 622.12616
1730.399 625.154
1734.3221 622.2874
1738.7185 625.47626
1735.007 630.4833
1742.079 633.3359
1746.6572 627.676
1743.9722 622.945
1738.8141 618.06555
1731.3461 617.44055
1724.3193 615.9872
1717.6892 619.96747
1717.8549 613.7834
1716.5729 608.55237
1708.4409 609.81586
1715.4366 602.8053
1713.5223 593.8792
1708.3534 599.28
1699.8352 600.3729
1690.5973 589.7303
1704.7312 586.5311
1703.5419 579.3642
1699.5009 570.7762
1704.2273 563.4432
1709.4078 568.1993
1712.3164 561.278
1721.7817 559.594
1727.9434 555.24084
1721.9384 551.418
1716.3589 553.7328
1708.4904 552.96814
1698.5531 549.975
1694.4376 557.55286
1698.8394 562.6051
1694.0908 564.9404
1685.8394 563.8775
1669.7709 553.64374
1679.1353 554.454
1688.4308 552.0079
1690.9618 540.93243
1696.4172 532.2916
1706.593 537.56354
1713.5848 538.8578
1709.5813 544.59015
1716.1069 546.74457
1719.8052 541.4389
1726.0676 542.9738
1730.4534 547.0736
1736.4272 545.6862
1735.6748 551.90314
1738.1648 558.0725
1733.0659 557.2747
1729.7273 561.72894
1729.2832 566.05194
1733.5961 570.51495
1731.5504 576.8826
1725.1605 572.0657
1718.1696 568.371
1715.0841 574.5832
1714.6106 581.0644
1709.9808 587.1866
1715.0906 587.2836
1718.896 591.0444
1720.545 583.9117
1723.7603 578.4555
1725.5051 586.81067
1729.6023 592.2556
1723.7937 593.9596
1718.9443 597.94794
1727.1326 599.89386
1723.4028 606.1808
1728.2734 610.8659
1735.582 610.9711
1732.415 605.0486
1740.144 603.12
1734.0457 598.60754
1735.5166 592.955
1741.8103 595.9195
1748.4963 594.4882
1747.3375 601.2074
1754.1278 598.67804
1758.648 601.7855
1762.425 606.20984
1752.4736 605.51697
1753.4674 612.0892
1747.2769 609.2395
1741.5586 609.6227
1744.8691 616.8689
1749.7861 615.69354
1750.4961 621.6939
1754.8368 618.4152
1759.0612 617.4573
1763.3011 621.2136
1763.3162 627.3721
1768.824 624.1267
1772.4236 619.21985
1768.6902 615.9004
1766.1406 611.00714
1768.5479 607.2521
1773.7385 609.50745
1774.6565 614.3321
1780.5986 613.2138
1785.8319 615.4292
1790.8392 617.21826
1795.72 618.1942
1800.4729 613.80005
1800.7058 620.4011
1806.2734 619.60815
1807.284 614.1541
1802.0833 607.677
1793.9225 610.2676
1787.4681 609.12976
1781.7324 607.00336
1780.5051 601.99945
1775.5839 599.3971
1770.7576 596.53064
1764.7698 598.0138
1760.1819 596.201
1755.5769 593.9297
1753.4073 590.07806
1747.9537 588.39044
1742.6454 588.0267
1737.7445 588.3838
1731.5078 584.51373
1737.4541 580.97253
1741.0417 576.16693
1738.981 570.08575
1736.5852 563.7117
1743.3104 561.72595
1746.983 566.0955
1744.1798 570.30133
1747.1014 573.77246
1747.032 579.2024
1744.0472 582.55005
1750.3976 582.44794
1752.8813 585.1808
1756.6456 585.7062
1759.0647 589.5485
1762.4962 591.8757
1766.5388 593.391
1769.9747 590.19995
1769.061 585.8273
1770.8179 580.10297
1774.5001 584.9897
1780.2953 587.41797
1775.9594 592.212
1783.5233 595.773
1789.4039 601.3484
1796.3704 603.3697
1799.9109 597.85675
1799.225 589.7267
1805.3582 592.0274
1812.24 592.36316
1807.62 597.59485
1806.3671 602.9546
1812.3818 604.772
1808.8354 609.0364
1812.5309 614.26776
1812.0182 620.70715
1817.6875 624.6909
1819.6846 638.20776
1818.282 629.29205
1818.8494 620.02893
1816.9202 616.25757
1819.9888 613.19586
1816.2905 611.6734
1815.3472 608.35474
1819.7415 607.64856
1817.5702 603.8392
1819.1637 600.34467
1813.5361 598.8726
1819.0157 595.9458
1817.8547 591.9547
1818.3872 586.8268
1809.129 586.70074
1813.7941 583.0792
1819.0029 579.09283
1813.4736 576.10406
1807.723 579.2434
1803.9437 573.8682
1797.1812 574.79016
1802.4119 583.22736
1795.1382 582.40607
1793.1683 592.9655
1787.1592 590.60944
1787.4136 584.7597
1788.2327 578.50684
1790.7996 572.571
1781.2881 579.8568
1775.4429 578.1572
1779.021 573.2333
1784.5459 570.7122
1784.5999 562.4534
1792.1056 565.66144
1790.996 558.98376
1798.3433 558.8785
1804.481 557.6124
1798.5845 567.446
1804.4138 565.30835
1810.3059 562.394
1810.665 569.88947
1818.4382 571.0172
1817.2026 564.36456
1819.1545 558.1914
1813.5273 556.9395
1812.9165 550.952
1819.0461 550.991
1816.042 545.7723
1818.7693 540.3158
1818.8177 531.234
1819.3816 522.4192
1814.266 523.6919
1812.7048 528.6338
1813.4536 535.17194
1810.4939 540.64526
1802.3169 543.1852
1808.6382 546.29346
1808.0958 553.6358
1803.3256 549.828
1797.2876 550.4753
1790.0837 551.46277
1786.7551 543.5071
1793.2277 543.46625
1790.7407 536.1778
1795.8213 532.79315
1799.522 529.66266
1797.9515 538.6345
1804.7487 535.9003
1806.9983 529.84827
1806.7985 522.278
1802.3833 524.74347
1796.9355 523.74896
1791.353 521.5754
1790.5319 527.56714
1784.5258 528.14325
1783.8103 535.02094
1777.8009 531.32336
1771.8268 535.0147
1778.7474 539.8036
1777.8866 546.4559
1782.8173 553.8147
1776.2842 558.30884
1770.9158 564.08057
1777.915 565.8977
1773.1401 570.6494
1770.0087 574.6167
1765.4547 577.0874
1766.3488 582.4846
1764.2405 587.3501
1760.7366 584.5306
1762.1945 580.216
1758.9764 575.6092
1757.6147 580.8604
1754.2275 578.7262
1750.08 576.6221
1753.4797 573.90765
1752.0693 568.8977
1757.95 569.71967
1762.115 571.7861
1766.6406 570.76764
1763.9067 565.035
1766.7924 557.86707
1772.6792 551.6828
1764.1542 549.54504
1770.1676 543.832
1763.8201 537.51544
1754.8431 538.02374
1756.6285 544.188
1756.3308 551.4272
1758.7301 558.0644
1756.8583 564.3385
1751.0319 560.9265
1749.5933 554.6349
1742.9238 554.4994
1741.8657 547.68005
1748.6124 547.31
1745.5225 539.80743
1738.0405 538.10016
1735.6167 531.96783
1727.2463 532.2616
1718.0112 531.05676
1720.9696 524.8106
1729.1144 520.8042
1741.9855 523.85754
1740.869 517.50183
1734.9946 516.6236
1723.2783 518.2099
1718.4214 513.10004
1716.0184 518.5174
1711.6743 522.07294
1708.4459 526.37836
1702.4952 519.4952
1708.6665 515.64575
1711.7001 510.2704
1716.6575 507.115
1706.5573 504.29
1706.8943 498.3523
1699.088 496.6316
1701.6594 491.38208
1694.4141 492.19193
1690.5623 497.47992
1682.908 500.21072
1683.3918 495.49957
1679.8306 492.16187
1674.835 491.82358
1670.4175 487.8325
1665.7621 489.03403
1669.5231 495.56363
1676.2222 499.00043
1669.9662 501.66037
1663.7559 500.31387
1654.3694 500.92398
1651.8958 504.89896
1658.6367 498.4911
1661.1095 491.38574
1657.4938 484.40518
1663.8378 479.15698
1669.9465 480.3241
1675.0228 484.978
1677.7505 480.2677
1681.2874 486.50577
1685.7452 482.8461
1687.3358 490.524
1691.7883 485.34497
1697.9158 485.88174
1705.4607 487.45065
1712.3989 489.1854
1709.7286 493.89536
1713.6016 500.65112
1718.4661 496.77103
1719.1956 490.80002
1725.9777 493.2737
1733.0996 492.46103
1740.79 491.60895
1751.1371 485.02823
1755.8467 490.05902
1763.2194 495.18118
1755.0054 496.07828
1748.2113 491.19025
1748.2881 497.02432
1743.0234 496.66882
1736.54 497.58997
1729.7996 499.86545
1722.6245 501.474
1725.2524 511.7778
1729.0327 508.8679
1735.7145 509.61276
1740.2305 511.05643
1750.966 508.79294
1757.4297 515.49384
1756.2511 522.9095
1765.4187 515.2783
1778.0508 517.9981
1786.4651 517.1177
1792.5212 512.0229
1799.2029 513.354
1797.896 518.08636
1805.8217 515.73627
1811.7698 518.2878
1818.2938 515.7051
1813.4297 511.89484
1808.6058 509.8804
1812.362 504.99814
1818.5083 508.73846
1818.8048 501.8906
1817.035 495.2253
1818.5984 489.34534
1813.0952 485.8963
1817.5702 481.08276
1817.0698 473.85077
1819.1288 466.87988
1814.1036 464.9427
1810.3916 469.20633
1809.8835 477.12973
1805.2124 482.0287
1801.8107 489.4804
1807.4468 487.59872
1809.8982 493.09738
1812.2333 499.17798
1806.7894 499.40054
1803.167 494.8784
1801.4062 501.06824
1805.5173 505.01663
1802.8618 509.95587
1798.4071 506.92194
1795.7412 502.5942
1796.9526 497.53598
1796.4531 492.50974
1792.3916 489.2381
1787.9215 486.2548
1793.4337 482.4781
1798.3573 484.967
1800.1869 477.74136
1794.1112 475.50232
1790.0939 478.58902
1788.8359 471.93274
1785.9355 467.06967
1786.3533 461.71646
1794.3313 460.6455
1789.0283 456.13232
1786.5239 450.0285
1795.4617 454.3777
1794.4977 449.3657
1797.1658 444.44727
1800.1171 439.24054
1803.552 443.3432
1808.7595 442.24487
1808.2974 448.2205
1802.095 449.03256
1803.0443 454.39938
1800.6743 458.99652
1799.4668 465.12793
1792.3535 466.1978
1795.4524 470.72876
1800.4015 470.7886
1805.1206 471.5586
1805.6814 463.1104
1811.0194 459.73074
1809.5605 454.38068
1813.8037 449.2427
1818.266 459.31302
1817.6934 453.23587
1819.508 445.84836
1814.904 443.53543
1818.8237 436.76846
1813.0979 438.19653
1806.4634 436.27182
1807.1676 429.92267
1813.3647 431.24225
1818.496 427.29703
1817.1411 419.81815
1809.7618 423.87418
1801.1519 431.33902
1796.724 434.49393
1792.6768 438.48514
1790.1786 444.3444
1784.2754 439.3731
1780.8965 445.98016
1775.8647 441.12137
1773.7256 435.33234
1764.635 436.397
1766.6584 443.7382
1772.4023 447.52682
1766.3071 452.4836
1759.4507 454.81778
1755.7832 457.6693
1762.366 460.49948
1770.7803 456.55283
1781.3767 455.304
1776.7136 458.97174
1776.2231 470.67023
1768.0026 479.73593
1776.3842 478.74487
1781.7196 472.4129
1784.7709 476.53986
1784.8232 481.7195
1781.6045 487.1638
1785.4565 491.99185
1790.2816 495.38663
1789.9377 500.69815
1790.9314 505.8796
1784.8378 508.853
1784.0669 499.58954
1779.6925 494.26807
1775.5039 487.1544
1769.4133 489.29596
1763.1118 487.42166
1759.612 482.99484
1755.6226 478.4959
1748.71 478.9366
1743.1743 476.6905
1743.0459 471.08057
1750.1812 471.88657
1757.9055 469.9444
1762.5151 474.08218
1766.1672 467.68063
1758.968 464.15646
1753.0193 466.54535
1752.3667 461.59247
1747.1646 465.29996
1741.5598 465.3214
1736.5092 468.4014
1737.2998 474.32425
1732.2634 472.50293
1728.7803 470.51825
1724.5948 470.36865
1722.8013 465.21982
1720.2688 468.74084
1716.1523 466.6976
1710.7314 466.5105
1708.8091 462.77454
1705.2313 461.46188
1700.1256 462.14362
1702.2416 456.64334
1701.1594 451.44147
1702.7375 446.46527
1707.2263 443.48114
1712.555 444.4098
1715.9434 448.72485
1721.9869 447.75845
1718.1105 455.10397
1708.7307 450.84125
1710.869 456.20258
1713.9199 461.2992
1718.6919 461.40768
1723.2468 460.2478
1724.9836 452.98752
1726.9814 458.09473
1731.8486 458.3352
1727.8254 464.86478
1732.5586 464.79355
1737.3539 461.35117
1737.7104 455.03052
1743.4272 458.8715
1749.0244 457.7404
1750.9426 452.91855
1745.1436 451.73364
1740.4302 449.15225
1737.7996 444.6893
1732.2095 451.4888
1729.8044 445.97342
1724.5049 441.86456
1718.1797 438.8748
1711.2456 435.3105
1706.6733 438.07553
1700.985 439.7689
1702.6039 432.9455
1692.6201 434.15146
1695.2302 443.37604
1693.9141 449.01685
1694.8978 454.7673
1693.9495 460.46216
1688.7611 456.8746
1684.1039 460.2555
1682.0533 455.14627
1686.4644 450.5536
1686.9729 444.93112
1685.0233 437.61655
1685.462 431.31555
1680.2986 428.97977
1679.5276 421.8675
1671.9286 418.67712
1671.5614 425.94254
1672.7207 433.49216
1676.6888 439.29385
1677.5604 446.46588
1678.3704 451.41962
1675.7356 458.4036
1671.1677 451.77814
1668.699 442.58838
1663.2522 434.48718
1660.7023 440.54684
1650.6458 440.7725
1651.6354 432.5367
1649.4641 426.9722
1645.413 421.77872
1646.1007 416.16232
1644.2277 411.43466
1645.8378 406.1282
1646.8835 399.9933
1642.6951 397.86798
1639.7053 393.53186
1636.9763 389.3726
1648.8325 393.65134
1650.9929 387.52176
1644.0774 387.94882
1642.9319 381.95572
1650.1462 380.68573
1644.7747 374.96323
1638.0403 376.48334
1638.8547 368.98895
1645.588 368.8476
1644.8518 363.70218
1640.4355 356.16324
1638.8546 361.74896
1633.479 362.34802
1632.0372 368.7611
1631.0874 375.27734
1635.219 383.21362
1630.3816 389.21225
1632.2921 395.4038
1632.5322 400.98587
1638.0471 398.78726
1639.9006 403.8675
1637.8383 409.75595
1630.3608 404.55145
1631.2927 410.48645
1621.5444 415.79834
1622.3525 424.7009
1611.2717 429.853
1614.8795 435.094
1613.2534 439.1383
1616.1312 444.35132
1627.9968 444.8855
1624.9368 438.0019
1625.0243 431.2549
1632.3328 424.13492
1631.3889 417.058
1638.3293 426.7286
1633.3407 432.3898
1638.8816 434.9273
1635.9016 441.40216
1641.0571 440.52176
1642.7386 447.08932
1638.0543 451.9437
1631.6243 452.24387
1624.7567 453.06058
1620.6316 459.17087
1613.4628 464.5874
1608.5334 474.98654
1616.159 475.9487
1625.1997 465.76254
1629.3712 460.58575
1636.3209 459.31595
1643.3232 457.73697
1650.52 452.1869
1656.3483 447.67136
1663.8262 451.10318
1666.3898 459.39203
1658.0763 459.35428
1649.8708 461.4689
1650.9956 470.13562
1641.4668 467.96378
1633.7026 467.01355
1633.158 480.17764
1626.5908 478.5332
1620.781 479.97968
1621.2362 487.49442
1614.7483 485.93863
1610.926 480.65518
1607.0911 486.59415
1609.2833 492.14868
1608.1345 498.67108
1614.7438 493.66644
1619.5403 494.8944
1615.5212 501.7192
1621.7627 499.80832
1627.2108 499.98602
1630.0505 495.90152
1624.9753 494.02222
1627.2699 488.0576
1632.6611 486.54874
1634.0345 492.0621
1635.6774 497.22293
1632.1866 501.10544
1637.6764 501.95358
1642.8049 499.51474
1640.4534 494.97592
1641.7029 490.20367
1639.499 485.2968
1640.5165 479.68274
1645.3464 475.35657
1657.197 476.0459
1650.7201 479.30887
1648.0054 485.97888
1654.1549 491.7726
1648.1119 494.51788
1647.4941 501.2368
1645.7599 506.4148
1641.1636 506.37393
1636.5238 507.70535
1633.6101 511.23853
1628.6677 511.4196
1625.8668 504.99103
1620.5492 507.11487
1618.0316 513.59625
1612.271 511.81152
1610.4529 505.35608
1602.0198 502.3006
1602.4828 493.7096
1595.6681 495.1713
1594.3799 502.44034
1586.1091 499.7254
1588.7429 493.58948
1582.7277 490.7572
1579.3533 484.85413
1574.8823 490.032
1572.2185 496.1325
1579.245 498.37274
1573.716 503.6691
1572.4343 510.69376
1581.0303 508.9049
1587.5868 505.77548
1590.0791 511.6487
1591.0903 517.6986
1596.456 521.0044
1592.6838 525.5918
1597.4694 531.51184
1601.1582 537.5505
1603.1526 532.72736
1598.1766 526.52515
1602.0923 522.1235
1599.4036 515.69
1597.9508 509.28592
1605.3573 509.9792
1606.5057 517.21704
1613.3188 518.51733
1623.5057 513.4054
1624.5917 520.7764
1619.0271 521.68176
1620.1782 528.8187
1614.59 526.50653
1609.668 524.6038
1605.2168 527.75336
1608.4468 532.83795
1614.2893 532.35223
1612.952 537.80414
1607.8401 541.5495
1600.6755 543.02905
1602.975 548.8867
1596.0527 554.94214
1592.0428 561.69434
1587.8674 555.34076
1584.9509 548.0994
1590.1919 547.37463
1596.166 547.90735
1593.2504 540.7447
1592.1072 535.0559
1588.9528 529.63306
1582.9099 532.12836
1583.9756 539.80676
1575.4882 536.89996
1571.331 528.9341
1577.8907 526.7021
1586.1055 523.71893
1582.6167 518.34155
1576.8148 515.9994
1572.47 520.5119
1566.2635 523.00055
1566.5403 516.7751
1565.4087 510.64432
1560.385 515.13184
1558.3553 521.50543
1560.1167 525.8401
1564.1387 529.61145
1566.1908 535.1186
1567.1984 541.2524
1572.5735 545.7747
1578.1212 545.9304
1580.1819 552.17914
1579.4966 557.3131
1583.4932 561.3078
1587.04 567.8056
1580.5093 567.2142
1580.1382 573.73206
1574.5587 568.4914
1572.1445 573.8574
1570.8622 579.84045
1563.4231 575.88055
1564.08 570.26483
1550.1783 574.91583
1556.9884 578.30444
1564.1993 582.2139
1563.6725 587.40625
1557.0005 586.20856
1556.7855 593.05994
1550.5708 592.45703
1549.9908 586.48193
1548.8429 580.9883
1543.5936 591.3017
1540.9832 584.661
1541.4608 577.14
1536.9976 570.4871
1530.4686 573.42773
1524.3174 573.5235
1518.5056 572.69464
1513.314 568.1651
1512.9609 572.78925
1506.9259 574.2257
1504.4476 569.4458
1502.3068 563.2106
1509.0056 566.2468
1508.9542 561.7213
1503.731 556.2289
1498.2393 555.7439
1491.5852 542.9975
1494.95 549.009
1492.7386 560.4269
1495.8456 565.2558
1498.2446 570.0999
1499.779 575.60126
1502.5061 579.94946
1507.3776 580.6889
1511.523 578.20966
1516.8494 578.4646
1516.6953 583.5746
1514.4492 588.1448
1509.5514 585.5445
1506.738 592.70013
1511.5387 592.0268
1520.6838 589.01654
1525.4081 585.1462
1523.817 579.55774
1532.7659 581.1654
1534.9885 589.4999
1527.6152 591.36334
1533.8602 597.0051
1527.2047 598.48895
1526.1781 605.7223
1532.4033 604.1334
1538.6965 604.4088
1540.6089 597.22107
1547.4406 598.5
1545.0824 604.28064
1537.1069 611.51654
1528.1531 612.07275
1530.961 617.8036
1523.3872 618.8425
1525.812 626.03735
1518.1313 623.2445
1511.891 621.51953
1516.11 617.3297
1519.8607 612.6077
1520.0898 607.5991
1520.9585 602.11053
1520.991 596.72144
1517.551 593.1593
1513.5361 597.3813
1514.3298 602.954
1511.736 607.3134
1512.2745 612.69196
1507.8793 616.51465
1501.737 616.3108
1495.3694 616.0924
1499.516 623.4344
1505.5001 622.8665
1510.4707 626.9064
1510.4008 632.4657
1515.5188 629.8952
1515.2213 635.73065
1506.7018 637.1493
1503.6187 630.11365
1498.4292 636.519
1496.0985 630.2982
1489.6753 632.0044
1487.5928 625.79156
1493.8538 624.0662
1489.984 620.4256
1489.0217 615.3726
1484.312 618.4488
1482.5146 613.4423
1484.8136 608.8939
1490.7961 610.3016
1494.2688 604.5825
1500.044 604.70465
1498.2708 610.3212
1505.4775 609.1426
1508.1079 600.07184
1503.5298 599.42993
1501.6327 591.7653
1502.847 586.07385
1496.9344 582.2103
1484.7095 583.78674
1483.7054 590.3283
1486.9932 595.0944
1490.3295 599.6073
1488.6844 604.8128
1484.472 601.55334
1481.5714 596.69293
1478.4886 588.9663
1474.0127 592.0796
1468.7002 591.1907
1463.7058 592.69434
1458.8624 589.0529
1452.1202 590.6271
1448.3002 585.70325
1455.1151 582.67236
1460.9229 576.5233
1463.8542 583.7826
1472.5033 583.98206
1470.3428 576.7796
1465.182 569.0852
1476.3788 561.3404
1463.5371 558.5266
1456.9497 567.6421
1453.1847 574.9363
1447.7644 578.7211
1442.7192 582.82117
1439.2996 578.2438
1435.8549 572.8511
1432.7695 578.9233
1436.4257 585.19403
1440.1295 589.64716
1444.7378 593.96063
1450.1312 598.4804
1457.2844 595.745
1463.6462 598.83496
1462.3885 605.44965
1467.0037 610.39136
1459.5475 610.82184
1456.7534 603.24316
1450.5206 607.34174
1453.7852 615.0954
1456.7487 622.3827
1463.7128 617.0415
1466.2882 624.09753
1470.1266 617.86505
1473.1531 612.1098
1472.5616 605.93585
1467.6542 603.3407
1470.6577 598.6508
1475.8875 597.22314
1477.3772 602.17694
1481.3135 605.2304
1478.0449 609.24567
1476.5978 616.4944
1479.8403 620.02295
1475.6614 623.47577
1482.2722 624.0756
1481.4178 629.1911
1480.8138 635.1986
1474.4565 632.5714
1470.9574 628.12744
1465.9252 635.7854
1461.357 630.54675
1454.115 630.0719
1449.5842 623.9522
1445.5691 616.53
1441.4354 610.5723
1443.1841 602.20874
1435.7744 603.5343
1429.9076 600.80945
1433.455 593.2659
1429.099 591.1029
1424.2015 591.76135
1430.9081 584.6673
1424.8749 584.44604
1420.805 580.32434
1426.8317 576.65265
1429.5647 571.21704
1434.2898 565.9324
1429.5372 559.9956
1432.7603 550.439
1427.5852 547.6088
1427.044 553.9224
1422.2363 557.94855
1423.0538 563.67847
1428.1187 565.63617
1423.125 569.8191
1419.7124 574.1646
1414.8657 568.86816
1416.981 561.9867
1412.0222 559.84174
1416.2148 554.94116
1420.0515 550.85785
1420.7502 543.9615
1413.5415 541.3953
1418.1924 532.8434
1416.7301 524.7806
1442.8553 518.4169
1435.7719 509.83337
1437.9939 502.80737
1443.0316 509.63443
1449.1288 507.15466
1451.5514 513.9248
1458.0427 517.22253
1457.1901 506.68826
1451.415 500.20242
1444.9264 499.73215
1449.43 492.40192
1443.2346 493.51022
1437.6418 496.29065
1430.3569 498.7565
1430.9158 488.89816
1437.626 490.40622
1437.8496 483.2229
1430.9434 481.4013
1433.4021 474.74835
1439.4465 475.92953
1437.6569 469.0825
1431.7351 468.79654
1416.994 459.29846
1429.8522 462.50934
1436.6105 462.7468
1443.8094 468.44983
1448.6521 477.28867
1443.76 480.3463
1444.7126 487.06952
1454.5599 484.8714
1456.5872 493.33224
1463.316 483.55618
1455.6141 473.5323
1458.3925 461.94818
1465.301 452.75122
1469.2211 464.47293
1476.5068 466.83875
1485.7556 466.1073
1490.8081 470.4336
1494.361 475.05896
1499.7585 478.47174
1497.5543 487.5462
1520.0408 493.33624
1526.3438 491.52527
1533.6831 484.29712
1535.8202 491.47202
1539.7261 496.18686
1537.1216 501.97153
1537.9137 516.6199
1532.094 520.5563
1530.3488 513.4294
1526.0955 509.10284
1530.2134 503.8683
1530.4084 496.5942
1523.5314 501.3807
1516.1758 502.47165
1513.904 507.70676
1520.5875 507.49002
1517.8043 511.94077
1521.8151 516.3686
1514.0702 515.10925
1509.0256 516.8895
1508.291 507.1506
1508.8906 499.9741
1502.431 499.92792
1496.3273 498.02512
1491.3842 494.63293
1484.5582 502.3197
1485.3898 497.0329
1486.3041 490.66077
1489.5964 484.03717
1486.5667 475.71378
1480.4673 472.48697
1473.3037 472.45413
1471.4244 478.04587
1481.6465 480.2262
1481.0752 486.85257
1475.0356 484.64444
1469.06 487.83752
1474.0337 493.68536
1480.0112 492.88327
1478.4868 498.94748
1478.375 505.26752
1471.7935 502.85364
1468.1827 497.5886
1463.1003 493.81912
1464.1554 509.17975
1473.9839 509.95804
1470.5615 514.9194
1464.9976 519.12085
1460.203 524.9483
1454.2373 529.0385
1451.4797 521.3855
1446.6643 525.66315
1441.8832 531.95874
1439.2694 537.9762
1434.2584 536.49756
1434.5925 544.21704
1440.9817 543.8561
1447.5798 547.84607
1443.2712 550.27527
1438.1726 549.90326
1435.1241 556.1735
1439.1191 561.6084
1441.2373 567.594
1444.1068 573.3585
1449.101 567.9731
1447.6628 561.3903
1442.3873 556.2479
1449.9205 554.3306
1455.7605 559.25464
1454.9653 548.9629
1461.2748 551.3467
1467.5256 545.07935
1472.0673 539.30334
1466.5424 536.79596
1462.5421 540.8055
1456.0969 541.7779
1449.9496 543.17114
1445.0906 539.00385
1446.5527 531.12836
1450.5361 536.2704
1456.3497 535.5895
1461.1273 533.098
1465.5846 528.7831
1470.7751 531.1624
1476.0979 528.1765
1470.6016 523.2049
1477.3812 519.14185
1482.2115 513.997
1484.5891 508.61252
1490.2452 503.9254
1495.8542 505.3815
1500.6263 508.47137
1505.3618 512.3389
1500.663 517.0525
1494.2799 520.6033
1492.1246 512.81415
1486.7556 519.8649
1482.1383 525.74713
1489.1738 527.5659
1500.9255 524.76556
1496.3058 528.66797
1495.4948 535.49756
1500.6364 540.37476
1503.9917 547.15735
1511.4039 542.39435
1507.8247 537.7805
1504.8254 531.46674
1506.5225 523.4063
1511.829 523.5819
1515.0219 528.118
1518.124 534.1581
1523.5256 529.61444
1526.5548 524.9815
1536.4539 525.40875
1531.4116 529.23914
1532.866 535.083
1540.6005 537.2578
1533.3552 542.26
1529.2042 547.3868
1523.3263 550.2776
1525.841 537.7717
1519.7924 541.3191
1516.7632 547.24493
1510.8711 550.49695
1509.059 556.22394
1514.4448 558.39246
1517.1763 563.8359
1522.9666 567.15436
1530.6013 564.5218
1523.2808 559.4653
1518.0848 554.3213
1529.9186 556.4325
1536.4475 553.6202
1539.9398 561.7292
1545.2915 568.52924
1554.1394 569.62463
1557.7927 564.73706
1563.783 561.782
1568.939 565.31177
1574.8752 562.1727
1573.7722 555.1048
1567.6624 556.0687
1566.7661 549.0893
1559.677 549.5624
1558.2001 556.4436
1550.0446 560.0836
1551.6157 548.84924
1544.7472 553.27295
1540.6742 545.9445
1547.3865 540.42395
1553.7831 538.45154
1559.6444 541.9715
1556.6862 531.9742
1547.6974 529.9289
1540.5958 529.8626
1551.4093 523.8169
1554.8596 517.31696
1551.3082 513.5173
1556.0762 508.99927
1560.3069 505.44858
1565.9714 503.81467
1565.9731 497.66595
1567.2695 491.05188
1561.162 489.91998
1559.0735 497.22696
1553.6068 500.93082
1548.7887 506.57004
1545.3546 500.96207
1546.9867 495.69647
1551.7368 492.62042
1555.1757 488.24765
1549.078 482.873
1544.4393 488.9829
1538.6816 485.18253
1540.5664 477.6464
1547.4448 475.92117
1549.6926 469.03418
1556.4307 473.33276
1557.2391 481.545
1564.0454 480.08353
1569.832 475.41193
1567.3357 485.3654
1572.4495 482.25772
1577.1902 478.07184
1583.4448 479.31165
1587.4308 484.22153
1592.512 487.63522
1598.9082 487.94064
1602.316 483.15173
1603.5376 478.44974
1602.9811 472.62167
1597.6785 470.31
1597.8752 475.6283
1595.3562 481.01962
1589.7871 477.097
1591.4945 471.61594
1583.5398 472.6829
1575.8113 472.10135
1562.2029 457.16724
1569.7599 456.45468
1578.4849 457.78583
1586.6603 457.48877
1587.1522 448.25198
1597.3539 455.5311
1599.5192 461.35147
1606.0828 459.5333
1617.2544 450.3599
1606.1698 451.09003
1603.0885 445.4715
1598.3273 442.38214
1601.0203 437.8096
1595.9124 434.81348
1580.718 433.94064
1580.4713 420.10266
1578.4324 426.74158
1565.0526 432.68323
1577.2454 449.17648
1567.2079 445.1964
1555.3741 441.51367
1532.869 438.9036
1512.4902 455.12933
1507.7554 430.34344
1495.9453 428.94696
1498.3745 441.0922
1480.8607 443.39682
1477.9646 428.17453
1464.9885 429.8321
1458.9791 414.22076
1466.1559 418.4227
1475.6747 414.76645
1465.7144 411.36102
1464.0934 405.33795
1466.4095 399.99164
1465.4261 395.3566
1472.0209 392.96628
1464.522 389.79092
1469.3401 385.36853
1470.5062 378.8615
1457.7158 381.03857
1454.8772 366.67242
1455.2178 359.6862
1447.272 358.4179
1437.7361 365.08218
1441.618 372.19214
1429.3964 371.8792
1423.0332 377.26315
1420.238 384.20596
1419.1848 406.82202
1422.8779 419.62234
1408.9669 431.6367
1407.9823 443.60678
1409.4949 420.6063
1402.5939 408.3071
1400.015 391.61478
1405.218 384.72528
1410.2627 381.11987
1416.5492 378.01495
1412.5132 373.24725
1418.5071 369.36334
1427.4111 364.6508
1428.8071 357.59018
1434.0367 360.49402
1441.408 355.54718
1435.5442 353.42883
1429.5065 350.83194
1432.2592 345.28458
1432.0018 337.83853
1438.2025 338.7482
1443.3082 342.49258
1439.3125 347.75888
1446.7913 350.34085
1453.1694 348.0301
1459.198 352.97345
1463.0078 341.69345
1469.6573 337.35977
1471.9683 342.46283
1464.9912 347.56186
1467.7953 354.0968
1463.1647 360.43292
1468.7219 368.56854
1475.0657 370.13666
1480.985 380.0152
1477.7021 386.60114
1480.848 393.3065
1485.2996 390.2167
1486.5032 385.43286
1488.3005 379.81516
1496.1584 379.80325
1503.0844 381.01938
1510.9663 379.6298
1518.6501 381.70456
1520.1974 375.42828
1528.5693 372.41296
1530.1646 384.0653
1533.0801 376.6042
1537.5397 369.18762
1535.6392 358.3656
1539.3684 350.021
1546.5131 355.57193
1548.8416 349.81555
1550.7482 344.26508
1556.0018 351.81955
1563.2738 353.47968
1561.9458 345.85184
1556.3773 345.0986
1552.5897 338.18533
1555.9772 332.6837
1559.2239 339.16626
1563.0824 334.35406
1561.7814 328.71115
1559.7203 323.44772
1554.0323 321.32736
1554.526 326.84067
1549.352 330.5103
1545.8099 335.82825
1544.603 343.06702
1538.0864 340.51556
1531.7695 337.43042
1529.3898 345.7857
1528.9934 354.04327
1520.6523 355.6119
1513.9576 370.78183
1484.414 365.14417
1488.3446 357.74036
1485.8705 353.62366
1491.1582 352.43326
1487.2084 347.77383
1491.6019 343.05154
1485.9208 342.69662
1481.4581 347.54675
1481.4579 352.4694
1481.3265 357.89413
1476.7814 362.27893
1470.9438 361.57315
1474.3058 356.32904
1476.3947 351.31204
1472.3325 347.92694
1478.8795 343.28818
1476.7222 337.5632
1475.1028 331.071
1481.1633 332.96716
1484.0466 338.1146
1489.6165 334.8952
1494.5781 331.75085
1492.1799 325.3293
1485.6377 329.06842
1478.3972 324.85718
1484.6003 322.4634
1489.6239 318.54935
1484.4929 315.45502
1487.9153 309.18683
1492.4501 312.24725
1494.908 317.00775
1497.8544 320.17395
1504.5267 317.44647
1505.9539 322.2803
1499.9874 323.76862
1499.4346 328.93616
1505.2422 327.21695
1512.3693 324.2162
1517.3114 318.26895
1511.0684 318.7771
1509.0005 313.86816
1509.069 308.49133
1514.448 306.28522
1515.433 312.19894
1523.4155 312.2826
1521.2683 306.5078
1524.453 300.7185
1520.1442 294.96533
1516.6439 289.01657
1510.445 287.0136
1508.4845 291.21777
1511.795 295.97882
1516.6729 300.61963
1510.1517 301.64258
1505.7445 303.50757
1503.1313 306.7571
1503.5284 310.9813
1500.3608 314.684
1497.5403 309.63586
1493.5436 304.54855
1488.015 302.48795
1481.1741 304.40506
1481.5381 310.47354
1477.9718 316.82108
1472.6642 319.13367
1470.7625 325.334
1466.186 318.11755
1460.2415 322.79202
1458.8558 316.37598
1464.0254 308.75848
1469.6794 311.33896
1475.5472 309.8647
1474.032 303.8341
1468.3619 301.51944
1471.0782 294.05505
1463.4994 295.06088
1456.7333 298.52573
1450.9164 300.6769
1461.1744 302.48297
1457.3384 309.91125
1451.816 307.05164
1444.9119 303.0105
1439.1599 299.88843
1436.4288 306.43677
1430.556 309.54193
1431.6042 315.93274
1440.093 316.41055
1443.4388 310.11337
1449.9058 315.48434
1452.6998 323.63916
1464.2375 327.2221
1468.4591 331.65982
1462.5258 335.059
1457.109 329.81992
1455.2184 335.91077
1454.6794 341.76837
1448.238 339.70334
1446.0724 332.29614
1445.1174 323.90784
1437.2942 330.6405
1436.584 323.2296
1429.7184 323.1261
1423.9261 317.46237
1416.6804 327.17914
1414.5146 311.95132
1418.1963 301.92456
1422.6547 307.69153
1427.1237 302.3634
1432.3859 298.50024
1431.3064 291.61646
1424.4211 295.25095
1418.4087 295.2939
1414.0825 292.87338
1425.4839 287.8706
1433.2458 284.8666
1428.9094 281.12442
1427.0901 275.4127
1422.6389 279.42755
1419.5765 285.63754
1413.4963 286.51477
1412.7196 279.61398
1417.6438 276.73312
1415.8981 271.02585
1422.4011 271.0488
1419.2385 263.85507
1424.1914 261.14474
1421.4182 255.60762
1422.836 249.71147
1426.2495 243.72713
1428.4325 237.53868
1431.5402 248.57558
1438.3914 245.47127
1437.8341 252.21162
1444.1523 250.27057
1449.4602 248.07732
1454.2286 243.03471
1449.1493 239.33942
1443.2715 241.43848
1435.2815 239.46915
1434.2635 232.00708
1435.8362 224.08817
1440.8964 228.68822
1443.4225 234.63202
1448.3818 229.92929
1451.8936 224.45454
1446.443 223.33224
1441.2849 222.35068
1440.2188 217.32588
1445.0349 217.01097
1450.0294 218.88881
1459.1271 220.00323
1454.5686 218.27402
1448.5045 214.01733
1443.8231 209.6474
1449.4296 209.69673
1453.213 206.91653
1453.3684 212.89113
1457.5583 212.47133
1460.843 215.44124
1464.4312 219.03436
1464.2411 224.77913
1457.7253 224.55882
1455.524 229.58008
1454.5233 235.70592
1461.1506 232.5894
1467.7587 229.55064
1467.0393 236.29698
1460.8285 240.73337
1467.8761 243.36006
1473.6251 246.0414
1473.2468 239.09288
1475.9987 234.26054
1474.2927 228.35437
1472.9868 222.12654
1469.8608 218.35115
1477.0021 211.92531
1472.4054 213.1839
1466.95 213.47684
1463.6693 210.39014
1459.5414 207.4543
1456.669 203.63664
1461.6473 201.2882
1465.8176 204.51944
1470.7002 207.1566
1476.9548 204.15727
1472.6892 200.87775
1466.0914 197.87643
1471.0049 195.92148
1472.7909 191.44954
1479.5225 190.76875
1478.8569 197.00385
1483.7441 202.33492
1486.6812 197.6497
1485.96 192.0726
1484.2744 186.52719
1489.9915 186.9886
1494.1201 189.71852
1491.4509 194.46342
1496.6433 193.68306
1495.9556 199.3919
1491.2585 202.30293
1480.0527 208.0588
1484.523 209.3983
1489.7334 207.81322
1492.6165 214.3866
1494.3656 219.755
1499.8389 222.84332
1503.728 219.38745
1506.5707 225.69263
1509.1744 219.27766
1505.9604 212.54272
1500.4546 212.54291
1495.4412 210.50601
1497.8611 205.49886
1501.0634 194.68105
1502.6089 199.61002
1505.8279 204.35764
1512.4197 206.89952
1512.0145 212.7919
1514.8037 217.4858
1518.9269 213.20233
1525.9614 219.33
1528.4052 222.95789
1525.711 225.88101
1521.2622 224.72655
1519.4144 219.92952
1513.9313 223.1784
1511.8577 228.31587
1517.6669 228.92616
1518.5848 234.99153
1512.6433 236.21552
1514.9478 240.96913
1518.4803 245.06137
1523.7363 246.56203
1524.6145 251.32657
1522.3795 255.94737
1528.6265 258.04105
1521.725 261.20215
1513.7478 257.8789
1505.8704 258.50897
1507.2417 265.08026
1500.0497 262.8417
1493.4666 267.34082
1493.9202 260.90637
1496.4243 255.2723
1501.6912 251.41994
1507.9883 251.80528
1514.3954 249.15477
1508.4438 244.05345
1499.7557 243.28073
1493.9419 239.06955
1499.7498 235.0349
1503.9452 230.84715
1495.4801 227.6593
1487.4749 223.57474
1486.6484 215.69606
1479.9216 217.3499
1480.188 224.4302
1482.8625 231.77078
1490.2643 232.16794
1486.7836 240.15147
1483.7512 246.48131
1492.6564 247.32573
1488.041 254.54843
1476.0312 255.2345
1485.6165 266.6743
1489.2058 273.7655
1481.41 277.52927
1475.0455 277.25143
1469.4895 276.2105
1472.3167 269.94464
1478.4683 269.34485
1478.1316 262.32715
1470.8414 261.82892
1461.3815 260.53787
1462.3608 254.70932
1468.735 251.82352
1463.5522 247.81209
1457.5396 248.35957
1454.2295 253.71133
1454.3295 260.11542
1456.65 265.57266
1461.9995 267.04236
1466.1156 271.05008
1461.2588 274.02133
1455.4661 272.15372
1456.7828 278.55917
1454.3362 284.29108
1447.6448 287.10376
1449.4362 278.12405
1446.8014 271.36615
1450.9633 267.39645
1445.0525 263.97345
1448.3783 257.64398
1442.366 256.97757
1438.6792 260.53232
1433.0669 261.4123
1433.7976 256.0926
1428.2358 255.75266
1429.9043 264.20374
1437.2859 265.31854
1434.624 269.84143
1426.6602 267.7208
1431.4639 273.1913
1436.0697 277.93695
1440.6007 269.69876
1442.1304 275.6839
1442.8103 281.83716
1439.3518 286.78983
1437.9642 292.8953
1444.067 294.32315
1449.9724 294.33572
1455.5181 291.501
1460.7483 287.6686
1465.6505 281.8106
1467.3071 288.86862
1472.9568 285.13766
1479.1874 286.8562
1484.7186 288.96768
1477.6826 291.959
1476.3625 298.03925
1482.6697 297.7825
1488.1272 295.30524
1495.3073 296.8061
1498.9685 302.86823
1503.5902 299.005
1502.851 293.94144
1499.2341 288.25195
1492.4384 289.99994
1490.7656 284.1355
1488.7317 279.50418
1496.0316 280.39017
1496.2388 273.33698
1500.1765 270.1197
1503.6078 274.72174
1502.7755 279.81128
1508.7253 278.7245
1513.822 282.0744
1516.2769 276.09274
1520.4541 280.85007
1527.7004 274.99612
1521.7833 270.92203
1527.638 266.13425
1533.0128 261.4808
1538.092 264.2455
1534.4056 269.70233
1535.818 276.70892
1527.5392 282.03766
1524.1356 288.45587
1528.8776 294.81244
1536.0875 294.88147
1533.8074 286.33533
1541.4253 283.1613
1549.3547 283.26837
1551.2374 291.60785
1543.8702 292.37155
1537.5002 303.24414
1530.1399 305.8837
1531.7875 315.09006
1538.1613 311.50006
1542.3956 319.08868
1536.3739 321.83167
1526.0267 318.5619
1521.302 322.6076
1528.9551 325.73904
1533.7245 330.1693
1540.1655 331.76556
1543.2318 326.17706
1548.752 324.05106
1548.2983 318.75186
1552.187 316.077
1556.2533 312.47833
1554.9614 306.95694
1550.2642 311.06903
1544.7119 313.18982
1545.7982 306.3806
1545.4626 299.47253
1551.9312 301.54456
1556.2089 298.25653
1557.3462 291.9119
1562.7534 295.612
1565.0559 290.36902
1558.8809 285.70908
1563.1942 280.9823
1570.8481 279.29947
1569.2238 286.0064
1570.4722 293.27698
1563.1943 300.4426
1560.7914 305.32108
1566.8052 305.2937
1567.5951 312.24933
1561.6503 311.46637
1557.9004 317.5207
1563.7776 318.13315
1566.5575 323.8446
1569.0231 330.6438
1576.5582 332.9895
1575.5908 338.8531
1569.9866 336.8995
1565.9767 340.69266
1567.5637 347.18787
1573.3278 344.34836
1577.5581 349.23923
1571.1929 353.0042
1575.8395 359.83994
1578.5758 355.94714
1582.3412 353.81744
1586.7576 351.804
1585.9739 345.97488
1580.7393 343.4667
1581.4675 336.67343
1586.9966 334.53638
1587.1722 340.14322
1592.258 343.54816
1597.8131 341.40582
1600.7068 348.57004
1594.943 353.43347
1603.744 354.6934
1610.5887 355.76883
1607.1445 362.79852
1599.1233 360.28265
1593.1332 360.03687
1600.3788 366.76514
1594.3397 368.92563
1588.3529 369.28604
1581.9349 370.26242
1588.5625 363.06903
1587.0405 357.34482
1581.9998 362.9839
1574.3822 365.58215
1569.2255 366.68774
1567.5574 374.13635
1561.5266 374.4109
1563.6599 368.4657
1556.7043 367.8211
1562.6854 361.438
1568.8684 359.5161
1557.0524 358.2069
1552.1377 361.54004
1543.778 363.16534
1550.1664 367.57016
1547.7312 372.36844
1541.7549 375.03458
1541.9517 382.0496
1546.6233 380.48947
1550.7837 378.97513
1549.0051 386.88718
1549.1768 393.84665
1546.539 401.98862
1540.9207 390.09772
1528.5425 393.05383
1516.5248 390.37625
1511.6232 386.13293
1506.1023 390.17047
1499.5541 387.19522
1493.7842 388.76028
1493.2314 395.23282
1498.7283 394.07358
1504.317 412.42776
1511.0403 396.21872
1528.2599 403.4092
1549.1102 418.2573
1563.2566 416.92715
1562.3401 405.8779
1563.3687 396.71698
1562.2249 388.76956
1561.9558 381.1138
1567.1589 382.3557
1577.9204 381.28854
1576.4678 375.7099
1582.7991 376.39157
1581.3833 384.12088
1578.0038 388.25943
1575.3793 392.15015
1578.8358 394.86746
1576.7478 399.21188
1576.1857 405.853
1576.7672 417.11197
1578.9038 412.04315
1579.7502 403.875
1584.9701 401.0459
1583.5288 390.58176
1587.4421 380.25714
1595.687 377.95203
1601.2606 381.36514
1595.9525 386.7902
1589.838 393.96408
1596.5098 393.50305
1608.9203 395.51215
1610.2499 400.57544
1597.0358 401.73224
1592.1763 399.71207
1593.1467 406.53784
1598.9381 408.36978
1594.2994 413.66803
1596.8907 420.3401
1596.5209 427.33896
1609.9045 421.58603
1610.4843 413.83276
1609.7266 406.647
1621.8674 406.20096
1622.9038 396.39835
1614.8982 395.29425
1611.7606 390.65274
1609.4146 386.80676
1612.6401 383.27188
1615.4854 379.12796
1621.9902 386.96643
1627.522 382.39984
1624.1548 376.4275
1625.4498 370.3505
1620.2592 368.26938
1615.3807 373.73438
1601.8999 374.3741
1606.8219 370.0913
1614.0764 367.2463
1614.2776 360.93826
1620.8455 361.35986
1626.6703 363.41623
1629.2177 357.57666
1634.0876 353.38834
1640.0581 350.0952
1640.1262 344.4844
1648.7114 345.7251
1653.0476 351.93112
1646.8447 352.78616
1645.9082 358.68997
1652.1404 359.13467
1657.4592 362.1718
1651.9783 366.17017
1650.9983 372.54688
1659.3044 368.705
1661.093 374.86972
1655.4233 376.21292
1656.6974 383.998
1662.4823 381.3459
1669.6919 383.00626
1677.5415 385.19073
1683.2867 389.4099
1683.4291 395.3743
1690.6206 393.63162
1698.326 394.29947
1698.4081 400.60434
1692.4384 402.22836
1688.0773 399.01834
1681.2587 400.9904
1673.9789 402.50366
1671.174 396.45712
1677.1537 394.89957
1671.529 389.6122
1664.5813 394.48193
1663.5869 388.0586
1657.0258 391.80347
1653.6752 398.91397
1659.7257 399.17545
1666.5731 401.83615
1659.4395 405.5999
1653.3792 405.5589
1650.9177 410.091
1652.4498 416.21185
1657.3472 421.60068
1661.1168 427.84277
1665.9844 421.65775
1661.7603 415.6039
1658.2129 411.48526
1664.6514 408.8502
1670.5781 407.4364
1671.9935 412.1256
1680.534 414.5926
1677.0864 408.7359
1680.4514 406.1396
1686.8937 405.48523
1687.99 411.19843
1695.0997 407.4594
1700.6417 409.76834
1704.8616 398.545
1706.6057 404.91425
1707.0533 413.5462
1700.3835 419.76065
1691.9751 416.3191
1686.5984 420.2152
1691.3926 424.33948
1696.4729 428.57004
1706.1304 424.9921
1716.0258 428.56992
1713.9401 419.61426
1723.0854 419.97318
1724.0691 431.78256
1730.1313 436.76053
1739.6227 435.3971
1744.36 438.73053
1754.023 439.414
1750.4802 433.16943
1746.7042 428.60596
1740.6484 428.23944
1734.0981 430.35498
1729.3594 425.40924
1735.2201 422.21555
1731.3755 416.6447
1732.3043 411.36267
1733.0593 405.8792
1740.6721 409.43024
1739.9718 416.27567
1743.2898 421.68457
1748.5798 416.88394
1747.2487 411.74884
1755.096 410.28122
1761.7737 411.45667
1765.629 406.77274
1772.3604 410.9596
1768.5002 415.53738
1764.405 419.3771
1759.2084 417.14938
1754.4415 418.13937
1750.7682 423.5798
1758.6073 424.73718
1767.057 424.99167
1774.0316 426.81894
1774.7947 419.38852
1779.6439 416.25427
1786.2832 416.1106
1790.8801 422.0807
1784.1671 425.02145
1789.2561 431.72122
1794.6243 427.86914
1802.1642 424.9469
1797.7657 421.09738
1796.1833 415.4423
1792.8726 410.1222
1803.5168 410.58984
1803.3524 417.57294
1809.9739 417.13394
1811.3585 410.68756
1818.4716 411.9546
1816.4849 404.86356
1817.6736 398.23288
1810.308 396.0349
1808.1128 403.34824
1801.0049 402.4242
1796.9093 406.22278
1789.4723 403.53387
1786.1436 408.22733
1780.0713 409.47842
1775.2979 404.96146
1769.7078 402.2934
1765.8306 398.05585
1761.6611 399.5646
1758.8245 404.13818
1753.1212 402.2162
1750.5387 406.0463
1745.5399 404.45184
1739.889 401.0744
1736.3175 389.978
1741.5182 392.38815
1744.3175 397.9289
1749.4302 397.78296
1755.1604 397.55423
1759.0369 394.2272
1756.6616 389.29745
1752.3894 391.57803
1747.5258 391.80768
1746.075 386.5356
1740.6501 382.59174
1734.1158 384.11267
1728.7474 387.33365
1728.7935 394.38153
1734.0461 397.96725
1729.0006 403.7877
1724.6628 401.83408
1725.9647 410.37012
1719.7299 412.54834
1714.7948 412.15417
1717.004 405.76297
1713.3599 401.41205
1715.9099 396.28836
1721.5139 396.96365
1716.9385 390.28168
1722.5387 389.0168
1725.009 382.16818
1730.644 378.3842
1733.34 371.77634
1736.7692 376.9538
1742.3896 375.52747
1740.3444 370.1814
1736.6285 366.626
1733.4822 362.16696
1729.0205 366.20197
1726.4807 371.12344
1723.891 376.03406
1718.9534 380.71475
1714.7988 383.9433
1710.8293 388.43265
1709.9634 394.68985
1704.9198 391.54495
1698.4482 388.6299
1699.1572 383.01102
1692.6968 382.2281
1691.4724 388.11624
1685.6257 382.7387
1680.1748 377.27914
1674.8604 369.4777
1673.7218 377.1023
1667.324 375.633
1667.0791 368.26907
1670.982 361.6872
1678.8259 362.97836
1682.4211 369.56287
1688.8013 366.44424
1686.8411 375.41275
1693.1127 375.93536
1692.1082 370.6912
1700.8208 371.87302
1696.551 366.718
1701.1859 362.2623
1704.7588 366.92212
1708.3127 372.2716
1704.3926 378.1733
1698.2091 377.33994
1704.6144 385.6182
1709.1061 381.763
1712.8835 376.3988
1718.7893 372.49103
1714.6964 367.92398
1709.8856 364.73294
1713.9067 359.9914
1707.4606 358.79907
1704.4784 353.37482
1700.3682 356.53372
1696.6681 352.218
1697.382 345.578
1691.2223 349.28793
1684.9976 350.19757
1689.8002 355.68765
1694.3943 360.1367
1686.5784 361.74643
1682.9153 356.78714
1676.4503 356.5492
1666.0405 355.6102
1663.1968 361.05878
1659.0621 354.11035
1658.0854 347.00592
1664.9615 348.97226
1669.613 345.6902
1671.6256 352.9221
1679.0178 350.76617
1675.2141 346.56256
1681.0104 344.15253
1686.5763 343.3268
1692.2001 342.58408
1697.0261 339.30008
1701.9531 336.69342
1703.2172 342.24783
1702.821 348.09073
1709.2122 351.79825
1714.3115 351.58423
1716.7368 345.69467
1713.5168 341.0125
1709.2188 345.27542
1707.7811 338.6173
1707.1497 333.34222
1713.305 335.6852
1713.2704 330.09778
1718.4712 331.68283
1721.9193 326.63412
1727.6686 323.0201
1733.7578 325.16312
1738.548 322.35748
1743.7604 319.85388
1745.1237 314.21927
1740.5488 311.7052
1738.6182 316.6837
1732.9147 317.93713
1735.4006 310.34122
1741.223 306.11942
1747.6227 309.12762
1755.2266 307.35965
1758.596 301.64117
1754.0486 297.82346
1758.3108 294.0457
1757.7466 287.48166
1762.7466 291.42084
1765.0735 296.95544
1772.2183 293.46594
1772.6016 300.50665
1777.6726 306.53323
1777.4594 313.03635
1776.4132 320.57883
1771.0618 318.88138
1766.3716 318.0959
1769.4252 309.84753
1766.179 307.00598
1765.1605 302.10904
1761.2468 308.03348
1758.0938 312.7996
1760.9531 318.7229
1754.5841 317.18948
1751.5677 312.56622
1749.2344 318.2362
1757.0889 321.96808
1753.1904 323.23578
1748.5658 323.50165
1744.0436 325.38422
1739.5474 328.33252
1729.4589 330.14432
1725.042 333.55087
1719.981 338.34793
1722.2235 344.44736
1726.9631 346.61667
1732.1877 349.59323
1726.4916 352.86877
1720.9884 351.75775
1718.7817 357.37604
1720.9591 365.0173
1725.2241 360.44217
1729.7875 357.38992
1734.7725 355.42493
1740.6246 356.47528
1739.8958 361.77408
1744.1683 365.4888
1747.044 359.94608
1746.8646 354.17017
1744.308 349.59106
1745.749 344.45883
1740.3247 342.5365
1738.6719 350.14105
1735.5807 344.5577
1731.1406 342.2566
1727.0366 339.07144
1734.1799 337.28482
1735.3005 331.73218
1740.4075 335.77667
1744.1062 331.55325
1748.3579 329.08163
1753.1104 328.1025
1755.8254 332.9342
1759.1753 328.80087
1764.1567 333.22177
1770.1101 338.9402
1771.194 333.52386
1777.5076 335.46695
1779.2358 342.4148
1771.6504 344.39105
1763.8453 341.6197
1758.0648 345.49216
1758.5466 338.07013
1752.6638 338.62744
1749.7552 333.9551
1745.8284 338.28638
1751.2637 343.4775
1752.06 349.2798
1753.1127 355.51596
1759.508 352.90387
1767.1674 356.52322
1766.0953 349.03778
1774.6809 349.79507
1774.0448 357.3073
1771.2472 365.2538
1763.5366 364.15588
1759.6613 359.37726
1754.1792 361.9648
1750.0398 365.8194
1747.5591 370.77386
1748.4486 375.78842
1747.7161 381.36047
1754.7485 384.53098
1753.7328 379.3686
1755.6204 374.17245
1755.7318 368.43835
1763.2003 370.8444
1760.9194 377.99872
1763.8643 382.51498
1761.8755 387.535
1765.1708 392.04868
1770.3174 395.47235
1776.199 397.73483
1782.3376 401.06107
1782.688 393.0906
1790.5085 397.7752
1796.5234 395.6827
1803.0101 395.24393
1809.162 388.77335
1817.3506 389.64514
1817.0201 380.87222
1819.2743 370.79102
1814.0781 373.3056
1807.4663 381.67676
1805.9183 375.09082
1792.6359 375.28442
1796.3458 380.92377
1800.886 387.1768
1792.6578 389.35233
1786.5144 385.87482
1777.6589 384.19748
1773.8 390.45215
1770.7686 382.81525
1769.3307 375.752
1776.3134 372.3512
1782.6802 378.95337
1786.0403 372.96902
1782.3788 367.28583
1779.8672 361.93637
1780.7278 354.61667
1782.0282 348.05188
1787.7443 350.69647
1795.0011 348.65793
1800.1423 346.68283
1796.0664 341.19788
1790.6731 339.75986
1788.5039 344.8042
1784.3037 338.20325
1784.3274 331.15967
1784.6656 323.3378
1782.2103 317.74866
1783.5382 311.2653
1789.3047 312.50717
1794.5149 311.19302
1788.7633 319.2724
1794.635 319.46158
1798.72 315.78302
1804.0151 318.85226
1797.3105 324.86234
1790.9421 326.87323
1789.7283 333.95734
1795.5317 333.09946
1800.9922 336.76566
1800.8584 330.03876
1803.2322 324.84085
1808.1022 324.30392
1813.0127 325.26672
1809.447 330.35828
1805.4355 333.20963
1810.101 336.94177
1809.0214 342.52216
1803.3722 341.60913
1806.3342 347.45117
1812.9263 347.97318
1809.0835 352.67184
1803.0521 353.17996
1797.8967 355.4944
1792.1823 354.63077
1786.9861 358.42722
1790.3861 366.25058
1795.1161 361.9542
1802.0331 361.5411
1799.2295 370.28705
1807.1106 367.28754
1808.2919 358.92197
1812.5632 363.46725
1816.9353 365.5247
1819.2803 361.75674
1818.3624 357.3666
1813.873 355.27673
1818.3085 351.6259
1820.1279 347.75586
1817.7815 344.87778
1814.2024 341.32144
1819.217 339.88684
1817.7777 335.24847
1814.3014 331.44122
1819.2214 328.99872
1817.8179 323.89426
1811.6277 318.9766
1818.7616 319.33713
1818.9775 313.35147
1812.6205 313.90826
1806.2119 312.77753
1800.7329 310.51395
1798.9427 305.18365
1804.2878 305.83722
1808.5323 305.2896
1812.4922 308.64175
1818.3838 306.18115
1812.3513 301.06436
1817.5533 298.68365
1819.5206 293.81104
1815.7821 291.09207
1811.3523 291.32245
1808.643 294.6558
1805.4911 297.38522
1803.0297 300.65103
1796.4303 298.789
1792.7242 304.71548
1786.2203 304.97662
1781.6676 300.1945
1779.3684 294.86768
1777.1654 288.7668
1767.9795 290.55856
1764.2274 285.37183
1771.1256 284.94208
1772.8173 278.7141
1776.7482 272.7612
1784.0957 270.20935
1784.304 263.02072
1775.4138 264.4265
1779.3763 257.97495
1774.1116 253.16885
1770.2515 258.31268
1766.738 264.41165
1768.5725 271.17603
1765.7819 278.98425
1762.1201 273.56036
1759.8611 268.47745
1756.9396 263.29828
1754.6914 258.73657
1750.6687 256.30115
1746.9463 252.39061
1741.5322 254.17625
1735.2668 253.6649
1738.2457 246.99013
1743.2533 246.92145
1749.0575 245.64043
1753.0656 249.51706
1758.7476 252.10027
1762.4568 258.21683
1766.0889 251.70576
1769.2776 246.62375
1763.6323 244.93816
1757.6855 244.78152
1752.917 239.86902
1744.8973 241.1919
1746.7904 235.85667
1741.8542 230.65175
1736.109 232.81833
1739.6711 238.15144
1734.1489 243.1692
1724.4001 244.91594
1726.4763 251.16301
1725.333 259.29544
1716.8544 257.56235
1717.5505 264.12973
1721.1127 269.80936
1711.8506 271.8047
1707.6417 262.52548
1700.6433 261.4116
1699.8184 251.5249
1705.708 253.38452
1712.8784 249.10324
1712.5581 240.705
1705.6256 234.91685
1700.7407 239.01956
1705.3318 247.54814
1697.5514 245.36562
1691.1301 242.64636
1687.6282 237.08403
1682.594 242.95238
1681.1842 253.59105
1680.4119 259.94788
1686.9009 260.646
1686.0516 255.44997
1687.6239 249.81836
1692.9921 252.85338
1696.8455 257.2007
1694.2279 261.35068
1693.6311 276.19354
1683.8221 277.98
1688.3729 291.54694
1695.8511 291.9114
1692.5966 296.82587
1699.143 300.18564
1701.6111 294.91025
1706.5637 286.09976
1719.7168 276.76974
1726.9906 270.8177
1736.0314 284.16547
1737.2247 271.90674
1738.2844 261.24335
1745.2405 260.5739
1747.692 265.74097
1743.9973 270.9315
1749.1624 275.4583
1753.1091 269.12817
1755.6768 276.03635
1759.2781 281.00186
1752.3656 282.6773
1745.1677 282.77365
1751.3187 289.24756
1741.243 299.70242
1731.1611 289.11768
1731.5452 296.7789
1733.985 301.05478
1730.5742 307.51904
1724.5792 306.26532
1718.7717 307.75272
1711.2632 309.82043
1705.3823 311.75412
1712.7175 304.69476
1717.5283 301.66867
1722.9038 295.59488
1714.811 292.25607
1711.4995 297.553
1706.656 301.029
1703.8853 305.59787
1698.6686 307.80792
1699.3427 313.91226
1694.367 317.3828
1691.6469 313.84705
1692.8123 309.0139
1693.6836 303.30374
1687.1577 300.6056
1686.3228 305.94547
1686.5802 312.06354
1688.2012 318.69617
1683.2593 319.6345
1680.4186 322.67725
1675.1989 323.7533
1668.2522 325.4935
1659.6475 329.20047
1653.5557 325.2467
1646.448 317.32388
1653.9545 317.55722
1661.4236 320.61542
1667.6937 315.91907
1660.6787 312.12555
1653.1077 310.504
1659.3972 303.49716
1651.7988 303.08762
1645.883 307.69437
1638.7131 306.9393
1633.3003 304.41983
1627.2462 310.8378
1623.1917 317.31516
1629.5433 316.65848
1634.3909 314.47235
1640.6561 313.88168
1638.9598 322.41928
1646.3167 325.76498
1649.0474 334.18573
1640.9154 331.952
1636.0093 339.71506
1630.0686 345.64328
1625.463 352.56183
1618.5483 354.48325
1620.303 345.74585
1611.5326 348.62216
1609.2654 340.77063
1607.7583 335.1452
1608.0668 329.5275
1606.1597 323.39746
1615.2372 328.87085
1616.203 336.764
1623.8633 333.684
1632.1433 331.2185
1632.1249 324.58716
1626.7206 321.67273
1623.469 327.02237
1618.6666 322.1583
1612.2338 321.37424
1620.2754 313.59506
1616.6355 309.44962
1614.6951 315.79727
1607.0679 315.9877
1600.5576 314.32236
1599.9281 320.39545
1599.6299 326.48737
1600.3263 332.24496
1602.221 338.43225
1593.8544 336.73532
1593.4491 330.63074
1587.3885 329.3182
1581.5067 327.88507
1575.2013 328.05048
1576.6023 322.35144
1571.7472 323.95926
1571.5508 317.33182
1574.8575 311.22098
1571.8317 306.34006
1568.9243 299.13052
1574.0825 299.85144
1577.7546 304.3339
1581.5425 307.84866
1580.0073 313.87396
1579.0953 319.2662
1583.9039 319.4625
1587.0558 323.4414
1593.1163 324.19034
1593.5249 318.1477
1593.3014 311.89682
1587.886 315.8524
1586.1086 310.88065
1588.6807 305.97272
1584.51 302.88742
1589.9626 298.37732
1584.2073 291.87378
1583.5618 298.19812
1578.9768 297.59677
1576.6482 293.38867
1577.0486 288.54214
1577.167 283.50897
1578.9868 278.28833
1570.2965 272.30875
1564.976 273.27255
1565.161 264.51517
1559.4668 267.72156
1558.4283 273.77997
1554.0812 277.92212
1544.0469 275.03397
1551.1929 270.6752
1553.2101 263.73563
1543.3096 268.77042
1544.2101 261.64114
1547.822 255.56166
1543.5686 253.41948
1539.4336 255.85144
1534.5819 255.41208
1538.9828 249.39601
1531.6289 244.77681
1532.1211 238.78857
1527.7733 241.45224
1522.2909 240.51947
1525.0072 235.93028
1523.7264 230.59596
1529.571 232.7298
1530.7198 227.72844
1535.446 228.92154
1534.5979 234.36143
1538.0659 236.95099
1539.4987 242.59816
1547.1552 248.83514
1555.481 254.67044
1564.2057 255.07816
1568.2631 258.48035
1573.7626 260.46838
1571.1282 265.59085
1578.2217 264.83475
1575.2535 269.35083
1578.1436 273.61588
1582.022 268.38254
1585.5839 271.73135
1592.9751 275.03397
1596.6216 279.3319
1592.5446 282.49152
1585.5701 280.22263
1591.1633 289.24213
1598.9828 284.36502
1595.4384 295.3299
1599.5846 301.032
1593.7316 304.62354
1598.3347 308.36014
1603.3059 307.33133
1607.7812 308.65274
1611.6517 310.5389
1613.6302 303.43616
1612.373 297.16412
1607.8207 302.61954
1605.9048 297.0413
1601.9847 292.58636
1610.7751 290.4269
1617.8942 295.18466
1618.6427 302.87918
1622.0396 307.13107
1627.6697 304.6115
1624.2372 299.64453
1623.3577 292.69815
1630.3099 295.84232
1636.865 294.81152
1641.2959 299.69943
1647.5902 296.62186
1655.6986 295.5575
1663.3057 295.95627
1670.7314 299.1897
1666.1921 306.67813
1672.7656 305.62573
1673.985 311.51035
1674.3279 317.9537
1680.6973 315.07697
1680.7598 309.1032
1678.8287 303.53137
1679.6223 298.31287
1680.4733 290.92798
1670.0853 284.01477
1662.2637 278.857
1665.7085 264.763
1673.1104 254.4861
1671.8778 247.13261
1677.0963 234.79549
1686.1787 222.28093
1698.1858 225.76634
1709.6323 229.24464
1713.034 235.65964
1720.1268 234.05139
1720.3624 225.57806
1715.4985 227.24556
1706.2198 223.8904
1706.58 216.22227
1713.2897 220.82854
1713.9679 213.13078
1720.9731 213.71089
1717.7817 207.00285
1709.4978 204.80534
1702.0703 206.45575
1693.3589 211.22894
1686.4247 201.1782
1694.1272 202.49236
1696.9183 197.99712
1691.2667 188.97696
1688.0763 182.18283
1680.4907 187.15332
1677.4641 181.73047
1670.4076 189.57062
1668.3333 180.67319
1661.8068 167.51495
1669.8748 165.66559
1672.2417 159.6666
1677.9968 159.32724
1686.845 164.48924
1692.6637 162.32355
1695.7787 151.97334
1702.5465 156.01108
1707.5951 159.7452
1700.3021 164.47687
1705.0264 172.82295
1709.1035 166.53029
1714.8744 162.77509
1716.6458 171.46129
1710.3616 179.33943
1698.3641 180.9399
1706.7854 187.26796
1710.9158 194.14217
1717.9052 188.82896
1727.134 189.88672
1719.9623 179.89221
1727.4937 179.31885
1732.9628 174.09222
1738.4082 171.40038
1743.4833 173.20602
1740.0842 179.64098
1746.8171 178.16283
1753.0742 180.55016
1745.6166 185.3149
1733.479 184.70273
1738.5127 190.08795
1735.4868 196.7011
1745.2258 193.82545
1747.922 200.0495
1741.3246 203.70384
1738.4495 209.98248
1732.2673 205.9863
1726.7708 197.84483
1725.6244 209.33762
1731.366 211.92284
1739.0813 216.46112
1734.0547 218.43459
1729.5842 219.10301
1734.0039 225.64117
1740.4929 222.59502
1747.3867 220.12553
1747.991 226.49423
1751.8094 231.22304
1757.8208 225.3757
1757.3198 233.29419
1760.8661 237.6832
1769.2312 240.6423
1774.0663 243.44823
1775.8088 247.89696
1780.6409 240.07587
1784.2146 236.15443
1780.9838 244.94493
1781.2891 250.60548
1785.7864 255.04985
1792.3567 258.35107
1790.3704 264.14386
1791.8773 269.7408
1789.8085 275.43878
1783.0126 277.54962
1779.5566 282.7522
1788.4148 282.91058
1785.5013 289.6202
1788.9407 297.16333
1793.4923 291.34964
1800.6482 293.17838
1805.7625 287.93924
1800.3628 286.52466
1794.9955 284.9812
1795.5846 279.4348
1798.366 274.82993
1803.5624 279.9589
1805.855 273.38614
1812.422 272.40753
1811.9327 278.5875
1809.0088 283.5254
1814.009 285.41174
1819.5493 286.87823
1818.4396 280.43127
1818.5916 273.28342
1818.3147 265.95544
1811.892 265.87466
1806.8983 263.59592
1802.9973 267.70068
1798.0043 269.45688
1796.8804 263.19086
1801.9299 259.98383
1799.9404 254.54955
1799.6453 248.73735
1794.3914 246.97797
1792.8938 252.90277
1788.2002 248.32433
1787.0186 242.51869
1794.346 241.3447
1790.4661 236.92447
1792.4674 231.63815
1786.4641 230.42181
1791.6516 226.04251
1795.2982 221.75288
1795.1029 216.33641
1801.3003 217.97119
1802.0365 224.69778
1797.6342 228.11455
1797.3396 234.882
1802.1747 236.86282
1807.2131 238.4856
1801.3234 242.75775
1806.1803 248.79271
1807.7727 255.27165
1812.882 258.26178
1818.8893 258.32272
1817.2112 251.22792
1812.6661 247.19992
1810.2983 242.10918
1818.0775 242.80908
1817.9203 234.59154
1817.7782 219.88628
1816.6516 226.65956
1811.0739 233.6412
1803.9758 231.13474
1809.3611 226.617
1806.6101 221.04768
1810.2844 217.81215
1814.5768 213.97456
1819.202 210.21333
1813.9897 207.00258
1818.7239 200.68742
1812.9677 200.07097
1807.3004 200.26764
1808.6588 205.15782
1807.5927 211.71368
1801.0608 212.07315
1795.2789 211.37395
1791.5425 208.41911
1792.0662 204.18153
1791.4255 200.23643
1793.6686 195.99608
1797.0935 199.55974
1796.9443 206.24496
1803.6138 207.18816
1801.0729 203.4341
1801.9022 198.70926
1805.4092 195.40901
1800.0175 192.87575
1803.8867 188.26822
1804.8372 182.46802
1799.8773 177.5869
1790.5403 176.41478
1791.5754 185.27132
1797.3882 183.6407
1794.9286 190.49771
1788.9567 193.82425
1785.547 189.33804
1786.6611 181.80602
1781.501 183.90471
1777.3655 187.0036
1777.869 192.15253
1775.601 198.51183
1782.4315 195.54889
1785.9939 199.36171
1786.5553 204.38345
1787.1261 209.87454
1789.5398 214.15489
1788.5955 219.14832
1786.0782 224.218
1780.2479 228.43884
1781.2319 219.79807
1782.984 214.19705
1782.1102 207.83534
1780.3219 202.31676
1775.0413 206.32672
1768.5992 210.06084
1776.2462 213.13548
1772.5508 217.59557
1775.4811 223.30159
1771.4376 227.69199
1774.8197 232.64087
1775.369 238.2259
1766.8672 234.53964
1763.8849 228.68661
1767.3365 222.75221
1764.1543 217.83092
1761.7511 212.19658
1755.1649 219.32486
1754.3444 212.43704
1746.4099 212.8228
1751.8467 205.79944
1760.5022 203.80069
1768.255 202.12952
1769.7026 195.04034
1771.556 188.01357
1774.5022 181.39934
1765.4454 188.60059
1761.6766 194.80995
1754.7825 197.92522
1753.4592 190.10971
1759.6984 185.00389
1759.8005 177.04239
1766.561 180.69188
1771.5741 175.60222
1767.348 170.4476
1761.3967 169.02875
1756.1459 166.91998
1751.8326 173.24733
1748.7455 166.589
1742.2301 165.99857
1738.728 160.36221
1736.7966 154.87714
1740.1703 148.20969
1733.9204 144.60196
1732.6172 150.22426
1730.1277 155.37369
1729.7312 161.21564
1733.421 165.19325
1726.0773 170.1939
1722.2203 163.83936
1724.1163 156.67224
1725.9111 150.29712
1717.9341 157.40019
1712.9596 153.86786
1707.3252 152.77519
1710.09 147.41472
1719.842 150.61697
1716.411 146.1067
1715.7783 139.95042
1708.9951 141.82048
1709.8916 135.78813
1717.5173 132.20343
1711.2128 130.46574
1703.0176 136.50507
1704.4144 130.5968
1703.3673 124.827225
1698.7998 124.78133
1693.5054 122.610886
1697.2706 117.274445
1701.8662 116.59119
1704.6746 119.70044
1709.8884 119.528366
1708.3123 125.357185
1714.075 125.402885
1719.6105 124.90902
1724.0138 128.77252
1722.7852 136.12914
1722.3962 142.34926
1727.2292 144.75821
1730.797 137.29698
1730.4587 130.15005
1728.6938 122.8854
1722.9266 119.45211
1715.9412 119.39964
1713.1702 114.31754
1706.8931 112.6519
1712.2533 108.71675
1710.1561 103.132484
1707.7571 97.26033
1700.3469 95.213554
1709.1456 91.88375
1712.318 87.32795
1716.4304 83.48101
1721.9353 86.194176
1727.5299 89.93731
1734.0183 92.56044
1739.4071 97.89114
1733.403 101.010864
1726.877 99.00997
1721.4854 94.69428
1715.1619 94.49792
1717.7997 101.78294
1719.7935 107.77758
1719.9515 114.26113
1725.5107 111.61129
1728.9807 106.89897
1729.9868 116.232834
1735.2599 113.51911
1736.3905 107.3518
1741.2794 104.08059
1745.6332 108.67749
1752.9968 116.0115
1751.6952 106.86449
1754.2778 100.113266
1761.5188 100.4034
1759.3778 107.08796
1755.5157 111.956154
1760.0277 114.55443
1764.8529 114.97051
1761.1674 121.551834
1755.1847 123.44817
1748.7262 119.7517
1747.3173 114.768745
1740.9808 113.014435
1735.7439 120.51152
1738.634 127.0736
1742.2156 120.713455
1747.563 124.93939
1748.0105 130.0117
1738.8248 133.24277
1739.1931 140.49973
1746.5587 144.89444
1746.237 137.69603
1753.0455 134.83397
1758.3608 131.65065
1764.3982 135.6657
1760.7076 140.25418
1755.1458 142.11191
1752.2109 148.835
1744.5537 153.42781
1745.9036 159.8226
1752.1858 155.27727
1752.5052 161.6569
1758.5361 159.39758
1764.5107 161.40814
1772.5953 163.4641
1776.2057 169.69826
1780.7761 176.37279
1783.5269 168.53708
1790.8798 169.29817
1796.3779 165.98741
1799.4703 171.9128
1803.2854 165.25185
1809.7998 165.82451
1809.2275 171.53096
1808.0363 176.4318
1811.8138 180.95468
1811.8386 187.00404
1809.2281 192.65233
1815.1337 194.15575
1819.1249 190.1524
1818.3705 182.82706
1817.6062 175.96211
1817.2466 168.67831
1817.4983 160.56175
1809.6726 158.94307
1803.325 156.00983
1807.2822 150.97273
1813.4648 151.00883
1818.8716 150.6702
1815.8684 141.2186
1817.7051 133.00197
1811.4462 128.57283
1808.0992 134.71985
1801.7778 138.93828
1806.8961 143.84247
1799.7372 149.83528
1796.1565 144.21225
1794.5234 136.81317
1788.926 139.53017
1787.5171 133.1514
1788.4028 126.44379
1781.7305 127.769775
1775.9456 129.50264
1775.9441 136.06947
1781.3877 133.89178
1782.0183 140.3617
1786.7831 144.93486
1790.0457 149.02309
1792.2894 153.10687
1796.1635 156.18727
1799.5394 160.48477
1792.2463 160.9712
1786.8595 160.62843
1780.4432 160.21379
1784.1241 152.70363
1779.526 147.65558
1775.7039 142.18893
1772.7443 147.95432
1775.9226 154.90114
1769.059 156.60626
1767.0117 150.99727
1759.4886 152.22185
1762.0765 146.53075
1767.6902 143.13033
1770.449 138.44177
1770.2383 132.42612
1770.5544 126.39289
1764.1512 128.36572
1766.7507 121.13665
1771.147 120.21934
1775.0566 121.43067
1778.5258 123.2512
1784.4667 121.738716
1780.1788 117.21215
1774.7754 115.40378
1769.5598 113.92633
1780.1807 111.58775
1777.9323 106.21389
1772.9371 109.1374
1765.9993 107.617744
1764.1836 94.61501
1761.6111 88.573326
1755.3535 93.31568
1754.5557 87.07757
1758.4788 82.21987
1751.7747 75.82867
1751.3899 81.38703
1748.0028 87.52842
1748.2206 94.98686
1746.899 101.39544
1742.179 92.30792
1739.0548 85.41067
1732.2253 83.72184
1726.753 79.06913
1719.7238 77.487595
1720.5582 69.70203
1726.108 71.94333
1731.4137 68.56477
1725.984 65.39031
1721.4104 63.060883
1714.0823 66.223114
1715.5208 71.401405
1711.8676 74.25092
1705.8256 73.07863
1701.0973 75.97796
1700.2068 82.58674
1710.8705 79.31353
1706.4502 82.88934
1702.884 89.289406
1694.4453 86.34157
1694.8671 93.55514
1688.7749 93.21161
1686.7008 87.342316
1686.3506 81.549866
1685.5374 75.140945
1693.5935 78.625435
1694.5151 72.3418
1700.4865 67.93528
1707.7903 67.580025
1711.4615 61.290253
1713.134 56.54901
1717.3005 61.22337
1719.9705 55.75706
1719.6223 50.11095
1725.4557 51.801884
1725.5074 46.233345
1729.8314 42.17368
1733.8711 45.7213
1731.4221 50.984768
1734.2712 57.375324
1728.9246 56.08406
1725.2844 59.16689
1730.9001 61.781094
1735.127 64.62662
1738.897 61.69908
1739.739 66.19993
1738.3246 71.15221
1732.8765 75.218834
1738.7665 77.98446
1744.7688 80.766945
1744.7449 73.242134
1744.224 65.7094
1744.3494 60.9902
1748.8988 59.31223
1746.2775 55.610252
1751.9373 55.447544
1757.8615 57.298656
1764.8165 59.316822
1761.1163 63.345417
1761.6735 69.80946
1756.3385 68.74115
1755.8455 62.62244
1751.1074 63.35786
1747.7408 67.88319
1751.7407 70.54302
1758.4775 75.88957
1765.1816 81.67687
1765.6501 75.66629
1772.3359 74.5183
1773.1195 82.17438
1769.5374 87.78019
1777.21 91.59099
1771.3115 94.91057
1770.457 102.01649
1777.6193 100.00005
1784.4921 99.40207
1784.6543 106.97428
1790.2888 104.493195
1796.0151 101.402824
1791.6239 98.65713
1791.5115 93.825264
1783.9911 92.40276
1789.6862 88.96406
1790.9052 84.15923
1781.8823 85.20459
1779.0466 79.34332
1786.3828 77.98275
1793.8997 79.24557
1790.7898 71.89266
1797.7737 68.110886
1797.8962 74.29582
1804.2277 73.51699
1808.2393 68.74112
1808.442 78.25549
1809.9695 84.413666
1804.6062 85.34307
1800.6097 80.7116
1798.0009 87.92442
1798.6595 94.68376
1800.9016 101.82497
1805.3546 91.978836
1811.7423 90.726295
1811.0452 97.80402
1805.0088 98.25666
1812.5782 104.76569
1809.7871 112.1176
1804.3229 113.474266
1806.7911 104.93329
1801.9501 108.255165
1796.2977 107.810135
1797.251 114.91269
1790.8982 111.425446
1785.947 114.98475
1791.0565 119.39481
1796.7566 122.733284
1793.929 129.27496
1799.9861 131.89542
1803.7426 126.30371
1803.3961 119.489555
1810.2124 120.73164
1817.5505 124.41959
1820.021 116.884186
1815.0294 117.11081
1815.6653 111.40274
1818.8418 107.66743
1818.1072 100.93056
1817.1472 95.416824
1818.9885 90.418755
1815.092 85.575615
1819.6448 83.491615
1814.833 79.342545
1819.3103 76.37376
1813.7207 73.32862
1818.9806 69.22628
1813.9006 66.75372
1818.4486 62.57106
1812.9951 59.683865
1807.4061 60.823345
1801.9789 64.30637
1800.7565 57.17416
1798.5692 49.152042
1801.7028 43.951885
1808.3933 46.15844
1807.8787 53.12681
1817.8242 55.72658
1816.6077 49.393116
1816.9207 42.472183
1818.7953 34.135727
1811.6573 37.627235
1805.7388 38.558002
1802.0895 33.143303
1798.7666 38.999416
1793.3928 42.1715
1790.0176 48.64489
1794.7456 55.483475
1792.8406 64.64714
1789.1793 61.323967
1788.3536 55.55048
1783.667 52.8688
1779.3324 51.266575
1774.2742 51.3615
1775.3071 56.610718
1778.1447 60.954006
1783.1282 62.17166
1784.0035 69.409805
1778.9438 73.41764
1775.4607 67.51011
1767.9719 69.96733
1767.302 65.028564
1771.664 61.75286
1769.0801 55.351738
1763.5239 53.033806
1757.6002 51.26542
1752.3916 49.812366
1749.0834 45.41477
1746.2733 49.870667
1742.4567 51.873093
1742.0522 56.00569
1739.329 58.16393
1737.5375 53.697624
1737.0376 49.472122
1741.0902 46.30186
1743.1825 42.00605
1744.6346 37.00464
1749.9785 39.929695
1756.0227 37.417416
1756.1011 43.801563
1761.2356 46.954006
1762.9541 41.623096
1768.375 38.99504
1766.719 46.210464
1770.0505 49.02992
1775.3584 45.41426
1780.9065 44.249836
1772.875 41.509247
1774.7876 36.214943
1780.6042 36.98154
1786.6046 43.22638
1786.5718 37.268322
1791.3933 34.781303
1796.3721 34.155155
1798.2295 28.587578
1804.6306 26.989944
1807.5071 30.83702
1812.5928 30.962936
1815.6821 26.60369
1819.2036 22.404226
1817.8741 15.076863
1819.065 9.144232
1813.7197 8.6695595
1810.5491 15.662626
1813.5991 19.766317
1808.2827 22.319277
1801.693 23.598154
1801.5519 19.072115
1804.7727 15.580451
1809.4896 11.342786
1806.8812 7.5136943
1802.9376 10.313519
1798.8086 7.8526206
1798.707 13.884788
1794.5205 11.276961
1792.5237 7.277092
1789.398 10.663496
1785.2677 7.745631
1779.2343 8.247805
1775.5364 13.119668
1772.8572 8.162703
1766.7924 8.091468
1762.1428 12.699294
1766.9829 13.222033
1771.0884 14.137105
1772.4727 19.79309
1778.147 18.636961
1780.3235 13.905623
1784.566 12.792659
1788.3588 16.04679
1792.6613 16.049011
1796.3119 18.035461
1796.4757 21.980051
1790.0793 21.651094
1784.0667 19.195349
1785.0168 25.006628
1794.3365 25.244225
1791.1567 28.593788
1785.4232 30.914682
1778.8871 30.255165
1778.8851 23.998936
1773.2334 25.813683
1771.6768 31.337378
1766.196 32.43128
1762.098 36.226128
1757.1946 30.723791
1761.9247 27.809437
1767.304 24.941853
1766.527 18.949102
1760.8015 22.426928
1761.263 17.450842
1756.5282 15.532389
1760.727 8.108284
1755.5796 9.342757
1750.5752 8.730494
1745.7358 9.4622755
1740.7123 8.62386
1735.0642 7.983601
1729.6235 8.221949
1727.1123 13.332015
1723.6372 8.829266
1717.8818 8.264092
1710.5924 7.8637714
1712.4564 12.211581
1717.0144 13.776648
1721.6853 15.743938
1726.3329 19.780344
1732.8344 19.82491
1732.1462 13.637102
1736.6984 12.360997
1735.928 17.584576
1740.0388 15.452011
1744.6436 15.65134
1750.9115 15.625105
1747.5492 21.09292
1754.9175 22.271036
1751.0342 26.826712
1750.7205 33.215816
1744.9644 31.405125
1743.8109 25.949945
1740.1946 21.188137
1737.1062 25.621044
1738.7871 30.659924
1739.383 36.102478
1736.4283 40.90646
1734.2921 35.023712
1729.5366 35.93624
1724.3114 40.139378
1723.6819 34.700687
1726.7368 30.55282
1732.4225 29.463634
1731.8086 23.96975
1726.3779 25.33522
1719.364 22.121424
1714.0068 19.367575
1720.5903 27.640999
1717.9746 33.23103
1713.835 29.250566
1707.8658 31.883608
1711.5969 35.60904
1713.7882 40.367035
1718.5068 38.51781
1719.762 44.172222
1714.9988 45.653954
1713.9924 51.475178
1710.4756 47.278942
1705.7252 44.747814
1708.646 41.06399
1704.615 38.73506
1702.5475 34.049706
1698.5476 31.02061
1699.3044 25.235897
1704.9576 26.911854
1709.7333 23.701483
1705.5964 18.138487
1700.8574 18.540617
1708.3408 14.471621
1703.6904 9.426672
1697.0576 10.050781
1691.7164 14.620832
1688.2817 8.622646
1679.1292 8.287556
1682.9409 13.605023
1686.572 18.659325
1695.3834 19.91157
1690.7866 23.859255
1685.101 24.635128
1678.0581 28.21455
1680.4685 21.98695
1677.7703 17.801725
1675.1282 13.011381
1671.2134 8.689743
1665.4097 8.241954
1661.4324 13.5480995
1659.8131 7.822131
1655.6234 10.8313675
1648.8452 8.762099
1635.9645 9.79142
1640.0261 18.439466
1649.6937 21.82752
1651.728 16.445042
1658.7498 19.052227
1662.0988 24.623661
1666.0846 30.861414
1660.6501 35.225304
1660.7816 42.250385
1667.8828 38.01435
1668.564 25.136381
1666.3253 20.17071
1667.4325 14.378376
1671.8291 18.139326
1674.5146 23.115356
1672.5176 28.232185
1672.5372 33.54137
1678.5133 34.211407
1676.226 41.035435
1682.7487 44.318527
1681.0026 50.590183
1670.7104 47.273857
1668.6393 57.109734
1676.5302 58.114315
1683.4005 59.12636
1689.4125 61.04148
1688.7612 54.11793
1689.2332 47.85683
1692.2853 42.43402
1687.8503 38.496754
1682.0771 38.063137
1683.1959 29.341673
1686.9167 32.568943
1692.5457 29.21359
1693.7494 35.509583
1698.5353 38.91566
1699.642 44.61418
1695.6252 49.304665
1695.7515 55.888355
1703.9349 56.858727
1700.8552 52.177387
1704.8613 49.257553
1708.2489 53.809547
1706.1526 62.05436
1700.6031 61.115482
1695.691 61.69361
1693.769 66.20872
1689.0017 68.638275
1683.6764 68.39021
1678.74 67.40565
1672.8518 64.571144
1677.7877 76.67254
1676.8922 83.875946
1680.9487 89.35983
1676.8403 93.23528
1674.9192 98.40555
1683.0255 96.986336
1685.8751 102.58615
1691.4259 100.46775
1696.8856 102.38975
1702.8481 100.852264
1703.5527 106.50536
1701.1191 111.58933
1696.4291 109.43905
1690.846 108.709175
1684.5864 108.975655
1679.19 104.68704
1673.5037 104.344475
1668.2563 99.631645
1662.7794 114.46148
1666.8309 120.50463
1654.9244 133.80351
1663.9902 149.79462
1665.6665 140.22905
1666.699 133.81367
1675.5966 132.82817
1670.0356 127.08207
1678.7195 122.17186
1672.3481 115.810036
1678.2913 113.189224
1684.8406 117.75836
1691.4548 116.16938
1685.9961 126.415245
1691.8047 129.53659
1698.0006 131.9681
1686.5956 137.52782
1672.7249 139.44081
1672.1575 148.30344
1689.662 147.05484
1696.2139 144.88826
1694.0046 138.23993
1702.147 141.99402
1702.8242 148.3752
" />
</g></g></svg>
