<?xml version="1.0" encoding="UTF-8" standalone="no"?>
<!-- Created for Inkscape (http://www.inkscape.org/) -->

<svg
   xmlns:dc="http://purl.org/dc/elements/1.1/"
   xmlns:cc="http://creativecommons.org/ns#"
   xmlns:rdf="http://www.w3.org/1999/02/22-rdf-syntax-ns#"
   xmlns:svg="http://www.w3.org/2000/svg"
   xmlns="http://www.w3.org/2000/svg"
   xmlns:sodipodi="http://sodipodi.sourceforge.net/DTD/sodipodi-0.dtd"
   xmlns:inkscape="http://www.inkscape.org/namespaces/inkscape"
   width="3200"
   height="800"
   id="svg2985"
   version="1.1"
   inkscape:version="0.48.1 r9760">
  <defs
     id="defs2987" />
  <sodipodi:namedview
     id="base"
     pagecolor="#ffffff"
     bordercolor="#666666"
     borderopacity="1.0"
     inkscape:pageopacity="0.0"
     inkscape:pageshadow="2"
     inkscape:zoom="0.35"
     inkscape:cx="1600"
     inkscape:cy="400"
     inkscape:document-units="px"
     inkscape:current-layer="layer1"
     showgrid="false"  />
  <metadata
     id="metadata2990">
    <rdf:RDF>
      <cc:Work
         rdf:about="">
        <dc:format>image/svg+xml</dc:format>
        <dc:type
           rdf:resource="http://purl.org/dc/dcmitype/StillImage" />
        <dc:title />
      </cc:Work>
    </rdf:RDF>
  </metadata>
  <g
     inkscape:label="Layer 1"
     inkscape:groupmode="layer"
     id="layer1"> 
     <g>
<path style="fill:none;stroke:black;stroke-width:2px;stroke-linejoin:round;stroke-linecap:round;" d="M 
1504.0035 731.5126
1502.3618 734.2205
1504.8351 736.6415
1502.4403 738.8295
1502.3364 742.1464
1504.8635 743.6391
1501.8744 746.45654
1502.8038 750.09125
1505.7407 752.6585
1502.9208 753.92993
1503.015 756.51324
1503.2803 759.85486
1506.9386 756.3323
1509.0731 759.0149
1512.1721 756.34125
1513.7141 759.15533
1517.4457 758.3205
1520.8772 758.68756
1524.4883 759.0628
1525.7955 755.1328
1522.4977 755.3585
1519.3136 754.8342
1515.6475 754.8107
1513.2578 751.81116
1509.5872 753.9079
1510.1301 750.56287
1506.7211 750.03644
1507.655 747.4255
1505.0311 746.555
1508.6293 744.22235
1510.4178 747.1382
1512.9458 747.55634
1515.7725 748.48706
1517.0875 751.4937
1520.4302 751.2156
1523.4642 752.1018
1525.2859 750.101
1522.5603 748.1122
1519.3339 747.9601
1517.7208 745.4729
1519.7294 743.6073
1522.2631 744.77203
1525.26 746.4901
1525.1332 743.3843
1525.3691 740.2273
1522.9174 741.49664
1520.3535 740.86993
1517.9183 740.39136
1515.5879 739.25806
1513.5624 736.8279
1510.721 737.47406
1513.2179 740.16565
1516.0402 742.52216
1514.7155 745.02765
1512.1904 743.5402
1510.812 740.90936
1508.4303 741.02924
1505.7053 740.6489
1507.7971 737.7858
1507.652 734.1278
1507.2788 730.56256
1509.3402 728.1923
1507.1593 726.2215
1504.7992 727.3858
1501.9675 727.9499
1502.7343 723.4676
1505.9683 723.352
1505.45 718.9608
1501.734 719.7292
1502.6832 715.31805
1502.2067 710.6795
1505.7903 712.0606
1506.2006 715.14575
1509.086 716.1956
1509.7312 718.8503
1508.3237 721.4469
1509.6157 724.8234
1512.2264 724.08563
1512.7532 727.97595
1510.8776 731.16437
1511.3035 734.36316
1514.1498 732.48334
1516.2584 729.8839
1516.0934 726.2238
1515.2772 722.5432
1520.0667 726.9986
1520.1533 730.4371
1522.2072 732.66925
1521.2588 735.4048
1518.1244 733.2706
1515.658 735.3519
1517.8173 736.80945
1519.9169 737.95996
1522.4507 738.56714
1524.9371 737.50433
1524.8234 734.9499
1525.182 731.9604
1524.1812 729.135
1524.6118 725.91876
1524.9426 721.6399
1522.0354 723.26697
1518.7488 722.69244
1521.1283 718.9435
1516.7773 718.79675
1512.4976 720.4628
1512.9976 716.57684
1516.4976 714.5985
1513.7751 712.81836
1516.8922 710.1134
1520.6401 711.84033
1519.4423 715.2728
1522.5715 714.9538
1525.1487 714.22845
1524.8573 717.8205
1528.6525 715.5551
1528.6821 711.94025
1526.9506 712.9584
1524.3472 710.85205
1527.0924 709.13354
1524.5929 706.9154
1521.5247 708.63544
1518.8574 706.8296
1515.8882 704.79877
1518.9275 703.2915
1520.109 700.40186
1523.1261 700.2787
1520.7468 697.1716
1517.9092 696.21173
1515.603 697.88
1516.6079 700.5825
1513.0486 702.62366
1509.9272 700.7352
1512.7405 698.9426
1509.8735 696.5647
1506.3773 695.4123
1506.9214 699.23975
1506.0906 703.1857
1509.4269 704.6385
1513.2452 706.8782
1512.186 709.9932
1509.7123 712.783
1508.8138 708.31647
1505.4503 709.01245
1503.9832 706.4979
1502.1907 704.0137
1503.3541 700.4392
1502.569 697.2741
1503.192 693.58374
1502.6663 690.13586
1506.6661 690.79456
1509.1649 692.57666
1511.8773 693.4017
1513.6274 695.6379
1516.2216 693.49054
1514.3363 691.5714
1512.1125 689.7263
1509.7566 688.48364
1508.6967 685.7023
1512.6781 685.8512
1513.2347 682.67566
1515.9066 681.9873
1516.7928 679.986
1516.1713 677.6448
1515.8092 674.9721
1513.9147 672.3496
1517.4968 669.60077
1517.6621 672.47003
1519.876 674.50555
1521.1129 672.5198
1520.7211 670.155
1520.0349 667.545
1517.2563 666.17957
1516.2018 663.41974
1518.5967 661.5026
1515.297 660.0037
1513.7456 656.8846
1511.8354 658.3506
1510.9973 660.7713
1513.1815 662.6894
1513.4983 665.67236
1514.4271 668.71954
1510.3948 666.9423
1511.2124 670.1901
1509.1395 672.6332
1511.3751 675.50586
1513.5042 678.0004
1511.4818 679.9981
1509.5826 682.6944
1506.2241 680.551
1505.5283 684.1217
1505.4543 687.716
1502.2241 685.673
1502.5338 681.78564
1502.6963 678.2389
1503.2565 675.34125
1508.3672 678.23285
1506.8557 674.9221
1503.1925 671.52216
1507.2659 669.35315
1509.8611 663.44275
1507.0543 664.9212
1504.3881 667.5789
1501.7336 666.53235
1503.6411 663.3327
1502.3483 660.2714
1504.615 658.0125
1502.3698 655.82385
1501.714 652.3801
1502.7544 649.9484
1501.8265 647.53876
1502.101 645.0822
1504.634 644.47217
1504.5264 647.505
1505.5339 650.02594
1504.6522 652.9924
1506.8007 655.3059
1506.5643 660.99176
1508.5057 658.4517
1510.4495 655.4765
1509.9004 652.651
1507.6628 651.56946
1509.8795 648.675
1507.7025 648.2038
1506.769 646.1193
1507.69 644.17944
1510.2083 644.9345
1512.1403 646.6941
1512.1648 649.4473
1512.831 651.80164
1514.0593 654.1896
1516.4719 656.50446
1519.017 657.6058
1521.4172 659.5971
1521.868 655.0498
1519.0001 653.6877
1516.2572 652.13715
1520.6554 650.5106
1517.9784 649.6115
1514.9832 648.64246
1513.693 644.9678
1516.1068 644.2989
1517.4464 646.6207
1519.4806 644.36993
1520.7747 647.17505
1522.6858 644.8226
1525.3451 644.4703
1525.7843 647.46027
1523.8367 648.44495
1523.4506 651.2289
1525.2305 653.2362
1524.5056 656.89734
1525.4287 659.95844
1523.3778 662.18933
1520.5818 664.2508
1522.775 666.6863
1525.0536 664.46216
1525.6255 667.6377
1523.5175 669.4724
1525.8 671.0255
1523.4537 672.2424
1525.0588 674.1619
1525.178 676.7806
1522.4247 675.7224
1519.0624 676.98444
1519.7112 679.9344
1518.9624 683.26666
1521.137 682.5227
1522.6909 681.19855
1522.0616 678.36316
1524.1829 679.22516
1526.0524 679.57806
1525.2701 681.9523
1524.1813 683.9429
1521.7244 685.32416
1519.064 686.5939
1516.3947 684.47754
1516.2543 686.8282
1514.8622 688.74884
1517.7438 690.0754
1520.593 688.8421
1519.3356 692.7569
1521.893 693.8578
1524.1025 696.06976
1526.711 693.57306
1524.783 691.7077
1522.4971 690.46204
1523.7686 687.6201
1526.03 685.92145
1527.2129 688.9032
1529.479 691.5085
1531.0991 687.89545
1534.9694 688.787
1532.8876 691.30054
1536.1346 693.6411
1532.344 694.838
1529.3876 695.3753
1527.3761 697.2512
1525.883 699.3599
1526.5322 702.59033
1522.5403 704.2056
1528.0818 705.6455
1529.9116 708.23474
1532.5326 707.78174
1531.3059 710.987
1531.4022 714.4999
1533.9808 713.618
1536.8553 715.43085
1536.9418 711.6939
1540.0149 713.59186
1541.5807 710.8343
1543.8495 713.4957
1541.5483 715.9077
1546.4038 715.5606
1550.2802 715.6281
1550.0045 712.89777
1549.4994 709.51556
1546.995 712.3846
1545.3455 709.5765
1541.9601 707.2967
1538.8241 708.4932
1535.5615 708.3046
1538.5211 704.4254
1534.9003 701.73126
1534.3433 704.81354
1530.8767 703.163
1530.1912 699.5376
1533.7524 698.02094
1538.3494 696.482
1537.2715 699.59515
1540.6399 700.95844
1542.6694 703.62036
1546.0227 701.5527
1545.1296 705.8919
1547.9335 705.57385
1550.8132 705.70074
1550.1384 700.8198
1552.924 702.6346
1556.4742 701.4789
1554.2179 697.3165
1550.3086 697.2784
1552.1 693.93164
1552.2659 690.789
1548.3182 691.50446
1544.5015 692.78186
1547.7567 694.7515
1545.9357 697.7066
1542.3273 697.99945
1541.5402 694.6156
1540.3151 691.859
1538.2681 689.9843
1538.1831 687.2511
1542.1096 688.4804
1545.1461 688.6248
1547.682 687.9616
1550.1448 688.29663
1552.7413 687.6239
1555.4998 688.3152
1558.5336 688.01874
1561.0817 688.82196
1563.713 687.3089
1563.4565 690.3619
1559.7631 691.50995
1555.7441 692.04364
1558.0414 694.1932
1560.5343 696.35626
1557.5609 697.61066
1560.1665 700.3909
1563.5624 701.25214
1565.8074 703.7899
1561.3389 704.3051
1561.3121 709.60046
1557.495 709.6139
1558.3137 705.6463
1554.9484 705.75684
1553.2792 708.5732
1553.3688 711.57916
1553.4745 714.8329
1556.6349 715.844
1556.8295 712.8048
1559.9115 714.5562
1562.9802 713.7069
1566.9324 714.77637
1571.7247 714.7904
1570.9227 710.34686
1566.4706 710.7989
1563.959 707.208
1567.5818 706.9485
1570.6057 705.7318
1573.362 703.513
1575.0591 706.93317
1578.4299 709.88745
1574.9222 710.9723
1576.3013 714.80054
1580.8788 715.17395
1580.2883 712.4758
1582.1089 709.0364
1579.3164 706.288
1577.5239 702.7969
1580.1609 699.3966
1577.0928 697.9775
1574.4642 699.99915
1570.989 700.515
1567.9565 701.3964
1565.6636 698.6451
1566.9417 696.1284
1563.0009 697.52435
1562.357 693.7209
1565.3062 694.53314
1565.5382 692.1342
1566.6965 689.8179
1568.0321 687.6016
1569.8419 690.8269
1569.3124 693.8299
1569.387 697.4993
1572.8368 696.33154
1573.563 693.05365
1572.9539 690.3451
1571.8225 687.5829
1575.3264 688.4995
1578.3307 687.7399
1580.3689 690.8689
1577.321 691.70856
1576.8406 694.8168
1580.553 694.81775
1583.0496 696.5507
1585.7657 694.61755
1583.7572 691.8523
1582.2203 688.04034
1585.8042 688.0143
1587.8917 689.7314
1587.5951 692.39233
1589.7104 694.5327
1592.0472 693.2354
1594.6045 693.65906
1596.9176 693.30597
1599.409 694.17377
1601.3181 692.4318
1600.696 689.29034
1598.836 691.2749
1596.3955 690.4402
1593.6926 690.614
1590.8792 690.625
1590.3398 687.59607
1594.4711 687.7497
1598.3302 687.73016
1602.395 687.39655
1603.3611 690.29834
1606.2448 690.2022
1605.571 687.57404
1604.6262 629.86633
1601.7913 628.8862
1605.5116 626.12573
1608.3878 624.5017
1611.5106 625.1
1614.5524 623.40466
1618.0513 621.5834
1620.144 617.6713
1621.3273 620.7926
1624.1445 621.0879
1625.3126 618.82294
1622.9558 617.3486
1621.4794 614.68677
1623.9978 613.6394
1622.6332 610.2661
1625.0627 610.7127
1627.0737 612.4623
1625.8258 616.4541
1627.5378 614.7581
1630.8011 612.38245
1629.2167 610.6922
1627.3535 608.9283
1624.705 607.63226
1625.6389 604.69354
1628.3499 605.4693
1631.4249 604.3229
1634.1492 601.93085
1630.475 607.7906
1632.6875 609.7255
1634.266 606.52075
1637.4111 604.4822
1638.1509 601.18524
1641.8772 602.6837
1643.6499 599.94635
1640.7012 599.19977
1634.9839 598.19574
1639.2754 596.7029
1643.1559 595.8104
1641.0964 592.82947
1644.4353 591.6076
1642.8876 588.5228
1640.127 585.67633
1636.2834 583.3322
1633.207 582.10205
1629.7108 582.5929
1625.7078 583.676
1624.686 587.068
1623.0637 589.6192
1620.3877 592.09155
1622.0043 593.9618
1624.5387 592.3862
1627.8943 592.87024
1627.6515 589.38074
1628.4937 586.2434
1631.6798 586.3833
1634.2262 587.68365
1637.2327 587.5205
1639.5449 589.9451
1637.4788 594.24786
1635.5829 591.2998
1631.3231 591.047
1633.5435 594.4586
1630.8074 596.4383
1630.0643 600.5085
1626.5215 602.0584
1624.8008 599.7263
1627.5868 596.64355
1624.8005 596.3578
1622.2317 596.53143
1618.8402 595.59033
1616.1311 597.2697
1618.1157 600.7699
1620.7977 599.04083
1621.3245 602.5153
1622.9741 604.91943
1620.9315 606.8228
1618.3009 605.2042
1615.9114 603.50214
1615.1498 607.15204
1617.807 608.59894
1620.1982 609.58057
1620.0182 612.134
1618.4606 614.5753
1617.6298 617.9997
1613.7373 620.1981
1610.2579 621.2668
1605.8771 621.6198
1602.2256 624.7002
1601.8147 621.1404
1600.4292 618.14417
1603.2804 617.51276
1606.3397 617.8434
1609.6982 617.8415
1612.4476 615.93225
1615.0441 617.8152
1615.4607 614.5038
1616.5277 611.4745
1613.9221 609.81195
1612.442 612.28046
1609.4785 614.1724
1606.4514 614.1971
1603.5435 614.4768
1600.2676 614.38654
1602.1907 611.97845
1599.6377 610.5543
1600.2153 606.81036
1602.5161 608.8403
1604.7571 605.6248
1605.219 608.64514
1605.4126 611.3613
1608.9336 611.03253
1607.9769 608.07214
1611.2654 608.20166
1612.7133 605.1717
1614.954 600.37164
1612.1262 599.0677
1612.0533 602.2844
1608.8538 604.8872
1608.4026 601.3414
1604.3647 602.5031
1600.2268 603.73676
1578.3737 592.92615
1575.0048 593.3761
1577.6318 595.52625
1576.5654 598.25543
1573.6755 599.4781
1575.2866 602.18555
1571.5862 601.5919
1569.4598 603.4277
1572.6768 605.5548
1570.4762 608.96295
1566.7864 608.576
1567.8363 612.92444
1563.8845 616.9232
1562.1406 614.6341
1562.2372 611.7718
1565.2288 611.91943
1563.4965 608.20984
1560.6434 609.92566
1558.381 612.9867
1559.4474 617.1079
1559.593 620.3523
1556.1943 621.90393
1555.8733 619.07025
1552.8009 619.00574
1553.3911 622.2729
1551.3026 623.94916
1548.4718 623.9724
1545.3846 624.1471
1547.108 620.9095
1550.3247 620.9998
1549.3345 618.01874
1548.7968 614.4746
1551.4653 613.99744
1552.365 616.34094
1556.044 615.88135
1554.522 612.8421
1550.9081 611.2679
1553.5978 609.3421
1557.1992 609.5283
1559.7596 607.6053
1561.3369 605.83044
1557.9749 605.46014
1555.0249 606.34515
1553.8363 603.2155
1553.9849 600.4459
1556.737 602.4002
1558.2836 599.04407
1562.051 598.7981
1559.8503 601.8833
1561.7076 603.5383
1564.5874 605.2191
1567.5911 605.1358
1564.3265 602.2886
1564.7576 599.74835
1567.7059 600.3013
1570.2673 598.0498
1566.2356 596.91907
1564.1952 594.90796
1561.3866 595.61847
1558.4689 595.6936
1554.6711 597.91516
1554.9535 595.14557
1556.6243 592.5222
1556.3794 589.3927
1551.7338 588.4113
1552.8362 592.0682
1549.036 592.60736
1547.019 596.3465
1551.0723 595.93823
1550.6235 599.082
1550.5161 602.59875
1551.9976 605.312
1550.2192 606.95844
1547.3579 606.84143
1548.4912 609.89716
1546.1401 611.8565
1546.1029 614.51025
1546.2754 617.1453
1544.7245 619.18695
1542.8744 621.3958
1541.6162 625.2459
1539.9448 622.9245
1536.3981 624.53815
1530.6802 623.45703
1525.7976 622.1824
1528.1525 620.17096
1531.3735 618.21204
1534.0791 621.4137
1538.1614 619.93524
1535.3741 617.00006
1532.9683 614.1773
1533.1373 610.50525
1536.9736 613.1707
1539.2721 615.96967
1541.8672 617.9317
1543.193 614.71124
1540.7322 612.55133
1543.2245 610.709
1544.9481 608.5185
1539.631 609.45654
1536.5374 609.80994
1538.042 605.5973
1541.485 607.0096
1544.2878 605.40186
1546.9518 603.75085
1547.9641 600.5944
1543.9008 597.8207
1544.7944 600.8465
1542.0996 603.19434
1538.8184 602.2719
1540.671 599.1657
1536.3909 599.45325
1532.4478 598.72687
1528.8972 598.58545
1528.9797 602.4317
1531.7803 605.0172
1534.2716 602.6924
1534.762 606.8327
1530.6692 608.201
1528.1827 605.66327
1523.7402 604.7075
1525.0789 601.4925
1525.0764 597.72437
1524.0181 594.66016
1528.4109 594.75055
1526.1919 591.08075
1523.0996 590.8851
1523.9777 587.8564
1525.0027 585.944
1523.4829 583.0606
1520.3541 583.2757
1521.2249 585.64
1521.1653 588.1487
1519.773 589.9885
1518.3779 591.92926
1521.1191 593.3702
1517.821 594.873
1519.8406 596.9893
1521.4915 599.7344
1519.4954 602.8543
1516.4579 599.5338
1514.3059 602.85486
1516.8888 605.80023
1518.2812 609.1621
1520.7012 606.8604
1523.262 608.75195
1526.2151 607.7283
1528.7477 610.3708
1530.0249 613.04095
1528.7346 615.65247
1526.6971 617.2489
1524.2898 618.6434
1522.2628 620.57
1521.5568 617.39514
1519.2225 619.06256
1517.0059 617.12067
1518.9169 615.6221
1521.2949 614.4209
1524.1006 614.95917
1526.6338 613.39404
1525.6234 610.9977
1522.9529 611.79504
1520.5768 611.2306
1518.4473 612.5791
1516.3041 613.74854
1515.0159 615.62067
1512.4128 614.09515
1513.5691 612.45825
1515.7789 611.04565
1514.449 608.6753
1512.3583 606.5586
1511.1017 610.6292
1509.1013 607.93555
1510.3999 603.7757
1507.259 605.2565
1505.3191 602.85925
1507.4209 601.2743
1510.2499 600.27234
1512.4944 598.249
1514.5425 595.62787
1515.285 592.6679
1515.8947 590.0668
1514.5931 587.67694
1517.9491 587.98395
1516.8324 586.00415
1518.3447 584.3764
1515.9834 583.3439
1513.7578 582.2453
1516.0586 579.39044
1518.3475 581.176
1521.3202 580.8888
1523.004 578.72815
1521.9479 574.9666
1521.6544 570.4681
1517.5192 567.04974
1522.02 565.74963
1523.8405 560.53674
1522.0581 556.68634
1517.7169 557.3644
1520.4121 561.0654
1517.1359 562.77277
1513.5607 559.8127
1513.1062 563.63635
1512.2354 566.69464
1514.3329 569.49194
1514.0922 573.5751
1517.6614 571.65234
1517.7036 575.31836
1519.4779 578.0416
1513.9219 576.89404
1512.551 580.0548
1510.1887 578.5242
1507.1914 578.5634
1509.5767 582.30505
1512.8036 584.844
1511.9078 588.0657
1509.5759 586.0487
1505.8202 588.4654
1506.9933 592.72437
1509.1373 589.917
1512.4187 591.3749
1510.7212 594.2106
1508.4618 596.6933
1505.8132 598.33344
1504.0908 599.73816
1505.1216 595.7454
1502.6218 595.6012
1502.9958 592.76587
1503.8218 590.3454
1501.2787 589.8502
1501.3817 586.52246
1503.7583 584.74786
1506.7953 585.24524
1505.5731 581.7528
1500.8259 581.9952
1500.5353 576.5144
1503.6448 578.34784
1505.366 574.8137
1500.6189 573.2754
1499.7327 568.1711
1501.155 563.7617
1500.9963 559.9805
1501.6102 556.1388
1505.8197 555.97614
1504.637 559.12103
1504.99 562.7894
1504.1029 566.6355
1502.6509 570.7544
1505.8972 570.0848
1508.0529 572.6494
1510.2311 575.3283
1511.3607 571.6645
1509.4849 569.0533
1507.874 566.0726
1509.2849 562.857
1508.5355 559.73193
1509.8169 556.6668
1513.6528 555.6878
1511.2194 552.57874
1508.2339 553.45026
1505.6158 551.54596
1503.7936 553.73346
1501.4846 551.88715
1503.1711 548.20996
1506.024 548.6267
1509.33 549.9147
1508.5236 547.2712
1511.7759 546.65796
1515.1401 546.1357
1517.2048 541.6553
1513.7876 541.9378
1510.8578 542.7815
1507.8507 544.64594
1504.565 544.8398
1505.1458 541.1834
1508.4744 540.8368
1508.894 536.60876
1512.7432 537.7032
1516.8236 537.1727
1516.9602 532.4696
1512.4067 532.33575
1516.8124 527.8559
1521.2279 524.54846
1525.2233 526.937
1525.8853 521.82996
1530.2557 519.698
1533.2622 521.31464
1533.3278 524.0958
1529.198 524.47974
1531.7487 527.0407
1529.0906 529.0722
1529.4412 533.6495
1532.152 535.958
1534.8007 538.71985
1538.0238 537.34503
1539.8586 539.6048
1540.1738 542.65405
1536.6521 542.11725
1533.4844 543.189
1531.6953 539.2435
1528.3225 537.6127
1525.1155 539.6585
1524.9093 535.2717
1526.3792 531.63055
1521.8907 530.1153
1520.8191 534.33057
1521.1414 538.2684
1521.119 541.9494
1524.3641 543.47876
1527.4407 542.8071
1530.1791 541.61554
1526.6996 546.82355
1522.677 546.45526
1519.1497 545.25586
1520.965 549.91064
1517.7219 548.72284
1513.6255 550.3673
1516.5181 552.6113
1520.0396 553.5596
1523.873 552.68134
1525.4716 556.19806
1527.5057 553.2568
1524.8685 549.4987
1528.7234 550.76575
1532.5564 549.69073
1529.8906 548.20526
1529.95 545.1466
1533.1898 546.6315
1536.5514 546.41174
1540.0305 545.6589
1543.3973 544.3758
1543.403 540.5342
1542.7183 537.1147
1542.6787 533.861
1539.2621 533.5421
1536.4543 530.63544
1535.7124 534.59705
1532.8202 532.64624
1532.9542 529.9088
1534.9199 526.85065
1538.038 526.53845
1539.7537 529.091
1542.6068 529.95966
1542.1694 525.1553
1539.4276 521.4761
1536.9934 523.28235
1535.6859 518.63354
1542.8221 520.1777
1540.4216 517.4602
1532.0391 485.36865
1536.0588 484.7846
1539.1564 484.97357
1542.7886 485.47983
1542.5435 482.5386
1539.2739 481.24118
1536.2125 480.2273
1533.917 482.74493
1530.3579 481.8229
1532.6672 479.69186
1531.5654 477.1146
1531.0958 474.19257
1528.0798 477.457
1526.0508 473.21835
1528.8463 471.44006
1532.4801 470.8087
1533.0844 466.33926
1534.8865 468.44482
1535.6283 470.73212
1535.1831 473.78644
1534.7411 476.80167
1537.7921 476.4896
1537.8539 472.25925
1538.7898 469.23965
1541.0586 467.26376
1542.0162 463.86932
1544.0079 460.3742
1541.8398 457.8994
1538.0667 458.28384
1539.1334 461.39542
1539.0419 464.72675
1536.8413 466.70102
1535.9695 463.85956
1533.9474 461.97623
1535.0765 458.27295
1532.2856 458.74084
1530.1523 462.30057
1529.2195 460.26218
1529.7784 457.59756
1526.2084 456.2369
1523.1661 455.65305
1524.4082 458.3495
1526.9613 458.80215
1526.5046 461.46167
1526.1471 464.19824
1527.5776 466.80392
1530.5648 464.6731
1530.2195 468.18558
1525.1707 468.9512
1521.645 468.7677
1520.1858 465.5893
1523.119 464.89902
1523.3466 461.34964
1521.644 458.6561
1518.9409 458.97964
1520.1487 462.41174
1518.0233 467.39938
1517.9415 470.77484
1514.7593 472.66696
1512.9188 475.9244
1510.4028 473.65457
1506.6826 472.6062
1505.6215 476.03296
1508.8499 476.8721
1507.8533 480.64355
1510.9764 480.01993
1514.1267 478.9815
1516.6162 476.6966
1519.0284 474.5771
1522.023 472.44485
1524.0393 476.41388
1521.0371 478.37436
1518.1759 480.36002
1523.4485 481.086
1526.872 481.22733
1528.0579 484.8527
1523.8414 485.15414
1519.8104 484.13876
1515.8494 485.13672
1514.6516 482.07343
1511.6068 484.4173
1508.3744 484.96378
1505.2761 482.37357
1505.1351 485.27588
1501.9648 485.43292
1502.0951 481.61783
1504.1024 479.12698
1502.4215 476.55664
1502.9858 472.9658
1502.896 469.54172
1502.8173 465.6351
1502.3909 462.19873
1503.8331 459.96954
1504.8513 456.55997
1501.6576 457.0082
1502.5826 452.5217
1506.5502 454.42233
1506.8562 460.17673
1509.3223 457.6816
1512.6901 456.01624
1512.942 460.45233
1509.9524 461.96176
1512.7351 464.0349
1510.4778 466.61993
1506.8696 463.9956
1506.1686 467.619
1508.4507 469.8653
1511.7666 470.42795
1514.4751 468.4967
1515.2213 465.65073
1516.7719 463.6116
1516.8337 461.14447
1515.2878 458.63522
1516.4685 455.90793
1517.0172 452.40485
1513.2542 451.88028
1509.7812 453.33435
1506.1403 451.10864
1504.296 448.5218
1502.1729 446.2962
1502.4645 442.40295
1505.2374 440.70303
1506.012 444.92084
1509.699 445.76736
1509.3997 449.22702
1513.6403 448.23032
1517.5719 448.23474
1513.7275 444.85733
1517.0759 444.0725
1519.8115 444.33008
1522.1813 446.4624
1520.6376 450.1839
1519.7853 455.2587
1522.229 452.68143
1525.2915 452.69287
1524.8163 448.81702
1525.1823 443.9233
1522.6758 441.82635
1525.3073 438.29858
1524.9124 433.42337
1522.536 435.66028
1519.8091 434.50656
1521.602 438.72525
1518.835 439.93274
1516.78 436.34146
1516.2346 433.61935
1513.3193 438.04388
1516.0228 438.90475
1515.3138 441.7123
1512.6155 440.4943
1510.8303 442.5658
1507.8971 441.62598
1509.6528 438.58572
1512.9308 435.9191
1512.9941 433.33423
1513.5676 430.61853
1514.7783 428.38272
1519.1212 424.57877
1517.6946 427.14084
1517.427 431.11798
1520.0607 430.21524
1522.8757 430.93994
1525.2897 429.03476
1521.9652 427.34967
1522.0316 424.0588
1525.3116 425.72833
1526.4714 422.42072
1524.137 422.1607
1521.7361 420.6561
1524.5312 418.6511
1527.3873 417.8789
1525.4109 414.82532
1528.9275 413.28348
1532.3257 409.6174
1531.1188 406.55273
1527.7405 405.61697
1529.0023 409.3429
1526.1343 410.55203
1522.9702 410.54126
1521.9719 413.79147
1518.571 415.26715
1521.1669 417.38077
1518.6929 420.49448
1515.9812 422.0714
1514.3955 425.06766
1510.7772 426.49054
1510.4734 430.79996
1508.1234 428.64404
1505.3256 429.89587
1507.4451 432.90454
1510.1567 434.94174
1507.0808 436.2812
1504.9299 437.9253
1502.1001 438.36563
1503.0155 435.1842
1503.2018 432.38663
1502.889 427.90274
1506.4784 425.43317
1503.1665 423.8064
1504.7874 420.9178
1508.1565 421.58914
1511.4263 422.78848
1513.4558 419.5383
1515.9082 417.1592
1509.937 418.29782
1508.6785 414.4349
1505.9797 416.67584
1502.9021 417.5189
1504.1035 412.6016
1504.4515 408.33188
1504.6342 403.69742
1506.3949 398.51318
1507.2412 400.7269
1507.5674 403.0689
1507.6855 405.70157
1509.1669 408.19406
1508.2621 411.25128
1512.7122 410.425
1512.3762 414.964
1515.536 412.68155
1518.8876 411.11417
1520.8523 407.31027
1521.8715 403.73715
1519.878 400.63397
1517.492 397.80353
1517.7823 394.01907
1514.1713 394.9677
1514.5438 400.7913
1517.0425 403.66803
1516.8987 407.72583
1513.2325 406.51477
1511.3945 404.01508
1510.6957 401.00253
1512.2017 397.77274
1508.8296 397.83334
1509.1649 394.59662
1511.0054 391.3301
1513.9216 389.6618
1516.2899 386.43063
1519.1488 383.53177
1520.5448 386.59607
1517.5134 390.24448
1520.4651 391.03644
1521.4547 394.2673
1521.8544 397.38663
1524.1875 399.87714
1524.7574 406.7406
1525.8523 402.6546
1528.6237 400.6338
1527.4062 397.6285
1524.9244 395.60538
1527.7048 394.22754
1531.4049 395.93478
1530.7245 393.6466
1532.471 391.31326
1534.5895 394.10733
1535.9663 391.17938
1539.6344 390.9676
1543.2437 388.2522
1547.2633 387.75797
1549.9952 389.4829
1546.1447 391.54083
1543.5245 392.84048
1540.9209 394.87634
1537.8148 395.6052
1538.5541 399.9661
1536.2992 402.8901
1535.8564 399.94373
1534.5347 397.3767
1530.6686 398.39963
1532.7172 400.56415
1530.0338 403.27267
1533.1196 403.7336
1534.9042 406.5465
1538.1515 404.96048
1540.9697 403.94498
1541.9347 401.4165
1544.6074 402.40015
1547.5433 403.17407
1546.3586 398.48788
1541.0541 398.65015
1543.9275 397.10083
1548.8876 392.3894
1551.339 393.9725
1553.0712 391.68393
1553.1902 388.81226
1554.3527 386.09177
1556.9141 384.39145
1554.977 382.31335
1556.9751 379.72208
1554.2986 379.2268
1551.9539 382.76743
1550.9965 386.20087
1548.765 384.18
1545.2678 384.95157
1544.6497 381.81613
1541.3915 383.58234
1539.6188 386.6516
1536.4305 387.38535
1533.1127 388.06305
1530.257 388.88092
1529.0964 391.38306
1527.3112 388.40787
1526.2443 390.87283
1524.1337 392.35468
1522.7212 389.48056
1524.1375 387.13406
1524.7681 383.381
1521.8391 381.812
1524.3094 379.88638
1527.0068 379.35257
1530.4719 377.9081
1529.0048 382.5547
1526.5953 385.44736
1529.9254 385.8791
1533.6829 384.50507
1532.6133 380.98386
1537.4794 382.55646
1536.563 379.11063
1535.033 376.2134
1540.4009 376.05048
1541.5808 379.5868
1544.9158 375.58023
1548.508 375.011
1545.8273 378.49503
1548.0691 381.144
1551.0028 379.85086
1549.4916 377.47296
1552.0374 375.08798
1552.8915 377.21402
1555.5261 375.65225
1560.7053 329.0377
1564.1044 327.88815
1564.4667 323.99048
1560.7563 323.02896
1559.0259 325.8376
1556.3179 327.17938
1553.2463 326.1915
1551.3193 324.23227
1548.0586 324.4187
1549.0875 321.70764
1547.1326 318.97278
1545.21 320.93845
1544.32 323.21243
1542.0244 320.50027
1539.0153 320.8748
1535.9552 319.1235
1537.506 316.7444
1540.8118 317.23593
1542.2184 314.10233
1538.9214 313.49167
1535.3473 313.5126
1537.1417 310.33344
1534.3169 309.23154
1531.9622 310.24203
1530.67 306.5799
1533.8032 305.83527
1537.2351 306.6995
1539.2607 304.3086
1541.1973 301.3667
1544.8073 300.12433
1548.3119 298.3654
1544.3992 296.2043
1540.6733 297.78345
1539.5027 294.73355
1543.3658 288.18265
1540.1215 288.48572
1536.3035 292.9682
1532.9668 294.32065
1529.6599 295.25473
1528.0183 290.44162
1530.7673 291.15088
1533.8519 290.12784
1532.8046 286.9275
1537.0884 289.05414
1536.5669 285.33725
1533.4164 283.30298
1531.4736 279.95825
1528.5511 280.736
1529.8647 284.20325
1526.0813 284.51175
1528.3777 287.33435
1524.3135 288.985
1522.9066 285.3524
1523.1116 282.2594
1521.2047 279.9597
1519.3658 282.7433
1517.3608 279.95267
1515.4698 276.71365
1514.2485 278.9379
1511.3159 277.16235
1507.8202 278.84937
1508.7725 283.00208
1511.9469 281.23117
1515.3145 282.71353
1512.5419 285.3147
1513.2515 288.4181
1513.3301 291.37274
1513.6636 293.928
1512.184 296.61612
1509.5297 297.5784
1511.9503 299.50034
1515.0876 299.1021
1514.9324 296.48312
1518.0769 297.02124
1516.5697 294.29532
1516.9658 291.62726
1516.7278 288.76196
1516.4419 285.6143
1519.3391 285.82974
1521.1528 287.7148
1520.4993 290.532
1525.575 292.0425
1522.8346 294.0327
1519.833 294.1399
1522.7522 298.05313
1519.7657 298.91364
1516.8914 301.22336
1520.5698 301.5585
1524.5155 301.7299
1527.8529 304.05566
1527.4701 300.94064
1526.1658 297.9781
1526.2517 294.9262
1529.7748 298.94666
1532.914 299.0947
1535.7104 297.05145
1537.4954 300.43024
1534.9448 302.69272
1531.1611 302.74258
1527.1658 307.3811
1523.2778 308.3365
1524.7633 310.757
1528.6862 309.67825
1527.8251 312.59842
1530.5258 312.68704
1532.5083 314.37515
1533.2106 317.54977
1529.7036 316.6658
1526.6819 315.23907
1523.6696 314.1657
1520.5106 312.94
1519.1136 310.40976
1520.8184 308.45636
1524.7252 305.61786
1522.4484 303.56326
1520.8009 305.59326
1518.3165 304.0702
1515.4594 304.50104
1513.3549 302.08762
1509.8066 301.67487
1506.8207 300.29544
1506.9164 297.19724
1503.7738 301.07877
1506.8967 303.70786
1509.2327 304.99905
1512.2598 304.95953
1512.9763 308.12018
1515.2692 307.7569
1517.8093 307.51776
1515.9675 311.6051
1511.7263 310.43546
1509.6743 308.01855
1506.5377 307.57568
1502.8372 307.55862
1502.2787 304.96103
1504.3728 303.905
1501.5361 300.8965
1503.4872 298.40237
1501.9991 296.1098
1504.5409 295.68542
1508.6771 293.7303
1510.9319 293.79843
1510.187 290.14227
1508.9843 287.05353
1506.7517 291.02423
1506.046 293.79758
1502.6776 292.80292
1502.3553 289.66513
1505.379 288.49072
1505.6614 285.00043
1502.0028 284.8719
1503.5587 281.09103
1503.6296 277.1017
1508.2284 274.32748
1512.0344 273.39706
1515.2216 273.96588
1514.8203 270.96313
1518.0778 271.9223
1519.862 269.14194
1523.1389 270.18433
1525.0062 267.74634
1528.3242 265.87845
1530.0824 268.3746
1527.9895 271.15884
1525.3613 273.49545
1522.0991 273.14548
1520.0349 274.42563
1517.7284 275.4834
1519.4949 277.5373
1522.5641 276.96954
1525.55 280.4224
1525.2926 277.34567
1527.9307 275.9635
1530.5397 276.69043
1531.4329 273.438
1532.635 270.5737
1535.8623 270.71033
1535.7566 273.77567
1537.5004 276.5279
1533.8304 276.67575
1534.4978 279.97482
1536.7671 280.74905
1538.6888 282.59967
1540.106 285.26785
1542.8118 285.44888
1545.4363 285.93756
1548.0438 286.48416
1548.0635 283.58035
1550.7281 284.02118
1553.3386 283.6395
1553.0437 280.35492
1551.4708 276.7118
1554.4888 276.76587
1556.776 274.64563
1552.1072 271.97488
1548.9717 274.13077
1545.672 276.06326
1549.1986 279.19766
1547.0164 280.8051
1544.5575 279.22415
1541.9509 278.1851
1544.7057 282.80112
1541.7632 281.9628
1539.3262 279.01212
1541.4272 274.84814
1539.3542 272.21335
1545.045 272.35138
1547.716 269.50778
1550.6204 267.37677
1552.6102 264.52112
1552.6012 260.79077
1549.3558 262.4245
1546.3818 264.33414
1543.9608 266.48206
1542.4388 270.02203
1540.499 266.2466
1538.464 268.77133
1535.6831 267.14038
1533.053 267.11917
1532.1875 264.37384
1535.5997 262.38327
1537.6149 264.34155
1540.824 261.8736
1544.6915 260.05704
1548.5645 258.33148
1551.9773 256.7445
1555.3701 254.8562
1558.422 254.90714
1558.2057 258.7187
1555.1945 258.0764
1555.8315 261.07266
1556.0824 263.80573
1555.2812 266.5447
1558.9539 265.559
1558.7334 261.83704
1561.2096 263.18878
1564.4541 263.0447
1562.5922 265.95367
1561.5898 269.2761
1558.5248 268.86227
1554.833 269.03244
1555.7683 271.7881
1559.5735 272.53268
1563.2434 272.40634
1566.8914 272.06998
1564.9756 268.36993
1568.6027 267.98776
1567.4004 264.9982
1569.1583 262.15652
1566.5289 260.57654
1564.1559 258.25845
1561.7512 260.32965
1560.7902 257.4896
1562.0438 255.01625
1561.4628 252.21745
1565.2197 254.39224
1567.3975 256.73575
1570.0433 258.68137
1570.5795 255.50568
1569.7618 252.38855
1566.0311 251.17836
1569.8363 249.18639
1573.093 249.89537
1574.0668 247.02383
1576.5515 249.09035
1577.8972 246.05411
1579.9358 248.65752
1581.9862 250.77313
1581.4811 244.92828
1583.6841 247.56622
1586.7651 248.25482
1589.8379 248.34123
1592.4429 249.65509
1595.2195 248.94403
1597.6475 247.16582
1593.0856 245.56396
1589.0029 244.25197
1585.5387 243.37381
1591.2799 241.13254
1595.7836 242.73128
1595.1976 239.47998
1598.4133 238.76459
1601.2502 237.18484
1603.375 239.43684
1606.7021 238.08563
1606.4526 241.41988
1609.9512 241.21765
1613.5239 242.32503
1613.4331 238.32219
1616.5851 236.53938
1618.93 232.794
1620.6333 229.35011
1615.2582 231.91127
1611.2339 233.47478
1609.7689 236.67274
1605.6362 234.92996
1602.7268 200.93892
1599.4442 200.58641
1602.0769 197.88988
1605.2513 199.26202
1605.4912 196.51387
1603.5961 194.33368
1599.7668 192.00366
1600.7197 194.96027
1598.6326 197.3111
1596.6785 199.47086
1595.3683 201.33714
1593.6052 198.83401
1592.2115 201.26125
1590.7625 199.55602
1590.5397 197.3474
1588.3525 195.38466
1587.1608 197.20786
1587.6328 199.34737
1589.0388 201.2002
1585.4104 200.98422
1584.2267 198.39673
1584.3882 195.50998
1581.685 200.41599
1578.0745 200.07394
1574.41 199.8208
1570.5878 200.65364
1565.1974 201.13
1567.4768 198.81226
1571.1257 196.65536
1569.4429 193.06558
1565.6627 192.69011
1567.3411 190.28148
1567.0653 187.07854
1564.2844 187.87495
1562.6049 190.44763
1560.2456 188.13406
1557.9086 185.38705
1556.4598 188.79785
1557.7701 191.83105
1560.465 193.31355
1563.2091 193.53957
1566.9103 195.7026
1562.4858 196.36778
1562.7877 199.18304
1559.4474 200.75928
1557.9255 198.08287
1558.0922 195.24687
1554.309 195.42851
1554.6863 200.2433
1551.5801 199.04393
1548.0288 198.23041
1548.1311 201.04608
1543.41 200.36417
1545.2356 197.36087
1542.9978 195.9144
1546.8754 194.45433
1550.2839 195.43974
1550.3601 192.31012
1553.7821 191.41292
1552.0314 187.99998
1554.0966 185.4957
1550.518 184.50201
1548.252 186.79771
1549.3771 189.42102
1546.9486 191.15321
1544.5319 192.56041
1542.0336 192.18071
1543.158 189.36732
1545.7814 188.42209
1543.1738 186.2487
1543.3309 182.85272
1542.8724 178.8186
1545.2231 176.8423
1549.4027 177.40825
1551.7317 169.72217
1547.9401 168.04202
1549.6451 165.97433
1552.8466 165.89836
1556.054 164.94815
1553.4751 161.79738
1558.7435 161.01192
1555.3027 158.67326
1551.5776 157.26517
1552.102 153.22617
1553.854 149.55232
1551.7543 146.31535
1553.3092 142.55405
1552.3794 139.23877
1548.0322 139.4878
1548.8676 143.00511
1546.6099 146.50429
1548.7721 149.92471
1546.6222 153.16156
1547.7838 156.48506
1548.1177 159.93901
1550.2144 162.53421
1546.9235 163.31508
1544.819 164.80016
1543.3634 160.98686
1543.9054 157.7051
1541.6299 155.0865
1542.3485 150.51492
1542.2402 145.7486
1543.8167 141.66716
1544.2136 137.64029
1546.6624 135.42006
1547.7188 130.47745
1543.7571 131.52739
1543.7816 128.02017
1547.4191 126.34129
1550.4658 124.62196
1543.4045 124.346504
1539.793 118.66719
1542.5458 116.80224
1543.2496 119.90883
1545.795 121.865486
1548.7443 121.2319
1552.7842 121.51966
1553.7067 126.051895
1555.922 122.53153
1555.3805 117.71809
1551.3318 118.784805
1551.0914 116.3045
1546.7709 117.272575
1547.1812 113.243935
1549.9922 114.25201
1549.9841 111.75265
1549.2313 109.2867
1551.5422 107.10893
1552.3949 110.60269
1554.0828 113.6942
1558.1901 115.09586
1561.0421 113.155556
1564.159 112.003716
1566.2336 115.4761
1568.2399 112.77824
1570.5948 110.685905
1573.9531 110.17089
1577.2485 110.55189
1575.3528 115.85431
1577.098 113.812996
1580.5585 112.53821
1583.3099 107.95323
1586.6488 109.37776
1587.9072 105.58083
1591.482 105.98035
1593.0382 103.29124
1596.113 104.46713
1599.2949 104.12687
1597.4517 100.91325
1594.2306 100.33303
1590.0032 102.0692
1584.923 103.83008
1586.6293 100.7586
1585.89 97.1101
1583.0664 96.11235
1580.5132 96.17663
1577.9874 96.02785
1575.9828 97.624535
1573.9507 100.20846
1578.8561 99.75268
1582.6584 100.06598
1581.8071 104.29783
1579.1163 103.36813
1575.9951 102.6942
1579.7543 107.92606
1576.5028 106.6424
1573.423 105.95655
1571.7389 103.16533
1570.3092 107.2707
1566.5209 108.67991
1562.9312 106.829094
1567.5905 104.35803
1563.6079 102.78396
1560.1515 101.49128
1556.7333 102.243805
1558.8676 105.56554
1559.7388 109.31012
1556.5677 110.78931
1554.2454 108.59399
1555.2845 105.87781
1552.0364 104.35782
1553.057 102.02382
1557.3809 97.46207
1554.5583 99.34054
1550.6718 99.96012
1548.2781 98.84103
1545.9229 97.62748
1543.379 97.17975
1540.5121 100.366844
1537.2334 99.38199
1534.8851 97.311745
1532.6335 95.129486
1530.0574 97.24194
1532.1425 100.320694
1534.9221 102.29549
1534.2893 105.30323
1529.7751 103.85482
1527.451 100.75204
1526.4625 97.21496
1523.3947 96.86125
1521.0428 99.163155
1518.932 101.743164
1519.9756 105.81983
1523.1167 102.1739
1525.1943 105.25894
1526.7715 110.55095
1528.6042 107.57023
1532.206 107.84295
1531.0723 111.38536
1533.7815 113.278015
1536.2324 111.752686
1535.6135 109.0516
1537.8704 107.176445
1540.3141 106.71265
1538.4059 103.476036
1541.8558 103.39791
1543.7808 100.92641
1546.4714 101.59286
1549.042 102.916756
1548.8273 105.815384
1545.935 104.6238
1543.6058 105.14818
1542.3568 107.19598
1544.5873 107.79749
1547.0731 107.875885
1545.7102 110.27528
1544.3794 112.48893
1543.1367 114.346794
1542.2754 110.01521
1539.817 110.888756
1539.1921 113.51626
1539.2599 115.930046
1535.7059 115.34818
1537.1152 117.747955
1534.7517 118.59558
1531.261 118.329704
1531.6995 115.442764
1528.3866 114.56007
1524.8633 113.9847
1527.3024 117.911095
1523.7751 118.38493
1520.8335 116.836716
1518.2942 114.17149
1521.866 112.601944
1522.9744 108.735504
1518.8406 110.20581
1515.9595 108.79172
1516.2198 105.4235
1516.0707 102.38111
1512.853 105.739716
1512.4482 102.15962
1510.1063 99.57278
1514.1625 99.68172
1515.3649 96.99295
1513.5339 95.54882
1510.8549 97.306404
1507.0892 95.020645
1507.7053 91.9166
1510.9924 93.92639
1513.6984 92.02816
1517.0999 93.077354
1517.7909 97.88711
1519.8502 95.181335
1521.7959 92.51814
1525.8308 92.979
1529.0782 93.687325
1531.032 91.89391
1534.194 92.20316
1536.2047 93.79657
1538.704 95.18653
1540.4285 97.12653
1539.2561 92.05794
1542.511 93.560295
1546.0698 93.35511
1549.1305 95.17583
1552.2168 96.609215
1549.2216 91.173195
1544.1847 89.94008
1543.3906 86.26124
1547.0731 86.6447
1550.0017 86.38747
1551.6193 88.55557
1553.3905 91.22363
1554.5186 94.08437
1559.3275 94.15712
1557.9519 91.09229
1557.6504 87.60537
1554.7158 88.05913
1556.1705 84.630135
1552.7903 84.70218
1549.2626 82.86631
1543.9728 82.33014
1546.5552 79.07027
1542.9832 77.169075
1544.357 73.46854
1549.2032 73.65667
1550.391 76.77865
1550.9037 79.96656
1554.5322 81.61221
1554.7815 77.81869
1553.7006 73.75316
1557.7441 73.52968
1562.2468 72.147995
1564.1848 75.076645
1561.6211 75.730965
1558.7888 77.05064
1558.3993 80.38363
1562.8555 79.86154
1563.3486 84.479515
1559.6056 83.69537
1560.8232 87.62692
1563.0121 89.90781
1565.6533 92.527664
1568.6599 92.97927
1562.7395 94.07569
1561.8439 98.040436
1565.5773 96.29041
1568.471 97.38617
1566.0851 100.22999
1570.0884 100.26713
1573.0687 96.99339
1570.8083 95.4643
1572.0377 92.357086
1575.001 93.36827
1578.0343 92.56602
1581.2136 92.54067
1584.2832 92.90933
1587.1414 92.80883
1589.0337 95.593124
1589.7278 98.72741
1592.7808 97.6888
1596.2771 96.81425
1592.673 94.8677
1590.3341 92.35919
1593.7103 92.23788
1596.4707 93.02466
1599.6997 93.20497
1599.7214 97.03163
1600.6597 100.46617
1602.4697 103.55891
1606.1664 102.89273
1604.0614 100.57201
1603.2737 97.625626
1604.3771 94.89806
1603.6176 92.21731
1607.5599 95.5158
1609.3903 92.60457
1614.0392 92.859276
1618.2301 92.81345
1616.7653 96.1189
1619.7935 97.14399
1618.1138 98.98893
1620.4802 100.513275
1622.0292 102.09326
1624.1128 102.6358
1626.5669 103.23395
1630.3899 103.36487
1632.5618 101.29073
1631.5704 98.124374
1634.7124 98.23855
1634.4902 94.94493
1631.5903 94.997475
1629.244 96.518196
1629.4677 100.23901
1626.9019 100.62687
1624.3887 99.58796
1622.4054 97.95834
1621.3726 95.06127
1621.9509 92.426735
1624.883 90.96255
1625.3761 94.065254
1624.7979 96.48953
1627.295 97.69087
1628.8082 94.13838
1631.7864 92.05917
1627.7751 92.22718
1628.424 90.208626
1630.9402 88.92475
1627.4847 87.870834
1629.667 85.84774
1633.1753 86.17213
1633.9662 89.43926
1635.7543 91.73591
1637.9619 94.255035
1639.0286 96.88134
1637.5941 99.89502
1635.7109 102.17816
1634.0638 104.84204
1632.1366 107.03159
1632.395 110.33482
1631.7345 113.724075
1635.1804 112.82588
1636.1553 108.46091
1640.7825 107.86039
1638.1821 104.75597
1641.1875 102.983925
1641.0251 99.580635
1644.7957 99.95413
1645.9482 96.1438
1642.297 95.826195
1644.4951 92.715294
1643.9036 89.263504
1641.1489 91.64998
1638.843 89.88666
1636.8868 87.46164
1636.2568 84.268234
1631.4789 82.92411
1628.6954 82.14941
1630.1089 78.545395
1627.8982 76.044914
1627.4766 72.72777
1631.3384 73.321304
1635.6891 71.92873
1639.6289 72.79792
1643.842 71.48706
1647.0486 73.70691
1643.4453 76.33046
1648.0406 78.13519
1645.2314 80.12004
1641.8195 81.35813
1639.2817 77.124825
1634.7815 75.24163
1634.509 78.32502
1633.9067 81.514435
1638.0022 81.07259
1640.322 85.62713
1643.7577 85.91489
1645.9995 83.748825
1649.2291 82.19602
1649.7266 85.758125
1647.1982 87.9994
1649.9689 90.13831
1648.0233 92.38012
1649.791 95.316444
1648.8416 98.973434
1648.0168 102.95615
1644.3156 104.04689
1646.3887 106.89351
1644.2257 110.00053
1641.7603 113.16947
1638.6648 111.982765
1636.9639 115.989655
1632.9504 117.15986
1629.7777 117.10584
1628.3245 114.12741
1628.7031 110.48686
1629.3081 107.36806
1628.2234 104.95566
1624.5828 105.729385
1621.841 106.0442
1626.1501 108.023
1625.574 111.91681
1622.9324 109.55414
1619.1873 108.64899
1617.8235 105.806725
1614.9266 106.011024
1612.7616 102.391594
1615.7391 103.2668
1619.84 104.076485
1617.8771 101.68653
1614.891 99.83662
1613.6877 96.95262
1610.8552 96.71895
1607.2467 99.05535
1609.913 101.03801
1610.1573 104.8263
1607.2185 105.8883
1603.8641 106.56241
1600.6747 107.070526
1597.5007 107.97577
1594.3218 107.798836
1590.6599 109.07941
1594.7236 111.80989
1598.2422 111.22899
1601.6519 110.27189
1605.6003 109.337074
1603.2811 113.22479
1606.2064 113.74547
1608.0886 111.56074
1611.3866 112.531715
1609.7131 108.88224
1612.3876 107.15924
1615.5012 109.02067
1613.4325 111.114586
1616.929 112.01442
1620.214 111.99175
1622.3942 114.18659
1625.175 115.490585
1626.8563 118.18461
1623.3259 118.09825
1620.1558 118.27237
1618.7349 115.43659
1615.2261 114.866135
1616.4341 118.31985
1613.2168 118.31388
1612.3696 115.715675
1609.5562 114.921364
1609.5562 118.29421
1606.4767 116.32533
1605.4126 118.63785
1601.6559 117.6017
1599.1582 114.57249
1596.7966 117.83467
1593.7584 115.25377
1591.7991 118.42773
1586.9348 118.470535
1589.6112 115.71487
1590.5347 112.175415
1587.1227 113.20111
1583.677 112.322975
1585.1584 115.74842
1582.6183 117.550896
1579.5662 117.31306
1576.475 118.573425
1572.8685 118.01568
1572.1958 114.07168
1569.6202 117.58543
1565.6035 118.92321
1562.2255 117.91992
1559.188 120.14252
1559.6846 124.139175
1563.3885 124.153114
1564.1039 129.93973
1561.431 131.1182
1560.5033 127.86749
1556.735 127.06522
1557.5879 131.04224
1553.8107 131.07191
1551.2517 128.81317
1549.9247 133.01796
1550.787 136.68146
1555.6317 137.98923
1560.2256 140.18683
1563.5404 141.18135
1567.1442 143.07925
1565.0803 147.67834
1563.8701 144.51273
1557.1932 141.19194
1556.4735 145.45215
1560.2649 144.77553
1561.071 148.832
1557.749 150.43271
1556.3989 154.69313
1560.4324 155.76207
1563.3033 152.45222
1563.5515 158.78134
1563.2808 162.91344
1567.2172 165.93985
1566.3008 170.01337
1564.7917 173.54405
1561.1715 171.02348
1562.8542 167.06676
1559.2488 166.31804
1556.5657 169.43753
1554.4124 172.36922
1553.5869 176.8532
1546.3657 179.99396
1546.0228 185.02785
1547.3745 182.64008
1550.2928 181.235
1552.8746 179.8694
1555.0154 182.0806
1558.3662 181.7901
1557.2583 177.98376
1558.1624 173.92133
1561.639 175.90549
1561.3163 179.45833
1561.4675 182.98596
1562.5363 185.61937
1564.8862 183.71468
1567.8755 182.73557
1570.0134 184.43146
1570.3336 187.65025
1571.3114 190.54321
1573.1688 193.07336
1574.8627 195.74498
1578.0027 196.03682
1581.0999 196.75015
1577.7295 192.78204
1581.0974 192.73492
1583.7465 192.5622
1586.3871 193.19066
1587.8546 190.54938
1584.8438 189.74495
1580.5159 188.98491
1578.2772 189.80844
1575.546 190.38133
1573.6616 188.46326
1573.6108 185.21841
1575.9762 180.1277
1575.3877 176.8105
1572.9293 174.94095
1572.7555 181.5029
1570.2491 178.9664
1565.5089 180.5139
1565.4617 177.60085
1568.281 175.711
1569.8656 172.96391
1571.5508 169.89044
1576.5303 172.14651
1578.8577 176.31433
1581.5691 173.30614
1583.2139 176.3543
1581.3539 178.99724
1579.3685 181.1476
1576.8733 183.61156
1577.4126 186.75784
1580.6654 184.76483
1582.5195 187.99109
1584.2294 185.79597
1587.0326 186.94365
1589.5493 188.23064
1592.319 188.78745
1591.509 191.31693
1589.1603 192.94225
1591.2755 194.36194
1593.1768 195.70393
1595.5442 196.45502
1597.2468 194.03667
1594.4636 192.2503
1597.2516 190.16287
1595.0919 188.16182
1597.3702 185.95772
1600.0225 187.9634
1602.3901 190.31291
1605.2219 191.985
1607.8635 193.99442
1610.3247 192.7075
1611.8962 190.0835
1613.125 186.98526
1613.7554 183.75893
1617.0262 185.88448
1615.8019 189.92836
1613.4116 193.06184
1615.7593 194.61905
1613.5696 197.09438
1610.9104 196.44621
1608.2311 197.024
1606.7585 201.32558
1609.0066 199.81786
1611.8524 200.57097
1615.1206 200.09625
1618.287 200.30873
1621.3589 200.0204
1624.114 201.52002
1625.151 199.76114
1625.0757 197.61946
1622.9944 196.8354
1620.7362 195.51286
1617.8021 196.86119
1618.585 192.274
1622.1394 191.50655
1619.7081 188.17519
1620.7585 184.07294
1623.2073 187.45837
1626.1436 185.27097
1623.7979 182.2454
1620.0778 180.54726
1617.7532 178.16273
1617.1582 182.11243
1614.4174 180.00197
1611.2832 179.13863
1610.5217 182.67018
1607.6235 180.36397
1603.9792 181.6246
1606.331 183.60321
1608.762 185.48201
1609.5273 188.05913
1607.5751 190.28954
1605.3413 188.00668
1603.5879 185.89536
1601.1335 184.79796
1598.8687 182.99213
1596.331 182.97765
1596.9342 180.13664
1597.1217 177.34732
1593.8856 181.37943
1593.873 184.27687
1592.3455 186.09114
1589.6396 184.48433
1590.9047 181.42076
1587.8735 180.28017
1586.4762 183.32684
1583.1157 182.37401
1584.8804 179.59625
1586.4008 176.36914
1587.375 173.84608
1591.314 174.52422
1590.0264 177.6394
1593.605 178.59659
1593.9806 175.74182
1596.2512 174.39066
1599.0009 174.8891
1600.7332 176.91583
1599.8181 179.37392
1601.2096 181.59596
1603.0768 178.2188
1602.1409 174.47462
1605.6047 174.74821
1605.6508 177.80397
1608.5261 176.58228
1611.3792 175.38881
1614.7981 176.06549
1618.6418 175.40765
1622.5278 175.03268
1621.8208 178.37747
1624.5442 177.31425
1627.3237 176.0221
1630.7974 175.6043
1633.081 177.57655
1635.442 179.47493
1637.0288 182.49867
1635.2153 185.93219
1633.219 182.42291
1630.2362 179.57701
1626.6313 180.2979
1629.301 183.31323
1631.8448 185.9328
1629.1393 187.57959
1626.2054 189.55055
1624.7396 193.29454
1627.7329 192.51958
1629.9451 190.71822
1630.6296 193.48315
1632.6688 195.01167
1632.3982 197.66226
1629.7904 197.02855
1628.0051 195.00723
1626.4609 196.374
1628.1117 199.02536
1627.977 201.33012
1630.9207 200.41487
1633.7661 200.78694
1635.347 198.06277
1636.0836 195.2106
1634.0222 192.27942
1632.6927 189.2875
1636.0698 189.27347
1637.9059 192.09935
1639.8121 194.42964
1639.3802 197.71149
1643.7831 197.92561
1643.1741 194.79605
1642.9183 190.81491
1639.789 188.98744
1638.9789 185.7124
1640.6768 182.25673
1639.0155 178.80803
1635.9182 175.62086
1640.1753 175.37234
1643.1327 177.52605
1646.81 176.53137
1647.4392 181.67128
1644.1306 182.02979
1643.3536 186.14243
1646.8944 187.83917
1646.7737 192.56772
1647.2058 196.45319
1647.6107 200.109
1644.1223 200.82646
1640.7185 200.51073
1637.1663 200.58287
1637.6604 221.97438
1639.3779 224.89725
1640.026 228.27681
1641.2863 232.10196
1637.321 230.41861
1635.6971 233.10254
1633.3157 230.96967
1629.9557 230.46086
1631.6477 227.86551
1633.6157 226.3738
1635.9902 228.0319
1636.3674 224.95923
1633.5653 223.43593
1630.0059 224.93709
1628.0616 227.38844
1624.5797 227.46606
1625.7444 230.49103
1623.3734 232.99564
1621.3274 236.16005
1619.6979 239.53873
1623.5146 239.4638
1626.7932 239.18187
1625.7571 236.07565
1627.8628 233.25937
1630.9735 234.02818
1633.7006 235.0533
1633.0836 238.03906
1629.5039 237.05154
1630.6227 240.08426
1633.0964 241.65608
1635.4868 243.36469
1636.3713 240.15506
1636.4797 236.8851
1638.7144 233.59781
1639.5282 236.87656
1640.4209 240.2893
1639.0077 242.74011
1637.4982 245.34732
1636.9448 248.12158
1639.7804 247.20816
1641.5111 244.81882
1643.5211 242.56543
1644.2375 239.70305
1642.4109 237.76357
1643.205 235.087
1644.9172 232.16971
1643.2498 229.42679
1644.0278 226.4898
1642.3114 224.20305
1641.5018 220.86212
1644.9404 219.26772
1647.867 218.90843
1645.3813 222.4122
1647.8458 223.73918
1647.2927 226.52998
1646.8643 229.14873
1647.822 231.80737
1647.0559 234.67201
1646.8114 237.41246
1647.1887 240.42305
1647.5154 243.42833
1645.2056 245.31192
1647.9875 247.48473
1645.463 248.87303
1642.6771 247.56068
1642.6907 250.42265
1639.3228 249.76291
1639.2996 252.09851
1636.3745 251.1758
1634.7173 249.23904
1632.6348 249.08896
1632.9736 252.20804
1635.313 253.46161
1631.2667 254.60701
1629.6123 251.9577
1628.338 253.84262
1627.8885 256.12372
1625.273 256.0308
1623.0764 255.56374
1623.8632 258.01468
1620.441 259.07355
1617.1307 260.52264
1614.4093 258.13687
1613.3917 261.8881
1613.759 266.16098
1609.9043 265.2403
1608.9312 261.6096
1609.5023 258.694
1605.9083 263.84943
1602.4368 267.78857
1599.3579 265.05072
1602.4482 263.50485
1604.1796 260.34787
1605.8029 257.60138
1608.0076 254.83786
1611.5825 256.47336
1613.9451 253.89247
1616.2866 254.69269
1618.7092 254.51486
1617.3975 258.12958
1619.2114 256.67865
1621.4728 257.0241
1621.4045 253.88579
1622.9774 251.72847
1625.4512 253.52596
1626.5214 250.92026
1630.3423 250.03687
1630.7104 247.46996
1634.2546 246.35959
1632.1499 244.73672
1629.9075 243.28181
1627.9956 241.66315
1625.1056 242.63971
1626.5485 245.1163
1628.9465 245.88387
1627.1425 248.29172
1623.5046 248.9509
1623.629 246.06166
1620.1565 245.4891
1621.6703 242.78734
1617.1279 242.06929
1615.0496 245.7613
1617.5244 246.94418
1620.0317 249.13957
1618.8915 251.83745
1615.7144 250.5099
1613.1915 248.5168
1611.5681 245.11536
1605.256 244.33176
1601.3604 242.57846
1598.504 244.31357
1601.6882 246.94597
1598.4236 250.22888
1598.2264 253.34772
1601.0724 251.84
1603.2336 249.91399
1605.8972 247.94833
1608.6658 245.91501
1610.5073 249.20897
1611.4886 252.5946
1608.3953 251.04544
1605.6799 251.95581
1603.6733 254.29738
1600.2916 255.22708
1602.1135 257.42267
1600.613 260.33655
1598.2946 260.97226
1596.6099 262.55026
1595.9246 258.93253
1593.7627 260.17795
1591.3259 258.59534
1593.6671 256.4157
1598.4116 257.58215
1596.3071 255.48946
1595.1489 252.56902
1592.1813 252.72215
1590.8549 255.04031
1588.7692 251.90973
1585.3737 251.52412
1583.3911 253.58366
1581.1251 253.73705
1578.8447 253.77383
1577.984 251.58997
1575.4231 252.46141
1573.2029 253.93515
1576.1611 256.29333
1573.7156 258.06094
1572.3735 261.0665
1571.6328 264.14175
1572.7296 266.46722
1572.0416 268.92242
1570.2112 271.2216
1570.478 274.6575
1564.4181 275.58188
1560.9867 276.26013
1557.9761 277.9046
1557.3174 280.79947
1556.1545 282.9612
1560.8365 280.76035
1564.3833 279.42023
1567.2021 276.63763
1569.843 277.9835
1574.404 275.87552
1579.2909 274.2443
1576.9344 272.51532
1573.6637 272.24268
1575.3207 268.8101
1578.2402 269.03857
1580.4243 270.60114
1583.0532 271.32834
1583.2485 273.46838
1586.0314 270.70087
1589.3115 271.11072
1592.4551 276.01364
1591.7202 281.02798
1595.4731 279.3297
1598.258 275.92566
1595.8749 273.06668
1592.7307 270.97784
1591.4778 266.99805
1587.6072 267.70786
1584.2017 265.1043
1583.4663 268.28415
1581.0078 266.2499
1577.9176 266.10114
1575.3174 264.47647
1578.8119 263.10986
1575.9473 260.93478
1578.8914 257.05478
1579.2788 259.9912
1582.0645 262.52606
1582.0764 259.10175
1581.6873 256.29333
1584.1439 257.0829
1585.3162 254.98949
1587.6294 254.64172
1589.0112 257.12582
1588.5073 260.3554
1586.6082 257.9837
1584.5947 259.95428
1585.7748 262.14594
1587.2397 264.80295
1589.5397 263.70007
1591.3533 261.8913
1593.4009 263.39532
1595.3237 264.96146
1595.429 267.5106
1597.829 269.119
1599.7898 271.74545
1602.6298 272.21124
1606.423 267.82382
1607.3538 271.03354
1605.2305 272.7617
1604.0709 276.05923
1601.7148 276.97314
1599.655 279.50397
1600.3495 282.44852
1597.3013 283.36325
1594.0413 284.3373
1591.244 286.60336
1593.2773 288.82706
1593.6633 291.4643
1591.405 293.0238
1595.9221 294.05872
1599.2393 295.35983
1601.6812 297.666
1604.8762 296.56516
1606.1277 292.29688
1603.0533 289.65753
1602.3606 293.28592
1598.3124 291.4945
1596.3589 287.73486
1599.5354 288.39755
1600.7407 285.72144
1603.5913 284.97754
1603.2815 281.46088
1605.2372 279.8693
1606.957 277.8674
1607.0283 275.28604
1609.3816 273.74216
1612.1656 273.54666
1610.5442 269.50574
1614.1882 270.25385
1614.8558 274.66183
1610.2214 277.24356
1613.4133 277.63382
1614.5222 280.72668
1611.4459 281.24332
1608.6194 280.00858
1608.6133 282.64688
1609.8538 285.57544
1606.4204 284.0007
1605.5758 287.31323
1607.7996 288.635
1609.1547 291.0327
1611.2802 289.40247
1612.3633 287.3199
1613.55 284.04376
1614.828 286.63037
1614.8922 289.34332
1614.0865 291.47107
1613.508 293.78845
1611.0657 292.88623
1608.3823 294.84686
1608.0376 298.00076
1610.6648 299.54678
1611.6047 296.36978
1615.0782 295.3033
1614.6664 297.48737
1613.7529 299.09567
1612.4956 301.5422
1615.0168 301.44263
1614.3849 304.42096
1612.1099 306.66144
1614.4072 308.6672
1614.062 312.01385
1612.2478 314.29352
1610.2917 310.42578
1606.8876 312.21976
1603.0581 315.34564
1606.6334 316.6673
1609.6262 316.1081
1610.0848 320.2322
1604.7548 318.93732
1601.7445 318.41144
1600.3854 320.7452
1603.626 322.3463
1606.9172 321.65067
1610.0177 324.09888
1614.0055 323.2357
1613.7311 320.15317
1613.9722 317.02664
1617.6761 323.1403
1615.7744 326.91327
1612.5312 326.4227
1612.9395 329.99136
1616.3872 330.78317
1615.0438 333.2662
1615.5703 336.62988
1613.4314 338.91016
1611.1945 341.4329
1613.0889 343.89523
1615.7494 341.76767
1618.6633 343.32727
1621.3307 344.98154
1622.3331 341.56134
1625.0289 341.2787
1628.2888 341.60028
1630.8566 343.43408
1633.6489 342.61627
1636.4796 344.7056
1639.1184 346.72998
1644.328 348.6159
1642.0087 346.02786
1640.0918 342.72095
1636.6714 341.0862
1634.4565 338.0319
1631.2351 339.277
1628.4053 338.16403
1625.6118 338.5145
1622.8851 338.12552
1619.7635 340.24472
1617.3413 338.85587
1620.5919 336.97467
1618.2402 335.84784
1618.646 333.447
1620.0803 331.49722
1618.4216 328.93085
1619.43 326.06754
1622.217 324.31973
1623.6239 327.00327
1621.5479 328.89526
1622.8396 331.30188
1624.6635 332.93628
1622.0415 334.48703
1625.2317 335.6081
1627.498 332.0754
1626.0323 329.59058
1627.1119 326.35532
1631.3386 327.94153
1630.8081 331.27377
1628.532 335.03293
1632.3058 334.76837
1635.7242 330.4993
1637.0669 334.6872
1638.8911 338.5135
1642.9037 340.26978
1641.9453 336.08386
1641.0305 332.13306
1646.0746 334.1139
1645.553 338.10147
1648.3823 337.85278
1647.1431 342.23303
1644.1809 343.76047
1647.0704 346.4305
1647.5984 350.365
1646.023 352.60162
1645.9302 355.41165
1647.6824 357.7834
1647.9469 361.85498
1644.6915 361.8716
1644.8406 358.89032
1642.4551 357.10333
1641.0829 360.0532
1637.8125 358.98434
1639.7771 356.21405
1642.6737 353.59546
1641.5448 350.0536
1637.8048 349.27304
1639.5524 352.5903
1636.7385 354.22696
1636.5576 356.54398
1634.2072 357.59235
1631.6443 355.9403
1633.2722 352.2907
1636.0642 351.44202
1634.5616 347.91797
1631.8181 346.91803
1628.4518 345.9157
1625.9862 343.73303
1624.4681 345.78152
1626.0422 348.6884
1629.8936 349.63058
1630.0043 352.8318
1627.5984 355.11768
1626.5356 351.82944
1623.5571 352.92477
1619.9749 352.16846
1622.523 348.5704
1619.4852 349.12506
1615.7935 350.27005
1617.2748 346.29257
1613.9932 346.98007
1611.3844 348.52872
1609.465 345.28094
1607.525 347.42288
1604.4897 345.59598
1600.9792 344.09332
1600.05 340.0135
1597.5787 342.43088
1594.612 339.3162
1596.7124 336.88193
1599.6063 333.35812
1600.3977 336.3155
1602.8232 338.5601
1604.3047 342.04492
1607.942 342.87982
1607.55 339.91397
1610.0967 338.59445
1610.4158 336.00726
1613.0535 335.25565
1610.7587 332.9725
1607.4905 335.7838
1605.4407 338.30096
1603.8678 335.0317
1602.5051 331.79025
1606.3569 332.64078
1608.8473 330.66388
1609.1982 327.83365
1606.4691 325.49722
1604.948 329.1848
1599.8315 329.0864
1602.7747 326.30322
1600.499 323.81055
1597.7339 325.23373
1595.8899 328.38437
1592.1559 328.92117
1596.7869 332.71063
1593.8647 332.16287
1590.2168 332.35678
1587.3594 330.57928
1586.8159 328.17285
1589.5497 327.42215
1589.8757 324.5255
1593.3279 325.1235
1594.6353 321.77853
1597.2479 320.66568
1598.2664 317.5058
1599.1678 314.39233
1598.87 310.88748
1602.8057 311.76044
1600.9459 307.8905
1604.6063 308.1195
1605.615 304.37958
1608.2903 307.106
1610.3335 303.73218
1607.7942 301.40457
1604.4365 300.77292
1600.9276 300.88034
1601.5106 304.1507
1598.0605 305.68805
1594.487 302.4529
1597.486 301.90082
1597.606 298.65454
1594.5945 297.151
1591.5107 296.60327
1592.0488 300.27954
1591.3813 304.60272
1594.5144 305.84073
1595.8595 308.77124
1595.1141 312.32318
1594.789 316.01657
1592.2627 318.20978
1590.863 321.38718
1587.6888 322.86243
1587.0111 320.57245
1587.9852 318.0267
1589.142 315.13705
1591.0586 312.59915
1591.9474 308.89307
1585.9846 312.02606
1582.2858 310.22867
1578.4622 309.42746
1574.7106 307.08536
1574.8162 310.4378
1576.1934 313.31186
1577.2643 316.4891
1580.7245 313.6566
1584.4062 315.805
1583.8745 319.31412
1584.1375 322.45697
1586.3501 324.5009
1586.1489 326.33875
1583.9772 325.2029
1583.8634 327.99695
1582.6161 330.07578
1579.4314 331.21097
1580.0996 327.44235
1577.3379 328.1014
1574.0554 327.49396
1573.3083 324.32224
1576.644 323.8094
1579.4221 324.10645
1581.8855 325.16245
1580.9819 321.46228
1580.55 317.85938
1577.4143 320.3327
1574.391 319.64117
1573.1973 316.10114
1571.4497 312.78503
1569.1407 315.7733
1567.3596 312.39612
1564.2794 308.83487
1568.2593 309.01648
1571.7231 309.0594
1570.2421 305.5632
1566.5894 305.14676
1563.7814 302.72104
1563.0529 305.66498
1560.205 306.96478
1560.3749 310.6782
1563.8563 312.3254
1561.3892 314.68005
1558.199 314.77948
1556.7196 317.85236
1552.9845 316.48923
1550.7668 312.33868
1554.4183 313.47427
1556.4445 311.16165
1556.9918 308.3147
1556.2708 305.26166
1558.169 303.78452
1560.7699 302.7132
1557.7655 300.78204
1554.4631 301.04153
1551.4182 299.76752
1550.4987 304.31448
1553.5328 305.40936
1552.5768 308.9285
1548.4602 308.27158
1545.0044 308.37726
1547.2527 303.444
1543.8134 304.1959
1541.8431 306.93713
1540.4806 309.93036
1543.8438 311.67838
1546.9056 312.56854
1544.5442 316.79172
1548.4252 315.49695
1550.2311 318.21988
1552.9082 320.594
1555.1898 323.6817
1557.258 321.1193
1561.396 318.8692
1565.1367 316.15665
1565.3579 320.2448
1568.4072 319.36444
1571.2223 319.17548
1571.638 322.1741
1568.3627 323.9215
1569.6667 327.38092
1566.8191 330.71796
1570.9362 331.34354
1573.417 333.85156
1575.4747 331.1218
1577.2534 334.72794
1580.3533 337.0323
1581.3013 333.81076
1584.569 332.54993
1587.2083 334.49033
1583.7236 336.4654
1585.9841 338.83163
1588.7661 337.1395
1592.3867 335.83057
1590.4575 340.0426
1593.9543 342.12692
1569.5297 379.88315
1573.6646 383.03473
1575.6826 385.6773
1578.3999 387.193
1580.9795 390.05127
1583.2312 393.15372
1581.3873 396.80386
1580.7827 400.889
1577.6497 399.1691
1576.7026 395.83746
1579.05 393.37732
1576.1599 390.86514
1573.9333 394.73355
1573.6174 398.45572
1571.1042 396.66583
1570.8639 394.19543
1572.8595 391.7578
1569.3636 391.96652
1570.3663 389.51804
1573.0623 387.81042
1569.1133 386.6272
1570.2487 383.04868
1566.8938 383.57782
1566.5127 380.4724
1563.0359 381.95135
1564.5432 378.15067
1561.4048 377.42456
1558.4059 376.5877
1559.6838 380.51755
1559.7892 383.61215
1558.2043 387.42682
1556.2402 390.1482
1555.5743 393.80362
1558.6715 394.82388
1559.4225 390.90527
1561.5488 386.3637
1564.9379 385.3673
1564.6266 388.09033
1562.5709 390.50998
1561.6897 394.35434
1564.393 393.6028
1566.5986 390.26147
1567.3304 393.56702
1565.6042 396.16565
1568.4956 396.15555
1569.9249 399.04852
1570.9225 401.67123
1574.3601 401.91324
1572.0874 405.5261
1569.2169 404.38504
1569.5586 408.75583
1567.4604 407.07675
1566.1694 404.75735
1564.0247 402.68137
1567.1323 401.474
1567.0303 398.69052
1563.969 398.77197
1560.7402 397.9275
1561.1396 401.28427
1557.5463 400.994
1556.4895 397.57837
1553.4366 399.6715
1552.4839 396.66895
1548.2682 395.90234
1548.55 400.08066
1550.9579 401.25516
1551.2657 404.0576
1554.5161 403.36148
1557.2137 405.23447
1560.4934 404.419
1563.4489 406.44824
1560.3085 407.81537
1562.9216 410.13522
1565.9158 409.4396
1565.5026 412.8009
1566.5652 417.08514
1569.1515 418.61325
1568.6654 422.27597
1569.596 425.7034
1572.5073 424.01865
1574.8828 422.68475
1577.1318 424.19562
1579.0992 426.8374
1580.3518 424.07434
1583.237 422.90903
1580.9153 419.13495
1579.1338 421.3242
1575.7499 419.94635
1572.1885 419.72052
1578.3076 417.43564
1575.1046 416.6142
1571.6619 415.204
1568.2677 414.91376
1569.398 412.04196
1572.2961 409.9624
1575.2163 410.28003
1574.3835 413.40128
1577.8595 412.93002
1580.4916 414.34586
1584.4994 413.5594
1582.4125 416.4872
1583.4073 419.79056
1585.8195 420.8647
1588.3761 421.48932
1588.4515 418.5162
1585.5366 417.30234
1587.7188 415.27667
1587.7295 412.13934
1585.7603 409.50928
1583.1277 407.64542
1581.7311 410.9386
1578.1975 409.1851
1579.7291 406.48987
1575.1648 406.55142
1577.5422 403.50595
1582.3516 403.92017
1584.6947 400.21866
1585.7136 396.78815
1588.063 401.43848
1585.8502 404.87112
1589.2108 405.13312
1589.099 408.32285
1590.6592 410.3792
1590.8167 413.38367
1590.1494 415.78107
1592.2107 416.0137
1591.1619 418.26627
1591.4067 420.64017
1590.8022 423.08768
1592.2223 425.7017
1592.0391 428.95184
1588.9875 431.16898
1591.5945 431.68082
1592.3616 434.2889
1589.1729 434.71915
1588.6721 438.0221
1591.8094 437.49997
1591.7406 440.91403
1591.4849 444.51352
1590.8169 447.73618
1592.4811 449.89343
1591.202 452.28488
1588.8677 453.7165
1592.0266 455.67215
1594.7856 458.7901
1591.1019 458.82944
1590.6606 462.02084
1587.673 464.29816
1585.9639 461.7455
1587.5154 459.06735
1588.2125 456.51584
1585.8542 453.28864
1585.5228 451.1205
1588.0309 449.9236
1587.2812 446.8349
1587.5154 443.99963
1588.1421 441.19568
1585.523 435.55435
1585.4786 438.69217
1584.2739 442.08313
1583.8491 445.39618
1583.8323 448.6253
1580.5702 446.7367
1580.4564 443.79193
1580.9764 441.06546
1582.4403 438.53098
1581.5833 435.61206
1580.8632 432.2941
1583.6803 432.62354
1586.5818 432.82907
1586.4414 430.00986
1589.0707 428.13406
1589.2592 425.3895
1586.4004 424.13705
1586.0372 426.8925
1582.7261 426.12292
1584.2412 428.9387
1582.2854 429.70126
1580.2128 428.89963
1576.1427 427.18146
1573.0691 427.91888
1569.7574 429.33975
1569.8008 432.98306
1572.5089 436.3623
1569.2476 437.39563
1569.7467 441.80643
1573.1687 443.42816
1573.9379 439.54102
1573.9862 433.35995
1574.943 430.60495
1578.038 430.6799
1578.2363 433.8335
1576.6389 436.31955
1578.6956 438.4993
1577.1868 441.45575
1576.9606 444.68033
1577.5685 448.24567
1574.1675 447.03177
1569.7494 446.5872
1572.0127 449.9536
1568.8541 451.4943
1571.0579 453.52832
1570.7739 456.32724
1568.1239 457.65494
1564.4088 457.78693
1565.2623 460.54523
1560.4939 460.66544
1560.9609 457.76913
1557.6017 458.69156
1555.41 457.1238
1553.6199 458.9758
1550.5388 460.6657
1550.7491 457.5679
1546.9973 458.10574
1547.6747 462.21338
1544.9197 464.02435
1544.6239 467.72766
1547.6301 466.0067
1549.3407 468.13336
1547.986 470.9945
1545.6342 474.498
1544.8975 471.3452
1542.1409 470.49847
1540.2881 473.22955
1542.6631 475.1772
1540.2819 477.66547
1543.2668 478.85052
1545.8584 481.0462
1546.5304 484.5165
1550.0656 485.38556
1555.5304 484.8656
1559.4951 484.56158
1563.5118 484.64282
1567.7944 484.71957
1572.7961 485.00662
1576.4353 482.15045
1577.911 485.2094
1582.8047 484.79953
1586.7096 485.5697
1586.6449 482.86856
1584.5004 480.2832
1581.2396 479.3579
1580.7025 482.38174
1577.9503 479.24664
1576.0878 476.82056
1573.245 477.91885
1572.9092 481.07568
1569.506 481.44714
1566.2866 480.4357
1563.2778 480.5948
1560.2031 480.4309
1557.0531 480.91592
1554.012 479.9903
1552.5704 483.3184
1549.5924 480.9271
1547.1423 477.69806
1548.9645 474.7017
1551.2803 477.54208
1554.5836 476.34677
1554.465 472.40494
1551.5114 473.3489
1551.729 470.07358
1555.0743 469.05588
1557.6523 466.7863
1555.0471 465.0449
1552.3137 466.72128
1550.9976 463.97165
1553.9506 461.88083
1557.1942 462.24634
1560.1904 464.42102
1563.085 463.11243
1560.4783 468.39447
1563.1309 467.7804
1565.79 467.29028
1566.3427 464.04156
1568.9569 461.25156
1572.3157 459.18542
1575.1736 461.55627
1574.7386 464.84775
1572.2688 462.10638
1570.9187 464.47037
1568.975 466.32608
1567.9753 469.15253
1570.0548 470.3511
1568.4391 473.5776
1565.4052 470.92255
1564.5762 473.76053
1561.3604 472.62103
1558.2312 470.88568
1557.2627 473.9924
1558.6167 476.82275
1562.3284 476.75598
1566.0544 476.67636
1569.4631 477.5536
1572.0184 474.972
1572.228 472.07816
1572.4429 467.73456
1574.9714 470.09082
1575.7461 473.17154
1578.6848 473.8283
1580.1771 476.21103
1582.9849 476.70016
1585.3795 475.9317
1587.3263 478.31342
1588.6378 480.44525
1589.7302 482.69672
1591.3132 484.0511
1591.2429 486.03488
1594.5569 484.51434
1597.8802 485.46994
1597.4529 482.34882
1595.0544 479.8887
1592.6525 481.42358
1591.3262 478.6893
1589.2124 475.7198
1592.7867 476.08508
1596.0427 473.6408
1596.5728 477.11005
1599.4347 479.34366
1602.7085 480.0528
1604.9563 477.23874
1603.5767 472.97763
1600.1708 474.4822
1597.6829 470.1294
1593.865 469.0626
1592.3131 472.74133
1588.6581 472.18863
1586.2965 473.45718
1584.6343 470.28705
1582.3082 472.8206
1579.6422 470.04803
1576.9673 467.55695
1578.643 464.55252
1578.2931 461.3377
1579.9204 458.7043
1581.9281 456.3576
1580.0381 454.6689
1577.3954 455.72525
1576.3916 458.6463
1574.2078 456.7722
1574.3942 453.84714
1575.3737 450.8024
1578.1143 452.4365
1580.1132 449.8522
1582.0264 451.43362
1583.096 453.6513
1586.0146 455.2397
1584.4623 457.13385
1583.1708 459.77588
1582.0977 462.92377
1581.6404 466.88608
1584.7788 466.3409
1587.6212 467.91238
1590.0265 469.7826
1590.9949 466.30206
1593.8119 464.2396
1596.8029 462.09097
1598.799 458.42493
1602.7228 458.54333
1606.3589 458.83536
1605.4391 462.81982
1601.2019 463.0658
1597.9032 466.05084
1601.8391 468.64673
1605.7565 466.4084
1606.7119 470.04993
1609.9104 471.61578
1607.3535 474.2219
1609.2045 477.84787
1606.9033 481.14282
1601.3267 484.33054
1604.7966 484.53784
1608.2903 484.9933
1611.2847 484.53177
1610.5878 481.11438
1613.5654 482.07413
1614.252 479.4279
1612.5905 477.44913
1610.9795 474.69705
1613.7623 474.52167
1615.6088 476.40814
1617.1594 478.4319
1617.1245 480.9652
1619.9467 480.213
1623.1588 479.35797
1623.615 476.3947
1625.3372 474.05795
1627.0264 476.06122
1627.0287 479.14398
1629.9907 477.11032
1632.1819 479.22073
1635.7814 477.65057
1633.4003 475.54523
1632.9382 472.74673
1635.7942 472.0627
1638.017 474.24088
1638.6893 470.43387
1641.9048 469.27637
1645.2369 462.92148
1642.0878 465.048
1638.6211 465.7967
1636.2688 467.94904
1633.7886 469.70944
1630.676 470.5418
1629.7944 473.82263
1626.9951 471.9368
1627.9065 469.3339
1626.077 466.42648
1624.0872 469.12424
1623.5378 472.2355
1621.1879 472.59537
1618.384 471.2968
1620.6631 474.88193
1620.5874 477.51883
1618.2916 476.27866
1618.3081 473.84964
1616.2899 474.04767
1615.3538 472.24512
1612.6912 471.12085
1610.1777 467.68777
1610.6958 464.12726
1609.9717 461.1326
1609.8279 457.70786
1613.6909 458.4276
1615.7695 461.30615
1614.7546 464.55933
1613.7324 467.5796
1615.5585 469.88776
1617.7268 467.66653
1620.7183 469.3176
1621.7524 466.02118
1623.8473 463.50916
1624.9985 460.62726
1620.5732 461.21405
1618.6102 464.21698
1618.114 458.01767
1622.3729 458.06476
1625.9875 457.44647
1627.8962 463.14328
1629.5848 466.33142
1632.172 467.33337
1634.363 465.3819
1631.488 462.95703
1628.4912 459.7954
1630.2184 457.10938
1632.3169 459.34262
1635.6367 458.4178
1635.2222 462.47034
1638.477 461.82788
1639.7684 457.73795
1641.501 460.94785
1644.0466 459.46698
1645.2754 457.113
1648.0253 460.21158
1648.0515 464.59662
1645.8259 467.1662
1646.2101 470.55093
1647.6515 473.45944
1646.8582 477.79767
1643.4941 477.98557
1642.6241 473.64423
1639.7936 477.21075
1638.428 480.62692
1642.5088 481.39627
1647.0968 483.6394
1643.227 485.04462
1639.3162 484.44412
1636.2557 484.93137
1635.1483 481.25705
1633.3765 485.61725
1630.5139 485.16547
1632.865 483.02237
1629.9211 481.6823
1626.877 482.15933
1627.8762 485.164
1625.088 485.12894
1623.7932 482.03183
1622.1141 485.28683
1620.3711 482.97546
1618.4446 485.49316
1616.6936 483.15775
1615.0592 484.88663
1613.384 486.17288
1611.0782 513.45795
1607.4327 513.9748
1603.5103 513.35345
1599.2504 513.9908
1594.706 515.0666
1590.0358 516.77075
1584.6229 518.69775
1588.3071 521.3305
1584.9935 526.95966
1583.875 523.51984
1580.341 521.4756
1577.2632 523.94934
1575.3016 526.6361
1572.9503 529.00024
1573.8724 532.69336
1570.258 532.07086
1570.8008 535.9685
1567.7301 536.14374
1569.8779 540.2167
1566.5044 540.004
1565.377 543.2655
1566.9843 547.00183
1563.7356 546.7694
1563.29 550.2909
1562.7972 553.59265
1561.0789 556.4597
1559.8623 560.38434
1563.78 559.2036
1566.5349 560.93536
1563.2072 563.30115
1559.5554 564.51495
1558.3539 568.2833
1562.6895 568.1253
1568.7981 567.35583
1566.5271 564.9037
1569.4133 561.67377
1571.5481 564.39746
1575.3081 563.99664
1577.8479 566.8191
1579.1215 570.06586
1574.3619 567.4558
1571.9791 569.5731
1575.9778 571.1328
1574.0305 573.5011
1569.4386 571.4137
1571.0267 574.50665
1569.1323 576.7376
1565.9193 576.85614
1567.0419 573.5924
1565.6528 570.05225
1563.7286 574.1522
1560.4404 576.4045
1560.7809 572.4009
1557.1743 572.31244
1555.9247 575.9421
1557.8112 578.8243
1560.5883 580.64185
1563.1609 578.7284
1565.886 579.87195
1568.9158 580.0287
1565.4827 582.4507
1568.4779 583.87085
1569.7377 587.2901
1571.9259 582.336
1571.9412 585.0948
1573.39 587.8468
1569.2571 590.44006
1566.1587 588.47754
1564.784 585.6493
1562.1348 583.4461
1558.6772 584.8724
1557.1687 582.30084
1554.2896 580.0994
1553.3031 584.03784
1555.3407 586.52234
1560.1326 587.4696
1562.6831 588.9637
1559.7134 591.73663
1562.7885 592.0902
1566.2034 592.17456
1568.8151 594.84924
1573.1793 596.09595
1571.3514 592.88745
1573.627 590.59454
1576.3413 587.26636
1579.1973 587.44653
1576.9894 589.9824
1579.8982 590.9422
1580.9973 588.5451
1581.6936 585.66095
1581.0607 583.3441
1582.1947 581.49713
1578.1367 581.4129
1579.2317 584.248
1577.5088 584.9696
1575.0466 584.09155
1575.3516 580.2311
1571.9078 579.46027
1573.5969 577.0802
1577.1456 576.03937
1579.633 578.6801
1583.2253 578.6634
1581.4932 575.9314
1579.633 573.338
1582.7448 572.1522
1584.3138 575.0907
1585.3914 571.88165
1585.6143 568.7056
1582.6234 569.13855
1581.1305 566.7342
1578.9519 563.39166
1582.2207 563.85925
1584.4019 565.44714
1587.0044 565.9541
1586.838 563.1185
1585.0833 560.97003
1588.0394 560.4685
1588.6237 558.0605
1589.5577 556.0214
1585.4724 557.9058
1582.277 558.1715
1581.718 561.10406
1577.5437 560.6294
1574.4519 560.6316
1571.9332 559.8008
1574.7931 557.0532
1578.6196 557.8118
1580.0907 555.17316
1575.8246 553.9806
1576.9668 550.9397
1579.2085 548.81995
1581.6567 547.14795
1578.863 545.41205
1575.7778 547.37866
1573.5823 550.1612
1571.5626 552.6245
1571.0157 555.6143
1569.0693 558.0366
1566.2694 556.1244
1567.305 552.12573
1569.5905 549.02155
1572.0371 546.9146
1569.595 543.9057
1572.8524 538.896
1574.0388 536.01117
1573.5345 541.7512
1573.3759 544.4637
1576.2673 543.93915
1578.3552 541.81555
1576.2561 539.7629
1576.7463 537.03424
1579.6925 537.9919
1582.063 535.5263
1579.8041 534.1367
1577.0892 534.029
1577.4707 530.4266
1580.2231 526.6784
1581.2852 529.80914
1584.5372 530.07336
1582.3674 532.43317
1584.315 535.62195
1585.4459 533.13525
1588.4479 533.1718
1587.1279 530.3289
1589.2971 529.32825
1591.5933 531.79596
1589.9735 535.58496
1592.6002 536.8016
1591.99 540.38245
1588.5542 539.09705
1586.6176 536.53235
1586.104 541.1569
1583.5453 538.6709
1581.4788 540.8864
1581.9098 543.6865
1584.4192 546.0713
1585.7806 543.7965
1590.1001 543.7362
1587.7429 546.6549
1589.4563 548.503
1584.844 548.67236
1582.6849 550.81104
1580.1501 552.2974
1583.8145 554.5269
1586.9166 555.40924
1586.0789 551.1009
1587.7952 552.6472
1589.8302 553.86816
1591.8423 552.588
1590.5496 550.87476
1592.4497 548.1306
1593.9552 545.369
1595.1064 542.3376
1598.3639 541.92175
1602.2701 540.45935
1599.2107 538.2347
1595.7981 537.48975
1594.582 533.3345
1598.4539 531.051
1599.3418 534.5996
1603.0837 534.5857
1604.0559 530.9384
1601.2765 527.33545
1605.6948 526.4959
1608.4319 529.1532
1612.05 526.45715
1609.8264 524.2962
1606.5383 522.39294
1602.866 522.0713
1599.0647 522.9947
1596.6786 525.7
1595.2264 529.00397
1592.1553 527.81085
1588.5789 525.6872
1592.2871 523.6565
1594.5957 520.3145
1598.9788 518.4999
1602.9915 517.1793
1606.6191 518.11066
1609.8896 520.30676
1611.0659 517.162
1614.1158 515.00665
1616.74 514.1
1618.6687 515.745
1615.4463 518.3158
1613.1047 521.62225
1615.2496 524.7865
1616.1703 527.8886
1619.0911 526.28595
1619.2517 523.4026
1616.5251 521.5973
1619.4128 520.50226
1619.5164 518.2652
1621.2449 516.61926
1621.9688 515.0502
1624.3762 516.474
1623.0857 517.9455
1622.5105 519.75104
1622.3997 521.961
1622.5964 524.63586
1623.0 527.324
1626.069 527.0176
1628.4918 524.6214
1629.4059 522.17865
1627.075 521.32764
1625.3593 523.2995
1625.0212 520.03534
1626.0381 517.5713
1627.4626 518.93604
1629.7852 519.578
1632.3073 522.07904
1632.8202 524.85175
1629.688 527.3632
1629.9318 530.418
1631.2782 532.87976
1634.1979 534.181
1635.5037 531.01117
1632.9941 529.0124
1635.9192 526.23956
1639.0186 529.3725
1638.3799 533.10315
1642.3298 533.2901
1643.5387 537.5811
1640.2086 536.1888
1636.6998 536.546
1639.3999 539.3061
1639.7059 542.5103
1642.4169 541.11035
1644.8228 541.2589
1646.647 540.311
1646.6558 543.4127
1645.2308 545.5854
1647.8484 546.071
1647.6843 548.83417
1645.4956 550.8668
1647.9913 552.81525
1648.2874 555.9177
1649.7977 559.12164
1645.471 558.97327
1642.0319 558.6609
1643.5016 554.68304
1641.6393 551.4161
1643.4235 548.1721
1642.7428 544.53284
1640.1774 545.5401
1639.8849 548.41565
1637.1569 545.36206
1636.4622 542.1731
1635.0493 539.3764
1632.7103 542.0078
1628.4523 544.2284
1625.6724 544.9111
1625.3657 541.02106
1628.532 541.24786
1630.7485 539.35065
1632.8878 537.05865
1630.1658 535.8657
1627.575 537.5296
1624.5586 537.84924
1624.4834 534.435
1627.6776 533.8415
1626.9742 530.6595
1624.0356 530.64954
1620.8975 529.1583
1618.5911 530.48505
1621.282 532.94037
1621.2966 536.55865
1621.773 540.1668
1618.755 539.657
1616.0098 540.8823
1614.6919 537.70526
1617.8478 536.29266
1617.4465 533.5523
1615.6285 530.85297
1612.6013 529.4306
1613.6958 532.87024
1612.179 535.5179
1609.8872 532.26544
1607.6483 534.9142
1604.6532 537.57404
1606.9718 540.31757
1610.3851 538.9113
1612.7346 541.6941
1616.2671 544.1368
1619.2206 543.5505
1622.859 543.0753
1622.091 545.7618
1620.2615 547.5655
1622.8119 550.88916
1624.4817 548.06866
1628.1553 547.99817
1631.0322 548.96515
1631.0408 545.1075
1634.0186 545.10345
1633.7703 547.96277
1636.5917 548.2816
1637.5364 550.90076
1638.554 553.3326
1639.1248 556.1921
1638.5509 559.5646
1639.9993 562.722
1643.3488 563.05774
1646.3555 564.29
1648.1307 561.74207
1649.9987 564.2976
1646.4719 567.2601
1645.0974 570.37976
1648.2284 570.06903
1650.0443 567.844
1650.732 571.21136
1650.2056 574.317
1647.5536 573.1533
1644.457 574.069
1645.7346 576.8436
1642.1971 578.24896
1640.5363 576.1387
1641.9233 572.8544
1641.3635 570.0329
1642.8975 567.04895
1639.39 566.54706
1636.6403 564.43286
1635.7832 560.6172
1634.1077 562.7571
1632.3562 565.1514
1631.558 561.795
1629.1217 559.73566
1631.0082 557.35114
1632.6165 559.2623
1634.9484 557.4896
1635.5375 554.81024
1633.2244 553.6903
1634.2734 551.0005
1630.8909 551.94763
1630.6167 554.9914
1627.849 556.59436
1628.1809 552.5015
1625.837 551.1303
1625.1434 554.8327
1625.7429 558.83307
1626.4985 562.0702
1629.1934 562.7225
1628.2626 564.94855
1627.5227 567.6389
1630.9453 568.30664
1634.7468 568.1963
1637.7402 569.8805
1638.4247 573.5679
1634.9932 573.26526
1631.8367 572.55975
1628.1414 571.44946
1628.3717 575.71875
1627.3254 579.72266
1632.1804 577.963
1636.4563 577.74225
1639.146 580.9415
1642.0497 583.1627
1644.7223 584.1103
1644.061 580.37286
1647.0509 581.99133
1647.6816 579.5342
1648.8446 576.31995
1650.3811 579.1522
1649.9337 583.3502
1647.973 585.14343
1645.3048 587.0551
1648.1847 588.16626
1648.3552 590.54395
1647.076 592.6332
1646.8353 595.47766
1645.7815 598.47125
1645.2416 603.023
1641.5762 605.7368
1641.0793 609.44415
1637.8298 607.9085
1635.6512 610.35205
1637.999 612.3751
1633.6967 613.2624
1635.5217 615.4409
1632.7126 617.3608
1630.5537 615.1438
1628.7869 617.78217
1630.6475 620.16583
1627.2205 620.5272
1627.3081 622.60986
1624.1587 623.703
1621.1846 624.70874
1617.9348 625.6092
1614.698 627.2874
1610.997 628.3784
1607.9232 628.7542
1608.7374 687.72314
1611.7708 687.9587
1612.9965 691.37823
1614.3667 689.4044
1615.6082 687.43195
1619.1147 687.58386
1619.4418 690.77203
1621.5396 688.9533
1623.8195 687.5664
1624.1665 690.91327
1626.3564 692.8063
1624.0312 695.3113
1621.5812 693.04944
1621.5522 697.43506
1618.8983 698.50946
1616.2588 697.8849
1618.7678 694.5643
1616.9304 690.51227
1615.8853 693.4619
1614.2172 696.1336
1612.2601 694.3764
1611.2936 698.01227
1614.0006 700.2789
1614.4512 703.8032
1610.6339 702.1517
1607.5654 700.01117
1605.7391 702.8141
1602.4077 704.29486
1601.1433 701.655
1600.6553 698.94
1603.934 699.05756
1605.6228 696.22577
1608.6741 696.5467
1610.1799 693.05334
1609.3406 690.41156
1607.3501 693.29584
1604.524 692.80505
1603.0151 694.82623
1601.5322 696.2549
1599.4388 696.8148
1597.7483 697.8277
1597.2312 695.5457
1594.9348 696.6175
1592.3539 696.2218
1595.8853 699.1974
1597.8768 700.92566
1597.5198 703.8841
1599.6876 706.1691
1601.4053 708.7426
1604.1934 709.98
1606.1472 712.261
1608.6267 709.33014
1605.2659 706.5631
1609.3164 705.54785
1613.0433 707.3999
1614.0101 710.9993
1617.3381 709.77997
1617.6802 705.9413
1621.116 705.3823
1623.785 708.12836
1620.9905 710.286
1624.9393 711.89484
1626.9705 709.6128
1629.6012 707.7718
1626.9304 706.1818
1624.4493 704.33563
1618.3341 701.8758
1622.5411 701.1738
1625.5039 698.3689
1629.0107 698.7829
1631.254 696.60236
1633.1868 698.7172
1631.2288 701.64825
1626.9675 701.89655
1629.9749 704.5099
1634.8823 703.4556
1635.1631 700.5513
1638.438 701.5527
1636.8447 697.6932
1640.3499 697.6071
1638.705 694.9742
1638.8011 692.0202
1635.86 690.16205
1635.9067 693.3307
1634.2375 695.75104
1632.7401 693.5197
1632.9221 690.6362
1630.251 692.5186
1628.281 695.2478
1628.5254 690.27954
1627.0089 687.9223
1630.774 687.8898
1633.9073 687.6017
1637.0984 687.3719
1638.7026 689.29584
1642.0342 693.87427
1641.7498 690.47156
1640.7744 687.60205
1643.8232 687.41113
1645.3408 688.9288
1648.0172 688.35364
1645.1108 691.56116
1647.8138 693.2163
1645.3674 694.6637
1647.5369 697.65125
1643.9395 697.25195
1642.0344 700.2943
1645.1375 700.5719
1647.5454 701.7675
1647.1168 704.9826
1643.9896 703.64966
1640.7529 703.8754
1639.931 707.3099
1636.9479 706.43427
1633.3035 706.4417
1631.7529 709.4843
1634.4829 710.32794
1637.0012 711.23553
1639.5891 711.3149
1642.0507 711.04956
1643.0383 708.52026
1644.0874 706.50696
1647.3748 708.3925
1645.3875 710.8707
1647.5659 714.2198
1643.9768 714.8051
1639.7407 715.07684
1635.6528 714.9355
1631.3975 715.88165
1632.3499 713.15485
1629.3446 711.6016
1628.2744 714.375
1625.5857 715.36554
1622.2826 714.5561
1618.6475 714.33344
1614.821 714.6909
1611.0077 715.4616
1610.7294 712.1144
1607.9078 714.9307
1605.0278 715.36957
1602.6251 714.4851
1599.4111 715.33484
1600.7936 712.42255
1598.6774 710.8821
1597.4324 708.8062
1595.5745 706.91504
1594.7683 710.32117
1596.7407 713.0465
1596.0002 715.83594
1593.993 714.46075
1591.606 714.70593
1592.1937 711.8264
1592.0063 708.69635
1588.8579 709.14526
1590.3392 705.6939
1593.4851 705.0461
1594.2764 702.1555
1593.0771 699.4454
1590.4067 702.33014
1590.3616 698.6649
1588.276 696.8857
1585.8308 697.9066
1587.5139 700.57465
1586.03 703.27905
1583.7432 700.20013
1581.6448 702.93835
1583.3524 705.8182
1587.1646 706.10284
1585.5897 708.99005
1583.9556 711.8541
1585.7177 713.6766
1585.2894 715.77936
1589.1482 715.38
1588.5323 712.1673
" />
</g></g></svg>
