<?xml version="1.0" encoding="UTF-8" standalone="no"?>
<!-- Created for Inkscape (http://www.inkscape.org/) -->

<svg
   xmlns:dc="http://purl.org/dc/elements/1.1/"
   xmlns:cc="http://creativecommons.org/ns#"
   xmlns:rdf="http://www.w3.org/1999/02/22-rdf-syntax-ns#"
   xmlns:svg="http://www.w3.org/2000/svg"
   xmlns="http://www.w3.org/2000/svg"
   xmlns:sodipodi="http://sodipodi.sourceforge.net/DTD/sodipodi-0.dtd"
   xmlns:inkscape="http://www.inkscape.org/namespaces/inkscape"
   width="3200"
   height="800"
   id="svg2985"
   version="1.1"
   inkscape:version="0.48.1 r9760">
  <defs
     id="defs2987" />
  <sodipodi:namedview
     id="base"
     pagecolor="#ffffff"
     bordercolor="#666666"
     borderopacity="1.0"
     inkscape:pageopacity="0.0"
     inkscape:pageshadow="2"
     inkscape:zoom="0.35"
     inkscape:cx="1600"
     inkscape:cy="400"
     inkscape:document-units="px"
     inkscape:current-layer="layer1"
     showgrid="false"  />
  <metadata
     id="metadata2990">
    <rdf:RDF>
      <cc:Work
         rdf:about="">
        <dc:format>image/svg+xml</dc:format>
        <dc:type
           rdf:resource="http://purl.org/dc/dcmitype/StillImage" />
        <dc:title />
      </cc:Work>
    </rdf:RDF>
  </metadata>
  <g
     inkscape:label="Layer 1"
     inkscape:groupmode="layer"
     id="layer1"> 
     <g>
<path style="fill:none;stroke:black;stroke-width:2px;stroke-linejoin:round;stroke-linecap:round;" d="M 
1646.8209 626.70447
1645.2891 623.7782
1643.7354 620.5685
1648.0192 620.91187
1651.3734 618.91376
1647.1528 617.2437
1644.938 614.04736
1648.4453 611.26495
1650.4938 614.5929
1654.0662 616.7063
1656.9307 614.239
1653.7661 611.4996
1658.6785 610.95734
1660.6008 614.6632
1663.6165 616.5826
1666.8146 618.65436
1668.6912 616.593
1669.9849 613.8618
1666.1498 614.1006
1662.9423 611.5725
1666.7898 610.87244
1671.1017 610.89185
1673.6141 613.3416
1676.1794 610.1591
1679.4064 605.7435
1678.4327 601.4464
1678.166 596.6255
1680.9689 597.6744
1683.7184 596.5413
1684.3838 592.7583
1685.7003 589.1292
1686.9209 585.9454
1683.9625 585.1627
1681.9761 588.97925
1679.6978 592.82733
1678.4395 588.51416
1680.0272 585.1381
1677.885 582.2328
1676.665 577.9813
1679.9974 577.3691
1681.2814 572.8812
1683.7854 575.02454
1685.4039 577.7251
1681.9653 579.50195
1682.3926 582.3733
1685.2577 580.40454
1687.181 582.2245
1688.9187 578.3578
1687.6295 575.0407
1687.1578 571.53314
1685.0536 568.6483
1681.3346 568.6234
1684.1104 564.5196
1680.4656 564.33545
1678.5706 561.3113
1681.7263 560.24603
1683.2888 557.217
1686.3967 561.2762
1688.8871 566.4372
1691.5061 570.997
1691.3748 575.08575
1692.9534 578.34174
1690.7749 580.9116
1689.868 584.5579
1693.2745 583.2505
1693.2678 587.1563
1693.0238 591.0391
1689.738 588.6155
1688.5464 592.38434
1691.5632 594.06775
1694.0225 595.1889
1693.4135 598.5263
1689.8699 596.50366
1686.8235 596.7301
1689.887 599.67114
1692.3004 601.4416
1693.696 603.39606
1693.3286 606.4129
1689.7405 604.5871
1687.4852 601.6043
1684.4385 600.5277
1681.6941 602.3142
1680.2207 609.5238
1676.7432 613.4826
1679.5637 612.7268
1682.3676 614.35803
1685.4955 614.3047
1688.199 614.05774
1684.1924 611.2065
1683.4934 607.8657
1685.049 604.83246
1687.8174 607.7327
1687.8528 610.75543
1690.3154 612.20483
1688.6641 617.1876
1690.9727 615.69836
1693.2074 616.6245
1696.2402 617.43524
1695.4952 614.35864
1692.7362 612.6297
1691.7954 608.919
1695.242 610.9594
1698.6787 611.0153
1698.6654 614.30273
1699.6313 617.4802
1698.9375 619.85614
1702.1771 616.15015
1702.0183 613.4334
1702.8147 610.8045
1707.125 610.789
1712.6149 611.23706
1715.4172 614.4122
1717.3712 610.78406
1719.0764 613.96606
1722.0338 611.1952
1722.5221 615.0247
1723.6998 618.1385
1724.1089 621.78284
1726.4033 624.07874
1729.922 621.8031
1727.1549 619.4352
1730.5294 617.313
1726.7877 615.0659
1726.5195 611.27924
1730.5085 612.06866
1735.218 611.59784
1734.1138 615.2002
1734.8181 618.73346
1733.4156 621.5008
1736.0209 624.7146
1732.8922 625.3755
1734.1511 629.72876
1730.5634 628.97144
1729.1888 625.6739
1726.125 628.85535
1723.06 625.7385
1721.221 629.3593
1716.9978 627.76654
1713.7115 629.25836
1712.6353 625.99506
1713.9208 622.51917
1717.3989 622.9817
1719.6116 625.09106
1720.9072 621.19836
1719.2233 617.60126
1716.8271 619.7523
1713.9866 618.2657
1711.3833 616.2384
1709.2969 613.42206
1705.5239 614.5127
1707.5038 618.1251
1710.0917 621.4424
1703.0563 619.1808
1704.8625 622.3725
1708.0156 625.2868
1708.243 629.4035
1703.6053 627.6169
1699.1184 628.12866
1700.1809 623.783
1696.9868 621.5855
1693.9512 619.8099
1691.1727 620.23804
1689.8992 624.0677
1694.5854 623.09674
1694.2936 625.67365
1694.8145 628.883
1690.9816 628.1132
1687.9061 629.27545
1686.6305 626.16266
1683.176 625.926
1684.0095 629.4015
1680.6709 628.52026
1677.4847 628.8009
1674.448 627.61975
1671.095 629.5147
1669.9822 626.7665
1672.6129 623.66425
1676.2769 624.1979
1679.4952 624.933
1681.0458 621.6912
1683.3054 622.8866
1685.9751 622.1968
1688.2155 620.3995
1685.7288 617.664
1683.0923 618.52637
1679.7645 616.49963
1679.5239 619.56555
1676.8413 620.77374
1676.1816 616.82733
1672.2361 616.8491
1673.6995 619.8988
1670.0178 620.314
1668.5098 623.4856
1665.1963 624.8939
1666.4738 628.585
1662.977 628.89386
1661.0226 626.3165
1658.5586 623.9668
1661.8938 622.8974
1664.7856 620.8266
1660.7649 619.31067
1657.661 617.82886
1656.3038 620.9905
1652.4016 622.3976
1649.6534 624.59235
1654.9512 624.8159
1656.9307 627.97687
1659.3275 629.4336
1654.074 628.9166
1651.3728 627.78845
1647.96 629.2205
1643.6425 628.4231
1639.2112 628.89075
1641.1898 624.9165
1639.4119 621.2475
1642.0148 617.409
1638.0294 616.90765
1636.1049 613.6553
1632.035 612.0789
1633.521 616.8399
1635.1105 620.67804
1636.5748 624.8992
1634.5015 629.06104
1629.6548 628.0915
1632.4729 625.521
1630.4872 622.26843
1629.4897 618.74524
1629.9888 615.357
1628.9077 612.78815
1628.8712 609.68176
1631.2177 608.1874
1628.7976 606.276
1631.404 604.02136
1629.1255 603.1231
1629.0197 600.28424
1631.4382 599.751
1633.753 601.7254
1635.0156 604.33575
1633.168 606.0789
1634.3817 608.43176
1635.057 610.843
1640.7979 613.2216
1638.902 609.9045
1637.2103 606.8345
1640.4463 605.77185
1643.3649 609.4964
1643.4749 604.53503
1643.4979 599.65704
1640.5304 601.4082
1637.5833 603.08997
1637.1138 599.6469
1634.3671 598.1543
1633.7262 594.8313
1631.0881 596.024
1628.7495 596.4804
1629.5259 592.1738
1629.6129 588.2883
1630.0835 584.68823
1630.0383 580.7338
1637.5142 578.3244
1637.6085 582.385
1633.7734 581.925
1633.9004 587.1953
1637.7833 586.6696
1640.9807 585.178
1640.2101 591.4943
1636.8934 590.74194
1633.264 591.4271
1637.3176 594.9082
1639.9614 597.2658
1642.8088 595.3909
1643.7129 591.9795
1642.8647 588.4377
1644.2238 584.0085
1641.7609 580.95514
1644.7201 578.69763
1646.6167 575.45984
1644.0817 573.31464
1641.1749 576.07983
1640.5908 570.4444
1637.8677 573.3078
1634.366 575.8746
1630.663 576.60455
1631.117 572.51385
1630.8741 568.7733
1633.6111 567.4004
1634.7449 570.8929
1637.2866 568.29443
1637.8964 565.44196
1640.357 561.2569
1637.6931 562.5506
1633.3716 564.55725
1634.4111 561.68884
1636.7357 558.9697
1639.8894 556.3415
1642.2522 559.1846
1645.1594 560.16736
1647.9072 558.3103
1647.5977 554.86
1644.2886 556.46387
1643.3873 553.2686
1646.9395 551.7565
1649.7938 550.178
1653.2549 549.95496
1654.6163 553.67725
1658.2439 553.9619
1657.7795 550.8984
1656.6401 548.7318
1661.0643 549.5782
1661.6007 554.62445
1659.0728 557.4226
1659.387 560.4267
1656.9686 563.0968
1653.6068 563.6924
1654.6852 560.6402
1655.1057 557.4143
1651.0361 553.07654
1651.2878 556.44934
1651.1653 559.944
1650.7336 563.3836
1651.7437 566.48676
1648.7239 566.46094
1645.5908 566.4573
1647.9006 562.35364
1644.3049 563.313
1641.4847 565.6647
1643.8387 569.3678
1647.2081 570.17737
1648.9568 572.65204
1650.8462 569.8563
1653.991 570.1417
1653.7997 568.223
1655.234 566.20886
1657.6348 568.6262
1661.1888 567.8305
1658.3699 565.8949
1661.0144 563.47
1664.2327 565.03723
1664.5507 568.2642
1667.6973 568.41565
1669.9692 570.99493
1673.5559 572.055
1676.6793 574.1738
1677.5232 570.44244
1677.619 567.1389
1676.9116 564.2514
1674.2529 565.6093
1673.2217 568.03033
1670.7745 568.752
1670.8933 564.3803
1675.4227 562.0227
1672.615 562.22906
1667.9675 565.3956
1668.1187 561.7408
1664.4542 561.3782
1663.7878 557.9342
1668.0508 557.83887
1670.9136 559.42786
1673.7045 559.20953
1671.9707 556.18
1675.5283 555.6742
1676.1641 558.9052
1678.6858 557.4639
1679.9073 554.6846
1677.1106 553.0813
1675.0891 551.1189
1673.2603 553.25226
1672.6165 549.7714
1670.8381 550.84204
1669.8439 553.44666
1667.2148 554.56274
1664.4901 553.1848
1667.942 549.91003
1664.4895 549.2321
1664.6677 526.51355
1661.6815 523.76074
1659.194 526.16504
1655.0841 526.13617
1655.0571 521.9282
1656.5109 517.86505
1656.7711 514.13074
1659.9249 516.3232
1659.222 520.524
1663.3574 520.84143
1666.5627 522.819
1668.9908 525.8038
1672.7446 523.55634
1669.866 520.9193
1673.2128 520.51044
1672.7795 517.21936
1676.2144 519.22736
1676.8868 522.3531
1675.9799 524.9477
1672.2102 526.73376
1675.7742 527.34106
1679.5472 526.2088
1680.0605 521.4019
1682.3905 523.6698
1683.9508 526.9963
1689.14 527.0189
1689.9521 524.2246
1685.9539 524.2039
1687.7369 521.419
1688.661 518.2282
1683.8851 519.4421
1679.6809 517.8416
1681.9565 515.0021
1685.5779 515.3157
1689.678 514.6445
1693.118 515.29114
1695.1942 517.6865
1692.0795 519.9918
1694.884 522.36707
1692.6813 524.11633
1694.7006 526.861
1697.6276 524.0307
1699.432 526.7426
1703.0995 525.95953
1706.8433 526.8659
1708.5308 524.3003
1706.3586 521.8151
1703.0995 522.6053
1700.1243 521.7655
1696.8191 520.3873
1698.6404 518.22925
1701.0763 517.52264
1697.4406 515.045
1700.4619 513.4319
1703.3955 515.225
1703.3788 519.5222
1705.4606 517.45074
1708.0437 517.919
1710.1526 520.2898
1713.9978 520.62256
1712.1942 523.58954
1712.0986 526.92664
1716.0704 525.6876
1719.4047 526.3239
1722.6528 526.6766
1725.2922 526.7353
1728.0192 527.3632
1727.208 524.3505
1728.8257 522.49426
1730.4432 520.6397
1730.9038 525.9166
1733.9839 526.94836
1735.9167 524.7564
1733.5902 522.0394
1735.8589 518.9935
1732.4287 518.1794
1735.2928 514.74097
1735.2795 510.18738
1732.9325 512.401
1730.6848 510.04987
1727.2089 510.45795
1729.2637 513.33185
1731.2986 515.56165
1727.8232 517.71313
1725.6627 514.1813
1723.7593 517.4153
1724.7598 520.5525
1724.457 523.4733
1721.1158 522.9848
1717.4402 521.6654
1719.9407 519.0322
1720.3398 515.53357
1721.9336 512.8699
1724.0549 510.3137
1720.2769 510.001
1717.3066 511.03516
1716.4476 514.39404
1715.5999 517.3355
1712.058 516.7596
1710.5554 514.019
1713.4114 510.96405
1708.9363 510.31326
1707.0122 513.9202
1704.5808 511.0791
1700.7723 510.03964
1696.5468 511.23898
1692.7471 510.70624
1688.7625 510.9267
1690.8904 488.4225
1695.0559 488.36554
1699.376 488.95212
1702.3595 487.63223
1705.4462 487.0591
1707.0549 488.911
1709.5764 486.93634
1712.852 487.11557
1713.9181 484.797
1709.7789 483.54404
1706.1355 483.42853
1702.6471 483.84058
1697.7936 485.1013
1692.929 484.52036
1693.2039 480.63727
1694.455 477.58658
1696.4692 481.2226
1700.0312 482.18747
1700.0015 478.999
1697.9025 476.99985
1692.6752 474.67563
1693.487 471.62668
1695.831 474.1273
1697.6117 471.33463
1699.273 473.86646
1701.862 475.6588
1703.2102 479.83124
1706.4509 479.79907
1709.9736 479.50995
1714.2454 477.3445
1713.6052 481.15582
1717.7368 483.7152
1718.0864 479.36722
1721.9779 480.89905
1725.5713 478.5325
1728.9441 475.27414
1731.77 471.14612
1733.0538 466.9785
1729.3344 468.12192
1728.5646 471.2925
1725.0374 469.42972
1719.8577 469.40897
1722.355 471.79126
1726.5376 473.4102
1724.3203 475.10193
1721.2722 476.2276
1717.9843 474.55087
1714.5774 472.7007
1711.5074 474.8115
1708.4406 473.71796
1707.8444 476.44592
1704.6908 476.05527
1701.9124 471.86722
1705.0591 471.7114
1707.7949 470.92938
1710.5786 470.19528
1713.27 467.97684
1716.1644 469.33652
1717.7546 465.121
1721.486 463.53592
1724.8545 465.8542
1728.656 464.8385
1728.9806 461.43134
1732.5701 463.27783
1734.978 461.40298
1733.1143 458.69507
1735.7031 456.84735
1737.1821 454.04153
1735.847 451.3532
1734.8892 448.61835
1736.6521 445.88977
1735.4673 442.32874
1734.3196 438.34613
1734.835 435.69547
1730.96 435.80722
1731.9384 432.34024
1729.435 428.1815
1727.4033 432.01974
1727.5538 436.24625
1729.8413 439.2517
1732.9563 440.61392
1731.0602 442.72278
1732.1086 445.46344
1730.9187 448.7949
1729.9001 452.05487
1732.5668 454.40176
1729.5001 457.49258
1725.3348 460.36905
1721.7753 458.1265
1725.6008 455.09
1724.6743 451.3161
1723.5815 447.8146
1721.909 444.26035
1727.5217 446.7986
1727.9448 442.8007
1724.635 443.1667
1726.0587 439.57516
1724.2699 435.68073
1721.1558 435.03015
1722.8344 439.70755
1720.3167 440.00772
1719.2617 437.213
1717.0215 436.0512
1714.9889 433.57166
1711.2812 431.86157
1714.3151 430.01236
1714.4781 426.22836
1710.8623 428.2448
1709.9999 425.14545
1707.5247 427.2011
1707.5935 430.4281
1704.3107 428.97052
1701.1268 429.2298
1702.2019 426.19025
1699.5667 424.49634
1699.1068 427.23743
1697.3092 429.62115
1696.4604 427.43704
1693.5186 429.30496
1692.296 426.25592
1694.5905 426.09888
1696.9261 424.6215
1696.2627 422.28696
1701.2749 422.77213
1703.9479 423.38763
1705.2385 425.76825
1707.29 423.44586
1705.8214 421.14285
1702.6696 420.33115
1699.0824 420.72855
1698.5123 417.70096
1695.5356 415.36255
1692.6218 413.60803
1690.4851 415.5472
1689.6475 411.90305
1685.4161 412.24258
1686.2108 414.3345
1687.7144 416.2696
1692.4268 417.99585
1695.4675 419.1282
1693.5039 422.43094
1691.1763 421.1084
1688.3845 422.4013
1690.0977 425.08694
1689.6597 429.42905
1685.7949 430.09808
1682.9216 431.48672
1678.9271 429.2521
1679.6265 432.77728
1676.4646 435.8494
1673.67 438.12585
1673.1052 441.37836
1670.6895 443.13214
1669.6254 439.96823
1670.1902 437.03436
1671.9773 433.78983
1675.6362 432.80606
1674.8552 430.10175
1675.0104 427.25525
1675.2365 424.2353
1676.043 421.10437
1678.817 419.59573
1679.5839 422.91373
1678.5345 425.92844
1682.3322 424.45154
1682.7233 427.8832
1687.2333 427.2791
1685.8091 424.82156
1684.9226 421.8727
1688.6124 418.96964
1685.05 419.42453
1681.7832 419.43787
1684.4607 416.95148
1681.9724 414.59634
1678.6207 415.88437
1672.6653 399.96536
1672.9683 396.43948
1672.614 392.79346
1669.9979 390.33722
1669.5635 394.29947
1670.6045 397.7041
1668.0061 397.38614
1666.1779 399.64136
1669.114 400.2748
1675.2478 417.38263
1671.9617 419.14874
1672.5741 422.14426
1668.8536 422.4017
1671.6375 425.37857
1671.35 429.45758
1668.0284 434.16965
1667.78 430.60544
1668.6104 426.63495
1665.696 425.8952
1663.6847 429.39093
1660.9719 433.61215
1664.2878 433.39172
1666.2542 437.16614
1663.064 438.50464
1659.8397 437.41254
1658.7124 441.02057
1663.4719 442.5659
1666.0298 440.74664
1668.1815 442.51282
1667.3518 444.49084
1669.1962 446.74237
1671.7413 445.41937
1671.5197 448.8807
1669.2866 450.2404
1671.3213 453.2867
1669.3798 455.56454
1667.6672 453.07843
1665.7466 450.96576
1664.0563 448.57114
1666.8658 448.31876
1665.5176 445.6815
1662.9226 446.20996
1660.6602 443.94742
1657.6329 445.53903
1660.0004 447.86865
1662.6538 450.69586
1660.2059 451.5003
1657.5312 450.90872
1657.7947 455.67105
1661.0669 454.82706
1664.3274 453.92963
1665.065 457.20535
1659.371 458.35162
1662.6631 459.73483
1664.886 462.04764
1667.8202 460.64642
1669.0796 458.15408
1672.7294 458.59048
1671.3502 461.56525
1674.7872 462.88266
1677.6547 465.7061
1676.9526 468.44867
1673.6603 466.9342
1672.0281 469.9057
1672.0283 472.74933
1668.2664 472.4301
1668.6597 468.6879
1670.1436 467.05402
1671.2365 464.52197
1667.928 464.00858
1664.365 465.31927
1662.0787 464.42126
1659.5199 461.90253
1659.7549 466.02042
1661.5952 469.64618
1663.6666 468.24426
1666.4604 466.529
1666.6156 469.62454
1664.3552 471.7359
1665.7838 475.16617
1668.4631 478.18332
1670.6547 475.6779
1671.6528 479.75952
1675.764 478.9111
1674.7114 475.64432
1675.8458 471.86298
1679.6982 471.62064
1681.5825 468.6431
1685.3372 470.43182
1686.7026 473.84067
1689.4608 471.40674
1689.6459 474.7699
1690.4427 477.67377
1687.6954 479.5291
1690.198 481.26987
1688.6667 484.2582
1685.2942 483.52417
1681.9109 482.3478
1684.841 480.4146
1685.6813 476.87567
1682.9272 473.69687
1678.9363 475.60928
1682.1476 477.87457
1679.1265 480.102
1673.8438 482.13455
1676.4395 483.26605
1678.9287 484.59036
1681.5374 486.25418
1684.443 486.7333
1687.2405 487.99365
1685.079 510.86526
1681.4731 510.8007
1678.686 513.66956
1676.1111 516.1357
1675.1316 513.1623
1677.5945 510.10944
1673.6501 510.28537
1669.365 509.71677
1671.0259 511.84195
1671.4309 514.5149
1669.1508 517.04663
1666.4402 518.91327
1662.944 517.64545
1665.8887 515.22894
1668.2407 513.1088
1666.1855 511.46954
1664.8784 509.49225
1661.243 509.70294
1663.1879 511.81744
1662.8273 514.4052
1659.9697 512.7811
1658.0701 510.30637
1654.7861 510.25504
1653.0347 513.548
1650.9482 510.68573
1647.7709 511.35794
1646.2073 515.19434
1642.8368 517.25665
1646.179 520.1102
1649.5082 516.4388
1653.0332 517.5245
1650.3472 521.3901
1650.821 525.9811
1646.8478 525.128
1643.5321 525.9707
1640.2887 527.0581
1637.2255 526.14746
1639.8442 523.38354
1642.5437 521.3795
1639.3323 518.8559
1637.9062 515.861
1640.2683 514.213
1643.0986 513.25385
1644.2881 510.20218
1640.0333 510.0577
1637.8096 512.113
1635.5367 513.77356
1635.6624 510.18613
1632.5735 509.62454
1632.2595 511.93115
1633.4319 514.71466
1635.3721 517.6635
1636.6505 521.0988
1634.756 523.62366
1633.657 526.60516
1630.0205 527.0263
1628.7561 524.3597
1630.9711 522.6859
1632.9252 520.1033
1629.235 519.1243
1631.7784 517.01495
1630.8313 513.989
1628.8307 514.609
1629.0079 510.55316
1568.1362 462.54587
1568.1257 458.5967
1568.9185 454.5738
1565.8263 455.61862
1564.6818 452.59048
1561.5009 452.92313
1558.6718 451.75003
1561.449 448.93658
1562.1122 445.6065
1565.1924 445.9845
1565.3567 449.16232
1568.6035 450.87036
1568.7439 446.92267
1568.4828 443.102
1567.6434 439.7493
1565.2733 442.85715
1562.1372 442.38574
1559.0441 441.8809
1559.365 444.7484
1558.047 447.40384
1556.0209 449.4574
1555.65 452.50452
1557.0543 455.06058
1556.5281 458.0556
1556.4485 461.18082
1560.2549 456.69156
1563.5195 457.93567
1563.7708 462.19897
1560.3734 461.27667
1557.2424 464.0169
1529.7506 492.33163
1532.0122 494.82858
1532.9897 497.57608
1529.1849 499.64938
1530.0985 496.92407
1528.129 494.86896
1526.9055 491.14215
1524.894 489.10208
1522.2101 486.76172
1519.3484 484.4407
1515.7638 482.43625
1512.2875 482.78024
1509.532 482.4
1507.4979 485.70703
1502.5092 488.11417
1496.8163 484.77606
1500.4209 483.82578
1503.7078 485.16696
1506.0447 483.0112
1506.785 480.09814
1503.0862 480.69272
1499.5593 479.7391
1495.8765 480.7182
1492.2037 480.0886
1490.1833 482.7667
1486.278 481.97018
1486.6653 486.1948
1481.4415 483.71616
1481.4912 487.838
1484.7181 490.08807
1488.1406 491.1877
1489.5881 494.5749
1491.9562 496.84222
1494.6423 497.9723
1496.2323 495.88428
1498.7542 497.5912
1499.3716 494.75967
1501.9943 493.67813
1497.1096 492.00558
1494.5618 493.6008
1492.1592 492.1862
1490.7466 488.46817
1492.9498 485.2812
1495.2708 488.89734
1499.2935 487.56296
1499.9171 490.81665
1503.5369 491.23062
1506.8093 491.79443
1505.5646 488.66943
1508.6665 488.36877
1511.6437 487.57172
1514.6206 489.93588
1515.399 485.88684
1518.5333 488.72638
1521.4031 491.07776
1517.2499 493.01904
1513.2982 494.5881
1510.5924 491.7282
1505.0192 494.9786
1502.7289 497.5142
1507.2623 497.98267
1508.9177 494.90475
1511.5743 498.4614
1515.4656 500.67276
1516.5157 497.27417
1519.9634 496.35565
1519.895 500.21014
1519.3752 503.6716
1523.2224 498.84003
1521.9304 494.31467
1524.8917 494.2312
1526.3505 497.74734
1526.1399 501.41278
1528.635 503.6377
1529.7751 506.41782
1532.2867 508.25662
1531.8513 505.39426
1533.5828 504.3504
1533.5848 502.2568
1530.8191 502.22626
1532.247 499.93747
1534.5054 499.98767
1536.157 500.33823
1536.2018 502.50803
1536.1903 504.55835
1537.7749 506.35034
1534.5125 507.13376
1536.8518 508.36343
1537.0557 510.2541
1533.9167 510.88306
1530.4857 510.1556
1527.7014 508.29346
1525.9446 505.47067
1523.1089 503.55722
1522.6554 507.52878
1524.8427 510.53326
1525.1564 515.6033
1528.0221 512.71216
1531.4008 513.53467
1536.4061 512.6377
1539.2863 511.42944
1538.348 514.781
1539.086 517.6572
1538.454 521.72437
1535.5991 524.9992
1538.4784 525.72534
1537.0582 528.84033
1535.4122 530.9027
1533.0284 527.18805
1533.7429 522.4406
1536.1871 518.7228
1534.8667 514.97675
1532.1624 516.59235
1532.2827 519.54645
1527.8579 517.8209
1528.9971 521.5693
1525.2504 523.1195
1529.6367 525.3716
1530.1941 529.80646
1530.3575 533.8818
1532.8105 532.54474
1535.5046 534.57715
1534.2748 537.80084
1531.8146 537.3977
1532.3359 542.1326
1529.1912 544.7761
1526.9286 547.51904
1523.3472 546.98737
1524.3922 544.01605
1526.1714 541.875
1525.9893 538.6666
1528.9766 541.1481
1529.7804 538.86584
1528.5247 536.1952
1527.0223 532.54065
1526.5851 527.92957
1522.8685 527.9393
1524.3081 531.0455
1521.3914 532.4154
1523.0952 535.4028
1525.7007 535.6262
1522.9425 539.452
1521.313 542.4163
1519.808 545.4081
1520.7158 548.74023
1523.4257 550.93146
1519.3744 551.42804
1517.3284 548.6162
1515.2451 546.64575
1516.1526 544.3654
1517.5358 542.1127
1519.5006 539.82886
1520.1583 536.8711
1518.855 533.9057
1516.2308 535.8044
1516.6697 538.89453
1513.5773 541.8316
1513.6647 538.0248
1510.6779 538.61035
1507.2051 539.05066
1506.3677 542.46216
1509.6594 542.21533
1511.8088 545.06537
1508.7147 546.6375
1505.4297 546.00903
1503.1116 542.7169
1503.5745 539.5649
1500.2494 539.7263
1499.5347 543.3515
1496.9912 541.5848
1496.8938 539.09924
1493.56 538.8523
1493.0793 541.64307
1489.9482 539.3658
1486.5945 537.7712
1485.614 540.8803
1488.4774 543.4983
1484.5303 544.0538
1486.1097 547.4046
1490.2318 548.1037
1491.6366 544.4662
1494.1146 547.4388
1495.7009 544.2445
1498.0145 547.17163
1501.7817 545.44836
1501.6464 548.2008
1504.8451 549.4134
1507.6888 550.78284
1501.4012 551.47046
1498.2778 554.22833
1497.9481 550.80365
1494.5195 551.3812
1490.9271 552.186
1487.3444 551.41516
1484.8802 554.90845
1489.195 556.0684
1493.2213 555.6928
1495.2968 557.60443
1498.4653 557.4556
1501.2603 557.65314
1502.4146 555.0616
1504.7664 552.9469
1504.6573 557.894
1506.7865 555.71466
1510.1078 557.0294
1509.8818 553.8238
1510.9833 550.64514
1512.8643 548.33185
1514.8572 551.5702
1513.8518 554.9308
1518.2253 553.9186
1532.8179 595.7064
1532.3014 598.19543
1537.0282 596.1634
1536.5884 599.81323
1538.3885 602.86597
1536.5372 603.3927
1537.5118 607.1336
1536.5334 610.39935
1536.369 613.65283
1531.8992 612.2317
1533.5715 608.011
1534.5251 604.5811
1533.3723 600.80914
1531.9572 603.28735
1530.5026 605.67303
1529.4637 608.9904
1527.0876 612.33307
1524.3359 609.1203
1526.29 606.3971
1527.2773 603.50653
1529.7651 600.96
1526.7954 599.7708
1528.4971 596.64044
1524.6738 596.8829
1521.2523 596.79767
1516.7482 596.46985
1515.4484 599.96063
1511.7826 601.6186
1512.0775 596.7891
1508.7543 599.3308
1505.2319 600.8052
1507.4579 595.98706
1504.2081 596.07697
1501.9338 599.5467
1501.254 595.9263
1498.7219 595.6654
1496.0626 595.5296
1493.0051 595.5331
1489.793 596.5504
1489.6179 594.1365
1486.1444 593.81934
1484.9315 596.8522
1482.8845 592.6444
1481.2275 595.15515
1478.5994 593.0145
1477.1692 596.0442
1476.4657 599.45386
1480.8193 598.0992
1479.4689 601.46967
1479.9032 604.91614
1481.207 609.0499
1483.327 607.0032
1482.9884 603.7475
1485.9097 604.91266
1485.4218 601.98425
1483.0403 600.2711
1486.9884 600.3468
1488.5266 598.48157
1492.1213 599.1076
1495.243 598.7554
1498.159 598.5526
1498.9906 601.85614
1494.5968 601.7071
1496.2683 604.2396
1494.105 606.9084
1492.1241 604.44556
1490.261 601.84686
1488.5619 605.02155
1490.329 608.13184
1493.0516 610.4555
1496.056 609.19794
1498.7076 606.2351
1498.7836 610.15564
1503.2396 609.7562
1506.6497 607.6085
1501.8422 607.2602
1502.6925 603.9333
1507.6796 603.7302
1510.9196 606.2446
1513.7704 608.7348
1517.325 609.15283
1520.104 608.0413
1515.2458 604.46466
1518.9089 603.4648
1519.668 599.7119
1523.4977 601.5677
1522.3636 605.1968
1521.8531 612.42
1516.3243 612.7744
1511.425 611.94635
1508.1246 611.8872
1505.3674 612.33093
1502.7761 613.3798
1500.2162 612.49664
1496.586 613.02423
1493.2788 613.35944
1490.3512 612.6879
1488.079 611.5783
1486.1853 608.81793
1485.4458 612.87646
1482.4666 612.3792
1479.0219 612.2263
1475.4633 612.1088
1471.7051 611.6694
1468.3031 606.7655
1472.8892 606.89355
1477.2218 607.7816
1475.4563 603.3328
1472.9259 598.386
1470.5879 601.9911
1465.9708 602.21356
1463.0593 606.1531
1467.5571 611.6019
1463.5981 634.608
1464.158 637.65594
1460.9584 635.73096
1460.8417 638.19727
1461.878 640.4803
1462.4001 642.8662
1464.568 644.3578
1460.4395 644.84143
1462.6497 646.88403
1461.7544 649.6583
1458.4672 649.7074
1459.1969 652.04266
1458.1536 654.46954
1462.083 653.2221
1464.7529 653.635
1468.0471 654.62225
1467.542 652.0238
1471.0985 650.6423
1468.1167 649.17804
1464.7906 649.94025
1466.0105 646.7604
1468.7515 645.94574
1471.4525 646.98926
1474.2354 649.66833
1471.2848 654.2942
1474.6425 655.6063
1477.1965 659.5568
1479.7653 657.2171
1483.6046 654.6404
1479.6016 653.8969
1476.6893 652.07556
1478.4012 648.5071
1481.8248 650.547
1485.8146 649.26733
1483.1168 646.82135
1481.0994 644.15424
1478.1158 641.739
1477.6501 645.22107
1474.5475 645.6234
1472.0266 643.5475
1469.3219 642.67053
1466.9962 642.7892
1465.097 640.67804
1467.7344 638.657
1471.177 640.3351
1474.6426 641.12476
1471.1481 637.6433
1467.4036 635.0376
1471.5485 635.12885
1474.9147 636.63635
1477.5565 637.7612
1480.5383 638.8572
1483.0824 640.802
1485.2786 642.9516
1487.0973 645.27203
1489.3223 646.8744
1490.0989 649.6439
1492.2405 651.74524
1493.1667 654.98425
1494.2904 657.6911
1494.3694 661.074
1491.3374 663.3836
1488.8875 660.8115
1490.884 658.30896
1490.028 654.53424
1487.236 652.2912
1487.0972 656.2611
1485.5498 659.4331
1482.2107 660.3196
1479.6238 664.07227
1481.3269 668.94574
1481.1464 673.3868
1483.6383 664.99097
1487.296 663.942
1487.0992 668.0571
1485.8054 672.3707
1483.42 676.1883
1486.7678 678.2259
1490.1173 681.1885
1491.6835 677.94366
1489.3818 675.20074
1493.2006 672.92487
1489.9797 671.26825
1491.7349 667.741
1494.763 664.99304
1495.6304 669.29846
1495.9003 674.1082
1495.2915 677.535
1495.285 680.8132
1493.0378 683.343
1496.2579 684.5119
1494.0308 686.6341
1496.1094 688.98706
1493.068 690.07806
1489.6816 690.0093
1490.8922 686.9472
1489.1346 684.4823
1485.7024 681.9182
1481.4963 679.53345
1480.6571 683.732
1483.375 685.08887
1480.9297 688.6176
1484.4951 689.01776
1486.6532 686.3655
1486.6089 691.2889
1484.5059 694.8474
1481.7686 692.3966
1479.8384 696.0157
1476.1602 697.5064
1479.7347 701.9523
1481.9225 698.86694
1484.6348 702.3488
1487.7576 703.7461
1490.5265 705.3277
1493.6979 704.57935
1495.8606 701.91034
1491.9861 701.2345
1490.0725 698.61774
1485.85 699.0415
1487.6935 696.46497
1489.1227 693.8497
1492.3494 694.00635
1495.5764 692.82886
1494.2872 697.5022
1497.865 696.08405
1501.8097 696.7513
1498.5571 699.38196
1499.0288 703.3837
1500.9589 706.7783
1503.6382 709.3839
1505.5566 711.5777
1508.6421 712.5254
1508.3729 709.59454
1507.1948 706.7423
1504.222 706.3461
1505.562 703.20886
1502.3751 703.56635
1502.3071 700.3127
1505.9009 699.7841
1505.0558 696.3903
1508.1025 696.6383
1510.7472 697.374
1513.1196 696.2375
1513.7578 699.6396
1509.5579 700.2363
1508.403 703.4151
1510.5029 706.7983
1511.1678 703.26556
1513.8038 703.0454
1513.6006 707.02325
1516.2424 705.22314
1517.125 701.4406
1521.1 700.88446
1518.8646 698.2014
1516.3605 696.5727
1521.3564 695.9773
1523.8219 698.5074
1526.6273 696.70856
1530.0979 697.2835
1527.2429 700.9227
1523.8698 703.31335
1526.554 705.8082
1530.2966 703.45764
1532.6117 700.6524
1534.0168 696.8308
1537.7201 697.68066
1537.124 702.21857
1534.4949 704.4338
1533.4084 707.55975
1537.1543 707.8323
1537.0833 711.4273
1537.6155 714.94556
1534.7007 713.99133
1533.3008 711.0107
1531.6852 714.3642
1528.7468 713.82465
1530.4584 710.00305
1529.8624 706.73444
1527.3818 709.84064
1522.6667 707.2327
1519.9183 704.4483
1518.4589 707.9482
1517.3623 711.9304
1520.3926 710.84735
1523.8356 710.13446
1525.634 712.4451
1525.384 715.00586
1522.2263 713.88873
1518.93 714.6753
1514.9055 714.3437
1515.1785 710.05835
1511.9026 710.28265
1511.9657 713.2916
1510.0406 715.0269
1506.7197 714.58026
1503.8453 715.0944
1502.2189 712.84924
1499.6338 714.8694
1498.116 712.39087
1499.896 710.00104
1497.7322 707.08545
1494.7185 707.2646
1494.9579 710.8759
1495.4646 714.54224
1491.2311 713.78937
1486.9486 713.46643
1491.1178 709.47675
1487.1088 708.5793
1482.8375 705.8976
1482.9937 710.07806
1482.5116 714.0131
1477.2429 714.5562
1478.9769 711.15985
1478.4214 706.9573
1476.137 703.1911
1473.7883 706.48456
1471.2645 702.13293
1473.6422 700.08417
1471.1237 696.91516
1467.152 700.82733
1466.5497 697.0153
1462.3931 696.4942
1461.7528 700.35443
1458.6383 698.3065
1457.3085 695.8084
1454.3452 697.27625
1456.9365 701.60114
1455.6912 705.80566
1456.9314 710.2294
1458.5934 707.9471
1459.6826 704.57886
1463.4462 703.36725
1467.1638 705.14966
1470.0911 705.0844
1470.5771 708.9237
1475.1167 710.38794
1472.9865 712.91766
1471.1141 714.6604
1468.7715 711.87213
1467.6757 714.5252
1464.6187 715.13525
1461.4602 714.3113
1464.3306 712.095
1466.3962 709.57184
1464.833 706.83185
1462.1349 708.1768
1460.6099 711.33765
1457.259 713.1142
1458.1713 715.2505
1453.458 714.5282
1449.4962 714.23724
1446.2173 713.0688
1442.1602 715.3218
1443.0691 712.0716
1440.8428 710.0071
1438.9182 713.0045
1435.8527 714.1226
1431.15 715.1684
1432.3379 712.65186
1432.5801 709.15204
1430.8772 705.8681
1432.1509 702.2091
1434.8082 699.4946
1431.7041 698.5101
1431.6229 694.53766
1435.4067 695.87274
1433.9176 692.6864
1431.7079 690.38696
1433.0878 687.6279
1431.6666 684.5145
1431.4225 680.5849
1434.9873 682.2153
1436.1421 685.3736
1438.7345 687.1078
1438.9531 681.3694
1437.2867 678.8708
1440.004 676.66473
1442.1793 679.46936
1443.4725 682.4412
1440.3853 683.96094
1443.3976 685.81964
1441.4369 687.5203
1441.7794 689.86957
1440.1917 691.77734
1436.7422 689.52795
1436.4923 692.2349
1438.3313 693.5132
1440.8567 694.6609
1438.5526 696.09717
1437.6814 698.7487
1437.4637 701.916
1436.54 704.5112
1433.9165 705.5204
1436.6896 708.96625
1441.1078 707.13165
1440.4679 704.1169
1444.033 704.2891
1447.0077 703.64703
1449.3774 705.898
1445.7167 708.37024
1449.7078 710.4824
1453.8262 711.868
1453.4769 709.10474
1452.1461 706.6162
1453.0892 702.887
1449.328 701.30084
1452.2332 699.5904
1450.3489 696.5182
1447.1735 698.8118
1444.8226 697.2946
1443.8215 700.57513
1440.4532 700.92346
1440.6687 698.2408
1442.3801 696.88983
1443.7007 694.5846
1446.6833 694.87286
1443.3457 692.1918
1445.9285 691.52014
1445.3273 688.8993
1446.1034 686.3133
1446.1971 683.4357
1445.764 680.25555
1445.9242 677.57745
1446.7686 674.5278
1444.9249 674.3947
1443.2306 676.5039
1442.5789 673.6836
1439.1843 673.30817
1440.6798 671.30634
1443.1117 670.64044
1445.6006 671.83276
1446.5503 669.5637
1445.7908 666.98645
1442.7118 667.50244
1441.2598 664.7619
1441.1704 661.79785
1437.013 661.05896
1436.6617 664.5363
1438.4833 666.56085
1439.254 669.29474
1436.0581 669.45245
1435.7415 672.04443
1436.9592 674.7898
1435.1534 676.3078
1433.9105 679.01337
1431.8431 676.6709
1429.4153 674.53906
1432.8159 673.3919
1431.7325 670.1811
1433.9962 667.6391
1431.0297 666.5291
1433.6439 664.58136
1432.9398 661.994
1432.9766 659.12854
1433.2463 655.80457
1434.3027 649.25415
1435.7828 652.4494
1437.0217 656.53357
1439.8861 658.644
1443.9197 658.72656
1447.0619 657.0528
1444.9645 662.74554
1447.6588 664.44214
1448.6484 660.74744
1451.2362 657.6094
1454.6448 654.77386
1450.4258 653.7885
1445.1266 652.9243
1441.8613 655.4411
1440.013 652.7227
1439.9788 649.4183
1438.5635 645.7188
1441.8398 643.06226
1444.6854 639.45044
1443.7552 647.56396
1447.741 650.1684
1447.8312 646.15576
1446.9708 642.83984
1448.4133 639.21375
1448.5884 636.4707
1451.7899 637.25903
1454.039 635.5824
1455.0166 638.6108
1451.0613 641.1494
1454.7568 641.70953
1457.7207 643.47394
1455.1028 646.04144
1451.8074 644.80457
1451.5394 649.30273
1455.0402 650.38196
1458.3724 647.09076
1458.9512 641.0772
1457.902 638.9369
1457.8239 636.5519
1456.412 634.58234
1459.2075 634.1135
1463.2882 612.7604
1461.7659 609.8544
1461.5684 600.9443
1463.9268 597.51337
1468.8491 597.35016
1473.106 594.5754
1470.8866 591.8037
1467.2423 590.34094
1470.8441 588.38965
1472.3972 585.5989
1474.1165 589.3412
1475.6019 592.2503
1479.8108 590.7546
1477.4236 588.7553
1475.7651 586.3658
1475.1578 583.81696
1475.0475 581.18726
1472.179 581.4959
1469.8062 583.54553
1469.1663 579.25226
1471.3704 576.8963
1473.6824 578.052
1475.94 578.4145
1475.812 574.7673
1472.5552 573.6487
1468.4962 575.0925
1465.23 573.5474
1464.8726 578.1438
1463.8955 582.23846
1467.0911 581.6797
1466.1351 585.0141
1468.3763 586.84296
1464.1484 587.48535
1461.6053 584.78015
1460.7638 582.0629
1460.6648 577.66736
1460.8538 574.2475
1461.74 570.4748
1463.506 566.8666
1467.1506 568.6953
1469.8022 570.962
1473.0259 569.8051
1475.7937 571.18353
1478.0511 571.181
1480.769 553.18396
1477.84 551.15533
1483.834 551.2882
1481.6587 549.00055
1481.5803 545.9246
1480.8219 542.89014
1481.1667 540.27856
1482.4307 538.0928
1482.9559 535.75696
1480.8516 532.84845
1479.8174 534.14484
1479.1284 536.02966
1477.5795 537.9778
1474.6475 539.41113
1471.9465 540.4612
1477.0603 541.34894
1477.6592 544.364
1478.0659 547.4311
1474.9246 548.9827
1474.0619 544.41425
1471.777 547.3855
1468.9893 545.07605
1470.1462 542.5264
1466.5065 540.2853
1469.0168 537.8976
1472.1677 536.8587
1474.2749 535.1028
1474.3737 531.4625
1476.493 533.79193
1478.3639 532.0796
1477.0986 530.4129
1476.0321 528.57275
1473.6232 528.08734
1471.7723 531.4156
1469.9786 533.8669
1466.5437 535.2231
1463.1141 535.63116
1463.9696 531.81635
1467.823 530.5545
1464.5793 527.486
1461.04 529.5959
1460.5259 524.7798
1463.682 522.4532
1466.5846 524.3775
1468.4756 526.77527
1470.8787 528.7772
1471.7382 526.3176
1475.2574 526.0091
1473.376 524.15967
1473.8745 521.74756
1473.1646 518.2777
1471.1578 520.1019
1470.6859 524.4214
1469.9922 522.5784
1467.4845 521.1199
1468.2035 518.0902
1468.0529 514.9061
1471.283 515.38776
1474.0922 515.3027
1473.8129 511.96844
1470.4315 511.41373
1469.5702 507.44812
1465.7764 507.04913
1466.9496 511.32095
1463.2261 511.1047
1463.7709 515.17554
1464.3428 518.7409
1460.4825 518.80927
1459.8276 512.92346
1461.5256 507.42606
1462.8491 502.9348
1466.6033 502.65128
1469.9729 503.33572
1472.9452 505.45673
1472.8389 508.7211
1475.6472 508.6218
1477.6895 506.2778
1476.0013 504.62878
1478.5042 502.92947
1481.7794 502.81293
1484.6788 500.6343
1488.7981 498.77823
1487.1196 496.30124
1485.0369 497.95877
1484.865 494.03116
1480.9913 492.33377
1480.1534 495.54413
1482.2844 497.72845
1480.8413 500.6111
1478.6243 498.61948
1476.0933 494.76962
1475.9355 499.3461
1474.0824 502.29358
1472.5123 499.3404
1469.0647 498.7688
1465.3678 498.34366
1468.3202 493.98996
1472.1188 495.26828
1472.2312 490.44153
1477.125 490.53717
1476.6848 486.4449
1462.383 468.04877
1461.9209 464.36044
1462.6947 460.59824
1467.0481 465.2946
1467.291 460.89902
1462.5779 456.27292
1462.5568 450.97174
1467.5658 457.1522
1471.3715 458.0833
1471.3141 463.3223
1475.5498 462.80438
1474.1613 460.00906
1474.6693 456.31253
1473.205 453.2277
1470.2246 454.22012
1466.9944 452.67313
1467.446 448.3386
1471.3192 450.002
1472.4165 446.68097
1476.3467 445.99432
1475.3121 450.69186
1478.6167 449.9945
1482.5099 450.8726
1484.5399 454.12143
1481.0742 454.96155
1477.6201 454.17444
1478.1611 457.93597
1478.5588 461.22375
1481.3832 459.95667
1483.4902 458.26154
1486.2802 459.39005
1486.4349 456.4454
1488.7345 454.2821
1487.2004 450.9607
1485.6848 447.27267
1481.5225 446.86713
1479.9065 443.76715
1484.0468 442.47305
1487.5334 442.56094
1491.2789 439.583
1492.4015 442.94482
1489.789 445.64175
1491.2385 448.56525
1491.7186 452.3234
1491.4076 456.36053
1489.1433 458.02213
1494.1918 455.93066
1495.7645 453.6552
1495.4979 449.76785
1499.5332 450.90775
1499.2968 454.088
1503.1543 451.254
1506.6692 450.77347
1511.1487 448.57718
1507.7058 447.5754
1505.1981 442.5645
1504.2762 446.36432
1500.1704 447.34842
1499.9022 443.23914
1495.6956 445.48956
1495.8698 440.09625
1498.9438 437.76523
1502.1064 440.047
1503.1412 436.48227
1506.7589 434.8323
1510.8047 434.66602
1514.6528 433.79993
1514.1609 429.33078
1515.5852 425.93088
1512.2145 424.4244
1510.1976 426.06436
1507.2657 424.41214
1504.1882 423.88376
1502.5347 421.26077
1501.0381 423.36566
1498.9274 421.71954
1498.0977 418.62332
1500.8217 419.1187
1503.7518 417.98495
1505.9211 420.85037
1509.81 421.56564
1508.9546 418.28
1506.1937 416.33002
1508.938 413.6746
1504.8561 413.2216
1501.3357 413.5153
1501.1147 416.20908
1498.0645 416.10428
1496.0403 414.50885
1494.8024 417.6362
1496.7397 420.4111
1494.955 421.13123
1492.5695 419.93216
1489.574 419.16513
1491.519 417.48367
1492.345 415.2541
1492.6267 412.78946
1491.3684 409.1494
1495.4797 408.27216
1495.0518 411.3329
1498.1125 412.022
1500.2717 410.1009
1498.4608 406.33035
1493.5929 404.3809
1489.0156 405.1912
1486.6837 401.662
1484.0988 407.24026
1478.6877 409.7707
1481.49 411.1717
1484.3698 412.6933
1487.4132 410.0317
1488.7319 413.49088
1488.7426 416.44632
1486.4447 418.30817
1485.2183 415.9754
1481.9932 416.04846
1478.5435 414.51517
1474.3005 413.8079
1475.8081 410.91882
1475.0052 406.99628
1472.093 409.55646
1469.7649 412.29422
1465.0641 410.4812
1461.224 408.1705
1461.8892 403.22412
1461.6841 398.72662
1463.6537 396.38773
1461.8945 392.71576
1465.9694 393.8934
1469.8748 395.31973
1467.5125 398.11124
1465.4543 401.3444
1465.5494 405.802
1468.5269 408.19666
1471.791 404.78952
1469.1908 402.47128
1471.6781 399.48688
1474.2666 396.33752
1475.4822 399.86536
1476.75 403.17776
1479.509 406.228
1482.2375 402.46255
1479.759 398.73245
1485.9308 377.68716
1484.5786 373.63123
1481.7704 376.66614
1479.0112 374.2877
1480.9683 370.4816
1484.7356 369.6846
1488.4965 370.74994
1491.0999 368.20013
1493.594 370.06918
1492.436 373.5401
1489.0352 374.9033
1489.9136 378.6611
1493.7948 378.80655
1496.2347 375.23666
1496.7961 371.77417
1500.0386 372.53177
1501.2009 375.56796
1497.9148 379.0272
1501.7874 379.48328
1502.549 406.7483
1503.5293 409.8584
1506.9495 409.13495
1510.8401 410.2802
1512.3411 415.63712
1514.645 412.42654
1518.4309 414.12683
1523.6056 415.06497
1520.5306 417.77554
1516.9236 418.6953
1513.49 418.59586
1513.8866 421.9138
1516.8915 423.08044
1519.439 421.89603
1519.7393 425.67972
1517.917 429.08322
1519.2725 432.3323
1518.5239 435.84286
1521.1208 439.68854
1517.1809 439.31543
1514.1421 440.02075
1510.6492 439.73093
1506.9506 438.87955
1509.5369 444.02002
1513.9468 444.31375
1515.4213 447.7756
1518.5565 444.9684
1521.5294 443.70718
1524.2769 444.1647
1527.3689 443.1387
1525.0884 440.2364
1522.835 436.10318
1523.2109 432.3646
1522.0361 428.89462
1525.9435 429.92624
1526.6923 426.44287
1526.0422 423.0451
1523.1095 425.27655
1522.1832 421.63208
1524.2389 419.54404
1527.0266 418.08533
1530.4792 417.32175
1533.7412 420.00912
1529.511 421.77386
1531.2732 424.78677
1529.725 428.67935
1533.2164 430.79858
1529.6987 432.5549
1526.3856 433.87152
1527.0177 437.0593
1529.0889 439.78516
1530.9292 441.92227
1533.3582 439.51486
1530.7632 436.2357
1533.9692 434.95737
1537.0115 433.48856
1537.2786 430.27505
1534.2179 426.87665
1537.0315 423.62836
1538.5095 420.16766
1542.8754 422.9002
1539.1057 426.81693
1544.8013 427.07852
1548.5576 424.64478
1550.7761 427.59418
1553.9397 429.59726
1556.0577 427.03693
1560.1055 429.09238
1558.8186 431.29007
1556.8472 432.55725
1556.053 435.09006
1555.8666 437.27173
1553.2523 439.99686
1550.5143 437.29935
1553.3234 436.7741
1553.8219 433.32108
1551.0414 432.9832
1548.2598 431.07455
1545.0054 431.65884
1547.8025 435.46576
1546.2573 439.1542
1544.1041 435.74637
1541.5331 429.73788
1541.0844 433.57437
1538.7418 436.49963
1536.6818 438.96298
1542.0594 438.98874
1547.0236 442.03387
1550.2166 440.68542
1550.6147 443.99405
1553.2789 443.34732
1553.9283 446.7958
1556.3492 444.36124
1555.8702 441.685
1556.165 439.36392
1558.9175 439.30505
1558.2863 436.96512
1559.9468 435.20587
1562.1821 431.678
1562.4388 433.89096
1563.8182 435.60342
1562.504 437.284
1561.4404 439.4343
1564.4664 439.8122
1566.0311 437.10037
1565.5717 433.83228
1638.9119 382.80405
1639.0623 377.82733
1635.7058 378.07056
1633.4753 373.13397
1636.948 373.8442
1639.9832 373.17853
1643.1582 372.18597
1643.9646 374.81967
1642.4648 377.23666
1641.6322 380.98816
1645.1958 382.7858
1645.3594 379.48804
1647.1436 376.54935
1646.9299 372.8637
1650.3308 372.38647
1653.5927 373.48682
1657.058 372.9477
1658.9968 378.80472
1656.2585 377.1538
1653.253 377.9258
1650.4585 376.0244
1649.0161 380.15875
1649.1589 384.6388
1644.827 386.12122
1641.3562 386.55322
1643.9708 390.3149
1647.9159 389.00974
1651.4684 388.75333
1654.4524 390.0837
1657.1377 388.53943
1654.5625 386.02487
1652.7471 383.63272
1652.4209 380.76013
1656.6155 381.79678
1658.45 385.13922
1661.2495 386.687
1659.5745 390.77463
1660.6858 394.28882
1658.7515 395.5841
1659.0428 399.30508
1661.4208 400.1355
1663.8656 399.8725
1662.8494 397.07843
1663.3519 393.69424
1666.0118 395.66013
1666.4703 392.22528
1663.0975 390.4419
1664.2357 387.4334
1661.1008 382.3226
1664.568 384.378
1666.7686 388.79813
1668.5679 386.3726
1669.759 383.55002
1667.0917 382.4232
1664.4358 380.62375
1667.1106 378.87122
1670.474 380.2975
1673.1439 377.8251
1673.2788 374.76315
1670.5939 374.7156
1669.5272 377.2359
1667.1721 374.7554
1664.3547 376.56473
1662.0233 378.58478
1660.4332 375.0357
1664.0315 372.9719
1666.862 370.81885
1663.9749 368.55884
1660.794 371.1215
1659.7654 367.52957
1659.5504 363.33817
1659.6573 358.98608
1658.7994 348.4026
1659.9294 345.2726
1661.5984 342.69632
1658.3975 340.89487
1654.1493 337.98752
1657.9088 337.00455
1661.3937 339.38412
1665.5166 339.22845
1662.2621 336.47357
1664.1111 333.8279
1666.4841 335.87573
1669.3119 337.5529
1669.9801 334.5107
1668.2494 332.08203
1666.1444 330.8605
1663.4536 329.94516
1661.0034 332.26468
1658.2482 333.74875
1654.7646 334.15964
1651.4087 334.6687
1650.7117 338.23428
1647.9873 338.16013
1648.117 334.70203
1645.8538 336.19595
1644.9907 338.69412
1642.0729 338.72888
1642.2582 336.64978
1643.4341 334.51047
1640.4526 334.17258
1638.3564 332.08383
1637.4877 329.0333
1636.1886 326.1324
1633.9407 324.1506
1632.6888 321.04236
1636.7339 321.62418
1640.5249 321.7622
1643.1321 325.5734
1644.4182 321.29797
1648.7747 321.4627
1646.6874 324.51666
1647.0393 328.10086
1644.2012 329.30255
1639.7545 326.0679
1641.2233 330.33542
1644.8989 332.4128
1648.3713 331.8052
1650.2808 329.85513
1652.4592 327.92136
1653.6189 331.0387
1657.4146 330.35236
1660.4359 328.06287
1663.229 326.26233
1666.3716 327.08176
1669.6854 328.05777
1668.9963 324.75354
1663.0524 322.7494
1666.0092 322.20984
1669.2433 321.58054
1668.4957 318.52655
1668.8853 315.00058
1664.9496 313.49402
1665.0989 317.64026
1661.9309 318.8767
1659.818 323.38348
1657.7288 326.40247
1655.0808 327.0599
1649.9246 325.71863
1652.7681 324.21838
1652.7443 320.84637
1656.1619 322.53198
1658.571 318.90417
1660.5051 313.97787
1659.8192 308.76505
1663.4967 308.35822
1667.245 307.26315
1670.5544 307.09274
1678.8529 292.15616
1673.0107 306.53598
1673.1719 309.29224
1670.4203 310.1637
1667.4109 311.02637
1672.3137 312.45917
1672.4648 315.3838
1671.5424 318.74695
1674.024 318.90112
1672.2974 322.08804
1672.918 325.1238
1673.2496 328.25565
1671.2596 330.95215
1673.3602 333.62778
1673.2616 336.3938
1676.1558 338.30972
1672.2983 339.44943
1672.5947 342.97305
1669.0769 340.83408
1665.1538 342.3682
1664.3389 345.7094
1668.4379 344.16516
1671.6974 346.14908
1672.2534 349.10175
1668.2024 348.23242
1664.9768 349.05057
1661.6598 348.8182
1664.5734 358.3379
1662.5391 360.70126
1663.4349 364.61414
1666.1821 361.62918
1667.8505 358.79672
1670.5573 358.16095
1673.1371 358.3466
1672.9558 360.9713
1673.2294 363.63602
1671.727 365.7464
1670.4728 363.21692
1670.1146 360.72296
1667.9274 364.061
1666.8323 366.6693
1669.5037 368.0885
1669.6858 372.0777
1671.6794 370.35214
1673.1323 368.00607
1674.176 371.89468
1676.162 374.54922
1678.1096 372.63773
1681.0066 372.63202
1683.6339 373.07162
1686.228 372.66553
1687.9143 374.78653
1689.4733 372.00797
1692.7379 372.74127
1696.3301 373.0735
1700.4636 373.15015
1704.4153 373.13037
1705.087 376.3573
1702.1086 377.06583
1698.4751 376.60306
1693.6678 376.4283
1696.0118 379.2319
1694.9774 382.9632
1691.603 379.958
1690.4565 375.936
1687.6509 378.4084
1684.5897 376.51236
1680.5153 376.2594
1677.0327 377.64465
1677.4968 381.651
1676.6205 385.1956
1674.366 380.73007
1672.9729 383.47012
1672.3214 386.90134
1674.8068 389.45584
1678.6582 388.6608
1682.5574 389.54987
1687.9482 389.52646
1685.888 386.2865
1681.5089 384.9085
1680.3348 380.6959
1683.1781 379.42728
1684.9341 382.21597
1688.2877 382.19598
1690.7766 384.29364
1691.7458 387.33383
1696.1384 387.33173
1693.7368 390.10016
1694.725 411.54453
1698.4674 411.4888
1699.3655 414.47415
1702.9097 412.3337
1701.935 416.74323
1704.4907 418.0759
1707.1028 418.54605
1708.9039 420.5502
1710.868 422.69608
1714.1594 422.62137
1717.8469 422.91293
1719.8168 426.6344
1718.033 429.64676
1718.4927 432.83716
1722.7903 431.29373
1724.4218 427.4903
1726.2373 423.90625
1722.491 422.14258
1720.0048 418.92422
1717.0398 416.54907
1714.882 418.94336
1711.8524 419.57153
1709.9104 417.08173
1713.4141 414.96982
1710.1044 413.82385
1705.9807 415.37137
1706.9431 412.3599
1709.1893 389.10785
1706.0675 387.65
1703.6975 389.75027
1699.5574 389.2887
1698.7887 384.5671
1700.2888 380.80228
1704.738 380.74185
1702.7113 384.9556
1707.2871 384.20673
1709.9475 381.81934
1711.5764 385.54288
1715.4707 385.49142
1714.8127 388.1537
1712.7043 389.97324
1717.4487 390.02237
1718.7263 387.04495
1718.6232 384.40118
1720.9033 389.44528
1724.644 389.17694
1722.7252 386.71292
1721.6099 383.9802
1725.1542 383.63275
1726.433 386.48666
1729.1708 387.95297
1730.1539 385.07278
1732.7167 383.7292
1735.1802 380.75833
1735.9025 376.9883
1732.2417 377.0771
1731.685 380.23224
1728.3619 381.80505
1728.862 377.4469
1725.9482 378.9813
1723.1505 380.7972
1719.3514 376.65714
1719.8547 379.4063
1719.3208 381.80914
1716.2393 382.71857
1713.4481 382.25674
1716.2753 379.4064
1716.5718 375.67636
1714.0944 376.29877
1712.6545 379.28958
1710.8573 377.01465
1708.0453 378.95358
1707.9827 375.4883
1708.7039 372.85202
1711.5717 374.3193
1712.7543 372.16074
1715.8254 372.50046
1718.9703 373.50992
1720.1089 370.62344
1722.451 373.4767
1722.689 377.10092
1725.6818 375.09805
1723.3007 369.91714
1723.325 366.7537
1722.8391 363.53766
1724.9281 361.6749
1722.413 358.47934
1727.4825 358.86118
1731.2397 362.43207
1728.3729 364.71576
1732.4402 368.2908
1729.7045 370.06693
1726.9012 367.77768
1726.1643 371.51468
1728.855 373.7054
1731.7102 373.9341
1733.9248 372.47095
1736.7802 372.96393
1736.5256 368.78842
1735.026 364.67432
1734.6008 359.80814
1731.4781 357.24066
1727.1504 337.1177
1723.335 335.31268
1720.8887 338.335
1717.7188 335.6679
1713.1073 337.05338
1708.33 336.72012
1704.4865 336.8427
1701.1477 338.2745
1702.1102 332.92398
1699.1444 335.06375
1696.8076 338.61792
1694.6726 336.68427
1694.8378 333.68497
1691.2422 334.32907
1690.6366 338.0841
1688.074 334.46066
1685.3419 335.1679
1684.0504 332.3057
1681.793 335.1787
1685.5109 338.2959
1680.3855 338.1514
1677.3798 334.8888
1680.2745 332.05576
1679.5988 327.39484
1677.6792 330.6793
1674.8969 331.25153
1676.275 327.33832
1676.9673 324.3897
1675.1852 322.0426
1677.7323 320.82098
1680.6088 320.7677
1679.6842 323.44864
1681.8955 325.06796
1684.3616 326.98468
1682.2468 329.35318
1685.9441 330.0208
1688.8969 330.96506
1692.7152 330.89554
1696.8492 331.413
1700.3754 329.3694
1697.0007 328.20386
1698.1373 324.7803
1695.3479 325.06512
1693.4286 327.3211
1690.7241 328.18185
1688.0444 327.2577
1687.5294 324.55914
1684.829 323.85556
1683.0753 322.1605
1683.3933 320.0832
1686.3694 321.03018
1689.7126 321.69614
1691.4756 324.1323
1694.5979 321.7346
1698.8577 321.425
1702.5027 322.0044
1700.6697 324.4305
1702.7786 326.7287
1705.1545 331.063
1708.0103 328.8704
1706.4548 326.22382
1711.3856 327.3519
1710.3007 332.07993
1714.8528 331.688
1715.3945 327.2918
1714.3337 324.01843
1718.0251 324.16284
1723.0039 323.98392
1720.8478 326.02966
1718.4135 329.2845
1721.072 331.17627
1724.4093 330.73642
1727.404 332.78888
1727.9146 329.0292
1724.8864 327.03888
1726.1277 323.5697
1727.235 320.14117
1729.0549 322.73965
1729.62 326.117
1731.3472 329.49777
1730.8452 334.51404
1733.73 331.2396
1735.377 327.13806
1732.5824 324.28717
1731.7405 320.75085
1736.1163 322.64188
1737.7463 318.7652
1734.0953 318.59247
1730.251 317.76508
1728.7915 314.9721
1727.032 317.42377
1725.4674 314.76306
1727.078 312.70193
1727.0544 309.79443
1729.4746 311.60785
1731.35 313.3922
1732.7628 315.53183
1735.8661 314.82428
1736.3893 311.0775
1733.3119 311.0279
1734.3754 307.04718
1731.5424 305.9807
1730.5725 308.9896
1728.1616 306.6163
1725.2671 306.48816
1724.393 309.00748
1721.5916 306.61047
1721.9385 309.64096
1724.4781 311.8398
1722.5469 313.56024
1724.1399 317.1364
1721.5664 317.69672
1723.523 320.68
1719.8278 320.87488
1715.906 320.935
1711.994 321.0228
1711.076 323.959
1708.4497 322.7161
1705.0968 323.66092
1705.7635 321.06006
1699.3296 294.94025
1700.4354 292.5298
1702.999 294.3082
1705.8939 294.28696
1709.0845 294.1239
1708.1589 291.55185
1706.5621 289.42004
1711.5537 289.94504
1712.3021 292.86737
1715.7677 291.2998
1719.9689 290.2266
1717.5834 288.66904
1715.9069 285.85876
1713.2968 287.36905
1713.104 283.22128
1709.9102 284.49814
1709.013 287.5789
1706.223 285.04446
1704.1538 288.0954
1703.5222 291.14346
1700.5829 288.18176
1702.8484 285.55734
1700.3457 284.49692
1697.4072 284.19284
1696.8193 287.6526
1698.112 290.68936
1696.0822 293.655
1692.8816 293.7377
1693.571 289.1687
1693.7292 285.10696
1694.2684 282.23923
1695.3301 279.91785
1697.7661 280.34006
1700.3972 278.87018
1700.3622 281.66263
1703.5195 282.19604
1706.5222 281.1531
1709.7382 280.7946
1712.6992 279.21555
1715.6803 280.87814
1717.0592 282.87534
1718.7732 284.4818
1719.4668 286.36502
1721.2717 287.24213
1723.1511 287.92706
1725.72 286.47882
1724.2504 285.07007
1722.0242 284.3824
1720.43 282.4899
1720.8417 280.50067
1723.5071 280.1791
1724.1085 282.39124
1726.4695 283.52762
1728.7585 283.66287
1729.9937 281.04782
1726.9044 280.30524
1724.827 277.6535
1727.0182 274.78796
1724.225 273.7519
1724.7175 270.0564
1727.6024 270.32086
1729.858 273.57748
1728.6008 277.373
1731.3442 278.47458
1732.5903 275.7255
1735.1373 273.1244
1732.4288 271.96024
1734.7426 269.73657
1736.817 266.9982
1734.5524 266.26608
1736.3544 263.32523
1736.0431 260.51154
1737.2595 258.4267
1736.9324 255.46585
1737.5427 252.4438
1735.2551 253.3683
1730.9291 250.74074
1733.3229 250.12428
1735.893 250.2239
1734.8119 247.37625
1733.9312 245.0339
1734.8512 242.79536
1733.0085 240.78064
1730.7695 239.93102
1728.0375 238.61232
1730.4384 237.03049
1729.1628 234.06987
1727.2107 234.86711
1725.7834 236.84682
1723.2943 238.25261
1720.5623 240.44307
1717.6147 241.83693
1719.0151 244.65771
1720.901 247.24605
1724.2544 247.163
1723.5848 243.9653
1723.5623 241.13235
1726.5703 241.36867
1727.3212 245.8471
1729.0112 242.91899
1731.6677 243.28633
1730.8601 246.76852
1728.2776 249.42647
1725.3602 250.34485
1722.6292 250.7471
1724.4675 254.92601
1727.3884 253.08247
1730.355 253.81592
1732.8827 254.24979
1734.4788 257.16733
1731.595 258.05002
1729.0449 256.49298
1726.437 257.95987
1724.7031 260.90524
1728.98 261.25055
1732.9166 260.8775
1732.5078 263.7708
1732.0232 267.0283
1730.283 269.1631
1728.8547 265.37875
1725.364 264.8167
1722.551 266.8544
1720.9661 270.33884
1720.2385 273.5192
1717.7059 272.29623
1715.8687 274.49966
1718.5096 276.2247
1721.9691 275.62457
1721.2751 278.03076
1718.4885 279.4766
1715.8026 277.9198
1713.5151 275.5428
1710.9904 275.34927
1709.0862 277.202
1706.0203 277.02716
1703.1702 278.5164
1701.783 275.33234
1698.7198 276.81296
1698.8035 274.07355
1699.0458 271.13086
1701.6008 271.731
1700.3651 268.56738
1701.6411 266.71707
1700.9171 263.64017
1700.6959 260.28073
1701.4551 255.99782
1698.4489 257.276
1695.3167 256.7463
1692.0134 257.75488
1694.1376 259.89517
1697.0349 261.18076
1698.0103 265.043
1695.1116 263.64563
1692.0994 262.67047
1693.9451 266.02008
1691.7753 267.76712
1694.3613 269.221
1697.3401 268.1027
1696.3135 271.21823
1692.4253 271.92502
1693.2485 275.38455
1695.7031 273.79727
1695.8397 277.1446
1692.5836 278.95923
1689.227 279.02408
1689.9482 275.86707
1686.1757 277.35666
1689.9978 282.1616
1690.449 285.66623
1688.5029 288.35608
1690.386 290.936
1689.0669 294.16437
1685.6421 293.7682
1686.1229 290.6091
1683.2173 291.27927
1681.8264 293.28174
1680.2406 290.0136
1678.521 286.79736
1676.747 290.21136
1674.6434 288.65808
1671.6213 288.08246
1668.6707 284.6471
1671.3083 285.34436
1674.8984 285.27823
1677.8074 283.38486
1681.7368 283.9218
1681.8622 287.73102
1684.5796 287.3896
1686.5322 285.09122
1685.7837 281.8448
1682.5034 280.0052
1682.735 275.8686
1678.463 273.6636
1679.256 276.9062
1678.705 279.99548
1675.531 280.61612
1672.6943 282.31262
1670.1943 280.43048
1667.2968 281.74127
1665.5679 283.5173
1664.2083 280.38846
1663.0928 277.65375
1661.5664 275.16345
1659.9861 272.43463
1658.3611 268.96454
1658.0433 264.84555
1661.3381 269.27686
1664.3677 269.12158
1664.3461 272.6093
1666.0092 275.531
1666.9628 278.7155
1669.748 276.741
1672.2335 274.0864
1673.4026 278.0204
1675.7412 275.4911
1674.5696 271.60815
1668.9126 273.11093
1667.3975 270.30026
1670.7194 269.80304
1673.105 268.77505
1671.5981 265.7849
1670.1547 261.81097
1669.2771 264.5418
1668.4766 267.2859
1665.5009 265.9812
1666.7404 262.9781
1667.4105 259.61536
1670.9529 259.22482
1669.4841 256.74994
1670.8008 252.55693
1669.6873 247.709
1671.4781 244.80127
1673.7961 244.80154
1672.9844 249.0416
1675.3864 246.53995
1677.9705 244.66286
1676.3909 242.96495
1676.3274 240.24483
1679.5742 237.01956
1683.0599 236.50917
1683.7626 231.41682
1679.9409 232.8707
1676.0171 233.81932
1675.9885 237.34013
1672.9645 239.00966
1673.108 241.8185
1669.1783 243.54425
1666.0867 243.34381
1665.2957 247.15688
1663.8389 250.833
1667.5818 250.50427
1667.2902 254.17252
1663.5138 254.99214
1665.312 257.5083
1663.7944 261.54556
1662.0233 265.54962
1659.9037 262.0592
1657.9719 259.06003
1661.4923 258.36188
1659.1323 255.35295
1657.0623 253.3645
1661.272 252.89972
1659.1469 250.36774
1660.5364 247.24983
1661.9143 243.69211
1664.3804 239.43008
1669.0831 239.57423
1667.493 235.25467
1671.8218 235.74628
1672.1575 231.53839
1677.8628 229.02303
1684.0642 227.12785
1689.9667 225.87233
1688.6497 229.98686
1686.4475 235.38686
1690.1455 234.01553
1693.2346 230.60715
1694.4048 235.04285
1693.4136 238.63303
1689.9092 237.84293
1690.9906 241.34637
1687.8162 240.80052
1685.1278 239.95871
1681.8125 240.23839
1678.991 240.53654
1680.2653 243.22255
1683.6229 242.66623
1692.0311 250.2855
1692.6425 253.8852
1696.4127 253.60896
1699.7205 252.93152
1701.5787 250.5147
1701.4878 246.8668
1701.5275 242.77156
1714.8561 243.92506
1716.0732 239.31595
1718.4873 237.25533
1719.9956 234.50757
1723.2017 234.96808
1725.3304 231.88655
1721.985 231.03642
1719.6747 228.80714
1716.4353 227.73116
1716.3912 232.53282
1714.7202 236.30676
1713.6265 241.00912
1700.8687 238.78815
1698.6901 242.87099
1699.0688 246.08315
1696.3618 246.6457
1698.4316 249.51309
1695.2256 250.50232
1692.7634 247.42451
1694.0176 245.11081
1692.7745 243.16026
1695.9697 241.93616
1696.9878 238.70584
1698.6073 235.71806
1701.2484 233.71873
1697.3264 232.13077
1700.9008 229.37357
1700.2909 225.07053
1697.0232 228.32153
1694.7946 225.32762
1694.1973 204.5584
1699.2445 204.27922
1703.3721 204.71724
1706.633 203.71983
1709.0583 204.91428
1712.2681 204.6148
1710.2618 202.19525
1706.664 200.79848
1709.1287 198.92918
1712.1869 199.889
1714.2773 201.82002
1715.0734 204.46606
1717.5077 204.70906
1719.9996 204.25911
1722.2999 205.04729
1724.2269 203.94165
1726.6306 204.56926
1729.4945 204.2255
1732.5758 204.33047
1735.7139 204.01234
1731.5813 200.98668
1734.8384 200.35551
1734.4539 196.71745
1735.2172 193.0579
1735.2733 189.21295
1734.9865 185.37973
1731.6367 187.06978
1729.0463 188.75699
1726.5997 187.13017
1724.3953 189.45424
1722.7198 186.6781
1720.84 189.04604
1718.602 190.67601
1720.0798 193.89215
1716.4929 192.39844
1718.2798 187.0126
1715.3689 188.66843
1712.2001 187.1441
1712.0374 190.41975
1713.8557 193.16302
1715.4526 195.42813
1718.0206 196.38489
1720.918 197.14182
1723.0284 198.782
1725.862 198.45235
1727.0469 195.71593
1723.7484 194.86342
1722.8153 191.86009
1727.1868 192.13503
1732.2955 190.34476
1731.1138 192.97406
1730.7871 195.90364
1729.7505 198.55917
1727.8853 201.25095
1724.9126 201.35031
1721.8911 201.93135
1719.7935 199.93001
1717.9348 202.11823
1716.8757 199.58095
1714.7711 198.22957
1712.2732 196.73695
1709.188 196.05698
1711.1785 193.58109
1707.9592 193.11519
1705.5765 195.00777
1705.3025 198.03964
1703.0631 201.64763
1701.2881 198.88005
1698.813 200.5392
1695.8268 201.91972
1692.362 200.2159
1695.9583 197.61827
1692.1226 196.12521
1690.6843 192.86131
1694.8595 191.64978
1697.7793 194.35434
1701.361 196.14427
1702.6925 193.37625
1704.792 190.57112
1708.7058 190.02954
1707.3173 187.14262
1702.4637 187.39526
1700.1033 190.95781
1697.5267 187.8335
1693.0876 186.71822
1691.4294 189.53687
1688.8635 187.16263
1685.6471 185.64957
1682.8474 186.92926
1679.5967 187.99994
1682.6553 190.18161
1685.7451 189.37166
1687.4459 191.94633
1687.6493 195.91913
1684.2366 193.54167
1682.514 196.4059
1680.6978 192.32347
1677.5637 191.67657
1673.7289 190.20584
1675.0835 193.4665
1676.6982 196.17232
1679.3365 195.21138
1679.5938 199.00238
1681.9708 200.77681
1685.0194 198.61275
1685.5112 202.04271
1688.6381 199.90854
1690.4885 203.80266
1687.2662 204.52681
1683.4596 204.47379
1680.5356 203.90071
1677.843 204.2665
1676.6315 201.8024
1674.1598 204.61252
1672.1997 202.19028
1669.7672 204.38165
1668.4524 200.78748
1664.4106 198.95834
1665.5021 202.07231
1665.6399 204.86908
1662.4121 202.57764
1660.0459 204.8191
1659.3595 200.87642
1661.4352 198.18637
1658.999 196.22147
1659.8354 192.99448
1662.867 191.2058
1659.7954 188.73741
1663.7211 187.85106
1667.8607 186.67366
1666.6187 190.49706
1664.1193 194.49849
1666.8042 197.11464
1668.1924 193.88188
1669.9318 196.82394
1671.4148 199.11642
1674.1512 199.81215
1676.6838 198.91174
1673.4995 196.45563
1671.8391 193.60645
1670.0353 190.82101
1671.0182 187.73775
1673.9946 186.01376
1676.5637 188.25296
1676.9033 184.50452
1680.9517 184.1748
1676.9989 181.71594
1674.6672 179.29788
1672.4739 181.5875
1671.2228 184.22636
1668.0935 182.59508
1664.669 181.5435
1664.0146 178.0124
1661.3884 178.68169
1662.0021 174.83821
1660.9299 171.85844
1659.0847 175.66422
1657.886 173.1226
1657.9805 170.24886
1659.5137 167.49385
1661.956 169.21268
1664.706 164.91957
1664.7856 168.10434
1664.188 171.75963
1666.7465 169.7603
1668.6667 170.938
1667.0408 173.29492
1665.1266 175.32664
1668.4697 176.10423
1667.1787 179.06488
1670.6731 178.7449
1673.8099 176.54227
1671.3146 175.3828
1670.1733 172.89401
1673.1136 173.26454
1672.9905 170.86201
1670.8087 169.61742
1673.3398 168.16338
1674.4182 165.26392
1675.0941 162.35991
1670.5856 160.81987
1669.4385 163.86046
1672.2448 163.53143
1671.599 166.46259
1668.9775 167.44788
1667.1442 165.64963
1666.7303 162.09273
1667.133 158.95471
1663.9409 159.78261
1661.1792 157.50896
1659.0249 160.29308
1662.6141 162.78368
1661.8727 166.03612
1659.3551 163.37741
1657.5073 164.82346
1657.1547 167.65431
1539.1926 182.45589
1538.403 177.52959
1534.4397 177.70973
1533.3464 180.97217
1536.5701 181.3215
1535.2716 184.62802
1531.101 184.48592
1531.6226 187.02463
1533.7773 188.03857
1534.496 191.50659
1536.1232 188.19737
1538.7106 186.44171
1537.9624 189.95616
1537.6177 192.63916
1535.7864 194.76225
1534.6633 197.86855
1531.4694 199.10776
1532.1976 195.19804
1528.6113 196.42587
1525.3708 197.72212
1528.4075 200.49455
1525.0211 201.27031
1521.8003 201.28839
1518.4375 199.2639
1518.1797 202.35652
1514.45 222.69301
1513.6217 225.68532
1516.3356 229.02495
1518.363 224.9342
1522.0482 226.24646
1524.0145 229.14983
1519.5082 230.84929
1522.4634 233.7193
1519.2013 237.47775
1523.4331 237.72511
1526.7823 234.84789
1527.4175 230.48073
1531.0656 232.33414
1533.9695 236.23317
1535.8083 239.46008
1535.3994 242.3674
1537.35 244.29164
1535.1318 247.05775
1538.1652 247.79134
1539.076 251.57414
1536.2102 250.28459
1534.9026 253.24783
1535.4272 256.5536
1538.6299 254.64105
1537.785 257.18878
1539.6359 258.63632
1537.2087 261.44907
1539.535 262.4939
1538.2028 265.7395
1537.3813 269.08954
1535.2753 266.5588
1533.7543 269.35608
1532.3799 266.43738
1536.1227 263.75485
1532.8698 263.81766
1529.9954 263.9749
1526.9613 261.31418
1525.8732 258.3034
1524.897 254.45464
1526.4556 251.7969
1528.1154 249.36671
1523.9706 249.06577
1522.4036 245.03017
1525.6008 245.89319
1527.9845 242.83395
1528.7131 245.80116
1530.7683 252.4747
1527.8069 255.03691
1530.1158 256.5665
1530.0363 259.99518
1533.2299 259.14572
1533.6923 261.67795
1536.2502 259.49374
1532.8105 255.88754
1532.9991 249.89188
1530.9302 247.65182
1533.0887 245.0328
1531.2673 242.72232
1532.0984 239.66862
1530.5208 236.14993
1528.1438 238.98691
1525.357 241.21764
1522.1283 241.51291
1518.6638 241.73256
1515.0105 239.28998
1511.4142 238.49866
1516.6172 234.42545
1512.6976 233.71602
1512.571 229.38176
1483.8834 232.13898
1483.9602 236.73502
1485.1052 239.8974
1482.6246 240.0605
1480.6335 241.30893
1479.3403 243.29538
1477.6116 241.7098
1475.1455 242.82312
1477.2477 244.45963
1476.2344 246.5052
1474.4756 245.53552
1472.4877 243.9737
1470.1207 245.87361
1472.5322 247.40643
1474.5803 248.615
1473.0367 250.81146
1470.1953 249.00746
1467.7329 250.43108
1464.5181 251.81839
1470.3308 252.59895
1473.127 254.1779
1470.7422 255.79001
1472.7675 258.05505
1472.9103 261.2347
1470.9537 265.21484
1474.1875 264.62125
1475.7257 267.96637
1476.679 271.13837
1471.2339 268.3609
1471.6887 271.64923
1474.166 273.88733
1476.1869 276.67496
1479.4956 272.46344
1482.91 273.3283
1484.9827 275.90543
1483.0315 280.60278
1480.1188 277.08102
1477.6981 280.52573
1479.7043 283.40915
1482.6667 285.72058
1486.731 282.22308
1487.8071 278.60867
1490.0399 275.33698
1491.1304 281.64047
1493.4052 279.06805
1494.5922 275.5675
1497.9568 274.87836
1499.2091 278.28458
1496.5828 280.33133
1495.3328 283.92624
1492.7494 286.014
1494.2163 289.5652
1497.8962 292.13333
1501.7684 293.34686
1501.4706 290.63766
1501.9452 288.06384
1497.1696 288.074
1499.2622 285.46133
1502.9268 284.94153
1499.3232 282.37073
1502.1599 280.8561
1505.3163 279.33325
1503.3446 277.27066
1501.144 275.15817
1504.803 274.47803
1508.934 274.3058
1511.2894 276.06573
1510.7178 278.78275
1507.5507 277.00076
1508.2705 280.94614
1505.4086 282.67484
1506.178 286.0742
1507.507 288.66583
1505.2878 291.74527
1508.7832 292.39276
1512.5438 291.80847
1510.749 288.44342
1513.2673 285.2314
1509.6632 284.46732
1511.9445 281.66263
1514.2137 278.53113
1514.3169 275.722
1512.9667 273.14642
1516.3885 273.543
1517.7913 271.0285
1521.5094 270.15308
1520.5659 273.2607
1520.769 276.21768
1524.4603 275.57297
1527.7555 275.3844
1530.9553 275.0785
1528.3215 271.32056
1525.1146 271.01883
1523.1136 266.8656
1523.9558 262.95535
1526.9319 264.5114
1527.0602 267.49652
1530.2484 268.17432
1531.1627 271.5578
1533.8353 272.55353
1536.5753 272.38544
1533.9756 276.24612
1531.0233 279.29605
1528.7559 283.14792
1526.5515 279.81564
1524.15 282.74774
1522.4095 279.1028
1519.8352 281.6753
1517.9236 279.0467
1517.4257 276.1767
1515.2681 281.53613
1516.9824 283.9205
1519.2522 286.275
1521.4377 284.75317
1524.4456 286.27292
1520.544 288.85123
1516.4368 287.2314
1513.8575 288.89978
1516.6819 290.52588
1520.2837 311.94315
1522.6589 315.8562
1526.4592 316.62482
1531.1763 319.56357
1531.2523 323.54865
1534.3224 325.15704
1535.5764 328.69727
1534.478 331.87622
1538.0491 331.97165
1538.2632 335.76736
1535.2402 338.07483
1538.0668 338.8877
1539.8591 340.702
1537.6216 342.43457
1539.2793 345.69995
1535.6768 345.69858
1537.1476 348.96945
1538.3328 351.95474
1536.4033 354.6185
1533.8638 352.1597
1530.4498 352.70828
1531.8025 356.72382
1535.8641 357.93372
1534.7499 361.58694
1530.9755 361.10013
1529.0327 364.86
1532.2582 365.9746
1528.9519 369.91467
1526.2549 368.19855
1524.5331 371.83755
1521.1904 373.818
1522.3096 367.1648
1525.1445 365.14975
1526.0366 362.56842
1522.4155 362.15103
1519.0645 369.11798
1514.7024 370.04672
1516.6449 373.12018
1517.8208 376.42258
1513.4244 377.52582
1512.2175 373.6921
1509.3678 378.72626
1505.3652 378.59732
1504.917 373.79526
1508.3706 374.84818
1509.6924 370.83005
1512.1498 367.69858
1515.4865 365.69687
1519.3484 364.27225
1516.727 361.75037
1513.9072 360.99576
1519.3481 359.07205
1522.4211 355.76736
1524.0287 358.80872
1527.4291 360.59384
1528.1119 357.73752
1526.5161 354.97537
1524.5305 351.76593
1527.7703 351.07083
1532.0547 348.2248
1527.3452 347.39914
1528.3196 343.92688
1527.5294 340.68805
1532.3689 344.11563
1534.6725 341.31967
1531.2224 340.10364
1532.1475 336.6103
1534.894 334.88412
1528.9291 336.14978
1531.1727 332.50012
1531.5375 328.0643
1528.5526 329.24332
1525.5409 328.852
1527.5243 332.53342
1526.0376 338.0225
1525.0415 335.09027
1524.108 332.31454
1521.1482 331.44833
1522.7693 329.31473
1524.3098 325.3792
1527.8315 325.19244
1527.7908 320.80945
1524.2493 321.08014
1520.8271 319.7529
1518.5922 314.78787
1517.7759 317.97498
1521.0032 323.70963
1520.9125 327.1681
1518.3344 328.65942
1515.8624 327.22446
1517.442 324.51913
1517.3799 321.4201
1503.4514 321.5094
1501.2222 324.2416
1503.299 327.22754
1499.1761 327.05533
1493.1456 326.3811
1495.425 328.39984
1497.6902 330.68704
1494.7378 332.73566
1498.2711 334.7895
1495.0933 337.32925
1495.2737 341.28015
1494.884 345.13773
1498.1676 347.10727
1498.9636 344.11896
1499.282 340.85962
1499.8953 337.80716
1500.6315 331.28964
1503.6575 331.35547
1502.8816 335.14987
1503.384 339.21896
1503.075 343.13208
1502.5867 346.86203
1503.0485 350.41287
1503.4119 354.57452
1503.2988 358.9409
1502.3197 362.43912
1500.0266 363.62265
1499.4878 366.4201
1502.3876 366.81226
1504.7479 363.3844
1507.0107 362.5368
1509.9648 361.793
1511.8625 364.03952
1508.8644 365.56296
1505.2131 366.24725
1507.8303 368.24756
1505.478 370.03317
1502.584 370.61554
1499.6349 369.19962
1496.4639 368.33084
1493.829 365.78082
1490.04 365.573
1488.5184 363.06885
1490.4596 360.95966
1492.4015 362.74414
1494.9569 361.63794
1496.8811 365.07843
1497.6488 361.7909
1499.3904 359.45667
1495.3705 357.65277
1499.8348 356.22452
1499.6855 352.84692
1498.4528 350.08887
1495.3757 353.65442
1494.7349 349.39868
1474.0892 353.02408
1470.6346 353.07855
1464.9669 353.89874
1465.5145 357.38788
1465.8341 360.88846
1469.8365 365.11203
1473.2969 365.183
1476.7411 363.9634
1473.7965 360.86453
1469.7219 361.8803
1470.7004 358.21494
1468.7253 355.63428
1476.0259 356.73584
1478.0933 360.59778
1481.2538 359.7464
1483.3479 362.9978
1485.861 361.3322
1486.9137 366.3406
1483.5664 366.42108
1480.3264 365.5019
1477.0364 367.55573
1476.7289 370.5572
1475.6251 373.5114
1472.9486 371.54028
1472.604 368.34958
1470.0436 369.99277
1467.9241 367.41467
1465.9122 364.13837
1462.6727 360.0359
1461.4908 356.64944
1461.0403 352.72083
1463.7117 349.9335
1466.7391 351.3428
1469.351 349.94138
1472.1857 348.47363
1472.9673 344.83618
1470.6609 343.9452
1469.7921 341.14594
1467.249 339.92264
1464.0837 339.24655
1464.023 342.95157
1467.6376 344.4122
1467.7012 347.62753
1464.8213 346.59155
1461.9087 346.04956
1460.3235 348.772
1459.5745 343.54962
1460.5922 340.22043
1461.6141 336.64615
1462.023 332.72482
1465.6665 335.4207
1469.283 335.50226
1471.8079 339.46722
1473.138 336.79105
1472.0273 332.5025
1475.3064 330.49948
1474.7236 333.6615
1476.6433 334.11258
1479.1885 330.54953
1478.4819 327.65833
1477.1567 323.94916
1474.9169 327.27557
1470.79 327.31866
1468.9929 330.71347
1465.6796 330.75143
1463.5153 328.1683
1466.6891 325.5336
1469.206 321.872
1472.9929 324.16196
1474.0718 320.9395
1471.5876 318.3773
1475.1296 315.56815
1476.3165 317.5959
1477.7004 320.00674
1480.3021 321.36053
1483.5299 323.30872
1480.6351 324.9944
1482.4203 327.86252
1485.6469 327.03232
1489.6136 326.9438
1487.704 324.1802
1486.6002 320.97522
1483.4163 318.8204
1480.6619 316.809
1479.2106 313.88318
1483.4861 313.15762
1487.6294 311.66663
1487.1438 316.49863
1490.5057 319.63727
1491.4943 323.28238
1494.9083 320.78754
1496.3173 324.13397
1499.3835 320.84744
1499.703 316.44577
1503.3638 317.1422
1502.2429 313.19922
1502.9176 309.64365
1498.4437 310.00317
1496.1786 313.1336
1496.3196 317.4355
1492.6636 316.482
1491.146 313.37402
1492.9757 310.06076
1494.6599 293.22305
1492.1156 291.7588
1490.1869 293.49063
1488.9558 291.28436
1490.2605 288.6323
1489.3336 285.1806
1485.9829 285.81198
1486.3519 288.95383
1485.8269 291.8143
1482.5487 290.09695
1479.3726 288.45908
1476.7244 286.59033
1474.0886 285.3108
1474.653 282.41858
1473.2725 279.8332
1470.5951 283.5448
1468.6135 280.2415
1471.9508 277.2304
1469.762 275.2806
1465.48 277.27545
1467.0099 274.63895
1467.6188 270.42267
1463.9442 272.9045
1462.0739 270.2704
1464.8177 267.56363
1467.4983 265.22403
1461.1257 266.27338
1459.6697 262.29565
1460.0835 257.90952
1462.5435 260.36438
1463.8699 263.5826
1466.318 260.61102
1469.7421 261.91922
1468.8523 258.3029
1467.1597 254.73093
1464.2096 257.03946
1462.1766 254.21779
1459.3325 253.28116
1460.8239 249.73976
1460.9193 246.38757
1461.873 242.29648
1465.0408 241.43367
1464.2852 244.83047
1465.0232 248.17195
1467.5151 245.25212
1467.9553 241.41743
1470.4302 242.0149
1472.9387 240.60881
1475.5524 239.63309
1478.2643 239.08899
1480.5679 237.77283
1482.0782 234.3229
1479.5837 235.22495
1477.6069 233.20895
1473.9299 230.50577
1473.739 233.53464
1476.6449 236.1757
1473.8475 236.8339
1471.387 237.85257
1468.8547 237.70537
1466.167 237.66977
1463.5526 238.29283
1466.5237 233.74416
1470.2 234.06401
1470.0402 230.44373
1473.1097 227.86159
1475.6027 225.9838
1478.852 225.23175
1477.6626 228.06482
1477.1749 230.62045
1480.6318 231.14488
1481.9839 228.11153
1481.643 224.03076
1475.047 210.58345
1473.7126 205.59666
1471.7113 210.5357
1468.4553 211.92233
1464.6663 212.2436
1461.435 211.16061
1464.8457 208.91327
1468.0206 207.78009
1469.8795 204.94257
1468.8596 201.55917
1472.4038 200.69879
1475.0137 200.93759
1476.8665 202.97258
1481.2314 202.86441
1483.9819 201.28554
1480.3434 200.65154
1478.2225 199.23741
1478.8528 196.11255
1475.5452 197.74861
1473.4833 194.97244
1475.7604 194.89769
1477.5409 193.13704
1479.8678 191.27774
1480.4907 188.05478
1483.2329 189.23886
1483.294 193.01161
1481.1698 194.42546
1482.0522 197.61252
1485.4277 197.96472
1487.5186 201.87425
1491.5378 201.12871
1495.2157 201.2401
1498.5752 198.98924
1501.5728 197.36171
1499.4475 202.41408
1503.6836 201.30336
1507.8284 201.54514
1510.7141 199.57213
1513.781 202.03175
1514.5754 198.17987
1512.2622 195.39685
1510.5673 192.00266
1506.1183 192.5315
1508.4058 195.90475
1504.9286 196.89102
1501.7355 192.54799
1499.0205 194.85188
1497.0841 192.45314
1498.3302 189.297
1495.0991 188.69008
1494.1511 192.84311
1491.8256 191.47064
1492.1348 188.55095
1492.8866 185.16112
1495.7131 185.24696
1499.1395 185.41176
1501.0208 187.5147
1503.8048 186.74881
1503.7351 189.89333
1507.7583 188.34863
1505.8655 185.09866
1510.9192 185.25737
1511.3934 188.48355
1514.723 186.71504
1517.0754 184.89003
1520.7811 184.63786
1524.2213 186.29369
1524.0465 189.79399
1521.3254 191.50871
1520.891 187.75938
1518.045 189.50003
1514.4377 190.3542
1515.7368 193.22243
1517.4532 196.1862
1519.6874 193.87358
1521.8242 196.94366
1524.572 193.95735
1526.8575 191.00719
1528.7798 193.26038
1531.7306 191.85677
1530.0664 189.45354
1527.5723 187.57541
1526.941 184.59149
1528.7056 182.72658
1530.7104 180.86969
1527.2059 180.83745
1523.4408 182.853
1524.9325 180.9641
1525.1079 178.12114
1526.1079 174.70709
1529.0723 177.9641
1531.0538 174.92403
1535.2325 174.14807
1537.749 172.41179
1535.5872 169.34546
1532.0468 170.49773
1528.3103 170.72691
1524.2455 170.70593
1514.108 153.67873
1510.9418 149.77475
1510.5847 145.9418
1515.0652 149.18263
1514.7681 145.64212
1516.1018 142.71704
1518.148 140.15257
1519.6255 142.16666
1522.279 141.77325
1519.2827 144.6111
1518.9362 147.53046
1517.714 151.36693
1520.5061 152.26118
1523.033 149.52026
1526.5162 147.14932
1522.7307 145.83781
1525.1602 143.09402
1527.9413 144.04945
1530.6367 144.11824
1529.366 141.41203
1528.0201 138.69081
1524.7753 139.32828
1521.4633 138.0992
1517.8197 137.08707
1514.7294 135.41328
1514.7871 139.20172
1510.6249 138.28052
1512.3396 142.05421
1508.0276 142.94649
1506.2603 139.12073
1503.5488 141.66814
1505.8004 147.24007
1506.3676 151.91864
1509.6525 154.55583
1504.8112 156.15529
1500.8 154.6708
1502.5817 151.34169
1500.4011 148.4653
1495.2404 148.01566
1497.589 151.41045
1498.9135 157.18077
1496.2496 155.05109
1493.2719 156.46349
1489.8651 184.08409
1489.9226 186.44524
1489.0316 188.92677
1488.8992 192.1243
1490.8309 195.16142
1494.729 196.77917
1489.2274 198.01228
1486.3196 194.79556
1485.9133 191.37709
1486.2195 188.20967
1486.7052 185.04326
1483.5132 185.26741
1480.345 184.53435
1477.891 185.94197
1476.8729 189.3527
1474.6979 191.61203
1471.4524 191.80939
1470.6256 194.70753
1471.9436 197.17783
1469.8162 198.7539
1467.5104 196.9239
1465.1962 199.6255
1465.481 203.70094
1462.3403 207.16016
1461.8907 203.9041
1459.07 201.52582
1461.9509 198.95406
1462.0598 194.5317
1465.1353 194.5905
1468.1014 193.11426
1467.8982 189.80864
1472.643 189.02333
1474.7255 186.30522
1475.2701 182.44678
1475.1268 176.98816
1471.288 174.53145
1472.1724 178.38896
1471.9369 181.28035
1471.2806 184.17441
1470.2394 186.9
1466.085 185.9152
1464.3287 188.72705
1463.1544 191.38132
1459.6173 190.39523
1458.1315 193.26376
1455.0834 193.67613
1459.572 196.30844
1456.8441 197.84253
1454.3187 199.52386
1455.0474 202.54848
1451.224 201.302
1447.9011 202.36462
1444.5651 202.51451
1443.9397 198.54012
1447.7456 199.17241
1450.1731 196.84962
1452.2921 194.97946
1451.4545 190.50795
1446.0847 190.97153
1446.4817 194.85046
1441.6073 195.10078
1440.104 190.55588
1437.757 185.3932
1443.3865 185.93607
1447.7151 186.78374
1450.8435 185.29793
1454.7056 185.6537
1456.0098 189.30928
1458.7847 184.98976
1461.2692 186.96954
1463.919 182.51093
1467.7322 182.28674
1468.7471 178.11548
1465.5789 177.51068
1461.4503 180.9757
1462.0475 177.21603
1462.048 173.49538
1463.2903 170.03748
1466.401 173.03836
1469.5502 170.4904
1474.3513 171.36198
1482.6173 153.48468
1478.9 151.66364
1482.2249 150.27556
1483.1606 146.8694
1485.2582 148.03212
1485.5343 151.21872
1486.4409 154.28412
1489.7529 155.18701
1493.4075 152.19238
1490.4585 151.00867
1488.0057 149.33618
1490.8809 147.04974
1492.5509 143.90414
1496.2207 143.86299
1500.7637 145.2812
1500.0013 141.47948
1497.7443 139.32835
1493.0995 139.60132
1489.5066 142.0019
1487.4097 145.14174
1483.9735 143.8864
1485.8066 141.00249
1488.6897 138.26881
1485.0026 136.65088
1481.6034 138.1305
1482.5669 140.90575
1480.9829 145.1814
1479.7783 148.0057
1476.7262 147.75467
1475.4036 150.12015
1473.0409 147.31897
1470.7235 144.97046
1469.5479 142.33401
1467.2754 143.10382
1466.7726 140.25047
1464.7501 138.3992
1463.5093 135.95071
1461.9963 133.37157
1461.8179 130.53235
1460.7174 128.40308
1463.2617 127.4397
1466.1833 129.12572
1464.6016 131.25365
1464.5907 133.64766
1466.1105 135.18263
1467.0851 137.15701
1469.3654 138.00912
1469.3412 134.44615
1467.7268 132.06471
1469.8711 129.42476
1472.5806 132.40031
1472.4783 136.18825
1471.2548 140.26721
1474.3256 143.67815
1477.6467 144.53003
1480.029 142.14716
1477.6499 140.06483
1474.2344 139.86612
1476.3684 136.02878
1480.7295 134.85521
1478.0483 132.15375
1475.6002 129.84206
1472.8843 127.661
1474.7617 125.114105
1473.1555 121.821785
1470.7758 124.121895
1468.6846 126.281784
1465.6235 126.08941
1467.0186 123.09439
1463.6737 122.91676
1461.4991 124.93578
1459.5953 125.73723
1460.2491 122.30643
1458.6362 119.073105
1461.5557 119.1525
1464.1504 118.78005
1466.6793 120.0112
1469.7861 120.325554
1473.0522 118.87957
1473.6545 116.222534
1470.3904 116.697014
1471.6044 113.79168
1470.4064 111.18255
1468.1573 113.46593
1467.1748 116.56622
1463.8896 115.050095
1460.2607 115.65776
1460.648 111.71184
1464.5566 111.72273
1467.2607 110.15975
1469.923 108.449066
1473.2823 111.2151
1474.2579 113.42263
1475.1482 109.56652
1472.5634 108.63024
1472.9498 106.06955
1476.1711 107.132805
1477.9191 105.04499
1474.3212 103.63988
1470.4332 101.95685
1469.9689 105.18282
1467.3042 107.07252
1464.1047 107.82216
1461.1084 107.63999
1462.5397 103.341934
1466.304 104.0051
1465.4747 100.25861
1469.6511 98.469826
1465.9231 96.9786
1467.94 93.78873
1467.9812 90.51912
1470.6268 90.10855
1473.7135 88.05426
1477.0913 85.54931
1477.0961 89.79705
1472.3861 92.0764
1475.1752 91.67786
1477.8323 93.42378
1476.856 97.252335
1474.1151 95.10623
1470.6047 95.18145
1473.2744 98.80092
1475.6918 100.62696
1478.0454 102.127945
1481.3636 101.938576
1480.5222 99.22786
1483.0161 96.71989
1484.9633 99.09341
1485.946 95.220055
1488.7142 97.80726
1489.3124 94.58376
1491.5936 91.91207
1492.3656 96.66048
1495.9376 96.888306
1500.7284 96.438866
1502.2634 92.97186
1502.3917 89.51141
1504.1527 86.31189
1504.1162 82.35358
1500.666 82.63726
1500.4521 85.795746
1498.2876 87.99766
1498.319 91.13421
1497.7932 94.26853
1494.5486 92.57322
1494.7151 87.9628
1496.1692 83.83979
1491.6206 84.339386
1491.4417 88.088646
1488.869 89.615944
1487.9418 92.063736
1485.688 91.58267
1483.745 92.046005
1482.8735 93.807785
1479.6644 96.407234
1480.6719 94.059715
1480.6208 91.04123
1479.1497 88.307465
1480.9226 86.20716
1481.1013 83.246284
1484.2866 85.46381
1482.8726 89.0173
1485.7024 88.585594
1488.0208 86.52976
1487.6956 83.47748
1484.6619 81.7192
1489.1517 80.28009
1492.7582 80.54603
1495.551 78.70271
1498.4899 79.9241
1502.1326 78.875595
1506.0095 78.95297
1508.1891 80.64389
1506.8086 83.963745
1508.2173 86.41108
1510.135 88.62388
1511.6614 91.410965
1508.3398 91.660545
1506.0507 89.637535
1505.9781 94.06158
1504.9806 97.11004
1509.1179 97.679054
1509.9685 94.35301
1512.4006 96.35777
1514.2891 94.37515
1516.8147 96.899284
1520.2953 98.89456
1513.5483 98.94537
1516.6372 100.3321
1518.8553 102.57627
1521.8916 105.12652
1523.9858 107.744484
1522.1907 101.60263
1522.4911 95.74651
1519.5383 95.4024
1521.0376 92.31485
1525.2488 93.76154
1524.7659 98.418144
1528.637 96.933464
1528.1174 100.90379
1525.0674 102.72334
1527.0197 105.48684
1530.1401 104.62256
1528.5891 108.82921
1524.7057 111.25346
1527.5604 112.71903
1525.5922 116.1867
1528.0212 118.526955
1528.4375 121.99974
1525.1815 120.81596
1525.7334 124.758446
1524.0757 128.07326
1527.3303 131.1956
1520.8055 131.26723
1519.5496 134.51767
1523.6084 133.33911
1526.0546 135.78214
1530.2894 134.50351
1531.0879 138.3136
1532.7217 141.26411
1533.9999 137.82915
1534.5815 134.14127
1536.716 130.455
1532.0662 130.09863
1529.6498 127.24551
1531.3094 124.28935
1533.9557 122.28452
1536.6738 125.84345
1538.3939 121.120995
1538.9298 114.55421
1537.5813 111.66111
1534.4886 112.675865
1537.3761 116.943985
1534.6115 118.89975
1531.1659 118.94716
1533.381 115.51723
1529.908 115.00809
1531.4816 111.099785
1532.5437 107.552284
1535.2937 108.78527
1538.2 108.27937
1536.5585 104.78751
1533.3953 104.232765
1535.2611 101.08596
1531.6581 100.72688
1533.1614 97.26005
1531.4072 93.57375
1528.3997 91.86453
1526.4308 89.04821
1523.2079 86.247375
1522.3047 89.6935
1517.8009 89.64737
1517.4904 93.045525
1514.758 91.603745
1514.172 88.95594
1513.235 86.52317
1511.5356 85.14325
1510.3303 83.03663
1512.0232 80.659454
1514.799 82.36655
1516.052 85.844444
1518.8596 83.638535
1519.4133 86.8446
" />
</g></g></svg>
