<?xml version="1.0" encoding="UTF-8" standalone="no"?>
<!-- Created for Inkscape (http://www.inkscape.org/) -->

<svg
   xmlns:dc="http://purl.org/dc/elements/1.1/"
   xmlns:cc="http://creativecommons.org/ns#"
   xmlns:rdf="http://www.w3.org/1999/02/22-rdf-syntax-ns#"
   xmlns:svg="http://www.w3.org/2000/svg"
   xmlns="http://www.w3.org/2000/svg"
   xmlns:sodipodi="http://sodipodi.sourceforge.net/DTD/sodipodi-0.dtd"
   xmlns:inkscape="http://www.inkscape.org/namespaces/inkscape"
   width="3200"
   height="800"
   id="svg2985"
   version="1.1"
   inkscape:version="0.48.1 r9760">
  <defs
     id="defs2987" />
  <sodipodi:namedview
     id="base"
     pagecolor="#ffffff"
     bordercolor="#666666"
     borderopacity="1.0"
     inkscape:pageopacity="0.0"
     inkscape:pageshadow="2"
     inkscape:zoom="0.35"
     inkscape:cx="1600"
     inkscape:cy="400"
     inkscape:document-units="px"
     inkscape:current-layer="layer1"
     showgrid="false"  />
  <metadata
     id="metadata2990">
    <rdf:RDF>
      <cc:Work
         rdf:about="">
        <dc:format>image/svg+xml</dc:format>
        <dc:type
           rdf:resource="http://purl.org/dc/dcmitype/StillImage" />
        <dc:title />
      </cc:Work>
    </rdf:RDF>
  </metadata>
  <g
     inkscape:label="Layer 1"
     inkscape:groupmode="layer"
     id="layer1"> 
     <g>
<path style="fill:none;stroke:black;stroke-width:2px;stroke-linejoin:round;stroke-linecap:round;" d="M 
2058.3457 344.81152
2016.0803 347.082
2030.2992 323.3044
2025.8406 291.33948
1997.346 302.8655
1979.6824 331.80737
1958.4524 302.64807
1931.3733 283.93094
1984.8302 271.54297
1951.6506 252.17485
1906.4683 240.01949
1897.3342 284.4004
1873.4684 307.50916
1868.079 338.48
1901.772 330.70093
1932.4282 328.40878
1952.7183 354.87988
1920.6282 371.62323
1887.8265 377.09055
1858.5269 402.78665
1848.6973 436.7871
1809.1022 463.95422
1760.7715 474.4486
1715.3267 434.95197
1693.7534 475.11325
1721.8992 514.1015
1731.9248 562.18945
1762.538 592.71716
1801.8683 578.3783
1857.8572 593.1274
1837.7233 554.6708
1780.5942 529.5537
1836.7991 508.87115
1870.9819 475.07812
1913.969 466.75885
1949.7988 452.86105
1905.5372 420.23553
1949.3154 398.39688
1976.2463 376.21243
1997.23 363.96317
2017.6868 384.22104
2038.6133 421.5759
2061.463 377.76553
2111.1333 399.05185
2166.0996 396.48798
2165.1316 322.68378
2163.9927 256.06537
2168.541 201.30104
2157.46 146.99994
2165.299 93.47438
2169.5093 34.308746
2126.9585 44.469616
2088.3628 25.619555
2075.883 65.05322
2106.4224 101.708206
2096.0562 157.72316
2070.243 129.86697
2043.774 100.25592
2026.037 62.673103
2037.3357 24.540508
1973.9668 44.483395
1906.7487 36.61855
1873.5056 104.43321
1937.6819 99.37191
1973.9551 153.32053
2002.5017 114.22968
2033.7109 160.84874
2007.693 195.29123
2034.9711 200.8114
2043.4397 229.01605
2067.4263 239.96315
2068.0713 192.07352
2116.7695 193.47565
2099.1597 227.31886
2118.594 270.7718
2109.441 316.08926
2105.461 355.80396
2069.5005 318.87335
2086.623 289.36816
2081.9639 261.8289
2055.67 293.2261
2047.9799 267.2259
2022.5466 258.4372
2004.417 232.93991
1967.0852 206.2393
1921.9456 166.99062
1870.2261 175.80295
1807.1049 149.66574
1741.9718 114.87785
1831.8427 52.88642
1768.987 41.242073
1693.9246 49.267265
1628.1965 62.88808
1554.6777 66.0765
1530.3779 28.723452
1508.6104 80.36827
1487.0999 41.89328
1450.146 25.854174
1414.7756 42.649776
1376.0896 28.090271
1329.0759 29.336424
1298.2954 67.22545
1338.3591 78.95206
1385.9668 83.53633
1450.9691 86.88706
1479.8495 122.58246
1474.5255 173.90413
1479.7015 213.24937
1511.0559 222.71475
1515.7119 183.40738
1554.6228 163.04143
1515.1217 143.92754
1531.5266 112.065414
1583.665 119.83346
1607.8004 174.04027
1653.8822 188.69917
1693.1333 219.04758
1733.2827 205.4215
1767.9121 228.43343
1817.4214 221.0658
1857.5955 241.1458
1852.9526 275.39478
1835.6743 310.46982
1807.116 290.81635
1803.7217 255.24702
1765.927 273.31564
1724.9048 254.3663
1681.1274 267.00592
1644.3435 294.39816
1601.9586 284.80362
1628.4038 257.55557
1657.2981 233.44221
1619.4426 214.5381
1584.6123 194.19322
1555.6595 193.95244
1539.4779 213.28725
1562.9167 230.26306
1592.6345 234.73233
1574.3394 260.66803
1563.0388 285.5804
1584.9478 317.8642
1619.4447 322.9486
1608.4148 355.2404
1585.8606 381.9599
1550.9713 378.3412
1569.6979 350.0405
1555.7202 319.3838
1529.1189 322.9919
1529.5851 350.45245
1516.2217 378.87332
1486.2471 374.94388
1496.9006 332.34476
1470.5917 341.86615
1439.9905 350.38486
1411.3992 361.52753
1387.3412 384.6328
1359.7258 395.3749
1351.167 367.92603
1328.2753 357.36087
1305.7822 348.97546
1282.5813 335.78787
1326.2853 327.06992
1350.5482 336.30603
1377.8197 350.39856
1396.7778 322.1438
1367.5764 306.5664
1340.1857 301.7413
1306.4382 313.1115
1313.0381 288.33826
1306.3073 263.2024
1340.7722 268.64993
1327.0283 243.91565
1362.2925 231.83275
1402.5038 235.1818
1429.6609 268.90097
1368.8707 269.27573
1394.0721 281.13364
1416.0419 306.00815
1441.5707 314.80826
1464.7327 294.9876
1494.9115 281.7876
1507.3982 304.11166
1535.3136 288.65247
1538.9768 249.05219
1513.3345 258.80798
1474.4971 255.29988
1444.59 235.06355
1435.8732 198.6813
1392.3257 198.92717
1357.0588 189.34026
1322.8617 182.2226
1327.168 213.75708
1294.2639 228.35083
1286.0591 187.54301
1265.1014 216.19917
1234.9208 216.41045
1247.4834 182.47157
1213.3125 194.40288
1199.5186 172.94745
1165.5872 177.25465
1183.9675 210.45193
1209.3784 232.47337
1217.8059 259.5139
1239.4835 281.3125
1252.7947 248.69952
1279.3473 262.58203
1273.2953 287.51855
1281.4684 310.27292
1251.8658 315.34164
1217.3599 313.59387
1168.5873 335.1084
1106.0497 347.38672
1120.7384 293.48935
1179.7526 245.63004
1152.5332 216.32558
1123.6936 196.64006
1133.01 171.33821
1129.7389 85.009514
1174.9304 69.789764
1211.9198 84.231384
1254.5056 71.91199
1272.8551 26.226404
1216.5532 29.696306
1158.8596 29.096899
1111.257 30.704456
1086.8065 64.78804
1064.003 23.749453
1022.0884 32.070934
1046.7438 56.889786
1025.3674 93.19684
1067.0801 103.40017
1052.7096 261.2367
1043.3932 307.33664
1040.8263 353.07523
1036.8612 467.8025
1093.2206 469.43344
1138.1963 474.2161
1174.9476 446.8358
1210.7675 423.1707
1225.0062 388.43826
1232.4877 350.2362
1260.6083 355.74554
1288.9138 378.90073
1260.4175 393.97757
1255.4775 426.15695
1278.517 451.4455
1303.312 421.04037
1323.7852 387.90573
1349.6161 424.08746
1394.7426 425.9951
1423.0105 404.46393
1453.6014 386.3695
1465.9625 421.8062
1502.626 418.84082
1534.3031 411.72595
1565.0278 413.00357
1596.7407 415.27185
1621.5076 395.0403
1644.4143 375.75433
1656.9053 345.58408
1675.9917 316.34875
1707.4838 302.0356
1740.1948 299.13147
1775.1913 317.27664
1802.4336 342.08228
1833.2943 344.5106
1851.834 370.24368
1813.718 389.56387
1778.1172 413.6718
1735.4298 391.54037
1771.4772 365.45593
1739.1263 341.0067
1704.1776 350.62946
1689.1189 385.06952
1665.6444 418.15656
1626.4075 432.3625
1645.7588 463.0107
1638.3765 506.63712
1673.6522 532.25073
1684.0833 574.8259
1719.7148 610.6994
1684.8901 653.0127
1675.5366 619.26056
1639.0222 612.62683
1597.813 604.0557
1566.229 579.1481
1538.3362 608.69696
1516.6177 637.8135
1484.9114 657.19745
1488.1355 611.33624
1452.2067 621.28625
1439.2925 592.6638
1416.7325 564.4151
1406.824 528.4639
1421.0337 498.72928
1463.3706 560.69635
1501.9474 574.50024
1533.9518 553.8451
1618.9263 554.1012
1583.8435 511.05145
1586.1466 454.41425
1536.8678 453.10696
1536.1763 506.0035
1495.4802 522.96405
1455.9805 517.02673
1486.0034 473.0513
1440.8127 466.369
1395.6208 466.18048
1372.3923 486.09424
1334.4734 458.4179
1304.0674 482.67618
1296.5986 512.8047
1268.5067 529.76776
1284.0912 553.9166
1309.8811 540.4304
1340.6327 545.0094
1329.726 516.28516
1340.1116 491.39062
1368.3143 519.69434
1375.8453 554.9352
1348.1378 577.4861
1377.8623 591.7092
1403.9886 614.1323
1416.6449 647.85846
1379.0465 660.9782
1376.5526 693.1209
1417.2189 685.72784
1450.9253 653.14813
1455.015 679.44086
1482.5414 696.0446
1450.8677 708.81177
1440.1941 736.9355
1404.9197 726.1122
1367.9536 730.98584
1332.5417 734.55994
1295.7277 729.54376
1335.1487 692.4208
1295.4829 683.03357
1307.0896 645.2017
1337.096 654.5382
1365.107 629.5815
1336.5516 611.52527
1321.2579 573.1098
1296.3496 575.5215
1308.2976 601.443
1288.1522 615.8278
1276.6923 639.8645
1255.1465 651.85223
1249.4688 679.49554
1263.7343 707.8386
1220.291 706.59564
1211.5931 669.3232
1220.2616 630.496
1251.2831 609.6714
1270.9067 585.6899
1245.6984 560.63446
1233.2142 517.889
1264.401 492.17197
1232.5085 461.64377
1198.579 493.29816
1158.6775 516.6509
1104.9209 521.7327
1065.9705 510.68283
1026.8112 516.2779
1030.2028 563.4951
1075.1377 560.10205
1062.4266 600.97015
1021.5163 608.4012
1037.7887 631.9287
1028.0078 661.1168
1022.8452 690.6568
1024.7877 721.9933
1025.8389 752.77527
1025.9177 780.71277
1058.8099 771.7516
1092.2102 780.11365
1088.8195 749.2777
1118.3158 732.1275
1138.7656 701.0728
1114.0016 686.3411
1089.1154 711.46985
1057.8595 731.6087
1055.9153 692.13184
1081.9984 676.3063
1065.2616 647.66907
1093.9949 628.5918
1110.0593 656.8355
1146.9235 662.8031
1134.3376 627.1963
1149.2742 596.42804
1106.804 592.29865
1126.74 554.20544
1168.2991 558.6304
1204.7891 546.0627
1218.8425 588.5019
1185.5627 599.3965
1179.3033 641.26306
1175.9027 689.2262
1155.815 733.32416
1125.6 771.4561
1159.4456 773.05164
1196.0535 733.53925
1195.6238 773.08887
1235.1996 775.361
1248.5967 742.61584
1283.5311 772.7557
1323.9481 773.56586
1359.5249 772.3324
1391.6812 771.4585
1422.5468 771.0721
1457.4808 772.4391
1491.176 772.6957
1524.4722 783.95496
1522.5391 763.674
1527.404 742.16516
1564.1516 751.46533
1555.8977 778.33563
1592.5387 779.1714
1605.2842 749.3886
1641.217 771.9145
1685.2593 773.2065
1727.8339 773.3905
1735.8427 711.95874
1710.288 737.06195
1669.1077 732.8598
1631.2483 722.0376
1599.853 690.9303
1558.6287 690.65076
1569.5046 722.75867
1526.2532 715.9331
1483.6399 734.49274
1510.0044 693.9096
1519.4264 670.42944
1548.8724 659.056
1577.0625 642.662
1619.4011 652.5421
1648.7014 679.7088
1690.146 695.4144
1723.38 673.8833
1744.0684 651.4982
1783.1064 631.95026
1823.4421 620.44617
1819.1462 675.57117
1846.8967 697.5067
1804.2474 725.94507
1790.522 682.2538
1764.3999 692.1812
1760.9043 741.55084
1766.4113 777.2309
1802.4961 769.53766
1847.9927 774.35443
1853.4503 736.05444
1913.6797 765.7014
1903.3179 716.8563
1904.7214 674.1868
1863.9453 661.5858
1893.4258 623.8138
1909.8142 584.76855
1885.0538 550.5531
1887.378 510.77084
1921.4006 513.15686
1949.9781 497.57788
1981.8608 492.97165
2018.0715 486.79642
2048.4954 499.30658
2078.6055 530.9725
2023.9309 533.3406
1978.3965 535.18243
1935.9962 548.64343
1966.2461 578.6026
1942.3424 618.0429
1979.5403 647.131
1990.4803 612.16254
2010.3179 580.45337
2062.7166 591.0449
2117.13 580.7532
2035.2578 649.7772
2054.7134 708.66156
1991.8865 703.67004
1945.4867 681.86646
1978.0754 761.0828
2041.7582 764.8827
2106.455 760.74054
2164.768 757.1323
2168.1487 686.20447
2116.859 696.4376
2095.4863 643.3206
2159.4717 625.2422
2172.0288 565.5272
2150.3914 526.03
2116.8147 497.25342
2167.397 468.84674
2112.6978 448.07245
2072.6116 428.87308
2077.9778 481.42685
2052.476 457.44153
2022.1879 449.43646
1989.4163 459.85434
2004.5994 426.18268
1974.784 428.0442
" />
</g></g></svg>
