<?xml version="1.0" encoding="UTF-8" standalone="no"?>
<!-- Created for Inkscape (http://www.inkscape.org/) -->

<svg
   xmlns:dc="http://purl.org/dc/elements/1.1/"
   xmlns:cc="http://creativecommons.org/ns#"
   xmlns:rdf="http://www.w3.org/1999/02/22-rdf-syntax-ns#"
   xmlns:svg="http://www.w3.org/2000/svg"
   xmlns="http://www.w3.org/2000/svg"
   xmlns:sodipodi="http://sodipodi.sourceforge.net/DTD/sodipodi-0.dtd"
   xmlns:inkscape="http://www.inkscape.org/namespaces/inkscape"
   width="3200"
   height="800"
   id="svg2985"
   version="1.1"
   inkscape:version="0.48.1 r9760">
  <defs
     id="defs2987" />
  <sodipodi:namedview
     id="base"
     pagecolor="#ffffff"
     bordercolor="#666666"
     borderopacity="1.0"
     inkscape:pageopacity="0.0"
     inkscape:pageshadow="2"
     inkscape:zoom="0.35"
     inkscape:cx="1600"
     inkscape:cy="400"
     inkscape:document-units="px"
     inkscape:current-layer="layer1"
     showgrid="false"  />
  <metadata
     id="metadata2990">
    <rdf:RDF>
      <cc:Work
         rdf:about="">
        <dc:format>image/svg+xml</dc:format>
        <dc:type
           rdf:resource="http://purl.org/dc/dcmitype/StillImage" />
        <dc:title />
      </cc:Work>
    </rdf:RDF>
  </metadata>
  <g
     inkscape:label="Layer 1"
     inkscape:groupmode="layer"
     id="layer1"> 
     <g>
<path style="fill:none;stroke:black;stroke-width:2px;stroke-linejoin:round;stroke-linecap:round;" d="M 
1771.3928 425.8043
1743.0895 435.43558
1716.5625 454.9507
1723.85 487.59854
1690.4314 493.2766
1650.3815 494.01538
1688.9768 539.5525
1673.4542 574.2908
1672.4933 603.1221
1648.6267 587.45746
1639.8538 538.8072
1618.8838 576.8233
1586.5048 581.94995
1553.3746 560.4736
1497.3098 568.20953
1519.6792 590.71625
1552.7682 597.4967
1566.2987 619.45984
1532.747 635.1434
1480.7534 603.22
1454.577 619.0697
1469.9302 647.8988
1504.0382 631.5552
1533.5029 670.11615
1499.2886 672.0788
1465.4083 691.7573
1446.5032 668.7344
1432.024 645.271
1404.2693 637.39703
1393.8623 609.4483
1373.2987 623.41547
1352.0138 622.53906
1361.3392 594.74884
1360.006 566.60077
1361.3213 534.0795
1358.2856 507.37622
1382.1139 489.9781
1394.8185 506.3485
1399.431 484.0336
1415.7754 480.0062
1418.249 506.13983
1446.6561 521.02203
1427.8696 525.505
1426.3326 548.37555
1402.1647 527.0704
1388.8806 552.702
1401.8855 580.4436
1425.8881 607.3712
1443.4991 578.20074
1467.3756 556.6696
1461.3368 508.45618
1491.5813 496.46265
1459.3322 490.9834
1444.8966 483.4852
1441.4697 502.44272
1427.6118 490.0164
1431.5181 472.37112
1445.6332 468.98035
1461.9594 471.93646
1452.6841 456.7476
1437.4231 457.5336
1438.8159 443.60718
1456.861 446.13464
1469.8534 453.2977
1473.9476 468.03604
1481.0986 440.97418
1487.4363 430.65143
1492.9917 449.9667
1486.1461 461.8059
1513.0227 468.41245
1542.5688 476.75208
1585.0952 497.92593
1614.8262 471.9139
1576.8667 457.22394
1579.9739 425.7212
1601.2544 437.2442
1627.1466 432.5585
1657.9589 457.53754
1685.8698 451.2328
1698.2446 428.48483
1673.3206 424.46976
1651.6202 431.0105
1603.5537 413.53085
1590.8748 395.89615
1572.8479 387.92123
1568.8302 408.0512
1556.4419 426.47748
1555.3652 444.24548
1532.5088 448.12662
1517.6501 439.19278
1506.4363 448.2354
1501.2335 432.76605
1493.4678 418.87897
1508.2854 420.59024
1521.8575 420.78268
1535.6573 427.1823
1547.9725 411.12192
1534.0865 402.75226
1518.4062 404.26712
1526.2776 376.16946
1551.875 392.57297
1555.5355 361.61337
1527.5754 342.73596
1505.5367 357.19006
1479.0093 350.75128
1482.7345 381.0234
1502.8389 402.83878
1484.7751 406.02133
1474.1892 420.49414
1469.5002 436.26843
1456.4894 433.38123
1453.1923 410.88947
1451.0457 381.20657
1443.6942 353.43546
1450.146 323.16544
1480.9137 318.8332
1506.251 316.8126
1532.0813 307.96954
1557.8147 301.8195
1552.4221 332.28165
1585.0598 336.61176
1614.2383 349.7414
1597.873 372.71402
1614.6619 387.528
1628.4033 403.53793
1638.7384 380.45685
1654.4104 399.0482
1666.8997 383.66968
1686.2019 385.56152
1683.0608 403.0979
1702.492 392.7034
1706.5985 409.50967
1721.3188 395.6097
1717.4858 371.517
1689.103 359.12326
1713.8932 347.9895
1742.7909 358.99054
1759.2244 383.35632
1742.5425 392.43512
1730.2437 412.30182
1753.0032 407.08704
1768.6768 400.7725
1783.0798 396.7584
1794.7158 385.62775
1774.1208 378.95337
1785.9814 366.51016
1770.6329 357.25888
1756.8131 339.53323
1726.7379 324.63568
1693.2279 326.703
1704.7332 295.96518
1732.4785 283.3983
1713.1405 251.29187
1685.6467 267.79163
1667.7441 297.36783
1662.9592 328.22528
1659.4266 356.97876
1637.5188 341.3391
1618.6731 317.31445
1641.2552 305.74417
1632.0175 272.2723
1657.7012 271.38068
1658.9307 245.20084
1640.9094 220.77466
1663.1558 210.95045
1641.915 198.77588
1625.1495 186.65451
1608.762 196.96779
1588.0173 191.55779
1581.353 216.67316
1552.0616 224.20567
1580.2314 243.35591
1609.193 221.29715
1636.6339 242.17291
1616.0321 249.25311
1594.6733 263.77258
1604.9966 286.4131
1587.726 305.5258
1559.1829 273.0845
1534.1781 248.85275
1515.2223 275.48386
1475.7091 285.2755
1440.7944 272.62442
1420.7281 243.7849
1397.9207 258.52628
1374.0693 264.81378
1369.2418 292.27966
1395.644 291.44046
1424.4967 300.21652
1412.1576 326.36316
1383.9178 322.51627
1403.1952 351.22348
1383.7247 370.93735
1415.1976 374.73422
1427.5011 398.4436
1426.0198 422.01782
1410.2451 442.5297
1422.7262 456.87817
1407.7039 464.09183
1389.9215 464.58875
1357.4664 480.3931
1359.5347 460.71652
1354.0868 444.34637
1358.9774 428.00107
1381.0854 439.85825
1395.6682 420.797
1398.4736 396.0674
1376.1062 402.53818
1354.3131 412.14603
1355.0459 391.15344
1356.5913 368.86197
1363.9395 345.5196
1356.0753 317.72418
1351.6444 278.7288
1359.9185 244.15587
1358.5942 215.10735
1391.5227 222.30305
1388.2883 185.26186
1356.4521 184.62804
1365.7031 153.3036
1356.535 121.51053
1388.7021 117.61817
1409.9946 92.954155
1361.6418 87.13546
1388.2405 69.83069
1385.8403 37.874054
1359.9846 53.749283
1353.1516 24.257671
1373.3473 15.733395
1403.2396 12.77391
1411.287 28.456612
1408.6731 50.74135
1424.0061 70.7772
1431.0034 115.27531
1407.7828 146.94034
1442.1448 151.51236
1423.8002 176.3634
1424.2057 207.77345
1452.4233 233.86707
1487.2981 248.50647
1493.9539 212.29051
1495.3488 186.43199
1522.3397 221.35071
1527.1202 194.37955
1559.7141 194.60274
1539.8009 173.55757
1556.6215 154.02448
1577.9883 167.55061
1586.6671 142.64803
1609.1072 136.26236
1596.7037 109.0898
1563.5498 123.04763
1578.1375 88.48674
1560.2322 62.53499
1545.5708 42.479176
1522.2471 64.13194
1502.2976 44.322678
1467.2772 49.03257
1489.5052 77.92063
1489.4246 130.34918
1509.7205 127.308304
1504.8291 106.551765
1519.9895 89.839775
1547.1666 89.48792
1536.8503 113.55478
1536.78 138.04672
1519.8398 149.18152
1516.2588 171.47383
1496.9503 155.98471
1473.0778 172.79095
1458.9373 196.05576
1474.7416 150.8082
1465.1985 127.932755
1468.235 104.70431
1455.4545 82.5458
1444.5535 60.6338
1430.6254 44.44338
1442.1304 30.644686
1449.5199 13.794012
1475.679 19.884924
1505.4084 17.87987
1534.827 18.920351
1573.8727 21.104645
1608.8726 25.351475
1649.7627 18.053223
1642.0042 49.48663
1599.9744 61.566612
1622.2048 84.228745
1626.2727 116.56549
1657.2201 113.039185
1653.3022 82.97651
1678.7229 75.80578
1682.4154 38.410435
1705.6035 15.644806
1724.8173 34.841797
1745.8281 15.679701
1772.4259 12.156329
1790.079 17.889801
1807.1956 14.074363
1826.9464 18.93926
1846.5835 21.688965
1839.5056 49.914955
1811.4684 41.535107
1810.1285 70.16951
1789.5061 97.01201
1819.2611 97.945656
1840.8333 75.367584
1844.5183 100.470184
1839.8455 124.29403
1807.8644 121.22968
1822.0062 145.20335
1845.11 149.32095
1843.3219 175.64862
1832.6733 200.18835
1838.1367 226.47296
1838.5002 257.17236
1838.4707 286.9249
1843.2008 314.7539
1817.7552 326.12677
1798.7184 310.81055
1804.8022 280.39917
1805.9524 247.901
1795.9255 219.52524
1790.6575 192.12862
1812.6511 172.73969
1796.0969 149.29088
1776.368 127.55715
1745.1498 122.40718
1754.4955 147.29533
1771.4108 166.72012
1757.3657 191.92119
1737.684 174.80124
1705.0076 178.61798
1716.717 144.14621
1731.9043 95.836205
1760.1074 97.71985
1756.5293 70.775734
1780.7854 67.56326
1785.5889 42.687145
1765.7135 34.707146
1750.5385 45.95905
1733.1139 62.453426
1708.3877 62.204296
1706.5311 89.53443
1698.2296 113.57917
1682.0591 134.68898
1680.1603 160.51042
1649.5765 143.93663
1624.6482 153.74942
1605.5051 169.50937
1643.9144 170.5905
1668.3257 184.28107
1687.9055 205.9743
1683.1289 234.4995
1711.1124 212.48164
1735.2401 217.46674
1761.3975 219.33873
1771.7045 245.30112
1746.0984 252.23068
1767.0071 272.7105
1775.1436 295.5468
1754.7205 298.30734
1748.9634 318.17227
1772.7462 317.96313
1775.9518 336.47433
1792.0381 344.95587
1812.6241 361.7492
1843.0756 346.7369
1842.5825 376.6092
1818.1221 390.97702
1844.5947 408.5055
1819.4982 417.2321
1791.287 414.22592
1796.6282 437.64035
1775.9233 453.39624
1778.7968 476.4152
1749.8907 469.61874
1754.0131 502.07077
1778.104 501.62744
1799.5674 494.5531
1816.1815 466.9246
1826.2102 439.86478
1846.3433 445.48807
1844.6522 478.67047
1827.7522 498.29547
1843.9421 521.9521
1826.0632 550.2278
1846.3866 568.7934
1844.5665 613.52655
1842.5459 661.4084
1839.3265 700.76227
1837.1864 741.5742
1836.7136 778.1358
1795.8485 783.78503
1757.9475 783.32263
1737.7458 763.74945
1764.2466 757.4214
1796.6625 757.90314
1781.273 734.1276
1808.8743 721.03955
1803.5051 689.2842
1774.4276 701.17926
1756.5563 714.5223
1745.7582 738.3056
1711.6675 756.8568
1719.0609 783.32263
1683.3992 781.39124
1673.2183 754.0484
1645.5251 783.5315
1634.7308 759.3856
1609.8418 781.35675
1578.597 778.2816
1548.398 776.1801
1511.0018 780.0606
1459.7268 781.2178
1483.6327 759.5495
1525.727 743.19434
1569.3246 744.5911
1587.6735 721.1653
1592.4396 696.1948
1622.4904 716.9297
1604.9851 745.6561
1648.7684 737.653
1656.0071 713.0248
1679.1025 715.9519
1693.4055 736.6894
1718.1567 731.0665
1732.5486 714.8977
1704.2721 709.3638
1707.1926 688.2146
1719.9382 668.97864
1731.6842 693.8226
1745.7036 678.05835
1767.1609 673.08185
1786.1942 663.34076
1811.7217 661.2471
1822.059 634.00665
1784.5483 637.0393
1797.7213 619.54175
1813.1296 602.9442
1823.7549 581.2246
1794.8936 579.5141
1772.4321 564.46814
1796.4401 551.70166
1809.0173 526.052
1780.363 527.4259
1765.2346 541.89197
1748.8022 558.9071
1727.9426 526.1009
1727.8767 564.487
1706.0953 570.9569
1703.1943 591.39264
1700.0834 611.3928
1720.561 627.1137
1730.5261 603.0905
1749.0157 585.5168
1777.436 603.1459
1754.7595 617.8952
1760.905 646.7624
1737.1365 649.7631
1708.0985 647.69037
1692.5459 667.2826
1679.9343 690.5656
1666.409 670.5065
1644.7933 686.9228
1618.1611 682.35504
1620.7131 648.10876
1647.1835 654.28125
1678.3347 647.8065
1687.5529 628.3776
1659.1218 629.45374
1635.8817 615.6067
1606.8402 611.3744
1587.9022 634.7147
1592.303 663.70593
1563.9302 651.5543
1566.5911 681.5319
1560.0339 713.6466
1535.2458 702.59033
1504.706 705.7879
1480.4253 726.92303
1449.0778 720.5212
1440.7719 753.39404
1405.9496 749.9598
1419.9181 719.5
1396.8341 712.7944
1372.6628 712.46936
1386.4928 686.1744
1420.8875 685.5117
1397.6223 664.2057
1376.4194 649.2318
1353.5673 648.7854
1359.0133 673.1636
1354.6042 698.0859
1354.296 730.3375
1379.5847 742.38385
1357.4968 758.7705
1358.2968 783.32263
1387.3865 778.3343
1420.3904 782.28235
" />
</g></g></svg>
