<?xml version="1.0" encoding="UTF-8" standalone="no"?>
<!-- Created for Inkscape (http://www.inkscape.org/) -->

<svg
   xmlns:dc="http://purl.org/dc/elements/1.1/"
   xmlns:cc="http://creativecommons.org/ns#"
   xmlns:rdf="http://www.w3.org/1999/02/22-rdf-syntax-ns#"
   xmlns:svg="http://www.w3.org/2000/svg"
   xmlns="http://www.w3.org/2000/svg"
   xmlns:sodipodi="http://sodipodi.sourceforge.net/DTD/sodipodi-0.dtd"
   xmlns:inkscape="http://www.inkscape.org/namespaces/inkscape"
   width="3200"
   height="800"
   id="svg2985"
   version="1.1"
   inkscape:version="0.48.1 r9760">
  <defs
     id="defs2987" />
  <sodipodi:namedview
     id="base"
     pagecolor="#ffffff"
     bordercolor="#666666"
     borderopacity="1.0"
     inkscape:pageopacity="0.0"
     inkscape:pageshadow="2"
     inkscape:zoom="0.35"
     inkscape:cx="1600"
     inkscape:cy="400"
     inkscape:document-units="px"
     inkscape:current-layer="layer1"
     showgrid="false"  />
  <metadata
     id="metadata2990">
    <rdf:RDF>
      <cc:Work
         rdf:about="">
        <dc:format>image/svg+xml</dc:format>
        <dc:type
           rdf:resource="http://purl.org/dc/dcmitype/StillImage" />
        <dc:title />
      </cc:Work>
    </rdf:RDF>
  </metadata>
  <g
     inkscape:label="Layer 1"
     inkscape:groupmode="layer"
     id="layer1"> 
     <g>
<path style="fill:none;stroke:black;stroke-width:2px;stroke-linejoin:round;stroke-linecap:round;" d="M 
1532.9656 373.3029
1526.5281 370.26538
1519.3167 374.80716
1518.5256 382.82968
1515.77 391.98358
1523.6967 397.7248
1525.5846 388.8427
1534.0414 389.16934
1527.0795 379.67624
1533.7976 381.6071
1539.7751 376.7201
1545.6134 371.40405
1552.513 369.65637
1557.2803 375.1769
1557.3982 383.5798
1549.5756 387.21204
1548.391 378.73578
1540.6874 384.83347
1543.2427 392.9186
1532.5388 395.54193
1538.2551 399.6726
1545.1859 403.8086
1551.3969 408.66666
1559.8318 412.22668
1568.2063 411.19403
1571.8835 404.1404
1560.4614 402.24625
1551.1404 397.51544
1558.9479 392.64972
1566.0966 387.47046
1569.5956 396.34756
1576.037 390.77075
1573.001 382.32016
1564.6611 378.47504
1565.4067 370.44666
1559.3561 365.9512
1554.6218 360.29822
1548.2528 363.01944
1542.0946 365.03708
1537.5575 368.73105
1532.2722 363.89508
1536.3363 359.1273
1533.2875 353.10352
1540.2189 352.1581
1543.2825 358.04288
1549.9943 354.0952
1559.551 354.49426
1558.3862 346.7195
1565.0381 342.933
1567.6941 350.31995
1565.9552 360.41507
1572.2792 367.7645
1573.772 374.97437
1582.6543 378.15524
1581.2524 368.57364
1575.6392 361.8159
1574.3638 355.2206
1576.263 347.79443
1583.2363 350.47327
1589.897 346.98566
1592.7588 353.3023
1584.2963 358.99673
1589.1737 369.07062
1592.9001 361.33908
1600.2426 357.33875
1602.8993 351.34286
1608.1226 347.19626
1612.5642 342.77228
1612.272 335.48007
1620.098 332.49124
1623.6284 325.72037
1627.5167 320.95407
1635.0233 322.38483
1637.6902 313.46707
1640.9846 305.34457
1633.8032 297.12317
1629.9661 305.11368
1627.5433 313.2856
1617.1388 316.76193
1614.6753 326.21744
1607.1202 319.2932
1597.9518 317.64798
1592.28 309.60757
1600.1711 301.0298
1606.7283 309.0462
1618.6482 306.56433
1623.0702 295.7061
1611.5149 297.82062
1614.2488 285.6375
1605.0835 289.27875
1596.6919 289.70142
1601.7515 279.6783
1609.4393 272.45868
1620.4791 276.96896
1625.8733 285.34924
1634.9607 287.43008
1642.3483 295.98782
1650.2643 295.1998
1652.1305 288.5975
1652.6863 282.35742
1653.9706 275.86026
1661.2183 279.15384
1667.8074 281.9739
1675.1564 281.66757
1682.5972 278.46915
1690.584 280.97873
1683.1311 287.62378
1683.5148 296.91275
1690.6045 297.41928
1697.5134 301.85513
1700.2927 308.5029
1709.7365 306.93942
1706.6024 300.02167
1703.2329 292.3367
1706.1943 286.3549
1697.8815 294.62885
1692.3721 289.48816
1698.1787 284.04565
1704.8519 279.67212
1699.8639 276.16547
1696.0056 271.22226
1691.4193 265.06866
1687.2108 272.22617
1683.2955 264.506
1673.714 265.78342
1676.117 273.1177
1666.6475 271.89584
1662.0242 262.94687
1668.068 257.8428
1677.4373 258.52838
1683.0308 252.77101
1690.4734 248.61298
1701.3824 247.92906
1690.9503 256.65576
1697.7555 260.9265
1704.2771 258.30423
1711.1118 251.90889
1716.0377 243.87608
1724.5768 237.42354
1733.1511 237.7853
1740.9045 243.27151
1739.2598 253.55513
1739.4583 262.239
1745.1871 267.3319
1738.7573 272.56836
1731.2462 275.52768
1724.1094 268.841
1730.2349 261.1606
1733.6176 247.14117
1725.7754 248.73805
1720.594 256.8281
1713.5862 263.52942
1705.811 269.18488
1716.0936 273.11935
1711.2788 278.86057
1715.3097 286.0799
1710.1392 292.78625
1716.5175 293.91113
1716.24 300.05847
1721.0219 304.27704
1726.4165 298.2359
1723.9066 290.7742
1722.3818 280.63138
1730.6718 285.57974
1736.451 290.34305
1736.4918 296.93466
1732.7725 302.33243
1731.467 308.3298
1725.8191 311.02103
1717.9689 309.96588
1720.0123 317.5623
1712.7847 315.11444
1705.891 316.37244
1698.5911 318.01828
1690.3154 320.04358
1691.1528 311.79303
1688.6459 304.875
1681.4651 307.26416
1674.4657 312.1189
1681.4731 316.32672
1681.915 324.06042
1673.6832 324.37778
1667.6521 318.1678
1657.4541 318.37296
1661.258 310.42728
1668.3959 306.2988
1666.7954 297.12888
1675.4443 301.49683
1676.4678 293.5482
1671.072 289.32452
1661.8881 288.20807
1658.0121 294.319
1659.1079 302.0393
1649.7239 302.24878
1652.4907 309.20383
1647.2568 313.8012
1645.2053 320.45627
1642.208 327.50833
1636.6888 332.75076
1628.2573 333.5427
1633.3767 341.31335
1627.0101 347.53018
1621.0167 340.4754
1617.7532 349.42804
1611.3376 354.8392
1607.2454 361.67322
1606.3455 369.81607
1616.7427 361.6453
1614.9543 369.95615
1613.9167 378.6903
1623.2273 377.6027
1630.9495 374.48108
1624.1536 367.71356
1623.484 356.3113
1631.5741 360.06308
1636.4908 351.24167
1643.0723 357.64645
1648.824 363.56378
1654.5532 371.0007
1662.2239 367.7595
1666.1014 361.0738
1656.9951 357.48312
1650.2373 350.59488
1642.906 342.87524
1648.2307 334.60544
1652.1195 326.27838
1660.8843 327.2114
1668.4735 331.62332
1659.5021 336.5625
1653.4907 342.71286
1661.6796 346.90295
1668.0558 351.962
1670.3923 341.32782
1678.983 349.63055
1674.5839 357.56537
1673.9504 367.6357
1675.5278 377.22034
1665.7599 376.07642
1658.8473 382.30038
1649.2288 381.52127
1644.8 371.2674
1636.4202 367.43124
1639.7091 378.70584
1630.7426 384.38068
1631.3658 393.2744
1640.1501 389.50702
1650.2839 392.00662
1643.791 400.72876
1635.485 400.94107
1626.3049 400.64328
1620.9257 393.3788
1619.8529 385.35623
1610.3384 389.6598
1598.5278 393.42786
1601.161 384.19684
1605.3225 377.7071
1598.9282 367.7129
1593.5369 376.78857
1591.4602 386.39734
1583.2021 386.7942
1585.691 395.51205
1580.4088 403.13797
1590.447 403.62567
1598.9406 402.93854
1607.1329 399.42194
1615.5184 401.43253
1620.964 407.2862
1629.6761 408.5907
1629.7698 415.28497
1631.0922 421.1372
1637.5682 424.51523
1638.8599 419.40976
1638.5737 414.3359
1638.7426 408.28442
1647.3257 411.19913
1645.1484 420.38037
1652.5566 418.1073
1659.9291 418.68954
1657.1968 410.18326
1652.9548 401.5875
1662.4242 402.49332
1672.2532 398.28738
1661.9896 392.23752
1671.7657 386.3723
1680.4392 392.61368
1689.3182 389.42215
1684.8068 380.31558
1684.5182 370.25482
1694.2673 369.08945
1692.3182 360.24704
1682.5757 360.71063
1688.4734 353.0797
1696.4944 348.68176
1703.0386 342.755
1688.3881 344.28363
1680.5779 340.73627
1679.0608 333.0776
1687.7418 329.71826
1693.728 337.2719
1696.161 328.16254
1704.002 326.88553
1706.0344 335.33286
1715.499 337.643
1720.4785 345.161
1727.2422 340.07538
1736.3285 336.84238
1744.6904 332.96356
1750.7056 339.53665
1747.5917 348.97974
1739.1584 345.84836
1730.7192 350.50214
1722.053 354.523
1712.1865 346.57043
1705.1104 351.41257
1701.3444 358.4603
1712.6001 357.0899
1716.8392 365.34943
1718.5691 376.74078
1710.6995 373.02335
1704.8417 366.1037
1702.2722 375.90717
1695.4314 380.8613
1710.9929 381.8575
1706.2673 387.46786
1711.3402 396.85345
1718.654 387.59937
1725.1038 394.5278
1733.7286 389.4773
1739.1857 396.81555
1741.9739 383.5186
1748.9631 388.11996
1749.2205 397.5077
1757.9811 393.53192
1767.4506 392.70032
1772.8855 385.85995
1771.7249 378.54062
1773.416 370.9374
1766.5677 364.00766
1763.627 373.85312
1762.2268 384.51978
1755.7646 380.09085
1746.9254 376.7411
1737.8478 369.79462
1735.2003 378.69885
1726.9927 381.62653
1726.1396 371.377
1728.6066 362.53494
1738.0721 358.19672
1748.0322 357.35944
1746.9454 365.88794
1753.263 372.1092
1757.6761 366.49875
1757.5516 358.17633
1758.2866 348.37576
1767.317 353.73596
1774.7034 357.54282
1778.343 364.16156
1783.0903 370.52722
1790.1248 365.88016
1798.0498 365.74554
1807.0973 367.7974
1814.2797 373.30368
1812.8823 381.51727
1802.989 382.3522
1804.2144 375.43896
1794.1902 375.417
1793.7366 383.67017
1783.3846 379.08887
1779.6057 389.99973
1787.4355 388.773
1789.6544 397.28812
1796.7998 401.66818
1803.9294 397.59894
1797.4602 391.30206
1805.2415 388.9528
1811.8833 390.98434
1819.9495 389.64752
1821.8438 380.30914
1822.6736 370.33554
1816.5703 364.91168
1829.4519 367.79938
1835.9529 360.1791
1842.3713 353.20575
1835.5737 351.90234
1826.5348 350.82388
1828.2068 359.69238
1821.5593 357.2014
1813.5492 358.55276
1803.7684 359.4147
1807.0366 352.60562
1814.0602 350.83185
1818.9473 347.26614
1824.5671 342.1376
1831.5588 345.0107
1838.5331 342.6839
1844.4503 343.8388
1848.706 348.51184
1852.6958 353.20547
1856.6929 347.38074
1852.7145 341.8356
1859.8188 339.32886
1863.0137 344.55835
1864.1038 350.4709
1859.1318 353.70514
1864.1774 357.49792
1862.3005 364.1339
1856.4946 359.4271
1848.8774 357.62192
1844.0247 360.73413
1839.8693 365.12662
1836.056 369.57767
1836.9277 375.85825
1838.196 383.36536
1829.5586 377.4632
1829.4478 386.29895
1828.1792 394.42947
1818.7781 399.3441
1810.8391 400.5976
1804.8258 409.1527
1813.2407 409.5049
1822.3713 409.53934
1827.2097 402.5936
1836.0134 400.0913
1837.6992 391.57153
1843.4229 399.50925
1850.123 397.9826
1849.4678 406.34647
1845.1565 412.38376
1839.5487 407.70474
1832.1942 411.07162
1837.3297 418.5974
1837.6755 427.01166
1832.0708 431.71954
1835.1047 440.6229
1840.4697 437.21503
1844.2656 431.22705
1846.1907 424.32352
1849.032 418.68616
1855.3413 414.1559
1855.9895 404.40314
1862.3064 405.60983
1862.671 411.8915
1869.814 413.53394
1869.814 406.66037
1869.814 400.3167
1870.8118 393.90866
1869.814 386.73166
1869.814 378.92096
1863.3502 380.75406
1855.9327 377.1306
1857.9048 384.94556
1862.8013 390.14197
1863.0981 398.53912
1857.2756 396.30145
1853.4922 391.68143
1844.7261 390.34665
1850.5522 387.3322
1851.2358 381.7496
1845.6982 381.4864
1843.2397 376.91693
1843.0574 371.3288
1850.2871 372.78687
1846.6621 366.65884
1852.7241 364.58722
1857.4186 369.69876
1863.4819 372.50098
1869.814 371.59714
1869.814 365.29697
1869.814 359.54053
1869.814 353.3908
1869.814 347.0835
1869.814 340.7166
1865.8413 338.7669
1869.814 333.44205
1865.4797 333.8101
1860.8809 332.94992
1854.4054 334.81982
1847.4417 336.04718
1840.4535 334.40552
1840.261 327.30154
1843.528 321.77448
1846.1226 316.32562
1850.8235 320.3649
1848.4817 328.38596
1853.8242 324.89636
1857.4614 328.70303
1864.7512 328.4058
1863.8599 323.28574
1869.814 326.385
1869.814 319.5607
1869.814 312.77725
1864.3473 310.8709
1864.6459 303.86142
1869.814 305.24365
1869.814 296.98718
1863.3691 296.95258
1856.4429 295.46866
1854.26 301.35468
1859.509 300.91797
1858.3154 306.31265
1856.721 310.58105
1858.9176 314.71033
1863.5227 317.50146
1857.9956 321.05902
1852.5198 314.9502
1851.0874 309.66483
1850.468 305.23007
1849.113 301.1595
1849.4344 296.2003
1851.969 292.1058
1850.4017 286.22394
1849.8961 279.47113
1855.2915 273.3252
1848.2322 270.5763
1841.142 266.2479
1847.1576 259.86786
1853.4307 263.82944
1860.0315 267.43536
1862.2341 276.00003
1858.0453 281.24295
1856.3721 287.05713
1860.4393 290.345
1865.8922 291.0795
1869.814 287.5437
1865.2644 283.17014
1869.814 277.99857
1865.7734 271.4074
1869.814 269.15643
1869.814 261.9578
1864.7842 262.04074
1859.6118 259.20978
1854.9149 254.91148
1854.1177 248.45866
1850.1296 242.23376
1857.3367 240.90338
1854.248 234.81451
1862.7946 235.60815
1864.0825 242.00546
1861.3191 247.68007
1863.7008 253.2969
1869.814 254.53864
1869.814 246.09746
1869.814 236.4301
1869.814 225.65126
1864.7515 229.80922
1858.2476 227.7573
1863.0881 221.74376
1862.5393 214.85205
1857.0566 212.0017
1855.3551 217.50926
1852.6404 223.07364
1851.4047 228.59274
1846.0164 231.09956
1837.8914 228.37811
1843.5334 221.83759
1848.9052 217.77713
1846.8484 212.47752
1836.4714 214.12935
1830.068 220.38396
1826.9856 230.4238
1825.4893 240.62975
1834.2983 238.59558
1843.8119 237.77032
1840.8967 245.76852
1847.2378 250.75043
1840.3672 255.10817
1832.117 260.12582
1829.911 250.36658
1820.125 250.48369
1812.6746 256.25223
1819.9227 262.45187
1826.6082 267.4715
1821.7871 275.16568
1815.7097 281.3906
1821.3938 289.76007
1810.9056 288.857
1810.8121 298.60046
1818.5222 300.67184
1817.4146 309.52533
1824.624 313.32782
1826.4043 320.3218
1832.4388 311.21683
1826.533 305.00443
1834.3528 300.6985
1827.5889 296.00024
1834.7522 289.9921
1830.0259 282.69568
1833.2847 273.0504
1841.6768 276.3349
1841.9844 284.08817
1845.551 290.2388
1840.852 294.04028
1845.0825 298.799
1841.0227 301.31763
1838.9855 307.4396
1845.2119 306.44586
1844.2 311.59198
1839.0791 315.43872
1834.5222 320.87094
1830.8596 328.5191
1832.1685 336.87857
1823.6636 334.3366
1820.4104 326.55887
1815.5527 319.09674
1808.5814 326.1962
1813.0596 333.3181
1816.755 339.8253
1809.0155 342.85068
1802.0862 336.66162
1792.1005 342.03415
1800.4457 347.40106
1793.5034 354.05362
1784.8533 356.86902
1779.7666 348.28592
1781.9851 339.21448
1769.2064 343.91327
1760.5914 336.92157
1771.3759 333.49564
1781.2046 329.39206
1766.562 323.26416
1757.7292 327.19888
1748.9141 324.44742
1737.6805 325.06516
1728.7675 330.5639
1718.3003 331.38745
1711.9027 324.68338
1721.2849 324.84207
1728.2263 320.61392
1735.0669 316.35477
1746.1636 315.76962
1739.1586 309.7583
1743.2283 304.19324
1747.8379 298.5057
1752.7621 307.11618
1758.262 315.17813
1772.0187 315.44412
1767.8157 308.94086
1763.2966 303.03726
1757.1753 297.71402
1758.0304 288.97467
1750.6354 291.5806
1743.792 290.36362
1740.2434 282.168
1747.4708 277.22516
1750.8909 283.94608
1757.8118 278.5232
1764.7444 283.7897
1766.4062 293.8716
1774.3511 299.30002
1773.011 287.61063
1773.5621 277.5024
1781.9806 287.01212
1782.7637 295.6999
1787.1863 304.00046
1787.4435 312.10056
1778.8522 308.9703
1777.5958 321.65778
1788.9083 320.34787
1790.489 331.3397
1798.3778 327.03702
1802.1144 318.5986
1796.5557 310.935
1809.1934 311.6897
1803.0292 305.1119
1801.3323 297.18146
1801.8004 288.69843
1792.5302 298.79666
1792.9817 290.53348
1791.6571 281.64133
1783.0143 277.77316
1784.1016 269.49503
1790.3514 261.53354
1796.2241 270.90033
1802.3099 280.04688
1809.6903 274.02103
1808.9491 266.14557
1802.0281 260.52243
1796.3624 253.91658
1804.5977 250.21053
1810.3069 245.12933
1816.8291 241.13992
1816.7207 233.08847
1819.3735 223.33179
1821.1116 214.15446
1811.0239 219.39355
1806.3715 213.30951
1801.8479 222.97928
1809.2194 228.83992
1805.8816 237.59726
1797.6932 242.1088
1798.728 232.08835
1789.6685 235.64383
1785.6008 242.60715
1791.8037 247.69716
1785.02 252.54608
1779.5718 260.4619
1772.2537 267.13562
1765.5145 273.65717
1760.3611 267.26947
1752.415 271.39584
1752.2703 262.2993
1750.287 254.78934
1749.8005 247.22652
1746.6075 238.9761
1753.0378 235.90459
1755.16 228.77597
1760.3868 223.31694
1764.4905 235.1394
1768.313 245.33562
1759.0509 244.66487
1760.8336 256.31482
1769.2136 257.64117
1775.5872 251.72043
1777.5742 244.17075
1778.1276 236.3981
1772.2303 230.59651
1768.009 223.68752
1780.17 227.2998
1786.7837 227.473
1793.2025 225.24481
1794.2471 218.34201
1795.3809 212.49806
1785.6425 216.01021
1777.3644 213.22589
1776.3834 220.34573
1767.53 214.68568
1757.2147 214.20177
1744.2627 213.62894
1750.0802 220.13771
1745.2744 227.46141
1738.961 231.86296
1730.2871 227.05412
1738.0278 220.5285
1731.1736 214.33517
1719.9658 213.59698
1722.7672 220.89905
1720.2878 229.05508
1713.4506 234.64302
1705.0286 238.90733
1696.9801 234.01064
1692.4907 241.63696
1686.3303 234.50397
1675.8164 234.46062
1679.3141 243.32729
1673.382 250.75365
1667.0411 244.48853
1663.5334 233.98517
1663.304 222.79002
1673.2898 224.8255
1682.8293 223.8077
1691.5271 225.5149
1699.6003 224.19142
1706.324 228.68819
1712.3842 222.40392
1710.2583 213.65347
1702.4907 215.944
1694.4653 214.84409
1684.1442 214.97237
1671.3533 214.98409
1656.7705 214.32191
1653.3881 224.4509
1645.8071 228.09262
1638.327 232.38008
1630.5713 235.63562
1622.9863 233.31172
1627.2686 223.29568
1635.9431 223.72049
1643.043 215.49919
1630.2611 214.0971
1618.5382 215.26105
1606.5808 213.78334
1604.4045 222.64922
1612.4962 222.65027
1620.036 225.90479
1612.9581 231.71997
1606.4014 235.48639
1600.3384 230.08205
1596.6564 222.9423
1593.7086 213.90642
1589.7981 224.38448
1583.0388 219.88792
1577.7316 212.75452
1568.6984 215.52243
1560.3711 220.45111
1558.8496 213.4912
1549.9149 213.94438
1550.9594 221.37503
1544.8042 225.516
1541.5968 216.66606
1537.2521 223.4948
1531.9652 228.07928
1525.8362 233.03978
1534.3799 235.14456
1540.9222 232.0543
1543.3002 239.5409
1549.9624 231.19173
1551.8087 239.23106
1562.2106 241.1436
1559.1486 234.18678
1556.7517 227.18045
1566.2803 226.44965
1574.7598 225.28265
1583.675 229.72229
1591.1239 234.24364
1599.1287 237.3446
1594.0618 242.1004
1599.5696 246.12209
1605.9288 244.2661
1610.0859 250.831
1612.7227 241.20695
1620.2183 240.93295
1617.825 249.4833
1624.7122 252.94185
1628.2444 244.76328
1637.7732 247.6294
1640.3546 240.70465
1650.3767 237.72397
1656.1836 244.09105
1659.8594 252.52118
1653.4712 257.01962
1645.4861 251.6627
1634.0608 254.06407
1629.8857 260.48773
1639.5157 264.60797
1647.8688 262.0834
1656.8982 268.66135
1647.2798 270.90582
1642.3372 278.11575
1643.8501 287.0019
1632.9526 276.2323
1629.9253 268.28302
1619.0979 268.1429
1620.7908 260.00143
1612.9779 259.16263
1605.263 262.69934
1602.6299 253.62454
1595.8391 255.86713
1591.5011 249.69185
1587.1423 244.23045
1583.0706 238.74126
1577.1018 235.00972
1569.3884 235.35728
1571.4089 244.05643
1579.108 245.77965
1582.0289 252.76125
1588.0848 257.71362
1581.3275 261.45428
1574.8765 263.83258
1568.8993 268.15076
1569.6517 275.70755
1562.438 277.426
1556.0071 277.351
1552.4614 283.91776
1544.8583 280.0253
1549.5741 277.0878
1552.3181 272.0355
1557.135 269.4888
1562.8618 271.39905
1561.2366 263.7641
1561.6388 256.52585
1568.4618 259.89365
1574.2336 253.79434
1566.903 250.89478
1559.2506 247.85896
1551.5029 247.29822
1544.1403 248.34311
1537.0576 246.24724
1533.0979 240.31339
1528.2614 244.08937
1530.2407 250.68619
1525.6045 255.3865
1521.93 260.25986
1515.6981 262.7256
1510.1438 260.3749
1507.2877 253.49173
1498.0845 251.43509
1495.0791 260.95413
1489.2372 273.1635
1488.6658 265.4587
1483.1274 260.54938
1477.8748 254.95334
1475.4324 247.9903
1483.9379 248.63882
1489.5984 253.68588
1491.3958 243.74593
1495.805 237.07065
1501.297 241.08585
1506.0112 245.82976
1513.9229 245.88155
1516.2175 254.59871
1521.2736 249.74083
1521.0123 243.43988
1522.307 237.8284
1512.1539 237.65248
1516.666 230.27412
1523.2686 225.70432
1527.1516 219.94716
1533.1227 214.99359
1520.36 213.8648
1508.5253 214.58138
1513.9927 221.62105
1506.616 230.02827
1500.9692 220.82259
1498.4933 229.627
1490.8982 230.59282
1486.4629 235.66795
1482.9843 241.66977
1475.7162 240.6784
1469.4851 237.16371
1462.0507 239.71265
1457.3116 233.04254
1465.6239 229.44437
1468.1381 221.49496
1476.0066 218.26399
1478.0228 224.00513
1473.7651 230.08067
1479.2312 234.50209
1483.3276 227.87671
1490.6256 222.37149
1495.2697 213.5629
1484.6886 212.1153
1484.2272 218.1908
1472.5791 213.53314
1461.6355 214.40442
1457.7415 223.32365
1451.0482 216.01747
1442.2361 213.37257
1433.7045 215.18637
1429.1545 222.6732
1425.0723 214.05928
1417.3418 215.11076
1420.2253 222.71413
1422.7922 230.69241
1425.8159 237.02126
1428.6091 243.9709
1428.6389 250.32454
1425.0415 255.5987
1431.3048 259.4062
1438.0525 261.62555
1442.7312 255.32883
1436.0116 251.95284
1438.3507 244.59604
1434.401 237.83992
1433.6271 229.94673
1441.0017 223.5418
1449.0267 228.52269
1443.0283 236.09898
1451.1938 240.37106
1456.8972 246.60066
1446.4762 248.25507
1453.4176 255.25253
1457.4779 263.70663
1461.7743 253.17473
1467.8068 246.06651
1469.0549 255.43613
1474.5941 263.6703
1466.1003 263.8108
1461.8933 272.55945
1456.3466 281.9664
1465.5901 281.96854
1464.5348 291.21082
1450.7621 289.9159
1442.7852 285.35516
1431.29 286.13364
1437.808 278.42477
1448.1592 277.48706
1450.6981 269.86606
1447.2477 262.0468
1439.9218 269.75754
1429.7249 275.98254
1430.9806 267.85083
1424.3488 263.68167
1420.8999 270.37238
1422.5278 279.2218
1419.2592 287.9389
1424.1931 294.96698
1428.1091 305.18146
1434.7355 295.1583
1441.647 298.54724
1450.0261 300.0568
1458.5604 298.9918
1468.4136 300.1878
1478.3699 298.9057
1477.6344 289.6204
1474.7299 281.83688
1472.0929 273.26498
1480.6995 271.1147
1484.5247 282.2975
1492.8414 287.3924
1494.4879 278.91986
1502.4507 281.8633
1502.25 289.34378
1509.9388 287.56287
1513.1135 279.81656
1505.4155 275.45218
1498.2107 270.16913
1502.4846 261.50153
1506.744 267.62527
1512.1436 271.70587
1516.8469 268.51865
1519.9669 274.5828
1522.9199 280.59433
1530.183 282.2017
1532.3234 274.59818
1527.3647 271.31677
1522.3662 266.9544
1528.9725 264.08798
1532.9529 259.2578
1536.909 254.0224
1541.7307 257.49194
1548.5382 256.22485
1555.0408 255.05473
1553.8905 262.5543
1549.7045 266.59384
1544.2784 263.6064
1536.825 266.5941
1545.8478 271.07584
1540.4406 273.0684
1537.8174 279.12366
1538.0784 286.16467
1532.5703 290.27725
1526.8297 295.15906
1524.7715 289.10983
1517.9639 287.01578
1516.5359 294.75107
1521.508 299.6021
1526.3523 303.6673
1527.919 309.06842
1522.7529 312.83612
1528.0176 315.17477
1526.0977 320.63797
1531.935 320.63608
1537.02 318.38022
1533.3167 312.13754
1539.5631 312.00858
1538.6536 305.08633
1532.5059 304.95456
1530.102 299.4301
1536.3468 297.88516
1545.2881 299.9697
1541.3517 293.45575
1545.3562 286.6879
1549.9989 292.14853
1557.4136 289.72375
1560.3599 283.41464
1565.2396 291.5668
1563.4839 299.46
1569.913 300.60797
1573.9808 307.78137
1576.7306 299.5129
1573.2479 292.97885
1574.9438 286.2131
1567.8225 284.10062
1577.0903 279.13367
1578.9316 271.77518
1587.2441 268.69943
1595.2708 263.53458
1597.5319 271.49884
1588.948 279.02533
1582.3022 286.8549
1589.4316 290.08276
1582.9958 295.73444
1590.5842 300.36154
1582.7183 304.4765
1582.01 311.14297
1570.8956 315.23706
1572.442 323.5153
1572.8706 330.9384
1581.0583 332.77567
1580.3318 324.47083
1578.9287 317.11572
1587.9806 317.79095
1588.9479 325.3333
1590.7092 332.1817
1598.8079 328.63644
1606.7983 328.76773
1603.9814 337.92227
1599.4115 345.54468
1595.7837 339.29507
1588.3967 339.1581
1581.7089 341.18887
1573.7368 340.521
1567.7822 336.312
1558.8646 337.19705
1552.2505 339.3315
1551.341 346.43817
1545.5605 348.1671
1541.7053 343.93182
1545.9141 337.3965
1552.7249 331.01822
1563.9015 330.67606
1558.3765 326.78946
1556.675 319.87985
1565.1326 321.97983
1561.9064 313.9893
1565.3741 307.2766
1556.336 306.81882
1557.6924 297.35257
1552.0197 300.1668
1546.5828 307.6392
1552.1172 313.59467
1544.7198 316.54578
1549.5935 322.29004
1546.1915 328.78992
1540.2002 323.7729
1539.4133 330.38074
1539.1808 336.43558
1534.8643 346.94034
1535.8678 340.96774
1532.408 333.87494
1531.7441 327.23862
1523.304 326.98776
1524.5461 335.2159
1528.5138 341.37875
1526.1156 348.3188
1526.0913 355.57455
1524.9746 362.18292
1517.9172 366.12433
1515.4667 355.21808
1517.1907 344.04703
1515.4011 332.1607
1511.437 321.1117
1519.2981 319.79608
1515.2625 311.99976
1521.2505 306.6305
1514.9747 303.33002
1507.6488 298.83173
1498.7214 298.6988
1488.7733 298.13922
1487.792 324.5383
1500.2073 342.61435
1475.2184 335.886
1459.4087 319.23752
1441.7246 309.20203
1425.6003 316.1596
1426.9476 329.78134
1425.0574 343.92093
1426.7534 356.06665
1428.803 368.51364
1428.8596 381.05304
1430.2496 393.3159
1423.9149 404.26022
1420.2458 419.53125
1434.6315 416.33743
1440.0317 428.74448
1428.7081 437.48532
1441.6306 445.31873
1455.8666 433.2029
1452.0247 414.56693
1441.1675 403.1728
1444.4185 388.0295
1443.37 373.83435
1442.6731 361.28052
1443.9059 349.52823
1440.3746 340.40845
1442.0969 319.58044
1443.9219 330.63544
1457.6797 339.00552
1458.8342 358.04007
1481.0117 358.26123
1501.2119 368.3779
1484.5576 385.76898
1462.0851 376.81998
1462.0922 398.01697
1474.9779 414.3359
1493.7635 416.35672
1514.5021 402.50812
1523.1307 407.89456
1530.5549 403.60187
1532.1377 412.67035
1538.271 408.52322
1543.513 415.55054
1551.7261 417.86917
1548.7866 424.8496
1546.6315 431.735
1541.3647 424.70218
1532.0193 429.8178
1526.0177 426.215
1534.6045 420.59265
1524.9015 417.65155
1515.4891 414.5454
1516.398 426.21887
1514.6337 437.2267
1523.4371 436.2528
1531.9188 438.64444
1538.0082 431.94778
1539.7352 438.3494
1546.7773 438.04007
1550.634 442.79578
1542.9441 445.14902
1535.2076 445.48163
1534.7694 452.64264
1525.445 445.30896
1522.3994 451.68604
1520.504 458.83755
1509.8245 457.75735
1511.0857 446.46484
1499.0925 454.7739
1496.3542 438.7909
1482.6422 441.61862
1470.858 435.6578
1469.2678 446.73193
1475.9861 456.53024
1488.0502 454.47845
1477.8269 468.54266
1481.9323 478.47394
1489.7686 468.79425
1502.0435 467.91513
1497.1217 479.84174
1506.2153 477.1584
1514.3354 466.9837
1515.4956 475.36197
1523.5549 475.36765
1523.2599 467.72415
1528.186 463.42014
1532.1422 459.83167
1538.5826 459.82285
1545.0282 459.15842
1550.8881 456.3334
1545.1521 451.10648
1552.6333 449.54022
1557.394 445.50604
1562.7565 447.73276
1557.8531 454.90698
1564.4609 453.6237
1568.6578 461.77856
1562.7375 459.65356
1554.6217 462.21542
1561.3314 465.9096
1567.6091 469.7908
1574.623 467.70032
1579.5513 473.52258
1587.283 474.41653
1588.6301 481.74255
1594.3871 485.9144
1599.9971 488.92175
1601.7838 483.5021
1598.1423 479.49796
1594.0356 476.02792
1593.9226 469.224
1587.9954 465.919
1582.6274 468.46887
1580.5004 462.01813
1574.5114 460.3198
1577.2498 454.06036
1570.6967 453.287
1568.4797 445.599
1573.8682 442.85052
1578.0999 446.49695
1582.8907 449.81592
1587.5897 453.05164
1585.4233 458.44125
1593.567 454.63934
1593.3658 462.06494
1601.6155 462.95715
1607.1821 467.64462
1611.0739 473.72354
1599.803 469.3146
1602.748 473.95557
1606.256 478.5157
1607.3113 484.72775
1613.5023 481.17242
1612.2107 487.7665
1612.9858 493.6273
1615.1444 498.06287
1610.8203 501.03802
1611.035 507.64767
1617.2227 504.0237
1620.7649 496.85443
1627.2942 496.7654
1633.231 494.92163
1632.0273 503.7394
1625.3462 503.30234
1621.4232 508.32715
1616.527 513.46924
1622.8025 518.13995
1626.8948 511.59808
1632.2869 516.4375
1634.8201 510.57535
1639.9364 514.29694
1643.8777 518.5913
1636.9983 522.4951
1632.798 529.36865
1629.0999 522.5154
1623.7803 526.9353
1621.6444 532.67914
1629.1079 534.44135
1624.22 539.80536
1618.3337 538.2733
1615.649 544.4993
1610.7201 538.2425
1613.1836 530.08325
1617.2054 523.0893
1610.4338 520.8656
1608.5453 514.21234
1603.7479 510.4222
1600.3397 506.45343
1593.3137 501.8831
1599.0164 500.22638
1605.1461 502.53766
1606.7479 496.3698
1606.1997 490.7472
1600.6417 494.75537
1594.0747 494.23624
1588.1396 501.32623
1586.5974 495.61356
1588.3984 489.55222
1582.3419 486.65634
1579.7875 480.45624
1573.126 476.1588
1566.376 478.2103
1563.5052 486.08875
1570.5968 484.3424
1574.7686 488.91248
1579.7155 495.52548
1571.8806 497.7634
1563.3524 494.9751
1567.372 506.27325
1573.3707 513.902
1566.983 520.075
1560.9149 513.09827
1552.5803 509.5701
1559.1017 503.71985
1552.2314 498.9584
1551.5016 491.1355
1555.8602 486.1425
1558.1565 479.68344
1560.5264 473.4272
1554.507 470.0122
1547.6085 467.00266
1539.252 467.69952
1532.2036 472.0708
1538.4067 477.49316
1545.5397 475.2005
1551.6587 477.8429
1545.0369 484.69843
1535.8857 487.83966
1530.3495 480.67584
1525.4131 485.8799
1519.5828 483.30402
1512.5779 484.33954
1504.0343 487.00293
1497.925 492.87814
1497.9508 500.72498
1502.8757 506.41528
1509.5923 503.20132
1508.0056 494.83716
1517.1107 492.33026
1518.3685 501.13254
1526.2073 500.13333
1526.6167 492.54645
1534.9326 499.45227
1542.659 495.23325
1544.1093 505.2046
1536.1322 509.6131
1526.9279 508.5148
1523.8955 516.5678
1516.5687 509.95813
1515.9822 518.3783
1506.7812 522.2062
1504.2454 514.6564
1495.573 510.752
1488.9603 501.94876
1480.3387 497.4038
1485.057 492.12808
1488.9467 485.1541
1474.6313 484.65933
1471.665 494.50363
1466.5287 504.90292
1458.913 499.9486
1454.6123 509.0901
1448.6072 502.9151
1440.7043 495.89294
1434.8513 505.0429
1427.4333 496.73685
1420.0051 501.57745
1435.5509 514.2147
1430.8563 526.0818
1438.8539 525.17346
1444.6085 518.7509
1452.7928 520.3815
1456.1853 526.23865
1465.4858 529.7281
1459.8517 533.22504
1465.1431 542.09906
1458.2653 542.6746
1455.72 549.05383
1454.3738 554.9591
1458.8451 558.3111
1451.49 560.9792
1449.2457 567.1823
1443.5975 560.7836
1448.2783 553.5381
1446.0442 547.1527
1450.689 540.159
1453.5083 533.7851
1447.2065 529.8654
1439.4402 533.7599
1442.2964 540.8757
1432.6207 538.52936
1435.3865 547.9071
1441.033 553.3392
1435.9879 558.0975
1434.9498 565.25854
1441.4646 568.05914
1446.5953 573.48157
1445.0138 579.97015
1438.2683 578.18054
1435.3253 572.5116
1430.7657 579.1825
1423.3049 573.883
1428.1613 568.7043
1421.4768 564.24646
1428.3639 560.6371
1430.0312 553.6406
1425.4216 547.1268
1422.6832 552.86487
1418.7792 556.7569
1413.1978 561.624
1411.7814 552.1585
1402.9014 541.3529
1394.3497 539.87317
1400.1381 530.8051
1388.5297 531.4767
1384.748 522.5249
1393.5093 523.3774
1397.0022 518.6784
1401.8405 498.8277
1409.5548 502.6698
1414.0623 494.3333
1411.4336 486.5949
1410.6266 477.16183
1400.4471 487.4468
1399.533 475.38736
1405.8792 461.5738
1417.6055 465.15323
1423.0006 477.5779
1422.7174 487.19333
1434.112 486.39822
1432.8217 471.72687
1442.6986 478.784
1453.189 475.7413
1451.5441 490.91986
1462.803 483.74524
1468.7256 474.25272
1461.2863 467.28433
1461.8074 456.2419
1455.5576 445.95984
1447.5101 458.90384
1433.98 456.0643
1423.2028 452.98627
1414.0891 440.63104
1411.1951 452.2963
1398.1482 448.2674
1394.8536 461.23062
1383.9417 456.7052
1383.5751 468.83813
1379.3917 478.30383
1388.6547 483.76224
1390.7578 498.3773
1392.0508 509.31
1378.7614 503.94257
1380.6932 494.6115
1376.837 487.77258
1370.4503 482.93387
1370.822 475.4423
1373.2468 468.3973
1369.9492 460.15613
1363.1328 444.87216
1379.8021 439.1774
1388.2201 437.63745
1398.5255 430.5187
1405.4543 421.39465
1395.49 420.5092
1385.4032 410.26352
1405.9171 405.74298
1411.7666 389.44913
1401.2509 377.7828
1413.2007 367.29846
1400.5442 356.40933
1406.1364 345.71182
1412.9008 329.0757
1404.5118 315.64987
1399.7151 332.2277
1377.5066 345.74744
1377.3434 360.608
1374.7964 335.3179
1366.6105 330.5322
1373.0419 325.6132
1379.1431 318.5647
1370.2506 314.52292
1362.8269 320.71912
1358.8706 312.46432
1352.7273 318.48373
1347.3234 309.50317
1354.9966 305.3481
1367.4463 305.70508
1377.616 303.6909
1390.1224 298.29803
1396.2405 289.44116
1395.5952 279.85364
1387.0928 285.81845
1381.2357 294.18564
1377.6527 286.9002
1370.4194 285.81387
1363.2539 289.89606
1370.3956 296.04297
1360.0846 298.27316
1357.9805 283.02768
1364.783 281.26675
1369.7426 276.8138
1376.7738 277.5786
1383.9675 277.43805
1390.509 273.20877
1385.4777 265.76712
1380.105 269.13217
1373.352 269.7865
1372.0953 261.10617
1379.337 261.00348
1379.8922 253.77164
1373.7583 255.11679
1374.574 248.65498
1371.5424 241.61293
1366.2904 248.1537
1366.7712 255.13635
1358.9338 255.33342
1362.165 261.8833
1368.2762 264.76596
1365.6123 270.1053
1361.2742 274.7922
1354.7216 273.57596
1356.9117 266.8501
1351.5084 260.7667
1348.5992 271.07593
1343.8093 264.99203
1341.8738 258.05954
1351.9243 252.0084
1358.1265 247.4754
1362.6603 241.95999
1365.8647 235.73752
1372.9434 232.62755
1369.7402 226.16795
1380.4044 221.02406
1382.4287 228.00941
1380.7375 234.24007
1378.9564 239.84676
1380.7202 245.84164
1386.594 248.94508
1387.3298 241.58946
1389.7719 234.37268
1393.0907 227.1854
1398.7076 233.65648
1407.835 236.94398
1410.2767 245.67778
1401.7144 249.75377
1402.244 241.74347
1395.0518 241.62175
1393.658 248.72256
1385.4613 254.73888
1387.978 259.65857
1392.9299 265.91745
1398.408 262.00473
1394.005 255.70114
1403.8867 257.2405
1406.0626 265.25537
1400.8531 271.80795
1404.8055 280.4763
1409.1088 290.05832
1401.8578 297.81454
1413.942 300.62756
1413.6749 279.72812
1411.8732 271.70938
1413.5073 263.2134
1418.732 258.9917
1410.8463 254.4922
1418.2552 250.7743
1420.0204 243.79535
1415.6415 237.13257
1413.9318 228.46317
1405.9994 229.66692
1401.4952 223.88895
1409.6031 220.87619
1411.5338 213.07394
1402.0111 213.88234
1396.0648 218.59981
1390.3873 213.77957
1388.1466 220.74585
1379.3486 213.52464
1372.1581 219.4414
1364.3684 213.5243
1361.0968 220.54628
1362.3717 228.47173
1358.8707 235.42589
1354.5831 239.75899
1347.6532 237.54245
1349.5222 231.43596
1355.4481 229.9812
1352.8014 223.10637
1353.8054 214.2864
1346.1849 215.62549
1340.4756 213.20013
1334.1096 213.96136
1330.9985 219.3853
1326.485 213.96219
1324.8981 220.83379
1323.9763 228.37003
1327.2166 226.49959
1332.0529 225.31853
1338.2626 221.67897
1345.193 224.32379
1336.475 229.3719
1330.2343 232.0602
1324.8826 234.30023
1325.102 240.92485
1331.0466 237.95914
1330.4528 245.20872
1336.1862 242.2634
1337.3558 235.96991
1342.4681 231.57143
1342.3634 240.75761
1350.3917 244.31853
1344.8258 246.98653
1344.8309 253.2992
1338.136 248.38174
1333.9718 252.84691
1325.6222 249.45732
1324.7596 257.62686
1326.3657 266.29224
1326.3525 275.74826
1330.0468 258.01425
1335.7576 261.67834
1334.0181 268.97678
1341.708 272.7045
1335.6338 276.54004
1329.5667 283.35336
1326.8289 290.1512
1326.5283 298.53784
1335.739 294.06195
1339.0781 283.39133
1346.5397 281.569
1352.2988 279.9329
1353.5197 290.29877
1343.8704 290.41138
1349.4082 298.29587
1341.9756 300.8936
1337.1742 306.28366
1329.7051 304.05536
1326.9266 309.9811
1331.3622 315.7149
1324.9187 317.93063
1325.3547 328.55704
1330.3597 323.46695
1336.9546 328.2041
1337.5385 319.5631
1339.0652 312.7458
1345.5812 317.43964
1343.4471 324.57977
1355.1349 324.9215
1359.0974 329.11334
1358.688 335.80682
1351.0168 334.7653
1348.644 327.90005
1342.218 335.96045
1335.0223 342.13123
1329.8298 334.4412
1326.6586 344.02115
1326.6013 354.05588
1327.5061 362.7844
1335.321 354.5289
1343.045 348.4382
1352.1593 344.55344
1359.9712 343.53088
1359.1278 354.98288
1346.4336 359.7489
1348.0989 370.56522
1338.0667 366.21045
1329.0553 369.9592
1327.5579 376.6644
1326.6938 385.0242
1336.7759 378.80292
1345.0969 378.78333
1335.0317 388.70676
1327.2778 395.08908
1338.3398 396.35715
1345.6581 388.27515
1361.1166 378.64502
1378.1328 376.68863
1379.3379 394.12308
1376.8661 413.36563
1383.623 420.1737
1388.6808 428.09583
1380.2382 428.95444
1363.4594 426.21484
1346.2507 434.2473
1341.5249 444.6987
1336.6718 438.03806
1337.2125 428.3793
1343.6934 423.9888
1337.559 414.53958
1345.6395 417.11844
1349.3975 409.70468
1361.7026 400.16125
1346.2772 398.68967
1341.5242 406.8705
1333.6965 403.97244
1325.9878 405.28876
1325.0115 416.0484
1331.409 415.34164
1328.2708 424.3481
1327.7957 432.32068
1325.8479 440.17883
1331.793 445.4849
1326.126 450.22076
1326.4824 456.69797
1325.8638 462.0911
1324.883 467.62772
1324.3868 473.6427
1327.7137 478.33575
1325.426 482.60535
1326.3468 487.93344
1326.813 493.3297
1324.915 498.90393
1330.7001 500.41852
1337.3958 500.51865
1343.2865 500.8797
1344.2546 493.22778
1343.6423 486.7754
1335.6355 492.861
1334.5442 484.7188
1342.7827 480.27884
1345.4164 473.92053
1337.5869 469.61526
1336.157 476.67526
1330.3167 472.51224
1331.4497 465.8115
1334.9963 459.20532
1337.2499 452.12253
1348.2501 446.46225
1345.7019 456.18854
1341.1628 463.77744
1347.1168 466.29868
1354.5973 458.99802
1353.459 465.81287
1354.0846 474.01144
1353.963 482.3492
1354.502 489.68747
1349.412 497.96603
1355.9454 498.52594
1353.1599 505.41196
1344.4133 507.11108
1338.0697 509.68024
1332.2302 514.06494
1332.8618 506.72183
1325.4436 505.4773
1325.6432 511.3599
1325.0198 517.6639
1329.6244 521.1013
1335.6265 520.549
1341.6985 514.83984
1342.6066 520.6044
1347.6187 528.1835
1349.3656 520.7304
1348.4552 512.35547
1355.0277 514.8704
1359.7792 509.85422
1361.3002 494.69968
1365.2357 488.4181
1370.7855 498.05197
1362.8634 503.17563
1370.055 510.70312
1380.515 512.8653
1377.7843 522.8627
1375.9191 533.3382
1382.762 540.0985
1369.8901 542.3324
1374.7819 548.3007
1383.5527 550.3237
1393.288 551.0513
1402.51 550.65485
1404.6123 559.33844
1396.2605 562.3489
1389.9191 570.09375
1382.4552 574.2474
1378.2188 566.1519
1386.2288 560.1242
1375.9323 557.30493
1370.0273 566.745
1362.8167 569.6778
1370.7269 573.4834
1368.9506 580.1205
1361.417 579.29645
1356.796 574.6233
1356.4856 565.86053
1349.3762 563.21423
1353.1564 557.2886
1359.6963 559.0268
1367.317 560.088
1365.0327 552.1943
1361.6857 544.48724
1363.503 536.11755
1365.0988 528.19543
1370.7384 522.21704
1363.3301 517.5636
1357.4867 522.6195
1356.7539 530.4169
1350.8333 535.3069
1355.2798 540.88245
1356.5532 549.9201
1348.9923 552.28973
1347.2809 547.0854
1346.2079 541.52496
1343.4443 535.4729
1335.0266 536.384
1339.6305 530.9128
1340.3279 525.59314
1332.8157 528.75726
1325.4182 525.1221
1326.01 531.4449
1326.6294 537.6542
1332.0981 544.2306
1339.4031 542.06683
1338.37 548.1859
1325.5706 544.8997
1325.5168 552.79004
1325.1697 562.8082
1326.4229 570.4722
1326.6562 577.54553
1326.6484 585.4228
1336.9575 588.0597
1333.2383 580.89905
1335.6255 573.18066
1333.251 566.253
1336.4779 559.2615
1329.3745 559.12335
1332.6444 552.68616
1341.0536 553.1662
1345.3098 557.3488
1341.5 562.1481
1342.5836 568.14276
1350.1321 570.8956
1343.6147 575.57587
1340.2101 581.54297
1346.4288 585.07947
1350.9205 578.84595
1355.3218 585.4286
1364.6365 585.6613
1372.9874 587.74384
1376.4357 579.5006
1382.9205 584.68915
1390.211 583.1536
1395.8262 576.64136
1398.9865 584.69525
1407.73 586.5101
1406.8237 578.9362
1401.9061 573.08093
1405.877 567.7784
1414.6602 570.08484
1415.4305 578.03143
1417.5686 585.8186
1424.1434 582.80493
1430.5228 588.22595
1439.1542 585.3586
1448.923 585.928
1453.5226 580.52563
1455.589 573.59503
1457.3622 566.62573
1465.132 566.9874
1464.7769 574.61676
1462.2433 581.05664
1460.0259 587.6352
1471.1482 584.01917
1478.662 577.64844
1471.8185 572.07367
1474.7866 563.90643
1479.5774 568.8771
1486.3876 570.3912
1488.6039 578.4752
1484.1401 585.9505
1496.0778 584.5326
1507.035 582.47076
1515.0599 583.03876
1512.6307 574.2365
1504.6393 570.88696
1498.6462 576.4211
1494.1934 568.586
1498.6914 562.31714
1492.161 558.5334
1486.6478 562.65784
1479.9169 558.8288
1485.1196 554.22974
1479.0107 548.7836
1473.3401 553.6962
1469.9005 559.82855
1464.0331 559.7606
1464.4976 551.1628
1470.8921 545.94635
1476.8987 541.24536
1485.4868 540.98755
1486.8901 547.17004
1494.8795 541.34955
1492.4043 549.9879
1497.6067 553.8358
1500.3463 547.58655
1503.7375 539.31976
1506.4576 545.9411
1513.485 544.16675
1520.5295 544.96277
1525.2943 549.56824
1532.479 547.0477
1539.0945 548.21246
1541.4414 541.9929
1542.811 535.4198
1547.1746 531.17883
1549.0197 525.8113
1539.1791 527.7777
1532.5131 528.78284
1534.9993 537.50055
1527.5621 541.2714
1526.2932 534.00037
1518.8264 536.7599
1512.6697 531.8948
1515.3536 525.9059
1521.0748 527.81573
1526.3756 524.6607
1531.9321 518.9585
1538.6523 517.84296
1544.5978 521.0223
1546.2188 513.46967
1552.6787 519.1079
1560.0326 521.6627
1556.9954 527.59546
1553.9113 533.84265
1549.0138 538.88446
1555.0177 541.2568
1558.137 546.4808
1563.1729 549.6369
1565.4268 544.1257
1561.0657 540.9716
1561.265 534.3805
1568.0756 529.2899
1575.5115 523.115
1581.4045 529.6567
1590.2428 522.1306
1582.3958 516.37787
1576.6152 506.06223
1583.0529 504.9838
1588.5914 510.57315
1594.9915 507.61276
1595.8868 514.72815
1601.2976 519.8479
1604.4111 527.85596
1595.034 529.7867
1589.7085 536.13306
1579.7495 539.8417
1574.2734 535.8507
1567.5123 538.04584
1572.3392 544.0431
1579.4714 547.39703
1586.4554 543.3932
1602.035 537.4194
1604.9421 547.11053
1595.4133 544.9998
1590.1697 552.4367
1597.6321 554.37537
1595.9607 563.2328
1589.6827 560.6415
1584.1127 552.4938
1577.99 554.41644
1574.0957 550.702
1568.7646 548.9879
1570.127 554.63434
1565.0408 555.07855
1560.1646 555.84973
1557.0563 552.12714
1552.0857 549.7743
1548.3293 545.4626
1544.8926 551.8802
1551.5964 555.9884
1547.2206 559.177
1543.4077 563.4142
1545.0125 567.9258
1540.9847 570.4194
1540.611 575.75366
1535.3427 570.758
1536.3794 564.1166
1540.5175 557.87463
1535.3723 554.87054
1528.0077 554.91705
1530.9749 560.1798
1529.3771 566.0051
1524.2622 561.4356
1519.3826 553.93555
1512.4391 558.432
1511.3115 551.6404
1504.3674 555.4255
1505.9854 562.87244
1512.8339 566.1302
1518.8126 562.10614
1519.559 570.7088
1524.6897 570.9657
1530.027 572.5139
1534.594 578.0516
1539.0519 582.9272
1540.0374 588.4821
1548.1847 584.9449
1546.217 578.64655
1554.6124 576.6969
1555.6516 585.2024
1563.3302 583.56964
1571.634 584.6692
1579.9131 586.2775
1587.0486 585.1374
1585.6675 577.77905
1577.8636 578.4465
1579.9318 572.06494
1574.5201 568.64343
1567.561 567.492
1569.7163 575.5805
1561.8636 574.2448
1548.9241 572.5345
1551.2954 565.82874
1557.9886 567.9217
1555.7035 560.4267
1562.0586 562.3845
1567.6631 560.5626
1573.3779 559.49567
1577.28 563.42834
1582.2356 559.255
1584.2971 566.2282
1589.5078 570.6342
1597.8826 569.2509
1601.3887 575.9686
1594.7869 575.64166
1592.8247 580.9752
1593.5127 587.65704
1599.6221 584.9736
1604.6526 581.3822
1608.9696 586.7262
1613.3159 582.3372
1609.8711 576.1732
1612.0605 569.28485
1604.9822 570.78296
1604.8862 564.0305
1604.092 557.3034
1614.0 562.52594
1618.6343 557.34265
1610.3105 555.254
1614.5073 550.08124
1623.5945 552.06305
1624.8518 546.3177
1630.2424 541.24646
1635.9984 538.51056
1642.7515 538.0073
1639.933 531.44965
1643.9257 526.0036
1649.6069 522.5216
1654.8501 519.2095
1650.3324 513.1033
1644.7605 509.7424
1639.56 504.40125
1647.6812 503.60995
1652.971 499.54578
1656.0759 506.16693
1659.8975 498.39352
1665.4508 501.4695
1671.1257 501.3405
1677.2347 498.61002
1682.3047 495.17212
1687.2709 497.89685
1687.9353 490.7285
1693.7489 489.23068
1699.8494 488.42062
1698.7456 493.9933
1704.4895 494.6595
1707.1534 498.4772
1705.2136 503.2643
1706.2765 508.62527
1701.9753 510.6781
1698.8503 514.8833
1694.4119 509.92084
1697.9932 505.28387
1699.3553 499.9631
1693.2863 496.76917
1691.0548 502.9943
1688.4332 507.68967
1682.9863 503.24658
1676.6597 504.61874
1672.3503 507.59045
1667.5594 508.071
1662.2555 508.38422
1657.3313 513.12854
1662.2676 516.69116
1666.8025 513.90173
1671.8743 513.72363
1676.7029 512.7832
1680.0381 509.0554
1684.5938 510.59998
1682.8102 515.5133
1680.0406 519.6104
1674.4646 519.4376
1668.5021 519.5112
1666.6526 525.0719
1660.7244 522.375
1655.7195 527.8351
1663.1844 531.4049
1656.6017 536.6213
1648.8021 532.0376
1648.7402 541.2722
1655.6945 545.9797
1662.1543 543.85486
1667.9789 548.26776
1674.4886 551.9873
1668.671 556.7314
1661.2794 554.6855
1654.6841 554.1215
1648.53 548.1284
1647.0201 553.3283
1640.3018 554.50525
1640.6626 547.2606
1633.6243 546.7655
1632.612 554.09247
1625.9165 559.64703
1627.8049 567.0514
1620.2443 568.1926
1618.7273 576.3742
1620.8633 584.75793
1630.8862 584.4847
1627.8903 576.1424
1638.0237 577.54
1635.6008 569.79724
1634.8136 561.52765
1640.9199 563.6891
1646.8284 565.3338
1643.7285 571.6254
1646.3135 579.54645
1640.7878 585.1526
1649.5438 586.6375
1659.4429 587.34546
1660.0731 582.09827
1667.6147 586.3207
1665.503 580.7733
1670.172 576.1266
1664.92 574.11115
1661.8308 569.28046
1657.2954 573.4628
1659.1766 577.1179
1653.9039 581.96826
1650.901 574.8045
1655.1521 569.8135
1651.282 567.5345
1644.6483 559.0439
1650.0182 558.6703
1654.2871 561.0819
1657.8785 564.388
1662.6067 562.0977
1667.0249 565.47516
1670.2557 569.81165
1673.812 563.2174
1676.9902 557.94336
1681.9036 561.1159
1681.949 567.3475
1676.6807 569.4606
1682.6963 574.2969
1682.9937 579.9925
1677.2485 579.3712
1675.4985 574.2138
1671.9222 581.5877
1675.1829 586.06793
1680.8434 585.66
1687.47 586.59796
1688.0792 581.7856
1690.6389 576.33295
1699.0133 575.2213
1694.3435 582.02985
1694.4512 587.0347
1701.2568 585.6186
1705.6852 581.07605
1711.4412 585.12726
1719.2118 585.4384
1726.6029 584.73584
1732.8025 586.1937
1738.1794 584.4327
1744.0269 586.14197
1749.2825 582.2756
1752.5094 587.0287
1757.7458 583.57916
1754.5991 576.5295
1747.57 575.6752
1741.7203 578.36536
1739.761 570.3797
1730.3993 564.35284
1737.203 561.7758
1743.7351 562.2685
1745.3579 555.3774
1744.116 549.46606
1744.3634 542.3084
1752.6151 544.5019
1753.8379 549.93396
1752.9644 555.6531
1758.0935 561.28986
1750.5635 562.15125
1747.9081 569.2216
1754.9281 568.01416
1759.9521 572.9004
1763.3599 577.9973
1764.3064 585.3547
1772.3138 586.2328
1780.8706 586.75684
1779.8965 580.67523
1775.1361 580.85315
1769.9688 578.6233
1768.7769 571.5445
1762.539 567.81964
1765.7115 562.995
1771.2524 563.4483
1776.9022 561.1408
1783.1062 557.5772
1786.1626 563.4658
1780.5046 565.9956
1775.2205 569.1452
1777.737 574.4503
1784.4971 570.6249
1788.5388 575.8186
1784.2129 579.4231
1788.7092 583.971
1794.956 585.5608
1802.8021 584.3632
1809.9398 584.93335
1814.4172 578.7447
1817.8389 585.7911
1824.0532 583.83514
1829.1501 579.12756
1835.8123 573.2007
1828.1656 572.8728
1821.5854 574.9902
1816.597 570.80646
1813.6488 565.04803
1808.1633 563.0943
1803.3818 560.9922
1801.8 556.4397
1802.1748 551.3744
1804.0981 546.5821
1809.4929 545.49084
1811.7952 550.897
1807.2332 554.7897
1812.33 557.9902
1818.1381 559.8539
1821.5673 566.58276
1829.6766 566.60266
1824.749 561.3764
1824.1638 555.6971
1831.8582 559.7983
1835.53 554.01337
1840.3142 558.94037
1844.5352 553.64386
1840.0723 548.6867
1832.8267 546.2491
1829.0461 551.9113
1821.7698 549.2072
1817.3271 553.09503
1816.4764 544.6899
1819.9701 538.2709
1825.4896 544.58466
1826.8646 538.84625
1832.7688 536.8811
1824.8774 532.3162
1830.9642 529.19476
1834.6139 524.3278
1843.8799 526.3319
1850.0284 523.3744
1854.2327 529.30493
1859.2959 535.3268
1862.1024 542.46063
1855.3066 545.2153
1851.9695 539.02576
1847.6458 533.128
1837.5099 530.2562
1841.0552 535.2483
1837.5331 541.60565
1844.4314 541.765
1847.895 547.1633
1852.104 552.2276
1858.6426 552.26105
1855.5964 559.40894
1849.0007 558.9203
1844.6016 565.1546
1837.5498 565.85876
1843.3665 573.5283
1848.4863 580.04004
1840.7861 580.11554
1835.4558 582.27026
1831.3464 586.26666
1842.5117 586.10803
1849.6008 586.34796
1856.8452 586.73083
1854.2793 582.10266
1856.2917 575.975
1850.3853 573.6313
1851.3618 566.8621
1858.1525 569.5757
1863.377 573.6339
1861.001 580.782
1866.2812 586.23975
1869.814 580.2892
1869.814 570.5351
1869.814 562.63104
1861.0571 564.853
1862.8701 559.076
1868.3513 556.6742
1869.814 552.6903
1863.9012 550.00555
1869.814 545.99945
1869.814 539.6115
1868.9701 534.27356
1869.814 528.21234
1869.814 520.86176
1862.1713 527.5488
1857.208 520.9451
1863.6056 519.92505
1862.6003 513.2317
1869.814 513.28
1864.5022 505.89563
1869.814 505.84106
1869.814 497.5372
1865.0731 497.80215
1865.8949 491.35245
1869.814 486.2718
1869.814 475.22546
1864.3635 478.50595
1862.5073 484.55557
1856.1252 480.11908
1858.006 474.84805
1861.7612 470.57632
1864.766 466.35785
1869.814 464.7859
1869.814 455.6377
1864.8267 449.94775
1869.814 445.68793
1869.814 437.04996
1862.5671 440.33905
1862.8887 431.9301
1870.801 428.41104
1869.814 420.92923
1863.7463 419.00885
1858.8339 422.82828
1855.9382 428.10553
1851.9397 432.2591
1847.6526 437.92667
1848.9386 443.9679
1855.4191 439.54654
1857.9106 447.1911
1859.1477 454.5075
1861.5325 460.4348
1854.8989 463.48328
1854.3668 469.6351
1848.3258 467.90308
1840.7898 468.34998
1833.0941 463.84915
1839.2424 460.0974
1845.7539 462.36816
1851.6692 457.0455
1850.5039 450.06723
1843.8096 454.47244
1842.022 446.2858
1835.5919 449.26804
1834.1079 456.1238
1826.9436 455.64108
1822.8053 461.10635
1819.8342 453.3729
1826.3313 447.15845
1827.446 438.28903
1820.0917 439.7835
1812.0654 440.47037
1813.5708 448.01486
1813.2179 456.14597
1816.1213 461.06497
1823.7249 467.08066
1817.9379 467.01508
1811.0956 464.8473
1807.937 459.57742
1801.6984 460.3899
1806.3711 452.67303
1803.6251 444.72684
1805.2163 436.39948
1809.7445 428.8072
1817.8073 430.19788
1825.8489 426.26608
1825.1871 418.24692
1815.6654 418.9632
1806.9507 419.42334
1799.7463 427.6765
1794.3872 434.86905
1785.8102 434.88522
1776.6604 437.24222
1768.9261 441.94412
1766.2466 449.4034
1772.6797 455.69907
1772.6997 465.36072
1767.624 460.95087
1760.9849 463.76953
1766.062 469.165
1775.2612 471.6883
1778.397 464.64612
1783.4646 461.51306
1781.0769 454.52588
1776.8293 447.33862
1786.4197 445.11484
1795.0181 445.3456
1798.0984 453.27625
1789.4155 455.5256
1794.8977 460.70862
1800.0298 466.8199
1805.7576 465.912
1812.7395 470.11008
1808.5265 472.9538
1803.6765 471.93463
1797.9736 472.52496
1796.8158 477.69962
1795.8676 482.09546
1792.0541 473.30582
1786.5295 473.44952
1794.156 467.04224
1788.6599 465.60876
1783.1367 468.7516
1780.8955 473.84888
1778.9202 478.9249
1783.9236 479.93863
1789.2717 478.75473
1790.8597 484.00742
1785.9497 485.35614
1780.5659 484.97162
1777.1621 488.49426
1773.3706 482.712
1773.497 477.753
1768.8745 475.28137
1762.1564 475.52896
1759.0115 481.66455
1765.6445 483.06378
1771.2592 487.84714
1766.9777 490.91507
1770.0449 496.85034
1777.0735 500.35754
1775.8748 494.1827
1781.4447 493.03882
1786.2416 490.37027
1791.7894 489.65057
1796.3644 487.55017
1801.1315 486.15497
1807.7678 488.39136
1805.7362 483.24173
1802.7693 478.46045
1809.7535 477.77225
1811.4971 482.5391
1814.4186 486.39
1814.1255 491.1917
1814.0376 496.0877
1808.4191 493.7201
1809.7976 498.7155
1813.5463 502.2717
1818.645 499.95465
1824.6444 498.06802
1820.1787 493.90262
1820.7605 488.84137
1825.2563 485.56314
1830.965 484.44485
1827.9974 492.12405
1834.1615 495.19632
1837.1049 490.45288
1837.4604 484.15118
1835.0366 478.63147
1829.5718 475.80927
1823.8833 478.6914
1819.9314 483.01373
1816.4187 479.1848
1816.7744 474.01175
1822.559 472.86853
1829.5002 469.1466
1835.9974 472.1396
1841.5382 478.32208
1846.0745 474.93085
1851.3969 475.64163
1847.8091 483.3756
1843.4517 487.80054
1843.7493 495.99594
1841.8588 503.1343
1843.1865 510.57816
1850.2449 510.10242
1847.7878 504.77783
1851.9629 500.1035
1850.5612 492.40826
1853.4957 485.08185
1857.7466 489.1485
1858.5614 494.97787
1859.4911 500.8883
1857.6155 506.36386
1856.3821 511.87204
1852.6682 516.5918
1846.5859 516.64056
1842.1179 518.6583
1838.299 521.3596
1829.6609 519.5475
1828.6375 510.73108
1833.4116 515.72485
1838.1014 514.0771
1836.9412 508.92804
1833.9153 505.3912
1836.3928 499.9675
1829.0758 501.9958
1823.862 505.59543
1818.1821 506.58936
1813.3389 508.0597
1809.4999 510.84763
1807.0114 515.9797
1807.0594 521.1437
1812.4578 525.98047
1816.2649 520.68463
1814.1804 514.91766
1820.8708 512.4578
1822.9268 518.1438
1825.5642 524.61566
1819.8884 526.5362
1816.654 531.0451
1814.6499 535.2667
1811.8654 539.29144
1805.895 539.3307
1808.1042 532.7445
1806.5176 526.8285
1800.9889 527.5897
1797.4015 523.5775
1793.1653 528.74457
1786.9272 529.98505
1785.2264 536.48065
1785.2004 543.6491
1791.8789 542.69855
1792.9524 535.8325
1800.334 533.7036
1799.673 539.97845
1797.9338 545.157
1794.9192 549.7562
1796.8636 555.0417
1797.0194 560.83966
1798.5885 566.69476
1803.9436 568.4421
1810.3431 572.0059
1804.3572 575.8813
1797.1243 578.46313
1794.5468 572.4683
1791.6846 566.67883
1791.0396 560.1177
1790.7573 555.17163
1787.985 550.44995
1781.0045 549.88947
1775.7048 554.5437
1768.9607 555.1229
1763.1183 557.0008
1760.71 551.8402
1762.2941 543.6391
1768.8749 538.5809
1771.0431 547.25116
1777.5836 542.19995
1776.9456 534.688
1772.6786 528.58875
1780.6913 528.3957
1777.5819 523.5065
1770.7672 520.9677
1769.4308 515.04614
1775.2482 513.69
1777.303 517.8795
1782.549 519.4812
1782.5002 513.446
1784.9363 508.41302
1789.3762 512.0897
1787.8114 517.0058
1787.1711 523.6612
1792.5421 520.57794
1794.5406 514.8034
1800.2136 518.16956
1799.7776 511.59546
1804.6311 510.78934
1803.0687 505.89185
1808.4696 504.97018
1805.7329 501.26797
1804.1642 497.47455
1802.9055 492.13007
1797.0382 492.92554
1799.563 496.844
1800.1428 501.484
1797.3174 505.09076
1794.5604 508.71667
1789.5851 506.15366
1790.0996 501.3826
1794.8883 499.38547
1791.2727 495.023
1786.2036 496.17633
1783.6816 500.31155
1781.2567 504.6258
1778.8403 509.1848
1773.4873 507.9471
1771.1932 503.0669
1765.1985 503.19092
1766.4768 509.26776
1763.0559 514.4918
1761.1611 519.40704
1765.0396 525.02527
1766.1797 531.8952
1758.9248 533.2016
1754.3812 538.58795
1756.6991 525.27246
1749.4259 527.1892
1748.6543 533.9981
1740.629 535.17725
1734.1115 532.16064
1727.7572 538.1655
1726.7485 530.9106
1721.1387 530.8222
1717.2717 534.0955
1720.9323 539.7448
1716.0281 544.2914
1711.8655 539.45215
1711.4861 547.66504
1704.9565 549.77155
1706.1821 543.2874
1700.8402 540.50323
1697.1946 545.9336
1699.081 551.82135
1700.3976 557.90015
1707.8469 560.2677
1710.5286 554.0178
1717.1255 552.0721
1721.1035 547.0461
1728.4464 547.1068
1735.2842 543.25085
1736.6692 552.536
1730.1097 555.78796
1723.599 552.9135
1723.2571 560.9427
1716.1771 559.53925
1713.6886 567.2065
1722.1482 568.8748
1731.2451 571.4815
1733.9509 578.32587
1726.0468 577.1815
1719.803 577.1493
1714.1764 576.1433
1707.9319 574.7066
1705.5201 568.87134
1701.0055 564.7561
1695.2887 566.8725
1689.775 570.38995
1687.6632 563.97406
1692.8135 559.34485
1686.2996 556.11786
1681.4001 552.1572
1684.4307 547.0792
1691.6976 551.7713
1690.47 544.3383
1682.9369 541.0522
1680.7249 530.9936
1676.9368 537.09766
1676.0869 544.83093
1668.537 539.4858
1671.0784 531.7667
1672.3932 525.88434
1677.8923 525.6866
1684.4011 524.65295
1687.8545 520.2586
1689.2551 513.9381
1693.25 517.6797
1698.0479 521.2386
1693.015 525.6772
1688.4829 529.68005
1687.797 536.27795
1695.0652 536.67896
1699.0071 529.3726
1704.5538 534.4826
1711.4508 532.8962
1715.885 525.5862
1708.7003 526.6366
1703.8135 523.41736
1705.8201 517.09705
1711.7509 513.6308
1713.0765 519.7039
1719.886 518.8598
1722.9797 524.14197
1729.3866 524.91724
1730.2191 519.35986
1725.6351 516.6388
1721.8784 512.2231
1717.4141 509.68198
1711.9064 506.85715
1712.7743 500.64157
1719.1892 503.0328
1717.3159 495.58133
1711.307 493.03482
1705.628 489.63358
1704.2278 484.46674
1708.3091 481.87482
1711.419 486.14673
1716.5557 488.50635
1721.6097 486.49
1723.8152 497.6569
1723.7491 491.7957
1726.9257 485.07916
1733.1654 488.85886
1729.7941 494.91864
1732.26 502.35593
1725.5332 503.02853
1727.0734 508.09396
1730.4578 512.80493
1735.4288 509.20853
1738.7189 505.32867
1742.5992 515.9057
1736.4619 515.452
1736.074 522.32416
1741.8529 525.48566
1748.7924 519.72296
1754.8286 516.4105
1749.01 512.1376
1744.7697 507.13074
1742.8279 500.49222
1736.1368 497.01297
1739.9713 491.79755
1745.5068 495.31372
1749.1687 491.60187
1754.4705 492.38553
1751.8107 499.30923
1752.3143 506.19998
1758.2844 510.20966
1758.3961 503.34262
1761.0989 498.417
1762.06 494.09152
1759.6294 488.84833
1752.8479 484.7716
1744.6196 486.25732
1746.9802 479.61365
1741.0208 477.5792
1738.1965 484.0649
1732.3326 481.21942
1729.9552 476.00613
1732.74 470.6554
1736.9213 473.9666
1742.3268 469.6675
1748.4735 471.72128
1753.603 476.74332
1756.8013 470.27573
1754.0298 463.8722
1747.4023 464.39587
1742.7572 460.04105
1743.8516 454.24274
1744.1155 448.81287
1751.4609 449.9333
1752.2543 457.1044
1760.7097 456.01865
1758.2946 447.31403
1757.7173 438.03467
1765.1075 434.4304
1769.9265 426.15894
1757.7393 426.57816
1748.319 430.6732
1750.5342 440.4232
1744.18 443.37164
1740.3 438.08258
1736.4056 431.73407
1730.4705 439.33878
1723.2123 436.0066
1722.6012 442.9771
1728.6726 449.19513
1736.0697 446.47168
1735.4181 454.53882
1735.4371 461.45215
1737.8787 466.03934
1729.782 460.45724
1729.0172 466.84637
1724.5493 471.20642
1723.719 478.58484
1717.9941 481.17224
1712.3401 479.0397
1714.6418 474.62274
1719.4009 473.00455
1718.1692 466.90125
1722.5756 462.62564
1724.9163 456.0608
1720.8231 449.97653
1715.2922 454.6167
1714.0948 461.32022
1712.1848 468.716
1706.2203 476.87927
1707.9781 472.26147
1706.1821 464.94986
1707.1033 457.67307
1700.3706 456.6762
1698.2751 462.77133
1697.19 468.8425
1702.6776 470.1372
1699.7897 474.59286
1701.6177 479.52594
1697.886 483.54825
1692.3331 482.4669
1695.2545 478.12952
1693.241 473.3608
1690.4207 467.41208
1690.8921 460.59213
1686.3677 455.65863
1680.6565 458.67288
1683.3176 465.08707
1675.1515 464.77124
1675.1562 473.55124
1681.5239 471.749
1687.6415 474.4199
1687.4159 482.3792
1681.615 478.78485
1677.4479 483.88882
1682.7942 487.02582
1677.1095 491.10007
1671.5532 494.6202
1665.1078 493.97757
1666.9584 487.96436
1671.4491 485.8861
1672.2449 479.66614
1663.6301 479.8006
1667.4343 474.42996
1667.9272 467.96768
1660.0059 465.8215
1657.4331 472.97763
1650.2822 468.686
1649.1327 477.05157
1648.0269 485.37482
1655.46 480.94202
1659.5426 486.6471
1655.0552 491.7679
1647.6053 494.02243
1640.6362 497.00436
1639.8069 488.80557
1630.0386 487.99112
1623.9515 489.94595
1618.019 488.80246
1621.0155 482.98654
1626.2195 479.67303
1626.2809 471.70102
1619.1388 475.62732
1616.268 468.22745
1623.4597 464.40536
1630.6326 465.00427
1637.4343 463.4123
1633.9938 457.19034
1631.3035 449.3911
1630.9807 441.4095
1632.8013 435.4352
1624.8556 435.6254
1622.8872 445.28265
1615.562 451.20166
1625.19 455.39966
1617.467 459.69638
1609.5604 460.4828
1599.5043 456.84506
1606.3915 453.48154
1608.3575 444.68237
1615.4003 440.8064
1616.8787 433.38165
1617.2369 425.92984
1609.4049 426.3868
1607.4973 434.29507
1600.3618 438.6999
1599.8242 447.53476
1590.7251 447.263
1591.8518 440.94073
1583.1713 440.12088
1590.2382 433.58096
1585.5457 426.3062
1580.3992 431.39124
1575.0248 435.96796
1567.9463 436.91183
1561.4865 439.5325
1555.2917 436.3109
1555.5247 428.97775
1563.389 430.04544
1559.6605 421.61703
1568.6593 420.25577
1572.1671 427.84573
1579.8943 421.10892
1577.206 413.23227
1586.0823 411.8865
1592.0249 416.55624
1592.4557 424.27335
1599.3152 429.49402
1602.0636 420.70163
1600.1416 411.7027
1609.5885 409.69876
1611.4934 418.08185
1619.9769 414.00464
1621.8798 420.37796
1624.6975 427.31427
1630.6483 427.6489
1634.5282 430.6843
1639.0714 430.30096
1644.4258 427.91907
1650.4075 425.36667
1654.7723 431.124
1657.485 425.4674
1663.5645 425.43378
1668.8441 420.86603
1666.1145 414.10974
1669.7917 407.28052
1675.9648 411.48413
1677.3618 419.514
1674.4999 425.91577
1681.8077 427.2228
1678.1819 433.33792
1671.9303 432.0353
1668.3862 428.3622
1664.0691 432.6641
1659.628 435.9841
1659.4946 442.96735
1653.443 438.63208
1648.4738 434.38037
1642.48 434.6248
1639.4788 438.94107
1638.0977 444.53305
1640.8828 451.2928
1648.747 452.31262
1646.1089 443.1677
1652.4858 445.42828
1656.9343 450.80142
1664.0817 447.48245
1666.3844 440.13666
1672.1764 437.2251
1673.8632 442.91522
1679.6824 440.61276
1685.0991 435.41772
1686.6829 443.2689
1694.9188 443.75952
1700.6913 438.74237
1707.8276 440.14453
1704.9761 430.78635
1711.633 429.25635
1717.0375 421.2066
1722.6136 414.1443
1707.6658 419.31735
1698.8267 419.38785
1697.8396 428.51593
1692.6978 435.7573
1689.6672 427.94504
1688.1537 420.48077
1684.1592 413.25922
1682.5242 403.72818
1691.9324 400.02914
1699.6622 392.9531
1693.2886 411.36417
1702.1083 405.33932
1711.5261 409.44016
1719.6599 403.44073
1729.6735 404.34158
1733.282 414.85355
1739.3331 407.5673
1747.8282 407.39313
1756.554 405.2196
1764.3606 403.27325
1772.97 400.13333
1780.9219 401.5131
1786.6271 409.18317
1796.0854 410.28317
1796.6423 419.00485
1788.0775 421.78436
1780.0078 427.3927
1778.2634 416.63208
1771.0889 411.34796
1763.1418 416.56155
1754.554 415.85434
1747.0205 417.8546
1742.0208 422.6275
1735.0736 423.94962
1728.1914 424.17325
1724.3865 428.6912
1718.0127 430.7488
1714.8972 438.18567
1714.4496 445.75827
1708.31 449.32355
1701.5996 448.45496
1694.7957 453.04602
1688.9512 449.53436
1680.1848 449.26715
1674.815 455.6244
1671.6968 447.83322
1667.906 452.92093
1668.2622 460.2023
1662.0474 456.49332
1655.5336 458.6619
1649.4015 461.46674
1643.1338 458.18866
1642.7231 466.3412
1642.9991 472.87894
1635.7162 471.58582
1632.2034 478.04614
1635.378 483.66223
1640.2688 478.95496
" />
</g></g></svg>
