<?xml version="1.0" encoding="UTF-8" standalone="no"?>
<!-- Created for Inkscape (http://www.inkscape.org/) -->

<svg
   xmlns:dc="http://purl.org/dc/elements/1.1/"
   xmlns:cc="http://creativecommons.org/ns#"
   xmlns:rdf="http://www.w3.org/1999/02/22-rdf-syntax-ns#"
   xmlns:svg="http://www.w3.org/2000/svg"
   xmlns="http://www.w3.org/2000/svg"
   xmlns:sodipodi="http://sodipodi.sourceforge.net/DTD/sodipodi-0.dtd"
   xmlns:inkscape="http://www.inkscape.org/namespaces/inkscape"
   width="3200"
   height="800"
   id="svg2985"
   version="1.1"
   inkscape:version="0.48.1 r9760">
  <defs
     id="defs2987" />
  <sodipodi:namedview
     id="base"
     pagecolor="#ffffff"
     bordercolor="#666666"
     borderopacity="1.0"
     inkscape:pageopacity="0.0"
     inkscape:pageshadow="2"
     inkscape:zoom="0.35"
     inkscape:cx="1600"
     inkscape:cy="400"
     inkscape:document-units="px"
     inkscape:current-layer="layer1"
     showgrid="false"  />
  <metadata
     id="metadata2990">
    <rdf:RDF>
      <cc:Work
         rdf:about="">
        <dc:format>image/svg+xml</dc:format>
        <dc:type
           rdf:resource="http://purl.org/dc/dcmitype/StillImage" />
        <dc:title />
      </cc:Work>
    </rdf:RDF>
  </metadata>
  <g
     inkscape:label="Layer 1"
     inkscape:groupmode="layer"
     id="layer1"> 
     <g>
<path style="fill:none;stroke:black;stroke-width:2px;stroke-linejoin:round;stroke-linecap:round;" d="M 
1607.9141 318.73984
1643.8574 357.11526
1603.7717 356.90216
1590.2241 287.83865
1624.5369 264.83554
1634.2104 218.15369
1631.668 163.44708
1614.1484 113.99817
1564.2032 136.63382
1511.033 133.03966
1480.4705 167.80992
1486.7037 208.36417
1482.7548 247.01659
1466.0024 270.6178
1516.1285 233.9713
1548.4346 241.91614
1537.0043 191.01347
1588.4866 194.27171
1585.4004 243.08926
1552.8405 286.4062
1513.8452 274.23886
1512.4235 303.62558
1536.8203 333.01837
1569.2058 329.85474
1545.3422 371.3071
1505.0757 358.36282
1509.8228 392.70117
1432.4683 393.84784
1466.0996 372.52274
1497.875 331.19962
1471.3878 317.37146
1439.6548 286.57523
1408.7388 308.98605
1440.5005 328.92996
1426.9796 359.6285
1404.0234 347.21518
1369.3339 333.51373
1361.2837 281.1384
1320.5792 284.44797
1330.3433 320.74307
1343.7772 359.1439
1357.9312 377.8014
1386.7715 368.8116
1371.2236 399.58322
1362.9724 429.26074
1391.3389 422.32193
1405.4395 399.28302
1419.8154 433.54694
1453.2006 425.6123
1487.0862 420.93585
1500.3071 459.4458
1537.0613 490.01318
1570.4064 505.669
1572.4106 542.73035
1611.4329 543.9362
1644.6475 561.4613
1658.155 518.5036
1608.0427 494.77222
1638.6755 465.05093
1613.949 442.7596
1574.5164 449.06055
1538.7919 427.0379
1571.4666 391.6409
1604.9117 403.33374
1645.0645 400.22498
1666.9065 425.3958
1691.0977 451.7815
1667.9099 476.33322
1695.032 495.47272
1724.5198 479.50446
1755.6638 495.3381
1789.0581 508.75577
1825.1487 510.82022
1861.1648 518.1491
1857.5767 481.10287
1826.6055 470.63043
1792.8716 466.1511
1760.6184 451.15494
1725.0581 441.21588
1704.4905 406.64413
1683.2222 365.66953
1728.7218 375.4441
1725.1372 341.26218
1765.8231 336.58603
1785.7185 302.9887
1779.1917 268.75827
1810.8068 262.5425
1828.2759 290.9845
1846.4918 320.25946
1805.0693 338.18918
1840.4133 349.4205
1849.333 375.1615
1857.4308 399.5015
1813.3937 385.23544
1775.0542 374.33148
1750.2299 409.05344
1787.4026 418.30508
1823.0857 429.02017
1860.4258 423.11505
1890.6987 422.65616
1860.9922 447.39062
1887.753 469.68564
1917.5729 437.79108
1941.74 463.1683
1966.462 444.83145
1944.9635 413.74863
1959.5669 381.87982
1985.9131 407.11508
1998.7936 441.11627
2023.3691 458.55087
2021.7715 498.33185
1983.0105 483.21738
1964.7512 518.41473
1998.9856 524.02026
2030.9075 536.1667
2057.6816 552.59686
2088.3691 542.9685
2118.0566 561.4567
2086.1587 579.5158
2056.631 588.8642
2060.99 616.4643
2072.9917 643.74414
2094.648 671.73773
2121.6848 649.07666
2150.34 631.29486
2190.2104 632.66547
2179.4888 682.3298
2138.938 675.4268
2121.6555 706.36584
2155.2397 720.62115
2190.388 747.1408
2151.9229 771.60284
2121.516 745.725
2090.0664 707.7682
2062.4448 680.74225
2044.4355 657.74176
2035.5153 635.534
2028.9297 611.2837
2029.6505 580.25836
2004.8583 567.9816
1995.2397 615.24084
2007.106 643.77997
2020.3135 682.37585
2014.6532 721.6466
1985.2218 701.4694
1951.5911 711.26355
1973.814 738.24506
1999.0276 749.90155
2037.3236 744.2071
2051.4985 711.3577
2077.8828 740.039
2099.7827 774.07086
2056.58 773.10406
2016.6105 774.0187
1977.4132 773.23517
1932.7034 773.43427
1944.5381 744.9791
1916.6284 733.15125
1910.9839 700.33905
1939.6536 682.0628
1936.4895 650.6768
1961.478 663.3928
1988.3721 669.29584
1974.0908 636.27234
1950.332 620.8414
1970.0977 581.80457
1980.0554 548.99756
1948.0574 550.1271
1923.0459 533.7253
1940.4465 498.558
1911.6721 483.59082
1895.0651 519.1359
1883.4031 560.0097
1925.2853 578.91235
1888.5089 610.5823
1920.9077 622.3208
1905.3102 641.9626
1905.2188 669.11816
1880.7708 644.1962
1859.5132 627.925
1830.586 628.1835
1868.8907 665.29315
1871.769 690.88196
1877.4604 726.46533
1894.6921 763.90765
1855.4523 761.08295
1818.6846 763.77094
1803.8545 722.40063
1764.0363 684.3644
1803.2012 684.2251
1838.4839 707.5937
1838.9861 666.48676
1805.0037 651.2995
1800.8533 614.88947
1845.7574 595.32794
1817.4807 558.88947
1760.103 553.191
1721.2971 522.31415
1700.1675 568.85516
1668.667 592.9255
1697.3429 623.696
1732.2063 606.19403
1770.1443 602.25006
1765.1531 643.3398
1724.752 659.7433
1721.5342 702.57404
1736.2379 737.9672
1766.4102 719.26666
1779.2275 767.1226
1738.8762 773.8583
1696.7903 772.612
1655.9987 756.301
1690.8616 729.3681
1674.3608 681.177
1639.8315 644.49963
1619.1069 603.4379
1582.1323 592.28955
1532.2113 575.33844
1495.4182 580.5405
1507.4946 542.64166
1488.3969 510.81833
1455.3687 479.53696
1448.5103 527.75903
1410.0283 519.9208
1424.298 553.8855
1401.8861 573.3506
1430.4326 596.36505
1463.2261 562.03973
1458.9255 606.223
1486.3147 626.342
1526.9692 620.1544
1576.4502 652.9036
1608.7715 702.4372
1611.5049 766.28015
1543.783 764.5646
1533.5535 706.58905
1459.4718 751.28754
1478.3938 694.15155
1434.4089 650.8937
1406.907 625.8908
1374.1069 629.29877
1397.6489 601.4007
1373.5867 592.92
1347.4142 590.055
1350.1046 619.14935
1335.6775 649.87787
1316.2124 676.89
1315.8678 719.4897
1354.0457 702.6598
1401.1709 705.399
1393.6743 754.6823
1337.4623 764.42017
1268.1829 775.22205
1226.861 768.63
1260.4845 733.3798
1272.4445 691.609
1284.7676 658.062
1243.8193 652.48773
1266.647 625.8965
1302.2374 633.25604
1324.2463 616.76514
1292.7527 600.77423
1320.139 588.6373
1307.7817 564.81
1274.4845 573.4858
1257.893 593.3809
1226.9446 611.72046
1218.5662 573.9358
1176.5436 529.65375
1144.505 599.8278
1098.1935 672.7908
1196.6417 671.169
1198.3662 729.538
1188.6727 774.1736
1150.1062 765.36273
1098.4196 768.7916
1022.43054 719.6608
1037.3818 579.62805
1071.374 480.8702
1029.1517 384.87836
1152.197 390.1885
1195.8153 464.03775
1253.5685 430.40268
1294.3495 424.33618
1304.8225 453.74484
1294.1296 491.50854
1266.3782 468.17325
1237.084 501.25998
1267.1998 517.33734
1242.0798 546.3377
1281.1477 548.56635
1298.8749 525.01495
1323.9182 539.33295
1353.5968 531.21436
1340.7266 561.6011
1368.5579 565.1285
1385.2878 542.8867
1376.2795 507.9839
1404.4602 487.29507
1387.1622 452.97568
1367.7587 472.44766
1350.0707 494.9252
1326.0453 509.79922
1324.8315 478.39923
1341.6941 454.1529
1332.2095 426.77905
1331.9849 397.92667
1299.5969 385.26965
1312.3376 358.6079
1289.1614 334.90887
1263.1003 351.80695
1239.4729 319.85828
1269.3783 303.46246
1243.7095 274.3013
1213.1417 292.5688
1211.415 249.55577
1217.93 209.76485
1253.1715 232.08606
1270.8218 262.0238
1299.2784 244.36906
1289.9879 212.55272
1323.62 193.12196
1334.5593 225.44212
1373.6299 224.86186
1402.8492 239.62584
1439.2833 213.81519
1402.6178 193.64516
1424.0752 167.74666
1381.5681 141.05739
1366.5776 186.83794
1337.8275 155.79704
1293.7985 163.48251
1255.9128 143.69382
1255.5986 188.86595
1213.9047 164.82283
1154.7634 200.69455
1140.8428 275.7103
1076.1877 314.4294
1041.7518 208.31535
1033.3986 76.16418
1126.325 80.648445
1223.5096 50.90152
1309.49 82.74148
1386.3337 45.52261
1451.1207 112.87362
1511.3499 56.90445
1600.7146 58.65098
1682.5547 53.391537
1729.1985 91.52686
1746.4299 47.956512
1790.6628 32.734318
1845.568 33.90769
1900.7994 41.28211
1949.193 78.99819
1952.3992 30.823166
1990.2112 44.789154
2038.1046 29.64162
2091.3804 24.886883
2128.8584 30.750046
2186.793 54.632442
2183.5884 128.18753
2164.2815 171.63008
2191.5664 226.71475
2144.897 235.65666
2135.2861 206.27759
2104.6025 200.60275
2081.3164 217.88036
2053.5098 215.52217
2047.2828 248.61966
2052.067 281.05786
2093.2297 308.18332
2080.7207 340.69556
2124.3013 331.72928
2138.4944 306.89957
2118.3608 282.35257
2085.3735 275.0271
2088.8735 246.81541
2112.9873 226.1215
2124.0493 253.87732
2151.2905 271.6226
2174.328 299.65512
2193.774 345.11465
2152.8545 339.75314
2146.0078 370.81778
2111.6028 354.63318
2111.2437 384.7102
2082.275 380.28943
2053.2305 387.0294
2043.847 352.7581
2049.8457 314.86215
2012.4271 289.32703
2006.1918 256.08954
1993.5911 227.76013
2023.3392 217.44109
1997.985 192.9193
2033.1207 182.87712
2062.4382 160.65007
2068.3506 187.99846
2094.6772 175.93187
2123.2456 180.75554
2122.665 153.48337
2088.6091 147.47299
2065.7432 128.59282
2066.9126 104.5765
2115.7607 128.60866
2115.2334 104.371315
2123.3162 71.94531
2087.0413 82.41198
2084.6265 52.594948
2049.0537 76.912384
2020.0756 68.04818
1991.9205 93.85669
2024.6976 117.08339
2037.219 147.88554
2006.6533 156.36775
1981.0284 128.55127
1943.0273 123.785645
1912.8167 97.996056
1875.7073 93.81147
1834.8215 78.84514
1792.9714 87.448906
1773.0659 120.61104
1772.3337 154.50272
1753.6451 184.1882
1738.384 150.75157
1711.8113 131.36436
1666.9149 115.350464
1686.1941 164.65167
1674.6031 201.14761
1716.0769 193.70241
1742.8517 213.89844
1711.8369 236.12244
1673.7427 241.41174
1667.6685 278.4963
1646.2808 312.99612
1690.1941 319.42734
1709.0326 275.1982
1734.5112 305.89893
1748.9282 276.35086
1750.9614 242.21898
1779.6091 207.5909
1788.843 235.44762
1827.0171 222.85583
1816.0509 194.78882
1793.6868 174.40788
1816.1852 146.82738
1843.481 125.09402
1895.3801 139.2261
1867.5079 159.23662
1847.5054 185.51503
1882.947 199.17178
1863.335 222.20213
1841.7019 249.44579
1866.2197 262.06366
1869.4238 294.7555
1899.0979 266.25192
1930.9875 261.95944
1942.2366 226.18387
1893.9156 237.78409
1915.6682 217.01709
1941.7065 189.88596
1905.9851 181.45729
1924.8014 156.58246
1954.4534 156.66606
1976.4832 171.38576
1968.6826 209.82567
1965.193 249.6252
1968.9331 283.8082
1962.3508 316.80988
1928.4043 313.25793
1905.3527 293.2685
1889.3027 328.73962
1881.4078 362.7325
1907.6841 393.20715
1925.187 358.30405
1968.8843 348.6865
2006.7001 326.00565
2006.1493 368.51624
2021.4136 405.3863
2050.5596 420.44516
2065.6968 443.8983
2056.961 475.698
2063.0737 508.3287
2101.673 512.5832
2116.6077 480.4277
2096.8408 456.597
2094.4028 417.9335
2134.6055 436.40552
2136.2957 402.8409
2174.9185 412.3112
2188.9253 466.95175
2151.2065 466.21655
2144.4253 509.002
2186.0957 528.2768
2150.9102 549.3404
2182.9585 585.72864
2145.437 588.71936
2118.1008 601.366
2087.761 608.20776
2103.9858 631.1111
" />
</g></g></svg>
