<?xml version="1.0" encoding="UTF-8" standalone="no"?>
<!-- Created for Inkscape (http://www.inkscape.org/) -->

<svg
   xmlns:dc="http://purl.org/dc/elements/1.1/"
   xmlns:cc="http://creativecommons.org/ns#"
   xmlns:rdf="http://www.w3.org/1999/02/22-rdf-syntax-ns#"
   xmlns:svg="http://www.w3.org/2000/svg"
   xmlns="http://www.w3.org/2000/svg"
   xmlns:sodipodi="http://sodipodi.sourceforge.net/DTD/sodipodi-0.dtd"
   xmlns:inkscape="http://www.inkscape.org/namespaces/inkscape"
   width="3200"
   height="800"
   id="svg2985"
   version="1.1"
   inkscape:version="0.48.1 r9760">
  <defs
     id="defs2987" />
  <sodipodi:namedview
     id="base"
     pagecolor="#ffffff"
     bordercolor="#666666"
     borderopacity="1.0"
     inkscape:pageopacity="0.0"
     inkscape:pageshadow="2"
     inkscape:zoom="0.35"
     inkscape:cx="1600"
     inkscape:cy="400"
     inkscape:document-units="px"
     inkscape:current-layer="layer1"
     showgrid="false"  />
  <metadata
     id="metadata2990">
    <rdf:RDF>
      <cc:Work
         rdf:about="">
        <dc:format>image/svg+xml</dc:format>
        <dc:type
           rdf:resource="http://purl.org/dc/dcmitype/StillImage" />
        <dc:title />
      </cc:Work>
    </rdf:RDF>
  </metadata>
  <g
     inkscape:label="Layer 1"
     inkscape:groupmode="layer"
     id="layer1"> 
     <g>
<path style="fill:none;stroke:black;stroke-width:2px;stroke-linejoin:round;stroke-linecap:round;" d="M 
1608.5668 510.8882
1606.5028 511.8599
1606.6094 509.64542
1608.2451 508.66663
1610.0493 507.96255
1612.0363 507.34238
1613.1135 505.2761
1611.5823 504.41177
1609.2642 505.49954
1606.9478 506.89783
1606.0522 504.76376
1607.5151 503.41656
1608.7676 502.22293
1610.6211 502.75867
1612.4724 501.5975
1610.4067 500.35504
1608.2448 500.37338
1608.529 498.24292
1606.7603 496.1957
1608.9824 496.217
1610.946 497.11044
1611.5648 498.9217
1613.7161 499.3421
1614.5681 501.47522
1614.5864 503.1558
1615.2241 504.8054
1616.7941 505.7595
1618.6748 505.58823
1620.4014 505.70157
1621.5696 504.68564
1622.5428 503.35208
1623.7649 504.70343
1623.6106 506.37167
1621.9248 507.0181
1619.9772 507.77057
1617.8098 507.74045
1616.9749 509.87286
1615.6261 510.81793
1614.0056 511.26678
1615.8911 508.16766
1614.4468 506.8854
1614.1013 509.1169
1612.2505 509.74045
1610.5015 510.47797
1609.6346 512.64954
1611.0602 512.9146
1612.449 511.93008
1612.4324 513.8692
1609.3315 514.28235
1607.9152 512.9529
1606.3309 514.0572
1607.7496 514.9115
1606.9045 516.7287
1605.7078 515.8287
1604.0167 516.6006
1602.8835 518.3088
1604.4706 518.2888
1605.7411 517.9244
1607.0217 518.22943
1607.9276 518.92993
1609.4199 519.9911
1609.1403 518.6135
1608.5382 517.46967
1608.4106 516.1335
1609.9326 516.8359
1611.094 517.6134
1610.1681 515.1936
1611.4198 515.597
1612.5906 517.0511
1612.9447 515.473
1614.2085 514.6722
1614.4159 513.0229
1616.2888 512.5571
1615.9923 514.28796
1615.5779 515.8937
1617.3838 515.41797
1618.1069 517.05725
1619.936 516.828
1619.2302 514.8903
1618.0364 513.38245
1619.6796 511.855
1618.0344 511.46255
1618.7966 509.5303
1620.5323 510.00613
1621.8546 509.02603
1623.444 508.57855
1625.0706 508.51587
1625.6809 507.0758
1625.7302 505.28525
1626.5894 503.50726
1628.2051 504.20407
1628.9259 501.83676
1626.8494 500.65604
1625.5511 501.8165
1624.4578 503.12387
1622.7788 501.51663
1623.9546 500.20624
1622.937 498.24908
1620.6155 500.57
1620.8899 502.4565
1619.2678 503.2035
1617.1736 503.0848
1617.7793 500.7784
1615.883 499.996
1613.5005 497.2163
1615.8264 497.56262
1618.2234 497.66672
1618.9764 499.21582
1620.8785 498.34387
1623.229 485.46536
1621.7981 483.64426
1619.8435 483.8707
1618.6566 482.33417
1616.4429 483.14435
1615.0304 481.9097
1613.0471 481.59033
1611.7196 480.02396
1613.0532 478.57004
1614.9968 477.57434
1614.1411 479.95007
1615.8019 479.5737
1617.3848 480.82428
1619.6003 479.86237
1621.086 481.42947
1621.7784 479.28848
1621.0005 477.45023
1618.9786 477.88934
1617.5872 479.00824
1616.9248 477.67883
1617.0383 476.43182
1619.0563 476.17365
1620.3342 475.2405
1622.0923 475.17917
1623.6813 476.31882
1623.2563 478.0889
1625.0283 478.20355
1626.6265 478.80203
1627.0217 480.5498
1625.6936 483.15604
1625.6143 481.7227
1625.2482 480.23987
1623.4481 480.29663
1623.4423 482.1276
1623.8862 483.84543
1625.3638 484.67856
1627.2527 484.67664
1627.2888 482.37067
1628.7446 481.42087
1629.1794 482.84048
1627.802 483.71497
1629.1938 484.56607
1630.8965 483.19852
1630.8984 484.9799
1632.3884 485.50208
1633.9806 485.49396
1634.8442 484.2997
1634.9696 482.7763
1634.2433 481.48547
1634.6028 479.93414
1635.3286 478.5312
1636.9094 477.9132
1636.9929 479.61087
1636.2711 481.23413
1639.097 479.8593
1641.8623 481.16714
1641.1753 479.15253
1640.1578 476.8664
1638.5371 477.527
1637.1577 476.14697
1637.7334 474.6708
1639.1749 474.34534
1639.3069 472.049
1637.3365 471.94107
1636.2198 473.59155
1635.5402 475.3073
1635.6018 476.85547
1634.2833 477.18756
1632.7866 476.83078
1633.3365 478.57135
1632.0887 479.43338
1632.5967 481.22168
1632.844 483.3466
1630.8071 481.63177
1630.458 480.16638
1628.4625 479.87506
1626.2852 476.4454
1628.0957 477.74008
1629.696 478.68448
1631.0582 477.46454
1629.3177 475.9056
1630.649 473.84323
1631.9596 475.1871
1633.8435 475.2666
1634.3007 473.67755
1634.9828 471.67767
1632.8652 472.4589
1630.7543 471.49893
1630.1746 469.55832
1628.2192 468.56705
1627.366 470.4965
1628.5288 472.59808
1627.2869 474.50784
1625.7362 472.50055
1624.6521 474.48206
1622.9329 472.9256
1620.6572 473.15024
1618.7198 473.60483
1617.682 475.12915
1615.4253 475.61926
1613.0813 476.3766
1613.9023 474.2003
1614.312 471.92743
1616.2268 473.86026
1617.013 472.37994
1619.8702 471.16037
1621.7766 471.03857
1619.3717 468.965
1621.1958 468.41382
1622.2773 466.18973
1622.9424 468.07526
1622.9312 469.76984
1624.5667 470.91187
1625.1567 469.04352
1624.1736 466.92624
1625.5426 466.0089
1626.3564 467.74692
1627.9774 466.6255
1627.4163 465.16418
1629.3501 465.17548
1629.4559 461.88248
1627.7168 460.93314
1625.7516 460.7725
1627.073 458.47565
1629.208 459.40256
1629.1809 457.2022
1631.2983 458.36957
1633.2324 454.28418
1635.6887 453.94455
1635.5592 456.48096
1637.9701 454.74564
1640.573 454.7486
1641.5365 456.76047
1640.0499 458.82944
1638.1782 457.74692
1638.3566 460.98077
1636.7319 460.25986
1635.0612 461.8138
1636.6606 462.56348
1635.9584 464.37045
1634.7128 463.68292
1633.3275 463.3749
1633.402 461.73386
1632.7827 460.44452
1631.0424 460.93796
1631.6624 462.62457
1630.7578 463.98694
1630.9526 466.10147
1630.0009 467.41977
1632.9573 469.9695
1632.4379 467.83047
1633.8607 466.25287
1635.4757 466.51035
1635.0396 468.2104
1635.7498 469.979
1637.7708 469.21313
1639.6116 468.33664
1640.3789 470.51447
1642.1912 470.13956
1643.1173 468.627
1644.6316 469.3219
1645.8741 470.78436
1648.039 471.16504
1648.4001 469.1953
1646.4816 468.64514
1645.6539 467.05963
1643.7988 467.01816
1641.6045 467.71426
1641.8679 465.6727
1640.4032 464.6057
1639.0994 465.9432
1637.2759 465.69852
1637.8765 464.03143
1639.0752 463.0088
1640.451 462.12552
1641.583 461.0403
1642.3014 459.16788
1644.6572 458.3587
1644.4269 460.05838
1643.4937 461.05026
1643.7382 462.49338
1642.3986 463.40738
1643.5613 464.80176
1644.8464 465.43164
1646.0863 464.43546
1645.3949 463.38028
1645.639 462.0551
1646.0575 460.85413
1647.9055 461.0525
1647.8582 462.44638
1647.5516 463.76648
1649.3243 463.25443
1650.1324 461.71457
1652.3363 461.93
1653.9122 463.3096
1655.5951 464.5601
1657.4552 464.01062
1656.9387 466.4809
1655.2903 467.27722
1655.4579 469.0544
1654.2295 470.60022
1653.1805 468.78482
1652.5447 467.2003
1654.06 465.96313
1652.5615 464.92593
1651.4436 463.50687
1650.0393 464.3342
1650.4766 465.51923
1648.9045 465.49664
1647.734 465.16626
1646.5166 465.7361
1647.5983 467.08286
1649.2594 467.3259
1651.0913 466.63287
1650.7336 468.64835
1650.2308 470.65616
1652.1757 470.648
1654.0405 472.45392
1653.5178 474.61533
1654.1586 476.4701
1651.9573 476.65067
1650.2112 478.1116
1653.1929 478.6598
1655.5273 479.21103
1655.0267 480.62186
1653.159 480.99045
1652.5558 482.47253
1653.3228 484.0359
1654.771 485.2195
1655.7937 486.13602
1653.7926 486.5026
1652.1919 485.9307
1651.372 483.84552
1650.6349 481.91394
1651.236 479.9953
1648.4073 480.2794
1648.9575 482.01456
1648.8701 484.00848
1650.4441 485.2152
1650.175 486.9513
1648.461 486.17603
1648.5635 488.44092
1648.9502 490.42667
1647.5447 491.50967
1646.284 489.63968
1646.3918 487.57858
1644.3245 490.8504
1644.6455 492.67035
1646.1411 491.9361
1646.605 493.7921
1649.2032 492.59436
1649.4814 494.2272
1650.7573 495.3491
1652.6191 495.43576
1651.9103 493.368
1652.9674 491.76923
1651.0657 490.76556
1652.097 488.28687
1653.3656 489.7706
1654.9094 488.6338
1656.7268 490.01724
1655.0118 491.25388
1654.6826 493.2889
1654.5648 495.19632
1654.0212 496.75317
1654.7871 498.45056
1657.0148 498.9366
1655.8567 497.27686
1656.9432 496.1881
1658.3513 497.12152
1660.1104 497.31897
1661.6454 497.9996
1660.9451 499.55356
1659.0786 499.21762
1657.8774 500.9222
1658.8658 502.76303
1657.5223 504.807
1657.4176 507.69446
1658.759 506.62198
1660.3058 505.2679
1661.1166 507.29968
1659.6907 508.7545
1658.8457 509.953
1657.6588 511.12415
1657.0471 509.53473
1655.2341 508.7887
1655.1305 506.7021
1654.9631 504.90604
1656.0613 503.20276
1655.8364 501.26813
1655.2262 499.78992
1653.5459 500.52667
1654.0123 502.412
1652.7861 503.7846
1652.4702 505.63123
1651.2576 507.14127
1649.682 505.40765
1650.6959 503.34995
1651.7457 501.59863
1648.7699 503.18964
1646.8809 504.409
1647.4224 506.17978
1646.9846 507.84988
1645.3037 507.60043
1644.94 505.93005
1644.2051 504.1737
1645.0765 501.97064
1646.6481 502.36786
1647.2828 499.63165
1645.6526 499.67892
1643.8651 500.2509
1641.8981 500.59488
1640.2021 501.32257
1638.5388 500.2342
1640.015 499.0359
1641.7887 498.69858
1643.5693 498.1298
1645.1951 497.7586
1646.7958 497.1828
1648.7365 498.47238
1648.3591 501.2347
1649.895 500.37863
1651.252 499.46585
1652.6891 499.1374
1653.3307 498.0142
1651.7994 497.38004
1650.1979 497.34964
1648.6035 496.41483
1647.4811 495.11322
1645.2948 495.75342
1644.2052 494.2564
1643.3304 495.81735
1641.7827 496.81198
1639.6686 496.39658
1637.4258 495.7379
1638.1091 498.10925
1636.1384 498.21732
1634.1041 498.5665
1634.9935 496.44098
1636.7758 493.36142
1635.0874 491.90933
1636.3137 491.0195
1639.3387 493.2871
1641.2319 494.72305
1642.5817 493.2222
1642.3562 491.5599
1644.1597 488.62366
1644.2322 486.19333
1646.5867 485.37125
1645.0519 483.8943
1646.8911 482.6178
1645.8011 480.21454
1647.2247 478.58755
1647.8281 476.90402
1649.4546 475.4049
1651.2548 474.6266
1651.9819 472.71844
1649.5282 472.8556
1647.4913 474.68335
1646.7661 472.8335
1644.522 473.22714
1643.5219 471.50912
1641.8877 472.9106
1640.7721 474.6118
1642.3379 477.39285
1642.6993 475.277
1645.4688 475.18497
1644.7737 476.9548
1643.8733 479.10626
1644.0859 481.77216
1642.6418 483.71405
1640.4583 484.273
1641.8683 485.7138
1642.4681 487.5225
1642.1902 489.38635
1640.7546 489.88593
1639.7375 488.64282
1640.7583 487.5241
1639.4999 486.50464
1637.7039 486.52942
1638.5383 485.1651
1638.581 483.59317
1640.1232 482.17157
1638.0798 481.76248
1636.7002 483.228
1636.7449 484.9192
1635.5791 486.10593
1632.2103 490.7089
1632.4801 496.8398
1630.2975 497.45865
1627.3328 497.54376
1625.3384 498.4597
1628.4727 499.3166
1630.4407 499.8006
1632.2877 499.25986
1631.4858 501.7709
1633.2278 501.09955
1634.8705 500.68597
1636.3226 499.9028
1637.0488 500.99002
1637.2931 502.2309
1638.8743 502.21475
1640.1605 503.36905
1641.6954 502.6321
1643.2771 502.4376
1641.4877 504.6216
1642.6946 505.85437
1643.5886 508.36563
1642.3472 507.569
1640.7102 506.79178
1640.7434 508.77747
1642.154 509.84778
1642.252 511.55502
1640.876 511.93643
1639.3939 512.2522
1638.0979 513.51196
1636.1702 512.32446
1637.7952 511.25082
1639.5854 509.91867
1639.134 506.99734
1637.5728 507.7233
1637.949 509.31873
1636.2163 509.67572
1634.7583 510.89133
1633.8904 512.4915
1631.9435 512.474
1629.8192 512.1261
1631.596 510.69812
1633.0941 509.89792
1634.6001 508.83948
1633.6698 507.45108
1633.2405 505.8716
1635.7942 507.1596
1635.0833 505.12408
1636.5328 503.97025
1637.412 505.67206
1639.3582 504.94434
1638.1179 503.7006
1635.666 502.59924
1634.1974 502.87146
1632.7861 503.8215
1630.4786 503.56656
1629.6189 505.60455
1631.4741 505.764
1631.5951 508.20245
1629.676 509.81097
1629.4304 507.72552
1627.5997 506.60812
1627.1868 509.05872
1627.7168 511.07724
1627.5718 513.06683
1625.4099 512.31165
1625.0189 510.4604
1622.9103 510.84067
1621.4531 511.9333
1620.6936 513.599
1621.4636 515.3073
1623.3828 515.0749
1623.2328 513.0466
1625.6886 514.2989
1625.0396 515.99713
1625.3627 517.93066
1623.5388 517.5724
1621.8792 517.27765
1621.0122 518.92487
1622.6691 519.6552
1624.544 519.7947
1626.3129 520.2881
1627.3645 518.4667
1628.1305 520.3153
1629.5593 519.46545
1630.0641 521.52
1628.5677 522.30475
1626.7214 522.5117
1624.8452 522.1021
1622.8733 521.5657
1622.9717 523.51294
1621.1685 523.04395
1619.5664 522.78076
1617.4043 521.872
1618.891 520.7984
1620.8237 521.0002
1619.4818 518.95435
1617.9883 518.8469
1616.5836 519.03845
1616.1653 517.4422
1614.2917 516.74866
1613.9266 518.2945
1615.1973 519.1041
1613.8878 520.1217
1612.2639 518.8005
1610.4619 518.9607
1611.146 520.4124
1612.4941 520.4725
1612.9722 522.1671
1614.4159 521.8558
1615.5558 520.8734
1617.0767 520.42566
1616.0242 522.68134
1618.2067 523.2748
1620.7891 524.89014
1623.0161 525.5195
1625.0972 524.536
1626.6879 526.5522
1627.8062 524.51666
1630.4998 523.66644
1629.9005 525.9162
1628.9708 528.36346
1630.9774 527.93286
1633.0026 527.6891
1635.1055 528.7606
1636.0403 527.34894
1637.5688 527.80725
1639.2511 527.74225
1639.3463 526.212
1639.7302 524.43
1639.7697 522.37695
1638.5537 521.0604
1636.9735 520.3459
1637.6577 523.0248
1637.3982 525.28723
1635.2207 524.91394
1634.3661 526.4412
1632.4749 525.0785
1633.2141 523.07153
1631.5846 521.3695
1633.6183 521.3384
1635.6051 523.16986
1635.4812 521.3486
1635.9999 518.81366
1634.7695 517.7909
1632.5032 516.8066
1633.1757 518.1752
1634.3856 519.61
1632.6207 519.9758
1631.556 518.9117
1630.2999 518.13715
1628.8069 516.91077
1626.8923 516.5847
1627.8522 515.0511
1629.4854 514.3141
1631.0894 514.00836
1630.436 516.5244
1631.5444 515.5152
1632.8641 514.0663
1633.743 515.1544
1635.4369 514.1896
1634.7125 516.2609
1636.5774 516.63257
1637.1688 515.0314
1639.0519 515.6319
1640.5623 514.222
1641.8967 515.8792
1642.7441 513.4247
1643.9414 515.0872
1645.8496 515.426
1644.9502 513.3526
1643.7173 511.16507
1644.7313 509.47046
1646.2323 509.72028
1645.2285 511.4832
1646.7639 511.2719
1647.258 512.62366
1648.8174 511.80756
1648.0261 510.47168
1647.8483 509.05362
1649.1526 507.6195
1649.5981 510.02817
1650.6716 508.94974
1653.28 507.9015
1653.6273 510.11157
1652.0542 509.54526
1651.9131 511.4452
1650.4711 512.0477
1650.735 513.9935
1649.0829 513.6016
1647.497 514.4497
1646.4435 517.34656
1647.7982 516.30005
1649.488 515.6356
1651.19 516.7712
1649.1322 517.8009
1647.2406 518.9406
1645.1519 518.6827
1643.9856 516.99316
1643.1034 518.84076
1641.4005 518.1363
1639.6724 517.2489
1637.7677 518.1377
1639.5349 519.4353
1641.5554 520.7345
1643.8809 520.7085
1643.3989 523.107
1644.9099 522.4726
1646.3977 522.2739
1646.0466 520.4543
1647.9011 521.3318
1648.6594 519.8341
1650.3567 519.43097
1652.2423 518.8826
1653.503 517.70593
1655.37 519.2199
1653.8024 521.1703
1651.7389 521.0643
1649.575 521.79315
1650.6252 523.1602
1651.2812 525.1091
1649.5376 525.62946
1648.4937 524.3531
1647.5109 523.3185
1645.3475 524.601
1643.6802 525.8445
1642.237 524.66284
1641.5205 522.9202
1641.2178 526.07086
1642.068 527.3404
1644.1666 527.6174
1645.8389 526.92303
1647.0868 525.6292
1648.1943 526.89545
1646.5469 529.28107
1647.6897 528.3336
1649.7738 527.60754
1651.3335 528.54736
1653.4069 529.1425
1655.6779 529.1237
1658.2058 530.3459
1658.3728 527.72943
1661.5575 527.263
1660.397 529.2411
1662.0282 530.2711
1664.0255 529.3846
1665.2566 528.1417
1663.7963 526.46783
1662.3967 524.8907
1659.8027 524.56116
1657.0128 526.22986
1654.8118 526.1304
1652.8289 526.7943
1652.8569 523.67456
1654.9967 523.6109
1656.2354 521.4808
1657.3115 524.046
1658.5352 522.12885
1658.4989 519.89545
1660.9323 519.5118
1663.2655 517.6985
1664.8828 516.6596
1666.1013 515.01746
1667.1523 516.7211
1666.6782 518.7673
1667.3646 520.9762
1669.1125 521.2071
1666.2781 522.4374
1665.2091 520.36615
1663.3988 519.8227
1661.6533 522.4586
1663.8378 522.8455
1666.1713 524.52185
1668.898 524.57916
1669.5208 528.89667
1672.3904 527.46265
1670.0375 523.39685
1671.4141 521.3728
1671.2129 518.989
1669.2317 517.88434
1669.0979 515.3184
1671.5647 513.74414
1671.8495 516.4028
1675.5276 516.71063
1674.4143 514.7732
1673.8429 512.6758
1674.7051 510.24673
1676.5656 511.6631
1679.7024 511.53732
1676.9376 508.51166
1673.8391 506.7717
1674.8418 505.5207
1676.228 504.65637
1678.0172 503.60602
1678.6263 501.9919
1676.511 502.88187
1675.9548 501.72263
1674.3536 503.2751
1672.2224 503.18402
1672.9712 501.26544
1670.8711 501.14255
1669.0745 499.86624
1667.2698 501.11465
1665.2745 500.89453
1663.7286 501.4114
1663.669 503.45276
1665.8055 503.46866
1668.3939 502.93726
1670.0282 504.04428
1672.1396 505.16806
1670.7668 506.68573
1670.44 508.88885
1672.481 508.93515
1671.9666 510.98383
1669.8441 511.9638
1667.6389 512.09656
1668.8684 510.194
1668.186 508.4993
1668.2314 506.64594
1667.1608 505.23392
1665.0764 506.3154
1666.1818 508.7531
1664.8308 510.9269
1662.6344 511.53192
1664.4408 513.2658
1662.6714 514.48303
1660.5787 514.46765
1661.5696 516.67926
1659.5028 516.5968
1657.7266 518.0743
1657.7517 514.8976
1656.6046 516.3009
1655.0626 516.6474
1653.4152 515.51135
1652.021 514.59296
1653.2319 513.1387
1654.2299 511.78772
1655.5994 510.69098
1656.2153 512.2833
1655.3887 514.08075
1657.6317 512.93
1659.1106 513.62024
1659.3232 511.62875
1660.927 512.5102
1660.8832 510.5816
1662.0345 509.35867
1663.5247 507.7671
1662.6925 505.4688
1661.3763 503.2541
1660.3792 501.30423
1662.3297 500.72153
1663.562 498.8829
1663.4352 496.7953
1662.0835 495.7527
1661.114 493.78793
1663.2083 493.5414
1664.6609 492.059
1661.5457 491.57297
1659.445 492.15863
1660.076 495.49484
1658.5687 494.51022
1656.478 494.4147
1657.2228 492.23376
1659.7588 490.05243
1658.3735 488.6296
1661.0459 488.00217
1660.5414 485.88037
1662.8597 486.3895
1662.3467 489.39923
1663.5182 490.85345
1664.2102 488.34888
1666.344 487.8827
1665.6185 489.88004
1666.4818 491.9648
1665.8184 493.73175
1664.8116 495.30215
1665.4369 497.22293
1666.2665 499.04092
1667.8171 497.17194
1670.1265 497.47363
1670.0251 494.52185
1667.9204 494.814
1668.5712 492.32138
1667.521 490.54953
1667.9854 488.9969
1668.9548 487.60382
1670.2166 486.6095
1671.4404 485.33304
1672.2983 487.2722
1674.1959 486.49136
1673.4601 488.7495
1671.4471 489.41663
1669.653 490.0128
1670.6475 491.8713
1672.05 492.8699
1671.8181 495.45694
1672.8517 497.08957
1674.3391 496.37933
1674.9222 497.76495
1671.9034 498.93655
1673.8407 499.21265
1674.6622 500.81494
1675.7823 499.0307
1676.792 496.63977
1674.4229 494.6813
1673.3389 491.15793
1675.408 492.56888
1677.1527 493.9736
1678.8221 495.11978
1681.1522 494.8206
1680.0275 497.2158
1680.7681 502.48672
1679.8207 504.10828
1682.1782 503.9795
1682.9763 502.13785
1685.1788 503.96445
1685.29 502.3593
1684.3055 500.8017
1681.6267 499.1209
1682.6312 497.83646
1684.8232 498.23904
1686.3276 499.7878
1687.4756 501.11505
1688.764 499.17966
1686.6357 496.82443
1684.7251 495.1394
1688.8494 493.87375
1685.6019 490.13138
1687.7942 485.26718
1684.3503 482.84668
1677.5142 481.56888
1677.1978 479.3191
1675.9185 483.0922
1678.1167 483.74698
1682.0358 490.48508
1679.9211 491.98895
1677.967 491.1971
1676.199 487.1881
1674.7405 484.70065
1672.6935 484.14368
1674.2537 482.24902
1673.125 480.05426
1671.7927 482.1303
1670.078 483.24963
1668.6372 484.8585
1667.0137 486.12222
1664.8718 485.92883
1666.0068 483.99966
1667.7617 482.06082
1665.0613 482.03937
1663.4084 483.914
1661.447 482.93695
1659.5503 481.3866
1656.9412 481.3705
1657.9875 479.8477
1657.2034 478.17273
1655.5516 477.39035
1657.8209 476.17545
1656.0823 475.2084
1655.5157 473.6035
1656.2399 471.8285
1657.1016 470.19174
1657.8995 468.62537
1659.3535 467.5945
1658.55 465.6739
1660.1277 465.0441
1659.5955 463.49194
1661.5916 464.05566
1661.2205 466.65637
1663.0374 464.97098
1665.223 465.47574
1663.5544 466.58
1663.219 468.22348
1661.3145 468.97958
1659.6799 470.20343
1660.4495 472.31204
1658.4243 471.98926
1658.0896 473.9188
1660.2198 475.09683
1660.8936 477.34106
1659.1332 477.98303
1660.9556 479.89008
1662.9844 480.83414
1665.0421 479.74976
1662.6604 478.24307
1662.0901 473.06915
1662.7288 470.7374
1664.9875 470.58603
1664.8774 468.9487
1666.1447 467.14642
1666.9789 468.94394
1668.4073 467.83282
1670.1339 467.2878
1671.8345 466.87036
1670.7483 465.19788
1668.8491 465.37073
1667.0656 465.0242
1668.262 463.11105
1670.5168 462.74448
1671.8887 463.7112
1673.1028 465.4036
1674.918 466.01093
1676.1838 465.06946
1674.9963 464.60236
1673.499 463.27838
1673.5609 461.41852
1673.25 459.2113
1671.3916 460.57532
1669.1619 461.15955
1668.9185 458.99503
1666.5061 458.47656
1667.3431 460.1161
1666.5874 461.60635
1665.9923 463.33594
1664.3752 463.60422
1663.1321 462.74365
1661.8575 462.00775
1660.4122 462.03006
1658.5724 462.4264
1657.1427 461.83234
1655.541 462.17624
1654.2238 460.69675
1652.9905 458.99405
1654.7662 458.25156
1656.8345 457.9169
1656.4152 459.91672
1658.5867 459.26755
1658.8689 460.83212
1660.651 460.25305
1662.2598 459.83765
1663.345 460.77997
1664.764 461.5111
1665.0896 459.61066
1663.3513 458.436
1664.9662 457.33838
1663.4744 456.1857
1661.6577 456.79657
1661.0765 458.45834
1659.194 457.63388
1659.8262 456.05392
1658.2573 455.16995
1656.8494 455.06805
1659.8589 454.1524
1661.7793 454.75998
1662.1621 452.82477
1664.5991 452.33157
1662.8838 451.12506
1664.332 449.03073
1666.4548 447.69974
1666.9396 449.64197
1665.9065 451.01358
1667.8115 452.8103
1666.2213 453.54068
1664.114 454.33713
1665.95 455.61807
1667.9716 454.9556
1667.4506 457.11047
1670.6936 458.4729
1669.3198 456.64825
1669.8629 454.34982
1669.8938 452.71503
1668.6146 451.29047
1668.8989 449.70258
1668.3423 448.0686
1668.7603 446.39175
1668.4003 444.93558
1670.9067 444.44647
1673.1024 445.8947
1673.8815 447.7256
1671.3937 446.65454
1670.3838 447.96866
1670.624 449.64716
1672.5449 449.1874
1671.1562 451.19022
1671.9578 452.81693
1673.017 453.95572
1671.0576 455.3897
1671.8138 457.21625
1673.8223 457.12225
1673.01 455.55783
1675.041 454.3139
1675.6814 456.00574
1675.48 458.2793
1675.7505 460.38562
1675.879 462.34024
1678.4125 463.25934
1678.5144 461.08304
1677.6432 459.18823
1679.634 458.61685
1681.4482 458.825
1680.0642 456.377
1677.5492 457.2592
1678.2222 455.658
1678.5557 452.81903
1680.1085 450.76862
1682.9666 451.1374
1687.9467 450.1134
1684.5815 448.47382
1681.9114 448.02734
1683.4459 446.00546
1685.4348 443.1218
1683.8555 444.0166
1680.5698 445.15115
1678.3014 446.4406
1680.0103 448.5835
1677.9014 449.08118
1677.104 450.82574
1676.3331 452.43845
1674.5055 452.43088
1673.4468 451.02832
1675.152 449.8117
1676.0658 447.75012
1675.6514 445.37347
1673.8379 443.89978
1673.0142 441.30673
1675.4863 441.8889
1679.4775 441.46393
1683.3065 434.07864
1672.0056 395.06708
1669.8339 394.69
1670.8246 392.18005
1672.8755 393.04172
1673.2892 390.89548
1671.8369 389.23993
1669.8065 387.7119
1671.6084 386.20178
1668.6719 385.40045
1667.4526 387.15332
1667.3635 389.10034
1669.4316 390.14398
1666.9531 391.16284
1668.6628 392.6311
1667.1123 394.3688
1666.1759 393.0561
1664.7876 392.73135
1663.2213 392.84302
1661.6992 391.9255
1660.0876 391.4849
1658.4978 390.2327
1660.4174 390.1291
1661.9667 389.61832
1663.625 389.3593
1663.7638 391.10754
1665.381 389.44095
1665.4343 386.70346
1663.3179 387.63742
1663.4509 385.51932
1664.1047 383.1848
1666.2451 384.35196
1666.0304 381.7949
1664.8059 379.17593
1662.6742 379.92685
1660.2158 379.8052
1658.2523 377.91846
1655.979 378.4677
1657.3204 380.25732
1658.343 382.04245
1659.748 383.32758
1661.9901 381.834
1661.9841 383.86044
1660.6763 385.24304
1661.3948 386.8422
1660.5735 388.15463
1659.1427 388.73285
1657.3672 388.15265
1655.4048 387.87222
1658.7754 386.29156
1657.306 384.78497
1655.0132 385.07166
1655.8475 382.6498
1653.2368 382.59375
1654.5583 380.59985
1652.7896 379.0469
1651.3931 380.8966
1652.4928 384.61575
1653.3804 386.60532
1652.2307 387.88132
1649.9382 387.89236
1648.3977 386.62512
1650.5044 385.51077
1650.5474 383.18265
1649.7388 379.34558
1647.5454 380.09555
1645.2034 380.29855
1648.917 381.9129
1646.775 382.48495
1644.79 382.62903
1643.1223 384.11722
1645.5283 384.82428
1648.0165 384.4331
1646.3708 387.14243
1643.9817 386.89343
1642.1036 386.6492
1640.4841 401.7157
1638.8655 401.58957
1637.1514 402.526
1637.2435 404.30878
1635.28 403.99203
1634.6229 402.23788
1632.1873 402.41577
1633.0161 403.9748
1632.2346 405.73096
1630.0425 403.0442
1630.2963 404.88907
1628.5695 407.0428
1630.4685 407.30807
1632.0103 408.1461
1633.7222 407.6477
1634.4386 405.97754
1636.3507 406.27643
1638.4513 405.774
1640.0692 404.88315
1639.053 403.3709
1641.2006 403.45102
1641.9865 405.14005
1640.2969 407.26508
1638.4036 407.85626
1636.9592 408.45416
1635.1528 408.80286
1633.2883 409.93082
1632.1393 412.0245
1631.0557 410.2894
1629.181 409.7475
1627.6307 408.80884
1626.1143 411.32645
1629.2714 412.3287
1627.4221 413.6279
1625.0295 414.13147
1623.102 412.67383
1623.1206 410.62308
1624.1555 408.96353
1625.992 408.6517
1625.0631 406.5753
1625.9207 404.76865
1627.8563 405.55478
1627.9669 403.5251
1624.3145 403.30475
1625.1392 401.18216
1626.4883 402.42834
1628.8259 401.3508
1627.2013 400.47604
1627.4216 398.41602
1629.0894 399.17993
1630.8436 400.99976
1630.9891 398.69046
1632.4083 399.2068
1633.2977 400.98096
1634.0634 399.57925
1635.6 400.01678
1636.3444 401.2357
1638.219 400.32983
1640.4514 386.6293
1641.1721 384.73206
1640.263 383.06628
1641.7432 382.13068
1643.4443 381.35223
1642.2803 380.20093
1640.4747 379.929
1639.7391 381.32935
1638.0823 382.2621
1638.6038 379.587
1637.1952 380.59662
1635.8666 379.19666
1634.0377 379.87003
1633.3925 381.8501
1633.6816 383.68817
1635.4218 381.47598
1635.8462 383.18692
1637.3817 384.1443
1639.1305 384.3422
1638.9247 385.9619
1637.1234 386.1737
1635.4004 385.289
1633.5377 385.57126
1631.8541 384.72003
1631.3965 382.80106
1631.5913 380.8048
1632.0481 378.95572
1629.3276 378.8501
1629.421 380.80872
1626.9929 380.26944
1625.8398 378.27902
1623.9121 380.42142
1625.537 382.27066
1627.3717 382.4358
1629.1771 382.39578
1629.8384 383.70392
1629.9585 385.0161
1628.1907 384.27716
1626.4559 384.56497
1623.9242 383.39328
1621.8826 384.56836
1621.5801 382.22336
1622.627 378.0113
1620.9324 379.5812
1617.9912 379.23502
1615.1398 379.69223
1616.9359 381.93927
1619.1238 381.32367
1619.2604 383.83118
1617.0757 384.2799
1617.3269 396.15802
1618.9126 396.98828
1615.3602 396.6783
1613.535 396.01044
1611.7788 396.2422
1609.6918 395.6153
1608.5979 396.91495
1609.1326 398.95462
1610.5215 397.6709
1611.7463 399.03708
1613.0378 400.87198
1613.783 398.53293
1615.6503 400.06677
1616.7448 398.46115
1618.8073 399.49377
1617.6344 401.1036
1619.9668 401.62125
1620.8352 400.1635
1622.1276 399.44632
1620.5541 397.78
1622.437 396.9232
1622.6346 398.27515
1624.1086 397.99142
1625.565 397.74005
1625.7339 399.30786
1624.0411 399.7087
1623.197 401.00586
1622.2709 402.06726
1619.7589 403.2523
1618.0695 402.93137
1616.8427 403.88245
1615.2283 404.48212
1616.0093 402.4264
1614.5953 401.5228
1613.9595 403.12775
1612.83 404.19885
1611.8271 402.8967
1610.4128 405.2307
1609.4166 403.96573
1610.3689 402.26526
1611.0876 400.70355
1609.3202 400.68182
1607.6749 400.35846
1605.8755 400.86026
1606.9668 402.36584
1608.6179 402.44598
1606.8468 404.16165
1607.696 405.57324
1607.0901 407.33157
1608.6207 408.87393
1608.3715 411.2185
1605.9872 411.6257
1605.6528 413.54474
1607.9191 413.44577
1609.9718 413.55148
1611.5696 412.20474
1610.2562 410.40482
1610.6368 408.08105
1609.2983 406.66946
1612.2537 407.32355
1611.9426 405.47556
1613.9752 405.64883
1615.7517 406.75763
1616.6309 408.18378
1615.5522 409.10516
1614.1973 407.3423
1613.615 409.00354
1612.2318 410.04645
1613.6039 412.1908
1612.4136 414.3093
1614.5662 414.88593
1615.7637 412.68314
1615.0808 410.73123
1617.5256 410.3405
1619.5614 409.6332
1617.9987 408.477
1619.3364 407.64563
1617.8745 406.5872
1616.7639 405.40054
1618.7195 404.95624
1620.5146 406.48538
1620.6962 404.8014
1621.9451 403.5533
1622.9498 405.39087
1622.6464 407.52313
1621.2843 408.82
1620.6003 411.35242
1618.1238 412.16296
1619.261 413.82288
1617.0209 414.66776
1619.2478 415.5839
1621.1694 413.85052
1622.8055 415.4154
1622.5494 457.78354
1622.5824 460.92136
1619.1746 460.68988
1613.3357 460.3404
1615.074 462.11514
1615.8201 464.15564
1617.2046 463.21033
1618.5654 462.9756
1620.0688 463.0276
1621.5979 463.2217
1620.7518 465.151
1620.1002 466.97964
1617.4861 468.04404
1618.6201 466.49792
1618.9569 464.72275
1617.244 465.59375
1615.4668 466.14825
1613.8579 464.2727
1612.684 466.0751
1611.8425 463.80334
1610.2836 463.13852
1605.3368 463.00327
1607.7876 465.6765
1606.6792 470.35895
1609.1542 472.25546
1610.292 470.80862
1611.8949 472.08484
1611.4856 474.47476
1607.9742 473.85013
1606.8455 472.1627
1604.8066 471.89075
1605.0895 473.984
1602.3063 474.84515
1603.9911 476.163
1605.9434 477.5797
1606.2787 475.3628
1607.8297 476.18192
1609.598 475.04535
1609.7545 477.00528
1611.3154 477.69235
1609.4008 479.026
1607.7891 477.975
1607.5204 479.56726
1608.382 481.22464
1609.9755 480.54623
1610.7854 481.95273
1611.8904 482.89676
1612.9888 483.72168
1610.963 484.3786
1610.0214 486.12402
1608.67 485.02856
1609.2491 482.96863
1607.4459 483.7234
1606.9663 482.0114
1605.6293 483.35626
1606.4421 485.4396
1607.3223 487.11075
1608.8696 488.1239
1610.1521 490.3157
1608.0306 491.47882
1606.5226 489.58716
1605.6873 492.5341
1605.0361 495.3695
1603.022 496.14536
1600.9458 496.38284
1601.1631 498.4945
1602.8677 500.76215
1604.0645 498.39172
1606.2104 499.46774
1605.3818 501.8505
1603.6095 503.5839
1601.2004 502.85385
1600.4031 501.1541
1598.5194 502.705
1599.089 504.60126
1601.0125 504.6688
1602.5654 505.73962
1604.3291 506.3729
1600.488 506.56046
1600.015 508.46616
1602.0044 508.05923
1603.4387 509.14017
1605.0564 508.28522
1604.8928 510.5028
1604.3751 512.0194
1604.6447 513.43823
1604.0504 514.8672
1602.156 515.6401
1599.6265 515.8493
1600.7266 514.2878
1602.1372 513.1479
1602.7703 511.59573
1601.9211 510.20718
1600.3236 510.9627
1599.3088 512.8911
1597.7673 515.08014
1597.1766 513.38776
1595.2828 513.47327
1593.9061 512.1477
1592.0951 513.07806
1591.6061 511.37915
1592.8994 510.31183
1594.4628 509.3657
1595.7921 510.93567
1597.6313 511.38367
1598.4558 509.9003
1598.185 508.17804
1597.9901 506.4527
1596.391 508.33484
1594.7196 507.17496
1592.5596 506.14383
1592.3008 508.1266
1590.8763 509.29926
1589.882 510.97656
1587.5244 509.54938
1585.5942 508.13336
1584.9043 506.34082
1582.5679 506.60742
1582.9644 504.8731
1581.1659 504.63666
1579.1177 505.15863
1576.415 503.29047
1577.9253 503.40976
1579.6553 503.1276
1581.3567 502.22995
1579.6436 501.334
1578.06 501.04944
1576.6842 501.56213
1575.0775 501.54703
1573.6614 501.37076
1571.6045 500.05856
1570.54 498.72504
1570.09 496.85925
1568.4801 497.9094
1566.4303 496.79474
1568.5216 495.3701
1566.4492 494.2389
1565.5636 492.1815
1563.7262 494.64798
1563.0468 492.22675
1560.7493 493.13217
1559.1475 491.08932
1561.4233 490.13092
1562.0137 488.04144
1560.3772 486.93793
1558.9019 488.57855
1557.8462 486.21912
1558.9126 484.84308
1557.5758 482.7478
1556.2573 480.98788
1559.9648 482.60004
1562.2191 482.0465
1562.5933 483.72815
1560.9869 484.95798
1562.6874 485.8869
1564.5386 483.60977
1564.5028 485.4375
1564.1687 487.50598
1563.6685 489.67752
1565.5532 490.12277
1567.7435 491.41544
1567.7927 489.46198
1568.3057 487.4623
1566.1567 488.25293
1566.26 486.4731
1566.6631 484.60266
1568.5488 485.5186
1570.4065 487.24683
1569.9081 489.07492
1569.9144 491.02298
1568.8201 493.01395
1570.6184 493.7135
1571.3079 495.23834
1572.0704 496.8078
1572.4807 498.5346
1573.1198 499.9978
1574.6268 499.41122
1576.6146 499.60938
1577.9811 497.56833
1580.1411 496.308
1582.4497 496.06784
1582.0913 497.71686
1580.2876 498.21548
1578.9727 499.45364
1580.9907 500.15295
1582.4503 499.70584
1584.1094 500.1678
1583.9482 498.25018
1584.6686 496.67188
1586.2389 497.81158
1585.9504 499.47595
1587.7849 500.05215
1589.825 500.18665
1590.0692 498.23737
1588.2712 497.77765
1586.8867 496.16
1585.648 494.64352
1585.5763 492.75824
1585.4434 490.8674
1587.0598 489.24792
1588.0781 490.63596
1589.7683 491.39392
1591.2328 492.69025
1589.4865 493.52197
1587.8098 492.3945
1587.5518 494.3365
1589.1519 495.66745
1590.8904 496.50623
1591.7742 499.21265
1590.2656 502.10864
1589.033 504.08167
1587.6985 502.1949
1585.431 501.6794
1583.1202 502.20953
1584.3904 503.95053
1586.2594 503.90945
1587.3398 505.53137
1587.5999 507.30386
1589.2594 508.53223
1590.0231 506.4215
1591.2501 504.292
1593.1376 503.5591
1594.76 505.17328
1596.89 504.89227
1595.8413 503.19254
1597.2195 501.34482
1599.4954 499.8007
1598.187 499.0943
1596.2428 499.60248
1594.9987 500.4866
1594.4617 501.9765
1592.4163 501.33182
1593.6744 499.29935
1594.8828 497.7119
1592.9537 497.28848
1592.5969 495.54367
1594.8341 495.36417
1596.4912 496.49368
1596.8984 498.0291
1598.7919 496.74915
1599.1887 494.49252
1601.3832 494.1728
1603.417 493.4458
1600.3035 492.6138
1598.5381 492.38467
1597.1444 494.85904
1596.4729 493.3775
1594.9211 492.44382
1593.6503 493.75607
1593.2811 491.4779
1591.4045 490.99823
1591.6674 489.40445
1593.4456 489.44858
1592.9119 487.46225
1590.766 487.88092
1589.602 489.352
1588.9465 487.67365
1586.9387 487.36887
1584.498 485.8645
1585.2236 487.58417
1584.1536 489.19485
1582.3414 487.4636
1580.3582 486.56998
1578.8318 487.21457
1577.5817 485.59634
1579.5513 484.3128
1578.4884 482.52148
1580.5737 483.07208
1583.0349 484.4521
1585.1115 483.58487
1584.6053 481.71048
1582.945 481.53763
1581.453 481.85922
1581.3113 479.98276
1583.0535 479.27576
1585.0005 479.92084
1585.9796 478.4103
1587.033 477.45117
1587.3208 475.80466
1588.7883 476.11346
1588.8851 474.79547
1588.3784 473.51468
1587.0372 474.27402
1585.9427 475.5407
1584.9204 476.46863
1584.1237 477.8196
1582.433 477.05725
1583.1653 475.82187
1584.497 474.68134
1585.4598 473.76666
1585.2383 471.9604
1586.5232 472.82324
1587.49 471.92932
1589.1284 471.95477
1590.219 473.4444
1591.8143 472.21
1592.2826 469.85672
1594.1893 470.36896
1594.0195 472.17
1595.9012 472.9984
1593.1594 473.7614
1591.8035 474.5295
1590.1711 475.40405
1591.6842 475.94226
1592.8896 476.97263
1594.6216 475.41983
1594.2661 478.3054
1596.14 479.5333
1596.6825 477.5197
1599.0342 478.66217
1600.3473 480.65134
1597.9738 480.92065
1598.6592 483.02972
1597.7662 485.2395
1595.6816 484.0461
1595.6299 481.7076
1593.4498 480.72134
1591.9702 479.78577
1591.0681 478.3623
1590.3999 477.07452
1588.6315 477.2306
1588.613 478.55624
1589.5842 479.7658
1589.9023 481.40253
1587.3584 480.27573
1586.619 482.16177
1588.3557 482.97318
1590.425 483.66614
1589.2505 484.97577
1586.808 484.91623
1588.1838 486.21527
1590.651 486.09082
1592.3079 484.98322
1593.8943 485.00174
1595.613 486.11005
1594.7383 487.75076
1594.8862 490.09338
1596.1953 490.59222
1596.9397 491.74197
1598.1265 490.29105
1596.5388 488.8503
1597.2142 487.35266
1599.1174 488.81274
1600.2723 490.41464
1601.6111 488.55707
1602.573 490.19025
1604.2334 489.42416
1605.0942 487.3298
1602.9998 486.6942
1600.9729 486.7717
1599.0554 487.02368
1600.1238 484.83188
1600.9246 482.89282
1602.4896 484.37598
1604.5061 484.9623
1603.7522 482.6296
1602.3872 481.03754
1605.215 481.4174
1606.1395 479.96866
1604.0305 479.93607
1604.0793 478.19803
1601.7684 478.10184
1599.781 476.41492
1600.061 474.15588
1597.0732 475.68094
1597.7307 473.83606
1598.9454 472.19772
1601.0278 471.42908
1602.9131 472.4029
1603.1549 469.91608
1601.3052 468.12277
1598.4894 467.77982
1596.7666 465.68845
1598.6155 470.29666
1596.337 470.36612
1595.1573 467.9281
1591.5869 465.76697
1588.8635 462.37958
1590.0042 465.5001
1590.3047 470.00604
1590.6353 471.22473
1588.7866 470.20435
1587.4098 470.30777
1585.7434 470.44855
1584.1147 470.2347
1583.1987 471.54837
1584.1323 472.82196
1582.8673 473.22144
1583.1415 474.49875
1581.6343 474.5349
1580.7888 476.15918
1581.2723 478.20755
1579.5714 477.5393
1578.4395 476.40247
1577.3342 478.63364
1579.2281 479.12082
1579.5503 481.12592
1577.1791 480.71768
1576.393 482.44473
1577.2124 483.9066
1574.91 483.97955
1574.1221 485.95032
1575.356 487.42575
1577.1683 487.77576
1577.2266 489.9546
1574.2004 489.95984
1575.4209 491.38284
1576.2642 493.19943
1579.207 491.94852
1579.9406 489.2747
1582.0865 490.50845
1583.0205 492.43753
1584.0299 494.8007
1582.2643 494.22296
1580.4479 493.95297
1578.2703 494.84293
1576.1431 495.60602
1575.7944 497.6755
1573.9072 497.38397
1573.8835 495.26746
1573.3198 493.22467
1571.926 491.84845
1571.8773 489.8365
1573.2166 488.30493
1572.3027 486.95828
1571.2646 485.4891
1572.9249 483.9064
1571.5746 483.22202
1568.8555 482.8998
1569.0867 479.79657
1571.084 481.00125
1571.5272 479.25253
1571.0253 477.94858
1573.0054 475.1084
1571.8452 472.71133
1574.544 473.82257
1574.9895 478.08472
1573.222 479.1668
1573.0537 481.5837
1574.7937 481.66125
1575.2722 479.7942
1576.1223 476.46274
1577.2327 474.79623
1576.5266 472.79422
1578.8239 472.84393
1579.723 474.5467
1581.0289 472.57397
1581.5911 470.66818
1580.2289 469.3625
1578.5574 470.76633
1576.849 468.98615
1575.5819 470.81125
1573.4148 470.87503
1573.935 467.8548
1571.6661 469.27274
1570.124 470.66333
1568.4286 471.49945
1566.6221 470.18848
1565.4119 471.05356
1563.0199 470.9588
1561.0651 470.1132
1564.7498 469.38394
1567.8159 469.25107
1568.9392 467.93246
1571.5205 467.05038
1569.7144 465.9748
1569.6729 464.2991
1568.8411 462.934
1566.7216 461.59354
1564.7197 460.80627
1564.7188 463.1437
1564.7102 465.33655
1566.9464 463.98123
1567.1631 465.98837
1565.8462 467.3875
1563.0779 466.15695
1561.0995 466.00034
1562.4215 464.05743
1562.6084 461.95203
1562.2942 459.74445
1562.0786 457.09515
1559.1521 457.20987
1560.0975 459.0376
1560.3202 461.1316
1560.5455 462.95944
1560.1283 464.55667
1559.1967 466.0085
1558.1572 464.70068
1556.8398 463.71545
1558.4784 462.60666
1558.1392 460.4615
1556.6185 459.17334
1556.0432 461.8256
1553.6371 461.69827
1554.4402 459.85095
1552.1486 459.1011
1551.2238 460.94714
1549.5011 458.98926
1548.8461 456.0269
1551.5858 456.9907
1551.607 454.65582
1553.0658 455.6755
1554.222 457.93262
1555.0652 456.63004
1557.0972 457.0964
1560.4634 454.98065
1558.3065 454.47632
1556.3413 453.36426
1556.5322 455.19376
1554.7517 455.0031
1554.1718 453.4805
1552.2628 451.7053
1549.2393 453.34637
1547.3447 452.06042
1548.0056 434.42365
1553.1667 400.69122
1554.815 399.583
1552.797 397.67593
1551.336 399.1235
1551.0409 396.18976
1552.3339 395.00302
1550.1345 394.3068
1551.7025 392.43875
1553.1217 393.30698
1553.8474 395.74347
1554.7224 397.37857
1556.335 398.15796
1558.3167 397.92584
1559.5339 396.8935
1557.8037 396.88556
1556.56 396.30682
1555.6445 395.43854
1554.906 394.14502
1554.311 391.32736
1555.2712 392.62277
1557.073 393.61908
1557.691 395.23615
1559.29 395.6732
1560.7819 395.77847
1562.179 395.79767
1563.0964 394.45764
1564.2544 392.6223
1560.925 394.03745
1561.95 392.24756
1561.2542 389.55704
1559.6012 387.9738
1557.3965 388.20486
1558.6532 389.869
1559.9198 391.25015
1559.3364 392.7632
1558.932 394.25146
1557.3273 391.80554
1556.43 390.30298
1554.3226 389.48175
1555.6941 388.71515
1556.8406 385.79984
1558.3687 386.22372
1559.0223 384.28055
1561.502 384.29855
1562.5006 382.4615
1561.4131 380.71317
1563.6995 380.8847
1564.6422 382.31622
1565.6232 384.23035
1563.5154 384.2512
1563.8396 386.18198
1560.2487 385.8705
1561.7511 387.01694
1563.4752 388.2196
1563.4275 390.46808
1565.3043 389.07675
1567.2281 389.61285
1566.2302 391.72177
1568.5879 390.98856
1570.8672 390.39484
1569.3959 388.88217
1571.476 387.963
1572.0944 385.69025
1570.3489 385.1682
1569.2982 386.92752
1567.1813 387.5837
1565.9901 386.19452
1568.0928 385.07065
1569.0159 380.4083
1570.7778 380.48544
1573.7919 385.21982
1575.3583 384.16583
1577.4019 383.76605
1578.1868 384.8863
1579.2262 382.58975
1581.1378 382.4418
1583.0712 381.53546
1583.9528 383.44385
1586.2458 382.62268
1585.2993 380.60626
1588.0249 379.9549
1589.4202 381.93555
1591.2482 379.70383
1594.4868 380.09665
1595.8984 382.83588
1594.0886 383.6057
1592.5792 382.1107
1590.9938 383.959
1588.2832 384.27652
1586.1603 385.04688
1584.2551 386.49072
1583.9026 385.27084
1581.6707 386.21182
1582.0835 384.2696
1580.1597 384.35138
1579.4655 385.99426
1579.7928 387.5471
1577.2894 388.35797
1577.8043 386.91748
1576.2312 385.8778
1575.1816 387.3463
1573.417 388.0149
1572.8898 390.18155
1575.0114 389.2993
1580.942 400.4611
1579.1532 403.14197
1579.0198 406.01718
1580.4808 404.65683
1581.8861 402.53363
1583.6445 400.75
1585.2451 398.94717
1586.1499 400.75055
1585.6392 402.59293
1584.168 403.86008
1582.3606 404.9073
1581.7427 407.2388
1584.065 406.3702
1584.3047 408.84488
1586.1469 407.29816
1586.9001 409.5872
1588.2604 411.3169
1588.3427 407.97513
1586.3093 404.95883
1588.2588 405.67984
1590.1823 406.18954
1592.0436 406.2651
1591.9648 407.83734
1590.2229 408.12335
1590.2422 409.90613
1590.5522 411.6084
1592.4581 411.93036
1593.2478 410.65988
1595.0588 410.59192
1595.0327 412.35507
1596.9268 412.25052
1598.7252 414.09723
1601.7272 413.40665
1603.7001 412.42102
1602.4425 410.58508
1601.6006 408.80096
1602.8469 407.17044
1604.3 409.7285
1606.5342 409.51428
1605.0039 407.56165
1604.8741 405.29184
1604.8813 402.80023
1602.5718 404.90982
1602.7373 402.97577
1602.8453 401.097
1604.2288 400.2409
1606.3955 399.02585
1607.1718 397.623
1606.8672 395.22183
1605.477 396.39746
1604.7513 398.32382
1602.9717 398.3225
1601.4948 399.70184
1600.7527 401.46518
1598.8291 401.44293
1598.3352 403.32306
1600.2971 403.40213
1600.6082 405.35175
1600.4299 407.485
1598.867 409.00186
1600.4333 410.5898
1599.5337 412.48367
1598.4695 411.0065
1596.936 410.30106
1596.0878 408.93362
1597.5443 407.96146
1599.0924 406.44354
1597.4941 406.44852
1595.606 407.36218
1594.2794 408.84137
1592.3718 409.34232
1593.6018 407.2752
1594.5109 406.12985
1593.3672 405.1406
1594.5529 403.691
1595.0602 404.80072
1596.2253 405.76532
1598.1476 404.8725
1596.5093 404.0511
1597.0314 402.39517
1596.879 401.08133
1595.7897 399.877
1595.2961 401.36472
1595.673 402.81223
1594.3909 402.4662
1593.6292 401.69525
1593.1831 403.508
1591.7336 404.6683
1589.9755 404.28424
1587.9731 403.36066
1588.1958 401.39075
1589.6633 399.4991
1587.6548 399.38953
1587.3805 397.7168
1589.2826 397.628
1591.0624 397.14435
1591.9318 398.14777
1591.4441 399.77942
1590.4333 401.16635
1590.0176 402.62042
1591.8096 402.91632
1592.35 401.27524
1594.1221 400.2185
1593.0933 399.21918
1594.8279 398.40854
1593.5302 396.9696
1595.3828 396.3631
1597.3491 396.3081
1599.6942 395.9326
1598.5483 397.488
1596.7186 398.1952
1597.6174 399.78717
1599.2283 399.40384
1600.4609 398.11948
1601.7262 397.01938
1603.6606 396.12256
1601.7173 395.42612
1605.2129 384.94354
1603.6158 384.8819
1601.3098 384.32416
1599.6946 383.47
1597.8518 384.09344
1597.884 382.0601
1597.1508 380.30786
1599.647 380.66357
1601.1991 382.48956
1602.5533 381.6532
1602.7578 383.62866
1604.1516 383.2482
1606.636 381.8097
1605.9238 383.48233
1607.4097 384.8089
1608.4419 382.7371
1610.8746 382.1144
1609.935 384.62384
1612.5686 384.57187
1615.0668 384.0271
1614.1027 381.95242
1612.0134 380.01752
1608.7097 380.19644
1605.8966 380.10114
1604.5314 381.71536
1603.562 380.04498
1601.484 380.01645
1603.4785 371.52707
1605.3221 371.2727
1604.2041 370.06244
1602.5333 370.3055
1601.083 369.9453
1599.8754 368.85507
1601.6627 368.23743
1603.4275 368.61868
1603.4419 366.9768
1605.1575 367.61212
1604.5299 365.84216
1606.2114 365.5001
1606.4747 363.47934
1604.3248 361.8617
1604.1271 359.91202
1602.4235 358.94568
1601.6827 360.946
1600.5394 362.6165
1602.5468 363.0272
1604.4602 363.97928
1602.7312 364.97513
1600.8019 364.63412
1601.8608 366.4497
1600.1643 366.84747
1599.0741 365.4679
1598.2947 368.07767
1596.638 367.06357
1597.6813 366.03384
1597.2083 363.96454
1598.8622 363.5119
1596.9542 362.1121
1598.781 361.2544
1599.6548 359.50757
1600.7153 357.75992
1602.2957 356.819
1603.3678 355.60907
1600.3807 355.02365
1599.2227 356.701
1597.8647 357.8081
1597.9639 355.13794
1599.7888 352.88675
1599.9781 351.02863
1602.3931 350.44086
1602.4607 352.11697
1602.1052 353.95413
1604.623 352.08167
1604.42 353.72556
1605.2356 355.42273
1606.9636 356.3147
1606.9688 354.23526
1606.8251 352.5247
1608.9583 353.36252
1608.5325 351.70258
1607.6083 350.44
1609.6674 350.22632
1608.9119 349.00272
1608.9045 347.3229
1607.3391 348.432
1606.0984 349.64017
1605.766 351.07953
1605.67 348.11392
1604.9631 346.94983
1603.4646 347.81476
1604.1656 349.79306
1602.1555 348.38553
1601.0065 349.4848
1597.933 350.72116
1597.4126 353.005
1595.9558 355.2295
1594.6927 353.6978
1594.41 351.7689
1592.8523 353.0077
1591.1708 353.07788
1592.1088 348.50284
1595.2976 348.46677
1596.9747 348.00632
1598.1943 349.14288
1599.6986 348.967
1599.0198 347.4476
1598.0305 346.43903
1599.7424 345.29
1600.681 347.2571
1601.7123 345.83893
1603.6604 345.8777
1602.9087 344.14114
1601.0397 343.39722
1599.6437 341.60773
1597.5576 342.10852
1598.5615 343.74655
1597.286 345.05136
1595.9042 346.1834
1595.773 343.74097
1594.3062 344.84778
1592.6731 343.68713
1589.8462 343.50037
1587.975 342.0318
1589.4467 340.08606
1587.563 339.63937
1585.8169 341.18097
1583.8865 340.83936
1581.9644 341.1988
1581.4583 339.5478
1580.4066 336.7858
1581.4248 337.80377
1583.4585 338.7752
1585.3936 338.2496
1587.4216 337.75903
1589.0479 336.7349
1590.5026 337.43958
1590.6667 338.9939
1591.9426 340.21454
1590.7731 341.8794
1593.2278 341.70923
1595.423 341.97174
1597.1644 339.70844
1595.4128 339.98495
1593.8601 339.50055
1592.4021 338.02078
1594.5776 337.58618
1593.2587 335.84506
1591.0322 335.30045
1590.2925 333.31863
1589.6819 331.67975
1588.0166 330.5643
1586.2479 331.24744
1585.1011 329.55527
1583.8877 330.59167
1584.7944 332.02
1583.4146 332.67184
1583.259 334.27368
1585.4637 333.86395
1587.5021 332.9772
1588.6705 334.7551
1586.9495 335.62796
1585.1688 335.83936
1583.748 336.65732
1582.5417 336.07803
1581.4854 335.06516
1581.3036 333.41263
1581.6127 331.73862
1582.1947 330.198
1582.7056 328.7913
1564.5388 281.98065
1584.0023 328.3242
1585.4698 327.89502
1586.6931 328.9911
1588.2908 328.25754
1589.7765 329.31873
1591.3473 330.66672
1593.2992 331.86105
1592.8518 333.72763
1595.7461 334.02457
1596.238 336.47958
1598.2157 336.78555
1598.8643 339.11545
1600.7552 339.08597
1601.9344 341.02444
1604.0554 340.91342
1603.8708 342.5491
1605.1548 344.0405
1605.913 345.62234
1607.4073 346.51385
1609.264 345.5236
1607.4338 344.21545
1606.3035 342.15305
1608.5161 342.02017
1610.8625 342.1394
1609.6272 343.7512
1611.3069 345.8508
1612.2949 344.03265
1613.0256 341.1961
1615.0107 341.7009
1617.1205 342.20627
1614.4531 344.3372
1616.7097 344.42825
1618.6741 343.76776
1620.4867 343.54666
1621.7966 345.74628
1620.1807 345.79886
1618.4744 346.00577
1617.8215 347.67386
1616.094 346.4198
1615.3859 348.55228
1613.8489 346.6885
1612.4237 347.84482
1610.458 347.76636
1611.4028 349.57022
1613.5935 349.90564
1612.2115 351.49014
1610.4487 351.72757
1612.7369 353.2699
1610.878 353.7468
1609.0867 355.52957
1611.3234 355.6652
1613.6819 354.9108
1613.0869 357.06946
1610.6375 357.6965
1610.4259 359.76215
1612.5653 359.81012
1614.258 358.84067
1616.1361 358.32986
1615.6198 356.05753
1617.7214 356.70908
1619.8055 356.79053
1619.3031 358.7144
1618.0093 359.91443
1616.095 360.61032
1614.3984 361.7406
1613.9626 363.9425
1613.1799 366.13538
1610.5905 366.67325
1611.1259 364.5724
1611.9346 362.23874
1609.6829 361.93726
1608.3358 360.1045
1608.1595 357.88644
1604.8518 357.6066
1606.2135 359.34558
1606.8063 361.57034
1608.794 363.70206
1608.2909 365.67715
1609.09 367.72708
1608.4001 369.53735
1607.6401 368.40356
1606.8499 367.3033
1605.5068 369.1826
1606.7228 369.85587
1606.8401 371.22684
1606.8076 372.40802
1608.6105 372.48288
1608.0889 371.0943
1609.2722 370.60178
1610.5872 369.0751
1612.437 368.3283
1615.0381 367.9245
1615.8962 366.2307
1616.5638 364.63855
1617.1101 362.5366
1618.742 364.2599
1619.8007 361.6652
1621.2318 358.85123
1622.9812 356.8184
1621.3518 356.0157
1622.8656 354.5648
1624.8171 355.11615
1627.2673 354.41608
1629.6919 353.65533
1629.0327 351.6415
1627.4674 352.74554
1625.4585 353.19135
1623.6754 352.5822
1621.4332 353.3805
1619.915 352.28293
1619.5421 354.6284
1617.7867 354.0253
1615.8728 353.73297
1614.4406 352.32764
1615.7278 350.73145
1617.37 351.90585
1617.6399 349.36615
1618.688 350.80197
1620.1494 350.13394
1620.0453 348.0114
1621.5903 349.33615
1622.2854 351.25888
1623.328 349.44037
1624.8289 350.7666
1626.6101 351.0629
1624.7767 348.73962
1626.3242 348.5717
1628.1149 349.82242
1627.8392 347.7602
1628.1724 345.91095
1628.8611 344.3297
1629.8638 342.60986
1631.7639 342.92206
1630.9161 344.30728
1630.8087 345.7106
1633.1841 345.97766
1631.8914 347.22006
1629.6917 346.93262
1629.8015 348.6121
1630.5166 350.38766
1631.5205 351.97394
1633.2004 350.282
1631.8794 348.9073
1634.2537 348.0187
1635.4019 345.99008
1633.284 344.3131
1635.182 343.7905
1635.3629 341.56766
1633.4514 342.26172
1631.6499 340.74216
1629.5884 340.7352
1630.3037 338.44598
1628.2405 338.2527
1628.718 335.94763
1630.9446 335.56665
1632.8453 336.4884
1632.396 338.41687
1633.6625 340.11508
1635.5847 339.48682
1634.9678 337.5695
1635.2557 335.4247
1633.5668 334.56796
1632.3434 333.20697
1630.5206 333.22525
1628.512 333.55148
1626.7825 332.79636
1628.0125 330.2406
1626.102 329.2866
1623.3035 330.026
1622.2676 331.69684
1621.9146 333.49112
1623.449 335.17938
1624.2528 333.70752
1624.1372 332.15558
1625.6316 331.28076
1625.9607 334.90683
1626.2432 336.80508
1623.5596 336.93448
1624.0061 338.67947
1626.1118 338.8613
1625.7012 340.76544
1627.7076 340.45493
1627.8066 342.55875
1625.9401 342.74646
1626.5986 344.45135
1626.1104 346.1672
1624.4672 346.9102
1622.4683 347.572
1623.5453 345.27713
1624.3696 343.8621
1622.2885 343.21906
1624.121 341.99078
1623.4022 340.46375
1621.5265 339.22565
1621.5485 341.2384
1619.4039 341.2435
1617.1764 339.7812
1615.3335 338.4308
1615.2899 335.39337
1612.5677 333.8354
1614.5844 331.7965
1616.76 329.2517
1617.5391 331.41534
1617.448 333.85468
1617.9962 336.6887
1619.1843 338.72745
1621.0171 337.33408
1621.5422 335.5303
1619.7415 334.9659
1619.7876 332.56104
1620.8475 330.55948
1619.8167 329.26276
1619.1685 327.37875
1622.1223 327.20816
1623.878 328.1956
1625.6897 326.88412
1628.398 327.58646
1630.5906 327.5922
1630.6682 329.61307
1629.6256 331.30762
1632.2726 331.15906
1634.1442 332.48102
1635.8018 332.99097
1635.2821 331.0476
1633.9012 329.645
1632.4526 328.30435
1661.0051 284.68268
1663.8176 284.3206
1664.2106 285.4595
1666.0901 284.65375
1666.7603 285.97598
1668.2217 284.77423
1668.9417 286.3586
1669.8933 284.87256
1671.3849 284.55743
1670.8806 286.7387
1672.6023 286.25357
1674.2726 286.80707
1676.1748 286.15384
1680.8254 285.6502
1678.1672 285.3517
1674.9879 285.10867
1673.0314 284.56744
1671.9902 278.53043
1669.651 278.8794
1669.731 277.1398
1671.6729 276.41238
1673.6207 276.87137
1675.0791 277.71707
1676.6724 277.18964
1678.2937 276.65228
1678.156 275.03464
1677.301 273.27527
1677.314 271.32535
1675.2808 270.18085
1677.4136 269.22803
1676.3708 267.7742
1674.5646 267.42447
1673.2642 268.91586
1671.2195 269.45627
1669.1917 269.49036
1667.7681 268.8404
1669.6057 271.15656
1670.9479 272.01605
1672.9667 271.44644
1674.9381 272.65585
1675.7092 275.12872
1673.4226 274.52817
1671.4995 273.86517
1669.876 275.07187
1668.6288 273.45447
1667.8193 271.53976
1666.0524 272.62515
1664.2449 272.88535
1666.4509 274.83948
1667.8881 276.03064
1667.4653 278.17578
1665.5276 278.2311
1663.8649 277.55667
1662.4784 278.41385
1660.7476 277.8593
1662.2745 276.2778
1664.6271 275.58044
1662.6042 274.22205
1662.4104 272.024
1663.5874 270.129
1666.0468 270.4646
1666.2556 268.24976
1665.7001 265.9153
1664.6637 268.57578
1661.4602 268.82184
1661.2516 270.33643
1660.3093 271.70004
1660.2853 273.29367
1660.7533 274.87607
1660.0239 276.14438
1658.8518 277.2277
1656.799 276.63058
1654.4983 277.61618
1655.5294 274.87686
1657.9934 275.0985
1657.7506 273.07712
1658.5542 271.12363
1659.242 269.0788
1657.451 268.8456
1656.4722 270.68134
1655.759 272.4045
1654.1023 270.8637
1653.1804 269.15125
1651.6384 268.46686
1649.9939 267.8027
1652.2312 266.34637
1652.7152 264.56485
1654.1542 267.0934
1655.3898 268.77835
1656.6238 266.68683
1655.4323 264.97293
1656.1538 262.53903
1657.165 261.19785
1658.8828 262.51
1658.4319 260.19962
1659.956 259.51694
1660.3457 257.90396
1661.2095 256.225
1663.2411 256.02255
1663.8252 258.1025
1661.8527 258.45163
1663.1588 259.7796
1664.2072 261.0417
1662.0839 261.92108
1661.3842 260.37024
1660.1206 261.45038
1660.8834 263.46332
1658.0105 264.24652
1658.5818 266.45963
1660.438 265.28525
1660.2003 267.326
1662.0583 267.11765
1663.7017 267.06052
1664.2385 265.05185
1662.488 264.824
1663.4799 262.93674
1665.187 263.14505
1666.729 263.72565
1667.9512 262.39426
1668.6116 265.0723
1667.259 266.5421
1669.2849 267.29642
1671.4039 267.2497
1670.979 265.2075
1670.0083 263.26575
1669.2266 260.85248
1671.3308 261.6027
1671.9341 259.92636
1670.1537 258.81363
1667.7446 258.90704
1666.0581 260.44598
1665.5474 257.16013
1667.3572 256.19394
1669.598 256.53302
1671.7476 255.90971
1672.2042 257.8377
1673.8253 256.3758
1674.6788 258.0573
1673.6666 259.58542
1675.3398 260.32285
1673.6433 261.7208
1672.3335 263.5245
1673.2273 265.81973
1675.6986 265.53824
1674.3751 263.72293
1676.3135 263.55246
1676.0773 262.0129
1677.2694 260.67926
1678.5974 259.906
1680.3942 260.02124
1681.3884 258.4696
1678.634 257.86725
1676.6085 258.51126
1676.2985 256.37195
1678.5054 253.96323
1679.5138 252.11465
1677.3894 251.0855
1677.0701 252.78496
1675.0676 251.66867
1672.954 250.86563
1670.1941 250.75397
1667.833 249.85641
1664.8342 249.97543
1664.4788 252.6767
1662.0872 251.4367
1662.0818 249.64589
1660.0825 251.34927
1658.7103 252.99486
1659.0067 256.88345
1658.3147 258.4164
1656.5417 259.05292
1655.0356 260.0215
1653.843 261.4618
1654.3109 263.2099
1651.7832 262.75018
1652.2285 260.71405
1649.7429 262.15842
1649.6262 264.3254
1649.9639 266.16507
1647.555 266.23236
1645.4257 265.9973
1646.8932 263.42877
1647.7593 261.16864
1646.3103 259.9402
1646.5173 257.22415
1647.8829 257.80072
1649.1912 258.4506
1649.5355 260.05765
1651.2318 259.4515
1653.488 258.85892
1655.1221 257.45483
1656.8569 256.88248
1654.0995 256.16873
1654.5889 254.39516
1651.508 252.63829
1653.4349 253.1074
1655.707 252.72726
1657.1625 251.5044
1658.3564 249.73282
1655.4844 250.03473
1653.3457 250.79843
1651.1704 249.20512
1650.3838 241.08759
1652.572 240.27449
1651.5126 239.29868
1649.9883 238.78233
1650.4608 236.34843
1650.0554 233.43088
1651.7974 233.90025
1652.6365 235.94304
1652.773 237.78862
1654.1877 239.45123
1656.0009 239.24283
1658.5715 238.82126
1657.2223 238.1574
1656.6956 236.71544
1654.9674 237.68684
1654.9906 235.93385
1653.9395 234.3791
1653.7665 232.41179
1655.9424 233.90416
1657.425 235.21054
1658.7766 236.75879
1660.205 237.71786
1661.0852 235.9885
1662.5066 237.37051
1663.1362 235.67865
1663.7759 233.96014
1665.1083 235.13828
1665.8264 236.46484
1668.0231 236.58064
1667.4541 234.45605
1665.863 233.28214
1667.5588 232.15755
1666.7919 229.93768
1665.4733 231.18185
1664.2073 232.3021
1662.9733 231.29808
1661.2328 230.76347
1662.7247 229.40541
1664.5474 229.58998
1664.7283 227.88597
1666.5769 227.84956
1668.2051 228.43613
1668.866 230.60947
1669.8923 228.9442
1671.4214 228.0143
1671.2041 225.84984
1669.668 226.69691
1668.1221 226.18062
1667.856 224.2502
1668.6962 222.31444
1667.033 220.71219
1665.9202 222.29362
1665.7721 224.18852
1666.2163 226.00038
1664.374 225.75024
1662.9847 226.75595
1661.6533 227.7265
1660.2407 225.83916
1658.6514 227.34827
1656.7625 225.8864
1658.835 224.42041
1657.5186 223.33633
1656.4797 221.34816
1654.1903 222.52815
1655.8843 223.513
1654.4985 224.8483
1652.1636 224.34999
1651.9631 222.56569
1649.8936 222.38266
1650.7217 220.61183
1648.897 220.05656
1646.969 219.08902
1647.2167 220.8858
1647.5116 222.46173
1648.6978 223.60815
1647.6705 225.39693
1649.7717 224.87102
1651.2544 226.10426
1651.5751 228.15268
1653.4188 229.09413
1653.6978 226.68613
1655.8419 228.1279
1657.593 229.60991
1660.1683 229.02974
1658.9941 231.10748
1660.2997 232.40355
1662.2438 233.09431
1660.9193 234.10924
1659.3765 235.00954
1658.314 233.32076
1656.6183 231.90517
1654.9354 230.53748
1651.8894 231.00562
1649.8071 231.25298
1649.564 229.08852
1649.2263 227.03401
1647.2764 227.5579
1645.8105 226.12904
1644.2626 226.67691
1644.9088 228.49255
1646.5479 229.3656
1647.7401 230.58809
1647.7532 232.63501
1648.3815 234.53593
1648.2775 236.31743
1647.9988 238.38655
1648.2292 240.8859
1646.3019 242.28735
1645.6099 240.37532
1642.8129 242.18556
1643.5812 239.28273
1645.7169 238.12865
1646.2844 236.07674
1645.7118 234.04831
1645.5187 231.73967
1643.8821 230.26112
1641.8735 231.31168
1643.5092 233.09445
1641.682 234.09834
1644.0491 236.07141
1642.1583 236.46799
1641.4657 238.77823
1640.256 241.22278
1640.1556 244.1989
1637.9482 245.61865
1639.1692 247.63069
1637.6599 249.41554
1636.6528 247.5221
1636.241 243.99345
1637.5052 242.58476
1637.708 240.46924
1639.0217 238.62114
1637.1099 237.62038
1635.427 238.13687
1635.3888 240.26114
1634.355 241.90456
1634.0443 244.08493
1632.4176 243.11385
1630.7458 242.03796
1632.3651 240.47023
1633.4346 238.53899
1633.9954 236.05704
1636.0396 235.61389
1634.9224 233.75322
1632.9475 234.0205
1632.4105 232.23894
1630.8818 232.03789
1629.78 232.9335
1630.9154 234.21405
1631.7638 235.58131
1629.3561 236.53606
1630.6786 238.68384
1629.5962 240.18251
1627.7781 239.68643
1628.5306 242.11789
1629.2686 244.2361
1630.978 244.51476
1632.661 245.87903
1635.2239 245.803
1634.2399 247.42076
1633.9575 249.32777
1635.7478 249.28014
1635.2427 251.05736
1637.037 251.36188
1637.6528 253.08412
1637.7026 254.71135
1637.283 256.24304
1636.6158 257.69925
1635.0951 259.99707
1635.0205 262.19055
1636.4456 261.22998
1637.6504 259.43198
1639.1272 258.07693
1641.0187 257.21948
1639.3713 255.81174
1641.4102 254.80165
1639.5188 253.72462
1639.7417 251.36514
1641.1917 252.63307
1642.9858 252.72737
1644.2327 254.50613
1645.1846 252.62744
1644.7714 250.83916
1647.3643 251.83908
1649.4194 251.90451
1650.361 254.47278
1652.2329 255.15474
1652.441 257.5328
1650.7876 257.23492
1649.3379 256.17648
1648.1259 254.64801
1646.333 254.52788
1644.92 256.8326
1642.9365 255.85408
1643.1603 257.84366
1644.3706 259.47742
1642.0503 259.44955
1640.7421 260.29614
1641.7316 262.80862
1644.0581 261.54797
1644.2701 263.62128
1641.8936 265.28506
1643.4648 265.877
1643.5479 268.41135
1645.7578 268.73404
1647.984 268.51117
1647.4944 270.56345
1649.734 269.6984
1651.6616 270.666
1652.2157 272.4611
1654.0842 273.41394
1652.5205 274.655
1649.953 273.54507
1649.7357 271.62006
1647.1935 272.31668
1644.9431 271.29193
1642.7062 270.66406
1641.2051 269.24603
1639.7488 270.19064
1638.6493 268.32916
1641.0879 267.38123
1640.1178 265.40845
1639.4814 263.63568
1639.5931 261.27637
1638.2327 261.79233
1637.2737 263.6744
1638.3275 266.2433
1636.1697 266.54837
1636.9683 269.80823
1635.6296 268.64908
1631.9875 270.66147
1633.6586 267.72983
1628.5392 263.5925
1630.9009 262.34155
1632.8838 261.3911
1630.9374 260.46463
1628.8844 261.59335
1629.0223 259.99948
1630.126 258.74976
1632.0936 259.36746
1633.4841 259.00558
1634.911 258.09683
1633.287 256.74637
1631.8955 255.63965
1634.9229 256.25104
1635.5706 254.88022
1635.9144 253.30602
1634.5869 252.8207
1633.3873 254.3941
1631.722 252.8376
1633.4192 252.01968
1632.7808 250.57271
1632.2389 248.3859
1631.0903 250.60307
1630.604 254.44058
1630.1011 256.19418
1631.5646 257.60806
1629.2301 257.51154
1627.9624 258.2033
1627.0667 259.18805
1626.9432 260.69965
1627.2083 262.46356
1626.6174 264.6402
1625.636 262.57574
1625.2144 260.62433
1624.0132 259.50024
1623.6787 257.46957
1623.6322 254.99756
1625.1792 256.62863
1625.4926 258.52548
1626.8018 256.57266
1628.297 256.0913
1628.2078 254.48425
1629.2501 253.0582
1629.6127 251.52248
1626.9829 251.80424
1626.4736 253.4414
1625.4694 254.66367
1624.0889 252.21735
1622.4492 253.12323
1588.9506 260.79413
1588.1089 262.0497
1587.88 263.3147
1586.6835 264.01855
1586.2429 266.21268
1583.9166 265.21146
1585.3679 264.64426
1586.7281 262.41687
1585.7904 261.20895
1585.98 259.57013
1587.4509 260.50806
1588.1614 258.80402
1588.0065 256.68353
1585.989 257.6471
1583.932 257.69955
1582.905 255.85602
1585.7214 255.20103
1583.3762 253.6282
1580.7733 254.74838
1578.3676 253.49557
1580.3325 252.49078
1579.5366 250.58391
1577.6519 249.45041
1576.178 251.42601
1576.5533 254.85843
1575.4156 256.5833
1573.2424 256.0923
1571.0496 256.1358
1569.3807 256.64212
1567.9225 258.12668
1567.2478 256.65875
1565.8702 257.45023
1567.4753 259.58783
1566.1115 260.79276
1565.1431 259.44443
1564.0023 258.12064
1562.2905 257.63034
1560.5221 258.39966
1560.8229 261.02997
1562.5521 259.75266
1563.6587 261.531
1562.2186 263.24677
1562.6085 265.41055
1564.4972 266.35635
1564.2906 264.1957
1565.3843 262.5366
1567.2855 262.4273
1568.5803 261.09802
1569.574 258.9141
1570.6748 260.39566
1572.703 261.08572
1571.6715 258.37848
1573.9358 258.58136
1575.0999 260.67368
1576.8771 258.6657
1578.2605 256.4601
1580.1602 257.21985
1581.7979 258.17822
1584.2592 259.858
1585.0784 262.60092
1583.8813 263.50772
1583.3859 261.68942
1582.501 260.06296
1580.7906 260.4708
1579.1881 259.45798
1577.486 261.1703
1579.3267 262.29608
1581.1995 262.33685
1582.2463 263.4383
1582.1587 265.10062
1580.5411 266.09308
1580.1353 264.43155
1578.0093 264.06598
1576.2087 263.3669
1574.2307 263.4587
1571.989 263.5074
1570.3613 262.32397
1568.9337 263.34525
1570.1604 265.04428
1570.1752 267.0851
1572.0298 268.30908
1570.5706 269.65067
1571.7938 271.82123
1573.9629 270.53833
1576.053 271.7714
1574.2086 268.0697
1572.7573 265.73645
1575.6584 266.2942
1578.0823 266.2268
1576.9763 269.32816
1578.914 271.448
1578.4275 273.2899
1575.3756 274.2887
1573.2917 273.93222
1569.4873 271.45456
1566.6238 272.23795
1567.6907 270.6275
1568.5869 268.7023
1567.9789 266.78268
1567.9745 264.78088
1566.2603 264.18588
1566.311 265.93237
1565.7327 267.6518
1566.6512 268.94623
1565.5729 270.51404
1563.7666 271.01404
1562.0813 271.8466
1562.2146 273.34967
1563.9375 273.3261
1565.0366 272.5759
1566.2668 274.43808
1568.4697 273.29544
1570.6549 274.35638
1571.9694 276.29556
1571.6412 278.38266
1569.3802 278.33212
1568.5883 275.69586
1564.2946 275.42416
1562.9647 274.5378
1562.3086 275.7043
1563.5066 277.43848
1565.6901 276.58435
1567.4329 277.38174
1568.3019 280.12186
1565.8789 281.3235
1566.6685 279.14502
1564.6531 278.50568
1565.0535 280.07602
1563.2856 280.19943
1562.5522 281.75388
1561.7888 279.22223
1561.7762 277.21667
1560.015 278.0575
1559.3232 279.86642
1560.898 281.41364
1558.9681 282.15146
1557.1936 280.37927
1557.5052 278.40546
1555.4354 278.63052
1554.9667 280.8613
1552.5367 283.7733
1551.3552 284.734
1549.7551 284.8079
1548.2361 284.02142
1547.0314 283.02158
1546.5682 284.48337
1548.0679 285.703
1546.3027 286.10583
1544.499 285.9974
1545.0 284.28897
1544.3495 282.3854
1545.5704 282.4313
1546.2628 280.67966
1546.4238 278.66092
1544.825 279.42532
1543.5115 280.17313
1542.2166 279.51648
1540.9332 280.5696
1540.7511 279.17694
1540.5212 277.80966
1541.9287 277.27185
1543.2968 277.84653
1544.7432 277.0501
1546.4037 276.67175
1548.1411 277.3127
1549.9254 277.3501
1549.3821 275.73914
1547.5688 275.0618
1545.4358 274.57007
1543.5771 275.3121
1543.8965 272.8217
1542.4425 271.14743
1540.8389 269.80728
1541.1562 268.24072
1540.3927 267.08182
1538.8472 268.54254
1539.375 270.48236
1538.1761 271.50256
1536.6565 271.62347
1537.4824 269.60068
1535.81 269.8052
1534.5834 270.98126
1535.6715 272.97406
1537.4086 273.50058
1539.244 272.68604
1540.9187 272.0023
1542.2793 273.75113
1541.6575 275.6357
1540.0498 276.1067
1540.6458 273.95718
1539.0828 274.5112
1537.3063 275.15143
1538.3872 276.43314
1538.9851 277.90225
1539.0332 279.4099
1538.8003 280.98856
1537.2916 280.12823
1536.828 282.22897
1538.905 283.1404
1540.6411 283.00885
1542.314 283.54858
1543.4177 284.54117
1542.0848 285.90308
1540.8302 284.9054
1539.1821 285.36826
1537.1925 284.27176
1534.8104 283.5156
1533.8949 281.82373
1531.9369 282.81036
1529.1797 282.31097
1526.9844 281.9102
1524.9441 282.46277
1525.3132 279.9686
1522.573 280.8871
1522.3193 282.7606
1520.1765 282.0457
1522.4027 279.19046
1523.038 277.16296
1525.5149 277.616
1523.2603 275.1531
1524.5283 273.52606
1525.9646 275.06146
1528.0864 275.36716
1528.5614 273.4978
1531.2068 273.20218
1533.0111 275.14984
1531.0643 275.18985
1529.9801 276.61398
1528.0547 277.5125
1528.431 279.5632
1530.7498 280.55002
1532.9794 279.82224
1535.4506 280.4968
1531.5859 278.00583
1533.9204 276.94357
1534.9385 278.5806
1537.1506 278.2666
1536.256 276.71448
1535.2834 274.99814
1533.9242 273.32162
1532.8447 271.7416
1531.924 269.9581
1530.5654 270.9696
1528.8857 271.37692
1526.7416 271.65625
1513.5507 262.56958
1511.8055 263.15915
1510.0435 264.98953
1509.625 263.15237
1508.2661 261.9199
1510.5205 260.73483
1512.7672 260.07654
1514.2407 258.71045
1516.2429 259.6685
1516.3093 257.01965
1517.8489 255.41153
1514.144 256.17572
1512.1216 256.60248
1510.4365 258.168
1508.2333 259.15308
1506.4802 259.31647
1507.5087 256.16623
1509.6516 255.73358
1508.0901 253.03955
1510.2003 251.13457
1510.6754 253.76848
1512.8833 253.62566
1515.3855 254.33548
1516.8237 252.78711
1515.2706 251.94325
1515.2563 249.81458
1513.2051 251.13731
1511.6006 248.70143
1513.6415 247.11732
1511.6766 244.94084
1514.4 244.53664
1514.583 241.56285
1517.8389 239.69722
1517.1433 242.6584
1516.9667 245.31241
1518.2567 247.01149
1519.7483 245.12373
1519.775 242.00876
1520.9119 239.33325
1523.3352 238.6345
1524.749 239.9574
1526.6207 241.08736
1528.2856 241.5764
1527.8076 243.62135
1526.0342 244.63268
1523.9893 244.29813
1525.2118 242.43922
1522.8264 241.5661
1521.6317 243.54083
1522.1458 245.68903
1523.4749 247.02089
1525.4158 246.63689
1526.847 248.17697
1527.2612 249.8865
1525.9901 250.69904
1524.4269 250.77922
1524.4714 248.74268
1521.7904 248.10255
1519.9666 247.79512
1518.9056 249.58699
1517.3334 248.93292
1515.733 247.67061
1517.6411 251.07794
1519.4973 251.46332
1518.3652 253.45561
1520.1992 254.1478
1520.4717 252.74362
1520.7283 249.89653
1522.8448 250.1665
1521.8109 251.54564
1522.6162 253.3982
1524.4532 252.74008
1528.5093 251.29524
1529.0583 249.37744
1530.9546 250.24228
1532.6382 249.00032
1533.3118 247.08531
1535.0422 248.24936
1535.2886 246.8622
1537.3003 247.63704
1536.8239 246.31961
1536.8091 244.28479
1538.8085 243.4808
1539.9828 241.82732
1541.177 245.18646
1538.4312 245.53154
1539.7651 246.52661
1544.6372 259.50967
1545.1716 261.2877
1542.5682 260.5351
1540.12 261.75156
1543.2382 263.758
1543.351 265.83765
1542.89 267.29657
1542.9513 269.142
1544.4122 270.59897
1545.0571 268.7472
1545.3069 266.19986
1547.1033 265.45596
1548.6356 264.28427
1546.2285 262.97168
1548.233 261.04553
1547.0582 259.51196
1549.4915 259.3577
1549.6177 257.913
1551.3638 258.13336
1553.111 258.51648
1554.7992 258.0936
1554.2068 259.90805
1551.8442 259.7361
1550.4785 261.31534
1552.4647 261.24448
1554.2278 261.67664
1555.2229 263.1248
1555.7239 264.74466
1555.5242 266.69443
1553.5215 267.78586
1555.2437 269.23175
1557.1803 268.33496
1558.8037 269.84286
1558.6633 273.15823
1558.1648 274.80212
1556.4485 273.68933
1554.4661 275.06876
1554.7039 272.9847
1556.906 271.22787
1554.3008 271.0894
1552.4742 270.1704
1550.2461 270.68692
1549.4775 268.80908
1551.3796 268.3672
1551.7579 266.2969
1553.4728 265.0909
1552.6731 263.04523
1551.0718 264.18076
1549.7347 266.16528
1548.2194 267.42395
1546.75 268.397
1547.8444 270.53156
1545.8484 271.6289
1546.9237 272.9904
1548.6448 272.83273
1549.7682 274.11307
1550.6458 272.4795
1552.4792 272.5335
1552.8657 274.1858
1551.2057 274.8611
1552.7585 275.90408
1551.3679 276.66483
1551.8966 278.1264
1551.4922 279.6758
1549.8513 279.04382
1548.1055 279.23843
1548.4434 280.7779
1550.3606 281.15164
1552.6508 281.01935
1553.5267 279.33313
1553.6781 277.37436
1555.3568 276.44775
1556.8635 276.2544
1558.697 276.6734
1560.3293 275.84586
1560.6776 274.0479
1559.7805 271.88058
1560.93 270.28195
1562.6644 269.4455
1564.3652 268.8666
1562.7854 267.27914
1561.2955 268.1773
1559.8298 267.81006
1560.5027 265.39816
1559.9722 263.19458
1558.5315 266.75342
1557.8187 265.32584
1557.7487 263.54852
1556.2074 261.3603
1558.1432 261.80362
1558.5919 260.01816
1558.6554 258.04346
1556.2023 259.64832
1556.7583 258.16983
1554.6029 243.65659
1554.4546 241.44597
1556.2625 240.59749
1556.8976 242.31181
1560.1987 242.37425
1558.9814 240.77336
1557.8633 238.95769
1557.5896 236.74559
1556.0222 235.73119
1553.9542 235.36197
1554.373 237.28906
1555.7625 238.62498
1553.6666 239.10147
1552.5594 240.4039
1551.4758 238.4427
1552.316 236.84142
1552.0267 234.77234
1550.5435 234.14195
1550.2955 232.49501
1548.0099 233.52583
1548.2488 231.5368
1548.461 229.18788
1546.127 229.49823
1546.0162 231.96735
1544.2045 230.9235
1542.2654 231.12227
1540.0477 231.35008
1540.9365 232.91264
1542.3708 233.85379
1544.0887 233.61931
1542.2515 235.78621
1540.2632 235.13783
1538.622 233.63904
1537.7773 231.80276
1535.9177 232.69595
1536.4684 234.83125
1538.4872 235.8709
1537.265 237.03084
1535.3302 236.91788
1534.1694 234.58104
1531.8561 235.379
1530.233 237.14116
1532.9498 237.13904
1534.0605 238.72963
1534.6733 240.96909
1535.9956 239.73952
1537.1221 238.76685
1538.8256 238.1852
1540.5488 237.35268
1542.5349 237.6725
1544.2166 236.38281
1546.1317 236.29546
1545.8728 234.19495
1547.5994 235.54419
1549.2555 235.36621
1549.9672 236.91545
1547.6285 237.98708
1545.5558 238.16794
1544.5544 239.87709
1546.5317 240.20969
1548.4355 241.02827
1549.0831 238.79395
1550.3026 239.86337
1550.9569 241.31435
1552.6389 242.33266
1552.0063 243.9167
1550.021 244.4372
1549.996 242.64055
1548.0503 243.33044
1546.2972 242.39194
1544.2549 242.04907
1546.1422 244.6232
1543.6927 244.31395
1541.6222 243.21939
1542.314 241.2616
1543.1333 239.15196
1541.3187 239.66801
1539.8185 239.56654
1538.2224 240.67635
1536.7645 241.99287
1534.8287 243.04536
1534.981 245.14035
1533.0824 244.80435
1531.3275 246.18217
1530.954 248.12512
1529.1548 247.3683
1527.6555 246.08524
1529.5028 244.97928
1531.1156 243.87328
1530.1422 241.92456
1532.5676 242.43239
1532.81 240.49689
1531.2601 239.43611
1529.011 239.20694
1527.0205 238.89326
1525.88 237.32324
1526.7065 235.3587
1528.3716 235.86748
1529.5842 234.0233
1530.7374 232.04465
1531.8024 233.2111
1533.5317 232.02739
1535.081 230.57935
1536.8823 229.59872
1538.6539 230.12782
1538.8838 228.535
1540.6633 229.30948
1541.7826 227.77873
1543.245 229.04112
1544.2804 227.37013
1546.2695 226.82303
1548.2269 227.00519
1550.1799 226.64355
1551.8099 225.46825
1553.9065 224.76225
1552.2292 222.9841
1555.0492 222.4004
1555.984 223.82425
1555.9962 225.59764
1555.2181 227.16838
1553.4883 227.60262
1552.0608 228.96936
1550.2614 230.20578
1552.3961 231.68121
1554.2439 233.5352
1554.7228 231.55032
1555.2826 229.88646
1556.647 228.55049
1558.3772 229.41158
1557.8339 231.21683
1556.721 233.24417
1558.5942 234.87354
1559.0813 232.99147
1560.2307 231.02608
1560.5612 228.80878
1562.2296 229.61044
1562.27 231.5841
1561.0354 232.81978
1560.8448 234.38611
1560.724 235.92206
1559.4667 237.05566
1560.3333 238.8622
1561.9014 237.22208
1562.4341 235.64102
1564.364 236.39717
1564.3312 238.17825
1562.6345 238.55359
1561.4194 240.96623
1563.3342 240.34424
1564.9187 239.9956
1565.0757 241.3225
1566.6697 240.05937
1565.9026 238.78345
1566.3695 237.36142
1566.7137 235.64615
1566.7983 233.84987
1565.0292 234.45792
1563.4894 234.77312
1562.6881 233.45103
1564.2886 232.79532
1563.9924 231.03194
1564.381 229.08257
1565.9834 230.24797
1565.9941 232.11305
1568.0786 231.51247
1568.6865 233.35764
1569.7811 234.57487
1568.5372 236.67316
1568.0433 238.89368
1569.9569 238.90376
1571.707 238.0582
1570.6904 236.18988
1571.4976 232.96178
1570.7943 231.10327
1572.4222 229.40024
1570.8948 228.46896
1569.1932 229.74445
1567.2406 228.82553
1565.2605 226.96758
1563.1002 227.40295
1561.5603 226.43973
1560.218 224.59633
1559.0137 225.73209
1559.2233 227.51811
1557.4165 226.73154
1557.6863 224.29245
1558.587 222.78911
1559.345 220.56197
1561.0654 221.94183
1561.9585 224.15053
1563.5466 223.04514
1564.6641 224.7821
1567.3676 224.73987
1567.3835 226.81807
1569.4963 226.6695
1572.46 226.82838
1573.4844 224.47209
1574.9065 226.02101
1574.3191 227.71808
1577.7262 226.32047
1576.2483 228.29985
1574.2921 229.45183
1573.1371 231.19154
1574.3492 232.3777
1576.1251 230.75476
1578.3728 229.32957
1580.7744 229.99701
1580.4016 231.94814
1578.465 231.20734
1577.8545 233.06812
1579.794 234.0876
1581.6637 234.53857
1578.572 235.61615
1577.2753 236.96239
1576.1858 233.5719
1574.2833 234.38573
1572.4257 234.76018
1573.1906 236.58112
1575.6719 235.8637
1575.6412 238.28148
1575.1671 239.9533
1572.3007 240.57263
1568.1426 243.23692
1573.263 245.48709
1577.2849 246.42332
1579.6775 244.11115
1582.2433 238.08147
1581.8439 244.36617
1580.331 246.23566
1580.0807 248.31087
1582.4319 246.51642
1584.2802 245.9188
1585.2745 247.5358
1586.9628 248.42497
1584.9717 249.83578
1582.836 248.5451
1581.7736 250.57184
1583.4318 251.50937
1585.7506 252.47314
1587.0884 250.66884
1588.4674 249.73227
1588.7003 248.27852
1621.0986 248.915
1621.8052 247.19131
1623.8589 246.95445
1625.6823 245.23367
1625.1517 248.10577
1622.9003 249.9004
1625.2046 250.4194
1626.8081 248.98663
1628.2897 250.25763
1630.2496 248.88806
1630.8616 246.82014
1629.0492 246.28683
1628.5706 248.2004
1627.0327 246.6198
1627.4386 244.19301
1626.1575 242.25328
1624.3845 243.94666
1622.6611 245.17793
1620.8462 245.20073
1620.8464 243.23596
1622.5366 242.99919
1623.2334 241.37427
1625.1632 240.27577
1623.8694 233.18372
1626.7576 230.11934
1628.2366 231.7286
1629.4261 230.60228
1629.24 228.91559
1627.9973 227.26668
1630.2322 226.87238
1631.6099 228.55396
1631.1948 230.29274
1633.0804 230.12675
1634.1385 231.79175
1636.0664 232.06584
1635.2281 229.91698
1635.5527 227.67255
1637.3333 229.02197
1637.6731 231.17502
1637.4309 233.78693
1638.3555 235.85199
1640.1493 236.19754
1639.5997 233.38162
1639.7694 231.28502
1639.5571 229.31107
1641.7208 229.08087
1642.7712 227.64941
1640.5758 227.26176
1638.7732 227.06294
1637.1653 226.71042
1636.6127 225.20766
1634.358 225.53497
1633.7296 228.02335
1632.4187 226.7077
1632.0133 225.17058
1632.7428 222.99992
1634.6884 222.34683
1635.9812 221.14044
1635.6357 223.79605
1637.2666 222.89305
1638.7961 224.50826
1640.7532 225.13072
1642.6675 225.35939
1644.4634 224.32451
1646.3605 223.99368
1645.2827 222.20186
1642.9518 222.73544
1641.0115 222.69495
1639.2695 222.12148
1637.9761 220.96909
1636.0879 219.46045
1637.5569 219.31223
1639.6166 219.06631
1640.8738 220.25737
1642.7488 219.83473
1644.6858 220.50107
1644.9595 218.46365
1647.4894 217.11514
1649.7098 218.30894
1651.1995 216.72427
1653.5486 217.14746
1652.0398 218.88553
1652.669 220.82301
1654.4703 220.4834
1654.3885 218.76938
1655.9497 217.60927
1656.5247 219.24126
1658.8289 218.02698
1658.3381 219.85242
1658.9377 221.73004
1660.5645 223.28102
1662.1166 224.93417
1664.0243 223.58109
1662.5869 222.79854
1663.736 220.82463
1661.4485 221.25053
1660.4728 219.57565
1662.2996 218.33708
1665.2295 219.39532
1665.4518 217.6842
1667.8263 218.4708
1669.381 220.00395
1671.013 221.37723
1670.1533 224.00897
1672.1971 223.24371
1672.8296 225.36386
1673.3851 227.38853
1674.9924 228.86243
1676.2845 227.86012
1677.3307 229.54893
1678.2417 231.75558
1676.4252 231.52798
1675.4269 230.37541
1674.0286 230.92975
1675.2823 233.03531
1674.1417 234.40747
1671.853 235.03227
1671.7417 233.31497
1672.8453 232.01903
1672.8768 229.36053
1671.1167 230.68492
1669.756 232.52173
1669.4996 234.48308
1670.1129 236.31392
1672.0385 237.02391
1673.6241 236.31471
1675.0728 237.97557
1676.0242 235.95238
1677.5543 233.89229
1682.0807 233.41309
1680.145 232.21283
1679.081 229.4458
1678.4275 227.16837
1680.3486 227.49281
1679.8501 225.2458
1678.0872 224.5002
1676.9624 226.312
1674.8237 226.31784
1675.8406 224.9569
1676.6417 223.60751
1675.1797 222.42345
1674.1255 224.02966
1673.2562 221.38843
1674.917 220.34064
1677.3088 221.94179
1678.9456 221.00641
1679.9108 222.80656
1682.0566 222.72968
1682.0524 224.71068
1682.0338 226.69516
1683.889 226.65097
1682.7256 228.83847
1680.8516 229.68025
1682.1711 231.11986
1683.701 232.16972
1684.1926 230.12065
1684.936 228.35614
1686.1311 229.77834
1685.2458 231.4196
1687.0021 231.137
1686.6355 232.52933
1685.259 233.2183
1684.0587 234.27737
1686.6843 234.1785
1687.3765 236.25516
1688.1139 234.87402
1688.2592 232.70927
1689.4725 234.21896
1689.7404 236.13576
1688.9696 238.25659
1687.2115 238.57379
1686.0616 237.30656
1685.2057 235.74597
1684.8365 238.71152
1683.3752 237.5141
1682.9238 235.87001
1681.2607 235.60303
1679.7083 234.74179
1678.3184 236.28758
1677.829 238.31035
1680.4174 238.28978
1682.5237 239.45865
1684.0029 240.63213
1685.5879 241.53745
1685.8777 240.01979
1687.5032 240.85448
1690.2316 239.98949
1691.3564 237.51283
1692.8777 239.85292
1691.6351 242.40543
1694.3678 242.91014
1695.6322 245.08981
1698.35 246.71294
1703.305 251.46129
1703.3331 259.11795
1697.852 264.27612
1699.4624 265.69357
1701.2606 266.3563
1699.5112 268.51224
1702.36 271.8769
1699.9141 271.91095
1697.5364 271.48624
1697.2803 269.35568
1695.4551 270.61566
1695.9427 272.2882
1694.7928 273.04407
1694.0599 272.056
1693.0972 273.3199
1691.7983 273.30807
1693.4412 270.6387
1691.7388 271.35275
1690.0851 272.30954
1689.6115 273.88324
1688.1259 273.45486
1688.7402 271.23352
1687.0062 271.17136
1686.4808 273.069
1686.037 274.52884
1684.4568 273.98227
1682.5769 274.95255
1680.4651 275.59265
1679.583 273.78397
1681.2644 273.13007
1683.1915 272.5732
1685.2021 271.48953
1683.6389 270.3033
1685.2511 268.84018
1686.2911 266.91476
1687.611 269.18933
1688.477 267.2968
1689.1344 265.49954
1687.4001 264.81363
1685.3833 264.74066
1683.6926 265.65814
1682.031 264.50433
1679.7313 264.09665
1680.2092 265.69135
1681.1339 266.9866
1683.2719 267.55206
1682.0715 269.1265
1681.5356 271.02615
1679.5187 271.6806
1679.1295 269.83884
1680.3335 268.75046
1678.7322 267.54266
1677.9419 266.08603
1677.6733 264.5545
1678.2234 262.811
1679.5408 261.79153
1681.3971 262.50723
1683.711 262.6836
1682.5114 260.59808
1684.7998 260.04825
1685.6063 262.4496
1687.4469 262.82892
1689.2145 263.43246
1690.8206 264.35367
1691.9733 262.64453
1693.8556 262.58093
1693.0658 264.26373
1691.9979 265.67242
1690.6155 266.719
1690.1443 268.43866
1690.0803 270.1027
1692.1478 269.33203
1692.5524 267.59558
1694.1074 266.27167
1694.6682 268.66568
1696.5432 266.86035
1695.3323 264.3654
1696.1559 262.2223
1694.6997 260.18033
1693.6022 261.0004
1692.6394 259.24472
1691.0295 258.52408
1689.6241 259.23898
1691.6404 260.76505
1689.7068 260.75766
1687.8611 259.33923
1689.337 257.24796
1687.8739 256.16306
1686.0485 255.94551
1686.6003 258.0771
1684.6547 257.87582
1684.2186 255.91719
1684.9392 254.12556
1682.2076 252.98004
1680.5852 253.86746
1681.224 255.49072
1683.0684 254.5248
1682.7577 256.8843
" />
</g></g></svg>
