<?xml version="1.0" encoding="UTF-8" standalone="no"?>
<!-- Created for Inkscape (http://www.inkscape.org/) -->

<svg
   xmlns:dc="http://purl.org/dc/elements/1.1/"
   xmlns:cc="http://creativecommons.org/ns#"
   xmlns:rdf="http://www.w3.org/1999/02/22-rdf-syntax-ns#"
   xmlns:svg="http://www.w3.org/2000/svg"
   xmlns="http://www.w3.org/2000/svg"
   xmlns:sodipodi="http://sodipodi.sourceforge.net/DTD/sodipodi-0.dtd"
   xmlns:inkscape="http://www.inkscape.org/namespaces/inkscape"
   width="3200"
   height="800"
   id="svg2985"
   version="1.1"
   inkscape:version="0.48.1 r9760">
  <defs
     id="defs2987" />
  <sodipodi:namedview
     id="base"
     pagecolor="#ffffff"
     bordercolor="#666666"
     borderopacity="1.0"
     inkscape:pageopacity="0.0"
     inkscape:pageshadow="2"
     inkscape:zoom="0.35"
     inkscape:cx="1600"
     inkscape:cy="400"
     inkscape:document-units="px"
     inkscape:current-layer="layer1"
     showgrid="false"  />
  <metadata
     id="metadata2990">
    <rdf:RDF>
      <cc:Work
         rdf:about="">
        <dc:format>image/svg+xml</dc:format>
        <dc:type
           rdf:resource="http://purl.org/dc/dcmitype/StillImage" />
        <dc:title />
      </cc:Work>
    </rdf:RDF>
  </metadata>
  <g
     inkscape:label="Layer 1"
     inkscape:groupmode="layer"
     id="layer1"> 
     <g>
<path style="fill:none;stroke:black;stroke-width:2px;stroke-linejoin:round;stroke-linecap:round;" d="M 
1367.7216 332.01135
1365.7836 333.8777
1363.3351 335.56094
1360.84 332.9734
1362.9034 330.10168
1366.3911 329.21692
1366.5552 326.30084
1367.2375 323.7537
1364.3838 322.93158
1363.5188 320.58282
1360.5925 322.12677
1361.5431 326.08163
1356.8752 324.43994
1357.0536 327.78894
1360.2325 328.83133
1357.6453 331.20648
1357.1613 334.20523
1354.1731 333.38086
1354.1776 336.76724
1353.8818 340.67917
1353.8959 343.99313
1356.3317 344.2878
1358.1965 340.87042
1356.581 338.47256
1358.9302 336.32428
1361.3269 338.43857
1361.6927 341.63977
1363.2181 344.63
1359.265 345.2679
1357.9441 347.89243
1361.554 348.0273
1363.3123 350.6361
1365.9321 351.24832
1365.3634 347.79892
1368.8757 347.56403
1371.8141 346.46
1373.9774 344.0738
1377.4698 344.36517
1376.8547 339.99258
1376.5887 337.13394
1371.9597 339.8492
1369.8993 342.98602
1366.8159 344.88437
1365.7278 341.25262
1367.6251 337.70514
1371.6978 336.93835
1370.7506 333.728
1373.9943 333.71133
1377.7502 333.6134
1376.963 329.80194
1373.9819 330.21997
1369.6971 329.4408
1372.3989 327.2144
1369.8396 325.05826
1370.8627 322.21152
1373.5609 321.8593
1375.1576 325.805
1378.3506 325.48703
1378.2172 322.56998
1377.5248 319.5342
1379.2764 313.8943
1377.416 311.59244
1374.2937 310.64804
1375.5123 313.51572
1377.3116 316.4233
1374.0437 318.61395
1371.4352 318.53488
1368.58 318.01672
1367.5808 321.24573
1365.4359 318.60376
1365.533 315.6588
1369.2528 313.7043
1372.2882 314.1071
1366.1519 312.01385
1363.3107 313.42557
1361.8862 317.91574
1360.8678 315.1638
1360.8696 311.07748
1358.0535 312.9218
1355.2402 313.63626
1354.1097 308.10602
1354.6971 303.83585
1359.1198 307.84033
1362.0585 304.45413
1366.0198 303.5529
1363.6964 307.25092
1368.0743 309.25705
1371.9742 308.43637
1376.3618 307.68893
1377.2533 303.1433
1379.2378 299.1047
1379.534 295.3325
1376.7397 296.97278
1376.0325 300.1911
1372.8679 299.01038
1372.0256 302.0877
1375.1466 305.36374
1370.0192 304.63553
1369.0464 300.8675
1368.3115 297.76062
1365.0073 298.47827
1362.1484 300.70746
1358.4707 303.11557
1356.5964 299.86307
1357.5804 295.42075
1353.6577 297.01636
1349.0579 298.32404
1350.6517 301.57413
1350.223 305.96982
1350.5674 310.7913
1349.4366 314.26367
1352.9027 314.6506
1352.0549 317.27313
1355.3331 317.16428
1358.6183 317.92496
1357.2678 320.75235
1353.6005 322.44177
1353.6533 319.6711
1350.2688 319.96857
1352.2561 324.80536
1353.7073 327.45102
1353.9341 330.4066
1349.1504 325.91388
1350.3738 329.45474
1350.9631 332.33725
1349.5447 335.45297
1349.6786 339.28537
1350.8523 342.25592
1348.2104 343.45703
1350.744 345.6395
1352.7327 347.7629
1349.0562 349.63116
1350.2052 354.5165
1352.5327 352.07233
1355.2762 350.2878
1358.5793 350.3839
1360.3551 352.21548
1356.4911 353.6609
1359.7506 355.59042
1363.228 354.47186
1366.4452 356.11005
1368.1082 353.9003
1370.618 355.03864
1370.6368 351.101
1372.9684 352.21982
1373.4794 349.3219
1376.121 346.88052
1378.492 349.2175
1375.9769 353.70184
1377.6884 355.77625
1373.1981 356.50272
1375.2167 358.01498
1374.8925 361.2631
1373.6633 364.19235
1370.5641 364.82083
1371.4602 370.2035
1374.9535 367.79572
1377.7294 364.71335
1378.4697 368.2476
1377.0968 373.4079
1377.5537 378.16458
1375.2858 380.88947
1376.3536 384.9705
1378.6318 387.20828
1379.4337 390.50943
1377.205 391.4375
1376.9589 395.59317
1374.878 392.9733
1371.963 393.3853
1370.0833 395.7004
1373.4594 398.0297
1376.6953 399.65018
1377.6738 402.71893
1377.2296 405.61658
1373.7887 403.29858
1370.9044 405.60883
1369.4844 402.11157
1368.9341 398.85934
1365.7699 397.41757
1366.9664 394.9414
1368.5181 392.73434
1370.2269 390.2098
1372.9414 390.25287
1375.6768 388.3585
1373.1525 385.40262
1370.1522 386.9546
1367.1205 387.1459
1367.0348 390.09308
1363.5698 389.46152
1364.1052 392.43997
1363.8347 395.21408
1361.5022 396.31128
1360.7062 394.0827
1361.0438 390.84238
1358.211 392.72385
1355.4753 393.023
1353.3884 390.99362
1357.1959 390.20477
1359.6885 387.9586
1362.9592 385.77664
1365.9303 383.89078
1370.4358 382.7504
1371.7942 378.51007
1372.4952 374.82623
1368.3577 375.29932
1365.2336 377.50223
1367.0443 380.19812
1362.7153 380.61987
1358.4476 384.11374
1354.8737 387.1389
1353.9756 383.24203
1354.5753 379.4704
1358.5093 380.28625
1359.9054 377.44583
1362.0343 375.08273
1364.4678 373.20233
1367.2361 370.4589
1367.0751 367.33612
1363.6866 369.33374
1360.0679 368.86224
1360.6151 372.0337
1358.2631 373.54648
1355.808 370.07443
1355.7289 365.22113
1354.9066 361.72205
1358.9135 363.80576
1362.0723 366.15817
1363.5035 363.9387
1367.2817 364.17453
1370.277 360.74063
1367.5627 358.53232
1365.7318 360.6191
1363.3275 357.61337
1362.5337 360.58234
1359.6532 359.63342
1356.528 358.85638
1353.7347 356.88077
1349.0791 357.65054
1350.385 360.91983
1351.222 364.35266
1351.106 367.94965
1351.8319 371.33984
1348.4543 371.582
1349.1211 375.60452
1352.0186 376.07208
1355.7563 375.1246
1350.7096 380.4149
1349.7192 385.48868
1350.6716 388.9385
1348.134 390.92896
1347.9929 394.72446
1350.4534 393.273
1352.9583 395.11163
1350.9774 397.5482
1353.4182 399.19955
1355.4233 397.0992
1358.1049 395.82593
1358.6859 398.56433
1356.3328 400.55884
1352.9594 402.66638
1349.9293 401.24802
1350.0659 405.61584
1353.1843 406.27185
1351.1603 409.12018
1348.6371 410.39246
1350.5428 412.4262
1354.6102 409.83026
1357.5576 407.60687
1356.7444 404.74057
1359.7777 404.85294
1362.5751 403.16205
1358.3622 402.13507
1360.6342 400.9351
1360.9362 398.6164
1363.2687 398.41232
1365.3625 400.57053
1365.6742 403.78033
1367.4121 405.58466
1364.4198 407.17606
1361.1321 406.7165
1361.9502 409.10205
1359.0796 410.25278
1357.0809 413.4312
1359.6316 415.94666
1361.7012 412.97565
1363.9603 411.4072
1366.8855 409.6782
1369.8334 411.1788
1373.2307 409.33334
1375.6019 407.9122
1377.5006 410.16312
1378.9952 413.376
1375.6681 413.0846
1372.8334 413.69144
1377.4305 416.3569
1373.6521 417.00635
1369.7074 420.49265
1368.4384 417.3108
1369.8835 414.79672
1366.6423 413.62564
1364.2427 415.88522
1362.3342 418.16135
1365.3965 420.2154
1362.5443 421.70398
1358.0637 420.20602
1356.1564 417.15378
1352.2649 416.42072
1352.7216 413.5357
1348.7843 415.9097
1349.403 418.64462
1352.0187 419.61887
1349.3572 424.27383
1349.2141 427.73856
1352.1011 425.24112
1352.3649 422.81235
1354.6677 421.3777
1356.3708 423.97595
1358.549 426.5541
1360.2473 424.2438
1363.5536 425.79648
1366.1328 424.2035
1369.198 424.05505
1371.2666 426.61624
1373.3448 423.17148
1373.624 420.16797
1377.0299 421.0427
1379.2074 423.75397
1376.2855 424.66357
1374.9507 428.41638
1377.8538 431.3178
1376.4385 434.77133
1376.0607 438.468
1377.42 441.4394
1376.9655 444.36322
1373.4015 441.83652
1370.3243 439.07614
1367.0697 439.98376
1368.0876 435.11813
1372.2421 435.16315
1371.49 431.32214
1367.7789 428.05035
1365.919 431.3945
1361.7338 429.735
1357.6525 430.5004
1357.9879 433.37845
1364.0343 434.60208
1361.6895 436.6558
1359.5889 438.89755
1355.6005 437.4196
1351.2157 436.9192
1353.6327 434.57175
1353.6802 431.07318
1354.5421 427.8808
1351.7351 428.30762
1350.1311 433.3381
1348.6616 437.025
1350.7103 440.2199
1350.4452 443.23047
1349.5792 446.16144
1352.2269 448.3444
1349.5316 452.169
1351.7307 454.37753
1349.5284 457.7048
1351.8711 461.4481
1352.9526 458.74332
1356.2399 456.85486
1356.4801 460.61337
1356.002 465.47537
1359.1661 461.96255
1361.1355 463.42636
1364.8258 464.40424
1367.3655 466.70413
1367.9706 463.85086
1366.3787 461.168
1367.45 458.1679
1368.6194 455.1035
1366.5507 452.95303
1363.1467 452.92184
1364.667 455.96213
1363.4404 458.41098
1362.7513 461.20334
1359.6213 458.97147
1360.7745 455.92908
1359.477 453.4332
1356.7843 452.66614
1353.675 451.40588
1356.7885 448.47083
1360.2966 446.7093
1358.3545 444.73737
1355.2189 444.77237
1354.3159 442.10977
1354.6481 439.8254
1357.5936 441.4704
1362.9802 440.43726
1363.096 444.57117
1361.3512 449.7435
1365.646 448.32166
1367.561 443.8815
1370.3986 445.5774
1369.619 450.17593
1372.8483 450.17014
1374.5593 447.05322
1378.7606 449.87723
1382.4122 449.50497
1380.2766 446.3058
1380.8239 442.8778
1384.4277 444.16357
1387.4441 445.23776
1386.1184 449.6938
1389.3035 447.82214
1390.9788 445.00443
1392.6615 446.72427
1394.562 444.76642
1397.3019 445.3544
1399.3524 445.6365
1402.1196 445.63376
1403.4563 447.13287
1405.2866 448.8685
1405.6843 445.72415
1404.8826 443.51154
1409.2189 445.37875
1408.2874 448.293
1410.5186 449.9778
1412.0571 447.38492
1413.5215 445.11356
1415.2609 447.93552
1417.7585 445.9014
1418.2899 449.38336
1415.918 451.84476
1413.4396 451.0189
1410.7467 453.35703
1408.084 451.84912
1405.2316 451.73972
1406.6176 454.96585
1409.1512 456.39474
1406.4083 458.0452
1405.4286 461.18958
1402.5144 458.79208
1397.9614 457.2044
1399.2213 454.67868
1402.7417 455.4355
1402.2042 452.54608
1399.2833 451.69632
1402.6812 449.9478
1400.3572 448.234
1397.7272 448.31927
1395.5525 447.2077
1394.3956 449.18784
1391.7012 449.56387
1389.3285 451.35608
1389.7272 453.8652
1392.4137 452.42554
1396.5717 450.6182
1395.2693 452.54498
1394.783 454.91144
1395.2035 457.64752
1392.3052 455.5466
1391.4409 457.917
1390.2263 460.30283
1388.976 462.568
1390.5074 466.02734
1386.9381 464.92096
1384.4584 464.84793
1382.2614 465.73715
1382.1171 462.58197
1379.8893 460.09567
1384.1791 459.7863
1385.9181 461.82422
1387.3085 458.95627
1389.0614 456.43253
1386.2849 455.55804
1384.1409 453.2842
1382.4525 457.45508
1380.2278 454.33514
1376.9463 457.38297
1375.8683 452.32834
1372.9937 454.03326
1371.7114 457.51904
1374.1918 460.07135
1370.462 460.8989
1370.7515 464.22797
1373.7368 464.31866
1376.4185 464.23914
1377.19 461.00403
1378.8635 463.98538
1379.9255 466.21567
1374.7197 467.66763
1378.2866 468.23383
1381.7275 468.72327
1385.2039 467.90918
1388.2399 467.84924
1392.4777 468.62045
1395.7434 466.9095
1399.4785 464.6098
1397.2062 463.63995
1394.5663 463.51483
1392.0016 463.2485
1393.751 460.08063
1397.1548 460.51523
1400.5206 460.8672
1402.6995 464.0917
1401.0055 468.23804
1404.062 467.0059
1406.9316 464.30673
1410.3058 461.16336
1411.497 464.92966
1409.7289 467.7328
1414.693 466.55246
1414.5757 462.897
1418.3263 464.79236
1418.2682 460.77722
1415.8612 458.53836
1412.2333 457.19226
1414.8246 454.66766
1418.8655 454.0528
1420.3936 457.1725
1423.0422 454.1259
1424.0571 456.64252
1423.3213 460.15533
1420.8246 462.23862
1423.2595 463.97217
1427.069 462.49957
1428.3009 459.84064
1426.5386 458.01828
1428.2974 455.74518
1431.6643 461.53076
1431.7675 457.8221
1432.063 453.92023
1436.2059 453.15237
1440.8352 450.98904
1437.7709 447.36887
1443.9684 445.33932
1441.4465 439.59738
1447.7162 440.45996
1450.4641 436.2147
1444.9393 434.48227
1440.0245 433.01187
1436.23 435.90875
1431.7096 434.5031
1426.5771 436.791
1427.4749 439.2698
1429.6595 441.7613
1432.0437 440.1872
1435.8013 442.188
1431.8237 445.4315
1427.4409 446.42523
1425.2177 448.32166
1432.2031 450.0834
1427.45 452.2663
1423.7711 451.30255
1421.7335 449.4972
1420.9062 446.96606
1423.9489 444.97287
1425.4717 442.57898
1422.1757 441.39047
1420.6567 444.09222
1418.6327 441.78333
1415.4167 442.142
1410.3712 442.6522
1412.5251 441.05295
1416.9009 439.9194
1416.7429 437.00357
1418.8107 438.12128
1420.6466 439.13754
1423.9585 438.75568
1421.858 436.29462
1424.3167 434.3472
1422.0634 432.60147
1422.7048 430.00293
1425.6774 428.9846
1427.7567 432.88538
1431.1678 429.68777
1436.0168 430.11618
1435.81 424.77307
1440.2275 423.93747
1444.5721 422.7911
1447.1228 425.44763
1442.5469 428.29895
1447.1023 430.18567
1451.2151 431.42157
1454.3971 429.5616
1453.8181 426.08054
1450.7814 426.15042
1449.4563 422.44553
1452.5815 423.24338
1457.0636 425.71277
1455.855 423.11993
1456.647 420.64218
1457.7932 417.77536
1458.4172 414.481
1455.2719 413.60272
1454.3303 416.79962
1453.7207 420.23553
1450.8748 419.75696
1450.7682 416.95224
1451.8658 414.70447
1451.5854 411.64633
1452.4512 409.1372
1455.762 410.66312
1460.3737 408.04004
1457.3871 406.66678
1454.5392 407.18744
1450.0197 405.61874
1449.7899 408.57162
1447.0869 408.19592
1447.3248 410.44037
1447.5209 412.77194
1448.673 414.96185
1446.5524 418.3228
1442.633 418.49875
1441.3639 414.19363
1443.4594 411.15973
1439.0408 409.86804
1442.0612 407.1914
1444.8394 406.34116
1446.4395 403.81714
1448.3789 402.0601
1446.1815 399.71204
1444.6018 396.4222
1449.5833 397.8184
1450.9932 393.99905
1452.9928 392.04276
1448.5674 391.64224
1445.9697 389.57526
1444.5105 386.4873
1442.6741 383.79282
1441.2126 385.9326
1439.7461 388.1139
1443.0477 388.60046
1444.0486 392.07318
1442.4268 394.51923
1440.3594 391.89804
1436.755 391.2095
1438.2396 394.03525
1435.897 395.26575
1439.1007 397.51645
1442.3882 399.16653
1441.7427 402.81494
1438.7136 401.4426
1439.3461 405.41724
1432.4741 405.4683
1435.6709 407.39084
1436.6018 414.28293
1437.797 419.05505
1433.3901 418.50513
1430.4142 422.81866
1426.9325 425.58533
1428.4083 419.02158
1430.5272 414.65573
1433.36 410.46506
1429.7621 410.9581
1429.3483 407.3193
1429.2311 403.814
1433.2671 401.93048
1436.1101 403.5898
1436.4297 399.6175
1433.9065 399.1769
1431.7981 398.19827
1433.3116 395.65088
1430.0498 396.8534
1429.3676 400.706
1427.6516 398.5655
1428.5507 394.66614
1431.805 393.6178
1432.6628 390.67102
1428.5107 390.9343
1430.3444 388.90216
1427.612 385.13297
1431.7087 386.38788
1433.6622 387.96317
1436.4802 388.33
1438.0078 385.24545
1434.6561 385.14578
1435.7981 381.79715
1431.8383 382.96664
1430.2782 379.40613
1426.6094 379.8833
1424.1621 375.8254
1421.9976 372.7793
1423.1425 368.86575
1425.1836 365.10504
1420.001 362.24164
1415.9996 360.92133
1416.0854 364.70013
1420.6134 365.75198
1418.5552 369.46304
1414.3501 367.83365
1412.8975 363.93774
1412.5712 359.47345
1410.3289 360.9412
1409.432 364.02118
1407.7452 365.56512
1404.5321 362.71268
1402.2526 360.3221
1405.1382 358.4265
1407.9966 358.96945
1410.7112 355.78726
1413.4901 354.26172
1413.329 357.07715
1415.586 356.44427
1418.1447 355.99728
1416.4089 353.27536
1414.9885 351.123
1412.3865 350.75137
1410.1115 349.94766
1409.8661 352.8237
1407.2106 354.44427
1407.5211 349.01694
1406.3344 351.61978
1403.7993 354.61722
1401.5857 357.69855
1399.2097 361.80383
1400.7534 365.48178
1403.7067 365.3209
1402.6875 367.92877
1399.2874 368.1605
1394.3529 370.49643
1394.0884 367.6742
1391.2279 365.34628
1397.4669 365.9817
1395.8445 363.5143
1392.2675 362.176
1388.0488 358.9151
1388.365 356.3688
1385.0187 358.00632
1385.6147 360.81146
1389.0398 361.81244
1387.587 364.64273
1385.1808 367.30746
1388.0581 368.67438
1390.9778 370.55417
1386.6522 371.85727
1384.7957 374.67868
1389.7562 374.3332
1387.6888 377.04874
1384.2854 378.66333
1383.1881 382.42914
1379.3628 383.61633
1380.3677 380.5785
1380.7181 375.58786
1381.8335 371.68036
1381.6936 368.52676
1382.0358 365.34244
1383.6722 363.01886
1382.0212 360.04697
1379.5317 361.87506
1378.5343 359.06757
1382.6555 356.53476
1384.7327 354.1486
1381.907 350.19217
1385.06 351.07724
1389.3448 353.71448
1389.8872 350.61157
1387.6548 349.49268
1391.2822 347.97498
1396.1809 346.15558
1396.1919 350.05005
1392.969 352.35797
1395.7495 354.2857
1392.6155 356.46982
1391.0303 359.0527
1394.8666 360.12073
1397.087 358.09677
1398.4797 355.4159
1400.0494 352.85263
1403.7014 351.05844
1400.7151 349.461
1399.399 347.234
1400.4441 344.21405
1404.1017 346.60147
1405.8733 342.7497
1407.5209 345.79813
1410.0977 343.96555
1411.8961 340.966
1418.4094 342.8595
1414.5684 343.21497
1411.0774 347.33408
1414.4834 346.87305
1417.4323 348.6736
1419.135 351.2231
1422.1747 350.73703
1421.185 346.16202
1423.2168 343.74014
1426.4987 345.27084
1429.0302 348.085
1431.3285 346.24524
1434.9213 347.44708
1436.8413 350.23914
1437.9463 353.8987
1434.4592 354.96213
1433.32 351.73755
1430.4813 351.9088
1427.4952 350.435
1424.1755 348.29193
1424.6792 350.26535
1425.5145 352.9857
1423.014 353.7086
1420.4746 353.8441
1421.3682 357.0766
1419.1635 359.0812
1423.6519 360.84952
1425.1283 356.43457
1428.5774 356.40567
1432.9011 357.9548
1431.4058 360.72906
1428.0776 362.1728
1432.1239 365.03815
1435.0625 366.93094
1438.8997 364.71036
1436.8121 361.58066
1436.2303 357.8237
1439.7489 357.8257
1441.671 353.25607
1441.8894 355.85657
1444.6516 357.9859
1447.1632 359.03738
1441.3446 361.62213
1443.0543 364.85422
1445.3771 362.28952
1448.0663 363.20493
1446.146 365.47107
1449.1002 365.639
1451.5117 365.86612
1451.6559 368.95798
1448.537 368.2313
1444.8826 368.46146
1441.4141 368.64648
1436.5759 370.39905
1432.3951 373.52087
1430.6865 368.34528
1427.2655 370.2589
1428.0709 374.8885
1434.5376 377.57278
1439.2917 375.17847
1438.9398 378.5217
1440.6973 381.56796
1443.689 381.22485
1445.2454 378.67935
1443.102 376.1543
1440.4911 371.89764
1443.7856 372.78006
1448.8328 370.75598
1452.0449 373.43082
1449.868 374.70105
1447.0618 376.17255
1446.2211 382.17352
1445.3885 384.29202
1448.241 385.7983
1451.7288 388.01666
1453.9783 385.3463
1451.0475 384.58905
1449.1769 382.6912
1447.8268 380.21548
1450.8304 378.03485
1453.0502 376.72675
1454.4614 379.11453
1452.6522 381.46893
1456.935 385.6042
1455.8363 389.27612
1455.6946 393.54395
1456.7473 397.77197
1453.068 399.18317
1453.9656 402.64905
1455.8114 400.74677
1458.4568 400.13736
1458.7808 402.654
1462.2926 401.55206
1461.9866 403.84494
1463.7738 407.62054
1466.4572 404.80612
1466.0046 401.9622
1470.0629 400.966
1474.2208 400.92462
1470.9679 406.1836
1467.8428 407.03067
1474.4181 406.184
1477.9031 404.95068
1481.1962 407.80682
1484.616 409.2902
1481.3126 413.17444
1483.2168 418.17416
1483.2959 415.4365
1487.383 412.14914
1491.1903 415.09573
1491.8756 410.3904
1496.4172 408.8443
1493.866 406.27078
1494.7834 403.13574
1495.0623 399.69843
1497.1422 397.15768
1493.9828 396.66443
1491.3728 397.72372
1491.0023 401.3634
1490.4783 405.2953
1487.3224 406.86145
1483.9047 404.845
1481.1511 403.27982
1478.4333 400.70773
1480.4475 397.32526
1483.2295 395.20065
1483.3014 400.06183
1486.7917 402.18552
1487.3506 398.07086
1487.2327 394.50226
1484.29 391.12405
1482.8771 387.8728
1486.1406 387.6579
1484.9878 384.11176
1488.553 383.6146
1489.5782 386.17496
1492.0052 383.52057
1494.5769 382.1997
1493.6243 385.18787
1494.2148 387.71326
1494.468 390.8414
1491.279 389.85278
1488.363 390.87717
1491.3293 393.3959
1494.2462 393.75626
1497.1221 393.27594
1499.4779 392.97153
1498.4722 390.36832
1497.0876 387.91333
1496.839 385.17422
1499.2843 383.7626
1497.4833 380.57718
1502.1334 381.53183
1504.7542 378.65405
1507.3271 382.85147
1504.8995 383.77695
1501.8796 384.7639
1500.2637 387.56793
1502.7761 389.72037
1501.7881 391.83804
1503.8206 394.28354
1500.6703 395.9168
1501.8593 399.2832
1504.7784 397.6695
1508.1871 398.77814
1509.3595 401.77493
1513.789 402.5844
1516.2906 405.4056
1519.9385 407.05148
1519.8885 403.5174
1519.1212 399.97906
1522.6193 398.95862
1523.2012 402.0317
1524.7733 404.27475
1523.4994 406.7986
1526.8702 407.14764
1529.3049 405.93546
1531.4443 404.15884
1528.6812 402.7746
1526.3038 401.17117
1526.2762 397.54074
1529.3547 398.4576
1532.2483 400.25507
1534.4021 398.003
1537.9414 398.27432
1538.8542 402.16913
1536.0852 401.70105
1533.7183 402.76035
1535.6332 405.9519
1538.9138 406.13577
1541.7812 407.0152
1543.811 410.51376
1542.1887 412.41077
1538.9033 412.1456
1540.0763 409.54663
1536.7329 409.1513
1535.7858 411.90314
1531.1826 412.6702
1533.1461 411.30133
1533.5726 408.25415
1531.2001 408.06638
1529.7166 409.92346
1527.8677 412.0368
1524.6996 412.4099
1524.0536 409.87735
1521.0918 411.11588
1518.3523 410.46335
1515.6494 410.24405
1512.497 411.4116
1512.5408 407.244
1509.9513 405.1477
1504.7736 401.48563
1505.7723 406.92035
1507.9747 409.11523
1504.6901 410.48743
1502.9418 405.56488
1498.8215 400.53043
1498.6448 404.1926
1500.244 407.0943
1502.1284 411.49167
1500.1768 414.2285
1498.7328 411.76733
1496.257 413.11716
1496.9354 416.21967
1500.3337 417.54123
1502.8706 415.32498
1505.6732 414.9498
1507.5094 412.90637
1509.2355 414.71686
1507.864 418.1198
1506.435 420.8941
1501.9294 420.74274
1498.483 420.11624
1494.5305 418.48843
1491.5254 419.63782
1488.2969 422.64676
1487.1478 418.56927
1482.7969 421.46487
1484.1311 424.77106
1483.9958 429.78915
1485.4321 433.69406
1487.3395 431.28458
1487.1337 426.87933
1491.3408 424.9829
1494.7074 423.55856
1497.8845 422.97458
1499.6603 426.27795
1501.729 423.984
1505.0664 423.94174
1507.5878 426.21622
1508.6226 422.26074
1510.9889 422.30222
1512.5267 428.78772
1506.5623 428.995
1503.6279 427.40607
1503.4795 430.57248
1501.0978 432.27597
1500.2585 435.85696
1502.0018 437.78094
1503.769 434.9452
1506.1843 432.8602
1509.5817 430.6764
1512.5491 432.29996
1515.0648 434.3406
1513.919 437.64365
1513.6494 442.6444
1510.4633 441.8119
1511.2651 438.58566
1508.5225 435.1502
1506.3698 437.1026
1507.63 439.8714
1505.1693 441.96262
1502.7048 443.51273
1503.4564 440.31308
1499.8995 440.23743
1496.8413 437.46423
1497.5383 432.93277
1498.0167 430.5416
1497.7676 428.2374
1494.4308 427.5093
1491.3232 429.60446
1493.9286 432.48825
1492.9343 436.20782
1492.4524 440.23972
1489.3387 436.9033
1489.7188 433.64047
1486.1157 438.3299
1489.1935 440.91736
1490.7795 444.6631
1493.0979 447.51892
1496.4867 447.80463
1495.2618 444.01413
1496.008 440.8734
1499.3651 443.61188
1499.7898 446.6603
1499.5758 449.58923
1502.9951 449.8642
1501.6898 452.97464
1496.7423 452.40237
1493.4056 450.99832
1499.7427 456.54156
1503.1763 456.06842
1504.3804 458.72272
1507.8623 461.50723
1510.7551 462.87814
1514.8313 462.33688
1515.579 466.21252
1519.0481 465.89966
1518.732 463.1121
1518.1276 460.02698
1520.8168 457.15488
1519.9504 453.70285
1517.5441 456.31937
1514.2152 455.67105
1514.032 458.90674
1510.1537 458.27576
1507.6826 454.2919
1512.157 454.00873
1514.558 451.6505
1516.4285 449.70255
1511.5233 449.8297
1507.6208 450.2198
1504.4186 447.24445
1506.8256 444.23837
1508.47 446.8078
1511.4138 445.1571
1514.229 447.4525
1517.8 445.16562
1517.8794 440.31247
1517.9735 437.68054
1521.8105 440.8063
1518.5685 442.68747
1518.6453 447.90076
1522.6045 451.1869
1522.659 448.01218
1524.3384 445.07184
1526.4581 443.0016
1531.4231 446.73593
1531.1107 450.51453
1525.9725 449.21225
1528.2504 451.1774
1529.0323 454.80783
1531.5256 458.39166
1526.1635 458.90515
1524.476 455.21783
1522.6078 459.18405
1525.6213 462.06747
1522.6101 462.85974
1523.4069 465.68674
1525.7261 466.55984
1528.3169 463.7293
1528.0627 468.0069
1532.2229 467.76215
1533.1711 464.42377
1536.6162 467.2057
1537.3741 469.89883
1541.5308 467.3777
1546.0328 468.3876
1546.416 463.8364
1546.8934 460.49243
1543.6901 461.70236
1543.9117 458.2579
1544.1274 455.14838
1540.813 456.6607
1540.09 461.2424
1539.6865 464.828
1536.8468 464.0869
1535.1438 461.88577
1531.4072 461.70264
1534.4446 459.41922
1538.0211 459.5534
1537.1522 455.6127
1539.2524 452.5054
1534.1779 455.39798
1534.1538 451.836
1536.3639 449.54535
1536.0912 446.16803
1540.1311 447.87415
1544.2313 447.40787
1544.6233 451.0572
1547.2542 454.20566
1550.4146 455.35382
1549.8043 459.3761
1549.4585 462.73386
1552.4226 463.214
1553.2971 458.62408
1554.4866 455.44653
1557.2731 451.44592
1560.984 450.8698
1558.6968 455.64398
1560.8689 459.46307
1563.0391 456.8645
1561.9359 454.02167
1566.3328 455.81107
1569.8228 457.1414
1572.3568 459.02875
1570.1062 460.74817
1566.6381 460.74353
1563.264 460.8309
1560.4917 463.02173
1556.9111 460.4459
1557.3131 464.10776
1553.6544 465.87064
1549.9998 467.18137
1555.7815 467.67264
1559.0491 467.3258
1561.7386 466.58032
1564.303 467.11816
1564.3622 463.9584
1567.0139 464.32254
1570.2909 464.80273
1573.6864 464.89847
1576.3871 463.33786
1579.0092 461.85977
1576.3837 460.2774
1573.7455 456.26987
1568.8638 453.17676
1565.2866 451.67944
1565.7747 448.39337
1568.3755 450.31082
1572.0361 452.27487
1575.1989 451.9042
1577.0345 454.26627
1577.4597 456.71243
1579.0254 459.06265
1581.4441 459.27667
1581.1206 462.34647
1581.5457 464.70032
1583.1665 460.96915
1583.4899 457.81104
1580.6765 456.23788
1582.4653 452.26297
1584.9427 452.32657
1584.1342 449.197
1583.323 445.10703
1583.85 439.62146
1582.9661 432.99002
1582.9329 436.37582
1581.9922 441.23938
1579.5188 443.81128
1581.5153 447.3934
1580.6083 450.03574
1578.8314 452.19528
1577.6039 448.25052
1573.7545 448.39673
1574.2484 444.76578
1576.3584 442.65384
1572.3743 442.53864
1571.5852 445.57938
1569.2065 447.52142
1567.244 444.89822
1564.0963 443.30368
1564.1997 445.95505
1561.4055 446.9822
1557.9858 445.89108
1554.3064 446.88373
1553.1606 451.13834
1548.814 449.65875
1549.861 445.9361
1546.271 412.42783
1545.7699 408.71265
1547.9926 406.11243
1548.5612 408.65894
1548.1123 410.8938
1550.6841 412.23074
1551.9551 407.629
1553.003 410.42883
1556.8374 409.9892
1560.9714 410.90622
1565.3079 411.74023
1567.7773 408.20667
1570.0083 405.88156
1574.5726 405.32504
1576.2603 406.78824
1578.7131 406.2594
1580.7075 403.8189
1581.8484 407.4285
1575.9733 409.15042
1572.89 408.39996
1569.9479 411.7812
1574.0027 411.797
1578.6487 410.17487
1580.5016 411.50107
1583.3732 411.1901
1584.2196 415.7703
1584.2517 422.431
1582.7509 426.51678
1582.1488 429.64862
1584.5732 429.65063
1585.1914 425.29443
1584.3821 419.19952
1585.7009 412.69577
1588.1776 410.2391
1585.3281 408.80777
1585.1804 405.6411
1589.3789 405.38196
1589.6797 401.5336
1586.5093 402.22504
1583.417 400.92746
1585.815 398.55643
1584.5872 395.6536
1581.9055 397.4922
1579.6654 400.2624
1576.2399 402.44788
1576.3762 399.4533
1577.9327 397.26007
1574.1406 395.63654
1569.0468 394.30722
1568.6929 397.87695
1572.1658 398.1979
1572.3286 401.17575
1572.6453 403.83875
1567.8156 402.64908
1564.8301 400.63113
1564.1917 405.61523
1559.4414 406.08743
1559.4817 402.03928
1555.3365 405.27255
1551.4739 403.84662
1553.5935 400.81784
1556.5199 399.41702
1558.139 397.279
1562.0065 397.65384
1564.942 395.7822
1564.5178 390.8532
1561.0292 391.6904
1558.5092 393.73523
1554.3962 394.44147
1551.5175 391.722
1547.5986 392.24356
1548.8829 395.75943
1549.8085 399.2662
1546.1115 401.03784
1547.3657 403.66064
1544.835 405.0432
1542.2267 402.5244
1542.5767 399.2639
1544.6235 396.78528
1541.299 396.2374
1542.7195 393.42075
1539.6543 392.5736
1536.6527 392.69708
1533.8195 394.15112
1530.7507 393.2868
1528.0797 393.84027
1524.6259 392.73514
1521.5374 394.11588
1517.8796 394.2922
1514.2227 393.67993
1513.9177 398.07333
1510.6138 396.1247
1507.1885 395.1885
1506.1252 391.66248
1509.6008 392.6089
1511.2284 388.7832
1508.723 389.6372
1505.6249 388.36917
1503.5037 386.6421
1506.7927 386.0185
1509.73 385.34537
1511.0997 382.70084
1513.603 383.11557
1515.2812 379.7917
1513.2084 378.34402
1512.6863 380.60297
1510.3993 378.89365
1507.5894 379.3916
1507.9403 375.9503
1511.0061 375.16974
1513.7692 375.33194
1514.8086 372.93335
1516.4186 374.6073
1518.4849 373.8865
1517.475 371.49826
1515.156 370.24973
1512.1864 371.25528
1510.1315 369.3259
1507.9651 372.27756
1505.0051 370.2466
1502.4143 370.7139
1501.584 373.5793
1504.3219 375.2454
1500.3145 376.13684
1501.6384 378.38245
1498.8822 378.59665
1496.6862 377.44815
1493.9014 379.08752
1491.2429 380.60312
1487.466 381.09155
1485.4902 380.31107
1488.7598 378.6658
1490.909 377.17093
1488.0112 375.3817
1489.5404 372.9262
1487.3743 371.8455
1489.0 368.5263
1491.1173 370.27484
1492.7197 371.74673
1492.8176 374.10287
1495.494 375.42734
1498.0398 374.23663
1498.1572 371.44424
1495.185 372.24673
1494.4404 367.97824
1492.0125 367.7116
1494.0173 363.56726
1495.3348 361.13138
1497.5016 358.0033
1499.1252 361.16788
1501.9657 361.42447
1505.649 358.65695
1501.3783 357.94394
1502.1859 354.99182
1506.454 351.92007
1509.8243 351.675
1514.2524 353.37637
1516.0327 349.5288
1513.8165 348.3975
1517.5338 344.00827
1517.6819 346.9963
1517.9526 351.20026
1518.9988 356.61725
1519.2905 359.74408
1521.4651 361.78946
1517.9362 363.634
1515.3411 360.33844
1509.8624 357.32343
1508.1616 362.32553
1504.2908 363.40277
1498.2517 364.21643
1496.5343 366.09445
1496.7611 369.08405
1500.1694 368.51926
1501.1941 365.7458
1503.9392 366.77914
1506.645 366.08884
1509.8291 366.34665
1511.9592 363.4451
1514.1663 366.80933
1517.3401 367.8717
1520.2457 369.015
1522.105 366.92395
1523.9406 365.03284
1526.0992 365.48856
1528.6097 365.42297
1526.6198 361.97055
1524.3038 358.83975
1526.2218 355.76578
1522.6101 354.98575
1520.9327 353.31653
1521.7113 350.43536
1521.1123 347.56326
1524.0352 344.55692
1526.4215 347.24927
1529.0155 344.04352
1533.2639 343.6856
1537.2975 342.09198
1542.7676 342.92755
1541.438 346.87344
1539.3435 344.7351
1535.7559 347.92203
1539.0358 350.87756
1539.2355 354.2288
1542.2097 353.61053
1544.8597 351.81674
1542.9071 350.20142
1546.1469 347.40842
1549.8182 348.47562
1549.7402 343.90732
1553.825 344.32712
1557.7876 345.91473
1561.6768 347.774
1554.7551 349.2751
1555.2834 353.8923
1559.5366 354.44547
1561.7272 351.71967
1565.4297 349.72006
1568.9796 350.75238
1566.2994 352.86478
1564.2263 355.1376
1561.9312 359.03986
1559.9222 362.48923
1565.6063 359.06235
1564.2494 362.1795
1562.3921 364.79587
1564.5264 367.01917
1566.186 369.9353
1569.6233 370.18118
1572.2872 371.7722
1574.6392 372.87033
1577.4065 370.4518
1574.6667 369.47095
1572.1125 368.14584
1574.1782 365.9247
1576.75 367.31738
1577.2855 364.5304
1575.5634 362.559
1572.9075 362.59814
1571.4586 359.8502
1570.2668 364.4012
1569.1469 367.04736
1567.6892 362.5966
1568.8987 359.4788
1568.5449 356.67636
1568.9125 353.9673
1571.468 354.63324
1573.5256 353.15747
1573.8457 356.59445
1575.3702 358.8805
1577.9698 357.54483
1580.4634 359.84598
1578.1329 361.1495
1580.1527 363.05597
1581.8635 365.04718
1582.3048 367.82535
1579.66 367.32483
1580.4645 370.5076
1578.5581 372.57202
1580.5874 374.92114
1581.8274 372.8129
1583.9785 375.1882
1585.219 371.37524
1588.2709 369.61823
1591.3118 371.01733
1586.9497 374.9247
1585.6008 377.66794
1587.8143 380.47202
1583.64 381.22284
1581.072 379.06177
1580.0243 382.68207
1576.4761 385.06732
1573.1499 381.21515
1577.1924 380.07645
1578.0525 377.09186
1577.0872 374.49463
1574.7969 376.68622
1571.1886 377.95984
1570.5607 375.0518
1567.7911 372.95572
1563.7415 373.17767
1561.1779 370.06265
1558.3787 367.5075
1555.554 364.85895
1553.4395 362.02548
1557.6477 359.34125
1554.815 357.56067
1551.5547 352.05414
1548.2865 352.87363
1550.9178 355.54398
1549.969 358.7293
1548.1179 361.6442
1544.4049 359.0136
1547.5045 356.8192
1545.2778 355.00183
1542.4529 357.0303
1540.9994 360.9528
1540.1058 358.23032
1536.9047 357.12036
1534.0072 359.40588
1535.1042 354.81137
1532.9984 352.0196
1530.5895 348.88345
1526.0488 351.08044
1529.5537 354.2731
1531.8622 356.22443
1529.2681 358.51636
1529.5062 361.9741
1532.839 362.57126
1537.1405 362.07156
1540.6431 363.82486
1544.2114 363.06326
1546.0464 365.88867
1549.3894 365.4371
1552.3845 367.02045
1555.409 370.59747
1558.4695 373.94608
1560.8032 377.69864
1565.948 377.31918
1569.5371 383.28842
1566.4143 382.02917
1561.9113 382.33755
1562.0647 386.50534
1566.926 388.4641
1570.4973 387.82117
1572.1924 391.50156
1573.9856 388.83356
1576.4973 391.53146
1578.7205 393.33496
1581.629 392.999
1583.9205 392.00287
1586.6844 391.55194
1584.7355 388.90814
1580.1434 388.63327
1584.0181 385.06516
1586.8356 383.72696
1589.4111 383.4291
1588.2471 387.4874
1589.4893 391.40625
1587.7233 394.22565
1589.479 396.35452
1591.9314 397.82285
1594.85 396.7506
1598.5973 397.66205
1602.7017 398.35062
1606.812 398.05768
1611.3955 398.35748
1616.307 398.7307
1617.0854 366.6868
1614.0942 366.40027
1607.2704 367.1431
1601.9027 365.96002
1597.7693 366.67358
1593.5315 367.20532
1591.7551 368.80215
1595.7863 368.8741
1600.3057 368.00958
1604.4183 365.85037
1607.3093 364.56192
1610.5664 364.213
1611.552 361.2005
1610.981 358.55136
1614.2947 357.77713
1616.1804 355.59753
1612.8269 354.63885
1610.129 354.358
1613.4828 351.48428
1610.8849 349.69904
1609.9207 346.42773
1613.0846 344.42722
1616.7537 343.93454
1622.1648 344.86057
1622.0293 347.96503
1619.053 346.79886
1614.9556 347.79578
1617.2601 351.11984
1621.3154 351.05252
1619.8151 354.1603
1624.0986 356.30795
1621.137 359.10825
1618.0834 358.65598
1614.6515 361.05756
1616.4155 363.53915
1619.3074 363.9562
1622.4888 363.06314
1621.6699 366.74698
1624.2767 365.13425
1627.5105 366.8209
1629.2849 364.40594
1626.7717 362.72913
1625.9073 359.358
1628.2021 356.86478
1634.0116 354.56287
1631.6284 357.185
1631.575 360.93427
1632.5835 366.51602
1635.5398 364.11978
1635.2072 360.1687
1639.2443 360.8097
1637.651 357.07068
1640.8582 356.57047
1642.585 362.7464
1642.9998 359.4909
1646.2971 356.9347
1649.0432 355.74164
1650.0342 352.4004
1647.7825 351.16745
1651.2239 349.54956
1649.696 346.71158
1646.8878 347.06644
1643.6406 348.76596
1644.4244 351.93057
1643.1051 354.57318
1640.7168 352.5533
1637.465 353.66693
1634.8066 352.15167
1636.1526 349.9002
1638.4608 350.72147
1639.6892 348.06125
1633.7754 347.69604
1631.5388 345.2772
1630.5237 347.56497
1631.5181 350.23358
1630.0652 353.29263
1626.2385 352.52823
1626.8658 349.4771
1624.8208 345.7312
1627.4216 346.25497
1629.6501 343.51746
1633.3452 343.56958
1635.8184 344.53873
1637.3606 346.4902
1640.0305 345.13303
1643.4287 345.40997
1641.6091 342.73566
1643.7854 340.684
1645.636 343.01996
1648.4381 343.9126
1649.1562 340.62796
1646.47 337.56003
1643.0225 336.51288
1644.252 333.83353
1643.9895 330.49646
1643.4052 327.2367
1646.6473 326.95978
1648.313 329.4134
1648.8895 332.0975
1649.5634 334.6876
1649.0436 337.50067
1651.9254 337.00543
1653.4418 339.2791
1652.425 342.53528
1654.5361 344.57538
1656.0964 342.36237
1656.3938 340.05035
1658.3462 338.53662
1656.5803 336.52258
1654.4397 335.28305
1652.5791 333.19708
1652.5142 330.5163
1654.2594 327.58484
1650.3632 326.87247
1652.6481 324.8073
1655.0369 323.16058
1654.6526 319.63297
1651.7368 321.35434
1648.8842 321.17355
1646.5881 323.2793
1643.8892 323.60135
1643.2988 319.3626
1642.5759 315.27924
1647.0938 316.67358
1649.4387 312.6809
1651.6667 317.427
1654.5798 314.6454
1654.5422 311.47223
1658.2527 313.5491
1658.0355 308.645
1662.09 307.23398
1661.8268 311.97357
1661.1665 315.34265
1657.3174 317.03287
1657.146 320.9516
1658.7236 319.47885
1660.5403 318.32358
1662.9363 320.7507
1660.6123 321.67645
1659.0796 323.8539
1657.1129 326.18573
1661.0547 327.20154
1660.7919 330.52698
1657.5994 329.65073
1657.1956 333.14923
1659.6155 335.57666
1661.4354 333.45612
1663.3464 335.62146
1660.8268 338.19614
1662.8463 339.53986
1664.1946 343.43
1665.7227 345.34323
1669.2872 344.89993
1668.4678 342.31577
1667.8022 339.5942
1665.093 341.33914
1664.6989 338.68616
1666.1263 336.4607
1666.9634 333.81943
1664.7483 331.32898
1668.0076 330.47888
1665.8535 326.86737
1663.4435 324.08682
1666.4922 321.7972
1663.9153 318.4352
1665.9277 316.41354
1665.4344 313.65552
1665.5739 310.49988
1666.8892 306.8787
1670.779 308.12497
1673.7325 306.01486
1672.3608 311.8054
1668.9783 312.65613
1669.2104 317.72876
1672.2639 317.5701
1671.3899 323.247
1670.4933 326.3489
1671.2885 329.9186
1672.2891 332.69308
1670.4202 334.53302
1671.246 338.23868
1672.2725 341.59995
1670.0896 347.43542
1672.7766 345.4847
1676.0483 345.32956
1677.4603 347.96878
1680.8673 349.3621
1680.8777 344.28357
1683.7712 346.25742
1687.2 344.40195
1692.2363 343.55615
1692.7538 346.04758
1689.6567 346.43115
1686.7539 348.18005
1689.2375 349.26434
1692.122 349.56607
1695.345 349.34198
1696.7642 346.2291
1700.1884 344.42258
1703.8119 345.66397
1705.7764 348.9251
1700.8057 349.06583
1698.1974 351.8953
1698.6772 357.2265
1702.0597 353.92987
1705.444 352.74512
1702.8435 357.72864
1700.8647 361.2744
1705.0363 361.64505
1708.9307 361.0036
1712.1646 362.42273
1714.5653 363.5552
1713.3464 359.79034
1713.7189 356.40598
1710.6725 356.10422
1706.6488 357.03043
1710.0286 352.66376
1709.8508 348.61722
1708.7449 345.50427
1712.5754 344.6772
1713.5216 350.079
1715.4822 347.16174
1719.9429 346.73605
1727.1372 352.3684
1737.8169 353.87115
1746.061 353.60553
1742.0281 353.7363
1732.6569 353.31696
1722.1608 352.5061
1719.2067 350.56876
1715.9684 353.345
1718.0399 356.93512
1718.141 360.72574
1719.4114 364.23724
1716.5732 365.5383
1713.3748 366.15036
1710.3337 366.82703
1709.7993 364.527
1706.2697 365.9521
1702.3748 365.76074
1698.561 365.87238
1697.1741 361.74612
1694.9988 364.3155
1691.7401 365.24222
1688.9442 366.6254
1688.3379 362.35358
1689.956 358.8625
1692.1887 361.80566
1694.9999 359.76166
1695.4705 356.5378
1693.3567 355.43326
1694.6632 352.65826
1691.6069 352.8336
1689.4419 351.7176
1690.2053 355.47903
1687.5574 356.41818
1686.7441 353.10876
1684.8846 356.06796
1682.5208 355.0875
1683.6443 350.73615
1680.7448 352.14542
1677.557 352.13174
1674.9095 350.89346
1672.1887 349.2315
1671.4498 351.5934
1672.135 354.4796
1676.587 355.57373
1680.4373 356.53595
1675.7662 360.1586
1679.881 360.1167
1682.2002 362.01422
1684.556 358.74475
1685.6157 362.7943
1683.3318 365.57443
1679.8438 366.01996
1677.6204 363.39786
1672.4531 361.5714
1669.3047 361.68246
1672.7305 358.1603
1669.3188 353.248
1668.3768 350.02042
1666.0494 347.70697
1664.3671 350.48743
1662.1595 348.3149
1662.433 345.73618
1661.1962 343.4819
1661.5709 341.2163
1658.746 341.3193
1658.7489 345.21298
1658.7448 348.12634
1659.6757 350.74713
1662.7798 353.20126
1666.1676 354.1472
1668.7802 355.9368
1667.8785 358.51376
1664.0896 357.63577
1666.3828 361.346
1667.6886 364.39758
1663.679 361.73706
1660.0919 362.43427
1662.4318 365.7023
1658.3346 365.8835
1655.0356 365.69653
1651.7158 366.76077
1650.3928 363.00995
1652.8866 361.55664
1656.912 361.5953
1660.0992 359.21338
1657.5769 356.89377
1660.9543 355.63638
1658.6635 353.71884
1655.4855 352.76517
1655.0757 350.0496
1655.4738 347.33456
1652.595 346.56595
1652.456 352.9711
1653.9536 355.51364
1652.9028 358.11023
1649.8354 359.04218
1646.7008 360.20102
1647.0798 362.68332
1645.3551 365.037
1642.8649 366.51462
1639.6829 364.80405
1638.1007 367.32797
1642.9537 370.55334
1642.4799 374.41687
1645.8291 376.50714
1646.5653 380.0848
1642.4346 379.7938
1644.6854 382.6675
1645.1729 386.14536
1647.8308 384.54892
1649.929 382.7597
1655.1902 381.4433
1653.3848 383.44443
1654.4917 386.97147
1656.8569 385.0079
1660.3296 385.6414
1660.7006 389.3475
1657.6638 390.58746
1662.6963 394.3479
1662.6672 398.21664
1665.831 399.84744
1666.6765 395.8247
1668.519 392.56247
1665.1663 391.95862
1664.5723 388.9937
1667.2146 386.82434
1664.303 385.05737
1662.57 381.73068
1663.665 378.17245
1666.178 380.4753
1668.4708 382.47894
1667.8824 377.46057
1668.3319 373.44937
1664.7386 373.82953
1661.5038 375.3433
1659.3018 373.17044
1657.4167 375.7226
1659.8037 378.6452
1658.7247 381.95438
1656.5536 378.8928
1653.106 377.66626
1651.6455 380.721
1649.228 378.97247
1649.8328 376.17462
1648.1666 373.74188
1645.683 371.85956
1648.8022 370.51794
1646.6185 368.49683
1648.6777 366.3039
1651.8245 370.17123
1654.9364 369.40485
1651.635 373.57718
1654.2405 374.2791
1656.2019 372.4072
1658.7272 369.27112
1662.5642 370.56314
1665.9609 368.14145
1670.0483 367.56375
1674.0588 365.0474
1672.2681 372.1265
1671.4904 375.40262
1671.3118 379.69345
1671.6915 383.39444
1671.5829 387.4881
1672.0399 392.25955
1672.0963 396.51456
1670.891 400.05658
1668.9819 402.77667
1666.1824 403.9797
1663.2935 403.1615
1660.1067 401.11954
1653.878 400.92715
1650.0662 398.8489
1655.1821 397.44452
1657.6453 400.02472
1658.9819 395.73718
1655.3937 393.66302
1651.643 395.41068
1648.1031 394.94897
1651.4987 391.3341
1651.2798 385.75372
1647.9182 389.38208
1643.7869 388.38135
1644.4448 393.0291
1643.937 396.56003
1646.6138 399.0802
1644.2329 402.54153
1641.2563 401.0041
1637.8423 400.00552
1631.7268 399.57965
1621.4813 399.47028
1626.8744 399.65097
1635.6697 401.4363
1642.4314 404.97144
1643.523 410.5309
1644.8842 413.31348
1648.8157 412.73065
1650.3942 415.06168
1647.5221 416.78354
1643.6865 416.89185
1643.6855 420.23886
1647.0579 424.96277
1644.3533 426.81665
1647.4235 428.47955
1646.0746 432.45502
1649.0476 435.13788
1646.7556 435.83948
1644.0952 435.07092
1643.9009 437.85098
1646.2733 439.79974
1649.3019 437.97284
1649.8389 440.8668
1647.5437 443.40048
1645.1252 444.76984
1645.4387 448.6419
1647.9064 450.13348
1648.7208 446.83252
1651.5985 444.0556
1654.9315 444.3314
1654.3425 441.3592
1653.0115 439.1287
1651.7166 435.09262
1654.1299 435.23233
1654.3173 431.801
1649.679 431.7231
1652.0219 428.85355
1650.412 424.68228
1647.0375 420.26285
1650.1215 418.6494
1652.4132 422.0298
1653.652 419.23572
1652.6992 416.14746
1653.949 412.87564
1651.1716 410.88644
1645.9286 408.2171
1646.3394 405.2752
1647.8267 403.24112
1650.5295 402.67725
1650.0265 406.65283
1654.1893 408.51114
1654.2393 404.95163
1657.9395 405.35242
1662.1454 406.7819
1661.5529 410.66855
1664.1685 413.2321
1660.9182 413.3202
1659.6915 408.7669
1657.2325 411.2088
1657.956 415.23132
1656.3196 417.49716
1660.2798 418.93628
1661.9016 421.74585
1664.8246 421.3438
1664.4507 418.7812
1663.083 416.17456
1666.7954 415.41766
1668.865 413.6975
1668.2028 410.63263
1664.8439 409.28052
1668.5078 406.44147
1671.523 404.89096
1671.023 408.26633
1671.3108 412.32965
1672.8386 416.68552
1670.613 417.3591
1668.0087 418.52298
1667.6832 421.82996
1671.045 420.4609
1673.3842 421.72937
1672.0184 423.93408
1669.6147 424.0882
1667.616 426.25082
1665.3961 423.74472
1664.8525 425.98135
1668.5901 429.41113
1670.5626 427.0702
1674.0582 426.91092
1672.8704 429.12134
1671.3326 431.45108
1674.7668 434.3454
1672.611 435.01633
1670.4926 437.08627
1668.6622 439.5914
1668.369 443.6444
1664.2905 444.37222
1665.5968 448.70242
1669.1656 447.82956
1673.3711 448.01776
1672.5034 443.6976
1673.3683 439.95773
1677.2562 439.97797
1676.474 443.23566
1680.1753 444.73163
1678.5143 448.98053
1676.5316 452.79614
1677.7734 456.50943
1681.8618 452.5525
1685.04 456.5965
1688.9023 457.00867
1690.2366 452.65045
1686.5728 451.93625
1683.6001 448.3677
1685.1982 445.20724
1689.2404 447.47745
1693.3081 446.25504
1693.5015 450.4948
1696.4594 454.44955
1697.5469 451.13303
1698.085 447.29724
1701.6007 447.546
1703.974 445.13718
1704.8467 449.11288
1707.2606 447.60928
1708.5763 445.084
1711.7838 447.35397
1712.8229 444.9368
1715.7483 444.89273
1717.0234 447.78195
1718.929 445.8385
1719.6687 443.02963
1722.0178 444.68362
1724.7257 442.6836
1725.4565 445.02573
1728.7556 443.18033
1732.4502 442.85455
1735.9624 442.76468
1739.009 441.36542
1742.0596 442.56335
1743.5127 440.74405
1746.5613 441.61243
1749.649 439.9717
1753.0317 440.40005
1756.0157 437.37842
1758.768 434.79254
1761.4235 437.364
1764.9227 435.77747
1763.8628 433.68088
1762.4204 431.96793
1760.8198 429.71417
1758.213 431.32278
1756.0858 429.72668
1753.7913 434.84354
1752.2225 431.8878
1753.0745 428.38257
1754.061 425.0858
1756.2495 421.69086
1753.4421 420.75366
1754.8567 417.58276
1757.6147 414.34955
1759.9294 410.82547
1763.7225 410.86847
1765.6431 407.82053
1762.2771 406.76395
1765.9209 403.237
1769.3297 402.3093
1772.1315 400.8126
1774.0437 402.89957
1776.9086 404.27206
1774.7107 406.21133
1772.2966 405.843
1770.1833 404.57645
1767.4698 405.69992
1770.282 408.44046
1767.7955 411.20343
1769.67 415.76868
1773.3188 415.0919
1771.6357 411.8287
1775.6094 412.47708
1778.3711 413.49475
1777.9958 409.68155
1774.6006 409.08203
1779.3538 406.57968
1780.6023 402.96793
1781.8066 399.99948
1779.5605 398.53308
1777.4135 401.01416
1774.7654 399.73373
1775.2953 392.0322
1771.0148 384.9899
1768.589 381.89456
1772.8286 388.44003
1777.0463 395.6308
1783.206 395.79105
1784.9349 398.17844
1784.4944 400.91626
1787.5818 402.5678
1790.6361 403.52444
1789.4917 406.49902
1786.3245 406.1614
1783.7208 403.93478
1782.3264 405.8004
1782.9058 408.2997
1781.9897 410.68204
1785.791 410.37082
1784.216 413.46307
1781.0287 412.81686
1783.5385 416.3884
1780.8208 416.22983
1778.627 417.6352
1779.0046 420.6031
1778.8077 423.71222
1775.1672 420.82965
1775.5999 417.56985
1772.0204 418.67545
1770.7416 421.77713
1766.7238 423.8196
1767.7548 419.87952
1765.3363 417.5405
1764.2947 414.43042
1761.7601 416.63165
1759.5319 419.68466
1762.8552 421.1334
1760.6323 423.65744
1757.6416 424.74042
1758.1857 427.85446
1760.9454 426.9287
1763.5557 425.42917
1764.5736 428.36365
1765.3945 430.97253
1767.9832 430.1033
1768.6964 427.14377
1770.9 424.81754
1775.204 423.78696
1773.8599 426.3928
1771.8784 427.93546
1772.1768 430.80313
1775.1465 431.48697
1777.2212 427.6693
1779.9937 427.243
1783.5228 425.84015
1781.8864 423.44492
1781.8628 419.07077
1784.156 421.062
1787.1018 417.84494
1790.2283 415.41907
1795.326 414.8324
1797.4745 412.11954
1795.3059 409.7238
1793.4862 412.79395
1789.2295 412.74094
1789.0834 409.67618
1792.0922 408.39865
1793.681 404.90048
1794.5764 399.61737
1792.1493 399.75845
1788.4934 398.4158
1787.9412 395.20294
1791.2998 396.02893
1791.5623 392.63898
1790.9547 389.37653
1790.1123 386.11816
1790.1348 382.38434
1790.4817 378.52536
1788.1377 378.93396
1788.6096 375.31418
1789.8708 372.3673
1787.4885 371.26083
1787.6323 368.05237
1785.6819 365.2374
1784.7058 362.5068
1781.3093 365.40814
1777.9258 366.948
1773.6663 364.47476
1771.0444 367.75726
1765.7756 369.36328
1765.0851 375.94168
1767.1273 378.70322
1763.5072 372.81152
1761.5488 369.2595
1761.2106 363.6753
1763.4226 366.4932
1767.541 366.32587
1770.4084 362.9946
1768.71 359.5084
1765.3423 362.83105
1763.1632 359.84018
1759.8765 354.72748
1750.2638 353.8174
1754.8749 354.79166
1762.8093 350.3047
1764.3394 353.12146
1766.0796 356.49133
1767.9254 349.26907
1769.6737 352.2275
1771.0626 356.02206
1774.8623 353.96295
1772.6234 348.58414
1778.0723 345.66235
1776.8431 349.0836
1778.3708 352.33047
1780.9509 348.95523
1781.6375 352.6602
1779.7651 355.91095
1777.3853 358.10855
1774.1439 360.2386
1777.7654 362.55792
1780.8347 360.6341
1783.9827 359.3897
1783.2186 355.92172
1786.1423 356.1661
1788.6772 356.30978
1791.6052 355.08017
1792.5496 357.63434
1790.3394 358.9292
1787.458 360.53357
1789.4001 361.4395
1788.9529 364.1396
1791.5204 362.17325
1793.072 363.58887
1793.9108 360.2661
1796.5338 361.84897
1799.5427 358.77942
1794.9369 356.98157
1796.8273 355.7668
1799.1346 354.93967
1797.5317 352.3264
1799.4392 347.86078
1796.9816 347.06412
1797.4683 349.60953
1794.4866 349.16705
1793.5997 352.95822
1790.0366 353.00342
1791.4553 349.52475
1788.1593 348.82373
1784.753 351.59695
1785.3716 349.08792
1783.8777 345.5384
1787.3003 345.48962
1790.6267 344.91373
1793.6901 345.58456
1793.1611 342.59634
1796.3649 342.93918
1798.4235 341.10144
1799.6135 344.72598
1801.6414 348.25842
1803.6803 345.3104
1803.8375 342.94867
1805.7366 341.05777
1807.8491 343.00095
1808.0383 345.54895
1812.3694 346.44397
1814.9674 342.50287
1818.0731 345.0441
1822.8057 344.21124
1821.7704 349.36313
1823.7407 353.92963
1827.26 355.68985
1828.377 358.92557
1826.0852 360.30002
1822.9476 361.82645
1821.7158 358.81964
1820.5524 355.5072
1819.3762 357.56113
1816.985 356.38983
1818.7891 352.76035
1815.8037 349.3634
1814.4971 352.76312
1811.5906 355.3164
1812.0978 350.83643
1808.6003 351.92358
1808.4847 348.91003
1805.9609 348.23123
1803.8597 347.64438
1803.5809 350.29074
1801.5026 352.30624
1801.6217 355.3393
1804.4741 356.66113
1805.1362 353.85718
1806.2709 351.275
1807.674 355.03174
1807.8287 357.66357
1810.9966 359.1548
1806.7427 359.92224
1802.6963 359.66992
1799.9365 362.38034
1802.7899 364.35056
1803.1102 362.29623
1805.376 362.4924
1807.9099 363.43143
1811.3992 363.32944
1814.6049 359.1629
1814.1821 356.53107
1818.4009 359.4681
1819.4451 361.89108
1816.5645 361.92822
1815.7424 365.1676
1820.1566 364.07977
1820.6398 367.6775
1823.0956 365.05145
1825.831 364.49893
1827.1487 367.7426
1825.8093 370.66498
1824.6534 373.8848
1828.0742 374.63303
1828.4937 377.8233
1830.5847 379.32455
1831.6117 376.19287
1830.2512 372.06213
1831.5498 369.132
1831.7507 365.45993
1829.4163 363.00192
1831.3484 359.95844
1833.6086 362.05237
1834.3335 358.368
1836.8301 359.7103
1839.3003 360.55423
1836.2922 364.01978
1835.7593 368.5734
1835.3522 372.1631
1836.4539 375.10587
1834.3619 376.49048
1833.1346 379.95816
1835.9816 380.3759
1834.1636 382.55582
1836.8081 383.2751
1836.9688 386.16867
1833.27 385.5815
1831.1008 383.4656
1828.0353 382.07578
1827.7394 386.0468
1830.8524 387.141
1831.1735 390.60953
1834.0293 389.8645
1836.9089 388.90857
1834.2052 394.0833
1830.7117 395.51874
1830.6348 400.07758
1834.3184 398.89136
1837.4128 397.60388
1839.676 396.0363
1838.5244 392.7387
1839.99 389.5844
1840.7217 386.89648
1839.699 383.8183
1839.3787 380.5835
1841.8428 381.22412
1842.6003 377.29373
1837.9845 377.77173
1839.4558 375.3882
1840.2847 373.03232
1841.9429 370.7994
1840.9424 367.59485
1838.519 365.92618
1843.6165 365.10995
1841.6201 362.77994
1841.5961 357.8317
1838.7678 353.84836
1836.5359 356.15
1834.838 352.36145
1832.0089 355.43445
1830.4463 351.28815
1826.5347 351.243
1826.276 347.69754
1828.2417 345.06046
1832.0662 347.45404
1837.9978 348.9648
1841.8301 352.06052
1846.0734 352.67822
1847.251 356.1261
1845.123 359.1963
1849.832 360.80316
1848.1404 363.43802
1846.7622 366.73187
1844.7173 369.557
1847.7313 372.67404
1844.5525 374.2211
1846.8193 376.7716
1851.8912 377.33633
1851.325 373.9936
1848.9158 369.74695
1849.8 366.99356
1852.3976 365.4593
1854.406 368.29974
1852.2903 369.99127
1855.02 372.416
1856.213 375.63324
1856.1957 378.69223
1853.5574 380.08444
1855.053 384.87192
1854.351 388.2124
1854.9058 391.44467
1852.1138 392.16467
1850.8882 389.70792
1851.123 386.70078
1851.398 383.4814
1848.0205 383.7449
1848.2277 380.33716
1844.9307 381.21503
1842.8835 384.6586
1847.2651 386.78452
1845.6941 389.39017
1843.4003 391.38986
1846.6804 392.76004
1849.5068 393.2302
1852.7693 395.35272
1855.6304 397.01288
1853.012 399.17017
1850.8954 401.33267
1847.5862 398.11588
1843.3832 395.6257
1843.1589 399.788
1841.7947 403.9021
1838.2357 403.45755
1834.764 404.07202
1831.0183 404.2468
1828.7671 407.39413
1825.0773 407.61133
1820.1523 409.85745
1820.6089 406.62085
1822.9684 404.51117
1820.0015 402.14734
1817.6461 403.7888
1816.1365 400.97357
1818.2134 398.84186
1823.0922 401.34357
1826.899 403.35864
1824.9034 398.69058
1828.0948 398.33185
1827.5333 394.46878
1828.4844 390.36453
1825.8726 391.6175
1823.1863 392.6396
1824.0303 395.44717
1820.2306 397.17545
1820.8356 394.58078
1818.3641 392.25073
1815.3967 395.47278
1814.9961 392.1117
1811.9807 391.4411
1811.6501 394.8613
1812.5471 397.839
1811.6986 401.45956
1814.8253 406.8048
1817.4138 407.84958
1812.4114 408.17987
1811.569 405.05383
1808.419 406.73688
1808.6804 403.4737
1806.6968 401.40482
1809.2864 399.09866
1806.0442 398.66837
1806.9475 396.14178
1808.7935 392.47256
1805.9138 393.14502
1804.2219 391.5343
1801.9974 393.28568
1799.2051 394.1895
1796.2648 394.48434
1795.4878 396.7471
1798.8291 398.1004
1797.877 400.95425
1800.647 401.6931
1802.0586 399.26633
1801.9479 397.00488
1804.0835 396.0726
1803.6514 402.59048
1804.9307 405.5339
1803.8333 408.5201
1800.9365 406.91647
1801.4678 404.30188
1798.734 403.96002
1796.5747 406.3303
1797.9393 408.72388
1800.1937 409.82724
1800.5299 412.04047
1802.8403 413.47278
1803.5847 411.31296
1807.1344 411.5731
1809.6012 409.8939
1812.345 411.56375
1815.4987 411.27026
1818.4888 412.49103
1822.7909 411.2889
1827.1584 412.57126
1829.5376 417.51437
1829.0061 423.66116
1827.9158 429.04013
1829.29 433.4948
1833.3206 432.94815
1832.4492 428.66797
1834.4738 425.3293
1833.1456 420.91623
1836.1613 417.94275
1833.5637 413.7864
1831.1453 410.4519
1834.2644 409.16772
1838.1367 408.82935
1841.1611 409.10257
1844.1967 406.90826
1846.9773 403.40323
1848.1418 406.8417
1850.6091 405.6196
1854.7178 403.56012
1855.7792 400.80603
1855.8296 406.12076
1854.8503 408.77902
1856.3862 411.60654
1854.0663 412.3566
1850.6578 411.5
1847.0007 410.56058
1842.8428 413.2063
1838.8748 414.28766
1841.5972 417.16376
1840.7542 420.7252
1838.7185 423.5503
1840.7368 426.46817
1837.2357 428.6592
1837.0107 431.80533
1836.8757 434.7941
1839.412 437.12408
1839.9365 434.57852
1841.7864 432.22797
1842.3796 436.8033
1845.8398 435.47455
1849.1162 435.56445
1850.3601 432.5526
1846.616 429.91428
1843.9897 428.61716
1844.0593 424.05725
1844.8503 419.4206
1845.6328 414.91846
1848.4995 416.0407
1850.6741 418.96906
1852.0146 415.77435
1855.3909 415.52222
1855.1364 418.80267
1857.035 422.5391
1854.4758 422.25815
1850.6006 422.72708
1847.7268 421.57947
1848.7126 426.1059
1850.8047 428.39508
1853.6874 426.01904
1856.8176 427.21188
1855.0491 429.6837
1854.9348 433.65417
1856.9658 437.3653
1854.4558 439.75586
1855.3477 442.09515
1852.971 444.49756
1853.2987 446.89667
1855.9489 444.62177
1857.786 446.5633
1855.8918 448.31235
1853.5035 449.5743
1853.1925 452.12875
1856.6338 453.82483
1854.0032 455.18958
1855.552 459.10056
1853.0328 460.53458
1855.2126 463.3893
1853.2034 466.60886
1849.4524 464.01752
1847.5988 461.83447
1851.4722 457.50443
1848.3309 458.0246
1845.6853 456.35333
1844.6843 459.2985
1844.7712 463.84753
1840.9766 465.90964
1840.6431 462.33582
1840.0085 458.28702
1842.175 458.6998
1842.8345 455.37527
1843.4177 450.6348
1846.2561 452.8509
1849.4299 454.93393
1849.8145 451.88455
1850.948 448.87048
1847.9583 447.63113
1845.292 448.00528
1840.4612 448.5946
1842.7507 446.33093
1846.1339 443.95776
1849.7277 444.8019
1851.173 441.68073
1851.3217 438.25177
1847.9246 440.21997
1843.9426 442.1176
1841.5654 442.0752
1841.0366 439.70593
1838.4413 439.65176
1836.4624 438.12827
1833.9122 436.55856
1830.6537 438.63663
1825.9832 437.99112
1824.7427 434.55377
1820.7812 436.19092
1819.9675 439.33957
1822.8284 444.21576
1826.5642 444.9307
1828.639 441.4809
1832.7369 443.14807
1835.802 441.5625
1839.1033 443.622
1836.2296 447.21576
1837.8739 450.74612
1835.3372 452.51215
1839.4177 454.36227
1835.8843 455.9715
1837.2831 459.20865
1836.824 462.23438
1836.6716 465.4321
1833.2703 466.3226
1833.5098 463.23953
1832.1062 459.7147
1832.4548 455.21234
1828.126 454.8172
1825.5604 453.42413
1827.5466 451.34033
1831.3645 450.49527
1832.137 446.63028
1828.8247 448.5939
1823.5771 449.63528
1823.81 456.6273
1822.3718 458.8676
1819.8966 460.58008
1818.4232 458.56348
1815.1754 458.2162
1815.2665 461.82538
1811.9453 460.70474
1811.7118 457.11768
1812.5594 453.5286
1815.5818 453.05234
1817.9751 455.14334
1820.5997 456.01666
1822.1758 453.52045
1819.1082 450.9874
1820.0133 447.28143
1818.5782 443.52652
1814.2692 442.2349
1815.0114 448.09436
1811.5736 444.86826
1807.2949 445.80997
1805.6643 449.731
1809.6595 448.69666
1809.0607 452.306
1807.2368 454.55362
1807.8127 458.31
1804.4285 458.5682
1802.1189 455.43158
1800.2224 458.8834
1800.6038 462.88553
1803.4786 462.41275
1807.1787 461.8033
1809.9485 463.75177
1805.6641 465.62366
1803.627 468.75717
1801.877 465.60678
1799.5033 468.0341
1796.9646 466.5779
1793.9875 468.792
1789.547 470.5977
1790.5494 468.22052
1791.603 465.85107
1793.7607 464.47473
1796.4758 463.89206
1798.2194 461.87033
1796.4847 457.83484
1792.7339 457.94077
1794.4232 460.96924
1791.4866 461.5264
1789.3464 463.36017
1787.0884 465.51956
1785.4614 468.06995
1783.0964 467.13272
1780.7611 466.16953
1778.8802 468.44925
1777.9966 465.6653
1774.5571 465.44376
1771.3187 464.8193
1770.9731 459.75284
1767.5061 458.77454
1765.4656 461.26236
1761.3132 457.7729
1763.9229 454.89798
1769.5366 455.00897
1773.3615 456.1299
1773.7045 450.3336
1772.7008 446.78192
1776.9407 447.21854
1777.5669 443.54938
1779.8273 440.60132
1781.9858 443.62436
1782.2954 447.14487
1781.7949 450.82477
1785.3328 452.95184
1783.8469 457.2617
1779.9833 454.86084
1777.2006 451.92502
1778.3887 458.24368
1774.8771 460.438
1778.4711 462.51648
1782.0879 462.09024
1786.1472 461.40506
1788.6373 459.37933
1788.187 456.0985
1786.1963 448.51367
1789.543 448.3334
1789.4705 451.72403
1791.9019 455.07486
1794.2455 451.72263
1792.5188 449.64566
1796.3179 449.43045
1797.0725 452.3731
1794.925 454.7796
1798.4934 454.8248
1798.9819 450.47617
1800.4492 452.38452
1803.4296 452.1843
1802.7858 448.08588
1799.7449 446.72073
1796.7136 446.25284
1794.2767 447.2453
1791.7274 446.12207
1789.2925 444.31567
1785.8918 444.50888
1785.7601 441.57755
1784.2195 438.4722
1781.8329 434.77466
1781.8159 429.56772
1778.7513 431.86075
1776.7687 434.78506
1779.2306 437.10663
1776.2284 438.14825
1773.8909 440.42038
1772.8372 443.76468
1769.4141 442.9289
1770.7144 438.7769
1772.8867 436.29105
1771.2722 433.75052
1767.7992 433.72113
1767.861 436.71268
1768.394 439.51755
1766.6111 440.46805
1765.753 443.06714
1763.5546 444.98996
1766.6802 446.88715
1769.6731 448.0465
1769.403 451.9322
1764.9828 452.00284
1763.081 449.56128
1760.7416 453.45718
1758.9888 451.16837
1759.688 447.22467
1758.9016 444.0502
1763.6221 440.09647
1759.6147 440.5204
1754.8815 443.41028
1755.5802 447.705
1751.7858 448.42316
1747.5923 449.04285
1743.3 449.8693
1739.0933 449.89514
1734.9495 448.61646
1734.885 450.9038
1730.8037 449.7171
1727.3445 451.257
1723.9207 450.774
1721.4292 452.82913
1720.027 450.55334
1715.4641 450.70593
1712.8624 450.45407
1710.3208 449.9588
1708.2361 450.5365
1706.181 452.27155
1706.2435 455.43893
1703.627 454.8819
1701.6312 451.206
1700.1238 454.87775
1700.7578 457.59998
1704.4939 458.12888
1701.8062 460.50598
1704.6368 462.36868
1707.8467 461.68176
1708.1056 458.7737
1710.0292 456.09445
1708.5977 453.57782
1710.5668 452.93094
1713.0815 454.25735
1711.3698 458.42587
1711.0906 462.43036
1713.8617 459.85153
1716.6951 457.5818
1715.1005 455.9527
1716.105 453.59576
1718.6389 453.62585
1719.8291 455.9122
1719.5249 458.52264
1719.2969 461.4179
1720.7878 464.11325
1718.5393 466.3437
1717.7731 463.4159
1716.6344 460.68372
1714.7637 463.05835
1713.5107 465.1447
1710.7994 466.38077
1707.7236 465.65128
1704.5066 467.03046
1701.0786 467.39005
1699.0438 464.81714
1696.7795 462.0043
1697.0182 467.41782
1693.5471 467.86884
1690.8629 466.342
1689.1935 469.68173
1685.7124 468.96213
1684.3062 465.7671
1681.1927 467.28314
1682.2426 463.96194
1687.101 465.23334
1694.0824 464.79163
1692.5349 461.13586
1696.7582 458.2981
1693.3995 456.4751
1691.4982 458.6687
1690.2281 462.67435
1687.6357 462.38785
1684.5928 461.5519
1681.8087 456.21866
1680.8448 459.94885
1678.9707 462.86874
1676.3428 464.86032
1678.5157 467.11975
1676.3186 468.2435
1672.9478 467.0194
1671.4606 464.72833
1673.4213 462.17996
1675.6519 460.95294
1678.1803 460.02206
1673.0714 456.2817
1670.8704 452.11206
1667.6965 455.87793
1670.7498 459.26498
1665.7789 460.1196
1668.0793 462.3904
1668.429 465.8303
1663.5962 463.09848
1662.1194 465.9541
1658.8778 462.23926
1655.1365 459.05447
1658.7286 457.9673
1662.9612 457.5763
1664.6172 452.6736
1661.4277 454.16055
1655.3168 455.27432
1652.3069 454.752
1649.6095 453.08884
1651.7922 449.68317
1655.3328 447.35834
1655.1394 451.154
1657.6708 453.4615
1659.622 450.24304
1661.4641 448.02332
1659.3066 444.6131
1661.0627 440.56433
1664.9302 441.75253
1663.5386 439.35394
1666.3367 436.91016
1667.7063 433.35736
1663.3567 435.6346
1662.1096 431.356
1665.5983 431.73502
1665.1577 428.67758
1662.3594 426.55658
1659.9531 427.4646
1658.4795 424.6066
1655.9585 421.7575
1654.4741 425.13147
1655.8284 428.37073
1658.3384 432.00333
1657.775 434.85278
1656.1075 437.91708
1658.3636 440.62158
" />
</g></g></svg>
