<?xml version="1.0" encoding="UTF-8" standalone="no"?>
<!-- Created for Inkscape (http://www.inkscape.org/) -->

<svg
   xmlns:dc="http://purl.org/dc/elements/1.1/"
   xmlns:cc="http://creativecommons.org/ns#"
   xmlns:rdf="http://www.w3.org/1999/02/22-rdf-syntax-ns#"
   xmlns:svg="http://www.w3.org/2000/svg"
   xmlns="http://www.w3.org/2000/svg"
   xmlns:sodipodi="http://sodipodi.sourceforge.net/DTD/sodipodi-0.dtd"
   xmlns:inkscape="http://www.inkscape.org/namespaces/inkscape"
   width="3200"
   height="800"
   id="svg2985"
   version="1.1"
   inkscape:version="0.48.1 r9760">
  <defs
     id="defs2987" />
  <sodipodi:namedview
     id="base"
     pagecolor="#ffffff"
     bordercolor="#666666"
     borderopacity="1.0"
     inkscape:pageopacity="0.0"
     inkscape:pageshadow="2"
     inkscape:zoom="0.35"
     inkscape:cx="1600"
     inkscape:cy="400"
     inkscape:document-units="px"
     inkscape:current-layer="layer1"
     showgrid="false"  />
  <metadata
     id="metadata2990">
    <rdf:RDF>
      <cc:Work
         rdf:about="">
        <dc:format>image/svg+xml</dc:format>
        <dc:type
           rdf:resource="http://purl.org/dc/dcmitype/StillImage" />
        <dc:title />
      </cc:Work>
    </rdf:RDF>
  </metadata>
  <g
     inkscape:label="Layer 1"
     inkscape:groupmode="layer"
     id="layer1"> 
     <g>
<path style="fill:none;stroke:black;stroke-width:2px;stroke-linejoin:round;stroke-linecap:round;" d="M 
1594.5159 475.5465
1604.6434 449.87405
1601.3671 420.7409
1600.3679 389.76196
1567.0056 404.03198
1581.3225 376.66028
1576.2374 348.49518
1602.924 354.35645
1622.3472 375.33197
1637.2747 360.29724
1629.6157 337.80222
1608.3701 327.16513
1585.319 327.67786
1578.4095 304.58267
1559.9983 323.9617
1534.9147 325.78098
1523.6805 350.33066
1548.7896 347.13293
1561.0566 368.2356
1543.2009 379.6382
1529.7175 398.47137
1530.8242 419.70853
1532.9523 445.77545
1563.5903 431.93802
1570.6564 458.87537
1558.7045 485.3621
1528.6969 472.4252
1505.0164 458.12454
1515.9592 436.7108
1498.034 441.0418
1484.3635 432.01315
1470.4391 431.19067
1465.5093 410.7742
1490.1621 408.30148
1503.3785 422.21097
1510.1285 405.21207
1503.1161 388.02307
1514.0723 372.50665
1496.2858 366.4345
1474.7822 385.33704
1440.6278 384.86243
1410.855 378.30948
1425.5416 352.65656
1394.4763 348.89777
1381.1451 373.10495
1363.1257 386.65225
1346.8386 396.82205
1332.2759 380.6935
1324.1558 402.59418
1335.5895 420.635
1342.5869 442.8482
1364.0928 453.42752
1347.579 465.40234
1329.8838 478.75763
1320.3105 506.28458
1344.8617 509.86102
1354.6923 484.93488
1370.1442 500.12128
1393.2012 487.40182
1414.9045 446.71445
1391.4039 458.11884
1359.299 421.78668
1394.9972 414.56732
1428.7684 417.079
1452.2648 440.54855
1439.7257 456.50812
1423.1512 474.54306
1429.7806 494.47324
1459.1964 476.31845
1478.0953 451.37573
1487.106 468.0688
1492.7245 489.5565
1463.5206 500.06815
1481.9509 515.11847
1496.2827 529.28125
1488.6072 544.83295
1470.7213 557.10034
1491.3176 564.1084
1488.2665 633.8192
1456.2549 593.0266
1436.6173 555.6593
1416.3135 553.3798
1430.9941 534.0711
1453.0864 549.8428
1467.0334 532.2621
1447.443 518.0799
1420.5646 512.1596
1403.3038 521.573
1390.8281 547.38873
1382.3733 520.47034
1363.5477 527.6439
1331.5786 537.25934
1347.1799 577.8541
1330.01 619.0354
1380.6238 635.5589
1386.187 608.75696
1390.0118 584.60864
1408.5955 600.06903
1406.1119 628.2781
1403.431 655.12006
1405.0739 684.72736
1415.7036 770.42413
1408.4382 721.4702
1362.921 670.0472
1282.7966 664.82465
1286.5726 601.29614
1273.7661 551.5773
1261.3207 482.1993
1304.8243 479.6629
1316.0604 446.7468
1310.8757 421.5782
1299.1373 403.01114
1308.9872 387.69736
1310.3749 370.17746
1303.2036 353.03912
1271.7823 329.3401
1275.1683 252.16188
1346.3804 285.2357
1326.0533 309.727
1315.037 335.81107
1332.3673 359.91013
1354.9445 364.37766
1364.574 341.55405
1342.3081 337.67136
1362.1477 319.61185
1383.7793 330.76147
1385.5027 312.76947
1403.969 319.15527
1419.7605 331.5302
1429.0336 315.06436
1439.7899 302.01605
1452.4722 289.76758
1459.0067 307.26184
1448.3418 319.9581
1444.7909 337.62598
1456.0004 360.16348
1480.7585 357.83984
1512.1184 331.80438
1492.8793 333.5512
1468.8246 331.68796
1476.0698 309.62796
1492.4772 300.76355
1517.0317 305.37894
1507.9062 288.91895
1514.8816 272.2702
1499.1047 258.92166
1480.824 248.33412
1479.338 266.5651
1490.3729 280.22992
1473.5405 291.23035
1462.7534 275.63004
1460.5245 257.4443
1448.6821 246.85048
1436.305 237.03131
1429.6533 219.66771
1411.0618 215.99615
1417.1062 236.21924
1429.8478 257.17212
1441.9298 271.2111
1430.2415 286.3144
1416.495 301.61523
1398.5367 292.89874
1373.9551 292.39536
1380.2908 273.62796
1387.1497 254.87769
1411.3693 275.49142
1407.9753 254.56532
1390.2334 230.24083
1364.5784 234.50786
1360.0146 198.9667
1348.9633 109.44011
1340.4023 39.400703
1355.0707 160.34439
1428.4578 194.16563
1442.1249 205.26036
1449.4312 223.0977
1462.1985 234.98796
1476.3871 229.07397
1493.931 235.69609
1500.8165 219.71242
1483.0015 211.14052
1463.2638 206.95047
1457.6406 181.30821
1485.8641 182.23955
1504.2893 198.07771
1523.3252 190.95804
1545.0795 193.72462
1564.5713 187.08417
1583.5632 181.71158
1564.9955 205.43744
1569.4797 225.02832
1544.79 220.23785
1521.8136 213.9948
1523.7454 232.3106
1520.9323 252.01085
1544.9482 251.11966
1543.2236 272.78433
1530.0354 286.77432
1541.4434 303.84204
1558.2136 291.34845
1577.8252 280.76212
1602.6484 299.67667
1602.3717 275.52094
1570.6708 259.28333
1588.789 236.14554
1587.5178 214.35208
1609.0673 229.46808
1613.2625 211.21625
1598.2771 196.98257
1601.1882 179.98164
1612.8383 178.26175
1623.6992 174.56992
1634.5884 175.4402
1641.467 188.3808
1624.3473 193.31377
1637.3594 207.1212
1629.9004 223.91661
1628.1227 244.00671
1611.3486 252.76624
1621.0955 279.0849
1637.2173 286.64795
1631.0338 310.58737
1654.7317 294.6614
1672.2098 300.10147
1662.4241 317.3864
1653.5863 334.89407
1663.3973 354.716
1661.2579 375.78958
1651.7345 395.5606
1626.9744 402.6139
1644.4502 423.7882
1650.0688 445.46927
1643.033 465.1047
1636.4059 488.0457
1614.186 483.2094
1589.9691 500.12555
1568.2994 514.8354
1548.3783 519.4057
1528.253 519.87573
1535.5048 503.2462
1516.3271 499.7711
1500.2668 510.9305
1514.4221 517.54846
1514.9126 533.55457
1507.4331 549.11426
1525.9661 555.4131
1532.4678 536.9434
1546.5133 544.53253
1565.3634 543.51
1583.8158 552.9285
1588.3037 529.7483
1606.332 541.96045
1627.813 536.5189
1647.8994 527.4033
1662.5864 518.26825
1680.478 519.831
1682.896 506.3007
1680.1727 489.27124
1695.57 476.33957
1701.853 501.75317
1722.3618 505.06424
1718.3684 480.12296
1739.8954 475.6003
1738.2289 499.25848
1749.3335 515.8705
1753.062 493.78027
1766.1494 485.7292
1767.5531 468.67297
1759.727 456.0019
1742.7338 454.1727
1719.831 454.61234
1701.0322 433.6018
1709.1508 411.02158
1732.9796 414.74396
1733.1271 433.8551
1756.165 430.34268
1775.987 443.6463
1785.5908 466.90796
1797.8982 458.1478
1801.2122 476.7402
1783.0398 482.30414
1778.5195 497.21124
1769.4929 510.3594
1766.56 539.31366
1795.3274 545.2021
1812.3983 565.52844
1788.8784 520.6038
1796.0541 506.2372
1794.9275 490.73727
1809.349 493.20883
1818.4646 505.77628
1813.5184 524.89325
1837.4298 515.4997
1835.1062 536.7848
1820.4988 547.73096
1841.217 559.75903
1838.7604 601.8291
1881.1641 603.84717
1873.7803 651.8083
1873.9441 725.10443
1925.5061 753.2858
1926.0696 691.69604
1925.8579 637.6893
1927.8335 594.6289
1904.0603 567.23895
1866.8945 556.4886
1853.3184 532.14136
1870.6023 524.61786
1885.6439 538.21185
1904.1874 524.5589
1935.0723 549.6669
1934.2025 513.54047
1911.9747 500.7857
1935.8425 484.85605
1916.771 473.20023
1936.9948 456.1034
1937.395 418.618
1907.365 425.20932
1921.3184 448.94687
1897.6328 456.832
1880.103 445.9157
1886.9845 479.70932
1902.5865 485.47284
1884.9207 505.70178
1858.7224 504.7065
1869.668 485.16376
1861.4523 453.24017
1849.6177 467.21008
1842.3047 482.53534
1834.4568 496.23135
1819.7515 482.3695
1813.5925 462.67764
1828.8171 469.4049
1833.3926 452.05658
1843.8903 436.08298
1858.2292 420.97977
1874.9633 427.43094
1876.9641 397.46304
1897.6152 371.24472
1927.5061 356.85565
1873.3901 322.73886
1926.9122 308.36514
1903.2081 250.13069
1893.7251 169.66606
1931.7385 169.88286
1926.506 117.28018
1936.4313 73.37755
1930.2524 40.78555
1935.428 15.747582
1900.2075 15.730228
1904.1001 45.848263
1905.7496 76.206726
1887.4313 104.830605
1851.3645 99.9721
1863.8215 53.313698
1882.7716 40.489197
1866.0232 21.480732
1837.7644 20.130686
1801.0806 18.506268
1772.446 18.812553
1743.6511 18.522736
1767.0388 48.86213
1790.4336 50.312603
1779.606 73.82573
1767.5399 94.2476
1788.2147 98.61402
1782.8071 123.1454
1785.9823 147.03433
1793.5535 171.15778
1867.9524 137.81046
1847.0388 175.94766
1822.5437 198.27686
1804.4817 218.573
1790.7607 205.48515
1773.8175 177.70555
1726.4651 190.5984
1718.8137 172.75931
1707.599 159.4352
1692.2247 151.68877
1674.0991 145.14978
1663.0305 156.64871
1644.5664 151.11104
1622.0917 141.50441
1600.8329 147.96478
1588.9751 134.70757
1572.8932 141.10744
1555.2665 145.36028
1551.9705 165.43216
1570.3602 168.33127
1579.7621 157.57129
1593.5791 167.21562
1609.5527 164.11858
1618.3689 158.07831
1630.453 160.30511
1641.7568 166.37799
1652.5259 169.93835
1665.8651 175.78879
1658.2607 189.75789
1657.6681 203.99176
1668.7095 214.25148
1669.603 228.89827
1651.4639 223.62323
1642.7035 237.08983
1650.0416 251.92033
1636.7405 263.89145
1652.046 273.74524
1678.3945 276.3377
1664.6895 264.43533
1665.4493 244.6091
1680.6921 254.4735
1696.9146 245.32947
1684.7087 235.17255
1691.9951 219.49304
1682.6836 202.55875
1678.867 185.94696
1682.9565 167.22731
1699.431 184.32309
1707.0035 203.70004
1729.45 212.68416
1711.1162 224.90627
1726.8552 239.2052
1711.76 242.23102
1713.9615 258.16257
1695.2056 266.19293
1709.8546 274.7808
1711.7877 290.11075
1727.502 270.33316
1740.328 254.34135
1741.5535 231.60323
1759.4059 223.83658
1781.4124 228.50548
1761.4321 249.832
1781.6066 254.0039
1827.6208 250.68953
1840.1072 289.25635
1810.3221 307.90015
1786.3081 288.92264
1753.0198 289.03638
1733.7604 300.38684
1713.721 304.0055
1720.2974 320.11646
1735.4619 327.67487
1753.2339 318.46268
1777.2517 320.0854
1795.0193 343.31393
1782.8605 360.34506
1799.9463 373.8384
1818.3723 372.36618
1823.9739 355.58813
1818.9376 335.15323
1835.9335 326.23105
1838.9553 350.2107
1854.1201 345.8753
1869.2782 359.01944
1852.2449 367.2187
1857.3584 382.48325
1839.8813 386.8462
1835.007 370.0799
1821.614 390.96796
1844.2279 403.97406
1826.5876 416.0764
1815.8391 435.87906
1797.1108 439.34277
1787.2212 422.16528
1807.4451 406.95245
1792.4856 397.33127
1779.5134 381.06458
1771.956 405.112
1752.4375 408.61755
1754.4796 387.13794
1761.4492 368.29074
1769.513 347.88635
1754.702 341.79776
1739.385 347.96307
1741.9806 364.98993
1734.4381 379.03976
1734.768 397.38403
1719.3733 386.88574
1708.0962 370.56677
1721.9913 359.48865
1721.6545 339.91907
1702.9712 349.14627
1703.7089 331.39478
1702.7335 314.74963
1690.9048 297.35095
1685.9152 318.331
1681.3651 338.0224
1686.0249 362.3972
1682.207 384.0194
1699.7274 392.08838
1676.4731 407.96317
1673.8787 433.1165
1683.919 455.1973
1668.3083 469.87686
1655.655 486.4508
1663.1582 500.93594
1644.3579 505.23764
1627.3534 515.0299
1608.855 509.42896
" />
</g></g></svg>
