<?xml version="1.0" encoding="UTF-8" standalone="no"?>
<!-- Created for Inkscape (http://www.inkscape.org/) -->

<svg
   xmlns:dc="http://purl.org/dc/elements/1.1/"
   xmlns:cc="http://creativecommons.org/ns#"
   xmlns:rdf="http://www.w3.org/1999/02/22-rdf-syntax-ns#"
   xmlns:svg="http://www.w3.org/2000/svg"
   xmlns="http://www.w3.org/2000/svg"
   xmlns:sodipodi="http://sodipodi.sourceforge.net/DTD/sodipodi-0.dtd"
   xmlns:inkscape="http://www.inkscape.org/namespaces/inkscape"
   width="3200"
   height="800"
   id="svg2985"
   version="1.1"
   inkscape:version="0.48.1 r9760">
  <defs
     id="defs2987" />
  <sodipodi:namedview
     id="base"
     pagecolor="#ffffff"
     bordercolor="#666666"
     borderopacity="1.0"
     inkscape:pageopacity="0.0"
     inkscape:pageshadow="2"
     inkscape:zoom="0.35"
     inkscape:cx="1600"
     inkscape:cy="400"
     inkscape:document-units="px"
     inkscape:current-layer="layer1"
     showgrid="false"  />
  <metadata
     id="metadata2990">
    <rdf:RDF>
      <cc:Work
         rdf:about="">
        <dc:format>image/svg+xml</dc:format>
        <dc:type
           rdf:resource="http://purl.org/dc/dcmitype/StillImage" />
        <dc:title />
      </cc:Work>
    </rdf:RDF>
  </metadata>
  <g
     inkscape:label="Layer 1"
     inkscape:groupmode="layer"
     id="layer1"> 
     <g>
<path style="fill:none;stroke:black;stroke-width:2px;stroke-linejoin:round;stroke-linecap:round;" d="M 
1651.9764 190.17946
1646.8119 193.64304
1651.1262 195.6612
1648.2126 198.35849
1644.6726 199.08122
1640.6326 198.83205
1642.5901 194.0791
1638.2894 194.48146
1636.3374 198.95964
1638.0946 202.98209
1635.5278 206.42241
1631.676 206.86244
1633.5579 202.95038
1631.4717 199.27615
1632.9625 195.37068
1627.2008 194.05818
1627.0021 199.43527
1622.4407 200.94037
1623.682 196.59239
1618.8586 196.78044
1617.6783 201.37556
1616.7192 206.00987
1621.9794 205.24344
1628.4484 203.33882
1626.5436 207.22937
1622.8529 209.7897
1622.1552 213.69742
1624.4397 217.10104
1628.3619 219.49278
1628.8713 214.34827
1629.5608 210.37463
1633.7808 211.93152
1636.9166 209.42204
1640.1201 206.9676
1642.6586 203.0072
1648.3643 203.67441
1649.672 208.8537
1647.5781 213.45981
1645.0432 206.34616
1643.7583 209.94904
1639.2272 212.24628
1643.0476 214.17519
1640.709 217.36208
1636.3005 215.5299
1633.3695 217.88869
1633.693 221.94254
1632.333 226.51305
1627.9602 228.65286
1630.7334 231.60329
1634.1426 234.56169
1634.8423 239.29933
1637.5087 243.49887
1634.5571 247.31213
1630.6257 241.7308
1629.4333 237.00111
1628.9391 245.38866
1629.6328 250.15718
1631.8938 253.38478
1626.4073 254.7509
1621.806 258.12238
1615.531 254.2159
1610.0577 251.38783
1611.7598 247.0941
1608.8551 244.795
1610.142 240.79556
1612.8002 237.08386
1614.1558 233.18617
1618.5171 238.7097
1615.1877 242.6928
1615.9794 247.8722
1619.4678 250.05246
1621.5576 253.81252
1624.8711 248.98184
1621.8346 244.53339
1624.197 239.75471
1624.9448 234.55057
1623.2561 230.60802
1618.6661 232.5678
1612.3955 227.73972
1616.4768 224.32959
1619.8499 227.0147
1624.5945 225.58415
1628.5692 223.54437
1621.7605 221.30641
1617.7828 217.1255
1617.1838 211.08356
1612.4297 211.90707
1608.3337 210.16975
1611.5771 206.6479
1612.4181 202.02888
1613.52 198.02116
1614.9408 194.35565
1616.654 191.2219
1619.4641 188.42938
1621.13 193.03854
1623.1821 190.0586
1625.3121 187.19423
1628.054 189.45396
1631.502 191.34499
1636.408 190.47911
1642.335 189.03365
1647.8696 189.58609
1646.2477 185.51971
1641.6763 182.54646
1644.2566 178.63147
1645.2659 174.46368
1639.8779 176.37907
1636.2844 172.51085
1631.6471 173.83
1627.6819 176.28815
1631.5171 180.50969
1636.1974 179.19968
1638.3064 185.55188
1634.0308 185.65321
1630.0884 185.71991
1626.7926 182.93608
1624.0631 179.79721
1622.1932 184.85744
1619.1476 182.4406
1614.6941 183.0658
1616.6921 186.25676
1612.719 188.40164
1610.8188 193.14214
1608.0247 196.98622
1607.3486 201.93298
1605.4702 207.35747
1604.2097 212.79376
1600.6863 216.95319
1604.641 218.68297
1607.7546 215.63826
1612.1991 216.45518
1613.5051 220.92154
1608.7109 222.2506
1602.9341 222.70944
1605.6888 226.84206
1608.4725 231.37415
1608.677 236.67406
1605.3086 235.80365
1603.3817 231.84431
1600.6682 236.54688
1596.876 240.02942
1600.5125 241.36057
1604.0776 239.51416
1605.2358 243.15094
1605.3271 248.3409
1601.2272 245.94688
1597.2019 244.49213
1593.139 242.70421
1589.196 240.01266
1589.9971 235.53369
1593.1047 238.50375
1596.4102 236.02362
1593.7021 233.30269
1587.0725 232.97797
1585.4786 229.14297
1581.1415 223.53294
1580.9307 228.50749
1577.1433 230.6737
1579.2563 234.48749
1583.0872 234.38329
1585.1025 238.0794
1573.4088 252.8175
1569.0068 249.69734
1565.3811 246.65736
1565.2933 253.70804
1561.8502 250.89159
1557.2004 249.0776
1556.8989 253.16618
1560.3784 255.86421
1563.7312 258.74066
1569.1997 255.60182
1568.3942 260.41974
1567.207 265.24222
1563.654 263.17188
1559.1104 262.98016
1558.1086 259.8758
1555.5005 257.00253
1551.976 257.05835
1548.1844 257.13336
1548.6418 260.74304
1549.3518 264.45917
1553.1096 261.44308
1555.2517 264.6955
1560.0881 266.3411
1562.9554 268.29663
1566.2605 269.35052
1564.8682 273.367
1560.749 272.2703
1556.38 273.3309
1557.1239 269.00473
1552.7395 267.38757
1552.0597 271.22665
1552.4606 275.33936
1549.7795 278.29883
1544.7878 278.4825
1541.2009 276.55875
1542.8848 274.10553
1547.6753 273.34732
1548.5388 268.496
1544.4614 267.7367
1543.784 271.17566
1539.8516 268.29767
1538.4829 272.6762
1534.95 275.32013
1534.2069 271.30594
1531.4623 267.79132
1535.4729 267.24893
1536.3262 263.71167
1533.7778 260.90356
1530.3643 263.07825
1527.4359 266.2497
1528.2375 271.03946
1527.7214 275.26718
1531.3016 274.75308
1530.8726 278.8385
1534.7594 279.28134
1533.4097 282.1251
1536.9417 283.99258
1541.6033 287.75168
1537.9425 288.05548
1535.9829 291.0389
1534.0562 287.74875
1532.026 285.3732
1528.8475 287.72043
1528.0203 292.60016
1531.8386 291.28323
1535.8228 294.46277
1539.242 296.89725
1541.1663 292.05664
1544.3943 296.07358
1546.8475 291.74344
1547.3059 286.89957
1546.9072 282.29596
1552.2307 283.91635
1556.0674 278.5143
1560.0781 277.28436
1564.397 277.4007
1562.6987 282.01846
1566.028 287.73816
1570.0505 290.37762
1569.2072 285.33734
1572.9779 283.26074
1575.8998 281.1611
1578.2565 284.94537
1574.3313 287.11084
1579.5995 287.95422
1578.9185 291.7584
1575.0052 291.50635
1572.3152 294.76862
1575.3779 298.21216
1578.8297 295.85114
1582.8186 298.4648
1581.797 303.5574
1585.8923 304.96783
1589.6875 304.60052
1592.1199 306.57632
1595.7517 304.31763
1600.0681 301.49
1604.7175 297.49655
1599.4865 295.88098
1593.8947 291.93942
1594.3376 297.26425
1594.2349 301.60696
1590.2302 300.4942
1585.8335 301.23077
1588.7719 296.90927
1585.6646 294.91687
1582.8253 293.07468
1583.5214 289.18668
1586.6732 287.21838
1589.058 291.41876
1591.8984 285.92044
1587.3754 283.2129
1585.9644 279.0608
1586.2811 274.60696
1582.9425 270.7811
1581.3372 274.41376
1582.3589 278.31253
1582.9608 283.53955
1579.6097 282.00778
1578.9752 278.8681
1577.1066 276.10614
1573.3754 277.9599
1570.1626 280.55963
1566.5234 281.3004
1568.99 276.38336
1569.1119 272.30203
1573.1023 273.58298
1577.2952 272.43738
1578.4064 269.31537
1576.2776 265.41968
1574.0369 268.97943
1570.3313 268.6523
1571.3439 264.54465
1573.8813 261.6254
1573.3677 257.6551
1578.056 257.70724
1578.5454 261.97107
1582.1309 262.49005
1580.6785 266.61176
1584.5186 265.91025
1586.7479 268.97388
1589.5178 271.4143
1591.7714 275.1381
1590.6885 279.9583
1596.1199 279.02615
1596.8717 284.4066
1602.1522 285.3071
1599.0409 290.3277
1605.2471 290.6949
1609.5642 293.66565
1611.7858 297.67648
1607.4648 302.02786
1603.487 305.14325
1599.9492 307.16833
1597.1644 307.01822
1594.4025 309.05972
1590.1626 309.37292
1586.492 308.74155
1582.4009 307.535
1582.3828 311.16895
1578.9868 312.18634
1575.117 312.24203
1571.709 309.94308
1575.0217 306.75275
1578.5493 306.7287
1579.0236 300.88382
1574.989 302.5513
1570.9354 304.8912
1571.1248 300.45688
1568.5104 297.70956
1566.0754 294.20767
1561.5068 291.00858
1556.4259 295.80527
1554.074 288.2086
1552.5334 292.302
1550.658 297.62296
1555.8608 301.85587
1553.1392 306.72266
1554.8848 310.9327
1547.932 312.91354
1540.9615 315.40375
1543.504 319.66205
1543.2299 324.81372
1538.143 324.85965
1536.8486 319.72083
1534.6871 315.06244
1531.448 311.65872
1533.5785 307.73163
1537.6191 310.6915
1537.1195 306.33765
1542.3748 306.13727
1544.1484 310.7626
1548.1814 305.87558
1547.271 300.96423
1542.6605 300.86945
1538.5316 301.61395
1534.0748 302.98038
1533.4314 298.9554
1531.5505 295.63287
1529.4823 300.76486
1530.7626 303.7166
1530.621 306.5345
1526.8773 304.2962
1527.835 297.6205
1523.0325 296.0363
1517.4025 294.09692
1513.3075 294.80032
1516.5062 297.8373
1520.8365 299.30316
1522.8124 303.01154
1518.6199 302.23236
1514.9437 301.99933
1513.6412 305.87378
1510.4178 308.67444
1511.4025 312.36212
1513.9722 315.289
1510.7477 317.80554
1506.9369 315.7974
1507.352 312.34662
1505.5283 309.93423
1506.3712 307.1525
1504.237 305.0472
1506.2249 301.5205
1508.846 305.18735
1510.1991 302.05475
1511.7437 298.66776
1507.2953 296.6757
1509.593 292.99667
1505.928 290.79626
1508.7067 287.97165
1512.3925 289.36597
1515.4617 290.8941
1512.138 285.0065
1515.9065 277.35986
1512.2743 278.5544
1507.814 277.18076
1508.3783 281.78738
1503.948 282.28717
1501.4719 287.3127
1497.5066 291.77148
1483.9188 279.4396
1481.1292 285.65985
1480.9595 290.74396
1476.3124 291.81638
1469.6477 287.89487
1475.2983 287.34033
1476.5721 282.41977
1471.1581 283.08383
1467.7467 279.68488
1473.8557 278.1313
1474.9567 274.0235
1480.1128 280.36758
1480.4392 275.84302
1482.2079 272.1694
1477.8407 271.39542
1478.1163 267.3167
1477.6726 262.76685
1477.0171 258.52722
1477.0817 253.90111
1472.2557 256.63272
1471.9443 260.97272
1466.937 261.35147
1465.9552 264.88425
1470.37 266.1248
1474.3971 264.495
1473.3517 269.2793
1470.2953 273.42026
1466.3033 269.35394
1465.8611 274.1583
1463.0217 277.6592
1463.4619 284.65164
1464.5493 289.76953
1465.147 294.95667
1470.8213 293.4608
1471.0056 299.24005
1473.9252 302.10147
1475.7881 298.98785
1475.1472 295.71326
1479.754 296.16577
1480.8607 300.8938
1478.2393 301.6809
1476.5676 304.41577
1471.0177 304.13095
1467.5935 305.65292
1467.2195 299.2351
1463.2264 300.83426
1463.3033 305.70367
1464.8108 310.11932
1468.705 314.45428
1468.2024 319.39398
1466.0298 323.74594
1473.6266 318.66614
1472.4026 323.61414
1476.0378 328.71188
1479.5635 331.89468
1478.5999 324.3406
1478.9503 318.65793
1483.9823 320.77203
1484.0625 326.0694
1488.4307 329.5252
1483.9121 330.77094
1486.1803 334.39117
1487.2527 338.10132
1489.6384 341.03534
1490.8712 344.8452
1493.8367 342.43668
1492.7444 337.5161
1491.1075 333.6739
1501.7501 325.70248
1506.845 320.05768
1508.6703 323.16876
1509.7227 330.4988
1512.007 326.5963
1513.4558 322.37097
1516.034 319.4796
1518.268 315.4449
1520.4846 311.85022
1515.5465 310.5887
1517.9972 307.20267
1521.163 305.91397
1524.0952 308.49396
1528.2051 308.46448
1525.0831 312.80463
1528.6898 315.57178
1530.6211 319.3165
1532.5217 323.5182
1534.0541 328.12433
1537.1665 331.55594
1537.1812 336.57584
1541.9323 333.89386
1541.6263 329.48627
1546.7644 329.1359
1552.3044 328.56555
1556.8771 330.36606
1554.6024 324.13748
1548.6506 324.5824
1548.9291 319.76746
1551.6113 315.49374
1554.5771 319.6693
1557.1853 315.7476
1562.2278 315.52097
1560.2379 311.28424
1560.8679 306.36682
1562.757 300.6795
1566.3402 302.97995
1567.1395 307.40607
1566.5209 311.3164
1570.3496 315.26282
1569.0857 319.8045
1575.1805 317.09723
1579.2058 317.0006
1574.4357 321.18292
1570.6838 324.32034
1567.2845 328.02234
1565.103 323.82404
1564.0385 319.8509
1559.6968 320.77008
1559.5145 325.79974
1562.8347 328.5925
1563.0663 332.5741
1559.347 333.6709
1555.8544 336.28278
1552.0433 333.68698
1547.3777 333.88812
1551.3579 338.92093
1546.4717 340.0043
1542.926 337.69495
1540.8884 342.36902
1535.7925 341.6775
1528.6251 341.0043
1522.7877 343.41177
1522.5847 338.62894
1517.3811 336.56598
1520.6833 333.78177
1522.8503 329.92523
1526.43 334.69077
1531.8628 337.0195
1531.5582 332.39948
1528.491 329.10263
1527.5867 325.26584
1525.9824 321.15897
1523.5092 317.05106
1520.3915 320.38373
1522.5234 324.59827
1517.7806 325.10843
1516.8517 329.77637
1513.4348 333.11346
1506.4869 345.79825
1514.3794 345.1082
1518.2764 346.79703
1521.655 349.42017
1526.7728 346.6831
1532.4187 345.22107
1535.758 348.7261
1530.4845 350.0945
1525.6089 352.74542
1521.3169 356.0332
1514.1953 358.1237
1516.1506 354.68378
1515.222 350.41153
1510.6909 347.5981
1510.951 352.8775
1505.8271 351.58047
1508.2705 356.7294
1506.7235 361.03824
1501.9979 358.13654
1500.3644 353.14658
1496.4578 357.51907
1501.6772 363.44092
1496.3805 363.17575
1490.0977 364.58176
1491.5376 360.36954
1488.271 354.55444
1486.5011 351.42294
1492.6256 352.88065
1493.054 348.47604
1488.184 347.6416
1485.69 343.2154
1482.7234 339.89062
1481.9617 336.10297
1477.7512 337.60815
1472.967 338.81012
1475.5105 342.07916
1480.5851 342.76282
1478.9438 346.04984
1483.2805 347.35547
1481.9397 351.64685
1481.3615 356.3985
1478.172 354.04276
1476.2357 358.374
1471.4696 359.0587
1467.0411 358.5575
1462.3746 361.07376
1462.1594 356.61407
1457.4785 357.56815
1453.2686 354.69757
1448.4581 355.10495
1442.689 356.52347
1434.793 355.12766
1422.1 351.35748
1413.1931 343.4552
1410.677 328.879
1410.9491 338.44754
1416.3905 347.34344
1428.5757 353.4537
1439.6251 351.0531
1440.8931 341.6172
1445.2008 349.676
1451.9226 348.6
1457.9537 351.32532
1463.9164 352.84067
1469.7281 351.9143
1473.7413 353.97662
1476.9696 350.0059
1474.7983 346.78937
1471.4183 345.96024
1467.2054 346.07574
1468.3976 341.67294
1464.2102 338.74768
1460.5061 334.97723
1458.1573 331.51685
1460.7716 330.5261
1463.8635 332.36838
1465.9617 335.06747
1469.3079 337.12476
1474.1852 333.70297
1469.5659 332.3172
1470.9894 327.94263
1466.589 328.57504
1462.676 327.64554
1460.4014 324.60764
1458.6089 319.90298
1462.6475 319.6069
1464.4417 315.4339
1460.7468 313.0026
1457.5289 309.9728
1459.3313 306.28455
1457.6057 302.89212
1459.1198 298.57224
1459.8185 293.32385
1456.2538 288.4073
1459.4108 281.53223
1458.6382 275.91226
1460.7615 270.7978
1460.8083 265.29535
1450.3099 257.1778
1445.0908 254.17618
1449.3169 250.06671
1455.7445 252.49023
1455.9946 247.52109
1454.1613 242.88731
1459.8998 243.03435
1463.552 239.13309
1461.9196 233.97318
1457.9956 237.492
1455.3881 234.04018
1453.4248 230.42212
1444.158 232.79082
1450.288 239.6376
1445.8225 239.04192
1441.2432 242.88287
1438.2393 237.76193
1434.3829 235.93788
1438.5286 233.75404
1440.0974 230.29779
1437.4856 228.07458
1434.947 231.07832
1431.0067 231.61862
1429.6339 235.95285
1427.0482 242.18625
1423.9852 237.03947
1420.11 240.13158
1416.5693 252.57317
1429.7493 258.47025
1437.584 259.41577
1444.8041 261.2893
1437.762 264.5321
1405.013 285.6816
1400.2769 288.60425
1405.7402 295.8949
1408.4814 309.11288
1408.9941 313.3445
1408.4132 318.06775
1406.455 321.44058
1406.0902 327.03
1397.9479 330.96735
1402.3478 322.61472
1397.8922 318.02057
1402.6313 313.67175
1396.3014 310.0383
1394.732 314.3771
1392.8959 320.1507
1389.4413 313.14258
1386.6226 305.1382
1397.0966 304.2319
1395.3981 296.892
1387.4716 291.1828
1389.4817 285.0454
1389.9026 278.52014
1392.9661 273.81836
1393.048 267.4714
1398.077 254.64139
1404.7156 242.76056
1413.3894 239.5491
1410.3337 235.97356
1415.0972 232.9938
1418.0972 235.74509
1420.8746 231.41208
1425.08 232.77481
1428.049 228.84361
1425.5895 226.37732
1430.61 222.7678
1433.086 226.1093
1437.79 222.57904
1442.6346 223.57187
1446.0735 227.17242
1447.2441 221.44232
1454.0708 223.71004
1459.5612 222.40285
1460.8657 228.86528
1466.0618 231.62808
1468.5532 235.43982
1473.2307 235.6597
1473.9165 230.66626
1468.6929 228.4096
1464.6318 222.81601
1468.3596 223.39227
1473.0356 224.62225
1471.8359 219.25122
1470.4944 212.2774
1475.0012 214.97662
1477.9739 219.93628
1480.4938 215.82501
1478.9058 210.68367
1473.1707 208.59148
1476.475 205.79683
1479.3357 202.2896
1480.86 206.01709
1484.1654 203.50977
1487.5612 203.877
1484.0896 208.25797
1488.4524 208.0741
1492.4236 210.19312
1492.5688 206.51212
1491.1444 203.4915
1496.5635 204.54848
1496.4944 207.95898
1500.8021 207.02954
1505.1168 208.84042
1509.6018 211.09401
1513.7703 215.00972
1509.4319 217.48201
1508.677 214.97482
1506.147 212.57718
1502.4478 211.31288
1499.169 210.66872
1503.5869 216.13887
1500.2485 214.7818
1497.1001 214.36868
1495.6426 211.2809
1492.7499 214.97116
1488.9897 212.55928
1484.0785 212.98912
1487.8373 217.25299
1484.4023 222.14738
1478.3506 224.25374
1480.2832 227.58339
1484.4801 227.1531
1488.608 226.38435
1493.5872 226.59824
1495.9385 224.65332
1500.3627 223.84862
1497.1617 221.36992
1489.6825 222.21844
1492.7661 219.98994
1496.0253 217.74806
1500.2812 218.8817
1504.6279 219.51933
1503.8894 224.44489
1508.0778 224.04494
1509.3586 228.71564
1504.5297 229.10927
1506.8453 234.4066
1502.3376 234.00114
1499.1383 229.27843
1497.7024 233.44702
1493.3379 234.08038
1491.5422 238.60658
1487.8335 235.75836
1482.6573 235.5741
1477.9866 234.55046
1480.9849 241.33533
1485.7501 239.83372
1489.3208 242.4154
1492.8597 249.97984
1492.305 254.22258
1498.3491 251.45032
1500.828 255.815
1505.2993 251.73868
1506.7632 256.3274
1504.8783 260.33542
1510.7324 259.22903
1509.274 264.85156
1514.453 264.22815
1513.4258 268.36914
1510.9894 272.25873
1515.9863 272.29675
1519.5125 274.95563
1520.8665 278.76138
1523.0323 281.2273
1522.4618 284.62134
1523.6937 287.4961
1526.1334 283.8484
1529.4344 282.71384
1526.6135 279.2376
1524.0872 275.07034
1522.4022 271.22272
1523.3542 267.30392
1523.7075 263.2139
1525.1045 260.0573
1528.9678 259.0207
1532.0677 257.2274
1535.1876 257.3448
1538.2952 259.77557
1540.7275 263.54034
1544.9343 263.90936
1544.2747 259.89383
1541.1725 257.53745
1544.7113 255.4597
1545.1681 251.50226
1542.803 248.69405
1540.6458 244.28444
1536.6742 243.7616
1535.3899 248.62196
1538.813 248.94418
1540.6829 253.01997
1537.6782 255.10875
1535.0079 252.91379
1531.4592 251.42279
1531.6891 248.18158
1532.3091 244.7655
1528.7589 242.11427
1524.0378 241.94995
1519.9824 245.69606
1524.1313 247.77698
1527.9838 247.40512
1526.7808 251.99957
1530.0739 254.52248
1526.3711 256.2378
1523.0415 255.23909
1520.1619 257.62924
1519.287 262.20682
1518.6532 267.4825
1515.1814 259.86655
1515.697 255.23358
1522.1047 251.60828
1518.2255 251.24991
1511.0201 252.91783
1514.5707 247.94098
1510.1857 244.59315
1503.7961 247.26079
1500.6224 243.65372
1497.2278 246.8885
1493.8992 244.0431
1495.9299 240.98827
1497.0399 237.58235
1501.5344 238.84224
1505.9001 241.14429
1511.2333 238.58961
1516.9739 241.41162
1521.6138 236.87321
1517.073 234.55138
1521.7218 230.73053
1518.5724 228.34091
1511.8745 232.90198
1514.6123 229.156
1517.103 224.83057
1518.0654 221.55075
1518.8336 218.62619
1520.7693 223.36858
1525.9471 230.92517
1530.6582 231.33139
1535.511 232.04259
1526.4121 236.11987
1530.41 237.08006
1533.6646 240.41641
1535.0864 235.9442
1538.547 238.70241
1545.083 244.8687
1548.7196 248.76505
1549.1029 253.36769
1552.8856 251.58736
1552.6226 246.23935
1554.2197 241.10611
1549.1785 243.32794
1547.7747 238.48355
1542.9958 239.71886
1541.4028 234.07007
1548.5469 232.3839
1552.1526 221.3487
1558.8438 217.87996
1563.3813 213.18509
1568.903 213.09863
1567.7183 207.11845
1572.2261 209.1037
1575.9379 210.85219
1574.3679 214.93686
1572.07 218.3559
1571.7661 222.49359
1567.8862 224.83449
1563.6786 226.21097
1566.451 218.41183
1563.1299 221.65916
1558.1517 222.97145
1553.4698 236.21007
1558.6396 239.33905
1556.6636 244.72646
1560.5723 245.81735
1562.7118 242.5434
1569.3276 229.11787
1573.6005 231.73592
1573.3785 227.1089
1576.7478 224.5356
1577.9362 219.41968
1579.376 214.52803
1580.2499 209.78008
1584.3857 210.82178
1588.5116 212.46062
1587.4259 216.0283
1583.216 215.63226
1583.7598 219.97353
1585.869 224.81543
1588.2881 220.76993
1592.007 219.60455
1594.862 223.71425
1590.7992 225.3325
1590.5233 229.90903
1595.1464 228.99345
1598.7443 232.65012
1599.9774 228.81387
1599.3507 225.29967
1598.4545 220.81856
1595.7837 217.96935
1595.8735 214.36894
1591.822 215.23308
1592.5205 211.25325
1588.9888 209.14906
1586.8436 206.50243
1590.7148 205.45683
1593.789 202.62859
1593.1982 207.61327
1596.3737 207.73486
1596.5342 210.99127
1599.7539 213.35167
1601.2284 209.93082
1599.9742 207.16858
1599.6082 203.86487
1596.337 203.82321
1599.5057 199.96223
1603.4523 203.49287
1602.513 197.0658
1597.293 194.82214
1593.9998 198.14502
1588.7336 196.36676
1585.589 199.38971
1590.5336 200.89828
1587.3367 202.7939
1582.5479 202.51505
1583.2152 206.1004
1578.2793 205.97418
1573.3837 205.21594
1572.0703 201.39833
1576.0521 202.13203
1579.0286 201.16295
1576.3329 197.7339
1577.0729 193.71033
1581.0311 198.27353
1583.43 195.2929
1581.1545 191.69937
1577.4858 189.18335
1578.8894 185.63483
1579.1469 180.89665
1582.3613 179.443
1584.4432 177.31325
1587.247 176.4285
1581.4312 175.76517
1584.6858 172.61403
1586.0657 169.20625
1590.4915 165.77318
1591.4656 162.1757
1592.3103 158.08191
1594.6028 154.204
1598.7261 152.71715
1598.0776 157.14891
1596.6586 161.14455
1599.1619 163.6558
1600.029 167.1771
1603.0453 169.24164
1598.4475 171.36154
1594.9785 167.14748
1589.7108 169.14856
1589.0 173.6516
1592.3872 171.74295
1594.553 174.54402
1598.1129 176.41618
1597.7852 180.62369
1597.0076 185.12666
1591.0769 185.60562
1592.1807 178.99687
1587.7012 181.44751
1583.0063 183.02084
1584.5969 186.97673
1586.7394 191.10112
1591.6101 192.25386
1595.8647 189.91528
1601.14 189.13162
1603.9089 192.94229
1607.8806 190.09782
1609.3623 184.47113
1605.6073 186.49382
1602.5354 183.23766
1605.2836 179.53017
1602.313 175.74237
1604.5142 172.26799
1607.5302 174.29079
1611.1836 175.00941
1609.6407 178.52586
1611.8867 181.05711
1615.3256 177.1089
1619.2864 178.50015
1622.2612 175.07219
1624.2415 170.99948
1630.3894 168.39847
1626.6362 167.51518
1623.7216 164.7181
1621.7805 160.62341
1618.5547 158.04137
1613.7466 158.19547
1614.97 154.3836
1610.2826 152.25293
1607.7031 156.19736
1609.9166 159.41454
1607.5945 162.25381
1611.773 163.70488
1615.5986 162.15752
1619.1599 164.21523
1619.1807 168.32681
1618.0459 172.4852
1613.3796 171.96895
1614.8247 167.09389
1611.0575 168.64436
1607.4645 169.55627
1607.9508 165.93933
1603.9803 164.8014
1603.2988 160.54787
1602.6327 156.56987
1604.2311 152.1795
1606.5338 148.2867
1602.53 145.53905
1600.2188 148.76105
1595.6143 148.6474
1597.6506 143.58556
1598.4148 138.54681
1600.4968 132.55426
1601.8069 139.7356
1604.7816 142.27348
1608.5323 143.63324
1611.7952 140.51373
1607.6306 139.58746
1604.4111 135.51875
1608.4294 131.71097
1608.9797 136.01889
1612.9253 135.60123
1614.4514 131.9493
1615.126 127.53987
1622.6437 126.69256
1619.7795 130.5832
1618.4829 135.51337
1623.205 135.51668
1626.6827 131.02121
1628.6998 135.38486
1633.6406 133.66502
1632.6946 128.03458
1628.0533 125.88216
1632.5441 122.08282
1637.8116 124.092026
1637.6324 129.01622
1640.7145 132.04996
1638.8733 136.36926
1636.2378 139.92
1640.2142 141.66405
1643.8616 140.92531
1647.4238 140.00023
1648.5144 143.12973
1650.1016 145.9524
1650.4918 149.41766
1645.8711 147.2508
1642.0876 146.41817
1643.6301 152.12462
1645.4869 159.24983
1648.3667 156.59685
1648.717 152.73938
1654.1786 151.52322
1658.4656 151.88773
1657.3541 147.42874
1654.0737 145.57436
1653.1287 141.0371
1658.6874 142.97112
1658.6545 138.49316
1661.9418 134.70682
1662.6183 129.4947
1668.1959 130.67116
1668.016 135.35411
1665.1217 140.46843
1663.3434 144.47592
1667.0055 147.45354
1661.3678 148.30247
1664.3611 151.41307
1661.8562 154.91315
1657.4644 156.57512
1653.3954 156.47644
1651.1295 160.80322
1647.6532 163.27557
1649.6742 167.9823
1645.9968 166.56691
1642.6252 166.7213
1642.3679 162.49281
1641.4694 157.14542
1636.072 157.71371
1630.7769 157.94698
1632.7925 153.98668
1638.5419 153.03685
1635.1683 149.93694
1638.5165 147.30391
1634.8264 144.2509
1631.8875 139.47989
1626.7961 139.82707
1622.9176 141.95433
1619.643 140.32982
1615.6244 139.03275
1615.1791 143.62798
1610.424 146.31606
1613.1705 147.84436
1615.9465 149.93108
1619.1466 145.86159
1622.5 148.97714
1625.2273 145.19308
1629.4104 144.02876
1631.5784 147.26407
1630.2451 150.89558
1626.548 149.45972
1619.509 152.17169
1622.438 155.12895
1626.8572 154.12648
1625.7233 158.8358
1628.5919 162.59859
1633.2734 162.80965
1637.9181 162.16515
1634.6635 167.8262
1638.8513 167.03401
1640.5303 171.9831
1643.4382 170.269
1647.1707 171.08809
1650.9008 171.97775
1654.2373 173.3296
1657.9705 174.48625
1654.0999 178.9619
1649.724 176.96199
1648.5403 181.58382
1651.703 185.47023
1655.3617 183.73837
1658.8182 180.25688
1663.5444 180.01526
1662.547 175.91588
1661.7715 171.62152
1668.0918 177.78032
1667.4655 172.68224
1670.77 168.32689
1673.1871 173.37054
1676.4719 170.09671
1676.6881 164.94534
1678.7809 160.75569
1675.8826 157.58412
1671.5242 158.03604
1671.5564 162.94643
1666.5598 164.61282
1664.2068 168.12811
1661.406 163.22221
1659.2609 167.37335
1655.5815 168.42873
1652.4858 165.47809
1656.0852 161.99149
1660.9354 159.14032
1666.1509 159.75443
1666.6517 155.53973
1669.6298 152.7978
1674.186 152.77675
1671.3501 148.73204
1670.6974 143.77861
1670.1543 139.41199
1674.317 137.63188
1674.2805 133.15155
1678.513 134.64314
1679.1969 139.88702
1682.6143 142.37321
1686.1404 143.90158
1689.366 143.22221
1692.5332 144.00159
1692.3176 147.7042
1688.7562 147.12312
1685.8792 149.82912
1689.0543 151.77037
1689.0737 156.0279
1694.0004 155.2096
1692.8225 151.54288
1698.1526 152.00829
1695.9032 149.44164
1696.9133 146.65141
1695.8501 143.32004
1697.3698 140.33261
1695.5775 137.01357
1693.4702 139.94914
1690.1306 139.77641
1686.8298 140.0748
1684.376 138.16577
1681.5618 136.96954
1687.6122 135.51262
1691.4108 136.5957
1692.3933 133.5098
1692.0554 129.93234
1688.6277 131.2932
1685.1969 132.11603
1682.4417 133.3375
1684.6523 128.22401
1688.506 126.45825
1687.1396 122.50946
1687.5842 118.00261
1683.8151 114.56345
1680.3013 118.776375
1682.2424 123.81956
1679.574 128.8897
1674.4282 128.95505
1671.1566 126.26393
1666.2273 124.78172
1661.97 124.45672
1657.5413 124.17762
1657.3801 129.26901
1655.2336 133.13237
1652.7681 136.5634
1648.4448 136.1437
1644.2344 134.87079
1648.8472 130.81514
1653.0847 126.82895
1651.148 122.399666
1647.9102 125.4947
1643.3691 127.49481
1642.3695 122.185165
1646.6486 120.38727
1642.5455 117.41902
1637.6245 119.08376
1633.9371 116.28575
1629.7312 117.277214
1626.1282 120.81689
1620.9697 121.32017
1621.0071 116.13189
1619.1289 110.65333
1620.1017 106.32187
1620.4429 102.0478
1621.0607 98.032974
1622.1619 93.75506
1626.1772 90.619255
1626.3132 93.757675
1626.4594 97.12738
1627.0061 100.876175
1625.1877 105.03049
1623.867 110.229416
1626.2256 114.46749
1628.8663 109.35781
1630.5471 104.23087
1634.4563 105.29422
1638.2915 106.227264
1636.9934 110.279816
1632.6146 111.6059
1638.4121 114.27017
1642.8748 113.36021
1646.8489 111.32226
1647.4773 115.28182
1651.0862 117.65418
1654.5627 120.3731
1657.6644 118.4169
1660.8573 120.28402
1664.7649 118.438644
1668.7567 118.28933
1670.7195 121.85507
1676.3617 123.271255
1674.6934 117.07521
1669.9215 114.18096
1668.9437 109.831795
1664.3573 110.703384
1661.6982 114.8269
1656.4996 114.616585
1652.6932 112.84696
1650.8801 108.62916
1655.6104 106.54915
1658.8218 110.02972
1662.1246 105.11129
1659.0188 100.5334
1664.5664 99.29594
1670.2623 99.46505
1668.5518 104.85382
1675.0913 105.333595
1674.0867 110.00837
1678.508 112.37873
1682.5015 109.280464
1686.2004 106.51667
1687.9158 102.0728
1684.3 99.2932
1681.0986 97.03871
1680.82 104.126045
1676.6267 101.00236
1675.1536 97.33884
1672.4705 94.09595
1678.0618 93.741104
1681.9845 91.74735
1684.2749 88.73307
1687.5969 86.68375
1691.5791 85.52327
1691.9484 80.79577
1690.638 76.18642
1685.4948 77.19806
1687.1083 81.610825
1681.823 80.29264
1677.2102 81.237816
1678.6362 84.8682
1682.6144 85.20286
1677.2975 89.30248
1673.9045 85.74429
1673.2692 80.64277
1670.9293 76.356606
1670.8248 71.5799
1670.3595 66.64749
1663.8008 67.94438
1664.2074 74.01775
1665.4272 78.403114
1669.2112 82.14236
1663.9337 83.12439
1659.3962 81.29584
1655.8643 79.114395
1659.2366 71.88276
1655.0254 73.924385
1651.0741 75.4048
1650.8511 70.06805
1647.4972 72.46901
1644.3921 70.3182
1640.1064 69.96857
1639.7925 74.55353
1643.3992 75.86955
1647.2764 77.13177
1650.6848 80.17783
1650.8381 84.60228
1648.0956 89.7878
1643.5923 85.073425
1644.3699 80.81789
1638.0837 78.859146
1632.7198 77.115845
1629.8057 81.030075
1632.0303 86.169174
1633.974 81.727104
1638.1273 84.44837
1635.3892 88.929535
1636.774 93.71394
1641.9219 89.8943
1642.3179 95.11157
1647.81 97.34251
1651.6077 93.78503
1655.219 88.32196
1660.6962 88.13053
1665.5754 87.80494
1669.5006 86.99595
1671.4845 90.47871
1666.0725 93.55556
1659.4299 94.00226
1654.6428 97.63634
1652.9253 102.273834
1648.8966 103.266464
1646.4019 107.43774
1641.9089 109.69582
1642.0653 105.905106
1644.9513 103.60112
1643.7648 99.680145
1640.031 101.823784
1636.5907 99.45329
1631.9865 98.073074
1631.037 92.560974
1627.9604 88.05912
1628.4302 84.7872
1626.4751 82.24018
1623.1201 82.32071
1624.0825 85.53201
1622.8082 88.84281
1619.0201 90.29635
1617.2062 94.676796
1615.1208 99.2949
1614.5034 103.9116
1614.6628 108.70349
1611.3276 112.26589
1616.0471 114.20184
1614.2773 118.55471
1616.9069 123.648026
1611.0298 122.6269
1610.0812 127.4547
1604.1553 129.09094
1601.5707 125.19091
1605.6946 123.64901
1607.8105 119.23281
1603.7766 117.5845
1607.9935 114.850365
1605.5098 109.55305
1609.5747 106.782974
1608.1985 102.120834
1610.6627 96.50242
1613.0582 92.34564
1613.213 88.98235
1616.2311 85.93044
1620.106 85.75854
1618.5798 82.630806
1619.6187 80.22109
1622.002 78.76605
1625.2322 78.56044
1625.3221 74.49546
1628.484 76.74859
1630.6191 72.06956
1635.386 73.01713
1635.9902 68.42918
1642.0885 65.81383
1646.9642 65.8266
1651.2483 63.992344
1654.8303 68.054436
1656.5039 63.697296
1660.5238 61.93746
1665.5264 61.85837
1670.3955 60.184277
1678.5238 58.08278
1684.203 55.846924
1685.4563 60.34992
1683.4253 65.06592
1680.0806 62.0926
1674.8335 62.353912
1677.3914 67.212395
1676.9758 71.85787
1676.9019 76.72788
1681.7167 74.39808
1683.5895 69.57077
1687.6963 72.38902
1692.2932 69.67257
1695.6201 72.64294
1698.8362 68.51823
1699.8555 64.41352
1704.188 61.404686
1708.0146 64.651085
1711.5991 61.398937
1716.1848 63.836243
1720.7297 62.39227
1723.5128 66.2824
1718.8784 69.19667
1713.0396 68.5277
1709.0502 72.145676
1704.7196 68.84284
1700.2703 73.54989
1695.6079 77.52858
1696.0548 83.66548
1700.0892 79.96662
1704.0048 75.36518
1707.5504 77.720566
1711.7394 78.34023
1714.2395 74.584785
1718.552 75.66512
1722.6555 73.191414
1726.1593 71.0353
1727.7859 67.501015
1730.488 65.11676
1736.0208 62.497433
1732.1428 61.266495
1726.1324 61.278797
1720.992 57.544865
1720.811 52.17007
1716.3759 57.49938
1711.9951 55.806564
1707.3779 56.410366
1703.9766 52.21101
1702.0469 56.12485
1698.5248 60.01163
1694.164 63.927208
1688.77 65.54643
1691.0559 59.27874
1689.6116 54.083553
1694.4805 51.960682
1696.3739 56.095127
1699.3243 50.113873
1704.5159 48.153324
1708.5137 46.20635
1709.878 50.90224
1715.6068 51.435146
1712.7958 46.105846
1717.5642 46.286526
1722.2828 47.44352
1726.8533 50.13738
1731.7023 50.170055
1725.1956 55.43846
1729.4819 56.86543
1733.8297 55.612667
1738.3867 56.510838
1737.247 50.88306
1733.0457 44.01704
1739.7148 40.942066
1738.4735 45.794674
1742.1754 48.79682
1743.116 53.6907
1743.3538 58.343796
1739.6431 61.89016
1743.4656 62.993694
1741.8197 67.91438
1742.5215 72.3735
1740.4248 76.41692
1736.6083 72.925705
1735.9429 67.744576
1731.4349 70.82613
1727.6918 76.02202
1732.2095 75.819
1736.0837 78.66285
1731.737 80.72649
1727.126 82.17485
1722.801 84.20469
1723.2661 78.62173
1717.9158 81.30028
1711.5278 82.900764
1711.7812 88.84657
1715.51 86.04744
1719.5432 88.25963
1723.7893 89.30133
1727.9835 89.7733
1729.9762 85.67092
1734.7278 84.953835
1737.1825 90.27513
1732.8826 89.93879
1730.677 94.1506
1725.7893 94.362366
1725.3905 98.509964
1727.0802 102.183075
1730.5767 99.2748
1734.3619 96.80873
1737.8229 94.74735
1742.1545 93.441216
1742.2141 88.954704
1739.1959 86.24707
1738.5751 82.38678
1741.8262 80.2208
1744.226 83.49982
1745.897 86.66207
1748.8505 88.25199
1746.5586 91.710014
1745.7819 95.811966
1748.0337 98.804276
1746.0878 101.7651
1748.7695 104.598595
1752.3387 106.12633
1753.4773 109.30167
1757.7281 109.936775
1757.9166 114.47049
1760.242 118.36678
1754.3568 123.756454
1755.9031 119.02124
1752.6506 113.34761
1747.8702 109.143196
1743.231 110.60202
1738.0361 111.508705
1736.5286 115.59865
1735.2273 119.44566
1732.066 121.318
1733.2283 125.49649
1730.9988 128.62596
1733.2468 132.20877
1733.9554 136.14601
1733.6422 140.0308
1730.5134 143.48462
1726.5085 139.69682
1729.6313 136.6149
1728.1477 131.96709
1724.5918 135.4891
1723.4594 131.75415
1719.3331 134.32564
1721.1243 138.36841
1718.399 141.52701
1723.7172 143.1729
1722.7781 148.38445
1724.889 153.0187
1727.252 147.28487
1731.2839 149.99571
1730.055 154.50935
1733.3108 157.19662
1735.2537 160.35071
1738.8287 161.8092
1743.3792 163.30055
1743.4424 159.41504
1745.771 155.68837
1739.5745 156.10187
1737.0133 152.02089
1735.504 147.15611
1736.6788 143.27325
1739.3337 140.54251
1743.2097 140.65733
1748.016 140.32526
1746.6444 136.1288
1746.1091 131.96945
1747.4354 128.54527
1744.1868 126.02588
1741.5729 129.60355
1742.2053 134.6044
1738.3868 136.71187
1737.792 132.56981
1736.8618 128.38458
1736.9741 123.55252
1740.5603 124.80023
1745.3717 121.869865
1742.0684 120.72241
1739.2365 119.12166
1741.0591 114.88263
1744.728 117.03923
1747.8962 114.45346
1751.9048 117.97187
1749.1571 120.3678
1749.0244 124.52346
1752.233 127.886284
1751.6653 132.53445
1751.9778 137.1448
1756.4792 136.72913
1760.5782 135.54512
1762.09 131.681
1766.6785 131.68605
1770.9315 132.19669
1775.1921 133.08586
1780.1858 130.96884
1781.016 125.60364
1778.4371 121.870804
1779.0753 117.18454
1781.2096 112.868904
1776.493 109.113525
1774.6404 112.539986
1774.1885 116.250885
1773.8483 119.82921
1773.8481 124.07411
1775.801 127.735565
1769.8599 127.70873
1763.19 127.54461
1757.0253 130.12086
1759.1785 124.416245
1763.2368 121.370026
1765.9989 124.21069
1769.7905 122.907616
1768.9316 118.96513
1764.7454 117.03736
1770.3826 114.54698
1766.7853 113.77597
1762.4413 112.15631
1761.666 106.84008
1758.5762 104.82857
1755.6151 103.92822
1752.8654 101.99503
1752.2166 99.18056
1750.68 95.82839
1750.4315 92.108574
1753.6163 91.52558
1754.5691 94.57354
1756.1165 97.65695
1758.9573 100.11321
1763.3767 101.46363
1766.1384 104.48708
1765.8575 108.01584
1767.9883 110.622444
1771.4464 107.80047
1770.0146 102.73547
1769.2521 98.20291
1765.6091 97.01916
1761.9097 96.18964
1759.0286 93.83432
1756.7009 90.18507
1760.6023 88.88913
1764.3789 91.539734
1768.7334 92.002205
1772.7351 94.232124
1774.4098 98.8882
1775.6567 103.76631
1780.3662 106.42812
1784.9606 107.577545
1788.9172 108.79208
1786.2742 114.45611
1791.4681 115.014626
1789.7131 119.028145
1789.1936 123.09881
1784.0701 119.86194
1785.5067 125.57976
1785.8497 130.35666
1783.9489 134.87354
1785.8829 139.15228
1786.0198 143.68565
1787.895 147.24844
1788.2314 150.97276
1790.5206 155.77693
1786.8208 154.60728
1782.6117 153.52876
1783.3774 148.31755
1779.353 150.29393
1778.3967 145.90347
1780.5464 142.02452
1778.919 136.9074
1774.6047 139.84564
1773.5853 144.48541
1769.5928 147.66138
1769.6333 152.42418
1774.4282 149.59323
1776.6678 153.77147
1779.2004 156.81842
1772.5212 155.32014
1774.0205 159.47499
1774.6569 164.33615
1769.8206 162.64383
1767.3259 157.23868
1761.7595 155.0026
1756.682 155.10033
1760.9692 148.5365
1765.2909 151.13058
1764.6863 145.10315
1768.7921 142.12914
1770.7109 137.04126
1765.8958 136.61319
1763.5803 140.12852
1759.7178 141.5427
1756.9847 144.48668
1753.4453 141.89606
1750.2577 144.74858
1745.4434 145.49538
1740.9392 146.96967
1744.018 151.39072
1749.3234 149.06015
1755.644 149.07764
1751.5638 152.79451
1750.6472 157.34952
1748.3223 161.60818
1748.0459 165.9557
1745.8192 168.88182
1742.6433 170.23761
1739.5438 169.63222
1741.4048 166.1045
1736.8713 166.53894
1733.2257 164.90392
1732.5555 170.14503
1736.6714 171.06197
1740.0691 174.05707
1741.7009 177.70973
1744.7571 179.11407
1744.145 174.18181
1747.677 173.25055
1751.8296 174.81671
1756.0767 175.31543
1759.9263 175.65152
1764.1725 175.44495
1761.167 170.66812
1756.0618 170.72281
1751.1006 170.08247
1752.9198 165.46725
1758.0354 166.02666
1754.6132 160.66512
1760.0187 160.81677
1764.9369 161.5311
1763.694 166.26147
1768.9828 167.48836
1772.6061 169.79158
1776.2727 171.22606
1779.1483 174.913
1781.8318 178.54456
1784.6785 181.38425
1777.239 179.45103
1771.687 179.31094
1774.3118 175.39676
1769.7657 174.15535
1766.0739 171.26398
1767.1727 178.71178
1768.8334 183.88414
1774.1357 183.34067
1779.1184 184.15121
1781.6079 187.64316
1782.7666 192.1897
1785.398 196.20876
1786.0908 201.13594
1780.9106 200.69727
1779.1716 195.63736
1776.8582 190.7917
1773.2079 187.84314
1769.6594 190.57066
1765.1979 191.35727
1765.3568 187.34735
1763.9044 183.74185
1762.4198 180.15866
1757.9333 180.75682
1754.0787 179.04195
1754.5322 185.311
1758.6705 184.83925
1761.0875 188.0611
1757.504 189.86784
1753.9209 191.7863
1751.6279 188.43175
1748.951 185.48581
1751.6173 182.03831
1748.7174 177.93254
1746.8612 182.11993
1741.4419 182.07542
1739.488 185.44737
1736.018 187.73158
1738.1902 193.3293
1741.3889 189.61072
1744.4604 186.06003
1747.0402 189.84506
1744.1067 193.75781
1746.8489 197.98648
1744.8837 202.4654
1741.2073 198.25174
1735.7118 198.23749
1738.4391 202.1757
1734.8585 203.36536
1731.6438 202.85263
1729.8424 200.08522
1732.3206 195.5594
1732.6466 190.85693
1727.688 191.3458
1722.9795 191.7172
1719.8972 194.0735
1723.3429 196.64369
1727.6304 196.21214
1725.4164 200.1197
1725.1816 203.33078
1726.1852 206.88594
1729.0665 205.42166
1730.5756 209.70963
1733.3386 207.0671
1737.9066 207.32504
1741.8655 205.17146
1742.1108 209.46889
1746.7438 208.71059
1749.7622 212.68617
1749.0781 204.92815
1752.8434 208.05484
1757.6887 206.70235
1761.5997 209.57883
1761.256 214.47484
1756.0308 212.91368
1752.9268 216.4177
1750.2079 219.93816
1747.2885 216.79846
1744.8623 213.37514
1741.0663 213.16176
1738.0364 212.11514
1734.9457 210.4878
1732.9686 213.39917
1735.7234 215.4841
1736.4938 219.07985
1737.8785 221.6672
1738.0656 224.51149
1739.76 227.17441
1742.7368 229.27266
1743.8877 225.56525
1742.0092 222.8193
1740.6193 219.86162
1738.7224 217.06621
1741.3398 216.05502
1743.5914 218.3692
1745.8334 220.98534
1747.646 223.98131
1747.345 228.02095
1745.979 231.67963
1749.861 232.62073
1749.9128 236.8457
1751.4291 240.40047
1748.2023 242.46619
1745.7357 239.53485
1745.1346 235.56558
1741.656 233.20076
1738.0446 231.00688
1738.2324 235.8594
1741.7292 238.56569
1737.7372 240.367
1740.7421 243.33716
1744.2942 243.88748
1746.708 246.75662
1750.6057 246.3653
1755.1086 246.90265
1754.0432 243.34723
1755.6888 238.90279
1759.4856 243.23904
1758.7626 248.16905
1762.8021 247.84804
1765.8225 251.01485
1764.4824 255.43549
1759.9385 252.52478
1756.3098 255.69406
1759.8792 258.44403
1754.9304 261.3426
1750.8574 266.07928
1756.2571 267.2704
1754.715 271.5512
1750.8142 274.80212
1747.7307 271.161
1746.6575 276.671
1746.6418 280.44513
1746.1486 284.19693
1745.2427 287.69946
1742.6335 290.44522
1739.3062 291.66177
1735.763 293.66818
1734.1926 289.56848
1730.0278 290.2642
1725.4738 290.31067
1722.5701 288.06824
1725.9119 283.488
1729.3707 285.63608
1738.7675 286.95108
1742.0504 283.25223
1740.9148 278.3998
1737.5955 281.6514
1734.0713 284.3012
1730.7961 280.8227
1734.2538 277.76797
1734.2264 272.92703
1738.1079 274.43143
1742.811 274.10315
1742.0714 269.73853
1737.252 269.1659
1733.0919 266.3848
1731.669 270.22443
1729.6049 274.6099
1727.4852 277.66562
1724.0641 279.05585
1721.5502 282.61182
1717.5072 283.40945
1718.2202 278.87024
1714.5778 276.74542
1713.8533 282.11905
1710.5947 279.81238
1707.0945 282.69604
1710.476 285.16916
1707.7463 287.90164
1707.1481 291.62943
1705.4238 294.241
1702.6466 297.55286
1701.6832 301.7214
1705.6165 303.7104
1710.5317 304.87296
1714.3044 307.48407
1718.8489 309.1967
1721.5061 302.83414
1716.2351 300.42108
1709.0544 299.52844
1712.5514 295.77087
1711.8757 290.8304
1714.4326 287.04413
1718.9476 287.30402
1717.2534 291.83432
1720.9993 295.5462
1726.3635 294.9462
1731.5132 296.28284
1736.7355 298.13235
1740.6355 297.023
1743.3999 295.09567
1745.8082 292.32944
1749.0604 290.57898
1752.3402 293.23492
1753.8318 296.8569
1756.3325 299.2782
1757.9557 301.97375
1761.6484 303.26657
1765.2087 302.8785
1764.5176 306.143
1767.5332 308.2514
1769.3817 312.28754
1765.3892 313.10574
1762.9338 309.22888
1759.2529 305.52655
1757.5758 308.24203
1759.6653 311.05862
1760.8888 314.1541
1764.8656 317.18396
1759.6342 317.78622
1756.0438 319.5283
1753.7235 322.53485
1750.9125 325.59326
1746.3755 324.0225
1749.1008 320.71072
1752.0004 317.66138
1746.1847 316.7728
1743.4951 320.29636
1740.4006 324.11105
1735.5688 322.94785
1737.6693 319.38144
1739.6768 316.09436
1742.7083 313.93344
1739.9465 310.91995
1737.1389 307.3613
1743.543 307.75876
1747.4229 311.27454
1750.6746 313.82944
1755.6855 315.0217
1754.8647 311.27716
1752.529 308.06586
1748.8137 306.24
1754.7827 304.48734
1751.408 302.0183
1749.8038 298.30063
1747.602 295.52756
1745.0011 299.38068
1745.9059 303.12057
1740.4141 302.56946
1733.7964 302.71893
1727.0656 299.92273
1728.286 304.91672
1731.2509 309.5341
1734.7656 313.593
1731.4578 318.2396
1725.3772 318.14276
1727.0956 313.92365
1724.5269 308.57922
1721.331 313.7717
1720.3756 318.36044
1722.3569 322.2665
1717.653 321.12033
1714.16 323.7308
1716.9321 325.7276
1720.3119 325.53198
1725.302 326.53516
1726.9138 322.5769
1730.9778 323.39914
1731.7394 327.45718
1737.115 327.77634
1741.489 328.76605
1744.0332 326.5741
1746.3948 329.0366
1750.0597 329.93652
1754.1771 329.5253
1757.2892 325.6965
1760.3204 322.28784
1764.5222 321.1775
1766.0543 324.1654
1766.4395 327.78793
1769.563 329.0866
1772.3123 330.08063
1774.5837 329.3318
1776.1302 327.97058
1772.5481 326.986
1769.5383 325.2721
1772.1914 323.63528
1769.5245 320.55453
1770.7695 316.45297
1773.8201 312.67358
1778.2307 311.9202
1777.0168 317.2889
1780.3252 315.2382
1782.8192 318.44913
1783.2632 323.0106
1779.3508 322.2514
1774.2451 319.37268
1775.408 322.18112
1775.5311 325.00177
1778.2637 326.1729
1780.3999 327.76166
1783.464 327.86423
1786.4926 326.44113
1789.3738 324.12994
1787.0618 321.00296
1790.0369 318.35605
1794.6232 318.73865
1798.2875 315.81168
1799.5386 310.7273
1803.5306 316.46667
1806.7021 320.727
1804.5576 324.42523
1800.631 321.05402
1800.0276 326.77753
1795.3599 328.31055
1796.7654 323.56653
1792.7916 323.53668
1790.7681 328.0805
1790.6782 332.06915
1786.4093 331.64453
1781.876 331.76965
1778.1782 331.08847
1775.4875 332.1188
1772.2861 332.37646
1768.7456 331.9263
1764.6002 331.08
1762.163 327.2082
1759.1802 330.4387
1761.2666 345.9275
1766.3228 346.00378
1770.9221 346.3486
1764.5784 349.70456
1763.2423 354.03577
1758.7699 354.62878
1759.7897 349.99133
1756.176 346.41028
1755.3688 351.43063
1751.2843 348.87717
1751.4143 345.49506
1746.6462 345.72888
1741.6831 344.16772
1742.6396 348.11908
1739.6067 351.7271
1742.5856 354.35898
1746.1083 350.59033
1750.6571 352.71057
1754.413 356.09586
1750.1317 357.22015
1746.5618 355.25235
1743.0963 358.6413
1747.2645 360.4607
1746.9534 366.10248
1749.9252 363.06323
1753.1526 360.54633
1757.488 359.8497
1761.3049 358.10638
1761.7781 362.181
1763.1769 365.34198
1764.0851 368.47968
1765.043 371.56378
1767.8585 369.19934
1770.767 368.00244
1772.7522 364.90274
1773.1626 360.23117
1775.6091 361.99872
1777.49 365.15286
1778.4587 359.98627
1781.0286 362.53156
1781.633 365.79163
1783.6896 368.35107
1787.6763 369.28928
1786.6204 365.0893
1785.1272 362.162
1786.4865 358.56537
1782.258 358.7657
1781.4371 354.7799
1778.7515 351.41125
1776.8556 356.4411
1773.2083 354.2362
1771.2827 357.5711
1767.7224 357.63568
1769.3154 362.13766
1767.0251 364.953
1765.1819 359.82663
1767.5985 353.9741
1769.3138 350.47586
1773.8844 350.3237
1775.4506 346.27576
1779.9277 346.664
1784.9218 345.09335
1785.0608 349.494
1785.7173 353.7196
1789.6924 355.10788
1791.3002 358.6695
1790.2092 362.473
1790.2413 366.10263
1792.2882 368.72543
1794.7745 365.1674
1795.6471 369.55865
1794.7744 373.71555
1795.9092 378.18265
1799.6615 372.63632
1799.1289 368.2289
1802.871 366.42575
1807.147 364.0168
1803.2722 360.48242
1799.106 364.12643
1798.5773 360.55066
1794.3027 361.46597
1795.7191 357.67932
1794.5128 353.67773
1791.166 349.86667
1791.1505 344.8683
1797.6659 343.9884
1794.7235 332.3884
1798.5842 331.58652
1802.0791 332.08194
1803.9867 328.6122
1806.1798 331.94827
1810.4365 331.34982
1808.2891 327.32828
1812.7328 327.19104
1810.9258 322.73053
1815.216 323.26044
1815.9204 318.2615
1810.7233 317.8202
1808.213 314.01785
1809.9471 309.04462
1804.4637 310.63425
1800.1337 305.2437
1797.6174 300.75385
1805.3601 305.98282
1808.9213 303.76846
1812.2601 303.5484
1815.4592 303.22644
1816.1166 298.85358
1810.2646 298.4538
1813.7024 294.65555
1811.4408 290.8902
1808.7723 288.1838
1806.968 294.64215
1804.877 300.7996
1801.6976 297.172
1796.9025 294.95316
1803.7795 291.36096
1802.2816 286.9201
1799.8599 283.55756
1796.7156 285.48758
1799.2777 290.3531
1794.8507 289.77206
1791.4525 296.17923
1792.6848 299.8205
1793.3193 304.0137
1794.1165 307.92865
1794.4873 312.27444
1790.7593 313.84055
1786.1023 315.07895
1782.8392 311.35925
1787.8202 309.84955
1788.3672 305.28726
1783.7268 306.2699
1780.0521 306.51855
1777.6835 303.78604
1776.7668 308.9046
1774.5765 306.7836
1771.3789 307.98837
1769.1088 303.72153
1773.0488 303.36386
1773.3019 299.01508
1769.6584 299.15784
1765.8711 299.55072
1761.4803 299.11462
1758.4104 295.12485
1756.7003 290.8177
1753.1646 288.0426
1750.3701 284.83176
1752.1451 280.2304
1755.6069 276.5971
1760.0378 279.53152
1756.2916 283.4888
1759.9163 286.62442
1764.5045 284.66315
1766.2156 280.44714
1764.7673 276.09335
1760.7535 273.1742
1762.4518 268.34888
1760.1722 263.81952
1764.061 261.18335
1767.8511 259.8696
1771.0454 257.5526
1770.8695 254.21086
1774.0479 250.49294
1769.7369 249.78326
1771.7827 245.14215
1766.6401 245.25563
1764.1877 240.94646
1760.9225 238.22798
1762.2982 233.67955
1758.3157 234.72679
1754.3281 234.06451
1754.0073 229.96439
1751.3182 227.59352
1752.016 223.80148
1756.8109 225.53284
1758.937 229.87076
1763.4585 229.18414
1761.9163 224.16173
1755.4967 220.59428
1759.7222 218.97366
1765.1946 219.29604
1767.6075 223.62851
1767.2097 227.73506
1771.98 226.95554
1771.4712 221.4042
1769.6658 216.72363
1766.5024 213.33199
1767.2145 208.11089
1768.956 202.01624
1763.0846 203.84865
1761.5332 198.89876
1756.4236 201.72237
1751.1649 201.24109
1749.6188 193.54022
1752.9106 196.98163
1757.3203 195.3813
1761.6487 193.52432
1766.8782 196.47107
1772.4534 195.67183
1775.5391 199.50093
1774.6892 204.1847
1772.5374 208.21844
1773.0 212.61263
1774.301 217.23546
1777.7223 215.05016
1781.4886 215.39874
1785.9622 215.17097
1789.2396 217.5974
1791.3016 212.54485
1787.6765 210.37961
1783.2946 211.29955
1778.4269 210.06653
1779.829 205.51367
1784.3013 206.31413
1788.7911 205.81374
1792.9519 207.27136
1797.2356 207.03517
1796.6196 211.71806
1801.4496 210.20587
1805.6488 211.5338
1807.7336 207.59467
1804.0034 205.57576
1800.113 203.7474
1795.7567 201.29105
1791.2799 201.92638
1790.7863 197.01137
1796.2274 196.10413
1800.3706 198.31511
1804.4753 200.29727
1804.7904 195.20917
1809.0216 195.81425
1809.012 199.42767
1807.985 203.1268
1811.349 205.33109
1812.3503 202.32509
1816.0283 202.56848
1819.1609 199.82973
1818.2974 194.5317
1816.1802 197.41336
1813.2423 199.08589
1812.9388 194.64088
1815.1055 190.9715
1816.2108 186.86296
1815.5762 182.3365
1811.2366 182.5334
1811.1616 187.26874
1808.8126 191.37439
1804.9904 188.4271
1806.5513 184.11292
1805.4972 179.29178
1805.0398 174.39267
1810.5742 170.16049
1810.139 174.43529
1809.9187 178.58617
1814.5879 177.47406
1815.139 172.62085
1815.7317 168.2111
1812.7405 165.74089
1811.3555 162.01004
1807.8932 160.73213
1807.9967 165.4588
1805.8649 169.25311
1801.9204 170.16753
1797.79 169.30528
1797.4802 165.63786
1802.3611 165.3097
1804.14 160.83536
1799.7488 161.32787
1795.2391 160.5093
1794.0818 163.60777
1792.5581 167.8941
1788.9178 165.09071
1784.6506 167.98906
1788.7455 170.99335
1791.1482 175.33505
1794.6425 172.34338
1799.4083 173.80524
1800.4141 177.88684
1801.4747 182.24077
1800.2366 186.72047
1801.8042 192.40694
1797.8239 191.61996
1795.3657 187.9616
1792.8549 192.20966
1788.603 191.68721
1786.544 188.34442
1786.2607 184.51132
1791.3385 185.98479
1790.6453 180.80302
1796.0667 182.78777
1795.4167 177.79875
1786.8232 176.9807
1784.1348 173.3182
1780.6931 170.53716
1777.664 167.25964
1780.7134 164.77646
1779.5604 160.6947
1784.8014 162.78177
1784.7312 158.33015
1789.7803 160.43579
1793.5386 157.24715
1797.1001 157.37277
1799.9532 156.64229
1802.7083 155.39674
1806.3588 155.92117
1810.2632 157.25038
1813.9602 155.16696
1811.1632 152.88216
1808.1556 150.98134
1804.2914 150.75417
1800.2434 151.11427
1796.4762 148.64679
1796.1572 153.40817
1792.4313 151.50494
1792.7883 146.47514
1791.3887 142.06339
1793.4501 137.68216
1789.7749 134.23196
1790.5671 128.40953
1794.2438 125.87141
1797.3217 122.4281
1793.9613 120.00953
1797.6841 117.61259
1802.3477 120.72248
1805.1243 117.80577
1801.4274 115.99511
1799.812 112.47889
1795.6998 113.359184
1792.7144 110.37446
1793.9573 105.83768
1797.8174 108.387764
1802.6975 109.33848
1807.3531 110.17245
1805.5713 113.657425
1810.104 115.9363
1811.8763 111.763626
1816.1445 114.11814
1815.3989 109.25295
1814.5947 105.21178
1814.8656 100.53215
1818.5618 96.75695
1814.0208 96.264046
1815.5837 92.001495
1814.696 87.05747
1815.9949 82.49694
1811.2734 82.80641
1806.6702 82.562904
1808.7517 86.21125
1810.4158 89.06789
1810.9753 92.452805
1809.2538 95.97865
1810.3253 102.1203
1808.8689 106.39462
1806.5935 99.04197
1802.0522 100.0008
1803.5663 104.74054
1798.2698 103.47479
1795.6937 98.7367
1794.2721 93.4307
1798.9702 90.31932
1801.2264 95.13528
1805.3922 91.9351
1804.2892 87.332886
1799.7172 85.51897
1802.3457 82.33893
1803.7263 78.56191
1808.4613 78.32904
1810.4872 74.72355
1813.9777 78.67329
1816.633 75.015656
1817.067 69.597916
1812.3481 67.67837
1813.0298 71.518326
1807.3945 71.8123
1808.0879 68.59207
1808.6235 65.23391
1811.5096 63.824406
1812.8584 60.731106
1807.475 61.207848
1805.1075 64.69548
1801.1285 64.607346
1798.6968 68.0771
1795.5931 65.280525
1792.8586 62.683857
1789.9371 60.92775
1789.937 57.47618
1786.3132 58.49445
1784.1309 61.169582
1780.8511 57.61107
1781.1575 62.513493
1777.5724 63.143314
1773.8885 64.38816
1770.1039 62.33653
1768.1649 57.29247
1772.3948 58.49235
1776.5333 57.727108
1772.69 53.68321
1769.0247 52.04832
1764.9738 53.90047
1763.8728 57.683865
1760.5768 60.03433
1762.013 64.310036
1765.075 61.20391
1767.1316 64.624466
1768.408 68.703964
1772.8818 70.13825
1777.5413 70.4145
1781.4873 66.78949
1784.404 70.86734
1781.3567 73.50514
1784.2896 76.55749
1790.8746 73.736115
1788.9899 70.76648
1786.3726 67.463036
1786.7781 63.711826
1790.5155 66.216515
1793.8267 69.187546
1795.1926 72.93686
1799.4573 72.22277
1803.327 69.23296
1804.2742 74.25901
1799.6649 76.46869
1797.4451 80.802124
1794.1794 77.235466
1788.7292 76.63182
1787.8157 81.195755
1792.0371 82.17968
1794.7368 86.38121
1789.7269 88.837715
1785.1141 85.79083
1782.1553 80.98332
1779.4282 85.98799
1783.5872 91.989716
1788.303 95.256355
1788.6572 100.35708
1791.3115 103.09519
1783.8615 101.17813
1779.8723 98.94864
1778.5217 93.78827
1775.2975 89.42726
1770.272 86.92207
1774.0964 82.800446
1777.748 77.58545
1772.4596 76.73096
1768.0372 73.85831
1767.8142 80.70916
1765.0217 85.89639
1759.8888 83.720985
1762.6257 80.09541
1763.6095 75.05813
1764.1938 68.20909
1760.77 69.93139
1758.9539 74.07965
1757.8757 78.17645
1754.6892 81.116554
1755.9554 85.65945
1752.5297 87.64993
1750.1182 83.4218
1750.4268 78.56766
1745.8262 78.86457
1747.0608 74.28667
1749.3258 70.33119
1746.6886 65.05347
1750.6593 65.85574
1753.2076 74.96279
1755.6505 71.06196
1754.7699 67.43063
1758.393 65.38054
1754.1168 62.929085
1750.6594 60.66164
1747.7352 57.809036
1752.9838 55.862583
1756.0297 58.01792
1757.4082 61.36975
1760.5677 55.78057
1757.6128 53.487698
1753.9298 51.417213
1753.9456 47.245888
1754.8802 43.75248
1749.7582 48.43996
1749.3632 53.411736
1746.1979 50.19803
1744.656 44.634056
1746.472 40.280876
1749.8789 43.90267
1752.9175 39.93295
1758.1804 41.68795
1761.4414 38.875774
1763.4526 42.378567
1761.0977 46.085793
1757.843 48.473118
1761.4181 51.035492
1765.2804 49.746555
1765.7686 46.166912
1767.9601 42.565006
1766.5708 38.324947
1771.62 38.257908
1776.1703 38.330414
1780.4639 38.511456
1784.9282 36.481346
1784.9924 41.038372
1782.5894 44.41695
1784.9268 47.843754
1778.9618 47.158195
1776.7546 43.166664
1772.0562 43.13734
1769.9846 47.532715
1774.2657 48.510006
1777.1995 52.720253
1781.1841 51.532604
1784.0853 55.036705
1785.9097 51.309387
1788.3794 53.886925
1791.972 54.06707
1795.5464 54.62251
1794.5032 58.54504
1797.79 61.267166
1802.5168 60.158733
1799.9231 56.22728
1804.4052 54.28978
1806.44 57.29891
1810.2698 57.656605
1810.6655 52.704636
1815.8435 51.21683
1814.5016 46.911743
1813.6888 41.6673
1809.1846 41.657562
1809.2985 46.61315
1806.9667 50.13262
1802.5835 49.861603
1798.2024 51.5373
1794.411 49.29834
1790.0885 49.117653
1789.0239 44.101013
1792.7268 40.42827
1789.9823 36.99038
1796.2557 36.89339
1798.8408 41.37578
1794.5507 44.67985
1799.5658 46.40232
1804.3049 43.390434
1802.4585 37.432964
1807.8983 36.794823
1812.9843 36.898384
1814.4645 33.174614
1818.7362 34.043415
1821.7747 30.29209
1823.367 33.42709
1823.6511 37.425415
1821.209 39.12878
1817.571 38.730743
1818.0242 43.815056
1822.7388 42.782482
1821.8085 46.976814
1821.5686 51.089794
1822.9427 55.55489
1818.5942 55.71715
1814.168 56.137062
1817.3411 60.101177
1816.0112 64.5634
1822.781 60.38253
1821.2686 63.841488
1820.5497 67.46555
1823.0013 69.87431
1821.6947 74.487335
1821.6719 79.63408
1819.9216 84.19261
1822.9899 86.69647
1818.9635 89.40049
1822.1228 92.341896
1822.8164 96.438965
1823.0964 100.40419
1819.4191 101.844574
1819.304 106.2377
1823.2073 104.85223
1823.3909 108.94029
1819.7466 110.58425
1822.8893 113.2288
1819.801 115.655205
1823.2369 117.81419
1822.3721 121.872475
1821.8235 125.03389
1823.3555 128.11502
1820.895 131.09201
1822.4965 135.37999
1820.4663 139.1142
1822.07 143.476
1815.0527 141.11682
1816.1678 134.08751
1814.2468 128.37349
1817.7522 125.95246
1818.7278 120.07168
1814.6467 118.815155
1813.1069 123.12223
1809.2139 120.11918
1805.9581 123.10174
1800.7305 124.340096
1799.0544 128.87088
1795.2252 132.16035
1799.5647 135.74104
1804.3353 132.78014
1804.1747 127.5743
1809.0574 125.46346
1809.2932 129.07185
1810.5292 132.65465
1810.0424 136.94473
1809.2268 141.84601
1803.8933 139.42981
1797.541 141.59567
1800.0854 145.54652
1804.5979 145.49348
1809.384 146.4687
1813.4546 148.03717
1816.6986 152.2062
1817.846 146.72305
1822.4869 148.57278
1821.6064 152.5587
1823.4542 157.27097
1819.4097 156.26387
1816.4822 158.04893
1813.6475 159.5022
1816.0656 162.74059
1820.0486 160.53714
1822.9917 163.57858
1819.3042 165.25858
1823.2174 169.04842
1819.7013 170.31146
1818.9395 174.89514
1823.1509 175.2966
1819.2859 179.14822
1823.4695 181.07178
1820.2207 183.52193
1820.2136 187.44139
1823.4287 188.13647
1821.5637 192.05313
1822.7125 197.02158
1823.0361 202.36928
1823.0884 208.76674
1819.196 208.43619
1819.4537 204.61029
1815.2938 206.56558
1819.3523 212.75523
1822.7297 215.46332
1822.2854 220.67221
1821.9409 225.44557
1823.5543 229.77306
1819.8721 230.16943
1816.9006 228.53264
1815.5293 224.99057
1817.6641 221.99203
1817.3408 217.59996
1813.9124 214.65997
1815.3561 210.84187
1811.8627 208.78363
1810.1865 211.96619
1808.6783 215.95615
1812.0327 219.02316
1811.3284 222.94873
1807.221 225.43825
1804.4476 229.04842
1802.1381 231.90323
1804.5759 235.20775
1808.4457 233.02686
1809.1259 229.02751
1812.4036 227.41338
1813.2144 231.79884
1812.2717 236.29626
1815.9905 238.64859
1817.2007 233.87267
1822.6562 233.99606
1820.3544 236.93008
1823.4858 238.91356
1818.9366 241.0302
1822.292 242.6957
1822.5323 245.81184
1822.3733 249.43454
1822.0253 253.89146
1821.9523 258.2588
1822.5166 262.4286
1817.8766 261.29883
1819.0356 265.718
1823.8186 265.82657
1822.4126 267.96005
1823.5747 271.4561
1822.3544 274.54846
1819.6554 277.9444
1823.5181 278.29504
1822.675 282.8072
1822.5564 289.27774
1819.6355 285.85272
1817.3793 281.51788
1814.5862 277.59537
1813.3643 273.00128
1816.7952 274.94772
1818.9757 272.89172
1820.6716 270.15622
1816.915 269.47015
1814.1575 265.4658
1812.7212 269.11926
1808.7333 270.34225
1808.3805 274.04965
1810.4033 276.98218
1812.3167 280.72852
1809.1965 282.89682
1806.5972 278.71338
1803.4312 275.51358
1799.7308 273.78217
1800.211 269.98157
1804.5955 271.56207
1803.4631 267.32492
1808.3903 266.5171
1809.0144 262.5548
1813.5532 261.0967
1816.3705 255.88994
1813.9951 250.33394
1818.0975 250.17677
1816.7784 244.96635
1812.0168 241.39725
1807.6594 238.35928
1806.5902 243.13203
1805.0454 247.91454
1811.5311 245.894
1808.6719 249.37846
1810.8894 253.48889
1810.8391 257.70142
1806.0704 253.93996
1802.1072 252.091
1800.8486 248.35811
1801.2164 244.08282
1802.1108 239.84258
1799.9941 236.282
1798.3373 232.12111
1794.8776 229.75047
1795.3824 224.907
1799.4128 227.30528
1802.706 224.01982
1806.2349 220.60577
1803.896 216.35825
1799.6447 215.83713
1799.0892 220.88861
1794.643 215.87909
1793.7379 219.77762
1791.1254 222.95357
1790.5234 227.12132
1790.0679 230.85855
1792.4281 233.59163
1795.845 235.65538
1796.6979 240.5283
1795.7017 245.02472
1797.0144 248.36406
1790.9143 249.98013
1794.4713 252.05879
1798.1096 254.09459
1798.3689 259.43277
1801.9788 257.11252
1806.1041 258.7579
1803.7981 262.7167
1799.7355 264.54285
1795.7808 263.45486
1793.2628 260.7755
1792.9553 256.57227
1787.1907 257.5278
1787.7026 253.39313
1784.3936 248.23376
1788.2822 246.29614
1792.1647 243.96393
1792.4678 238.50465
1789.1836 236.58272
1787.1691 234.51392
1785.2633 232.26279
1786.0791 229.14682
1782.4326 227.85341
1783.0159 223.55977
1786.8013 225.30643
1786.9855 221.4646
1783.7299 219.25133
1779.6064 219.89445
1775.8533 221.4911
1779.384 224.73715
1775.81 226.25128
1774.0337 232.14896
1769.407 231.73828
1765.6172 234.31296
1768.3218 236.61067
1769.27 240.79536
1772.8408 237.6334
1776.7532 236.6958
1778.0652 230.0527
1781.186 232.14465
1780.2681 235.63683
1783.6143 236.21461
1785.412 239.13358
1788.9137 241.33472
1784.3605 243.05396
1780.2914 244.96693
1780.119 240.14194
1775.6448 242.91081
1777.9705 248.62283
1777.6847 254.0012
1782.5139 251.93016
1782.7 256.5235
1779.1761 258.67166
1775.119 258.61563
1771.7788 262.14487
1767.5662 265.52026
1767.7296 270.27362
1769.3533 274.03452
1771.4553 277.70935
1770.6831 282.36246
1766.9927 289.69235
1762.0435 290.92133
1762.9845 295.1393
1766.7756 295.07925
1771.0187 294.6703
1773.2092 291.12668
1771.0638 287.08005
1774.9048 284.43677
1779.1807 283.5206
1776.1578 279.10638
1774.8414 273.39798
1773.1798 268.98306
1777.9718 268.39502
1773.878 265.16653
1777.7764 262.89886
1781.1652 264.6471
1783.7 261.24237
1788.7372 260.71924
1790.6285 263.99387
1786.8889 264.9304
1784.2632 266.9536
1781.8784 269.356
1779.988 272.9198
1779.909 277.14328
1784.2711 276.7135
1787.9868 278.2001
1790.8607 280.43646
1787.472 283.45444
1783.1172 281.49286
1778.4604 288.26675
1777.8792 292.17538
1776.8125 295.97256
1776.8035 300.43713
1780.68 298.82642
1783.5386 301.53415
1787.9303 300.5374
1785.8955 296.02368
1782.4514 293.06943
1783.3206 286.99118
1786.7035 289.83786
1790.7002 292.4372
1790.469 287.6683
1792.4338 284.66092
1794.4504 281.7586
1797.0824 280.20947
1793.9453 277.9424
1791.4608 275.30664
1788.1924 273.67496
1784.7721 271.94183
1788.234 269.1985
1792.0305 267.01855
1796.2307 267.47745
1796.1753 271.08868
1792.0697 271.01645
1794.9563 274.23563
1797.6239 276.38773
1799.817 278.8219
1802.5277 279.53918
1804.0902 282.54968
1806.1597 285.65958
1813.9902 285.3146
1816.5918 289.7093
1818.8066 294.2493
1823.0463 294.22064
1822.2408 298.82465
1819.7344 302.0697
1823.1936 304.20685
1823.5559 310.18332
1820.2985 308.18295
1818.0671 305.7246
1815.0209 308.4956
1813.1207 312.91245
1817.1348 313.75235
1820.2479 312.65048
1822.998 315.4874
1821.7 319.27805
1819.1528 323.19534
1822.9735 324.89304
1817.7654 328.29688
1815.23 331.64133
1821.9349 330.7187
1822.3663 337.73126
1817.3843 339.26218
1822.28 343.35165
1822.8722 349.15585
1818.7224 349.03467
1816.6133 344.48083
1813.7354 349.54337
1809.8049 346.1317
1811.5769 340.80475
1804.756 342.08203
1803.4551 347.7457
1798.0474 349.92218
1799.81 355.6886
1804.086 354.60562
1808.0326 351.90842
1808.8451 358.95248
1812.456 355.02667
1817.8724 353.55115
1822.3667 355.75162
1821.7041 361.73257
1817.2256 358.387
1813.6215 362.0728
1817.3058 366.3907
1822.5566 367.6412
1821.0697 372.9961
1817.0916 378.20242
1822.4436 378.81314
1820.7156 384.12198
1813.0396 383.23276
1810.8512 377.70956
1814.3121 372.23236
1810.9014 367.81454
1805.4017 370.2595
1807.0428 374.74838
1801.8325 376.99084
1805.9446 382.34586
1799.2104 382.65903
1793.1188 382.2401
1787.8467 383.23328
1788.4797 379.41653
1790.9343 376.4538
1790.6427 372.1356
1787.0072 374.11124
1783.9253 377.2993
1782.9227 381.59512
1777.986 378.55292
1777.139 382.3936
1771.2787 381.64423
1773.9199 375.60834
1777.0602 373.8497
1780.8333 374.2235
1783.8583 371.92197
1779.1101 369.63705
1775.1794 368.66733
1773.1626 371.53357
1770.1432 373.3814
1767.0669 374.38336
1771.7145 378.18683
1766.2969 379.00345
1761.5763 380.6622
1755.2715 379.63916
1748.2878 379.71533
1751.4055 374.88074
1754.9597 369.79272
1757.1865 374.49857
1762.2463 374.86078
1760.1829 370.17926
1759.0714 366.04355
1756.1176 364.07434
1752.5491 365.7612
1750.0844 369.5814
1745.5822 371.0267
1745.6069 375.5562
1741.4763 380.54578
1740.939 376.09497
1739.445 372.46472
1734.7249 369.77332
1737.9271 368.1746
1741.7012 368.6161
1743.2341 365.59033
1743.5854 362.15573
1739.5714 363.4272
1736.7411 360.7692
1734.9064 364.76196
1731.3198 368.33276
1728.045 369.98212
1733.5532 373.71603
1736.6006 378.25708
1732.2904 378.57562
1728.5072 379.79514
1727.5446 374.38556
1725.3887 378.50848
1721.6111 381.48428
1721.7529 376.6278
1720.5491 372.1256
1723.5859 368.8262
1729.9473 364.24295
1733.0454 359.22916
1738.8876 357.22723
1735.257 354.42252
1730.2555 354.92993
1725.3269 357.07755
1728.342 360.12024
1724.421 363.8881
1715.788 370.7472
1718.3229 365.47372
1720.2087 360.59442
1715.5676 356.8274
1711.0247 354.65652
1713.707 350.06747
1718.7142 350.7523
1720.2943 355.76984
1723.368 352.2031
1727.0006 350.56705
1731.3844 350.045
1735.3115 349.51102
1738.3508 347.09738
1736.789 343.15292
1732.9023 344.79483
1728.1228 345.47263
1723.278 345.6977
1718.4653 345.15588
1714.0684 343.37912
1710.1216 346.6041
1708.4077 342.09787
1703.3743 341.39548
1710.0782 323.92178
1709.6974 320.65005
1713.9998 318.9513
1716.8661 315.83176
1714.2346 312.73874
1710.3309 316.54596
1709.1729 312.82028
1707.4341 309.1177
1702.0095 308.185
1696.5132 308.7316
1697.5656 304.0842
1691.5659 300.73422
1693.5297 296.71146
1697.3481 299.0238
1698.1996 294.2353
1691.3042 293.747
1689.3953 289.99692
1686.6158 292.73962
1683.0474 290.48068
1685.4675 282.8419
1688.1581 279.5729
1686.3989 276.07812
1687.0344 271.4149
1690.1694 268.36826
1690.4781 275.53842
1694.6823 275.22647
1693.0714 271.70575
1695.2167 267.73206
1699.6085 265.90628
1702.9093 262.79285
1705.366 259.08798
1707.4563 263.79703
1705.1809 267.21344
1702.8104 269.91522
1706.7136 272.49652
1702.3671 273.63156
1698.4902 270.54932
1698.2874 274.14005
1697.1318 278.22412
1693.3285 279.76566
1689.8304 283.13034
1693.6196 284.70468
1694.8842 290.85025
1701.3651 289.661
1703.7811 286.44537
1703.1053 282.49628
1698.3234 286.02716
1697.7374 282.23376
1700.8612 280.1061
1700.458 276.81677
1703.8687 277.37308
1707.0662 277.86432
1710.6918 274.35846
1710.3696 268.2855
1714.3894 270.47812
1718.4191 272.17798
1721.3306 275.9492
1723.473 272.36786
1727.3414 270.97534
1723.8529 267.67038
1728.4313 266.71466
1729.8168 263.0284
1727.6577 259.6647
1726.3329 255.76808
1730.2965 254.33838
1735.386 251.5615
1739.9932 253.19983
1738.1841 258.18207
1734.2421 255.51279
1732.147 259.05
1734.6011 261.91898
1737.3503 264.17026
1741.1594 264.7786
1745.8534 265.90182
1743.113 260.20923
1745.1078 255.46765
1749.0042 260.50305
1751.3127 255.99942
1754.4116 251.23553
1749.8156 251.29156
1745.5153 250.72069
1741.8723 248.47917
1737.6224 247.23967
1732.119 248.53484
1731.3771 243.13925
1728.1577 245.34651
1724.8821 242.9519
1723.6724 239.30493
1720.5283 242.4904
1716.5083 242.67609
1713.1758 245.13559
1716.9042 247.27249
1720.5598 248.44081
1724.2196 247.5803
1727.6553 250.5794
1723.1827 252.92587
1722.9431 259.02338
1724.1746 263.36136
1719.2236 266.53644
1715.105 264.14145
1718.9468 260.7865
1715.8522 257.73038
1712.1248 259.12402
1710.9639 262.84985
1708.6738 257.30475
1709.7086 253.70958
1713.4224 254.54169
1719.7751 255.39319
1717.398 252.1218
1713.6978 250.12514
1710.0603 250.51134
1710.1746 247.03185
1707.1813 245.46997
1705.9336 241.95087
1710.1821 241.70541
1707.4121 237.46837
1707.6451 232.4292
1706.4672 226.70006
1710.0941 222.83762
1709.4226 217.55559
1704.7283 219.16441
1703.0745 222.81499
1700.8617 226.50935
1702.778 230.49928
1702.7587 234.68024
1702.7214 238.67357
1701.6473 241.97842
1702.8867 245.57967
1703.1284 249.22746
1706.5872 249.79602
1705.1962 253.85059
1699.8223 252.41608
1701.03 255.7866
1700.0381 259.12927
1694.4519 256.65988
1696.8976 261.6535
1692.9171 263.85995
1687.2571 264.96997
1690.116 260.07437
1687.2784 256.35907
1688.9165 251.67279
1694.4318 251.87122
1698.4283 248.58293
1698.7147 244.7225
1693.6404 246.9403
1688.4335 246.23427
1691.1991 242.27333
1696.1697 242.01797
1698.2357 238.20782
1698.0629 234.3459
1697.5612 230.80974
1696.8048 226.91476
1696.3297 222.7881
1699.0903 219.88197
1697.659 216.36517
1701.5625 215.46974
1702.9907 211.52919
1704.5853 207.9272
1700.2489 208.17839
1701.167 203.97086
1703.1575 200.0356
1704.8606 196.15594
1706.9265 191.22006
1711.7555 192.02582
1709.4373 195.72968
1708.315 200.00403
1705.9268 203.86998
1708.7383 207.61215
1707.7942 211.76773
1705.7802 214.93517
1711.5023 212.55444
1714.7612 214.97194
1713.6829 219.13303
1717.5302 220.2858
1722.3728 222.23505
1718.886 223.98625
1715.0637 225.8189
1711.3881 228.71646
1716.1355 231.89136
1712.2043 234.49988
1713.1653 239.02783
1717.554 237.50746
1721.5831 235.9682
1720.555 232.06201
1719.9431 227.80414
1724.1143 228.15178
1726.046 223.78104
1729.9813 226.03117
1727.8903 229.1754
1724.9037 232.84264
1726.65 236.6799
1729.3331 239.56334
1735.1248 243.74495
1733.9294 238.3889
1734.7239 233.35052
1731.1715 235.12257
1728.8594 232.698
1732.2504 229.8571
1735.2849 227.65855
1734.0891 223.79442
1733.4672 219.56584
1731.1746 216.8599
1730.4042 222.08455
1727.8141 219.08179
1723.7816 218.17316
1726.3954 214.764
1729.4348 213.44814
1726.729 210.29805
1723.2317 213.2831
1719.8237 216.52182
1718.047 213.06406
1715.5684 210.59572
1712.5254 208.16568
1716.365 207.49976
1719.5109 208.19319
1720.4863 211.32088
1723.0713 209.25414
1723.064 206.21678
1720.9265 204.3232
1721.184 200.83498
1718.4192 197.91797
1716.9313 201.5643
1718.0063 204.86047
1714.3582 204.44049
1710.7789 203.68158
1713.1954 199.45503
1715.0398 195.2643
1716.1849 190.45439
1719.689 188.09021
1724.0024 187.40727
1727.3823 185.19171
1731.8657 185.27536
1735.7808 181.79753
1737.6619 178.05669
1735.659 174.22487
1732.7181 176.46887
1730.0339 180.36981
1728.1595 174.87029
1728.352 169.77283
1722.6458 174.19095
1724.6731 179.13954
1721.789 183.45963
1719.3353 180.01683
1716.0066 178.54205
1717.8348 173.55399
1712.8647 176.18834
1712.0757 172.1992
1710.8169 168.08603
1711.5726 164.00446
1715.2762 169.26807
1720.0924 168.7685
1723.8641 169.11421
1716.8291 165.87904
1720.2793 163.10478
1724.1327 162.14499
1726.0748 165.59593
1729.7573 162.92953
1727.5427 158.64157
1722.9565 157.7076
1719.1144 157.42534
1715.8976 161.93842
1713.6176 158.64594
1709.9415 159.58626
1706.6034 161.2342
1706.5242 165.11575
1702.4861 166.31148
1697.9537 163.07602
1702.2808 160.34485
1705.7167 156.6638
1709.9939 154.45828
1713.7439 150.8461
1715.5444 155.07283
1719.0613 151.66469
1718.742 146.36696
1714.783 144.9557
1711.1423 147.1502
1707.5358 149.75172
1705.2549 144.88731
1705.6561 140.259
1709.4495 142.96991
1713.4729 140.79176
1715.7935 137.42415
1714.3772 133.87234
1717.1157 131.00284
1720.9897 129.0388
1725.6923 127.33794
1728.4077 123.85586
1721.3186 124.04355
1718.0216 126.297806
1714.918 123.37678
1713.362 118.65382
1718.8403 119.024635
1723.4672 116.58875
1724.5176 121.0339
1728.7589 118.21037
1732.5013 115.00477
1728.4459 113.2574
1723.5092 112.7849
1723.831 109.34821
1727.1735 109.18911
1730.9558 108.413025
1733.9987 110.01752
1738.1027 106.6023
1742.7496 104.911545
1741.6246 98.98375
1737.1735 101.1416
1733.1608 103.883095
1728.8538 105.21253
1724.5051 105.49821
1722.3014 101.25093
1720.5911 104.72163
1716.6208 102.6723
1719.012 99.09932
1721.0623 94.73455
1716.6094 91.76437
1712.0706 94.23759
1715.888 96.58868
1712.2269 100.39589
1707.262 103.17932
1707.6472 98.026146
1707.4105 93.31101
1707.589 88.09763
1705.1533 81.423225
1704.4191 85.3977
1699.1763 86.928566
1702.6674 90.92555
1701.8524 95.830215
1702.9244 100.30044
1698.4681 102.45773
1696.5302 97.68738
1696.9664 92.65067
1692.7424 90.389946
1686.9227 92.375244
1689.2163 95.63771
1691.8442 98.52412
1693.5237 102.996124
1691.3574 107.579575
1689.223 112.5132
1694.4824 117.60764
1692.16 121.421234
1692.7651 126.2448
1696.3776 124.58918
1698.894 121.54913
1700.3135 116.338066
1695.2261 112.83764
1696.708 107.63179
1700.7472 110.74494
1702.3157 105.61826
1706.2161 109.07215
1710.0779 107.03604
1713.4849 106.40037
1716.8025 108.022934
1720.5769 108.69552
1718.8204 112.931915
1714.8176 113.68994
1710.3706 113.01936
1704.8486 113.77016
1707.3179 117.84823
1703.0405 120.57892
1705.1934 123.64872
1705.6356 127.116714
1707.8868 130.15672
1710.3126 126.219864
1709.708 121.91332
1714.6443 127.83733
1712.4272 130.12227
1710.0505 132.37851
1710.7385 135.09274
1710.5674 138.50731
1707.3406 136.75949
1705.2894 134.10753
1703.6885 130.52357
1700.723 127.034294
1696.7009 129.50107
1696.3055 133.32411
1700.7361 132.7724
1699.1494 136.38554
1702.5911 137.48312
1701.1284 141.1585
1700.2002 144.73044
1701.9756 148.64409
1703.9539 152.69975
1700.3779 155.3908
1697.4697 158.43906
1692.982 159.86888
1692.8901 164.57498
1694.5288 168.48027
1691.8132 172.17726
1688.6681 169.09395
1688.1448 164.59637
1688.2549 160.41719
1684.4933 153.76848
1681.7312 149.89801
1683.8964 146.5592
1679.5278 145.30693
1675.7054 142.19067
1674.9171 146.5816
1677.6162 149.38268
1678.8142 153.20763
1680.7607 156.40594
1684.3484 158.46188
1682.8777 162.92062
1683.7263 166.8976
1680.6443 169.8291
1684.4971 171.96986
1686.4728 175.18488
1683.9469 178.78731
1686.7832 181.75299
1685.8564 185.6183
1691.1614 185.84819
1689.7692 189.84538
1693.9639 189.27951
1697.2019 189.37009
1699.0996 186.36444
1695.667 184.3653
1700.7378 181.87244
1696.4421 180.10474
1691.6696 181.48413
1690.429 177.0431
1694.999 175.82239
1699.8667 176.8559
1703.0059 172.69594
1698.0823 172.17455
1698.8981 167.84439
1706.6444 169.98894
1708.0669 175.3803
1704.3275 178.08226
1706.1836 181.8608
1711.0228 181.14294
1715.6293 184.6896
1711.3635 187.35425
1707.4155 186.02795
1702.9512 185.19057
1703.3215 188.78897
1699.9766 191.02231
1702.5693 193.0897
1699.7156 196.44406
1698.1509 200.669
1694.7977 197.68254
1693.5696 202.33688
1696.9945 205.57039
1698.6503 212.07848
1695.2727 210.01306
1692.8337 207.0231
1689.1588 208.18147
1685.826 210.84032
1681.9908 208.62169
1685.1779 205.463
1688.8081 203.24184
1689.8828 198.73788
1696.3989 193.41217
1692.149 194.10309
1687.7996 194.27742
1684.9698 199.10994
1682.0631 202.43372
1679.463 197.78627
1682.7482 194.13167
1685.0734 190.08499
1680.9111 187.45135
1675.9788 185.5965
1679.6724 181.6482
1679.4359 175.69281
1674.1908 178.102
1672.0669 182.19049
1667.5128 183.62047
1662.8958 184.10353
1659.5183 185.96326
1656.4817 188.98685
1654.0193 193.69966
1657.3726 193.44702
1661.3188 190.38469
1661.2817 194.19165
1664.8469 194.25291
1667.5173 196.81493
1669.983 192.32521
1665.2878 188.54108
1671.245 187.92924
1677.1035 191.66344
1674.7992 196.19267
1671.0814 198.21936
1666.025 201.61685
1662.5459 199.17183
1658.7166 197.4144
1655.447 199.45908
1651.9832 201.30922
1659.6897 203.04008
1665.0018 206.37312
1670.1637 202.9432
1674.2261 201.91235
1677.7031 202.40616
1679.4092 205.83209
1677.3888 208.9866
1674.0431 206.75417
1669.7937 207.24513
1669.1486 211.65504
1673.8027 211.75784
1678.354 213.15593
1682.225 212.9116
1683.1519 216.59251
1682.9595 220.50989
1687.5327 220.033
1687.5057 215.75137
1690.4893 212.76823
1694.4326 213.96968
1692.9985 218.03525
1691.137 221.92656
1692.2397 225.59471
1693.6556 229.41827
1690.3379 230.48624
1688.0211 227.17789
1686.0094 224.33104
1681.8214 224.11185
1682.9044 228.63867
1679.7496 231.74275
1684.2847 234.72939
1686.5403 231.50496
1693.6711 233.94435
1693.2109 238.26193
1689.5005 235.20303
1687.4321 239.35808
1682.8365 239.28815
1679.8225 236.47871
1676.047 235.75691
1672.198 237.27728
1673.5063 242.94109
1677.6094 247.15436
1678.5751 241.72234
1683.8828 243.88882
1683.1827 248.97916
1682.4462 254.0815
1677.6118 252.29634
1675.9802 256.32956
1679.2087 258.93213
1683.6406 259.66098
1683.1415 264.0542
1682.7632 268.88626
1683.1492 273.6506
1680.3113 276.60132
1678.5923 272.49185
1677.927 268.04416
1678.9297 263.67435
1675.0068 264.0325
1674.6708 259.92715
1671.4568 262.7063
1668.3556 260.1089
1664.8918 260.07953
1661.69 262.68225
1657.8667 264.716
1653.5254 264.6964
1648.6335 265.15137
1649.2961 261.62784
1646.3763 259.6284
1643.6573 257.9122
1648.4652 255.28972
1652.156 258.71722
1656.5117 259.35437
1660.8125 257.36713
1658.2002 252.82797
1653.4268 254.22719
1653.8853 249.88664
1657.6531 247.2573
1663.006 252.83504
1667.1758 253.89207
1670.9281 257.35107
1672.3938 253.42717
1671.8549 249.04814
1667.8231 246.36687
1668.2236 240.57178
1665.2401 235.6036
1660.8397 234.01224
1656.4574 236.09352
1657.8529 230.45403
1659.2949 226.48486
1656.0044 224.14417
1655.2518 219.983
1658.3085 217.04251
1661.1526 221.25047
1664.0994 224.91591
1664.052 229.82764
1668.9075 233.20667
1673.4353 231.34756
1669.4595 227.54599
1667.5088 221.70706
1672.732 222.98076
1675.8073 228.12321
1678.3639 225.69566
1677.1602 221.50703
1678.9474 217.89383
1674.8759 216.4626
1671.0719 217.44568
1667.0369 216.21355
1662.9691 216.56001
1663.7676 211.46225
1658.1885 212.2854
1659.7751 207.8184
1654.5234 206.14163
1653.4548 212.2998
1652.2306 216.76848
1647.6913 217.95436
1643.879 220.5873
1641.6093 224.92758
1638.6969 221.18733
1636.8291 225.54626
1636.1182 229.80812
1638.8674 233.44547
1639.3533 237.8667
1642.5315 241.7437
1643.9983 237.11082
1647.519 234.62253
1643.6418 232.30399
1641.27 229.01877
1648.201 230.02481
1646.1086 226.25082
1647.6991 222.47176
1651.4341 222.52162
1652.1611 227.1516
1653.5618 231.41687
1651.2474 234.69347
1652.6836 238.01004
1648.0947 239.83803
1647.4591 244.16682
1652.5792 241.37825
1656.6893 241.8116
1653.133 245.01196
1650.0918 247.5185
1648.0471 250.57292
1644.2463 252.55998
1643.7739 246.59802
1640.2008 248.50555
1636.5337 251.28287
1640.3008 253.72621
1640.6865 257.91016
1637.7274 258.44534
1635.7457 254.75238
1634.8835 257.70834
1632.6033 259.27716
1629.4712 257.61682
1627.0557 260.76797
1631.8059 263.1364
1635.6908 263.177
1639.8479 262.0317
1639.4268 266.2076
1643.7485 264.0197
1644.9785 268.27542
1649.801 269.06638
1653.2228 271.20325
1657.1355 270.07724
1660.9204 273.32648
1665.6296 275.8862
1668.9829 273.33502
1666.6 270.095
1662.4174 267.7051
1667.7075 265.374
1672.4348 267.97192
1673.7551 272.26797
1671.2736 277.57266
1675.511 276.86572
1677.315 280.05927
1683.6908 278.9863
1681.0981 281.3942
1677.0779 289.08688
1669.4612 289.60342
1663.559 290.1118
1666.2207 294.07617
1669.9976 296.06012
1674.2319 296.10104
1677.0919 298.63928
1680.5549 301.17035
1682.1807 296.1358
1686.7273 298.27805
1687.5502 302.90146
1683.111 303.92337
1679.1233 306.56802
1682.299 311.75168
1684.6615 307.97284
1689.597 307.8967
1692.9314 304.8502
1688.8828 312.01443
1693.7119 313.2757
1699.3694 313.97394
1704.2295 314.46936
1705.0782 319.1502
1704.3422 323.3281
1699.5083 320.84573
1694.5044 319.94168
1689.6853 319.33054
1686.3928 315.33444
1684.4567 319.7149
1681.9021 316.58606
1677.7324 317.96494
1678.0905 313.30463
1675.3855 310.30008
1673.6897 306.0634
1675.7632 302.31815
1671.3578 300.71964
1663.5007 301.44565
1663.6438 305.83664
1666.4089 309.5775
1667.335 303.45203
1669.4723 306.63806
1671.0486 310.75766
1673.2389 315.69952
1668.0833 315.1292
1660.6641 328.42444
1665.8685 330.72324
1666.497 334.48547
1660.755 332.39392
1656.5728 329.30804
1652.8785 326.69742
1648.2927 324.5481
1642.4045 324.793
1638.3715 323.23224
1637.5261 326.67612
1634.4415 324.2229
1635.0914 320.08432
1635.0364 315.6586
1640.0459 317.49814
1639.6321 320.3166
1644.5067 321.19992
1654.6666 311.83597
1658.8481 312.91528
1663.3533 313.65887
1659.1573 307.92282
1659.6226 302.49292
1659.0265 294.49796
1657.5884 290.3508
1652.1824 290.35776
1646.4452 286.65677
1643.1715 282.24
1637.9825 286.2853
1641.0199 289.01758
1643.0087 293.15042
1639.1833 298.43597
1645.0675 298.32516
1648.8623 301.8461
1651.1797 297.22763
1648.0833 292.4428
1654.031 294.43503
1657.6476 298.18005
1654.7771 301.18915
1654.5691 305.67203
1651.3553 309.25433
1647.1549 307.4174
1640.5557 304.72235
1633.3704 304.43442
1631.4167 300.76123
1635.6295 296.3719
1636.444 292.23505
1633.1948 290.12784
1629.3868 294.53622
1623.9742 298.6401
1623.397 314.66537
1615.7396 315.28836
1610.5275 314.23663
1619.489 317.1372
1623.0393 320.54294
1627.3882 322.68243
1626.6235 318.19592
1629.3794 314.72363
1631.087 319.12103
1630.8884 324.73322
1634.0564 329.52036
1638.0867 334.52792
1643.0273 334.67087
1639.1304 329.86703
1643.7385 329.01782
1648.4086 330.38428
1646.8595 337.7851
1650.0411 335.57986
1653.9398 333.81573
1657.9255 336.9236
1662.4879 336.62433
1665.638 339.24646
1670.0717 335.10098
1672.3724 332.2214
1670.4554 339.72675
1671.7063 344.00763
1666.4246 343.38913
1664.9574 347.34106
1661.0579 350.35
1656.7986 347.26706
1660.5438 342.72125
1654.5249 341.3656
1648.9932 342.93668
1643.8699 340.92877
1651.2631 348.05954
1655.3456 353.14435
1660.162 356.77454
1664.2325 360.43698
1667.3641 367.25125
1673.32 371.3836
1678.972 374.39014
1683.88 377.5908
1689.0835 376.63525
1693.1686 379.5272
1700.1595 380.28214
1696.3281 375.93576
1694.9333 370.47742
1698.5549 372.18124
1702.2642 375.65414
1706.9897 374.6202
1706.0333 380.37604
1711.016 380.09293
1715.8401 381.18625
1716.7958 376.697
1712.2014 375.0001
1709.967 370.71347
1705.0837 369.62183
1701.7687 370.5941
1698.6418 367.31982
1695.6736 364.75586
1695.1101 359.87503
1700.0487 361.65576
1702.5864 365.18726
1706.4242 362.44922
1707.992 366.34918
1712.804 366.73264
1713.4178 362.11542
1709.8359 359.17352
1705.2605 357.38303
1701.165 357.50684
1697.9193 355.53973
1701.8813 351.70236
1707.1724 351.93518
1705.1578 347.1116
1700.8402 346.19388
1696.8762 346.99112
1693.0444 348.09253
1690.3938 351.1317
1696.9835 351.3553
1693.7178 353.533
1691.3627 356.1645
1685.6532 357.22238
1682.2007 361.3819
1687.1846 362.76132
1690.0405 359.8172
1691.1246 365.36664
1691.2251 371.09528
1686.1857 370.95563
1684.4331 365.97986
1680.6047 369.0595
1677.2179 365.97354
1672.7643 364.32755
1669.6304 360.6977
1670.3291 356.71292
1665.5559 353.3262
1670.5752 352.60413
1670.2806 348.42023
1674.9209 347.88797
1677.0967 344.20084
1675.8516 340.44177
1674.2905 336.49493
1678.1158 333.6859
1679.7783 337.35916
1684.0878 335.60635
1688.9587 335.3672
1693.5552 334.9106
1692.5577 338.01834
1697.3816 338.41324
1698.7072 342.18118
1694.2441 342.3925
1690.9725 344.4542
1687.672 344.38754
1689.5303 339.87396
1685.7222 340.50732
1681.561 340.96484
1680.8934 345.18286
1683.1438 349.64252
1679.0825 349.31265
1675.8838 352.21948
1675.138 356.2461
1676.6957 360.77246
1679.8137 357.18658
1681.526 353.6685
1686.6364 353.02844
1687.5432 348.4962
1684.4122 345.46295
" />
</g></g></svg>
