<?xml version="1.0" encoding="UTF-8" standalone="no"?>
<!-- Created for Inkscape (http://www.inkscape.org/) -->

<svg
   xmlns:dc="http://purl.org/dc/elements/1.1/"
   xmlns:cc="http://creativecommons.org/ns#"
   xmlns:rdf="http://www.w3.org/1999/02/22-rdf-syntax-ns#"
   xmlns:svg="http://www.w3.org/2000/svg"
   xmlns="http://www.w3.org/2000/svg"
   xmlns:sodipodi="http://sodipodi.sourceforge.net/DTD/sodipodi-0.dtd"
   xmlns:inkscape="http://www.inkscape.org/namespaces/inkscape"
   width="3200"
   height="800"
   id="svg2985"
   version="1.1"
   inkscape:version="0.48.1 r9760">
  <defs
     id="defs2987" />
  <sodipodi:namedview
     id="base"
     pagecolor="#ffffff"
     bordercolor="#666666"
     borderopacity="1.0"
     inkscape:pageopacity="0.0"
     inkscape:pageshadow="2"
     inkscape:zoom="0.35"
     inkscape:cx="1600"
     inkscape:cy="400"
     inkscape:document-units="px"
     inkscape:current-layer="layer1"
     showgrid="false"  />
  <metadata
     id="metadata2990">
    <rdf:RDF>
      <cc:Work
         rdf:about="">
        <dc:format>image/svg+xml</dc:format>
        <dc:type
           rdf:resource="http://purl.org/dc/dcmitype/StillImage" />
        <dc:title />
      </cc:Work>
    </rdf:RDF>
  </metadata>
  <g
     inkscape:label="Layer 1"
     inkscape:groupmode="layer"
     id="layer1"> 
     <g>
<path style="fill:none;stroke:black;stroke-width:2px;stroke-linejoin:round;stroke-linecap:round;" d="M 
1721.592 305.6186
1720.2861 302.35968
1716.4595 305.54004
1711.4475 307.06738
1714.5991 310.20148
1715.3323 313.82138
1715.0103 317.00177
1715.1083 320.9476
1712.2301 323.8108
1707.7853 322.31
1705.2888 325.26422
1709.4011 327.25473
1708.1399 331.60883
1711.9224 332.00204
1710.5674 335.65503
1706.7537 335.5125
1704.0247 332.2237
1705.1018 328.7349
1700.887 331.27655
1700.2595 328.30222
1701.2944 325.5638
1702.9186 322.126
1698.5336 321.17215
1697.855 316.0799
1694.2051 316.66113
1691.2927 314.25507
1691.0881 309.7846
1686.4269 309.26016
1687.8691 305.88632
1692.5511 300.8695
1695.7032 295.3892
1698.2195 297.55814
1696.9733 302.26337
1691.7191 305.1664
1695.4556 309.67963
1699.9308 311.35587
1702.5017 314.77658
1701.9772 318.67142
1706.4973 317.46326
1710.9008 318.83243
1710.3021 313.44247
1705.7693 311.53146
1706.156 307.02963
1699.8259 306.5379
1703.2012 302.76855
1702.1954 298.5046
1706.9895 297.19717
1708.6348 302.2458
1712.728 300.34305
1717.3114 299.77264
1722.1924 298.1191
1726.8608 297.05444
1728.1509 301.4182
1724.5935 302.23334
1726.5393 306.12668
1726.7672 310.45056
1727.1785 313.77896
1730.2091 314.93262
1730.0449 319.19614
1728.1211 321.27045
1725.9528 323.1487
1725.1267 326.04163
1726.3112 329.00812
1729.6514 328.32693
1728.7261 325.2146
1730.7008 322.9226
1732.6156 326.18945
1735.7075 328.15408
1733.5857 322.8047
1736.5497 324.20032
1738.7384 327.2064
1741.6029 328.8221
1742.6898 332.22998
1740.1168 334.0666
1738.5646 330.57434
1736.7189 333.17166
1733.3643 330.08746
1731.1514 332.0206
1728.459 332.023
1725.7043 332.3771
1722.7313 329.45667
1718.8431 328.68817
1721.4452 325.48413
1722.7927 321.8288
1725.4121 319.6836
1727.3636 317.27087
1722.6388 317.9666
1723.9163 314.7357
1723.2216 311.41394
1722.2279 308.40085
1718.941 310.7944
1719.92 314.89792
1718.7756 318.58325
1719.2527 322.15323
1716.7158 325.26752
1713.6205 328.2333
1716.1254 331.59576
1714.6519 335.27008
1718.2979 335.56808
1719.6581 338.46295
1716.4724 339.05103
1716.2595 342.13834
1720.0083 341.61407
1722.7952 339.78534
1722.7283 336.7224
1720.0786 332.63565
1723.2308 333.6841
1726.8344 335.84622
1726.4104 339.12653
1726.807 342.68613
1723.5593 342.44745
1725.6406 346.65616
1728.2487 347.12943
1727.4386 350.3038
1728.2173 353.31848
1731.5872 352.41565
1730.77 348.85675
1733.4106 347.62848
1732.7305 343.9991
1729.5824 344.27988
1730.0325 340.1192
1730.488 335.93198
1733.7747 334.45535
1733.3567 339.19412
1736.4952 337.28864
1739.2573 339.1173
1741.5253 336.8875
1744.7817 337.17426
1749.4342 337.08746
1745.9155 334.1585
1745.6565 330.53534
1744.2141 327.44873
1745.387 324.75067
1740.7662 324.78906
1740.5828 321.74057
1736.2974 320.4629
1732.8075 319.8037
1732.8253 317.01666
1736.0233 316.64417
1739.0433 318.08932
1742.2573 314.6189
1744.1401 311.56787
1746.3408 308.60724
1750.2222 309.0975
1747.9127 313.0929
1746.307 317.03458
1742.5693 318.54785
1745.5477 321.41037
1750.1335 324.52075
1748.6359 328.1573
1749.0975 332.6269
1753.0358 334.16507
1752.4014 330.19733
1754.9797 327.59967
1759.6102 327.1532
1763.2192 325.70355
1766.8568 325.92725
1769.6931 327.3352
1772.8893 326.02036
1772.6614 330.27475
1775.3134 329.10986
1775.9631 332.59036
1778.9988 331.91498
1778.0082 335.41956
1781.9827 335.27463
1782.5471 338.69186
1780.5342 340.76224
1778.2758 338.74884
1774.508 340.31277
1774.1943 337.17908
1772.7476 334.1254
1768.2194 334.28705
1769.1387 330.94287
1764.2605 330.83124
1760.9901 335.0774
1758.2472 331.63315
1756.1716 336.69315
1752.7382 339.80475
1749.8453 342.85455
1747.1774 340.44128
1743.3427 341.1451
1742.9432 345.10202
1746.4844 344.73212
1750.0309 346.42526
1750.7504 349.24628
1749.2559 351.30795
1747.3098 352.60455
1746.5046 355.1685
1746.1227 358.1538
1744.4546 361.0083
1742.6605 357.10803
1742.2153 353.89188
1744.5875 352.0775
1747.4076 348.99158
1744.8025 348.246
1741.7601 349.75613
1737.9083 350.51474
1739.8656 346.7117
1739.5858 342.6433
1735.9023 342.2235
1736.6119 346.3055
1734.9536 350.10016
1734.8306 353.36636
1734.9723 356.54974
1739.1321 353.14667
1738.9329 356.61752
1740.6733 360.51642
1737.2914 359.74713
1734.1315 360.7445
1731.5205 359.42014
1730.7974 355.79083
1728.7532 358.08722
1726.906 360.37653
1725.8247 356.64188
1724.5334 353.41693
1721.4287 356.09158
1720.3245 352.66907
1720.6589 348.8218
1723.9532 349.90518
1723.5197 345.54236
1720.9067 345.29312
1718.3906 344.00043
1717.6915 346.947
1714.1892 345.12033
1712.5293 342.17715
1713.2119 338.71164
1709.5999 339.24823
1706.5227 340.09064
1703.1293 340.0
1703.4712 336.521
1700.4464 334.88913
1697.7556 332.161
1697.0133 329.01877
1696.9169 325.346
1694.9806 321.90698
1691.751 320.92862
1689.0692 318.302
1686.12 316.03867
1687.2593 312.84848
1683.1294 311.86084
1680.6365 314.7922
1682.9174 317.64093
1677.9275 318.21884
1681.2651 321.32074
1684.6758 321.06888
1687.3318 322.04968
1682.7947 325.73538
1680.7416 329.7887
1677.1549 326.66205
1678.3492 323.05438
1674.5143 321.64478
1671.4219 324.429
1673.3827 328.28046
1669.5212 328.3903
1666.9283 326.05313
1663.3231 327.4514
1661.3167 330.3499
1666.2915 330.63208
1671.3997 332.3847
1675.8457 331.57312
1678.038 334.50073
1682.0304 336.64374
1682.8732 333.12753
1685.816 330.73276
1690.032 329.70084
1686.7874 327.12497
1689.1088 324.4587
1692.2568 325.73413
1693.7886 328.69772
1694.3278 331.9691
1691.6846 333.1155
1688.7664 333.82846
1686.0204 335.72205
1686.4414 339.27826
1690.0106 337.7403
1690.6724 341.304
1694.0258 343.84296
1694.6415 339.784
1693.1375 336.3329
1696.143 334.6579
1697.1624 337.17514
1699.4684 338.8055
1700.4524 341.77
1697.27 342.94882
1698.7871 346.77274
1701.1604 344.7817
1703.1891 347.93332
1704.97 343.79327
1709.2594 343.73196
1707.9473 347.5787
1706.2391 350.8845
1710.9534 352.96832
1711.5416 348.1767
1714.8748 348.9655
1716.606 351.67484
1715.1902 355.6476
1718.2499 358.5915
1721.3942 361.71597
1723.3704 359.41885
1724.8926 363.18417
1726.2744 365.55023
1728.8885 362.752
1731.9314 363.72186
1729.1323 366.35202
1731.6699 368.38916
1735.1653 369.95172
1738.6548 371.73273
1741.0914 367.98337
1737.8365 366.94525
1734.3495 366.02875
1736.7893 363.2522
1740.8262 364.0995
1743.342 370.1954
1741.9478 374.434
1744.9543 373.5089
1747.672 372.19095
1747.1569 376.68597
1751.2238 375.28745
1751.867 379.38452
1755.3052 377.9873
1755.8958 374.83514
1750.5562 371.25748
1753.747 370.7081
1756.9746 372.1133
1760.8402 372.5181
1761.6122 369.0856
1758.4648 369.5613
1755.8558 367.09683
1751.2102 367.4544
1746.9073 368.1971
1744.4868 364.90353
1748.3308 364.44632
1749.1387 361.02682
1749.6611 357.32306
1750.4702 353.91684
1753.1544 358.35965
1753.4464 355.23523
1755.8716 353.05536
1753.082 351.26077
1753.9744 347.81726
1753.5122 344.16962
1756.8463 341.76736
1757.4116 345.98083
1760.9458 343.9111
1760.4697 339.46558
1765.0317 336.88437
1764.4913 341.7181
1768.328 340.62573
1770.2134 337.79825
1771.2964 342.80225
1774.2834 343.7396
1777.096 343.25906
1779.4966 343.42233
1782.7288 342.87677
1781.0598 346.16168
1779.0326 348.0513
1781.3981 350.33945
1784.2397 348.2776
1783.8107 345.7188
1787.0999 346.50034
1785.9197 343.9821
1785.192 341.16818
1787.7793 340.36694
1788.8849 343.13828
1792.1445 343.89462
1793.9846 340.60352
1791.2924 340.2909
1789.6647 338.52298
1788.6199 336.62372
1785.5369 337.64908
1786.0632 334.34344
1786.7766 330.8602
1784.0498 331.6831
1781.6289 331.5597
1780.8679 328.8979
1778.0192 328.53336
1780.4326 326.17734
1781.7314 323.17746
1784.9729 324.78464
1783.3083 327.63455
1786.2562 327.53018
1789.1333 328.17548
1789.9406 331.48312
1790.0261 334.51474
1793.1803 336.4901
1793.3066 332.28912
1794.2219 328.4504
1791.84 326.35373
1788.6744 323.53726
1785.0894 321.50613
1786.6562 317.92813
1782.6278 318.2292
1779.6248 319.6747
1778.9904 315.44522
1775.3315 315.34552
1772.6768 313.29892
1776.4884 311.56082
1778.7054 308.90875
1776.2817 305.92505
1773.075 309.08322
1771.7947 305.6548
1769.104 308.09256
1769.2593 311.34174
1769.4799 314.6846
1766.2131 315.24493
1765.9546 318.94095
1769.0704 318.22922
1772.275 318.17905
1775.8749 318.74884
1775.8823 322.0107
1778.6296 322.25113
1778.2596 324.72156
1775.9673 325.76465
1773.0378 322.3389
1769.786 322.39993
1765.9916 322.11066
1762.1545 321.59042
1758.2368 322.44916
1754.2836 323.2084
1754.0404 318.56522
1749.992 320.03223
1751.0553 315.65927
1752.551 312.02808
1756.4164 311.9196
1756.1072 314.86624
1757.7024 318.09702
1760.8065 318.33755
1763.5596 316.97537
1761.0745 314.73636
1764.8501 312.44583
1765.6992 308.9305
1762.2849 309.5597
1759.9482 312.3035
1758.6663 309.46448
1759.3956 306.84314
1755.5598 309.12024
1754.1333 307.47784
1753.5352 305.48315
1754.9961 303.11032
1756.5718 300.9256
1757.7847 297.94604
1754.8262 296.64975
1751.5458 298.01318
1752.5146 300.60873
1751.1692 303.62335
1748.818 300.77756
1744.8804 300.76538
1746.0106 303.75037
1748.8372 305.58566
1742.7516 306.34344
1740.3787 309.8442
1738.5243 313.9098
1735.5588 311.40225
1733.79 313.98444
1731.4292 311.26736
1729.5159 308.37784
1733.1492 307.33792
1736.8978 308.67065
1736.5952 305.28516
1739.3198 303.42355
1741.8911 301.48242
1743.908 297.65643
1744.1038 294.09042
1744.477 290.91983
1746.3217 288.48404
1749.583 286.95593
1749.499 290.96478
1747.5221 293.47644
1746.4745 296.12805
1746.821 298.69833
1749.2083 296.4455
1751.679 294.535
1753.6511 292.06598
1753.7725 288.30124
1753.3118 284.77905
1757.1831 290.0022
1758.155 293.7849
1761.2397 290.35538
1765.0992 289.69012
1763.704 286.5287
1759.8461 286.71863
1762.4766 282.74915
1767.145 284.28833
1767.9678 287.19122
1769.1741 290.30728
1767.0217 292.17908
1766.8446 295.0739
1763.0212 293.56735
1760.9934 296.8541
1764.521 297.77463
1766.5085 301.2374
1763.1267 301.62915
1760.1595 300.83972
1758.9045 304.1892
1763.461 305.45535
1767.3872 305.08633
1769.8483 302.1997
1769.0419 297.86707
1772.4847 299.4471
1773.5928 302.8675
1776.6187 301.2424
1776.602 297.71533
1777.9117 293.72223
1775.4657 292.43637
1773.302 295.92862
1770.6256 293.82632
1772.7825 291.29086
1774.6166 288.58887
1771.349 288.425
1771.5342 285.25632
1773.9768 281.45978
1770.5688 281.68323
1770.6758 277.83228
1766.9236 281.20972
1766.2699 278.24692
1764.404 275.20178
1761.6713 278.36572
1758.2997 280.167
1757.165 284.41205
1754.1764 280.03506
1750.4297 283.13766
1749.3203 280.52963
1746.6389 278.13373
1745.2402 281.8095
1745.4514 284.98108
1742.3392 287.67667
1738.7238 289.65573
1735.0833 287.7271
1734.1617 291.48737
1735.5878 295.95633
1737.9424 293.3031
1741.2281 292.48035
1741.3203 296.59912
1738.6642 298.19742
1735.7719 300.71313
1731.1057 304.47333
1732.3937 301.49945
1731.2208 298.2385
1732.2897 295.28757
1730.0898 292.92368
1730.6061 288.81613
1730.1576 285.28992
1728.7893 281.84363
1726.0146 283.59454
1726.277 287.1302
1723.741 289.42172
1719.8547 290.25153
1726.8109 292.1089
1722.9675 293.83325
1718.5194 294.54608
1714.2743 295.4726
1710.634 293.36386
1705.6039 292.28043
1701.7871 290.9461
1700.5146 293.9855
1698.444 289.29132
1703.0723 287.6145
1701.482 283.95743
1705.6498 281.75934
1706.5599 285.55765
1708.6692 288.99442
1710.1876 282.87277
1712.517 280.00858
1710.8433 276.07825
1707.5774 277.79633
1703.1681 278.65668
1705.3506 273.74194
1706.9874 269.63626
1706.778 265.06268
1710.1359 264.17264
1713.0039 260.95905
1708.5447 258.2196
1713.4343 256.33218
1710.804 253.03397
1716.0337 251.09323
1718.1663 254.72957
1717.7485 258.97836
1722.3679 254.79591
1721.0311 250.34645
1726.3019 252.328
1728.8998 255.31274
1724.7488 258.09537
1721.8333 261.06738
1720.4789 264.9781
1717.0457 263.38452
1714.5686 266.15305
1712.4127 269.07214
1710.3633 272.35397
1714.4177 273.9291
1716.6604 271.29507
1718.8689 268.7444
1722.8389 268.10925
1723.1526 271.47687
1720.3701 273.3736
1718.1694 275.93015
1715.0575 277.4232
1716.5715 280.35925
1718.4966 283.28012
1715.0209 284.60907
1712.1993 287.42667
1715.4996 290.07666
1719.7344 286.6698
1722.415 284.49908
1722.6444 281.59396
1724.1992 279.80472
1719.8787 279.90927
1721.6252 277.39682
1723.635 274.91516
1726.6263 274.76508
1725.5823 277.29462
1726.7473 279.7113
1729.4258 277.86823
1732.1616 280.25153
1733.2467 283.455
1736.3445 283.91916
1739.2373 285.90717
1740.8591 282.66528
1742.3583 279.07507
1742.7974 275.3102
1746.0411 274.2888
1747.1224 270.21194
1742.7664 269.6416
1740.565 271.85437
1737.0422 272.53162
1738.9194 276.2929
1737.3398 280.10464
1734.82 277.03806
1732.1096 274.97403
1728.9669 273.43054
1726.6604 270.25388
1731.0483 270.1963
1734.4457 270.0965
1737.8931 266.7022
1741.3713 263.3023
1744.5903 266.53418
1747.7797 264.2117
1750.7214 267.44586
1752.4127 270.78226
1749.6732 273.13654
1750.4596 276.93997
1753.5477 274.9052
1756.936 275.367
1760.2158 273.63736
1762.996 270.68408
1761.0005 267.3796
1756.4658 269.724
1753.6631 264.82257
1758.0636 264.64566
1763.4861 263.1701
1766.8253 265.20566
1767.3118 269.21335
1767.3213 273.24115
1770.9783 273.65515
1772.4597 269.85208
1771.704 265.74255
1770.315 260.90765
1767.4697 258.68976
1764.0178 259.45532
1760.6208 259.65958
1758.1202 261.04733
1754.6559 260.26828
1750.8555 260.79913
1746.7313 260.01605
1743.2491 259.07855
1739.0193 258.87122
1735.6318 261.32047
1732.6753 264.6581
1728.8391 266.6273
1724.9138 265.09265
1727.6003 261.85327
1731.0693 258.93716
1735.1207 255.84076
1736.7593 251.40193
1732.2616 251.60164
1729.9626 248.09578
1729.6735 244.04095
1725.8956 243.85593
1726.003 248.66226
1723.1644 246.71216
1721.3389 243.75519
1718.1644 246.4324
1713.0708 247.63466
1715.064 243.12341
1716.7495 239.01062
1719.8539 240.53609
1723.5212 240.67917
1720.9023 235.9064
1722.862 231.69092
1724.966 227.17494
1726.7063 229.50372
1729.0793 227.15208
1734.365 227.6515
1731.7692 230.02705
1729.3846 232.0224
1726.321 232.70851
1725.4177 235.3969
1724.6443 237.96712
1727.5591 240.39189
1730.1772 238.76735
1729.8448 235.52545
1733.481 233.57634
1735.9132 230.73532
1739.2771 232.00922
1743.2693 231.57578
1738.3232 228.03986
1736.6812 224.48193
1733.6003 221.8607
1732.246 225.48265
1729.8816 223.04335
1726.7107 223.53056
1728.7534 218.98708
1732.302 217.5259
1734.6876 214.46358
1730.0288 213.22
1733.7964 210.16736
1730.9985 207.4468
1733.744 203.97795
1734.641 200.2041
1737.6697 197.45004
1739.1475 193.2676
1741.8362 190.1889
1742.828 185.77864
1748.3353 185.14453
1755.093 182.73276
1757.5293 187.62102
1753.1719 186.71771
1749.9857 189.62987
1745.9341 188.60931
1746.8049 193.16751
1742.8236 195.53249
1746.3976 198.3711
1750.2856 196.99266
1754.3285 200.33594
1755.8958 197.2861
1752.0205 193.91693
1754.2955 190.72462
1757.0884 193.03667
1761.4319 190.98592
1761.6403 186.70378
1759.4211 182.86427
1754.8918 177.89154
1751.231 178.21733
1750.8837 182.29599
1744.8778 182.07849
1746.9097 179.37355
1747.383 176.08458
1748.3257 172.52927
1749.197 168.67468
1751.5299 164.30399
1752.9227 168.5081
1751.9677 173.70013
1755.0044 172.48952
1757.7144 174.93646
1760.3413 173.04567
1756.6908 169.9106
1759.431 169.31924
1762.4178 170.55989
1762.4757 167.3664
1759.4817 165.34644
1755.866 166.1677
1756.2114 162.57588
1754.7207 159.96436
1758.3715 157.85274
1759.9727 154.28003
1764.1681 155.30623
1763.7588 158.81169
1760.6768 161.53079
1763.7012 164.00043
1766.4508 166.61777
1765.8984 170.12843
1764.5702 173.4808
1762.672 176.32463
1758.9586 178.64369
1763.1936 180.24829
1767.6238 181.21405
1765.2797 184.3666
1766.0393 188.60683
1769.5609 190.21748
1771.2344 193.77985
1772.2141 197.19974
1775.2838 198.6652
1778.036 196.9156
1781.0847 195.35748
1784.8004 194.01598
1787.4618 191.33635
1788.7107 196.59001
1793.0698 199.35402
1792.4775 193.2701
1797.1794 194.70491
1801.7253 191.7512
1799.8254 187.72076
1795.4049 189.30342
1789.7421 188.76556
1790.7498 185.86028
1793.6185 184.7241
1797.3502 183.60318
1801.4453 183.0607
1805.4985 180.67174
1803.4426 177.38466
1799.7034 177.29622
1796.272 177.27031
1794.3109 180.57703
1790.2393 181.1747
1786.9551 184.11061
1784.556 187.63403
1782.0411 190.90952
1778.3573 190.29503
1775.8329 193.13432
1774.1823 188.77017
1771.2339 185.51146
1771.6763 181.4243
1767.375 177.19867
1768.2891 173.35385
1771.1544 171.90381
1774.8239 173.40521
1772.1404 176.82576
1775.9979 179.3056
1776.6545 183.96413
1779.8538 186.65654
1782.5875 183.55711
1780.4327 179.98706
1778.5989 175.07762
1782.9728 176.28964
1784.5312 172.82896
1781.2699 170.72939
1777.5488 170.10233
1773.5146 168.92958
1769.801 167.83228
1770.4758 163.41852
1766.9475 162.00893
1768.8698 158.03084
1770.6422 153.73668
1767.2577 153.27441
1764.0098 151.69112
1761.9575 149.76947
1766.1287 148.64145
1762.3601 144.37248
1766.2072 144.61613
1769.9127 140.61461
1769.0751 143.46794
1769.741 146.51941
1769.5381 149.76617
1772.9403 150.59593
1774.9321 153.78018
1772.9882 156.97707
1773.8793 160.05954
1773.9998 163.23868
1775.5015 166.06662
1778.0585 162.03552
1780.1172 166.35146
1782.6008 162.82953
1786.6544 164.00645
1789.0668 160.90762
1794.891 160.8318
1798.2335 156.79655
1794.8638 156.0463
1791.4502 156.89685
1789.5076 153.4434
1787.2892 156.6489
1784.1455 157.98767
1780.7749 158.57048
1777.2621 157.3177
1779.3131 153.99872
1782.4082 152.73492
1785.4917 152.57262
1788.0532 149.61972
1783.7429 147.91228
1780.0896 149.15385
1776.6306 150.18117
1773.6229 147.2227
1772.7227 144.22357
1773.6497 141.50127
1773.4712 138.75818
1775.7734 136.63254
1778.5144 136.72377
1779.272 133.7594
1782.5712 135.91527
1777.9706 139.831
1776.5212 142.87186
1777.4958 146.17343
1780.5872 143.73508
1782.4592 139.83997
1784.6278 144.04056
1787.017 140.89195
1790.8997 141.5804
1794.2363 139.53226
1797.1938 137.33023
1799.6062 134.64993
1802.5684 133.70593
1805.3842 134.38242
1804.3921 137.43045
1801.0808 138.21574
1798.4783 141.05362
1795.4604 143.41394
1793.0461 146.3993
1788.682 145.83585
1791.9392 150.37283
1794.8945 151.94917
1798.0035 151.0149
1800.981 152.5845
1801.7078 155.89717
1803.7559 158.60835
1800.6411 161.74275
1803.4932 166.67044
1798.2605 166.48534
1793.5925 165.03636
1789.9948 167.4606
1785.1506 168.15306
1788.7263 172.47517
1785.4124 179.9648
1788.2462 177.09052
1792.4904 175.84314
1793.6909 170.96439
1798.361 171.82567
1803.1841 172.28697
1808.0022 170.5023
1807.6384 175.39117
1810.8126 178.12689
1814.2036 180.89937
1810.5327 182.40587
1811.1047 186.16774
1806.6802 184.50635
1804.9458 188.20822
1801.8271 196.33542
1798.8922 200.04712
1805.0143 199.79012
1806.084 195.87129
1806.9918 192.39589
1809.7764 189.75006
1814.0304 189.4474
1815.8353 185.66681
1818.5815 182.86163
1817.7384 179.22551
1816.7488 175.83278
1812.717 173.2857
1811.9238 167.92749
1808.3934 165.06041
1806.9861 161.08392
1806.5345 156.05905
1810.2998 155.7941
1814.2804 155.52515
1813.575 151.62708
1812.6195 147.66737
1816.654 148.06621
1814.278 144.96133
1812.104 142.04709
1810.3156 144.88696
1807.7133 142.18184
1806.7513 144.76686
1803.5488 145.09456
1804.8467 148.19936
1808.1089 148.07219
1810.5713 150.25075
1808.1661 152.30254
1804.6218 152.04579
1801.4249 148.67238
1797.387 147.1751
1800.0131 144.62991
1802.1643 141.94498
1804.7849 140.92055
1807.4092 139.00162
1808.3533 136.59583
1807.9541 133.46368
1810.7612 134.60214
1809.811 140.71239
1811.3959 138.5484
1812.9492 136.07756
1813.7871 132.4456
1810.3236 131.4531
1809.408 128.74124
1805.5942 130.8055
1800.3486 130.54507
1796.8848 129.25352
1797.1028 132.60721
1794.3428 134.61322
1790.3464 132.4917
1790.9889 136.70616
1786.7632 136.43549
1786.8057 131.72678
1782.8265 131.4764
1786.8953 127.527245
1790.6577 127.724884
1793.552 130.32242
1794.4703 125.72685
1798.3308 125.725266
1802.0352 124.65319
1802.3972 128.33913
1805.612 127.31002
1806.9851 124.787025
1810.8743 125.74489
1815.3684 125.1048
1813.8677 128.6333
1817.667 131.61765
1818.302 127.07758
1822.2114 126.29787
1821.8375 130.39455
1822.3057 133.95639
1821.2329 136.55414
1818.3816 137.18907
1816.206 135.18483
1814.9032 138.70079
1814.9727 141.7128
1817.7106 143.85013
1818.5951 140.65752
1822.4551 140.65164
1822.874 145.53305
1819.9497 146.08209
1821.8551 150.1674
1817.7341 151.67355
1818.383 155.76376
1822.2306 153.9631
1822.2914 158.35176
1820.0499 160.73419
1816.4602 159.81406
1811.8292 159.91765
1813.9463 163.77028
1816.072 168.51868
1817.9188 171.87657
1818.56 164.98624
1822.4653 163.61952
1821.9586 168.59277
1822.1945 173.6711
1822.1816 177.90735
1822.44 182.20912
1821.1073 186.28809
1822.7722 189.28535
1818.1128 190.17995
1814.4379 193.55803
1819.3759 194.31288
1822.4421 193.28893
1822.0695 198.14731
1821.878 202.38423
1822.2806 206.55905
1819.7362 209.43639
1816.1028 211.6323
1817.25 207.51315
1816.8181 204.04234
1817.8177 200.2059
1816.2373 196.77074
1810.9564 194.569
1809.7672 198.6172
1813.1927 200.64122
1812.204 205.01341
1808.6582 203.38332
1804.31 203.03964
1802.0728 205.19087
1798.3992 205.08968
1794.544 204.4018
1790.232 204.93155
1787.0867 201.68634
1783.7754 198.84521
1780.565 201.44466
1776.8475 201.99336
1772.8501 201.8012
1774.4028 205.2914
1778.9587 205.57362
1777.4797 209.02069
1776.4192 212.63641
1772.1818 211.54675
1773.8347 208.7084
1770.2125 207.51245
1769.3884 204.0252
1769.2725 200.30373
1766.9949 197.49385
1766.1616 193.76442
1762.811 195.3273
1759.7053 196.04767
1760.1146 200.38922
1764.6176 201.19746
1765.1382 205.42763
1761.0691 205.24365
1757.2242 204.3488
1753.7454 204.49976
1753.4133 209.43037
1750.3191 205.62627
1750.3381 201.18927
1746.9646 202.7948
1743.6251 203.9783
1745.8981 207.36777
1748.9983 208.96497
1749.6075 212.11104
1745.8276 212.40063
1742.7913 210.11813
1741.3066 207.03325
1742.2299 199.97946
1739.0045 202.75339
1737.2452 206.8393
1738.0698 211.01149
1741.3826 213.3391
1743.8589 215.86781
1740.929 218.23764
1738.2921 215.5754
1736.6147 219.46895
1739.8512 221.77747
1740.6296 225.04153
1741.8763 228.31956
1744.5869 226.16803
1743.7164 222.39697
1744.7767 219.28883
1747.8236 223.93323
1747.8289 227.31042
1746.8137 230.75346
1746.1765 235.28397
1741.3883 235.51923
1737.3663 235.68092
1734.3041 237.8006
1733.2622 241.63037
1734.1224 245.89731
1737.867 246.59567
1741.8973 246.3122
1742.9778 242.75067
1738.237 241.08742
1742.6849 238.84175
1746.9069 239.93956
1750.7319 237.73135
1750.2131 233.70824
1754.7871 236.46152
1758.6155 238.31345
1762.3114 236.9964
1762.0374 241.78365
1757.6002 242.42648
1754.1013 241.00232
1750.546 242.65729
1746.9218 244.65208
1750.8633 247.28546
1754.8337 246.31409
1760.061 245.60928
1757.8942 249.10857
1759.7402 252.45035
1755.9277 252.47165
1752.4877 251.33397
1746.5895 248.13614
1744.2124 250.58867
1740.7115 250.72871
1740.7361 254.96542
1745.2083 254.83669
1748.5275 251.8364
1749.453 256.14694
1753.3586 256.03958
1757.058 256.68665
1759.8303 255.70612
1762.5178 256.25253
1765.8922 255.36668
1770.5298 255.14156
1774.0776 253.8177
1777.9526 254.92946
1779.5391 257.22205
1775.0945 258.5604
1774.5602 262.64087
1777.4852 265.621
1777.0747 269.0936
1779.975 272.11453
1776.359 273.44067
1774.2639 276.16656
1776.5364 278.72867
1778.3103 282.40582
1775.2249 284.80673
1777.1614 287.3668
1779.0157 289.5945
1781.0446 291.53442
1783.1621 288.3219
1780.1154 285.84042
1782.4022 283.04904
1784.4465 279.602
1780.1348 278.49423
1782.4434 275.6094
1783.939 271.8446
1787.6704 270.3198
1788.1211 273.71655
1787.0048 276.97018
1791.0146 276.6179
1794.0 277.93912
1794.8678 274.52548
1791.8136 272.273
1791.646 268.80765
1795.4552 268.6395
1795.7334 271.35025
1798.8506 272.938
1802.6482 271.5073
1808.187 267.219
1804.5432 265.87833
1802.3363 267.644
1799.226 269.20172
1799.0574 265.6872
1795.9741 265.74106
1793.3704 265.4595
1791.4438 263.72592
1789.1389 266.19785
1785.6736 267.59506
1781.7352 267.1846
1785.095 264.18356
1782.5837 262.17667
1778.9683 261.86688
1781.9792 258.34088
1782.7537 253.5557
1785.387 249.66151
1785.4924 245.66873
1781.6659 242.78427
1779.8923 239.18187
1774.9441 242.67036
1778.2732 244.96425
1780.8097 248.46146
1778.2357 251.55247
1774.7495 248.74532
1771.1547 245.63959
1770.0077 249.51054
1767.0544 251.60904
1763.413 252.67485
1762.2681 249.3579
1764.7734 247.21164
1766.4934 244.47728
1765.8579 240.38513
1766.8123 236.56284
1770.5322 238.27592
1770.1746 241.86243
1774.5586 238.19083
1777.5403 235.97934
1777.8258 231.94905
1780.3834 228.45009
1782.7686 231.04039
1781.3654 234.55579
1784.8148 237.54646
1785.6315 241.21965
1789.8419 242.61156
1790.8378 247.23816
1789.5598 251.35367
1786.8035 254.08224
1785.0737 258.66788
1787.7202 262.0165
1787.9524 257.1406
1790.1199 258.68408
1791.2833 261.2599
1793.7292 258.99432
1797.2107 257.84015
1795.572 262.02576
1799.0471 262.1179
1802.6667 262.27832
1802.085 258.22168
1799.6637 254.60046
1796.8097 252.19237
1792.2571 255.6016
1793.4185 252.27438
1796.1531 248.14069
1794.849 244.61224
1796.2922 241.10391
1799.4982 238.50429
1797.8999 234.80312
1800.9133 231.38243
1801.8689 235.09764
1805.4763 233.92278
1812.6046 234.63976
1815.8176 231.67082
1812.5732 229.93015
1809.1602 232.23985
1805.4456 229.81049
1805.459 225.34427
1801.1556 227.31113
1796.8483 231.60265
1795.2803 228.89278
1792.4927 226.11464
1789.709 228.88219
1790.1821 232.21727
1793.0392 233.20999
1795.0037 236.83484
1792.5582 239.66739
1789.5145 236.93445
1785.8018 234.12105
1787.094 231.4675
1785.481 228.75317
1784.1365 225.80614
1781.0906 224.41989
1777.1499 224.81786
1776.9327 228.26619
1773.8967 228.54836
1770.6157 230.3096
1774.0946 232.99413
1770.6696 234.457
1767.5299 232.06703
1764.7701 230.27582
1762.1865 228.92769
1764.3763 226.25043
1761.7805 224.62619
1763.9327 222.79402
1766.5283 222.09114
1767.3711 227.38646
1770.9166 226.72089
1769.1672 223.85484
1771.915 221.60078
1773.5594 224.35739
1779.2845 221.31374
1775.739 221.0525
1772.6702 218.41287
1769.5233 219.35521
1766.6895 218.4646
1765.8608 215.7101
1762.5698 213.49313
1759.5681 215.27557
1762.8643 216.894
1762.7322 219.4141
1761.0386 221.34892
1758.6631 221.14134
1758.3176 218.0483
1756.3278 221.12164
1756.8868 223.87437
1759.3617 224.1786
1760.1523 227.17163
1757.1383 226.57872
1755.5327 229.45059
1758.4583 229.94542
1761.1486 232.09912
1764.1284 233.86932
1758.6184 234.14206
1755.4569 232.8938
1752.8733 231.47473
1750.5911 229.39526
1751.1304 225.80815
1753.915 227.21663
1754.0858 224.0995
1751.1968 222.23492
1753.9 220.7871
1754.65 217.57301
1751.0215 218.5325
1747.9207 220.67648
1747.4073 216.57043
1750.2771 215.28189
1753.1079 213.83719
1756.1841 213.7593
1759.1704 211.63577
1757.4927 208.64261
1762.6024 209.53687
1766.4746 208.58511
1768.5475 211.1461
1765.8359 212.71762
1769.4873 214.90268
1773.0157 215.01712
1776.0002 217.39444
1778.5592 215.89961
1781.2373 218.27077
1785.4297 216.9855
1783.7216 213.01404
1780.5762 213.40169
1781.6152 209.31801
1783.347 204.97095
1786.32 207.92052
1787.0903 212.60873
1790.5634 210.1852
1794.8224 209.81357
1798.3704 212.29915
1801.2266 209.12636
1802.9948 213.42924
1805.0813 217.40387
1799.6174 217.26144
1795.1174 216.25021
1790.9558 215.05339
1789.4208 219.14992
1784.5026 221.42699
1787.9685 225.89764
1789.0991 222.88216
1794.2249 221.21599
1797.0862 225.25307
1799.6603 222.25093
1803.2188 220.94264
1807.4272 221.29266
1810.9816 223.36095
1809.6954 227.24962
1814.3452 225.71477
1817.3408 227.91457
1817.7708 223.06183
1814.7223 220.95027
1811.3546 219.32672
1809.692 216.7193
1807.3025 214.3787
1806.5035 210.93265
1805.8398 207.32939
1809.7668 208.35025
1814.0812 207.91978
1812.7965 210.73825
1810.4288 212.6249
1813.4563 214.77509
1815.4578 217.34114
1818.5067 214.22353
1822.265 211.85132
1822.7266 216.6326
1819.0359 218.51729
1822.1423 221.46295
1821.5042 225.55418
1822.6649 229.24974
1819.6499 230.88425
1822.937 233.70743
1819.6082 234.81781
1816.559 234.871
1815.9834 237.74251
1813.9852 240.02188
1811.0818 238.59674
1808.3422 236.79582
1804.809 238.0814
1805.1792 242.83112
1802.4849 240.68883
1799.6677 243.8007
1802.9329 246.31165
1800.6396 249.67844
1804.1066 253.31058
1805.8801 249.68983
1809.5966 251.64272
1813.989 251.7219
1815.3813 247.94333
1811.2188 247.48448
1807.7664 245.94539
1808.8037 241.67432
1812.9375 243.69592
1817.3427 243.26416
1818.8676 239.57031
1822.2445 237.61063
1822.2185 241.6829
1822.7362 246.24283
1819.3857 246.48964
1819.8254 250.23824
1822.7017 253.25082
1822.8413 260.11328
1823.2251 266.6828
1821.1615 263.91507
1817.7733 262.92365
1819.2439 259.99957
1820.5774 256.63675
1817.4562 253.79498
1812.912 255.5678
1809.3569 255.90353
1805.8413 256.58374
1807.2024 259.95502
1807.3485 263.31226
1811.3777 260.19437
1815.802 257.92136
1814.6218 261.7877
1811.7623 265.0227
1815.6187 265.92883
1819.0309 267.2891
1819.95 270.43524
1822.9414 271.5448
1821.8113 274.89627
1823.3549 278.27307
1819.8003 278.53177
1815.998 277.8379
1812.3732 279.44128
1810.3882 276.4644
1810.6506 273.34857
1814.313 273.8755
1818.077 273.96695
1815.6785 269.87775
1811.5652 269.603
1806.8491 270.73526
1806.0508 274.28223
1804.197 277.29
1801.4729 275.4572
1797.9862 276.65826
1797.186 279.75226
1801.0581 279.6259
1800.6826 283.08316
1797.2428 283.05164
1794.7063 285.64194
1797.2847 287.48322
1795.5476 290.5455
1795.6295 295.2084
1798.3398 294.47546
1800.0098 292.46674
1800.3379 289.87045
1800.1188 286.60364
1803.1108 285.63565
1805.262 283.55045
1804.7108 280.6438
1807.6292 278.2658
1809.0908 281.59708
1809.4613 284.79166
1807.1605 286.99112
1803.9532 288.85516
1808.043 290.40076
1811.5045 290.97324
1811.0632 294.56595
1809.402 297.29858
1809.1013 300.16406
1809.5435 303.17365
1813.0991 303.10004
1817.3287 305.7728
1819.4231 303.45258
1816.5269 301.20718
1813.7781 298.4766
1816.22 294.59265
1815.1162 290.09607
1817.388 286.97925
1812.5676 286.1578
1814.5514 282.56686
1818.2717 282.36102
1822.3535 282.02487
1821.5895 285.32382
1822.1152 288.70874
1820.5693 291.75458
1822.0 295.32336
1820.2324 298.63507
1822.9741 301.64294
1822.4148 306.09058
1823.5056 310.36737
1822.5663 314.83875
1822.6713 318.392
1822.0066 322.19885
1819.2716 316.5439
1818.692 319.54614
1817.3877 322.53424
1819.2239 325.9709
1822.8805 326.38983
1819.9722 329.5609
1822.7562 332.01447
1821.823 336.3751
1822.7251 340.5515
1819.4985 341.162
1817.6271 338.45035
1815.1572 336.70935
1818.0767 333.64648
1815.2769 330.8323
1812.0112 329.17337
1808.2002 329.41006
1809.4336 325.38998
1805.0809 324.70166
1801.7736 322.45877
1799.968 319.05005
1800.8503 314.70258
1804.7573 314.0784
1805.014 318.46097
1808.7671 320.735
1812.743 322.89377
1815.2739 326.15964
1814.0483 319.27136
1815.6512 315.76993
1811.9746 315.92587
1808.6395 315.61804
1808.1083 311.57852
1811.3395 311.60123
1814.8828 312.02298
1818.1093 313.31934
1820.8718 312.2483
1820.6545 308.78296
1817.8179 309.67798
1815.1292 307.3463
1813.0759 309.09305
1811.4186 306.39825
1808.4484 308.0192
1806.8557 305.07693
1804.0638 307.0497
1805.1329 310.13162
1801.5201 310.89874
1800.309 307.7153
1802.7289 303.87418
1805.6017 301.8157
1805.4675 297.99954
1806.5009 294.53268
1804.075 292.1997
1802.0627 295.76495
1802.4697 299.6245
1799.6714 301.55692
1798.4221 298.18265
1795.5675 301.5489
1790.9153 302.52905
1793.5593 298.28104
1789.7529 297.83716
1788.8704 294.02573
1792.7161 293.7219
1791.21 290.26373
1791.9543 286.84314
1791.3018 283.38858
1793.6143 281.20093
1789.157 280.5857
1786.4778 283.05032
1785.5546 286.0828
1788.9215 286.41315
1787.2849 289.55328
1785.6892 292.21585
1782.844 293.6347
1780.1885 296.21964
1784.8617 296.5336
1786.3563 300.09216
1781.4292 299.73303
1779.8462 303.23926
1785.1875 303.6693
1782.1451 306.27313
1782.1383 310.38147
1782.841 314.0063
1788.0001 313.19547
1786.1724 309.34692
1788.9951 306.41718
1792.3308 309.0138
1795.0892 305.6266
1798.9114 304.9048
1797.0049 310.3585
1796.7994 315.27405
1792.9124 313.4509
1790.8582 317.33386
1791.7688 321.62045
1795.4949 319.59857
1796.3745 324.2427
1800.1267 327.02588
1803.9082 328.90924
1803.0479 333.45847
1800.9612 336.16656
1799.9639 332.0266
1797.0521 330.03497
1796.6893 334.6006
1796.8171 338.75494
1795.6094 343.5963
1798.7122 342.83636
1800.394 339.17987
1802.7139 340.14673
1801.9403 343.78845
1815.648 342.73682
1818.6145 345.43497
1822.1539 344.36545
1823.3073 348.1026
1820.824 348.2763
1822.0967 352.0441
1823.3375 356.27335
1820.1156 356.1064
1817.9244 353.3795
1818.4319 349.91058
1815.5854 347.3334
1815.0569 351.22913
1814.7352 355.577
1817.9371 358.78812
1813.7952 359.45023
1813.866 363.54306
1809.3418 361.4515
1809.891 366.23053
1813.8909 368.28262
1813.5969 371.9998
1817.7795 367.33386
1818.5686 363.23093
1822.2554 361.66635
1822.0864 368.32187
1818.665 372.04855
1822.0199 375.1342
1822.8163 380.75204
1819.7131 383.63113
1815.8147 380.56506
1819.0615 378.86072
1816.0046 375.55362
1813.1011 378.3742
1810.5171 381.7169
1808.5225 379.68094
1808.2385 376.83694
1804.6731 380.05115
1802.626 377.2628
1800.1451 381.00485
1796.5604 382.5061
1798.2169 386.0091
1794.4117 388.58023
1793.2039 385.3059
1789.0135 386.54535
1789.0381 390.2669
1792.3895 392.1163
1796.4314 392.72504
1799.168 389.99307
1802.6343 388.8548
1802.242 384.60464
1806.5315 383.27786
1805.9934 386.72308
1808.5463 388.9764
1805.0752 391.4343
1805.6498 394.85916
1806.7358 398.33365
1809.9371 400.88968
1812.8442 402.53934
1812.0688 398.24106
1815.3677 399.4947
1818.9092 399.89056
1818.3517 396.44955
1817.7544 393.1685
1816.3549 390.3108
1814.781 394.5473
1811.959 394.63727
1809.0173 395.87064
1809.4258 392.134
1812.7198 390.1662
1814.5908 386.97617
1810.4861 385.87875
1813.0891 383.28357
1816.3949 383.98566
1818.6385 387.3428
1822.4805 385.96225
1823.6108 390.15173
1820.1918 390.07422
1821.1958 393.0142
1822.4895 395.3725
1822.2964 398.74216
1822.425 401.96985
1819.5471 403.5626
1816.311 403.96542
1822.2699 405.8806
1822.8806 409.73145
1818.1755 407.79922
1814.8179 409.55258
1816.0309 412.81973
1819.7036 411.77002
1817.9583 416.0416
1817.4304 419.7916
1822.1624 415.03546
1822.2869 420.0966
1819.0327 423.51324
1822.1912 426.59543
1817.0103 427.8179
1817.991 432.50616
1821.2925 437.2121
1821.995 440.80768
1817.1462 438.37085
1814.1166 435.35626
1812.9846 430.68942
1810.442 427.36633
1806.4241 428.02298
1807.7673 430.88388
1809.7808 433.83728
1809.8799 437.48734
1811.775 440.28625
1815.324 443.82272
1812.09 445.45633
1809.5981 447.59537
1811.0872 451.18887
1814.8496 448.2352
1817.8843 446.78632
1819.654 443.81277
1823.0496 444.63388
1821.8838 447.66345
1819.427 449.99222
1823.2286 451.4051
1821.3225 455.19815
1822.0974 459.30704
1818.7734 462.21155
1822.1466 465.16733
1816.4678 466.94824
1820.0065 474.89194
1813.1218 471.30197
1807.452 467.9881
1803.296 467.7898
1811.5759 465.0196
1815.6705 459.87527
1817.4985 456.27957
1817.9147 452.56635
1814.9652 451.2225
1813.6497 454.5628
1809.6194 456.29077
1806.9825 452.7049
1802.3809 451.58777
1797.42 452.3
1799.3973 448.71405
1797.48 445.75403
1799.4393 442.86404
1802.9398 445.2661
1805.9937 447.95477
1807.6873 442.94208
1806.0206 439.1057
1805.9336 434.9611
1802.69 436.49316
1802.4692 440.64478
1798.2078 439.5968
1795.1184 442.2083
1794.937 438.32782
1799.0226 436.78632
1798.9834 434.0989
1795.132 434.7472
1795.4474 431.67538
1796.78 428.99527
1800.0681 428.0845
1803.3853 428.56
1806.2233 424.80405
1812.7124 423.16013
1813.6178 417.61545
1812.2942 413.98334
1809.5382 418.81253
1808.314 415.00015
1810.628 410.7801
1813.032 406.28934
1809.2041 404.80545
1806.8904 401.3641
1805.1204 403.3221
1801.5784 401.61252
1802.6278 398.36414
1801.5571 394.1052
1798.1083 396.1926
1797.6853 399.64883
1793.3684 396.94547
1789.2388 395.32983
1785.575 393.76913
1781.7009 392.1931
1784.9077 389.50284
1783.1738 386.12436
1778.7959 385.2879
1778.0944 389.7627
1772.9177 387.31995
1775.2141 382.31897
1778.9849 379.94427
1782.9474 380.7178
1786.0779 382.952
1789.7122 382.59955
1793.1053 381.65723
1792.9824 378.27396
1796.515 377.59906
1799.246 375.59802
1803.0195 372.51263
1806.2083 374.23984
1811.0863 374.89774
1809.2164 370.81418
1805.4028 368.65814
1805.4248 363.9924
1800.7206 363.65598
1799.8914 359.46805
1804.0396 359.62546
1806.9473 357.62866
1810.3324 356.52856
1805.5853 354.30362
1802.3125 351.80783
1801.82 355.8445
1798.8345 354.34625
1795.5149 354.18686
1795.7225 357.69385
1795.8375 361.51407
1791.7444 363.08273
1791.0609 358.69028
1792.0225 354.66522
1792.5449 350.3801
1796.2517 350.82852
1799.7031 350.03296
1802.174 347.07352
1797.7479 346.96674
1793.9082 347.16248
1790.2649 346.6544
1788.1733 349.40237
1789.2561 352.37018
1784.6967 350.893
1785.251 353.54535
1787.4895 356.56076
1783.4583 357.02698
1783.0304 361.078
1786.9888 361.44498
1788.8651 365.92578
1792.2368 368.84854
1796.1527 366.07025
1800.6984 368.00272
1799.1042 371.7473
1795.5123 371.62344
1791.8916 374.1758
1788.5793 378.47165
1784.4873 376.46396
1787.2228 373.65338
1787.335 369.96783
1784.4379 366.30383
1780.1614 367.03796
1780.7114 363.34186
1777.0222 364.01636
1774.4241 365.37015
1772.6549 360.58273
1770.7335 364.58615
1767.339 364.49628
1768.4854 360.04642
1762.8049 361.87823
1765.051 359.01987
1764.2428 354.69632
1767.4342 354.45212
1770.4884 356.01358
1773.4888 355.2136
1775.525 358.2553
1777.9312 360.63022
1779.8077 357.55396
1780.7125 353.64743
1777.0477 354.67517
1777.4586 350.9627
1774.208 351.51016
1769.6194 351.5151
1766.7183 349.34305
1771.8514 349.68784
1776.3933 346.98578
1773.4608 347.0464
1770.062 346.69385
1767.3799 344.629
1764.0276 346.70346
1760.615 348.39798
1757.1915 349.84213
1759.6592 353.1584
1763.1213 351.26096
1761.4218 357.27567
1757.2997 356.6508
1758.369 360.02588
1753.9459 361.0204
1752.5165 364.18835
1756.3195 363.48184
1759.5645 363.4432
1760.3314 366.31702
1764.0354 364.95
1764.6805 367.92368
1764.3589 371.29163
1765.7457 374.4607
1769.5415 372.48898
1767.927 368.9996
1772.3523 368.80032
1777.0563 370.08902
1782.0201 371.19287
1780.2529 375.18948
1776.1052 376.40442
1773.6948 373.0031
1771.7986 377.1927
1770.9294 381.784
1767.5839 384.8106
1762.8113 383.8339
1764.2931 379.8156
1767.7977 377.85532
1761.6401 375.415
1760.0823 378.20123
1757.0543 380.5019
1758.6398 382.69693
1757.7656 396.53693
1758.4591 400.16907
1760.2485 403.31754
1755.4673 404.30383
1758.227 406.54276
1760.6497 408.98334
1762.9376 406.60898
1765.6423 409.56815
1768.282 411.62943
1762.8893 412.03323
1765.1823 415.03156
1766.4275 419.2373
1762.6621 419.9618
1759.3634 418.50168
1761.0404 415.5859
1759.3423 412.82968
1757.0232 411.34302
1755.4617 408.6163
1752.8684 410.01367
1751.3376 412.2607
1752.4828 415.7821
1756.5084 415.76093
1755.1394 419.24734
1752.4462 420.2333
1749.7922 421.4155
1746.7196 422.61148
1742.7478 423.6962
1739.3912 425.97253
1735.6322 426.53214
1735.419 422.46033
1735.6678 418.7487
1739.4211 420.5118
1743.156 419.07916
1748.0646 417.89926
1749.1008 414.66214
1747.027 411.87946
1748.4541 408.7834
1751.4666 406.46344
1752.4624 402.6299
1753.7821 399.0533
1749.1233 401.1656
1747.9337 404.44833
1744.8811 405.18204
1741.8335 406.70438
1739.3912 408.69052
1741.2583 411.04776
1744.5767 409.05298
1743.6731 412.58386
1744.2322 415.4255
1740.2775 415.3674
1736.5433 415.66843
1737.6057 411.61932
1734.1575 412.86072
1731.1318 416.03464
1731.6243 420.05963
1727.3408 420.87717
1724.8048 424.7992
1718.0574 425.43597
1704.9312 413.8971
1696.7957 408.93277
1692.0009 409.0434
1695.2837 403.9207
1693.1655 399.84103
1689.531 397.5787
1688.0085 402.6523
1691.5071 404.43497
1688.1816 407.8616
1689.911 413.72375
1694.4647 414.06546
1691.4835 420.06274
1690.2339 426.24234
1686.94 433.34097
1682.7856 440.7191
1655.6611 476.73914
1627.5872 455.46918
1632.7866 481.72806
1625.6736 483.84064
1620.1096 485.76678
1612.1632 488.7839
1602.8032 460.2185
1596.7947 462.0376
1590.592 461.9906
1577.2229 497.8615
1585.1295 502.68546
1580.6357 500.17307
1562.3302 509.07724
1556.7006 510.84174
1564.2426 523.8242
1554.3636 525.65265
1548.9744 526.479
1551.1342 511.57782
1552.3174 508.25
1548.0913 506.5249
1543.5336 504.65915
1543.2678 507.11197
1543.3837 509.4245
1539.6274 506.8938
1533.2625 501.13422
1526.179 502.49197
1521.2968 504.08862
1516.6598 509.33078
1513.0853 511.23334
1510.6672 514.529
1514.5435 513.86847
1522.2372 525.80896
1532.2915 526.29736
1527.4849 526.549
1517.6674 526.03925
1514.6127 523.73315
1507.5338 517.1675
1506.233 513.87915
1509.1093 509.6239
1505.0527 509.43317
1503.32 506.93634
1499.8718 509.62665
1493.8871 510.42096
1488.002 513.23346
1483.6995 510.46844
1475.6278 508.99283
1468.6195 509.01743
1466.2936 504.91016
1462.9299 505.9212
1463.253 510.01587
1458.2571 507.4997
1454.5717 503.56146
1453.1389 506.85678
1448.7114 503.89963
1446.0128 499.25623
1442.9568 502.8608
1439.883 499.62784
1434.5836 500.51086
1427.2615 501.24973
1430.0873 497.21494
1433.6942 494.78207
1427.4528 492.08276
1423.3395 494.2273
1419.0059 493.05948
1421.9182 488.92496
1421.7498 481.41998
1417.3123 478.62653
1416.131 488.4081
1411.4772 484.82074
1411.917 475.26886
1401.272 467.1902
1396.7695 464.7481
1399.4905 460.91022
1404.1042 460.5793
1401.2704 456.39383
1396.6421 456.36777
1397.9755 452.77518
1394.7867 452.5896
1392.0283 450.48807
1388.2089 451.2092
1390.9799 445.6767
1394.1323 442.7394
1395.305 445.8338
1396.9795 449.6392
1401.2998 448.88202
1401.0007 445.5472
1402.3928 442.2718
1405.0656 440.64053
1397.6388 438.18994
1401.0204 436.64612
1408.1338 435.68594
1406.7455 431.06018
1404.9961 426.34805
1409.9996 426.10193
1411.1464 421.6727
1409.4817 417.1835
1406.0951 421.25488
1403.6925 417.0703
1397.3026 418.35712
1400.6556 420.68402
1400.457 424.6783
1399.6565 428.74133
1400.764 432.90494
1396.4474 432.11087
1394.3748 437.49014
1391.1227 440.48312
1387.5436 440.50302
1385.5443 434.3505
1389.0337 433.8601
1391.8593 429.0278
1391.6908 424.1879
1395.3782 422.16342
1390.7063 419.71536
1388.0532 428.05154
1385.1588 429.65787
1382.3624 425.64218
1380.5559 421.08304
1386.499 422.4657
1388.1193 416.45584
1390.3184 412.98093
1387.1101 411.2494
1384.2542 413.55356
1384.199 417.8417
1379.2535 414.1059
1382.1758 409.20303
1381.0118 404.47125
1384.9022 402.95166
1382.7908 397.42056
1379.1838 398.709
1379.7318 393.47766
1381.4514 389.11346
1386.6364 386.73627
1380.0464 385.08746
1383.1702 381.36005
1392.2318 382.01465
1393.3362 378.6771
1396.7197 380.01715
1400.1936 378.3744
1403.2838 381.308
1404.1538 376.41528
1401.4635 374.00592
1397.2905 375.22238
1399.8444 370.55234
1405.3009 370.6167
1408.2078 365.18213
1404.6243 365.4544
1397.4542 364.76794
1394.8643 372.0243
1389.7812 375.36862
1387.664 379.1212
1384.0488 375.88336
1386.6621 371.72916
1390.9426 370.87418
1388.6815 368.5656
1391.1821 364.7995
1393.7681 362.09317
1392.7402 357.75766
1397.814 356.29575
1403.0421 356.17227
1408.6208 360.31546
1412.266 362.0176
1413.6041 358.11307
1416.2094 354.91373
1407.996 350.77167
1402.4363 348.3042
1412.7455 348.59174
1415.0864 341.56613
1425.3666 327.81882
1428.4893 315.50226
1435.5132 313.45862
1441.359 312.2817
1448.5116 311.3406
1461.6215 325.35287
1442.4955 320.61224
1434.3966 324.32748
1419.6643 333.55707
1419.7135 352.20255
1419.1384 361.4104
1416.302 364.8517
1412.5098 366.46542
1409.4639 368.65305
1409.7268 371.66907
1407.1572 374.398
1407.0934 379.3878
1411.0078 377.97113
1412.9283 374.0588
1414.7822 370.2817
1419.2671 368.44046
1418.8877 373.55478
1419.9097 378.6244
1415.6013 377.5545
1416.3439 383.2379
1419.5795 385.98032
1418.8408 389.25494
1419.8035 393.48672
1414.2155 392.17203
1412.4396 387.71115
1412.7367 382.18927
1409.0435 383.38367
1405.2529 385.19147
1407.327 389.53876
1409.478 393.32416
1405.0186 395.18607
1400.3408 394.27478
1402.7621 400.12476
1406.2454 403.6478
1404.5704 407.70752
1400.1091 408.2327
1399.4237 403.92288
1397.9938 399.11954
1393.1536 397.46048
1395.6714 394.08536
1396.5568 390.14096
1402.2167 389.29758
1398.9207 387.04047
1399.8214 383.38876
1395.1288 385.0364
1390.6373 385.1795
1391.1423 388.1052
1391.5176 391.76624
1387.8306 391.3223
1384.8344 393.08426
1387.7152 395.93027
1387.638 399.863
1386.3457 407.42798
1389.6445 404.62958
1393.7163 402.68857
1395.284 407.0113
1391.1888 408.88873
1394.5662 411.63095
1393.23 415.82632
1397.8866 415.21625
1398.4297 411.6822
1402.3508 412.78195
1406.6188 412.98196
1410.8599 412.64246
1409.4564 408.96298
1410.9562 405.8054
1411.0663 402.00204
1407.5171 399.08725
1411.0208 397.2772
1414.6671 397.01782
1418.3062 398.1298
1416.0427 401.80194
1414.6785 405.638
1418.0182 405.28745
1420.7262 403.841
1418.9783 408.56714
1414.9032 409.6172
1417.3049 413.12894
1414.095 413.9294
1413.8351 417.86157
1417.2136 417.96994
1415.5385 421.81134
1418.7837 423.30075
1415.1886 426.14804
1416.6866 430.6451
1411.9329 430.82126
1414.2476 435.78717
1413.2405 441.78342
1409.4119 439.93826
1407.3849 445.58688
1404.2341 451.57373
1409.9072 450.70886
1411.235 446.82352
1414.7676 447.5429
1416.078 451.1855
1412.7113 453.91617
1408.8237 454.30524
1410.7058 457.5967
1407.0515 457.55344
1407.9874 461.28696
1410.1215 464.5407
1413.337 459.79654
1417.425 460.8652
1415.948 464.32404
1412.4944 466.8811
1413.7019 470.92548
1417.4681 471.89154
1419.4153 466.7481
1421.383 470.4265
1421.0464 474.54248
1425.9995 474.89935
1424.8179 477.77484
1428.956 480.63727
1425.5101 481.2541
1425.4222 485.49713
1428.7465 486.6979
1431.5452 489.9715
1436.3507 488.12042
1432.8636 486.08783
1432.1919 482.65494
1432.6909 479.44046
1435.5154 479.99023
1436.5623 483.53668
1439.9453 485.1778
1444.0702 485.3342
1453.8591 485.62927
1448.0404 486.13333
1440.5979 488.9003
1438.2866 493.56802
1444.1355 494.6201
1451.0394 495.79013
1455.221 499.34152
1459.0634 495.54675
1458.9735 502.64542
1461.8354 500.5504
1465.8999 501.73798
1471.7488 504.57916
1482.393 504.98758
1489.8619 507.5803
1490.3715 503.12943
1496.7335 505.69153
1502.1111 504.27408
1507.9143 503.71512
1508.2905 506.86652
1512.3622 505.38004
1516.6831 504.11417
1515.4762 475.7262
1515.2773 470.65863
1511.3876 470.4898
1512.7662 464.2929
1509.919 465.7099
1506.9966 468.6469
1504.9341 464.03137
1502.9924 459.78906
1506.7418 457.81613
1508.3191 461.6312
1510.9275 458.85373
1509.969 454.6113
1506.4045 454.0104
1502.8391 454.7267
1501.7803 450.75327
1504.4918 448.80917
1506.9745 450.33044
1509.8766 450.92587
1509.4121 445.7677
1505.8379 444.62976
1501.6735 445.5569
1502.7886 441.37988
1503.5306 437.3969
1505.6198 433.7138
1503.1642 429.68008
1505.1482 424.8792
1509.2742 424.17313
1508.3195 420.05124
1515.9553 422.04022
1517.5161 424.92508
1519.3755 419.43533
1519.0104 386.16318
1527.8262 419.3428
1525.115 421.12183
1522.3024 420.09024
1520.8357 423.1724
1524.1578 426.14273
1525.1527 431.07938
1528.3834 425.58838
1531.2051 429.60782
1533.175 434.8427
1530.2727 437.5967
1524.6804 437.60522
1519.1455 438.3583
1519.5526 434.47464
1520.7368 430.9013
1519.7281 427.52347
1515.2047 431.05478
1512.9994 426.24493
1509.4746 429.8147
1510.3094 435.70782
1509.5139 440.65976
1515.1359 435.6365
1517.9567 441.71707
1518.1744 445.62524
1519.0681 449.4703
1519.545 453.25113
1522.687 456.251
1518.8733 457.84814
1520.7998 460.9856
1522.7446 463.7995
1524.3727 467.38504
1527.7755 468.911
1527.255 463.93402
1525.3829 459.82248
1526.169 455.2764
1523.9518 450.23
1522.2808 445.09
1525.4331 441.91473
1527.3197 446.0021
1536.1115 443.242
1560.4586 434.63144
1578.9186 421.38654
1585.2261 409.53464
1581.5101 414.03644
1578.6046 427.3357
1564.7278 437.5491
1564.3749 440.4603
1568.2426 441.1459
1570.9298 444.2991
1574.4357 446.17297
1578.0364 447.35498
1582.0347 448.51337
1577.6859 451.64697
1581.7124 453.3147
1585.4277 451.3372
1588.2849 453.9455
1583.6063 457.00772
1587.6758 457.63104
1592.4749 458.7755
1607.3519 452.29083
1610.3529 448.90604
1608.5238 459.9283
1613.3464 458.70746
1617.3018 457.26947
1623.9462 456.08478
1620.6438 456.8467
1613.6001 448.53403
1615.5454 444.49524
1619.356 437.7436
1613.3444 440.24622
1609.3706 441.67322
1611.3638 444.98245
1607.247 447.23578
1605.8066 442.70364
1605.9844 438.27533
1604.8723 433.13974
1604.967 424.97342
1605.1965 415.95944
1621.0822 426.32852
1623.8251 405.388
1643.0785 401.34256
1621.7689 383.5183
1624.7203 377.3778
1619.2568 375.8831
1622.1104 372.26724
1618.8643 369.9663
1615.2456 370.63757
1617.3726 366.748
1614.761 364.1243
1612.6621 360.00983
1612.0366 362.7449
1613.2981 367.29285
1610.6671 368.39618
1609.9337 365.18137
1608.3818 361.7949
1604.754 360.887
1601.9802 364.17865
1605.9646 364.7297
1607.2275 367.80014
1603.6315 367.7997
1601.5515 370.34137
1605.137 372.827
1601.9993 375.4195
1602.71 379.80753
1603.527 384.12143
1601.7335 388.8108
1604.8297 388.5979
1606.482 392.7741
1602.7206 393.0263
1604.1714 396.3987
1604.074 399.90198
1607.1793 400.51233
1607.5334 405.2531
1605.2455 408.961
1604.3809 404.19095
1584.1545 404.75586
1582.6187 401.31296
1585.0387 398.6851
1585.3035 395.02213
1581.3965 396.86627
1581.4362 392.61136
1577.9507 390.21494
1580.6542 387.25348
1576.8646 386.6448
1579.096 382.3831
1577.5514 377.00232
1566.6267 365.25375
1570.1067 361.83136
1571.6262 358.95996
1574.3173 358.36984
1577.0759 358.1012
1578.667 356.07947
1575.9642 352.4214
1573.485 355.01984
1569.9113 356.92584
1567.4546 359.95337
1565.2239 362.7083
1563.3013 366.44403
1560.6027 368.4437
1561.8618 370.65454
1558.5645 372.20767
1556.7014 376.34183
1532.5449 368.28256
1530.3245 372.55148
1531.9517 377.04846
1530.1278 380.289
1530.6218 385.82562
1526.5746 384.6364
1526.4991 381.64163
1522.7955 385.58926
1519.4335 382.13187
1515.4456 383.74033
1513.3413 380.6713
1509.6561 380.2309
1509.7136 383.70462
1511.0725 386.85846
1507.311 386.92532
1505.5911 381.5637
1502.1752 378.4737
1500.0406 374.9281
1502.8424 373.42343
1505.3689 376.17322
1508.0847 377.54025
1507.007 371.9288
1503.95 369.4184
1500.374 369.82898
1499.8319 365.2076
1502.6284 365.8842
1504.9072 363.03165
1499.7635 360.99606
1499.3533 355.62912
1501.8866 356.546
1505.4807 355.65778
1502.8195 351.04297
1502.8577 345.36032
1505.8063 340.59473
1509.7555 338.28098
1508.9514 335.1493
1513.6819 332.99316
1513.4313 336.6433
1516.4644 338.12854
1512.5481 340.97684
1511.8943 344.69315
1508.0127 345.33798
1508.8425 350.0356
1508.8909 354.75775
1504.225 359.70737
1508.7766 359.89816
1509.7509 363.92722
1506.6376 366.73004
1509.9534 368.1553
1511.3163 371.9047
1510.9019 375.5782
1517.5812 373.14105
1518.7725 377.73523
1522.9536 380.42142
1525.8497 376.66687
1522.8973 373.40213
1526.4181 369.74902
1524.7157 365.34274
1521.3185 363.7621
1517.514 368.1431
1517.0597 362.4503
1519.0751 358.58252
1518.4803 354.51794
1519.2875 351.3206
1517.2562 348.5807
1518.7098 344.56116
1521.783 347.85336
1525.1008 349.93478
1525.9547 353.59338
1524.3427 356.54184
1524.852 360.48715
1528.3219 363.87753
1534.1155 363.48312
1534.9514 358.69147
1535.4967 353.70004
1534.8739 347.32907
1532.9047 341.54025
1526.3325 341.48386
1526.0177 345.79187
1522.7708 343.7049
1520.8684 340.39398
1524.2155 338.43158
1525.0366 335.01605
1529.525 336.20908
1529.7229 331.38922
1531.6108 326.42657
1518.0592 330.45206
1509.749 309.46774
1505.1234 309.4452
1496.7832 306.77783
1507.6442 299.6981
1513.7114 302.1121
1517.4437 305.02286
1514.8813 308.96808
1521.1561 308.76886
1528.8871 309.947
1538.4874 306.00366
1540.6023 308.43768
1544.228 308.01486
1547.6272 306.1294
1552.9307 303.9519
1559.2445 305.2034
1567.7744 298.6207
1582.0203 311.82767
1589.0823 310.37994
1594.278 313.43542
1598.6631 313.84494
1605.2833 315.6574
1610.1023 317.1764
1613.678 320.17517
1619.9188 321.8546
1626.4608 324.3695
1632.6892 326.36575
1639.2715 332.4801
1644.6805 334.8053
1649.4456 333.56912
1656.0436 331.9629
1648.1162 342.22043
1641.4928 342.54504
1635.1716 338.0519
1629.0504 345.4974
1620.0144 340.12662
1616.7491 350.00894
1611.7985 348.2496
1606.3059 346.23483
1601.197 344.69574
1596.7195 346.45627
1595.0801 343.2499
1592.6566 339.89426
1587.9346 338.57263
1585.917 342.71982
1582.8342 346.11914
1580.3522 349.5038
1579.3052 353.04877
1582.7728 353.41357
1584.505 349.75055
1587.8936 350.59677
1587.512 346.7351
1590.392 343.53305
1591.7483 348.02307
1594.8503 352.30746
1602.865 357.76263
1603.4609 354.59323
1602.6913 351.01538
1606.3413 351.0226
1608.59 353.77216
1607.0155 357.44788
1610.1006 358.3012
1622.6409 351.09387
1629.1018 353.03317
1636.515 355.12518
1643.084 358.85074
1650.868 350.4108
1652.2274 343.72464
1655.484 345.84125
1659.4296 347.5434
1657.0657 350.21735
1659.6006 353.97318
1662.6208 350.7415
1666.1725 354.2585
1667.1981 359.62595
1670.8724 357.91614
1671.6866 362.48013
1674.9937 362.81686
1677.8627 366.46777
1680.0883 371.3167
1680.7747 376.4435
1684.8698 375.24246
1683.7881 380.44473
1684.7634 384.7104
1688.595 380.63608
1692.4587 385.6648
1688.9767 385.602
1686.6212 388.8793
1686.9197 394.38037
1690.3042 391.35962
1694.275 389.7372
1697.1592 392.89893
1693.1343 395.0378
1697.6757 396.95862
1698.5712 400.50702
1699.5874 404.45862
1702.2694 407.84222
1706.8395 420.66446
1721.8821 428.9156
1725.5658 430.70703
1725.3423 435.12668
1730.2838 435.44424
1733.3431 438.27512
1730.0499 430.6398
1728.3934 426.88657
1731.3994 424.83682
1733.474 431.47562
1737.441 430.74002
1740.6536 432.30273
1741.9302 436.48904
1746.785 439.55768
1749.7908 442.0061
1752.357 438.946
1755.8867 439.40594
1759.029 438.53244
1754.2009 434.86734
1750.0731 435.59595
1746.2932 435.79614
1745.2717 432.01505
1742.7577 428.46402
1746.9434 426.91394
1749.7555 430.76282
1752.0785 425.26556
1756.8882 424.7703
1758.1475 421.74255
1761.989 425.5267
1765.8525 428.42163
1766.5265 424.07083
1769.9993 422.26117
1771.9204 419.06345
1769.3164 415.6074
1772.1283 412.4013
1774.3242 415.76242
1778.5626 416.1253
1777.9218 420.6943
1774.0979 424.729
1770.5944 427.1943
1777.2554 429.6123
1780.747 426.5877
1785.155 423.45404
1783.5541 418.85062
1789.562 420.74094
1795.4093 420.14612
1798.5931 423.15936
1800.8357 420.07043
1804.3682 416.0103
1805.4697 418.60034
1805.5728 421.63693
1802.3113 424.66794
1797.269 425.83026
1793.6216 425.41476
1792.6868 429.80823
1788.4358 429.9857
1790.177 432.97806
1791.603 435.86047
1791.1658 439.15424
1791.1707 442.35736
1788.5691 444.17725
1789.6765 447.67444
1793.2694 445.57816
1794.1697 448.9441
1793.917 452.69922
1794.4717 456.38028
1798.763 456.28366
1800.0116 460.3614
1803.7478 456.45157
1804.8875 461.87906
1799.8279 465.7899
1795.5901 463.97574
1795.2441 460.34518
1791.3594 461.47064
1791.8063 458.73193
1789.899 456.7482
1787.4314 459.09335
1786.5377 456.1343
1784.6921 454.3073
1781.8164 453.57526
1783.14 450.14575
1785.2356 446.63284
1784.3998 442.91476
1786.8986 439.59805
1786.502 435.5167
1784.6425 428.6846
1782.7625 432.1751
1780.1611 436.9402
1782.0441 439.92755
1777.8204 441.41522
1780.741 445.75986
1779.2926 450.3201
1775.5836 450.83078
1775.92 446.21356
1770.2255 448.12927
1768.8987 443.16702
1773.2142 443.02313
1774.6516 438.38663
1770.5465 439.62665
1767.25 438.11774
1770.6345 435.57513
1775.5171 434.51944
1772.8142 431.87213
1768.5599 431.4332
1765.8248 434.03284
1762.4082 430.83014
1757.6207 428.4699
1758.4753 432.10754
1757.5051 435.50058
1761.5978 435.1216
1763.8248 439.948
1766.8972 446.1282
1764.4247 448.55295
1758.2847 449.88788
1760.2874 446.77505
1758.1052 443.65128
1754.8168 443.677
1752.103 445.3954
1753.3877 450.07986
1750.3612 451.81467
1747.4907 450.70514
1748.7539 446.4296
1745.0491 447.9671
1740.5292 445.73956
1739.1631 441.00854
1737.1975 436.07812
1735.4741 442.49817
1730.6888 442.93265
1734.5142 446.87915
1739.6378 451.13095
1743.8083 452.69437
1746.7987 455.12766
1749.2489 457.5462
1751.9463 455.18857
1755.6267 453.73987
1758.825 457.36072
1760.1282 453.3504
1763.6804 453.5457
1763.5469 457.78415
1766.9606 460.65253
1769.0525 464.97958
1765.0205 466.4036
1761.8939 463.0916
1757.9019 461.99167
1755.187 458.58902
1752.4333 459.71555
1745.1912 481.70105
1746.7073 484.46332
1748.8081 482.52786
1751.8574 483.2746
1753.1821 485.64392
1749.6292 486.39606
1747.8827 489.40384
1753.3173 488.5721
1751.1027 490.31763
1749.227 493.41647
1748.7031 497.2773
1745.6173 499.8739
1742.9111 502.9805
1741.382 499.27225
1740.0273 495.62482
1744.4404 495.43866
1745.1493 491.51392
1741.8882 488.1072
1745.1001 487.02667
1742.8452 482.81158
1738.5264 481.37094
1740.4883 484.10092
1738.4563 486.55923
1741.0533 491.7991
1737.3246 492.003
1736.2156 489.14078
1733.8638 486.99008
1735.1727 484.2469
1735.3086 481.4774
1732.9375 480.5529
1730.5287 481.83505
1730.9846 485.38425
1728.1163 487.3663
1731.8345 490.46906
1734.895 494.08234
1736.7183 497.56793
1738.6693 501.9292
1736.6633 505.29913
1732.6938 503.39023
1735.503 501.03546
1732.7769 499.27017
1729.4248 498.55396
1731.8977 495.36227
1727.4524 490.94177
1728.4402 494.22064
1725.4711 497.49918
1729.1958 502.34723
1728.34 505.38495
1725.5859 508.0249
1723.3181 504.26566
1725.7529 501.0193
1721.0206 499.94385
1716.5963 498.0961
1719.1001 495.49716
1716.7988 491.67044
1714.0471 487.70123
1713.1533 490.95657
1713.5466 494.41974
1713.001 498.6287
1711.2085 501.74942
1707.8789 500.89713
1708.2744 497.54474
1710.5757 495.59613
1708.0422 493.65887
1709.4697 490.73483
1710.6709 487.48813
1711.2992 483.92874
1716.0554 485.528
1719.669 488.18994
1720.8772 491.9939
1723.6656 494.643
1723.9385 489.94113
1724.1423 486.50726
1727.1249 483.54187
1727.6036 480.1387
1723.8073 480.32114
1723.0271 483.46118
1719.4115 484.07416
1719.395 479.92065
1715.3618 480.78754
1711.4132 479.83493
1707.0015 479.4683
1703.1202 480.79507
1698.6074 480.38885
1693.2555 480.9116
1682.9302 478.33932
1688.798 479.84705
1695.747 484.9263
1698.7548 488.7662
1701.3512 484.88556
1706.9121 483.30728
1707.0602 487.0553
1703.4575 488.2853
1705.3165 491.31415
1701.1482 492.75266
1704.7668 495.1829
1702.3765 497.23474
1704.7235 499.60907
1705.1686 504.01505
1706.3438 508.1793
1709.1307 505.4138
1711.9233 508.87756
1713.8911 505.30707
1716.6543 502.37366
1719.207 505.9984
1723.2947 510.72638
1719.1001 509.99734
1715.7974 510.84207
1712.8433 512.9264
1714.7269 516.65137
1717.7955 515.73834
1720.9644 514.0513
1723.0116 517.801
1726.1001 515.1469
1729.5049 517.86523
1726.5088 520.6684
1730.5205 521.5757
1731.7834 524.5636
1735.6833 527.2033
1737.9216 524.7751
1739.2917 528.3734
1741.4165 531.1361
1744.7395 531.5488
1747.0835 533.5413
1747.1897 536.4395
1750.3351 535.1501
1750.6765 532.19434
1748.354 530.35284
1752.343 528.4629
1754.1865 524.97455
1752.6285 521.80975
1753.2274 518.4324
1750.3887 516.35175
1749.7815 519.8626
1747.229 521.4714
1748.13 524.6176
1750.8335 524.2947
1748.5496 527.55383
1744.1581 528.1443
1745.1562 524.65576
1741.9131 525.0269
1740.0077 522.6347
1738.0844 520.33
1734.9697 522.72473
1733.9299 519.3294
1737.5962 517.43274
1741.4279 519.8207
1744.2437 520.55945
1742.1864 516.5104
1746.5714 517.1897
1747.5345 513.0248
1744.1802 513.28485
1739.7231 513.4037
1736.2129 514.16846
1734.2706 510.78235
1733.2042 516.1175
1731.0757 513.6963
1728.2045 511.62952
1730.3242 508.61935
1733.4683 506.9166
1738.08 509.33948
1740.8085 506.01614
1741.9927 510.0079
1745.5577 508.7756
1746.218 505.12405
1749.277 502.01492
1753.4021 501.3472
1752.8184 497.2015
1753.7363 493.93048
1755.3351 491.209
1758.7477 490.07373
1756.3342 487.1129
1755.9175 483.56033
1759.3137 485.0454
1763.3032 484.2025
1768.9636 484.4444
1766.0437 487.49466
1761.9652 488.05966
1763.3723 491.2657
1762.4055 494.38474
1758.295 494.31955
1757.0481 498.73865
1761.344 497.83945
1765.5739 495.83618
1766.0101 498.54175
1769.3596 498.48132
1770.4385 495.08096
1767.4242 492.779
1769.7637 489.16827
1772.7378 491.95398
1775.284 494.8698
1772.8594 497.67795
1773.3364 500.5656
1770.502 501.5758
1767.6578 503.92377
1767.6239 506.79657
1766.5205 501.58182
1763.3484 501.49554
1759.8236 502.23297
1756.4606 504.66483
1759.0352 508.59982
1754.7598 509.404
1751.3306 505.84506
1749.9197 509.46228
1751.0767 512.80554
1753.8098 514.2647
1756.9146 513.6871
1760.4148 513.8284
1760.651 517.65814
1762.8792 520.0047
1765.501 515.58777
1768.4408 512.70294
1762.7083 510.9299
1762.9879 505.87576
1766.0392 509.75742
1770.6122 509.39676
1773.885 511.92816
1774.2527 509.02884
1773.8016 506.42838
1771.006 505.10852
1774.2274 503.28836
1777.1364 505.1802
1778.154 501.89655
1775.8706 499.88828
1778.0698 498.30392
1779.1654 495.2666
1779.3328 491.64438
1775.3617 488.87988
1773.9421 484.83063
1770.1431 470.18015
1779.342 484.26147
1780.767 487.7244
1785.2278 484.4138
1784.5767 490.72894
1783.4597 494.91037
1787.8118 495.9899
1790.1375 492.7927
1794.8306 492.16342
1792.7671 488.59793
1788.0686 488.461
1790.8213 484.2296
1796.4458 485.59793
1799.0632 489.9931
1797.7388 494.55035
1797.772 497.962
1794.9434 499.61356
1792.4158 496.72833
1791.8364 501.1252
1788.4177 500.59995
1784.8926 501.93164
1785.1091 498.70377
1781.4968 499.06586
1780.3774 503.02872
1782.5526 503.5164
1784.6362 505.25345
1785.2906 510.49994
1787.2356 512.771
1790.2615 515.3533
1787.1106 515.352
1786.4694 518.37646
1783.7122 516.17285
1783.4851 512.8811
1781.375 509.86896
1783.8357 507.9137
1780.5249 506.54633
1777.5178 508.62582
1778.2281 511.56415
1780.3303 513.5998
1780.19 516.4903
1779.1929 519.5803
1776.3546 517.8456
1776.0542 514.5027
1771.0447 515.07153
1773.0032 518.1216
1775.4369 522.01514
1778.0424 526.47565
1775.411 530.2382
1778.7401 531.7555
1781.7064 528.7572
1783.3098 532.42346
1786.5422 530.59564
1790.1501 528.45905
1790.0221 525.1705
1786.0272 526.81116
1783.1604 524.6514
1779.935 522.9359
1783.0652 520.08057
1786.6489 522.14185
1790.3271 521.8687
1789.9932 518.66034
1794.4353 519.78815
1793.5515 517.1828
1793.6553 514.14624
1790.6948 512.0667
1788.639 510.02484
1787.2196 507.56424
1787.7036 504.51633
1790.6233 504.42416
1791.1079 507.84805
1793.5444 510.45224
1795.9363 507.72836
1793.7577 505.0162
1796.5524 502.89966
1800.3638 500.7154
1799.4954 505.10602
1799.8494 508.86322
1803.0137 503.794
1804.8832 507.08313
1803.2719 510.6276
1800.5825 513.95337
1796.9591 512.02264
1797.4906 516.6129
1802.3972 518.35034
1798.7952 520.9435
1795.8938 524.2157
1793.4417 522.5495
1794.0739 527.19476
1796.3208 532.2946
1793.4658 530.88116
1789.8103 531.9543
1791.8563 534.6048
1793.8848 537.61346
1789.8518 538.03406
1786.9952 535.1041
1783.703 537.24805
1780.5195 535.69446
1776.8721 535.7536
1773.297 534.9526
1769.5837 535.00494
1771.8914 530.40875
1768.3035 529.945
1769.0979 525.37054
1773.314 525.47266
1770.2117 520.3608
1766.6166 520.3331
1764.9012 524.2816
1764.3894 527.83093
1761.3066 523.46686
1756.8354 517.96643
1755.9124 521.36
1758.3887 522.79517
1760.3065 527.26984
1756.8436 526.7439
1755.9114 530.00824
1754.0089 532.73413
1757.9314 533.5276
1760.2006 530.82086
1764.3827 531.2641
1766.3185 534.1772
1762.128 534.4457
1761.8396 538.44415
1758.6499 537.05505
1755.5638 536.2707
1752.8049 536.1508
1755.0809 539.6832
1751.8489 539.10864
1749.1216 538.25964
1747.0792 540.1324
1744.3176 538.6065
1744.0322 535.39246
1740.8566 535.0968
1737.895 532.4491
1734.8021 534.64966
1733.9991 530.901
1732.0686 527.89
1728.25 525.8651
1724.8462 528.5841
1721.7842 526.6843
1724.8569 524.303
1721.9858 522.0438
1719.2048 519.518
1716.3 521.11365
1718.3137 524.2951
1719.3851 528.4498
1721.4478 532.45905
1724.4198 535.7174
1722.8695 538.7947
1725.3584 541.68756
1728.2489 537.77094
1725.476 532.3454
1728.8535 530.18225
1730.163 533.7969
1732.4546 537.71564
1729.8376 542.2291
1726.3713 545.56396
1732.959 545.536
1737.4412 543.87885
1734.4552 541.1167
1737.5411 537.8685
1740.8566 539.5426
1741.3179 543.14734
1743.7194 545.7036
1740.1045 547.5542
1736.328 549.3298
1733.1152 550.24097
1731.2313 553.3506
1729.7745 548.4362
1726.792 550.2657
1728.4642 554.87683
1734.004 555.6826
1737.1089 554.8474
1732.1506 558.4943
1735.3011 562.2607
1737.2532 559.1254
1740.8231 557.14575
1741.4492 560.6641
1738.5045 563.4122
1741.3989 564.4483
1744.2671 565.1979
1740.8413 568.0157
1737.1838 567.21857
1738.5135 571.3651
1741.512 572.0932
1744.3494 571.42957
1744.1274 567.9632
1746.937 568.603
1747.4388 565.83374
1747.9653 563.6464
1750.3782 562.7151
1751.1617 560.3571
1751.2932 557.41003
1748.3806 558.6096
1747.3185 561.0772
1744.5668 562.2122
1744.9897 558.1526
1748.5458 555.68945
1751.586 553.4706
1748.831 552.66956
1745.843 553.6352
1742.8232 554.7383
1739.2032 552.1569
1742.6118 551.1222
1744.7684 548.97644
1747.7059 550.07904
1747.2427 546.6327
1746.771 543.64984
1744.6635 541.81506
1749.7574 541.46497
1751.82 543.1503
1749.6494 544.7328
1750.2603 547.7338
1751.2156 550.4691
1753.8014 548.49774
1754.3444 551.4526
1757.6067 549.54065
1759.3805 545.7421
1756.2828 546.1621
1753.0656 545.85565
1754.2507 542.80634
1757.3214 542.8816
1759.3298 540.79535
1762.4772 543.9939
1764.4769 541.4757
1765.4401 537.61816
1768.3425 540.1486
1771.6757 539.1261
1772.0519 543.5766
1768.1321 544.1462
1765.8196 546.7314
1767.3143 550.4081
1766.6212 557.4531
1770.0806 557.2338
1769.2882 554.15155
1770.4862 551.1326
1770.5409 547.5245
1774.5841 547.31476
1773.791 550.811
1773.7705 553.8573
1773.3455 557.17535
1772.0295 559.7588
1769.8605 561.3548
1767.206 561.6362
1764.4495 561.2933
1763.2328 555.9984
1765.05 553.4184
1763.8193 550.12994
1761.6936 547.84143
1760.5873 551.966
1759.9623 555.8343
1756.8855 553.3043
1753.5548 555.36005
1756.5796 556.6218
1762.2064 559.4597
1758.4961 559.7651
1754.5029 559.23016
1753.6576 562.6562
1756.6221 563.21875
1760.3641 563.6298
1758.2017 567.098
1754.1699 566.9451
1751.4001 565.1556
1750.1868 567.8639
1751.978 570.5436
1750.6396 573.898
1748.1575 571.1938
1746.845 574.3731
1742.5792 575.9477
1744.5548 581.02997
1746.4242 577.83044
1750.7113 577.39923
1749.3162 581.34064
1746.6653 585.1525
1748.1494 589.15137
1752.2048 589.60425
1756.292 591.7323
1759.9623 594.3792
1763.5278 595.9384
1762.3901 591.4534
1759.1833 589.1422
1760.2833 585.4174
1756.7882 584.10004
1755.062 587.3306
1750.9524 585.4586
1753.7888 582.3136
1754.291 578.82385
1758.9764 580.2966
1757.5756 575.96295
1754.2732 574.17426
1755.9219 570.74695
1759.7781 571.1252
1761.7666 575.5187
1766.1731 577.0196
1763.7322 571.1226
1767.186 568.16583
1762.9338 567.5174
1764.1245 564.4944
1768.3627 565.16644
1771.7804 565.0038
1773.5195 562.4541
1775.3202 560.3927
1776.6101 558.3527
1776.3087 555.70685
1778.6182 553.7687
1777.7823 550.1029
1778.3074 545.8272
1775.9229 543.0116
1775.3676 539.4388
1779.7504 540.16534
1781.864 543.36304
1782.2928 547.4711
1781.8713 551.1733
1785.3037 553.404
1782.0731 555.4669
1779.5273 557.95447
1781.3835 560.55536
1778.3838 561.29816
1779.0958 564.67084
1776.5249 563.4832
1775.172 565.905
1772.0265 568.8122
1774.6798 571.9138
1773.4663 575.4036
1769.0688 570.85333
1766.3075 573.44214
1770.3027 574.02545
1770.6096 578.07513
1766.6492 580.9647
1762.8899 580.3761
1763.822 584.85876
1765.7104 588.5527
1767.575 591.9028
1767.1649 595.7195
1771.0623 595.9933
1769.3066 599.2266
1765.4169 599.56055
1761.8795 600.7794
1759.8185 597.8491
1758.187 600.49786
1755.1619 600.0414
1756.5262 595.63306
1752.5734 593.27203
1749.3069 593.22595
1750.6819 597.43463
1753.3009 597.14636
1752.3173 602.42426
1757.5605 603.5866
1756.4395 606.44617
1754.2235 608.64935
1756.5359 613.87823
1758.9998 611.2892
1763.0962 611.399
1761.0436 608.04865
1760.8037 604.68744
1763.6125 603.89
1766.3519 603.08527
1769.1089 603.508
1765.2998 606.4019
1765.5524 608.99445
1767.0088 611.70123
1770.7141 614.2207
1773.9977 615.0031
1777.8884 614.7692
1774.0715 610.95245
1770.3384 610.77075
1769.1522 607.2736
1772.8739 606.8627
1774.3271 602.8774
1771.4465 601.98425
1774.1163 599.22375
1776.1008 596.04047
1772.9329 593.18396
1772.2903 589.7044
1771.8687 586.21045
1768.1309 585.30896
1770.0532 581.7688
1773.3849 582.24896
1777.8297 581.7241
1775.0194 579.05853
1776.9515 575.97656
1779.6938 578.84515
1782.1094 581.94617
1784.6957 579.12286
1785.8085 582.6258
1783.3275 585.80634
1779.678 585.1681
1775.7692 585.2799
1777.7273 588.7654
1777.6713 592.5046
1780.9368 596.43915
1778.1726 599.2425
1778.8098 602.6391
1781.9541 600.3622
1784.8762 600.5298
1787.3333 602.6963
1788.9609 605.17084
1790.8533 602.8826
1792.0425 600.2873
1787.2008 599.1795
1785.3489 595.9922
1786.6088 591.9758
1782.2333 592.8586
1782.4568 589.34686
1786.7969 588.1658
1788.1248 584.86383
1791.3317 582.9992
1788.6444 579.9799
1791.9276 578.54407
1795.5657 577.8046
1794.8392 581.3705
1794.8582 585.1002
1795.4844 588.67993
1791.4036 587.04236
1790.9866 590.37787
1789.8263 594.0448
1789.4739 597.9446
1792.3778 596.6589
1794.0137 593.44403
1797.1805 591.795
1800.3381 593.5699
1797.7195 596.183
1795.0256 598.0212
1797.6498 600.01276
1800.3755 601.0563
1801.9218 597.75006
1806.2769 597.81976
1804.4617 594.0833
1803.1239 590.34143
1799.9152 588.2584
1798.7509 584.1853
1799.323 580.44244
1798.716 576.4021
1800.5814 573.30005
1802.2161 576.963
1803.5845 580.1997
1803.4221 584.9763
1806.3364 588.722
1808.8828 591.01685
1808.8229 594.62134
1812.2627 591.40265
1813.2383 588.3727
1809.1768 585.8613
1806.8315 581.8658
1810.4568 581.2622
1813.9308 580.53784
1813.7697 584.7897
1816.8403 588.0162
1820.2148 587.1687
1818.8713 584.22015
1816.7078 582.0713
1814.2756 577.35974
1810.8007 576.58905
1807.3828 576.9276
1804.8479 574.2469
1802.4668 570.8915
1797.8618 570.1187
1800.8396 568.06586
1799.4463 565.197
1796.1133 566.1405
1793.7769 569.7088
1796.3661 573.5148
1793.0984 574.2429
1790.1261 575.39594
1790.3264 571.13574
1787.9087 569.03235
1786.0496 572.302
1787.5256 575.70215
1784.5906 575.75354
1781.513 576.2868
1782.352 572.47205
1778.8235 573.5216
1779.2251 570.3588
1776.2466 568.6103
1779.9984 567.2844
1783.3467 569.08215
1785.7794 566.5459
1792.1829 565.70056
1788.6785 564.8904
1783.0121 565.2582
1781.5319 562.93536
1785.348 562.2269
1783.5555 558.82623
1786.7092 557.4578
1789.0316 560.9208
1789.718 554.8424
1788.9036 551.6396
1786.3962 549.0331
1791.5096 548.8509
1792.7537 552.0632
1791.7694 557.5806
1793.314 561.4494
1797.6704 561.8908
1796.8169 558.3003
1795.248 555.2103
1795.7606 552.1406
1795.563 547.6683
1796.2195 543.7713
1792.783 545.1939
1789.3802 545.85034
1785.8483 544.6822
1785.61 540.37604
1789.5376 541.8727
1793.2605 541.31433
1796.9424 539.58
1797.0801 535.58057
1800.4146 532.2962
1801.8304 535.7967
1800.684 538.89844
1799.5315 542.0719
1799.2163 548.1982
1800.3159 545.45856
1803.5151 543.2028
1804.7593 539.1112
1808.1028 538.8135
1812.0094 537.162
1809.1244 534.55005
1805.0393 533.93524
1807.3477 530.4605
1803.2139 529.0427
1798.108 528.7819
1799.6285 525.4524
1803.1494 524.06305
1807.3481 526.16437
1805.8264 520.8764
1809.5215 522.14014
1813.165 522.2182
1815.0002 525.1449
1817.5344 526.4762
1817.5167 521.3748
1816.6008 516.95966
1812.7556 518.07043
1808.5188 516.8322
1805.2158 514.42883
1807.9326 510.55167
1811.4766 508.22333
1807.8424 504.45877
1810.2747 501.43268
1805.1312 500.48337
1806.5842 497.0579
1802.0905 496.98788
1802.4423 493.44324
1804.5051 490.38058
1801.8064 486.39655
1806.8168 485.90198
1809.1957 488.71136
1812.3916 486.6128
1816.3003 488.62372
1819.5369 486.96472
1821.9198 489.5946
1821.9901 494.54266
1822.656 500.03497
1818.9609 498.3421
1817.0815 494.09973
1813.0316 491.9411
1808.1238 491.85605
1808.9883 494.72382
1812.1776 496.95764
1814.7295 500.17508
1813.9819 505.2559
1812.2075 513.2022
1816.3787 511.10925
1818.1501 507.3487
1818.1594 502.96426
1822.111 504.88348
1822.1448 508.9195
1821.3955 511.85135
1819.1044 514.4963
1823.1736 514.7906
1821.5339 517.9103
1822.3608 521.1487
1821.1904 524.32733
1823.2754 527.7992
1820.1152 528.53894
1816.3792 530.336
1811.8134 526.82385
1811.2946 530.4572
1813.8041 533.1557
1815.4482 536.2483
1817.0818 538.89197
1818.6072 534.58936
1821.8828 532.04865
1822.0984 536.4298
1822.9342 540.5285
1819.7592 540.6286
1822.0829 544.4004
1822.3354 548.29395
1818.8047 547.21063
1817.268 543.40094
1814.7913 546.4603
1812.1782 544.33905
1814.1962 540.95435
1810.7556 541.09503
1807.6381 543.67993
1805.0415 547.1412
1809.9496 547.48956
1811.5726 550.6735
1815.3447 549.8271
1817.9727 552.1865
1822.1829 551.6894
1820.1873 554.99963
1823.4171 555.592
1822.057 558.8278
1822.8062 562.0411
1819.4244 562.2533
1821.2075 565.3367
1823.5024 566.35
1822.8202 570.39026
1819.7288 568.07837
1816.8243 564.79584
1813.6283 567.0405
1812.7905 563.4236
1815.5029 560.7037
1818.6493 558.30457
1815.7734 556.53436
1813.5691 553.8813
1809.2014 553.62866
1806.7191 550.7012
1802.1436 550.32947
1798.1359 551.19055
1800.1285 555.17694
1804.19 554.1423
1805.4202 558.2519
1801.8138 559.1912
1802.0698 562.526
1803.1125 565.329
1806.2625 562.0548
1808.2794 556.7649
1812.0076 557.83997
1809.9222 560.9212
1809.0582 564.9575
1810.1287 567.9974
1806.1549 565.91077
1804.5868 568.40424
1806.6577 570.6593
1809.5787 572.2708
1813.404 573.8181
1813.2234 570.59515
1816.645 568.8169
1817.1676 571.9327
1820.554 572.72
1822.2944 575.9691
1817.1449 574.97797
1818.1404 577.702
1819.8743 580.11316
1822.8396 580.0119
1822.4161 583.69714
1823.5242 586.80304
1822.5973 589.9702
1819.4237 590.86115
1816.2764 592.4211
1813.9441 595.2056
1811.0963 597.8792
1807.3062 601.3773
1803.9723 602.23
1801.6543 604.8098
1800.3577 607.9618
1799.407 610.97314
1799.4672 613.9346
1802.0247 615.74945
1803.9624 618.39825
1800.3584 618.7539
1801.449 621.3079
1804.2462 621.807
1807.1897 620.9559
1807.3752 618.0704
1805.7988 615.02075
1803.2738 612.4021
1806.6951 610.1309
1803.7903 608.169
1807.5492 605.8113
1810.7145 601.8792
1812.5118 604.79
1814.8057 607.5736
1817.5195 609.7402
1818.9813 606.08954
1816.6528 603.33527
1814.7207 600.07495
1817.9185 598.0108
1819.2246 594.7696
1822.5393 593.473
1822.2952 596.9682
1822.547 600.1337
1819.8958 601.68134
1822.6017 604.3961
1822.2078 607.8414
1822.0264 610.8157
1822.3933 613.7952
1822.4512 617.17334
1822.4121 620.44354
1821.7788 623.3523
1816.7924 623.944
1817.1552 627.6646
1819.6938 629.8937
1821.6664 626.4592
1822.7513 630.4652
1822.3032 634.8376
1821.5085 638.8622
1822.7314 641.8321
1822.9801 645.1429
1822.9346 648.50836
1823.9065 651.73224
1823.1167 655.4316
1822.0625 658.2995
1821.648 661.55707
1818.3582 664.1151
1815.6892 661.1048
1816.9429 657.84406
1819.2815 655.44666
1821.2483 653.42584
1821.4926 651.00555
1819.4591 649.35846
1817.8625 651.3712
1815.9316 653.6033
1813.8632 650.3938
1812.1305 647.47614
1808.3418 647.25824
1808.8527 643.72217
1811.1997 640.23047
1813.5048 643.99756
1816.578 646.95917
1820.2129 646.81433
1820.1364 643.7081
1817.6411 642.58636
1815.6116 640.16565
1813.7822 636.5684
1818.0486 636.9405
1818.3943 633.0648
1814.8262 632.2803
1813.4753 627.9492
1812.4106 623.9438
1814.5931 620.8587
1818.4658 620.42847
1812.9003 618.17773
1815.5249 616.87054
1818.9401 616.67633
1818.833 613.0796
1815.1194 612.755
1812.2144 613.8142
1811.1729 609.261
1808.7842 612.5097
1809.3068 615.50226
1810.5505 617.8026
1810.4908 621.0509
1807.9167 624.0175
1804.8401 624.9381
1803.8204 629.2551
1806.5969 628.26556
1809.9119 626.4314
1809.3555 629.7913
1811.2253 632.1267
1809.9625 635.44165
1807.2725 637.5687
1806.4949 640.87897
1803.0002 638.9665
1803.3204 635.2173
1806.2712 632.82574
1801.7015 631.3317
1798.6377 631.81555
1799.3392 627.5573
1802.3354 626.49567
1800.5737 624.26624
1798.6024 622.55286
1795.9044 623.1318
1797.0109 620.0825
1795.0435 617.5649
1798.295 616.7522
1796.0941 614.0177
1795.4655 610.64764
1796.8445 607.5809
1797.8895 604.06104
1794.8889 601.53577
1794.4988 604.4056
1792.9176 606.70087
1789.957 607.8886
1792.1152 610.41266
1792.8208 613.9528
1791.2937 617.3503
1792.7915 620.7132
1788.5659 620.575
1787.0426 617.1284
1785.9967 613.7194
1789.4277 614.00415
1788.2605 610.5843
1785.0981 610.0392
1786.2572 606.7573
1783.4297 603.97253
1782.7417 607.83276
1779.9884 606.36066
1776.4031 605.52686
1777.446 609.616
1780.129 611.87317
1782.9473 611.93396
1782.8098 615.5576
1780.8574 618.0819
1784.8425 619.86566
1782.389 621.65625
1782.9736 624.8125
1780.2476 624.92
1778.9229 622.4005
1777.9308 619.87335
1775.6592 618.1709
1772.5747 619.5535
1769.8971 617.7781
1766.2206 618.3052
1767.1353 614.932
1763.3682 614.60767
1761.6333 617.2538
1758.5903 618.8148
1761.0857 622.47156
1763.8127 624.9817
1765.5825 621.42035
1769.852 622.41797
1770.4067 627.0061
1767.1605 626.0944
1763.705 628.89886
1766.3 632.0914
1768.927 635.43713
1772.7656 636.1858
1771.1992 639.8708
1774.0343 641.1057
1775.0077 644.49475
1778.1879 641.5477
1776.3601 637.3811
1778.7622 634.0276
1777.6316 630.2601
1775.2468 633.10016
1771.9253 631.6366
1768.6417 630.0558
1774.5873 628.5355
1772.9303 625.543
1774.7185 622.69336
1777.1182 625.7399
1780.0996 627.9797
1781.6954 630.52014
1784.062 627.47107
1786.2178 624.2433
1789.8468 623.96313
1792.9702 624.6215
1796.0193 626.3529
1792.5298 628.7748
1796.357 629.5634
1795.1199 632.9384
1794.0366 636.59094
1798.7654 634.8471
1799.7814 637.43585
1796.7427 638.9163
1794.0208 640.70874
1792.4603 643.91473
1790.6133 639.57654
1786.5474 639.4696
1787.7644 637.27563
1789.6345 635.3639
1791.7981 632.84247
1788.6094 631.56134
1788.8369 627.6634
1785.6133 629.87067
1785.5405 633.2736
1784.983 636.33844
1782.2106 633.1516
1781.9014 636.13806
1779.8724 638.3768
1783.0415 640.05975
1781.6583 643.5442
1779.6753 646.5789
1776.8385 648.3799
1778.9321 651.7809
1780.9833 657.619
1784.4287 656.54517
1782.4875 653.40106
1787.7078 653.0228
1792.4773 653.45605
1796.0278 652.21204
1797.4418 655.6066
1797.6514 659.45013
1801.7188 658.0765
1804.3597 654.3749
1809.2305 657.0287
1806.4717 659.53986
1803.6633 662.5782
1805.8866 666.23517
1802.6521 667.63135
1799.9984 664.087
1798.7964 668.2564
1794.8358 665.91003
1796.6926 662.79663
1792.9155 662.85504
1793.5923 658.9014
1790.5109 656.5552
1786.8309 658.21906
1784.0219 661.6256
1786.8511 662.9781
1789.6301 660.36664
1790.0493 664.3792
1787.4996 667.1243
1790.7294 668.17865
1792.3279 671.80176
1794.7749 668.96265
1796.7415 671.7722
1801.0214 671.63617
1800.6272 675.5788
1797.8412 675.06573
1795.5634 675.12
1798.948 678.4438
1802.1631 679.85406
1805.5449 679.4712
1807.0334 676.26825
1803.2892 675.2665
1805.8177 673.6588
1804.6292 670.9435
1807.6083 670.0841
1809.6445 667.26154
1811.7236 669.9776
1815.411 671.9942
1812.0815 674.6862
1809.21 673.2674
1809.1572 678.8027
1812.4805 679.2211
1808.7177 683.49097
1805.3386 683.13416
1810.989 687.15265
1813.2095 683.3894
1817.7179 683.3654
1815.9578 687.15936
1814.0305 690.1759
1816.7451 692.76337
1819.0579 690.47876
1823.0542 691.288
1822.2722 688.1884
1819.893 685.9074
1822.5205 683.72
1821.6942 678.93463
1817.0059 679.89154
1815.7057 676.3637
1819.124 674.4969
1822.8453 673.1334
1822.3291 666.5085
1819.3137 669.2392
1815.2563 667.92456
1813.3925 664.65137
1809.066 663.4299
1811.9102 659.8059
1812.8059 654.8111
1808.5796 653.8534
1809.0544 650.8087
1804.4606 649.73773
1800.3638 651.96265
1800.0562 647.47546
1804.3955 645.9309
1803.8643 642.752
1800.7678 643.40515
1799.3949 640.6414
1797.0935 643.307
1795.7728 646.08276
1795.5378 649.1316
1791.4847 648.625
1787.6124 648.6145
1789.0464 644.405
1786.5312 642.06726
1784.8657 645.28564
1783.5266 649.3593
" />
</g></g></svg>
