<?xml version="1.0" encoding="UTF-8" standalone="no"?>
<!-- Created for Inkscape (http://www.inkscape.org/) -->

<svg
   xmlns:dc="http://purl.org/dc/elements/1.1/"
   xmlns:cc="http://creativecommons.org/ns#"
   xmlns:rdf="http://www.w3.org/1999/02/22-rdf-syntax-ns#"
   xmlns:svg="http://www.w3.org/2000/svg"
   xmlns="http://www.w3.org/2000/svg"
   xmlns:sodipodi="http://sodipodi.sourceforge.net/DTD/sodipodi-0.dtd"
   xmlns:inkscape="http://www.inkscape.org/namespaces/inkscape"
   width="3200"
   height="800"
   id="svg2985"
   version="1.1"
   inkscape:version="0.48.1 r9760">
  <defs
     id="defs2987" />
  <sodipodi:namedview
     id="base"
     pagecolor="#ffffff"
     bordercolor="#666666"
     borderopacity="1.0"
     inkscape:pageopacity="0.0"
     inkscape:pageshadow="2"
     inkscape:zoom="0.35"
     inkscape:cx="1600"
     inkscape:cy="400"
     inkscape:document-units="px"
     inkscape:current-layer="layer1"
     showgrid="false"  />
  <metadata
     id="metadata2990">
    <rdf:RDF>
      <cc:Work
         rdf:about="">
        <dc:format>image/svg+xml</dc:format>
        <dc:type
           rdf:resource="http://purl.org/dc/dcmitype/StillImage" />
        <dc:title />
      </cc:Work>
    </rdf:RDF>
  </metadata>
  <g
     inkscape:label="Layer 1"
     inkscape:groupmode="layer"
     id="layer1"> 
     <g>
<path style="fill:none;stroke:black;stroke-width:2px;stroke-linejoin:round;stroke-linecap:round;" d="M 
1500.2258 175.80338
1462.4501 172.18134
1483.8608 112.75023
1524.9097 133.79512
1548.7036 96.54652
1517.051 67.92048
1472.0807 65.55689
1425.5752 85.21078
1376.8391 85.69204
1341.9404 70.8686
1339.9803 183.4006
1316.4819 216.9
1272.1963 226.91133
1280.6653 186.6567
1234.7126 190.0184
1185.8335 192.86162
1170.1428 249.43716
1217.5612 235.92126
1251.9568 261.82718
1287.7028 265.14005
1321.012 259.2452
1309.0337 294.5449
1295.2527 324.56686
1260.9905 303.267
1225.6147 283.2224
1214.2319 323.64673
1237.0077 353.24506
1265.6958 339.5986
1283.926 368.2292
1303.5223 393.44827
1279.1906 411.28485
1295.9866 440.37784
1270.6444 458.73218
1250.7803 441.52512
1229.4117 456.43033
1198.7672 453.66235
1176.6937 434.4903
1210.6061 418.71356
1244.2482 415.705
1253.01 382.9999
1215.99 385.25604
1139.6892 330.14935
1079.2408 346.51862
1028.473 332.01025
1065.3562 279.51465
1137.7484 188.68999
1121.2997 91.461975
1077.6517 78.82553
1034.9943 98.30734
1022.40454 41.791897
1052.1843 34.777794
1086.7455 28.554905
1122.2958 37.851982
1167.1624 25.326738
1161.261 69.406624
1198.8241 92.969826
1205.6775 48.95539
1231.6738 24.592808
1252.4596 73.77708
1301.8014 74.50878
1278.3083 28.581673
1322.1172 28.07753
1363.0142 28.82662
1400.1768 32.43757
1442.3438 29.25978
1494.8903 26.240454
1547.0496 31.448694
1642.2806 62.77689
1730.0007 47.445293
1740.8422 124.49853
1693.4512 200.71202
1662.1467 222.41505
1690.6721 245.72127
1727.6348 259.27527
1721.1091 229.92384
1746.9038 204.64268
1799.6406 203.4212
1840.2449 232.0291
1865.18 266.94397
1863.8691 309.2522
1857.1604 352.13007
1840.1521 387.16116
1806.1477 409.3934
1820.1461 455.3259
1790.0054 479.24716
1757.4043 471.09183
1733.9058 503.63068
1776.2413 535.70276
1794.7651 580.2989
1825.1924 553.414
1840.5022 583.1297
1823.7302 613.9982
1793.0972 629.0918
1759.021 601.6373
1731.9839 560.9653
1710.1333 600.5603
1669.0347 600.9968
1645.5554 628.3645
1622.4672 601.7493
1612.9629 565.4629
1635.3672 523.57806
1684.5647 530.65656
1658.2583 470.6743
1701.5125 471.0891
1726.4192 438.64075
1684.685 430.5194
1688.5618 386.4312
1659.9456 358.94608
1642.4565 325.3321
1641.7363 291.9884
1680.321 324.52444
1703.7523 349.43848
1730.8336 367.99493
1727.5371 401.95633
1771.5876 433.39548
1769.5188 389.9782
1803.626 362.1049
1761.1594 349.11346
1791.013 316.7184
1826.5865 323.69556
1822.0035 279.69064
1789.6425 263.44568
1763.8533 240.21362
1749.9536 280.84076
1760.0269 309.4736
1723.395 318.51816
1708.9912 283.96838
1680.4084 295.56702
1671.7385 270.20392
1650.4446 258.09485
1632.7935 239.06429
1613.0784 264.0741
1604.8386 286.03818
1599.1025 310.60867
1611.6108 337.2136
1609.3391 369.01294
1631.1531 389.30273
1655.9993 411.15756
1626.6486 434.54593
1590.0552 421.02637
1573.9673 387.95978
1545.5425 414.68475
1517.5642 391.81433
1493.0621 374.24652
1522.1514 341.36832
1543.4204 364.53857
1576.4288 350.0509
1558.883 318.76013
1568.7764 282.7302
1597.5299 233.3623
1614.6582 209.28291
1640.9429 185.23318
1590.6859 174.92088
1545.0271 176.46771
1561.3794 211.25146
1572.9335 248.31215
1537.5161 247.1876
1499.0507 253.10692
1514.8256 215.85759
1473.2781 213.48143
1461.795 248.78876
1490.4745 283.9247
1532.0265 282.65573
1516.645 310.7199
1481.3322 313.34393
1485.732 344.4752
1452.1395 328.9831
1404.7778 368.51666
1422.3684 334.23965
1426.7787 300.4844
1454.9491 284.00302
1419.7937 266.01804
1427.6605 230.73874
1430.2236 198.65302
1391.9211 200.09529
1362.8955 217.22456
1387.7587 252.70644
1350.9119 249.43433
1356.2665 288.85373
1394.9735 304.2383
1368.0034 334.82346
1333.3965 324.96423
1317.7439 353.17072
1334.0117 376.16068
1365.4082 375.04822
1337.6196 408.77066
1339.7399 444.52176
1369.8041 478.8873
1415.3005 474.12866
1454.8802 457.9931
1385.0298 418.88217
1426.7136 406.58066
1453.577 370.95032
1471.8564 407.9579
1505.71 436.29343
1551.1177 459.2031
1604.0061 473.2382
1577.1038 518.5944
1525.8456 506.4106
1488.9633 487.99094
1462.2057 507.4528
1431.9697 521.39575
1394.4402 514.4291
1387.1116 551.3806
1350.1096 571.7868
1385.7983 590.8675
1375.6998 627.06085
1350.7468 652.91534
1336.9246 681.6434
1313.649 668.66345
1297.9326 640.238
1295.062 609.13525
1336.9058 614.5743
1313.7726 572.2626
1347.7847 526.1471
1326.9163 490.92722
1294.7197 487.01288
1275.7914 510.0039
1301.5719 535.4044
1273.041 580.5069
1253.1661 620.6955
1221.2395 639.4256
1183.2051 654.0325
1146.492 637.61896
1135.8796 680.0458
1107.9261 652.3776
1085.4081 616.55707
1124.1732 600.5056
1105.9583 557.6039
1090.6672 514.8596
1137.787 525.3767
1177.113 538.3576
1160.3 574.67993
1182.7196 612.5428
1216.4521 585.72205
1246.5985 560.49475
1261.8755 534.74335
1236.7875 522.0244
1210.069 541.67175
1220.4116 505.7623
1253.6941 488.2121
1222.7959 480.56747
1194.4436 496.6426
1162.2731 489.97974
1146.8452 457.99835
1113.6836 474.15982
1073.4092 467.6694
1028.1179 465.82108
1036.0221 502.51126
1045.3444 535.09076
1068.4834 573.7592
1024.6907 564.26935
1019.4689 608.05963
1048.6912 608.5492
1029.4116 645.4714
1069.3931 654.9368
1056.0527 686.2864
1021.61304 682.0601
1034.7861 714.9815
1025.2242 744.19415
1032.6285 776.6926
1076.6876 775.70557
1071.8064 737.3315
1093.2467 696.1692
1121.0038 726.3053
1115.7048 767.926
1157.0881 776.3214
1166.7944 742.50885
1204.9329 771.11194
1249.7023 777.881
1251.3988 742.5281
1241.7328 710.8641
1205.9358 725.92114
1154.8353 710.4627
1176.498 688.8728
1210.3806 683.80475
1244.9167 674.0548
1277.4927 667.6496
1276.1814 705.9143
1305.8259 707.08813
1287.8055 763.7059
1326.9918 776.31573
1319.1116 740.14056
1340.8137 713.5816
1358.357 745.61804
1375.5388 778.9473
1398.4153 748.9661
1422.6821 771.9545
1461.7655 777.4837
1486.9718 748.9049
1519.103 740.86475
1547.1816 748.4509
1503.2637 777.34924
1536.1926 776.97754
1566.9266 774.4444
1593.9572 778.30176
1594.3804 746.1631
1571.9274 732.0393
1543.2612 715.238
1568.739 697.41046
1596.2969 696.3517
1613.7866 718.96643
1629.6216 743.1627
1619.7258 763.636
1625.4663 783.5442
1652.8376 774.03735
1679.8539 775.1888
1658.5125 738.9461
1688.8783 737.8086
1684.1898 699.48553
1717.3123 689.17487
1747.4602 699.7084
1721.3406 730.0946
1706.7959 771.1127
1732.4935 773.52704
1763.4316 777.7954
1753.7993 746.084
1773.413 726.3353
1785.8992 696.23
1810.0579 733.59973
1797.4508 771.58545
1844.2253 771.4705
1866.6584 732.19293
1910.3564 768.37744
1918.7383 714.6595
1891.1747 666.8649
1934.8911 658.41846
1971.644 703.41797
1978.4409 761.38495
2037.0297 759.905
2099.6694 766.26337
2163.0356 758.4549
2159.8286 687.1571
2112.4453 707.60815
2080.4675 646.6041
2057.546 704.1297
2016.8838 679.1843
1987.5303 641.7066
2033.6973 606.86334
2037.1383 539.08813
2030.6595 496.1693
2031.7024 465.87106
2067.7617 461.73718
2096.7227 438.09708
2068.1794 422.5846
2045.2543 440.17734
2028.5162 419.7279
2032.4672 383.40833
2027.2932 353.97202
2058.9229 343.03897
2052.0903 308.5969
2026.9612 286.07596
2018.5112 322.40744
1983.739 308.28094
1993.2455 354.58594
1972.9045 381.3893
1942.451 351.83267
1941.688 311.44855
1958.2406 269.30798
1989.4578 226.01012
2015.7416 258.08658
2037.9255 230.10344
2076.5767 229.02087
2110.9888 246.89928
2070.3723 271.39148
2115.4253 295.44876
2084.7124 309.11197
2096.149 340.91058
2069.8604 378.11206
2102.73 378.78125
2133.6196 351.3754
2126.0483 411.85233
2145.0664 467.5289
2098.465 483.4002
2065.137 499.5348
2095.2778 528.54
2093.168 577.5943
2127.5254 617.9291
2170.379 630.5336
2162.9001 566.1994
2161.7456 511.87183
2174.018 439.77933
2165.6934 395.95
2173.857 361.5893
2166.1946 325.5566
2163.9253 288.6961
2169.8386 247.61455
2151.804 210.6641
2167.0522 168.81763
2159.816 120.28357
2171.5635 70.11993
2158.7378 24.742521
2101.4102 32.335163
2129.7627 59.403645
2104.6675 93.95766
2090.3477 134.47429
2106.974 183.09758
2062.7158 182.58803
2024.7267 196.40393
1998.2312 176.14903
2028.5186 133.14755
2048.1865 92.24906
2069.254 57.493896
2055.1982 21.493076
2019.5665 45.59757
1970.1974 35.23525
1919.1705 34.43823
1867.9167 48.203552
1804.4927 39.9891
1820.6326 108.51301
1866.7695 153.60323
1908.8115 99.741684
1976.132 91.1784
1953.4055 144.7414
1915.2554 190.03792
1907.2844 244.44016
1906.8694 290.10318
1899.25 336.77438
1891.5593 380.22824
1936.2699 391.7201
1915.4332 422.21167
1879.13 417.80377
1847.562 430.89603
1880.2075 457.35767
1855.3855 486.89532
1820.5361 509.09134
1857.9773 538.85547
1874.6072 571.25604
1910.5787 573.5826
1914.5464 537.6108
1889.6072 538.87885
1880.2012 509.61374
1913.7329 505.32635
1897.6538 481.7455
1920.2933 462.9129
1944.9242 450.1622
1968.4714 437.384
1993.0203 418.24533
2009.8574 444.6053
1985.678 461.06775
2001.4539 479.82074
1995.6024 505.33807
1973.6306 545.25037
1980.7443 521.56757
1967.2112 483.4126
1942.1661 491.36554
1943.7075 520.4148
1937.1699 547.771
1951.1929 568.2424
1995.6384 576.8029
1954.0891 592.36127
1962.5698 618.5238
1919.7976 615.4138
1883.6797 605.941
1859.364 621.26514
1840.7332 657.2469
1862.7263 687.61646
1832.0886 703.0706
1804.4397 673.8633
1762.9004 666.66003
1735.4117 648.86084
1705.9409 653.8618
1677.553 650.6766
1635.0922 656.95123
1657.1094 677.17224
1646.9524 708.5438
1621.1792 681.63574
1587.263 663.1782
1606.426 637.6764
1580.0946 610.9881
1559.5718 636.2433
1532.3408 601.14075
1572.7959 580.79065
1544.232 568.84705
1531.0698 544.6666
1495.4536 533.24896
1464.0559 552.074
1426.579 563.4294
1420.1882 603.6119
1456.112 591.2059
1451.3286 627.6536
1411.7704 636.3896
1450.3259 661.19666
1441.7727 690.9264
1415.6133 669.231
1385.3046 670.31793
1364.5908 693.47565
1386.3674 715.0145
1418.5636 712.78687
1448.3113 743.3124
1465.1024 716.4501
1503.8872 709.9957
1478.647 685.2653
1482.5496 646.5004
1490.0139 609.50104
1499.206 573.45337
1523.1589 634.73895
1508.1338 666.97675
1551.3289 666.07587
1531.7295 686.3416
" />
</g></g></svg>
