<?xml version="1.0" encoding="UTF-8" standalone="no"?>
<!-- Created for Inkscape (http://www.inkscape.org/) -->

<svg
   xmlns:dc="http://purl.org/dc/elements/1.1/"
   xmlns:cc="http://creativecommons.org/ns#"
   xmlns:rdf="http://www.w3.org/1999/02/22-rdf-syntax-ns#"
   xmlns:svg="http://www.w3.org/2000/svg"
   xmlns="http://www.w3.org/2000/svg"
   xmlns:sodipodi="http://sodipodi.sourceforge.net/DTD/sodipodi-0.dtd"
   xmlns:inkscape="http://www.inkscape.org/namespaces/inkscape"
   width="3200"
   height="800"
   id="svg2985"
   version="1.1"
   inkscape:version="0.48.1 r9760">
  <defs
     id="defs2987" />
  <sodipodi:namedview
     id="base"
     pagecolor="#ffffff"
     bordercolor="#666666"
     borderopacity="1.0"
     inkscape:pageopacity="0.0"
     inkscape:pageshadow="2"
     inkscape:zoom="0.35"
     inkscape:cx="1600"
     inkscape:cy="400"
     inkscape:document-units="px"
     inkscape:current-layer="layer1"
     showgrid="false"  />
  <metadata
     id="metadata2990">
    <rdf:RDF>
      <cc:Work
         rdf:about="">
        <dc:format>image/svg+xml</dc:format>
        <dc:type
           rdf:resource="http://purl.org/dc/dcmitype/StillImage" />
        <dc:title />
      </cc:Work>
    </rdf:RDF>
  </metadata>
  <g
     inkscape:label="Layer 1"
     inkscape:groupmode="layer"
     id="layer1"> 
     <g>
<path style="fill:none;stroke:black;stroke-width:2px;stroke-linejoin:round;stroke-linecap:round;" d="M 
1697.1724 297.5916
1699.1216 295.6057
1697.9636 291.9929
1700.26 289.75687
1699.5281 286.23935
1701.5945 282.2583
1704.2417 276.67633
1705.6875 271.60458
1708.3489 266.93277
1710.705 261.944
1715.1713 262.37958
1719.4563 263.13977
1718.7501 259.52396
1715.3324 257.7886
1711.526 256.62277
1713.9872 252.53627
1714.6035 248.14285
1716.7048 243.94043
1718.2458 247.25171
1718.4883 251.56462
1718.8726 255.11703
1722.1948 256.93048
1726.0111 256.061
1725.8481 260.72302
1722.3938 260.68182
1723.3315 264.10608
1727.1251 266.84833
1724.2253 267.12994
1721.0358 267.44333
1719.3096 270.79965
1717.4607 266.43976
1713.2776 266.956
1714.9683 271.14987
1710.2021 272.15167
1712.1637 275.5617
1708.6771 277.66296
1705.8785 281.17
1704.6483 285.01797
1703.1345 288.4422
1706.242 288.25827
1708.4175 289.50967
1709.2966 291.99188
1709.9523 294.378
1706.3679 294.8394
1703.9624 292.1106
1702.3324 295.7276
1705.6434 298.6423
1709.9124 297.00446
1713.522 297.743
1713.365 293.8171
1716.5349 292.60803
1712.2424 289.41998
1709.2365 285.1969
1711.0397 281.709
1714.1742 278.98135
1715.9015 275.62167
1718.9688 275.2454
1721.573 278.05948
1718.8495 280.65768
1715.9116 282.64868
1713.8611 285.65927
1716.4933 288.82047
1719.8878 286.54398
1721.9564 283.1711
1724.9755 281.09793
1728.7777 282.34885
1732.5356 282.65222
1732.9113 286.46732
1738.5177 286.24323
1736.8148 282.01263
1738.904 277.74292
1733.8402 279.19348
1731.1791 277.65778
1730.1555 275.05292
1728.0558 278.35333
1724.8618 277.0857
1722.7272 273.70947
1724.1263 270.60815
1727.635 270.50183
1726.9199 274.2582
1730.1039 272.12244
1731.2988 269.15753
1730.8721 266.09717
1728.6844 263.44824
1729.754 260.05396
1733.8933 262.3387
1735.1943 266.38138
1734.1719 270.17874
1732.8936 273.42773
1735.1045 275.76065
1736.6136 271.9234
1739.1184 274.27347
1744.2537 275.8623
1745.5637 271.9942
1749.0538 271.8058
1752.2994 270.09686
1745.883 267.8799
1741.809 271.6249
1738.5272 268.84915
1741.4082 266.4234
1744.779 263.79034
1742.7855 260.98422
1738.5452 263.33398
1739.1244 259.58542
1735.3425 257.84366
1731.2002 257.41214
1731.1624 254.25957
1727.5957 251.76054
1729.8629 248.1688
1732.8867 250.98961
1735.663 248.26402
1736.7622 242.01506
1734.4014 243.932
1730.8599 244.58232
1725.8038 246.66684
1723.5005 251.9168
1721.6929 248.76236
1721.5337 244.77487
1723.0284 241.27837
1719.7695 240.21063
1722.158 236.46918
1726.2887 237.57977
1726.397 232.8063
1730.8506 235.26578
1726.7109 242.25235
1730.5454 240.0458
1734.6682 238.09723
1735.5684 233.47
1732.8109 230.91435
1729.8936 229.89038
1727.8835 227.25612
1731.7075 224.86801
1729.6776 220.6751
1730.0891 213.96292
1733.5328 218.3789
1737.5266 216.215
1737.9263 220.81218
1735.7178 224.1014
1735.7959 228.39505
1739.6147 229.65692
1739.2113 233.8425
1739.7695 237.0652
1738.7762 239.64499
1740.8237 242.3878
1743.9531 240.50371
1747.6575 240.96191
1743.9445 244.39035
1739.1292 245.86418
1743.2346 248.06549
1747.2566 246.48482
1746.8047 250.0245
1749.3928 252.01814
1748.4452 256.1506
1746.3296 253.92632
1742.9358 252.59665
1739.895 250.17813
1736.7122 253.29446
1739.8455 255.74811
1743.2755 256.7479
1745.7749 258.41443
1748.4037 259.11932
1747.8068 261.3594
1751.5564 260.65857
1754.605 262.25452
1753.5715 258.51996
1751.0767 257.5415
1751.2491 254.7201
1760.8323 247.26668
1766.5758 245.65556
1764.4756 250.76125
1760.5234 252.94276
1762.6902 256.48093
1763.6843 260.03177
1766.8496 254.97789
1769.3627 250.24069
1772.2606 246.30896
1775.9569 242.31915
1775.1626 235.96254
1771.0117 240.49548
1765.8391 239.9278
1762.2694 242.2684
1757.4525 242.83153
1753.0002 239.80385
1752.9668 235.97437
1751.2167 232.51149
1747.9679 236.16182
1743.7839 236.97955
1743.4501 232.80238
1747.1824 230.45718
1743.2373 227.9041
1740.4308 224.63109
1742.169 220.15799
1745.7947 219.88391
1742.1478 215.2327
1746.3638 214.75633
1749.836 216.38188
1752.2471 214.0614
1748.0627 210.18942
1751.5579 210.77614
1754.6948 207.25719
1756.9397 206.86049
1758.686 205.73619
1761.4912 205.49986
1764.2366 206.58206
1762.8619 209.5647
1760.0736 208.70334
1757.5087 209.97125
1754.6882 210.21094
1755.4723 213.11977
1758.0438 214.79758
1760.4313 218.1556
1762.0227 220.58301
1760.159 223.22704
1757.8257 225.28705
1753.6024 224.49313
1756.6562 221.18584
1757.5334 217.83171
1754.2239 217.20529
1752.6371 220.49062
1749.1853 220.98204
1745.7333 224.85396
1749.6367 225.6837
1751.9988 228.94243
1755.806 228.66525
1759.8108 229.33954
1756.6632 233.19127
1758.5513 238.05803
1762.1384 234.73802
1767.7866 235.78703
1771.106 232.04951
1774.2391 229.69403
1774.2509 224.093
1769.9194 223.67694
1767.6783 226.71562
1766.9194 231.14284
1763.4104 229.47992
1763.6398 224.60986
1765.8225 219.96619
1769.5525 218.17137
1772.9547 219.4652
1776.4846 219.27336
1780.0626 220.34511
1779.1467 223.7915
1777.4863 227.17856
1779.5131 231.1381
1782.1306 234.52048
1780.0754 238.58183
1782.0059 242.47215
1780.61 245.1436
1785.5685 245.03374
1785.5747 239.50427
1788.0813 235.34877
1786.2611 230.97371
1782.6268 227.68321
1783.5066 223.6094
1784.8181 220.4006
1782.6603 217.3698
1778.8333 216.12128
1774.8779 214.92818
1770.8846 213.63666
1766.6854 214.88115
1762.4805 216.0333
1759.7986 212.26025
1763.261 212.94362
1766.5137 210.71483
1770.43 209.55577
1767.2445 207.20918
1769.4436 205.09532
1765.1575 203.39075
1761.8785 202.1622
1758.7103 202.90987
1757.2423 199.71973
1759.5808 195.84248
1760.7737 198.96893
1764.0283 199.37585
1766.7523 200.31653
1768.9087 202.28873
1772.6135 202.19537
1775.9061 204.75426
1776.0183 201.65717
1778.9219 200.7068
1776.3345 198.23535
1773.7761 197.76176
1771.3052 195.60562
1770.5159 199.33238
1767.7688 197.19278
1767.7153 193.69225
1770.6544 191.21632
1774.0502 192.90593
1776.9379 194.52422
1779.0159 197.03407
1781.0133 194.54433
1778.1084 190.99028
1774.2582 188.74284
1770.4722 187.11455
1766.5076 190.02956
1764.1492 195.97438
1763.0002 192.74731
1760.5585 190.07088
1762.8252 187.55495
1765.9563 186.0634
1768.6029 183.67148
1771.3578 181.04718
1773.5513 183.9274
1776.4536 184.98714
1778.7185 187.1075
1782.1008 187.94745
1782.3901 191.4014
1785.4421 192.40036
1789.2048 193.00648
1787.2024 195.5831
1788.151 198.49055
1784.1511 196.70062
1781.6147 198.9687
1783.9388 201.37169
1780.582 203.97488
1785.8353 205.23227
1788.8352 208.382
1790.3665 203.14607
1787.5513 201.31496
1792.8086 199.18077
1795.5792 196.07347
1791.283 196.06223
1792.6104 191.8966
1791.3313 186.98653
1788.0802 189.53723
1786.1326 186.6109
1783.4487 183.99292
1779.6946 182.21953
1775.4824 179.70668
1779.4324 177.6876
1784.3799 180.16295
1786.615 176.23816
1783.1125 175.39949
1785.7104 171.00812
1789.653 173.32858
1792.9678 175.21579
1793.4956 169.57181
1790.1029 167.53026
1795.635 164.09776
1791.2118 162.53674
1786.9235 165.07834
1783.566 167.43578
1779.8567 166.63824
1778.1295 169.73781
1780.283 172.74763
1775.4246 174.4272
1770.7141 172.47229
1770.9574 176.68707
1767.4304 179.18655
1764.424 182.0515
1760.8485 183.69519
1758.4578 186.73582
1755.6531 188.45052
1752.3928 187.09998
1751.7693 183.4432
1749.3638 180.65564
1745.8087 179.51062
1747.21 183.71236
1748.5973 186.6226
1749.7373 190.00023
1745.997 190.21954
1746.9355 193.00143
1747.0455 196.1684
1750.0107 198.25533
1751.0667 193.81642
1753.6504 191.29465
1757.9744 192.01927
1755.8789 194.67082
1753.9325 196.8972
1753.593 200.13403
1750.9854 202.40808
1755.0562 203.55893
1751.9921 206.7164
1748.8582 205.3724
1745.2405 205.90018
1743.1101 210.00792
1738.5925 211.3342
1734.1602 211.08278
1731.3683 207.39525
1729.4858 200.43297
1733.3884 197.81178
1732.6525 203.09149
1737.353 205.96075
1741.5353 203.83833
1746.2153 201.03911
1742.674 198.03981
1737.7621 200.17186
1738.1691 195.07112
1731.7024 193.96054
1733.7845 190.2751
1734.2722 185.26808
1736.7598 187.0903
1739.6868 187.20787
1738.6389 190.97794
1742.7997 193.08287
1742.28 188.85803
1745.2782 187.72601
1744.1945 185.46289
1743.7344 182.51636
1741.2633 184.5159
1738.7125 183.33424
1736.6382 181.57008
1738.7195 177.86418
1741.2595 180.09291
1743.5892 176.22868
1743.452 171.72316
1748.2354 171.86394
1749.6204 176.28984
1754.426 174.21724
1753.021 170.06992
1747.8824 166.19453
1754.9702 166.36841
1755.8531 162.05948
1750.044 160.5593
1753.6108 155.56483
1757.7488 152.23009
1760.0509 148.44386
1763.7157 148.11143
1763.3423 151.7882
1760.846 155.23776
1758.6436 158.33803
1765.2821 155.59216
1769.3345 157.3437
1772.164 153.2833
1768.0327 152.29474
1770.989 148.98318
1767.4677 148.06027
1763.4442 144.16139
1767.5679 144.59242
1772.622 145.39981
1774.9811 148.98068
1776.842 152.23051
1775.6611 155.7425
1772.8284 158.11209
1775.1825 160.66849
1771.2843 163.03601
1767.5083 162.46533
1765.2345 159.47319
1761.8123 160.8516
1760.9917 164.26506
1760.5951 168.16893
1759.6686 172.01747
1758.4219 176.09612
1753.8098 179.13354
1755.8552 183.57782
1758.2823 180.32721
1762.1177 178.41986
1765.059 175.3831
1765.4851 171.34381
1765.233 166.25316
1769.2354 167.87054
1773.7014 168.99323
1774.9148 165.32164
1777.8794 163.32048
1781.4985 163.17706
1784.473 161.77293
1787.5548 160.27422
1789.3655 156.71849
1793.5598 153.5065
1796.5476 151.1287
1795.3466 147.27013
1792.6096 142.99054
1788.2654 144.17409
1784.647 146.90508
1790.6316 148.12776
1789.2461 152.34563
1785.1267 151.18448
1784.8892 155.98088
1782.2874 158.79047
1778.8644 159.80002
1779.0444 156.43095
1781.1913 153.29967
1780.0156 148.84116
1781.1337 143.62729
1777.2388 145.09894
1774.8319 141.76129
1777.696 139.37411
1781.6565 138.74654
1785.11 141.08044
1785.2588 135.69308
1779.359 134.80984
1774.3196 136.1039
1771.7437 138.85266
1770.551 142.51703
1767.657 140.69278
1764.617 139.5219
1768.1042 136.59955
1769.3202 132.2838
1774.77 132.0451
1778.9326 129.7661
1782.928 131.7529
1784.8695 126.859856
1787.7632 129.60565
1792.1322 126.75473
1798.5627 125.94203
1804.4614 126.36673
1802.5934 129.94748
1797.727 129.54361
1797.0762 133.10811
1792.4902 131.17657
1789.2302 134.33939
1789.5095 139.14508
1793.4473 135.93626
1795.3344 139.75017
1798.5515 137.45114
1801.8625 135.01389
1806.2654 133.89795
1805.455 138.77118
1809.815 141.18845
1810.7971 136.68636
1814.7388 139.29613
1818.3296 136.52567
1818.0026 131.94814
1814.5367 133.43454
1810.7816 132.13199
1807.9314 129.45706
1809.3639 125.99834
1813.145 127.57161
1816.8322 126.09021
1819.7284 128.495
1823.177 126.77809
1822.7314 130.93639
1822.3472 134.47063
1823.435 138.037
1821.3292 139.77132
1822.914 144.18353
1818.6344 142.03815
1814.9227 144.18143
1811.2201 145.53221
1806.8644 146.90218
1805.2168 143.7567
1801.3651 141.45876
1797.606 143.58597
1800.8834 147.17044
1799.836 152.47278
1793.6409 158.53987
1797.8446 157.54176
1801.9451 158.93527
1805.9037 159.34947
1808.961 158.0962
1807.206 154.71886
1802.9315 154.92567
1803.9531 150.46478
1807.8918 150.75002
1811.3438 149.56155
1812.2607 153.22137
1815.762 149.72507
1818.8209 146.8383
1822.8214 148.82103
1821.3469 152.05457
1822.6589 156.04652
1817.3539 154.25261
1812.2947 156.51816
1815.7461 158.39117
1819.5771 158.93362
1822.897 161.5592
1818.8796 163.73041
1822.5125 166.82782
1821.933 171.41135
1823.1223 174.85808
1822.4357 178.28326
1820.9263 181.38239
1823.3647 184.86581
1819.4628 185.6042
1815.5175 185.55011
1812.5878 187.78264
1809.1051 189.82112
1804.5796 189.19232
1802.1206 184.75745
1805.9537 181.47443
1807.3372 185.70732
1810.8542 182.99867
1811.2606 178.8148
1815.5237 181.5363
1817.2418 178.1777
1817.1858 174.33737
1817.8491 169.53348
1814.9512 166.41353
1814.7638 162.57372
1811.9631 160.59276
1808.9358 162.68013
1810.4447 166.20798
1808.7743 170.8098
1813.2045 170.53444
1811.9791 174.761
1807.2168 176.35023
1803.0945 178.36908
1799.7405 180.7755
1801.0015 173.69904
1804.4575 173.20996
1804.5758 169.61037
1805.4814 166.13074
1804.4629 162.72954
1800.1279 163.08327
1800.4592 167.54922
1797.969 170.08838
1796.3152 173.59473
1799.0865 176.69832
1796.0575 178.64482
1792.6375 179.54135
1789.1589 178.96742
1788.892 183.15302
1793.9093 183.25948
1797.6704 184.23427
1795.3928 188.16272
1799.8987 189.10963
1796.9576 192.32063
1799.8014 195.66844
1802.7952 193.10399
1803.9539 197.39313
1807.4355 193.85439
1812.689 192.62321
1817.2996 190.54213
1822.3125 190.3636
1823.2638 196.11266
1819.3287 195.6451
1815.5217 196.21794
1811.44 196.88376
1808.042 198.48085
1805.4146 201.41243
1801.0372 200.13364
1802.0018 203.24048
1797.7086 204.19008
1797.5295 199.64183
1794.5133 202.49454
1792.6481 206.31879
1793.9937 209.81978
1797.4905 207.86119
1801.5559 205.98013
1800.6423 209.01253
1802.6738 211.5527
1798.4032 212.463
1795.0836 214.10812
1790.9824 213.7065
1787.5544 211.9994
1784.0646 210.16055
1782.0667 207.5483
1777.9731 207.73293
1772.961 206.67638
1774.7422 210.62927
1778.8608 211.66565
1781.5405 213.5956
1784.6127 214.06264
1787.2256 216.42451
1789.0396 219.65285
1791.4744 222.85332
1793.6755 218.11684
1796.3296 221.90096
1798.9901 217.80347
1802.161 215.30867
1806.0319 214.2041
1808.0793 217.56808
1812.2322 217.94128
1810.0957 221.49529
1810.3141 225.32178
1808.6918 228.8562
1812.1187 231.0246
1813.5912 227.65509
1817.538 227.1048
1814.8098 224.38171
1815.5237 221.57898
1815.9998 218.30434
1818.7727 215.81184
1815.0518 214.08904
1811.1492 213.93733
1809.2961 211.14326
1806.7279 209.56992
1804.1321 208.11292
1806.1836 205.34528
1809.2288 203.00342
1812.4569 201.3868
1810.9343 206.61029
1813.3964 209.87114
1816.0465 205.52115
1816.159 200.93802
1819.7855 201.5519
1823.154 201.98666
1821.8733 206.81123
1817.3872 209.28107
1819.2635 212.0873
1823.0502 211.32967
1822.7239 215.7869
1823.5596 220.0301
1819.7971 219.9168
1819.7589 223.78113
1823.537 224.72989
1821.4893 227.37668
1823.6061 230.1892
1823.1125 234.87921
1820.4685 232.91025
1819.4053 230.09993
1816.1741 231.14606
1814.6914 234.56653
1818.222 236.14668
1821.799 238.23558
1823.4282 241.24316
1820.1836 242.55913
1817.4199 240.87589
1814.3022 239.8265
1811.7965 237.46555
1809.6437 234.1144
1805.9788 230.77576
1802.7094 227.52774
1805.8792 224.4156
1804.3046 219.70094
1801.0708 222.6909
1798.4836 225.99667
1794.513 226.85217
1790.1995 227.33061
1786.9011 225.39807
1791.4341 231.47676
1795.4991 231.71184
1798.8833 229.86314
1802.748 232.41675
1798.9839 234.24672
1801.5627 237.43199
1805.8231 236.01196
1808.033 239.91113
1810.814 243.19739
1814.7325 245.0852
1818.198 246.75786
1821.5645 246.0943
1824.157 245.63365
1822.2227 249.84723
1821.8131 253.37473
1823.7258 256.76462
1820.0255 257.71884
1822.8005 260.56647
1822.595 263.75702
1818.8624 261.53427
1815.3861 259.06287
1817.3284 255.17613
1816.4773 250.91301
1811.9664 248.47581
1812.765 254.64043
1807.9644 255.29874
1808.9575 251.1647
1807.0342 246.1113
1804.0154 241.90976
1799.6702 241.1875
1796.2158 238.91484
1794.1239 235.55952
1791.2471 238.9877
1789.1141 242.4366
1792.8673 243.79001
1796.1827 243.08163
1796.073 246.74733
1799.5192 245.38522
1802.3927 246.9367
1804.2546 250.43106
1803.5183 254.63112
1799.8489 252.78069
1798.0685 249.91815
1794.0535 248.88301
1791.2197 248.4751
1789.1458 246.14894
1787.1265 249.83382
1783.5088 248.76825
1781.1924 252.01224
1777.0813 258.24542
1780.0801 255.8737
1785.2988 254.29117
1789.597 252.55075
1792.4528 254.70631
1794.3533 252.05403
1796.6967 255.74762
1799.9547 258.02075
1804.0632 259.2012
1807.7733 260.0903
1811.2781 259.6696
1813.5245 263.0322
1816.5338 264.54993
1819.1407 266.06418
1823.7532 266.8286
1820.9916 268.17877
1816.5951 269.43054
1817.2382 273.30417
1820.5908 271.71878
1823.4541 270.60092
1823.3646 275.1188
1820.0693 276.34448
1823.2324 279.59937
1822.937 283.64938
1823.5145 288.39554
1820.6185 286.78494
1817.2012 289.00235
1812.6332 291.11902
1814.301 286.8557
1817.8472 284.05322
1819.234 280.54297
1816.2562 277.5189
1812.5254 278.09506
1814.0527 282.47137
1809.7249 282.02985
1810.185 286.75287
1808.223 290.5871
1805.8534 293.2147
1803.4673 288.86954
1802.006 284.81372
1806.2634 285.00354
1804.7021 280.5569
1807.5326 278.09586
1809.0508 274.58197
1807.7223 269.89508
1812.8555 272.77893
1812.9664 267.937
1809.8837 265.21832
1805.7926 264.77435
1801.2837 263.32104
1796.9971 261.90405
1794.3705 265.51276
1797.8525 268.49435
1794.1853 270.12793
1790.1891 269.19662
1786.0956 269.77097
1785.1033 266.19415
1788.7354 264.6858
1791.1984 261.6105
1793.7239 258.4026
1789.1029 257.3332
1785.2499 259.02222
1783.3386 261.8163
1781.5823 264.92453
1778.3901 262.8112
1774.3738 261.51584
1771.5059 264.37003
1769.2886 267.28424
1773.1246 269.14594
1774.7966 266.04733
1777.0435 269.5442
1779.1562 267.27908
1782.4701 269.096
1781.4458 272.00354
1781.6974 275.58514
1785.1843 276.96793
1787.1761 273.10968
1789.0679 276.91022
1791.8867 280.13422
1795.4985 279.8275
1793.1135 276.6377
1792.6453 273.36096
1797.1997 276.49805
1799.102 272.8647
1802.2521 268.38654
1804.2252 273.4858
1801.6962 276.9079
1800.7922 280.48425
1798.4263 282.18698
1795.2562 283.50082
1798.1682 285.8925
1798.3422 288.98532
1796.9171 292.05643
1801.2332 292.56744
1803.4988 296.18552
1808.1409 297.08734
1811.7441 295.6277
1815.6484 294.0283
1819.4141 291.53815
1822.9092 292.15314
1823.3748 295.39468
1819.5044 295.599
1816.8599 298.52124
1820.0125 300.95483
1822.8893 298.87054
1823.1687 303.4724
1823.0358 308.48187
1819.9648 305.32944
1816.2361 308.1538
1819.5598 309.77698
1818.9365 312.84503
1823.2748 313.00076
1822.2052 316.82388
1818.2134 316.25586
1817.8733 320.23672
1822.8943 320.28
1822.2981 324.5104
1817.7904 325.9934
1813.922 323.3689
1809.8037 321.9403
1806.4703 324.8106
1804.92 328.44156
1801.5286 329.90326
1797.9506 331.01324
1794.6243 328.09265
1791.1755 324.88843
1793.1194 320.38794
1789.4797 318.8199
1787.1747 315.267
1789.577 311.9506
1783.9636 311.47607
1786.5033 309.1035
1789.0146 306.05795
1792.2161 303.40256
1795.7373 305.67218
1796.9679 309.17087
1800.5509 310.93985
1794.3315 311.77267
1792.0453 308.4948
1792.5942 315.3585
1797.8776 314.00064
1796.4198 317.72333
1797.1715 322.34363
1799.4966 325.9533
1802.4719 322.42807
1800.5624 318.0198
1802.6133 313.5403
1804.259 316.13953
1805.9341 319.61078
1808.4177 315.53305
1812.7551 317.79065
1815.3278 313.57742
1812.2727 312.2885
1809.2146 310.5718
1805.0933 310.84552
1806.8687 307.64413
1808.2556 304.66025
1812.3422 306.8943
1815.7256 303.36917
1813.1521 299.77765
1810.2913 301.8191
1805.606 300.9786
1803.7367 305.46805
1800.3627 307.209
1800.248 303.02707
1795.4863 301.27335
1798.1724 298.98175
1801.9724 299.2224
1798.1934 295.46472
1794.114 295.9175
1793.3445 291.20364
1794.0997 287.30338
1791.7119 284.11755
1788.7583 281.3942
1785.1613 281.74817
1781.8744 280.84027
1778.6145 278.65427
1771.7407 278.45685
1775.3134 279.68622
1778.2036 284.453
1782.4679 286.91098
1786.3691 289.6494
1787.0798 285.22656
1790.1864 288.0398
1789.7205 292.85315
1783.5441 293.2056
1787.0458 296.1191
1791.2461 297.94275
1788.6879 300.95044
1783.5869 298.85916
1782.1421 303.06143
1785.711 304.0663
1782.4884 307.72345
1778.2128 308.46255
1778.4434 304.80676
1773.9619 307.0985
1773.6566 301.8745
1778.1155 300.52084
1778.3385 296.06766
1779.3868 291.47092
1776.273 289.28757
1772.2355 292.72968
1772.1841 297.2872
1766.5624 293.50757
1760.9258 293.87985
1759.8281 290.1032
1757.7295 286.67868
1751.401 287.06015
1754.1396 284.4201
1756.9409 282.0085
1752.9645 280.125
1755.4875 277.69827
1758.3494 276.23355
1759.5295 280.07767
1761.073 283.91196
1763.7366 288.49243
1768.4663 288.09546
1772.7977 287.5331
1772.3951 283.5064
1765.326 284.38467
1768.2134 281.57574
1768.1814 276.58286
1764.3385 275.6032
1764.1123 279.92743
1761.1766 277.39633
1760.4384 273.68463
1756.4854 271.5223
1756.4305 274.1375
1753.0472 274.09088
1750.4395 276.3005
1748.1221 278.48456
1744.9264 279.9212
1749.5294 282.5831
1747.1404 286.7331
1744.1503 284.0136
1741.0815 281.08224
1743.1709 288.89212
1739.6392 291.66476
1734.9995 290.6656
1730.4194 291.4264
1728.5151 287.45233
1724.9705 285.91428
1725.0679 291.0037
1720.7365 291.36203
1718.3757 295.84384
1717.8795 299.32578
1714.804 301.3029
1708.551 300.0873
1710.7786 302.1253
1710.5557 306.38794
1709.4841 310.61932
1704.4071 310.24005
1699.7025 311.7916
1696.569 308.8105
1701.1129 306.26712
1705.9603 304.7235
1702.9958 300.8272
1699.6223 301.0977
1697.222 303.82785
1693.942 302.4795
1693.605 305.95795
1690.0175 307.0024
1691.6346 309.76627
1686.8943 311.81427
1685.322 316.82993
1680.3112 319.4687
1685.2317 322.3854
1684.1758 327.63443
1679.9353 325.06693
1675.1206 324.12476
1669.9482 325.80957
1672.1909 331.21268
1678.3423 329.95493
1678.0933 334.43652
1683.5635 336.75873
1684.0634 332.66135
1688.4983 330.6346
1689.7046 326.07993
1690.443 320.95126
1690.9128 316.564
1693.0557 312.71277
1696.1891 315.4303
1696.5342 319.76416
1698.4524 323.70267
1694.2185 324.35767
1694.4852 329.25894
1691.6858 333.5316
1688.1903 337.69687
1691.1918 340.78
1694.4302 343.06546
1678.8223 366.12817
1671.0356 359.0042
1663.648 350.0205
1658.0426 345.00662
1665.0359 329.2626
1656.7683 332.00558
1635.7933 327.2282
1625.4622 322.90875
1625.4445 351.71924
1634.1498 355.14508
1619.9563 371.09988
1621.7095 374.28387
1620.7914 378.76846
1618.8427 375.13193
1615.9431 370.66644
1618.1987 368.4724
1615.535 366.45853
1611.2393 367.8326
1604.1898 372.3282
1604.614 365.43008
1608.373 364.2681
1613.2041 363.43488
1610.0598 359.93832
1605.8033 356.4374
1616.2465 349.86206
1609.0817 347.21927
1602.353 345.1856
1596.4144 344.33746
1591.834 344.28235
1588.161 346.3335
1585.3915 349.2824
1581.8545 352.22995
1577.2177 355.90845
1571.1702 360.22147
1563.979 368.27682
1579.6069 384.6054
1603.828 380.82062
1605.5264 389.7552
1608.537 399.8687
1607.7448 408.7014
1620.0248 433.8586
1615.5637 441.70892
1606.8604 436.44702
1608.6794 442.1402
1611.2104 447.87222
1614.74 459.0189
1602.7671 461.494
1593.3667 459.45297
1587.2871 455.4611
1583.2378 451.46744
1579.7961 447.39102
1578.4031 449.2271
1575.0828 445.7091
1571.5409 443.45386
1568.0571 441.81897
1566.3567 439.1786
1581.1122 422.2819
1563.2332 436.86438
1534.0159 433.0792
1531.3407 428.299
1536.3047 441.971
1526.3264 449.5904
1523.5967 448.19446
1525.4882 445.0713
1525.116 440.4905
1520.0333 439.3949
1520.0897 444.06912
1519.7241 448.3181
1522.5164 452.23593
1521.1807 456.535
1525.2823 457.17316
1526.2866 460.98026
1527.9591 464.73712
1521.9688 462.35245
1511.824 462.7116
1509.7965 458.7036
1509.8713 454.08618
1509.5488 450.25412
1509.8971 445.3996
1510.4794 440.57108
1510.7777 435.01062
1508.2445 431.31906
1510.4192 428.40714
1506.6869 425.21005
1509.8383 422.89236
1520.722 423.84518
1521.4451 428.8247
1518.3127 431.0634
1517.612 435.5189
1521.7294 434.61255
1525.082 431.46906
1525.9082 426.4692
1524.4569 420.8101
1520.099 384.43185
1509.7106 382.08365
1505.5193 377.51755
1508.8933 375.39346
1509.7239 369.96255
1505.7507 370.44446
1502.1832 373.28613
1503.0787 366.514
1501.1292 361.23648
1508.7241 364.6427
1509.4037 359.25363
1505.1886 360.63803
1501.7499 355.92368
1503.9514 351.4291
1503.0253 347.18933
1504.6821 343.37885
1508.7059 342.64227
1511.4286 346.105
1507.2811 347.80984
1506.1069 355.58768
1509.488 352.41116
1519.4191 351.5298
1524.8505 349.99277
1523.4808 356.01395
1518.6763 359.11063
1523.8756 361.39935
1523.427 366.2479
1518.1947 365.41315
1518.5957 370.60602
1518.8066 375.32657
1520.2782 379.72296
1524.4354 383.4531
1525.7704 378.8273
1524.112 373.99213
1533.092 371.22693
1535.6256 359.3125
1534.6481 343.23013
1531.8518 331.59656
1528.2554 336.05582
1524.5372 340.6553
1522.1735 345.5901
1513.2797 339.32172
1509.252 338.19977
1515.9403 333.43494
1515.762 306.66507
1524.182 309.77512
1541.1979 308.53918
1584.9436 312.0677
1533.1177 288.32376
1519.6553 289.4205
1467.6074 306.2998
1452.339 308.91647
1438.4167 314.31418
1425.5964 330.29483
1409.9197 348.22556
1415.8235 356.49866
1418.5216 362.70642
1417.8936 368.91547
1414.7931 371.45108
1416.3003 374.38498
1419.9713 373.87762
1418.1223 377.03403
1418.6223 381.32056
1416.947 386.05975
1413.4027 390.65475
1420.4888 391.17395
1417.0028 397.24677
1418.6157 403.85947
1416.7954 408.5932
1414.999 412.65906
1407.9525 411.01096
1402.2562 414.45514
1395.76 417.98898
1399.9325 419.06485
1401.453 423.59937
1405.6125 427.24753
1400.5936 432.09982
1400.485 428.235
1393.9296 423.8446
1388.8871 418.81375
1391.6342 413.06567
1396.7759 413.0345
1394.6562 407.94446
1399.7306 409.39236
1403.4049 407.30078
1407.1818 404.7435
1411.9291 404.7936
1405.4357 400.8356
1410.8132 396.78464
1405.655 396.32742
1402.99 391.3511
1399.1462 386.50552
1404.09 384.62973
1408.0953 389.5881
1411.4255 386.16013
1412.431 382.07318
1415.205 378.9739
1412.2129 376.22427
1407.7639 379.66138
1401.9008 378.93292
1399.62 374.96127
1410.5641 371.43176
1412.5472 367.119
1411.6901 362.30627
1406.756 368.552
1397.0842 360.80386
1389.5844 372.49185
1395.0703 382.21948
1389.4747 386.9012
1393.8579 393.2158
1398.6942 393.62665
1399.6287 398.78027
1398.7583 403.67093
1393.4507 402.95123
1388.1614 398.95584
1387.973 393.18652
1382.2073 395.73935
1383.5662 403.49896
1388.7004 405.04764
1386.4266 409.20142
1387.2257 414.34674
1382.167 416.1855
1385.1891 424.2173
1387.6122 431.2884
1397.6575 436.97275
1392.4231 444.46637
1398.2833 454.8923
1410.7361 458.47665
1411.4161 465.13065
1413.9988 471.88113
1420.8124 480.54114
1421.8639 490.68994
1429.9158 490.6554
1433.6321 499.19305
1441.9451 494.306
1443.5669 502.02625
1449.2751 505.02127
1457.0942 506.8835
1463.8378 503.24908
1452.9918 497.87405
1444.3904 485.85623
1437.1152 487.07867
1428.6223 481.7102
1423.1162 474.28195
1418.6943 469.81522
1417.0616 462.4633
1412.6376 452.70422
1412.1609 446.81097
1405.5413 445.5838
1408.3282 439.9202
1409.5942 434.04453
1414.8428 436.29337
1415.6215 431.6301
1411.1743 428.54102
1412.319 423.77084
1408.7455 421.5528
1404.999 419.47595
1408.3507 416.2766
1414.2393 417.902
1416.139 426.6187
1417.4927 422.15216
1504.4896 429.92776
1504.3597 434.71765
1507.2836 437.4696
1503.4877 440.1771
1506.8245 442.56915
1503.4335 445.3939
1506.7404 448.3349
1503.1252 450.0309
1504.903 453.1442
1505.3442 456.87878
1505.7019 462.33557
1511.0898 466.18515
1509.1041 469.12912
1514.1857 472.65182
1526.4027 468.29535
1543.3083 505.35434
1528.6704 502.40515
1517.7927 504.4814
1516.1045 510.84805
1511.6643 513.87604
1509.5658 505.4768
1501.0333 507.08252
1496.8738 509.87616
1494.3672 506.46695
1485.7539 506.26355
1472.3171 509.44202
1467.1061 507.8047
1478.4391 510.6322
1485.6602 512.7177
1492.269 513.6339
1499.7778 512.1759
1506.4089 508.38873
1507.8777 516.6338
1506.7079 522.7183
1515.8488 528.38403
1542.4629 529.06934
1576.7448 519.0897
1582.0046 500.0737
1650.2356 479.33914
1664.9896 477.88428
1676.0398 478.96643
1681.9978 479.2864
1687.3584 480.0572
1693.17 481.00073
1691.4175 426.90704
1694.3263 415.12646
1705.8088 415.3277
1701.936 406.81958
1694.7634 405.83417
1695.8047 399.2669
1693.5154 393.24847
1692.5762 387.18185
1689.5222 381.25787
1685.0979 374.86514
1705.2012 349.37357
1702.184 347.19043
1697.9279 345.9291
1698.6627 342.97836
1697.3785 339.5105
1694.4355 336.89163
1697.9062 333.74734
1698.6744 328.8233
1701.7423 326.20236
1705.9849 326.6789
1710.3048 328.8689
1713.3494 331.8889
1717.3452 333.82755
1720.9171 332.607
1718.3108 330.35092
1714.1444 325.76834
1710.4495 323.8872
1706.4176 321.2506
1702.4243 321.70905
1701.3296 316.66977
1706.2959 315.5554
1710.8174 319.32703
1712.234 315.5674
1714.8884 312.59454
1714.4253 304.86203
1716.2257 308.48227
1719.8374 312.7144
1718.6028 317.54434
1723.7578 317.24695
1727.675 314.80795
1724.6211 311.86707
1721.968 307.76276
1726.424 305.56363
1729.3507 309.55304
1733.6085 306.36246
1735.2966 301.13733
1730.5021 302.27063
1726.232 300.19873
1722.1045 301.5758
1718.8206 304.13336
1722.8192 296.11972
1727.488 295.64948
1731.6726 296.64334
1735.8392 295.2922
1738.701 298.27322
1742.0796 296.15067
1742.1927 301.19797
1746.9716 299.1321
1745.3052 293.99875
1748.7979 290.94128
1754.4932 290.4217
1755.2498 294.7478
1750.3313 295.3089
1747.383 303.19824
1747.6917 307.01282
1747.4656 310.5244
1743.3026 310.01562
1743.616 305.66855
1739.0166 304.9829
1738.0671 309.41348
1734.0818 311.50067
1731.5695 314.38104
1729.895 318.1144
1728.8866 321.0936
1730.876 323.86447
1734.2245 324.26205
1733.784 320.64444
1734.629 317.18863
1738.8221 318.64413
1737.4761 314.57968
1740.8147 313.2035
1743.783 315.74554
1743.011 320.08838
1738.1008 322.91385
1739.1066 327.55707
1735.546 327.49667
1731.6703 331.16614
1730.9316 327.56097
1725.9357 327.79935
1727.022 324.76108
1724.8512 321.43088
1720.6671 322.76443
1715.7598 321.20984
1717.0977 327.20496
1721.6658 327.08963
1724.006 331.09067
1727.8213 331.75864
1733.2194 335.8477
1735.0215 332.1193
1737.9125 331.94955
1741.1819 331.97983
1742.6082 329.0423
1742.5693 324.1626
1745.9335 326.8601
1748.6761 329.98578
1753.2112 331.27438
1758.7821 330.2828
1756.9335 335.00043
1761.8638 336.09573
1761.1045 340.60977
1756.6505 340.54868
1752.6923 337.6585
1749.2 334.91693
1745.042 333.11383
1747.7449 339.36166
1747.2251 343.4201
1744.2075 346.37405
1742.9227 350.21213
1746.5314 351.69263
1746.4849 355.44977
1742.8888 355.51096
1740.1621 358.0247
1739.206 352.495
1738.4705 347.19485
1738.6572 342.02942
1742.6063 342.2323
1743.6807 337.729
1740.6328 335.347
1737.8016 337.28012
1734.8743 340.16385
1733.5122 344.2996
1731.7239 347.80154
1733.9929 351.66315
1735.1892 355.8499
1735.3257 360.3283
1732.7063 364.14066
1730.3047 359.35632
1728.4082 355.2272
1727.7997 350.54556
1725.012 346.69373
1727.2678 343.358
1730.3208 340.2188
1728.9484 335.66736
1725.9058 338.10495
1723.644 335.13806
1720.0455 337.02164
1723.0376 340.65012
1720.4106 343.1692
1718.9653 346.18204
1722.066 349.6103
1723.1458 354.05887
1718.3899 351.31586
1715.2894 349.61737
1713.8896 344.7374
1708.2654 340.0933
1713.426 340.88843
1717.799 340.38037
1715.2847 336.7295
1711.386 336.81067
1708.3052 334.6864
1706.3108 331.3914
1702.24 330.82486
1703.4287 335.25378
1701.8386 338.57498
1701.8397 343.08618
1705.2252 342.6885
1708.3044 345.5546
1711.8134 348.34164
1708.4556 350.26074
1710.1292 353.0486
1713.246 353.28973
1715.3838 355.85977
1718.7136 356.80783
1722.0005 359.21225
1725.2645 361.58252
1728.6057 365.21805
1733.8031 368.6432
1737.9902 371.1776
1740.3313 368.38794
1737.1171 365.50073
1739.5499 361.7799
1741.458 364.88593
1744.3501 362.40402
1746.0671 359.60852
1749.8667 359.15604
1753.3724 356.88593
1750.0829 354.1955
1753.0992 351.45673
1748.5853 348.93686
1750.7065 346.30518
1752.226 342.43997
1754.49 347.16965
1757.9092 345.68118
1761.4194 344.82837
1762.5751 348.50723
1764.8486 343.58884
1766.5127 339.33472
1768.1084 335.189
1770.4841 330.88052
1769.0166 326.45807
1767.3834 322.97946
1763.6519 326.9006
1764.2933 331.6598
1759.6814 325.08627
1755.3284 325.83194
1751.6404 324.9447
1748.5066 322.5931
1748.1644 318.84732
1747.5435 314.2665
1757.1865 312.9516
1757.7096 306.51663
1762.7684 304.1636
1763.4915 310.25006
1761.2471 315.34238
1771.5961 319.70975
1773.1633 313.37476
1776.3821 312.1515
1780.13 311.71713
1783.5912 314.6328
1779.9348 315.5268
1776.6798 317.51602
1775.719 321.85867
1774.4513 326.55832
1775.6437 332.9237
1773.5913 337.40198
1778.7325 341.10193
1783.862 340.70718
1786.2362 335.1561
1780.8976 335.02563
1779.8895 328.97223
1780.3466 323.3204
1782.5232 318.69867
1786.1609 320.92194
1785.4652 325.0284
1785.8865 329.5348
1790.8479 331.59555
1790.4951 337.66113
1789.6686 342.32727
1791.7375 346.33997
1788.602 350.25638
1784.6732 346.21045
1779.4174 348.0119
1775.2659 350.59073
1778.9039 354.54654
1774.7767 358.57578
1773.9718 354.70364
1770.1307 351.90622
1772.261 347.27878
1775.2769 343.8943
1771.3323 341.3119
1768.7202 343.9709
1767.341 347.67514
1765.9513 351.323
1765.946 355.25177
1762.2751 352.57687
1758.1294 350.46744
1756.46 354.06458
1760.311 355.10107
1761.6301 358.30795
1761.462 362.35504
1764.7631 365.03604
1767.9503 362.14224
1765.46 359.21484
1770.0654 357.27704
1772.4042 361.79993
1770.9697 365.55276
1768.6683 368.2587
1773.9531 369.37326
1773.8345 375.14413
1771.2919 373.07132
1768.4121 372.29385
1765.3978 371.23038
1763.2947 368.99716
1760.3 366.63412
1757.011 368.233
1756.109 364.58026
1757.374 361.0726
1757.2107 357.8008
1753.1321 361.71445
1750.4484 364.57156
1747.3761 365.8107
1744.133 367.2339
1746.7646 369.80313
1743.2335 371.18735
1741.5402 373.76474
1744.9353 375.75064
1747.0923 374.31934
1749.0483 372.27014
1751.1216 369.93597
1753.8583 368.65787
1755.4723 373.5099
1751.8365 375.04138
1749.5693 377.9672
1754.3291 379.2185
1758.2654 376.8959
1759.3224 371.5277
1762.1611 374.28152
1766.0035 375.70007
1769.7522 377.6369
1771.7971 380.65875
1771.913 384.07574
1772.2991 387.2869
1775.4183 383.17535
1779.2966 383.23682
1778.6241 379.1661
1775.0549 378.6748
1776.9403 373.78305
1781.056 375.87067
1779.5767 371.8683
1777.7063 367.9731
1775.8911 364.35358
1778.1692 359.92032
1780.7363 361.88565
1782.9744 357.15253
1783.621 352.20886
1784.5496 360.53925
1787.4078 363.26535
1788.4746 359.4253
1788.5393 355.3136
1793.5857 353.14792
1793.2527 358.34882
1796.4368 361.53387
1794.5668 364.96356
1791.2528 362.85413
1791.4672 367.08804
1796.144 368.2176
1798.7534 365.4611
1802.1136 365.19968
1806.2638 365.2809
1804.7241 361.77914
1808.6438 361.8152
1811.2064 364.17004
1814.6812 364.2138
1816.5872 360.92993
1812.5148 358.5029
1808.4247 356.86777
1803.5542 357.94522
1800.5718 361.13153
1798.2422 356.97528
1799.4852 352.67368
1804.2972 353.8733
1801.9326 348.1141
1796.0073 348.9959
1797.3567 344.65582
1795.568 340.21875
1795.226 334.6792
1799.3394 337.08844
1802.1986 333.81213
1802.7957 338.5221
1801.6772 342.73782
1816.3844 343.27618
1819.5632 340.05435
1816.9684 337.0642
1814.2585 330.1476
1810.2177 328.4082
1818.1465 331.654
1822.7532 329.53232
1821.5663 334.05814
1822.9633 336.8528
1823.5659 340.28787
1821.7078 342.61435
1823.5282 344.51572
1824.1918 347.553
1821.5132 347.1209
1819.5198 344.66177
1818.2816 347.73712
1815.4803 348.75928
1817.7765 351.48984
1815.4988 354.22595
1817.2917 357.715
1819.4406 355.11404
1820.7366 352.01575
1821.731 349.67776
1824.0945 351.32108
1823.1068 354.537
1822.6355 358.0463
1820.6658 360.90225
1823.5413 362.65585
1822.5308 366.30734
1818.7606 364.4108
1818.2205 368.04633
1822.8558 369.4601
1822.5862 372.68582
1818.546 372.3383
1814.6655 371.05533
1812.4395 368.30902
1808.5813 368.38507
1809.5537 373.0728
1812.9171 375.31516
1816.788 376.34082
1822.4062 376.3965
1822.8458 380.58368
1819.2008 379.48083
1818.1445 383.34924
1822.4037 384.3011
1823.1589 387.95343
1819.3849 386.90402
1814.5273 385.291
1814.8895 381.0856
1811.7852 380.2094
1809.3054 378.1718
1806.0974 377.51495
1802.4062 376.47348
1805.0403 374.13547
1805.6309 371.20303
1804.3525 368.19147
1801.3262 369.49908
1800.7012 373.2767
1798.0546 370.62866
1796.34 373.8308
1793.0365 370.7575
1788.7301 372.9633
1788.5271 370.0016
1787.863 367.1275
1785.5806 365.78323
1783.4453 364.1506
1780.4131 365.54202
1781.2915 369.36142
1784.1664 368.49826
1784.4338 372.67615
1788.2773 376.46735
1784.7324 377.6864
1782.582 380.97787
1782.3865 385.56314
1779.9678 387.99985
1777.041 386.31183
1774.5269 388.73145
1776.9929 390.1033
1779.6398 391.52203
1782.0483 391.06583
1783.8434 393.7213
1784.7212 390.72577
1784.7681 388.32144
1788.8293 387.83377
1786.4427 385.88702
1786.0017 383.01868
1788.4452 380.52203
1790.9509 384.51337
1792.4409 380.633
1791.9908 374.70197
1794.0234 377.1185
1799.1394 377.48474
1796.5096 379.42004
1797.3986 382.61313
1795.0835 385.68735
1792.7834 388.5942
1791.5709 392.53445
1790.096 390.40622
1787.5367 391.69485
1786.7986 394.77655
1789.6451 395.3801
1792.2872 396.79315
1795.3137 398.20694
1794.084 394.09634
1797.2534 393.91278
1795.6406 390.82523
1798.285 388.6364
1802.7468 388.70596
1800.3302 385.13443
1802.1838 380.74445
1804.7275 385.2245
1806.4535 381.7815
1809.7982 384.40598
1811.3391 388.13293
1807.4396 389.07257
1804.7864 392.1507
1805.618 395.76477
1802.0681 396.8135
1800.5405 392.41537
1798.3444 396.4407
1798.6287 399.38126
1800.4868 401.2182
1804.2015 401.3916
1808.6903 404.19208
1808.1638 399.7453
1809.542 396.06024
1810.485 392.19293
1813.3956 395.71408
1814.6938 399.01492
1812.4858 402.2068
1814.4049 406.28925
1817.9877 402.17535
1818.9102 397.36108
1817.429 394.1848
1814.6431 392.0474
1814.8564 388.73608
1817.8206 389.6312
1820.2631 391.75946
1823.4127 391.70105
1822.6675 395.599
1822.5916 399.80017
1822.2518 403.86075
1823.3436 407.96637
1822.3461 412.27213
1822.9336 416.6534
1818.9576 417.84375
1814.6674 418.6235
1818.3743 412.86343
1818.7369 407.83374
1814.8875 413.84677
1811.159 414.43863
1809.9905 417.67432
1805.995 417.40326
1807.4814 421.09744
1804.1635 423.323
1804.1451 428.1445
1807.78 426.73642
1808.0454 431.67596
1811.1885 430.15155
1816.0488 427.44324
1819.0392 423.28094
1822.717 421.27106
1822.886 426.25613
1819.9714 428.36795
1818.2349 432.96024
1814.5591 431.42218
1814.0354 435.6279
1811.262 440.191
1808.8671 436.50443
1804.0844 438.14725
1807.3013 443.59207
1812.898 445.98508
1817.3888 438.08002
1820.8796 436.898
1823.6547 439.7773
1821.1455 442.2894
1822.5157 445.31213
1822.2269 448.82346
1817.5854 447.7911
1818.9746 452.18304
1814.8811 452.67657
1811.0112 454.78857
1810.4475 449.67615
1805.3147 449.66315
1806.5144 453.9698
1804.2954 457.59393
1804.9773 462.89905
1808.7205 465.43076
1813.05 466.25134
1815.696 469.7238
1817.566 465.86575
1817.4617 461.56937
1817.6582 457.06992
1821.7552 455.94806
1822.5264 459.3497
1821.861 462.8176
1822.9231 466.20636
1823.1064 474.4023
1821.4224 476.16052
1823.5481 477.41708
1822.3507 488.14642
1817.4797 489.49545
1822.2987 492.0228
1823.1394 496.4773
1821.9675 500.215
1818.2584 502.3268
1822.619 505.30008
1821.612 510.271
1817.4117 507.21292
1815.5393 511.7289
1818.2544 515.4879
1822.501 514.4481
1822.8457 518.4563
1814.1923 517.1458
1811.9043 514.5109
1813.5988 520.89734
1809.745 520.7848
1811.1117 526.1238
1815.3594 524.1872
1818.4397 520.31915
1822.4838 522.4083
1819.2727 525.74225
1823.2634 526.4196
1822.4104 530.92865
1822.2953 536.3927
1818.415 533.2192
1816.0051 529.05817
1810.6404 531.32904
1813.6403 534.02203
1816.5258 537.46027
1818.4846 540.60443
1823.4159 540.94366
1820.6232 543.70337
1816.5647 544.43396
1819.617 547.60535
1822.9937 546.44836
1823.2627 550.8427
1820.4121 552.5976
1823.1957 555.5907
1822.6183 560.6133
1820.0555 557.3498
1817.0138 555.4003
1814.4666 558.1558
1817.6572 560.6555
1819.6455 564.68176
1823.175 564.9902
1822.6499 569.41046
1815.9563 566.12537
1814.1866 562.87396
1811.7578 559.86896
1809.6577 562.24866
1806.5964 562.8041
1803.1345 562.12244
1805.3606 559.0344
1808.8652 557.4945
1812.094 555.1777
1814.8232 552.5306
1817.8269 550.99304
1815.5879 548.3528
1811.9359 547.3544
1812.8818 544.2171
1813.0752 540.8061
1810.6566 537.54297
1806.6188 535.7526
1806.7432 529.2537
1804.437 532.84924
1800.7479 534.14215
1801.6196 529.8634
1802.4042 525.93823
1806.6082 524.14124
1800.6182 522.28876
1798.9437 518.1492
1796.1555 520.466
1797.1467 524.43805
1793.1619 524.5217
1792.3387 520.3472
1794.7006 516.8022
1792.7523 514.16504
1790.1508 513.2092
1789.8549 517.4408
1787.5966 515.229
1784.8903 513.0222
1782.7552 509.98785
1780.1965 512.5346
1778.6587 508.87906
1775.6484 506.03253
1776.7336 502.39062
1773.1823 499.9318
1772.4468 495.00983
1769.0941 497.93015
1770.4878 505.1715
1772.4946 508.49908
1773.7233 511.6702
1776.2396 513.654
1778.552 516.0907
1776.9852 518.71747
1773.2338 518.12164
1770.5015 515.1274
1768.2817 510.59317
1764.7244 514.30725
1765.7825 518.6526
1769.1859 519.9023
1771.1033 523.004
1774.1887 525.629
1774.8267 521.81665
1778.773 522.039
1778.0253 525.13116
1778.366 528.29083
1778.0092 532.07166
1773.8284 534.0817
1769.3657 535.20685
1770.3256 530.9992
1774.3698 529.4096
1769.6855 527.0314
1766.429 523.8046
1764.2408 527.76843
1765.991 531.568
1761.391 532.14355
1757.8794 534.7777
1757.1179 538.9115
1752.0101 538.87866
1752.6559 534.6933
1755.5621 531.23834
1755.139 526.6443
1759.2305 527.81226
1761.8043 523.48413
1757.2556 521.743
1754.9592 517.43994
1761.1196 518.32965
1759.0199 513.81525
1763.1497 510.04135
1764.8635 505.73187
1768.0221 502.06134
1763.1729 500.9602
1764.9518 497.84167
1760.5061 494.99036
1756.8591 496.138
1758.6858 499.60144
1760.2255 503.57724
1759.4613 507.41818
1756.551 509.93863
1753.0049 508.0212
1749.145 510.6292
1753.0084 513.22845
1750.3181 519.8411
1751.9893 523.7632
1746.9987 526.3265
1750.6809 529.7072
1747.7623 533.95795
1747.7505 540.2516
1748.6782 545.70026
1754.1572 543.38
1753.53 548.35486
1757.4033 552.0149
1755.9462 556.6287
1761.4313 555.74335
1759.592 559.80566
1755.5012 561.36365
1750.4904 562.80585
1746.9502 569.9507
1750.7114 567.9546
1753.4875 565.45276
1756.8464 565.289
1759.8372 564.45105
1762.5444 562.91223
1764.0728 559.95123
1766.6077 558.1438
1766.4849 553.8695
1766.1382 548.31036
1762.3474 551.04974
1759.6251 546.8135
1760.3027 542.3162
1762.0637 537.6973
1765.6466 536.74536
1770.7083 539.3316
1765.5288 542.79584
1770.2351 544.87164
1774.4348 546.13525
1775.0504 540.8149
1778.6924 544.0872
1782.7354 545.90155
1785.7166 543.256
1784.7705 539.9075
1780.4243 539.90594
1777.1031 536.56555
1781.3296 534.8439
1785.1533 536.6318
1786.8245 533.8786
1793.0023 536.53284
1790.319 534.27313
1788.664 530.431
1784.3817 531.5184
1781.5259 529.99194
1781.8696 525.85376
1785.3064 527.60333
1785.7198 523.8421
1782.6268 522.27094
1781.2787 519.0785
1782.0343 515.42865
1784.7397 516.8315
1785.5916 519.66345
1788.6141 520.87616
1789.3062 523.90497
1789.4609 527.0395
1792.951 529.0509
1797.6882 528.5698
1795.1829 532.0931
1796.8375 535.1771
1799.2242 538.154
1800.8131 543.10645
1802.7766 539.27325
1806.6917 540.53296
1808.7458 543.98596
1804.5579 545.4825
1807.9329 548.62085
1811.8004 550.9537
1808.4536 552.9775
1805.3209 555.3378
1801.543 555.5048
1800.8555 559.07434
1797.0544 558.56177
1797.3496 554.984
1799.7715 551.86945
1804.2831 551.25745
1801.4603 548.1748
1797.9214 547.3071
1796.9829 543.52295
1795.499 539.79395
1793.2043 543.203
1789.7936 539.7497
1789.9185 544.87494
1787.1559 547.9175
1786.621 552.7706
1790.69 550.55646
1793.6569 547.4444
1795.7131 550.8245
1793.4514 553.6831
1792.9911 557.1795
1789.5057 555.557
1785.7031 557.67346
1788.0461 560.7534
1784.4706 563.1035
1787.1329 565.4754
1790.6365 565.2168
1791.3074 560.7449
1794.2821 560.7506
1796.2552 563.36426
1799.1499 562.6901
1801.6316 565.8132
1798.4131 568.5378
1794.1389 565.8098
1794.2443 569.6451
1792.135 572.1221
1797.4695 573.3519
1802.0066 574.56604
1803.2638 570.2197
1806.1554 566.4251
1808.5317 569.5122
1811.2595 566.0591
1813.5555 569.9445
1815.4573 573.6007
1818.2495 569.40674
1819.9958 572.9619
1823.7986 573.85156
1821.7709 576.63275
1823.6099 579.773
1821.2908 582.8705
1823.2173 584.4169
1823.0444 587.41425
1823.2506 590.6602
1820.1185 588.47705
1818.9562 585.81464
1816.1079 589.4267
1818.4724 591.0855
1820.3391 593.0842
1823.1025 594.4073
1823.0795 597.83746
1823.3042 601.4571
1820.5898 600.06793
1819.356 596.3654
1816.2048 593.90424
1811.8396 596.0037
1813.1057 592.44794
1809.9897 591.4005
1806.8992 588.9395
1809.6906 587.5805
1812.791 588.6994
1815.2533 586.1131
1814.9482 582.69727
1818.0593 583.0544
1817.3491 580.0345
1820.4597 579.8794
1818.0088 576.5655
1814.539 578.03705
1811.2275 576.52026
1810.4863 572.8503
1806.6455 573.931
1806.6003 577.4809
1809.4282 580.6252
1812.363 580.9262
1811.7219 584.6709
1807.8611 584.7172
1804.3936 583.22546
1800.595 583.3188
1806.3806 581.0183
1802.9807 579.0792
1799.118 579.0161
1795.6307 577.11505
1792.8762 578.81757
1790.2706 576.65485
1788.9128 573.6348
1788.53 569.5884
1784.989 569.08167
1782.5509 567.1828
1780.6014 563.8788
1782.1594 560.1086
1779.3993 558.24115
1776.1035 557.52704
1778.5938 553.84863
1782.5044 555.03845
1783.1829 550.61584
1779.4365 548.9671
1775.6633 550.3038
1770.7151 550.87866
1773.9423 554.199
1770.3351 556.58
1773.1577 559.4102
1776.8313 561.5401
1772.2981 563.6317
1769.3342 561.2647
1769.2839 565.19684
1765.9641 564.19354
1762.8246 566.8237
1762.3507 570.81604
1765.3386 568.9109
1768.1635 568.1845
1770.9291 569.02423
1773.4961 571.2238
1776.7513 572.78485
1776.5054 568.9734
1773.5077 567.48596
1774.9233 564.6983
1777.6757 565.26434
1779.4315 568.3599
1780.9318 571.47784
1784.4407 573.1062
1786.0254 576.7166
1788.6382 580.59155
1792.1227 583.00195
1787.9717 585.1608
1791.875 587.61993
1796.0789 583.1974
1797.4851 587.1992
1801.1659 588.7323
1803.8848 586.4019
1804.3982 590.51263
1802.1414 592.92926
1797.8743 591.7518
1793.37 591.3562
1788.5254 592.122
1789.4961 596.16266
1791.6812 599.86084
1794.7598 602.5144
1798.0945 600.07715
1794.2378 595.9232
1798.825 595.99774
1803.7542 595.8864
1806.9717 593.0787
1808.3718 595.8146
1810.8206 599.85754
1815.1154 597.38
1817.4723 599.70886
1814.2361 601.1209
1811.3217 603.5992
1810.7578 607.0028
1807.8632 605.75006
1807.221 602.21844
1807.0618 598.73926
1802.6544 598.9892
1803.0886 602.06537
1804.3496 605.69226
1804.6605 609.1814
1803.0903 613.09674
1806.7408 612.79956
1808.6115 609.52875
1810.1765 612.5134
1812.4243 609.86163
1814.5935 612.3427
1812.5275 614.27936
1815.8336 616.1034
1816.2957 609.814
1813.947 607.01794
1815.2906 604.5976
1818.3359 603.2254
1818.5449 607.04987
1822.1547 604.5735
1822.9312 608.2464
1820.1868 610.6194
1818.3917 613.62494
1823.0244 614.1158
1819.7162 617.5518
1822.8948 619.88074
1822.5376 625.334
1823.0836 630.78345
1819.4934 629.1807
1816.7954 625.92206
1818.6477 622.1324
1815.0828 620.01306
1812.952 623.808
1806.761 621.39935
1810.4132 620.6015
1812.2688 617.4228
1808.9937 616.2788
1805.4338 616.90314
1799.9171 615.1549
1793.8322 616.7995
1791.6726 620.52014
1792.3127 624.4808
1788.5498 624.8925
1787.3699 621.3528
1783.658 624.44006
1781.2615 621.22754
1781.106 616.73944
1777.4116 615.11096
1777.3069 619.3403
1778.1616 623.99664
1779.8213 627.6889
1783.011 628.8872
1784.9556 631.72687
1786.4617 634.9387
1789.6748 632.54175
1786.9192 628.1282
1791.0006 628.67926
1794.5553 627.5302
1795.6421 622.21686
1797.9498 618.6628
1802.9402 619.5661
1804.295 625.1405
1800.7506 622.2787
1798.2069 624.7371
1797.9963 628.0126
1801.6316 627.1349
1800.9017 630.3878
1796.554 631.05176
1793.335 632.619
1795.8859 635.429
1799.0375 633.8111
1802.3286 633.70575
1804.6326 631.63025
1806.9612 629.214
1808.48 625.3336
1811.7343 627.80365
1814.9146 630.1057
1811.093 631.7634
1808.0818 634.03125
1812.3589 635.5988
1808.9436 638.6191
1805.248 636.4628
1801.7992 637.1393
1798.8411 637.89075
1796.0607 639.74054
1792.1066 637.024
1788.2153 638.1688
1783.8226 638.99475
1781.613 635.2984
1778.8163 632.11053
1774.5427 633.99805
1777.242 637.83624
1779.4434 641.2115
1782.3718 643.383
1787.178 642.4794
1785.1342 645.64795
1781.8184 647.9379
1784.3423 650.9542
1787.6299 647.90424
1790.5854 646.0189
1790.6956 641.39624
1793.5702 642.3483
1796.1885 644.43005
1799.5764 644.91254
1800.5002 641.5518
1804.0586 640.3925
1806.8008 642.5211
1804.1089 645.66785
1800.9944 648.5484
1799.4508 652.48737
1803.4803 652.73883
1806.1847 649.40424
1810.6672 648.3548
1809.4744 645.10333
1811.9469 642.15753
1814.5647 639.45056
1816.3567 635.97577
1817.2809 632.76044
1821.1686 634.4638
1822.9968 637.6339
1818.9379 639.24634
1815.9165 643.7515
1819.9326 644.081
1822.644 641.4805
1823.7483 644.7176
1822.7329 646.9615
1823.525 650.09973
1823.1294 653.78406
1819.9448 655.95844
1823.1243 658.2025
1823.6643 665.35266
1822.4045 668.56744
1824.1566 670.67896
1820.8519 671.6168
1818.8442 673.68384
1817.6738 670.8476
1819.5892 669.02295
1817.1139 666.9592
1816.095 663.18207
1819.9559 665.52216
1821.9127 662.1733
1819.294 659.7848
1815.799 658.62476
1814.0055 655.37024
1817.1332 653.1703
1819.8591 651.3404
1820.4674 648.2363
1817.4993 647.5989
1814.5289 648.95526
1811.6189 652.5021
1807.6804 653.78235
1809.5707 657.91974
1812.3306 660.864
1810.1877 664.3511
1813.9541 666.841
1814.8827 670.3177
1812.1086 672.5217
1815.072 673.5925
1816.5305 675.84503
1819.3665 676.8021
1822.4358 673.67316
1823.4 676.1938
1822.9612 681.4398
1823.5186 684.7175
1820.5681 679.6357
1817.3215 681.1501
1814.5084 678.3399
1810.9775 679.6823
1811.1753 676.2594
1808.7439 673.6456
1808.2803 670.22314
1811.0509 668.44495
1805.9443 667.0129
1800.9294 670.3296
1804.7496 671.45624
1806.5681 675.7878
1805.4806 678.2241
1802.4814 674.40674
1799.6584 675.70935
1795.4677 674.7387
1791.9149 676.37646
1789.3618 671.99567
1792.5225 669.9516
1794.487 666.1909
1796.6606 670.9313
1798.2607 667.4196
1798.123 663.7762
1802.1686 665.53424
1806.2288 662.1995
1805.0027 657.6926
1801.1672 656.43445
1797.5413 656.5312
1801.7133 660.98773
1797.6841 660.2472
1793.8412 658.912
1793.825 655.41406
1795.3215 652.599
1796.9047 649.1783
1793.6993 647.6696
1791.4052 651.3644
1790.6454 656.4079
1787.612 654.8395
1787.7255 651.4941
1783.6437 655.5796
1786.742 658.6956
1786.1467 662.6627
1790.1703 660.96924
1793.9243 662.437
1790.3616 665.3392
1787.3022 668.19806
1784.5999 665.81024
1781.974 660.5898
1779.1746 656.8291
1780.662 652.44196
1776.9504 651.8511
1777.6162 646.67535
1774.8539 642.9852
1772.2482 638.7213
1769.2972 633.47205
1771.5007 629.62506
1775.4795 628.11005
1774.1144 623.2466
1770.2648 624.35156
1766.8262 626.7598
1764.0708 620.7245
1768.3352 620.09937
1767.6726 615.87866
1766.4117 611.169
1761.7825 614.24176
1757.9962 607.94977
1755.064 602.553
1752.3081 598.0662
1751.8989 593.4071
1755.3456 595.14777
1758.6311 592.6485
1762.089 596.5823
1758.013 598.42883
1761.6094 602.42975
1763.648 607.17267
1766.2521 598.54474
1768.886 601.7781
1769.2194 606.17004
1773.908 603.2455
1775.3936 607.1734
1778.679 608.36224
1771.7987 609.1773
1771.0303 612.8771
1772.7617 619.0852
1773.7036 615.4989
1775.5406 611.4618
1779.6267 612.3878
1783.1698 612.852
1785.7568 614.99493
1784.7393 618.77704
1789.4387 616.5015
1787.7692 611.68195
1791.5657 611.50366
1795.8384 612.902
1799.8584 609.72955
1800.9614 604.9239
1797.7466 605.15405
1794.7379 608.1407
1791.0781 604.45233
1788.8962 607.31305
1785.1729 608.8065
1781.9617 609.3532
1781.5371 605.5776
1778.2872 603.25885
1777.9863 599.1767
1781.2107 597.4001
1782.3925 601.2303
1785.4758 604.4599
1787.1888 600.7662
1785.1046 596.9494
1784.4369 592.4423
1781.268 594.0325
1781.2322 589.7945
1777.6743 591.4429
1777.6624 587.70245
1773.0842 585.8697
1777.2975 584.2217
1778.8915 579.54144
1781.095 582.4442
1782.7097 585.73126
1785.8658 588.5786
1784.9639 581.44977
1782.4594 577.85156
1779.8013 575.2031
1775.771 576.8297
1775.2405 580.8725
1771.4089 582.10455
1767.4131 583.1563
1763.8702 585.3652
1766.8427 588.3933
1770.4843 588.8532
1773.7886 591.309
1776.8358 595.0516
1773.5814 598.5516
1770.9685 595.14264
1767.3389 593.34296
1763.5587 592.57306
1762.2778 589.3371
1759.2195 587.8818
1755.5532 589.11224
1752.5648 589.57196
1749.3402 590.4408
1749.7874 587.18463
1748.0015 584.4142
1746.4679 581.3355
1752.5964 584.4837
1755.316 581.3761
1751.6167 580.2448
1748.5295 578.6438
1751.4412 575.79004
1754.8044 576.82056
1758.3309 579.0457
1756.6765 584.96387
1760.2078 583.48663
1762.6104 580.4104
1767.5535 578.3074
1771.3866 578.06604
1772.7379 574.6923
1769.711 573.5892
1767.5929 571.5849
1765.1827 573.67773
1764.207 577.1264
1761.1885 575.2211
1757.704 574.81494
1758.846 571.64124
1759.1677 568.24615
1755.2946 569.1862
1754.2885 572.4734
1750.4181 572.00885
1747.5225 574.6224
1744.7626 577.7173
1743.7294 573.97284
1741.3691 571.53735
1743.1205 568.5694
1740.0304 565.6741
1746.0009 565.6619
1745.9397 561.94965
1747.7769 557.2719
1751.6755 558.1557
1751.7925 553.11615
1747.1334 551.3346
1740.7435 550.8583
1742.7701 554.3663
1743.8424 558.032
1741.3804 561.39307
1737.4294 561.04224
1738.4849 557.03687
1736.1184 553.98846
1735.5702 550.00653
1733.2568 546.8688
1731.5541 543.0583
1731.9113 539.4947
1736.5098 538.32404
1736.4651 542.719
1738.7123 546.0719
1743.5834 547.21545
1743.508 542.7188
1740.5963 539.76776
1744.0494 536.47437
1739.9541 534.4251
1735.4675 533.9614
1735.0077 526.21155
1737.8068 529.80786
1743.4309 530.4333
1741.14 525.17926
1745.1128 520.962
1748.231 515.9371
1745.3883 512.8452
1741.8483 512.5343
1741.8632 516.9317
1738.8672 520.4504
1734.7455 521.51166
1730.8511 523.1121
1728.8658 527.0713
1731.4786 530.6786
1731.438 535.2315
1727.6494 536.6894
1725.7269 531.7154
1723.4663 527.2599
1725.9343 523.3521
1723.0908 520.1328
1720.6317 523.654
1718.1785 519.24316
1715.7543 514.7907
1721.5918 515.7715
1720.2717 511.24387
1714.7686 509.89038
1711.676 505.77264
1708.3593 501.19464
1705.9456 497.21982
1704.3657 492.89545
1701.7197 488.48846
1697.3414 485.26624
1699.914 481.17935
1704.5125 480.46255
1708.7905 480.309
1711.7073 481.09344
1714.0267 483.45776
1715.2363 479.65555
1718.4218 481.25098
1721.9619 479.85608
1717.7319 485.30737
1720.6415 488.6934
1721.9226 493.5181
1715.6818 491.12872
1713.9329 487.61984
1710.0844 485.6151
1705.7372 484.71817
1708.7131 489.84753
1711.0203 494.69418
1716.7191 495.5738
1719.9128 499.3519
1713.174 499.79587
1716.3447 503.6433
1720.0168 505.78882
1723.9524 508.00174
1728.1008 507.11548
1732.1798 506.27713
1734.25 510.25806
1730.3374 512.58826
1725.6501 512.477
1726.5566 516.77295
1728.4618 519.92474
1731.7266 517.5685
1735.0345 515.8851
1737.781 513.8836
1738.676 510.0302
1741.9165 507.94107
1745.7764 507.70798
1743.8068 503.87924
1739.371 503.05545
1737.2792 506.20367
1734.4283 502.03064
1732.3271 497.6039
1729.5166 501.2712
1724.441 502.7672
1725.3019 498.10498
1727.2916 494.1323
1731.2123 493.06622
1734.5925 490.2394
1737.8099 492.58188
1734.8671 494.6322
1738.3063 496.49417
1738.0883 499.5134
1742.4043 499.70013
1743.8872 495.63068
1741.3489 493.17175
1744.0033 489.97424
1740.1057 488.97552
1737.3933 487.1792
1733.295 486.03683
1729.8511 488.6984
1725.7288 488.41086
1722.4757 484.14713
1726.5712 482.01187
1730.5964 482.57022
1735.4421 481.38925
1737.6027 483.73038
1741.4237 483.2567
1744.7749 485.54086
1746.3093 482.3557
1752.1737 458.61264
1749.2094 455.4631
1755.3397 456.64734
1759.6958 458.5061
1760.195 454.2861
1753.7612 451.52628
1752.4684 444.71423
1747.6042 448.08902
1746.4971 452.76923
1741.3567 451.72345
1739.4226 444.5398
1734.4266 446.46014
1732.918 439.50787
1730.1187 434.84616
1725.3221 433.36786
1722.0886 426.8487
1726.9937 429.23108
1731.5111 431.03186
1735.6932 435.22165
1736.2009 440.48944
1739.8975 438.57935
1740.3834 433.8191
1744.0942 433.06268
1748.0712 436.11636
1750.4106 440.34317
1748.293 430.84903
1744.4617 428.80673
1741.0929 427.7964
1746.7119 426.10666
1745.8903 422.75702
1741.1548 423.05746
1737.5095 425.10162
1736.0518 420.04755
1732.735 422.95822
1730.5116 426.42038
1726.894 422.95193
1729.9581 419.36453
1733.3835 415.96808
1736.6713 413.9002
1739.4338 410.76767
1741.4258 415.09494
1740.3264 419.3122
1748.5505 413.15945
1743.132 409.64203
1745.7875 405.53677
1747.5708 409.57544
1751.5112 406.9737
1749.5974 403.18195
1751.7659 400.44608
1753.8248 403.1675
1757.6252 402.91748
1756.5276 400.07236
1754.014 398.92038
1756.2795 397.4309
1763.4922 383.92053
1758.7429 381.7724
1762.0585 378.96332
1765.925 380.004
1767.9816 383.14993
1768.6431 386.47455
1758.5563 396.97864
1759.7534 401.04797
1760.8219 406.2505
1756.4133 406.0402
1756.8098 409.76666
1752.3303 411.54376
1753.3347 416.70126
1749.9877 417.40704
1751.5992 421.27377
1750.3381 425.13098
1755.4309 425.0558
1756.7695 421.0088
1760.0386 423.73926
1760.7441 427.89368
1765.6254 424.5841
1767.6589 420.9279
1762.9241 418.38718
1758.0737 417.6283
1760.7014 412.93924
1764.1515 409.56354
1766.713 413.62878
1771.4358 413.77335
1769.6854 417.12357
1773.934 417.47513
1782.7207 426.38058
1787.9005 422.48495
1786.2537 429.9302
1782.4055 431.61728
1778.3547 429.93985
1775.8186 426.67245
1771.7372 424.98264
1768.1635 427.6498
1767.2144 431.44183
1765.1222 435.37973
1763.2136 430.69675
1759.7494 434.35388
1754.8317 435.93185
1756.7689 440.22928
1758.715 445.84396
1765.4032 448.4307
1766.2977 461.12683
1757.468 462.20575
1762.4596 463.09506
1768.6597 467.6184
1769.5078 484.46048
1766.7499 486.57336
1762.7781 484.9003
1758.3342 485.93567
1754.2415 484.37732
1750.2037 484.596
1748.0524 488.3517
1748.3463 492.43774
1748.723 496.50626
1746.2946 499.66153
1748.8141 501.9604
1749.156 505.8467
1752.627 503.5749
1756.1018 503.55157
1752.9877 498.9534
1753.2249 493.8774
1753.07 489.1271
1758.0452 490.91248
1763.3925 489.75647
1763.5146 494.20682
1767.0428 493.3754
1769.9741 491.31192
1771.0216 487.96985
1774.7466 490.68585
1777.4138 493.79843
1777.7979 497.72037
1781.227 492.46063
1783.471 495.4625
1782.9619 498.5237
1781.0524 501.289
1780.8632 505.1198
1784.3058 505.99307
1786.0815 508.63995
1787.8542 511.22
1789.5211 507.88983
1791.8083 510.24744
1794.4131 508.77222
1797.826 509.0557
1795.952 512.71985
1799.1455 513.75464
1802.1094 516.26404
1803.431 520.43567
1805.9944 518.68024
1808.8384 516.5728
1805.4727 514.2493
1802.6243 511.6245
1801.2302 508.34476
1799.3977 504.8148
1802.9971 504.32346
1805.0924 507.1042
1806.9602 509.97375
1809.7205 511.94632
1812.3152 508.08206
1813.7075 503.3333
1809.8455 501.19308
1808.8735 505.38876
1805.5779 502.01282
1806.5968 498.74084
1809.1436 496.12125
1812.2933 497.62766
1815.9822 498.6591
1818.9872 495.1612
1814.7202 493.5454
1810.6571 491.99374
1812.9944 488.31223
1818.9845 474.69174
1816.0565 473.22815
1811.1962 470.25406
1805.9191 468.66748
1800.3024 466.54907
1792.3503 487.10825
1797.2382 487.66605
1798.6978 491.43115
1801.8046 488.2829
1803.2026 491.68655
1806.8102 488.52533
1806.8732 492.68295
1805.1929 495.80734
1802.3435 495.06412
1799.4973 494.56033
1802.6178 498.52304
1800.7766 501.1766
1798.6702 497.76498
1795.4924 494.63025
1795.068 498.41223
1796.6298 501.38007
1795.7837 504.84317
1792.3274 505.31104
1791.5251 501.48965
1791.7856 497.50687
1788.4153 504.57462
1785.742 502.08786
1787.6047 498.75565
1788.4874 495.19476
1785.6812 492.11166
1789.5731 491.03928
1792.0927 493.16476
1794.6982 490.5081
1787.6128 488.16095
1783.1588 488.67664
1779.0829 488.74994
1775.9551 486.63312
1774.0615 484.42715
1779.7134 484.48566
1784.1067 484.72253
1788.0776 484.66528
1794.0966 462.53082
1790.6339 458.6451
1795.3091 458.60788
1800.6584 460.0329
1798.9788 456.27917
1801.329 453.0395
1795.6385 454.03745
1795.446 449.46945
1791.909 446.39203
1787.2045 446.37277
1783.1448 447.30557
1784.2778 443.4896
1782.1519 441.00394
1778.4341 441.49896
1774.2798 442.98932
1778.8595 445.94623
1781.4471 450.51337
1784.8572 452.26443
1786.8884 456.57272
1782.9753 454.0537
1777.1954 450.71045
1773.6812 447.52866
1769.6786 445.4605
1769.3125 440.3897
1770.8156 437.20026
1770.2604 433.60162
1775.2551 434.24548
1775.0293 438.60553
1780.4855 437.81808
1785.8531 438.72943
1789.2343 442.57437
1793.905 440.78992
1796.29 444.60315
1799.4622 449.4598
1801.8281 446.1158
1801.0171 442.1813
1798.5454 438.09525
1795.3296 434.6953
1790.7515 437.70248
1787.8088 434.33783
1791.655 430.97107
1795.4832 427.91553
1798.693 429.6157
1800.5834 426.03247
1798.2085 423.31262
1794.5967 421.06815
1800.6387 420.3414
" />
</g></g></svg>
