<?xml version="1.0" encoding="UTF-8" standalone="no"?>
<!-- Created for Inkscape (http://www.inkscape.org/) -->

<svg
   xmlns:dc="http://purl.org/dc/elements/1.1/"
   xmlns:cc="http://creativecommons.org/ns#"
   xmlns:rdf="http://www.w3.org/1999/02/22-rdf-syntax-ns#"
   xmlns:svg="http://www.w3.org/2000/svg"
   xmlns="http://www.w3.org/2000/svg"
   xmlns:sodipodi="http://sodipodi.sourceforge.net/DTD/sodipodi-0.dtd"
   xmlns:inkscape="http://www.inkscape.org/namespaces/inkscape"
   width="3200"
   height="800"
   id="svg2985"
   version="1.1"
   inkscape:version="0.48.1 r9760">
  <defs
     id="defs2987" />
  <sodipodi:namedview
     id="base"
     pagecolor="#ffffff"
     bordercolor="#666666"
     borderopacity="1.0"
     inkscape:pageopacity="0.0"
     inkscape:pageshadow="2"
     inkscape:zoom="0.35"
     inkscape:cx="1600"
     inkscape:cy="400"
     inkscape:document-units="px"
     inkscape:current-layer="layer1"
     showgrid="false"  />
  <metadata
     id="metadata2990">
    <rdf:RDF>
      <cc:Work
         rdf:about="">
        <dc:format>image/svg+xml</dc:format>
        <dc:type
           rdf:resource="http://purl.org/dc/dcmitype/StillImage" />
        <dc:title />
      </cc:Work>
    </rdf:RDF>
  </metadata>
  <g
     inkscape:label="Layer 1"
     inkscape:groupmode="layer"
     id="layer1"> 
     <g>
<path style="fill:none;stroke:black;stroke-width:2px;stroke-linejoin:round;stroke-linecap:round;" d="M 
1414.6669 685.62506
1424.7412 694.6955
1431.252 706.2879
1442.7518 705.13947
1445.617 714.5511
1455.9498 708.7442
1466.1748 709.45795
1464.7319 698.0749
1476.1432 702.15735
1479.3572 711.0419
1491.6633 705.8931
1506.3713 706.8009
1501.4508 718.8794
1490.4514 718.62994
1481.3579 722.2497
1471.6254 725.9862
1469.4847 718.103
1458.7947 722.5032
1446.9402 724.5641
1433.9056 722.34863
1427.4734 738.2637
1425.3625 749.6875
1419.5708 758.25775
1404.8959 757.3411
1394.0149 749.61957
1384.228 756.6119
1379.4475 740.0606
1387.2078 725.52716
1378.4065 715.94385
1380.6414 700.1402
1396.2969 708.0002
1404.5854 722.17554
1397.7565 736.46185
1411.1956 742.38434
1418.5215 729.0201
1422.0577 716.37054
1414.0576 707.31433
1407.2856 695.92694
1393.8345 689.3639
1378.5 683.8516
1377.1597 664.79706
1388.9006 672.1857
1402.8215 677.48126
1400.983 662.5083
1388.5682 654.1484
1378.281 646.2057
1381.3198 632.46967
1380.5702 619.65393
1380.2971 605.65643
1379.1094 590.6147
1380.6274 575.3696
1390.3894 566.88837
1393.3104 585.22284
1398.1742 598.7437
1401.1713 574.5069
1408.3743 559.2375
1393.4163 553.0758
1404.6389 536.30804
1381.0802 522.56635
1386.0795 500.58618
1399.9034 512.49066
1422.2306 529.2312
1433.769 515.1425
1430.1582 499.4401
1436.6227 482.33337
1443.4115 467.57648
1449.1932 454.7809
1455.2556 443.08957
1462.1401 430.9486
1471.4327 418.47412
1478.1141 428.57196
1484.986 416.61578
1497.8936 427.5811
1501.9512 413.94138
1517.5609 422.21222
1536.7239 425.7131
1538.7749 411.0695
1558.3899 419.9304
1578.5842 419.9111
1598.508 418.35608
1620.3469 418.1663
1640.8777 419.1302
1657.6937 426.19196
1662.8278 412.50748
1673.9543 426.62167
1684.0223 418.47458
1698.3683 423.77274
1713.5938 419.76157
1726.1995 432.45
1734.4724 447.43155
1741.6558 460.07068
1747.0623 471.04028
1751.3885 480.5886
1752.4647 488.99127
1757.8915 496.11694
1759.6155 506.6782
1748.761 516.27747
1735.6985 523.5758
1720.3004 530.1765
1723.0154 516.5137
1707.2373 517.2799
1692.5392 515.93274
1690.0619 508.91406
1679.4902 512.31757
1668.1465 508.81277
1656.8428 509.66138
1670.6003 519.9999
1693.5935 525.2802
1676.141 561.64185
1662.8774 561.077
1652.3019 550.98755
1632.2842 544.0183
1624.4502 552.3479
1616.8647 543.7042
1604.2355 541.95233
1609.5475 525.22394
1620.7365 525.6386
1631.6632 527.60187
1642.2681 529.66724
1648.8396 535.8738
1658.3398 534.9054
1663.2122 527.49286
1653.0571 523.0776
1642.376 517.2274
1644.669 506.34155
1630.6384 506.15536
1630.622 516.17957
1618.9569 511.49307
1609.8792 505.81464
1603.9731 514.4034
1592.5156 508.1344
1595.9023 525.12915
1586.0034 518.3475
1576.2925 531.0372
1574.3068 516.53265
1560.9429 516.14764
1542.9636 514.2928
1526.4731 512.8963
1512.5662 512.2644
1492.0552 509.7804
1476.086 512.05493
1457.4655 514.1445
1451.0795 533.1093
1442.3566 555.4198
1451.4094 566.14746
1428.2247 570.0502
1420.602 585.02985
1440.4216 590.1793
1432.2832 607.1338
1412.1332 608.3717
1396.0864 616.7202
1423.9839 620.83844
1417.0154 637.8525
1408.5741 625.73755
1395.6165 636.3657
1403.5459 647.59314
1414.9486 654.00494
1414.962 668.77014
1431.0116 666.10345
1427.2452 681.06323
1435.6145 685.29224
1442.1631 674.52124
1448.2766 684.75226
1439.743 694.4334
1450.1444 698.76807
1456.1957 693.6012
1459.6937 684.5969
1470.2522 685.51416
1480.1659 685.51697
1489.6316 679.67523
1489.5468 691.28345
1500.8971 688.7821
1513.021 688.89465
1510.2166 672.4759
1496.928 672.5878
1502.0244 659.8564
1501.8866 647.5562
1485.1904 650.19965
1486.9004 662.09375
1479.3826 672.3028
1466.6862 674.4693
1455.1404 672.7084
1453.5261 661.43005
1442.0719 660.80676
1428.663 649.30646
1432.1398 634.7457
1440.2214 619.1567
1455.626 613.2334
1466.5667 618.53375
1461.822 634.59503
1446.4646 634.0249
1442.6803 647.78394
1455.4347 644.8849
1461.4639 654.33136
1470.8132 661.79034
1472.257 645.268
1476.1022 630.25916
1488.0588 636.8965
1504.0242 635.72125
1520.1835 638.16473
1527.8098 620.02356
1515.7402 610.1608
1507.6177 620.2173
1491.2577 619.5456
1500.9246 606.06177
1489.3015 606.5105
1481.5934 599.68774
1477.5093 612.5847
1466.738 602.4233
1454.3281 586.45953
1461.5836 575.59033
1472.801 581.16095
1473.3097 565.8802
1484.8398 552.41284
1466.9786 545.01056
1475.4089 532.6308
1489.057 524.02106
1503.0409 518.7187
1529.6407 529.8745
1550.2922 528.5391
1544.806 545.0497
1533.3481 550.54565
1542.762 559.6356
1554.9763 556.1941
1562.4362 543.57556
1567.5636 558.62823
1572.3524 579.6751
1582.6031 559.2653
1573.7537 548.44006
1583.4304 545.87964
1592.8918 541.9956
1592.7534 553.6089
1600.7378 559.69946
1605.5988 551.32355
1614.3267 558.0926
1627.7451 563.69165
1637.9211 552.2206
1643.3839 560.9259
1655.5488 570.8577
1670.379 574.17053
1683.8038 569.9989
1695.0624 568.83417
1695.313 558.47406
1706.464 567.8462
1717.0991 561.5968
1706.2997 551.9156
1708.2491 535.2412
1724.7755 542.1736
1740.7352 542.10736
1757.1613 546.44183
1751.6963 529.62787
1764.7424 531.7163
1764.1445 518.2347
1779.3254 525.85876
1787.1672 511.45605
1806.1182 504.24426
1821.3904 509.77658
1811.6155 521.50574
1794.3827 524.6342
1779.7761 540.2338
1790.7625 549.314
1794.7112 561.0506
1805.3835 570.5982
1812.2493 584.24725
1804.0037 588.4938
1791.6816 576.8769
1793.3925 590.8835
1789.2383 599.9081
1779.6235 604.6558
1759.4005 615.7863
1751.0596 623.08734
1759.113 633.1998
1769.4224 639.33185
1763.9414 650.1589
1749.5068 646.87634
1755.5857 662.7659
1748.27 669.2997
1744.7139 677.43054
1739.99 686.3642
1733.3483 693.96954
1723.8181 689.04205
1728.1791 678.22754
1737.606 674.0959
1732.3451 666.8769
1742.1184 659.09314
1732.3037 653.0579
1738.3535 642.01495
1742.8849 633.1028
1738.1001 612.2934
1723.7725 617.38696
1724.6946 633.05005
1727.481 642.56226
1723.2965 661.8777
1715.1495 668.9421
1710.3705 655.9876
1717.5243 647.55536
1693.3821 646.6026
1707.6578 636.5218
1708.4812 617.9064
1694.8779 609.5228
1680.8778 601.90424
1694.3572 594.27814
1706.1705 601.73987
1720.158 603.4275
1753.2227 596.99695
1768.0645 606.99805
1770.0323 583.9089
1771.2838 563.8496
1755.2319 571.5156
1739.2704 564.15125
1735.364 585.0669
1719.7297 576.7567
1696.8461 581.9704
1682.1113 586.03253
1668.1013 591.24023
1653.1996 585.675
1649.5905 599.6107
1634.7878 586.11066
1627.2771 601.5039
1640.5394 613.9789
1663.9696 608.0531
1675.535 617.9427
1689.754 620.3275
1688.968 635.5013
1672.4413 638.7909
1657.2412 623.391
1640.5157 636.4495
1625.621 630.12714
1616.06 615.8651
1600.5785 618.6458
1589.1272 609.6877
1597.4441 599.8235
1611.337 598.87616
1613.7689 583.025
1595.1887 583.28796
1581.5586 587.9475
1577.5104 599.60736
1575.2177 613.21436
1583.1691 622.2938
1583.2642 637.16016
1588.3538 656.2659
1604.6484 636.47705
1615.2268 650.8972
1636.0802 655.89215
1655.4686 646.2061
1670.4778 655.4822
1685.395 659.52106
1698.907 658.74365
1704.5612 669.91156
1689.2126 674.23114
1699.9202 678.1843
1717.6842 678.8554
1709.1523 686.02655
1695.1934 689.4508
1698.4619 702.834
1687.9556 707.43317
1677.6205 708.1784
1680.6946 692.6952
1678.6586 682.99536
1674.9753 669.86224
1664.2762 675.36615
1653.6798 679.6509
1664.3499 689.9117
1650.6704 693.03784
1639.7283 688.72235
1644.3464 674.50415
1631.1951 676.0528
1625.9283 690.2265
1616.473 676.32587
1600.9335 677.805
1610.104 692.82935
1591.4956 693.65906
1575.8011 690.9613
1585.1746 676.66473
1569.8823 675.3773
1561.4985 695.18665
1561.2451 684.1656
1553.1272 675.3904
1557.3152 656.389
1561.0214 636.8767
1562.573 619.14056
1562.8066 604.1357
1562.1576 588.7003
1549.9349 584.8363
1540.0083 580.13745
1528.7688 575.00146
1530.28 564.09875
1518.2178 563.2947
1513.0869 573.4742
1502.7733 565.6656
1488.4196 567.55676
1502.2764 580.0909
1492.5908 590.96533
1507.5226 594.22046
1519.5492 585.54034
1522.4083 599.0425
1534.4811 591.5528
1549.5828 601.6946
1536.7386 607.4509
1546.2267 621.6246
1539.1516 642.2828
1519.4612 656.57104
1523.9937 674.3823
1539.096 676.3519
1548.5465 690.10205
1537.1168 692.0347
1525.8259 689.0439
1520.9326 707.13776
1515.4529 719.657
1530.1655 720.0798
1534.493 708.6507
1548.6115 707.51166
1543.854 718.8645
1557.6708 721.3709
1561.9204 709.55774
1573.6549 715.2282
1586.5756 716.8882
1600.5156 714.5023
1615.2454 716.1713
1631.0946 719.5332
1628.114 705.31683
1641.4792 709.30914
1647.1747 720.3332
1654.3184 707.1366
1667.3591 702.8514
1668.6906 713.63007
1658.2803 715.24585
1662.6355 722.6163
1675.4484 721.255
1685.0359 719.145
1695.7296 721.1418
1699.2812 711.2647
1706.8839 716.6644
1710.8385 724.6778
1721.5786 724.86914
1718.064 714.00366
1710.9684 704.3102
1722.3038 701.1681
1730.0018 708.0124
1728.1412 717.2584
1731.6069 725.5082
1737.9353 719.0271
1741.5105 726.09094
1749.2653 721.8496
1759.6638 718.67316
1758.4366 729.9833
1767.3052 729.5432
1773.5857 720.8822
1771.3463 711.1741
1770.7457 700.8774
1759.5237 706.7954
1749.7539 708.6985
1740.7727 711.94775
1740.1215 701.3246
1751.4169 695.2597
1752.0829 682.20966
1762.7821 682.173
1764.499 692.1477
1778.1334 688.32733
1794.5542 688.9235
1785.3738 702.84656
1799.7352 703.92676
1794.3639 716.1467
1783.686 717.34045
1778.9148 732.9593
1790.0964 730.4882
1801.0717 734.006
1793.1389 745.00543
1780.749 747.89526
1771.3519 742.904
1760.6492 743.83826
1767.3821 757.02814
1783.6306 758.9513
1797.0797 758.7747
1806.7438 754.6998
1808.6814 744.92175
1812.1084 735.2257
1812.3965 724.65497
1803.1172 721.06464
1811.3381 712.75824
1812.586 701.9055
1810.0688 690.60535
1808.9049 678.1703
1811.6965 663.6666
1797.0881 667.5558
1785.8364 676.0665
1771.2648 669.2604
1780.6173 659.4468
1794.1003 652.2356
1808.0925 650.4825
1810.4954 638.28455
1807.155 626.60675
1809.69 615.6384
1811.9214 601.45667
1800.9261 605.4274
1793.26 616.1927
1781.9877 620.2974
1775.5002 628.66644
1794.1096 634.89685
1781.2545 644.85284
" />
</g></g></svg>
