<?xml version="1.0" encoding="UTF-8" standalone="no"?>
<!-- Created for Inkscape (http://www.inkscape.org/) -->

<svg
   xmlns:dc="http://purl.org/dc/elements/1.1/"
   xmlns:cc="http://creativecommons.org/ns#"
   xmlns:rdf="http://www.w3.org/1999/02/22-rdf-syntax-ns#"
   xmlns:svg="http://www.w3.org/2000/svg"
   xmlns="http://www.w3.org/2000/svg"
   xmlns:sodipodi="http://sodipodi.sourceforge.net/DTD/sodipodi-0.dtd"
   xmlns:inkscape="http://www.inkscape.org/namespaces/inkscape"
   width="3200"
   height="800"
   id="svg2985"
   version="1.1"
   inkscape:version="0.48.1 r9760">
  <defs
     id="defs2987" />
  <sodipodi:namedview
     id="base"
     pagecolor="#ffffff"
     bordercolor="#666666"
     borderopacity="1.0"
     inkscape:pageopacity="0.0"
     inkscape:pageshadow="2"
     inkscape:zoom="0.35"
     inkscape:cx="1600"
     inkscape:cy="400"
     inkscape:document-units="px"
     inkscape:current-layer="layer1"
     showgrid="false"  />
  <metadata
     id="metadata2990">
    <rdf:RDF>
      <cc:Work
         rdf:about="">
        <dc:format>image/svg+xml</dc:format>
        <dc:type
           rdf:resource="http://purl.org/dc/dcmitype/StillImage" />
        <dc:title />
      </cc:Work>
    </rdf:RDF>
  </metadata>
  <g
     inkscape:label="Layer 1"
     inkscape:groupmode="layer"
     id="layer1"> 
     <g>
<path style="fill:none;stroke:black;stroke-width:2px;stroke-linejoin:round;stroke-linecap:round;" d="M 
1573.4208 267.41382
1575.5608 264.4987
1578.657 263.3844
1581.6782 261.16397
1582.8369 265.06778
1580.8286 268.6041
1577.3076 268.45755
1574.6389 271.5578
1570.9863 269.94128
1569.4991 273.61215
1567.1282 271.41748
1564.5242 274.40256
1560.7981 276.16824
1556.6086 277.78683
1556.5933 274.15234
1560.21 271.84604
1555.1881 270.83868
1552.2874 272.93216
1552.355 276.335
1549.7264 278.8993
1546.2017 280.70447
1545.6818 276.78107
1548.4563 273.7541
1544.0831 273.22272
1540.6564 274.6406
1541.0347 278.3746
1541.7546 281.92752
1543.747 284.20508
1547.5865 284.81552
1550.8672 283.1939
1553.3916 280.21204
1555.9111 284.338
1560.131 286.2819
1555.8734 288.48755
1558.533 291.34024
1562.3206 294.94815
1558.3605 295.85095
1559.7178 300.38004
1559.432 305.09586
1556.5522 307.89114
1556.229 311.7235
1560.9667 310.87122
1564.1077 314.0506
1568.6924 312.97806
1570.4701 316.18564
1574.8872 316.51846
1578.464 317.80847
1581.8594 318.80948
1579.1805 321.82236
1582.719 322.35294
1586.0459 319.97113
1584.8785 316.4191
1588.8156 316.08603
1586.2255 312.51416
1584.2373 306.89304
1587.8062 308.58066
1591.0792 306.9559
1594.0176 304.88577
1590.6831 302.26703
1586.895 303.47116
1581.335 304.1188
1577.4808 301.8129
1576.5863 305.78796
1578.9788 308.9878
1582.5842 310.6937
1581.6536 314.6535
1578.1975 313.4464
1574.225 312.60434
1573.3145 309.2321
1571.8313 305.62506
1572.8408 301.6252
1575.0793 298.08313
1571.0751 297.21194
1568.5809 300.00266
1568.04 304.04846
1567.8782 309.06442
1563.8763 307.5629
1563.8077 303.11804
1564.2228 299.07498
1566.8611 295.96686
1566.6326 292.3727
1562.8253 290.39618
1564.6093 287.12802
1568.4857 289.0425
1571.9822 290.2747
1571.5225 293.79825
1576.0691 291.32608
1576.6647 294.8176
1580.946 293.4652
1584.9843 295.3444
1579.9431 298.0533
1583.4055 300.18686
1587.3265 298.93057
1590.3516 296.99982
1594.5563 297.9893
1594.2935 300.95258
1598.9265 299.87543
1597.3339 303.06924
1600.5723 304.47903
1602.9927 307.60217
1603.2917 301.80536
1607.2428 303.82706
1611.1727 305.4021
1615.5487 306.19846
1619.8706 306.74326
1616.8297 310.83258
1612.0621 310.11172
1607.041 308.95117
1605.7858 312.7155
1602.303 313.72202
1601.1798 317.5434
1597.1903 313.688
1599.6884 310.41498
1597.2789 307.20135
1594.4508 310.1196
1590.817 311.99884
1593.0167 315.81967
1596.8258 317.58868
1594.8265 320.68497
1594.7844 324.3971
1599.7172 321.51785
1604.9213 319.66458
1606.564 323.67633
1603.2992 325.25882
1598.929 326.13358
1602.5244 330.98483
1606.4243 334.29636
1609.1931 329.58957
1609.8021 324.48062
1612.9995 325.77945
1615.7675 328.07852
1620.1519 331.35724
1618.2251 334.44852
1615.4034 331.2652
1612.7183 333.63986
1611.5383 336.983
1615.9983 337.62085
1617.5502 340.34232
1620.6365 339.44647
1623.7189 341.88992
1625.0127 339.0865
1621.3679 336.70993
1623.2363 334.30533
1626.391 334.22156
1629.1707 335.54578
1632.1384 337.67322
1628.2383 339.34308
1628.1943 344.35825
1630.5223 342.36197
1633.412 341.30646
1632.9294 345.5442
1635.7279 347.91675
1637.2179 345.41708
1639.4989 348.2105
1642.1825 350.53595
1644.0698 348.47977
1648.0667 348.22488
1646.9985 351.77032
1651.27 352.38876
1652.082 347.23334
1656.8608 344.23615
1656.6316 348.07678
1656.0107 351.46237
1655.3462 355.15417
1659.9657 355.70953
1661.653 351.42215
1664.8629 347.77475
1668.4506 344.55594
1671.5176 347.87115
1675.7623 350.11285
1675.6448 354.34726
1670.874 353.91873
1667.746 350.67114
1665.8142 354.7144
1663.9084 358.3068
1668.794 359.49304
1673.4208 358.06503
1673.3005 362.465
1677.0361 361.29572
1679.2069 358.22784
1679.3148 364.23016
1682.586 363.4871
1685.9404 366.20084
1685.5845 360.8838
1686.1947 355.88153
1683.1443 357.4484
1680.5032 353.9956
1680.6183 350.1533
1685.096 352.1004
1685.943 348.1776
1682.7728 346.77
1679.0535 345.70587
1675.5446 345.14688
1672.9736 341.8879
1671.2432 337.36407
1675.0105 335.95428
1675.9468 332.5259
1681.0242 336.20074
1677.9023 339.9177
1681.8651 342.43442
1686.0167 343.53662
1685.1587 339.10815
1685.6709 334.0573
1682.3867 331.21613
1678.7542 329.34195
1674.4648 328.33798
1670.8252 326.81702
1666.7423 326.00006
1662.9612 325.19226
1660.4072 322.2727
1657.1783 322.064
1655.0973 319.7736
1652.7854 321.5818
1650.957 324.24777
1648.8849 326.79788
1645.6875 328.98932
1648.4673 333.36835
1650.3342 330.45288
1655.0989 330.88956
1653.4438 327.81366
1654.6616 324.45816
1658.0288 326.58453
1659.7693 330.05896
1663.9663 330.93274
1669.6171 331.67798
1666.8899 335.1354
1667.7867 340.23062
1663.9453 343.24847
1660.585 346.5095
1660.7305 341.18393
1656.5486 340.70752
1658.6144 337.8821
1663.873 338.0427
1661.1865 334.96127
1657.2908 333.88617
1652.6553 334.25705
1654.563 337.5337
1653.1118 342.23972
1649.7245 343.65137
1645.3899 344.62576
1641.4702 344.65805
1641.0844 340.58328
1644.9606 339.70505
1647.6555 341.1294
1650.3175 338.11798
1646.0906 335.64377
1642.2898 336.71948
1637.5989 342.40344
1635.9673 339.3191
1637.9642 336.94223
1639.811 333.69678
1643.169 331.9018
1641.3896 327.2756
1643.9753 324.6303
1646.9731 322.81073
1649.4426 320.88464
1651.4573 318.52917
1647.5682 318.32877
1646.3539 314.7564
1645.1484 311.6672
1642.7246 308.17072
1645.9497 307.0858
1645.7603 302.76138
1642.6238 300.97296
1640.706 304.15884
1638.9275 307.96164
1635.9955 306.07428
1632.0557 304.58972
1630.928 300.904
1627.0271 302.00842
1627.1843 305.9697
1629.4458 308.21194
1632.8241 309.21674
1635.2384 311.54672
1637.8169 313.79694
1640.8086 311.7508
1640.806 316.28223
1644.179 316.84906
1643.4875 320.53214
1639.9873 320.55594
1638.8455 323.96597
1636.4208 326.81018
1638.641 329.62173
1636.3579 331.97
1634.6582 334.79727
1631.6604 333.0077
1633.2334 329.37582
1634.0505 323.84686
1631.0565 325.8787
1627.1466 327.07684
1628.9375 330.50284
1624.5978 330.19727
1621.0597 328.33585
1618.6873 325.82523
1619.6326 322.49838
1615.3196 322.73462
1614.1531 319.26367
1610.1107 319.35138
1606.9386 316.42416
1609.8313 313.65952
1613.6355 314.92896
1617.7949 315.35828
1618.8765 319.07742
1622.5585 316.6538
1626.7742 316.59045
1623.8837 320.9203
1623.2717 325.26578
1627.344 323.2575
1629.5026 320.43002
1632.905 319.7748
1636.4293 320.61777
1635.9973 316.81226
1631.6235 315.45956
1629.0269 312.22906
1624.8867 311.36578
1621.0271 312.19077
1623.6456 306.93222
1623.0587 302.22906
1618.6123 301.44153
1622.0986 298.06863
1618.4401 295.67725
1617.9286 290.91144
1620.6909 290.3561
1623.9304 290.61838
1622.0945 293.8718
1625.7312 294.67258
1627.508 297.99634
1630.3801 294.85788
1633.7689 293.17664
1637.5989 295.23837
1633.5786 297.78082
1635.9907 301.61356
1639.2391 299.2044
1642.0322 295.74765
1645.5197 297.92267
1645.4945 293.0643
1645.375 288.7759
1643.0796 285.72592
1646.4397 283.75754
1643.1538 281.53903
1645.9629 279.1482
1642.1305 277.84268
1639.2032 275.97098
1639.0563 280.37314
1639.4182 284.02158
1639.4905 287.83093
1641.1249 291.42975
1636.5071 290.59662
1635.1707 286.33774
1635.311 282.42743
1631.2964 283.81943
1628.9698 286.79733
1632.1265 288.99554
1628.9215 291.53827
1626.5266 289.43542
1625.0667 286.27368
1626.9283 283.32657
1623.6023 282.14917
1621.9579 286.49042
1618.4772 286.8359
1618.2537 283.6767
1620.9181 282.3993
1617.5339 280.53827
1617.8721 276.36563
1619.8652 279.13593
1623.0244 277.5562
1620.81 275.2402
1618.4556 272.2441
1621.1405 268.89606
1622.6978 272.5285
1626.7793 275.98392
1625.8529 279.44794
1629.1931 280.0262
1631.1534 275.41632
1632.5537 279.34357
1635.8508 278.06955
1635.6896 274.46
1634.763 271.2201
1630.929 271.19073
1635.2424 267.04077
1637.9441 268.67664
1639.314 271.8912
1643.3271 271.22073
1642.4672 274.1445
1645.6967 275.88806
1646.4192 272.72833
1645.8218 269.23068
1641.8838 268.49698
1639.4794 265.51297
1641.639 262.1826
1643.641 265.34177
1646.5271 266.2447
1646.197 262.42853
1644.5559 259.60104
1645.4613 256.57132
1640.0303 258.27878
1642.1659 254.18129
1646.1857 252.28098
1643.1587 249.81902
1645.6224 246.30502
1649.2057 241.94817
1650.168 237.19809
1645.8173 235.46225
1643.0061 237.81386
1644.35 241.74745
1640.3796 245.52014
1639.5127 240.65218
1635.9995 241.83449
1633.4789 244.35928
1630.9905 246.6808
1628.2147 248.83981
1622.6544 246.47267
1618.3291 246.58806
1614.1815 248.02623
1611.857 244.89618
1608.136 245.47878
1605.5366 241.77913
1610.3777 240.91373
1615.5548 242.02977
1620.2458 242.10849
1624.7848 242.49777
1627.2714 244.94035
1630.4943 242.16298
1627.8118 239.25494
1623.4568 238.51561
1618.9792 237.26436
1619.5916 231.72473
1615.7468 233.26994
1613.9198 237.06041
1609.4043 237.07072
1608.3044 233.06134
1604.5801 236.4233
1603.2462 231.50311
1607.3191 228.35042
1611.9668 230.53065
1614.3684 225.82907
1617.0272 228.30559
1622.3826 228.20988
1623.361 233.59378
1627.0808 234.94537
1631.2263 234.90979
1632.1588 238.96852
1634.9222 236.84673
1638.649 236.3771
1641.2654 233.22505
1646.2496 231.01558
1649.2952 233.35
1652.9808 232.34778
1655.5142 234.7055
1654.1934 239.89946
1659.5342 239.32933
1658.589 236.08998
1663.11 236.39665
1666.9055 235.00795
1670.9473 233.41537
1674.7808 232.5465
1678.4102 231.05301
1681.9504 229.9829
1683.1855 226.96445
1685.9142 229.50052
1686.2698 225.48329
1684.9578 222.341
1685.9973 218.39117
1683.1029 215.68108
1681.3044 219.70595
1680.5812 223.78792
1677.9628 226.49307
1673.6483 228.22076
1674.0522 222.87396
1670.4662 225.06963
1666.3798 225.68837
1668.3187 221.2378
1671.1771 217.6856
1676.6261 219.73825
1678.5933 215.51826
1674.0743 214.14963
1674.3167 209.6622
1678.0002 210.93259
1681.9556 211.25441
1685.8624 212.89023
1685.6277 208.30856
1680.7178 207.28609
1677.7029 206.27046
1682.9108 204.98453
1686.0793 203.18858
1682.6567 200.99927
1681.9514 197.4106
1686.0614 198.13742
1685.7908 193.77689
1682.1084 193.79417
1679.235 174.42053
1683.5493 172.93343
1681.072 171.2432
1683.1902 167.81691
1684.8558 163.64981
1682.1807 162.8405
1683.3964 159.51588
1680.4196 157.15627
1683.6552 156.09297
1683.7445 152.86786
1685.1538 148.90929
1683.3732 144.63074
1677.8995 143.67976
1672.8862 144.71272
1667.8389 143.38126
1667.5765 147.18561
1664.3872 150.28172
1662.8557 144.69904
1658.279 143.58815
1652.4781 143.4273
1645.4944 143.69266
1640.283 144.7847
1635.7445 143.63878
1635.6187 147.76431
1631.1235 147.74307
1630.7876 143.46129
1626.0574 142.7285
1627.0073 146.58028
1631.1796 151.90189
1627.9685 154.44855
1627.6865 150.81604
1624.4362 149.72716
1622.0751 146.47333
1621.2161 142.8734
1616.5938 141.77559
1611.966 142.45325
1608.1022 143.52327
1616.226 145.01894
1617.9016 148.4856
1613.1528 148.21613
1612.2059 152.78511
1608.3014 149.62816
1603.363 152.9443
1597.5637 155.76256
1594.7203 151.44434
1599.7427 149.84348
1597.842 144.91739
1604.0245 146.80801
1602.779 141.29434
1596.9568 139.50822
1592.822 146.8068
1592.229 142.15524
1592.2699 137.6528
1590.6047 134.74484
1588.103 139.72092
1584.3433 138.95691
1586.8246 136.0912
1587.5858 132.68896
1585.5533 130.41164
1584.4907 127.923416
1582.9275 125.1163
1579.1407 123.65523
1578.9353 127.71117
1575.4274 128.95801
1573.9487 125.2736
1579.2822 119.41797
1583.0046 120.40685
1583.4124 115.88115
1580.7527 114.59488
1577.8224 114.81645
1574.759 115.492966
1573.6979 111.32074
1574.1943 107.91919
1573.1652 104.312355
1570.9338 102.14284
1568.5428 99.957306
1567.1398 103.650986
1564.4502 106.90092
1560.3295 104.90724
1563.257 102.40268
1565.1925 99.2379
1568.1754 96.417465
1571.8866 98.04857
1574.9076 100.001595
1578.0697 102.100395
1577.1555 105.31307
1578.8657 109.6687
1583.3937 111.04522
1583.5928 107.29936
1586.7909 104.32397
1583.6996 101.87386
1581.0303 104.36332
1578.8323 99.6129
1581.1533 91.35988
1578.7512 89.75112
1576.7073 91.19719
1573.346 90.6015
1569.1958 90.40525
1573.4185 87.11625
1570.6353 85.922905
1567.596 86.52761
1569.6113 82.17672
1572.8125 82.643074
1575.866 84.51037
1577.1489 87.27475
1580.8203 88.49779
1583.2684 88.82594
1581.2029 85.87734
1582.7643 82.84089
1579.3215 82.70815
1575.9664 81.319214
1577.5198 78.41159
1581.7401 78.85655
1580.3152 75.11655
1579.4786 71.37711
1579.8394 67.36174
1576.1472 69.404
1574.92 65.96623
1577.5337 62.802593
1581.8806 60.59394
1581.3978 63.97764
1584.4948 66.74592
1583.437 70.93195
1585.0867 74.93544
1589.9329 74.85171
1593.1191 72.69865
1596.9966 75.03976
1597.0372 70.25366
1596.6088 65.992615
1592.5896 68.29694
1588.0067 70.471664
1589.0219 66.04678
1586.429 63.225086
1586.6191 60.048126
1582.3362 56.94475
1585.9586 56.975227
1590.804 60.75609
1592.7297 63.9825
1595.5817 61.40949
1597.8075 58.590546
1598.8063 55.92507
1593.9745 57.5674
1589.8593 56.687595
1591.7389 53.21791
1595.6377 53.849804
1593.7667 47.924023
1596.5792 50.206818
1599.7688 50.045593
1599.6459 53.06237
1602.1567 55.53014
1603.1991 51.847412
1605.2191 53.873013
1607.7102 55.98304
1610.8806 57.727497
1615.1012 56.686653
1619.2776 56.965244
1622.456 54.448524
1623.5416 58.24166
1620.8965 61.264652
1619.518 65.83741
1617.414 60.208755
1614.1677 60.4849
1611.3334 61.337517
1609.5481 63.606503
1606.8685 64.401146
1604.2349 66.03807
1603.5708 62.41802
1607.3463 60.28285
1605.1105 57.82569
1602.3656 58.587738
1600.6445 60.471386
1599.3264 63.259895
1600.8887 67.39104
1601.0002 71.951324
1602.733 75.29728
1607.6244 74.93017
1611.0817 75.44102
1617.3455 75.004875
1621.552 74.46992
1614.042 73.61572
1610.5635 71.21316
1605.7136 72.42855
1605.371 69.3536
1609.2745 67.76432
1612.5328 65.398384
1616.075 64.19184
1614.4897 68.73158
1618.0037 70.531555
1622.2155 69.780556
1625.0685 67.03905
1623.5693 63.79683
1628.7783 65.55976
1632.4531 64.293846
1636.6135 63.943172
1639.8527 66.383316
1636.1852 68.48077
1632.1653 69.48144
1628.1564 70.31499
1625.4907 72.75751
1627.0955 75.46299
1631.8518 74.53327
1636.006 73.62234
1639.3945 75.18067
1640.2528 71.32764
1643.0996 68.623116
1645.5151 65.27356
1648.1611 67.76404
1645.9587 71.584526
1643.3352 74.741684
1647.4701 74.86395
1651.6384 74.10689
1650.5876 70.41372
1654.8221 70.74315
1656.3289 74.448494
1658.8359 71.050316
1661.8628 73.29108
1666.6655 72.61414
1669.2588 70.61511
1673.415 69.94258
1675.8398 67.0841
1679.3224 66.73184
1679.7983 63.77075
1683.2365 63.212128
1681.6504 60.384163
1683.6058 57.902836
1684.7336 54.36977
1685.0305 50.704506
1687.073 48.270847
1685.1365 46.091763
1680.6865 44.158676
1678.5906 47.33339
1682.4679 47.38541
1681.1555 50.7221
1681.6118 55.178272
1679.0718 53.60089
1676.5308 51.644043
1675.2024 48.917187
1672.2213 47.29585
1669.6161 45.666912
1666.6748 47.0117
1668.9291 50.026802
1672.0009 51.259438
1672.5485 54.510338
1675.8289 55.535248
1678.6095 58.013577
1677.5115 61.72355
1674.1304 59.11956
1670.2346 58.258873
1668.4153 55.010105
1665.564 53.151318
1664.7739 49.74171
1662.4467 47.374058
1663.417 44.85556
1665.1616 43.202126
1668.1066 42.864494
1668.5143 39.053883
1672.1836 38.96459
1672.2611 42.822468
1675.4221 45.12581
1676.9084 41.872913
1680.0942 40.133053
1682.5703 40.943558
1684.5137 42.63583
1686.9658 42.645992
1685.7554 38.96805
1680.0553 37.58008
1675.7339 37.98473
1672.9546 34.433346
1668.5204 34.0281
1665.5878 29.818495
1667.1106 25.600939
1670.3479 29.638386
1674.1255 26.940796
1675.1613 30.624657
1678.1572 33.09452
1678.2964 35.538586
1682.9142 35.903526
1686.7317 35.100117
1684.1566 32.29239
1686.648 28.871552
1683.4038 23.820852
1683.1366 28.166128
1679.9697 30.454706
1679.0431 26.347498
1679.0632 22.1249
1682.1284 19.359005
1678.9883 17.32399
1676.0576 18.93687
1672.8845 18.4536
1668.9966 19.001076
1675.0502 23.056059
1670.9248 23.438324
1666.1161 21.528349
1662.9727 20.084095
1658.686 20.002003
1659.3849 23.728666
1661.9137 26.640095
1661.49 31.48325
1659.4048 36.939175
1662.2771 35.08834
1665.4849 36.073402
1664.662 40.226315
1661.9392 39.164845
1660.7489 43.262096
1658.9385 40.70076
1655.4993 40.78173
1656.4287 43.393642
1655.7657 46.525837
1652.4005 44.79364
1648.978 43.656456
1645.9807 47.515778
1644.3967 43.47978
1640.9774 46.18334
1638.3517 43.656277
1633.6929 44.471443
1637.1394 48.518238
1633.1494 49.17534
1630.7527 53.22624
1634.623 53.765865
1637.8809 52.554424
1636.6517 56.85087
1641.5968 59.82587
1643.4984 56.565052
1640.0154 56.4283
1641.419 53.19632
1641.62 49.57506
1645.053 51.705215
1649.7708 50.095165
1653.075 53.60211
1654.9695 49.817394
1659.0897 47.14136
1660.8802 51.16303
1657.6975 54.267437
1662.1759 55.969654
1660.3679 60.200974
1656.9218 62.516644
1664.352 64.181274
1665.6425 59.47737
1669.766 62.27596
1673.9756 63.562473
1669.5414 66.31487
1664.3657 69.10299
1660.8229 66.91372
1657.4413 66.49965
1653.4656 67.19481
1648.9214 63.364014
1652.6003 63.655598
1654.6692 58.415447
1650.1016 59.79564
1649.9453 55.962925
1646.7035 54.773216
1646.2197 59.192383
1644.6414 61.789986
1641.7494 63.568657
1638.3794 60.42901
1634.5188 60.163925
1631.9011 56.95214
1630.3375 60.3905
1626.656 61.067947
1627.3129 56.03692
1625.5951 51.27154
1621.3645 50.18992
1628.9249 49.213684
1628.4707 44.214397
1623.9342 45.382774
1619.6188 44.5337
1615.1893 43.11283
1613.9158 46.50933
1617.2584 48.987247
1617.3868 53.143024
1613.0657 54.02894
1612.5034 50.34001
1609.6632 53.365135
1607.4932 50.579075
1609.5636 47.01704
1610.1357 42.803913
1606.1589 43.840313
1605.1814 47.873917
1602.24 48.880096
1602.1803 45.269608
1601.6875 42.233566
1598.6531 46.29789
1595.892 43.279667
1590.5981 43.54151
1586.6354 45.827446
1590.2393 49.190624
1587.0444 50.3772
1586.1995 53.677803
1581.5457 53.131397
1583.353 49.72642
1581.9108 46.301846
1578.7332 44.140106
1584.1653 42.26756
1580.6438 39.542168
1580.2173 35.623608
1581.7 31.572977
1576.2087 31.418365
1572.2166 32.472073
1574.4794 36.324085
1575.9065 40.782333
1571.2191 44.315834
1574.7125 46.099346
1578.4865 49.140095
1577.463 53.078686
1573.9276 50.402912
1570.8882 53.20662
1566.5419 51.731983
1569.2703 48.537777
1567.0881 44.60234
1563.3402 44.547302
1562.6672 49.25395
1562.6317 54.58009
1557.9451 50.76668
1557.5972 46.591175
1559.044 42.80141
1562.6035 39.975742
1565.1749 36.790928
1567.8003 39.841034
1571.7062 40.031727
1568.9875 35.12526
1567.8885 30.919853
1569.6327 28.511103
1572.6777 27.141273
1575.4683 24.681028
1578.3037 27.706972
1582.156 26.259298
1581.9822 20.456375
1579.0466 22.340334
1576.07 19.824495
1572.3473 21.399754
1568.437 20.081886
1563.7656 19.76989
1563.0146 23.107359
1558.5566 20.759771
1557.6938 26.308329
1561.4313 30.19391
1560.8799 26.435259
1568.4512 24.184935
1565.1829 26.942286
1564.9004 31.975332
1561.6815 34.846786
1557.9478 32.365555
1558.1569 37.99942
1553.9946 43.432644
1549.7031 43.81487
1545.5461 43.5739
1541.5343 43.06974
1538.0455 43.804638
1534.4996 42.86338
1530.3346 42.830284
1532.4739 46.283634
1535.6154 47.370224
1538.5311 48.7786
1542.2991 47.13576
1540.9307 51.784885
1537.1039 52.241962
1534.8276 55.023926
1538.4766 55.259636
1541.2903 56.052254
1543.9457 54.985615
1547.1765 53.97671
1544.539 50.953632
1547.5132 48.267864
1552.7163 48.55782
1550.9445 52.189545
1555.824 53.852325
1553.1672 56.120693
1549.7529 56.345745
1548.5557 59.34938
1545.2786 58.68964
1542.0496 59.46056
1538.7932 59.151035
1535.7638 58.29069
1533.5939 60.499798
1531.6865 55.57706
1533.6196 51.433537
1531.2192 49.34222
1528.8474 51.020058
1528.4922 53.559387
1527.6147 56.173637
1524.6084 52.858204
1521.6238 50.074097
1526.0645 48.624218
1528.689 46.284367
1525.903 43.204384
1522.8021 46.58501
1521.6721 43.23061
1517.4098 43.50367
1513.5137 43.911125
1516.8291 47.634647
1517.9814 51.475163
1520.0513 54.65888
1522.5017 56.755184
1525.6841 58.44635
1529.8529 59.249264
1530.4666 63.465347
1526.5455 61.96354
1523.019 61.280514
1526.2366 65.36806
1528.2332 68.564224
1529.9076 72.06189
1532.5294 74.90016
1536.996 75.098755
1540.5752 73.79975
1544.3894 73.46415
1549.0171 74.741104
1553.4723 74.62059
1555.1313 71.307686
1554.8696 67.52836
1558.6171 65.67127
1558.3478 69.35072
1561.3134 70.97099
1564.4501 71.686485
1566.6606 74.24121
1568.4249 70.79011
1570.4429 64.91901
1569.033 59.466854
1567.7435 62.118107
1566.5059 64.93222
1565.8297 68.04577
1561.9711 67.50729
1562.7848 63.8621
1558.7124 62.130684
1555.2568 63.422653
1551.8735 64.928276
1551.383 69.60163
1547.5151 70.7025
1547.806 66.63721
1543.6808 67.12529
1540.2952 68.69155
1536.5349 67.686424
1535.2397 71.248314
1531.7834 67.83419
1534.4333 64.48963
1537.9287 63.191772
1541.4828 63.116093
1545.3962 62.91252
1549.1879 62.69404
1552.5388 60.256126
1556.2539 59.006805
1559.1906 56.206142
1561.2172 59.73393
1564.7048 59.632584
1566.9502 55.95009
1571.3752 57.446655
1574.4938 55.554157
1578.5137 57.278652
1575.4543 59.5746
1572.7064 62.053192
1571.0289 68.05587
1572.7377 71.062805
1571.3185 74.043365
1576.1582 73.56474
1574.4246 76.336975
1572.415 78.95157
1569.2467 76.663795
1567.5148 79.60294
1564.3542 77.27998
1561.5897 74.972466
1558.0747 73.64573
1557.6322 77.55303
1560.1637 79.86728
1563.2267 81.014496
1565.573 83.33187
1560.9707 85.31992
1557.6168 83.609116
1558.8666 89.64558
1564.1396 87.58998
1564.0076 91.41753
1563.8141 95.50781
1559.6296 95.29721
1560.6086 99.28362
1557.2825 101.35124
1556.0481 106.36218
1555.6926 110.8791
1554.9052 115.14959
1559.3142 112.81712
1560.0327 109.105125
1564.2993 111.08004
1569.3177 107.08372
1568.8062 111.0931
1570.9694 115.27214
1574.6296 120.3423
1569.9354 122.97414
1568.7864 119.12625
1566.2671 115.6814
1562.345 115.0771
1561.8624 119.39923
1558.1268 116.290924
1555.8706 119.49282
1557.1229 122.39872
1558.7129 125.523445
1559.9534 130.08878
1562.9374 127.01528
1564.3635 122.740776
1567.6421 126.59095
1570.0637 129.38185
1572.7617 131.83887
1569.0527 133.7292
1565.1711 130.70236
1563.7756 134.22618
1567.9608 137.41634
1572.7924 136.44109
1571.7927 140.65494
1575.043 143.4528
1571.8137 145.95863
1569.3789 148.1606
1565.7205 148.3541
1564.7284 145.30536
1562.3572 149.97043
1560.6652 146.82365
1557.869 146.02946
1558.1792 150.70232
1563.1669 153.41289
1562.3248 157.32051
1559.9465 154.6128
1556.9167 154.72758
1558.5222 158.54544
1557.1289 161.97772
1560.3064 162.38292
1558.659 165.25357
1557.4542 168.17879
1559.1018 171.21422
1558.2175 174.33531
1562.6467 174.21175
1563.7039 170.78079
1561.838 167.83351
1563.7708 164.94835
1562.9989 161.23178
1565.557 159.0193
1569.7827 159.76903
1567.247 162.72763
1567.5985 166.48795
1567.1759 169.6946
1567.2438 174.15775
1569.9242 172.00505
1572.2377 168.9362
1571.6685 164.86961
1573.6864 161.65504
1576.9027 159.27194
1573.4661 157.04787
1567.0732 155.929
1567.1759 151.951
1570.8098 154.13013
1573.9047 151.61781
1578.4707 155.04134
1578.6125 151.3926
1583.3489 151.9725
1582.9253 148.21858
1579.2668 148.02231
1575.632 147.64299
1579.5029 144.57559
1577.6357 141.19405
1576.1683 138.1025
1578.5779 134.40143
1576.1953 132.73679
1581.188 130.5953
1584.0262 133.1305
1582.1957 135.18936
1580.2659 137.72974
1580.973 140.76738
1583.3318 142.6878
1584.4788 145.62349
1587.6833 143.47853
1588.1748 147.54942
1588.3136 151.32126
1590.2925 154.5066
1591.9141 157.76584
1593.9478 160.65192
1598.051 161.20464
1595.322 164.68428
1598.9426 165.42177
1596.4486 169.23729
1591.4318 165.0091
1588.85 162.92075
1586.9346 159.27722
1584.6056 155.82742
1581.2308 158.7719
1583.9601 162.99643
1585.6903 167.15268
1580.0198 163.01146
1576.7161 164.73415
1576.3872 168.89767
1573.1914 173.81122
1578.1475 173.32518
1581.1062 168.12129
1583.1046 172.7364
1587.5892 173.83568
1588.735 169.41376
1592.9929 168.07564
1592.3496 171.56963
1593.5442 174.39838
1598.1798 172.23264
1600.57 174.47685
1604.1521 172.11745
1608.439 170.44092
1608.7195 174.49213
1613.1909 171.85109
1616.7424 173.41772
1620.7428 172.71292
1624.8373 174.26637
1625.0461 170.81735
1628.5015 170.25352
1629.7883 173.96124
1631.9288 170.65935
1635.6051 170.60419
1634.6986 174.16681
1638.906 172.87576
1642.8024 173.72319
1647.2898 173.37177
1644.4539 169.7333
1640.9324 168.44504
1637.6085 167.37286
1633.9287 167.58533
1631.2786 165.26704
1629.4249 166.92162
1626.2604 167.02948
1627.8595 162.85757
1625.0063 164.23865
1622.3772 163.15775
1619.783 161.52315
1616.4263 162.31924
1622.465 167.82596
1618.8531 167.3922
1615.0706 166.69781
1611.1626 166.9695
1607.5674 165.59132
1604.2395 166.80661
1600.9854 168.56947
1602.8905 162.82523
1601.259 158.6846
1604.8115 157.5072
1608.2158 155.09883
1612.0049 157.45789
1607.6636 160.90504
1612.0446 162.18736
1616.0044 157.8798
1619.6228 156.34201
1616.6919 153.06549
1620.7278 151.15776
1623.4746 153.8161
1622.3918 158.28079
1625.4128 160.21716
1625.687 156.76492
1629.0933 158.46704
1630.3707 161.17036
1632.6514 162.38991
1634.8124 164.7086
1634.0709 158.93643
1631.4987 156.08722
1634.3185 154.44862
1635.2604 151.25528
1639.3499 151.72658
1642.5204 149.15778
1646.383 149.06577
1649.2432 146.21815
1652.7825 147.68765
1656.7458 147.29558
1660.0048 149.29776
1661.8152 152.7059
1658.4308 153.66248
1661.1364 155.89896
1660.7611 159.39223
1661.3079 163.91054
1665.6948 163.74693
1666.1711 167.47542
1670.4463 166.57855
1672.9927 169.7053
1675.444 165.75613
1674.7035 162.93343
1671.4474 162.59221
1668.6082 161.47356
1667.3993 158.03632
1664.2089 160.05945
1664.6748 155.40334
1668.7698 154.36841
1668.312 150.8132
1671.8442 150.25616
1675.4567 149.73918
1678.5162 147.67508
1681.8179 149.20544
1680.2924 152.83394
1677.1836 153.5429
1673.4297 154.53915
1671.2512 157.87352
1674.5023 159.4235
1676.9734 157.1892
1678.5767 160.96315
1679.6207 164.93869
1677.9573 168.05832
1677.6667 170.95268
1675.2212 173.56444
1671.3478 174.04556
1668.1409 172.08588
1664.1025 174.22624
1663.4485 170.4166
1659.3235 173.4488
1655.303 173.26128
1656.432 169.34566
1660.3322 168.13594
1656.8699 164.6109
1656.895 160.63452
1652.5461 160.98763
1648.1138 158.00052
1651.0594 156.01227
1653.5706 156.9266
1655.6732 156.6965
1657.9728 157.05765
1655.0974 153.22177
1654.7339 150.5836
1650.5925 151.49417
1647.5154 153.61339
1643.9895 154.27763
1641.6412 156.96432
1637.4266 155.99763
1638.6373 159.7605
1636.2952 162.1649
1639.7756 164.17218
1642.411 161.22772
1645.9714 160.52518
1644.5269 165.04518
1648.1338 167.89468
1649.2471 163.52615
1653.0566 165.78448
1651.9055 169.29253
1651.0105 172.2454
1651.957 175.00845
1659.9137 202.7712
1654.9257 205.65129
1659.3859 207.15163
1663.321 204.47179
1665.7106 201.01372
1669.9661 199.04176
1673.9661 197.97217
1677.7466 196.53773
1678.6082 201.81104
1674.1443 201.9832
1674.5508 205.4041
1670.1804 203.26566
1667.3027 206.08974
1670.9124 207.96532
1669.0754 212.23788
1664.3842 208.83806
1659.8289 211.2019
1664.1453 212.84207
1665.8027 216.57155
1659.7659 215.39012
1660.6482 219.19478
1664.4197 220.64116
1661.8209 223.5385
1660.0463 227.5268
1663.1196 226.78305
1668.6244 229.7129
1664.341 230.52394
1660.7202 232.18216
1656.5181 230.40674
1657.0845 227.26004
1655.9507 224.86275
1652.8142 225.03493
1652.2826 227.90535
1650.0525 229.95515
1647.4814 227.20435
1643.0686 229.58546
1644.4946 224.88571
1646.4277 221.5788
1649.4454 223.72011
1650.7173 219.00937
1653.4962 221.45781
1657.787 221.93481
1655.5342 217.33229
1651.5175 214.1468
1655.2711 211.4506
1650.8411 207.92947
1647.408 209.72446
1646.8372 213.44313
1644.6248 208.4195
1641.7971 211.00465
1638.1494 212.73932
1633.9072 213.1188
1636.7373 216.85602
1642.3523 215.56827
1647.056 217.47295
1642.9581 220.1051
1641.0825 225.58786
1639.2832 220.17221
1634.5289 221.18031
1637.0948 224.73122
1638.4219 229.33333
1635.8159 232.82953
1633.8574 228.97592
1630.0232 231.2038
1627.1025 228.56288
1625.1533 223.82578
1631.4287 225.2662
1629.3645 220.9364
1632.3867 217.15524
1629.3033 215.35484
1625.6432 217.68227
1621.3328 219.25485
1619.2898 223.43178
1614.7314 220.99168
1610.9558 224.65355
1607.5558 223.54442
1602.9207 226.42854
1598.2244 228.134
1598.9419 232.64613
1593.8027 230.15916
1594.5464 234.40562
1598.5305 236.56923
1596.2529 240.10043
1601.4263 239.45615
1600.7092 243.35983
1603.2451 246.22574
1605.9408 248.44574
1609.7803 250.20508
1613.3206 252.48492
1617.8405 251.35773
1621.6294 251.85713
1624.7887 249.69847
1626.612 253.16824
1630.3201 252.413
1634.4465 254.545
1633.4683 250.3626
1636.1018 247.05351
1638.5148 250.43474
1638.3276 254.62172
1635.1787 258.54645
1637.8103 261.9365
1634.6104 263.0953
1632.2048 266.88666
1629.3866 265.0306
1628.3408 268.05936
1626.9604 272.60962
1625.2368 269.64578
1623.9756 266.37656
1626.1111 263.62482
1628.2413 260.29385
1631.0707 262.70328
1631.6837 259.46707
1629.8856 256.26456
1624.4202 255.6439
1625.3633 258.9958
1622.5111 261.49463
1620.275 264.80573
1617.9462 267.79648
1618.2671 261.46976
1620.8002 257.2945
1617.249 255.79706
1612.8158 256.5948
1609.1511 256.6848
1605.8804 259.12488
1604.0012 255.56665
1607.0049 253.0423
1603.5994 251.6409
1601.1537 249.84012
1598.8625 247.40936
1596.3539 244.59642
1591.62 247.30098
1594.7123 249.49619
1597.2639 251.85236
1600.0737 253.8786
1600.8955 257.3624
1602.0674 260.9862
1598.6294 259.88083
1596.6672 256.36917
1593.6394 259.18646
1597.2241 262.45416
1594.1738 264.54214
1592.501 262.46048
1590.0234 265.53125
1585.4043 267.67206
1586.8849 264.72745
1589.4727 261.28195
1585.5702 260.57025
1581.9612 256.84262
1577.3585 258.48123
1574.1914 261.00684
1571.8774 263.7909
1569.3281 265.7202
1567.2979 267.98193
1564.0437 270.0717
1561.8335 267.81985
1565.0337 264.82526
1564.4875 260.82434
1568.5569 261.8812
1568.0063 258.09067
1571.6359 258.85544
1573.4272 255.88387
1572.9259 252.33641
1577.3456 253.64447
1581.5021 251.77063
1585.5736 253.58643
1588.4496 257.09677
1593.0668 254.8308
1590.2266 252.08517
1586.7639 248.80983
1582.9336 246.7367
1578.5605 248.16183
1574.5618 249.42165
1571.4227 246.57935
1575.208 245.32915
1580.1023 243.31969
1584.9774 242.21841
1588.3281 244.14561
1592.5719 243.13326
1591.4353 239.76668
1591.4532 235.99602
1589.3748 231.8978
1585.1711 233.35312
1587.7839 237.62852
1583.9482 238.1491
1580.1433 239.17908
1581.0356 234.86382
1577.2269 236.48227
1574.2036 237.8967
1576.4261 241.46086
1572.701 241.73386
1570.1842 243.20377
1570.9963 238.26485
1567.645 239.99976
1567.1956 243.69496
1563.4966 241.48637
1561.7288 244.59059
1558.2498 243.17853
1557.595 246.9787
1559.4299 250.08853
1559.03 252.54506
1556.1512 252.67946
1554.3579 249.55547
1553.7699 245.6148
1549.7631 247.7136
1550.3077 251.88196
1548.2461 255.22145
1543.8232 255.06998
1545.9075 250.08586
1541.929 251.0774
1537.7733 252.47223
1539.932 256.11273
1535.8412 257.2663
1533.4982 253.92545
1529.31 255.23811
1526.2129 257.9305
1528.1486 261.87878
1522.9978 262.7857
1521.3845 258.39206
1517.4993 261.74292
1512.1926 262.32724
1510.5087 265.43414
1515.117 266.66794
1519.8579 267.5546
1516.4641 271.54584
1518.8284 274.78577
1515.5568 277.42715
1511.3564 270.23294
1511.7954 274.5964
1510.7789 279.1833
1513.644 281.6986
1510.9915 285.22342
1513.2506 289.27222
1510.5531 291.01288
1511.2094 294.82233
1509.9899 298.25595
1512.7351 298.744
1515.5376 300.49036
1518.5308 298.15045
1515.4054 296.24115
1518.043 293.2077
1514.4586 292.52234
1515.7867 287.17847
1519.9565 286.6138
1517.7211 283.00104
1519.975 279.79617
1522.2355 276.13638
1525.0282 278.13913
1528.8577 277.7938
1531.5446 275.10458
1529.742 270.5232
1526.7019 272.86105
1522.4427 271.8857
1524.3549 267.65475
1527.4839 265.88968
1530.7944 267.37427
1531.8154 264.51025
1533.3899 262.45383
1531.6362 258.80734
1535.9823 261.4495
1538.7186 260.27267
1542.0955 259.43872
1540.93 263.0437
1540.8442 266.71024
1544.282 265.19995
1544.94 261.7821
1545.5918 258.44046
1548.9685 259.33078
1552.2483 260.53183
1555.6174 263.23508
1556.854 259.40845
1553.5337 257.17963
1553.1057 254.00034
1557.8254 255.854
1561.5753 254.38924
1563.1481 251.67729
1561.048 247.86964
1563.9025 248.26044
1565.5642 245.94402
1568.7454 248.16537
1566.2554 250.71336
1569.6644 251.2574
1569.4028 254.66194
1565.863 254.51256
1564.0674 257.13373
1560.9186 258.03857
1559.9226 261.27435
1561.0344 264.03558
1558.6151 266.44147
1556.8619 268.4518
1553.5356 266.86557
1551.042 264.53223
1547.9246 263.31
1547.6887 267.07874
1550.7019 269.5753
1546.6189 270.33276
1543.661 268.97
1540.8049 270.7868
1537.6732 269.95483
1537.264 265.3072
1534.3253 267.94513
1534.053 272.00375
1536.9077 275.1923
1534.3693 278.92685
1537.7375 282.10138
1533.3939 283.73248
1535.3948 287.21204
1540.9686 286.76184
1538.3115 287.79562
1535.4845 291.74002
1532.0851 288.75986
1529.382 291.83594
1528.6643 286.41086
1529.2222 281.88943
1523.9255 282.60553
1524.2886 286.79584
1525.1266 290.99164
1520.7959 290.90894
1522.1538 295.79703
1526.2949 295.4764
1529.5364 298.12555
1526.5648 300.65506
1522.3397 300.08987
1519.4243 302.29892
1524.4943 303.9548
1529.1093 304.7364
1532.5781 306.5805
1535.9937 305.85367
1537.1511 302.5879
1532.5654 301.16272
1532.6926 295.3069
1536.8904 298.53046
1538.4048 295.27026
1540.8142 292.50137
1543.6877 290.53735
1544.9521 287.3828
1548.5051 289.29242
1551.9285 287.0762
1552.4315 291.66534
1554.2341 295.14935
1554.8131 299.23932
1554.4313 303.06082
1552.138 306.159
1548.3639 306.63312
1547.2924 302.80502
1549.5918 300.02316
1549.5941 295.97357
1546.6427 293.24643
1543.8611 297.39194
1541.6399 301.28986
1543.7142 304.86154
1545.0225 308.2216
1540.2179 306.4945
1537.1235 309.0325
1540.5762 310.72168
1542.7527 309.78564
1545.2957 312.25854
1548.1139 310.1715
1552.1373 310.51596
1549.478 313.639
1553.7622 315.23032
1557.973 315.31964
1560.8562 317.82635
1565.4519 318.5746
1568.7415 320.80682
1572.5183 319.56406
1572.619 323.09393
1575.9009 320.63144
1576.3529 324.21368
1579.6951 325.36035
1582.8964 325.7706
1586.1621 326.49194
1586.7397 323.40805
1590.4495 319.98373
1590.5295 324.02686
1589.122 327.9621
1593.0508 328.00198
1597.231 330.3006
1590.7069 351.3179
1595.5527 355.28842
1599.2898 358.2142
1598.6766 362.6322
1602.8918 361.94727
1605.6954 365.10992
1605.103 368.9313
1602.1565 370.4775
1600.6521 373.12967
1598.3544 370.60342
1601.017 366.60413
1597.0398 367.23474
1594.6482 364.31317
1594.4453 359.95758
1590.4321 362.2883
1588.5182 358.6744
1591.2861 355.76984
1586.0697 353.96088
1585.2668 348.83463
1580.851 349.71585
1575.2505 350.95108
1578.2104 346.56448
1574.3352 345.15973
1572.6143 348.29233
1570.2522 344.74588
1566.5928 345.28357
1563.1349 344.88974
1564.6595 349.4506
1560.5618 349.3502
1558.5221 352.8242
1560.4366 354.91516
1558.0657 357.47964
1555.2927 354.37845
1556.7461 350.34378
1555.4481 347.2112
1559.648 345.59436
1555.4773 344.2385
1550.2302 345.35336
1548.5092 349.0032
1553.0094 349.65002
1551.4792 352.51233
1547.315 353.60553
1550.8873 355.66205
1553.0266 357.631
1551.6234 361.30026
1547.5999 357.3898
1547.3655 360.87057
1544.0497 364.47607
1543.5942 359.86737
1541.891 356.75317
1542.9777 353.5604
1544.3131 350.41858
1543.6915 346.71494
1538.4373 348.6872
1538.7734 352.78592
1534.3972 351.10373
1531.1276 352.83862
1528.6562 354.96936
1525.8279 357.3842
1522.4572 359.76874
1526.4843 361.67197
1530.6418 364.33203
1527.4634 367.02917
1531.1364 369.2177
1533.5712 373.54187
1536.226 378.21658
1540.4594 375.44077
1537.733 372.6546
1535.6349 368.69205
1535.3977 364.53125
1534.03 360.72235
1529.9541 359.25064
1533.6554 356.03928
1537.495 357.28348
1539.3344 361.19614
1539.7179 365.37036
1541.7064 368.78104
1543.5968 372.2782
1544.9275 376.67947
1553.4062 378.0705
1549.3456 379.76764
1546.4735 383.75162
1544.1301 380.8756
1540.1437 379.5647
1535.1626 383.18924
1540.4442 383.9369
1541.9637 388.1375
1536.6184 387.5925
1530.2855 383.57013
1532.1893 379.58582
1527.443 379.82767
1523.5425 378.69446
1522.586 383.12878
1526.377 383.314
1527.3794 387.31772
1524.3236 386.42468
1521.5399 387.87744
1518.5051 384.9711
1519.9438 380.81915
1519.3718 377.00616
1518.5029 372.515
1522.0199 371.18216
1521.839 374.71213
1524.9006 374.81744
1527.4913 375.99805
1530.7585 376.2921
1528.8667 372.4177
1525.6342 370.96768
1523.5886 367.82715
1523.8656 364.28714
1519.748 363.35547
1519.84 367.88464
1516.5842 366.54138
1515.256 370.3997
1513.0298 374.21014
1515.6427 376.34473
1515.9658 380.17654
1511.5032 380.0304
1514.392 383.80014
1510.696 385.824
1510.5151 390.68472
1510.6377 394.5829
1514.5359 388.3886
1518.033 389.31012
1519.9562 391.69012
1519.5994 394.61356
1515.4338 392.8417
1513.5875 396.55417
1516.3501 397.89078
1519.4485 398.1276
1523.1754 396.63116
1527.4922 396.8204
1531.4504 400.82877
1532.4624 396.82523
1530.0201 393.3624
1526.5054 393.70224
1523.1279 391.9818
1525.8044 390.51044
1529.5864 389.96356
1532.0446 387.377
1533.8506 392.18564
1538.6394 392.18173
1537.453 396.78503
1536.1033 401.28497
1536.1082 405.51733
1532.0948 405.99277
1528.496 404.1418
1526.6506 400.3905
1522.6544 401.5948
1518.1543 402.3793
1515.5885 406.2951
1513.9484 401.00928
1509.3271 398.49606
1510.6182 402.59943
1509.4237 405.99042
1511.3749 409.3827
1509.2725 413.0377
1515.9031 411.46997
1520.7612 406.30963
1525.3047 406.71042
1521.5897 410.48584
1525.0807 413.37698
1525.2028 418.60754
1522.2208 423.2442
1517.716 420.96613
1520.5261 418.38586
1519.9857 414.47443
1515.5872 416.92825
1511.3136 416.63913
1509.6586 421.58124
1513.5807 422.73584
1518.0488 424.92633
1514.9504 427.83997
1509.6277 427.8262
1510.714 432.0387
1509.6553 438.2429
1513.7294 442.57608
1509.2794 446.1055
1508.9631 451.96613
1513.7887 450.5317
1512.9614 456.47028
1508.9868 458.3057
1512.6864 462.16714
1508.4006 464.388
1509.0177 469.84283
1512.8507 473.5255
1508.3951 474.96106
1508.9764 481.51834
1512.9983 478.23093
1514.6282 481.944
1519.5183 481.25616
1523.5542 479.528
1517.6382 476.13828
1516.6982 470.97562
1512.9803 467.22165
1517.4513 466.13257
1519.1683 462.55756
1516.4727 459.85342
1522.8976 460.44366
1526.4563 457.42914
1527.6833 462.4958
1527.9152 467.0063
1526.7294 470.98325
1522.8713 465.62793
1521.664 470.42526
1522.0686 475.3
1526.4093 475.35983
1528.2009 480.02002
1525.6746 482.6993
1532.8572 482.21582
1531.3635 478.42734
1530.4894 474.77603
1531.66 471.21875
1533.632 468.51617
1533.0137 464.85516
1534.3771 460.8165
1538.271 462.9937
1540.2645 458.86343
1536.4749 455.3741
1531.246 458.636
1531.1555 454.2199
1526.7219 452.14835
1529.9458 449.45953
1529.779 445.1858
1528.0927 441.93027
1524.9674 445.6093
1522.8724 449.01996
1522.91 453.89
1520.4575 457.00406
1516.9061 454.953
1518.9288 451.32816
1517.5151 446.7759
1520.1489 443.03223
1514.7234 435.94092
1518.9152 438.60272
1524.1011 440.10803
1524.5072 435.46036
1520.7158 433.9316
1517.1384 431.52557
1521.009 428.83704
1524.768 427.57422
1526.4908 423.76956
1530.1406 421.54944
1531.0905 417.31516
1529.2839 414.039
1529.359 409.69485
1535.3679 409.51483
1534.7148 413.49484
1535.3647 419.17493
1534.8441 424.5278
1529.9393 426.80075
1526.0526 431.54004
1531.0763 434.5779
1530.549 430.78424
1535.1425 429.27588
1535.4598 433.45142
1535.5647 437.76016
1531.47 438.91434
1528.0159 437.3177
1533.5945 441.62186
1536.4624 443.8052
1533.7356 446.28088
1535.1709 450.2335
1539.642 449.98276
1542.1638 455.07635
1543.5841 451.53848
1544.8275 448.65253
1547.9952 450.71075
1546.8652 454.00766
1548.1719 457.33017
1551.7421 455.7524
1550.9108 452.47678
1549.5286 448.40884
1552.3325 449.2872
1555.0566 448.5555
1557.574 449.6446
1554.3859 451.71735
1555.4482 454.28555
1558.1517 456.25424
1555.1343 458.20975
1552.2976 459.90875
1549.5128 461.78436
1545.2039 459.6487
1543.1443 463.262
1547.1726 464.95908
1546.8192 469.1922
1549.3029 472.35947
1552.7389 474.25732
1556.1929 476.7765
1551.6472 478.3406
1547.0785 477.00464
1543.5106 473.04483
1542.4551 467.5432
1538.2847 467.7684
1538.4281 471.7665
1535.0212 473.8984
1535.2936 478.07346
1539.4695 476.2571
1538.5392 481.7558
1542.5847 479.40897
1546.0695 481.88837
1551.2073 482.08746
1555.77 481.3127
1559.6155 481.55786
1560.2094 476.9739
1558.3804 473.0137
1563.5225 474.05893
1562.203 470.962
1559.5178 468.3225
1557.9257 465.03995
1555.496 470.7724
1553.5452 468.31784
1551.008 466.23993
1554.5778 463.2424
1558.3961 460.6387
1561.2351 457.309
1564.721 459.2422
1562.2218 461.5459
1562.5723 464.86017
1567.034 462.4165
1568.461 465.9931
1564.7258 467.76746
1567.6478 470.7429
1571.1959 473.59967
1574.02 477.05856
1576.2826 473.2472
1572.27 470.1051
1571.9662 466.58084
1571.866 462.4989
1570.4729 459.44916
1567.5154 457.42386
1570.3359 455.7402
1574.0314 455.89038
1574.4963 458.94888
1575.71 462.2248
1575.1326 465.2028
1576.0502 468.92148
1579.3534 467.18762
1579.3026 464.09402
1578.5662 461.32852
1583.074 465.3435
1583.2599 469.22812
1579.9583 471.1204
1581.4275 474.57053
1578.1321 477.68997
1583.6396 477.38138
1588.2793 475.87073
1593.1337 476.38254
1595.2239 472.7794
1590.9241 473.0414
1585.9744 473.05057
1586.6467 469.71976
1589.0717 468.37762
1591.9148 469.9691
1591.379 466.20212
1594.8647 466.56815
1597.5144 468.9713
1599.6028 471.96976
1603.698 475.76456
1603.9165 470.98776
1599.0192 465.1342
1597.0289 461.7778
1599.239 457.98776
1595.1763 457.2625
1597.2026 454.03543
1599.4373 450.84778
1597.7129 447.0791
1594.7264 450.35168
1591.7942 454.57547
1587.4146 455.74493
1583.7025 455.45538
1589.488 458.53586
1592.9497 459.79907
1592.6516 463.17728
1588.8186 461.94467
1587.6211 465.75613
1585.7686 463.55322
1585.1887 459.91403
1581.9456 461.62543
1581.5513 458.1381
1578.0098 458.9143
1577.955 456.13577
1579.8582 453.92282
1575.9297 452.66092
1572.6406 452.77805
1569.6782 452.20276
1566.5452 452.83664
1564.4868 455.55725
1562.4404 452.865
1559.0697 452.74142
1560.9915 449.1949
1564.736 449.24542
1568.546 448.93103
1572.5603 449.20236
1576.0007 448.79843
1578.7849 449.88144
1581.96 451.59586
1583.1497 448.61545
1586.2161 451.6714
1590.5066 450.54095
1588.3081 447.17133
1589.8235 442.564
1593.1202 445.74832
1596.3341 443.14096
1597.9547 439.86334
1601.9154 439.4277
1604.0627 440.6539
1603.5276 443.19904
1600.2246 442.87106
1601.3873 446.1998
1602.7043 448.66418
1603.3737 451.24423
1601.8835 454.20892
1603.0796 457.42725
1606.1774 458.93
1610.355 457.48352
1609.0605 461.55804
1605.5277 463.77454
1602.0399 461.65866
1602.6025 467.0442
1608.1545 467.20334
1609.0664 471.98203
1612.9292 475.06693
1615.349 471.75668
1613.0974 467.69992
1612.5149 462.85553
1617.0393 462.76425
1619.0508 458.61502
1620.2322 453.93784
1615.9714 452.1949
1612.9374 449.8788
1614.5437 457.10706
1611.0956 453.3755
1607.1869 454.88547
1605.5569 452.81918
1605.8528 449.1529
1608.2029 450.5308
1610.2252 448.8338
1608.07 446.30548
1605.1925 445.51785
1607.1896 442.15973
1610.1309 443.06863
1610.4252 439.21332
1608.7427 435.3315
1607.7627 437.46237
1606.3744 439.34662
1604.1426 436.9767
1599.9854 437.43875
1601.049 435.1106
1598.9037 432.5567
1596.4003 430.22507
1594.1807 433.07358
1596.1707 436.2535
1593.5416 439.6714
1589.6836 437.80652
1590.3296 433.9117
1589.5338 429.88614
1593.6277 428.38138
1591.4736 425.89624
1588.6149 425.22195
1590.2634 422.07828
1588.8661 418.42322
1591.0336 415.54074
1594.2958 413.57797
1593.6409 409.97964
1589.0248 412.48764
1588.8683 408.35062
1592.9873 406.58203
1589.1572 404.51852
1591.2803 401.66718
1587.6697 400.68118
1590.573 398.57468
1588.2194 396.67514
1585.7377 395.0726
1584.9734 390.28372
1587.9014 392.69492
1590.6216 390.61124
1594.089 384.86273
1597.6737 386.477
1594.6143 388.62064
1593.9675 392.35147
1591.3845 395.08176
1594.7853 395.61328
1596.9003 397.57996
1599.6648 398.08112
1602.2137 398.96747
1604.235 396.29184
1602.5232 393.1548
1599.0515 394.69287
1597.6963 391.3793
1601.4225 389.4936
1600.8429 385.51886
1598.2119 382.362
1601.149 379.5865
1596.223 379.13107
1594.012 381.00494
1591.1099 382.55002
1587.8752 382.5379
1589.5409 386.87677
1583.6394 386.75574
1584.8352 381.7531
1581.0948 382.16785
1579.0005 384.76126
1576.39 380.5099
1572.1575 379.43225
1567.8082 378.51672
1562.7628 378.30383
1558.2141 377.88156
1556.246 373.32108
1553.1223 370.39594
1549.1626 374.1614
1547.5906 369.36914
1548.0833 364.80856
1552.1461 366.03998
1558.1942 367.47128
1560.7588 372.90945
1562.767 369.40234
1563.8269 366.094
1568.3303 367.713
1567.0664 371.7744
1564.9133 375.01108
1570.7827 374.7899
1575.3872 375.47275
1579.9257 376.27182
1582.6465 378.02005
1586.536 377.00714
1585.326 372.41122
1582.3303 369.13736
1581.5502 372.21106
1578.3826 372.76395
1575.9922 370.29044
1571.89 371.02014
1572.8207 367.25345
1576.2542 365.33536
1579.1998 367.2279
1580.285 362.30356
1577.2509 358.2783
1575.086 361.76224
1571.4159 363.57404
1567.4463 363.4663
1563.6129 362.66876
1559.9429 362.13385
1555.9083 363.6443
1555.7693 359.70883
1561.5157 358.10004
1564.7822 359.34296
1569.005 360.12323
1567.9368 356.78452
1567.2954 353.23544
1564.2643 355.27698
1562.6526 352.28827
1568.3209 348.73383
1570.4308 351.5534
1572.3917 354.7185
1572.4229 358.38992
1577.4657 353.91196
1581.417 355.37122
1583.7544 359.1129
1585.9373 363.0148
1583.3723 365.98685
1587.0266 367.564
1589.3827 370.5662
1590.6421 366.03824
1593.0483 368.6205
1595.3331 371.15018
1592.792 372.87753
1589.5627 374.3943
1590.8044 378.222
1594.314 376.0825
1597.4058 374.34158
1598.6193 377.3773
1601.7642 376.12732
1604.8303 374.9467
1606.4668 372.66812
1608.8185 369.07123
1610.3944 373.35056
1611.101 377.74026
1613.0854 382.8436
1608.1649 382.20004
1605.8062 378.4653
1603.2509 382.3051
1604.5717 386.25842
1608.5078 387.14975
1613.195 388.01447
1614.8016 392.06604
1610.9835 394.3101
1606.7257 391.41583
1607.9629 396.6626
1606.6934 400.31528
1603.7473 401.96896
1600.6594 403.55228
1598.7622 401.54428
1596.2285 401.0735
1593.7507 399.1411
1594.1631 403.37842
1597.1195 406.0914
1601.259 407.04987
1599.6085 409.58286
1597.4137 412.06128
1601.2017 413.23376
1605.0323 414.18204
1608.4542 412.6234
1609.7325 408.2567
1605.0874 409.7095
1604.396 405.68546
1608.022 404.44827
1610.9995 400.82794
1614.9991 397.70822
1615.3387 402.32928
1612.8618 405.9286
1616.3599 406.69824
1614.9224 410.0971
1615.9807 413.58426
1615.4584 417.151
1612.6794 419.66934
1612.1567 412.6557
1610.4045 416.52094
1606.3884 418.1695
1609.0723 421.1768
1609.185 425.2866
1612.8645 423.77576
1616.1614 421.71082
1616.2976 426.88416
1612.979 428.0391
1609.0708 428.89413
1605.9827 431.044
1605.451 427.31647
1605.6633 423.3813
1603.4867 420.88342
1602.1166 417.24472
1598.2184 416.44498
1594.8496 417.15567
1592.3523 419.37518
1594.1609 423.99698
1595.3849 420.97504
1598.1147 420.1249
1600.4824 421.10614
1597.6487 424.38525
1598.3516 427.7773
1601.5735 424.4642
1601.9551 427.41293
1602.1473 430.2568
1603.038 433.01465
1605.6559 434.51636
1608.9564 432.51666
1611.7411 435.48108
1612.4727 431.67105
1616.4365 432.24316
1614.8765 436.06204
1617.0936 438.40128
1613.4563 440.65076
1612.0535 445.44336
1615.0183 446.54837
1616.5284 442.86615
1617.9465 447.85895
1621.0676 449.48022
1623.9998 450.74573
1626.9401 448.95486
1630.4095 449.9733
1633.7252 450.15848
1637.3639 450.25235
1640.316 448.99228
1643.7255 449.33994
1642.5071 452.61713
1644.7966 455.30554
1647.607 457.05524
1646.224 460.29556
1642.075 463.49423
1644.7721 463.37537
1648.1665 462.7964
1651.4432 463.10004
1650.4974 459.59042
1652.0563 456.42627
1653.4838 453.0677
1649.4135 453.5568
1646.9473 451.519
1647.1323 448.32733
1650.8423 449.58148
1654.2373 448.74118
1656.2643 450.86722
1657.8636 453.72
1656.352 456.52576
1661.2063 453.62503
1659.1001 449.24246
1663.068 449.4638
1667.5526 449.5497
1671.2715 450.09644
1674.4857 448.92584
1677.2002 453.33423
1681.2897 453.41528
1677.8396 449.67563
1680.8098 449.23953
1684.0195 449.40198
1684.4988 453.83795
1683.1616 458.3337
1679.1372 457.49893
1675.172 457.13242
1673.0084 453.88223
1669.0293 454.5967
1665.27 453.41895
1662.7462 457.48376
1658.6901 459.25192
1660.7366 462.1892
1658.5339 465.4477
1654.6875 460.08984
1655.037 463.89886
1653.8907 467.75238
1657.0505 469.82333
1660.222 471.9198
1661.301 468.54135
1663.927 465.84024
1664.828 461.7808
1667.1434 458.70624
1671.2216 458.65573
1674.9714 461.18457
1678.9277 462.40283
1682.9736 463.11584
1683.5841 467.66083
1679.1875 468.0158
1683.3677 472.27936
1679.0093 473.9573
1674.8242 476.00122
1682.4667 476.95837
1683.0603 481.18436
1677.8081 481.01135
1672.9045 480.48132
1669.1732 482.0918
1669.8059 474.60757
1670.7634 469.22015
1674.9644 471.00272
1674.8488 465.9453
1671.1339 463.15414
1668.0872 464.97025
1666.4872 469.68292
1664.2826 472.56186
1665.022 476.14096
1667.2078 478.93726
1663.9547 482.09305
1661.5256 479.10382
1660.8535 475.5522
1657.4285 474.33368
1657.041 478.7929
1658.4927 482.27722
1652.6415 482.24405
1653.1447 478.5333
1654.4651 475.22095
1653.6437 471.6609
1650.4528 466.50842
1647.1846 466.13647
1644.2732 466.6412
1649.5315 469.6378
1650.381 472.40036
1650.5458 475.51328
1649.1134 479.11078
1646.4216 481.69907
1642.3385 482.0496
1641.3883 477.41858
1645.3555 476.976
1646.9703 473.41846
1646.0046 469.78763
1642.537 469.80417
1643.1661 473.1691
1639.7916 473.64908
1636.9221 478.42627
1639.4778 480.695
1636.6064 482.35516
1635.2109 492.2776
1632.4792 482.59827
1632.9478 479.6774
1633.4519 476.48883
1636.3766 475.26218
1636.6929 472.38617
1634.9691 470.14948
1635.8728 467.3032
1636.9329 464.67242
1638.9857 469.4846
1641.4974 466.9482
1639.4646 465.4593
1638.2261 462.12616
1640.5483 461.10526
1643.1997 459.37708
1641.3275 456.5854
1638.6066 454.38034
1634.7314 454.368
1638.1863 458.26828
1636.0148 460.767
1634.3041 462.96823
1632.6902 465.44745
1631.7013 468.53723
1632.438 472.8677
1628.356 473.29645
1628.8574 470.34796
1626.7562 467.15225
1629.0715 464.26752
1627.8644 459.5779
1631.3806 461.15854
1634.3694 458.52493
1631.7075 456.63882
1629.0681 454.96432
1625.9288 453.70737
1623.5708 457.938
1624.5247 462.58566
1621.7036 465.21927
1618.3754 467.97375
1624.0724 470.37338
1620.2402 472.36627
1618.052 476.31387
1622.9414 475.39136
1626.5952 475.94934
1630.0435 476.89572
1628.7976 481.07236
1624.7922 482.54932
1624.7395 479.05295
1621.027 480.29614
1618.0565 481.89514
1613.7762 482.40298
1614.8674 479.0552
1611.0276 478.72015
1607.7609 476.9238
1609.1427 481.9783
1604.5807 481.22522
1599.9531 481.24924
1598.9597 476.09875
1596.0555 479.34653
1593.5844 482.23373
1590.5409 479.21625
1588.1572 482.49997
1586.4728 479.61627
1582.8336 481.7719
1578.218 481.67062
1572.9968 481.7866
1567.8828 481.47308
1570.1604 478.0102
1567.029 475.51492
1563.8973 478.5966
1563.668 482.28082
1557.7273 498.38782
1554.995 496.55316
1551.2543 497.5485
1551.865 502.0789
1554.7705 499.83362
1556.633 502.9994
1557.1711 507.0393
1556.7511 511.2574
1556.2347 515.306
1552.8368 512.05585
1549.0807 513.4502
1545.2388 512.88464
1541.8375 511.11255
1543.0802 507.34418
1546.1111 508.48715
1549.6349 509.47128
1553.4324 506.93222
1549.7227 505.53644
1547.5334 502.76053
1547.6826 498.5759
1544.1344 499.9379
1544.6917 504.4352
1540.2869 500.2025
1535.6664 502.03397
1538.0919 504.2935
1541.3457 503.673
1540.2878 507.51096
1537.9954 509.07812
1534.9769 506.58936
1531.1705 504.10437
1527.4564 508.52737
1531.3334 507.343
1535.3865 511.15442
1538.1396 513.6814
1540.7375 514.9248
1542.1525 516.6947
1542.0812 519.51086
1540.9038 521.96497
1538.0452 523.3097
1537.0024 518.9819
1534.3967 515.5755
1531.3992 511.6331
1526.8339 514.8162
1523.9679 511.23816
1520.9817 514.3309
1526.9572 521.2366
1530.5006 517.2061
1532.3676 521.59155
1534.054 525.3603
1537.7496 526.83435
1541.4366 526.9347
1538.2292 529.8194
1536.1576 532.5437
1536.2758 536.1621
1532.7385 538.4369
1530.5056 542.4583
1526.7319 544.31934
1525.1678 539.045
1528.2761 536.50446
1531.065 533.25824
1532.8335 529.46545
1528.4233 526.48175
1525.7911 530.7731
1522.4125 534.26636
1520.6406 528.52924
1516.4867 525.4184
1522.2402 524.09576
1522.5276 518.8194
1518.094 518.0344
1515.5713 521.5782
1512.1394 526.9325
1514.7561 530.22314
1518.1161 532.18634
1510.5411 531.8088
1509.4291 535.96277
1512.3853 534.6551
1514.9948 535.225
1518.4209 536.6533
1520.8439 539.9508
1521.9207 544.2575
1523.9634 548.30035
1529.3477 548.6704
1528.6111 553.1136
1526.5443 556.6926
1524.4377 552.1988
1518.5828 547.77844
1513.8112 548.9793
1513.9458 552.5267
1517.3704 551.5732
1520.3441 552.42487
1521.9122 555.5805
1523.3243 558.73645
1518.6078 558.2592
1515.8564 555.712
1513.0327 558.7844
1515.4293 561.42303
1517.5891 563.86633
1514.7534 567.63666
1511.7659 564.6607
1509.8832 561.4717
1510.6898 555.2199
1510.4486 550.93066
1510.0509 545.4857
1513.5829 546.12195
1517.2341 543.4348
1515.4912 539.46204
1513.0223 542.72546
1511.6052 539.3432
1507.8439 538.94794
1508.6396 542.0558
1506.5952 545.0595
1507.5062 548.3133
1506.7681 552.0033
1505.9668 555.7348
1508.0607 558.18115
1505.9185 561.42944
1506.514 566.2391
1510.1667 569.35657
1506.1576 572.5942
1509.8875 575.2175
1514.5845 573.01373
1519.3501 573.53326
1522.1462 576.129
1517.6094 578.3153
1513.0651 579.1383
1507.0239 581.6081
1511.2524 583.5304
1515.0039 586.2514
1509.0969 588.2258
1512.7678 591.15106
1510.8103 595.0656
1513.0674 598.2124
1514.4174 601.9094
1516.3442 605.7129
1519.853 610.55133
1520.1125 607.25104
1520.2367 604.2123
1518.3333 601.55
1517.4741 597.96875
1521.2515 597.1535
1522.1301 600.48834
1523.6655 603.36334
1526.5781 603.87396
1528.9486 600.77734
1530.0557 603.7894
1530.1027 606.73413
1531.8904 610.23236
1531.5758 613.76526
1527.3978 610.8721
1524.4907 607.8455
1523.36 613.4172
1527.0009 616.13477
1529.5833 619.2499
1533.2463 617.05676
1536.7039 613.94666
1537.7323 618.30707
1533.2328 620.9945
1531.1726 637.39044
1525.7056 637.92285
1524.1351 641.9824
1520.7899 642.4646
1520.8147 637.83856
1517.3188 640.89197
1514.886 637.9921
1510.108 638.0363
1507.0033 640.93945
1511.1309 642.76086
1514.9785 644.3337
1519.9666 646.35925
1518.3942 650.9514
1523.0278 650.40717
1522.209 654.72076
1517.8572 659.8588
1516.7698 655.74243
1513.0939 652.208
1514.5643 648.087
1509.0146 648.6373
1511.3973 656.2789
1507.079 656.5782
1509.0511 661.8464
1513.4917 661.19653
1513.5408 666.298
1508.6047 666.9193
1510.1964 670.8872
1508.8042 675.0989
1509.1173 680.0887
1513.9292 680.1268
1509.7917 684.51373
1506.9255 687.3245
1509.7867 690.4071
1508.9576 694.02893
1508.9127 698.1567
1508.8245 702.217
1513.309 700.2308
1515.0515 704.25256
1518.4932 706.2067
1522.0078 707.65186
1525.1787 707.0964
1528.5331 707.8918
1532.0642 709.6115
1535.7054 711.26373
1532.3193 714.1109
1528.5834 711.9685
1524.7549 712.2673
1520.9141 711.32416
1517.8656 710.46924
1515.1427 709.9945
1513.1238 707.7797
1511.349 704.86127
1508.3739 706.64197
1509.2266 710.72723
1507.0927 715.56085
1512.9402 712.48114
1512.3517 715.6964
1513.2494 719.6108
1509.0017 718.92145
1508.9271 723.98126
1511.6044 727.8904
1514.9474 723.1426
1516.4231 727.09125
1520.9373 727.7358
1523.3685 730.6697
1525.4655 726.1189
1528.8995 728.4187
1531.208 725.57806
1528.811 723.6807
1527.0724 720.82855
1523.4359 721.76965
1520.3936 723.7774
1518.0234 719.6038
1517.0662 715.08374
1521.4907 714.99854
1521.5199 718.4906
1525.0526 717.47217
1527.9885 715.861
1531.1852 717.69104
1531.1677 720.6966
1533.2556 722.7837
1534.0524 726.405
1532.8063 729.39954
1530.7616 731.6856
1526.7988 732.3627
1529.8833 734.68854
1533.459 736.33075
1534.8346 739.06726
1529.8468 737.84875
1526.469 737.2617
1523.4297 739.4584
1525.1742 742.4188
1520.6088 743.6133
1516.5039 741.80914
1512.3812 742.0541
1519.5658 738.7512
1521.987 734.8866
1517.4874 731.8134
1515.3486 736.75635
1511.7654 733.37885
1507.0803 731.1257
1509.1497 738.5441
1508.326 744.90015
1509.0658 749.4845
1508.2041 753.4485
1508.5015 757.4658
1508.6077 761.00775
1512.3096 760.0655
1511.3855 763.42474
1514.5911 764.48425
1512.5731 768.08466
1509.2819 766.75665
1506.9861 764.76447
1508.5443 770.865
1512.0687 772.766
1509.2538 776.35297
1513.7413 776.8495
1516.4844 774.4726
1519.8259 777.57513
1521.7125 775.2364
1520.1187 772.3962
1520.1301 769.12634
1515.6525 770.50214
1517.1165 767.03674
1519.4502 764.09564
1523.3352 766.4918
1527.9331 768.6701
1524.6346 771.15344
1526.275 775.71814
1530.9907 776.5173
1535.4943 775.9387
1536.0945 771.0366
1531.2224 771.93835
1533.852 767.8888
1530.9286 765.3758
1536.3599 765.07666
1534.6241 762.0602
1533.116 758.57477
1529.8029 760.26556
1527.0245 763.43555
1522.9791 762.4048
1520.9841 759.15497
1518.1257 757.869
1516.8383 761.5899
1515.0044 758.62665
1511.9846 756.26605
1511.8934 752.76263
1514.0092 749.87366
1512.3689 746.422
1516.6111 746.25287
1518.7108 749.4921
1516.6069 752.004
1515.3508 755.01587
1519.2454 754.35376
1522.8231 754.9547
1525.1019 758.83295
1527.198 755.6436
1530.8383 755.39856
1536.3942 758.3535
1535.8667 754.38794
1533.5795 752.9332
1530.9166 751.05536
1535.655 750.06757
1535.9215 746.4577
1531.3375 747.267
1527.9058 748.83875
1526.107 751.76605
1522.2415 751.05115
1521.5139 747.3862
1524.7212 746.6015
1528.1353 744.7581
1529.6462 741.6159
1532.3927 739.86145
1532.8491 744.46075
1535.6553 742.53015
1536.9556 738.8865
1536.4841 734.87537
1533.5986 733.46045
1535.6987 731.59827
1536.2705 729.04724
1536.9073 725.8093
1535.8436 722.2963
1538.3103 722.8772
1540.3992 721.8526
1539.4539 718.2514
1535.3049 718.7762
1536.2482 715.33136
1539.3099 713.5171
1542.5675 716.2978
1543.2413 713.2853
1547.5103 711.3057
1547.1862 706.94086
1550.6016 703.57635
1552.5562 698.2078
1557.9233 699.5359
1555.95 702.6087
1554.4446 706.519
1550.6628 708.58923
1550.0026 714.0409
1546.7594 715.46356
1545.4005 718.74036
1543.138 720.7152
1542.6605 724.10394
1546.859 723.0393
1549.4001 719.33795
1551.7596 723.3166
1554.606 720.30133
1558.2974 723.241
1561.7935 720.394
1566.6064 722.4007
1573.9053 722.3219
1570.184 717.91925
1569.777 712.832
1576.1796 715.8537
1579.387 720.09235
1582.584 723.04
1588.5254 723.3835
1586.6149 719.3408
1583.3628 715.8185
1580.7689 711.7718
1573.9469 710.4832
1577.8558 709.42804
1584.4326 709.8219
1587.2284 711.3056
1589.446 714.75073
1593.0186 716.6969
1591.481 720.28876
1593.8132 723.3339
1597.4724 723.1618
1600.6372 723.48303
1603.9886 723.1026
1608.1809 723.5078
1606.9249 720.7375
1610.4043 719.61566
1614.3088 719.7536
1612.7369 723.42993
1617.6055 723.3257
1618.0645 719.0871
1621.342 720.7748
1622.9006 723.7867
1624.9396 718.93536
1627.6334 715.9941
1630.0776 718.3924
1626.8586 722.5036
1630.647 724.38715
1630.4448 721.76746
1634.0416 717.66907
1636.4941 715.2439
1640.3845 716.23456
1643.8341 714.5168
1640.4581 720.24036
1637.1809 719.8771
1633.4814 720.9529
1635.2776 723.56165
1639.6252 723.7501
1643.2994 721.3768
1645.7737 723.3251
1649.3585 724.36255
1653.1272 723.6532
1649.2816 721.5993
1646.1553 718.3437
1649.6704 716.47656
1650.9178 719.57996
1654.166 720.4391
1656.9806 723.83014
1659.9424 722.1099
1657.6733 719.90955
1656.6638 716.871
1653.1958 717.01965
1653.4624 714.0204
1652.8069 710.98895
1657.4921 712.1711
1655.9696 708.6744
1659.2448 707.73785
1663.2532 708.983
1662.2719 713.27484
1659.3441 715.0944
1662.0256 718.0045
1662.6809 723.7259
1664.5347 721.06433
1666.5995 713.7873
1667.7937 708.86084
1672.1483 710.2953
1675.6332 707.2718
1678.2639 711.6399
1675.4258 714.98114
1670.9502 716.3816
1667.1918 718.33594
1668.1993 722.8267
1672.7244 723.024
1675.3948 719.8429
1679.0099 722.8202
1683.7852 722.3068
1681.1716 717.725
1682.8354 713.8986
1683.9999 709.8108
1681.7407 708.02515
1683.5719 703.4867
1680.2854 701.1072
1683.115 698.2077
1683.7891 693.25494
1679.8457 691.3515
1678.674 696.17633
1674.649 691.7071
1667.8398 690.74426
1663.6559 691.0576
1665.8444 694.4534
1670.2251 693.44666
1673.961 696.2572
1674.0425 700.4941
1676.8373 702.4933
1679.5488 705.58765
1670.8948 704.2928
1669.4014 698.82635
1664.8296 698.8475
1665.6617 703.56866
1661.0394 704.24243
1659.783 700.3841
1654.531 700.31714
1655.5398 704.21967
1652.0934 706.996
1650.3759 702.8196
1649.8601 698.5124
1654.9421 696.4449
1658.5775 696.3041
1662.2085 696.09094
1660.7275 692.95856
1659.3539 690.4301
1656.5961 692.2957
1653.279 691.1369
1651.3909 694.93976
1649.3114 691.678
1645.8512 690.8339
1642.8066 692.30164
1646.0925 695.25977
1645.3838 699.11
1645.6342 702.90906
1647.3916 706.31964
1648.9312 709.80597
1648.2888 713.40216
1644.6047 709.9334
1640.6711 710.3489
1637.0571 711.5884
1632.2649 713.9206
1627.9049 712.0608
1630.5173 709.9352
1633.7649 708.7794
1634.9551 705.42194
1638.5449 706.47754
1642.3827 705.49335
1641.2231 700.9714
1641.0927 696.7505
1639.1731 693.7959
1639.2468 690.68134
1635.5336 691.44727
1634.7566 695.0595
1636.9894 698.4643
1636.942 702.1951
1631.7736 703.19464
1627.4357 702.14777
1628.3113 706.559
1623.9961 705.3617
1624.4701 709.27313
1620.8451 712.0186
1624.4319 713.5731
1621.7673 716.3077
1618.0118 715.3172
1614.146 715.57715
1610.0168 716.34985
1611.4464 713.46454
1610.0509 710.80035
1613.5122 710.5483
1616.7288 711.71454
1619.7664 708.83405
1620.1793 705.7331
1616.2019 707.5603
1613.1809 706.4586
1610.875 704.30334
1610.0803 707.83417
1606.9906 708.9712
1603.2625 706.86774
1606.9794 705.3744
1608.2188 702.2808
1608.0803 699.57416
1603.3259 702.52496
1602.873 698.0256
1606.3386 695.82324
1610.3917 697.2917
1613.2803 701.41156
1616.501 703.82996
1617.4219 699.2533
1614.6172 697.20795
1620.9547 696.64044
1619.7141 702.01715
1622.8516 701.5525
1624.7317 698.68896
1625.9838 695.1881
1629.4238 697.8305
1632.8468 698.49615
1631.7958 691.9294
1628.0098 691.86584
1622.6128 691.446
1618.1858 693.1971
1615.0364 691.0242
1612.8865 694.30023
1609.7045 693.3597
1610.3123 690.5519
1606.43 691.52264
1603.2544 692.4606
1599.3678 692.1307
1597.7375 696.5183
1597.9873 701.09814
1598.6713 705.5841
1597.7795 709.9768
1601.6411 710.52734
1605.1033 710.99384
1607.8038 713.14795
1606.6621 716.4969
1604.4066 718.6575
1600.9154 719.76215
1604.2577 713.9579
1601.4843 715.17267
1598.1979 716.04675
1596.3184 719.5095
1595.0203 712.78235
1591.1417 709.29694
1593.5676 705.06775
1588.0203 703.8452
1583.2701 705.78253
1584.6411 698.9153
1591.8644 698.84985
1594.0042 692.469
1588.5149 692.59424
1583.1161 692.9379
1578.2456 691.55176
1578.385 696.28955
1577.8004 700.24677
1579.7903 703.83704
1574.6385 704.84235
1569.815 707.6788
1569.9106 702.94354
1572.7372 699.4537
1566.4512 700.53876
1565.4185 705.3176
1564.5592 709.84174
1564.4502 715.37006
1558.5975 716.56036
1553.1031 716.41437
1553.1125 711.1477
1556.0297 712.69305
1559.7845 711.2613
1559.216 706.8348
1561.4951 703.2851
1562.0521 699.35913
1564.0283 696.3155
1567.1034 696.22375
1570.2627 695.8607
1574.142 694.49023
1572.5146 691.1119
1568.2137 691.4878
1564.3365 691.6518
1559.7578 690.8792
1561.0614 694.57446
1557.3551 696.1766
1556.0027 692.73773
1552.7277 691.87726
1549.3025 692.8825
1546.5869 696.5018
1548.051 699.9077
1545.7413 702.7321
1542.6929 704.26605
1541.6116 699.7938
1542.0681 695.46655
1544.9019 691.52747
1539.7533 691.80896
1536.3822 689.88293
1537.126 696.1692
1536.7839 701.1465
1539.0332 704.3419
1543.2103 707.5086
1544.4991 710.498
1540.9658 710.3881
1538.8638 708.3666
1535.6705 706.77966
1532.5133 704.9423
1528.1615 703.4966
1532.8616 700.2306
1532.9845 695.0028
1533.0426 689.9086
1534.3322 685.7974
1536.1459 682.0814
1535.6249 676.6517
1533.8535 673.263
1531.5723 668.4916
1535.873 668.8211
1534.9778 663.3511
1535.0491 658.0886
1530.376 663.0666
1526.8794 666.61053
1527.4204 670.94714
1523.6299 669.9773
1520.1234 672.63367
1520.8813 676.2452
1525.2043 675.6255
1529.5142 673.9288
1529.593 677.99194
1533.0734 679.9757
1530.7727 683.04205
1527.8181 685.6186
1529.4524 688.5099
1529.8309 692.1881
1526.9813 695.02844
1529.175 698.9162
1525.0002 699.6735
1522.357 703.1324
1517.793 701.40173
1520.9209 698.3366
1517.1371 696.0095
1512.7377 695.8144
1513.3263 687.8025
1515.0013 684.426
1518.7451 682.26105
1522.9957 684.6982
1519.4894 688.2862
1515.5698 691.529
1521.8569 693.6183
1524.8495 689.72876
1526.4816 681.409
1522.551 679.6898
1517.0742 676.81757
1512.8778 675.2983
1515.5093 670.9271
1519.5094 668.2615
1518.0797 664.2037
1522.5009 664.3078
1522.5631 658.88513
1526.0593 661.85443
1528.3617 657.623
1527.3864 652.22797
1531.9661 654.0527
1535.4176 651.58704
1530.2322 648.2236
1525.3282 646.66644
1527.5977 642.91223
1529.3596 639.8373
1533.465 641.46265
1531.2415 644.0913
1535.1251 646.6911
1536.4438 642.0383
1535.3245 637.93335
1536.3202 622.757
1539.5973 622.1664
1541.1965 625.15186
1544.4365 625.34985
1547.1003 625.9377
1549.416 626.82117
1552.212 627.01337
1551.3024 623.8768
1551.5519 620.6477
1550.7489 617.5409
1552.8942 615.40393
1555.6042 614.04004
1555.772 617.8154
1558.9894 620.0633
1555.364 622.2083
1555.1097 626.59955
1558.0065 625.68866
1560.6727 624.5347
1563.6183 624.86426
1562.8561 619.8992
1566.8728 619.3906
1566.1614 622.7075
1566.831 625.8305
1569.2441 623.49976
1571.815 622.9797
1574.2788 621.86346
1570.7908 619.82745
1572.8434 617.1502
1569.0288 616.3028
1570.1211 612.8536
1573.2137 609.25116
1574.2645 613.2085
1575.7665 616.6578
1575.8049 619.50385
1578.1467 620.5919
1578.9988 617.8209
1581.9441 617.5166
1583.9885 614.5395
1586.8192 613.16565
1588.1738 610.4017
1583.191 610.1678
1581.116 613.7204
1577.9945 614.73755
1577.8956 611.2887
1579.1831 608.28485
1581.8419 605.8098
1585.7554 607.3911
1590.6362 608.0744
1592.175 604.94934
1588.0444 604.73157
1590.7748 601.4955
1594.6155 601.6991
1596.8384 597.6461
1625.4408 606.4484
1625.9775 610.9989
1629.2378 612.8189
1626.2449 614.7537
1627.4476 618.1417
1627.8088 621.7746
1627.5481 625.9103
1630.5983 624.0814
1633.4427 626.3659
1636.6102 626.78015
1632.0295 630.30554
1630.5054 627.8775
1627.6616 629.6847
1627.959 632.8353
1632.4678 633.00525
1636.0455 630.93164
1640.3944 630.3383
1643.4241 626.90546
1640.131 626.1119
1638.0076 622.5836
1634.258 622.3888
1631.513 619.66315
1630.7822 615.8892
1634.107 615.2778
1633.039 612.0407
1628.2559 608.978
1631.424 609.0715
1634.7354 608.08435
1636.6897 611.4011
1640.1278 610.2831
1640.4873 614.018
1637.5491 614.945
1635.593 618.5356
1639.4329 618.4934
1642.7303 616.4724
1646.2361 615.06226
1644.9343 618.9726
1641.628 621.5746
1644.5343 623.22626
1647.4331 621.6945
1649.9656 620.62024
1648.6569 617.50885
1651.2086 615.0746
1649.1528 612.63416
1643.3257 612.1899
1646.424 610.9608
1649.3312 608.3532
1652.21 611.1165
1654.7185 615.5805
1657.8961 613.91565
1655.4233 610.9637
1658.5697 609.0831
1653.8661 607.022
1657.4043 605.2167
1659.8644 602.2084
1655.8751 600.4341
1652.9802 602.2049
1650.5919 604.82666
1646.1372 606.0947
1643.2491 608.054
1638.6235 607.327
1640.1987 604.1
1643.5027 602.8414
1647.8759 602.2427
1646.3184 598.2901
1650.7269 598.12274
1653.4458 595.2575
1657.9913 597.18024
1661.5522 597.8617
1663.5088 602.74365
1662.366 606.7458
1664.8179 609.8154
1665.538 613.3216
1661.2216 611.6185
1661.7657 615.1279
1658.7007 618.2167
1655.366 620.37573
1652.4529 618.6153
1652.3214 623.0364
1648.3848 625.7013
1646.0876 628.84766
1652.6455 626.2995
1657.8119 623.0452
1661.8756 620.77515
1663.6672 617.99146
1667.3136 616.20483
1670.1803 612.2576
1673.7172 609.19714
1668.5391 608.25073
1667.8484 604.7812
1672.8722 604.00476
1677.3926 603.7909
1680.2651 599.0561
1677.1641 597.72723
1674.261 599.02875
1671.3718 596.9599
1669.7588 600.3979
1666.2983 600.76215
1664.8853 596.6222
1661.4746 592.6906
1668.1384 594.87823
1671.8762 592.5834
1671.1184 588.1067
1669.7164 583.09784
1663.8641 583.59375
1666.8214 586.39215
1666.3007 590.9242
1661.7944 587.8091
1657.2081 588.0226
1656.3135 592.41943
1653.0106 586.4598
1650.2256 589.88446
1647.6978 593.2337
1642.8785 594.3438
1641.7188 598.63556
1637.0317 597.13855
1637.7954 600.69507
1635.9934 604.069
1632.5029 604.2357
1629.5559 605.9569
1632.786 599.78625
1628.2485 599.618
1628.4113 603.07495
1625.1045 601.8176
1598.763 593.44684
1599.8672 589.01587
1595.5066 589.0452
1595.261 593.2414
1592.0975 594.74426
1591.4506 591.1754
1587.796 586.7487
1591.4485 587.2623
1593.729 584.4773
1597.488 584.7905
1601.8179 584.7038
1599.6909 581.0607
1596.4457 579.0906
1592.6514 580.5491
1588.75 582.82074
1584.1039 583.6853
1584.043 588.4065
1587.477 590.4079
1587.2504 593.40405
1588.875 595.73846
1593.3145 597.98816
1589.3494 598.3717
1586.9977 600.3487
1585.1176 602.95135
1581.7502 602.3784
1582.6945 599.16077
1584.7269 596.4141
1579.5835 595.97534
1582.7163 592.7335
1579.9011 588.76483
1574.9437 586.8092
1575.6938 581.39355
1573.874 576.9965
1579.7207 583.8484
1582.0399 578.3157
1578.4259 574.55536
1584.4573 572.4376
1579.6084 568.0664
1584.6833 567.22095
1588.3701 566.0581
1591.5142 566.6535
1593.1665 569.1045
1590.414 572.1963
1586.8474 578.38477
1590.8765 576.37506
1596.2748 570.60406
1596.3934 574.9043
1601.3545 576.7041
1603.4812 579.67053
1601.532 573.17255
1605.1669 573.72253
1605.5366 569.36334
1603.0009 566.6584
1600.3412 570.3335
1599.1279 566.6604
1596.9325 564.49316
1594.0798 562.67676
1590.6079 562.07587
1591.8854 558.1911
1593.7422 554.6491
1589.4629 554.66547
1585.9807 553.0385
1583.5718 550.17444
1581.2261 546.9117
1578.3108 544.60223
1578.8796 550.35095
1576.362 553.20074
1581.3081 555.1549
1584.482 557.3155
1587.4435 559.03986
1585.7732 562.5052
1580.8666 562.03326
1577.782 557.72046
1574.774 560.2892
1574.6956 564.9604
1573.9094 569.9576
1570.8578 573.79987
1569.4557 579.2498
1569.086 583.326
1570.3008 587.0932
1564.9373 586.8554
1561.8958 591.9825
1559.5226 594.2183
1564.9581 591.14594
1568.3167 590.2768
1572.8167 591.375
1577.3574 591.9744
1574.5677 595.90094
1569.8657 598.732
1569.8502 594.2626
1566.2389 595.25256
1563.7611 597.5388
1566.0667 600.8304
1566.7396 604.6384
1573.5433 600.8508
1578.0118 599.6632
1577.7896 603.4833
1575.3247 605.9642
1570.8678 604.9011
1568.0881 609.52783
1564.2947 609.37225
1564.7942 614.74023
1560.1733 615.32855
1560.6643 610.7198
1557.0942 611.4924
1557.199 607.4193
1553.8765 608.80505
1552.7054 605.92975
1551.5116 602.47046
1549.0602 605.06946
1549.398 609.35345
1552.6273 611.48645
1549.7292 613.42584
1545.7777 612.26227
1546.6941 615.9243
1547.1304 619.51276
1547.2773 622.8396
1543.4366 621.6995
1542.606 618.28864
1541.7272 614.9848
1540.7085 611.64105
1536.823 609.7398
1534.2705 607.08136
1535.1805 603.6376
1532.7574 600.92566
1535.9467 599.35315
1532.8882 596.063
1529.2084 597.28467
1525.382 597.914
1527.6248 593.01306
1523.8625 589.33484
1521.9446 593.5847
1516.247 594.1426
1518.6414 589.6033
1519.1161 583.7778
1522.8204 580.9024
1526.0415 577.8916
1527.2472 574.3901
1531.6774 578.1673
1528.6066 581.45807
1525.0072 584.9328
1529.192 587.39526
1532.202 591.6201
1537.1918 595.95514
1541.6644 597.83167
1545.791 598.25867
1544.1482 600.4914
1542.9325 602.9703
1540.9536 601.5749
1538.5804 600.69037
1538.5526 604.9656
1540.3674 607.91547
1543.7972 609.32227
1546.4895 607.4584
1542.597 605.6184
1545.6418 604.1125
1547.8066 601.5363
1549.8738 598.7575
1553.4995 597.9915
1554.5856 601.62445
1557.491 603.5665
1561.4568 606.19574
1562.0698 602.6063
1560.4475 599.07874
1557.2363 598.589
1555.8821 594.712
1551.1688 595.056
1547.393 595.5419
1544.8624 594.15607
1543.5265 591.60034
1541.1642 592.5434
1540.7101 595.01685
1536.5674 591.8168
1539.7765 589.5049
1537.561 586.133
1533.8792 587.4892
1533.145 583.32324
1535.4219 580.13727
1532.6658 573.9361
1532.607 568.5074
1528.5923 570.4291
1523.4849 570.6874
1518.4211 569.9174
1519.8933 566.86816
1522.4778 564.5978
1521.0664 561.4004
1526.0267 561.9452
1525.6049 566.593
1529.7517 565.3354
1532.8813 562.0173
1529.2893 560.1779
1531.6925 557.1097
1533.2758 554.10504
1533.5676 549.99316
1534.4209 545.858
1536.1813 541.96295
1539.2893 539.7296
1541.1241 536.6618
1544.5781 534.9735
1540.5753 533.14716
1542.5576 530.5989
1545.3859 528.6904
1544.0372 525.08057
1545.2369 522.21387
1548.0508 520.09924
1545.0986 517.5492
1548.061 516.75323
1551.6814 517.0565
1554.3198 519.1979
1558.1985 519.3584
1556.3589 522.70685
1557.89 525.2958
1552.8137 522.8474
1549.7465 522.7586
1548.1957 525.976
1549.553 529.18964
1546.4006 531.815
1548.8225 533.3789
1552.0142 531.364
1553.2668 526.9003
1555.3225 530.7948
1557.9926 529.076
1582.3073 531.59937
1584.5039 527.9057
1585.6759 523.4063
1589.6051 522.88654
1587.8833 518.4491
1591.6384 518.4602
1593.7296 522.3018
1595.1111 517.75323
1598.3472 518.3051
1597.2947 521.7257
1599.4425 524.86615
1596.1672 525.6426
1597.6631 528.66656
1600.6409 531.6709
1597.3738 532.1219
1595.7202 534.8475
1593.0756 530.5658
1592.6539 526.4625
1588.9026 528.04474
1587.2783 532.5802
1582.8419 535.33295
1580.3419 538.9761
1582.2632 542.8619
1585.0311 540.5389
1586.8062 537.37384
1590.5203 537.7846
1591.5657 534.121
1594.717 538.85834
1598.5728 536.9671
1601.8917 536.52295
1604.877 534.87195
1602.5225 540.857
1598.649 540.89606
1601.4412 544.78845
1605.1555 545.041
1603.8185 547.96014
1601.6428 550.0181
1604.9387 551.07117
1607.6167 548.2946
1607.5886 552.66547
1603.4358 553.85516
1599.5684 552.1338
1599.2351 547.7497
1597.7001 544.7336
1594.7886 543.3192
1591.6083 541.50543
1591.1847 545.9382
1588.4167 542.94977
1585.7666 545.9069
1588.3538 549.20233
1591.9696 550.9546
1594.057 547.5254
1596.2698 549.4333
1596.5978 552.7985
1597.699 556.34985
1596.4095 559.6942
1601.9321 556.57
1600.823 560.2448
1603.0686 562.87805
1607.2244 564.59454
1607.3121 560.40704
1607.1881 556.9463
1610.3954 554.1954
1611.259 549.1669
1612.9764 544.1738
1609.4047 544.5555
1606.581 541.96625
1606.5981 538.5208
1610.2189 536.13116
1612.0361 540.16846
1615.3589 536.474
1612.2385 532.0565
1608.0531 532.627
1611.3922 528.36884
1611.502 524.94965
1608.1665 525.0183
1605.3494 526.25543
1607.3677 529.0118
1604.1794 531.59174
1602.9955 528.7922
1601.8723 526.48315
1602.8527 523.5226
1600.7065 520.9811
1601.0732 516.7818
1603.6558 513.9957
1600.8512 511.55453
1597.9023 514.0207
1594.1592 513.4772
1590.552 513.6579
1594.48 509.06567
1598.703 508.4885
1598.1058 504.09103
1603.2207 500.48206
1607.9979 501.76617
1605.3448 504.36615
1601.7463 505.35095
1604.1942 508.1577
1605.6932 510.78177
1608.1373 513.3893
1607.1368 516.48267
1604.1643 517.3973
1603.7186 520.3668
1606.0334 522.7129
1607.0411 519.6448
1609.7798 521.20685
1613.5488 521.9589
1615.7852 526.10034
1620.2521 525.1916
1616.6139 531.6186
1620.306 529.44
1624.8682 526.4641
1628.5829 524.0236
1623.7131 521.915
1622.3977 517.5464
1618.4873 520.9686
1617.7559 515.73395
1614.4827 518.4086
1610.6029 517.078
1612.995 514.066
1615.5801 511.3558
1619.112 510.55884
1618.9982 506.84952
1622.4089 504.6384
1625.6849 503.3896
1623.7457 499.11786
1622.3359 495.69452
1618.5304 498.01532
1619.3414 501.89145
1615.8313 504.13516
1613.8376 508.23843
1610.4103 510.5372
1608.5353 506.93314
1611.697 505.3007
1612.4298 501.92642
1607.9196 496.8609
1610.9685 498.04004
1614.6146 498.65005
1614.6658 494.4777
1619.516 493.06128
1624.5488 492.64957
1629.2751 492.268
1628.1982 496.17538
1628.3789 499.87723
1630.1927 503.66644
1632.9597 500.79388
1632.8616 495.54196
1637.8734 495.6938
1639.7219 492.52963
1642.8429 491.96735
1645.2943 493.56488
1648.5857 494.1227
1652.5813 495.85385
1647.7722 497.95743
1650.843 500.9516
1654.7903 503.66385
1653.5679 508.5012
1649.9982 505.6693
1649.16 510.31998
1650.9789 514.06104
1655.3257 512.3737
1658.0483 506.90616
1659.51 503.55795
1655.2517 498.75278
1658.8535 499.1426
1662.4221 501.08685
1665.78 503.21542
1668.4485 506.02017
1671.3105 509.16254
1667.4441 509.5617
1665.0164 511.0468
1663.5476 505.83823
1662.1028 508.9518
1658.5219 510.39062
1662.946 513.01825
1659.8212 513.9493
1657.7194 517.22095
1654.6589 516.02655
1652.2529 518.431
1649.1971 520.44073
1644.4829 519.4528
1646.8536 515.2327
1644.4319 511.73038
1645.1797 507.57355
1646.3369 503.11447
1643.4155 500.73392
1643.2024 496.03064
1640.6936 498.69638
1636.9807 499.79776
1641.1685 505.14816
1636.989 504.44165
1633.401 506.81848
1633.3082 511.23438
1637.3376 510.00095
1640.6509 510.8387
1641.4181 515.64716
1638.2217 518.45264
1635.0243 515.1275
1628.826 510.4975
1628.4167 506.86722
1624.0933 508.94025
1621.8213 513.0533
1625.9761 514.16534
1630.2832 515.07227
1627.7285 519.18604
1633.0463 519.6934
1632.7329 524.09436
1637.1272 523.832
1641.4241 523.93823
1645.1818 528.0108
1646.9291 524.0727
1651.3798 526.98486
1653.3438 523.0385
1657.3702 521.293
1657.6233 526.04926
1662.7244 525.05774
1661.9893 521.6726
1661.4011 517.9803
1664.5298 515.99524
1667.6886 514.2308
1671.1532 513.87305
1674.1199 512.25696
1675.801 516.0179
1678.3668 519.85114
1679.0999 523.8694
1681.6342 527.3316
1680.8456 531.1701
1683.705 534.37274
1680.1016 535.73175
1676.5406 535.212
1674.0964 538.42474
1672.0265 535.1234
1669.3646 531.9656
1664.6832 533.1353
1668.1038 537.2258
1670.6523 541.3395
1666.4796 542.0515
1662.3335 543.7322
1663.259 546.13306
1665.9746 546.56244
1668.8667 546.1098
1671.8875 547.2319
1674.0111 545.12
1675.2642 541.69745
1678.9625 539.96014
1683.3785 539.09686
1686.5856 541.3278
1685.3718 544.157
1681.3613 544.1567
1677.7325 544.92474
1678.3181 548.89166
1680.7871 552.0144
1684.1931 547.7655
1686.2976 550.53815
1684.6313 553.3283
1686.9994 556.69025
1685.73 560.83826
1686.053 564.9683
1682.3671 563.6425
1678.7424 561.40186
1682.0023 559.6684
1682.9884 556.38165
1678.9872 556.5996
1676.0142 554.0162
1673.3059 551.0327
1668.5344 550.7021
1663.864 549.4237
1664.7854 552.8834
1668.5576 554.9784
1672.1719 556.46814
1675.033 559.3806
1675.259 563.71185
1678.6129 565.81067
1679.7834 569.239
1675.432 569.32135
1677.763 572.07697
1675.2018 574.6098
1676.4369 578.381
1680.3723 579.1284
1679.3608 575.6655
1681.7185 573.6496
1683.044 570.9284
1683.0352 567.396
1686.3882 568.7865
1686.1039 572.242
1685.5769 575.3015
1683.1885 577.82086
1686.3 578.82715
1684.0415 581.5378
1683.2068 584.17224
1684.1921 586.62305
1682.9302 589.157
1682.1641 592.1702
1680.0674 594.5175
1676.0421 593.3618
1675.6548 589.1606
1679.3358 589.3035
1679.8583 585.6551
1679.0149 582.21106
1675.1554 585.0628
1674.1111 581.116
1670.4622 579.1022
1671.4396 575.4309
1667.0088 577.01276
1661.9607 575.1707
1663.6863 579.6109
1659.2156 582.48486
1654.9343 581.8776
1657.3993 576.57776
1659.8635 570.9703
1658.7079 566.80634
1659.1045 562.1333
1662.4315 560.5303
1662.651 565.239
1664.6981 569.01697
1666.2871 572.8074
1671.5771 571.70654
1669.21 568.88434
1667.2625 565.6796
1666.5431 562.46497
1672.8114 567.0725
1671.1855 563.5701
1669.9247 559.92206
1665.9613 558.59753
1662.8528 555.9344
1659.0198 556.85693
1658.4365 552.6855
1660.9175 551.175
1660.3274 547.20306
1657.4869 547.7228
1658.8866 543.8392
1656.1512 543.4573
1654.4948 540.4139
1656.8955 538.66693
1659.3967 539.9193
1662.481 540.78033
1663.9526 537.49927
1660.2913 535.6626
1656.8474 534.0492
1654.0498 536.8012
1652.4246 533.6652
1649.3667 530.976
1655.04 529.91504
1659.5273 530.8579
1662.666 529.25494
1666.4425 527.6629
1670.8297 527.737
1668.2439 522.9729
1666.0851 519.3449
1670.4615 518.152
1673.9373 520.2885
1673.4194 524.1067
1675.2754 531.4433
1676.1676 527.685
" />
</g></g></svg>
