<?xml version="1.0" encoding="UTF-8" standalone="no"?>
<!-- Created for Inkscape (http://www.inkscape.org/) -->

<svg
   xmlns:dc="http://purl.org/dc/elements/1.1/"
   xmlns:cc="http://creativecommons.org/ns#"
   xmlns:rdf="http://www.w3.org/1999/02/22-rdf-syntax-ns#"
   xmlns:svg="http://www.w3.org/2000/svg"
   xmlns="http://www.w3.org/2000/svg"
   xmlns:sodipodi="http://sodipodi.sourceforge.net/DTD/sodipodi-0.dtd"
   xmlns:inkscape="http://www.inkscape.org/namespaces/inkscape"
   width="3200"
   height="800"
   id="svg2985"
   version="1.1"
   inkscape:version="0.48.1 r9760">
  <defs
     id="defs2987" />
  <sodipodi:namedview
     id="base"
     pagecolor="#ffffff"
     bordercolor="#666666"
     borderopacity="1.0"
     inkscape:pageopacity="0.0"
     inkscape:pageshadow="2"
     inkscape:zoom="0.35"
     inkscape:cx="1600"
     inkscape:cy="400"
     inkscape:document-units="px"
     inkscape:current-layer="layer1"
     showgrid="false"  />
  <metadata
     id="metadata2990">
    <rdf:RDF>
      <cc:Work
         rdf:about="">
        <dc:format>image/svg+xml</dc:format>
        <dc:type
           rdf:resource="http://purl.org/dc/dcmitype/StillImage" />
        <dc:title />
      </cc:Work>
    </rdf:RDF>
  </metadata>
  <g
     inkscape:label="Layer 1"
     inkscape:groupmode="layer"
     id="layer1"> 
     <g>
<path style="fill:none;stroke:black;stroke-width:2px;stroke-linejoin:round;stroke-linecap:round;" d="M 
1574.9242 152.44252
1555.2283 150.48564
1579.4838 134.46722
1594.461 148.31761
1611.4998 140.4891
1605.059 164.06061
1592.2178 179.54074
1577.7002 167.49628
1564.7036 179.65852
1544.6572 181.23137
1555.3518 200.32877
1576.9229 200.53944
1593.6775 217.22253
1585.497 230.66635
1600.0374 236.44203
1615.1515 227.31769
1614.7982 249.61223
1606.6215 268.60004
1595.5095 288.82693
1612.5581 286.39203
1623.3354 275.4654
1637.7347 257.19943
1630.6272 239.9855
1637.606 223.83945
1646.0498 209.52943
1631.2311 199.08803
1619.2815 211.10158
1603.7222 201.62762
1617.3849 180.52205
1635.7732 181.23323
1625.6224 163.79503
1636.8589 150.45863
1645.9592 165.4898
1662.1199 148.36644
1671.4272 158.56506
1660.3967 170.8734
1649.9902 186.05916
1658.9425 198.93178
1666.603 184.56062
1678.7823 169.67685
1680.011 182.15376
1674.1183 198.79762
1664.6606 214.54047
1683.8289 224.3254
1683.355 209.24594
1687.8192 189.90103
1697.6195 196.41145
1704.113 179.1629
1693.4723 166.93712
1687.3572 147.4613
1710.5337 159.25616
1724.6425 175.58359
1712.5586 194.32423
1725.862 192.95732
1736.7391 199.71635
1717.3992 210.41418
1699.982 211.17033
1711.2401 226.07599
1715.3225 241.85037
1729.1288 217.66237
1745.5046 221.4254
1737.553 233.9606
1735.3075 250.83571
1721.5381 263.95834
1715.8595 284.48483
1697.4456 269.7056
1687.0425 288.3728
1668.6047 275.87863
1674.163 262.66895
1686.4626 254.5928
1702.8857 253.27148
1694.7843 236.09708
1674.7313 241.30023
1660.0828 229.2989
1648.8966 242.24905
1660.7317 252.97736
1652.335 266.43338
1636.8866 275.33008
1653.5499 283.92145
1643.4854 295.18958
1622.0299 301.7213
1638.7438 317.77283
1640.198 340.43057
1634.5381 367.3342
1614.4392 348.1341
1610.4155 325.55557
1590.7152 312.8839
1584.7672 342.51947
1563.0825 334.24564
1545.8829 362.778
1568.6095 379.27234
1598.2952 365.68277
1596.3821 389.85794
1579.7251 411.58133
1606.2489 415.6198
1622.1433 390.57324
1629.7803 420.97308
1631.9775 443.4187
1651.9453 434.5812
1648.7948 451.1153
1664.681 452.53912
1656.5253 466.8784
1662.4557 479.06552
1648.1023 484.05685
1637.6345 475.78503
1642.1719 463.50378
1621.0413 467.34064
1609.9021 488.76453
1591.6777 483.0588
1586.7003 466.57132
1603.2594 463.2459
1601.4163 441.04248
1576.7101 440.53485
1554.7017 458.4086
1560.6254 484.9001
1529.6074 479.68787
1502.6162 473.3166
1509.4048 444.62628
1528.706 439.3172
1552.457 421.15234
1537.367 395.75122
1522.4948 414.82504
1508.2585 389.5344
1502.124 412.4227
1491.9004 430.89224
1489.2859 453.43118
1471.3875 441.65042
1437.0447 452.10385
1430.4001 420.43362
1467.9298 419.23773
1475.6248 395.8997
1490.7452 374.10477
1509.8689 358.75415
1532.9777 335.53735
1529.9574 308.3992
1552.4277 309.69598
1572.2855 298.72543
1578.9266 278.2136
1581.1526 252.73122
1568.4327 231.77556
1569.7927 215.91515
1546.8934 247.12749
1557.8773 267.70648
1554.4758 285.75635
1536.2627 286.53116
1538.8557 264.1578
1523.159 250.80513
1524.228 231.75012
1545.7405 220.82172
1533.1992 204.06807
1520.0166 192.06046
1516.0704 215.61012
1501.2435 203.634
1503.1187 185.24515
1487.386 177.75085
1480.4365 196.42412
1468.7969 178.18958
1450.1533 181.32161
1458.483 201.66588
1475.4128 212.31018
1459.3579 219.12682
1456.1132 235.14265
1441.6567 212.83261
1432.5968 195.99408
1420.8684 214.42075
1442.0331 228.5063
1443.3556 246.50784
1437.2317 260.64413
1447.2307 271.25766
1453.3782 285.6127
1467.2417 279.62018
1480.5607 266.98288
1463.9648 264.56482
1458.3823 251.76274
1471.075 241.50443
1476.6266 251.62599
1488.3561 252.62846
1486.1527 236.84065
1470.4607 229.11024
1483.4626 225.09071
1490.5793 213.7184
1500.5328 224.92206
1497.9332 242.40776
1508.0579 254.44609
1495.4358 261.8829
1507.3108 268.9958
1522.77 272.52548
1508.1848 282.84088
1520.797 289.9892
1510.8237 301.93945
1505.9432 323.95724
1489.8005 340.1608
1468.8572 343.82288
1469.0284 318.29004
1479.2625 297.5373
1490.2354 304.90875
1497.0 291.07965
1494.1062 276.66946
1481.4714 282.47186
1467.1099 297.97195
1454.9258 303.69293
1445.3555 316.42917
1440.3434 296.16177
1427.0662 303.58838
1422.3367 319.893
1433.9154 333.1713
1448.5837 345.36688
1469.5568 367.58002
1442.7749 382.16678
1410.2307 390.36594
1375.5586 381.55048
1393.3972 363.6003
1421.2845 356.28372
1408.7823 330.54352
1390.7937 338.5836
1370.9357 349.34152
1353.6277 357.52585
1335.4009 354.48178
1350.8342 332.5001
1371.7157 323.16812
1351.5706 295.61246
1328.0773 308.28302
1303.0864 325.63824
1320.8049 340.7265
1333.034 375.68362
1353.43 377.88132
1356.1284 401.66852
1347.7255 421.70563
1335.1362 392.89035
1331.5511 409.51346
1324.3695 426.26657
1321.6586 448.97977
1338.6798 464.1389
1340.4752 440.1876
1358.7357 447.1946
1366.0627 427.66547
1393.988 419.13327
1402.6417 453.0687
1409.717 482.98053
1428.5948 498.43765
1406.7792 517.85004
1375.5063 508.67825
1383.0306 483.6334
1361.0736 467.07623
1358.0809 489.47778
1335.471 487.04898
1319.6582 508.79187
1345.1312 512.2537
1353.8164 529.8774
1378.698 529.87933
1389.7151 548.1379
1415.561 543.7687
1428.6703 558.6019
1449.8585 551.99005
1465.5244 531.81256
1437.1965 528.2558
1454.6555 504.79144
1448.443 476.41403
1475.2905 467.0408
1480.5482 491.70026
1482.5321 512.9212
1493.7891 526.71515
1507.3531 506.503
1526.8777 508.6054
1547.4485 511.46344
1568.8555 512.40753
1590.0575 501.64618
1590.4409 523.79004
1605.4581 511.94983
1622.1179 509.22964
1632.4457 493.53787
1650.8853 501.64084
1663.6929 496.76538
1681.579 497.90378
1677.4386 483.23273
1678.4331 468.08356
1686.1705 455.79224
1693.8605 482.83936
1703.291 471.69565
1710.2982 450.2091
1694.6857 434.66953
1674.7102 436.2886
1655.6891 415.57095
1644.7811 395.30185
1666.5255 387.7574
1681.379 367.52966
1661.4991 357.48956
1666.2327 329.16742
1665.8845 302.97305
1688.2008 313.7594
1690.768 338.48132
1703.3679 361.27213
1725.7821 356.08707
1713.1758 336.27844
1710.4126 309.78613
1731.9578 318.03702
1738.4102 338.17737
1757.6852 344.60468
1750.504 361.26202
1738.2183 375.26724
1750.0974 394.14218
1737.7454 410.08743
1724.5901 395.11252
1718.1467 377.11032
1695.8154 389.49338
1683.3593 411.26245
1713.3159 417.77026
1736.4384 430.88223
1758.5316 418.7815
1777.5809 431.1973
1794.0995 450.5304
1809.1362 433.88968
1815.3923 410.97128
1793.2721 410.2607
1775.1191 397.0281
1762.7966 377.78745
1775.5889 361.15063
1798.3071 356.62372
1793.047 379.8867
1812.749 386.94168
1832.1047 393.82043
1842.2385 407.51282
1833.3585 426.27673
1843.6245 445.32928
1862.5049 437.2599
1865.2466 413.4171
1897.9182 403.17355
1883.9346 375.48413
1856.9585 353.63586
1853.7751 380.84573
1833.728 371.01306
1828.4493 352.24286
1829.1576 332.60056
1813.0774 315.9182
1783.5383 334.0582
1761.1455 317.8294
1740.2772 289.98917
1764.108 288.6984
1761.1722 253.10928
1765.055 227.48964
1784.7583 231.68353
1794.8634 208.4957
1822.105 195.07059
1862.573 187.00142
1843.9547 144.41539
1785.7911 175.11743
1788.8729 148.89737
1772.6658 130.64076
1787.8693 115.08603
1779.1433 87.64217
1775.5659 56.675964
1758.9233 21.063751
1784.3579 21.650457
1830.3625 22.516434
1863.4746 28.543121
1894.5186 39.818253
1905.7915 15.680641
1935.6868 26.956964
1923.4507 69.28722
1925.8547 112.32693
1875.1384 61.50282
1870.3365 102.86803
1883.9865 145.30399
1926.1354 167.669
1919.1504 243.72412
1860.271 261.76547
1818.3085 225.51271
1800.9385 260.0233
1788.1844 296.6517
1812.3762 290.8513
1846.4058 306.05713
1878.1443 325.55475
1928.1027 317.2025
1923.6156 364.4214
1936.9568 422.49127
1936.9948 457.85788
1914.8743 442.68973
1885.8745 434.87524
1877.4672 452.83685
1859.4998 463.16873
1841.1475 471.2595
1824.5776 456.09558
1812.8293 471.57208
1800.1521 482.95602
1812.9043 501.62256
1792.9443 499.96176
1788.4961 519.0247
1810.5693 529.1656
1831.626 517.3643
1828.2137 488.4759
1847.9658 493.97412
1854.113 513.74915
1870.4053 522.0119
1845.4386 540.38947
1865.7563 547.6612
1887.1133 532.80365
1873.0669 499.6099
1893.3124 508.20184
1904.823 491.8911
1880.6572 482.59512
1899.1088 466.82724
1919.9601 475.14542
1936.9948 492.24585
1924.3057 505.47867
1909.0068 524.1463
1936.9893 536.8766
1936.4495 576.46295
1910.1688 556.74756
1883.1858 575.3337
1908.3784 595.59076
1934.5364 621.2876
1898.1567 632.1435
1924.3782 660.51117
1933.1611 693.02893
1931.0374 731.43176
1922.1807 765.9022
1850.5103 775.9789
1850.5117 741.3948
1894.6282 711.9743
1870.6216 657.497
1864.363 611.70874
1835.743 572.09467
1820.1975 552.6875
1790.2858 550.23706
1762.9729 525.8152
1774.0769 502.71936
1753.0072 505.798
1734.0979 519.2005
1736.6364 499.36163
1744.6218 478.84595
1765.6803 485.81805
1785.197 475.96765
1768.508 458.4072
1752.4238 448.19418
1734.1578 451.32227
1728.1405 467.45
1718.3588 485.03012
1715.681 501.53064
1696.797 507.0826
1673.6885 515.5266
1656.2213 525.82263
1641.0029 513.64795
1633.7493 531.0127
1614.7063 536.652
1593.8341 548.079
1572.1089 537.21466
1560.6664 557.642
1546.8987 539.12317
1529.171 527.31476
1512.5365 530.8687
1525.1483 550.4658
1499.3086 557.55444
1493.8816 543.0215
1472.8796 558.91473
1485.4452 627.5418
1412.9855 636.60724
1405.2045 694.1146
1413.1848 752.3642
1391.4199 656.0275
1391.5123 619.3266
1404.6819 580.4529
1389.4846 594.3992
1345.7802 585.64777
1318.8738 634.7554
1284.6527 693.79816
1275.7251 657.2101
1270.5393 621.8695
1286.9249 592.3001
1287.0413 554.4326
1263.6302 490.13492
1257.526 469.21875
1308.0167 480.71527
1298.2147 452.12338
1307.0469 422.3596
1310.1152 403.00342
1308.43 384.48163
1316.9071 365.6086
1300.5402 357.8348
1263.758 344.15244
1266.3345 299.42685
1278.0543 246.85796
1348.3073 262.98206
1372.6779 280.99142
1387.8665 297.10434
1392.5261 317.01715
1409.5719 306.80447
1411.5388 289.064
1394.7639 273.37952
1417.2347 272.80606
1432.2842 282.32074
1419.5887 257.0079
1426.4333 236.9486
1402.2837 224.57532
1404.715 247.11868
1384.4196 251.27045
1368.256 218.09576
1343.0531 60.74202
1354.1497 154.84956
" />
</g></g></svg>
