<?xml version="1.0" encoding="UTF-8" standalone="no"?>
<!-- Created for Inkscape (http://www.inkscape.org/) -->

<svg
   xmlns:dc="http://purl.org/dc/elements/1.1/"
   xmlns:cc="http://creativecommons.org/ns#"
   xmlns:rdf="http://www.w3.org/1999/02/22-rdf-syntax-ns#"
   xmlns:svg="http://www.w3.org/2000/svg"
   xmlns="http://www.w3.org/2000/svg"
   xmlns:sodipodi="http://sodipodi.sourceforge.net/DTD/sodipodi-0.dtd"
   xmlns:inkscape="http://www.inkscape.org/namespaces/inkscape"
   width="3200"
   height="800"
   id="svg2985"
   version="1.1"
   inkscape:version="0.48.1 r9760">
  <defs
     id="defs2987" />
  <sodipodi:namedview
     id="base"
     pagecolor="#ffffff"
     bordercolor="#666666"
     borderopacity="1.0"
     inkscape:pageopacity="0.0"
     inkscape:pageshadow="2"
     inkscape:zoom="0.35"
     inkscape:cx="1600"
     inkscape:cy="400"
     inkscape:document-units="px"
     inkscape:current-layer="layer1"
     showgrid="false"  />
  <metadata
     id="metadata2990">
    <rdf:RDF>
      <cc:Work
         rdf:about="">
        <dc:format>image/svg+xml</dc:format>
        <dc:type
           rdf:resource="http://purl.org/dc/dcmitype/StillImage" />
        <dc:title />
      </cc:Work>
    </rdf:RDF>
  </metadata>
  <g
     inkscape:label="Layer 1"
     inkscape:groupmode="layer"
     id="layer1"> 
     <g>
<path style="fill:none;stroke:black;stroke-width:2px;stroke-linejoin:round;stroke-linecap:round;" d="M 
1725.4698 451.09686
1721.435 450.9582
1715.773 452.15057
1714.2054 455.3779
1713.1755 450.1394
1708.6785 449.5466
1710.4957 452.4711
1709.9595 456.2441
1707.3108 452.33752
1705.4336 454.82913
1705.5513 458.42197
1706.9792 462.06107
1709.8181 460.21756
1713.71 459.45428
1716.446 460.68045
1717.4513 457.9427
1717.0487 455.0598
1719.5433 453.48865
1720.2861 456.73483
1718.7589 460.46698
1720.5691 461.7317
1718.2477 463.23773
1720.2653 464.73428
1719.3601 467.76172
1716.6409 465.3876
1714.7395 462.80344
1712.1414 464.52887
1708.719 466.0432
1704.8086 465.10004
1701.8269 467.89334
1697.1554 467.3964
1693.2869 466.97345
1689.534 468.25516
1689.7241 471.80646
1686.0277 469.4027
1685.9254 466.55725
1687.3729 462.06583
1689.233 464.42126
1692.0256 463.0756
1690.8596 460.26993
1690.6279 457.9701
1694.092 458.27686
1695.915 463.4317
1699.3917 464.7615
1702.0002 460.09537
1696.9219 460.201
1697.1346 456.93356
1692.5087 456.22708
1694.781 454.1022
1697.0255 453.66098
1699.8181 456.35825
1702.6407 455.98563
1702.4001 452.28796
1702.8796 449.21216
1700.1914 449.92484
1699.0614 452.08853
1697.4985 449.25247
1695.0192 451.2741
1692.1602 451.65225
1690.5138 453.83514
1689.617 455.8415
1687.2832 458.06528
1686.6985 455.34467
1683.9023 454.30872
1683.2478 457.0309
1680.5135 460.11465
1677.9753 458.8849
1677.575 461.45096
1683.9495 461.31363
1685.0494 464.00183
1681.8938 464.32263
1683.166 466.7785
1680.5227 468.09653
1676.7554 468.1285
1678.9731 466.31628
1678.8317 463.2842
1675.9932 464.917
1674.5265 461.5313
1671.5385 462.3084
1672.7762 466.4647
1668.9266 465.54282
1665.0896 463.65356
1661.98 465.2256
1660.7098 461.8454
1657.5756 462.74042
1658.0265 459.09122
1655.7406 456.52423
1652.0571 454.77542
1658.2183 452.3985
1659.2533 448.4717
1654.4719 451.29788
1649.1855 451.24573
1652.3132 447.89832
1656.119 447.1956
1659.4509 444.96414
1659.3223 441.9454
1657.7944 438.5247
1661.672 439.94916
1664.3445 438.47247
1665.8088 435.81622
1669.9834 432.34985
1666.3606 432.2579
1662.3539 434.61682
1658.3086 433.46414
1662.1012 431.08316
1660.8014 427.51086
1658.7397 425.6315
1657.2299 422.32385
1654.6752 418.71866
1657.6248 415.89285
1657.7886 411.49136
1654.2994 412.83612
1650.6489 412.8234
1651.0865 416.45715
1651.3264 420.4768
1654.0293 421.5004
1655.7292 424.9243
1654.1512 428.66205
1653.2793 424.89188
1651.1299 424.10016
1650.4006 427.69492
1650.2969 431.44586
1656.9106 430.9102
1653.7664 433.47964
1654.7185 437.51865
1653.3088 441.41043
1655.3291 443.82968
1650.7495 443.93335
1648.0731 446.63202
1645.1394 447.90845
1646.0656 443.06927
1649.5132 439.8841
1649.3746 435.97305
1644.8467 436.90958
1645.9783 434.05536
1644.5204 429.7699
1647.5444 429.40152
1646.8375 426.70892
1644.0927 426.46085
1645.2363 423.09607
1648.4781 424.25024
1647.3961 419.17413
1643.5884 418.35797
1645.7107 414.60028
1643.8015 411.24774
1648.1095 410.2116
1649.1687 406.58722
1644.8071 407.4139
1641.7555 403.2146
1637.4948 400.95572
1628.9152 399.6422
1620.3457 399.3395
1616.7496 399.33932
1624.4468 399.4924
1633.3516 399.98035
1641.3547 399.6791
1644.2584 400.99615
1645.4646 398.1697
1642.6877 395.3514
1644.6692 394.65225
1647.184 395.04636
1650.0818 394.2064
1652.5907 395.304
1651.0149 399.34848
1648.717 397.7782
1647.8982 401.3607
1644.9479 403.86813
1647.4254 405.03317
1650.8787 402.14734
1650.9888 404.83743
1651.6428 408.40002
1654.7136 408.43982
1653.7473 404.58197
1656.3082 404.13693
1659.5818 402.09824
1655.4037 401.37955
1653.927 398.97342
1656.3215 396.38388
1658.4799 399.19608
1661.471 399.3171
1663.7283 397.48428
1665.7802 399.66333
1667.1989 395.58484
1667.1313 391.3163
1664.4998 392.0186
1663.1908 395.03568
1659.2256 395.32968
1661.3706 391.94666
1658.615 390.20258
1655.6499 391.84634
1650.775 390.42877
1647.0303 388.43344
1646.6328 391.87756
1643.5825 392.1123
1643.7908 388.37653
1643.6991 385.3601
1646.4551 384.63565
1642.7609 381.1558
1646.502 381.51846
1650.559 382.18805
1649.843 384.8774
1652.8467 385.85132
1656.0422 386.49893
1654.8799 382.53494
1651.7341 379.6947
1649.4825 377.9267
1645.9899 378.52713
1642.633 377.25745
1642.0945 373.701
1644.6929 373.16528
1647.262 375.8935
1650.4341 373.58035
1647.2715 373.45355
1647.3969 370.69922
1647.7726 367.7812
1644.2252 366.23166
1647.4985 363.7033
1649.4955 360.79895
1649.1221 357.43655
1649.4165 354.32443
1646.0597 356.75287
1645.6665 360.37357
1640.9653 356.976
1642.3945 359.5639
1642.7893 362.81454
1640.2383 365.2217
1643.8025 370.40283
1640.3817 368.44543
1637.1925 366.31354
1634.8877 364.3065
1638.7689 361.4046
1634.5286 360.52228
1631.3953 363.54166
1632.155 367.15857
1627.6595 366.30478
1627.7621 362.54532
1624.74 360.31543
1621.0359 363.12253
1624.0034 364.9021
1621.2285 366.6749
1617.124 365.33813
1615.2231 367.4925
1610.7156 364.13882
1600.8264 366.674
1593.7169 369.52505
1589.4338 371.1161
1587.0037 376.37756
1584.5687 377.96472
1588.4717 381.06998
1588.8135 385.0255
1587.8906 388.06952
1587.8627 390.83112
1590.1553 392.45078
1587.6162 394.2369
1586.5664 397.5902
1591.1912 396.9807
1601.1272 398.04053
1612.4021 398.32053
1606.8126 398.27118
1595.9015 397.19095
1589.1857 400.9817
1585.5933 401.83884
1590.3328 403.74133
1588.2787 405.86258
1589.0613 410.69778
1586.0542 411.00735
1585.6841 407.98788
1583.1241 411.07397
1584.6897 414.06647
1585.2878 419.43088
1584.6447 422.57443
1582.7827 427.00027
1582.8962 429.77512
1584.5461 425.19937
1583.0146 420.496
1584.0957 416.8997
1579.3849 412.9148
1579.0839 410.57034
1574.9901 409.8019
1574.3379 412.55783
1571.7081 411.57257
1568.9257 410.0604
1568.931 406.52667
1572.731 407.2935
1577.2441 407.59055
1580.9253 408.69073
1583.8008 405.27936
1579.6741 404.78537
1580.626 401.23776
1576.5366 401.75058
1575.119 404.83774
1572.5709 402.79803
1568.4719 402.81198
1566.0703 404.08905
1563.0542 403.21283
1559.0538 402.16986
1561.8544 406.36166
1564.9075 406.58408
1565.8229 409.82767
1566.8584 412.74066
1562.5824 411.57944
1559.2102 410.9599
1555.7151 410.69037
1557.428 408.43848
1556.1968 405.16367
1552.7625 406.5528
1549.3041 405.22995
1547.8601 409.0539
1551.9703 410.93283
1548.8291 412.09442
1545.5255 406.9985
1546.8975 402.8017
1544.0171 402.7371
1541.1182 401.32098
1544.7404 398.21707
1542.5557 395.4117
1539.939 392.2407
1538.326 395.3692
1534.7731 393.0371
1528.9757 393.49142
1534.448 397.87112
1537.9532 399.25754
1537.8716 406.20605
1541.4084 407.80396
1544.2605 411.5991
1539.4985 411.53342
1535.0828 410.73566
1534.5472 402.6778
1531.196 399.4493
1529.1498 405.171
1532.1396 407.71664
1530.2838 411.65518
1524.9108 411.27158
1519.5923 410.4605
1515.2461 410.88773
1510.4169 413.16418
1511.584 408.7152
1515.3447 406.73315
1512.14 405.6699
1509.3391 405.06708
1513.2197 402.66953
1513.9501 399.11676
1508.5503 400.93982
1504.7572 401.35336
1504.7528 398.1001
1501.9277 396.86768
1499.1824 394.63583
1503.3154 393.24295
1506.7532 394.0245
1508.2314 396.97824
1511.324 396.11945
1516.7097 395.0725
1519.6895 398.92538
1517.5773 403.15326
1520.0042 406.1459
1524.2562 406.46664
1521.6477 401.48264
1525.1831 402.0544
1527.8436 399.13602
1524.0724 397.406
1522.3209 393.1105
1514.1984 393.00418
1509.3889 391.50073
1510.2115 388.5524
1505.919 389.3384
1505.7937 385.30304
1508.3612 384.9187
1511.2234 383.8974
1514.0502 382.09158
1512.0457 380.77878
1514.491 378.74713
1511.5481 378.23965
1508.429 377.18173
1508.47 380.30197
1505.246 378.97552
1503.0493 382.0185
1500.415 384.4624
1499.0518 380.69745
1502.4297 376.44843
1505.9327 375.22495
1503.915 371.9328
1502.2827 369.34937
1499.0502 371.87726
1496.2067 373.86908
1498.7134 376.47223
1495.6661 378.4864
1494.8049 381.8344
1492.0261 381.81918
1489.751 384.1415
1488.8882 386.83078
1491.1731 389.9124
1493.8583 385.23724
1496.2034 388.15836
1497.8015 385.9037
1502.9819 386.7014
1501.7311 389.7259
1499.056 390.74524
1496.3851 392.53983
1494.2007 390.25345
1493.0948 393.02768
1495.3434 396.03058
1494.992 399.51306
1497.9484 398.85876
1500.918 401.6017
1496.4229 403.14243
1492.7184 403.51398
1489.0383 404.7952
1485.509 407.3106
1485.7303 410.7018
1486.3875 414.68912
1490.7284 415.51898
1493.1295 418.13458
1496.8538 418.57675
1501.0448 417.3638
1503.7977 414.78717
1502.063 412.38705
1497.0999 415.06094
1497.8027 412.2276
1497.9026 408.22968
1494.759 409.46597
1492.4695 411.84378
1488.6438 412.09158
1489.7151 409.17142
1491.8318 406.71564
1494.8623 406.12262
1499.7817 405.27267
1502.6213 407.78552
1505.1273 405.4879
1506.1157 409.14413
1506.9551 412.99292
1507.3638 415.885
1508.2655 418.7958
1505.7058 421.44736
1509.173 422.49664
1506.1283 425.98886
1503.3633 428.7368
1499.7133 426.47922
1501.8896 422.61737
1498.5054 421.43817
1496.7467 424.1503
1493.9697 427.28973
1493.3906 422.9134
1489.208 421.54062
1486.3898 419.2003
1483.0342 416.83115
1483.2413 413.58832
1480.6241 413.90393
1482.5157 420.13757
1483.3939 423.35983
1486.3694 424.21146
1484.1888 427.33636
1487.894 427.08395
1490.33 424.8994
1491.3126 429.7749
1489.7208 432.27234
1489.2804 434.8331
1493.4912 435.05423
1494.3252 431.83807
1497.9646 429.81476
1497.8602 433.18387
1501.9222 433.10968
1501.7988 436.92352
1497.9624 437.3576
1497.4738 440.62512
1500.3284 444.39682
1502.361 441.06067
1505.7917 442.89484
1505.914 437.69595
1508.0073 435.2282
1505.9619 432.22476
1509.709 429.74173
1512.9896 429.9186
1512.4917 434.17844
1515.067 436.32764
1511.0127 439.52026
1514.1042 442.98914
1510.7214 443.54434
1508.8477 446.36975
1507.1229 450.11295
1507.7404 453.66223
1513.035 456.81085
1512.372 452.5881
1510.616 449.97934
1512.4961 447.69775
1515.4651 448.19403
1515.6625 451.07394
1521.7345 450.05933
1518.4501 446.64853
1519.5592 442.0129
1518.3809 439.312
1523.784 443.58865
1527.0924 443.72266
1525.304 449.0241
1530.3281 449.34384
1533.0826 445.91602
1535.1432 448.73895
1539.8317 446.57758
1541.4739 450.2208
1538.3969 451.13556
1535.3997 453.1764
1536.4205 455.9031
1540.4298 455.58356
1543.6641 456.56924
1545.8423 454.1928
1547.9862 459.9952
1549.6193 462.6803
1552.4637 461.40082
1551.2662 458.68463
1555.7633 458.85724
1556.5499 462.59348
1559.4817 462.82886
1562.3677 460.69406
1560.4398 458.44678
1559.0659 455.0295
1555.6947 454.99948
1552.5013 455.29666
1548.7844 455.6564
1548.9625 451.3054
1544.8397 449.91928
1548.0969 446.73132
1552.968 446.2046
1553.6846 450.70724
1558.0225 450.74652
1559.3561 446.3379
1564.8112 445.41327
1570.423 446.16898
1573.1115 443.1701
1577.3267 442.8923
1579.5955 445.1682
1582.3372 441.6896
1583.1283 436.0176
1584.4192 432.16937
1582.3588 433.31467
1583.157 438.79532
1582.9891 445.35968
1581.1359 448.1559
1584.0852 448.75894
1584.3191 452.14444
1581.2582 451.4398
1578.3856 452.63416
1577.7844 448.83798
1574.45 447.55157
1568.1749 449.16534
1565.4286 450.85907
1561.5868 451.60153
1562.4314 455.6479
1565.193 455.70395
1567.8959 454.39868
1569.7797 457.2829
1566.5767 459.29242
1570.6506 460.35803
1572.8882 458.18195
1572.4639 455.32312
1570.5677 452.2369
1573.4381 450.7138
1575.3201 452.71167
1575.0134 456.50958
1577.3654 455.633
1580.2793 456.56146
1583.2327 458.2841
1581.6199 460.7327
1581.9921 463.7326
1579.2167 462.14243
1577.6501 458.82666
1576.3386 461.88467
1576.1256 465.0686
1573.5946 463.60144
1572.3655 465.97156
1569.5945 464.359
1566.4609 462.42484
1565.3018 465.50003
1562.2966 465.64685
1559.5687 467.63358
1556.9778 465.90228
1554.8961 468.0477
1553.1526 464.6376
1550.482 466.0314
1548.6105 468.14465
1545.835 468.64062
1543.3213 466.45163
1540.2402 467.94418
1537.3607 468.02286
1533.9001 468.74927
1530.9209 467.59476
1532.1716 464.8264
1535.8666 464.91306
1539.225 463.51376
1546.138 462.9645
1544.1095 459.8269
1540.9288 460.021
1538.0453 459.70825
1535.0573 461.59464
1531.6877 461.4523
1533.8856 457.93866
1530.9716 457.874
1531.0447 452.8435
1527.497 454.75092
1523.5739 455.13712
1520.2368 455.41403
1517.6547 454.8273
1516.696 459.6652
1521.0438 459.7565
1525.4647 459.41806
1527.0532 462.78766
1527.3544 467.3875
1523.8652 466.40845
1523.0984 463.16245
1517.9866 464.954
1514.2743 463.11374
1510.5243 461.89093
1506.918 460.87308
1509.2993 457.59985
1505.3014 457.00485
1502.2306 459.2217
1501.5703 455.74338
1497.871 454.92584
1495.7681 451.67084
1499.4484 451.843
1502.8693 452.35635
1505.7435 447.0133
1503.0687 448.41846
1500.076 448.60675
1497.1642 448.32495
1496.9423 445.2105
1494.3097 446.8013
1493.978 449.2764
1492.0614 451.07318
1491.3643 447.83383
1492.199 445.05304
1489.5183 444.95123
1488.5746 441.99515
1492.1344 442.32205
1495.1592 442.67886
1494.203 439.06445
1491.8083 438.3378
1490.2273 440.07788
1490.5449 436.49268
1487.9153 437.80014
1486.2646 439.7997
1485.5137 436.69897
1486.9572 433.39093
1486.6113 430.47253
1484.3125 432.67328
1483.5795 430.20312
1455.8381 426.29764
1454.3848 429.9635
1452.7732 425.16193
1456.4772 422.66235
1456.5879 419.24548
1453.5161 420.55777
1450.5936 422.41696
1448.0852 425.40933
1445.3842 423.1971
1445.3262 428.3843
1451.2578 429.17368
1445.2643 431.95328
1447.03 435.23926
1449.8021 431.9807
1451.6908 435.3708
1449.8314 438.50897
1449.2186 442.30722
1446.1705 441.41974
1445.8978 438.55142
1442.6018 440.56802
1436.5961 439.45892
1439.9622 437.74622
1442.7915 435.76025
1439.1823 433.6141
1435.7832 435.11728
1433.0637 442.124
1432.9119 437.79245
1431.1696 434.2131
1434.0746 431.36737
1432.7825 427.991
1429.2489 430.6673
1425.0946 428.22766
1422.5983 432.2474
1425.1138 434.62256
1427.7139 437.13953
1427.854 439.5746
1430.5103 440.97168
1426.7549 441.8372
1425.6964 444.11707
1425.6719 447.85098
1424.4764 446.1361
1421.0953 446.10022
1421.709 447.98758
1422.2783 449.6375
1424.1238 449.6879
1426.3209 450.47757
1429.1106 448.90942
1427.6672 446.00067
1430.9225 445.44797
1433.8413 445.33533
1436.9788 441.9237
1440.8077 443.58533
1445.9297 445.00955
1443.3004 446.6337
1443.613 451.8068
1442.3333 449.31775
1440.0974 447.76047
1437.6976 446.61597
1436.647 450.58502
1439.8523 451.8678
1437.5099 453.83557
1433.2758 455.41455
1432.8802 452.22955
1433.728 449.30444
1429.1177 452.63086
1429.1667 456.59937
1432.0145 459.22598
1429.0781 460.6352
1427.1669 463.0082
1426.9072 459.6066
1425.502 457.73145
1426.5211 454.80426
1424.7097 453.18622
1422.6494 451.72794
1423.2081 455.72507
1421.7075 457.92526
1421.9263 460.69223
1424.3995 462.1124
1422.0728 464.08627
1419.4601 463.08606
1419.0375 465.9017
1415.6173 466.1451
1412.4941 466.16547
1410.1166 463.807
1409.5856 467.58957
1405.6849 465.89874
1402.2598 468.60468
1401.5447 465.70157
1397.305 467.00266
1398.4381 463.47253
1401.2332 460.46722
1403.5852 463.04312
1406.9546 462.44534
1408.8794 460.12204
1412.6688 460.28558
1413.9143 463.28842
1416.8577 463.6393
1417.7085 460.2922
1415.7141 457.54584
1411.7773 456.06326
1412.7274 451.67706
1415.479 452.7653
1419.0878 456.32632
1421.2377 454.16074
1418.475 453.39954
1419.8356 449.89557
1417.4565 449.7838
1415.3033 448.74478
1418.8378 447.2213
1417.1847 445.5006
1420.0876 443.5917
1422.7273 444.18832
1424.2876 441.98175
1422.2944 440.91843
1424.5135 438.44104
1421.3523 436.7112
1420.2109 439.77637
1418.0859 439.39883
1416.586 437.84918
1416.7894 441.77304
1413.8889 442.5951
1413.8646 446.24393
1411.6016 448.1241
1409.9152 445.27826
1411.2036 441.6897
1407.4778 443.2919
1405.0919 445.01282
1402.9982 446.27716
1398.6946 445.6424
1398.3838 448.84344
1395.6633 446.08057
1393.2301 445.035
1390.3229 445.62332
1392.3804 448.1553
1389.5112 449.11597
1391.057 452.19336
1392.5623 455.58905
1393.6927 453.32706
1393.7291 450.89932
1395.5898 449.1379
1397.6523 452.36218
1400.6191 453.01337
1403.3726 452.28528
1401.6382 448.77686
1404.8496 449.4891
1408.1342 448.62158
1409.8823 452.27002
1406.9905 452.60486
1407.9609 456.3132
1405.0477 458.9141
1402.8583 456.1881
1398.8455 456.63483
1395.7773 455.75336
1396.8575 460.04248
1393.421 458.72305
1390.7732 460.25827
1390.6196 463.61835
1394.5669 463.43094
1393.4517 467.6447
1389.7653 467.8294
1387.1536 466.07547
1384.4996 464.71423
1384.1799 467.89594
1380.5764 467.1316
1378.5437 464.97433
1375.4926 467.95517
1374.8099 465.2349
1372.6581 462.38705
1372.7941 458.38904
1376.9802 462.0102
1382.0599 462.83005
1384.2355 460.28238
1381.4114 458.95074
1377.525 459.13263
1379.7513 455.29837
1378.7263 451.25583
1374.7494 450.93115
1375.4835 454.58353
1372.2927 454.21622
1370.5734 450.37198
1374.6455 447.28845
1376.0082 442.1409
1378.5569 445.72742
1382.659 448.31592
1380.7063 449.70074
1382.6794 453.77255
1385.9921 454.02298
1384.9906 457.3893
1387.3131 461.39227
1388.0175 457.67697
1389.7236 455.81918
1388.507 451.91913
1385.4025 450.21115
1387.4523 446.85715
1386.0897 443.72958
1383.1582 444.83603
1380.2488 442.53043
1377.2421 435.9795
1378.7037 431.02896
1375.7607 430.8448
1373.4893 434.87833
1373.7661 439.24988
1368.5782 439.93732
1367.5978 443.29437
1370.6884 442.85938
1371.2739 446.27136
1367.2688 447.23044
1364.8867 443.90115
1362.2661 444.71396
1359.235 445.55975
1358.8403 448.85672
1362.5183 448.91666
1365.1664 450.11926
1366.9624 452.7461
1368.3107 454.997
1369.3196 458.5553
1369.9752 461.04047
1369.6511 463.45828
1370.3916 465.8238
1366.3762 468.76456
1365.2736 465.25357
1367.2902 464.4729
1365.7351 461.11542
1361.7988 462.9721
1363.5791 457.7513
1366.551 457.37863
1363.8436 454.05063
1360.2518 452.44324
1360.6086 455.6707
1360.335 459.51825
1358.3291 462.26108
1355.5276 459.5498
1350.986 458.91553
1356.5975 456.00354
1356.3285 451.7324
1352.7725 452.41968
1349.5935 453.26834
1350.983 447.35764
1355.3466 447.42276
1354.2484 442.0764
1350.1958 442.05444
1349.6515 435.83365
1353.2845 434.708
1355.3705 438.39996
1357.3324 442.37762
1360.1002 438.91815
1364.0554 440.0336
1363.2174 435.46124
1368.9662 437.0478
1367.6257 434.1848
1364.3583 431.7269
1362.9136 428.3033
1360.5594 424.882
1358.258 429.39844
1357.871 432.689
1353.2372 430.57047
1350.7463 428.21094
1349.6073 425.05118
1353.3916 425.56302
1352.7719 421.86685
1349.815 421.11737
1351.256 418.44162
1348.5111 417.47626
1349.1996 414.22513
1349.9971 410.8273
1354.0171 413.41034
1352.9075 410.24792
1351.6996 407.67084
1349.0541 406.60843
1351.3783 404.58994
1354.0558 404.26984
1355.4121 407.67404
1357.7255 410.86832
1359.2618 407.5921
1358.2032 404.46164
1357.8801 401.59897
1354.934 400.56006
1352.0992 401.28738
1349.4838 401.99612
1350.1326 398.975
1350.1549 396.4689
1352.5096 396.19135
1353.6123 398.0238
1356.2572 396.78424
1357.8569 394.6399
1360.5916 395.1292
1362.5251 397.79694
1359.8103 398.33835
1357.773 399.1523
1362.0153 401.7513
1362.3376 405.4733
1364.9698 407.8062
1361.8531 410.50543
1359.3114 414.3731
1356.5924 416.059
1351.739 415.13013
1354.3296 418.73587
1358.4275 418.70078
1358.0111 421.9385
1355.3193 421.64502
1356.8127 424.85632
1362.1744 421.241
1364.855 422.31763
1366.551 424.87387
1369.7332 425.9792
1367.7292 429.95117
1370.8596 432.59152
1372.2604 429.90405
1374.4403 426.7066
1377.8523 423.24573
1376.2948 419.49203
1374.3483 421.3384
1371.8339 422.80386
1369.0283 421.3281
1368.8379 417.89285
1372.7649 418.1463
1377.2471 416.20322
1375.4453 413.9615
1373.3109 412.4826
1372.5748 414.92484
1370.1631 414.75916
1367.9772 414.2206
1366.2167 415.91675
1364.3915 418.23752
1361.5852 417.167
1363.1115 414.15155
1365.2494 412.4878
1367.374 410.20837
1370.0905 411.7993
1371.0608 408.6635
1373.7341 408.1234
1375.3937 410.26056
1379.7937 413.80115
1377.9104 411.82587
1377.3641 407.1734
1373.8009 404.3153
1370.7388 402.41656
1369.5814 405.73688
1366.5978 403.38953
1366.1538 399.7856
1370.5006 398.36908
1377.0255 402.18622
1375.2322 397.8586
1377.2266 393.67236
1378.8634 387.8286
1375.8068 389.71347
1371.3301 389.67032
1373.1151 392.6692
1369.9526 394.0322
1367.4327 395.75583
1364.5721 395.92136
1365.2313 392.0428
1367.9742 390.46973
1368.9235 387.45355
1368.4403 384.2175
1371.151 384.085
1372.9191 386.16504
1375.9376 385.98
1378.0874 384.02493
1380.7241 382.075
1383.1464 382.5216
1384.309 379.13162
1386.9895 376.49878
1389.4026 376.24167
1390.5487 373.57272
1392.4017 368.51324
1394.944 369.62888
1395.0267 365.9684
1398.6165 365.79477
1399.2207 367.92593
1402.0228 368.03723
1401.358 365.57135
1403.9332 366.2301
1403.5154 363.69702
1401.5248 361.54453
1398.9047 359.7397
1396.3154 358.037
1399.3275 363.37042
1396.8713 362.27075
1394.5398 361.7595
1391.5621 362.01758
1391.2162 364.89346
1388.7949 362.93265
1386.3793 365.51422
1383.8496 366.61258
1383.8589 369.2011
1387.6271 368.40225
1390.5061 370.8926
1386.8302 372.1554
1384.1561 375.43616
1380.678 376.47922
1377.8331 377.9685
1377.8888 380.62582
1373.6727 381.90482
1373.7554 378.55392
1370.4695 378.39536
1369.4008 381.29733
1366.2871 378.63132
1362.9147 380.0176
1365.5421 382.38345
1362.6642 384.83057
1365.6548 385.6633
1363.8011 388.65643
1362.0664 392.5678
1360.4045 388.33713
1358.6431 390.66415
1356.1595 392.09897
1354.416 389.73386
1353.8433 393.30597
1350.4819 393.4824
1347.8176 394.11765
1348.1343 390.8551
1351.2789 390.8667
1350.2458 387.53415
1349.7693 384.22208
1350.5927 378.94107
1353.6992 381.49542
1355.1222 385.83844
1358.5171 383.37534
1358.8562 379.0021
1360.6487 374.8382
1363.2358 376.42877
1366.9368 375.69052
1369.9824 375.239
1370.2069 372.0444
1372.2269 373.22513
1373.0737 375.50278
1375.9916 375.4858
1376.3667 372.50186
1378.6393 373.61273
1381.021 372.71793
1383.6742 372.82202
1380.5842 369.77618
1377.7202 367.65448
1375.1273 367.68622
1373.3162 370.8618
1371.7739 369.04086
1369.52 368.33856
1369.0303 365.2219
1373.2305 365.18933
1373.6584 362.33835
1369.6974 362.91138
1370.6033 359.46387
1367.6415 359.4607
1366.0482 357.3596
1363.8374 356.03122
1361.1398 354.77557
1359.0819 357.43112
1358.1907 361.27756
1360.013 364.69678
1357.9115 364.77176
1356.0454 366.761
1360.9221 368.29584
1362.457 365.62778
1361.953 362.835
1361.5542 359.3663
1364.601 360.99792
1365.4497 364.65814
1366.8416 367.22913
1364.7903 368.4412
1367.0503 371.08517
1364.802 373.3849
1362.7864 371.83463
1360.0994 371.56314
1357.5038 370.2675
1354.6614 370.4294
1352.0011 371.89636
1356.8713 374.05023
1354.8397 377.1657
1349.0333 374.55576
1348.7357 371.04602
1349.8987 368.3453
1352.4723 367.94662
1353.5288 364.63556
1355.9094 362.93317
1350.7659 364.97647
1350.8195 361.95184
1348.0237 361.34573
1350.8037 358.93066
1353.5927 360.81387
1355.4609 358.03415
1353.5303 355.54944
1349.5406 356.22116
1350.4894 353.1052
1348.6155 349.72592
1349.8394 344.4274
1348.4746 341.49084
1351.7998 340.9125
1349.9191 337.95142
1349.5095 334.16293
1352.6848 332.58856
1350.8123 330.26126
1348.6714 326.58606
1351.1239 324.73758
1352.7947 327.43024
1354.9355 329.84854
1356.4926 332.47488
1358.8058 334.94156
1354.5583 335.75983
1356.133 338.3704
1356.7177 341.6241
1359.7394 338.135
1361.3398 341.9876
1363.5311 339.15768
1363.0382 334.4883
1366.2787 335.3879
1369.3375 332.93982
1371.3431 328.1429
1374.417 327.33408
1370.3116 324.46097
1367.8005 323.4623
1365.4581 322.2478
1365.6724 325.03906
1364.8711 327.96982
1367.7981 326.51245
1368.1178 329.48273
1365.899 331.33243
1362.2205 329.463
1360.504 331.9222
1359.1163 329.32593
1356.2794 327.1438
1359.1681 326.38898
1361.6224 325.74554
1362.9354 322.95828
1361.4479 320.83942
1363.935 320.0914
1362.5054 317.2523
1360.2991 317.49347
1358.5681 314.58185
1356.8433 317.33154
1358.5874 319.64957
1358.6118 321.99033
1356.7456 323.37433
1354.0854 323.93655
1355.875 319.95697
1353.3844 320.95728
1350.0625 320.4966
1351.869 318.3397
1353.9371 316.5573
1355.9119 313.9512
1353.2173 312.74487
1350.7555 315.31247
1349.4088 312.2405
1350.487 308.53955
1352.1946 305.74326
1355.2356 308.5732
1358.9186 311.71625
1361.7681 313.46115
1364.5029 312.6542
1364.6702 315.43744
1367.2906 316.53183
1366.3884 318.7804
1368.1304 320.91568
1370.8107 321.33734
1373.0283 322.35867
1373.0262 318.8425
1370.083 318.28207
1371.0414 315.0491
1373.7596 314.1625
1370.947 311.7485
1368.1384 313.30035
1367.1633 310.6612
1368.0839 308.78912
1366.0784 307.06082
1363.977 305.8401
1362.5818 308.23648
1359.7719 308.19324
1361.4539 305.34784
1363.5485 300.5457
1361.0237 302.47076
1356.9613 303.67383
1353.483 300.3808
1349.7056 299.8952
1356.3644 295.91354
1357.0792 299.66608
1361.2402 298.29474
1365.132 297.7377
1366.6072 300.82065
1368.9004 298.27124
1373.6725 299.14383
1377.8906 297.5503
1380.2666 294.47223
1377.2052 301.80234
1371.8969 302.43176
1369.7014 302.33508
1364.6383 303.43097
1367.4349 304.19202
1370.6473 307.6857
1373.3474 308.5315
1375.0807 305.4726
1377.6461 306.38785
1375.9298 308.9184
1374.8578 311.75055
1377.9272 312.84268
1378.9196 315.40305
1376.4324 316.88956
1378.3014 319.1839
1376.3407 320.66132
1378.9724 322.8738
1376.2612 324.24707
1377.8593 326.8324
1377.0883 331.14972
1373.5219 331.92184
1377.1387 336.82355
1376.8257 342.11142
1372.7333 336.2761
1368.7711 337.48456
1371.5822 340.62265
1367.6128 341.0605
1365.4761 343.72012
1369.61 344.8989
1373.7261 345.0692
1371.882 350.13852
1367.5038 349.44266
1365.8081 346.81808
1362.0858 345.8583
1359.0634 348.77548
1357.0582 345.68866
1354.0457 343.5747
1352.8065 346.41962
1351.4022 348.76923
1354.8887 350.8974
1357.6156 353.24164
1360.7642 351.2239
1363.6061 349.71674
1364.6514 352.97217
1368.3755 354.31226
1371.5934 354.9
1376.2025 354.46884
1377.1456 347.70908
1380.4064 349.71408
1384.5204 350.48422
1383.9371 353.9925
1385.605 356.9196
1382.7184 358.55344
1380.2817 360.91556
1378.5952 357.81595
1374.8752 358.57007
1377.0491 363.05847
1380.0762 366.0721
1382.7924 363.5071
1384.5706 361.09958
1387.6001 360.25244
1389.1458 358.1871
1388.5286 355.40714
1390.9722 353.4142
1387.6302 351.19827
1390.5646 350.12863
1389.9436 347.834
1394.5188 347.13916
1394.7803 351.19293
1399.6758 349.74026
1399.0223 352.4412
1394.5605 355.14267
1392.2417 359.47577
1392.1306 356.73846
1397.2025 354.79663
1400.4302 354.96646
1401.3428 358.35165
1404.4495 357.6872
1404.7632 360.6596
1408.5414 359.70618
1406.7153 364.1197
1406.8419 367.7702
1409.623 364.64832
1414.0837 366.9975
1416.7363 364.46097
1417.6284 369.4023
1420.7756 367.56717
1424.2839 368.86948
1421.17 371.8622
1424.5481 372.19946
1427.4971 367.75217
1429.3698 370.89868
1432.9547 373.75043
1429.6554 374.68503
1426.5477 374.3899
1423.6652 375.38498
1421.5227 376.26862
1425.2471 377.95337
1427.7308 378.7076
1430.5292 378.51102
1431.973 380.9888
1430.3556 382.84323
1427.2201 381.9484
1426.048 385.64624
1428.0757 384.8902
1430.6755 386.4408
1428.3274 388.01474
1428.0826 391.18097
1430.9366 392.33813
1430.8787 389.43628
1433.0544 387.87723
1433.0452 385.24893
1434.1602 382.73953
1436.1274 387.13123
1434.2007 390.8066
1435.6919 394.80838
1432.6488 396.5
1429.0844 394.98218
1429.1051 398.25693
1429.0925 401.85168
1429.009 405.32495
1432.0813 404.42633
1433.3903 400.94995
1436.3712 400.50388
1439.1146 395.4281
1443.0774 393.36447
1447.3514 391.09772
1443.7045 389.54776
1438.7036 392.14642
1438.2914 388.7788
1442.3116 386.5204
1439.9396 384.97073
1437.1338 383.96423
1440.073 379.74173
1436.1877 379.94485
1434.0316 377.07474
1438.1699 377.51874
1440.2617 375.70215
1439.1901 373.43753
1443.0211 374.23566
1444.5981 372.1397
1441.6458 371.09576
1439.0166 369.55713
1436.6161 370.66583
1434.2703 370.17642
1432.3555 367.0301
1432.006 364.2084
1436.4266 366.02014
1441.055 364.6492
1441.5463 367.97012
1444.2191 368.64566
1445.1603 366.335
1445.6287 363.75665
1443.2109 361.59192
1439.9696 360.36383
1437.5206 362.71143
1434.6671 360.28113
1435.3746 357.59616
1432.1956 356.7113
1431.164 359.89243
1428.0054 360.29208
1429.1119 363.09763
1426.7593 364.06476
1425.0552 361.74033
1423.5513 365.15448
1420.16 363.71375
1419.5304 359.52655
1416.1849 360.72708
1412.8539 362.83563
1411.4934 358.2108
1408.325 355.46957
1408.8293 352.8294
1412.0321 353.3629
1414.1194 355.21725
1414.5015 357.73502
1417.7803 356.3383
1420.9772 355.9507
1422.1099 361.17572
1423.4187 358.88788
1423.9341 354.37347
1426.2983 356.88782
1428.5289 355.21054
1431.1934 352.23755
1429.921 349.11707
1426.5078 350.3089
1423.3444 348.36176
1422.8246 351.56458
1419.565 351.70944
1415.9496 352.8723
1416.6136 349.14288
1414.2742 346.11417
1411.2252 344.68326
1409.5417 347.38843
1412.348 349.46503
1409.9932 350.32385
1406.888 349.5981
1405.571 352.21512
1404.2363 354.71967
1402.6628 351.36533
1400.8334 346.72498
1397.239 347.40128
1398.7406 344.1537
1403.6501 343.7323
1404.4556 347.3938
1407.022 345.03204
1407.9536 341.97314
1412.4253 340.88535
1416.1787 342.64017
1419.8579 344.0312
1423.505 343.9349
1427.0597 345.95172
1431.0773 345.94464
1434.0312 348.14
1437.4269 350.3072
1434.7747 352.8408
1438.8037 355.50757
1442.0468 355.18652
1445.5719 357.44
1446.6085 360.80374
1448.8999 364.64667
1447.9568 368.54297
1451.226 367.28152
1451.4482 370.3883
1451.4559 374.72403
1454.5648 377.765
1453.5303 380.43692
1451.3784 378.2322
1448.242 374.7875
1447.0529 377.8641
1443.9991 377.48657
1445.5204 380.97144
1443.1316 382.63596
1445.7875 386.06735
1449.3566 385.0529
1448.4547 381.90338
1452.2334 383.24237
1456.1423 385.03577
1455.865 388.48657
1451.929 387.63092
1451.2637 392.68082
1455.3944 393.03482
1456.8529 398.11502
1459.0396 401.94705
1456.1265 400.84637
1454.5823 403.3821
1452.9569 399.52402
1449.1316 397.63464
1447.5457 402.98633
1445.4116 399.92325
1443.0657 397.3861
1438.7847 398.47818
1440.695 402.3998
1439.8838 406.96906
1444.2854 405.8509
1442.5028 408.89276
1439.3347 410.93497
1436.6439 404.884
1433.9543 407.898
1430.5898 409.30496
1432.1685 411.66263
1436.1276 410.11078
1438.6498 414.2506
1437.0273 417.0282
1434.6816 414.3274
1431.357 415.12805
1428.5378 411.14673
1429.3455 413.67944
1428.4269 417.08728
1431.4469 417.8465
1434.7241 419.22473
1430.5038 420.672
1427.3296 420.3491
1428.3315 424.48624
1433.2081 423.22824
1437.0673 422.25214
1437.1504 425.91498
1438.1514 429.7306
1441.7352 429.6859
1442.6338 426.43707
1441.8346 423.33374
1440.6963 420.44623
1443.7609 419.54227
1440.9263 417.61548
1442.2944 414.9115
1443.0863 412.14062
1445.6409 416.90228
1447.7427 419.9531
1450.3391 417.45938
1452.7324 416.22073
1453.5939 413.57416
1448.8297 413.8591
1446.6586 410.16977
1448.9592 408.30542
1450.2402 405.74374
1451.4403 410.82336
1453.4138 408.6568
1456.0266 407.00967
1455.904 411.9037
1455.7877 415.809
1458.8862 416.65347
1458.2988 414.06635
1458.6448 409.9001
1461.2662 407.7885
1458.7777 406.6454
1462.1514 402.09338
1465.8451 402.27698
1468.7073 400.23444
1470.4119 401.86096
1464.5302 405.20642
1464.2223 407.9504
1468.1754 406.35385
1472.4233 406.47913
1474.0449 400.72955
1476.6151 405.30826
1480.8805 404.80466
1481.9086 408.56732
1484.7794 403.38083
1481.8022 400.1412
1478.3647 400.6214
1481.2256 395.53348
1484.5667 396.96008
1485.1396 399.6911
1487.6748 400.15683
1490.5259 401.2705
1491.7483 399.0567
1492.7267 396.68
1488.251 397.0152
1491.2153 394.5255
1489.2869 392.44193
1485.702 394.01715
1486.7046 389.664
1483.2195 388.885
1484.8209 385.09708
1487.1106 380.6885
1491.1125 378.10706
1488.176 374.5199
1492.7484 372.43643
1489.7104 369.92892
1492.3661 366.579
1495.3354 368.8509
1496.3009 365.18253
1493.9637 361.98627
1496.8848 361.88086
1496.9044 358.69046
1500.0995 358.48077
1500.668 354.76556
1503.3765 356.3221
1503.6719 359.56445
1500.4875 361.89407
1499.6573 366.34058
1502.4713 364.65607
1504.7782 363.32855
1507.5996 360.4533
1509.6737 357.03433
1506.7654 352.5525
1509.9385 350.91705
1513.7395 354.3011
1514.1519 350.96686
1516.5795 348.3186
1517.6575 344.19153
1519.384 347.33096
1522.29 347.87488
1524.262 344.54794
1528.2305 344.87173
1532.4722 343.4528
1535.1768 345.6312
1533.5352 349.09122
1529.1594 348.78687
1525.9519 349.728
1524.7039 353.38718
1520.7489 351.60596
1516.5697 353.5812
1520.5782 355.77213
1519.9437 359.84357
1520.3514 362.90808
1516.9194 362.7339
1516.4807 359.3371
1512.9169 361.76654
1510.8949 364.36478
1507.5662 364.75232
1504.6392 366.73618
1506.7277 368.77313
1509.9948 367.78467
1513.4003 367.9564
1515.408 366.113
1513.7358 371.69113
1511.2225 370.6227
1508.2661 371.93414
1510.1194 374.8749
1513.3918 375.00443
1516.6003 373.83078
1516.0557 370.32858
1518.8108 369.49234
1518.4595 366.0226
1522.0892 367.3771
1525.5336 365.2588
1525.7732 361.6879
1523.715 358.87018
1526.999 357.15295
1529.5842 361.73773
1533.6406 362.35266
1531.4684 358.09558
1530.013 355.76987
1530.8563 352.91885
1534.0223 353.11673
1534.8805 356.1316
1537.9645 354.50095
1541.0021 355.97958
1543.5536 357.96475
1540.5068 359.27393
1536.4279 359.14832
1537.9954 362.15314
1539.6224 364.15823
1541.9075 362.23697
1545.3783 361.8638
1543.9768 364.9146
1547.4995 365.25522
1550.4844 366.7375
1552.9126 364.07147
1554.7804 366.861
1553.8373 370.1411
1556.0741 371.78464
1558.3826 373.85956
1562.9102 372.8423
1560.174 376.09485
1559.5007 378.6855
1561.0535 382.65506
1561.7173 385.94833
1564.4362 381.72192
1562.9305 378.08633
1565.6566 375.3144
1566.9116 371.06616
1563.8606 368.75424
1560.2668 370.03766
1557.4392 368.6619
1557.5592 365.51492
1560.7247 365.83887
1563.843 364.47546
1566.7853 362.18866
1569.3538 359.95596
1569.7179 356.72855
1566.1381 356.9105
1563.9912 360.21295
1560.8722 358.50903
1560.0386 361.5732
1556.1323 362.81232
1554.9373 359.80664
1555.9161 356.1021
1552.3799 353.36044
1550.285 356.99805
1549.1534 360.8199
1546.3685 356.12485
1544.1322 352.9468
1548.319 352.92032
1548.0952 348.7547
1544.9644 347.73938
1542.4778 349.92163
1540.8308 352.59155
1538.3524 350.64572
1539.0757 347.0926
1538.0386 342.83807
1542.3467 343.5207
1547.8789 343.89862
1550.6144 346.37906
1551.2559 343.0733
1555.7484 343.47842
1554.7938 346.4263
1551.2919 349.76242
1555.4042 350.34283
1559.8105 346.60275
1563.4462 349.23865
1560.2777 351.84842
1560.6007 355.1305
1564.3093 353.12244
1567.719 353.49954
1567.8738 350.21826
1571.4824 353.35962
1574.2334 356.3613
1573.5614 360.2051
1570.5621 363.6919
1568.9111 366.7886
1570.5569 369.82764
1569.078 374.63947
1572.0264 374.3242
1574.3788 372.12302
1574.3562 367.84695
1574.482 363.62946
1577.9084 363.64313
1578.0293 358.83484
1580.8848 362.43976
1581.0607 366.4908
1579.4888 369.30292
1576.9626 371.5299
1580.1876 372.5857
1580.6523 375.8433
1577.6058 375.10257
1575.1487 376.8047
1578.0859 379.30853
1577.8928 382.75528
1573.9236 382.6379
1572.0381 378.75235
1567.5223 378.457
1568.9235 382.42758
1567.0757 385.25613
1566.6488 388.45938
1569.4971 389.10333
1571.4479 386.64346
1574.1133 388.8481
1573.9967 392.01062
1571.9833 389.9497
1566.7883 391.4369
1563.2543 389.83905
1563.1112 395.03754
1559.477 392.74384
1555.28 394.55222
1551.4258 391.60486
1547.3156 393.01514
1549.9854 396.72562
1550.7393 401.2579
1554.604 400.5923
1557.6412 398.09528
1560.902 397.85678
1563.6835 398.85034
1565.4357 400.9948
1567.2052 398.8776
1566.4185 395.3666
1570.726 393.29193
1569.332 395.9846
1570.5924 399.66025
1572.2847 396.8077
1575.2015 398.7199
1574.6637 395.32843
1577.7074 394.04593
1578.1492 399.01425
1580.3495 397.1075
1583.0814 398.89294
1583.8077 395.4399
1581.3842 393.21884
1579.0874 391.0434
1576.553 390.3127
1577.8018 386.5268
1580.9092 388.5194
1584.4663 391.8864
1584.2528 388.97174
1585.0865 385.55933
1585.4312 382.29813
1581.3813 383.25616
1582.2992 380.34323
1582.864 374.25677
1585.7494 373.538
1584.0752 371.02554
1586.9905 369.66193
1590.8383 368.55356
1596.2229 367.7886
1605.9381 365.5209
1611.966 360.1617
1615.8503 362.2955
1615.9305 356.9792
1612.2643 355.49164
1609.9508 354.34088
1610.1179 346.4368
1611.9304 350.50516
1614.1311 353.4821
1616.8502 350.7266
1614.8875 347.7699
1613.8698 343.8817
1617.7703 344.37646
1620.5591 347.8393
1621.4507 351.3287
1618.9362 353.89862
1618.5331 359.57352
1621.3601 358.0634
1624.2798 355.42947
1626.6559 357.7677
1630.8855 358.51996
1637.1417 356.69186
1635.0212 352.4921
1631.9933 354.62762
1628.8043 352.821
1626.0944 349.71115
1623.5897 345.5088
1627.7896 345.82568
1631.6455 344.14636
1631.7188 349.02365
1635.6672 345.88165
1637.7778 351.0105
1639.7687 353.64655
1643.1377 353.75388
1645.943 351.79572
1648.8197 350.87064
1642.4227 350.26846
1639.1788 346.24118
1642.3108 343.77332
1644.7701 347.10968
1646.8982 343.23657
1648.6897 346.4426
1650.9727 348.84604
1653.6456 346.32138
1656.119 348.1209
1657.8644 346.04565
1660.5398 344.4828
1663.0264 343.35406
1660.5531 341.27213
1663.0226 340.13776
1664.8865 337.94055
1662.9436 334.10034
1659.6835 333.617
1660.8809 336.96887
1658.4924 339.41232
1657.6619 342.54233
1655.7412 340.67276
1653.7825 343.43192
1650.9781 341.79865
1654.2587 337.74313
1657.2383 336.3857
1656.4612 333.59262
1653.7314 334.1542
1651.5178 335.40927
1650.9827 338.0487
1648.3412 339.1908
1645.4297 338.94235
1643.0372 340.94815
1642.9205 336.01938
1644.3143 333.0558
1646.9718 336.21854
1648.996 333.74094
1651.1005 332.32916
1653.5955 331.29697
1655.8861 328.2934
1657.8978 331.0056
1658.7292 328.63388
1658.4375 326.02347
1656.682 324.4571
1655.5645 321.00134
1657.2122 315.91196
1652.5757 317.0273
1653.0562 320.2676
1652.1177 323.86526
1654.3099 325.52792
1652.9258 327.7529
1649.9032 326.36258
1650.5599 329.2845
1647.7197 329.9777
1643.71 329.93436
1643.5103 326.8902
1646.9001 326.42117
1645.0948 323.7644
1646.6748 321.12674
1649.9025 321.23004
1648.4814 316.5675
1644.5361 317.22565
1642.4818 319.93158
1642.0756 315.15607
1647.3323 312.8922
1652.0443 312.366
1657.0088 309.80167
1660.7472 312.8739
1662.2378 307.77115
1665.6653 311.97098
1668.5276 306.9172
1672.0126 309.60898
1671.6047 317.0616
1668.1027 315.73514
1667.9122 319.99353
1664.6322 322.58752
1663.8484 317.03024
1662.083 320.1577
1658.7313 320.4034
1660.784 324.00983
1661.4065 327.51715
1661.3136 330.64032
1665.4377 330.03467
1664.4602 326.387
1667.7649 324.81046
1670.8164 322.6946
1673.3073 322.8027
1670.8464 325.27542
1672.0399 327.66125
1668.7793 328.68134
1671.7273 332.02396
1668.3519 332.34628
1666.1724 334.89816
1671.1987 336.835
1666.3651 341.2907
1670.0244 340.48434
1672.884 342.24863
1680.5614 344.13782
1683.9423 345.20578
1687.3126 343.94983
1687.51 346.6581
1689.7522 349.19977
1686.1504 350.50903
1681.9164 351.20383
1684.0305 353.41504
1687.1034 354.71417
1690.2161 356.01956
1690.6055 352.52878
1693.9194 353.8392
1693.6072 350.5455
1691.902 347.12695
1690.988 344.0425
1694.1763 344.58594
1696.1625 346.83188
1698.0469 348.93314
1701.2708 347.9518
1699.5417 344.4996
1703.0713 344.62064
1705.1545 347.1498
1708.498 349.13318
1709.517 345.48392
1712.8726 344.16092
1712.1199 348.6167
1714.8546 346.6917
1717.9353 345.06537
1720.7738 345.27072
1718.9095 347.45847
1720.9622 348.92126
1718.47 349.87115
1715.1837 349.82242
1713.5989 351.8547
1714.0846 354.8031
1710.1276 353.02368
1708.7311 357.0866
1712.144 356.51993
1717.0707 356.23834
1717.1093 353.1493
1719.7924 352.07916
1725.8108 352.26184
1731.0837 353.92102
1739.3274 353.87042
1734.9188 353.70663
1728.9369 351.75116
1722.6066 352.47052
1718.6722 358.3069
1719.8289 361.1328
1717.3953 361.61963
1713.2589 359.422
1711.6245 362.34888
1714.219 362.67166
1719.3611 364.7805
1716.1233 365.45288
1713.5068 367.32513
1712.4082 365.13052
1708.6832 360.9876
1705.217 361.2721
1708.8213 363.9749
1709.7019 366.46744
1706.2461 366.3914
1705.3784 363.96112
1702.4774 366.04153
1698.571 365.73663
1692.9791 365.85645
1689.5463 367.21082
1689.3668 364.02692
1687.127 362.215
1692.3972 362.49298
1695.846 363.17847
1697.8741 361.3868
1700.8514 362.51328
1702.6433 359.9389
1705.6494 357.14792
1703.2112 355.32098
1705.9758 352.02203
1702.4702 352.24008
1699.7539 351.4395
1696.9617 352.12247
1698.2598 355.1795
1701.116 357.90512
1698.1769 358.49118
1694.999 359.98795
1694.3553 356.79355
1691.1014 359.7105
1687.8353 358.74832
1683.3533 357.09222
1680.8787 360.74835
1683.373 362.14905
1684.5325 365.40543
1680.8838 365.85974
1677.7512 363.94073
1673.8131 362.6842
1673.783 365.80563
1669.819 367.65564
1669.1216 363.94034
1666.63 361.89783
1662.7766 361.71426
1661.892 365.17825
1665.2727 365.11954
1666.0156 368.10327
1666.4406 372.06384
1663.3667 371.07138
1661.2172 368.85464
1658.4647 366.5716
1655.7467 364.04556
1658.9694 362.6946
1657.1448 359.75174
1660.1991 359.84464
1662.2368 357.12198
1665.3658 358.91382
1669.6741 360.50116
1673.357 359.07303
1677.1647 359.3162
1677.9889 355.203
1674.3284 351.81512
1678.2689 350.33813
1682.121 348.30765
1677.2017 346.33182
1673.9817 347.45612
1670.5154 345.45486
1667.3025 347.2069
1665.9076 344.50134
1663.7725 346.47797
1660.3287 347.3022
1661.203 350.86172
1662.8772 348.87067
1665.1693 350.42767
1670.1353 350.45273
1671.2294 354.42917
1668.5264 356.54028
1667.3888 353.2368
1665.365 355.2972
1662.4202 353.7772
1658.9792 353.01004
1659.1809 356.13715
1656.2155 355.18298
1655.61 351.61063
1658.6018 349.69058
1653.8523 349.3984
1652.0382 351.85254
1653.1924 354.43338
1653.0127 357.787
1652.4379 361.6378
1651.2429 365.60345
1651.3713 369.60388
1654.8147 367.6769
1657.3842 370.0695
1659.7196 372.2583
1657.1982 374.55463
1654.3768 372.18558
1653.1145 375.57114
1654.856 378.47754
1657.8207 379.46594
1660.2356 376.84555
1661.7633 374.28964
1664.4368 374.58182
1663.1073 378.81232
1663.6338 382.48834
1659.7241 382.70612
1660.4629 386.5316
1663.8539 388.51233
1665.9282 386.08954
1666.6097 379.6044
1666.71 377.14233
1667.7996 374.80667
1669.3196 372.76993
1671.3579 371.79108
1673.3828 371.2657
1672.7915 374.28976
1670.4932 375.27078
1669.5684 378.1813
1672.6207 377.70026
1671.8359 380.80066
1667.9114 381.78198
1670.5073 383.75406
1671.1555 386.6457
1672.3037 389.85733
1671.1036 393.51602
1672.4595 396.86328
1670.6235 400.50137
1667.3011 402.68774
1665.791 405.8342
1663.7968 402.365
1661.9543 405.29608
1657.8774 405.84393
1659.4773 407.88934
1660.781 410.2262
1662.3657 413.66852
1664.379 410.55466
1663.1952 408.01132
1667.0248 409.58533
1669.7415 404.81424
1672.3997 405.6158
1670.4802 408.05603
1669.6119 410.9439
1666.7274 413.17764
1670.7194 413.3835
1671.8123 417.4829
1668.5071 416.1149
1665.2673 415.99002
1662.5874 417.21936
1664.5884 420.02063
1668.1226 420.39703
1671.4736 420.62106
1673.2567 423.0741
1671.0321 423.9357
1668.7441 423.9747
1666.3938 425.91644
1665.4536 422.8931
1660.2819 419.333
1661.7205 422.25262
1663.235 425.44748
1663.9143 428.26956
1666.0085 428.7908
1668.4435 429.1132
1669.1194 426.7004
1671.426 426.5017
1673.9069 427.68808
1671.3401 429.2624
1673.1837 431.1434
1673.1105 435.18756
1669.3811 437.398
1671.8983 440.51172
1667.4503 440.80148
1667.6146 443.49997
1664.2778 442.27853
1663.2009 445.23453
1665.8633 448.46033
1668.9236 448.54562
1669.1873 445.79715
1672.3347 447.24405
1672.7136 444.13873
1674.9617 441.79187
1674.9899 438.9329
1677.8506 440.43713
1676.5758 445.1487
1679.2064 443.0207
1682.966 443.6241
1687.6466 444.99667
1689.4436 447.38846
1686.0085 447.25644
1683.1307 446.36526
1680.0637 445.619
1678.0775 447.71484
1675.3044 448.71426
1674.2422 451.0111
1671.6187 450.12515
1668.8618 452.08163
1669.138 455.25656
1665.7474 457.45218
1664.8077 454.12656
1662.2048 449.1016
1662.7488 452.11353
1661.2212 456.1691
1663.6221 460.1919
1667.5452 461.5252
1669.4663 459.0651
1672.4192 459.00134
1672.5358 455.93533
1672.7245 453.4615
1675.3701 456.5933
1678.8691 455.7316
1677.143 453.28546
1678.6831 451.05463
1680.7051 448.92587
1681.5757 452.41638
1683.8972 449.90057
1686.5336 451.1392
1688.7832 451.93573
1691.322 449.4431
1692.3499 445.41675
1694.1478 448.1016
1696.4214 446.27963
1700.5073 446.59088
1703.3323 445.14
1705.5621 449.64084
1706.0056 446.27252
1709.1505 445.24295
1711.3574 447.53818
1714.1702 445.0672
1717.4534 448.1448
1718.9489 444.84674
1724.7542 443.87445
1729.2839 450.06125
1733.0266 450.12817
1737.8472 450.55002
1743.8794 449.80984
1749.9432 447.94745
1754.0945 447.60938
1756.3696 448.65457
1752.2313 449.5018
1747.0747 449.52814
1740.8284 449.4896
1735.7743 448.38354
1731.6407 442.8272
1738.4916 441.8532
1743.9297 441.5277
1747.6914 441.34998
1751.0068 440.02655
1754.7983 440.42114
1755.6211 436.2555
1752.5686 432.81732
1753.4961 427.98465
1754.7048 423.33334
1755.2122 417.98978
1758.713 423.20456
1761.99 421.34836
1760.3108 418.16125
1759.0588 412.27197
1761.7595 407.4051
1764.5991 409.89282
1768.1764 410.91162
1771.1488 412.70026
1774.9756 410.1899
1777.7384 408.8852
1781.4468 409.52585
1784.4492 408.96365
1786.717 403.62656
1790.4458 403.75873
1793.4387 399.45065
1795.0153 405.09375
1799.1344 405.9556
1796.5001 408.5434
1791.6914 407.6783
1787.923 407.0393
1788.2958 410.81265
1784.4086 412.33115
1781.488 412.8873
1778.9238 412.5019
1776.5143 412.86554
1773.9856 413.98474
1771.8167 416.07224
1773.0386 418.37695
1770.0543 419.46713
1769.3787 416.52026
1766.6378 415.6238
1763.3082 414.7871
1764.9396 418.59454
1766.8315 421.5306
1769.4485 423.07358
1771.8395 422.04
1774.8925 421.0878
1775.6462 417.08078
1779.221 416.94003
1778.4163 420.2601
1778.2845 423.86337
1778.4396 427.7872
1774.2533 425.46063
1770.896 426.03326
1773.0396 428.57904
1772.4329 431.2254
1771.5901 433.99225
1774.3881 434.85672
1776.2476 437.30972
1772.2991 438.14743
1768.7013 432.73056
1768.5684 435.8577
1768.3774 439.03955
1767.7935 441.8378
1764.3666 444.04956
1764.5453 440.61108
1762.8094 437.7011
1764.9452 434.79004
1765.2827 431.7608
1763.6796 429.63437
1765.4874 428.01505
1768.1809 429.30206
1766.8013 424.86517
1762.7051 424.3206
1762.5828 426.7923
1758.6719 427.02286
1757.4043 430.30707
1761.2587 431.61502
1759.4323 434.68103
1759.7417 438.14297
1759.8682 441.04617
1759.4547 443.67828
1754.7817 444.20862
1758.267 446.02255
1759.8372 449.2568
1762.0728 446.60806
1762.9806 449.8491
1762.2468 452.4305
1759.6273 453.69763
1761.7582 458.29547
1766.1711 460.9233
1763.6733 454.73965
1766.0498 452.52625
1766.0018 449.83017
1766.0493 446.91104
1768.7537 445.90375
1771.7814 444.1943
1774.8485 441.5363
1779.8362 441.73456
1779.1624 438.28134
1778.3943 434.33173
1776.6577 431.338
1781.9185 427.11246
1782.7083 423.43042
1785.7219 419.7214
1782.2632 419.53198
1782.283 416.00403
1785.1567 416.03998
1788.1682 416.52094
1790.8304 416.3348
1791.0874 413.34418
1794.9384 414.28073
1794.4304 410.82895
1798.0251 412.07037
1799.784 409.68024
1802.2881 412.2762
1806.2107 411.05936
1809.331 412.00522
1814.4795 410.82755
1811.0558 409.48718
1809.366 406.4478
1807.5983 403.6718
1805.76 406.88666
1803.0422 409.32294
1802.1804 406.7725
1804.1042 404.26407
1804.0726 401.4659
1806.182 397.09863
1807.4629 400.28345
1810.4591 400.41568
1810.8606 403.14563
1813.3153 401.21844
1812.9772 397.79834
1810.1519 397.2078
1812.0569 394.448
1815.1914 395.55768
1818.3188 398.3735
1817.1074 401.4045
1818.2357 403.9167
1813.3398 406.40506
1817.094 407.5554
1820.5835 406.75967
1822.5828 409.09082
1819.8291 410.6214
1817.4961 412.48773
1822.6128 411.85562
1825.873 411.5838
1826.8114 409.0567
1824.7122 406.76868
1822.7522 404.52954
1824.1631 402.18744
1820.8649 401.98593
1821.7075 398.67328
1825.3928 398.71573
1828.1744 396.73914
1830.4329 394.2283
1832.0574 391.15277
1832.389 387.8552
1835.2383 389.6531
1836.5345 385.44894
1834.8746 382.11215
1831.6487 384.54813
1831.194 380.6078
1828.132 381.64252
1828.067 384.6705
1827.1553 387.94675
1829.8848 388.46954
1828.5885 391.17612
1826.4667 392.9937
1823.117 392.21786
1823.8607 395.22296
1820.2158 395.03503
1817.7106 392.12512
1814.3923 392.404
1812.0012 391.0324
1809.5145 393.18057
1807.1613 392.18823
1804.0615 392.8898
1800.0587 393.70566
1803.0377 396.69574
1801.0078 399.73776
1800.9417 403.22766
1798.007 401.56577
1798.5842 397.97424
1795.87 395.7087
1792.1337 392.28214
1789.787 386.17322
1789.347 383.04047
1788.9716 377.09433
1789.224 371.92303
1787.5505 368.83972
1788.0981 374.5074
1789.489 380.0054
1791.5876 383.20206
1790.7661 388.8983
1789.4526 394.71088
1788.5947 398.195
1784.1348 396.66333
1780.5757 399.19418
1784.0508 400.6453
1782.9509 404.93985
1779.6572 406.21643
1779.7415 402.48907
1776.2981 400.86493
1774.3198 405.59726
1772.195 408.6754
1769.9227 406.6296
1766.0885 405.48
1766.6611 402.4646
1770.4332 403.1549
1773.1746 400.83517
1777.4783 396.2978
1775.3632 393.4
1774.7759 390.41278
1771.9143 387.11282
1769.4641 382.435
1766.3846 377.917
1764.5225 373.7245
1762.2025 371.06882
1761.5116 367.21185
1761.5054 363.3513
1764.1008 361.51273
1765.5977 364.25592
1764.5088 367.79678
1767.1702 367.9221
1769.3403 369.2879
1771.5636 367.93256
1769.2747 365.47827
1768.7881 361.6253
1771.259 363.08453
1772.7123 365.57614
1774.0842 361.9874
1776.5544 361.69
1780.0605 361.58627
1778.7587 364.93832
1776.6632 367.12225
1779.791 367.7613
1781.9884 365.41547
1784.1692 363.1068
1786.6975 361.05444
1786.6057 365.54843
1789.3896 363.87918
1789.753 361.0852
1792.4109 363.07584
1796.5359 363.31705
1797.6855 361.10703
1799.2117 359.17908
1794.8904 361.41302
1790.042 358.40448
1792.969 358.56647
1795.4247 356.93756
1793.583 354.65466
1789.7974 355.1723
1792.4602 352.35617
1792.2334 349.467
1788.853 349.25323
1785.8905 347.8357
1785.8292 350.98
1783.1458 351.13675
1783.2014 355.4065
1786.3751 356.42557
1782.9991 359.64926
1778.8368 358.4111
1775.1763 358.83072
1771.5334 359.5947
1771.2479 355.3173
1768.966 358.0048
1765.827 355.97546
1766.0754 359.31705
1762.6509 359.15366
1759.6296 355.74304
1755.6665 355.48056
1752.2278 355.18164
1746.8945 353.79193
1743.5532 352.83853
1749.8217 353.0737
1753.9694 353.30582
1758.0159 353.8482
1761.8854 353.79224
1763.4413 349.61572
1764.9609 352.5511
1768.8445 352.6022
1768.0507 349.03394
1771.6407 350.32535
1771.9935 347.1401
1774.9603 349.33737
1773.9363 352.88974
1775.9313 355.60632
1777.4205 352.613
1779.9983 355.64474
1780.2825 352.61655
1781.045 349.6422
1778.0638 349.07928
1777.4619 344.94547
1780.4677 346.41577
1784.3444 344.93466
1788.2322 345.1199
1792.3668 346.1553
1796.4872 349.04758
1800.4873 347.478
1798.4304 345.8736
1793.3 343.28833
1796.9956 343.05917
1798.261 340.87234
1801.4797 342.74503
1804.0205 344.59875
1807.1664 343.1062
1808.051 348.15546
1805.054 348.39996
1802.6104 349.40964
1805.1014 352.2363
1807.9614 351.91965
1808.0771 355.51358
1807.2994 358.679
1805.4412 360.77417
1803.6697 359.4902
1805.5759 356.1504
1803.1753 355.96255
1802.1747 353.47546
1798.792 352.02756
1796.7937 353.8742
1798.0399 356.639
1799.9951 354.97385
1800.6597 357.1347
1801.4658 359.03348
1800.857 361.11917
1799.7172 362.87503
1801.9908 364.1794
1802.9276 362.13385
1804.8308 363.53946
1807.3191 362.4332
1808.0537 364.58704
1810.3013 362.87576
1812.9338 364.11533
1815.8463 365.4351
1816.3403 362.51636
1817.2986 359.84238
1818.662 357.63397
1817.7625 354.48434
1815.3467 356.89648
1813.7681 359.35272
1810.113 359.63013
1811.735 357.39023
1812.4581 354.86444
1811.7007 351.81793
1814.8448 352.31262
1816.8237 350.43805
1813.7567 348.71478
1811.5454 346.01553
1813.9155 342.75012
1817.2617 343.35352
1816.8033 346.57422
1819.8125 346.0964
1821.2245 343.60788
1823.8319 344.10538
1826.5663 345.54633
1828.6333 347.87512
1829.6602 351.11053
1826.4393 350.50107
1824.3953 348.05917
1822.0156 349.34805
1820.4016 350.78925
1819.7876 352.96747
1820.9766 355.27167
1821.4945 357.62247
1820.7921 360.34558
1819.2919 362.79056
1818.726 366.33063
1821.6904 367.22772
1823.0823 362.99368
1825.9672 366.01947
1830.1433 364.7396
1829.042 369.42712
1825.3721 369.68625
1824.2312 373.3149
1827.2234 373.888
1830.0984 372.72815
1828.8 377.53223
1831.8436 376.64368
1834.4932 377.51578
1837.4197 377.9348
1839.1306 381.9439
1842.7792 380.3775
1842.0726 383.77533
1846.7986 386.43378
1849.7603 383.26923
1847.0176 380.60522
1845.1473 376.92188
1847.1648 374.81982
1846.2373 371.51202
1843.096 369.2546
1840.6467 372.18936
1842.0365 374.9077
1840.157 377.39124
1836.6743 374.93292
1836.4907 371.22507
1833.2598 372.50812
1833.3616 368.24155
1833.2399 364.18204
1834.1641 361.5905
1830.2722 360.19394
1826.8275 362.10706
1827.2921 359.15405
1825.1844 357.85132
1824.8687 353.59955
1828.3794 355.49454
1831.937 356.1772
1832.6267 353.58554
1835.1493 351.64902
1832.436 349.13336
1830.2429 345.61752
1833.4724 346.3177
1836.8506 348.52734
1839.8247 348.74963
1841.6882 350.69284
1844.8197 350.76895
1846.4933 353.01373
1842.0742 353.25385
1838.7332 351.13092
1837.2203 353.48514
1835.5823 355.673
1833.4413 358.8438
1836.6818 358.8752
1838.968 361.44138
1837.3181 364.98083
1838.4697 368.22064
1840.7627 366.0471
1844.1588 365.6204
1842.4724 363.1595
1841.7976 359.9564
1839.8997 357.9655
1839.7067 355.00903
1844.2028 355.1791
1843.2668 357.70337
1844.3252 360.62506
1846.311 359.86398
1846.2183 357.62164
1847.011 355.76843
1849.3618 355.54434
1848.4902 358.81964
1850.7004 360.6926
1851.1787 363.28146
1848.0295 362.18735
1848.3629 364.92352
1847.3339 367.59537
1850.0725 369.19843
1853.1099 367.17877
1854.3625 370.56143
1857.5979 376.12122
1854.6908 376.9252
1854.8881 373.71402
1850.8998 372.7822
1850.8927 376.35175
1852.2631 379.22235
1855.5693 379.6066
1854.1968 384.6183
1854.7249 388.53943
1850.2548 388.1844
1852.4766 391.09894
1854.0234 393.97424
1853.6146 397.96143
1856.2439 397.9417
1854.7507 400.79108
1855.2274 403.13007
1855.5864 405.63144
1852.654 406.68384
1855.826 408.938
1853.1719 411.13892
1855.4915 413.17755
1854.7095 416.20374
1855.66 419.30966
1852.6846 419.31296
1850.8015 415.57684
1849.4629 410.50653
1845.8583 411.27527
1846.967 415.49564
1849.6584 420.33902
1846.8567 421.4438
1844.0286 422.43793
1841.1403 422.94717
1838.3567 423.7706
1842.013 426.04608
1839.4756 427.2296
1835.6177 425.6006
1832.8479 425.01654
1832.1814 421.72186
1833.0142 418.73325
1835.3274 416.5547
1836.0881 420.4932
1837.685 417.83466
1840.7871 419.3029
1844.3115 418.3478
1842.9084 415.3049
1841.9694 412.31778
1839.3948 415.06674
1835.3877 412.77567
1835.555 408.33966
1838.3105 410.26263
1840.8479 408.09732
1844.1216 405.63196
1848.477 405.09897
1850.9363 401.99115
1849.9155 398.3323
1848.8748 392.98703
1845.2666 390.85825
1841.3733 388.86166
1839.4126 386.54428
1837.9932 391.43814
1840.3887 393.22824
1842.2131 396.27808
1845.1566 396.449
1846.2275 399.72736
1842.5059 401.0263
1839.2002 404.0208
1835.1841 404.57187
1834.5386 400.88956
1836.7366 398.35666
1838.8518 396.48123
1835.0046 394.79987
1832.3005 397.33966
1830.3328 399.84143
1828.052 401.921
1827.3306 405.34848
1831.1211 403.67627
1831.7917 407.0116
1830.0688 409.55902
1833.1521 410.5623
1831.7764 412.7703
1832.3124 415.50894
1827.9792 413.81918
1828.7739 416.8119
1828.9856 419.9356
1828.5101 423.83633
1828.2554 427.89932
1826.8253 430.98425
1832.2302 428.65335
1835.1868 428.46262
1837.5137 428.9051
1836.1688 431.49194
1833.9133 432.9563
1830.042 431.57913
1831.1306 435.03024
1829.6318 438.97458
1832.1128 442.81372
1828.7859 441.48956
1827.1274 435.57553
1823.689 435.08752
1820.5656 436.4303
1817.8362 438.1785
1819.4197 440.714
1816.8344 442.59454
1818.8754 444.61206
1818.7598 447.35947
1821.653 444.10223
1823.8579 438.94492
1825.191 442.4448
1824.5563 445.59763
1821.553 447.19827
1824.1664 449.36118
1822.9639 452.17654
1825.8174 451.8372
1828.5493 451.11517
1827.455 447.04663
1827.8694 444.48706
1831.0223 448.3359
1833.6716 451.4637
1838.7227 449.814
1839.5958 446.72684
1840.9404 442.7708
1838.3179 442.13422
1836.1263 448.2909
1834.5256 445.249
1835.4529 440.63098
1837.5452 437.9589
1834.2511 436.68607
1837.8116 434.4451
1839.3567 431.04498
1841.6276 432.1908
1844.5428 433.01166
1843.7904 429.31262
1845.6313 426.9444
1848.7891 426.94473
1849.8096 423.59558
1853.7227 423.991
1856.2794 422.39362
1857.0693 426.9235
1855.675 430.5992
1854.4376 427.74734
1851.5417 426.9019
1851.1099 429.63205
1847.1118 430.03094
1849.6198 435.0526
1850.9683 438.6603
1852.8853 433.26263
1855.7203 434.75137
1856.7095 437.97314
1853.8743 440.4987
1856.0548 441.961
1852.708 444.50446
1854.8145 444.5663
1858.2028 445.96558
1856.2458 446.40378
1855.2812 448.51974
1852.2572 447.62576
1852.8677 449.81863
1850.4388 451.05682
1849.3405 448.30795
1850.1803 445.7628
1848.9639 443.07706
1851.197 441.80258
1847.6057 440.60712
1846.5588 437.38043
1846.5356 434.62515
1841.0513 434.94385
1840.7145 437.75757
1842.6233 439.8397
1843.6296 442.67096
1845.8518 443.98734
1846.6274 447.0693
1847.3816 450.9095
1844.0168 451.31757
1843.7891 448.72974
1843.0881 446.28256
1841.2126 451.25278
1842.0698 455.14246
1838.5228 453.97437
1836.4731 452.21686
1834.9517 454.73102
1836.5242 457.4582
1839.4602 457.64236
1841.644 459.0487
1844.9275 459.08606
1845.1963 456.20706
1846.8826 453.9521
1849.0609 457.79617
1849.8274 454.78653
1852.3628 452.7145
1854.6956 452.16437
1857.2529 452.9312
1856.6301 455.67673
1854.3479 454.9475
1852.477 457.50177
1854.5437 460.59256
1854.8972 465.42352
1851.493 466.53677
1849.2112 461.97968
1845.4974 463.6648
1841.0776 464.50906
1838.3146 461.42996
1836.4243 465.59256
1833.489 464.6517
1833.3733 461.54648
1831.037 458.8338
1833.2477 457.53223
1831.9065 454.437
1826.879 454.70593
1822.7598 454.73242
1823.0536 456.97952
1824.0541 459.08093
1822.0068 459.93793
1821.1033 458.09918
1819.3513 457.53656
1819.0118 460.35608
1817.261 458.2512
1816.1632 459.71918
1815.7217 461.56854
1813.9105 463.00015
1812.2803 461.01056
1813.5679 458.67215
1811.5852 456.43152
1814.8071 455.9631
1817.5544 456.16504
1817.486 454.04773
1820.0574 455.44785
1820.1172 452.87964
1820.9099 450.09772
1818.2305 450.14493
1815.6604 448.18774
1817.0149 451.93265
1814.7441 452.27295
1812.5782 453.732
1812.074 449.29654
1812.8318 446.65857
1814.3896 444.39325
1813.6929 441.69632
1810.8951 443.6642
1808.9595 446.26413
1808.1941 449.5987
1809.3875 452.71414
1806.1575 453.31424
1808.5251 456.14664
1810.2347 459.265
1809.3739 462.10727
1811.095 463.9291
1807.918 464.45895
1806.4983 461.26678
1806.379 458.1988
1803.1053 459.09677
1802.7428 455.75742
1801.351 452.8382
1803.2676 449.7967
1805.4292 446.49597
1799.0098 446.9985
1797.7676 451.6688
1793.6885 447.6748
1789.6605 444.6766
1786.9069 447.2859
1789.7842 450.4791
1789.3794 455.9049
1792.6292 456.35385
1794.3972 452.86847
1795.3547 457.74008
1799.0558 456.39377
1799.3334 459.80048
1800.3962 462.7642
1802.4084 461.65506
1804.3032 463.75183
1805.4744 467.11783
1803.6034 469.18835
1802.8632 465.61685
1800.5757 465.50296
1800.3472 468.13986
1796.7976 468.37134
1793.687 468.93234
1790.3893 471.96106
1788.5979 469.6751
1791.1561 468.5451
1794.3732 465.72626
1797.0645 466.19434
1798.4011 464.4405
1797.0908 462.3904
1794.2136 462.2746
1791.4044 463.49515
1790.6163 465.94492
1787.668 463.1033
1789.6436 461.17136
1792.2129 459.74667
1787.7433 459.22455
1786.1735 456.20654
1785.8259 453.046
1783.5703 449.67117
1779.9221 450.41943
1778.1731 453.11774
1776.9355 456.256
1779.5945 458.3397
1781.9951 454.9603
1783.9934 458.73935
1783.7832 461.7514
1780.0177 462.79855
1783.1727 466.1207
1786.7245 466.26285
1784.027 469.0588
1780.7102 467.91818
1778.4321 466.2196
1774.8748 465.23422
1771.3362 465.18704
1771.61 461.13806
1776.1326 460.6919
1772.9519 458.0144
1768.3661 457.60385
1772.4491 454.85278
1769.5603 452.90164
1770.9911 449.12878
1775.3352 450.66537
1774.6882 446.8525
1778.4678 446.1774
1782.8424 445.2542
1785.5942 442.15134
1784.3359 438.47342
1781.7206 435.79446
1782.3042 433.00085
1779.8582 431.31207
" />
</g></g></svg>
