<?xml version="1.0" encoding="UTF-8" standalone="no"?>
<!-- Created for Inkscape (http://www.inkscape.org/) -->

<svg
   xmlns:dc="http://purl.org/dc/elements/1.1/"
   xmlns:cc="http://creativecommons.org/ns#"
   xmlns:rdf="http://www.w3.org/1999/02/22-rdf-syntax-ns#"
   xmlns:svg="http://www.w3.org/2000/svg"
   xmlns="http://www.w3.org/2000/svg"
   xmlns:sodipodi="http://sodipodi.sourceforge.net/DTD/sodipodi-0.dtd"
   xmlns:inkscape="http://www.inkscape.org/namespaces/inkscape"
   width="3200"
   height="800"
   id="svg2985"
   version="1.1"
   inkscape:version="0.48.1 r9760">
  <defs
     id="defs2987" />
  <sodipodi:namedview
     id="base"
     pagecolor="#ffffff"
     bordercolor="#666666"
     borderopacity="1.0"
     inkscape:pageopacity="0.0"
     inkscape:pageshadow="2"
     inkscape:zoom="0.35"
     inkscape:cx="1600"
     inkscape:cy="400"
     inkscape:document-units="px"
     inkscape:current-layer="layer1"
     showgrid="false"  />
  <metadata
     id="metadata2990">
    <rdf:RDF>
      <cc:Work
         rdf:about="">
        <dc:format>image/svg+xml</dc:format>
        <dc:type
           rdf:resource="http://purl.org/dc/dcmitype/StillImage" />
        <dc:title />
      </cc:Work>
    </rdf:RDF>
  </metadata>
  <g
     inkscape:label="Layer 1"
     inkscape:groupmode="layer"
     id="layer1"> 
     <g>
<path style="fill:none;stroke:black;stroke-width:2px;stroke-linejoin:round;stroke-linecap:round;" d="M 
1603.2684 197.73976
1618.3721 203.9351
1599.6265 211.64458
1586.1013 204.05948
1588.492 185.38359
1611.4617 183.39935
1599.797 168.89494
1579.9701 164.56804
1559.969 154.05495
1546.3685 171.79065
1536.979 160.36392
1530.8129 176.93092
1548.8735 188.18085
1560.9983 171.80945
1569.1979 183.46962
1572.4698 197.37436
1570.1218 213.26637
1556.9736 200.1719
1554.5693 214.54468
1541.946 209.0571
1529.5676 208.87651
1536.1158 193.74094
1523.8077 194.13773
1515.8453 184.05867
1512.9622 171.18237
1500.0215 182.60942
1486.3947 196.25108
1498.4065 198.85416
1511.243 197.28511
1518.1511 209.64655
1504.4373 210.07877
1498.1002 220.05592
1513.6726 223.12149
1530.1733 223.79695
1546.206 225.90813
1562.9448 227.0846
1550.2266 240.33876
1561.0587 245.34375
1568.9736 239.53807
1578.89 232.3328
1582.897 219.71715
1593.4562 225.86401
1592.9136 238.29454
1601.8048 247.38628
1612.1261 246.38681
1609.846 234.87425
1604.5452 224.37779
1616.104 220.81314
1626.875 231.38107
1622.7148 242.4557
1620.6941 254.54709
1610.8135 259.02005
1602.0273 263.12592
1603.7448 275.05533
1590.2246 265.9085
1591.3462 252.67628
1579.3289 247.15091
1577.9133 260.5846
1566.114 259.6056
1555.374 256.5882
1544.951 255.00432
1533.4832 251.62859
1538.3384 237.58421
1526.6377 238.89124
1516.2428 237.19446
1503.6938 237.07767
1508.2917 252.01195
1521.3784 253.56384
1508.7924 267.96924
1522.1166 266.75293
1529.3611 276.60214
1541.1008 283.13574
1538.3674 266.72327
1551.9946 272.17117
1565.6248 273.91165
1556.6328 288.47635
1570.6602 286.79266
1579.4365 275.64487
1591.3053 279.43954
1592.7151 292.23242
1602.8447 287.79724
1612.3346 289.40836
1618.0817 298.6708
1630.0273 297.21283
1624.6882 285.70312
1615.8342 275.49786
1622.8347 266.05148
1632.4437 275.03232
1640.1279 285.33612
1640.4174 296.96106
1647.8915 302.3328
1643.5701 311.23825
1632.3816 310.1194
1620.8682 310.63208
1624.5195 323.87988
1617.8 337.6711
1623.6948 352.18668
1612.6143 363.94476
1605.2349 350.36768
1593.4856 360.76038
1580.9353 372.07233
1587.0007 387.56546
1590.2913 403.1656
1580.5195 415.30542
1598.0952 420.1691
1606.8875 407.08392
1622.5808 408.4374
1632.6787 420.90857
1639.5898 411.51523
1645.7098 400.75916
1633.8407 399.37454
1628.2917 387.0545
1616.4556 394.85672
1602.9335 390.1146
1598.988 375.0092
1617.0496 378.13782
1630.9336 365.1813
1638.355 376.2923
1642.664 388.45105
1653.5374 392.82178
1652.0037 377.8398
1649.4865 362.52094
1643.877 348.73297
1631.082 340.94785
1637.0863 332.1571
1638.5172 320.783
1649.2661 330.30063
1658.1896 338.03864
1664.3695 349.87863
1681.9253 351.7482
1667.7079 362.30777
1663.427 373.5384
1663.293 386.52066
1665.0734 397.65335
1675.1871 393.0333
1685.3362 400.92545
1690.5887 412.73148
1698.8373 398.97357
1711.4575 397.62698
1723.5374 390.5571
1735.9662 394.27658
1735.9226 409.95163
1721.3088 410.25397
1707.459 416.8935
1699.2798 433.93445
1686.7089 428.00452
1683.8708 449.16818
1668.898 440.09677
1669.7407 424.45923
1677.6902 417.4453
1671.1886 408.30627
1659.6985 406.51004
1651.2548 410.3291
1654.2572 419.33377
1660.1277 430.20108
1648.0754 431.16357
1648.4235 444.53925
1632.9626 434.2487
1629.5841 448.79965
1615.5757 443.43994
1615.7759 423.82486
1601.2981 438.49915
1586.4694 434.87402
1571.7515 429.39685
1572.6952 448.52042
1597.2092 458.2598
1581.5581 474.89133
1587.7722 496.09402
1587.8394 514.97876
1566.4799 493.17065
1561.0925 460.12228
1546.229 467.7479
1526.8198 472.07993
1508.0653 461.73727
1506.646 444.3337
1495.22 432.81967
1506.7501 423.7503
1518.9663 413.95798
1507.7925 409.95642
1494.5833 413.313
1497.897 401.844
1495.1333 391.73874
1505.9486 386.85788
1513.6074 377.41043
1511.6212 397.7148
1524.1665 397.61557
1523.1763 385.41153
1527.6704 371.6874
1517.4602 362.79938
1505.3262 355.72647
1504.5211 367.6198
1498.8668 375.7216
1490.2777 381.3098
1487.4615 369.0347
1490.4287 357.3927
1494.197 345.59723
1498.7019 334.1543
1509.4137 341.7685
1521.2512 346.2931
1531.0955 356.9328
1546.7864 364.9863
1537.9819 378.37778
1538.6451 393.6083
1551.8748 382.63773
1557.7863 395.96198
1547.6858 406.91428
1530.3661 408.25928
1538.487 419.7825
1522.9518 430.7842
1530.0085 449.25592
1545.3668 437.7136
1557.1077 425.6249
1563.8579 411.20847
1573.7532 398.1742
1570.3044 383.46118
1562.1976 371.04425
1566.2659 357.84967
1557.8883 348.4619
1543.1396 349.20395
1548.8291 334.71353
1550.1188 321.59915
1566.449 319.87494
1563.2284 333.68304
1575.3828 337.4952
1578.9634 356.07556
1587.1663 344.62228
1596.7563 337.7844
1589.8015 325.47696
1606.4219 332.35822
1608.5132 320.74887
1607.9375 308.85645
1600.98 300.76294
1591.2131 309.86237
1578.4478 315.6461
1582.2087 294.67224
1570.2861 301.7574
1557.274 306.61987
1545.2671 297.19223
1542.1045 311.02753
1530.4502 315.18628
1534.6111 335.13934
1522.5396 329.02496
1508.6582 326.41623
1516.1709 315.18222
1503.4609 312.46933
1501.5271 301.53058
1505.746 292.5836
1517.7747 301.2579
1530.9067 296.04437
1520.656 285.2398
1510.7333 281.65616
1499.4984 280.4592
1495.9883 261.78897
1489.9814 273.29922
1475.3843 272.7902
1465.0808 266.83127
1459.8696 252.1168
1445.0155 246.02548
1454.4922 231.9847
1457.9028 215.15347
1471.3688 228.66771
1474.7732 243.61807
1478.7587 258.6654
1491.5974 248.78036
1489.8768 233.72723
1485.0063 218.99367
1477.0104 209.69856
1468.2952 198.49501
1461.5905 183.46313
1463.7471 166.89789
1480.3428 180.08813
1489.7926 168.66713
1499.3745 158.48926
1519.5968 159.54115
1513.5631 142.80255
1497.4774 141.62453
1476.4564 148.30063
1448.1866 145.24255
1460.0087 128.2141
1473.0054 116.05855
1484.4618 129.64902
1503.3596 124.31909
1516.5254 124.692276
1528.6398 130.91333
1528.742 144.32826
1543.1963 142.40828
1547.6353 127.95343
1530.7014 117.163826
1517.6781 109.344124
1525.0796 98.32438
1536.6968 103.21724
1547.1472 112.54802
1571.1108 120.82809
1601.4924 126.50239
1626.7219 143.57985
1630.1172 180.25305
1634.1808 198.1684
1630.4158 216.32297
1645.7739 213.8883
1651.398 192.24815
1669.7596 188.19269
1692.569 199.40489
1675.9513 206.13882
1660.3212 212.18756
1675.6073 223.60477
1691.0209 220.36018
1688.5972 233.25876
1704.2461 242.69386
1689.9542 247.08339
1680.7637 257.255
1674.3352 271.63736
1662.242 269.10635
1666.0154 256.5993
1666.7249 245.37483
1676.6182 240.14807
1662.5894 228.59598
1655.0587 236.97804
1649.4757 247.41386
1643.0325 229.37608
1637.3853 243.03635
1631.3407 253.9819
1639.2102 262.39246
1652.2789 259.6639
1648.8279 274.4224
1654.2429 290.53024
1664.8943 283.77658
1681.3462 284.67996
1683.2391 296.72678
1669.3853 301.31744
1658.7224 307.17953
1652.5535 318.3995
1665.7755 321.8288
1675.728 335.72495
1680.5895 318.52704
1690.1919 306.85355
1703.7344 311.0039
1703.5587 296.99628
1698.6127 281.5602
1688.1721 270.63013
1698.9153 260.8961
1713.3765 259.41263
1715.7562 275.28378
1714.245 288.4366
1718.1399 306.75397
1725.4167 317.18546
1724.9677 328.72357
1711.6923 324.10782
1696.9336 323.6674
1692.6533 336.67563
1698.8093 350.1715
1693.9503 364.25974
1682.5336 369.5954
1675.7295 379.85413
1686.8141 387.10483
1696.8689 382.2095
1703.9666 372.708
1714.3105 380.17206
1731.6675 377.64966
1735.7568 365.75635
1750.232 369.697
1752.6306 358.51862
1739.5264 356.54053
1738.6404 344.79507
1723.4021 351.92136
1722.0005 366.67725
1709.825 359.87198
1711.3931 340.43185
1728.1025 339.51685
1738.6777 329.9585
1743.9097 316.39594
1735.7472 305.8614
1726.1499 295.96353
1732.467 284.124
1743.3403 272.46625
1728.3644 265.68832
1738.9712 254.44318
1753.0642 259.99454
1766.766 267.02402
1757.2571 276.1044
1763.7476 288.24213
1767.2683 301.19794
1747.2766 289.52728
1751.4219 302.98062
1760.6293 313.89328
1773.6722 316.42023
1786.9977 317.0645
1781.9136 306.61716
1791.6514 298.9803
1779.362 292.07642
1774.04 278.32336
1787.8137 280.01868
1799.5508 287.25494
1799.0902 312.1988
1807.1024 301.15143
1821.479 301.82593
1831.7632 291.39334
1815.2584 284.97867
1802.3105 271.25388
1816.5071 267.35956
1830.8114 273.2264
1844.4958 282.38275
1853.301 294.63693
1865.8643 288.55762
1860.9323 273.8943
1846.7478 264.58804
1862.6761 256.42978
1858.064 235.64458
1842.5173 246.59451
1827.9061 254.36736
1815.8761 240.0283
1831.4622 228.58272
1848.7635 215.138
1875.1404 217.86658
1890.2595 235.4379
1875.379 244.56796
1888.2734 253.38983
1878.7817 267.7956
1878.8684 283.45645
1894.1882 284.32962
1905.6124 294.5864
1906.2993 310.62402
1920.3442 300.93008
1921.8279 311.95688
1921.763 323.59253
1927.3698 335.68668
1908.6101 327.38956
1895.2849 323.5718
1894.3502 335.73508
1899.7494 346.73386
1912.5491 343.57916
1925.4382 351.34592
1916.4469 360.18472
1904.0458 358.26544
1893.0328 363.69284
1889.8335 353.98038
1883.563 345.09814
1879.3169 334.98587
1870.4258 326.4757
1881.5417 321.22525
1890.7568 309.99673
1889.1941 296.61798
1873.7444 304.36038
1862.6917 318.28397
1856.2375 307.84924
1839.7959 305.4144
1847.3682 322.82123
1833.8455 319.71228
1822.0897 315.71494
1811.4304 319.31927
1803.8668 328.8906
1793.6417 325.88885
1794.1202 340.88586
1788.2563 354.27167
1779.8793 348.44806
1781.0077 338.36646
1782.5293 328.21518
1770.2983 331.22113
1760.9626 326.87164
1750.2024 326.68484
1753.023 338.15262
1749.0017 348.86612
1760.3479 348.01337
1769.0702 344.26096
1773.9226 358.8878
1763.082 360.69275
1765.2953 373.34622
1776.6199 370.57904
1785.5659 365.84433
1778.3306 380.77496
1786.0277 389.14008
1794.668 399.3077
1809.4988 401.9488
1795.1204 416.6707
1774.9268 418.01883
1779.5579 402.956
1764.6362 401.47375
1769.5413 388.83224
1757.1636 383.1354
1744.5261 382.19534
1750.2692 396.8233
1753.1807 411.3549
1760.8921 430.26733
1745.8573 424.83987
1733.0249 432.8061
1717.177 433.08316
1717.0248 453.37195
1700.5859 448.5928
1698.5647 464.8477
1682.0029 471.99323
1669.0781 457.42972
1654.2399 457.54703
1638.5405 462.58923
1622.0662 469.69363
1607.2395 482.5243
1614.9082 504.13998
1627.9214 526.7678
1605.7915 531.4936
1584.4526 535.6975
1568.4784 526.2649
1551.8013 525.5548
1555.8853 508.98578
1546.1787 492.38724
1530.662 496.45493
1514.9834 488.47626
1495.2241 486.63095
1479.4552 485.55737
1468.3823 475.03412
1454.9219 478.34567
1449.3126 489.88306
1436.6302 500.4229
1429.0259 512.4595
1417.7888 518.9767
1408.1938 506.94147
1409.2534 493.22025
1420.9288 499.3935
1429.3503 486.61777
1439.4912 473.50668
1428.2697 455.98563
1441.6552 446.52905
1452.4569 460.53488
1463.0212 446.57004
1484.9863 461.0611
1481.6799 442.5553
1482.0105 419.4887
1468.2325 426.85623
1456.6067 414.23782
1470.873 405.68857
1483.9869 403.10065
1482.5044 390.88354
1477.2345 378.84836
1463.2377 378.5939
1469.5359 389.94897
1459.9911 397.82562
1451.015 390.02252
1450.4452 377.0565
1438.1049 386.9358
1431.6147 369.9001
1442.9388 363.34998
1452.8254 355.8093
1461.0476 365.54175
1473.9679 366.51978
1477.8438 354.838
1466.1233 351.1902
1478.6364 342.50894
1484.377 331.76675
1494.3314 321.61087
1481.0677 316.77087
1489.9086 306.7164
1490.0874 291.3802
1478.4164 284.06424
1476.5504 300.92993
1463.2415 292.03183
1460.1304 308.68243
1443.6293 307.02612
1451.9353 323.02335
1468.3171 322.29324
1464.9319 335.4804
1454.1305 341.87192
1445.6902 334.71753
1441.6705 348.75665
1430.2449 355.8299
1418.2007 354.16592
1405.7153 360.87332
1410.5864 372.4552
1419.7134 378.0606
1409.5127 393.32913
1398.513 388.56763
1404.7379 408.41818
1390.1063 403.1739
1383.5845 389.7978
1394.4004 375.20853
1391.9017 359.35318
1387.4917 344.51697
1369.1228 345.49356
1377.0259 360.928
1378.6249 375.24185
1361.8025 373.3918
1360.6704 358.7413
1351.0178 350.48264
1337.2224 352.71152
1346.655 364.7871
1336.0227 375.29556
1333.7227 364.50412
1323.6995 360.99692
1322.7017 348.4935
1314.261 336.6284
1306.4927 349.1187
1310.455 360.00967
1314.3195 369.2944
1324.3124 375.17365
1328.3049 385.6717
1339.8618 387.4984
1348.901 378.35748
1355.4392 392.63782
1369.3285 387.86636
1372.7611 402.86987
1374.8499 418.9397
1356.8231 410.13315
1340.2502 400.70184
1325.5448 398.78745
1316.548 390.78275
1324.6827 413.7423
1341.5481 419.11752
1356.4222 429.67258
1372.545 439.21625
1392.184 437.45834
1393.7417 419.97183
1409.2031 426.49942
1415.7526 412.5238
1419.83 401.5837
1424.0107 390.3453
1432.8335 400.26907
1446.2201 402.07065
1440.6206 413.31888
1446.5454 429.74158
1428.2385 416.37146
1425.5052 432.56732
1409.8414 446.9347
1399.4585 462.07248
1413.5531 462.88245
1425.4832 471.1593
1411.7308 478.61038
1398.958 485.88934
1386.4065 495.30383
1393.1101 503.9621
1396.6713 514.68695
1403.8435 523.7485
1396.8596 536.67725
1381.9326 537.72736
1384.2302 520.5684
1376.6338 505.94885
1370.5125 493.27478
1375.3099 482.1733
1386.82 484.35617
1388.9553 472.40515
1383.5143 458.0743
1368.094 470.81485
1364.6636 455.19327
1349.8142 461.31113
1340.4031 444.11865
1330.1313 429.51257
1316.3611 434.81702
1313.85 453.24368
1291.2041 454.74826
1291.2954 439.54068
1275.0127 430.2697
1289.9309 421.21738
1305.5852 424.25113
1307.1188 408.44708
1292.7234 402.935
1301.5934 389.63354
1310.8484 379.38983
1286.1653 383.36
1297.7191 369.90024
1292.1239 354.36993
1281.6804 364.82336
1269.0079 375.60358
1252.7062 381.6528
1252.5979 363.64313
1264.863 354.69934
1259.8752 339.70343
1256.4175 323.11044
1272.6833 328.38834
1271.283 312.8767
1272.3804 296.8172
1287.049 320.98257
1279.2615 342.8179
1295.4642 337.49594
1304.9059 324.09723
1303.2783 310.5956
1287.0193 302.4698
1294.3535 285.50967
1301.7905 296.8398
1315.5999 302.1906
1322.0397 291.00522
1318.5118 279.77368
1308.1646 286.63904
1305.6561 274.24127
1320.2185 269.07764
1308.2166 261.28702
1298.5317 251.88881
1290.7106 240.03633
1276.2362 233.99228
1268.8881 222.13742
1255.8132 232.2086
1255.1775 218.15051
1241.1504 222.85017
1241.4711 210.92084
1253.3492 204.52727
1264.4751 200.57817
1267.9802 209.19817
1281.0524 214.18338
1293.0857 222.5607
1312.4651 221.02266
1308.9258 234.22978
1314.9297 245.8318
1323.2457 257.75348
1331.3181 245.13765
1346.775 244.70547
1359.3118 251.88177
1350.4407 262.0833
1338.2959 257.34763
1334.859 269.95886
1334.7067 282.40988
1334.7905 299.11807
1325.6318 311.2002
1322.4663 324.3323
1340.5933 320.43646
1332.4252 337.32318
1346.7898 336.62265
1358.5658 328.0606
1377.0823 330.60703
1373.3435 316.12857
1363.0117 307.3585
1348.819 307.64212
1348.9283 290.89316
1364.8757 290.29346
1352.1299 276.18405
1364.9807 266.3499
1372.6882 276.04105
1381.0354 285.95697
1394.2336 286.39688
1393.0159 301.31512
1379.1765 301.1032
1389.2506 314.4833
1391.2649 328.14883
1404.9951 330.5204
1404.4247 346.0119
1417.5325 332.7366
1426.3955 340.98737
1435.6743 336.69467
1435.3741 323.54587
1426.7206 315.78796
1414.8076 308.2301
1415.8014 321.69202
1404.2129 318.20154
1403.32 307.65442
1406.3237 295.50278
1409.1765 281.0119
1392.8597 270.8486
1380.7373 262.4598
1395.0321 255.96768
1406.9839 249.55843
1410.9954 264.78104
1426.2659 266.19473
1430.5067 280.2839
1419.433 292.531
1427.6965 302.70203
1440.8412 292.8284
1450.5496 284.75586
1455.0674 273.50513
1443.1482 264.64536
1430.2798 250.84962
1418.1904 245.11223
1421.4872 230.18336
1436.8761 230.38286
1436.0703 211.00269
1448.623 198.51498
1439.2183 182.43703
1418.0865 193.18806
1418.9677 214.07533
1403.5654 212.60426
1397.1328 200.64238
1393.5143 187.27197
1378.1313 181.82286
1380.1396 204.4704
1367.834 215.16183
1371.4572 227.30075
1383.1652 233.48822
1388.6014 220.07933
1405.4628 228.64034
1396.6162 239.3118
1384.6742 246.51106
1373.217 251.55434
1368.523 240.74086
1357.8452 235.43668
1354.362 224.2504
1341.2584 231.00507
1326.4697 229.41566
1323.2803 210.6402
1338.5636 215.0889
1351.7506 212.6116
1357.095 201.99576
1368.612 193.10414
1361.1216 177.47708
1343.8164 173.48628
1349.0901 189.19038
1335.6611 200.75998
1332.4631 187.35704
1325.625 172.56842
1317.37 187.71764
1313.1704 199.72849
1303.3943 209.39934
1289.9844 202.85193
1298.3795 190.6718
1308.0105 174.90926
1293.3947 175.47234
1282.443 168.97429
1281.0394 185.43904
1276.689 196.86116
1263.2603 193.07643
1262.6826 185.84529
1265.0076 180.17346
1272.5132 175.20837
1259.6216 171.33124
1249.5981 175.55693
1238.1309 166.52719
1232.3228 178.60081
1242.0052 185.31668
1252.08 190.04283
1241.6965 198.56096
1230.7118 191.65813
1227.6956 203.14754
1226.5465 213.77824
1226.9629 224.19966
1235.6809 234.53871
1220.488 235.77785
1206.1827 238.3473
1210.7046 253.95068
1225.6289 247.31131
1236.1068 256.85736
1235.2393 273.74985
1243.0311 283.37238
1249.4143 267.09628
1251.95 254.71188
1245.1188 242.9861
1263.2504 244.90282
1273.9675 253.13326
1283.4585 262.464
1293.5281 269.93677
1282.8774 282.2414
1271.2402 279.5814
1265.7153 266.48444
1256.5474 278.7284
1257.0969 292.15555
1257.046 305.6641
1243.7567 310.982
1232.4872 320.44803
1226.2788 300.30893
1239.3696 295.2006
1219.103 281.48465
1222.5117 264.7171
1199.252 266.86407
1179.387 291.63162
1203.9258 301.72852
1214.0543 318.70587
1221.859 335.7026
1242.7178 332.17303
1243.2561 348.0131
1226.3428 354.5879
1238.3674 366.64728
1229.3163 376.8205
1222.4257 388.0948
1216.047 399.3811
1208.8628 380.55667
1198.7141 350.68842
1171.5254 351.94006
1178.9431 321.46173
1146.1465 325.53616
1153.8529 280.88098
1128.7286 288.0239
1096.6135 280.96906
1070.5083 243.7618
1025.929 275.86948
1059.2906 291.02667
1048.9893 320.625
1019.47003 321.04025
1037.9633 348.06448
1020.3819 365.23883
1060.7632 378.0255
1064.7167 351.15924
1086.0802 342.17917
1083.0096 315.4087
1113.6118 314.9233
1116.8425 343.88422
1103.3574 371.44293
1144.0134 365.5192
1192.4259 410.70563
1185.851 421.21588
1175.7827 431.37585
1163.388 434.56757
1150.0303 444.91553
1147.2358 457.82977
1131.4514 451.37537
1116.5074 457.30823
1103.3455 452.22488
1113.7623 476.19202
1098.7604 472.55844
1087.5074 462.00662
1082.767 448.279
1068.425 458.08694
1062.3729 478.61166
1077.2842 477.81958
1088.7151 488.82883
1104.617 491.76447
1098.6321 508.0357
1101.1779 524.6311
1089.6305 525.8258
1078.2444 516.71796
1085.0979 504.89578
1070.0922 498.211
1054.5294 494.10193
1047.3484 481.40097
1032.714 471.50516
1052.085 465.60388
1050.3866 449.59857
1037.7623 457.08835
1025.6252 454.967
1013.43896 452.62445
1015.5927 468.66315
1014.5058 482.67572
1013.8243 499.60947
1024.2618 489.76318
1035.304 483.87976
1035.6952 496.05127
1042.456 505.7001
1054.7926 508.98788
1064.8049 516.156
1061.538 529.1781
1046.527 521.47644
1048.816 535.3491
1061.1636 542.5482
1075.8833 531.8473
1077.1523 545.9788
1089.7411 541.16693
1102.1241 542.1924
1113.1952 545.99426
1123.203 541.6034
1112.423 533.0635
1125.8772 528.21655
1129.3069 516.8361
1113.6443 519.8254
1113.1577 506.67792
1126.6042 503.65884
1120.1523 491.59045
1135.6414 484.4075
1129.2736 468.72375
1144.5028 471.40286
1162.6199 448.18268
1162.4635 464.30597
1158.4214 479.77313
1149.5217 492.28174
1139.5858 504.31207
1144.7968 517.7455
1142.3184 528.17456
1144.6318 538.8514
1132.7883 536.99445
1135.4255 548.4086
1133.4075 560.35956
1139.0776 575.5831
1141.2723 591.5517
1127.5651 590.9956
1116.1147 601.14276
1101.7307 601.5772
1100.2583 584.7794
1112.1605 586.8244
1121.6375 577.7887
1124.9126 567.28955
1122.2573 554.54755
1109.7333 557.81177
1109.2599 570.39307
1096.8035 568.7661
1096.3094 554.8807
1085.2468 558.51294
1064.2788 552.29913
1073.3959 560.11926
1081.0549 570.45465
1089.3512 578.8738
1074.2515 581.01575
1082.2917 588.80756
1089.8818 596.19354
1090.6434 612.60626
1080.0885 608.9258
1069.2098 604.7305
1072.7532 593.8213
1060.569 596.58276
1049.946 598.28656
1049.8043 584.33875
1061.8063 584.3373
1067.3207 572.04645
1053.8809 571.72614
1060.5122 562.369
1049.8198 557.1679
1037.7448 561.06104
1041.7285 574.42194
1028.4677 570.01605
1027.1868 552.61194
1042.1565 546.5512
1032.6221 534.99725
1031.4031 520.7209
1027.6614 507.04135
1015.3755 514.4216
1014.7333 527.2547
1017.39014 539.231
1013.40326 552.3166
1014.3461 567.0102
1017.24963 579.6558
1013.16064 590.7419
1031.363 583.7423
1039.883 591.7006
1025.5814 596.02356
1023.89105 610.009
1012.9579 605.1939
1013.3933 620.4892
1012.98846 635.75275
1022.2084 629.2059
1029.556 621.8203
1035.622 613.89386
1037.5125 603.2419
1046.9175 612.9488
1057.584 610.31616
1069.1545 617.8285
1069.172 630.17126
1082.0386 631.2519
1084.3301 647.8729
1087.3636 661.8407
1085.4106 675.8078
1091.5037 690.59576
1105.3416 689.6123
1097.2697 679.01355
1108.8429 675.03754
1099.7574 667.7776
1102.5723 656.754
1100.5857 645.37054
1115.5905 647.2702
1127.8191 642.5932
1118.6344 630.52155
1100.3938 634.0721
1093.032 624.182
1105.9229 617.95123
1119.8413 615.41046
1133.7838 607.4395
1151.5883 602.9814
1136.503 622.03613
1140.6212 635.15094
1154.2933 641.04156
1139.2625 650.5911
1146.2473 660.7857
1128.9801 661.34753
1114.9551 661.4055
1119.5078 671.9644
1129.298 676.75494
1140.859 673.5535
1155.9666 674.1275
1162.0885 656.1368
1171.4442 667.91895
1174.3367 680.50446
1165.6324 690.12555
1153.9507 694.9034
1142.0874 687.1521
1144.3347 707.99677
1157.4548 717.37
1156.5413 736.41583
1140.6665 730.9467
1129.2432 718.20337
1130.5952 701.6808
1127.5289 689.1775
1116.8081 684.5845
1114.5804 700.46625
1109.9514 714.8609
1117.2623 730.7906
1127.6104 744.7777
1114.4932 757.4857
1097.5894 760.7924
1104.0763 743.19
1097.8365 726.97565
1095.5138 704.462
1084.8607 716.81775
1084.9094 736.04083
1069.889 740.74316
1070.4895 727.28125
1065.399 714.0526
1076.5708 702.63007
1077.5037 688.95966
1072.5283 676.04504
1062.1086 683.07086
1061.5033 698.1377
1048.6823 699.3942
1047.0171 712.60284
1053.0029 725.0055
1053.7561 737.05597
1039.5658 743.2754
1021.95044 746.7445
1026.7264 735.0791
1038.3224 726.2312
1026.3474 720.8941
1030.1392 707.7246
1036.4272 699.079
1032.5034 689.44574
1027.4055 680.5119
1020.63336 661.1292
1027.358 669.3527
1038.9967 674.62006
1047.5477 685.75073
1052.9425 672.4819
1070.9844 663.49805
1069.4387 647.15436
1058.7882 638.4045
1054.8772 624.9157
1041.9913 625.56177
1045.8845 637.2285
1050.6443 649.6781
1058.0164 659.8879
1042.4233 661.615
1030.7947 656.2887
1037.5494 646.5979
1032.7821 634.5671
1024.5566 644.24963
1013.4595 649.1467
1011.48193 662.8844
1013.9274 677.22107
1016.86755 690.768
1013.35297 701.59064
1018.87885 710.7824
1011.60535 717.16064
1014.1942 728.1872
1012.1929 740.4262
1012.6723 758.9901
1021.3028 770.6656
1014.98663 782.8287
1033.4296 783.7676
1050.4202 782.8287
1065.1221 782.8287
1061.8041 766.8403
1045.807 771.01746
1038.1127 761.1272
1027.806 757.03296
1050.7743 756.1655
1058.4293 748.0569
1069.9753 754.68164
1084.9045 750.7921
1081.4604 765.4148
1074.11 774.63965
1082.061 782.8287
1095.3142 782.3845
1107.1963 777.4337
1116.6892 782.8287
1126.0948 766.5507
1128.1904 783.4926
1137.9337 782.8287
1148.7998 782.8287
1153.5814 772.9035
1141.1903 766.7612
1143.2449 751.3781
1161.6661 750.7337
1159.5955 763.721
1162.9677 782.8287
1176.5658 783.8025
1189.8524 782.8287
1203.9381 783.7849
1212.7494 771.0435
1203.5353 762.08276
1190.1459 766.4015
1174.5693 767.0505
1177.1648 750.3552
1191.2683 746.6939
1207.8231 747.5966
1217.8939 736.5903
1197.7908 731.3336
1193.7743 714.6623
1174.5747 733.8157
1177.4733 719.94006
1174.3257 704.4887
1185.2723 690.03906
1197.2817 697.1954
1201.9006 680.05475
1188.8915 671.62665
1181.5839 655.325
1190.1979 641.79865
1199.6506 656.62317
1211.5314 665.2793
1218.8344 680.4388
1226.1151 668.1551
1235.1953 677.1335
1237.7506 688.70966
1229.3939 697.5824
1215.4316 693.55884
1209.8894 706.40155
1214.0662 720.2442
1228.0126 713.07025
1230.2142 727.48645
1234.81 738.9029
1222.2448 756.12506
1235.7235 750.92883
1250.9524 753.0659
1243.0171 765.5132
1229.2651 770.9243
1221.2788 782.8287
1240.3381 782.8287
1257.3481 782.8287
1259.225 769.55634
1273.7366 782.8287
1290.4324 782.8287
1303.6797 779.58417
1318.9624 783.41754
1338.3652 782.8287
1334.5969 766.82733
1353.147 769.3374
1360.2456 782.8287
1380.105 781.8291
1397.4116 783.5755
1373.021 766.40344
1364.3384 752.26056
1348.9666 752.57104
1334.5569 749.78235
1321.3083 745.2868
1328.3463 733.95233
1340.2352 728.31586
1351.5837 734.7912
1367.1105 736.42126
1360.0598 717.28503
1349.4626 712.3516
1349.781 697.12146
1364.5153 689.1315
1370.0339 702.3137
1385.4985 695.66
1386.9482 713.52295
1372.7712 720.5472
1384.6394 732.4387
1382.893 750.86646
1397.6326 764.4315
1401.0468 746.5726
1401.4596 730.63074
1402.0192 715.6761
1416.1611 716.3138
1428.7051 707.729
1442.4443 705.6297
1455.3618 704.9468
1438.4895 717.4089
1428.3418 725.6052
1418.4391 735.1055
1418.3568 751.54193
1416.3593 768.4375
1416.879 782.8287
1439.1658 782.8287
1449.8109 766.3636
1432.5538 764.4737
1436.7283 746.9953
1464.8247 756.8521
1482.8116 754.8743
1463.6953 782.51794
1483.3541 778.3625
1503.1956 783.36945
1502.9725 763.1441
1500.156 744.03143
1499.2896 728.6736
1482.5676 734.02
1466.4698 734.5133
1452.433 742.5837
1442.7107 730.76483
1452.1462 720.1535
1463.3057 717.5231
1473.196 714.5193
1483.1924 714.59644
1493.9801 716.5746
1491.6818 701.1321
1479.4095 698.5895
1466.4775 700.0348
1456.4468 689.0627
1445.5239 692.3918
1434.4451 691.31573
1424.0427 694.79315
1413.2848 702.01135
1399.9536 697.30164
1413.2522 686.6575
1404.2747 677.64105
1391.2004 676.8417
1378.0155 680.5669
1367.7098 672.2388
1380.1233 662.39264
1390.6223 654.006
1403.7435 660.7013
1400.3851 641.89685
1388.6941 632.42267
1375.6688 628.0638
1379.5627 642.3642
1367.687 649.3696
1362.4258 661.0783
1351.1052 650.0559
1348.7683 663.0125
1332.5566 666.55054
1342.7389 674.4543
1354.7765 679.0617
1339.7762 686.5283
1331.462 697.5215
1318.8423 691.424
1306.6444 692.916
1298.8679 682.5776
1288.5979 678.39984
1293.1443 661.97345
1306.0422 657.43835
1311.3566 674.6303
1326.2781 679.0645
1320.1628 657.39575
1334.9935 652.64264
1330.4813 639.2843
1330.9723 624.40344
1325.9929 608.54266
1315.3231 618.3858
1302.6809 621.6268
1315.4277 637.82623
1300.8959 640.2918
1286.9292 645.40656
1275.8483 652.0919
1269.7604 662.81805
1281.4602 668.4015
1270.3646 675.0757
1274.8616 684.0215
1283.2969 692.5791
1293.567 699.65656
1306.0134 706.40704
1319.8591 707.9693
1336.386 711.3111
1324.797 720.7133
1311.7019 730.88324
1306.4642 718.71844
1294.866 726.4257
1283.5092 731.7185
1282.0112 747.8667
1295.8665 740.7634
1308.0343 747.29706
1315.9507 763.31635
1296.2771 759.4395
1285.7208 771.06445
1275.9772 763.23016
1265.5076 755.6404
1269.7288 741.94354
1258.181 742.87994
1247.4957 736.34784
1242.8152 722.1376
1256.3453 721.0712
1260.0281 730.32245
1272.1895 730.8808
1273.0928 719.637
1289.6702 714.27673
1278.4584 706.82227
1268.3179 696.6694
1264.5956 709.0368
1252.6537 710.767
1240.7264 706.84625
1251.6622 697.9505
1249.3186 684.2671
1260.88 687.1409
1260.0066 674.32947
1249.2156 672.21484
1242.2396 663.6957
1232.6294 655.41724
1218.6898 651.97705
1233.3939 639.5471
1245.765 649.1932
1256.9808 660.35114
1260.6567 647.2411
1250.4816 635.5584
1250.8511 619.3641
1240.2273 626.40265
1229.6636 622.89954
1218.1309 619.6158
1218.7584 630.09357
1218.4866 640.6231
1205.087 638.8185
1198.5952 625.29425
1208.3625 615.95264
1212.4584 601.4897
1198.0071 606.61414
1182.2732 603.6152
1185.7372 616.8367
1181.7668 629.81476
1170.7426 641.6045
1167.0991 625.57275
1152.5708 620.5262
1167.2686 609.5949
1169.0586 592.82434
1154.7662 584.4552
1179.751 577.1489
1166.0254 573.70905
1153.5397 566.79266
1144.2701 558.6282
1152.0419 548.6243
1159.9235 537.9499
1158.8787 524.96735
1168.2861 514.0747
1181.6306 515.37726
1193.7604 513.3401
1202.0193 522.15106
1191.1617 532.361
1175.3955 528.1499
1175.0127 542.5259
1164.8053 554.9576
1178.1918 560.38983
1190.3237 549.13544
1205.0826 544.40204
1211.7091 532.2643
1214.2399 515.1676
1224.6523 504.39325
1214.5299 499.38168
1204.6018 502.19446
1193.8628 498.92584
1181.0131 500.23175
1154.4736 509.35397
1165.271 499.06406
1173.077 486.79236
1189.445 484.09647
1205.0347 484.4663
1220.2622 488.68848
1216.6382 473.24026
1209.9465 458.20245
1198.8585 468.4457
1178.1895 468.86438
1175.9127 450.25903
1189.8127 454.2834
1190.356 435.41974
1200.902 444.63242
1217.536 444.67004
1217.9438 428.82593
1208.9832 434.62488
1202.1224 422.90863
1203.5377 406.0278
1213.5697 413.23572
1222.4746 417.35767
1228.5798 426.73868
1238.5472 426.17776
1250.6101 422.81616
1244.5436 411.0989
1230.8458 409.80402
1236.8086 394.91528
1253.862 400.63898
1266.2256 394.66434
1278.719 397.1035
1277.562 412.09418
1263.3379 417.42798
1258.4989 433.67834
1270.657 441.8354
1274.1586 451.51865
1271.4921 461.74854
1261.2664 463.73782
1253.8727 456.17554
1255.4408 446.23608
1244.045 438.3641
1230.536 441.53
1240.3655 454.17902
1224.9417 455.61206
1229.3848 466.1394
1240.3081 470.6684
1250.457 467.74374
1248.5912 484.1915
1232.3148 479.44708
1233.0259 491.9221
1244.7637 495.07623
1246.9565 508.39713
1236.4689 504.42627
1230.9377 515.50885
1240.8658 522.8674
1224.713 526.6077
1227.5854 539.3582
1240.9324 536.2738
1252.6931 542.5313
1246.4795 553.3972
1232.786 552.459
1218.8868 551.5036
1207.6888 561.09863
1192.5034 566.1985
1186.9603 588.73114
1200.299 592.40643
1201.7593 577.2153
1214.181 587.2445
1217.3491 574.58514
1227.0314 566.9926
1240.6465 565.8367
1231.0652 583.1118
1224.9799 595.60236
1223.9211 608.83093
1236.9402 611.82104
1249.125 606.53906
1236.587 598.16846
1247.0591 591.8993
1244.9703 579.03876
1256.8496 568.8652
1261.941 555.077
1267.3784 541.48444
1279.9951 534.43787
1268.1788 524.00256
1254.7927 529.4885
1255.2915 515.943
1269.3986 508.6556
1257.8511 498.2619
1261.4562 483.49036
1273.3481 494.76917
1285.8936 485.22888
1272.243 477.74997
1284.2095 467.80338
1300.1101 478.25748
1310.3765 494.4537
1326.5078 509.24283
1345.046 502.45453
1332.1233 488.97122
1317.3665 475.90793
1332.2454 466.98807
1346.5035 478.01746
1358.0686 483.67273
1358.6512 497.78867
1361.3396 512.49133
1369.3135 524.1538
1361.8584 534.8852
1368.8281 548.12634
1369.9391 560.58185
1357.8042 566.19635
1346.7202 560.4657
1332.7219 554.5484
1348.8097 543.11865
1344.437 521.81433
1330.9694 534.53986
1315.049 530.3795
1306.6302 513.5656
1290.9857 501.63605
1284.3475 517.24414
1296.0437 530.0159
1286.1338 550.0617
1274.9996 561.3025
1273.0945 578.0336
1261.0114 584.2646
1259.5288 597.6131
1264.5875 610.0797
1276.0214 618.5957
1262.3546 624.98987
1270.4225 636.2408
1286.9487 630.20795
1290.6858 615.89655
1285.2146 604.3422
1273.8041 596.94745
1287.3821 589.1507
1301.2651 583.46
1301.1595 602.6755
1314.4773 596.89056
1330.1819 593.8906
1315.5201 580.25635
1287.4132 572.0981
1301.2882 564.66785
1302.6406 546.3204
1316.6571 553.7014
1322.8438 569.4833
1335.7554 574.99194
1352.7628 579.3098
1363.3744 588.32825
1373.1934 596.1965
1356.6705 601.84155
1341.7041 586.1292
1346.4125 597.2414
1341.4727 611.91455
1348.4587 626.29016
1345.8906 638.61145
1362.0005 636.61414
1364.2021 623.49866
1355.6587 614.9665
1366.5216 607.6734
1374.7391 614.26227
1386.7927 617.529
1383.0903 604.42706
1390.775 594.37897
1381.7288 583.539
1370.3842 574.7678
1387.2638 569.6407
1385.1318 553.68945
1398.685 556.581
1407.5223 570.2904
1422.1538 575.81805
1423.0431 591.80334
1400.3038 582.9567
1407.7976 595.74396
1397.7126 607.6124
1398.6392 625.3713
1414.4924 629.4666
1429.0999 622.73303
1407.5481 616.9724
1418.3254 608.9946
1435.1099 601.03986
1443.6404 615.8214
1457.908 613.59827
1459.2573 630.4693
1444.2455 635.6728
1431.2363 641.71533
1414.9259 644.2706
1423.5605 655.1795
1417.9956 667.704
1424.9669 678.828
1437.2566 677.14954
1448.8492 675.4576
1436.0719 663.20404
1445.5885 653.9398
1458.2302 648.11017
1470.153 644.94946
1480.3192 636.59216
1477.1918 625.36945
1472.0455 614.8126
1468.5571 599.9591
1451.547 594.7256
1441.758 578.88983
1466.7694 581.70264
1483.9326 573.7923
1473.8672 555.94385
1457.6288 565.8212
1449.6158 549.9487
1432.6494 560.8738
1430.7689 542.93085
1413.7051 552.5872
1414.623 535.0455
1432.8967 527.5376
1443.9202 516.12085
1452.5637 504.11835
1467.4314 499.3326
1484.2528 503.87695
1500.0034 506.4121
1513.9583 514.1042
1507.376 530.22363
1494.0598 521.8524
1476.4033 520.6304
1460.5791 518.72577
1449.7694 532.32025
1466.9529 538.549
1486.6415 538.36444
1504.845 545.9134
1491.331 556.2972
1504.2144 563.2645
1502.7179 577.45807
1498.8267 590.8136
1483.8666 593.3485
1486.3035 608.78644
1492.8163 621.23785
1501.8694 607.66003
1514.1414 600.309
1517.1184 587.3752
1527.9155 576.9699
1516.9857 570.97186
1519.6506 556.99396
1521.5822 542.81854
1522.5657 528.2953
1536.751 515.0573
1536.4531 538.8514
1536.1384 553.1343
1534.5596 565.8897
1550.7375 562.01135
1552.6305 547.0792
1568.0941 557.5193
1592.5684 553.3333
1606.0396 565.35333
1588.4595 578.4215
1575.5814 572.71387
1559.6475 574.33185
1544.8079 576.7269
1535.6959 587.4097
1528.7405 599.10583
1543.0505 601.0596
1551.6852 590.63635
1565.689 588.4648
1578.7273 590.53265
1576.2378 604.1368
1560.5972 604.3539
1549.112 613.17926
1570.8434 617.1817
1584.8835 625.1889
1594.4514 636.1896
1596.5778 650.67584
1591.4976 666.54694
1580.8828 657.3216
1578.6711 643.539
1570.4353 632.63873
1557.0691 625.4727
1556.1664 641.6938
1565.3806 653.4215
1564.6016 666.8657
1577.7192 671.5401
1569.8352 683.1976
1559.0244 688.0117
1545.645 683.8354
1551.5928 671.8289
1548.2002 656.5154
1535.6897 665.04474
1531.3253 678.28424
1520.7803 665.99963
1512.428 678.069
1505.8113 665.38684
1514.1415 652.8247
1514.677 639.4002
1525.5918 629.2345
1529.9413 649.91693
1540.3135 639.6792
1541.2955 625.85315
1532.4786 613.5088
1517.972 614.0724
1508.7224 624.7506
1497.2056 632.69507
1495.0304 642.95496
1500.1135 652.72754
1491.4392 661.55975
1481.9578 652.3802
1482.0101 668.7201
1469.9335 661.74695
1456.4841 663.55475
1461.9028 676.2606
1473.5155 676.119
1470.3229 687.9552
1483.2793 683.8613
1495.5897 674.4291
1493.9521 687.07996
1504.7886 689.92285
1505.3354 702.9371
1509.2358 715.6324
1526.0961 717.4962
1522.0521 705.0989
1518.4725 690.7507
1531.7682 693.4689
1543.5319 697.6841
1542.0149 711.3984
1555.2759 702.293
1569.5576 701.60535
1583.8839 699.94855
1585.0771 685.0057
1599.5554 678.8057
1601.5438 695.9412
1622.1826 699.45264
1612.55 710.9808
1614.2843 725.106
1621.8381 736.026
1607.1641 743.9001
1616.1571 755.1396
1598.9673 763.2993
1590.6504 746.56476
1599.8053 729.2114
1595.8289 712.40533
1584.3978 731.6275
1578.38 717.11285
1561.0801 716.52954
1550.8103 727.67456
1551.946 743.73883
1567.2544 733.29645
1570.3496 748.7769
1581.2527 759.53094
1567.1973 771.1167
1559.9363 762.08704
1547.8335 760.5413
1536.5122 751.8683
1532.3955 737.7915
1536.96 725.6289
1516.1443 730.6424
1518.2112 748.7361
1523.8062 765.3775
1524.9681 782.8287
1539.602 773.9488
1551.4353 782.8287
1572.1223 782.8287
1583.2948 774.0948
1594.8745 782.8287
1609.638 777.872
1623.8313 782.8287
1626.3706 767.5359
1636.2675 754.13184
1634.2767 741.62427
1634.3618 726.3487
1630.2784 713.7288
1639.9053 702.9856
1643.8524 691.33545
1629.6489 684.91235
1614.0852 683.9948
1606.9661 664.39825
1621.0928 669.13153
1635.9585 669.71405
1645.5732 678.5582
1651.1128 667.319
1647.6152 658.0133
1638.0952 655.54126
1626.7166 657.6349
1613.072 650.9333
1614.7681 637.2818
1607.825 629.2087
1616.7124 617.3102
1630.8123 616.2557
1628.5774 630.4943
1627.5537 644.9586
1641.0675 640.20306
1652.3091 646.3443
1666.6702 647.0191
1661.2449 658.92065
1673.3434 660.7531
1684.0525 656.27673
1682.0974 643.1646
1691.725 631.7537
1702.7887 642.98224
1708.0234 630.8822
1721.9594 641.40137
1728.8027 623.5283
1718.0237 608.3164
1717.9418 589.40015
1736.9885 598.5444
1746.9072 617.089
1738.8804 642.7937
1756.3997 648.25323
1746.4102 658.2856
1758.3214 666.96045
1770.1696 659.0708
1775.4911 671.4229
1761.2068 679.8204
1772.7141 684.6831
1765.8425 694.85236
1756.9976 703.0834
1747.9065 712.5552
1743.619 701.8641
1752.9451 690.547
1739.75 688.0061
1747.1697 676.7576
1735.4685 670.756
1729.3618 658.0713
1713.5244 654.83325
1695.0767 651.7401
1699.8057 663.04047
1700.6271 675.2873
1716.0452 670.7773
1725.1694 683.00366
1731.9447 697.85614
1723.1201 705.1868
1734.176 715.0413
1723.3601 727.4554
1715.0208 715.33685
1714.9514 695.58923
1706.8008 687.9393
1695.1663 690.4666
1685.7844 682.2551
1685.3346 669.3436
1672.5764 675.32324
1661.1549 672.5196
1658.8513 686.1226
1672.7654 690.68604
1684.4995 699.41754
1672.9736 710.46985
1658.3687 701.6479
1647.6959 717.3186
1662.1459 721.1146
1650.4803 736.208
1669.3716 741.5874
1658.6729 756.21747
1647.3064 768.22003
1645.0834 782.8287
1670.8379 782.401
1681.5977 763.6576
1703.6948 783.8017
1738.5017 783.8958
1775.8408 782.5291
1802.0654 783.8036
1815.2445 771.5975
1830.418 782.8287
1838.2019 771.44086
1841.7876 756.4534
1845.9086 743.22156
1836.135 732.14777
1829.23 720.75433
1813.377 721.79736
1820.6416 735.23157
1829.888 745.64734
1826.2764 759.8417
1810.2166 752.1444
1792.93 762.9553
1779.0244 742.1604
1792.9397 741.764
1805.3303 735.0457
1795.4508 722.7042
1787.0193 711.8357
1777.1887 723.68054
1763.8829 731.7608
1761.0209 746.9568
1771.6306 760.9253
1755.3379 772.3974
1740.7137 757.2547
1724.5457 766.8589
1705.7336 764.77216
1700.5515 749.5736
1689.6057 740.2341
1680.0298 728.09644
1688.7852 715.0935
1701.6216 706.90845
1703.6699 727.5637
1719.7686 743.9289
1737.0586 730.53577
1744.2231 742.46063
1750.1879 726.2133
1760.6237 717.30164
1769.9316 709.1384
1779.2856 699.29407
1794.4144 697.7912
1805.8716 707.4919
1820.9314 707.8445
1832.6587 705.52893
1842.5623 713.41736
1847.6874 725.32477
1861.7195 722.863
1858.3542 709.31665
1851.7937 700.581
1849.4392 688.1767
1862.8947 687.82574
1872.969 696.3604
1889.3163 699.88763
1908.6226 699.29987
1929.8691 710.4419
1939.3206 692.1038
1960.9236 685.41046
1977.0808 668.76044
1997.4218 660.25977
1993.224 688.55444
2015.355 700.28564
2016.0271 679.7934
2016.8325 659.9615
2038.1849 676.79913
2037.1766 656.506
2027.0657 641.38214
2027.6229 621.2072
2011.4236 636.2589
1993.6388 636.97864
1978.9277 643.4517
1962.8278 633.4829
1959.17 650.9317
1938.4078 664.86115
1918.1909 677.12823
1895.8802 676.8641
1905.1521 657.41693
1921.9926 638.3964
1899.2068 627.1791
1881.915 640.71094
1876.437 660.3468
1878.4722 677.36676
1863.4275 672.36084
1850.2455 675.5573
1835.292 669.4208
1835.996 682.48047
1839.932 696.5681
1827.6577 691.24475
1816.7997 693.8161
1806.7646 688.3457
1797.3359 679.8108
1785.3076 684.56573
1788.4502 666.50696
1804.8124 669.13696
1818.6145 676.13605
1819.6003 655.70135
1801.9739 647.8557
1799.8279 630.83563
1785.4507 616.58826
1786.3207 637.5332
1775.8464 645.2157
1763.6299 629.1547
1767.8865 614.1045
1758.2812 598.4999
1774.8387 587.5345
1776.7925 601.6097
1791.613 596.17926
1807.0046 601.98834
1801.8948 616.64844
1817.9224 618.0178
1825.9453 608.4752
1837.0673 604.1212
1848.4874 597.10266
1863.0804 599.1785
1853.115 614.6932
1839.9943 627.08344
1819.051 634.2022
1833.3318 645.2253
1849.7615 653.3521
1860.0458 639.99884
1865.6523 625.39685
1882.1473 619.72363
1872.4646 607.27893
1891.3569 603.77435
1900.2952 589.3481
1914.39 602.3148
1917.5345 618.253
1936.9038 616.56995
1942.5898 634.6431
1956.4972 617.6961
1946.7745 602.8952
1952.5875 589.316
1962.5566 602.49695
1976.4238 603.22577
1972.5493 623.1096
1984.4829 622.2711
2000.8348 620.6116
2010.4594 609.05035
2021.6042 598.65765
1991.6162 607.5654
1991.6001 594.9817
2003.1152 589.4143
2013.7744 584.3943
2029.3435 582.6282
2017.552 570.93616
2013.7035 555.60065
1998.8212 555.5637
2000.9271 570.8532
1989.698 577.77155
1979.9688 587.07245
1967.6067 588.635
1962.5721 576.9463
1975.2505 570.304
1985.5654 561.8382
1985.7258 547.6966
1962.8916 561.815
1952.9468 553.4754
1970.479 551.3809
1973.9314 538.699
1986.2026 532.1728
2000.6699 540.61316
2002.8488 525.993
2022.9224 536.0248
2033.9221 557.55963
2053.8574 574.49445
2064.6653 558.0649
2084.4868 562.48
2084.2173 583.2805
2068.0608 587.35754
2055.4956 597.8937
2042.7355 589.35406
2040.0652 607.5365
2063.311 614.1451
2064.9727 634.767
2045.1586 631.8556
2055.94 653.03827
2061.7993 673.6776
2078.8613 654.95514
2082.9277 630.39264
2085.0068 604.3258
2099.5244 624.1045
2106.1465 643.625
2129.7036 652.9717
2100.788 665.0656
2104.3374 689.70776
2082.3364 685.3307
2064.878 698.3718
2043.4346 697.84546
2030.2258 717.10583
2003.9646 723.3045
1983.1938 734.6034
1977.4412 705.8591
1962.8599 721.7453
1944.7488 727.56104
1927.6309 748.70197
1921.2058 733.3953
1907.4888 723.7917
1890.9011 720.73035
1875.2738 714.9053
1873.9734 735.4434
1858.9354 737.56525
1858.3561 750.8544
1866.8015 757.73663
1870.2935 771.0656
1853.0076 767.2166
1854.8223 782.8287
1878.4553 782.8287
1892.551 772.779
1881.956 755.25726
1891.0404 739.62823
1904.4197 753.6179
1908.8014 782.8287
1921.3553 769.00714
1940.5554 782.0369
1945.2195 756.5478
1967.11 752.56555
1968.5593 778.56506
1997.1057 780.62463
1999.044 755.1663
2028.6189 744.463
2030.0342 776.30145
2064.4946 778.80695
2096.1077 781.63837
2105.6616 759.1795
2084.643 747.5736
2057.359 752.72986
2053.6147 726.22284
2077.901 718.5205
2100.5654 717.7707
2119.795 737.5937
2145.4878 744.4864
2126.3755 775.8564
2149.9229 778.25714
2174.255 780.77966
2175.406 755.736
2174.255 726.68646
2152.5288 708.7548
2126.7012 708.89325
2130.4 681.28143
2153.4956 667.378
2174.255 688.8366
2174.255 651.0183
2174.255 613.63245
2156.528 608.35895
2138.3262 607.1391
2160.6497 634.1662
2142.1685 630.2251
2123.2017 624.7782
2109.0137 609.2744
2107.9404 591.3932
2126.1729 591.9697
2143.9465 585.056
2164.5176 590.63477
2174.255 578.3831
2150.6392 564.4379
2174.255 550.3556
2174.255 522.0273
2142.5127 539.3457
2124.9124 566.2332
2102.6653 571.8716
2111.8354 545.77057
2104.1006 525.7709
2123.9937 514.0392
2148.4758 511.15207
2174.255 492.74445
2152.241 479.2798
2174.255 464.9024
2174.255 441.97754
2174.255 420.96826
2155.7725 412.82477
2174.255 396.6138
2155.4614 384.9067
2174.255 369.34668
2152.7705 356.6476
2129.605 360.13623
2133.6904 381.7018
2119.9934 398.80438
2100.7007 406.03574
2137.0923 405.9058
2138.5264 427.79163
2151.0972 446.0417
2132.8257 461.41934
2110.2383 455.622
2120.496 440.27982
2117.7002 420.05756
2100.277 429.47064
2087.187 436.56354
2089.525 451.2673
2093.4597 466.58252
2110.5876 477.14563
2129.5984 487.27216
2107.3208 499.75534
2093.5266 488.75354
2080.1904 497.22897
2089.1067 506.9589
2083.6826 519.0375
2082.4521 542.01965
2073.2832 526.05255
2072.9768 508.6954
2061.2505 500.72708
2049.9312 489.2324
2048.9915 474.21698
2056.0996 462.06772
2063.6973 471.8481
2063.7217 483.20206
2072.7363 488.4466
2082.4182 484.97015
2081.5583 475.97818
2078.3027 466.55624
2071.4336 459.2309
2076.3184 449.89032
2075.6228 439.63196
2064.5815 442.40353
2062.977 452.0456
2054.0522 447.1842
2044.1282 443.22125
2033.3937 440.03766
2021.9163 441.06354
2011.9744 434.03836
2003.7142 446.665
1996.8088 462.3336
1987.8112 452.1917
1989.6279 439.52588
1996.5533 430.6117
1987.1111 421.00137
1970.1101 414.61444
1974.5735 430.747
1975.748 443.79843
1972.669 457.26422
1961.4143 456.57257
1949.1545 452.76492
1937.2332 455.98212
1938.3202 465.67477
1943.3536 473.89267
1952.965 465.88675
1963.7607 473.22623
1974.0012 471.4789
1983.5363 463.80164
1986.0916 475.1169
1993.6631 481.921
2003.5464 491.61646
2003.909 472.06894
2011.55 457.61172
2023.992 456.0341
2035.1871 451.62973
2046.9178 455.13098
2037.5363 465.4361
2034.7548 481.21777
2023.2334 472.13382
2014.2122 482.1191
2021.2488 493.54312
2035.421 497.4858
2047.6774 509.57108
2058.4546 525.95337
2043.3392 532.92633
2032.7448 522.25244
2020.679 513.5124
2006.5314 507.12915
1989.8204 492.815
1976.0128 484.86353
1968.062 495.33975
1979.6279 498.4419
1991.6853 505.11316
1990.0413 518.2127
1974.8732 522.84515
1978.8572 511.01343
1966.7705 508.15042
1958.6531 517.9085
1963.6184 530.3192
1956.957 541.1792
1941.5239 545.7089
1932.7292 538.7856
1924.1436 531.04767
1918.2756 542.99646
1904.8486 538.7033
1905.6421 550.768
1916.8566 562.1295
1927.7966 554.03326
1939.0247 561.5191
1950.4595 568.37573
1942.6228 580.3993
1930.4285 574.2025
1931.076 595.1615
1917.3931 581.41425
1905.7886 573.9683
1898.8381 561.93677
1887.5969 549.29626
1890.2559 535.0879
1873.3752 535.38666
1867.7068 551.3665
1868.1565 571.76874
1881.1497 562.79755
1889.3799 576.10846
1879.4873 588.51227
1863.2275 585.8847
1849.5071 580.24713
1833.8982 583.8826
1820.0995 588.4313
1837.4658 565.7771
1854.354 562.9757
1847.4774 548.9627
1831.721 539.98254
1823.5984 554.0069
1817.6946 569.70465
1804.4581 583.23456
1780.2058 576.12946
1792.1315 574.1139
1801.7134 563.2519
1800.8456 547.4398
1812.5515 531.47925
1796.6786 524.27826
1785.7994 513.4465
1783.216 499.15216
1780.5663 484.07663
1792.4248 473.1876
1780.9967 463.1877
1763.4021 463.45248
1765.7053 477.0979
1763.3657 492.68396
1758.795 509.41055
1762.6887 529.1163
1777.0295 523.01086
1783.3967 537.36694
1770.5515 548.6879
1780.8018 559.6646
1764.3855 575.2923
1751.2769 563.23755
1750.3845 584.02545
1734.0159 575.4841
1729.6191 548.32983
1753.9998 544.005
1743.0096 528.5264
1724.7847 524.01117
1703.5095 526.26044
1690.6499 547.2375
1715.5913 561.87805
1699.7666 572.2226
1678.2085 575.1528
1664.2112 557.68976
1651.2134 577.80597
1662.1431 597.19977
1668.1697 616.3941
1678.8625 602.8921
1697.573 594.3516
1699.8074 613.0699
1684.8074 618.47235
1677.3289 626.93945
1670.5828 635.0589
1657.8752 631.1586
1644.623 625.609
1655.1082 612.63794
1641.8536 609.50934
1639.9119 597.4622
1627.1302 588.66064
1621.6001 603.1328
1603.6569 606.4936
1600.8721 619.8282
1589.0017 611.4675
1591.4512 596.99817
1599.1233 586.02185
1609.812 594.8984
1612.5748 580.9105
1630.8247 567.5225
1620.3069 549.0325
1643.8102 546.12067
1663.2772 532.8612
1649.0219 514.2207
1639.428 492.37698
1652.667 475.82806
1669.179 491.42557
1679.1084 518.50226
1695.7896 497.9222
1723.3396 498.08612
1713.4434 479.46335
1729.9751 466.6425
1743.3025 495.64853
1745.9784 475.69016
1743.3022 451.57663
1761.625 447.47784
1781.1267 446.0359
1799.0774 439.7667
1799.7239 457.53305
1818.862 462.5824
1811.6909 477.42514
1800.1058 488.53677
1801.6836 507.61758
1813.6346 511.64688
1822.2822 502.0296
1827.9323 487.38202
1842.205 483.91208
1837.4641 460.18637
1857.9557 453.5668
1847.4578 440.11023
1831.1936 435.91946
1816.6758 444.34027
1816.185 421.26447
1829.5878 408.44748
1839.6893 397.38272
1850.0769 389.16238
1850.2122 377.3622
1857.7009 366.7872
1841.851 368.47736
1839.3364 354.70654
1825.3959 349.2996
1815.9321 358.79172
1826.0503 371.00238
1835.01 383.51117
1823.1262 392.92926
1814.0276 383.1087
1800.9806 385.15924
1792.4677 376.11386
1808.4026 370.37314
1797.3834 363.80048
1802.1919 352.96133
1809.5803 342.502
1820.5818 333.1544
1835.1558 334.76825
1847.3083 341.68182
1858.0503 333.42484
1867.6179 342.73352
1857.2793 353.12418
1869.8027 364.6612
1874.6809 354.194
1882.2766 363.83542
1879.6815 373.52267
1870.7296 378.4546
1861.9314 382.23837
1862.2239 395.7221
1852.3093 406.6169
1844.3069 422.248
1859.4156 424.1127
1865.9629 437.43533
1882.5178 434.9731
1898.1003 445.3689
1904.3018 461.90018
1900.8005 477.21817
1914.2148 480.83167
1910.2778 490.9667
1889.0354 488.83035
1900.5471 494.30493
1909.5343 504.4507
1901.9058 515.24744
1894.286 505.4324
1881.6191 503.36972
1866.3004 502.9427
1872.0986 489.81973
1874.7351 478.93094
1886.6747 473.6077
1889.736 460.84323
1877.6852 449.9235
1869.9976 466.7021
1856.7776 475.5443
1856.7029 490.05777
1849.9114 501.47543
1837.2749 503.19055
1831.8379 521.0978
1854.4604 534.0348
1853.2947 517.74506
1870.868 518.09174
1886.4388 520.54083
1903.0146 526.8375
1915.564 524.5925
1917.3003 512.42346
1920.2627 498.1369
1932.5211 495.7109
1930.4371 507.08954
1928.6143 517.48004
1936.3601 524.98474
1947.6423 529.976
1945.624 514.6438
1942.8295 503.146
1955.242 501.19522
1960.2773 487.15982
1952.2263 479.87125
1945.472 491.59793
1938.2698 483.5336
1925.2959 486.51474
1928.907 474.83795
1916.0562 469.01303
1924.5764 460.9312
1913.5143 449.93326
1927.2883 449.28973
1924.1823 438.12708
1938.2649 429.75964
1938.407 443.56128
1949.0049 438.0486
1961.597 442.84787
1959.3882 429.90164
1952.7917 417.06586
1938.9922 415.9116
1928.7268 409.27325
1936.2827 399.45016
1946.5342 404.5795
1958.2798 404.38266
1949.0039 391.83783
1952.3223 381.586
1962.7668 384.72305
1966.0315 397.26428
1979.38 402.0243
1977.0924 387.83325
1971.4016 374.90234
1981.5393 368.83585
1990.9331 382.32574
1995.8577 365.5111
1998.5808 347.20212
2010.2876 355.69025
2010.1967 367.54123
2009.482 379.1386
2004.5374 392.1827
1992.383 401.0781
2006.4731 409.83252
2004.8451 422.0106
2019.0647 418.3609
2029.4718 426.02084
2042.1613 430.49182
2052.9302 436.51898
2060.7847 431.3696
2068.796 431.52386
2078.5312 427.28464
2085.8486 417.17105
2069.7231 418.13214
2059.5127 408.59103
2055.2063 422.85297
2044.6295 416.91696
2032.6526 411.88852
2022.2584 391.7079
2042.6805 392.43616
2052.4585 375.3913
2069.0854 375.08978
2063.3738 389.6906
2083.4004 388.0159
2092.768 375.41788
2104.999 384.99014
2107.2834 365.7525
2093.861 353.56366
2081.9824 348.28336
2079.9646 363.45203
2064.1846 356.14575
2050.7542 346.07025
2045.6119 359.95615
2031.1008 355.18277
2034.3909 376.13687
2024.1385 367.44223
2018.8613 346.60782
2013.0339 336.26093
2026.0582 324.67786
2031.8058 340.64197
2042.463 333.08734
2042.9662 320.25293
2035.899 308.383
2025.3335 303.77814
2031.8063 291.97107
2038.6453 280.83633
2047.2408 266.3608
2051.1123 252.85432
2044.58 241.03416
2048.0684 226.68733
2063.4702 227.6767
2065.3965 241.69011
2066.8618 256.0631
2063.121 269.94766
2054.4182 282.1432
2046.5886 295.22293
2051.433 308.66104
2061.9014 315.48288
2055.7363 329.91754
2063.8882 339.95303
2074.8098 340.63004
2085.0354 331.41446
2093.7207 318.8071
2100.093 303.37927
2110.4167 319.62207
2099.9453 334.9704
2107.9507 347.01108
2125.7546 335.76862
2148.8643 329.12946
2174.255 340.0786
2174.255 308.54745
2151.0046 299.46225
2128.5854 306.54474
2114.253 289.69666
2142.495 277.05692
2128.829 259.97357
2130.4111 234.4648
2155.5757 248.10283
2174.255 271.7172
2174.255 227.59259
2153.3154 210.00424
2174.255 182.00298
2140.687 175.00183
2132.0188 195.57492
2118.8772 213.71849
2104.7668 230.51521
2108.9312 249.78906
2108.9526 267.04297
2102.061 279.79288
2088.523 282.95706
2084.2275 296.059
2077.8618 310.3577
2071.938 325.335
2064.1582 298.8442
2070.8447 285.27292
2078.284 270.84314
2091.6982 264.38153
2081.2349 253.39279
2094.0312 245.33095
2082.2266 235.00984
2075.982 216.81078
2092.312 218.03532
2100.5034 202.247
2082.7163 197.77222
2065.9011 201.5582
2053.9622 212.16238
2046.1613 200.69551
2040.8683 187.11449
2022.6447 197.9508
2031.7146 209.1837
2031.0078 222.80724
2027.4211 238.30844
2030.2095 254.14508
2031.2909 269.21252
2014.2405 265.16586
2016.9207 280.82996
2016.13 294.03995
2002.654 297.8588
1999.3174 278.0986
1990.6228 291.1132
1975.9049 299.49976
1985.9475 308.27768
1999.7961 312.6603
2014.6877 309.96
2009.5776 323.43646
1997.8903 334.1609
1990.7075 323.81638
1981.3181 340.85483
1986.3708 354.0864
1972.7546 354.3352
1963.4368 360.98895
1957.7058 369.96976
1947.431 374.34732
1937.8596 378.63397
1932.8938 389.45078
1920.0209 395.24103
1909.7979 384.97772
1904.27 397.68896
1908.8882 412.5772
1918.2476 409.2967
1922.8496 423.2232
1909.3549 428.69342
1896.0048 429.75858
1888.7378 418.47485
1898.8174 411.49435
1886.9707 404.65436
1875.8959 422.2312
1869.5029 410.43796
1874.894 395.88126
1881.0867 384.76303
1889.543 393.06757
1897.4392 384.90747
1889.9583 375.26166
1899.8678 372.686
1908.8016 370.0601
1916.6938 375.80142
1924.98 381.45407
1927.2478 368.27884
1944.9535 365.56158
1935.9718 360.55722
1938.2839 347.1004
1951.2474 353.1653
1961.9426 343.11307
1967.2308 330.8431
1979.2439 325.64133
1967.4626 313.6909
1962.0231 299.3261
1948.918 306.88342
1953.2423 322.9392
1945.7927 335.8176
1936.8091 318.22467
1934.3894 300.47818
1941.8271 288.60187
1953.0552 288.37454
1965.586 283.40646
1978.3865 284.12924
1983.8676 268.2591
1969.324 265.6851
1955.9758 271.91577
1943.9939 268.8674
1933.2625 276.06445
1927.5369 286.1347
1916.4647 289.1486
1917.4061 276.0777
1909.2864 268.58707
1900.5754 276.7365
1895.1161 264.93332
1902.2236 249.34058
1910.4102 238.76852
1923.8733 248.4661
1912.7441 257.63992
1927.7854 262.99988
1941.0183 251.82289
1957.6802 251.15869
1978.7407 246.50385
1994.918 236.71748
1996.8983 257.80627
2010.4557 244.84204
2012.924 226.37555
1994.5587 217.50177
2010.6946 209.41269
1998.9258 196.05617
2007.4314 180.15623
2022.4021 185.85518
2025.8698 171.22284
2040.56 168.12164
2054.4043 172.93207
2060.787 186.85326
2075.4263 179.8134
2067.4888 162.91458
2073.4087 145.63396
2075.9382 125.89479
2059.4924 109.90489
2055.0576 130.00296
2048.3682 148.73007
2026.0935 148.5757
2004.8381 158.29947
1983.4082 143.24435
1960.1587 154.79932
1979.6936 177.3567
1954.7183 187.62589
1969.7383 213.79944
1946.6968 218.49155
1929.4624 228.8654
1909.4917 217.94072
1898.928 198.06874
1925.314 194.66112
1906.4014 168.19374
1886.107 151.94812
1907.4067 134.77733
1934.0479 166.13158
1936.4601 137.9444
1960.8884 120.55809
1929.6616 109.37955
1914.8086 82.20781
1931.772 63.181904
1955.0596 89.6676
1963.1409 63.218174
1981.8623 45.409363
1994.6492 75.47947
2027.3071 79.63143
2011.2634 103.03625
1985.2594 106.5646
2006.9702 130.71143
2031.8179 125.8775
2033.508 104.54819
2045.4957 90.12296
2061.1074 87.351364
2054.3623 69.38534
2051.123 55.65422
2073.7593 74.932076
2075.064 92.94497
2084.385 102.39194
2091.604 114.31495
2095.4094 131.63803
2094.7788 149.73663
2086.2266 164.49687
2093.2869 181.41132
2111.8662 186.1251
2110.974 165.21416
2111.6045 141.83109
2131.6465 146.10994
2157.3916 154.19582
2174.255 131.4449
2138.3635 122.9085
2111.4856 116.85804
2104.187 94.38148
2090.465 81.026596
2082.3433 62.33525
2089.9343 44.885143
2112.2927 54.098835
2111.15 73.20983
2126.315 94.71766
2153.5933 100.98851
2174.255 82.40226
2145.5723 66.67886
2138.25 41.445663
2174.745 32.469723
2138.9204 17.999975
2108.6436 32.403633
2104.167 15.103844
2081.9429 21.421663
2069.416 46.611385
2060.1533 30.70351
2062.0474 14.280833
2042.4849 16.28443
2033.3888 32.652306
2042.2994 44.528336
2025.4426 59.08053
2008.3928 42.253143
2017.7715 17.607895
1990.4136 19.248209
1961.3413 20.539108
1944.5569 39.82203
1927.3369 20.929157
1898.6274 20.924852
1906.6252 47.97
1884.7974 68.20428
1873.9854 91.15443
1899.3538 104.01157
1880.4768 121.268105
1858.9736 135.48512
1842.323 154.18788
1864.1047 164.63295
1876.0903 187.60367
1843.5317 184.26543
1822.0056 197.28009
1820.5426 155.18665
1829.1299 127.7263
1851.8787 108.649536
1827.8112 95.30674
1847.6879 76.51151
1850.5991 50.134438
1875.7312 41.922077
1871.6592 17.858006
1844.799 21.93948
1817.4675 24.03991
1823.1208 56.70396
1799.8964 113.48843
1798.8108 83.83943
1795.8987 53.455204
1786.6234 22.387762
1751.1345 16.914225
1769.3853 55.361385
1750.3862 39.754116
1715.3179 26.296259
1694.4409 56.56205
1727.9326 71.622025
1763.2153 86.1089
1761.9019 117.9155
1789.9165 142.62196
1803.8799 172.89963
1778.56 179.36732
1767.9446 204.52628
1761.6003 220.46999
1764.871 233.89478
1779.5 246.04546
1778.5732 233.13216
1780.1245 217.8556
1794.3535 210.882
1810.4536 221.77211
1795.3207 235.17302
1807.3618 253.16931
1792.9961 252.31732
1790.6589 265.2709
1780.0339 267.3771
1776.6729 257.4079
1766.3994 253.43724
1759.4344 246.3608
1750.587 238.39503
1736.6616 238.19833
1722.1082 244.8394
1727.0471 222.7938
1711.7816 228.86526
1704.7507 215.34328
1714.3423 200.937
1731.4445 203.29076
1744.7263 222.36208
1749.4324 205.31638
1743.1871 181.6621
1753.6919 151.55156
1710.9155 158.40698
1720.9078 114.92495
1684.2068 94.740906
1675.3823 137.56122
1640.5193 101.54575
1599.2784 93.97151
1615.992 70.52351
1655.4272 59.650867
1674.4573 23.625105
1635.6421 22.251827
1613.6348 42.12045
1583.979 56.14295
1588.1989 21.31387
1549.0593 15.052536
1558.9093 36.073055
1555.2937 62.17702
1570.6521 84.190956
1552.8717 94.72621
1542.5646 75.03435
1536.0323 88.25361
1523.6917 83.33154
1512.3606 74.48146
1497.8612 71.48279
1493.7804 88.64903
1510.6783 90.97032
1504.5157 104.77184
1491.4473 110.96648
1479.2356 99.306404
1469.5602 86.07258
1456.7573 104.30132
1425.5939 117.48492
1435.3574 97.93714
1448.8645 83.16963
1462.0872 66.99484
1480.8058 73.68919
1481.1879 57.261845
1497.1564 54.983994
1515.666 56.993225
1528.8984 67.13436
1538.4368 50.395855
1523.0518 40.697468
1535.8936 27.922009
1521.3447 14.058348
1510.8599 25.988308
1494.2996 17.08718
1502.726 40.23118
1483.4401 36.153763
1467.1245 47.078766
1449.0349 46.028862
1456.9376 29.477179
1472.2108 17.03149
1447.0355 15.193891
1427.1421 17.49177
1431.8783 35.619743
1430.0527 54.169895
1443.7312 64.82192
1424.2333 76.3903
1412.7175 57.544994
1392.8586 55.93069
1398.318 76.36357
1409.5913 95.05752
1386.8228 102.916466
1363.2533 97.73129
1343.6389 90.47894
1322.978 100.29449
1324.488 78.70942
1327.8387 60.774933
1352.4507 52.26579
1353.309 71.11206
1376.0679 74.0747
1371.9631 48.698215
1390.8928 35.875103
1410.437 36.93301
1408.4751 16.923872
1388.8578 15.607449
1373.7233 25.876326
1361.0745 13.764094
1352.8973 29.749893
1336.4375 14.604928
1312.712 17.981478
1329.2622 29.52261
1337.0806 43.975372
1313.1512 42.938526
1302.7324 65.06963
1295.9612 86.0022
1264.2974 87.779144
1230.9858 86.17629
1201.7756 104.33202
1207.2925 168.6353
1206.9213 180.3677
1220.9165 172.16026
1219.524 187.4417
1212.2448 196.65115
1212.9594 209.24803
1214.3696 223.92987
1204.0873 222.96829
1194.4415 224.43037
1183.3467 220.51506
1188.2092 235.13483
1193.3069 248.18813
1172.8029 240.05411
1170.779 224.42479
1168.4133 208.68448
1183.6815 207.4648
1197.2883 211.57214
1200.4679 201.475
1199.1086 190.09254
1193.5394 167.24261
1190.2601 179.92845
1185.5082 195.67523
1177.3832 185.07281
1164.1536 193.46689
1164.406 177.26286
1177.7312 165.78546
1156.6978 164.27817
1142.6075 184.0243
1149.5496 203.59059
1152.9048 225.31448
1131.2571 210.15991
1117.4478 186.25131
1132.9337 166.89449
1082.2687 120.34043
1081.6067 99.08976
1063.5115 92.109474
1041.6165 95.25138
1055.2988 114.46469
1031.1984 138.91531
1020.9511 108.53727
1017.28656 84.90524
1032.769 72.6543
1051.0596 72.30856
1043.9056 56.41167
1030.5206 50.24676
1015.74536 60.30571
1015.4663 40.180496
1015.6644 24.884428
1013.9682 12.769491
1029.6694 14.85988
1031.013 31.202745
1043.9741 37.307823
1047.4385 16.341139
1056.6157 31.355318
1068.8119 24.22104
1072.5039 12.822115
1082.0853 31.476862
1100.919 16.303207
1141.2721 18.245527
1124.4723 26.500385
1111.0863 37.257103
1094.379 37.115437
1101.1057 53.509243
1084.4607 55.95725
1069.6719 42.371426
1056.2949 50.32536
1069.2369 58.904842
1067.0967 74.52075
1084.6713 77.41984
1101.8849 90.53258
1109.3141 107.99436
1125.9039 89.6158
1135.906 105.49301
1161.7522 103.56321
1148.1877 77.19867
1122.8373 73.94111
1102.8591 70.6544
1120.7245 55.626873
1138.959 50.11809
1159.2701 53.98911
1180.5708 56.884266
1174.5297 82.31551
1200.0497 78.83497
1206.922 58.542767
1209.4604 35.553352
1228.4971 50.540436
1252.0327 39.062984
1250.07 63.8113
1274.9553 60.475254
1289.5563 46.27656
1293.416 29.789244
1290.1292 13.882305
1271.8428 25.361217
1255.0045 15.912398
1235.5496 21.881222
1218.7266 17.598454
1197.0204 16.288893
1186.2756 35.372887
1171.6409 15.980587
1159.6661 32.034283
" />
</g></g></svg>
