<?xml version="1.0" encoding="UTF-8" standalone="no"?>
<!-- Created for Inkscape (http://www.inkscape.org/) -->

<svg
   xmlns:dc="http://purl.org/dc/elements/1.1/"
   xmlns:cc="http://creativecommons.org/ns#"
   xmlns:rdf="http://www.w3.org/1999/02/22-rdf-syntax-ns#"
   xmlns:svg="http://www.w3.org/2000/svg"
   xmlns="http://www.w3.org/2000/svg"
   xmlns:sodipodi="http://sodipodi.sourceforge.net/DTD/sodipodi-0.dtd"
   xmlns:inkscape="http://www.inkscape.org/namespaces/inkscape"
   width="3200"
   height="800"
   id="svg2985"
   version="1.1"
   inkscape:version="0.92.3 (2405546, 2018-03-11)"
   sodipodi:docname="20190108203826.svg">
  <defs
     id="defs2987" />
  <sodipodi:namedview
     id="base"
     pagecolor="#ffffff"
     bordercolor="#666666"
     borderopacity="1.0"
     inkscape:pageopacity="0.0"
     inkscape:pageshadow="2"
     inkscape:zoom="0.35"
     inkscape:cx="1072.8571"
     inkscape:cy="400"
     inkscape:document-units="px"
     inkscape:current-layer="layer1"
     showgrid="false"
     inkscape:window-width="1920"
     inkscape:window-height="1017"
     inkscape:window-x="1912"
     inkscape:window-y="-8"
     inkscape:window-maximized="1" />
  <metadata
     id="metadata2990">
    <rdf:RDF>
      <cc:Work
         rdf:about="">
        <dc:format>image/svg+xml</dc:format>
        <dc:type
           rdf:resource="http://purl.org/dc/dcmitype/StillImage" />
        <dc:title />
      </cc:Work>
    </rdf:RDF>
  </metadata>
  <g
     inkscape:label="Layer 1"
     inkscape:groupmode="layer"
     id="layer1">
    <g
       id="g7"
       transform="rotate(90,1608.434,410.58659)"
       inkscape:export-xdpi="96"
       inkscape:export-ydpi="96">
      <path
         style="fill:none;stroke:#000000;stroke-width:2px;stroke-linecap:round;stroke-linejoin:round"
         d="m 1773.8285,430.0294 5.1481,2.81524 1.5765,-5.58512 3.9518,5.47293 2.1894,-5.00277 2.5046,-6.14112 6.8802,1.99866 -3.9089,3.65494 1.7324,4.94357 -4.366,0.82382 1.9484,4.60538 -7.6954,0.3089 3.9191,2.60821 0.19,4.45209 -2.5906,3.00284 0.9724,4.87949 -1.5152,5.51007 -1.6363,5.2301 5.8719,-1.6713 1.3507,-5.16766 3.4614,4.5994 -2.0381,5.71218 -4.5311,-0.66751 -0.5202,4.06632 3.1304,2.62048 -5.3553,1.4628 -4.6519,1.05786 1.8313,-5.9693 -3.7543,-3.89136 -5.2748,1.7804 3.1775,3.83014 -1.1045,5.01482 -5.3286,-1.35094 -1.5555,-6.06229 -4.0896,2.50743 -1.9939,-7.69593 -3.8889,4.13696 0.2107,6.04489 4.5934,3.32715 4.281,2.67959 2.0398,3.85828 3.997,-2.64374 4.9607,0.70108 -5.2827,5.05555 2.8536,3.82595 5.2272,1.84598 -0.1335,-6.03152 4.9034,-2.21634 -2.3496,-4.42566 5.0386,-2.7031 0.6977,3.96506 3.8836,-0.83993 -2.0657,5.68035 4.1536,3.33881 0.88,-5.3909 4.4199,1.28705 2.728,-5.15204 2.4863,-4.24878 4.6253,-1.59323 -1.4376,4.96265 -2.8189,4.17382 5.5462,0.24607 2.398,-5.01587 3.0422,5.1677 2.8864,3.98602 3.657,3.23016 2.8828,3.3407 2.6594,-4.75565 2.5638,4.293 -0.6065,4.11752 -0.3313,4.10618 -3.6438,-1.28815 -2.8302,-3.25398 -4.1704,-2.54262 -0.8622,4.53586 4.2723,1.69171 -1.7073,2.8349 -3.5777,1.44452 -2.4509,3.48068 -0.8683,5.35485 -4.1745,3.56113 -3.9352,-0.32238 -4.4713,0.2041 -2.8793,2.72615 -0.4308,4.4252 -2.464,3.8903 2.5477,3.70395 1.204,4.448 1.0031,3.92685 -1.6779,3.224 -3.9942,1.0385 -0.2024,-4.88375 0.3372,-4.3637 -2.9464,-3.0705 -4.2653,1.28495 -1.4461,-4.0294 4.9147,-2.1993 -1.9585,-4.9884 4.4216,-0.0576 0.3021,-4.80163 1.9881,-3.79127 -2.817,-4.60778 4.7873,-0.90342 -3.2313,-4.1348 2.801,-5.0429 2.037,4.79328 3.0338,-2.14798 4.2189,3.34604 -3.6892,2.89471 -3.2515,4.50171 3.9652,0.35474 4.1625,-1.1049 2.5732,-2.90612 1.3897,-4.33105 2.7462,-3.6937 -4.5536,-0.29785 -1.5986,-4.07105 -2.8677,3.22747 -4.4142,-3.26964 3.4408,-2.86429 4.694,-1.58789 4.15,3.84712 2.4237,-4.43226 -3.0704,-3.30899 -4.9319,-0.706 -4.1248,0.37378 -3.4955,2.67465 -3.8055,3.32169 -3.6976,4.99228 -2.0368,-5.15155 -4.509,-4.31378 -1.1341,5.10708 1.9654,4.5294 2.6836,4.28213 -1.8514,4.78657 1.951,5.214 -5.9243,0.7099 4.3246,3.9986 -1.9474,7.3236 -2.801,-5.0366 -4.2566,-1.76963 -1.3028,-4.93167 0.1478,-4.89682 4.5135,0.0339 1.0227,-5.08432 -2.642,-4.99236 -5.3657,-1.71138 -4.3467,5.17362 5.8899,1.23114 -3.4714,5.10187 -4.3219,-1.05912 -4.0455,-3.60683 -0.7376,-4.6334 5.5213,-2.77264 -1.7625,-4.80161 -2.8119,-4.31378 -3.999,3.36771 2.0381,4.0032 -5.3767,-0.97882 0.3547,4.20174 0.4353,4.06217 -5.0017,-1.2854 -0.4178,-5.72037 1.7319,-5.0376 -5.2363,-0.12484 -2.4462,-4.89529 -3.6625,2.75903 -2.8155,4.28143 -4.2367,1.19144 -4.1763,1.74631 3.2272,3.31009 4.8011,-1.36655 4.4701,-3.5697 3.6715,1.91135 0.6021,3.98043 -4.7165,0.45768 -4.7601,1.99482 -4.522,1.09478 -1.5866,4.65392 4.5117,-0.51415 1.6965,3.94085 2.5023,-5.8528 3.7056,0.15535 3.4736,-2.10739 0.3235,3.75928 0.1933,3.51691 -5.5605,-1.08085 1.1607,3.9543 0.096,4.0696 1.1392,5.1931 -0.2822,4.2604 -4.3079,1.3168 -4.1145,-3.03086 4.4555,-1.02494 -0.9542,-3.9971 -5.5819,-0.591 3.8022,-3.90856 -4.987,-2.32984 -4.8375,6.673 -0.4946,-4.2162 0.3404,-4.32035 -1.8325,-3.79245 2.1856,-3.7432 0.1037,-4.00644 -2.0496,-4.42444 -3.4036,1.76914 -4.3817,-2.017 0.7013,5.27234 4.3378,2.5951 -1.6993,8.0287 -2.2247,-4.54836 -5.9907,0.7995 1.033,3.78851 1.1659,4.52705 -5.9586,-0.79097 -2.8731,5.24787 -5.2781,-0.9707 -4.555,2.2345 -4.3747,0.6562 2.0381,-4.7336 -3.3155,-4.9583 4.6169,0.2022 3.2943,2.8618 4.7456,-0.5939 2.2109,-4.298 2.1674,-3.83535 1.232,-4.60325 5.5284,1.6143 -1.5356,-3.52836 0.2826,-3.46499 -0.2955,-4.31245 3.5372,-2.33416 -3.2113,-3.74008 -4.0275,1.17517 -0.5138,4.22607 0.224,4.31608 -2.8351,2.20602 -2.1879,3.83063 -2.2976,3.7637 -2.2352,3.9285 -5.6446,-1.70053 2.4937,-3.8857 2.929,-2.9942 0.2113,-4.05632 3.2248,-0.13053 1.4526,-3.68423 0.705,-4.14606 1.1126,-4.95221 -2.1499,-3.95035 -1.9414,-4.20117 -6.1847,-0.0251 1.9064,4.33557 2.2954,3.29328 1.284,3.519 -1.9807,3.98346 -2.8679,3.38447 -1.7214,4.57657 -3.9025,-3.1072 -4.2927,-2.27583 -2.6397,-3.35489 -2.8287,-2.56864 -3.3697,-3.20968 -1.2987,4.35968 -4.0452,1.51356 -5.3678,-1.75843 -3.8232,3.21676 5.4368,0.9285 0.5912,4.30814 -4.9817,-0.24692 -3.9972,2.30615 2.1876,4.45065 3.6018,3.77685 -4.0327,3.50398 -4.1345,7.68742 -0.2815,-3.7895 -1.7479,-3.8382 1.8121,-3.9937 -0.5624,-4.1953 -3.8906,-1.19262 -5.1254,0.0474 -1.8071,5.4014 5.2932,-0.0627 -0.8655,6.05719 -5.4741,1.85276 -2.9831,-4.39222 -4.406,1.97086 3.1502,5.38926 2.5927,4.965 6.3306,1.27513 -0.7162,-5.42013 5.1686,2.2426 1.8319,4.8139 4.6331,1.3977 3.2442,3.34167 -2.5385,-8.5282 4.1933,2.67517 3.0711,4.26366 1.6996,-3.39403 1.8092,-2.78927 -3.2303,-3.207 -5.0146,-2.5058 7.8283,-2.3167 -4.2218,-2.14296 0.2651,-10.21247 5.4555,-1.78167 1.9171,-5.3059 4.8827,-2.16554 0.7733,4.38498 -1.8223,3.95123 3.3047,4.75523 3.2733,-2.6988 -0.3326,-4.5981 4.4719,1.53868 1.6495,3.69239 -3.468,4.01861 -1.7248,5.04902 -3.6568,-2.40488 -4.1298,-1.19212 -1.847,-4.2373 -4.8801,1.88886 3.3024,4.47067 0.5741,6.96423 2.1192,-3.27533 4.0365,-0.15993 3.4866,2.971 4.3547,-0.8653 -2.4497,4.9708 -3.3396,3.7194 -1.8543,-2.6875 -1.1087,-3.4489 -5.2048,2.2113 -1.4828,5.3061 -1.4338,4.95703 3.8881,-2.47333 1.4788,-4.874 2.3478,3.6586 3.8475,1.3833 -2.0025,3.24245 4.2063,-0.0845 0.9737,3.3781 3.4878,1.6029 0.6038,-4.187 -2.1248,-3.78286 -2.3293,-3.17264 4.0183,-1.15036 2.7998,3.68146 2.5772,3.86786 -1.4534,4.95714 4.4161,-0.5726 4.2887,-3.2699 -3.4316,-4.1957 -3.4346,-4.06634 3.8694,-3.02806 2.9956,2.3973 2.32,3.99197 3.1409,-4.91887 4.3784,2.2012 -1.1933,-6.9194 4.7116,2.6078 3.1853,-6.94675 1.2394,4.09699 1.8428,4.10382 6.4333,-0.21832 0.8886,3.95666 3.2991,2.54083 3.2712,1.92057 -2.3485,4.0523 0.9088,4.4986 -4.0553,1.81064 -2.6173,-4.62564 0.8922,-4.5159 -3.1373,-3.2034 -2.9384,-2.1646 -4.8229,0.61714 -4.4287,3.82453 -4.3701,-0.89377 -1.1676,4.3263 0.097,4.53823 -3.0378,5.00842 -2.374,-5.18505 -3.6871,4.01525 -5.3357,-0.82189 -5.2869,-1.75786 0.4532,4.4601 5.3518,2.75186 -5.3678,1.2381 0.1516,4.41034 5.3578,0.345 4.9744,-5.2077 0.4977,5.32485 -0.82,4.7215 4.812,2.80425 -2.717,4.6242 6.3987,0.1272 5.4657,-3.0812 -3.6902,-3.1289 -4.1394,-4.17294 -1.2224,-5.55591 4.572,-0.83899 2.1351,4.87674 4.3286,3.0543 4.647,1.4403 -1.5549,4.6779 -4.2263,4.26576 -3.4664,3.94244 -4.2083,1.67524 -2.7677,-3.26334 -4.3864,1.1837 2.1442,4.2416 -5.1384,0.7825 -3.4305,3.5791 -2.4497,-2.9046 1.933,-3.33716 3.2843,-1.34724 0.5696,-4.74664 1.2203,-4.27046 -3.5335,-3.46257 -4.5906,-1.41119 -5.2,-2.63678 0.1402,-4.38246 -1.5303,-3.5481 -1.9268,-3.19707 4.617,-0.927 -2.3067,-2.66573 0.8665,-3.7084 -3.9093,1.1198 -0.5896,-3.0812 -2.3269,-3.2863 -2.1775,3.892 -1.358,5.12375 4.447,0.15425 -1.2749,4.80706 -4.7227,0.4674 -3.5627,-2.35806 -0.8086,-4.93826 2.9936,-2.62034 -3.1573,-3.7081 -3.913,1.4522 -2.1528,3.7118 -2.4912,-4.60753 -2.7334,-3.66541 -5.901,2.24811 0.546,-4.34767 -6.1706,-0.1728 1.7569,6.1782 3.7931,4.9233 3.8087,-3.97526 2.3259,4.45906 -3.9085,4.83727 2.4974,4.97546 3.1076,-4.70213 5.6886,-2.7674 -1.3533,4.03 3.1171,3.14565 -4.3987,2.14975 -3.8101,2.6902 1.6431,4.8218 4.2893,2.08855 -1.8965,5.43955 3.649,3.733 2.3357,4.10614 3.5088,-1.34308 1.5788,-3.64026 -3.9782,-3.0174 0.049,-3.7849 8.1837,1.1056 -3.4098,-2.3245 -4.43,-3.00816 -3.7681,-2.95834 4.1841,-3.69406 3.4101,3.73836 2.0373,-4.30165 4.3764,1.69585 -2.1015,4.6386 3.3495,2.24404 3.8049,1.66006 2.6306,3.04856 4.5107,0.85594 1.4467,4.28444 -2.9676,1.20326 -3.3232,-1.4709 -4.6965,0.4074 -0.636,-4.209 -4.8224,2.82815 1.5292,5.73529 -3.928,2.2923 6.8544,2.6311 2.3528,-4.87554 4.6649,0.1796 -2.1987,4.24684 2.7639,3.40776 6.5862,2.42726 3.458,-3.52346 2.8585,3.751 2.858,-4.2834 4.854,-1.5993 -0.539,6.1472 5.491,-2.4459 0.8681,6.3623 4.8867,-2.7079 1.9596,6.17575 6.5313,0.60492 4.5365,2.40053 4.9554,2.15 4.8448,1.48395 2.0807,-3.92635 -3.5244,-1.2579 -3.996,-0.18434 -2.772,-3.32476 -3.0904,-3.3682 -5.4335,0.33737 -0.2435,-5.40657 -5.7771,-1.08434 0.029,-5.0982 -5.4926,1.71258 1.3544,-4.23468 3.8573,-2.43841 2.2336,-3.62305 3.1259,4.29596 -0.7995,5.16937 4.305,-0.24993 3.0136,4.86785 7.8915,-1.51725 -2.9314,-2.56594 -3.5792,-1.80036 -2.2947,-3.5171 2.4976,-3.7631 3.7064,3.6842 0.1441,-4.9328 -1.352,-3.4093 -2.9215,-1.0037 -4.1079,-1.2165 1.535,3.50706 -1.4872,3.69194 -2.9755,-2.58385 -1.1422,-3.88975 -0.9263,-4.69093 4.216,0.12053 3.5314,1.99244 3.3267,-0.12824 1.5296,-3.1176 1.3777,-2.73817 -4.2018,-1.40853 -0.9919,4.331 -2.2035,-2.1895 -3.5653,-1.0607 -3.3868,-0.415 -4.2206,0.6667 -3.8884,-2.7274 -3.3175,-4.43705 1.5858,-4.21215 1.9233,-3.90705 3.0914,-3.72965 4.833,-0.1467 -1.4647,5.4477 4.1039,2.8706 -7.4792,2.26594 4.2203,2.97302 4.9485,-1.07611 1.2398,3.76611 2.9415,-2.63596 3.0062,-2.1304 4.0957,-1.66454 0.772,-4.90271 0.578,-4.13865 1.02,-3.8722 3.8678,1.1053 4.3514,0.8025 4.0291,-1.7768 -2.2273,-3.4923 -4.32,0.0479 2.3959,-4.1969 -2.7051,-3.4982 1.4878,-3.58277 1.1934,-3.50403 6.23,4.0818 -3.4208,2.42034 2.6115,4.65596 4.2341,1.9571 -2.0423,3.0252 3.8498,2.4924 -3.8136,2.3366 -3.202,3.0583 -4.8512,1.16066 -4.2646,-1.30246 -0.6258,4.5486 0.063,4.4769 -3.2479,2.3344 -4.0005,1.19366 4.6171,3.43324 0.098,4.25224 -3.302,2.71662 2.1254,3.62878 3.6089,-2.66414 4.2485,-0.6122 -1.7571,-4.10085 4.9319,-0.37281 0.8591,5.6969 2.1201,-3.00677 3.1954,-1.78217 1.9299,-3.6184 -5.0757,-0.3837 3.1371,-3.0755 2.1498,-3.2733 -5.6973,0.0341 -3.2151,2.66037 -2.0458,3.22803 -3.6187,-1.5419 3.0702,-6.0125 3.674,-2.77263 4.7657,0.43303 2.1179,-3.39885 2.4042,-3.04825 4.9821,0.312 -1.3612,3.1802 -2.8355,2.47097 2.0915,3.03493 0.4233,4.64945 -0.4902,4.04855 -1.9003,4.076 6.6567,-2.4882 3.9939,3.6486 2.6617,-5.03794 -2.5276,-2.68836 -2.9584,-2.18896 -1.9865,-3.354 0.8056,-4.20564 3.236,-2.35643 -1.6238,-3.37467 -1.8977,-3.5918 -3.6427,0.3943 -1.8839,-3.8222 2.9462,-1.56315 -3.841,-2.95705 -3.8767,-3.52165 4.3373,0.0354 4.4822,0.43165 -1.3872,-3.74494 -4.241,-0.75636 -2.7891,-3.02715 -4.8425,-1.15241 -2.3953,-5.517 4.626,-0.99511 1.75,2.98669 3.8511,0.53156 2.5217,3.27132 4.4413,0.76545 2.1101,4.26335 1.9599,4.6621 -4.7232,1.63516 2.1777,2.52771 0.7029,3.10949 3.0769,2.48454 0.5037,-5.4621 3.8896,-1.4523 -0.3751,4.74566 0.9538,3.69754 1.1424,3.3286 -4.6354,-0.7436 0.5193,4.3817 -2.8603,3.63087 3.7263,2.35363 2.5847,3.6076 -0.1086,5.13087 -1.861,3.53167 4.1041,1.65496 -4.0908,2.8069 -3.3015,2.46844 -3.1284,-1.57049 -2.5108,-2.29715 -2.948,-1.74027 -3.9793,2.51593 -3.7094,-1.50806 -2.0238,3.6544 3.4358,2.29574 3.8145,-0.65491 3.2955,0.40137 3.4829,1.872 -0.5447,4.22944 -3.0116,2.80696 -1.35,-4.26625 -4.3985,0.0436 0.6999,4.4845 -4.8618,-0.408 -0.14,-5.4026 -3.9287,-3.0432 -3.2507,-2.5344 3.3504,7.64305 -4.3341,2.21495 -0.6133,-4.6772 -2.5849,-4.1007 -3.528,2.87185 0.8242,4.61875 1.6884,4.04165 0.062,4.66005 0.899,4.21415 -3.8955,-0.90161 -4.5337,-0.91444 3.0352,5.04066 4.838,1.15144 3.9425,-2.54206 0.554,3.70346 -0.053,3.70773 -1.2602,3.22097 -0.08,3.3467 4.2837,-2.4583 2.7726,2.479 2.6744,-1.4808 3.0612,-1.0661 3.3391,-0.4622 -4.3646,5.37184 4.337,-1.05108 8.773,3.94924 2.3108,-2.5997 -0.1578,-4.59484 -4.2252,2.02724 -3.0308,-1.9764 6.5873,-4.404 5.5386,6.63374 0.3372,-4.52308 0.1135,-5.09616 4.9169,2.18235 0.8426,8.61655 0.8046,-4.0936 3.5127,-3.586 2.9237,3.4031 2.5129,4.0044 -4.6656,0.3868 -1.6491,4.63435 -5.3136,1.44035 -1.3565,-4.0355 -4.0358,1.87414 -2.9183,2.78586 3.9974,1.87375 3.8621,2.6444 3.4564,-1.70599 3.5635,0.77674 2.6814,-2.51044 2.3266,-3.93276 2.292,3.73384 -1.406,3.45626 5.3698,-1.92836 -0.2561,3.40503 4.3619,0.87993 0.298,-4.383 4.2317,3.27833 -0.358,3.40887 4.858,1.27546 -0.4733,-5.19126 3.6118,1.8599 4.396,-0.8454 -3.7737,-3.4641 2.9469,-2.64845 4.2854,-0.0108 4.203,2.04791 -3.6985,2.66434 1.6365,4.4006 -7.8,1.9644 4.4812,1.3445 4.1826,2.74756 3.3383,3.42544 0.554,-6.5764 -0.033,-5.66966 0.5073,-6.92284 -4.4924,-3.3236 3.8893,-2.2532 1.02,-4.83165 -3.0419,-1.03919 -2.7881,-3.12829 -3.5061,-3.42823 -1.5676,4.64656 -0.2385,4.5272 4.6533,0.2861 -3.545,4.50725 -5.7853,1.72491 0.7429,-3.70436 -5.3744,-1.74266 4.3456,-2.53724 0.727,-4.6832 -4.7441,1.7441 0.4561,-4.93736 -5.0572,1.76556 1.5777,-4.8073 1.6423,-3.68604 -3.7078,-2.02526 -3.2634,3.0508 -0.564,4.89365 -5.1779,-0.055 1.4257,4.39825 4.4389,1.61542 4.0609,2.18426 -4.0464,3.20167 3.9418,2.5883 3.8528,2.17506 2.1378,3.86484 -3.851,1.2495 -2.8669,-2.571 -3.1591,-2.73115 -3.461,2.76392 -0.7284,-3.15302 -1.3902,-2.88861 1.9236,-3.79718 -4.2072,-0.6875 -1.8661,-4.51776 -3.4851,-2.63147 2.7791,-3.94553 4.9101,-2.66525 5.1714,-4.58349 -3.7297,-0.87156 -4.5664,0.05 -3.3629,2.9046 -0.8748,-6.9446 -4.3964,2.9281 0.4642,5.6458 0.1166,5.30084 -4.869,-0.29434 -0.6397,-5.1278 -0.3937,-5.96916 -7.6586,1.48576 3.4566,2.39474 -0.7171,5.13546 -2.5606,4.27695 -2.5029,-7.17651 -1.1149,4.02176 -2.3287,3.4391 0.2119,4.4946 -4.2852,-1.18245 -4.4636,-0.52955 -4.2543,-1.78674 -0.202,4.1261 -3.7516,-2.15081 0.3782,-4.69935 -0.3939,-3.9011 -3.5734,-2.4284 -0.6885,-4.0708 4.2038,-1.9242 1.1734,4.1939 3.9247,2.71685 -0.8158,3.98875 3.9295,0.67384 3.9264,1.17986 2.4184,-3.8645 -4.5665,-2.31175 -3.551,-4.10765 5.7317,-0.8466 2.4902,3.13515 3.1978,-2.53035 2.0558,-4.0063 5.511,-0.5488 -3.8343,-4.1342 3.8304,-2.30964 4.3567,-2.87416 -0.3884,5.62764 4.8917,1.26366 0.8314,-5.21954 -1.8506,-5.06402 3.8641,-0.41574 2.8818,2.51297 -0.01,5.33053 4.465,1.04166 -0.7202,-5.90206 3.0134,-3.2796 -2.1374,-3.5161 -4.2236,0.7984 0.2699,-4.6084 -4.6278,-1.0893 0.086,4.1408 -3.7988,-0.0789 -2.0436,-3.1216 1.9941,-2.75334 -1.3267,-3.54126 -1.2296,-3.7363 -2.4076,-2.9196 3.6489,-2.58964 3.6907,-0.73366 -0.2853,4.4623 0.2185,3.6914 1.4198,3.13404 3.5779,0.0673 3.2563,1.0536 2.7269,-2.9017 3.9877,-1.40245 0.018,-3.8653 -0.8601,-4.34325 4.2055,-2.331 1.0593,4.32745 2.6248,3.01235 -2.353,3.0134 0.9136,4.34187 3.9375,-0.54193 0.1662,4.71752 -4.6096,0.33381 -4.0879,-4.1803 -4.5775,2.50433 3.3729,2.6928 2.6438,2.8326 3.8081,1.5138 -5.2025,2.0096 1.8228,3.25815 -4.5935,1.13281 1.1809,3.54054 -3.2168,5.07555 4.2768,-0.95941 3.1586,1.74046 3.4568,1.7375 2.9428,2.71827 1.3675,-3.74487 4.373,0.9861 3.9082,-1.524 2.5888,-4.3724 2.5409,4.50685 -0.081,5.21385 -5.2961,0.4587 -5.2578,-0.3486 0.4477,4.474 1.9843,4.3642 2.9469,-3.27885 4.7014,-0.84425 3.5134,3.4505 3.4094,3.21864 -0.7488,-7.61884 -0.3374,-5.5131 0.3457,-5.20143 -3.6086,-3.81513 4.0781,-2.43244 0.3836,-6.3152 -3.5808,1.85964 -3.5501,1.64026 -4.7884,-0.7443 0.9961,3.3273 -3.0597,2.4527 -2.9151,2.56 -4.0038,-0.6293 -3.678,0.6993 -3.6512,-2.45525 2.6181,-1.84435 3.7909,-0.3746 4.1533,-0.53734 -7.2251,-2.95916 3.3864,-1.3163 0.5162,-4.78 3.9171,0.9331 -0.063,4.2026 4.0088,-2.3434 3.7333,-2.50783 3.659,-0.37507 4.3833,-1.1569 1.1523,-4.1184 -3.8369,-0.4174 -3.9353,-0.543 -3.8251,1.24285 -1.587,3.71965 -3.4946,-2.3918 -0.7545,-3.91837 -3.2991,-5.26133 0.7064,-3.81203 4.294,1.30273 -0.6319,3.7777 3.8303,2.24604 2.4112,-4.1773 4.4419,2.45576 5.0319,1.1676 -0.034,-4.3624 0.2842,-4.7817 -4.663,2.59966 -3.7933,-2.55526 -4.064,0.76687 -4.5112,-2.31232 -4.422,0.26422 -0.287,-4.21362 -3.8292,-3.29735 -6.6248,1.9236 -2.2874,-4.7622 5.1186,-0.3064 -2.7837,-5.12766 5.4724,0.18396 3.9085,3.1122 0.8037,-6.47805 4.1287,0.64045 2.6933,-2.8828 2.9295,-3.73695 -5.0625,-1.87215 3.521,-3.50185 3.906,-3.0617 2.1755,4.19677 0.968,4.74328 1.4607,4.6701 -5.2518,1.17625 3.8988,4.25128 -0.072,5.47107 -4.9837,0.28473 -0.4459,-4.75708 -4.967,-0.51145 -1.8459,4.6349 2.49,3.192 2.2675,3.1252 3.2328,-0.343 3.3087,-1.1018 2.9818,3.0885 1.3581,-4.8864 2.0516,3.3694 2.2566,-1.671 -0.8477,-4.1535 -3.2379,-2.90337 3.3364,-1.71698 -1.1433,-3.96835 0.8284,-4.6249 -0.7782,-4.5657 0.087,-4.75005 -3.13,-2.72015 3.7674,-4.48624 -0.3859,-6.8739 0.7758,-6.12692 -4.0542,-0.19214 -4.4585,-3.86304 -3.9365,2.4903 -2.4592,-4.61258 4.195,-2.55888 -1.477,-4.3213 -2.4735,-4.15794 5.1013,-2.71261 1.9015,3.87311 3.5633,2.30471 -1.9088,4.11396 2.2257,4.16397 3.8456,-0.8736 -0.154,-5.25226 -0.2792,-5.9338 -3.5743,-2.77574 -2.2278,-4.27895 6.0432,0.76195 -2.1472,-4.2074 2.1928,-3.41744 -0.088,-4.75416 0.3569,-5.5915 -1.031,-4.49818 -5.3181,-0.4725 -0.2262,5.32251 3.3506,1.44617 -1.8941,4.15637 -0.4077,4.11078 -4.9199,-0.71158 -4.0821,-0.26004 -3.1125,3.57777 4.0355,1.60176 4.8697,-0.80816 -2.9325,4.77627 -4.286,1.41367 -3.3721,-1.94358 -2.2067,-3.18042 -2.905,-1.94424 3.4056,-3.13284 2.7853,-3.06049 -4.2055,-2.29172 -0.8038,-4.11045 0.2815,-5.14116 -0.8105,-4.43238 -1.8555,-3.97049 -3.6021,-2.80685 -4.5152,1.84051 -2.5901,3.03812 1.1424,4.03403 4.9577,-3.00202 0.7512,4.37928 3.2734,2.85522 -3.7221,2.00467 0.8833,3.29565 1.4673,3.77469 2.8043,2.44263 -6.7093,1.7489 3.5775,1.36588 1.78,5.02884 2.4837,3.25808 3.2992,3.41593 2.3171,8.89862 -2.0265,-4.18245 -5.4513,-3.32167 -3.1392,-3.95236 -1.6137,-5.42255 -2.6775,3.61448 1.1894,5.42345 -4.7981,-0.76855 1.5772,4.82736 -4.0837,-0.15846 1.2943,5.3462 -3.2253,-0.98788 -2.7196,-2.68382 0.2071,-4.11126 2.8087,-2.25654 -0.2012,-4.1449 3.6915,-1.2358 2.0942,-4.11422 -5.6155,-1.80521 3.7417,-1.94317 2.2623,-2.98645 -4.9574,-0.59058 -4.6692,0.33307 -1.6799,-4.26401 5.0378,-0.74939 5.0429,1.03852 4.0094,1.74624 -3.864,-5.3124 1.4709,-3.18726 -5.738,0.67209 -4.6645,0.34402 4.2825,-4.17328 -0.043,-3.77917 1.2479,-5.32477 2.3,-3.77253 4.3238,0.36634 3.9172,-3.54791 -6.0281,-1.85543 -2.2079,-5.28977 -5.4324,3.04782 -3.3035,-5.04255 4.1985,-1.8947 0.069,-5.09092 5.2688,-3.2489 -0.2428,5.41067 3.8732,2.39328 1.8413,5.37687 5.0166,-1.40198 1.6927,4.84015 -0.5268,6.89401 4.4046,-2.03928 1.1661,-8.2223 4.7368,2.70613 4.5224,1.60589 3.7054,-2.19252 -5.0179,-3.3083 -2.5858,-3.40375 -3.5934,-2.27789 -3.3005,-1.72974 -2.3836,3.69128 -4.6674,-1.32436 -2.1802,-3.7739 -1.6215,-3.97189 4.9623,-0.84435 2.6194,3.65892 4.385,-3.14267 4.7666,0.46265 2.5751,3.88016 4.2272,2.73156 2.0805,4.48734 4.2239,4.02386 -4.5039,6.12046 -0.5794,5.16782 -4.4514,-3.3298 -4.9336,-2.00337 2.1881,6.16464 -6.1378,1.44959 4.2471,3.49228 -3.192,3.90344 3.0016,3.38722 -2.6999,3.5098 3.662,3.61156 5.0742,1.80621 -0.8635,-3.57394 -1.3122,-3.2443 -0.1214,-4.56273 1.7778,-3.6697 3.1093,-2.55263 5.4176,2.61596 0.9653,-5.23327 -0.65,-4.82099 1.2582,-4.19274 -10e-4,-7.84668 -1.4154,-4.08072 2.0324,-4.5889 -4.4366,-0.19995 -4.0258,-2.61655 6.9591,-2.35647 -0.1009,-5.12906 0.6205,-4.68518 -4.4411,-0.57742 -2.8092,3.455 2.1744,4.54667 -5.6897,0.10893 -1.9283,-5.0979 -3.8244,3.99526 -5.9573,1.40826 1.2192,-4.82925 -5.0935,0.17495 -2.6276,4.03468 -4.7865,-0.001 -4.2494,-2.73953 1.0489,-3.80322 3.5087,-3.30429 1.6492,4.70837 3.9577,-4.08865 5.6347,-0.0562 4.8241,1.88739 4.4573,-2.34463 4.5285,-0.38669 -3.0019,-4.39853 4.7678,-1.81515 2.983,3.67199 4.3795,0.70594 -0.9079,-4.98938 -2.5173,-3.45252 3.4609,-3.21142 -3.6821,-2.40196 2.7423,-3.8883 -0.502,-5.17755 -5.2333,3.71729 -0.1908,-5.31882 -5.6732,-1.54126 -0.3672,5.12289 1.581,4.85665 -1.8979,3.70964 5.417,-1.8345 -0.085,4.60763 -3.9435,2.04776 -4.5742,2.23059 0.4245,-3.92627 -1.8935,-3.29971 -3.3811,-0.0114 0.3481,3.92504 -0.4753,3.40671 3.8087,4.44779 -4.5469,-0.92537 -3.9502,0.26835 -3.6268,-1.19495 -3.9301,0.5038 2.0557,-4.82322 5.1803,0.31226 1.0223,-4.20454 1.5489,-4.32766 -4.1186,-0.15802 -2.0614,3.93283 -4.686,-0.27255 -1.3243,4.18597 -5.145,-2.64081 1.435,4.36771 1.5249,3.6456 -1.4578,3.09586 -2.5092,2.38412 -0.9998,4.13178 -4.7635,0.60977 3.7352,3.88955 4.9486,1.76322 -3.9236,3.16928 -5.0923,4.33118 -1.9353,7.10089 -3.0978,3.31933 -0.5637,5.45978 -4.6964,-3.32563 -3.6224,4.9124 -6.2179,4.23806 -5.1599,-1.20822 -4.5361,2.5758 2.2658,6.02996 2.7859,-3.45906 3.7908,2.82843 5.9865,1.18333 4.6307,2.58043 3.6506,4.23795 -1.2238,5.83074 -4.004,-3.14215 -3.936,-2.84845 -3.4258,-3.30222 -4.771,1.2456 -4.9956,-0.70644 2.4913,5.74451 5.6947,-0.68197 4.4531,4.22494 4.4772,2.00473 3.4228,3.69943 -2.2625,4.8213 -4.4962,-4.51374 -0.6901,5.97914 -4.8984,2.0916 -2.9309,-3.80054 3.8232,-2.84772 -1.3815,-4.72274 -5.1478,-1.4793 0.7544,4.83205 -4.5693,1.50015 -3.6692,4.3468 -5.8589,-2.44293 -4.7178,3.48073 -2.5041,-8.4864 -3.4639,6.81988 -5.4985,0.0356 6.0071,6.11536 5.6556,3.10828 6.1827,-3.62583 0.8335,6.27011 2.189,5.42222 4.3575,2.6319 4.7193,2.2275 -2.0675,4.02862 -4.1129,-1.26825 -3.9428,-1.87445 -4.0862,-4.35415 -3.4986,-3.76607 -1.9982,6.22124 -5.1499,1.30249 1.3256,4.66699 -4.8197,1.74423 -4.783,0.85333 -4.876,0.32169 2.1736,-5.38095 -5.1036,-0.26422 -2.289,-4.51895 -5.2756,1.23272 -2.7408,-4.13134 0.3828,-4.38349 -7.2941,-1.74719 0.1842,-4.7186 4.7321,3.02457 4.4287,-2.97028 4.3918,0.75536 -0.9964,4.50435 -0.2901,4.5722 5.6763,-2.62588 1.7944,5.30213 5.0988,-4.64628 -0.1358,5.70782 3.0998,4.54593 1.8453,-6.24429 5.2532,-2.18042 -3.4169,-4.03433 -3.6266,-4.36813 -5.7296,2.13226 -4.0253,-2.57953 5.2654,-2.85923 -0.6456,-5.27676 -5.0701,-1.47974 -0.7413,4.78925 -5.2378,-1.12785 0.1456,-5.05965 -5.8751,-1.09095 0.5204,4.95515 -1.835,4.40353 -3.8722,-3.25964 0.01,-4.2092 -0.6285,-3.87192 -7.0179,-0.90225 2.5307,2.7095 -0.087,4.40283 0.5097,4.03495 -1.4831,3.78915 -0.7149,4.09964 -5.3643,4.85282 -0.8315,-4.89478 1.4966,-3.96911 1.1349,-4.04287 0.7832,-4.0013 -1.2262,-3.2073 -0.7251,-3.60693 -3.1861,-1.08287 1.8418,-11.17702 -0.4797,-4.80378 -5.0081,2.84595 -0.3193,-4.5007 -4.5341,0.87088 -3.5907,-3.5458 -4.6241,-2.51395 0.3694,-5.18616 -4.6242,-4.30812 -1.9344,5.7055 -5.7772,-3.11414 2.1283,-5.04871 -5.199,-2.20767 -2.887,8.19439 2.6649,3.51786 -5.8706,-5.51667 -3.4433,-2.19176 -3.5005,-1.91502 -4.8328,1.02079 -4.4173,0.19733 0.2555,4.59176 5.6048,4.15308 1.6162,-4.1475 5.4295,2.65754 -2.5149,4.50882 4.9933,0.7327 2.8582,3.53936 2.9305,-3.85944 4.7621,0.28763 2.5286,5.00105 -4.1853,-1.63993 -2.4725,2.89788 3.903,2.50873 5.1007,11.6651 5.3103,-0.39883 -4.5977,4.61523 2.6712,3.32807 4.3566,-3.88489 1.012,4.64224 4.5826,2.6382 1.0788,4.76784 3.6507,-5.30894 -0.408,-5.02276 -4.5461,0.0247 -2.4818,-5.43393 4.6313,0.57269 4.1811,0.59449 2.8401,4.09002 0.8451,4.63858 -2.1893,5.5488 -4.6381,4.12135 4.1441,2.73598 0.2901,5.08048 3.7503,4.13284 4.3032,-1.35584 2.1508,5.35529 -2.2528,4.90825 -3.5558,-3.3637 -3.9315,-2.72338 -3.7009,-1.39826 0.5088,-3.12966 -3.8962,-1.39695 1.356,-4.26489 -5.126,1.38211 -0.2655,5.67227 -3.4524,3.0372 -4.5318,-2.48538 -3.0897,4.26444 -2.0646,-3.4108 -3.8238,2.203 1.7037,3.57687 0.4257,4.7031 -3.298,2.90593 -4.1512,-0.0794 -4.1014,-0.74673 -0.5644,-4.43051 3.8611,-0.29446 3.9226,0.80835 -1.4321,-4.49723 -4.285,-1.00299 -5.009,2.28821 1.6272,-4.53027 4.3787,-3.26477 3.3169,1.9455 3.7684,-2.42936 4.8331,-1.63776 3.846,-2.39048 4.2256,2.29396 -0.7587,-5.89371 5.1346,-1.21201 -2.7934,-3.52417 1.1665,-4.08871 -5.2361,-1.2113 -1.3533,4.18544 -1.1795,3.92427 -3.4003,1.9656 -3.1495,2.65845 -4.6037,0.89248 -4.7479,-0.11987 0.2125,-4.815 3.4297,-3.18661 3.3502,2.88702 3.934,-3.52294 1.7849,-4.79612 -1.9947,-4.6774 -1.1556,-5.86426 -5.0992,-0.44369 -4.9187,-0.83438 -4.7551,-0.40387 -4.0968,0.2969 -1.9019,-2.62468 -2.371,4.74816 -1.0988,4.34964 -3.3006,2.97757 -3.1385,3.39178 4.6653,3.25693 -5.9147,1.6716 2.2186,3.70535 5.214,-0.087 1.6521,-8.85291 3.1863,-3.6738 0.3711,-4.77862 3.9046,2.00674 5.0006,-0.45087 5.3532,1.40348 1.9797,5.48575 -5.8561,0.68997 -3.9526,-2.44815 -4.583,2.64605 -2.3325,5.10431 5.8472,-1.0318 -0.6418,5.80787 1.0457,5.31775 -6.069,-4.56525 0.7251,4.61405 1.4115,3.40884 -0.9125,3.41873 -1.4546,3.62003 3.8374,3.7293 -0.1539,5.45578 -1.7629,4.87382 -4.9666,2.17623 -0.7323,-5.26253 2.9867,-5.10655 -5.0234,0.97019 -2.8446,-2.23902 4.9206,-3.37482 -3.0605,-1.93286 -3.5095,0.95502 -1.4594,-3.96319 3.9157,-2.31821 4.6587,0.53937 -0.5467,-5.53833 -3.5744,-1.52152 -3.96,0.0928 -1.6186,4.26238 -3.5315,-3.96453 1.8038,-3.48062 -3.944,-3.04325 -2.8745,-5.53726 4.9981,1.11554 0.3298,-4.31433 -4.4559,-1.93277 -4.1115,0.0138 7.2553,-3.23134 4.2258,1.32488 2.6981,-2.70788 2.0878,-2.87852 2.6839,-2.67245 0.4742,-2.88293 -4.1209,0.60446 -3.9287,0.099 -0.8229,4.45858 -4.6042,-0.0507 0.601,-5.28955 -4.9775,1.44003 -5.2572,-1.84826 5.6157,8.0759 -4.5337,1.07601 -2.0744,-4.60012 -6.4292,-4.78727 -7.8847,-22.65536 -5.7159,1.01285 -5.1788,6.58645 -0.3637,-4.8515 8.97,-7.8963 5.1853,-0.75156 -2.8135,-5.35314 4.7266,-0.82905 -2.8213,-6.84597 5.2603,1.52285 1.0094,-6.46653 -5.8693,-1.98006 4.3835,-5.03912 -7.6282,-0.98877 -6.2291,-0.70249 1.8333,-5.36256 7.0953,2.23805 5.2404,-1.40925 5.4733,8.15885 2.3595,4.20588 3.8556,7.44793 -1.4976,-3.87774 0.9222,-7.3497 -4.6691,-5.39649 -1.7766,-4.72397 -3.2038,-3.97426 -5.7677,1.34838 -2.9192,-4.93658 -2.6579,4.38326 -6.2844,-3.54968 -10.7267,3.47932 -1.5085,6.77733 -2.7071,-4.57479 3.0871,-7.44278 5.0847,-4.06598 -5.8772,-3.86208 -5.2202,-0.61006 -3.8094,-2.28207 -3.2527,4.53311 -2.0181,-3.39765 -3.0624,-1.88348 -2.6497,2.79375 -0.687,3.8657 0,4.61112 -10e-4,5.32272 6.0771,-3.36471 -1.5026,-5.7753 5.9322,4.01849 1.6228,-4.79342 4.7028,1.33816 -0.5508,5.0451 -2.7873,4.32234 -4.8527,1.3311 -6.9203,4.94062 5.2877,0.43143 4.7929,4.21838 1.7256,-4.92761 4.081,4.31775 -2.2749,4.00967 -0.9411,4.4411 -3.2493,-2.05096 -3.3119,-3.54456 -4.4941,-1.59237 -1.586,4.55242 -1.5604,4.7894 -0.5842,4.8422 -13.2669,-10.14594 0.9998,-8.07123 -2.4589,3.26676 -3.0422,3.79248 3.3994,6.12774 0.4354,5.73652 0.6215,5.71786 0.9822,5.22734 0.7377,4.17735 -4.6013,4.30295 3.9029,0.19757 3.5473,-1.50491 3.1753,-1.47196 -0.1345,-4.03128 -2.3762,-3.94039 4.8774,-0.78635 2.8495,-3.02888 3.4144,-2.8375 8.9827,14.90434 14.9448,5.95188 -4.3229,3.50323 -4.6409,2.05505 -4.7886,2.30893 -5.0559,3.47077 5.2966,-10.6448 -10.78,-3.47745 -6.8893,1.35145 -5.9801,1.77626 -5.1266,2.0683 -4.3231,-0.51946 -5.0214,-2.52043 3.127,-3.44947 -4.8434,-2.15914 -3.3609,-3.68103 -5.0329,-2.87518 -5.6928,-0.35117 4.759,5.65225 4.2799,4.13017 3.3718,4.9772 4.1942,4.43737 3.9358,3.55513 -10.913,19.1482 -11.8216,6.6298 -4.1304,3.52637 -4.9158,1.09343 1.7283,-5.07436 -5.1364,-1.56411 -4.7282,0.31973 3.5655,3.95959 -8.7674,10.22663 -10.4964,-1.0253 -3.8607,-10.52036 -7.5688,1.19016 1.4279,-5.75788 -6.6813,0.82346 -2.5609,5.0094 -4.9556,0.77254 -2.2631,-2.81688 4.7607,-5.42676 -5.882,-3.05456 0.3253,4.62 -5.4465,6.0258 -6.3062,-1.05282 -5.8077,-1.04971 -4.2658,-2.14792 -4.3241,-0.0507 -4.3745,-3.08416 5.0188,-1.88966 -3.5773,-4.04994 -1.706,-5.13185 8.4825,6.31882 3.773,2.60173 3.8661,3.0459 9.0075,1.04078 -4.1546,-1.24575 -4.2896,-5.11473 0.6654,-4.3229 1.2157,-3.65686 -7.2915,-1.51532 0.5264,5.17542 -5.7714,-0.94177 -0.591,-4.74147 -3.9891,-1.9381 -3.6262,0.1979 -1.9083,-3.1141 -3.5807,-1.15634 -3.4256,0.78848 1.1228,-4.56219 -3.2486,-4.48917 -1.3275,5.15494 0.161,5.03183 5.0796,2.80118 -2.5063,1.82907 -2.3467,3.28586 1.795,3.69186 2.7843,-3.16968 3.6098,-5.77768 0.4577,4.00324 1.2421,4.4287 1.1372,4.38853 -2.83,2.44477 -3.0108,-4.1836 -7.3373,-0.923 -2.0808,-5.4113 -0.1471,-3.5327 3.3842,-0.24155 -3.6203,-3.83695 -3.1289,3.19855 -3.2474,-0.10315 -0.258,-5.5496 -2.0295,-4.86126 7.6719,3.31176 -0.4925,-4.6903 2.1902,-4.44613 3.0426,-3.67154 -6.765,-1.11518 -3.3354,4.48508 -6.2588,1.11297 -3.9416,-5.99627 5.3669,-0.7301 -2.8141,-6.39663 -5.4463,-0.30983 -1.5724,-5.91125 4.7462,-2.55719 4.2987,3.69777 5.1692,2.29207 -0.8895,5.77583 4.8771,-1.2897 4.4931,2.84215 0.9116,-4.21061 1.2071,-4.4566 -5.0729,1.10873 -1.8445,-4.75589 4.7307,0.22422 3.1653,-3.38102 -0.4675,-5.80923 -3.8295,-5.83069 4.7943,-1.24609 0.022,-7.08717 -4.5838,1.01722 -3.9134,2.91336 -5.9125,2.79492 -4.1868,1.71018 7.8522,0.41675 3.2371,4.08217 1.6068,5.29814 -5.3391,-1.43158 -1.6515,5.36877 -3.7415,-3.46698 1.557,-5.82745 -5.7293,-0.721 -0.9771,4.40935 -6.1168,1.53265 -2.0972,-6.2633 4.4495,-0.45706 -3.1974,-5.6138 -0.2862,-6.61392 4.0459,2.97763 2.0551,4.36758 2.2388,-5.26803 3.2672,2.28576 4.4343,-2.27948 3.7298,-3.79364 -8.6575,0.30246 -5.8483,-0.95087 2.3488,-4.99673 -6.4745,0.53555 2.5441,-6.13265 1.6405,-5.57233 1.5185,-5.02137 2.4063,-4.38507 3.0441,-3.858 3.2746,-4.61033 6.0612,-10.68367 -0.3833,7.61007 2.116,4.66626 -4.6201,2.93289 -1.9508,5.20887 -3.8922,3.73288 -0.735,5.70187 -0.6024,6.10213 2.2394,6.8192 3.2346,-2.65192 3.9412,-2.67288 3.3841,4.6538 5.4123,-0.54232 -2.533,-5.19934 2.4187,-4.54624 -6.5178,-0.384 -5.9619,1.67355 2.3846,-6.7073 3.5088,-6.35288 4.1836,6.05463 1.3154,-5.54334 0.3541,-6.09512 -1.1901,-7.45132 0.3868,-5.73359 4.2936,2.28171 0.5233,-5.99109 4.6543,-1.28207 -2.3576,-8.22806 4.7957,-2.25775 5.3055,-0.93579 4.6452,-1.6687 4.9706,-3.39661 3.3986,3.60611 -4.3398,2.53946 -5.8539,4.78769 -4.6604,-0.35503 -3.6418,2.21325 3.0854,3.22921 3.5827,1.74402 4.4433,-1.35141 4.1986,0.27811 3.6374,-0.0639 4.863,-2.03985 6.26,-1.46781 5.8722,-2.99639 -9.6898,-0.91639 -4.5481,-8.49616 5.087,-0.0757 4.6089,-0.21753 3.825,0.67477 6.8166,-0.54349 5.9089,1.21097 5.841,-2.09192 5.3036,3.52634 -7.3886,0.97536 -7.2968,2.036 13.0018,15.1059 -4.1366,2.6012 3.061,3.62782 -3.5853,3.05826 -2.9082,-2.97101 -2.933,4.05097 2.6808,1.6575 -2.0899,3.72723 -1.7558,4.13861 4.1653,1.64682 -2.9599,4.89392 4.9049,0.13498 5.0227,2.3118 1.3614,-5.42636 2.9563,2.54816 -0.098,3.70056 4.0026,-1.39816 1.1092,-4.34992 -3.4454,-1.80371 -1.4096,-3.30899 -4.0981,-1.1821 -2.6661,5.00862 -1.8284,-4.90016 0.7639,-4.06586 3.8402,-2.17554 4.2649,3.28116 2.7694,-3.04205 -3.7451,-2.83453 0.6337,-4.93812 3.9681,2.90113 3.8338,3.10724 -1.3831,5.13843 -1.4824,3.95318 3.9331,1.4914 3.6816,1.1249 3.093,3.24707 -2.4237,3.9181 -2.8314,-3.29908 -3.6069,1.09803 1.9015,2.48172 2.1266,2.49212 -4.5236,0.42899 -0.1045,4.8295 2.4479,-2.67566 2.161,1.88503 3.0475,-2.22973 -0.1713,4.00681 -2.8027,2.16052 -3.6236,0.98733 -4.5796,0.25931 -0.7421,-3.4375 0.4495,-3.36279 0.4502,-2.98621 -5.1227,2.06461 -6.2027,-2.52701 -4.9958,1.26056 2.5372,4.7923 4.0747,-1.91394 4.85,2.99314 -0.918,4.3125 -2.9985,-2.9939 -2.4253,2.54043 -0.5163,3.09732 -0.1222,16.53465 -1.4287,6.54592 7.0539,-0.61387 3.5174,-4.44412 6.6605,-0.14135 2.8044,5.73492 -6.6082,1.26495 3.9483,4.73465 -4.867,2.28717 -4.5245,-3.27194 -4.7018,1.24313 -4.9061,-0.99923 0.2425,5.6644 5.3374,1.31277 4.3994,-0.5437 4.0087,2.5931 -3.0129,3.71223 -6.6346,-0.79807 -4.4906,-0.66971 0.8605,6.03882 5.0729,-0.74414 1.8242,4.49717 -4.3986,1.23577 3.0024,4.31009 3.8889,2.37131 2.2484,2.49747 0.4147,17.88604 8.333,-1.84618 -0.1201,-18.90394 -0.4913,-6.5943 -3.1268,-4.12652 -1.5827,5.6264 -5.508,1.11716 2.6775,-5.97763 1.6657,-4.53205 3.7874,-2.4613 0.058,-4.91129 6.5115,3.60212 -1.3672,-4.76155 0.4416,-4.9858 18.0201,-1.2737 12.9615,-3.31257 0.8158,-3.70838 -0.776,-3.68417 2.7229,-2.12 -2.2283,-2.96652 2.8111,-3.72896 2.2143,3.55574 4.108,-0.009 -0.2423,-3.86509 2.149,-4.28039 2.6142,-4.31149 4.5582,-1.98279 -0.9875,-5.81082 -1.0076,-6.14536 2.8809,-4.26645 -3.5341,-2.28616 -4.0721,-3.19504 0.2411,5.40237 -2.7715,4.11164 2.8257,4.27588 -2.3883,4.82611 -5.0026,-6.03095 -1.0231,5.80326 2.9004,5.19896 -0.4354,4.8843 -5.1583,-0.0205 -1.2815,-5.32455 -2.085,-5.91431 1.4385,-6.97156 7.7445,-5.48462 -4.5198,0.20008 -5.5394,-1.5958 2.9634,-4.68412 4.7698,-1.0888 3.488,2.36527 2.7518,-5.4111 -3.7305,-2.30454 -4.9677,0.0567 0.2383,-5.15118 -4.5711,1.23886 -0.2099,5.71259 -3.9843,-1.09595 -0.068,4.84265 -3.5262,2.17383 0.4352,4.26739 -4.1497,-0.87585 -0.9212,4.93997 1.7046,4.69743 -3.1381,0.83086 -2.6086,-2.31786 -3.7045,0.72176 -1.8374,3.81162 -2.507,-0.81635 1.3321,-2.56415 4.9077,-3.7316 0.2547,-4.84191 -5.5461,-6.13154 -5.3685,-3.82608 2.1036,-4.84315 -2.9446,-4.29933 0.2386,-4.98532 -0.1368,-5.91208 -4.8975,0.54321 0.078,6.52387 -4.28,-2.5456 -1.4913,-3.65939 5.9746,-14.17746 -4.5066,-4.42435 -4.4743,-2.08825 -0.7858,-5.14527 3.6363,-1.12671 4.4122,0.26792 4.3974,-1.51731 3.2635,1.44492 3.1626,-1.93079 4.8742,2.21854 0.076,5.86993 -5.5513,1.23567 -1.7733,4.01015 5.1252,0.0793 4.7681,-1.21697 2.8375,-3.2384 0.7738,-3.48714 4.7123,0.21354 3.7262,1.82485 -4.2211,2.67527 -2.4417,2.95291 6.1262,1.84977 10.8342,0.39943 5.8742,13.44547 -5.7199,1.48282 -4.0621,4.56265 4.2832,1.77313 3.3862,-2.41647 1.9316,6.64377 5.557,2.4373 5.2817,-2.27568 0.1627,-6.21134 -4.7839,3.03595 -4.0658,-2.55938 3.8457,-4.62925 6.3781,0.35633 6.0734,-2.36543 4.7789,0.0205 1.2953,3.6438 3.3859,-2.17426 3.6293,2.26984 -2.2757,3.82055 -4.9552,-0.4718 -2.5377,2.59185 -2.8361,-5.62655 -2.1027,3.34891 -1.2781,6.99851 -4.2202,3.07281 -3.7257,1.61969 -1.0697,3.92148 3.6656,0.31607 2.5294,2.5282 1.5024,-5.75824 3.3234,1.0564 1.4312,2.96344 -3.3931,0.55338 0.6215,5.1398 3.9314,5.1082 0.2562,-4.223 -1.9892,-3.40868 4.4174,0.11618 -0.7957,-3.66015 3.7376,1.27847 3.4343,-1.19312 -3.8066,-2.6424 -4.04,-1.30034 -2.9167,-2.72501 3.3125,-2.02597 3.6159,1.94324 1.8577,-5.14087 4.0423,2.88101 -1.8616,4.06699 5.35,-0.17505 -1.8371,3.4079 -0.5204,4.37942 4.6173,-2.05172 4.4609,2.89 3.8532,-3.1279 -3.8041,-1.84676 -2.8784,-2.8241 -2.1387,-5.29204 -2.7472,-4.1027 2.0358,-4.63358 3.6521,3.2027 1.4775,4.27098 0.4746,3.97655 3.9824,1.8601 3.5048,1.9744 -0.6158,6.38141 4.7649,0.3475 4.3306,0.12766 2.4831,4.76892 2.7451,-4.0492 3.0321,3.57383 -1.2106,4.27911 7.7111,4.74045 -2.6251,-4.4726 16.6206,-19.07883 5.7324,3.8203 4.9127,-0.74583 -3.8197,-5.22049 5.9353,-3.30704 1.4263,4.22589 1.9102,4.18747 2.5026,2.9906 -6.3818,2.15894 4.4597,3.1773 4.4522,-2.15731 0.3444,4.836 4.4149,1.74787 4.4236,2.03826 0.3061,-5.56426 -5.0175,-2.42268 3.9896,-3.20267 -5.1448,-2.90768 -2.8321,-3.91667 -2.3997,-4.40303 -1.5177,-4.52987 -4.1994,-1.95088 -4.2807,2.38318 -4.1654,-0.38205 -4.1582,4.2327 -0.61,-6.22815 -1.7264,-6.7394 5.4498,1.84734 5.021,0.76199 4.9744,-0.21209 -1.0211,-5.20434 -5.0528,-0.64002 -5.252,-1.56618 -5.1479,-0.83345 -4.8624,0.77987 -4.4283,-3.47942 -3.5967,2.91384 3.2676,3.35633 3.929,2.8919 2.8681,3.89173 0.6106,4.98645 -1.4956,4.43548 -19.4816,11.2974 -3.2506,-2.23661 -4.7043,0.51172 2.3537,-4.0289 -3.5035,-1.91312 -2.4105,-2.86068 -3.4852,0.42676 -0.9072,-3.88926 2.8171,-8.94454 5.7554,-1.44315 4.7228,-3.20745 1.6141,4.4964 4.3504,2.04375 4.8638,2.37869 5.9814,3.36463 -0.7798,-5.39774 -4.8381,-4.21661 -5.028,-2.2117 -1.5103,-4.59198 4.3432,0.49076 0.8186,-4.34486 3.358,-3.3117 4.7149,0.92456 -1.0443,-5.4293 5.7829,-1.9409 -3.012,-3.4175 1.4935,-4.35632 1.1195,-4.81094 1.885,-4.02364 1.3464,-4.79054 2.3702,-4.24911 2.2154,-4.60428 4.9857,5.61553 0.662,-4.4955 -0.2244,-4.50382 -4.3209,-2.86121 2.7565,-6.96475 2.1645,4.44562 5.8083,-1.60644 -1.4126,4.87762 0.3272,4.99554 4.3515,1.24866 0.1088,-4.68405 4.7764,0.55008 1.5839,4.32965 -3.7349,2.4873 2.0983,3.3287 2.7753,3.2963 1.9154,-5.20135 3.383,2.82065 3.2165,3.61203 -0.9991,3.80322 3.2878,3.49095 -5.3106,-0.6698 -2.7644,2.73094 -1.005,-4.95534 2.0929,-3.58772 -6.6793,1.91782 -3.7595,5.2262 -1.4068,-4.02018 1.7401,-5.00854 -2.9259,-3.96576 -4.0449,-1.96597 -1.1443,4.78311 2.9502,3.0924 -2.3856,4.65664 -3.8379,-3.70473 -3.2086,-5.56477 -2.2335,4.5977 1.169,5.0225 -4.3184,3.64333 -0.2228,5.71475 4.3274,3.33835 -3.7554,3.8526 -5.5148,0.9892 1.9584,4.80707 5.9448,-0.52628 4.2342,-3.72019 2.326,-4.92758 3.3906,2.42527 3.4616,-3.24048 -3.1682,-3.2269 -5.0028,-0.21027 -3.5966,-3.05167 4.3328,-2.13766 4.0053,0.3902 3.6851,0.73758 2.0725,3.78678 3.7188,-2.19657 2.2381,-4.8577 1.6111,4.97592 4.0516,1.69272 -0.3425,5.50385 3.6716,-1.85584 2.0526,4.53827 -3.6998,1.78515 -2.5168,4.63007 -1.8987,4.97898 -3.0847,-3.4744 -1.4888,-5.00668 4.2253,-1.17647 -3.8448,-2.80058 3.0102,-3.68906 -4.4696,-0.21436 -3.2519,4.37208 2.2081,6.15642 -3.777,-2.3231 -4.4528,0.37398 -3.9308,3.77957 5.2384,1.41919 4.0469,-1.10184 2.0518,3.5536 3.2334,3.2707 -4.24,1.5809 2.3516,3.95723 2.8456,3.76715 2.6296,4.8812 4.3417,2.84018 0.906,4.54999 4.7537,2.22247 0.7595,-6.08022 5.001,1.6627 -0.7691,-6.84304 3.2643,1.93284 2.2949,3.49514 2.4826,3.50512 -0.7912,4.21201 4.1219,-0.9281 4.8499,-0.87547 1.4433,-3.80876 2.7654,-2.7836 4.2066,0.48794 3.572,-2.52972 -1.6212,-6.09833 -2.6047,-3.89975 -4.4462,1.29832 2.4984,5.34658 -5.2473,2.07672 -4.3096,-1.244 0.715,6.52815 -3.3157,-2.31225 -2.1921,-4.0787 -4.1691,-4.26582 3.6677,0.035 4.0258,-0.89247 4.7152,0.51229 -3.3778,-4.81839 -1.3883,-4.72637 -4.6506,0.24274 0.8788,4.56493 -4.4958,0.68137 -1.0034,-3.5695 1.1536,-3.96257 -4.1825,1.01787 -3.3329,1.4399 -2.209,3.09914 4.8394,0.65711 1.3202,4.6979 -4.1458,-0.70859 -0.01,5.33244 -4.8518,-0.9146 0.2184,-5.53466 -4.2157,2.04782 -1.6352,-4.79556 4.0601,-2.36694 2.6276,-3.90369 0.6445,-4.43257 4.4176,1.94185 -1.0731,-4.40439 2.7758,-3.0477 2.4132,2.74216 0.6196,3.83978 6.5714,0.67075 -2.9246,-3.68613 3.5675,-2.75504 -5.1104,-2.51238 4.0619,-6.99555 0.1434,4.83221 6.3441,2.79322 -1.7216,4.65192 1.3767,4.40112 5.0713,-0.35169 -2.4026,5.99837 4.5766,1.4489 1.2031,-3.85703 5.6342,4.1218 6.8186,1.4639 3.5497,-4.01844 -0.4542,-4.8168 6.8614,3.63294 -1.7986,-4.19101 2.5826,-5.28769 2.4096,4.08213 2.5188,2.12407 3.1897,0.14759 -0.8464,-5.06646 2.6816,-3.73228 4.3495,-0.61404 4.2328,-1.3834 4.3717,2.53382 -7.4391,4.2754 -3.8084,2.7862 -0.7549,4.96644 5.306,-1.49728 5.2783,-5.18516 0.099,5.63838 6.0223,0.25396 0.6414,-5.67712 -0.7226,-6.62595 4.7044,2.26323 3.0062,4.5693 2.2143,-5.61982 4.3171,3.83145 -1.0741,4.04567 2.5698,4.44222 0.1008,5.85908 -5.3392,1.6511 -0.901,-4.17052 0.6871,-4.54352 -5.0171,0.3497 -8.4591,4.22504 0.5078,5.07635 5.7347,-3.13959 3.4482,4.79029 -4.7313,2.27505 -6.1808,1.1562 3.6407,4.15987 4.9545,0.0945 -0.8162,4.8881 -4.2266,1.29985 -2.6703,-2.4351 -3.979,0.9355 -4.349,-0.0362 5.452,-4.78455 -4.5972,0.16004 -1.2365,-4.15362 -2.0091,-4.99732 5.7498,1.49665 -0.6377,-5.78465 -5.5866,-0.629 -5.2575,-1.29238 0.4409,8.18122 -1.132,-3.93168 -3.8492,-3.88574 1.6033,-3.83185 -6.2676,4.1547 2.7391,4.30003 -0.5718,9.20714 0.5318,-4.94924 -5.8569,-5.50294 -1.5005,4.46554 0.1853,4.57502 2.7045,4.52514 -4.3659,0.52574 -1.5379,4.37353 5.0915,1.17557 4.7055,-3.46546 0.7201,4.40631 -2.3062,3.60562 -3.5624,1.77869 -3.937,-2.48426 -4.3514,-2.23693 -4.5057,-0.24903 1.6222,-5.33801 -6.4542,1.67294 0.3562,4.78133 -4.4083,-0.2044 3.304,4.08323 -3.0558,1.21469 -3.7006,-0.82815 -1.2287,-3.86792 -3.9131,2.37698 -4.4709,-1.6517 -0.4295,4.2239 -4.0052,3.08149 -0.542,-5.88816 2.6974,-6.46768 -4.0848,1.13342 -4.0932,4.3043 0.5946,5.1463 1.4563,4.31945 -3.3607,2.20045 -2.3993,14.36822 4.9578,-0.34525 3.1002,-12.24967 4.1549,2.96897 1.5961,-3.09353 -0.1857,-3.64454 3.567,-2.54403 3.7284,-1.28592 2.0923,4.64181 -3.6478,2.13431 -2.2508,4.5643 4.2965,1.90561 5.1471,2.4527 5.3853,-1.54602 -1.7262,-4.52336 -5.0212,0.4936 2.4249,-4.63293 -1.627,-4.14584 5.1493,-0.65491 0.8233,3.89108 3.2817,2.34052 0.025,4.00128 -3.6148,7.58118 4.5766,1.6582 4.1606,2.06009 -1.5166,4.71185 1.0232,4.06433 0.074,4.68881 -5.602,-3.05946 -0.6789,3.97752 2.0724,3.73703 4.5842,1.64655 4.2965,-3.701 2.8056,3.52894 -1.099,5.3093 -4.2634,-0.70914 -5.4425,0.30936 -5.7231,-1.87088 -1.8868,-5.54038 -4.5387,4.40616 -1.9838,-5.20816 5.3207,-4.31467 -4.7684,-1.00995 -4.0158,-1.60022 -3.8718,-1.31166 -3.227,-2.71858 -3.8475,-1.89865 -4.8281,0.20175 -5.5193,-0.10245 -4.2821,-1.3048 -3.1981,4.02793 -4.5284,2.39223 4.6386,3.27344 -1.8978,3.64859 -2.8938,-2.45356 -0.7473,4.67603 -3.0339,1.42897 -0.3483,-5.96922 -4.1122,3.35919 -5.5604,0.32053 7.2683,4.6187 3.3793,3.87623 4.4504,-3.15646 2.094,-2.84842 3.325,-2.40165 0.95,4.25904 5.4516,-0.91248 5.2653,2.68418 -3.7008,-7.86386 -4.6342,-0.17154 -1.4486,-5.56824 3.9354,0.53302 3.716,-1.12698 4.3033,0.68594 4.1349,0.46545 -5.9964,6.06559 4.3497,-0.0154 4.5563,-2.79425 4.5155,0.98508 -4.188,4.41808 5.042,2.48569 7.7121,5.6264 6.8247,1.7016 -3.0545,3.85898 3.5748,4.21588 5.3371,2.3808 -0.035,-4.26898 -1.2353,-4.48665 4.8034,-0.26784 4.4981,1.54352 -2.5568,3.7533 -0.7003,4.0777 3.8268,2.45065 -0.055,4.99527 0.9425,4.93548 5.0773,-0.66728 4.0852,2.2351 4.7487,2.26666 4.8062,0.56747 5.0647,2.5892 0.3626,-4.33618 -9.8566,-4.49795 -3.6654,-3.27106 -0.1534,-5.61478 -5.5486,4.15524 -0.7512,-5.0376 -3.3124,-3.8221 4.5548,-1.96164 3.7892,2.12509 7.1814,7.02618 3.0515,4.00842 4.0139,2.00873 4.7346,2.31177 3.0265,-2.94485 4.3948,3.046 -5.0066,5.91945 5.3847,2.69949 4.2781,-3.57266 1.8387,-4.76523 -1.7285,-4.6828 -4.7959,-1.18731 0.4856,-4.85599 -5.7621,1.58895 -5.6015,1.0238 -3.0938,-3.66997 -5.4009,-2.49878 -2.3447,-4.00791 -3.9229,-2.81186 1.3508,-5.94788 -3.6643,-1.6975 -0.7715,5.06253 -3.5688,2.30835 -2.5227,-2.90878 2.4863,-3.50184 0.8657,-7.12186 4.2859,-3.8534 0.6718,5.3501 4.1432,1.1733 0.4653,-4.4567 4.7822,0.15823 4.546,0.9176 0.8603,4.73425 1.79,3.43382 -1.5925,4.60903 -4.4103,-2.54565 0.8726,-6.55252 -3.4599,-0.23862 -1.9184,4.1019 0.093,4.73834 3.8069,3.12039 3.7479,2.88269 4.3445,2.50454 5.0302,0.41963 2.9846,-4.02301 -4.1022,-2.03132 -1.173,-5.87304 4.3128,1.12794 3.7464,1.6176 4.5657,0.42087 -2.5243,3.79863 -0.4673,4.6333 1.5293,4.69273 3.6646,2.07277 3.4181,1.81453 3.635,1.09635 -0.9107,5.51107 -3.5639,-2.03717 -0.9148,5.42829 3.2986,4.3388 5.1438,1.93158 3.6711,-3.65845 -0.015,-4.9851 -3.5301,-2.38983 1.3823,-3.72431 1.5731,-3.1744 0.082,-3.67416 -4.3159,1.72805 -4.2369,-0.60745 5.8438,-5.26718 -4.4263,0.69128 -5.081,2.04355 -1.5082,-3.80347 2.0549,-5.26324 2.7887,3.58783 2.4416,-3.77857 3.8555,1.2241 4.2043,1.54644 4.0117,-2.91397 5.8717,0.12588 -1.4557,-6.73843 -4.5123,1.61041 -5.2487,1.66193 0.5194,-5.44026 4.0347,-1.99773 1.5395,-3.50687 -3.1938,-3.09936 -3.4827,3.06912 -4.8832,-0.65112 0.9277,4.8237 -0,4.82436 -4.3266,1.78465 -3.7333,-1.25415 3.3253,-3.5289 -1.4858,-3.78034 0.8972,-3.6936 -6.3671,2.75644 1.3969,4.17306 -2.4606,3.80564 -3.3536,-3.58347 -5.5129,0.0656 -4.5157,-2.24047 2.2877,-4.11014 3.6947,-4.09204 0.8103,6.11963 3.4273,-2.79529 3.8299,-2.52924 -2.3288,-3.70727 5.8431,-0.96985 0.579,4.66162 4.9898,-2.20239 4.6919,0.25543 3.9115,-1.94379 -9.0196,-3.31164 -1.1138,-5.50687 4.6246,0.60934 3.1742,3.54905 5.5196,1.40495 2.1836,4.5139 2.7024,3.86307 0.7735,4.75998 3.9291,1.63269 2.3291,8.12126 -0.2197,-4.38268 3.5238,-5.78689 3.1233,4.28997 3.4465,-5.38778 5.7529,-7.17132 -2.0145,-4.02592 -3.2363,-1.93985 -0.7209,6.74149 -5.8129,1.66293 -5.172,3.24115 -1.05,-3.83554 3.7038,-4.18622 4.5842,-1.13044 -3.3774,-4.1338 -3.9278,-0.82062 -0.9402,4.43395 -2.8718,3.27134 -1.485,-3.96415 0.6073,-4.39855 -3.9872,0.7004 -3.814,-2.65142 0.1473,-5.59 -5.1007,2.11432 -5.6791,-1.20764 3.5206,-4.01126 -4.3602,-2.96521 -4.217,-1.99886 -3.5221,-2.27885 -4.3826,-1.50795 -1.7818,-3.94158 0.5429,-3.65716 -3.6434,2.10037 -2.9677,-2.30991 -3.2168,0.63336 -3.972,0.22474 -3.3804,3.49658 5.417,0.6696 -1.7279,4.5303 5.3322,-1.47056 1.296,-3.78184 3.9056,2.83195 -2.2754,4.03579 3.7873,1.07688 -2.7585,3.98208 -5.3632,1.48627 -0.077,-4.7969 -5.7749,2.32143 1.5972,6.29182 -4.9619,-1.00449 -4.1264,4.42041 5.091,2.31638 5.99,-0.14812 2.9721,-4.01842 4.229,-1.62222 4.4452,-0.44699 3.8677,4.03463 0.8408,-5.14053 -3.4281,-3.49249 1.1071,-4.69492 2.6549,2.49034 3.193,1.6134 1.8824,2.81722 -1.3186,3.90845 0.594,3.74043 -1.4431,3.8001 -5.0126,-0.1349 -3.4637,3.1653 -0.8822,-6.40812 -4.8927,1.06858 1.4098,4.83032 -4.8201,0.8042 2.4226,4.06502 -3.5277,2.6502 -5.1153,-1.26027 1.202,-3.70733 0.8661,-4.14698 -6.1897,1.84928 -1.0924,5.42682 -4.1951,-2.66614 0.5511,-5.93454 -3.9608,2.3096 -4.7182,1.14612 2.8625,3.24899 -3.1255,3.59567 -4.6231,-2.40066 -2.2681,-5.51446 3.9283,-0.3821 -2.2218,-4.91374 4.5539,-1.16108 2.869,2.94498 2.854,-3.71463 0.2386,-4.63433 4.6254,-1.27326 2.2169,-4.91919 3.2011,-4.1023 -3.3531,-3.34729 -4.8914,3.25974 -1.726,4.7865 -5.6725,-3.4196 0.021,4.2843 0.8996,4.4127 -3.9548,1.89765 -4.955,0.49539 -4.2083,-2.12418 2.5537,-5.38418 4.2946,2.44592 0.2745,-5.86893 -3.2226,-3.27591 -3.2458,1.87451 -2.4664,-3.56469 -1.5972,-4.62308 3.5383,0.0547 2.8057,1.32708 3.2749,0.69828 3.1235,2.27558 4.6963,1.12722 2.9077,-3.17642 4.4082,-0.0256 -0.9416,-4.59566 4.915,0.33144 -3.2873,-5.19034 -0.5852,-4.81036 -0.01,-5.12406 4.9476,-0.70382 0.4427,4.5993 0.1245,4.98721 2.4256,4.30063 4.3907,-1.60235 4.521,-0.24317 3.9858,2.00934 3.2955,-1.54657 4.3258,2.18952 1.0129,-3.53632 1.3036,-4.36908 3.9223,-2.699 -4.1589,-3.57529 4.6324,-3.51065 3.0768,3.8356 2.115,4.58182 -2.4077,3.80459 -3.8768,2.84751 -0.8392,5.13449 -5.1473,1.88434 2.7511,2.33654 4.4171,1.61448 4.9144,1.24252 -1.7088,-5.30164 1.2722,-5.04778 4.459,3.72344 4.5979,4.15716 2.8198,3.5321 -6.7644,-1.35308 0.011,4.51145 3.4523,2.03616 3.6792,0.0175 2.902,7.73257 4.2577,1.62601 -1.6975,-5.14573 -2.4908,-2.36425 0.5022,-5.2291 3.7628,-3.1733 4.5365,-0.58912 -4.5357,5.11827 1.5923,3.42934 0.634,3.95352 1.373,3.80359 3.2629,-1.64953 2.832,2.06518 1.4947,3.88162 3.2848,-2.26068 3.9638,-1.06834 3.9922,-0.0859 0.6853,-4.45249 1.4923,-4.15558 -3.2254,-4.31988 -3.2777,3.76068 -0.276,4.14288 -3.5553,2.28577 -2.3763,-3.29477 2.8544,-7.54944 -4.1573,3.15238 -4.0504,3.33126 -1.4465,-5.02353 4.3908,-3.7398 4.4173,-3.84867 4.613,1.89646 5.2742,0.34122 -1.8767,-4.58784 -2.6265,-2.8427 -4.0744,0.54846 -1.0734,-4.12348 -0.6745,-3.78678 0.9231,-3.6599 2.8413,-3.33204 1.3941,4.77824 -0.1814,5.0765 3.6427,-2.16116 1.4928,-4.69704 4.2573,-3.1022 1.9465,5.09687 -3.6477,2.64983 -1.7548,4.7556 2.1851,5.00717 2.8234,3.64258 4.7316,-1.11365 3.7257,-2.46133 -5.4476,-1.14145 -2.9706,-2.2485 0.4105,-3.70679 4.2176,-1.63973 0.2295,-5.11143 3.9058,0.60143 1.4564,4.54164 -3.8514,4.34631 5.0782,-0.14069 3.1343,2.75564 4.4487,2.04813 4.1698,0.81055 -2.6856,-5.87955 -4.4612,-3.52298 5.8325,-2.7153 3.1072,-5.49195 -2.7558,-5.26275 -7.1282,0.12189 3.2364,5.49346 -5.1257,1.72465 -4.2876,-6.89255 -4.4268,3.20044 -3.1365,-4.375 1.2718,-5.21191 8.7605,0.3081 -4.0248,-4.15053 -4.9601,-3.20817 -5.8298,-0.72055 -0.9302,5.57535 -0.668,5.66167 -2.107,5.0698 -4.4433,-2.8634 -0.311,-4.48508 1.8527,-4.52826 -0.5392,-4.79898 1.8611,-3.92041 3.4715,-1.99227 4.7273,1.0318 3.398,-2.96253 4.5117,-2.04114 -0.5067,6.76312 4.9377,3.96509 5.0009,1.20718 0.507,4.34168 1.9642,3.6835 5.5139,-2.26974 -2.5802,-5.3646 5.9882,1.39184 3.6231,4.72624 -3.6953,4.54653 3.1135,5.47208 -0.6612,5.11212 7.1641,1.58731 0.1242,-6.12548 -3.4406,-5.04078 3.7121,-2.90852 0.095,-6.03975 -4.5998,-1.43829 -2.8382,-3.88358 0.076,-3.85788 3.5523,-2.00888 1.3027,5.35498 3.4966,-0.48102 -0.3813,-5.16986 -2.1631,-4.29928 3.0952,-1.55264 -2.927,-3.6113 -3.7288,4.5289 -3.6008,-1.4122 -4.0096,-1.71506 2.7043,6.93872 -2.4532,5.69344 -4.679,-2.0733 -4.6801,0.8218 -4.4361,-2.9459 5.2092,-3.146 6.1018,0.46862 -2.4441,-5.55566 -4.2738,-1.68542 -4.2918,3.73388 -8.4275,-2.64386 -0.4638,-5.00754 -0.5682,-4.22195 5.6013,1.30481 -0.3134,6.42922 4.3664,-2.11165 1.7639,-4.73447 5.5785,1.99132 4.3832,-5.17415 1.9376,5.79005 5.1446,2.38372 6.9998,-8.5087 -5.1503,-4.09382 1.745,-3.17934 -4.7025,-0.52622 -3.7742,1.36486 -7.6739,0.4281 -1.1421,5.00038 -5.6371,-0.55978 -4.7577,-0.56278 -1.9862,-5.77768 5.7204,0.77881 3.4543,-4.18198 -5.658,-2.70071 -1.9959,-5.1225 -4.1769,-2.23096 -6.0728,-0.61935 2.4383,-4.1316 4.1754,-1.35971 4.6857,0.91468 -0.7608,-5.34598 -4.3158,-1.29422 -3.0665,-3.29402 -3.1067,-2.35198 0.1841,-3.99962 -2.9879,-3.24015 3.7287,-1.49829 0.4208,-5.07172 -4.6333,0.84312 -3.0448,3.38372 -3.5251,4.10472 4.1073,1.93648 0.4129,4.26032 2.4033,4.11672 4.4709,2.5498 -3.3654,3.57245 -4.1757,-1.25201 -2.7254,-3.60098 -2.4098,-4.36098 -2.5286,-4.5552 -3.8912,3.0747 -6.2675,-4.00078 0.9555,4.99542 3.6827,4.33722 0.7495,5.45237 -1.9085,4.87947 5.1684,0.28465 1.2926,-8.43323 3.3167,5.08191 5.4875,2.19937 0.1675,5.12317 -5.196,-1.63934 -3.3816,3.89715 -4.6067,-0.99173 0.8629,5.52905 -3.0377,3.28178 8.3628,-2.2486 2.8855,-3.77911 3.6899,2.06183 4.6597,-1.9337 3.047,-3.2743 3.239,4.58138 -1.9369,6.21862 -4.8279,-2.3812 0.4442,5.08808 6.8339,2.24939 -4.7271,2.33953 -1.1124,4.6553 -3.5007,4.86922 5.1037,-0.1926 1.932,4.53418 -4.2558,1.33255 -4.9887,0.30408 -4.8273,-0.40203 -4.295,2.35445 5.3356,2.47217 -3.6061,2.48776 -0.8767,4.01272 2.0143,4.01078 -2.739,4.51437 0.7756,4.76389 -0.3196,4.5643 -4.5703,-0.6517 -0.4388,-4.78196 -3.9849,4.81916 -4.3264,3.46884 -0.073,-5.38052 -4.963,-2.21046 -5.1796,2.3041 4.9324,2.3731 -1.1708,4.7159 0.8881,4.9721 4.5069,-1.5788 4.5756,-0.30403 2.7549,-3.14374 4.5281,-0.64035 -1.2027,4.22802 1.7714,3.30366 0.4742,3.9555 -2.831,3.00888 -5.7692,-0.62372 3.6675,-5.24417 -4.4829,0.28348 -4.6082,1.4158 -0.3474,5.58142 -4.6045,-3.51388 -2.8503,-4.35324 -3.3545,-3.3732 1.7297,-5.159 -3.008,-3.76683 -2.6918,-4.08336 2.7842,-3.10177 4.7823,-0.0865 -2.3452,-4.4716 -4.0804,-1.39308 3.1825,-4.35394 -3.8588,-3.4284 2.2883,-5.79935 -5.4524,-0.77451 0.3075,-4.76715 3.7036,-0.86615 4.6066,2.03211 1.6309,-4.80249 4.6473,-1.41236 -1.3192,5.11164 -1.4039,5.40661 -2.6744,4.57817 5.8134,0.38463 5.4634,4.43617 -0.2702,-4.33982 -1.842,-3.43548 -1.23,-3.3453 1.0205,-4.17024 4.3742,3.07379 1.3658,4.80469 0.4025,5.01171 -1.4556,6.86219 -4.4848,1.10974 -1.7795,-4.38541 -4.1872,-1.62631 -1.297,3.69562 2.2319,2.70182 1.659,3.11184 4.5791,1.1329 4.1711,0.25156 3.5433,-3.33377 2.9588,-3.44538 -3.7144,-2.2326 2.4971,-3.82538 -0.3226,-3.86905 -0.8127,-4.21729 -0.643,-3.81273 2.5944,-3.37855 3.3311,3.34967 5.6179,-2.36777 -4.3247,-3.03075 2.0912,-4.47065 4.7338,1.78745 1.226,-5.32834 -2.5748,-6.13716 -3.3478,4.56758 -3.7317,-4.28812 -3.1267,3.65097 1.7942,4.68777 -3.568,3.40687 -4.224,4.17213 -4.4127,-2.2056 3.2661,-3.3705 2.6134,-3.7559 -1.232,-4.73543 -5.2887,-1.173 0.1482,4.57611 -2.0269,3.68632 -4.9577,-5.37193 1.6378,-3.64077 -7.9355,-1.19358 2.9561,-4.91846 3.1294,2.45744 2.9558,-4.55552 2.4475,4.0307 4.7891,0.45364 2.8486,-4.11834 -1.3024,-5.08365 -3.9503,3.61963 -4.6676,-3.71552 -4.1662,2.48779 -4.6774,0.95865 -4.2898,2.45719 -5.5962,-1.46772 -6.0122,-1.02855 2.338,-5.27055 5.6386,-1.259 3.7951,2.90423 4.7273,-1.24158 -3.1727,-4.40322 1.4117,-4.63294 -1.6632,-5.0231 6.3638,3.40526 -1.5026,-3.90312 -0.8855,-4.36258 -4.1272,-2.57132 0.7581,-5.34341 -2.0643,-3.41333 1.8,-3.56897 -1.3082,-4.71506 0.2733,-4.46887 -2.7423,-4.58982 4.0583,0.0936 3.5138,0.73936 0.5949,4.82108 -0.3535,4.5562 1.3532,4.42851 5.6454,-2.72424 -0.9653,-4.71442 3.238,-3.16539 3.5613,-1.68362 0.9918,6.57109 0.8958,6.03175 -6.4567,2.30063 -2.6529,4.75949 -4.0982,-3.23286 -1.0559,4.86399 4.4878,3.12314 -0.056,3.83484 1.0498,3.48474 2.2222,3.42658 -5.3257,2.95578 -1.5639,3.337 2.2675,3.43793 3.2529,-3.77759 4.5115,3.50559 -0.5786,-5.73319 4.5238,1.37067 -0.4529,-5.40817 -3.0238,-4.00798 -1.6971,-3.989 -0,-5.13877 4.64,-3.44813 6.5035,2.67143 5.7777,-3.24543 -5.3735,-2.90824 -0.6879,-6.22321 6.1381,2.14742 3.5608,3.17119 2.9059,-3.69527 3.6263,-4.04189 -1.7972,-3.81675 0.4096,-4.48421 4.2445,3.59846 1.0055,5.62386 -2.8037,3.46562 6.6575,2.01505 2.5068,2.45787 -3.2995,2.91792 0.5703,6.1814 3.2428,4.18375 4.8639,1.9689 2.6289,5.12233 6.2273,-1.5806 0.8505,-5.25044 5.2813,4.5271 -2.4244,5.09631 -4.9457,0.0831 -4.0354,1.72968 4.6048,2.9226 3.8641,1.72391 3.92,-3.90985 -2.0358,7.53892 1.5241,3.95998 2.3628,3.26514 4.0744,-0.87112 -2.6948,-3.43696 -0.9795,-3.66351 0.06,-4.01978 3.3475,0.95487 7.5255,-5.94872 -1.3293,-8.31065 -2.6226,-5.9733 -1.7165,-6.34442 -4.8146,-4.18231 9.1467,-2.39195 -0.046,-7.86922 -5.1306,4.5191 -5.3713,-2.25708 -3.5445,3.50922 -1.9011,4.25971 -2.0088,4.11267 -1.7117,5.88893 -3.7258,-2.11885 -0.9542,4.59027 1.5597,4.61261 -6.3367,-6.18439 -3.4802,-3.51907 2.229,-3.67099 3.1046,1.9342 4.0269,-2.42763 2.0699,-4.285 -3.9272,-1.72093 -3.6296,2.5439 0.023,-5.60413 -3.67,1.24039 -3.8645,-0.31931 0.6866,-4.95724 6.0789,-0.43849 5.3475,1.84759 4.8148,2.04321 2.2325,-5.00015 5.3825,-2.63189 5.6463,0.93824 2.3777,-4.85314 4.8133,1.80784 -0.2333,-6.01183 -5.0158,-1.74679 -6.2314,3.53055 1.866,-6.27749 0.5778,-5.78674 2.4411,-4.53007 2.5698,6.12217 4.1131,2.58216 -0.3076,-6.85283 -0.9082,-4.99675 -0.099,-5.20029 -3.2191,-4.80029 4.7037,-1.22406 -3.3371,-3.77465 -7.2016,0.44332 1.8801,5.20122 -2.9343,3.65977 4.7067,2.80644 -4.4683,2.29413 -3.0475,2.34873 0.2422,4.64921 -0.6411,5.31154 -4.945,-2.63777 1.0051,-5.58222 -2.813,-3.25099 -4.9453,0.21829 3.9072,-4.88885 5.9379,0.95412 -2.3549,-4.98347 4.7058,-1.85542 -5.0051,-4.11188 -5.1648,4.2618 -3.957,5.03143 -6.0211,2.62679 3.2794,2.73651 -0.1358,4.29906 -3.2479,3.39415 -3.1652,2.51619 1.3737,3.49212 -3.9204,4.66775 4.4027,-1.14103 5.9546,-0.90574 -1.124,-4.47301 2.8711,-3.75969 3.9001,-2.84856 0.2136,7.05963 0.073,6.00321 6.1249,-2.29321 -1.0145,6.20204 -5.9437,3.56689 -3.8805,-3.95271 -5.4293,-1.04828 1.6128,4.9855 -4.7213,-0.97229 -3.7279,-2.04305 -4.6095,-2.46424 1.3696,-3.58469 -1.3643,-3.313 4.2173,-0.28737 0.3754,-5.84878 3.7036,-4.45714 -5.2919,-0.90669 -3.6508,3.19381 1.2434,4.25606 -3.6204,2.05388 -0.244,4.63196 -1.5294,3.61572 -3.5845,-3.02429 1.4906,-4.06095 1.7567,-4.73065 0.8027,-4.84567 1.6006,-4.25409 -4.5995,-1.28758 1.2503,-4.9641 5.0439,-0.32557 2.6459,4.57441 5.1597,-0.38104 5.873,-5.02689 4.0554,-5.3555 -7.1326,0.85846 -4.2809,4.42342 -2.9453,-4.48152 -5.8973,0.0896 -4.9681,0.0587 -3.9498,0.98363 -3.6082,-1.71255 -2.9863,-2.52672 -2.9475,-3.65355 -3.5806,3.46643 3.2857,4.14804 5.5332,2.95604 -3.8383,1.63248 -3.7607,1.73327 -0.2087,4.79576 -4.6159,-0.81752 0.5727,4.33559 2.443,2.9384 3.3095,-1.89551 0.1877,5.19977 5.0136,-0.33949 -1.0312,-3.97075 -1.4516,-3.64969 0.3709,-3.58348 3.6658,-2.05724 4.8568,-2.38673 -0.811,4.13768 0.9933,4.12434 -4.4765,-0.84463 0.7898,4.90496 3.2969,0.7644 3.5227,-1.97991 -1.9121,5.72381 -2.1982,5.73113 -2.0419,-3.89906 -4.2686,1.17621 -3.6923,1.39076 5.231,3.41057 4.0243,3.92909 3.7453,0.48866 3.3178,2.50114 0.1805,4.06587 1.2459,4.62269 -5.2718,-0.72104 -1.8399,-4.79669 -5.52,1.89017 0.395,-6.25646 -3.8125,1.72037 -1.2537,-4.87048 -3.4534,-2.32706 -2.4339,4.71597 -4.251,3.6604 -2.4495,-3.85589 1.4057,-2.76628 3.2676,-1.72681 2.5264,-3.8205 -0.4207,-3.86806 -3.4271,-2.85564 -0.8939,5.4219 -2.6951,3.12664 -3.3957,3.31066 -3.089,-3.34876 -1.4622,4.53654 -5.4026,-0.51102 -0.1301,4.81788 -3.5182,2.31072 0.9423,4.25228 -1.328,3.78387 5.5917,-5.46152 -0.1322,5.06238 0.9251,4.2175 -4.1847,-0.24385 -4.9299,0.31542 -2.2218,-3.90429 1.3217,-4.19995 -0.1538,-5.85406 3.5225,-3.14602 -1.5884,-3.80397 -2.9544,-2.98964 2.204,-3.90411 2.0744,-4.72556 -4.8553,0.0405 -1.896,3.32638 -1.6605,3.23508 -0.075,4.8425 2.2988,3.41537 -3.5243,3.64725 2.941,3.24011 -2.3492,3.79978 -0.1506,3.62811 -2.466,3.09921 5.0267,0.36597 6.0154,3.41226 3.3986,1.27977 3.4441,-0.65282 0.9229,3.9863 -2.2242,3.54987 -4.521,-3.08802 -5.1638,-3.58518 -0.01,5.10166 3.3352,2.94414 -2.3899,4.06776 -3.8926,-2.63751 -4.7368,0.63159 -5.7598,0.2233 -5.3834,-0.53714 -5.2713,-1.84595 2.6064,-4.03905 -5.8732,-1.22654 -2.396,3.69299 1.3427,4.08145 3.072,2.9243 3.8996,1.90212 5.2751,1.05098 -4.9618,4.53307 5.5078,1.12725 1.2461,5.00583 -2.5755,4.24915 -2.103,4.5506 3.6519,3.2507 -4.0425,3.4059 -2.8753,4.7417 2.638,5.62776 3.8512,-4.67916 4.1908,4.6078 3.383,-5.19332 2.5872,-4.50821 -6.8825,0.58865 3.2382,-4.70572 2.2874,-4.39306 -5.8792,-0.35516 2.9898,-4.11603 0.1772,-4.53672 -0.4342,-5.09053 0.2573,-5.0017 4.658,9.00526 1.4253,-4.44663 -0.1155,-4.7427 5.1605,1.20563 4.719,-1.68522 0.9061,-4.24807 6.3312,-0.36463 -2.1653,3.82786 2.0721,5.68713 -4.0579,-1.46619 -1.2854,4.6557 -3.2119,-3.513 -3.2696,2.95334 -1.3393,4.77597 -3.9368,2.99685 2.7047,4.939 -0.5688,4.78287 6.6578,0.39017 7.5705,1.28454 1.0545,6.72415 4.0879,3.40531 2.5855,-4.39957 5.627,4.13193 -3.5571,1.96695 -3.5516,3.31009 -5.5541,-1.37778 -5.1349,-2.79019 -0.488,-6.41461 -4.9182,3.82049 -3.3279,-3.73083 -4.5716,5.89172 3.3335,2.8205 4.917,0.99258 4.9811,2.09686 1.2254,4.12002 -6.0249,-0.2688 -5.1929,-1.7932 -5.9254,-1.22598 -6.821,-1.10065 -5.348,2.13681 -4.2907,-3.07974 -4.9144,-0.59594 3.1153,-5.0988 -4.3917,-1.04123 -3.2056,1.51877 -4.1445,-0.1177 0.1497,-3.09781 2.1905,-1.78353 0.3252,-3.5877 3.6672,-2.08886 -0.088,4.68754 4.3619,-0.57905 3.1997,-3.86003 -4.0084,-2.38166 -4.2986,-3.06217 -3.7164,3.3569 -3.4931,3.87923 -1.3725,4.52467 -3.6145,1.89673 -2.336,3.0164 5.8487,0.50292 -1.7693,3.35614 4.3879,3.34036 2.1909,-4.50665 2.7564,3.35168 3.6145,3.6785 4.5684,1.73111 -9.4731,0.57172 -2.2267,4.92212 -5.9594,3.86145 -1.5697,4.44619 -5.7356,-3.414 -2.3044,-5.84427 4.7236,2.00953 1.4576,-4.73362 3.3708,2.82035 3.2046,-3.4267 -3.135,-3.159 -3.2412,-2.52496 -2.8423,-2.69391 -4.7163,-0.44571 1.381,4.68057 2.9064,2.65992 -8.3865,5.37582 1.8193,-4.79864 -1.7696,-4.99967 -4.841,1.29555 -1.0866,-5.23933 5.3361,-1.61109 3.5425,-3.89111 3.6225,2.13663 2.5636,-5.8838 4.3161,-1.39105 -3.4082,-4.99633 4.1431,0.60684 3.3514,-2.63786 2.5801,-3.3851 3.48,-3.06725 3.5098,-1.46405 3.0594,4.0684 4.2742,2.7533 0.8969,-5.11083 3.08,-4.49567 -4.5122,-1.97506 -2.6321,3.7283 -2.5055,-4.2117 -1.9828,-3.66101 4.6995,-1.67001 -3.8068,-4.10392 -3.3596,2.14304 -3.9159,-0.63694 1.9691,-3.93066 2.8234,-2.62942 -3.459,-3.49539 3.0744,-3.19565 1.988,-4.47918 -5.6675,1.34101 -4.1551,3.91779 -3.4027,3.86824 4.7563,1.14029 -0.8076,3.70501 -1.4879,3.63144 -3.8887,-3.13118 -3.6331,-3.53425 0.6493,-4.71067 -0.2351,-3.94688 0.9492,-3.72264 4.732,2.99522 2.967,-3.68135 -4.4868,-1.50869 1.0828,-3.50272 3.0527,-1.14977 2.0082,2.73975 3.2621,1.91478 3.8646,-0.98946 3.1947,-3.31843 1.3846,3.89203 1.6403,4.08783 4.6001,0.74643 -1.2274,-5.02875 2.203,-5.2767 1.943,3.4161 3.9467,-1.53033 -0.5318,4.46655 -2.9199,2.32478 1.5059,6.25939 5.8489,0.91455 5.3419,-1.10132 0.2547,-5.16109 -4.0696,0.68659 -4.2147,0.6607 1.8502,-5.14703 1.9055,-4.22227 -2.4388,-3.10035 -4.4716,-0.83151 1.0247,-4.18361 -3.1612,-0.88635 -2.2928,3.51329 -3.6614,-1.04186 0.05,5.77727 -2.944,-3.56939 -3.7353,0.9037 -2.5657,2.5657 -3.418,-0.12343 -2.5207,-2.83786 -2.9291,-1.19534 -2.8703,1.7283 -2.8707,0.17621 3.4818,-5.28375 4.919,-0.46437 2.0762,-3.60295 3.62,2.7193 -2.0105,4.11694 4.1801,-1.03999 3.5659,-2.47358 -3.7152,-3.83108 1.916,-3.34982 3.4391,3.60131 4.1682,2.40187 2.6899,-3.07356 3.2509,-0.52611 -6.3496,-1.28983 -3.3383,-1.98295 4.2166,-2.88737 3.0986,2.34414 0.9858,-4.07203 2.7161,-2.75078 4.0474,-0.5797 -0.9539,4.43154 -2.5642,2.91003 2.5341,3.2455 -1.4439,3.27361 1.9221,3.84213 3.7598,1.70802 -0.5304,-6.29672 -0.4788,-4.55956 1.5006,-3.28592 -0.1728,-4.0719 1.6323,-4.14914 0.5182,-4.19651 3.6613,-2.03177 3.328,2.66876 3.7159,-3.13434 -2.8843,-1.92512 0.887,-4.43613 5.0547,2.90126 -1.3107,6.11147 3.1992,0.85395 2.9026,-2.32748 0.288,-4.84514 4.5409,-0.88449 0.2161,5.71411 -1.3885,5.55956 -3.805,0.21916 -4.0536,0.48286 -2.4004,3.15653 0.1076,4.46722 4.8374,1.33919 -0.7825,-4.56235 4.2218,-0.31764 4.3568,1.17441 2.7236,-3.18141 -1.3328,-3.93201 3.1823,-2.61467 -1.1693,-4.35657 0.015,-4.87198 4.8619,0.0695 2.1715,-4.00091 -3.3976,-3.35766 -4.3297,2.25881 -5.2705,1.12345 -5.2012,1.29691 -4.5338,-0.42461 -3.6449,-2.23709 -2.5403,-3.43351 -4.135,-0.39217 0.982,3.62442 0.4967,3.69858 0.6942,3.83285 -4.492,1.13857 -1.1289,-5.33484 -1.1278,-4.89791 -4.9375,0.87621 1.4934,4.01969 -3.2623,4.34089 4.465,0.50177 -0.1731,4.68889 -0.9713,4.31981 -4.872,0.33476 -3.8886,2.64628 -3.7858,1.74938 -1.6807,3.22437 -3.5022,-0.005 -4.1841,-1.1696 0.3002,3.41243 -2.3671,2.97298 -4.3822,-0.30139 2.0022,-3.84885 0.8235,-4.19501 -1.985,-3.36928 3.2959,-1.72602 3.3709,3.53209 3.7907,-1.07871 4.0401,-1.95348 3.941,-2.70526 4.6347,-2.17955 -3.5772,-4.19426 -3.6631,2.51741 -3.1568,-3.47551 -5.3416,-3.54759 -4.2534,2.48827 4.3818,2.48964 1.4223,3.45218 3.3777,1.54609 -5.8482,1.22164 -4.67,-3.83252 -3.8349,-5.43122 -4.3043,-3.30348 2.5707,-4.39741 4.9557,2.69551 4.2284,-2.80504 4.0683,1.97684 3.591,2.72348 4.5277,1.55919 4.9955,-0.79351 -1.8078,-3.57832 -3.9443,-0.34766 -3.0431,-2.33836 -3.2742,-2.1199 -3.4327,-2.36907 -4.4764,1.34476 -4.1346,-0.68599 -4.8624,0.11235 -4.1367,-0.24385 -5.2412,0.77792 -4.2763,-0.11033 -4.7026,0.45239 -4.2351,2.18724 -4.4519,3.46764 -4.5469,4.48481 -4.9402,4.77161 3.8983,4.36507 5.1919,-1.89045 3.7831,-4.30868 3.0164,-5.35158 5.5724,1.64504 4.4152,2.76384 -4.8632,-7.65244 5.5993,1.46098 5.4806,-1.49586 -0.9288,5.77208 4.1037,3.50104 3.4789,3.05204 2.5285,3.6585 -2.3394,4.40129 1.5133,4.06325 -2.3295,4.3644 0.5408,5.48292 -4.3655,0.87538 -1.6301,4.19455 -3.649,-4.47375 3.3597,-3.97453 0.4036,-4.056 2.7649,-3.39913 0.697,-5.82149 -3.1013,-2.95462 -2.7614,-3.61551 -3.1194,2.8439 -4.3393,-1.25154 -4.2041,-3.07455 0.7729,6.35899 -4.8574,0.0343 2.2271,5.38838 2.2925,4.13148 3.7967,0.59946 -0.3533,-5.04861 3.5634,-2.73887 5.5108,0.76264 -1.9113,3.51848 -2.3971,2.92582 -1.0006,4.09938 -2.3532,3.59658 0.3825,4.19526 1.3791,3.50495 3.2577,-0.26139 1.7631,3.28837 -2.8434,2.73515 -3.9413,1.7117 -0.9079,-4.13541 -2.8494,-2.88211 -0.136,-3.96315 -2.3877,-2.73869 2.5865,-4.23789 -4.6596,0.25879 -0.8584,-4.5428 -3.8595,4.98232 -4.2388,-1.92342 3.4484,-3.98112 0.8474,-5.52334 -4.9368,0.9099 -2.9119,4.18817 -1.7672,5.17472 -4.1919,-5.31919 2.7091,-5.51298 -4.8602,-2.15517 -3.6738,6.0923 -2.9351,5.64742 -3.9996,4.48117 2.1517,4.79526 -5.0311,2.1665 3.5492,3.43292 1.2754,5.08957 2.9834,3.75809 5.9896,1.50253 3.3242,3.13854 4.7721,1.63618 4.5503,-0.96008 0.96,5.37628 5.4605,0.54623 2.7673,-4.21179 -4.288,-1.06503 -1.1989,-4.32997 -3.6213,-2.38021 -4.1722,1.8163 -3.6602,-2.02859 -2.7855,-2.91937 -3.8861,1.3856 -2.0989,-3.4533 -1.9312,-4.15984 3.7874,-1.62841 2.3146,3.53125 3.2426,-0.0689 -1.7772,-5.45278 -5.5138,-3.47787 3.1707,-5.28212 3.6611,4.19025 3.6487,3.59234 3.4675,-3.3104 4.0735,3.0501 3.491,-2.15434 2.2661,4.55358 -4.3989,2.2429 -4.7813,-1.41499 -4.1936,1.45105 -0.2157,4.34846 3.0006,1.86384 2.4765,-3.0759 3.4228,2.2738 3.4077,2.53744 0.1978,-4.87547 3.6848,-0.50355 1.1361,4.35395 -1.8926,4.903 4.3924,3.71425 1.6001,-4.79654 9.5327,-3.95495 -4.02,3.30502 -1.8135,5.59518 -0.4519,5.63001 -6.1135,-0.185 2.236,4.3913 2.722,5.15173 3.1412,-3.49057 2.5898,4.6908 4.2809,1.4025 -1.2157,4.87917 0.4583,5.22273 5.5824,-3.38017 -1.241,-4.36837 3.9858,0.0322 3.4229,0.59114 0.2382,4.27616 -3.3693,3.48876 -4.178,1.1348 -2.0027,4.25374 -4.8669,0.002 -4.8646,-0.38316 2.3548,-3.68518 -0.2927,-4.18576 -0.6514,-5.03812 -4.8752,-0.34543 -2.95,-2.56613 -1.0737,-3.63502 -3.1863,-2.90554 -4.6902,-0.50909 -1.6687,5.38846 -5.5251,0.69867 7.6144,4.15933 3.0372,-4.07916 2.4902,4.34813 2.3575,3.52003 4.6528,-0.28558 -1.0083,4.07315 -0.952,3.8566 -1.0723,4.24047 4.1461,1.00605 3.4773,2.21108 -1.3204,4.85746 -4.3141,-2.76138 -1.7106,4.49582 -3.9461,3.2077 -5.4316,-0.27454 -3.5326,4.19324 -1.3219,4.62997 -2.6297,3.53773 -3.6872,-1.05274 1.3477,-3.50681 -3.975,-1.76889 -0.9996,-3.552 5.682,1.32854 2.8199,-3.85063 2.2471,-4.21207 -5.8253,0.0902 1.3419,-4.09334 -3.5805,-3.72398 4.7938,-1.89066 6.6147,-5.29852 -1.9502,4.27393 -1.2566,5.1698 4.2942,1.92321 3.6873,2.99716 1.9912,-4.74102 -3.8872,-3.78949 3.2539,-2.82456 -0.056,-4.09463 -3.0741,-3.4455 -4.883,-0.24354 -3.7023,-3.09804 -4.892,-1.53793 -4.4995,1.29824 2.5793,4.85983 6.1523,1.39658 -3.4958,3.51648 -4.778,1.12474 -3.6009,-2.9293 -0.8249,-4.66147 -0.3759,-6.45648 4.3631,-2.97788 3.7574,-4.09314 5.8668,-0.39083 -2.8465,-4.79435 -4.9682,-1.2598 -4.9061,-1.6315 -2.8691,-4.24249 -6.5465,-1.65013 -3.7091,-8.78056 -0.4524,5.69031 -1.8799,6.51574 8.2093,1.96655 -5.6415,2.15131 -5.6413,4.13419 0.4726,6.5202 4.464,-1.20654 0.7187,-4.24533 4.7768,-0.74936 4.6109,-2.02756 4.4694,2.70582 -5.2314,3.7181 -4.6256,2.65115 -1.2401,5.19185 4.8827,-0.44032"
         id="path5"
         inkscape:connector-curvature="0" />
    </g>
  </g>
</svg>
