<?xml version="1.0" encoding="UTF-8" standalone="no"?>
<!-- Created for Inkscape (http://www.inkscape.org/) -->

<svg
   xmlns:dc="http://purl.org/dc/elements/1.1/"
   xmlns:cc="http://creativecommons.org/ns#"
   xmlns:rdf="http://www.w3.org/1999/02/22-rdf-syntax-ns#"
   xmlns:svg="http://www.w3.org/2000/svg"
   xmlns="http://www.w3.org/2000/svg"
   xmlns:sodipodi="http://sodipodi.sourceforge.net/DTD/sodipodi-0.dtd"
   xmlns:inkscape="http://www.inkscape.org/namespaces/inkscape"
   width="3200"
   height="800"
   id="svg2985"
   version="1.1"
   inkscape:version="0.48.1 r9760">
  <defs
     id="defs2987" />
  <sodipodi:namedview
     id="base"
     pagecolor="#ffffff"
     bordercolor="#666666"
     borderopacity="1.0"
     inkscape:pageopacity="0.0"
     inkscape:pageshadow="2"
     inkscape:zoom="0.35"
     inkscape:cx="1600"
     inkscape:cy="400"
     inkscape:document-units="px"
     inkscape:current-layer="layer1"
     showgrid="false"  />
  <metadata
     id="metadata2990">
    <rdf:RDF>
      <cc:Work
         rdf:about="">
        <dc:format>image/svg+xml</dc:format>
        <dc:type
           rdf:resource="http://purl.org/dc/dcmitype/StillImage" />
        <dc:title />
      </cc:Work>
    </rdf:RDF>
  </metadata>
  <g
     inkscape:label="Layer 1"
     inkscape:groupmode="layer"
     id="layer1"> 
     <g>
<path style="fill:none;stroke:black;stroke-width:2px;stroke-linejoin:round;stroke-linecap:round;" d="M 
1435.3645 679.6353
1436.0457 671.9005
1441.3663 674.2153
1442.3083 680.4215
1449.7684 681.22894
1447.907 676.26685
1453.8745 674.3046
1455.5446 679.80927
1493.3792 679.6453
1498.229 680.2981
1503.018 681.2061
1501.7855 675.6999
1507.838 674.509
1513.7314 672.70935
1513.5437 677.95276
1507.4431 679.83954
1511.7993 681.57245
1517.9226 681.156
1522.8843 680.41583
1526.2949 677.9381
1518.8523 675.40717
1522.9119 672.47864
1522.5299 665.9656
1517.6559 667.7986
1512.7137 665.842
1508.4921 667.8521
1503.6025 670.01776
1501.7644 665.2193
1497.2672 670.04236
1494.761 674.1924
1494.0746 665.8898
1455.5464 669.59656
1455.0692 664.13306
1451.0961 667.80896
1446.6482 670.52075
1448.0212 663.5293
1449.188 656.8391
1454.3873 659.4719
1454.7047 653.5369
1449.0702 649.4701
1444.336 652.6673
1440.4419 648.66455
1435.9207 650.9678
1439.5347 656.3165
1443.6805 660.11224
1441.2927 666.9517
1437.5336 663.1972
1431.6389 668.7227
1429.6011 663.88226
1433.2251 661.8887
1434.4458 657.0771
1431.6752 652.6376
1430.2014 648.19507
1427.2341 653.1058
1421.4513 647.0163
1415.128 645.4484
1419.8999 642.4471
1424.057 650.6551
1423.1433 656.54443
1429.441 657.1537
1426.6205 660.3215
1422.8762 662.9842
1425.4336 667.1964
1423.9854 672.01953
1429.7312 674.9998
1428.6837 680.4855
1425.7275 683.62036
1423.1893 678.75995
1384.6836 679.97205
1381.3461 681.7286
1378.3029 678.7944
1375.5996 681.7899
1371.7719 681.2108
1368.6593 680.3377
1365.0964 681.9202
1362.1492 680.26605
1366.3969 676.98285
1362.7928 675.2332
1362.6055 671.26715
1367.7634 671.07574
1370.1476 674.6865
1373.6808 677.0438
1377.7024 673.57587
1373.5245 670.7798
1374.2467 665.80164
1378.9274 667.6805
1382.7631 675.4517
1383.6981 670.09766
1382.8168 663.58563
1383.7262 657.82404
1376.5765 660.57574
1371.0264 661.39685
1372.5715 654.87885
1378.9031 655.4756
1384.1987 650.65936
1390.8401 645.749
1396.2112 646.0958
1394.5779 641.68896
1388.9733 631.6777
1390.0883 637.97424
1387.3435 643.3028
1380.1428 649.4816
1375.9739 649.67413
1371.6023 649.2375
1366.7665 649.1741
1367.6758 657.50836
1364.6426 653.60785
1358.5781 653.5276
1361.0354 658.38684
1358.3435 662.72644
1364.7028 662.2093
1369.1031 666.13806
1364.7268 667.181
1360.4705 667.0272
1356.213 667.8515
1358.0802 672.5915
1358.8188 677.6987
1357.3777 681.44617
1352.7238 681.2932
1353.0066 677.87177
1354.7357 675.1313
1352.401 672.2081
1352.226 668.1854
1352.8328 664.3484
1353.0885 660.64355
1354.706 657.3401
1352.8546 653.2353
1360.6099 648.89734
1353.7589 648.54144
1346.9348 645.2436
1341.2979 644.156
1336.8918 645.8696
1334.687 640.62933
1339.3402 638.70526
1344.1545 638.943
1348.9243 640.1615
1347.5435 635.2978
1349.8275 632.5613
1343.9766 632.80835
1340.4286 633.7824
1338.8369 629.8338
1334.5408 627.0719
1335.1094 631.4712
1336.3671 635.25916
1332.8375 635.64966
1331.5768 644.77136
1325.8707 646.108
1325.9983 641.5013
1324.8412 637.1439
1329.6564 637.5933
1330.1257 631.32184
1325.0712 632.572
1325.2871 627.99005
1324.853 623.31177
1325.3033 618.2811
1325.2687 613.7873
1330.561 613.5525
1332.5719 617.2896
1329.38 620.99713
1330.2059 625.9163
1334.3782 621.5485
1337.9583 622.9548
1337.589 616.47314
1336.7689 612.77313
1341.1145 618.26154
1342.83 622.14087
1339.7146 626.39307
1343.5483 627.25995
1346.7609 629.444
1349.4385 626.9882
1347.9009 622.8882
1347.7424 617.6367
1343.8363 613.5749
1351.4445 611.00635
1358.1932 609.2579
1363.2882 604.66113
1359.507 598.2989
1354.2533 603.3501
1353.082 595.89526
1356.6498 591.44543
1352.6171 587.31305
1357.547 584.92255
1353.0416 580.4181
1348.8722 574.9609
1348.8075 569.02625
1343.518 570.3651
1343.3578 575.3563
1338.052 573.2734
1332.3145 573.20074
1325.9248 574.5144
1326.2609 568.0178
1325.1217 560.6294
1325.5734 554.47015
1323.9668 544.7577
1327.2526 543.4744
1331.9119 542.31964
1337.7798 543.8309
1343.2612 543.56195
1341.4518 549.29443
1335.3081 550.19525
1332.0233 546.392
1326.9596 549.62634
1331.8029 555.94293
1337.5288 557.07245
1330.2234 562.56903
1334.6276 565.3538
1339.6744 565.2669
1343.1178 560.14154
1345.2731 565.3297
1348.8457 561.97815
1348.3185 556.29047
1342.8601 554.59454
1347.7936 551.16565
1347.8198 546.7644
1348.5802 542.6175
1353.0166 538.62915
1356.74 535.2665
1352.1681 532.9214
1355.999 530.6317
1352.5216 526.30597
1354.7028 521.7193
1353.6285 516.87646
1353.3513 511.4804
1351.6143 506.31903
1346.1167 503.07495
1340.7123 503.60257
1343.0479 498.29486
1337.7067 498.5408
1330.217 493.4305
1332.3496 497.92056
1334.5737 503.4049
1329.3317 502.64258
1325.1167 504.75125
1324.6366 500.86182
1325.5126 496.21475
1324.9755 489.4798
1326.506 482.59653
1330.6938 488.1555
1334.4282 484.71646
1340.1223 486.37595
1336.2151 491.9224
1341.2316 493.25494
1345.4846 486.46576
1349.0308 489.42377
1344.7784 490.681
1347.8507 494.94788
1349.0107 499.6697
1358.134 507.6283
1359.2905 512.63696
1360.475 517.8048
1362.0275 522.5266
1358.6093 526.92303
1364.6024 528.475
1362.4263 532.6283
1361.094 537.11615
1358.2858 539.8038
1365.0671 538.0006
1369.1163 538.2255
1373.3718 538.46765
1375.8691 534.2214
1374.4653 528.7119
1369.8256 532.0567
1367.7904 524.8391
1370.912 522.327
1376.851 524.6655
1381.1123 521.9593
1378.069 519.1008
1373.4658 518.89575
1370.0514 515.14716
1365.457 515.63055
1364.9965 508.64893
1371.5217 508.70102
1375.3618 513.96686
1379.5872 512.98157
1377.6771 508.06494
1383.4818 507.53738
1390.5693 501.88037
1392.2114 504.96527
1394.3643 501.99792
1397.2169 504.78442
1400.3984 503.1159
1402.8872 504.92807
1404.6489 500.3356
1401.6334 499.0346
1397.9113 501.1381
1396.6091 498.16382
1392.7784 496.2414
1391.3588 498.79605
1387.5382 497.39413
1387.5046 503.27078
1383.9363 511.8516
1383.3401 516.76526
1384.8251 521.8432
1382.8248 526.61365
1379.6045 530.949
1384.4464 531.0744
1382.6627 535.26306
1378.3909 538.8504
1383.883 539.19006
1388.3983 544.20404
1391.4406 548.3656
1395.1638 544.17596
1400.3737 543.05334
1400.5343 549.1654
1401.91 558.13666
1397.0485 553.4643
1389.3373 553.9925
1393.7732 560.8386
1398.5806 561.5158
1399.6143 566.62573
1404.32 567.595
1402.876 574.55176
1393.6719 574.29584
1396.2313 570.07825
1388.4984 561.1139
1389.2772 567.687
1388.2394 574.58997
1383.5237 578.99194
1379.0905 578.06195
1375.588 579.66766
1370.8978 579.5716
1367.1592 583.19916
1364.3411 578.26263
1358.0482 578.61523
1362.2461 583.8275
1362.0107 589.8881
1365.397 593.7605
1369.1888 587.8909
1376.4104 584.4932
1383.0089 583.81805
1384.6174 589.067
1380.1794 589.1588
1375.3114 589.8715
1371.6387 594.1078
1366.2418 599.21686
1371.4336 601.1975
1370.5739 606.7448
1365.7883 610.36774
1373.5704 610.93115
1376.5404 606.6557
1377.595 602.1434
1376.8055 596.80316
1382.5228 594.2754
1383.2673 599.4796
1383.062 604.9049
1379.7123 610.37054
1384.6743 610.3315
1389.4109 615.5882
1400.9423 613.31256
1395.3251 616.83264
1389.8312 623.9016
1396.9534 625.563
1395.5548 631.2884
1397.6597 636.6891
1400.0315 641.91266
1401.6779 646.455
1405.4196 643.438
1409.5026 645.69763
1411.4941 640.6569
1408.7946 636.2965
1403.9983 637.6568
1402.1802 630.97015
1407.0773 630.7713
1411.3889 627.8584
1411.6989 632.1894
1414.5549 635.47186
1417.0026 639.2162
1420.3738 635.567
1420.8468 629.73944
1416.626 630.95526
1414.8911 624.9869
1418.2554 626.04395
1421.1285 623.5466
1418.9246 620.2759
1414.8937 617.9006
1409.7488 618.63855
1411.3815 622.67926
1406.1951 624.6047
1401.0422 623.175
1401.7443 618.7564
1406.249 615.73413
1411.9587 613.3279
1419.418 614.88367
1506.7583 536.06177
1511.5326 538.10315
1518.1357 538.78973
1526.0093 539.1969
1525.5096 532.2149
1518.0865 533.29987
1521.8491 527.842
1525.5986 523.8869
1518.3369 521.1525
1512.464 523.6789
1516.4905 527.2625
1511.9625 530.9808
1507.368 528.88403
1506.9806 523.5616
1509.2394 519.26483
1512.4481 514.81555
1517.896 514.3872
1523.6394 512.8257
1524.9072 517.70746
1632.1628 502.53516
1637.3678 507.46957
1635.7117 511.46417
1636.9438 515.20264
1641.3745 514.76135
1643.2073 519.5016
1646.0781 518.0015
1648.0967 522.2232
1651.9839 520.29724
1651.5125 525.5373
1656.4489 524.5587
1656.3252 519.90656
1652.1597 516.0137
1648.754 516.0103
1645.4557 512.9823
1641.6929 509.5272
1645.6243 507.6296
1649.7532 511.37436
1650.2811 507.31366
1654.1409 508.38846
1656.7784 512.113
1654.1943 513.89484
1658.3704 516.8341
1662.299 516.8182
1661.6099 522.49097
1663.5183 528.0023
1658.7219 529.46387
1656.4854 534.92926
1654.4086 529.7063
1650.1423 530.181
1646.6567 533.40906
1652.015 534.03033
1653.6415 539.27905
1649.1184 538.0354
1644.095 539.1373
1641.8274 535.0052
1641.7986 529.9355
1646.802 528.1648
1644.5641 525.0228
1641.5662 522.58527
1638.8641 519.65063
1635.3391 519.4323
1635.6443 524.45215
1639.4119 525.50024
1636.2167 529.1813
1636.4106 533.94354
1636.9011 538.9673
1632.4099 545.93317
1632.3057 553.1144
1631.7675 559.3873
1631.1951 564.6615
1630.448 569.1063
1631.8778 572.9051
1627.9642 574.6151
1633.5537 577.4185
1638.7705 578.1687
1644.9584 577.98615
1648.9811 580.7253
1653.1954 578.0357
1654.0201 583.1446
1651.5046 586.2425
1649.3411 591.0178
1653.3923 594.2928
1656.2626 589.70447
1661.3043 587.00397
1658.5839 582.83295
1659.8455 578.1796
1665.6943 580.52814
1671.2112 575.21625
1675.7546 572.3823
1680.8132 575.5156
1681.1179 570.31177
1685.0354 567.8297
1688.5133 563.9534
1692.1732 562.5222
1690.1754 556.41455
1687.9917 550.2862
1683.5112 553.1831
1684.338 558.3472
1678.3499 555.89557
1679.0898 561.557
1683.686 563.16327
1676.6255 565.865
1671.252 568.2026
1670.9498 561.74976
1674.2639 558.79083
1671.7643 554.0671
1672.0524 548.57697
1678.1598 550.7695
1679.002 546.43427
1684.4691 546.7761
1691.7388 544.0838
1687.0874 542.93604
1680.2942 542.513
1672.898 543.4183
1666.2961 538.4907
1659.7397 539.0552
1661.985 534.1657
1667.0134 531.956
1667.0277 523.8063
1666.8478 517.6902
1665.6963 512.6302
1660.5171 511.82227
1658.3448 507.45264
1663.1235 507.78406
1667.814 507.9456
1671.2888 501.40665
1676.8771 503.07333
1675.1375 496.65405
1681.0603 497.8502
1684.5566 503.84183
1686.6978 499.09988
1690.9911 497.49823
1690.9191 491.58603
1693.7412 485.79596
1692.5437 479.72797
1688.6877 476.12518
1687.9353 481.09354
1687.5863 486.20544
1684.6821 491.35184
1679.23 492.3175
1671.0803 493.3325
1670.5247 486.3036
1674.9108 488.7117
1680.279 486.409
1683.355 481.48965
1677.6426 481.67807
1672.7223 482.02777
1671.2943 476.34106
1665.3787 468.85852
1658.3518 467.4086
1659.4207 461.33466
1658.9132 454.19568
1658.6936 445.93445
1658.0554 438.0324
1661.6301 440.7623
1666.116 437.398
1671.3344 428.8407
1671.7688 423.20404
1670.881 416.44864
1675.649 418.11917
1679.8877 414.08548
1686.4268 411.95657
1685.438 418.12918
1691.7734 418.70456
1689.1337 423.66058
1694.6611 424.18942
1695.7839 429.68787
1692.7968 433.24802
1688.1252 430.97653
1684.1113 426.29703
1680.9224 420.75204
1677.5154 424.50674
1677.8525 429.48822
1682.0521 432.9275
1673.5632 433.36414
1666.392 443.9377
1662.7384 449.36237
1667.3617 451.12766
1664.2853 455.95697
1666.1578 460.2624
1666.3704 464.8926
1675.0898 472.49115
1678.5808 477.21378
1682.2263 473.93228
1687.5944 472.09265
1695.2927 473.26233
1702.2177 474.49734
1697.7734 480.15308
1702.9369 483.75302
1698.7637 489.16986
1702.8757 494.39288
1696.9196 496.2366
1694.5297 502.998
1702.2498 502.49628
1707.911 507.75064
1705.9766 513.1096
1710.8525 511.85953
1711.0479 515.8487
1716.6301 513.9961
1714.0491 508.59848
1718.4749 506.8975
1719.5988 510.56683
1723.9485 508.41083
1728.386 507.84528
1733.5378 508.70352
1739.4128 506.6232
1746.6222 503.89835
1742.5051 501.04736
1741.1107 496.89682
1746.8116 495.84674
1749.1227 499.7107
1753.3932 503.31317
1752.9133 495.89883
1757.5482 499.01273
1760.2875 504.1059
1763.8793 501.2505
1768.0504 498.38654
1769.7185 503.39297
1779.5804 509.2722
1775.4885 505.9622
1773.5225 497.8362
1773.1128 490.8145
1768.2255 493.01102
1762.7264 495.35867
1758.131 492.0757
1762.8647 488.8825
1767.8333 486.37875
1773.8651 485.082
1771.0646 481.48828
1764.7007 481.5949
1767.1809 478.49466
1770.5024 476.25327
1774.5238 477.2881
1771.9724 472.0836
1765.7582 474.6911
1762.9116 471.9435
1759.8533 477.3374
1760.1652 483.07318
1755.8457 484.98438
1753.1261 490.11926
1748.1838 490.70267
1744.3171 488.7081
1743.1449 493.4688
1740.3722 490.15094
1742.3364 484.7455
1741.3024 479.19656
1746.662 480.89676
1749.8281 484.8805
1752.961 478.69885
1756.3264 472.98996
1749.9595 472.79724
1745.9763 475.88223
1742.0173 472.73413
1738.0891 467.76306
1738.5637 462.08405
1733.9629 461.27692
1738.358 457.09167
1739.1494 452.0117
1734.918 452.71277
1732.8787 456.45312
1729.4203 459.96353
1733.6003 466.15445
1730.5323 469.7159
1727.8887 466.76468
1725.7649 463.6865
1723.7876 460.14838
1725.4204 455.87247
1729.2837 452.91165
1724.9648 450.51984
1720.9878 448.3723
1716.657 448.00293
1714.7406 451.6087
1710.1554 451.3754
1711.5867 456.33905
1716.9443 456.16986
1720.71 453.46036
1719.2522 460.87555
1713.2644 461.55728
1721.5599 467.67148
1715.1365 467.35
1707.8835 467.52097
1706.9575 461.20163
1706.3566 455.2469
1705.9099 449.18875
1706.854 443.0119
1709.9225 446.75583
1712.9884 444.49265
1712.9424 438.05563
1707.0527 437.5652
1700.6077 433.38144
1703.8701 429.0862
1700.0096 426.8292
1701.2778 422.6171
1703.7036 418.55682
1703.0433 411.73257
1702.967 404.00845
1697.2577 401.92917
1697.5466 407.13162
1697.5875 412.1856
1698.1101 417.70416
1692.5188 414.14572
1691.4419 408.76828
1691.241 402.9039
1685.8485 403.85605
1680.1888 402.5883
1680.6948 408.37582
1673.7036 410.78052
1670.8892 405.7761
1674.4546 402.60455
1668.3605 395.8325
1664.6165 399.10333
1664.8522 395.40967
1660.7596 394.93826
1658.4429 398.03168
1653.9407 398.26047
1650.1755 396.353
1648.0476 399.03262
1644.8611 397.35754
1641.7046 396.8689
1638.102 398.66656
1635.2335 393.8917
1639.282 393.93747
1644.411 392.28354
1643.5616 387.785
1648.3184 388.70865
1649.365 392.57938
1652.4685 387.67676
1656.6656 387.97733
1654.6241 393.23865
1659.5951 391.00723
1665.1173 390.9415
1667.1614 386.81543
1661.6453 385.9691
1660.625 380.95013
1656.0953 382.89807
1651.2821 382.3716
1647.272 385.29794
1647.1902 381.93298
1646.2943 378.77618
1641.4827 375.34845
1641.2119 379.47607
1642.6953 383.09894
1639.4143 385.70004
1639.4061 390.3002
1635.4794 388.47974
1635.4724 383.65408
1636.7073 379.94214
1636.0986 375.39865
1636.6406 370.40134
1640.5116 366.04852
1642.5837 370.83112
1646.09 374.54437
1648.606 370.48843
1645.9679 366.08197
1651.5854 366.08466
1656.9562 366.16074
1662.1324 365.59103
1659.6343 370.7991
1654.1904 371.46228
1650.3098 375.49533
1653.2683 378.1618
1657.1443 376.40723
1661.719 376.464
1666.0819 381.7228
1667.1643 377.0174
1663.6553 373.11426
1666.704 372.16284
1668.3983 369.40826
1665.4355 367.42868
1670.2068 363.53705
1672.1316 359.21017
1672.5115 354.238
1672.9496 349.70154
1671.3547 345.0131
1677.5271 345.51755
1679.8661 351.20816
1678.1978 357.95102
1677.5686 362.95557
1684.7317 362.46255
1682.7975 356.3453
1688.6301 358.39984
1692.4658 362.581
1693.7058 355.7
1697.1946 359.49182
1700.7698 362.3534
1709.625 366.32483
1716.9796 365.35452
1716.8925 370.68234
1721.7972 371.17767
1725.1136 366.37732
1731.192 368.5502
1737.6509 372.3185
1732.7598 377.31528
1726.5896 375.2786
1724.5084 381.61517
1719.1909 377.57764
1715.8274 382.76974
1714.6099 388.46515
1720.7869 387.8052
1727.5515 386.2394
1732.804 384.83698
1738.2504 381.31442
1737.8936 390.27615
1740.236 399.34683
1747.4152 403.53152
1742.906 408.37018
1733.9426 397.4907
1732.2524 392.18616
1726.0999 391.20932
1727.9009 396.4562
1723.7357 398.70926
1720.9513 394.853
1715.6503 393.42282
1715.7908 398.24466
1709.5356 397.98514
1705.443 395.3041
1709.5433 392.4831
1708.5115 387.75357
1705.5648 384.1199
1710.0564 381.2883
1706.7694 376.90814
1706.7191 371.30002
1713.0442 375.49402
1712.2961 369.65234
1705.3458 364.13617
1702.189 355.84494
1702.331 349.11115
1695.0653 351.00873
1686.9531 353.1482
1688.7812 349.2274
1689.9594 344.90982
1683.8899 346.38248
1681.3181 341.7414
1677.822 338.2256
1674.2651 340.2529
1670.4879 338.95724
1671.6338 333.71878
1674.6488 330.0572
1678.3276 332.97964
1683.1508 330.5472
1683.1001 335.95642
1685.8507 340.36923
1690.095 339.66174
1689.0039 334.8943
1689.012 330.36908
1695.3683 331.1375
1694.167 337.19217
1694.6573 342.44928
1697.4364 345.9866
1702.8772 341.3154
1699.0586 337.2655
1702.2698 332.20227
1706.9001 326.4027
1712.7781 327.89325
1713.2467 323.4303
1718.6304 326.75797
1723.9613 327.05734
1728.7952 326.4321
1732.2413 327.78607
1731.4272 321.06638
1734.5796 323.73883
1736.1194 327.85535
1738.9272 325.4006
1739.2124 321.46353
1736.3105 319.42648
1737.2463 315.55267
1739.9202 314.5134
1736.6599 310.4069
1731.4806 311.6282
1733.778 315.6421
1729.731 317.13452
1726.7985 314.1166
1723.5376 317.63333
1726.3712 321.92413
1720.144 321.4595
1717.8005 314.95496
1714.4316 319.0
1707.4614 320.20633
1706.7301 314.58282
1712.2341 314.15106
1717.0526 308.3717
1712.0547 308.9328
1706.7056 308.75177
1706.2012 303.0667
1711.1022 303.70752
1715.5898 301.1928
1707.3079 298.69904
1708.5354 294.1516
1711.9197 296.97403
1717.2638 295.31418
1725.5123 295.3479
1721.6368 298.9175
1719.789 304.26355
1721.3547 312.12958
1724.8169 309.79416
1724.4357 304.918
1728.3922 300.76004
1729.0745 307.5903
1732.9695 304.9617
1738.7273 305.70154
1736.3458 300.48306
1732.2979 295.7238
1738.8176 295.22745
1745.3175 291.87753
1750.1638 290.89847
1742.0488 287.9816
1741.9167 281.7543
1741.9417 274.7686
1741.1626 268.34326
1741.0411 262.6258
1744.1729 260.60175
1745.6317 265.0669
1750.2161 266.6414
1749.7839 261.5662
1747.243 258.75955
1753.616 260.2659
1757.864 260.71436
1760.2461 265.5715
1758.2578 270.24194
1754.9125 266.0679
1752.8358 271.48157
1748.1761 272.43
1745.0823 269.82263
1746.0479 278.72012
1750.1097 276.62326
1754.4373 277.49567
1756.1371 274.08295
1759.8654 274.89453
1763.993 274.9188
1762.5067 278.25278
1758.3212 279.61508
1755.9307 282.9775
1751.5386 281.41437
1747.8566 285.1116
1753.747 287.09177
1754.6487 292.49368
1758.7227 291.13577
1762.8447 292.91626
1763.8098 288.85675
1758.6925 286.8208
1761.2589 284.40546
1762.5962 281.49506
1765.948 284.51263
1769.566 287.21008
1774.2996 283.50653
1770.718 281.57913
1766.6586 279.94965
1769.1188 276.59808
1774.0238 276.24826
1771.4819 272.12558
1766.8038 272.0847
1763.3113 269.54248
1762.6144 260.33823
1768.1187 260.03104
1765.9636 264.77963
1769.6528 267.26556
1774.2902 268.04596
1773.1289 261.7747
1777.0278 256.34036
1778.08 251.89462
1783.6019 255.69061
1784.1754 250.83684
1781.1814 245.69272
1776.9526 247.8283
1776.438 243.31348
1779.999 240.90852
1775.9316 238.75154
1779.179 236.92981
1776.4261 234.0591
1780.8455 233.08765
1780.3982 228.61774
1776.4327 229.4104
1776.8064 224.35223
1782.3966 224.772
1787.8745 224.83144
1789.6617 229.79732
1784.8751 230.03496
1783.303 237.71295
1786.2651 234.82822
1791.3047 236.00928
1788.7715 240.43109
1784.4713 242.2513
1786.8252 246.77637
1790.766 255.69984
1791.9843 250.8321
1791.8716 245.31572
1795.2543 241.69344
1797.5947 236.85268
1794.6012 231.77635
1794.2972 225.5229
1801.0084 224.92966
1799.9747 229.97115
1803.1194 234.50624
1808.6354 232.9972
1808.065 240.2266
1801.7367 241.69814
1809.0273 248.37938
1803.967 247.71404
1797.9521 248.16382
1799.1652 254.84514
1807.1145 255.13306
1815.2404 260.95352
1814.0112 266.7
1813.2549 275.4369
1817.6516 271.12244
1822.3862 266.81363
1821.4695 259.96216
1825.2795 262.21997
1829.6954 261.61298
1834.9214 260.6103
1838.0566 265.6251
1841.1111 260.9064
1848.8387 253.91884
1854.0902 250.2204
1849.3309 247.2502
1848.931 241.7568
1854.9788 242.71437
1858.4373 246.30127
1862.0854 250.35043
1865.0134 245.00249
1862.5977 240.15865
1863.0938 233.46446
1856.3279 231.68555
1857.5392 237.49675
1852.3403 237.27242
1847.6692 235.761
1850.8301 231.90852
1848.2969 227.85242
1844.7732 220.71468
1840.7687 217.06822
1839.3973 220.92764
1835.0647 220.71819
1830.6415 221.58337
1832.6736 217.21507
1829.886 218.28137
1827.0789 219.19331
1825.1964 221.70618
1823.7211 217.106
1821.0688 220.55621
1816.3561 221.31566
1807.5715 226.3359
1812.738 218.43211
1817.8302 216.78387
1821.9978 213.13875
1828.042 215.02673
1825.9318 211.34392
1828.7017 207.86125
1830.9475 202.95038
1826.341 196.36334
1832.1965 196.49425
1835.9663 190.66974
1828.2158 190.3275
1820.7332 189.50974
1819.7555 194.31201
1820.1794 199.83438
1825.0325 202.60449
1821.3152 207.07614
1817.5239 211.94914
1813.1305 210.70184
1814.8053 204.64095
1813.8132 198.4641
1813.9442 191.4459
1809.9974 185.71005
1805.9098 184.5886
1801.3367 185.30437
1802.8125 180.62674
1799.6182 177.3158
1800.939 172.59956
1805.082 176.21907
1808.8113 179.78528
1809.3848 173.81535
1805.5674 170.5732
1808.8043 167.68541
1808.3292 163.21843
1808.3822 158.75168
1803.7748 159.4674
1798.6868 159.56033
1802.1672 163.5081
1801.281 167.40321
1795.9254 170.13797
1794.9481 165.01494
1789.3804 164.87791
1783.8685 164.37354
1779.6235 161.39377
1776.1724 159.05408
1778.2065 167.28882
1777.1248 173.33447
1783.0862 173.71028
1786.1006 169.65868
1791.0183 172.17001
1788.2058 176.60165
1791.762 179.95662
1795.225 175.60138
1796.7234 181.30888
1796.2151 185.72208
1790.846 184.82646
1785.7944 185.49666
1785.1506 180.60817
1779.8594 178.20222
1776.6823 181.29568
1780.7529 184.80975
1775.0823 187.1352
1772.5101 192.33144
1766.8689 190.57198
1760.9596 189.25386
1758.3628 192.59018
1762.7289 195.55704
1764.3274 201.3959
1768.0718 197.56944
1773.3652 198.60977
1773.2471 204.25491
1768.4463 204.70535
1764.3516 207.98009
1760.7206 204.86702
1757.9237 207.78276
1753.6519 209.80414
1751.1836 206.40952
1754.1519 202.49437
1759.3418 200.66156
1756.6188 197.4034
1753.5248 193.50833
1753.4658 189.17491
1747.1326 189.05933
1742.0508 195.46223
1747.9178 193.1534
1751.2305 197.79376
1746.2908 198.31093
1747.9897 202.71849
1741.6111 201.77072
1745.0056 206.42847
1741.4016 208.90132
1741.028 215.04848
1744.7457 213.87024
1747.9803 210.61444
1751.8042 213.98048
1757.0695 212.66794
1760.8301 215.29654
1763.8925 212.68124
1768.976 211.55635
1773.61 209.43045
1773.5286 215.23119
1772.245 220.4307
1767.8359 217.6534
1764.2365 220.31073
1759.398 220.8072
1756.4846 217.34158
1754.0844 221.49226
1751.8878 218.32652
1747.5778 216.79541
1747.7589 221.17015
1742.1597 220.33188
1738.174 226.14761
1737.7838 234.49724
1734.3427 230.1173
1731.574 224.61256
1724.0107 224.75166
1723.6846 229.77008
1728.6445 229.29184
1729.587 234.62065
1732.5616 239.20554
1737.951 241.3802
1737.9393 247.43785
1737.7949 252.41818
1739.2344 256.84485
1733.7966 256.01974
1729.0862 254.86623
1726.1854 256.86063
1722.7899 256.27554
1719.0447 254.92899
1714.6248 255.97995
1710.3064 254.53714
1715.9531 250.6547
1711.123 248.59956
1706.3314 247.71062
1705.897 254.97954
1699.5103 260.4547
1703.8345 262.74387
1701.747 267.23032
1703.9297 272.02023
1699.209 271.7396
1694.0627 271.69104
1688.3218 273.39877
1691.3259 277.70575
1693.4615 282.19446
1694.8765 289.80386
1696.8097 286.12616
1698.6849 282.99088
1697.3264 279.85474
1696.865 276.12744
1701.5593 276.62643
1704.6509 278.1772
1702.8431 281.5033
1701.5242 285.062
1704.2053 286.3682
1703.9532 290.36578
1704.8242 295.40738
1701.1063 292.77054
1699.7522 289.1627
1696.1019 293.10764
1690.1028 291.94986
1684.1036 292.5209
1678.1787 291.7802
1681.0974 288.23575
1686.1702 287.8277
1691.7102 286.7217
1687.9801 282.79346
1684.406 277.90524
1681.3462 272.70724
1679.003 266.20584
1683.8798 268.3795
1689.4546 267.50217
1695.9923 265.97876
1692.9719 260.89697
1687.2753 261.4497
1682.4519 260.97296
1677.1885 259.86493
1672.4475 263.00375
1672.5161 270.32693
1672.2703 278.3681
1677.2618 275.86554
1681.3511 282.3495
1676.5522 285.15564
1671.3208 284.00327
1671.7344 289.15573
1673.9463 292.61795
1668.7002 294.34653
1664.2749 295.1844
1663.002 299.63358
1667.1274 300.9017
1663.4879 305.87646
1667.2305 307.6609
1666.2402 313.77704
1660.6293 311.01086
1659.6613 304.0083
1655.9011 300.71448
1659.2952 297.8951
1658.7975 294.2876
1654.1334 295.33475
1652.0319 299.3246
1648.2822 300.7803
1648.5564 295.4591
1642.8623 294.84738
1642.3789 299.1131
1644.1967 303.17868
1639.9962 304.32965
1636.0784 302.0191
1635.628 307.25082
1637.2267 311.39786
1642.5844 308.6104
1647.1913 305.8127
1651.3059 305.83252
1655.2874 305.47498
1655.1034 310.66815
1655.9524 315.84598
1656.281 320.75992
1661.3328 318.15063
1666.5527 320.48688
1667.1879 327.2718
1662.1604 325.36313
1658.0425 328.38733
1656.5277 324.92087
1652.1776 328.03036
1651.8075 323.33124
1649.8723 318.51846
1650.3705 314.34366
1649.5195 309.9667
1645.7576 312.25098
1642.8428 314.72144
1638.9484 316.36728
1635.3119 317.26825
1634.615 322.16565
1637.2367 323.40247
1640.7295 322.12515
1644.1055 319.2342
1646.945 322.51898
1648.0244 326.1685
1646.1963 328.78555
1643.0872 326.3563
1639.0597 327.6459
1634.4287 328.1605
1631.4839 332.56525
1630.841 336.75
1632.206 340.941
1631.569 345.31757
1630.9453 349.1653
1631.6233 354.77136
1630.6375 360.23898
1634.7639 364.9869
1626.8726 363.43796
1624.1904 360.3476
1626.1335 355.7274
1627.2122 351.07428
1622.5907 349.9996
1617.6194 350.31042
1616.1941 354.35638
1621.1654 354.97238
1619.8718 359.0956
1619.6934 363.21594
1615.7649 358.7525
1614.2545 363.18103
1609.5446 362.83667
1611.1538 359.483
1611.9379 355.48257
1612.217 351.35898
1608.044 352.19882
1607.4353 356.2944
1604.5544 358.62762
1600.6719 353.33762
1603.9111 351.3852
1606.141 347.27695
1600.4651 345.37558
1603.6106 341.20288
1608.5337 343.1496
1612.2761 341.14615
1611.6372 347.57837
1615.1091 345.49255
1617.1328 340.6394
1619.8188 345.39987
1625.386 345.46094
1627.6038 341.02017
1622.3633 340.42838
1625.2513 335.64124
1627.5247 330.4934
1621.836 330.86462
1619.0793 335.5821
1615.029 330.7371
1613.2964 335.84277
1607.919 336.90015
1607.4602 331.08234
1601.465 336.02457
1599.6149 329.57944
1590.3553 327.307
1594.1174 323.9934
1596.8425 318.77484
1592.4209 317.52466
1595.9579 310.95682
1590.2383 312.77994
1587.5278 318.78793
1582.6149 319.91183
1585.3711 325.6262
1580.7324 325.94058
1578.3053 317.8767
1582.0748 314.2716
1579.8489 309.1029
1576.1582 312.6634
1574.1874 307.70633
1575.5087 301.37976
1570.4092 303.9025
1566.9263 299.52365
1555.6758 291.4812
1550.6229 288.10846
1545.1339 287.94238
1541.3578 281.66074
1539.7382 285.70447
1534.3896 284.1634
1529.7386 281.388
1533.3346 279.04056
1537.8472 279.09372
1544.0668 277.54086
1548.3528 274.72842
1543.2003 270.17728
1539.3132 273.54626
1534.679 273.4041
1529.8992 274.69077
1530.912 267.9536
1529.8993 260.58618
1526.0592 252.18208
1526.4014 242.81276
1524.343 247.58745
1520.7147 251.08499
1516.1326 250.96928
1513.3647 246.64645
1518.126 245.39645
1521.3921 241.7123
1516.021 239.10274
1511.3658 234.95627
1510.8229 230.2285
1517.7742 232.5917
1524.185 236.72557
1525.0205 231.1023
1526.1729 224.70312
1520.983 226.32089
1516.3414 225.69173
1511.8442 225.13823
1507.1359 225.78554
1502.9734 224.10104
1500.774 227.57216
1504.119 230.86028
1505.1467 235.66542
1499.2893 234.84964
1496.717 228.35886
1496.9554 224.13336
1490.8917 217.33823
1488.8661 213.52412
1490.8978 209.51454
1491.3098 204.62958
1489.4752 201.60896
1487.2606 198.35783
1491.6499 197.24217
1488.6874 193.81984
1489.7842 189.63773
1482.3549 189.81233
1483.5605 194.54141
1478.1138 195.82109
1475.6561 190.21165
1469.2048 189.71745
1464.512 192.03455
1458.758 194.16928
1460.1907 189.21036
1454.145 185.96309
1447.784 184.92084
1454.9147 181.636
1452.5007 178.00435
1455.2362 174.37724
1455.623 169.17618
1451.3302 167.0853
1455.8127 162.92183
1452.2079 160.04575
1454.4185 154.84901
1462.6704 149.42387
1468.1715 150.5053
1472.2867 147.98024
1477.0695 149.40039
1482.3971 149.27975
1486.5616 146.28664
1489.2526 150.91885
1492.8904 158.5521
1496.464 159.86612
1497.7197 164.23906
1493.1079 164.1156
1493.7341 168.66725
1494.0917 173.54471
1499.6547 174.52255
1495.3674 178.83348
1493.5875 184.19885
1498.4465 185.22012
1501.4578 181.73853
1505.1931 186.11656
1509.9542 184.52411
1514.1462 186.07376
1518.3896 183.59889
1522.5736 185.28322
1530.6017 190.17729
1526.0948 181.95056
1525.54 173.32121
1521.8479 177.30591
1516.5416 177.07347
1514.3047 181.35196
1510.4023 179.00143
1506.2991 181.51332
1504.6907 177.17
1505.0498 172.0614
1498.5212 168.94391
1503.2421 166.41933
1509.5491 167.44846
1515.5864 163.61058
1511.0302 173.83675
1516.8755 170.79259
1523.2795 167.43549
1524.6107 161.6094
1524.9403 154.9
1518.4313 156.58421
1511.7119 155.37567
1507.8839 160.79889
1501.387 160.15904
1503.7076 154.68097
1496.0671 154.45604
1491.2208 145.70389
1490.2532 138.77353
1490.3867 132.0594
1485.111 133.38544
1485.5499 140.84831
1480.3463 135.89095
1478.2539 129.69467
1484.0975 126.97059
1489.7836 125.79717
1491.3615 119.72224
1486.2166 119.94125
1481.6853 119.295975
1479.3965 123.79503
1475.0923 118.90213
1467.802 120.05437
1460.2299 119.2559
1460.8845 124.314766
1459.6353 130.35808
1466.3851 134.64732
1466.5355 127.53909
1473.228 124.194405
1472.0078 129.92479
1474.2319 135.78117
1480.4744 142.42523
1475.236 142.69324
1469.5271 140.17116
1467.188 145.19781
1462.2709 141.9435
1459.2129 137.25755
1458.2462 147.1984
1446.4333 155.15643
1447.0452 161.8221
1440.2545 162.20615
1438.8745 155.51369
1432.5305 157.00037
1427.385 154.29962
1431.8134 163.56213
1439.2649 168.6381
1445.2582 167.85533
1448.9875 172.65564
1447.743 178.2721
1443.9194 180.92728
1439.1285 179.54419
1440.5164 185.32172
1434.5249 184.46814
1435.6028 175.94405
1442.3115 174.02467
1434.5072 168.99149
1429.8608 171.05527
1430.0363 176.39342
1430.3854 181.28085
1427.6652 185.6246
1423.4209 182.78429
1424.6416 178.19121
1423.8298 173.60162
1424.5469 168.58362
1424.5212 163.61993
1424.2253 158.2786
1420.74 150.54842
1416.1218 148.32188
1410.916 145.51402
1410.3523 150.35847
1404.7881 148.3492
1399.4893 149.03069
1394.066 150.53568
1392.0403 147.1497
1395.3759 143.55783
1400.6235 141.97588
1405.4283 141.85089
1410.0247 140.76009
1408.9261 131.94719
1406.4816 127.732285
1402.6154 130.903
1398.7285 127.222336
1403.0095 124.32158
1412.0502 127.47087
1411.8152 136.15463
1415.3618 140.79851
1420.0369 142.89406
1419.5194 135.62837
1415.3137 131.56734
1419.8939 127.78179
1415.5736 123.324554
1419.5911 119.73406
1412.1815 118.430695
1409.5035 123.234856
1406.6154 119.52966
1401.5505 119.00882
1396.8557 121.33844
1391.4111 118.8698
1388.3021 122.618576
1393.3065 127.21057
1388.4176 129.4796
1387.6049 135.38205
1392.0004 134.82036
1396.4037 132.26637
1400.6573 135.66698
1405.5918 136.08731
1395.9333 138.24858
1389.1051 140.01537
1389.0403 143.8668
1387.9647 148.6359
1385.7192 152.87416
1381.0166 154.74463
1376.0133 154.01698
1372.6544 156.87111
1367.7885 160.93379
1368.4288 154.67322
1363.1305 155.5499
1358.2743 160.70284
1358.0474 154.818
1349.4833 150.40813
1348.2333 145.64432
1346.8856 141.47035
1349.742 137.98772
1345.5724 136.87735
1341.3594 142.16782
1336.4479 144.8519
1331.4215 141.9025
1332.0112 135.18065
1336.1348 138.69135
1340.6233 136.58957
1341.2192 131.9407
1345.3572 132.04233
1349.1237 133.13567
1349.3168 128.73015
1346.5366 126.51498
1342.9098 123.68502
1345.9474 121.53648
1349.5168 123.01039
1348.6771 118.32861
1342.5057 118.798615
1337.4725 118.63989
1332.3257 119.01248
1326.6838 117.30582
1324.3674 122.01691
1328.6136 120.73149
1334.9172 122.42524
1338.7177 124.07041
1341.5405 127.784454
1336.2795 130.97087
1333.2241 127.25585
1329.3402 125.01036
1324.8539 128.04407
1327.8065 131.72998
1325.3984 136.30428
1325.4801 141.57292
1328.4247 146.11865
1324.0442 147.81357
1327.2737 150.86499
1332.9103 149.44907
1338.5125 150.09187
1342.6908 146.86441
1344.7405 150.52391
1353.1611 155.31546
1352.961 161.33162
1356.976 166.152
1352.266 168.46092
1354.1722 172.58531
1354.8718 176.502
1352.0024 178.40756
1352.3586 184.2828
1343.8013 190.28188
1337.902 190.54494
1331.8136 190.9917
1325.5918 191.37587
1330.019 197.93982
1324.8501 199.97514
1330.2595 204.16411
1324.7974 207.66216
1329.2201 210.00267
1324.8601 214.58817
1325.3047 220.6711
1328.8069 217.86575
1332.1975 220.376
1336.5437 220.27704
1340.8691 221.04721
1345.1094 220.85675
1349.054 218.98087
1348.7028 212.8318
1348.7955 206.78929
1344.3779 208.78333
1344.113 212.58382
1345.4867 216.59132
1341.958 215.56757
1338.9973 216.84967
1339.3445 211.63008
1335.3481 214.32689
1331.1198 214.07637
1334.468 208.38252
1339.4429 207.20554
1336.9963 202.47916
1335.9612 196.91331
1342.4409 197.08673
1343.4724 203.54889
1348.2019 199.91664
1348.5619 192.34016
1356.4188 185.56436
1357.3053 180.66676
1359.0729 176.09755
1363.5947 175.19508
1368.1711 175.67952
1366.4965 181.1953
1362.4353 179.60951
1361.4357 183.382
1361.8635 186.50243
1367.8628 185.93097
1371.1544 182.50351
1375.8782 185.55098
1375.2325 179.81639
1377.9991 174.5275
1372.4958 174.24852
1372.1078 169.17572
1366.6904 167.83208
1362.921 169.82019
1358.8989 171.21408
1362.8909 162.69272
1371.3334 164.43407
1378.2146 169.08665
1377.144 164.58662
1374.1125 160.81581
1378.9088 159.51585
1384.1969 158.36006
1383.1901 163.6116
1383.5526 169.38922
1384.0299 175.21977
1381.7694 179.27705
1380.5883 183.90106
1384.6332 185.0969
1390.0543 189.28604
1388.1764 193.41513
1394.9722 190.93439
1399.3922 194.5387
1400.741 189.36662
1404.5585 192.82808
1407.9591 189.19812
1409.5815 194.13052
1414.5199 190.27255
1420.3767 189.14124
1419.6211 195.30681
1413.9019 196.15993
1411.3893 201.17862
1416.3878 200.62254
1420.5579 202.3643
1418.4954 207.41647
1414.4198 205.80588
1409.1156 205.8578
1404.2734 204.9593
1407.2833 199.69662
1403.9603 197.16689
1400.913 200.02075
1398.8591 203.62613
1395.2212 197.55772
1389.5715 198.24565
1387.9167 204.67339
1393.4435 203.75899
1398.026 208.65582
1391.356 210.36037
1388.89 215.05643
1394.9652 219.21672
1388.6932 220.75682
1381.6118 225.00487
1384.1268 229.66545
1383.6692 235.23238
1383.8276 240.45161
1384.4348 245.6077
1383.0726 250.98488
1379.936 245.82182
1379.0458 240.44211
1378.4711 235.98262
1374.8131 242.1532
1370.8007 240.6441
1366.5049 244.46324
1369.2867 248.65028
1375.5482 248.58568
1379.033 254.7881
1373.4906 254.82597
1367.6936 254.41827
1362.1635 255.49991
1359.1221 251.6917
1361.1912 247.46616
1361.1919 242.72435
1359.0668 238.82465
1365.5697 238.27133
1363.6334 232.31508
1369.5051 233.69824
1374.0839 233.37956
1378.8912 230.44647
1374.5248 225.85944
1367.9581 226.37854
1360.508 225.94376
1353.5891 224.90605
1353.3174 231.17368
1357.6184 233.59407
1353.4048 240.3556
1353.7382 247.80939
1354.0671 255.30476
1347.8129 261.40225
1346.7476 267.5925
1342.4486 271.94708
1342.0885 276.77344
1336.242 280.1431
1331.3204 286.79468
1330.1361 280.9602
1334.7239 274.007
1331.1056 267.75757
1338.2515 267.30695
1341.0645 261.19034
1333.2394 260.82718
1325.6924 262.7741
1326.2854 273.06393
1324.8539 281.3623
1325.6329 290.26926
1332.9469 292.27747
1337.2596 287.0725
1340.9363 292.2985
1352.3143 296.72247
1342.9144 331.12494
1339.3187 336.00797
1344.8441 337.9988
1342.5414 343.57556
1347.4436 344.55835
1347.3367 349.58093
1348.6085 353.90424
1347.7767 358.22192
1351.6855 359.18854
1347.9531 362.50943
1344.261 361.55945
1340.4576 361.59558
1336.489 363.24414
1332.6659 360.5781
1329.0444 363.3734
1324.3901 362.04166
1327.8606 358.74884
1324.6254 355.20743
1330.3293 354.35654
1335.9602 352.128
1336.6632 357.04446
1342.9095 357.19812
1342.3823 353.43695
1341.3334 349.3232
1337.5458 346.6591
1337.7577 341.02313
1333.6296 343.78363
1331.4218 349.0137
1325.5586 349.8087
1324.7689 345.17706
1329.3602 343.5119
1324.9631 340.5204
1328.7444 336.9513
1324.344 335.12997
1327.1057 330.7285
1333.2327 337.09586
1334.98 331.01416
1351.8798 302.42612
1355.7594 294.84927
1347.8987 290.9329
1348.5026 284.1724
1343.4526 287.30377
1341.8699 282.38962
1347.1807 279.24927
1348.6769 273.86945
1387.9661 273.5685
1392.5927 274.76834
1397.3488 273.95847
1400.2917 270.4662
1402.1372 274.6702
1406.6628 274.73703
1411.4291 274.8871
1415.8264 276.04968
1420.2577 277.2057
1419.8352 272.68353
1416.2949 270.03128
1420.597 267.78024
1416.0732 265.05005
1409.932 264.7938
1411.8625 269.64545
1406.5399 269.6886
1404.0857 265.52887
1398.9323 265.80017
1394.2358 263.76178
1393.7163 269.16574
1388.3999 266.12207
1384.4438 256.8671
1390.17 260.40802
1397.1528 259.8538
1402.3585 260.55066
1407.5566 260.0956
1413.0366 260.43073
1417.9365 259.52127
1420.6754 262.41196
1424.4563 256.3161
1430.2378 255.43271
1426.9241 249.13548
1423.7567 252.35359
1422.3586 248.17882
1424.2969 245.36612
1428.5175 244.62267
1429.7565 239.85207
1426.0374 241.41339
1422.2604 241.65657
1423.5375 236.86327
1423.6238 230.91066
1422.1339 222.40257
1419.922 215.79124
1420.7888 210.74768
1415.9037 212.61398
1411.4689 210.06805
1409.4912 214.20506
1405.1471 216.29753
1404.5969 210.57343
1398.6984 214.17331
1400.9712 220.22266
1406.441 220.90424
1410.7676 220.26753
1413.7925 216.73784
1415.3518 220.9187
1419.1417 219.79515
1424.1144 226.15465
1427.1982 234.03398
1431.1622 235.57698
1430.7885 230.22366
1428.7412 225.44127
1433.7816 224.62007
1436.0918 228.66965
1439.6532 224.84987
1443.2812 228.64749
1439.7224 231.56445
1435.6035 233.64302
1434.6837 238.21439
1434.4744 243.35048
1431.9803 245.94064
1430.9724 250.65897
1436.2328 250.10042
1435.9908 255.41212
1441.1484 256.24713
1442.5546 252.34813
1442.231 248.25679
1438.403 245.82639
1437.7102 240.84467
1441.736 242.5128
1445.6904 243.79141
1447.5322 247.4758
1448.541 251.58328
1446.9912 255.91869
1452.736 255.64491
1456.1647 252.21678
1452.944 248.9545
1455.7683 244.68132
1450.8993 243.3654
1450.1549 237.59665
1445.7965 239.14326
1440.1792 237.50821
1443.0328 234.72897
1446.7704 233.01144
1448.6951 228.51762
1445.5132 224.38101
1451.377 224.67331
1451.8138 232.3601
1455.0563 238.84787
1455.8318 233.0004
1455.3085 226.99796
1458.1843 221.49731
1458.0771 215.54646
1463.6608 214.65326
1461.1869 218.55414
1465.1002 220.37103
1469.8817 221.23141
1469.3192 216.44928
1467.7023 212.77853
1472.9149 218.34917
1475.7974 221.20973
1481.6023 221.38077
1479.1289 218.3562
1475.5645 215.3909
1473.4297 211.44269
1469.2975 208.85313
1469.8145 204.80045
1467.8054 201.01604
1464.125 208.4498
1459.3566 211.04485
1458.5796 206.046
1462.9789 203.44212
1458.514 199.97331
1463.2488 197.8114
1468.0273 196.13696
1472.5021 195.34181
1473.9058 200.7542
1475.3492 206.33723
1478.9202 209.92328
1481.7417 206.54372
1478.9098 202.09174
1482.5845 199.05777
1484.5518 202.82962
1486.8896 206.72092
1484.5437 211.3509
1479.9137 213.88872
1483.8652 216.75798
1486.8759 220.33583
1492.1089 223.01036
1492.9352 229.34422
1494.7075 233.6327
1493.9249 239.60573
1494.0615 248.06863
1493.8501 254.65387
1489.6757 259.7411
1485.5247 262.6348
1482.0469 260.45364
1477.2252 259.88007
1471.8398 260.5996
1467.164 264.40338
1464.8383 260.30057
1458.576 260.06482
1459.9454 266.04028
1468.2456 268.78693
1464.0831 271.08392
1458.9907 272.91025
1464.0586 277.44766
1458.8362 279.33423
1459.4183 284.82642
1464.1106 283.10352
1469.006 283.84216
1469.5303 279.05496
1468.6044 274.56995
1473.9047 280.29382
1474.1921 284.78232
1479.2291 285.67435
1478.2604 280.8072
1477.9135 275.72406
1474.0032 275.50632
1472.3542 271.5275
1472.9904 266.6131
1477.4482 264.80453
1481.9468 267.3047
1477.4326 270.39084
1481.7191 272.83966
1485.9182 271.9301
1486.5447 276.5304
1481.9265 277.28186
1482.9283 281.22174
1484.4375 285.37222
1490.1077 286.38855
1491.3118 282.51154
1487.4308 281.50223
1491.009 277.29388
1490.7418 271.63
1487.0173 267.5485
1490.8749 265.11273
1498.2153 255.53606
1502.6724 256.4193
1504.4514 252.73796
1499.1477 250.26106
1504.0127 248.78177
1503.149 244.40552
1497.3046 243.72844
1501.5576 239.77686
1508.4409 239.39253
1510.306 242.93037
1508.2153 247.348
1510.6047 252.06372
1508.331 256.11685
1514.9425 255.87297
1520.8774 255.84633
1525.8665 256.5335
1534.7762 261.4567
1537.9312 266.70853
1542.6484 261.40454
1550.3079 261.49106
1548.4541 268.1601
1555.4766 266.95944
1558.3037 260.2383
1566.255 253.3232
1561.1819 265.52454
1560.4631 272.65845
1561.164 279.6267
1556.2894 278.89374
1554.1132 273.14316
1550.8966 280.30258
1546.3019 283.21378
1555.1941 285.029
1560.5747 286.2734
1561.8538 292.68185
1569.8531 295.4736
1578.2297 296.17502
1580.8252 303.89328
1586.1976 302.1686
1585.2477 310.37167
1589.8015 306.89743
1595.0264 303.57596
1586.679 296.25793
1594.5155 296.68716
1602.0394 290.67685
1609.831 291.26834
1607.3948 285.24396
1601.4319 282.4654
1607.9933 277.85736
1602.1204 274.96194
1601.0574 268.79996
1606.514 266.79575
1610.181 271.3452
1614.7996 277.19955
1613.6141 283.04993
1616.2837 287.41888
1617.16 292.45108
1622.3336 289.7543
1626.5925 291.3259
1636.7278 296.43616
1631.7806 290.81116
1629.9126 283.8591
1622.2216 284.39142
1621.3816 279.66013
1619.7439 273.38406
1626.3663 271.68192
1626.2692 277.44403
1631.543 276.38132
1631.7317 269.17413
1631.4578 263.27124
1635.8406 255.52922
1640.4418 256.88382
1642.7041 253.96475
1642.155 249.68727
1648.0408 255.46098
1648.0305 249.1472
1654.8457 245.34348
1654.3538 253.78252
1660.5823 252.98145
1666.8394 255.76338
1665.6954 247.93983
1664.0731 241.92494
1651.8711 237.97528
1658.2588 238.05121
1665.5079 234.51245
1662.9686 228.79877
1657.8125 225.5931
1655.5408 231.64856
1649.2079 232.07004
1645.2766 234.84213
1646.6343 239.31512
1647.1405 243.80542
1641.9369 244.99838
1641.296 240.07631
1640.5804 235.46567
1641.637 230.26947
1646.8462 227.78854
1651.2255 225.21463
1642.9851 224.8316
1636.7358 224.64906
1636.2 229.28482
1636.0546 233.82446
1635.8607 238.47647
1636.9673 242.49698
1634.744 245.74066
1638.0967 247.22641
1638.0767 251.84265
1634.7338 250.6648
1631.685 259.2161
1626.2334 260.43073
1627.5161 265.62997
1623.3367 267.29355
1615.3539 268.54425
1619.6685 265.56467
1621.2616 260.2364
1616.1343 261.03717
1611.4019 262.068
1606.1897 260.34686
1600.9666 261.754
1596.0747 255.63474
1594.396 250.79274
1589.1703 255.47304
1581.1724 254.5606
1572.7511 255.21283
1575.6088 249.38322
1586.4364 250.37799
1589.8901 246.40695
1593.2188 243.16296
1596.9478 246.60728
1596.0134 240.03989
1596.4355 233.99211
1590.2196 234.51654
1587.53 240.46404
1582.3401 245.20674
1576.6785 242.33287
1568.0175 245.74245
1566.1272 238.56036
1573.1877 237.90141
1582.53 235.69925
1577.9845 230.74603
1570.8522 231.87154
1565.5803 230.56021
1555.0652 219.52718
1550.3816 214.85866
1548.5071 220.52563
1543.3138 217.9217
1537.3071 219.64587
1531.3955 218.4115
1529.896 212.44693
1534.4409 210.5132
1539.1853 211.95506
1545.7378 210.34541
1543.4089 204.02388
1536.5298 203.97377
1530.576 206.56
1530.7507 201.72144
1530.8906 196.91043
1535.4386 194.47455
1537.9669 189.50134
1545.81 189.90826
1551.033 191.45964
1542.8638 194.13998
1539.7546 198.72437
1548.6108 198.60913
1551.3203 205.10075
1554.6797 211.29312
1554.9819 197.25685
1556.2468 190.06203
1561.9574 188.905
1560.7167 194.47849
1559.9204 200.83722
1559.2482 206.34596
1560.564 212.77689
1560.5906 219.3493
1566.639 224.90034
1574.5813 225.31287
1584.7687 226.45718
1592.3292 227.81212
1596.3926 224.89719
1602.4487 220.86528
1599.8765 217.55368
1599.7612 212.4507
1598.9071 208.17
1601.082 204.71135
1600.8694 200.8256
1606.3334 205.41096
1607.7141 200.96976
1610.4885 197.01146
1612.4335 205.08087
1610.9009 210.71194
1606.8751 210.16385
1603.6782 209.51898
1601.4109 208.46834
1602.724 214.38223
1606.8071 214.34709
1606.1733 218.42133
1610.1157 221.06166
1612.123 215.98195
1616.5166 219.36052
1622.3894 220.10283
1625.9419 215.54878
1629.23 220.75957
1631.7726 216.69617
1630.983 211.09444
1632.5454 204.36684
1629.1514 205.84064
1625.0759 205.66093
1624.6022 210.2535
1620.0487 213.55736
1615.9854 210.31128
1619.795 205.17006
1615.8883 200.41223
1614.4236 194.03825
1605.9852 193.40178
1603.3657 197.5444
1600.4382 193.91362
1600.7892 189.09169
1606.5007 189.04022
1611.3152 190.30225
1617.3572 189.068
1623.0482 191.12697
1618.6149 194.09833
1621.8137 197.3783
1624.8167 200.41481
1629.468 199.79898
1632.5985 196.64671
1629.2178 193.67914
1627.6171 189.33322
1633.6361 187.84058
1636.6398 181.92194
1640.2583 186.23764
1648.0175 186.20633
1647.8195 182.17566
1648.6897 177.35927
1642.6029 183.2867
1642.9817 178.3421
1636.3602 176.08612
1640.9094 172.82205
1646.0271 172.06073
1651.613 172.44844
1648.595 167.17633
1649.5333 161.98555
1644.8337 159.19934
1639.6023 160.71866
1642.5247 166.05669
1636.3438 168.39368
1635.5132 159.9191
1632.2755 151.24786
1625.6586 145.80824
1623.9275 150.50497
1619.3958 147.61523
1614.4991 150.57661
1610.2767 147.18044
1614.4524 144.94872
1619.3458 142.28282
1617.0345 138.2007
1612.9594 139.05525
1610.0498 141.00603
1605.9932 138.8658
1606.1646 143.86931
1606.2662 150.08128
1599.8037 151.1601
1596.6006 159.28426
1596.4783 164.53793
1591.792 162.99872
1592.4504 168.2818
1597.0935 168.99094
1595.6262 172.46294
1596.3779 176.02322
1597.0536 182.01524
1594.5182 185.91487
1591.6674 182.27144
1593.4607 178.2585
1590.6414 172.39627
1588.0386 175.18144
1587.9177 178.8079
1586.5175 182.99048
1588.3485 186.17393
1581.7358 185.42802
1582.6434 180.91145
1581.046 177.6513
1574.8734 179.6294
1576.5208 184.58826
1570.6349 185.15215
1565.3481 183.32245
1569.1445 179.83704
1565.7375 176.25691
1572.1703 174.81802
1570.5803 170.15302
1565.4592 171.0356
1564.9452 165.46638
1569.2012 164.84091
1566.9441 160.15489
1566.3657 155.15843
1557.0149 149.37798
1552.6963 148.86397
1547.8247 150.6031
1547.4595 146.18327
1547.4183 141.39182
1553.4504 143.44635
1555.5939 139.26598
1558.2194 136.56644
1556.4194 132.81297
1551.8452 132.70332
1550.621 137.72804
1543.17 138.19568
1538.7339 135.01831
1536.7047 140.26978
1541.7875 144.24773
1540.9143 149.90115
1535.7191 145.66263
1532.3057 149.98009
1530.2142 143.72517
1531.3053 137.20277
1531.0276 132.13962
1530.1548 128.18645
1536.5696 130.63379
1534.9073 125.563705
1529.9072 124.572235
1531.2284 121.68732
1531.0352 118.58754
1536.7109 119.62709
1542.7858 118.9981
1540.0697 124.778305
1543.0264 129.64853
1546.5348 133.41582
1549.7826 127.17515
1545.8086 123.75311
1550.0555 119.678474
1556.3287 118.55069
1561.0275 120.449905
1555.3326 123.2625
1555.4158 128.14812
1560.8164 126.59935
1560.8071 131.5109
1562.49 134.40562
1561.6328 137.45161
1561.2245 141.09843
1559.7631 144.77211
1561.6948 150.03252
1572.2089 154.27655
1574.076 158.92915
1578.7068 154.04596
1580.7751 158.11525
1581.2186 162.17587
1581.6791 167.32462
1576.9379 164.08669
1572.9913 164.82382
1576.5985 169.80128
1577.9224 174.443
1583.394 172.59544
1587.1316 168.63805
1586.4521 163.98903
1587.6337 159.22684
1585.033 154.58344
1590.4141 154.04103
1594.0443 156.02698
1601.2277 145.40202
1600.8148 139.04744
1605.4207 134.92325
1603.545 131.46368
1599.9465 132.18394
1601.6234 125.422485
1602.4973 119.56831
1610.332 118.90056
1608.8939 123.89999
1607.5825 128.68059
1612.8383 130.14534
1609.76 134.0896
1614.4983 134.70152
1618.2566 132.195
1622.3451 131.28676
1616.3501 127.26204
1614.865 122.210205
1620.3015 123.60943
1619.3563 118.60095
1625.2025 120.0668
1630.7303 119.72857
1630.5962 124.44045
1630.1558 128.83612
1624.1494 126.73013
1626.671 133.60132
1621.6093 136.83482
1625.4453 140.10544
1631.9513 133.44637
1630.924 138.84697
1631.1099 144.84067
1641.2046 154.35313
1649.836 155.61337
1655.3514 154.37274
1657.6454 159.10156
1654.924 163.68784
1654.2562 168.6345
1659.4905 169.76332
1665.6141 172.32227
1663.9009 168.19872
1667.955 166.18382
1664.9863 162.90454
1660.4673 163.63159
1666.2286 158.5215
1661.7817 154.8145
1668.3687 152.53175
1676.2148 150.35919
1673.3447 147.01758
1672.1337 142.3136
1671.0234 136.04062
1675.7806 135.9314
1680.793 135.39107
1683.8088 130.80399
1679.322 127.67833
1672.7457 128.84206
1670.9822 120.904175
1676.7662 120.77733
1683.1908 123.43428
1682.9019 118.19603
1688.7378 119.57274
1688.4705 125.11479
1689.3397 129.68756
1693.9019 131.77246
1696.7374 126.50022
1693.6908 123.35021
1694.0833 118.50741
1698.7275 120.14419
1703.5392 118.52121
1702.9783 122.43875
1702.8866 126.84919
1699.6764 130.6854
1703.9873 133.56
1700.6857 136.32883
1696.1213 136.40642
1691.8254 138.73743
1687.787 135.12125
1685.7646 140.30487
1679.6012 142.31839
1681.6696 148.91136
1686.3577 145.6419
1688.729 150.19112
1695.0199 149.04898
1692.1423 144.19366
1697.6091 142.34367
1702.8505 141.12888
1703.2987 146.35077
1700.4281 149.6181
1706.4653 154.26404
1707.117 160.15672
1711.8706 155.99187
1716.6 154.89043
1716.7559 160.83836
1721.1458 165.85907
1716.1584 169.85817
1715.8313 165.80829
1711.5065 163.66956
1706.5872 166.27092
1711.0748 170.38516
1706.1155 172.44006
1709.7822 175.67136
1711.9762 179.24007
1705.9507 179.2979
1709.231 183.12633
1706.0193 186.15654
1700.2627 189.33205
1695.0471 191.24513
1698.8389 195.00642
1693.4268 197.32066
1690.3928 201.54208
1686.0234 205.29375
1684.4386 199.66533
1687.6202 195.26213
1690.0923 189.92064
1683.5643 189.79977
1680.8025 194.42432
1676.3694 189.8309
1666.8639 181.54883
1667.8464 176.11745
1664.5308 178.03418
1660.7285 177.7417
1657.7952 174.25241
1653.5966 176.51068
1655.0924 180.29472
1653.0209 184.82819
1658.0173 184.7395
1662.2847 184.17422
1667.1565 186.08875
1671.2715 191.73387
1676.0177 196.80319
1671.4783 198.26138
1671.5914 203.34583
1679.7217 201.34914
1678.0181 205.65895
1678.3923 212.06586
1673.0784 207.59123
1671.7515 210.92712
1670.379 214.79866
1674.5931 215.63376
1670.89 220.04854
1666.4479 225.28029
1675.4221 220.8737
1679.5282 218.31712
1684.3672 221.41112
1689.5149 216.59785
1684.7854 216.66768
1683.2253 210.44505
1688.8877 210.93333
1692.6631 207.58084
1697.8865 207.33783
1698.138 211.5672
1694.6064 214.47379
1692.2642 220.50507
1697.7245 220.14238
1705.1561 223.14288
1705.1082 228.3634
1708.1782 229.24712
1712.193 229.60413
1714.4454 233.69264
1713.7417 239.03644
1709.0524 236.69702
1706.3937 233.66188
1706.0791 241.01732
1710.9672 243.00371
1716.4684 244.93184
1721.367 242.51488
1721.7817 248.01593
1723.4952 252.32349
1727.5984 249.33034
1732.731 250.87885
1732.4099 245.33376
1727.1134 243.38277
1725.1061 238.02684
1718.4282 237.97667
1721.4001 233.7854
1718.0986 228.92072
1716.2281 224.56541
1710.1068 224.83266
1702.6769 219.46733
1701.2638 215.67917
1703.5645 212.12077
1702.4778 207.99931
1704.5657 204.20827
1701.0991 203.29819
1695.8491 203.42598
1697.832 199.67978
1701.8229 199.3196
1704.2888 197.6721
1703.4105 192.82533
1712.9908 186.07893
1714.8267 182.56503
1718.6606 184.9333
1721.6721 178.11392
1717.1616 178.93471
1715.6696 174.57216
1720.4868 171.9198
1725.1516 171.74028
1726.7368 166.59792
1732.0204 165.74927
1731.1526 171.69975
1731.1531 178.3974
1726.5105 176.53873
1727.0212 181.52136
1722.7041 184.15831
1726.7089 186.12363
1730.8955 184.5745
1734.6597 184.23624
1741.824 190.10353
1738.6536 184.55614
1738.9012 178.39507
1735.1509 176.60251
1737.5764 170.52136
1738.4586 163.4146
1734.0737 160.8173
1728.7762 159.56195
1724.3132 161.7102
1721.4391 158.06056
1721.4017 153.68237
1726.1692 154.74818
1731.7484 154.65459
1737.6412 155.58968
1740.8369 147.82867
1744.7964 143.40594
1741.6453 140.0389
1741.2747 134.3206
1744.2454 131.14418
1741.1528 126.94697
1741.5486 119.694275
1746.1733 118.354675
1744.7697 123.019684
1746.7273 127.134384
1749.4972 131.55138
1746.1473 136.26155
1750.0074 138.52153
1753.8456 133.3363
1756.6633 136.88356
1762.4979 136.79759
1762.1943 131.0874
1766.2998 125.523895
1761.2007 125.37406
1757.2993 129.17372
1752.9755 126.78752
1750.1707 122.926125
1753.0991 118.75473
1757.3232 121.11135
1762.4746 119.441055
1767.1978 121.58288
1768.2671 117.26267
1770.9446 120.10114
1774.2625 119.20628
1772.6451 123.73699
1773.9148 127.075264
1773.2487 131.06807
1768.5952 129.07324
1766.4703 133.98755
1770.3254 134.94894
1774.3752 135.16055
1774.2361 139.35258
1769.5581 139.36877
1765.2819 142.14124
1759.6805 141.3112
1757.3562 145.23299
1752.9303 142.32434
1749.1594 145.63771
1744.5476 150.03523
1749.5215 150.35225
1754.0831 149.33221
1759.121 150.3575
1762.9504 147.62842
1767.1509 150.92894
1768.1614 147.08308
1770.7311 143.9962
1774.4747 143.60751
1773.1118 148.45374
1775.0111 152.46991
1780.0386 154.91206
1786.0265 153.96414
1785.1084 159.01538
1789.943 157.58289
1794.0092 159.56837
1794.2313 154.10701
1799.5771 154.15012
1803.5117 155.06915
1806.981 153.75542
1810.368 154.53891
1813.6492 148.97278
1819.8845 150.28815
1825.2014 148.97342
1822.5272 144.44046
1828.2672 142.86444
1828.2407 137.39973
1824.7076 134.17802
1823.9722 129.22675
1818.5791 129.0486
1819.4741 133.95541
1821.108 139.27638
1817.4077 145.2444
1813.8 141.7651
1814.0626 136.64114
1813.8438 131.81178
1812.937 127.106255
1811.9808 121.51265
1814.0312 118.032715
1815.8242 121.81827
1816.7588 125.13247
1821.5356 125.35501
1820.7147 121.69852
1818.3408 118.67863
1822.339 117.19439
1824.8268 119.78714
1825.9794 123.87952
1829.1973 118.70444
1832.0256 122.158615
1836.1146 118.859146
1842.7993 118.388275
1844.9572 121.45173
1844.048 126.117195
1839.2749 128.30064
1840.4529 122.44095
1836.451 124.08932
1833.938 127.923805
1829.1738 126.45233
1829.1099 131.25246
1833.2777 133.11073
1837.918 133.03242
1833.678 138.33145
1834.7461 143.30374
1833.2969 146.90341
1829.3191 149.57454
1834.1108 150.91565
1838.7505 149.44502
1840.2865 144.9391
1838.7885 140.74251
1839.779 136.74179
1843.6315 130.6517
1844.1934 134.70784
1844.0195 139.43962
1844.5631 143.5155
1844.2079 147.75356
1844.1371 151.41719
1848.6189 156.02269
1852.6095 159.2153
1851.9235 153.80824
1856.7012 154.4627
1856.2424 160.68108
1857.249 165.35924
1852.0835 169.07974
1851.7769 164.35727
1847.9938 161.23346
1847.8909 167.92667
1850.8069 173.61476
1847.3699 174.98463
1849.1494 179.70837
1854.6666 182.4602
1853.9556 178.36191
1856.5559 175.24841
1856.0664 171.96707
1857.1771 168.87694
1863.0884 168.52368
1861.0375 162.71059
1860.3092 157.79712
1863.9327 154.51218
1869.6982 152.66823
1865.9797 161.84648
1869.6982 165.22028
1869.6982 172.54344
1865.4781 173.26099
1861.3867 174.68022
1859.8384 179.0578
1859.9501 183.438
1865.9141 178.30515
1869.6982 180.97777
1865.9807 183.28479
1863.7607 186.29315
1855.7036 186.30647
1849.0317 185.11389
1842.9922 191.64017
1841.9628 198.41444
1836.991 198.35197
1836.7701 204.0773
1834.6343 209.18681
1831.7532 212.68668
1836.1196 215.58246
1839.4373 212.23773
1840.2009 207.02124
1844.6124 201.86787
1844.3241 208.32812
1844.4062 214.26224
1852.0345 225.00858
1858.4583 226.02972
1866.2065 225.63153
1869.6982 229.91911
1869.6982 239.1046
1869.6982 246.824
1869.6982 253.43564
1864.4464 255.43066
1858.798 255.33347
1853.9221 255.58334
1845.6086 260.12134
1843.8987 268.1295
1843.9725 276.32733
1838.2625 277.0964
1838.5416 271.31863
1831.887 267.83582
1833.1343 274.25192
1828.4146 276.28522
1827.0251 270.78275
1823.0786 274.25864
1819.2509 277.16214
1816.1254 281.00638
1812.8502 284.1714
1812.877 291.06464
1809.1515 296.13055
1817.5171 293.20383
1821.1556 291.25156
1816.5916 289.04776
1818.6797 285.94952
1821.3188 282.1285
1823.5735 286.35767
1824.6807 291.65152
1829.0234 292.52975
1828.2349 288.48694
1827.9888 284.25388
1825.1128 280.10556
1830.4819 280.56226
1834.8127 281.2278
1840.1001 282.31186
1844.1365 284.6983
1837.7788 287.30066
1832.7192 286.37527
1834.155 291.8552
1840.0806 291.70154
1844.59 291.12277
1848.7069 295.69534
1854.2915 295.4965
1848.2764 301.20557
1852.5881 300.82632
1855.8008 303.75748
1858.6718 299.80853
1861.3506 295.2504
1865.753 298.79947
1869.6982 301.4309
1869.6982 307.45212
1864.4866 309.53986
1862.8264 304.26144
1859.2394 307.83646
1857.8608 312.34824
1854.1128 307.49695
1848.6526 307.18835
1852.2626 311.55862
1854.7205 316.10828
1848.4332 314.9136
1848.2251 322.0796
1852.8278 319.82175
1853.3901 324.47824
1858.3757 322.47345
1859.8784 318.00903
1862.2073 314.03214
1865.9805 315.8123
1869.6982 312.57193
1869.6982 317.96198
1869.6982 323.76556
1866.7268 327.2509
1864.345 321.43347
1862.154 326.69888
1857.1686 327.6737
1850.3757 327.63123
1844.9874 330.18042
1840.154 330.88773
1834.2242 330.2959
1829.2896 332.1992
1824.9182 330.5924
1823.2695 335.32513
1825.8315 339.38354
1818.7418 337.32974
1813.3221 337.4312
1819.0006 331.12906
1813.4559 331.0651
1808.3357 326.84436
1807.6927 321.7934
1809.6338 317.4086
1805.6427 315.39328
1800.6941 313.1359
1800.8636 318.31128
1802.6915 322.85767
1803.1782 327.3774
1798.8341 328.26614
1796.7004 325.76602
1797.4214 321.96954
1795.049 316.96387
1790.3608 313.78665
1795.4006 311.33987
1797.5905 306.76077
1798.5286 300.08942
1802.6267 303.3134
1803.7004 308.62204
1808.8396 310.20697
1808.5087 303.21463
1804.6847 297.2883
1800.2441 294.9989
1794.491 296.02246
1788.6819 294.82935
1785.6681 298.2257
1790.033 300.65106
1793.7499 303.43716
1789.5931 307.60468
1784.3003 306.3252
1782.2583 301.55417
1780.5751 295.2327
1773.8162 290.9327
1768.4678 292.28525
1776.861 299.0814
1777.3528 305.8604
1780.5574 310.66968
1776.6569 313.4374
1776.9583 319.78882
1781.3176 317.35474
1785.2313 313.33487
1787.1854 319.4259
1791.9335 321.5013
1792.6888 327.27332
1787.9275 326.3788
1782.429 327.75784
1782.7997 322.83035
1777.4324 325.3478
1773.7998 330.28485
1772.5884 335.63092
1767.1866 331.59662
1760.901 331.77655
1760.6099 338.6325
1754.727 336.13474
1754.5842 330.69498
1749.3926 331.95065
1744.8776 329.97366
1740.2937 329.2326
1740.7991 333.71063
1744.585 334.68365
1741.9968 339.66705
1741.945 345.61212
1748.364 343.13007
1748.0559 338.1084
1753.7345 341.53076
1758.1797 345.11316
1764.0957 344.8827
1766.7411 338.4461
1773.3401 341.27167
1769.4475 344.9988
1773.7407 348.34238
1768.2839 351.35892
1762.4752 351.10318
1762.7205 356.97006
1756.3114 356.87418
1756.8147 351.3497
1752.1943 348.55185
1746.8417 347.3897
1750.0939 355.22806
1745.7231 351.82266
1741.1466 352.7391
1743.1599 358.0515
1737.6826 365.34338
1744.81 362.55383
1750.5178 361.3765
1755.8486 362.47382
1761.6014 362.24957
1768.167 363.06445
1767.7529 357.6362
1773.3976 354.62408
1772.7554 360.04718
1776.4154 365.19672
1782.0918 367.9968
1777.6995 372.20624
1778.4259 377.52863
1776.252 382.4851
1780.9246 383.62097
1777.3232 388.44977
1777.1849 393.74908
1777.1627 398.28384
1773.3485 402.91055
1768.0564 402.29178
1765.8912 406.8435
1761.7162 401.98737
1754.4208 402.36856
1759.2524 406.51334
1767.2985 411.78143
1772.8245 408.3676
1772.236 414.08835
1774.0164 418.46188
1773.9243 424.2765
1774.0945 429.8324
1770.2302 427.61368
1766.0764 427.20996
1769.6803 420.9682
1764.5718 421.58273
1764.4844 416.70456
1760.7988 411.5714
1756.613 415.52295
1757.0536 421.07217
1749.6628 420.56076
1753.0524 408.6659
1749.5935 413.56885
1743.0114 415.96863
1741.7303 423.14716
1746.3126 426.49493
1743.2473 431.78845
1737.9147 436.8521
1734.6714 440.605
1729.3569 436.4942
1728.085 439.89316
1723.6987 440.94583
1720.3628 437.26355
1716.4976 441.53073
1719.9835 443.95697
1725.276 445.38754
1729.0192 447.49823
1731.0337 443.51157
1732.7102 448.85086
1736.9987 447.43286
1738.9114 443.34253
1750.9009 432.45828
1752.6953 426.58975
1761.5507 424.8757
1757.8306 427.77762
1757.6737 433.25397
1762.6365 431.5618
1767.3221 432.99368
1772.9248 433.92505
1778.6042 438.19955
1786.6277 437.1792
1785.8684 441.9101
1785.6106 447.56662
1783.3486 453.01807
1780.8398 443.40173
1776.3167 445.69833
1778.8136 450.40195
1777.4685 457.22595
1780.9194 462.50507
1778.2039 467.52942
1786.6316 467.78668
1791.7897 464.87366
1795.4628 468.02908
1800.9713 468.39243
1805.6635 467.4464
1801.4182 463.2165
1799.5679 457.8178
1795.438 461.1199
1788.1124 461.0107
1786.0472 456.7329
1790.3639 451.80606
1791.4225 447.25333
1793.3832 455.77545
1798.1361 452.1036
1803.2148 448.70776
1801.3872 443.55646
1796.7047 446.39536
1791.9102 442.3924
1793.5518 437.76794
1798.7097 438.25885
1803.8684 438.24414
1808.6492 437.93988
1808.0253 443.46524
1808.79 448.89105
1809.125 454.7899
1803.82 454.07382
1805.4384 458.98578
1808.776 462.11588
1809.6953 467.97583
1814.4338 472.49185
1819.8492 473.223
1813.1317 476.8
1812.9304 483.5937
1816.0116 479.44714
1821.4066 477.95215
1825.3839 472.44943
1826.1188 477.2615
1830.5818 477.0583
1830.7312 472.6772
1835.5889 472.162
1838.8706 475.57828
1840.9423 472.40103
1845.5413 471.3753
1847.9991 465.42343
1849.1199 460.29184
1848.7461 455.22324
1849.0151 448.7882
1849.3181 442.23453
1841.6414 432.7617
1835.1003 431.6984
1829.4421 425.73306
1829.5752 432.03088
1825.3156 433.09583
1820.8735 432.9929
1823.6665 427.9506
1817.5332 428.17935
1816.8417 433.07553
1812.4635 433.86642
1812.9648 429.6425
1813.5312 424.67496
1820.11 423.72595
1825.1898 419.87408
1830.4336 418.4292
1824.1855 411.47845
1819.7913 417.5595
1813.7592 419.32672
1815.224 413.04446
1815.166 406.9955
1812.8967 400.9426
1806.4338 396.94815
1808.4792 391.5167
1809.3171 385.73294
1802.8503 390.32358
1801.1903 394.17972
1799.6156 398.30533
1793.1257 397.74304
1787.9292 397.31262
1782.5869 397.37805
1781.7534 391.80148
1784.7866 386.94983
1786.3997 392.069
1790.7852 391.35886
1795.6968 393.6565
1797.8522 388.86102
1793.8896 387.03677
1790.4451 384.8294
1787.3398 381.30466
1783.7095 377.40765
1787.8306 373.9227
1787.8119 367.0108
1793.5858 366.86023
1799.2126 366.3829
1800.8239 371.3662
1804.7245 374.45514
1804.3071 379.32986
1799.3585 377.52185
1794.3574 373.229
1793.5557 379.53226
1798.6855 383.2005
1803.2987 386.05023
1806.2327 382.8518
1809.3698 378.10187
1808.8367 371.10233
1805.675 366.36545
1812.5854 363.1872
1817.8586 360.6922
1822.4943 362.92538
1827.7468 361.20438
1832.8062 360.477
1838.3412 362.3614
1835.2224 353.59155
1830.698 350.67706
1827.2256 354.35327
1822.297 356.83215
1814.1982 356.6659
1814.0109 351.33344
1820.143 350.7206
1813.5392 345.62213
1816.8331 342.57983
1821.8058 343.5724
1825.48 347.41446
1830.5652 344.8016
1830.6133 339.89923
1832.6819 336.03574
1837.0588 334.78683
1840.9058 337.16028
1844.819 336.5083
1843.3362 343.31903
1836.8601 341.1185
1836.6091 347.02124
1843.1709 350.22314
1840.133 355.91284
1844.0919 360.0467
1849.6277 365.85782
1848.013 370.75696
1854.0034 370.65585
1856.8394 366.31866
1861.937 368.7486
1865.9761 365.47363
1869.6982 368.7266
1869.6982 375.75174
1861.9043 373.61783
1856.877 375.59573
1853.5598 379.42352
1850.2979 377.78366
1851.346 374.2203
1847.1716 376.66046
1848.4182 381.98874
1848.6467 386.81796
1854.4116 388.3077
1853.1398 383.94855
1857.7172 382.29745
1861.565 380.36212
1865.4773 378.33398
1869.6982 382.0935
1869.6982 387.616
1864.7245 386.4517
1860.2202 387.77237
1869.6982 393.65265
1864.2122 395.02838
1859.4165 398.12274
1857.8401 392.3146
1853.97 395.46356
1851.2048 398.87726
1849.4873 391.46097
1847.9364 396.07016
1843.6416 402.18753
1837.6685 402.3213
1843.7642 406.80148
1844.3828 411.4334
1839.9319 413.1571
1837.6942 407.71616
1830.54 402.38913
1822.0009 403.44174
1830.0254 407.5982
1832.8796 412.55566
1836.122 417.2489
1840.33 419.52466
1844.5529 416.907
1844.3535 422.72577
1834.9196 423.89362
1839.5105 425.64938
1844.1162 428.36362
1850.3025 437.18295
1854.5063 445.4861
1860.2822 444.70825
1857.5555 438.59146
1864.1744 438.00964
1866.3062 443.13184
1869.6982 445.8825
1869.6982 453.03555
1869.6982 460.3303
1865.5852 461.77505
1868.8408 467.10034
1861.738 467.34958
1860.3754 459.62787
1864.064 455.2079
1863.7218 449.64197
1858.2031 451.61526
1853.698 453.3877
1855.2335 459.17664
1852.9053 464.02084
1857.1511 466.67813
1851.5859 468.79517
1844.1853 476.03342
1843.7045 479.88486
1839.688 479.83014
1835.1296 476.834
1833.4298 480.4529
1829.5023 481.09552
1829.2981 484.35883
1826.5356 486.3912
1824.1694 482.34723
1819.2866 482.29697
1817.4692 486.3535
1812.9775 489.3532
1813.9482 494.2291
1817.6696 491.30664
1822.6667 486.97867
1821.549 490.4376
1819.0978 496.34705
1812.3976 498.69968
1806.0251 508.33264
1799.5969 508.8807
1792.6161 508.27713
1785.9408 508.2567
1783.3486 513.1918
1777.0874 514.72577
1776.9553 521.2797
1776.8298 527.66016
1778.4812 532.62103
1780.6516 538.10114
1787.2559 538.7422
1784.7151 533.5911
1785.6843 527.81665
1781.4026 525.2169
1781.5295 518.6533
1785.7338 521.8651
1790.1816 521.3739
1787.0422 516.4149
1790.9476 513.7313
1794.0457 518.85187
1796.9834 513.9023
1801.117 517.6325
1805.3137 515.69464
1809.3456 512.8034
1814.1158 504.23938
1816.417 500.11743
1820.5156 501.76096
1823.8436 504.09863
1828.3528 502.3842
1833.6592 504.51755
1832.3909 500.0918
1829.7335 495.14932
1825.1339 498.11902
1823.3251 494.0681
1826.9858 490.89154
1830.9487 488.86823
1833.9133 485.7989
1836.2402 482.02557
1838.5491 484.6608
1838.5283 488.89423
1842.4093 485.431
1845.4062 483.51196
1844.3618 490.34195
1843.1167 496.62683
1844.5162 500.95618
1839.98 493.2761
1834.396 491.77768
1835.748 496.50757
1837.7716 501.17316
1841.1855 503.86298
1847.3961 506.29596
1854.3892 508.03305
1859.7251 508.15982
1865.7676 507.75772
1869.6982 507.48425
1869.6982 516.7606
1865.6418 513.70996
1860.8738 512.75275
1852.8701 513.4086
1849.6067 509.53052
1848.1357 513.3465
1848.2871 517.3637
1849.7004 520.4575
1848.112 525.41516
1852.9033 523.8158
1854.4338 519.45776
1856.6099 515.0527
1859.2241 519.10254
1857.7688 523.8823
1865.7747 525.25745
1862.6956 522.03217
1863.3156 517.5702
1866.819 520.0532
1869.6982 522.9989
1869.6982 529.1919
1865.0769 530.3315
1864.9897 534.97125
1869.6982 539.7404
1862.3958 539.0949
1855.2112 538.9281
1854.9214 533.9962
1860.0537 533.0522
1861.4036 526.7993
1857.2579 528.78235
1852.9363 528.37335
1848.9233 531.4276
1848.9572 537.5468
1842.4888 543.5097
1844.0925 549.43787
1841.8677 555.02704
1839.6968 560.79694
1844.5645 560.15063
1844.513 566.44836
1840.0461 565.7467
1837.4958 569.8056
1841.34 570.3931
1845.0085 572.08325
1843.156 575.5536
1839.394 574.91174
1836.1765 574.9878
1832.5991 576.75775
1832.1672 573.41406
1828.8589 574.82074
1824.3502 575.37555
1818.1282 575.3017
1818.387 570.548
1823.0076 570.457
1827.1753 570.4928
1826.2759 565.1189
1830.1682 568.00366
1833.885 571.1639
1833.9287 567.4404
1835.8787 563.91455
1831.52 562.8627
1828.147 559.56854
1828.5425 554.5565
1834.8506 558.093
1834.1986 552.9648
1838.0454 549.24414
1835.3518 543.8877
1828.8083 543.35077
1830.0717 548.6215
1824.4496 549.8251
1822.5779 554.7418
1818.9111 548.7009
1822.2493 543.6419
1814.6277 544.01294
1808.9668 537.9894
1805.4269 534.33136
1802.1377 529.90924
1808.4944 529.2178
1808.8142 521.71844
1803.5206 523.8698
1798.5377 521.428
1795.279 524.23157
1797.9213 527.57684
1795.5194 531.6831
1791.3724 526.7617
1789.7233 531.64307
1792.2355 535.7696
1794.811 539.38293
1799.1045 535.4556
1802.439 539.181
1813.1394 550.7394
1817.199 554.0863
1812.8032 558.14777
1817.594 559.04865
1822.7593 558.9459
1822.319 562.7526
1820.2043 566.48395
1816.5807 563.7455
1812.6742 564.8049
1813.6459 570.5814
1810.5442 576.70935
1808.2614 582.96436
1802.1323 582.2684
1801.9169 577.9029
1795.01 578.3927
1795.1125 583.1769
1794.6687 588.0756
1802.3146 587.61383
1808.1006 589.9869
1808.8896 595.69867
1804.2966 597.42065
1800.601 593.13916
1794.4926 593.55615
1788.8411 596.6939
1787.2498 590.3426
1788.28 583.7203
1788.241 578.33685
1781.6447 579.32446
1776.5308 580.5566
1782.2852 585.7954
1777.3215 589.1317
1781.7617 594.50604
1777.2097 598.3411
1777.9572 605.1153
1783.949 601.7625
1794.1747 599.80035
1799.5176 600.1774
1803.659 604.2671
1808.7778 602.0907
1808.6222 609.12305
1816.4893 617.29095
1813.706 621.77576
1813.1208 628.2161
1818.3186 628.5686
1819.9469 622.6176
1824.4114 627.20416
1822.724 632.8037
1829.6422 630.61194
1829.9067 624.9683
1836.3015 624.57574
1836.7084 631.61584
1831.6846 635.9691
1826.5892 637.5918
1824.1542 642.5458
1819.7762 638.16644
1814.2473 635.07294
1814.441 643.22345
1821.1556 646.00165
1829.792 643.7797
1835.2573 645.27734
1837.0222 638.8545
1842.4333 644.61145
1849.604 649.8173
1849.6803 657.4696
1850.2365 664.6716
1858.0039 665.2189
1854.7286 671.5181
1848.8442 672.4253
1850.3171 679.8012
1858.3514 677.10156
1858.552 681.5067
1868.4233 680.6348
1868.5823 675.7478
1869.6982 670.9641
1860.9087 672.0752
1864.3021 666.73755
1869.6982 662.7258
1865.2698 659.87964
1869.6982 655.02637
1862.4495 655.35596
1857.4553 659.45624
1855.464 653.36444
1863.5002 649.9947
1857.5647 648.5433
1843.4324 637.5747
1843.0265 630.5723
1843.3009 624.4639
1842.2091 619.17596
1850.7827 609.2918
1857.6741 610.07825
1861.7336 605.3291
1868.6409 609.8639
1869.6982 602.7754
1860.0374 599.2453
1863.3813 595.4391
1869.6982 593.648
1866.5538 589.6789
1861.4297 588.2628
1869.6982 582.7817
1866.4104 578.357
1862.1458 583.4729
1858.4519 578.7801
1855.1091 583.0823
1852.3982 578.3214
1847.9204 578.8967
1848.3705 584.62036
1852.9249 586.75104
1856.5679 591.7566
1849.1804 591.2996
1851.02 597.00745
1854.9114 603.02313
1848.552 603.2508
1844.0583 613.2639
1837.4377 615.6791
1832.2067 613.63025
1831.2853 619.393
1825.0422 620.6862
1826.2461 614.32166
1820.869 614.83325
1813.5781 613.76245
1802.7192 609.8832
1795.3607 610.5117
1796.3594 605.6733
1789.8851 604.6272
1786.7676 609.6302
1780.0448 609.92285
1774.5735 612.6975
1773.849 618.1325
1769.6284 613.7718
1763.6947 613.2401
1765.2385 617.2199
1766.6104 621.88696
1770.043 619.58
1773.8947 623.83264
1772.7677 628.9809
1769.1027 626.1561
1763.623 625.33344
1760.9451 619.9578
1758.4236 614.7609
1753.5769 613.5644
1752.579 618.85516
1755.772 621.62714
1749.9341 624.6455
1748.8201 630.30145
1748.8318 634.54
1753.8861 628.59894
1758.4446 625.2076
1759.7393 630.18335
1765.1304 630.4066
1766.8826 634.6717
1771.9938 632.79016
1774.7225 634.9983
1773.252 638.14624
1769.551 639.64014
1773.7133 642.3998
1779.6714 648.65076
1782.4777 653.12555
1782.1624 658.79956
1787.0271 657.2469
1792.1345 657.5984
1787.5027 649.93085
1793.7737 650.05963
1801.035 649.8274
1808.4501 649.83234
1805.7329 655.63715
1808.0593 660.15936
1809.3344 664.991
1807.259 668.4848
1803.6113 665.03644
1799.9772 661.0688
1797.9014 655.69293
1793.6997 663.61884
1798.2292 667.6585
1803.2544 670.8604
1806.6399 673.9639
1809.837 671.63885
1809.2009 677.19336
1808.6565 681.56866
1802.902 681.35657
1804.0143 677.0544
1799.0072 673.0349
1799.2836 677.743
1796.4183 681.19946
1791.3086 680.251
1793.9629 674.89636
1792.6791 669.4479
1787.6339 670.2087
1787.8643 675.3838
1785.6187 680.48376
1779.2891 682.3145
1776.1318 677.80237
1780.9868 677.3676
1781.7463 673.26306
1782.84 668.53705
1787.5347 663.95746
1781.5664 663.94025
1777.0686 670.56836
1776.73 664.93506
1777.0635 659.52966
1776.8859 653.7706
1772.7473 646.3566
1766.7677 645.32684
1760.365 646.2446
1761.5911 642.289
1765.3806 639.92236
1761.0983 636.3694
1755.7426 634.199
1752.0098 639.2
1756.8174 640.3223
1754.779 645.30115
1749.216 645.0952
1738.8452 648.8417
1730.0824 648.4155
1734.3354 650.50745
1743.1212 644.4
1746.6038 639.24396
1741.6173 637.9769
1742.0776 631.80865
1744.6165 627.3167
1741.7827 623.56586
1747.0726 620.23785
1748.5541 614.5586
1743.3292 613.33887
1742.0444 617.90533
1736.6558 611.5886
1738.8461 607.5346
1737.5103 602.3977
1738.6483 597.05237
1737.4875 591.50665
1738.7632 586.7358
1734.1041 585.70056
1729.8225 583.41956
1732.2782 578.4626
1737.5842 580.601
1741.2473 575.73724
1747.0242 575.6507
1750.0881 573.4653
1746.5284 569.40497
1742.3293 571.20056
1741.1882 566.65564
1745.8184 565.1713
1749.9167 565.75494
1749.8202 561.6351
1746.7646 560.5699
1743.4852 559.3722
1743.4156 563.0103
1740.4199 561.493
1741.2366 556.69617
1741.5449 552.5483
1744.6866 549.3009
1746.9039 553.2303
1746.0859 556.7554
1751.4677 553.0655
1750.8693 557.1154
1753.8641 560.5573
1754.438 564.65497
1755.9341 568.79803
1751.9608 569.8913
1755.9469 575.04266
1759.6917 569.8642
1764.2888 570.67523
1762.8711 575.47003
1768.9076 574.2741
1773.8657 574.1827
1773.4983 568.72015
1768.8395 567.4051
1764.0875 565.0467
1759.2238 562.707
1756.365 557.11273
1756.2644 552.1267
1761.1469 548.3596
1761.4678 552.46655
1761.0994 556.99506
1764.8955 559.76416
1769.8322 560.4388
1773.8599 562.84863
1773.2234 555.1798
1766.8491 554.335
1768.22 549.41565
1773.7628 548.1545
1775.3193 540.0456
1769.9163 543.62964
1764.7355 544.1874
1760.0256 543.13513
1754.9373 542.5381
1755.981 546.65045
1752.5499 548.70355
1748.4519 547.8526
1749.931 543.2136
1744.0017 543.1816
1741.0459 546.58466
1738.844 537.70715
1734.9746 538.9318
1733.7382 533.22565
1738.5082 530.5214
1734.2992 526.7438
1729.7626 527.7359
1725.324 526.8079
1720.825 528.40533
1727.8696 532.0722
1727.8032 536.3825
1731.2448 538.12146
1727.4583 540.04535
1723.3346 539.27814
1723.9921 534.91187
1720.7926 532.88416
1716.2828 530.4936
1711.7728 531.9755
1711.8123 526.4177
1716.4121 524.6714
1720.7689 523.503
1725.1096 521.538
1730.9252 521.4217
1738.2375 522.8574
1735.7814 517.4846
1737.8325 512.6587
1730.0111 513.3976
1726.9242 517.0665
1723.1176 513.58026
1721.0892 518.0057
1717.1196 519.38293
1713.4819 518.47284
1711.7222 521.96344
1706.8739 518.7996
1706.4341 523.5678
1706.8905 528.47314
1706.7489 533.8173
1715.5067 536.8843
1719.2548 538.6355
1711.0417 538.3646
1705.996 539.46515
1701.8632 543.62476
1701.4442 548.56384
1696.5171 544.59216
1693.2004 549.95917
1696.3596 553.42816
1703.1571 552.9268
1703.4316 558.76697
1699.5815 556.68756
1696.3308 559.9746
1702.1914 563.5983
1703.8495 569.2825
1699.0369 569.01154
1696.1954 565.41315
1692.5287 569.8051
1687.6807 573.9385
1694.74 575.0497
1701.07 574.351
1706.0647 578.17444
1712.1521 578.52124
1707.5093 583.5626
1711.8873 588.1642
1706.3049 589.58167
1706.2433 597.1128
1710.1389 593.9569
1715.5447 592.51855
1719.0616 588.3386
1714.1559 583.5019
1719.4224 583.3469
1718.7844 578.3711
1725.6646 578.06915
1724.4583 582.34296
1725.3949 587.46356
1722.7333 592.9174
1727.6539 593.9176
1731.1838 590.1484
1733.9794 594.8631
1731.9609 598.71344
1730.1848 603.59705
1733.7097 607.453
1728.4836 609.69336
1722.4358 608.7763
1719.5857 602.9772
1725.3594 600.37085
1719.2711 596.8781
1713.6451 599.23303
1713.6554 605.85535
1715.6951 610.53735
1708.5256 601.85535
1706.6436 606.0577
1707.6034 610.8558
1701.0001 614.07355
1695.2029 614.8056
1701.7534 618.98615
1703.1523 623.75793
1702.7189 629.02966
1702.9438 634.42334
1702.9104 639.89154
1697.3538 641.64844
1698.9375 645.87134
1703.5701 644.92737
1706.2914 649.42804
1710.9407 649.49536
1714.2734 654.7399
1715.524 649.0501
1720.014 649.20447
1721.0077 654.092
1724.9663 649.4892
1728.717 653.26715
1726.822 657.35956
1733.5735 656.53516
1738.5029 655.4554
1738.5461 661.4938
1733.9545 662.4742
1729.6824 660.9452
1730.0676 666.4376
1733.6316 670.0096
1737.6768 666.708
1738.2444 671.6006
1738.8024 676.2502
1738.2974 681.6464
1735.4424 679.54944
1731.4834 680.9336
1733.3999 675.3796
1729.1763 671.5306
1728.319 675.9223
1726.9125 680.9053
1720.8438 681.35986
1711.3171 683.6772
1715.1559 680.6478
1718.0123 676.8855
1723.6945 676.5556
1720.8296 672.50696
1724.5681 669.49805
1718.5059 666.96545
1720.6567 663.16504
1725.4574 663.75977
1721.4138 658.592
1714.8784 660.51416
1707.3706 654.4831
1708.0835 659.49963
1706.7795 664.6186
1712.5184 666.403
1715.7476 671.388
1712.2661 674.349
1710.4791 678.8305
1707.4446 670.1365
1706.5608 675.1827
1705.948 680.4863
1667.5195 679.8032
1664.2053 681.9
1667.5776 674.0856
1664.0018 675.981
1659.9744 676.5306
1657.9758 680.9512
1652.0581 680.68396
1654.5444 675.3443
1658.3994 671.46265
1651.0411 671.1862
1653.8378 666.43146
1652.2356 660.52704
1647.232 663.0611
1645.5066 668.4311
1647.4049 675.1813
1644.8834 680.6712
1637.5408 681.61945
1636.5898 677.28064
1641.7438 674.992
1635.7911 671.9827
1640.007 669.11957
1635.5748 664.90753
1640.3315 662.6171
1636.7068 656.89044
1643.4681 657.2861
1649.2827 654.9109
1651.492 649.21814
1643.9304 649.9998
1637.3711 650.2449
1631.6813 645.5351
1625.9745 645.19147
1631.3767 639.67505
1627.3167 637.2147
1631.2999 632.0461
1625.6743 631.64215
1620.7076 629.7794
1615.1311 627.5646
1610.8304 629.33496
1614.5349 634.5579
1620.6333 635.71405
1623.0695 640.9215
1618.8872 645.46295
1616.1094 640.4698
1607.4192 633.63306
1608.8633 639.84485
1611.1659 645.34204
1596.761 654.8912
1597.1284 661.44653
1593.6709 662.253
1592.9606 656.29
1587.7646 654.8444
1582.39 655.53815
1576.9911 655.1456
1576.0793 659.9006
1575.0508 663.99866
1571.935 668.26935
1575.0233 673.92896
1577.5587 668.85626
1580.5643 672.1834
1584.58 670.1417
1584.2744 674.6254
1587.9321 673.07184
1588.3608 669.1806
1586.4391 665.7364
1582.0955 667.0228
1581.269 662.6728
1584.9895 659.57947
1590.2028 659.66693
1588.1174 662.8658
1591.7108 666.2151
1596.3652 667.339
1596.4902 672.16504
1592.1284 670.73145
1592.0819 675.156
1596.9832 676.83923
1596.0479 681.9454
1593.4705 679.0806
1589.5121 681.31604
1587.8162 677.2948
1584.718 681.0365
1580.8392 676.99554
1579.2754 681.44574
1574.752 679.1138
1570.4377 681.0871
1565.1127 679.5967
1568.5314 675.54987
1566.0802 670.3729
1526.4939 668.59796
1567.0724 663.05536
1565.7938 655.31964
1570.8175 655.861
1574.0317 650.2999
1580.277 649.6199
1585.8296 649.07733
1590.7517 650.23987
1595.9664 648.97186
1602.7759 644.4171
1601.585 637.3909
1601.4086 630.1269
1601.1674 623.1115
1606.1511 626.0717
1610.076 622.01636
1605.2605 618.6789
1608.475 614.0545
1613.7423 617.4833
1615.5629 621.8592
1615.5254 613.5059
1621.9152 613.97186
1621.5159 618.97205
1619.8047 624.58044
1625.4615 624.0202
1631.0028 625.5525
1630.6274 619.0326
1628.2094 614.28845
1635.3265 610.51935
1642.3708 609.88055
1639.3948 605.39923
1635.7927 602.0315
1637.4661 596.7588
1637.5427 591.5989
1636.1486 587.31256
1636.3196 582.7244
1640.9878 582.6589
1644.6635 583.3803
1647.3088 586.42816
1642.9286 588.79694
1643.6506 594.49664
1648.2686 597.38275
1643.4718 601.46466
1648.6119 603.7374
1648.8617 609.8164
1654.0013 605.5489
1657.009 610.29724
1672.0071 618.683
1676.109 622.7293
1671.1619 625.14825
1672.9888 631.68225
1672.128 637.655
1666.8221 649.3902
1659.9241 648.82874
1656.6565 652.7491
1656.9175 657.47437
1659.6265 661.72614
1659.7188 666.8881
1663.6765 670.5926
1667.6122 668.62317
1664.4532 664.96936
1667.6222 662.1834
1665.5532 658.1936
1663.7732 654.13446
1673.4396 644.69403
1683.4434 645.3779
1691.8977 645.754
1691.172 640.4696
1685.4443 638.9052
1678.7028 640.1454
1681.0117 633.23376
1677.7615 627.81464
1683.7789 626.60114
1681.0126 621.09155
1685.4697 619.6759
1688.6434 623.6774
1691.5491 627.9056
1687.511 632.60974
1692.8721 634.40186
1697.7368 636.75525
1697.4819 630.9029
1697.7217 625.29
1694.9766 621.3264
1690.8514 618.5865
1690.1569 612.8471
1687.1492 615.04553
1682.8987 614.47906
1678.0333 612.9093
1677.4113 617.0769
1671.4065 613.3654
1664.889 609.2076
1659.8643 603.9257
1653.8564 599.8184
1659.1521 597.217
1662.5369 592.96405
1665.8958 602.5759
1666.6549 596.30786
1666.7439 587.9703
" />
</g></g></svg>
