<?xml version="1.0" encoding="UTF-8" standalone="no"?>
<!-- Created for Inkscape (http://www.inkscape.org/) -->

<svg
   xmlns:dc="http://purl.org/dc/elements/1.1/"
   xmlns:cc="http://creativecommons.org/ns#"
   xmlns:rdf="http://www.w3.org/1999/02/22-rdf-syntax-ns#"
   xmlns:svg="http://www.w3.org/2000/svg"
   xmlns="http://www.w3.org/2000/svg"
   xmlns:sodipodi="http://sodipodi.sourceforge.net/DTD/sodipodi-0.dtd"
   xmlns:inkscape="http://www.inkscape.org/namespaces/inkscape"
   width="3200"
   height="800"
   id="svg2985"
   version="1.1"
   inkscape:version="0.48.1 r9760">
  <defs
     id="defs2987" />
  <sodipodi:namedview
     id="base"
     pagecolor="#ffffff"
     bordercolor="#666666"
     borderopacity="1.0"
     inkscape:pageopacity="0.0"
     inkscape:pageshadow="2"
     inkscape:zoom="0.35"
     inkscape:cx="1600"
     inkscape:cy="400"
     inkscape:document-units="px"
     inkscape:current-layer="layer1"
     showgrid="false"  />
  <metadata
     id="metadata2990">
    <rdf:RDF>
      <cc:Work
         rdf:about="">
        <dc:format>image/svg+xml</dc:format>
        <dc:type
           rdf:resource="http://purl.org/dc/dcmitype/StillImage" />
        <dc:title />
      </cc:Work>
    </rdf:RDF>
  </metadata>
  <g
     inkscape:label="Layer 1"
     inkscape:groupmode="layer"
     id="layer1"> 
     <g>
<path style="fill:none;stroke:black;stroke-width:2px;stroke-linejoin:round;stroke-linecap:round;" d="M 
1570.5729 168.85408
1571.4055 172.7246
1572.1241 176.81053
1576.7556 176.84436
1579.9186 180.35536
1577.5095 172.65445
1575.3069 169.09065
1577.6582 165.44792
1615.1357 160.17368
1616.0133 165.84691
1620.6542 165.35962
1620.3766 160.88904
1622.6599 156.7679
1615.9873 155.34502
1614.5157 150.16335
1612.6682 144.3717
1613.7731 139.18619
1611.7594 133.4257
1615.5481 135.15552
1619.7568 136.13368
1618.8677 131.76297
1615.3418 129.44006
1611.3099 127.00313
1615.135 124.7732
1619.4575 123.23394
1621.1519 127.40699
1627.0782 128.33447
1625.4772 123.78286
1626.0337 118.32942
1622.672 120.312836
1620.5919 116.877815
1618.7034 113.286644
1616.2445 109.689125
1614.1482 112.25389
1615.4067 115.93252
1616.7008 119.77424
1612.3982 120.74854
1611.2997 116.37493
1611.4005 112.7025
1607.5425 113.98085
1603.1683 113.842224
1597.0981 113.94529
1600.6277 110.86282
1604.1935 107.71724
1600.6235 106.20859
1597.2747 104.423515
1602.3359 101.56747
1605.7964 103.22177
1609.6992 104.7118
1608.4218 107.79714
1605.905 110.811264
1609.8494 110.60985
1612.9658 107.07189
1616.9149 105.35558
1620.0216 108.30173
1622.0332 111.19706
1624.5282 113.837845
1628.2214 115.12188
1631.4325 114.78387
1630.442 118.85028
1629.9606 122.68672
1632.0034 126.47137
1631.7627 130.71799
1628.619 134.08415
1631.696 138.11908
1627.5432 139.88577
1623.7673 131.9589
1624.172 136.79448
1623.1619 142.01752
1619.3169 140.43655
1616.805 144.18483
1620.2798 147.29955
1620.7623 152.0979
1625.7922 151.47565
1625.4369 145.65924
1630.4812 143.42342
1633.5646 146.54282
1629.2944 148.33255
1630.8936 153.3726
1628.1597 156.91396
1626.4891 161.5952
1625.7126 166.47179
1621.5299 169.64113
1617.3289 171.56078
1625.323 172.19743
1629.2214 170.35611
1631.0764 165.56088
1632.8909 160.74678
1636.7085 165.95026
1633.6128 170.82187
1628.9976 175.41522
1633.1125 177.056
1638.2267 177.2694
1637.2266 173.07506
1641.2325 170.32248
1645.6873 173.10863
1642.4962 176.23985
1647.1287 177.72688
1644.6471 180.68199
1644.1506 184.05214
1648.6758 182.98589
1650.9388 179.8807
1654.5042 176.77367
1658.4263 178.14723
1658.1261 173.50444
1653.6298 171.54158
1650.8347 175.46057
1649.5323 171.47307
1646.5275 167.70738
1642.1871 164.30432
1639.0159 160.0657
1641.26 154.97849
1637.7161 155.08247
1634.4164 156.2605
1634.0295 150.67932
1637.8348 151.13933
1637.8837 147.73282
1637.38 143.95407
1634.7214 141.41698
1637.2972 137.7583
1634.4908 134.58743
1636.5327 131.09274
1637.378 127.78864
1636.7395 124.65982
1634.2251 122.32377
1638.0139 119.77407
1634.7336 118.59138
1634.9873 115.5659
1638.7643 113.547104
1643.1843 112.83775
1647.116 112.23895
1640.6165 108.76793
1635.9004 109.26018
1634.582 112.236305
1631.3529 110.92142
1627.9799 110.88638
1625.4116 108.4366
1623.9431 104.52392
1620.6475 104.78784
1620.6423 101.295135
1615.204 101.91831
1619.6943 97.83665
1621.9038 93.40738
1626.9918 90.71251
1630.6208 86.38016
1626.1669 85.05072
1621.7004 82.91717
1620.6217 87.51152
1617.8317 90.81406
1615.7485 94.38978
1613.4615 97.78571
1610.6475 101.242065
1607.7457 97.934044
1603.8533 95.82904
1599.9731 99.01494
1599.3683 94.57063
1596.6993 91.31116
1597.248 87.49322
1600.0652 85.48168
1602.945 83.046005
1602.2285 78.18329
1607.3672 80.711235
1611.8055 78.48498
1607.1738 86.7353
1601.8368 90.135864
1606.4805 91.716255
1610.7106 93.05978
1613.4406 88.55061
1613.3613 83.95329
1617.5916 79.75686
1624.3182 78.533714
1630.6721 79.69855
1636.9028 79.06553
1643.2 78.285355
1648.0352 79.147545
1651.9089 77.582825
1652.9512 81.46535
1657.7389 80.95346
1656.9111 77.48813
1662.3801 78.414474
1665.9352 81.401855
1669.1741 77.95778
1675.5697 78.58015
1682.7141 77.63805
1686.5586 80.32928
1686.3163 86.16691
1690.0833 82.85653
1691.0879 77.94412
1694.5072 81.56497
1699.3058 82.68946
1698.659 78.266136
1704.7596 78.68861
1708.6799 82.870094
1704.1593 84.49499
1701.0596 87.612526
1705.676 90.41244
1702.0422 93.35593
1706.0945 97.75815
1702.179 98.70391
1697.1451 97.84759
1697.0787 93.58897
1697.0024 90.07678
1697.0087 86.465385
1693.384 86.4239
1689.841 87.70731
1692.0723 91.53925
1692.3893 95.980354
1691.7479 99.908035
1692.0138 104.55541
1695.2701 104.06042
1698.6182 102.38177
1702.8718 103.76157
1706.4937 105.48055
1702.234 108.44265
1696.7944 108.24829
1690.4714 108.943
1688.5618 103.7101
1686.366 99.73677
1684.9946 105.2136
1681.8212 102.157425
1678.3528 104.35105
1674.5099 103.01685
1670.8385 102.42415
1672.8132 98.28001
1673.311 94.06059
1677.7053 99.46892
1677.8829 95.459145
1677.4225 91.09662
1681.8218 93.09598
1682.8499 97.059814
1687.6863 94.85984
1686.404 90.828285
1681.9142 89.582466
1681.5466 86.435905
1683.3025 83.25304
1679.8157 80.68526
1677.1031 83.60275
1671.8623 82.21925
1676.6184 86.863205
1673.7012 89.02461
1670.0385 86.01729
1664.7773 86.16297
1670.5028 90.91421
1666.9688 90.40924
1663.7067 92.50902
1660.5015 89.300896
1657.7742 93.935005
1655.5287 89.7044
1660.7036 83.97665
1656.3533 85.16131
1652.3242 86.35894
1648.7766 84.30556
1648.7905 89.20452
1651.4603 92.68296
1653.2732 96.39966
1656.5779 98.706955
1652.2919 100.87477
1649.1396 97.61814
1645.8778 96.512184
1645.1515 92.27323
1639.1013 88.73496
1643.8336 87.79315
1644.972 83.04255
1640.3066 83.51233
1635.1554 84.86576
1633.99 90.65614
1630.5771 94.18205
1625.7688 95.91801
1626.1035 100.14746
1627.6348 104.53862
1631.165 103.42321
1631.3125 107.30884
1636.4747 105.88772
1637.785 102.65525
1634.0713 102.01224
1630.8892 98.76632
1634.6511 95.52634
1636.083 99.135376
1638.4521 96.40835
1639.0994 92.71808
1642.2224 95.88716
1640.5182 99.833755
1644.717 101.03942
1648.4827 102.80126
1641.4553 104.1516
1644.8386 106.86248
1648.6035 107.2455
1651.56 109.43626
1651.2336 113.618164
1655.4443 112.58492
1659.4587 114.78197
1659.7504 110.4232
1658.7455 106.6586
1655.4722 108.4242
1652.663 105.281235
1655.7422 103.17234
1659.239 103.05745
1660.3885 99.312836
1662.521 96.083176
1668.2416 95.4536
1667.982 99.473465
1664.6162 100.049385
1662.9141 103.244965
1663.2761 107.089615
1667.1443 104.55977
1670.7754 107.04348
1667.1721 110.03947
1663.5839 111.87152
1664.2534 116.12255
1669.96 115.18843
1671.7975 111.22977
1675.9302 112.59297
1675.3663 107.71217
1680.424 108.33045
1685.0603 109.534485
1686.0573 113.74249
1692.8516 116.00986
1689.2029 116.58587
1685.8931 119.070175
1683.4834 122.63068
1679.0548 121.4819
1681.3254 117.20169
1680.4312 113.079315
1675.3865 117.65829
1672.2129 121.03362
1667.1055 119.672356
1669.875 125.01607
1675.2877 125.23265
1680.1077 126.62904
1684.2516 127.98575
1684.7976 132.15074
1680.0234 131.65408
1675.083 130.45558
1678.4387 136.5676
1683.088 136.46335
1681.1273 142.27615
1685.9546 140.45741
1688.188 136.34647
1691.0884 140.80151
1692.8391 137.31642
1696.5602 134.577
1699.886 136.58629
1697.9878 130.95099
1693.8575 131.29303
1691.9283 133.97609
1688.7842 131.85103
1691.4966 128.74556
1688.25 128.0284
1686.5607 124.902954
1688.708 122.510345
1691.3423 120.553246
1694.5865 120.75616
1697.7139 120.51477
1697.6707 124.63709
1694.1432 124.498055
1691.137 125.16538
1695.3207 127.92159
1700.3687 127.564926
1702.1167 131.972
1703.9319 135.8449
1705.3082 139.56621
1700.9304 140.85455
1696.3851 139.01576
1695.8403 142.47487
1698.1409 145.59306
1701.3153 147.95056
1705.4277 148.75421
1702.466 144.35124
1705.6823 144.69157
1707.7943 142.63284
1710.2483 145.4777
1708.9136 148.77344
1708.4833 152.85066
1703.573 151.82965
1700.833 154.44006
1698.9729 150.7859
1695.6763 151.99669
1694.4788 148.99391
1693.2405 145.8018
1689.4342 144.3839
1684.7247 145.44135
1682.5719 149.84584
1682.3854 155.7171
1682.3627 161.76894
1678.5045 161.9763
1677.023 167.36195
1671.895 169.72205
1668.4636 172.94891
1663.1924 173.80566
1662.4307 179.49623
1666.7596 177.1759
1672.4288 175.32613
1675.8517 178.51923
1677.5225 174.42113
1675.4604 171.4023
1681.1711 166.31949
1685.2401 166.76408
1688.0339 163.7129
1685.6224 159.74399
1686.9595 151.88069
1688.8555 148.5287
1691.8153 153.49425
1687.6849 155.78172
1690.5212 159.10738
1696.0308 155.43042
1698.7701 158.68347
1702.3152 157.67581
1705.9906 156.0397
1710.0646 157.48524
1711.3632 164.60652
1708.0255 161.14815
1703.8522 160.43991
1698.5553 163.46468
1702.1333 167.9349
1703.5415 163.99005
1707.1854 165.89005
1708.0497 169.44344
1708.2728 173.26785
1708.8696 177.5169
1704.0034 172.40163
1699.278 171.772
1696.4169 168.11028
1694.7026 159.66252
1692.919 163.93034
1691.3584 168.1225
1692.2157 172.23477
1695.6545 174.4479
1698.417 177.30713
1701.7997 175.9367
1704.8419 177.65363
1705.8511 181.72804
1706.7161 186.31953
1702.6932 185.97023
1700.7294 181.15257
1695.034 180.4056
1691.5721 176.91466
1689.8066 181.43042
1683.8798 178.87581
1687.187 177.44113
1687.6962 173.74995
1687.01 170.17561
1680.9893 170.78558
1683.2471 174.10765
1680.2462 177.1293
1679.81 181.2628
1685.1917 182.4185
1687.4088 185.9151
1686.9615 190.7879
1690.9867 189.30647
1693.3597 185.20558
1698.125 185.5772
1695.6167 191.08745
1701.227 191.40509
1697.5428 196.54811
1693.5232 200.98532
1688.9187 202.6483
1691.3696 195.57391
1686.339 195.07193
1685.9487 199.31874
1681.7826 201.80269
1677.2426 201.77348
1673.6973 200.183
1670.1287 200.9588
1669.5334 196.2617
1673.425 194.56815
1677.2177 196.03967
1681.2167 197.3792
1681.8206 193.88483
1682.4902 190.9175
1682.3313 187.82828
1681.7372 184.61551
1677.2046 185.87845
1674.5093 182.59146
1670.8656 179.8231
1667.2089 182.54614
1670.5769 186.03787
1674.0095 189.49916
1678.0011 190.95801
1669.4603 190.91194
1664.8273 188.62454
1663.1245 184.7126
1658.7258 184.02357
1654.7073 181.89128
1655.7357 187.99692
1652.1588 185.98131
1647.6731 187.0005
1649.8882 190.61678
1653.7024 192.47725
1654.3516 196.5151
1658.0618 194.96645
1661.5867 196.70901
1659.2014 190.05579
1662.1895 192.62753
1665.9517 193.7284
1664.9303 197.81685
1666.6615 200.6014
1666.4639 205.00809
1671.5134 205.62251
1665.6819 210.21878
1658.9233 209.87833
1653.4915 209.87337
1653.5349 204.5231
1657.715 204.48238
1661.991 206.00119
1662.2216 201.37999
1658.7505 199.7719
1655.4097 200.32072
1651.4456 200.27206
1649.5825 196.80371
1647.7878 202.66634
1650.0308 206.56815
1646.8289 208.6957
1642.8474 205.47935
1638.8577 202.2591
1634.5839 200.12961
1630.2288 197.45592
1625.2697 192.07034
1629.8685 192.38716
1634.1486 194.55678
1638.3572 196.6477
1641.7404 193.20471
1643.1235 196.9737
1644.1664 200.47223
1646.9099 194.30649
1644.7344 190.72142
1643.8599 187.34325
1640.2972 188.27788
1638.1272 191.2944
1634.1177 189.90297
1636.157 185.9274
1640.1398 184.59593
1640.4103 180.91965
1636.1202 181.2474
1632.5583 182.40955
1628.7155 181.66994
1631.0708 186.55399
1627.2848 188.15842
1624.1458 185.19984
1621.5121 181.47461
1625.4542 178.81265
1622.1458 174.90863
1619.0645 177.40344
1586.6742 197.65701
1582.5806 199.00494
1575.9822 199.34674
1570.0952 197.79861
1574.3627 194.22163
1579.248 195.68672
1583.5287 193.05034
1579.1749 190.61998
1582.2561 187.0066
1578.0254 184.95967
1574.9869 188.5609
1571.047 185.22105
1574.4515 181.66621
1569.5525 180.78992
1567.1957 176.2152
1563.2227 173.62495
1565.7925 170.38344
1566.9493 165.93391
1563.7302 162.72365
1562.0306 157.33852
1557.8234 161.5728
1555.677 157.60257
1560.5392 152.12872
1566.5712 153.8968
1568.073 157.73518
1570.0522 161.46236
1572.8882 165.04095
1575.1433 160.65512
1573.8206 156.3869
1573.3274 152.50766
1574.9597 148.14659
1574.7551 142.46243
1574.2719 136.8895
1576.0144 131.90465
1578.2281 125.96196
1582.1129 121.89206
1577.3 121.18415
1572.9221 120.94801
1574.3516 126.97091
1570.7593 129.3049
1565.4841 130.52849
1567.1069 126.076454
1570.8988 124.15796
1566.6268 121.69675
1562.7526 127.09139
1561.119 123.39113
1556.783 122.43344
1556.1191 117.70114
1554.844 111.72398
1559.813 110.84649
1560.0566 115.320145
1562.8802 119.05325
1565.9764 115.61543
1564.3672 111.99115
1566.9419 108.98089
1569.4237 106.99142
1570.3933 103.833565
1567.328 102.49088
1564.937 104.76015
1562.7347 107.68162
1562.3317 101.105156
1565.1809 100.1324
1566.8369 97.55807
1570.0148 97.314964
1573.3102 97.81066
1570.3217 100.561844
1574.2839 102.03701
1577.6138 99.84788
1578.7654 103.526985
1581.8816 100.536865
1576.9443 96.60308
1574.3385 94.03777
1577.2084 92.22387
1580.4175 95.578064
1582.6033 92.15714
1586.7716 94.03056
1584.1846 96.919174
1587.0889 99.365746
1590.9016 96.99434
1590.7681 100.694916
1589.0464 104.13899
1585.2822 103.17342
1582.4717 105.74252
1580.3896 109.25571
1584.3745 109.63467
1587.707 107.829765
1586.8145 112.839584
1581.2052 113.33231
1577.0365 111.81702
1577.1256 106.87005
1573.3901 105.74964
1573.2404 109.45165
1569.6521 112.2574
1569.9131 117.58979
1573.3134 113.799545
1575.4971 116.810486
1579.815 117.399994
1583.8341 116.73807
1587.0366 118.13707
1590.8453 115.76242
1591.9629 112.24576
1596.2047 109.57784
1591.8815 108.37549
1593.0239 104.87973
1594.4901 101.35859
1596.0901 98.38552
1594.4498 94.50003
1590.6105 93.127815
1593.3983 89.057846
1589.9685 89.3026
1586.5447 89.89566
1583.6738 87.82133
1586.4025 84.62482
1590.1823 84.89357
1594.3494 84.99754
1593.2666 81.550476
1597.7646 80.59538
1593.6136 77.499245
1588.5538 79.76255
1583.2974 80.28629
1577.4883 82.51742
1581.2667 84.5889
1579.4766 88.83203
1575.4403 88.06573
1573.3154 84.3244
1570.6023 86.98092
1568.7593 89.86983
1572.0908 90.58786
1571.1855 93.74877
1567.8619 94.1117
1566.0668 90.89675
1566.1075 87.24785
1561.2888 91.45701
1564.1594 93.28347
1563.2928 96.504036
1559.5869 95.36752
1559.3395 99.09602
1555.7075 101.575966
1560.0787 104.04573
1557.4327 107.199135
1553.5013 106.68914
1551.6008 115.12662
1551.3406 121.40098
1553.6573 127.52489
1549.4398 127.804405
1548.4453 133.29694
1552.3531 134.05641
1556.4724 134.45358
1557.8068 128.54965
1560.8337 131.75615
1563.3013 135.14763
1569.1771 132.8084
1568.9937 136.27899
1570.2068 140.54695
1570.975 144.66289
1570.3019 147.87187
1569.2272 150.94809
1564.9219 149.54517
1562.3113 146.55981
1566.3871 144.30043
1565.369 139.28918
1561.6061 142.0624
1559.8304 137.89845
1556.6868 140.74875
1552.7698 140.28856
1548.6807 139.31291
1549.1228 145.34464
1553.487 145.22412
1558.4259 145.67706
1555.984 148.90825
1555.421 153.2665
1551.4948 150.70871
1547.8005 151.77873
1550.1953 157.63417
1551.4473 163.27948
1552.4464 168.78777
1558.2523 165.93692
1559.9647 169.5248
1558.4011 173.73622
1552.7244 173.8175
1552.2626 179.81569
1556.6494 177.56541
1561.924 178.25255
1565.3518 181.5218
1561.3477 183.68665
1557.3439 181.99138
1555.5347 186.24486
1557.1064 191.19556
1561.6715 188.02747
1566.4424 186.87485
1570.7444 190.42268
1567.1387 193.15237
1562.2748 192.87958
1558.2223 197.39009
1564.0626 198.31926
1560.7189 252.13911
1551.9722 253.11192
1557.587 255.0235
1564.4799 255.10634
1569.4667 253.80304
1573.7936 256.4726
1577.4363 253.00093
1579.1472 259.07083
1578.6351 265.16977
1578.3418 269.94458
1578.0782 273.88248
1578.0366 278.37448
1579.1384 282.6313
1573.6389 276.70395
1572.8024 271.30194
1573.2239 266.72256
1574.3146 261.805
1569.7052 261.2418
1565.7982 260.35825
1561.709 259.31293
1557.8253 259.5286
1555.0642 262.63657
1553.608 257.64474
1550.7043 260.7834
1551.8444 265.97464
1556.3984 267.1032
1559.5918 263.79224
1563.3109 265.32068
1567.6934 266.4311
1568.0638 271.01538
1563.6654 270.82635
1559.9402 269.62494
1555.8381 271.82828
1551.4343 271.23315
1551.1422 279.23178
1553.8188 276.3388
1558.1392 276.13748
1561.8314 275.39954
1565.8666 275.65128
1569.7615 275.57996
1569.1163 280.29807
1564.0471 280.53995
1559.8616 280.99963
1555.5739 281.94666
1552.1147 284.33167
1550.9567 288.1954
1555.1785 288.4003
1559.7048 285.3924
1567.0542 284.86316
1573.1969 282.85706
1573.5952 288.68
1577.1614 286.579
1579.8188 290.37704
1577.1536 294.30014
1572.4812 294.2725
1569.7281 290.1163
1566.2395 289.8264
1562.9811 288.43835
1559.444 289.87198
1557.6987 292.7859
1554.3739 294.51974
1551.3383 292.35095
1551.8687 297.6655
1551.1282 302.26062
1553.4679 305.44403
1552.2793 309.25467
1554.7538 312.40372
1552.7429 315.75317
1552.699 319.63464
1554.5865 324.6069
1551.232 323.48715
1548.3207 322.09628
1545.7295 320.20908
1548.5013 317.51187
1548.9474 313.09326
1543.9385 313.40414
1542.9929 317.56787
1539.0737 314.54306
1534.1968 312.87073
1534.1644 317.0802
1529.182 314.69434
1522.7997 313.36786
1525.7662 317.67853
1527.5773 322.318
1523.617 324.74814
1522.8646 321.09018
1519.8274 317.8172
1516.1152 313.58728
1515.0576 318.35294
1512.7383 322.2754
1515.9777 324.15695
1519.2638 323.09827
1520.4972 326.91724
1517.6742 328.3396
1516.1375 331.7137
1512.999 327.775
1508.5189 328.84628
1508.741 324.72818
1508.6764 320.75702
1510.1012 317.06668
1509.0168 313.04648
1502.6647 313.6741
1504.4418 317.65924
1504.3057 322.18393
1504.1277 327.50012
1506.7782 333.53125
1511.4429 332.72946
1514.4761 336.12134
1510.24 338.2666
1508.7314 342.59943
1512.1257 345.77716
1514.7129 342.43396
1517.1979 339.83875
1518.7883 336.27225
1523.0483 336.0292
1520.1295 333.27475
1521.3782 330.67502
1523.1832 328.4939
1524.1343 332.4744
1526.1863 334.54993
1525.9514 338.70947
1521.5441 339.6118
1523.5146 342.59137
1519.822 344.3379
1516.6836 347.45514
1512.1023 350.6538
1516.7383 351.59848
1521.8704 349.46933
1524.9784 346.24405
1527.6536 349.45975
1532.4463 349.9488
1536.5483 347.7721
1540.6687 351.51685
1541.0024 347.36148
1543.8152 344.52023
1540.121 342.61954
1535.9266 342.7664
1531.6105 345.0164
1527.4683 342.98065
1530.2906 340.77597
1530.0188 337.5726
1528.6105 335.40714
1532.0033 334.60812
1528.9358 332.46524
1526.536 330.2866
1525.9261 327.08
1529.0247 326.8389
1531.9877 324.76495
1532.122 320.65625
1538.1384 319.79965
1536.3829 324.08835
1536.4374 328.5307
1533.2926 328.3584
1530.4846 330.1346
1533.8801 332.18604
1536.9055 332.37006
1539.6913 331.05585
1539.7494 327.71588
1540.5105 324.55545
1542.5507 322.00256
1546.47 325.03458
1543.7864 326.81888
1542.8706 330.4477
1542.6935 334.4887
1539.5629 334.6443
1535.8202 335.84085
1533.7263 338.9777
1538.2515 338.6089
1541.9219 338.25528
1544.6305 340.2873
1547.3707 342.56204
1548.6 345.66263
1551.9545 342.1285
1555.0525 339.45404
1559.0115 339.30148
1563.3616 339.0771
1567.2605 337.23184
1563.3488 334.97687
1559.7141 335.3303
1556.2355 335.30573
1553.2754 336.17468
1550.6864 337.09125
1548.823 339.39233
1546.2168 336.58594
1545.7291 333.16754
1549.4857 332.9842
1546.6978 329.79556
1549.3175 327.4003
1552.1626 328.56448
1553.2987 332.2377
1555.701 328.16153
1559.1616 327.9434
1557.6587 331.71243
1562.0426 330.78333
1566.564 331.9716
1565.1434 327.76273
1567.4562 325.04575
1570.4834 323.7725
1573.7643 322.57364
1576.3262 318.65796
1570.685 318.68478
1566.559 319.93643
1561.8055 320.02255
1564.0375 322.74893
1561.9019 325.65414
1558.9246 323.55475
1556.2451 321.35925
1557.4231 318.52457
1557.6064 315.19733
1561.2844 316.90524
1566.7621 315.8723
1563.943 314.7384
1561.801 312.4918
1558.8534 311.41092
1557.7141 308.1145
1558.8433 304.21512
1561.4008 300.49426
1555.7657 300.66583
1558.3663 296.90137
1562.835 294.38492
1567.4945 295.44788
1565.7697 299.96307
1566.653 304.5328
1562.7173 307.37924
1566.2177 310.43326
1569.9069 313.2078
1573.7087 314.62466
1571.0265 308.2874
1573.2563 303.76593
1571.3895 299.4775
1577.867 298.938
1578.9548 303.60873
1577.4402 307.82663
1576.4722 311.59128
1579.8228 314.71512
1582.2255 318.33124
1580.9797 321.89496
1577.5928 324.00134
1574.7781 328.05148
1570.4313 328.78452
1571.0763 333.1002
1575.0837 334.68222
1577.7262 331.54172
1579.8523 328.06705
1583.0494 325.54404
1586.6066 327.21936
1590.4382 324.19385
1586.4661 321.8562
1591.0889 318.92035
1586.7145 316.82874
1584.5648 312.67114
1591.2911 313.74057
1594.6602 321.7376
1599.0056 320.65164
1595.8887 316.76276
1597.7922 312.86908
1601.2393 316.75583
1603.7346 313.17737
1606.4337 317.34338
1608.2476 313.59268
1611.4436 314.74777
1615.0522 316.35965
1615.2717 312.66055
1619.9962 313.81693
1622.3503 317.28336
1626.5383 314.1147
1633.0507 314.10944
1630.6423 318.43884
1626.1652 319.74927
1621.7062 321.87277
1618.6173 319.34708
1614.9535 319.8134
1611.1545 319.52917
1612.171 324.78214
1608.1605 321.8423
1603.7366 320.58224
1604.9092 324.462
1601.3604 324.6606
1597.963 325.42017
1594.5 326.55872
1591.2391 328.7969
1591.314 332.68668
1587.3856 331.08078
1583.1147 331.27985
1580.2107 334.80856
1584.6504 335.7031
1588.2401 334.81265
1588.7961 338.65765
1592.0872 337.18738
1595.6973 338.7694
1593.1195 342.02097
1589.3175 342.5114
1585.6545 340.7443
1582.864 339.38065
1580.0345 338.02475
1576.9692 338.82965
1573.9077 339.79987
1570.9578 337.96844
1569.5254 342.94693
1565.6421 342.52576
1566.0321 346.87854
1569.8271 348.18793
1570.7278 352.0316
1567.2482 353.01288
1563.7584 350.63477
1559.3436 350.95496
1561.0542 346.328
1561.1782 342.57935
1556.6489 343.35577
1553.0486 346.144
1556.6041 347.76556
1554.5317 351.61346
1550.5203 349.07138
1545.666 349.02576
1550.1488 352.90942
1551.8865 356.67282
1556.361 355.72986
1554.5807 360.21646
1550.6063 361.682
1551.1715 368.3968
1553.5402 365.05707
1557.2583 363.73138
1559.5544 366.45465
1561.9434 369.52972
1559.5049 372.97925
1556.1357 369.74292
1552.2074 373.27472
1553.9612 377.0978
1556.301 381.5004
1559.8608 377.1264
1562.7896 380.8945
1559.6912 384.7691
1554.9038 387.09415
1551.3595 382.4534
1550.9904 389.68692
1553.5809 393.2581
1557.9563 391.5435
1561.1506 388.63623
1563.7836 392.27264
1565.5951 386.93442
1567.7505 382.61087
1572.0171 380.3461
1567.9369 377.6387
1565.0632 374.5234
1571.7336 373.52682
1569.1093 370.89597
1565.5447 369.4337
1563.0354 364.34586
1564.8281 360.6449
1559.6477 359.9752
1560.8649 355.32495
1564.8967 356.20724
1568.7678 358.98105
1570.805 356.0604
1574.2219 350.51517
1573.8412 347.02588
1573.066 343.56744
1576.8785 343.854
1579.566 341.6163
1581.6755 343.77124
1585.4121 344.6641
1583.9729 348.29745
1581.2988 346.8669
1577.8536 347.78107
1580.6494 350.6724
1577.3387 352.40607
1574.3047 354.89038
1577.6677 356.90015
1580.8 355.4469
1577.6504 360.22937
1573.5182 359.57
1570.4888 362.71298
1567.4219 365.48282
1571.8987 366.89297
1575.401 363.66168
1580.4775 363.4416
1577.5536 367.0049
1574.7595 369.89865
1579.9489 370.77286
1576.9646 373.64944
1574.3334 376.5957
1580.1327 377.31003
1577.1945 380.43152
1579.6436 385.97955
1575.1707 384.77762
1571.3606 387.03568
1569.6746 391.8048
1576.9908 391.20343
1584.443 426.34412
1588.7727 424.4995
1592.9354 422.37122
1593.9666 426.7542
1597.2495 429.92413
1601.7051 431.59042
1597.8566 435.0565
1593.1969 433.39545
1589.1272 435.96997
1593.814 438.74933
1592.096 443.31433
1588.861 442.12744
1585.7828 440.10626
1584.6572 435.80002
1589.8479 429.7812
1585.3494 431.43362
1580.4976 433.51175
1580.865 428.75507
1576.8342 429.41794
1572.2318 432.2552
1567.8627 435.57184
1568.4065 440.2168
1563.864 440.71423
1560.4606 444.92523
1558.2589 449.35483
1565.4146 445.1253
1569.8145 444.8272
1573.249 442.40775
1576.9078 440.76724
1572.5916 437.62512
1575.6532 433.70294
1577.3918 436.82794
1581.4214 438.08096
1581.1868 441.52887
1581.4534 444.92017
1577.6207 445.97955
1573.8082 447.13675
1571.3396 450.69006
1567.7708 448.76868
1563.2709 449.16293
1562.1179 452.88138
1555.8702 453.2534
1554.7802 457.81665
1552.0682 461.4801
1549.167 468.5186
1550.5388 473.42032
1552.6971 469.8178
1553.1812 465.52734
1557.4006 461.6117
1558.5236 465.5973
1562.2441 467.67642
1559.093 471.69702
1556.5593 468.7272
1555.4453 473.19138
1553.4983 476.4408
1556.6576 478.11652
1560.1917 475.7988
1558.4912 480.95856
1558.3042 485.0215
1561.2104 484.19415
1562.507 479.21005
1563.8939 483.40756
1566.4213 485.9505
1565.6848 490.02515
1560.6792 489.433
1562.6697 494.89978
1568.391 494.07568
1565.4773 500.72153
1570.5652 503.75406
1568.8285 511.04147
1566.1249 507.30096
1562.0691 508.3344
1560.1576 500.12036
1555.8019 500.6836
1556.7844 494.28052
1555.7843 487.71567
1553.9468 483.67856
1552.1212 480.02856
1548.5887 477.4364
1549.3064 483.40982
1549.3057 487.70288
1553.1393 490.70963
1549.2683 494.2608
1551.4917 498.31146
1550.3451 503.7791
1554.4097 505.10947
1558.5515 506.98474
1554.9314 510.52075
1550.8226 511.62207
1557.0345 515.1951
1563.765 515.286
1559.0988 520.595
1560.5256 526.63196
1564.7974 523.2048
1568.2864 519.57733
1570.6456 525.8724
1567.1743 528.0547
1564.1992 531.59265
1568.8998 532.5688
1572.3901 530.2657
1575.7444 529.45544
1575.8756 525.19507
1572.9255 522.61884
1577.4445 519.9601
1573.9941 517.9979
1571.5835 514.4686
1574.1543 507.974
1577.2101 512.19135
1580.172 515.54974
1583.0557 510.7427
1579.3611 506.16147
1576.3198 500.91684
1571.9822 497.71277
1574.3834 492.42484
1571.1621 488.07062
1575.2659 485.1931
1572.5724 482.3873
1569.2021 482.8039
1566.4073 479.99033
1569.8905 477.60886
1565.0747 475.51257
1563.162 471.8447
1567.0863 469.5968
1568.7036 473.41428
1571.4907 468.67053
1572.2783 471.92255
1573.7594 475.11942
1574.7361 479.10117
1577.8297 474.86978
1576.2793 470.69974
1580.3552 470.03165
1580.5193 466.08423
1577.1932 466.72034
1574.0679 466.46268
1570.7323 464.86523
1569.1389 461.7785
1567.5634 458.95795
1566.3186 465.27454
1562.5691 462.8833
1562.4402 459.03094
1559.4794 456.3063
1565.4182 455.88593
1567.6711 453.01154
1575.4395 451.36728
1579.1874 452.78217
1581.0468 449.81265
1584.5309 448.77863
1585.9009 445.0008
1589.6315 448.1665
1588.4353 452.58365
1583.9486 454.66486
1581.0823 458.24002
1576.9878 456.3282
1571.8784 455.509
1573.4023 459.43646
1574.7122 463.01675
1577.9622 461.61023
1581.9263 462.23264
1585.2039 464.32516
1586.4646 460.04514
1589.6465 457.23325
1594.3689 457.71024
1594.1108 452.29285
1594.6339 447.59122
1596.6136 443.48822
1599.8575 439.8504
1603.2771 436.6173
1606.1235 433.7251
1608.886 432.04028
1605.4785 428.82556
1609.7013 428.45786
1609.1941 424.70972
1605.438 424.02237
1602.3323 426.31067
1598.8998 425.50412
1597.4171 421.51105
1601.7625 420.81894
1605.827 420.13055
1609.4912 420.06345
1613.1536 419.8962
1613.3885 424.98462
1613.5034 428.98276
1617.1511 428.18088
1621.057 429.15753
1619.3159 433.01782
1619.9813 436.87912
1620.7283 440.49423
1624.0088 432.69827
1624.3716 437.25223
1625.0527 441.48526
1622.1844 443.57837
1621.639 446.64334
1619.5106 449.58298
1623.6545 449.5449
1622.249 453.72385
1618.1482 456.19308
1616.1521 453.53268
1615.9379 449.1493
1614.0575 444.8639
1618.3043 444.6731
1616.2976 440.7596
1615.2717 436.87064
1615.1776 432.97778
1611.9062 432.53372
1610.0555 436.84183
1611.3892 441.1634
1605.9326 440.96478
1608.5481 445.5416
1611.7344 448.8868
1604.5656 448.02246
1601.2292 444.69833
1599.8356 450.0488
1599.0083 455.16562
1604.3369 454.8858
1607.7783 452.02692
1611.8871 453.90735
1612.6624 459.1954
1616.7457 461.54514
1615.5953 465.88052
1611.9878 467.8679
1612.8086 474.9431
1616.0256 471.7673
1619.6995 469.19638
1622.6206 472.68256
1624.3107 476.0687
1629.054 476.50073
1628.3241 471.45758
1624.8708 468.38153
1621.3501 464.3851
1620.699 458.97046
1624.8262 459.5167
1628.125 456.07373
1631.6625 452.68637
1626.5413 451.98602
1628.843 448.60385
1625.3079 446.07376
1628.5181 444.9104
1633.2258 448.64093
1632.5989 444.81067
1628.9 441.59195
1628.7081 437.95636
1633.1238 436.63004
1632.921 440.84894
1637.0933 438.79495
1636.9746 443.5131
1637.177 447.95578
1636.9368 452.88458
1635.0922 457.05594
1636.365 461.99298
1630.8694 460.7588
1627.181 464.3051
1631.8503 466.90887
1636.7273 467.3034
1637.0663 472.22806
1632.8945 472.43607
1633.9697 476.88928
1637.8801 476.60825
1636.4551 480.54932
1637.831 484.2295
1635.4615 487.5471
1637.1783 490.61667
1637.2639 494.83652
1636.7068 499.80267
1637.5933 504.8631
1633.3262 503.89032
1631.0183 500.6503
1629.0182 505.3414
1630.1871 509.02173
1634.4165 507.9524
1637.55 510.71106
1633.2515 512.8068
1636.7925 515.86096
1634.4373 519.52185
1628.3041 513.4494
1625.4038 510.19034
1620.9417 509.6808
1620.5304 504.26483
1625.6665 503.90875
1624.5822 499.34354
1618.8951 498.59863
1621.1876 494.17072
1620.1222 489.20822
1617.3572 484.5178
1622.4048 484.31503
1625.5192 486.9673
1625.772 490.9885
1626.669 494.93967
1629.8615 497.01813
1633.5806 495.55878
1631.5974 491.27045
1630.1287 486.96216
1633.3661 484.10907
1631.4246 480.45102
1627.7974 482.64413
1624.8835 479.98373
1620.4092 480.19415
1618.6946 475.82654
1615.9277 479.29694
1612.5609 481.19183
1612.437 486.28064
1614.6342 489.7103
1615.0065 493.94086
1612.4849 498.21036
1615.0795 502.6151
1613.6123 507.49365
1615.7471 511.77835
1612.9323 516.40344
1618.7153 515.7152
1623.4897 516.68506
1629.6775 517.2432
1630.4359 521.9584
1626.295 521.91223
1622.0885 523.01227
1624.6262 527.88776
1620.2247 528.7
1615.2681 530.83044
1613.754 527.1775
1617.921 525.21454
1617.6154 520.27655
1613.3477 522.3974
1607.7456 520.45557
1609.3031 524.83527
1604.0923 526.12756
1600.051 526.41296
1604.2539 522.5173
1600.3749 520.4675
1595.4155 517.10767
1595.6609 520.69183
1596.5334 524.43036
1592.3914 526.71533
1588.0219 527.5692
1584.296 531.9193
1584.5251 527.917
1581.7592 526.67584
1584.8281 523.5658
1588.7087 522.5325
1592.2651 522.4066
1590.686 517.9448
1589.349 513.5431
1585.3527 515.1757
1586.0242 519.1092
1581.9248 519.7118
1579.8424 523.32385
1578.7593 527.3602
1579.9913 531.07776
1578.2468 534.50226
1573.6395 534.19824
1568.5419 536.90875
1572.7448 538.1458
1574.9524 542.1688
1577.1398 538.70905
1581.1206 540.04755
1583.3134 536.39343
1587.9883 534.6055
1591.7869 537.13727
1587.4773 540.0497
1589.1262 544.75305
1583.9583 543.8909
1579.6326 544.81793
1585.4199 548.47504
1591.1672 549.9939
1594.0408 546.35583
1596.9976 551.576
1602.3557 553.10297
1608.3196 555.623
1609.7216 551.1491
1605.6184 549.18726
1601.6013 546.68695
1605.202 542.5698
1599.8868 541.78864
1597.3706 544.5537
1593.739 540.9634
1597.3036 536.9563
1593.8422 533.07556
1590.4164 530.7146
1596.2454 529.0534
1598.7141 532.3716
1602.5052 534.9802
1602.0791 538.98346
1606.346 538.4068
1607.2288 534.2025
1602.7979 530.5889
1606.8447 529.26276
1610.5557 530.3549
1611.893 534.549
1610.0149 538.55817
1609.6167 542.4492
1607.7593 545.7264
1611.2015 546.62744
1613.0791 549.2734
1612.8848 544.35767
1615.3031 544.8709
1618.1707 544.6093
1623.0476 546.0002
1619.7998 547.2821
1620.2311 550.454
1616.3712 548.3792
1615.2363 552.51355
1614.2382 556.4287
1617.6002 559.1368
1620.2279 557.2553
1622.835 559.02795
1624.2225 561.2988
1626.0276 587.827
1620.2074 588.88916
1625.5665 593.05273
1620.9814 595.14594
1617.4454 599.4342
1620.9364 603.05054
1624.9181 600.9592
1629.4717 603.041
1631.6378 607.38586
1627.2074 609.19995
1623.1967 607.60736
1617.5659 606.0537
1613.8141 606.9987
1611.3999 610.723
1613.9995 614.02765
1609.3881 614.8193
1605.735 616.288
1601.1396 621.84717
1599.8215 616.7831
1602.261 612.62885
1606.3062 610.8822
1603.9712 606.794
1598.9728 608.9263
1599.9781 604.57294
1597.4333 601.0444
1600.389 597.85535
1604.3035 602.28094
1608.6414 606.6203
1610.8068 602.089
1613.1946 596.71545
1614.8816 590.6797
1609.2104 590.52844
1603.3363 589.72437
1608.0261 595.9142
1605.0273 598.4622
1601.4723 593.5141
1594.6125 591.91565
1595.3315 596.6116
1587.9775 595.75964
1590.854 599.947
1594.8638 604.8185
1591.0826 606.894
1586.445 604.8542
1589.4526 612.2441
1595.6702 611.9538
1594.6309 616.61523
1592.6185 620.3884
1588.7107 617.8407
1584.2278 616.3297
1583.0234 611.14026
1581.672 605.03534
1581.9326 599.48773
1582.772 595.26276
1576.7639 599.9602
1577.8325 607.3306
1576.5228 611.37634
1578.9028 615.66223
1581.3666 621.2882
1576.2014 619.6004
1575.6381 623.779
1576.3892 627.74884
1571.3904 627.0537
1570.8162 622.10175
1566.3585 619.16003
1570.4039 617.07513
1573.3501 614.5975
1572.347 608.76434
1574.1143 603.5792
1569.7902 602.95306
1565.8079 606.5981
1561.9463 610.17377
1568.5024 609.78796
1566.6116 613.43726
1562.6759 614.6719
1558.4935 613.81744
1555.8533 617.3805
1561.1364 618.2245
1559.7163 622.45245
1563.919 623.28076
1566.8271 625.5259
1566.042 629.4221
1562.2764 632.2361
1556.5991 633.0449
1559.7375 627.6998
1554.5665 621.14746
1553.917 625.6935
1550.9703 630.25946
1551.2031 636.3322
1549.1649 641.06177
1547.8369 647.07764
1548.2441 652.37366
1550.3591 658.2194
1555.3553 657.4043
1552.1376 654.0732
1553.2322 650.1671
1556.8998 648.28357
1551.5168 645.8511
1554.8763 643.237
1556.669 639.20685
1560.9955 636.7812
1567.0627 633.7611
1565.4087 637.8562
1566.6938 642.8297
1561.5358 641.58954
1559.8265 646.01733
1557.9172 653.30457
1560.5133 658.35126
1564.7384 661.33636
1562.1763 665.61444
1558.9984 662.3743
1554.8491 662.32776
1551.0044 663.27594
1553.7462 667.75415
1558.2604 667.46466
1561.335 670.9102
1565.9141 665.39825
1565.494 669.5434
1568.6279 672.0665
1573.6392 671.6847
1577.0063 674.266
1573.5288 676.8181
1569.7625 679.36536
1573.0731 682.2467
1577.0912 684.9106
1581.5686 682.56964
1577.4535 679.578
1581.7831 677.41583
1586.4667 679.5466
1590.3645 685.00446
1592.4557 689.8501
1596.8953 692.32605
1598.0239 688.3757
1601.6211 691.7939
1607.4736 693.78094
1603.701 694.62885
1599.5002 696.86084
1594.4386 695.564
1594.4172 700.0332
1598.376 701.6577
1602.4303 701.4212
1604.3002 698.066
1607.5056 700.2833
1606.1917 703.60486
1609.0852 705.2667
1611.1669 707.22797
1613.2036 709.80145
1612.0454 713.58
1610.8053 716.609
1606.4313 713.9679
1609.2384 710.93353
1606.1218 708.67285
1602.1726 710.7767
1602.8601 705.67554
1599.5867 707.2197
1596.1311 709.9819
1596.0603 705.5586
1592.5587 704.4281
1590.9712 707.56903
1586.8678 704.8253
1586.2177 708.6499
1584.5916 711.68115
1580.6445 712.128
1577.3887 709.00726
1575.8851 713.3766
1578.7207 716.8631
1571.5125 714.43207
1568.5388 711.54034
1572.6729 708.67676
1570.3236 703.4931
1572.1653 700.1856
1576.9873 700.2212
1576.4386 704.6666
1581.7754 706.57904
1581.5181 702.31726
1581.8857 698.6097
1584.7894 695.8968
1586.1942 700.5962
1590.2834 701.24963
1589.9469 696.55646
1587.9192 692.9421
1586.5757 689.35333
1585.7717 684.76654
1581.6168 687.696
1577.116 690.08105
1581.7688 692.18085
1579.3182 695.4846
1575.1841 696.01434
1572.9048 692.39124
1569.0105 695.6372
1563.1608 692.9296
1568.1565 689.5226
1572.4913 687.14056
1568.0361 683.7265
1563.4366 683.18353
1564.8281 678.9066
1569.071 675.5901
1564.3325 674.53937
1559.9924 675.14484
1556.1649 672.4269
1559.5897 678.9389
1556.8936 691.93945
1551.2844 690.89813
1550.6018 694.6478
1553.9678 697.3238
1548.394 698.1836
1548.4995 701.8431
1552.298 701.7337
1556.038 701.0815
1559.1329 696.31775
1560.3367 700.41095
1565.479 699.06036
1563.2511 703.72424
1567.9291 706.1245
1564.6753 708.14667
1564.1188 712.6478
1562.4209 716.4479
1561.538 720.3038
1556.7816 718.65106
1558.6449 713.74713
1553.5872 714.21844
1551.0237 717.6708
1552.0658 721.57275
1548.0092 720.9848
1544.4172 719.7858
1540.7327 721.16583
1545.5968 716.47705
1547.8672 713.9313
1548.8405 710.6103
1552.168 709.59357
1556.2179 709.7712
1560.4663 708.68506
1557.9822 704.92487
1553.7848 705.8177
1550.0547 705.296
1547.0297 706.4469
1544.6199 708.8956
1542.4202 711.6482
1541.7133 715.5112
1538.5779 717.70264
1537.157 713.64014
1538.6244 709.5919
1540.9811 705.43665
1544.5192 702.35284
1543.9644 696.27527
1545.3425 691.7314
1539.0273 692.00165
1531.859 690.794
1531.5835 694.6279
1536.1295 696.244
1540.5715 699.30304
1536.8557 701.8701
1535.7938 706.28265
1531.4082 705.8426
1532.387 701.35754
1529.6744 697.97034
1526.2451 694.0059
1524.9103 690.4842
1520.2134 692.0107
1515.3842 691.93427
1510.9489 690.4701
1509.634 694.71075
1513.1527 696.3565
1511.931 700.001
1509.5073 702.83405
1505.1943 705.16034
1505.896 699.00134
1506.1517 692.4493
1501.5933 691.1718
1501.3254 695.63824
1496.1398 691.9459
1487.5569 688.08923
1491.4172 693.7798
1495.1422 698.09937
1499.8344 700.4178
1490.9839 701.4469
1490.8201 708.77716
1495.187 705.14984
1500.2063 705.41437
1505.6702 712.0205
1501.4506 710.1757
1495.0327 711.45575
1498.7258 714.8828
1499.0841 720.0506
1493.6876 717.9841
1488.5771 716.0379
1490.7263 723.5839
1493.0072 727.3668
1496.7875 724.24146
1501.7029 726.226
1503.855 716.7593
1504.8933 721.4133
1507.6196 725.5496
1512.81 726.0485
1516.3386 723.5807
1520.0519 726.7133
1520.4023 721.6253
1511.4935 720.51495
1513.959 715.231
1509.108 716.0483
1509.8315 710.80054
1510.0521 706.9395
1514.2671 705.04
1518.0408 704.4896
1516.9008 700.44086
1518.1183 696.3904
1523.1371 696.85315
1521.9879 701.1647
1526.6923 700.9331
1527.5425 705.63776
1524.1981 705.93286
1521.1282 705.72406
1524.1963 710.4438
1519.2501 709.24615
1514.6637 710.15674
1518.8534 713.4998
1517.8241 718.24286
1522.9893 715.0844
1524.1951 719.24695
1523.8646 724.09265
1527.4152 727.1293
1527.6868 722.97943
1530.707 719.9446
1527.9022 717.2873
1527.5414 713.50977
1529.4884 710.078
1533.8073 710.5283
1532.0604 714.7884
1534.5646 717.8215
1535.8964 721.7879
1531.7899 724.09454
1534.3357 726.74426
1538.3527 725.3912
1541.6515 726.5671
1544.516 723.71515
1545.7228 727.29016
1548.7295 725.0455
1551.0065 728.0733
1552.9175 725.3345
1556.3701 722.92804
1556.8512 727.2915
1560.5857 725.2789
1565.3315 727.1873
1564.6552 722.5976
1567.5718 717.82733
1568.5476 724.086
1572.6179 728.44183
1572.6968 725.2875
1571.769 721.3839
1573.679 717.94104
1576.8922 720.8584
1576.9147 725.0672
1580.9379 726.79913
1588.6106 727.1841
1592.5581 723.87805
1596.7898 726.7759
1595.4922 718.6529
1592.0503 717.5768
1588.8098 718.8106
1587.4408 721.8547
1584.6349 724.5357
1581.2136 721.9858
1582.7762 718.1755
1584.9866 715.7328
1588.5975 714.086
1590.6443 710.83923
1593.3848 713.5766
1597.4485 714.1105
1601.282 714.59534
1603.826 717.32886
1606.9296 718.8275
1603.6792 721.29816
1599.9567 718.8729
1597.4888 722.43506
1601.2411 724.4903
1603.6262 727.1899
1606.0588 724.0652
1608.9988 727.17883
1614.739 727.6096
1612.6056 725.13477
1609.4774 723.4081
1609.712 719.90234
1613.0735 721.09546
1614.8845 717.95557
1616.9877 714.76056
1616.137 711.94275
1616.8552 708.5704
1620.4344 710.7957
1618.8981 718.3013
1620.1528 722.1268
1616.3333 723.3199
1619.5881 726.4766
1624.3689 725.64417
1623.9482 720.15063
1622.2166 714.8413
1626.8014 716.3014
1631.6544 717.543
1631.3457 713.0613
1627.2966 711.23206
1624.1277 708.80756
1619.4893 705.72034
1614.6287 705.43866
1611.0265 701.64484
1609.0558 697.22
1612.1663 694.6632
1614.3958 697.66974
1614.3445 701.9342
1617.546 701.03516
1621.3214 701.244
1624.2518 704.39874
1628.879 705.07495
1632.4158 708.5021
1634.7231 704.3289
1636.7943 700.0302
1640.6989 702.0673
1639.8514 705.4352
1644.468 702.22314
1647.8022 702.12006
1650.7224 701.8603
1654.8282 704.3288
1656.7405 707.56195
1651.2736 706.25995
1649.5654 710.2069
1653.9214 711.8127
1654.9894 716.8869
1650.4226 716.7129
1646.3934 715.40845
1642.9647 718.9173
1641.1721 714.24854
1645.522 711.2395
1645.4965 706.4907
1641.7448 709.54614
1637.4481 709.3042
1635.8364 713.37317
1637.6555 717.4624
1634.4688 720.4869
1635.094 723.6849
1628.7671 721.57825
1629.4092 725.94635
1633.8053 727.05023
1638.6426 726.4321
1639.5787 721.94934
1643.3877 723.96014
1643.0962 727.4995
1647.6952 726.12683
1647.4673 721.2745
1652.5465 721.7169
1652.8596 726.313
1658.1606 726.1076
1657.3776 721.4065
1661.8352 719.2984
1664.876 715.0127
1659.2623 715.2946
1659.7294 711.38983
1661.3035 707.9674
1664.8385 709.1184
1668.768 709.2101
1669.5325 714.1605
1674.1305 714.40704
1673.7843 710.60516
1673.1616 706.70593
1671.9513 701.67816
1676.8235 699.5893
1675.0588 703.11273
1678.7891 706.4221
1678.6748 709.65125
1678.5723 713.01196
1682.2466 713.7803
1679.7344 717.0947
1676.2477 716.9752
1677.2262 721.09076
1671.7388 719.0583
1667.3923 720.96655
1662.7136 723.6855
1664.9911 726.9773
1670.2079 725.9549
1674.164 724.4858
1678.6422 726.5707
1681.8765 724.3983
1685.5083 722.2859
1682.5203 719.0829
1685.3064 714.1288
1687.168 710.59955
1683.1582 708.78613
1686.7415 706.1134
1683.3422 704.1556
1678.9097 703.1167
1681.4419 700.38885
1685.1201 698.95184
1687.1023 701.865
1690.0621 698.7028
1688.1807 694.87976
1691.5481 692.8714
1693.5879 697.97003
1696.7646 698.01544
1698.94 700.9383
1697.4985 703.7984
1693.65 702.9281
1690.2415 703.1491
1690.1969 706.81836
1691.2566 709.6851
1692.0006 713.4055
1688.9622 715.18176
1687.4583 718.7214
1691.3127 722.2673
1687.488 726.4993
1694.7958 726.1497
1700.5282 725.0738
1697.4058 720.3759
1693.2585 717.58954
1702.0688 717.05273
1703.252 711.1256
1697.7471 714.2824
1694.9586 711.0677
1694.899 707.0098
1698.8872 708.9932
1701.9011 705.9174
1706.5935 705.1865
1705.8102 699.652
1702.6711 701.8079
1700.428 697.9841
1702.4546 696.09485
1705.0752 694.8145
1708.5305 695.57623
1709.1809 689.6162
1708.47 684.6486
1708.627 679.7736
1708.2781 674.7448
1710.0901 669.91864
1707.1697 669.5537
1704.0408 667.6661
1703.5427 671.76544
1703.9144 675.514
1704.5225 679.4431
1704.2557 683.7058
1705.2046 687.4128
1705.7448 691.04816
1702.2175 691.55835
1699.082 694.0682
1695.519 693.3631
1698.4277 689.8842
1701.333 687.2269
1697.589 685.45404
1696.5475 681.57806
1700.8008 682.4384
1700.4198 678.675
1699.3573 675.1128
1698.549 671.70575
1699.9895 668.57245
1701.1699 664.55304
1708.1392 665.0751
1704.176 663.3013
1702.2936 658.80554
1697.5496 657.63837
1698.0771 661.4667
1697.442 664.9263
1695.6692 668.09235
1692.9043 664.79016
1693.2158 660.24805
1694.1987 655.81647
1692.8533 651.9542
1696.8525 651.745
1700.6433 654.87006
1706.0745 660.20245
1709.7203 660.7168
1707.4963 656.10223
1705.6842 652.753
1708.5663 649.78125
1706.4465 644.1983
1705.8127 636.69147
1702.7638 638.086
1704.3635 641.3611
1704.3035 647.53503
1702.1019 651.31323
1699.0249 648.1368
1700.8226 644.70435
1699.9302 641.2542
1699.121 637.6986
1700.8774 634.9588
1702.9792 632.7527
1699.269 631.7796
1696.3462 631.17126
1694.6365 627.97284
1698.048 628.02264
1701.31 629.2843
1700.3682 625.245
1697.7239 620.7438
1696.1531 624.90063
1692.8143 623.38715
1693.0372 619.2121
1688.105 618.7562
1686.8538 623.26117
1689.35 625.23944
1691.0282 628.01953
1693.1989 630.85864
1689.4165 631.7521
1686.7565 633.93195
1686.042 629.05634
1683.2418 625.6834
1683.1439 632.16095
1686.1133 637.16547
1685.9664 640.1652
1680.877 639.40906
1682.0619 635.96014
1677.6672 636.08105
1679.1172 632.42096
1680.6804 628.35583
1676.7764 629.1389
1673.5898 631.76843
1670.1561 626.67114
1674.0323 626.05554
1674.0253 620.82513
1678.3259 623.88116
1683.0437 621.01495
1679.2927 618.2504
1674.4686 615.43414
1671.9153 611.0682
1670.4587 606.5183
1666.3745 608.5319
1667.3912 614.0176
1669.2571 619.2488
1665.9065 623.7192
1661.2726 626.36414
1657.6929 621.7894
1663.2365 618.9883
1661.8198 613.5461
1662.094 609.4001
1657.4817 609.78973
1658.0159 604.83575
1661.6743 604.9363
1665.1627 603.29584
1668.4014 601.7127
1673.3104 602.9475
1676.2351 606.29755
1677.2147 610.554
1680.9985 612.52454
1684.9458 615.3051
1691.6609 614.3108
1686.862 609.8291
1681.8027 605.88153
1677.1736 600.7389
1671.2058 598.2714
1666.1418 596.3353
1662.1929 599.96576
1660.2134 596.7351
1661.8131 592.8297
1655.2012 590.8993
1650.1011 589.0869
1650.953 592.4569
1648.54 595.5214
1648.5878 599.0755
1653.0234 594.9727
1657.1243 594.42285
1653.6488 598.4106
1656.8082 600.7313
1651.1317 602.7454
1654.3438 605.7219
1651.2961 607.9139
1648.1588 610.15515
1644.688 611.36615
1641.6675 613.9853
1637.6854 614.14935
1634.3448 616.0655
1631.0742 618.5186
1636.2227 620.69104
1633.1434 623.7586
1637.823 625.772
1639.7979 618.53284
1643.9447 617.65204
1647.4156 616.09106
1650.3479 613.40375
1654.1101 611.8815
1658.531 616.14984
1654.7343 616.4809
1651.8622 618.60736
1648.9214 621.2787
1645.2814 622.3294
1641.6124 623.85175
1647.3481 627.3659
1652.3861 624.22577
1654.9187 628.088
1659.1725 631.34576
1664.0083 633.82544
1666.4387 629.75836
1668.9337 634.57947
1673.123 635.951
1670.5063 640.15796
1675.4811 639.5755
1675.714 643.4364
1676.2573 647.4791
1679.4935 649.91925
1682.7863 651.53827
1686.0199 649.89777
1684.9579 646.8799
1681.0271 646.4033
1679.9716 642.76636
1683.675 643.1317
1687.1777 643.3841
1689.8655 645.1173
1691.2878 641.6532
1690.4514 637.55316
1692.4927 633.9076
1696.9738 634.5498
1694.3162 636.7769
1695.7509 639.8391
1695.7555 643.8015
1694.0084 647.3736
1689.6302 647.76276
1690.0105 650.26654
1688.6426 652.7095
1686.1398 654.3352
1683.4646 656.06195
1679.1565 654.4063
1681.5985 659.46875
1687.2338 659.19543
1690.1628 656.2145
1689.3545 662.849
1687.7361 667.1538
1684.0791 669.8534
1684.9084 663.57544
1681.3523 664.6192
1680.5139 670.0754
1680.9431 674.54224
1685.667 674.65936
1689.8921 675.4294
1688.6134 671.508
1692.0288 669.35614
1694.652 672.76324
1693.3688 675.96216
1696.3318 677.8526
1692.0422 679.6045
1689.0472 682.60645
1693.029 684.15125
1694.3976 688.7169
1690.0592 688.1084
1685.6106 690.6382
1683.849 694.71
1680.2568 696.3925
1679.066 692.3274
1681.2664 688.31464
1686.0934 685.9556
1683.711 682.52325
1687.0419 679.12463
1683.1887 677.8909
1679.6754 679.74115
1679.5508 684.4569
1675.5079 689.8972
1675.6733 696.06824
1672.6218 693.60077
1669.4734 691.10925
1665.5933 693.4666
1663.9436 690.5645
1659.0371 691.0584
1662.335 695.8048
1661.3953 699.66626
1665.835 700.0257
1667.5408 696.2966
1671.1399 697.982
1669.1002 703.433
1665.8918 704.5814
1662.046 704.0911
1658.791 702.72144
1656.0969 701.1683
1653.2589 700.2943
1656.3721 697.84717
1658.3342 695.0277
1654.2416 693.0841
1650.7749 690.6416
1648.4321 694.42426
1651.012 697.364
1645.3475 697.20825
1641.3857 698.64996
1637.2866 693.91034
1640.8403 695.07623
1644.801 691.59924
1639.8068 690.59924
1634.1226 691.11096
1633.8247 696.3677
1630.8601 699.9058
1625.6779 699.41547
1626.3835 694.74884
1629.6327 691.94684
1622.2847 691.53174
1619.9822 696.4825
1616.5295 692.0827
1611.3171 690.8301
1606.3516 690.02124
1602.9893 687.2541
1599.2988 683.925
1595.1167 683.32776
1592.03 679.9504
1590.8337 675.7837
1586.3916 673.6822
1581.6793 673.01025
1583.896 668.5933
1578.9028 669.6109
1575.7241 666.97797
1571.7786 668.6694
1569.2518 666.97046
1568.9177 662.8092
1572.7079 663.48456
1576.9192 662.74286
1580.7964 664.448
1579.714 658.16113
1575.0183 658.71576
1575.9297 653.921
1577.5104 649.83514
1571.8776 648.81415
1567.9397 651.9296
1570.8357 654.7421
1570.4811 659.0865
1565.9664 657.2878
1563.1061 654.4631
1561.8684 650.80963
1564.4882 648.8054
1563.6296 645.10645
1567.7227 647.1384
1571.1996 643.6196
1574.0732 639.84454
1578.4454 640.4879
1575.3351 644.946
1580.0769 645.1396
1583.3495 639.96857
1583.4847 635.2888
1580.2903 636.4701
1577.0243 635.8568
1573.8735 635.1014
1569.2781 639.7696
1570.517 636.1402
1570.7153 631.33795
1574.8148 631.2367
1579.2439 631.80286
1583.3635 630.7477
1580.4302 626.5617
1584.8091 625.79175
1586.5271 621.92566
1590.1969 624.6235
1587.2773 629.28613
1587.4324 634.3533
1592.5361 632.67346
1590.9958 629.40326
1596.1106 629.35645
1594.4493 625.4352
1597.2847 622.1728
1600.1642 627.08307
1605.0178 627.97986
1605.3386 623.6365
1604.6667 619.59534
1610.3253 619.6574
1609.5848 625.5089
1612.9655 624.0148
1616.5188 625.72815
1620.9397 625.4257
1624.6232 624.138
1629.3363 625.93665
1628.5546 621.8399
1625.388 619.07855
1621.1904 617.7864
1619.6613 621.53375
1615.1963 620.76416
1616.6738 616.9649
1618.7936 611.7313
1623.4423 613.6992
1627.8772 614.8215
1631.3463 612.3696
1635.2924 610.5321
1637.5625 606.6845
1640.1884 609.9922
1642.4634 606.078
1646.9462 606.35803
1645.7424 602.4836
1642.7478 599.5481
1644.3608 595.6232
1646.8766 592.13184
1645.1997 589.1042
1640.2168 587.77356
1637.4219 590.83276
1641.935 591.81494
1639.9355 595.8815
1639.1335 601.9051
1634.6803 603.56604
1633.4746 599.097
1628.74 597.1014
1636.4224 596.5299
1633.6595 593.02356
1629.9492 591.42694
1632.8606 587.58704
1628.0234 560.02783
1624.1709 556.6796
1619.744 554.39087
1623.6565 551.6508
1626.3953 555.05475
1629.7904 557.36896
1634.1962 558.3483
1631.5056 553.4935
1636.1816 552.97906
1640.8455 551.0328
1633.6665 548.2998
1635.0045 542.91516
1639.074 545.3325
1644.4348 546.5572
1643.4707 541.8374
1648.3562 541.5013
1644.7067 536.5425
1642.867 531.00397
1638.4138 532.5363
1640.4034 538.22107
1636.5253 537.42096
1632.4941 538.4578
1630.1543 542.96967
1627.9869 548.0311
1627.8356 551.78705
1626.1655 543.997
1626.3538 538.93494
1623.0991 540.39124
1620.2297 542.268
1620.8605 536.7215
1618.2808 539.0982
1616.0679 541.4383
1612.8075 541.5981
1613.3776 538.702
1615.476 536.9434
1616.7389 534.4016
1619.7024 532.3929
1623.7952 533.8756
1627.6089 532.00995
1628.9309 536.2363
1632.7546 532.8104
1629.5088 527.48914
1633.9392 524.61816
1635.2869 528.66064
1639.9467 526.52094
1639.1195 521.60077
1644.8278 524.31506
1650.7227 521.6163
1649.3315 526.7546
1653.9785 527.9649
1656.3132 523.62164
1658.7124 529.20123
1662.7808 533.0188
1664.1213 537.7133
1663.0322 541.66376
1661.0138 545.52313
1656.5049 544.53253
1657.6172 540.6762
1659.5338 536.8242
1656.3812 533.23334
1651.5233 532.2556
1647.058 531.50195
1649.2576 536.7005
1653.7703 537.4948
1652.2611 542.67303
1648.7955 547.4214
1646.5123 552.0871
1639.3055 557.36285
1644.3105 556.6703
1649.9558 556.7912
1654.9609 554.858
1651.9546 551.6439
1653.112 547.2696
1657.2151 549.4593
1658.888 555.1149
1663.3699 554.4869
1665.5393 551.7162
1661.3021 550.4828
1665.2524 547.78424
1668.4807 549.6389
1669.4102 552.9837
1673.4001 550.08185
1674.6016 546.0337
1671.5614 542.62854
1670.2736 546.5033
1666.3242 544.3779
1668.1223 540.1911
1671.3862 537.1155
1667.7698 534.95593
1667.2815 530.4629
1671.4409 531.21375
1674.5953 534.48804
1678.3262 533.1454
1680.9265 535.65533
1685.8499 534.0898
1683.4948 538.46
1678.4178 538.785
1674.4834 539.3971
1677.0879 542.8505
1678.7407 547.53375
1681.6248 542.98
1685.7078 544.2564
1687.4331 539.59784
1691.4153 536.7817
1698.0126 530.2576
1693.896 528.43176
1691.5981 532.18396
1686.779 529.48956
1681.7313 530.0682
1684.1807 524.99677
1679.0784 525.5888
1676.0789 529.5113
1673.6785 526.0307
1670.3832 524.54755
1666.1682 522.8429
1667.3401 526.86945
1662.8335 528.20514
1661.9799 524.22046
1660.8596 520.44354
1657.7534 517.9467
1664.9307 518.2388
1666.7028 514.0768
1672.194 516.6616
1670.141 520.4176
1675.5986 521.1876
1677.7788 516.119
1680.6641 520.74695
1685.4077 520.4234
1689.3115 525.5366
1692.3646 522.3863
1696.2559 524.2275
1700.4409 524.57587
1703.6644 519.87866
1699.0732 519.8159
1695.315 518.20905
1691.75 515.8548
1688.9573 518.84705
1683.2507 515.6757
1687.497 512.6066
1682.8291 510.268
1677.5515 510.92963
1671.859 511.24564
1675.077 505.45605
1679.2727 499.40845
1680.9908 504.943
1686.6279 505.99146
1686.741 500.44495
1689.1348 493.97403
1692.7708 497.1631
1692.5482 502.42365
1691.0417 507.37793
1692.1707 511.31525
1695.8298 512.36115
1699.0889 514.3102
1702.5491 515.2975
1706.219 513.39105
1704.7653 508.97195
1700.0094 509.2844
1696.2864 506.2508
1697.686 500.20044
1702.98 499.2371
1701.7784 504.21347
1707.1414 503.7508
1708.6084 498.78442
1707.2457 494.98343
1709.626 491.91986
1705.9332 490.7298
1701.8948 489.26767
1697.84 488.73938
1703.0371 494.5436
1698.2668 494.50748
1693.7465 491.60056
1692.8015 487.4977
1688.047 489.40598
1684.2308 495.48175
1679.8446 492.64078
1683.352 488.94662
1681.4435 483.90036
1684.5376 480.56592
1686.0435 484.44437
1689.7495 484.99744
1690.7844 481.25656
1694.5391 483.9912
1698.3572 483.34894
1702.4612 483.10272
1705.7214 486.42105
1710.3234 486.90256
1709.0125 482.4713
1706.2124 479.28693
1709.484 475.35904
1707.842 470.1679
1702.0258 471.17368
1703.3849 466.25787
1708.1954 464.72446
1708.5963 458.3307
1707.3289 451.35226
1702.1667 449.22736
1697.5242 449.5204
1704.9922 444.93378
1704.748 438.24823
1699.734 435.5542
1702.6826 429.6611
1697.0254 428.19064
1693.874 431.68683
1694.671 437.15585
1694.3596 441.2082
1699.6724 442.60056
1694.6096 445.27277
1692.7651 449.36755
1692.4496 453.76202
1699.0419 454.8684
1703.9026 455.2235
1704.4929 460.81607
1699.8994 460.9418
1695.9794 463.59177
1698.5264 466.9595
1697.3918 471.5049
1703.7185 475.1765
1699.7723 477.61935
1695.3667 479.2718
1694.744 474.83487
1691.0234 476.84323
1687.3971 478.34134
1681.9883 476.82642
1685.9348 474.598
1689.4536 472.02167
1693.1129 470.59943
1692.3151 466.6117
1692.429 461.1392
1695.1268 457.63782
1687.4572 454.37225
1688.1453 458.9114
1687.987 463.31207
1687.4219 467.4702
1684.9948 470.52463
1681.437 470.57785
1682.9066 464.9642
1681.1426 460.58142
1683.1525 456.97263
1682.8799 451.86035
1678.8818 452.53488
1680.2183 446.8881
1684.9012 445.68695
1687.2589 449.88345
1689.5608 446.1495
1689.1493 442.18842
1688.9081 438.3386
1690.4692 435.04608
1688.374 431.55066
1689.1934 426.7718
1681.2922 427.1079
1684.1099 430.81842
1684.3541 435.46817
1684.6147 439.333
1682.4655 441.96832
1678.0765 441.95847
1678.0466 436.9836
1679.1625 432.77087
1675.5619 428.53766
1637.7173 426.43665
1636.1984 420.0678
1634.5449 423.80774
1634.8191 429.43124
1637.0887 433.5632
1631.9038 432.2998
1628.2053 433.90472
1627.4929 429.1529
1630.7893 426.71512
1630.2607 422.23685
1628.6965 418.7818
1623.3229 419.41425
1625.6309 423.23096
1624.0366 426.80588
1620.236 423.98492
1616.4543 422.35022
1618.6167 418.62003
1623.1022 351.59937
1628.2659 351.0525
1624.8823 346.89917
1628.4292 346.85785
1628.2828 339.40707
1625.4235 342.4507
1620.2902 345.01736
1621.353 348.62384
1617.1569 349.284
1612.4581 349.2378
1614.2047 344.66513
1621.0049 341.2105
1621.8635 337.68134
1625.7507 336.06644
1623.8888 332.2409
1624.761 328.92194
1620.0942 329.5006
1620.52 333.79935
1617.0233 336.95093
1616.6895 341.39066
1613.0831 338.65918
1609.6396 340.34332
1608.3436 344.95218
1607.9993 349.98062
1603.9873 349.30582
1602.5634 346.03592
1598.5859 347.0377
1599.8542 350.87192
1594.9712 351.1586
1590.5587 350.63797
1585.3408 351.6189
1587.4104 348.53568
1589.0231 346.00632
1592.0627 346.5134
1595.0145 347.12784
1597.392 343.18927
1600.316 339.97058
1603.0778 342.8765
1605.0021 339.60153
1606.5393 335.8077
1602.3076 334.11148
1599.3892 336.92416
1597.6292 334.1354
1594.3093 334.1308
1595.6948 330.47443
1599.2416 330.0057
1602.3511 329.35754
1605.3223 328.52417
1608.551 326.57553
1611.9258 329.90668
1607.3958 331.7112
1611.5161 334.49713
1616.2394 332.68945
1615.9344 327.99542
1616.217 323.44443
1620.2955 325.64352
1624.7214 324.1947
1627.2029 326.1063
1630.241 323.27887
1635.2549 323.08554
1636.2076 318.49057
1638.8679 314.34042
1640.4358 321.1482
1638.0271 328.03534
1641.0446 325.34036
1645.2983 325.65942
1645.8774 321.47305
1643.0122 317.69424
1643.8737 313.4346
1647.0947 316.70306
1648.6825 312.7467
1652.6301 313.2484
1650.4027 316.8681
1653.1914 317.40778
1655.806 315.48407
1655.0664 320.13123
1657.521 323.72885
1658.9579 319.8525
1659.6885 315.97607
1658.6128 312.32187
1664.0188 314.17044
1667.2162 311.6164
1670.4409 315.07764
1669.6337 319.28616
1668.8772 325.8911
1666.1887 322.23892
1663.6702 318.61392
1661.8917 323.6823
1664.1189 327.71255
1665.9213 332.13647
1661.1322 332.35034
1663.9954 337.3716
1668.7772 337.38315
1670.8044 332.47903
1673.7551 337.13354
1677.862 336.1613
1680.9601 333.80994
1684.5571 332.79166
1680.4172 328.17517
1676.4412 331.18423
1673.0371 327.98798
1674.2183 323.42853
1679.3529 322.95303
1675.3485 318.46835
1679.9204 317.27237
1684.0096 321.11127
1683.9554 317.09705
1681.5535 312.08035
1677.9784 313.1245
1674.379 313.62558
1671.4702 309.98145
1676.108 309.33734
1674.3225 305.839
1678.47 304.91333
1678.2173 300.1
1681.6617 298.26508
1684.998 296.31595
1680.7809 293.7271
1684.162 291.15488
1681.5281 288.30215
1681.8186 283.6772
1685.3071 286.3602
1687.9585 289.15463
1690.0126 285.72668
1689.769 281.40656
1693.7495 282.3043
1694.3447 278.0578
1693.0463 274.1214
1691.3861 270.35764
1688.0618 268.64096
1684.9283 270.67148
1685.8657 274.7464
1688.9601 277.23596
1685.9204 281.9926
1682.8398 279.26788
1680.8231 275.86542
1680.5591 271.4418
1680.4581 266.40518
1680.8127 261.70966
1678.5134 257.7457
1683.5703 255.91833
1678.9281 252.86467
1673.0991 209.73067
1678.5504 207.12651
1684.5524 206.35422
1687.4387 252.58014
1694.8293 252.18428
1699.2793 253.47365
1703.0752 252.23486
1706.7457 253.97165
1703.9366 256.74612
1700.5575 258.06726
1697.621 261.1731
1696.2412 256.86075
1691.9222 255.09328
1692.4021 259.9866
1688.4191 257.8952
1686.0187 261.292
1685.1195 265.5309
1690.333 264.91846
1694.0409 264.22858
1697.5479 265.9494
1696.7675 270.7587
1698.8562 277.23712
1701.8378 273.26852
1701.7268 267.9936
1702.1184 263.00854
1705.74 260.2296
1707.116 264.7216
1706.4749 269.07413
1707.7014 273.29065
1709.0125 278.48236
1704.235 278.28552
1702.4817 282.72858
1697.982 282.70532
1694.3876 286.94583
1692.0049 291.01758
1688.055 293.2587
1690.2146 297.01544
1694.1272 300.6941
1694.7073 295.7721
1696.5299 292.02304
1698.8986 287.53223
1700.6445 292.26813
1705.7241 292.31415
1703.7456 287.5839
1708.0117 283.87616
1708.5748 289.1608
1711.7383 291.93726
1708.4663 296.76447
1703.5322 296.14395
1699.6003 298.07062
1704.1848 301.48462
1708.7662 302.19727
1708.5741 307.36203
1704.477 306.65906
1700.6172 306.22305
1698.9423 302.54376
1695.5815 306.1076
1691.1367 305.51035
1687.7312 300.64212
1682.4375 302.38574
1680.1284 308.68716
1683.0419 306.58557
1686.7617 304.56015
1686.5442 308.8842
1684.5206 313.21945
1688.0967 312.74265
1688.1516 317.05338
1691.84 318.45834
1693.8479 315.51898
1691.3109 311.19684
1695.2291 310.81485
1697.2294 315.02704
1700.3435 314.4742
1699.2437 309.9364
1702.5586 311.72528
1705.6985 311.1667
1708.9674 312.99435
1704.1494 315.91113
1706.847 318.50995
1702.9462 320.58594
1699.4614 318.70312
1696.3853 320.76578
1692.6821 323.0118
1688.5322 322.24673
1684.7919 325.54672
1686.2415 329.65912
1689.7728 327.3252
1693.8438 327.71347
1697.08 325.24274
1701.3668 324.3433
1706.2333 324.79556
1700.8026 328.42944
1700.8824 332.7368
1696.7937 331.05255
1692.7871 332.32062
1696.7126 335.96204
1693.0254 337.4528
1691.7676 341.38107
1688.2471 342.65198
1685.941 346.05588
1680.5591 347.33868
1675.9525 346.60788
1680.2925 343.6844
1683.9009 342.78278
1686.13 339.90268
1688.6704 337.0041
1689.2478 333.1335
1684.3774 336.78546
1681.2582 339.35367
1677.0101 341.24493
1672.272 342.34317
1667.4927 342.47357
1670.9834 347.58002
1666.0481 349.92764
1665.1587 346.47974
1662.8414 343.34808
1660.3644 340.8755
1659.4214 337.5908
1657.3745 334.99887
1652.8779 335.42816
1652.4392 330.46722
1656.1608 331.2312
1658.8593 327.953
1654.1438 326.18582
1652.2898 322.4863
1649.7166 320.2449
1649.6224 325.12775
1648.5579 328.9576
1643.5305 330.06677
1641.5925 334.2801
1637.7773 332.95596
1633.8987 331.35898
1633.2148 327.183
1629.5729 328.74722
1628.4036 332.31976
1630.8304 334.95407
1633.8605 336.63562
1632.8494 340.61453
1631.1882 344.1915
1632.4252 348.48358
1636.0978 350.4787
1639.032 347.2886
1643.1904 348.8093
1647.9338 350.36496
1648.0922 345.0323
1643.2906 343.5311
1636.877 343.46658
1637.6792 338.22192
1641.5784 339.40256
1646.2395 339.43893
1645.6294 335.17224
1648.7795 333.30878
1650.2451 339.40686
1655.1746 339.72305
1652.867 343.71667
1657.5255 344.50537
1660.5559 348.44693
1652.3895 348.2514
1656.218 349.8241
" />
</g></g></svg>
