<?xml version="1.0" encoding="UTF-8" standalone="no"?>
<!-- Created for Inkscape (http://www.inkscape.org/) -->

<svg
   xmlns:dc="http://purl.org/dc/elements/1.1/"
   xmlns:cc="http://creativecommons.org/ns#"
   xmlns:rdf="http://www.w3.org/1999/02/22-rdf-syntax-ns#"
   xmlns:svg="http://www.w3.org/2000/svg"
   xmlns="http://www.w3.org/2000/svg"
   xmlns:sodipodi="http://sodipodi.sourceforge.net/DTD/sodipodi-0.dtd"
   xmlns:inkscape="http://www.inkscape.org/namespaces/inkscape"
   width="3200"
   height="800"
   id="svg2985"
   version="1.1"
   inkscape:version="0.48.1 r9760">
  <defs
     id="defs2987" />
  <sodipodi:namedview
     id="base"
     pagecolor="#ffffff"
     bordercolor="#666666"
     borderopacity="1.0"
     inkscape:pageopacity="0.0"
     inkscape:pageshadow="2"
     inkscape:zoom="0.35"
     inkscape:cx="1600"
     inkscape:cy="400"
     inkscape:document-units="px"
     inkscape:current-layer="layer1"
     showgrid="false"  />
  <metadata
     id="metadata2990">
    <rdf:RDF>
      <cc:Work
         rdf:about="">
        <dc:format>image/svg+xml</dc:format>
        <dc:type
           rdf:resource="http://purl.org/dc/dcmitype/StillImage" />
        <dc:title />
      </cc:Work>
    </rdf:RDF>
  </metadata>
  <g
     inkscape:label="Layer 1"
     inkscape:groupmode="layer"
     id="layer1"> 
     <g>
<path style="fill:none;stroke:black;stroke-width:2px;stroke-linejoin:round;stroke-linecap:round;" d="M 
1787.6893 320.25967
1792.127 318.23035
1794.5704 314.27716
1790.4053 311.38586
1787.7838 307.91714
1790.2213 304.54276
1793.31 301.06055
1790.255 299.12103
1786.5609 300.41827
1784.3488 303.58264
1780.324 305.71298
1776.4495 305.57028
1772.7715 304.0969
1771.5276 300.69406
1769.3755 298.1859
1766.3527 299.6747
1768.4197 302.614
1766.0931 305.44376
1769.4939 305.95392
1768.133 309.7424
1771.3993 311.94177
1772.3306 308.01862
1775.9556 309.8254
1774.5812 314.43323
1778.8772 316.7473
1779.5593 313.32922
1780.212 309.80145
1783.9011 308.25183
1784.3369 313.13586
1787.7878 315.59586
1782.8704 318.79443
1784.0583 324.0724
1779.0469 323.29315
1776.3025 319.239
1766.3035 322.25757
1766.6696 326.37692
1768.4692 330.2311
1780.6512 328.64194
1780.1641 333.6507
1777.7964 339.51773
1782.2465 338.61847
1785.3271 335.25226
1788.884 332.0461
1786.5447 328.50986
1789.9233 324.04245
1793.5566 326.93375
1793.6212 331.47107
1795.8826 335.3853
1798.149 338.57318
1801.4087 334.48718
1798.5367 330.21884
1803.5974 330.19577
1806.849 327.28442
1808.1888 331.78485
1810.5988 336.06073
1812.551 332.86725
1812.4745 328.8392
1810.8057 325.56128
1813.4143 322.72635
1817.9242 321.62494
1814.7229 318.90436
1810.9205 318.1259
1808.938 322.08838
1806.3429 319.1535
1804.3657 323.5277
1799.9457 325.65945
1795.5442 322.26086
1797.6682 317.59048
1800.8826 320.46307
1803.268 316.41327
1803.9421 311.83078
1799.5992 313.0327
1800.4358 307.55457
1795.1843 309.78442
1795.3086 305.74353
1797.0975 302.00842
1801.2246 301.9474
1805.0603 302.28726
1805.3971 307.59555
1808.6625 303.8423
1811.6259 301.50372
1815.6187 298.49457
1812.9209 297.48218
1808.983 298.04095
1805.5505 296.66074
1801.6356 295.57428
1798.4669 297.73785
1794.8016 296.5187
1797.5275 291.43692
1794.3898 292.52737
1790.8528 294.56195
1787.1132 296.27286
1786.0548 292.8146
1782.7528 295.4263
1781.8555 291.76968
1781.0911 288.04398
1783.9532 285.63928
1783.0583 281.3438
1784.49 277.44656
1789.6549 275.828
1789.9985 281.28104
1788.0503 284.64923
1785.7336 289.0439
1789.2102 289.85706
1792.4357 289.52954
1793.993 286.0755
1794.3358 280.30026
1794.771 275.76495
1797.7134 271.76758
1802.362 271.65298
1802.765 275.06485
1806.3865 274.72076
1804.5892 278.64108
1799.2228 275.53912
1799.3313 279.60623
1802.7274 282.7793
1797.9652 284.4032
1800.6033 290.4383
1801.8065 287.08105
1805.602 286.61182
1805.0583 291.6748
1808.4924 289.93414
1810.8759 293.60226
1819.9668 283.71133
1822.9388 286.47974
1825.7384 288.41003
1827.2009 291.95248
1829.0912 295.22705
1831.4039 298.20444
1833.9453 301.47296
1824.7537 309.2869
1827.8485 313.51706
1822.8855 312.8072
1820.9005 305.6834
1818.4836 301.7941
1815.7328 303.4011
1814.0426 306.14886
1810.2937 307.43365
1808.8558 310.90738
1807.565 314.84158
1811.5248 313.85928
1814.979 315.1082
1814.0962 310.3418
1818.779 308.98572
1818.1335 313.01807
1818.3973 318.49542
1820.3584 316.30872
1823.9016 316.9674
1826.8873 318.5456
1830.0906 320.42993
1830.9172 316.53897
1834.2612 319.18182
1833.5923 322.1417
1830.9199 324.15033
1835.0773 325.53592
1837.45 322.9936
1837.0906 329.3242
1836.2578 333.84375
1833.5754 328.34595
1831.552 330.3303
1831.9004 334.7116
1831.0256 339.33676
1836.7659 339.52463
1831.8876 344.08197
1836.4353 346.50125
1832.6731 350.0629
1827.8828 349.6298
1826.1238 344.83304
1822.5187 349.93475
1818.3347 346.32416
1817.5562 350.95312
1813.498 351.03345
1814.5078 356.13177
1810.9192 353.0675
1807.142 353.2143
1804.3662 353.24896
1802.0431 355.8913
1800.2104 359.139
1797.2803 356.1308
1797.2605 352.1352
1801.0825 351.66327
1799.927 347.9827
1801.425 344.7819
1804.3064 348.73087
1808.3992 350.13025
1808.885 347.52682
1807.0198 345.64133
1804.5643 344.68115
1804.6736 341.49738
1808.1299 342.3515
1810.7849 344.14383
1813.108 347.34952
1814.2151 343.43448
1817.3721 341.45245
1821.633 342.85205
1825.1127 339.47495
1826.9547 335.45425
1828.1323 331.64243
1821.1509 329.89017
1825.3503 329.1353
1828.7764 326.73657
1826.4156 323.10333
1822.2767 321.31516
1822.4475 325.60434
1817.3142 324.51935
1817.1794 327.6685
1816.9806 331.99197
1822.2274 334.14758
1819.484 337.56708
1815.3796 336.25284
1812.9478 339.6457
1808.6398 339.26447
1806.2795 335.42972
1803.8141 338.15784
1801.0029 340.88794
1797.3782 343.4251
1795.4583 347.4431
1793.1934 341.37515
1790.7233 336.87466
1787.3855 341.48587
1790.52 346.27246
1792.895 351.4752
1792.8674 355.97107
1791.5918 359.98837
1795.8708 360.0873
1798.3793 363.82364
1801.5867 362.13834
1804.4775 363.21964
1806.3269 367.12277
1801.6106 366.5933
1802.1233 371.02847
1798.8334 369.947
1796.323 367.76923
1794.8173 364.15256
1791.2847 363.84204
1792.2463 368.00742
1788.0962 368.59207
1787.5813 365.01892
1786.9596 361.14444
1781.5112 362.2376
1784.2966 357.85037
1788.4968 356.356
1788.6562 351.80228
1785.9412 349.11853
1784.032 346.02823
1781.9358 342.88638
1777.9604 344.5711
1777.8655 348.74866
1781.254 350.0889
1783.7666 353.63617
1778.4121 353.0025
1773.3505 351.82156
1771.7247 362.1459
1776.7853 364.7653
1770.862 366.0042
1767.8226 369.8766
1773.2203 370.1758
1778.51 370.30435
1782.9166 366.28845
1784.2576 370.64212
1781.8774 374.45148
1783.0339 378.83066
1779.3036 380.58124
1776.5443 383.31528
1772.699 381.90036
1767.8811 380.35626
1762.9746 381.5551
1759.4785 385.43686
1756.8927 391.9888
1754.543 387.81314
1752.6761 382.2736
1756.7949 379.31638
1762.4226 369.81073
1765.1196 366.16855
1766.4426 361.65317
1762.0593 360.8782
1758.3225 358.24274
1767.7495 350.4268
1770.5305 347.75793
1774.2727 347.80682
1773.3737 343.93564
1767.3992 345.067
1767.0463 334.24582
1762.5756 334.02707
1763.7609 347.33347
1759.9281 346.80798
1755.7256 345.8639
1751.9296 342.00293
1750.2477 345.16153
1745.8325 342.4213
1746.9496 337.76743
1741.9227 338.4045
1740.4601 342.67453
1735.416 340.5171
1738.0273 335.4805
1743.2877 333.34705
1739.722 330.90756
1739.2336 326.52618
1734.94 329.75507
1730.1809 330.51617
1725.695 329.32233
1732.7292 335.18167
1729.1654 339.17072
1726.5366 334.71652
1722.1035 337.45425
1723.658 341.44556
1724.1179 345.87912
1722.7334 349.15634
1725.0151 352.78568
1728.4075 349.95584
1728.9387 355.38965
1732.4072 352.21127
1735.7651 354.54453
1738.608 352.7043
1741.814 355.48355
1737.9565 358.77484
1733.4923 357.50787
1731.9374 360.7425
1727.5608 359.93973
1723.9955 363.20288
1729.4058 364.352
1735.4795 364.19073
1740.6908 366.24612
1741.4773 361.3084
1752.7168 362.07782
1752.794 357.64178
1756.8411 361.11563
1757.0573 364.6019
1760.2821 366.63696
1755.7164 368.39655
1752.2849 366.69666
1748.0961 379.18182
1747.8904 385.59006
1743.1697 387.33157
1738.1757 389.14273
1738.8837 393.7442
1735.306 393.55762
1733.4293 390.2489
1732.1719 386.83945
1734.8713 382.90424
1739.424 385.04892
1741.7181 381.64987
1742.5835 377.41852
1737.3911 378.2213
1733.9435 376.3155
1729.8583 374.83582
1723.3794 373.88107
1719.5638 375.90942
1717.7773 372.0899
1715.2847 376.03268
1710.6505 375.09793
1713.1459 371.43896
1710.5774 368.31125
1710.4944 363.9277
1714.2999 364.17487
1715.4727 367.89645
1718.9385 364.80612
1717.9526 362.3585
1716.9823 359.74292
1720.7994 359.57748
1724.1581 357.3611
1720.5852 354.10022
1716.9342 356.56848
1715.9534 352.81046
1712.1602 355.83292
1713.9025 360.00302
1710.567 359.8555
1707.1118 356.93408
1707.7743 352.94858
1711.968 351.47922
1718.6593 349.25473
1719.7484 343.97928
1716.1656 343.61508
1714.5905 347.60516
1710.0105 347.59122
1705.929 347.8549
1703.5344 351.11786
1700.9435 353.9927
1702.16 358.42862
1706.4749 361.1952
1706.4854 366.23196
1702.7231 363.7521
1698.0638 361.8817
1693.0042 361.69724
1689.7911 358.44904
1684.6074 360.0121
1682.8271 365.80475
1687.77 363.8216
1689.2648 368.7021
1688.4761 373.30823
1686.693 377.53934
1685.4835 383.04865
1691.3717 381.36176
1695.3438 378.57706
1695.6957 372.7824
1694.6772 366.97995
1700.6245 368.30167
1706.5654 371.45584
1701.9829 374.43347
1706.5071 378.44394
1711.5288 380.60153
1717.8533 380.59018
1722.8245 378.64255
1726.5153 376.8877
1730.1312 379.98483
1728.3989 384.1326
1722.8306 382.88214
1724.382 387.294
1727.7963 390.7005
1730.62 394.06116
1733.2013 397.1703
1735.0944 401.0939
1736.7462 397.85165
1740.1785 398.157
1743.2126 400.48
1739.1759 403.03036
1742.9442 404.81366
1746.781 403.86493
1751.157 408.3433
1756.0211 408.7777
1755.628 414.10208
1760.657 411.38507
1761.731 407.43182
1758.2347 404.41956
1754.176 403.45084
1750.2745 403.3652
1752.2682 399.10367
1747.779 398.92072
1745.4583 395.94116
1742.157 393.61948
1745.2328 391.16153
1749.8335 390.9851
1751.7507 394.87628
1756.9733 396.26697
1757.5033 399.9169
1762.1381 401.20935
1765.7202 404.34857
1769.3511 407.27408
1765.8336 411.92484
1771.6257 411.7972
1774.8827 406.3051
1771.1648 401.26288
1771.0695 394.46918
1766.6902 397.60272
1762.0591 395.32416
1762.9333 390.04913
1767.8888 390.0041
1767.649 384.8408
1772.6796 387.34775
1775.6539 390.9946
1778.9921 387.34494
1782.7179 383.6674
1784.105 387.9963
1789.3325 389.44116
1792.436 393.24542
1796.9431 395.5529
1793.8928 398.30615
1790.6492 401.64114
1786.9114 403.30225
1782.7163 398.64346
1788.1315 396.88675
1785.6411 392.66574
1780.9156 392.9081
1776.5403 396.01175
1776.5564 400.67545
1780.234 403.669
1784.2139 406.32443
1780.3838 408.5798
1776.4075 411.45044
1781.3276 412.52625
1786.7091 410.03253
1791.9004 413.68408
1788.1461 414.66064
1784.4028 415.20517
1782.438 419.48383
1779.3654 416.69482
1775.1643 416.30246
1772.1774 419.5347
1768.9869 416.04276
1765.3903 419.15823
1761.6587 422.13745
1761.4421 415.3477
1759.0018 418.50726
1755.2214 420.59003
1755.3104 424.89267
1754.5157 429.25027
1748.371 428.4421
1742.9015 431.78467
1742.3894 428.98682
1738.5842 427.2487
1734.8862 425.32397
1737.8523 421.5611
1743.592 419.36716
1750.0625 424.09604
1747.7788 419.28735
1751.1243 414.20407
1747.2218 412.68945
1743.2744 413.63168
1746.0402 408.36243
1741.8146 408.83185
1738.9888 412.06937
1738.4387 407.4012
1735.1031 408.8971
1731.6149 410.96057
1731.4153 407.34174
1735.1903 404.92776
1731.5457 403.05984
1729.9287 399.05515
1726.3689 396.00323
1722.5848 392.06967
1717.1611 392.55566
1718.3949 387.68964
1715.1626 384.46423
1710.5806 386.52206
1710.7043 391.68277
1712.9595 395.66345
1721.4274 397.03806
1716.9825 398.4973
1715.3287 403.4393
1713.1162 407.14886
1719.898 402.89462
1724.3479 400.43082
1727.3589 402.41916
1728.0995 405.7319
1727.4497 411.86237
1726.3005 408.63342
1723.0442 405.7569
1717.8829 408.938
1722.2771 411.1694
1724.4126 416.32385
1728.1836 416.1192
1731.3876 414.6499
1735.3767 412.6993
1740.0548 416.81937
1731.1421 420.30682
1730.9524 426.3567
1728.8611 431.14236
1724.143 433.40402
1719.6478 433.4151
1715.0696 433.27365
1713.8234 438.0142
1717.0791 440.08203
1719.5664 437.278
1722.5061 442.27383
1727.2393 445.71402
1731.8141 441.24188
1731.5044 436.00308
1737.0991 438.79724
1738.9403 433.30234
1742.8478 435.4258
1746.2788 432.38403
1748.5403 436.08206
1747.8625 439.29013
1755.345 437.86246
1758.2258 434.6996
1759.7969 430.6622
1763.2975 433.27502
1763.9863 437.88928
1766.9896 441.41922
1764.9093 446.3154
1761.032 445.96475
1757.2231 448.3394
1754.989 443.85715
1751.6611 440.78848
1747.2926 443.93988
1739.6926 445.08694
1743.6385 447.90796
1747.4625 450.52237
1749.2401 453.9166
1743.0996 455.2642
1736.4753 451.64774
1730.9701 451.50052
1732.9717 461.14685
1739.3696 459.72498
1738.779 463.99936
1735.9222 467.42334
1731.6396 469.4449
1728.492 465.8968
1726.4662 460.42368
1720.57 458.69348
1721.7833 464.52994
1723.1272 469.25912
1718.0894 468.1968
1715.6135 463.19708
1713.2716 467.25372
1708.7919 467.54935
1712.1449 471.47485
1717.0962 472.18304
1715.0992 475.6976
1719.2797 476.18277
1722.4827 473.5501
1727.494 471.8404
1734.2373 472.7547
1733.0015 476.3691
1730.2278 479.48904
1727.8418 476.39
1723.9413 477.88666
1725.4534 483.3645
1729.4548 483.61038
1728.0867 488.83728
1723.5879 489.2592
1719.7062 491.89172
1715.5518 492.92392
1711.7731 493.852
1707.1879 491.35983
1703.657 492.11722
1702.2856 487.45483
1706.5925 486.40823
1710.7113 489.7283
1714.742 488.82306
1718.4824 487.40268
1721.2129 484.89624
1721.8904 480.9946
1718.4307 479.67728
1717.209 482.7788
1714.9087 484.7304
1711.5488 485.42377
1708.4674 482.93472
1711.2731 480.79813
1714.6316 479.89075
1711.7979 477.0769
1709.9257 474.26144
1706.3671 472.7646
1703.5073 469.2033
1705.0908 464.33075
1700.2258 461.98294
1703.8186 459.1271
1709.484 461.4323
1710.3053 456.20352
1714.9124 457.87054
1720.0476 448.6137
1713.9786 447.43427
1709.6062 444.1789
1711.2482 441.19852
1705.5605 440.07385
1701.7117 436.58313
1698.1095 432.68622
1695.1637 436.84344
1693.4271 440.32477
1697.0535 442.4708
1701.6067 444.56622
1705.4565 444.82874
1705.8433 455.09763
1700.9307 454.94916
1696.5806 453.98007
1696.087 458.64795
1698.9114 466.32593
1698.793 471.2925
1695.4873 474.92175
1694.0046 468.53696
1694.4055 463.28104
1689.7446 463.3143
1690.4459 458.30408
1691.4524 453.9268
1686.4045 452.7968
1685.1545 456.5119
1685.8204 460.74695
1684.7838 464.98126
1679.2955 464.34305
1681.5383 460.1476
1676.3157 459.88312
1679.064 456.4589
1681.0216 452.72775
1676.2424 451.51
1673.8145 455.18115
1669.6998 455.94995
1666.1935 457.04678
1664.7638 460.5289
1668.9622 461.86746
1672.5381 460.72726
1673.8798 465.61798
1677.1484 468.71085
1679.3694 472.01196
1684.2937 472.8036
1682.8435 468.71683
1688.6847 468.5138
1691.5138 472.8437
1687.3835 474.78122
1690.5546 478.0526
1694.0662 481.20175
1698.391 478.4378
1702.1725 475.41528
1707.4695 477.57025
1705.1874 480.33804
1702.0635 482.11676
1697.8158 483.67645
1697.7495 487.70853
1694.075 487.8232
1691.0632 486.3032
1689.4873 483.0613
1686.2015 480.90433
1683.1584 478.95428
1681.218 475.76083
1678.8 479.81244
1679.2996 483.5055
1676.563 485.08517
1675.3855 488.57645
1679.6395 489.25516
1682.7479 484.7447
1686.0723 487.33658
1690.8856 490.67886
1687.0366 491.9164
1682.7573 491.80164
1684.7288 496.14377
1685.441 500.25226
1680.7378 501.46902
1679.8657 496.43756
1676.2828 493.8147
1675.6064 500.394
1671.8652 497.19864
1672.129 491.35226
1667.5946 494.36798
1666.123 498.8512
1666.1415 504.6001
1667.6061 509.08447
1669.5774 513.3804
1664.893 515.2973
1660.7216 515.1306
1659.8146 518.7354
1657.0736 520.83795
1656.3125 515.9627
1656.4146 512.2483
1657.2253 507.98364
1652.7261 509.79755
1653.0615 505.56143
1656.8295 503.30896
1661.7781 510.33954
1661.5857 505.61172
1662.1567 501.33673
1658.8457 499.24857
1655.0465 498.2978
1651.2261 496.25784
1647.8287 493.5763
1652.7048 491.71823
1657.9882 489.7085
1656.5593 493.77457
1661.0792 495.66187
1662.8007 491.70364
1667.2867 490.04874
1663.9241 486.87027
1659.9991 486.3981
1661.6123 482.48926
1665.4819 481.97153
1666.9142 478.50583
1670.5623 478.732
1669.9349 482.37527
1667.1774 485.17557
1669.9929 487.30447
1672.6531 485.41064
1674.157 481.88007
1674.9463 478.82758
1677.0994 475.63477
1674.0795 472.14517
1672.9269 475.91794
1669.2908 474.34106
1670.5851 469.9174
1668.6155 466.34033
1664.9492 464.59338
1661.8204 462.81482
1660.2903 459.55426
1661.8218 456.02985
1665.3467 451.9607
1670.57 451.2255
1660.6614 438.18
1658.1586 435.64197
1655.1216 435.0532
1661.06 434.36664
1657.8982 431.55954
1656.0383 425.1838
1653.2512 422.26376
1649.2639 421.55566
1648.5458 425.72873
1654.7687 428.87155
1652.2627 432.4434
1648.4744 430.16895
1643.4636 426.5918
1637.4517 422.3896
1637.985 417.85632
1640.7539 414.2851
1644.9375 413.61325
1648.6703 415.13986
1646.695 419.15823
1652.6812 417.46365
1654.6329 412.93213
1659.1862 413.2383
1662.5143 416.62006
1667.2261 415.87958
1667.1864 420.61093
1661.6094 423.0134
1667.107 425.3034
1671.2944 425.27454
1673.8845 429.87686
1677.3221 433.05325
1678.9055 430.78275
1680.8301 427.92505
1683.9956 427.51453
1683.947 431.83252
1680.9592 434.29034
1685.2128 438.12308
1689.6196 438.4859
1687.643 434.4298
1689.4791 429.86133
1686.5521 429.11688
1686.4015 424.57205
1687.7733 421.1792
1689.3612 418.03787
1691.918 421.04916
1692.4717 424.68057
1689.5657 425.9558
1693.6195 428.7997
1697.6473 427.91003
1696.0138 423.62527
1700.5387 423.3876
1705.9094 423.01572
1707.2844 429.2544
1703.827 432.29633
1711.2212 432.94632
1711.3848 427.89917
1714.5746 425.33176
1720.4336 424.69034
1724.3154 428.16205
1721.7971 419.89154
1716.7183 420.68448
1713.0051 417.12
1712.45 412.22305
1707.7202 415.38187
1703.04 418.32028
1698.9417 419.10745
1696.7356 414.8632
1693.3304 417.0028
1691.2438 413.58746
1686.9575 406.70932
1688.4459 409.99466
1687.0454 415.9339
1682.6748 416.6039
1684.0475 420.80408
1682.047 424.45728
1680.0881 421.12958
1676.6184 422.95123
1672.8357 419.05838
1677.9812 417.3746
1676.5317 412.89285
1681.5616 410.5378
1681.4117 405.42957
1687.0774 402.99588
1690.9585 401.4466
1694.6763 401.62057
1694.0181 410.51022
1698.8363 409.7781
1697.8158 405.61017
1702.9319 401.06625
1702.3895 406.04324
1705.7977 409.91733
1707.4788 403.9487
1711.1089 400.5288
1706.5857 396.75394
1705.2699 390.0981
1704.9172 384.37204
1700.4312 380.73764
1698.4989 387.00885
1700.8113 392.56543
1700.0105 396.55212
1697.9088 400.02878
1694.1354 394.3182
1693.2858 388.51184
1688.8092 386.3757
1687.0962 390.61703
1682.5325 387.45868
1680.2686 383.19366
1682.311 379.46848
1680.2517 375.5843
1682.4299 371.9638
1678.8396 368.7581
1676.0967 364.76062
1668.8932 366.22824
1666.3103 362.51175
1672.0043 360.962
1669.4148 356.38864
1673.2292 351.74405
1675.6354 356.39468
1677.1448 360.90356
1680.5233 359.66745
1682.0052 354.95578
1678.435 352.60727
1678.7104 348.4254
1675.7988 344.32056
1680.398 343.91284
1684.9279 345.55835
1684.2925 350.15073
1686.1274 355.34415
1696.2139 355.90204
1696.9084 349.61884
1697.2007 344.06195
1701.623 346.1441
1705.9773 343.6265
1709.8477 342.7099
1712.9594 341.47867
1716.5618 338.80298
1717.5896 334.7288
1721.4733 331.7486
1719.7554 327.06882
1720.665 321.82352
1722.4783 316.0752
1726.6833 312.48984
1732.1323 314.4424
1730.8356 319.22583
1725.7977 320.15512
1725.7063 324.95413
1731.4888 325.07956
1736.0396 322.10892
1745.5165 315.83838
1745.3347 309.74258
1749.8695 310.62817
1749.165 314.5829
1753.7537 313.45825
1757.2717 315.82758
1757.7217 322.09796
1754.3457 318.4862
1750.385 318.56387
1747.9688 320.86234
1750.5138 325.46414
1753.1843 322.6437
1755.0747 326.79227
1755.0892 330.2947
1758.1719 333.1786
1761.9172 329.46683
1760.817 325.30215
1763.076 320.5986
1760.5481 317.8975
1764.4619 308.23767
1761.9302 305.64685
1763.3739 301.8843
1763.1123 297.42215
1759.1547 297.925
1759.1018 303.01215
1755.3174 301.62326
1748.8741 298.94662
1742.5538 298.86624
1739.3713 295.91284
1745.1404 295.95242
1753.3906 298.18686
1756.3794 295.0262
1752.1399 293.474
1748.7899 293.82068
1745.9966 291.1799
1741.9214 292.7504
1742.8671 288.7102
1739.838 288.61853
1737.0472 287.44766
1738.1156 291.7554
1734.9858 292.63254
1734.6106 295.9008
1736.73 299.27982
1731.6533 303.76892
1731.3794 308.77112
1725.3599 305.71997
1719.3846 303.68262
1722.6465 299.24295
1727.3083 300.22754
1731.9653 299.1422
1730.1415 295.0277
1726.1742 294.46463
1727.9924 289.4844
1731.444 290.85742
1734.1459 288.55637
1732.5934 284.32532
1728.7598 284.68658
1725.165 281.23392
1729.7656 279.04037
1734.0787 278.37054
1736.3282 270.98956
1737.3898 274.13922
1737.8032 277.40475
1740.8823 277.68423
1744.0887 277.04556
1742.2075 272.48074
1747.0461 273.64865
1751.6355 276.0578
1747.5806 279.1939
1751.0895 281.09747
1754.5626 282.0216
1757.4734 284.238
1760.7896 285.52036
1762.9114 282.96948
1762.9164 279.1916
1765.9504 277.11777
1766.1632 282.18634
1764.8448 286.87766
1774.8276 290.60056
1774.5686 295.23764
1774.0509 298.4098
1775.7538 301.593
1779.7191 301.86664
1782.5748 298.98483
1778.3594 298.16418
1778.4263 294.87067
1777.9838 291.66724
1777.0198 287.80392
1775.6931 283.81366
1779.3452 283.599
1777.4673 278.21988
1774.7559 271.48718
1769.7458 272.45673
1767.8745 269.38406
1764.6217 272.8384
1760.7626 275.18726
1759.0613 280.2663
1755.9658 277.07806
1757.2642 272.0543
1752.33 271.22815
1748.3123 268.74393
1744.2891 267.5089
1740.1034 268.85464
1737.9716 265.8737
1732.9905 264.49493
1733.3353 268.65436
1731.6467 273.5403
1726.5056 274.19366
1722.4583 276.65335
1718.4618 278.61844
1714.6796 280.17545
1716.8427 284.1316
1720.9481 283.94165
1724.1324 287.59988
1719.5349 289.93207
1722.3007 293.1332
1718.5839 296.76205
1714.1376 297.40506
1714.8928 293.20004
1709.6837 293.3209
1709.4592 297.68887
1706.7614 301.03033
1706.701 309.81198
1705.4072 314.37372
1705.9153 318.6724
1706.9431 322.16592
1711.1255 323.73877
1711.1039 318.81143
1710.7085 314.39105
1712.7926 310.46002
1709.8574 304.8853
1714.033 301.56454
1714.8616 306.71588
1720.5879 309.84247
1716.8824 314.21454
1716.3109 318.98822
1715.7604 323.7271
1713.6692 327.7316
1715.2847 331.29193
1711.7386 335.02682
1708.5774 337.5603
1705.2699 339.56174
1700.8499 340.91843
1701.8501 336.59824
1698.8818 333.8392
1698.4557 329.45157
1705.4207 333.17032
1709.2601 329.80905
1706.3237 325.93326
1703.0673 328.89023
1701.544 323.5871
1701.3988 318.27426
1700.7534 312.60168
1700.8202 307.86304
1705.0269 305.53506
1701.7112 302.65448
1697.2096 303.33606
1696.1494 307.65616
1695.2561 311.88028
1696.7007 316.11377
1696.615 320.87357
1696.5361 325.41248
1692.91 329.40875
1691.2388 324.51758
1691.6542 318.82675
1690.8457 313.17557
1691.6046 307.7178
1687.5425 308.76602
1687.864 304.20386
1683.6084 306.07172
1684.1694 302.23682
1685.1201 298.74033
1689.3969 300.51245
1692.7417 303.08383
1695.9319 298.8874
1700.0879 298.3545
1704.0757 297.15372
1704.8625 293.08337
1707.1376 288.92596
1711.6846 289.5078
1715.959 288.78912
1713.1487 285.27582
1709.4802 285.1504
1710.553 281.43726
1711.836 277.4439
1708.533 275.1475
1713.6075 274.3821
1714.1873 270.11035
1718.2773 272.8495
1722.2369 270.0374
1723.3676 265.26303
1728.0266 268.62906
1728.9468 262.65475
1728.6543 257.24554
1732.1721 253.94095
1726.9934 249.77356
1725.1718 253.411
1719.8596 254.30214
1722.5769 256.97867
1724.633 260.6803
1719.6144 260.99997
1715.4321 260.8511
1717.473 266.28336
1712.7227 264.06146
1710.8308 267.367
1709.3538 271.28455
1705.3704 271.72025
1706.139 267.82147
1702.3833 269.39575
1701.892 265.10992
1701.2668 260.64536
1697.093 265.16986
1697.0708 261.5546
1698.2756 257.67587
1695.6951 254.93446
1696.2623 251.586
1697.2952 248.0023
1696.4097 243.85915
1695.6882 239.74396
1701.2439 245.51355
1703.3049 242.56747
1708.0775 244.79222
1707.2886 240.26295
1704.3127 237.85509
1707.6158 234.86954
1711.8567 233.76897
1711.7443 238.90039
1714.3657 242.19884
1713.0139 246.44388
1709.617 248.75386
1712.9316 251.47939
1711.0702 255.76118
1707.2722 258.5095
1706.3314 254.80809
1708.3876 252.17001
1704.8452 249.76514
1701.0436 249.80225
1700.4243 253.76012
1703.0775 256.5728
1705.1887 261.4148
1707.4608 264.21387
1710.8674 260.23312
1715.5525 256.8682
1715.9307 253.3287
1718.1608 250.47934
1716.6414 247.31223
1719.7946 245.44434
1722.5234 249.14201
1724.0825 244.00111
1727.6973 241.76
1724.0676 237.88133
1719.0071 241.46622
1719.2251 237.61378
1716.133 234.70993
1720.8931 232.6979
1716.0778 229.59712
1720.1809 227.69212
1724.3545 227.43277
1728.0513 226.84279
1725.6797 221.83409
1729.533 222.41101
1731.097 218.63145
1733.8772 222.62212
1736.2522 219.90242
1740.0448 221.01897
1737.8171 224.26775
1739.1172 228.9271
1734.9479 227.53178
1731.7202 225.86969
1731.5 230.18388
1728.5695 232.25467
1725.0256 232.34787
1728.4225 236.88855
1732.4698 239.41675
1732.4824 234.92993
1735.9647 232.0837
1736.8905 236.78609
1740.9861 234.54924
1743.3315 231.25627
1747.0579 232.10318
1751.3748 231.5041
1755.8589 231.25536
1757.0162 227.22647
1760.7668 229.4893
1766.207 229.40546
1768.0787 224.64128
1767.0278 218.74577
1762.7407 220.42815
1763.317 225.10034
1758.7438 223.05226
1759.5466 216.96104
1763.521 214.79004
1764.5023 210.50798
1768.7688 208.57481
1770.746 204.95766
1775.7653 203.0335
1775.5593 207.89209
1773.6409 212.22276
1769.0674 213.46161
1771.5869 218.20753
1775.953 216.40405
1776.4644 220.9772
1772.3007 223.13214
1772.5621 228.08736
1778.2417 229.6996
1777.1807 225.47021
1780.4869 222.37517
1781.6761 226.1731
1783.448 229.18095
1781.3947 233.31186
1778.3157 237.6936
1774.374 240.41666
1769.717 241.145
1766.8391 244.67636
1762.897 241.28583
1763.2708 247.78445
1752.999 252.251
1750.2878 248.31943
1750.3497 243.1821
1744.6289 245.40073
1736.685 254.08044
1740.359 256.7754
1734.3782 259.43213
1738.3998 261.79553
1742.7161 263.06195
1744.4713 258.7319
1747.7483 262.66382
1751.977 265.05347
1756.6108 266.77692
1761.8735 268.5931
1764.0464 255.08339
1767.3169 258.56827
1772.3088 259.69226
1776.4167 257.84024
1780.0884 260.4732
1782.116 268.23285
1779.1947 273.1984
1783.5568 272.7612
1787.1238 271.2557
1793.8127 271.11203
1790.3962 269.38657
1786.3853 266.37384
1785.2399 262.20712
1789.8995 263.1034
1792.9758 265.97662
1796.5598 266.14252
1799.5155 268.03857
1803.0608 265.14798
1805.6223 262.36835
1809.8147 261.53125
1813.0597 264.72318
1808.627 265.99646
1803.8972 268.6388
1807.7607 270.07007
1812.8663 268.99207
1812.9792 273.2605
1809.618 273.60797
1810.902 277.7439
1815.6138 275.7475
1815.8412 281.0272
1818.1051 278.08026
1821.8253 279.50885
1824.5809 282.3335
1821.1562 275.4735
1820.0955 271.04944
1816.8923 271.18683
1817.2664 266.2817
1815.1891 261.4961
1816.3816 257.5932
1811.892 258.4218
1813.8762 255.04715
1815.9043 252.10316
1819.1384 254.5778
1819.7542 251.03317
1822.8434 249.4809
1823.7169 252.96185
1828.6349 254.08142
1827.7507 249.95639
1828.1697 245.72313
1824.441 246.53203
1817.4362 248.16066
1813.6628 249.07906
1810.2776 247.58841
1813.3108 244.54964
1813.2786 240.73027
1809.1223 240.72318
1807.7571 244.37646
1806.2029 248.64832
1806.3691 252.93823
1810.7935 252.02069
1809.3857 255.68602
1806.3118 258.03424
1801.988 259.63327
1799.1141 262.562
1794.6416 261.57385
1797.1926 257.55875
1797.9569 253.22588
1802.362 255.28427
1802.135 250.52704
1797.9371 248.22827
1802.3613 245.26854
1800.1578 241.11472
1804.6036 240.07027
1808.6576 236.69968
1812.9985 236.75475
1815.7086 232.98584
1818.9972 231.2493
1821.2471 234.83171
1821.6167 238.95062
1816.9658 237.52794
1818.6367 240.93979
1817.0334 244.2354
1820.5209 245.56085
1823.4707 242.6851
1824.8135 238.31306
1827.533 236.82399
1830.8328 238.16594
1828.1069 241.64514
1832.4377 244.28609
1832.3782 248.59535
1833.25 252.8724
1835.5858 263.85495
1837.1077 269.52856
1832.8475 257.8761
1837.0935 249.08006
1836.7654 242.92836
1833.844 240.09302
1837.09 236.96132
1833.4725 234.65105
1829.6127 233.03554
1825.3162 232.61034
1831.7887 229.05962
1836.4128 231.3245
1836.1356 226.70134
1836.5509 222.24422
1837.218 215.23982
1834.0146 218.04202
1832.0109 221.25606
1830.3186 224.40108
1826.9888 227.84305
1822.3425 228.8575
1816.9569 227.43153
1813.252 226.192
1810.9629 229.80063
1811.1847 233.226
1805.2919 234.54027
1806.5834 229.69835
1803.7048 226.56772
1801.808 222.9557
1806.087 223.2505
1809.2917 225.21417
1808.7422 219.83463
1812.6794 217.58112
1813.5483 221.6863
1818.1073 221.9522
1821.7695 224.24982
1825.8733 222.68614
1828.373 218.05385
1823.2297 218.19492
1818.3713 216.7331
1822.7225 212.95009
1820.1371 209.4132
1816.8329 211.34102
1813.8248 213.77472
1811.8518 209.1003
1812.2092 204.52321
1817.3617 205.39716
1824.6576 207.97652
1823.48 203.81757
1827.2175 201.46417
1832.6062 201.92303
1829.9512 206.54276
1827.3922 212.66339
1831.9736 214.12798
1833.4807 210.41396
1836.6792 207.45009
1836.8557 201.07812
1835.7961 197.1266
1830.4512 197.94328
1826.6216 196.7871
1822.3964 197.82039
1819.3237 200.44173
1815.0155 199.16206
1810.3394 201.12187
1809.3972 197.41275
1803.9645 198.27156
1806.3263 202.43289
1806.7124 206.66962
1804.7646 210.69156
1809.1685 213.47029
1805.7434 215.80731
1803.6287 219.23103
1801.0619 214.64041
1798.3787 210.69685
1800.4276 206.63377
1801.3552 202.35757
1797.7302 198.06465
1795.0803 202.43289
1793.8605 207.05348
1790.9192 198.87856
1785.6604 199.68288
1788.4927 204.72742
1784.9164 209.03395
1789.1388 210.83525
1793.6066 212.11351
1795.907 215.97687
1790.25 216.01514
1788.3987 220.39821
1790.6771 223.07779
1793.804 220.222
1798.8932 219.39052
1797.7081 223.69995
1794.3767 225.55577
1790.46 226.94254
1792.4124 230.15454
1796.7416 230.12994
1799.5427 227.406
1802.0334 230.88112
1800.3564 235.17372
1795.2063 234.53712
1796.644 239.36005
1792.6866 239.94756
1794.9255 245.48277
1790.5795 245.27309
1786.9163 247.94193
1787.3606 252.4843
1792.9296 252.12514
1792.1407 258.02734
1788.199 257.15085
1784.0316 257.9908
1781.1844 254.89003
1781.718 249.68771
1776.7104 251.87991
1772.5931 254.46567
1768.5138 253.92921
1767.1324 249.84854
1771.6545 248.3868
1775.6724 246.26517
1779.7552 243.9767
1784.5094 243.70808
1781.7708 238.96921
1785.2622 238.20064
1788.2688 241.11032
1789.5515 236.90303
1790.5476 233.48323
1785.7397 233.97379
1787.4122 230.01707
1786.8225 225.68892
1784.8198 223.00398
1782.9368 219.84016
1780.2974 216.95522
1785.7988 217.52411
1784.3206 213.76338
1779.2806 211.8651
1781.1561 206.77559
1781.371 202.57132
1780.4856 198.4026
1775.607 197.88884
1771.5083 199.26839
1771.0734 194.24478
1766.1642 196.0497
1767.584 201.28578
1762.8807 199.65279
1758.3392 198.83008
1758.8279 204.31233
1763.9075 205.45247
1759.6713 210.0143
1756.4534 213.71516
1752.2681 212.84314
1751.1848 216.38005
1755.5186 218.58572
1752.5013 221.01408
1754.3481 223.7808
1752.752 227.56752
1748.9473 227.73877
1749.074 223.70308
1745.2853 226.96954
1741.7651 225.58305
1744.501 222.57693
1742.6196 219.04929
1739.356 216.31282
1734.886 216.49121
1732.8809 212.72678
1736.8706 212.39943
1740.1232 210.82571
1742.5223 213.41748
1743.7892 216.21642
1746.605 219.86101
1749.7859 219.53687
1746.92 216.41997
1747.9475 213.21913
1745.1929 210.53249
1742.169 207.12227
1746.1326 205.5344
1749.6508 208.70395
1754.6885 208.94989
1753.6663 204.7113
1753.2524 200.19281
1748.4722 202.03848
1741.505 201.90717
1736.2589 199.41345
1732.5848 196.32005
1728.6497 198.62138
1723.6423 198.57503
1722.9172 202.57268
1724.5048 207.59882
1728.825 203.54373
1734.5406 203.73648
1737.4257 207.1758
1731.5549 207.95396
1728.292 211.3187
1727.9624 216.22253
1722.8223 217.79584
1723.6918 213.34416
1719.8265 210.93195
1716.7253 214.04225
1713.7417 217.01433
1718.2617 218.4694
1721.6638 222.77338
1718.1029 222.9811
1715.8289 224.78847
1713.2075 220.63132
1712.7529 225.11235
1711.6205 229.04051
1707.3723 230.47354
1704.0607 227.13724
1708.0347 226.25496
1709.8467 222.89519
1708.4423 218.82477
1705.9105 221.99034
1702.4072 222.68105
1699.6082 219.46538
1699.2815 215.00526
1695.0659 214.0059
1692.5044 210.73586
1689.8867 208.34717
1687.2908 205.81067
1686.2853 212.21967
1690.588 215.37025
1687.2465 217.10774
1682.6648 216.78606
1679.233 219.84262
1676.3738 222.74997
1674.1909 219.38812
1669.9805 217.6306
1673.5079 214.7174
1678.1617 215.24077
1676.1251 210.58012
1680.9196 211.11873
1683.7449 208.01326
1680.4028 204.50926
1684.1486 203.27972
1688.131 201.69336
1688.6008 198.18384
1691.5919 204.2342
1692.2712 200.28128
1693.6031 196.37236
1697.1868 195.85875
1696.1042 199.03523
1699.9873 200.43364
1703.9182 199.04942
1707.4443 201.58565
1711.9259 204.88692
1707.8119 210.77261
1706.199 206.29088
1701.4238 204.8327
1696.4412 202.64174
1695.4534 206.36403
1698.2878 209.59319
1702.9385 210.96706
1704.2985 216.42111
1709.6749 215.08107
1712.2274 211.30667
1715.2607 208.4256
1718.8179 205.42859
1717.0863 200.55869
1711.9065 199.19162
1707.5735 195.77402
1703.6827 193.3225
1700.624 196.23096
1699.3132 192.07333
1695.9069 192.40686
1692.7637 192.28372
1690.4937 195.34453
1688.5472 191.73222
1686.1282 195.198
1683.6633 192.08905
1678.9847 192.63289
1681.9049 195.42757
1684.5559 199.25581
1680.6609 199.38039
1676.6244 205.64284
1672.9064 207.44547
1669.5411 205.39575
1672.3635 201.139
1676.6335 200.93715
1676.5962 196.90163
1674.1123 193.56252
1669.8691 195.63382
1664.8933 197.06203
1658.7959 200.19012
1663.9407 201.79138
1667.9624 200.2398
1665.9792 206.24902
1662.4545 207.71356
1664.8484 211.55896
1669.899 210.86926
1667.9215 214.41663
1665.0223 216.80336
1664.833 220.31602
1667.1577 222.22417
1670.0168 221.44783
1672.6306 224.13185
1669.4109 226.46318
1665.7712 225.8492
1663.2595 223.41344
1660.832 221.64052
1661.3757 218.79567
1660.367 215.49055
1660.6277 211.5707
1656.6227 212.07698
1658.0977 207.59726
1660.7524 204.11981
1656.0127 204.36981
1653.5687 208.58481
1650.7125 211.58115
1653.993 214.98303
1656.4617 218.12836
1651.4958 218.84282
1647.816 216.7646
1645.0691 219.98247
1642.1351 223.3706
1646.4587 224.2751
1650.1493 223.299
1654.2151 222.72797
1657.638 221.22859
1659.124 224.11055
1657.0735 226.55867
1661.4326 226.31738
1662.7611 229.357
1665.5173 230.39433
1669.1996 230.60861
1671.8815 233.41954
1674.4144 236.60107
1678.0662 239.62875
1677.1589 244.88235
1681.7135 242.94565
1683.4292 237.86687
1678.9116 234.78897
1683.4819 233.37411
1687.5955 232.56548
1684.1556 228.0116
1680.1885 229.809
1676.206 231.40114
1673.1244 228.66302
1676.5706 226.72331
1680.1619 224.89323
1683.5485 223.0511
1686.0833 220.53044
1688.9972 222.50038
1692.49 223.62065
1693.9604 219.0125
1696.9891 223.33784
1699.7639 226.3033
1699.7388 229.81537
1703.094 231.36203
1703.1417 234.733
1700.1633 239.3015
1699.6111 235.19623
1697.5498 232.86089
1695.8483 230.01036
1693.8489 227.27417
1688.6473 227.46016
1691.965 232.02858
1694.8727 235.79034
1690.1455 237.21298
1687.0868 240.7253
1691.3483 243.18852
1692.822 248.23865
1688.4343 248.81378
1685.7734 245.31929
1681.9283 248.76103
1676.8638 250.23842
1680.0464 254.37709
1684.989 258.05524
1680.7131 259.5134
1675.9589 258.68152
1673.3687 254.82648
1668.5535 257.35342
1665.4255 260.84064
1666.368 264.9298
1671.03 261.37634
1672.721 265.5128
1669.402 267.59183
1667.5281 271.28873
1663.961 271.30838
1662.929 267.80606
1660.7993 264.72507
1656.7433 266.5933
1652.9033 265.7201
1653.3138 261.7346
1657.352 260.60675
1661.138 260.87234
1662.8042 256.6907
1657.8638 254.96986
1661.0651 252.39467
1664.0349 249.35948
1667.4448 252.60466
1671.5684 249.7521
1672.3855 245.30365
1672.7194 241.0427
1669.114 238.45206
1666.467 234.73615
1661.4756 235.1428
1659.2234 230.26418
1656.331 233.14148
1652.1326 231.53946
1653.5449 227.47583
1648.8209 228.37198
1644.4915 228.4949
1640.0603 227.49088
1637.8137 231.5624
1634.6188 236.33151
1640.1168 236.04623
1642.99 232.62904
1647.7544 233.35628
1645.7161 237.6164
1651.599 236.83833
1652.3005 242.09467
1656.9277 238.264
1658.2703 242.65527
1663.9802 240.08763
1667.5338 244.94165
1662.2313 245.3247
1657.3816 248.00824
1653.9512 251.84543
1652.3728 247.48805
1648.5452 246.07469
1645.1511 248.1788
1642.6748 251.75497
1641.6721 245.28699
1646.4166 242.10222
1641.3191 240.81656
1636.7001 240.17288
1633.0829 243.84587
1636.8615 245.52957
1639.0842 249.40118
1633.294 250.24632
1636.831 253.01285
1639.7444 256.1752
1634.3132 256.57956
1630.584 258.81516
1632.326 262.207
1628.7507 266.05115
1626.047 270.711
1628.8657 272.12143
1624.706 275.89502
1621.9957 279.94547
1625.4062 281.19006
1627.9172 285.44553
1623.8907 287.46182
1620.2645 285.3581
1619.1313 291.2581
1616.303 296.0567
1620.2798 298.2639
1624.7072 293.92273
1628.5178 290.68808
1632.6494 294.78918
1633.9419 290.6419
1633.5262 286.44342
1631.6033 283.30194
1629.3529 280.0604
1630.348 276.08685
1634.1754 279.47607
1634.8527 273.88226
1631.8877 270.61688
1634.6646 268.46774
1635.2179 264.78284
1638.0984 261.02554
1639.5676 266.16425
1639.0002 270.5438
1642.4094 272.52438
1638.7202 275.9856
1638.6224 280.04254
1637.957 284.359
1643.9988 286.1274
1642.8958 280.94037
1647.6538 280.3847
1651.405 280.88895
1654.2407 283.79947
1657.3079 285.31818
1658.0862 281.40417
1654.9142 279.14832
1653.6493 275.5367
1649.4371 274.68494
1644.8047 276.15405
1646.488 270.14545
1643.7329 265.6983
1642.8298 260.89026
1643.6765 256.8845
1647.5576 257.74835
1645.9478 253.85318
1649.3354 252.24014
1654.2357 256.45886
1651.0428 257.97632
1647.7942 261.98566
1648.7656 266.04968
1652.21 270.2638
1656.6201 272.51242
1659.4652 270.24878
1662.6621 274.93704
1658.7712 276.78058
1662.1836 279.80188
1666.731 280.82294
1667.758 276.94012
1671.0154 274.0244
1673.3235 269.93826
1675.9307 273.64478
1679.1394 271.51715
1677.1327 267.71356
1676.0247 263.11395
1679.835 264.37827
1683.5629 263.9017
1687.1365 262.4959
1689.727 259.3524
1689.0382 255.37018
1685.3135 252.79642
1691.8511 252.99037
1693.7367 258.12814
1692.9193 261.99664
1691.3728 264.4379
1688.2054 266.65555
1685.2148 268.67703
1681.8999 268.62585
1687.4916 271.34177
1691.6031 269.86047
1692.4808 267.06967
1695.4432 268.5927
1698.8062 269.3489
1699.0208 273.138
1702.183 273.50302
1705.0563 275.14084
1704.651 278.36407
1707.6195 279.51263
1705.623 284.7243
1703.5581 282.02148
1700.786 280.11407
1701.6339 276.7434
1698.1943 276.858
1694.7057 277.51675
1695.1777 272.89413
1691.1313 272.53174
1690.9047 275.3009
1690.529 278.6893
1697.0414 281.62686
1700.7644 285.2767
1702.0825 289.28842
1699.1312 293.06952
1694.5972 294.51068
1691.8242 297.31046
1688.1456 296.40097
1685.3431 293.93918
1681.8862 295.80634
1680.8671 299.36835
1680.2644 302.76892
1676.312 300.8738
1676.7264 303.92978
1678.9939 305.9075
1679.6733 308.65964
1682.6182 310.18927
1685.3423 312.56653
1687.2839 316.36588
1683.9027 318.83826
1680.5626 321.2543
1678.2253 324.6324
1674.6084 324.68762
1671.4686 326.0702
1670.2681 330.10327
1672.3358 332.40027
1675.6619 330.65372
1678.7936 328.369
1682.7471 325.5539
1686.8425 322.64117
1686.368 328.57153
1689.063 332.5535
1693.7664 334.67853
1695.428 339.03027
1688.8479 337.65332
1684.614 341.10782
1681.7445 338.18735
1684.481 334.38983
1681.4753 331.1138
1678.6002 334.68268
1677.3209 339.45734
1673.9437 336.1895
1672.2329 340.92496
1671.6476 346.57712
1667.9479 350.3082
1664.0366 352.9858
1659.1256 352.82697
1654.4382 351.30075
1656.2571 346.88882
1659.2358 343.1139
1661.6926 347.65488
1665.9261 344.91705
1662.119 340.19604
1657.5444 337.284
1657.0614 333.22964
1652.4375 334.28293
1652.021 338.46747
1654.9994 341.64963
1650.3759 343.15256
1651.5264 346.5665
1649.6771 350.2836
1650.448 354.24945
1649.8564 358.54694
1646.2008 361.17166
1643.2528 357.5786
1645.2349 353.20764
1646.3566 348.04727
1641.122 349.38364
1641.9216 345.84784
1644.8916 344.5953
1645.6141 341.85797
1647.8562 340.06116
1647.298 336.64578
1645.0322 333.2029
1648.8538 331.62292
1651.803 329.37335
1654.5905 328.58762
1657.7222 329.6032
1661.5558 331.97574
1663.5637 336.24783
1667.5957 340.49542
1669.0682 335.84927
1665.9675 332.37497
1667.4739 328.28436
1664.2723 327.5074
1667.6467 323.73553
1671.0781 320.32428
1673.7961 316.54752
1676.5782 319.49878
1680.6807 315.56372
1678.2241 312.73297
1675.7838 309.66928
1674.0591 312.64987
1670.1605 313.7237
1666.4637 313.44293
1666.4978 318.42007
1663.717 321.69028
1661.8538 324.76028
1660.5353 327.88004
1657.8148 325.41122
1659.3657 321.91937
1659.8135 318.25848
1662.3982 315.6089
1661.3506 311.87375
1657.7974 310.78656
1657.0032 306.27856
1652.2817 303.16364
1653.3163 306.27057
1653.3353 309.6658
1654.1431 312.9307
1656.628 315.29907
1654.3219 317.9738
1655.5417 321.1413
1654.6641 324.63885
1651.1628 323.60822
1650.5808 319.28958
1646.6877 317.78354
1650.2472 313.84512
1646.6726 311.73346
1649.4658 307.52148
1644.8076 308.06494
1641.9585 305.11987
1646.251 304.4298
1648.0046 301.33182
1642.1885 300.9563
1644.5817 297.872
1648.8146 295.55826
1651.3766 299.3958
1654.9761 297.72455
1655.995 302.0244
1659.3192 302.1413
1661.6013 299.8016
1663.9094 304.12186
1660.7195 306.9949
1664.8036 309.32056
1667.602 306.81036
1671.0902 308.76706
1674.9141 306.88104
1673.2183 303.79367
1669.6427 303.56326
1666.4724 300.28308
1663.4519 296.5324
1661.8585 292.41843
1666.7549 293.36792
1669.1475 296.39285
1671.2876 299.7504
1674.5078 297.7496
1677.9551 296.90845
1679.046 293.28247
1675.5421 293.11652
1672.0049 293.5771
1670.9067 289.30835
1674.7367 287.82626
1678.4338 289.25018
1677.1333 283.2344
1681.3362 286.35413
1682.115 291.4232
1685.2704 289.28638
1689.6544 292.1284
1694.273 290.25754
1696.9716 286.64194
1692.7666 285.80646
1691.6658 282.12906
1689.1035 287.41632
1686.149 284.24487
1682.1165 281.67844
1686.0948 279.45132
1686.4838 275.34662
1682.6868 273.86688
1679.8008 277.71796
1674.4448 277.9977
1672.0048 282.08862
1668.9274 285.50665
1666.1798 289.44104
1664.7246 284.407
1660.9868 284.27866
1662.5753 288.1735
1658.9049 288.3498
1657.1842 291.72452
1658.45 295.82724
1652.7937 293.07855
1653.923 288.48447
1649.767 285.6176
1648.1901 290.1118
1643.644 292.6098
1639.0415 289.58432
1638.977 295.63776
1638.2937 301.34946
1634.8363 299.09973
1629.7222 298.8282
1625.0073 299.35147
1626.6953 303.83975
1630.2676 304.85867
1633.8602 303.67123
1637.4521 305.4393
1639.2556 308.44516
1641.9459 310.82224
1643.2255 315.00934
1641.6659 319.4936
1641.2961 324.9843
1645.78 322.71024
1648.6857 326.4694
1645.3553 328.12524
1641.9695 329.7201
1638.8505 331.10614
1642.0793 336.35324
1641.5085 340.82764
1638.356 344.4779
1635.1322 342.04483
1637.4594 339.08203
1637.8335 335.05966
1633.4515 335.89383
1632.7781 338.98578
1629.1985 338.817
1625.4214 339.76114
1622.4254 336.8187
1621.7897 331.637
1626.3497 333.81076
1630.0918 333.3923
1626.5381 328.53558
1630.9287 325.4745
1632.4216 329.39615
1634.6796 332.29453
1636.2684 326.7535
1637.6696 322.60953
1633.9219 321.18842
1630.2871 320.04575
1627.4746 316.63568
1630.8235 312.86697
1633.6636 315.59338
1637.363 317.92078
1638.6091 313.7004
1635.6833 310.3731
1632.5867 308.3784
1628.2059 309.62204
1624.1448 308.0507
1624.4303 312.83887
1619.2427 313.70944
1619.3677 309.16776
1621.4092 303.78506
1616.8334 304.7891
1614.1903 300.82944
1611.5023 305.3557
1614.0073 308.73392
1614.9762 312.76227
1610.4562 310.99005
1609.3458 315.7991
1610.4021 320.24725
1613.6896 324.30774
1613.7012 316.8198
1616.8728 318.90494
1621.6396 316.84204
1623.1348 320.4367
1626.5808 323.01816
1621.9385 325.9402
1618.3804 322.83438
1617.7334 328.81256
1613.6699 329.84232
1609.5465 328.32477
1608.017 324.33743
1605.1832 321.00778
1601.9236 325.1135
1604.587 328.38596
1599.5748 328.92776
1596.3511 331.15985
1592.4249 333.61996
1594.6282 337.01004
1596.3104 341.15518
1601.2058 344.14273
1601.7341 339.13867
1599.1743 335.1791
1603.4092 333.69016
1607.6674 332.50125
1607.9247 337.12436
1606.2656 341.56503
1606.1188 346.6627
1611.4908 340.50638
1612.4702 334.3118
1617.7429 334.89856
1615.8436 338.9883
1620.0859 341.9097
1615.3551 344.46164
1610.7922 345.45877
1610.7115 349.72992
1614.6765 351.63293
1617.6272 348.82288
1621.4141 347.36243
1624.6486 344.3691
1628.3588 343.8136
1631.6411 342.98923
1633.9662 345.78204
1635.8163 348.41745
1636.363 351.8378
1640.0819 353.45114
1638.4479 357.5539
1639.8821 361.9515
1642.9534 365.05173
1647.6138 366.61404
1651.3196 364.67325
1655.4865 362.94077
1655.228 356.96057
1659.5769 359.84995
1663.9415 358.10025
1661.3271 365.5614
1662.3511 370.90567
1668.5013 371.3219
1673.2627 368.56003
1675.2501 372.6926
1670.777 375.9141
1665.8303 375.83566
1666.2942 381.2627
1669.5176 380.76154
1672.1561 384.24927
1672.9951 380.21616
1675.0548 376.75284
1678.0586 378.88934
1676.2505 381.82327
1675.9448 385.22287
1678.6268 387.3534
1675.0474 404.97513
1668.2196 402.7294
1671.2322 407.9546
1670.9446 412.2468
1664.4608 409.4969
1662.7565 404.28027
1661.9436 399.35345
1657.5402 408.0543
1657.2593 403.0172
1655.4404 398.44357
1657.4243 395.1421
1651.5234 395.4091
1647.961 399.88437
1651.8247 402.31155
1651.9027 406.81726
1647.0413 407.1808
1642.419 409.08344
1642.6096 404.71606
1637.4935 405.65543
1637.1694 411.30685
1632.5945 414.51562
1630.5989 409.10138
1633.8806 403.08054
1638.6637 400.72488
1639.4429 396.96463
1642.7871 399.643
1644.4596 395.0948
1648.2249 391.7577
1653.1932 389.70523
1662.3042 378.70367
1658.6506 376.27682
1654.3723 374.42407
1655.406 368.96646
1649.0837 372.44308
1643.6322 370.10916
1638.5188 367.54904
1635.8008 364.40366
1632.2275 364.12848
1634.3906 360.12247
1634.2886 355.9099
1632.2715 352.62433
1629.439 350.6824
1630.3358 347.42178
1625.6616 349.32053
1622.9822 352.99783
1627.7083 354.55136
1629.896 358.0323
1628.4454 361.5314
1624.0029 358.07635
1618.9813 354.45322
1600.5004 372.64825
1605.4957 381.06036
1609.2603 387.53198
1610.6588 391.3464
1612.7507 394.23853
1613.9191 397.59622
1615.5487 400.93564
1603.7849 411.29532
1605.8318 403.8316
1606.3123 398.07086
1608.8887 394.84164
1604.9904 391.67212
1605.8346 385.532
1602.7892 377.073
1596.9546 366.95566
1590.1686 360.50455
1590.4624 339.37155
1587.1641 336.33838
1581.9922 338.8662
1582.1711 351.75006
1565.4164 357.67053
1558.5302 354.82333
1551.2903 352.97046
1544.658 350.7362
1538.0408 349.43124
1532.6934 348.0176
1529.5845 351.19772
1526.6559 354.29373
1522.6036 357.36356
1517.9503 360.94034
1512.5461 366.7286
1523.6681 373.17703
1524.5247 377.3448
1525.2153 381.66138
1542.34 382.81345
1541.4385 374.49393
1542.039 367.71307
1542.3058 362.9609
1542.5475 356.20883
1545.1875 359.6607
1547.8077 363.82495
1551.3158 367.21286
1554.1615 370.95905
1554.8119 374.7372
1543.7858 392.13397
1528.1411 388.08023
1527.8243 397.34714
1524.9102 408.28464
1543.0742 415.51138
1545.7317 420.0303
1552.6217 416.4648
1550.3568 420.55923
1546.1273 424.8054
1538.5146 434.36725
1523.8008 461.03592
1499.3517 466.04218
1482.1847 465.20175
1481.144 479.8678
1473.0079 468.06586
1466.1781 467.97433
1461.8427 470.5683
1459.3143 465.96362
1455.102 468.62253
1446.1771 468.10495
1441.5284 469.5406
1441.1232 463.99298
1435.5419 467.5558
1435.152 462.85776
1429.5673 464.57648
1429.5676 458.61972
1424.7847 462.25177
1422.5978 456.28223
1425.8372 451.2818
1419.4794 450.09134
1415.3232 453.34195
1419.3323 461.36575
1415.2124 458.48926
1410.0176 455.2019
1403.2402 450.57056
1398.5195 444.6479
1405.4446 440.46036
1408.6769 446.7653
1413.8639 448.3305
1411.8364 443.97946
1409.0374 440.43134
1406.0049 434.8486
1403.3855 424.6281
1401.9958 431.1184
1394.3287 434.2313
1390.4025 428.0474
1395.2894 423.7096
1389.5419 421.4717
1393.5459 414.89062
1400.375 418.8909
1405.3367 414.24026
1400.3384 411.8112
1396.1982 408.6553
1403.8085 409.26773
1406.9348 406.1619
1401.4535 404.60712
1405.8756 400.402
1408.5192 393.63412
1404.995 394.66693
1402.177 398.0855
1398.582 399.85757
1396.23 403.62354
1393.1082 399.50882
1388.5536 400.5624
1391.4648 405.1332
1386.7733 405.0015
1386.0239 411.5271
1382.1729 410.59335
1382.0038 406.0456
1383.2107 400.846
1386.3282 396.35486
1390.5076 395.31177
1391.8003 391.75775
1385.8491 390.82166
1381.9089 395.90808
1380.5154 392.14557
1381.5884 386.8656
1386.1493 384.0229
1390.4478 387.53894
1394.2698 382.7203
1390.5524 380.5903
1389.7599 376.57486
1386.0602 372.69217
1388.401 361.49942
1394.0787 357.6712
1390.2676 368.4619
1393.1849 372.5442
1395.6584 377.84158
1400.9286 382.63974
1396.0907 385.74594
1395.5809 390.0071
1395.8212 395.42044
1399.761 394.2111
1400.7264 390.9787
1399.7434 387.06177
1403.4985 387.65076
1406.8048 389.7884
1407.883 384.35544
1406.7578 379.4592
1400.9681 378.3248
1407.7692 374.53912
1405.41 372.07224
1408.137 369.60995
1407.6731 366.1558
1408.7477 361.84912
1405.8987 362.8553
1403.9292 365.70667
1402.8851 369.4534
1402.6702 374.5882
1397.97 373.5573
1397.6975 369.6567
1399.8434 366.39108
1400.2908 363.33206
1402.7961 360.92368
1405.2417 359.28824
1407.722 356.59753
1402.3087 352.66052
1413.72 337.22592
1425.9055 325.98685
1432.5049 322.9518
1441.0205 320.65204
1480.6222 321.89542
1487.3533 309.31494
1479.5181 339.82837
1477.0576 342.55725
1476.8444 347.19235
1473.5586 344.48648
1472.0421 347.732
1469.7234 350.5662
1469.6108 355.2191
1474.0388 352.62964
1480.5947 356.8176
1480.0518 361.52005
1472.6558 362.85413
1473.3522 358.55963
1468.645 359.47653
1468.1318 363.64783
1469.7876 366.8519
1469.0128 371.03967
1471.0887 374.65533
1474.9708 374.76382
1473.4149 371.71375
1473.1345 368.7961
1474.5608 365.85007
1479.6831 370.20413
1480.5211 366.43008
1484.044 363.87814
1484.492 360.06393
1484.5452 356.18832
1485.4027 352.03848
1481.2747 351.76392
1483.6743 347.9177
1485.4316 344.33408
1488.7924 341.11865
1491.2363 347.88248
1492.8997 358.56088
1490.3611 366.27423
1489.5955 371.9765
1484.435 370.77426
1480.9791 374.13373
1486.1108 376.551
1482.5786 377.71487
1478.945 377.69223
1474.593 378.47836
1472.8494 407.16306
1472.6565 413.07843
1469.9779 418.6715
1473.9792 419.97855
1471.4229 425.61276
1471.4192 430.7659
1471.6504 436.07254
1475.0974 433.0043
1477.512 437.48822
1474.8358 437.7946
1474.7782 440.7559
1477.8296 442.82468
1479.4615 444.50952
1478.0604 440.45654
1485.9537 435.64554
1483.5173 428.97034
1482.5524 423.2629
1484.9333 419.36868
1479.7031 416.27283
1482.1469 411.63043
1481.4271 406.01004
1485.5339 405.81253
1489.0348 411.2486
1492.4813 417.1685
1513.7256 416.7919
1517.993 420.35834
1522.2505 423.17014
1526.1882 425.6657
1529.4138 428.13638
1531.6006 431.03473
1534.4806 433.28265
1543.7173 433.51318
1550.5398 431.52405
1608.018 448.09882
1614.377 449.6201
1614.5933 454.74738
1617.0464 458.0365
1621.0565 457.02167
1620.1433 452.5778
1620.9344 448.28796
1625.1647 454.72247
1625.4309 459.1626
1624.5836 462.2229
1620.7241 461.1382
1617.3206 462.18027
1619.7675 465.0494
1621.0231 468.51526
1623.3 467.19818
1623.0186 464.4584
1628.722 463.0437
1633.3921 464.65424
1630.7211 466.50772
1628.5645 469.21255
1626.3942 466.5158
1624.3484 470.1259
1622.247 472.15338
1624.3204 474.0088
1626.8757 472.2602
1625.9672 477.1369
1628.9495 475.06998
1630.8533 472.36414
1632.9618 469.78818
1636.2107 469.15857
1639.4054 472.3338
1640.2834 475.98456
1635.7766 473.74274
1632.788 476.15356
1629.4238 478.29266
1628.26 481.87784
1631.9058 480.915
1636.1528 478.61612
1635.0656 483.08853
1638.8922 484.01663
1640.3547 480.22504
1643.8733 477.95966
1645.1989 481.60904
1648.236 479.34088
1647.2434 475.7496
1649.2177 472.7227
1644.2903 472.9474
1641.954 469.86664
1646.6573 469.11142
1650.0986 468.47925
1653.7043 466.61417
1656.9003 464.82248
1654.8636 463.9648
1653.1779 462.03827
1651.3215 464.60272
1648.1361 464.82526
1644.6907 463.29346
1646.8656 460.68796
1650.2269 460.55725
1653.2852 458.4994
1651.396 454.84818
1647.7532 456.9069
1645.9498 452.94345
1641.8295 454.5546
1643.431 458.35117
1641.2006 461.20837
1640.8257 464.3905
1643.8549 466.83923
1639.2913 467.50934
1636.907 465.03
1636.4796 461.83826
1638.0966 459.4592
1638.1914 456.6101
1637.1606 452.9376
1633.805 456.13565
1632.8267 460.473
1629.325 458.23056
1630.3481 453.49393
1626.0251 449.836
1629.579 448.4953
1633.0513 449.23846
1637.0039 449.24692
1642.3119 449.80038
1649.5558 450.58896
1655.332 451.00247
1660.4224 451.80872
1655.7653 454.32956
1657.3273 457.17224
1656.3933 460.80304
1658.7623 462.772
1659.638 465.78394
1661.8168 466.76102
1663.9915 468.62244
1666.0111 470.96283
1665.1726 474.7064
1662.7578 478.03116
1658.8942 478.9188
1656.4357 476.40082
1657.1356 472.54193
1661.1245 473.72244
1660.0331 469.94757
1657.4066 467.3413
1655.9528 469.44214
1652.9426 469.58267
1653.1594 472.93576
1652.2765 476.7379
1652.0754 480.18002
1656.907 482.56503
1654.5521 486.90195
1652.979 483.28412
1648.7781 484.13425
1650.4116 488.38937
1646.5725 488.15244
1643.6819 484.43256
1641.7054 487.57944
1637.8177 489.17233
1633.7556 487.22635
1630.5068 485.30203
1633.2548 491.01184
1634.801 494.5231
1638.4534 494.4736
1644.3478 491.23993
1641.1501 492.62186
1638.7723 497.88348
1635.688 498.6918
1638.4993 501.475
1637.6904 504.41843
1640.2285 505.67615
1640.7412 508.88913
1641.828 512.4055
1645.0837 510.16296
1644.4976 506.73166
1645.9899 503.5138
1642.9309 502.68884
1641.9468 499.6555
1643.808 496.34836
1647.2932 499.26117
1651.814 501.10394
1649.1519 503.9793
1648.8131 507.77945
1648.7357 511.6115
1651.4983 514.0267
1653.1652 517.58905
1651.2119 520.45636
1647.8743 519.98126
1648.2557 516.5155
1645.5452 513.9339
1643.4185 516.7234
1644.0302 520.6722
1646.749 524.0961
1650.8257 524.9499
1653.8445 522.6627
1656.3458 524.96185
1659.6315 526.04266
1661.4991 529.28906
1666.0977 529.8626
1667.1738 534.76154
1669.3685 541.0355
1665.9408 544.64
1662.3556 547.4613
1660.5425 542.852
1664.2524 538.8079
1658.4054 538.19543
1661.2935 534.1513
1656.4769 532.32477
1653.9132 528.54803
1649.0479 528.7136
1650.8577 532.9159
1653.4253 537.1259
1655.4407 542.62463
1657.645 548.14795
1660.8716 554.9697
1662.0509 551.501
1667.0801 550.6122
1671.1826 547.76465
1673.7794 543.5921
1672.2585 536.4487
1671.7137 531.35956
1674.8872 528.35626
1678.899 529.94696
1682.861 530.08386
1684.8947 534.1634
1690.8973 534.91394
1696.0153 537.62683
1695.0441 543.2095
1690.9847 540.5932
1686.4095 539.2585
1681.8535 538.5873
1678.2701 534.1247
1676.476 538.66113
1678.6244 542.95465
1682.7708 544.71246
1686.8236 544.2848
1690.281 546.5435
1694.0303 548.0716
1699.176 546.8532
1700.4541 542.38794
1701.1378 537.79724
1705.2216 539.46063
1707.877 542.1923
1704.9685 545.4675
1703.4048 549.7126
1700.4205 552.40674
1696.3414 551.9671
1699.2988 556.8719
1694.7684 561.1239
1693.0801 557.2528
1692.0085 552.62646
1687.127 549.86066
1688.2937 555.1208
1689.1714 561.29816
1684.6893 558.0885
1683.8423 553.5021
1682.0713 549.8173
1677.9646 547.6092
1676.1433 551.43567
1671.691 553.4956
1669.679 558.45087
1665.9875 555.53973
1663.4552 559.10333
1664.7317 563.5593
1668.6627 564.25165
1667.3792 569.73175
1673.1882 569.0152
1675.0239 572.2176
1672.0752 574.5135
1678.1301 575.7462
1682.3428 575.9208
1682.8561 579.6018
1686.6139 575.9324
1685.2113 571.5989
1679.391 570.30774
1677.8842 565.0436
1672.7112 565.3312
1673.7898 561.1028
1675.6888 556.8737
1679.9814 555.2881
1679.5328 560.40753
1683.9312 562.675
1682.8838 567.0553
1687.802 566.95734
1692.2837 566.26544
1691.7844 571.25543
1690.6008 575.2892
1688.1371 579.8999
1692.0125 580.70306
1696.0209 580.2583
1696.7454 583.9178
1700.6534 582.756
1701.3805 586.63354
1704.0405 584.9194
1704.62 581.35834
1706.242 577.931
1705.0063 573.82153
1700.2986 573.4871
1700.6235 578.3805
1695.5869 575.5571
1696.6783 569.952
1704.4014 568.8494
1700.9736 567.26984
1696.8062 565.09644
1699.8322 561.74554
1704.0172 561.9403
1705.4832 557.59546
1705.9028 553.71185
1708.2993 549.386
1710.8608 545.2512
1716.1115 546.1448
1713.3052 549.50146
1711.3657 553.2767
1711.5905 557.4669
1709.6804 561.02655
1707.7881 565.1804
1713.3411 564.40216
1716.1967 560.8447
1716.1416 555.34576
1718.0459 550.8375
1720.7799 546.4283
1722.3318 542.4908
1718.4374 541.79376
1721.084 538.37885
1719.0498 534.99854
1715.8629 537.99457
1714.315 542.13007
1710.9678 539.6181
1710.2057 535.82166
1714.113 533.8593
1713.1289 528.8737
1709.0828 531.0388
1705.653 534.00415
1701.5618 532.7681
1697.0767 531.9701
1693.2955 529.1351
1688.1234 530.15393
1688.1906 525.7479
1687.2719 518.10394
1684.9556 521.9935
1683.6039 526.11505
1678.6669 524.9842
1680.8872 520.3182
1680.9238 515.3192
1676.0023 519.9519
1672.9982 523.27185
1669.5145 525.971
1665.5206 523.9277
1662.6683 521.23486
1669.3452 518.9264
1675.0092 515.1114
1673.944 509.83493
1670.793 503.46802
1676.2751 505.2805
1679.2715 509.32037
1683.7052 510.82257
1687.1323 513.4419
1691.7516 513.0096
1694.7988 516.3995
1692.5447 519.6083
1691.0431 523.4856
1696.3726 523.4183
1700.1365 527.3941
1702.7654 523.23175
1700.2518 518.7695
1699.0422 513.84406
1695.2617 509.7637
1689.3552 508.34238
1682.7682 506.12567
1685.7551 504.57422
1688.8629 503.61407
1692.284 504.04688
1695.4293 504.64874
1694.2826 499.53583
1690.4407 500.32486
1688.9988 497.42953
1690.0936 494.50394
1693.418 495.024
1695.5377 491.70084
1699.505 491.7289
1701.3942 495.64392
1696.9707 495.75266
1698.6129 499.03876
1699.7014 502.5462
1699.1941 506.5738
1701.4966 510.0832
1705.2664 515.4117
1705.857 510.24063
1704.4065 505.0394
1709.1163 507.0058
1711.2673 503.87125
1708.1672 501.05264
1703.4244 500.0539
1705.7161 496.4179
1709.2953 496.45566
1713.4631 497.75223
1714.0554 501.33585
1717.5941 503.1677
1722.1954 504.837
1719.7527 507.45306
1717.5674 509.66943
1714.3394 506.97528
1714.4135 511.24753
1710.1631 511.98657
1713.9653 514.8374
1710.8125 517.96075
1707.043 520.9124
1706.6412 527.08624
1712.0543 523.94464
1717.7743 526.4313
1717.6906 531.0246
1722.3143 532.29425
1722.2483 528.3467
1722.9148 524.01624
1720.1975 521.59576
1715.9894 521.73517
1716.4153 517.60016
1720.5305 517.37585
1719.0183 512.9838
1722.8207 514.1286
1723.8457 509.7176
1726.9832 513.6364
1731.595 515.49414
1728.4739 518.2556
1724.4473 519.0942
1728.0708 522.38855
1726.1234 526.31775
1727.0098 530.30743
1726.3654 534.1365
1724.0615 536.6218
1728.0858 538.5141
1725.6846 540.67944
1726.8584 543.94635
1725.729 547.77075
1723.4528 550.6023
1721.9316 554.2956
1720.1146 557.9813
1721.5719 561.8489
1719.6016 565.1423
1723.6975 567.06586
1719.5886 569.5171
1716.0951 568.0569
1712.3171 569.55334
1708.531 570.3375
1710.5521 575.20575
1715.5804 573.3478
1715.7319 577.47833
1719.7427 576.80444
1721.0134 572.81445
1723.3577 578.6756
1727.0449 581.50507
1723.2755 584.5896
1718.2843 581.4127
1713.6965 580.4236
1710.5137 580.273
1708.8397 582.7506
1708.1663 585.37103
1713.7266 585.7462
1718.3184 585.33093
1719.5984 589.2192
1724.614 590.9327
1729.4375 594.377
1730.781 590.2196
1729.095 586.265
1731.9188 581.8173
1736.5544 584.7619
1735.8674 589.38226
1734.7899 594.225
1739.3646 596.7033
1740.4039 592.8704
1741.157 588.47205
1742.3533 584.17993
1744.6958 580.2677
1739.9725 579.6801
1735.9233 579.6102
1732.1183 575.8923
1728.3717 576.9837
1725.1754 574.23456
1725.1576 570.5211
1730.4875 572.55383
1728.8628 569.78455
1728.6613 566.1776
1726.2275 562.97076
1725.2664 558.48
1727.4381 554.4923
1730.4537 551.73083
1730.0388 547.6407
1732.1051 544.8467
1735.1141 550.3112
1738.8262 548.7775
1743.0526 549.0933
1746.9268 549.6894
1748.856 552.97644
1742.4752 553.8524
1738.4677 555.733
1733.6729 556.3988
1730.3362 559.7163
1733.053 563.90076
1737.6906 561.6853
1743.3287 559.47125
1745.9531 555.79114
1749.0159 557.77435
1750.6091 560.9099
1747.5586 563.63513
1750.4395 566.76733
1751.3463 570.71423
1746.7488 572.8039
1744.6486 568.5992
1742.5879 564.22375
1738.1357 567.7646
1733.6414 569.3003
1735.9514 574.9961
1739.9451 572.41345
1743.0181 575.84863
1748.6033 577.6792
1751.8484 574.7929
1756.0027 575.05164
1760.1206 573.50946
1764.175 570.8848
1764.813 574.9219
1761.1733 578.2701
1757.4203 580.08496
1753.1252 580.36847
1748.759 582.6857
1746.4376 586.8345
1745.2366 592.00385
1744.6661 597.1595
1749.8197 595.3647
1749.075 600.0775
1754.0889 599.42365
1759.2216 601.36456
1764.1655 604.898
1764.375 601.53925
1766.9241 598.16327
1761.9296 596.9474
1757.3374 595.56085
1761.8301 591.6666
1764.7264 587.7856
1757.8401 589.51495
1753.8096 592.40314
1749.6628 590.2187
1752.3088 586.3184
1756.4817 585.023
1760.6266 584.0902
1764.8191 583.4114
1765.3496 579.6756
1768.8315 577.7679
1770.7142 574.89844
1768.9192 570.8321
1773.318 571.2286
1775.6453 574.70996
1779.8774 574.9891
1782.9219 579.44653
1778.0016 579.2264
1773.8391 580.4348
1769.67 581.92175
1770.4478 585.6528
1770.3279 589.90533
1766.2349 593.1609
1770.8975 595.21277
1770.7687 601.0502
1775.8644 602.87756
1776.4258 597.61084
1775.0363 592.3997
1779.9111 593.0926
1784.2778 594.56006
1787.6763 591.9978
1789.9536 588.2366
1784.5112 589.20465
1780.4944 587.7625
1775.5262 587.20667
1778.765 583.5009
1784.5961 584.32043
1789.8885 584.1713
1788.4873 580.583
1793.5894 577.75555
1795.4095 571.59076
1800.3005 572.61694
1798.7955 577.71515
1798.9719 582.49084
1803.7666 578.3579
1808.2373 580.57635
1804.9009 583.378
1806.6384 586.9951
1804.6531 590.7442
1801.7354 594.51526
1799.5568 591.27924
1800.2253 586.88336
1794.3679 584.41846
1795.2961 590.2256
1791.7063 592.99554
1793.5903 597.1857
1797.8302 596.3093
1795.8876 601.94714
1789.5686 602.397
1788.3083 597.49524
1782.8044 599.33374
1780.4822 603.5127
1778.9646 608.8276
1784.6641 606.1894
1789.0653 608.36804
1783.936 612.64307
1790.219 613.4572
1796.6416 613.29193
1794.115 607.27246
1799.0841 608.9632
1800.5109 604.4728
1804.6588 602.9689
1808.4655 606.35315
1804.3274 608.5603
1802.8857 613.16235
1805.8 616.0784
1808.8812 611.79004
1812.8251 609.0714
1816.8317 610.3161
1813.9805 614.7594
1810.4905 617.5571
1816.8455 619.5332
1822.6808 620.40186
1819.3601 614.82214
1824.4167 614.3351
1829.2728 612.65906
1828.0945 618.39856
1827.8506 623.1304
1832.4087 625.9219
1836.526 628.398
1837.0359 623.7934
1833.0054 621.757
1837.0422 618.7479
1832.6101 616.66425
1836.8176 613.4754
1833.7888 610.4042
1836.9863 606.6887
1833.7592 603.37396
1831.78 598.438
1836.8396 598.7264
1834.6896 593.03076
1836.1155 588.53217
1830.1455 587.2924
1832.8875 583.6069
1836.9685 583.2864
1835.9998 578.92224
1837.2473 574.6515
1834.6625 570.51263
1831.6025 567.5042
1825.1182 567.23145
1823.4419 563.31433
1819.9973 560.3087
1820.9149 555.48975
1824.6271 553.92456
1828.3958 553.00684
1832.6863 552.8521
1832.5814 556.6351
1829.3506 558.46606
1825.1299 559.03174
1828.2422 563.62915
1832.3594 562.37805
1835.6128 565.4844
1837.5637 568.54974
1836.9503 562.0627
1836.1526 558.5289
1836.8972 554.58856
1836.6306 550.5879
1837.1522 546.33844
1834.1293 547.64215
1831.3472 549.5747
1828.0089 548.5188
1824.062 549.38947
1819.8602 549.3553
1816.4734 551.77594
1816.4928 556.4184
1814.0936 559.40137
1816.2118 562.7189
1819.3625 565.288
1821.1511 568.75903
1821.8508 572.45905
1825.7212 572.9713
1828.1793 569.37805
1830.1514 573.1048
1833.5278 574.4392
1831.4862 578.8114
1827.676 577.187
1827.2688 582.1665
1822.0281 581.4379
1823.2661 577.24066
1818.9144 576.2694
1817.2358 580.87683
1823.0374 586.03595
1818.1843 586.24994
1815.9866 590.4935
1813.314 595.00006
1809.4412 596.5446
1812.5167 599.4331
1816.8138 600.7084
1820.1965 598.1015
1816.7709 595.1596
1820.0349 592.9862
1823.202 591.9348
1826.5969 589.4703
1828.6381 594.3261
1824.835 598.05286
1822.2568 603.3606
1827.7905 602.4864
1830.3264 607.18665
1825.5941 608.11597
1821.2921 609.4144
1817.6096 605.4593
1813.002 604.1321
1808.8995 601.87024
1806.229 598.8474
1801.332 599.4245
1805.2483 595.252
1809.116 592.77356
1810.7207 589.8068
1812.7948 586.8489
1812.4888 583.3471
1812.2947 579.2369
1814.1702 575.70447
1816.7463 572.1714
1816.2241 568.34894
1811.1973 570.9252
1809.1925 575.4272
1805.2148 573.5697
1805.8108 569.65283
1806.3785 565.92645
1809.7893 566.2249
1813.2765 566.35004
1811.7183 562.5523
1807.6726 562.15656
1810.4874 558.8941
1811.7632 554.8417
1807.6033 557.73175
1804.2141 556.73615
1801.0376 555.4438
1797.0432 554.4993
1797.2109 549.427
1791.9363 550.1611
1791.5835 554.027
1791.3855 557.8038
1793.5978 560.8956
1796.2876 563.696
1798.7876 560.1717
1803.8596 560.1007
1803.023 563.2736
1802.125 567.2399
1798.6344 566.76874
1793.9006 566.85095
1790.4199 566.3293
1787.1061 569.24774
1790.3855 572.70044
1787.3794 576.56287
1784.1943 573.43036
1781.692 569.8206
1777.3259 569.15826
1773.2102 566.57434
1770.0144 562.77435
1769.4229 566.56104
1765.9429 567.3762
1766.1797 563.1792
1766.7124 559.4083
1766.4126 555.1745
1765.1652 551.2788
1766.1624 545.9307
1761.7854 544.6514
1759.3114 547.1237
1761.7654 549.8711
1760.9813 554.2295
1762.9443 557.6455
1762.4362 561.4173
1762.9934 564.9611
1761.136 567.8366
1758.0603 570.028
1755.0421 568.2836
1754.2957 563.7608
1758.5892 564.22046
1758.8004 559.6787
1754.5176 559.4016
1752.8683 554.73425
1757.0505 555.7417
1756.6583 551.12006
1752.1322 549.32904
1748.419 545.6456
1744.6699 543.01935
1740.5151 544.5641
1735.8754 543.4065
1732.1055 540.70514
1731.4591 537.19244
1730.4309 533.97766
1731.6343 530.6793
1730.1517 526.36694
1733.7948 524.2675
1732.92 520.38904
1737.0488 518.5884
1738.4169 522.1639
1738.0963 526.1993
1734.617 528.1966
1741.4878 528.5552
1739.5195 531.71515
1735.9261 531.94025
1735.3564 536.39764
1739.8066 536.3537
1739.1046 540.2662
1744.2134 538.497
1743.064 533.76306
1746.3258 532.0394
1745.3896 527.8566
1743.0802 524.68805
1742.5044 521.51825
1745.9287 520.66876
1749.4966 518.70374
1747.2462 516.2119
1743.9097 514.65314
1741.7253 518.0344
1740.0747 513.8374
1736.202 515.07556
1734.6416 511.52692
1730.8787 510.09155
1728.1189 507.5916
1725.8801 504.2849
1729.7382 502.11078
1732.8647 504.4272
1736.0687 506.7843
1739.0598 509.3924
1742.9817 509.7506
1746.9136 511.57617
1750.4866 512.9313
1754.0122 514.3971
1752.801 518.1345
1749.7765 522.173
1748.59 525.4171
1749.8569 529.41394
1754.3181 529.92206
1757.208 527.0712
1759.9521 530.64996
1759.5992 535.43695
1754.8438 536.75226
1751.67 533.83716
1748.1802 536.4601
1749.8829 540.51685
1753.1768 543.10034
1755.9006 546.0194
1758.0536 540.78815
1763.5231 541.35583
1764.1077 537.3792
1765.0034 532.41144
1769.0232 528.6943
1765.8453 525.7641
1761.4958 525.187
1757.093 523.28656
1753.1226 523.85986
1756.3917 519.86346
1757.4307 516.61804
1757.9456 513.01807
1760.2404 510.3343
1757.4426 506.7225
1754.5405 510.0946
1751.1339 507.46072
1746.2717 507.13065
1741.686 504.4265
1737.0626 501.4427
1741.1399 499.04697
1740.3474 494.83878
1745.3141 499.71503
1748.1774 503.29092
1754.0188 503.14288
1751.451 499.44458
1748.7397 495.7909
1753.1067 491.85352
1748.3107 490.7907
1744.35 493.69043
1742.8901 489.0216
1738.22 486.7292
1737.6235 491.08215
1736.114 496.02905
1732.0906 498.28665
1726.1964 499.38647
1721.4343 500.46918
1718.0415 497.21536
1722.8737 495.37543
1727.5343 494.40088
1732.2123 492.74414
1732.9512 488.1064
1734.1545 484.32648
1734.3995 480.5596
1738.2458 482.009
1741.8832 483.98636
1745.5951 484.0827
1748.6886 486.88345
1749.749 482.644
1752.5825 479.8894
1748.1451 478.0785
1744.3595 479.44345
1740.8972 478.40033
1737.3572 476.93744
1739.2053 472.94168
1742.5479 471.46298
1741.8606 467.99072
1743.6594 464.49637
1744.9302 460.42294
1747.5815 465.00668
1746.7827 470.0346
1745.1268 474.62595
1750.6626 474.56052
1751.1133 471.1219
1754.5764 475.76163
1757.9484 477.91895
1756.9294 482.6879
1753.4888 486.53073
1757.7916 488.60516
1758.9669 493.2629
1754.8003 495.75046
1757.727 498.74744
1758.8566 502.54874
1762.5105 504.06085
1766.9832 505.14725
1771.0208 503.82532
1771.4028 509.55374
1775.4144 507.55972
1775.4813 502.60617
1773.905 498.49252
1776.9419 493.38928
1776.2356 488.87988
1773.6066 483.77054
1767.3124 484.71677
1771.1251 487.62277
1768.4636 490.701
1772.0483 493.7451
1767.0715 495.49985
1770.2941 498.62207
1766.9918 500.20035
1763.0455 499.61572
1762.2 495.87662
1764.4087 492.4439
1763.3004 489.23877
1761.5961 485.86353
1762.8584 482.61035
1762.2 479.3993
1761.7576 475.09894
1758.4325 472.53302
1755.0847 469.7011
1750.4844 467.58856
1752.7578 464.6854
1756.9702 464.10492
1759.344 467.23315
1762.5581 469.96744
1766.5908 471.72726
1765.944 475.83728
1767.8241 479.60773
1772.0942 479.37848
1770.6586 473.20172
1773.8857 475.45428
1777.4978 480.18494
1779.411 484.712
1784.0686 481.96872
1787.8971 484.91507
1793.5024 487.01614
1792.4146 483.1142
1790.5951 479.43295
1790.1207 475.46393
1786.2338 476.83856
1781.8198 477.81372
1777.4596 475.56308
1780.4028 473.88983
1783.8652 472.50766
1787.4264 470.67868
1791.0933 468.51498
1790.8202 464.98035
1785.9644 465.9244
1783.2072 468.0336
1779.6049 470.17828
1779.6448 466.29913
1776.0853 464.83466
1775.7908 470.86667
1773.2136 468.14383
1772.01 463.0568
1769.581 467.39465
1765.8755 466.94168
1762.968 463.92902
1761.7051 460.22836
1760.4792 455.75632
1757.0878 460.06085
1752.7463 460.02106
1749.1376 460.78915
1753.103 455.67566
1753.417 451.79694
1756.8572 453.68832
1761.3263 450.89807
1765.4675 452.9253
1764.7476 457.0545
1767.4451 461.86234
1769.0371 457.58133
1772.9167 458.59766
1770.4539 453.55276
1774.5378 453.90024
1776.6577 456.9381
1776.789 460.65103
1780.1683 462.3833
1780.795 458.1158
1784.4364 457.3236
1785.9833 460.25458
1783.4905 462.48026
1787.929 463.10013
1792.3503 460.62994
1789.3088 459.96844
1788.5138 456.9009
1787.392 453.60034
1782.538 453.6248
1778.7532 453.56747
1779.7668 448.66025
1774.447 450.2734
1774.4313 446.85098
1770.7681 444.33835
1772.9513 439.1952
1775.3234 434.13235
1780.9111 438.64377
1780.8218 433.00848
1783.4103 428.3399
1772.4087 428.5714
1768.6216 430.2432
1765.461 427.3877
1768.3655 423.5815
1773.7362 423.66147
1778.2705 422.2825
1783.2809 423.9032
1786.9882 419.54614
1791.7069 418.61844
1792.2175 423.5955
1788.1785 423.52963
1789.26 427.74475
1787.7117 431.73715
1792.4727 433.42285
1797.631 433.78217
1801.8081 433.071
1799.945 429.362
1799.8572 425.74652
1794.6365 428.12793
1796.1658 424.81525
1795.9426 421.04742
1800.5638 421.91763
1804.7551 422.4181
1804.7047 425.97418
1804.3606 429.7277
1809.3003 427.9794
1810.0134 424.34
1811.9419 431.1498
1807.1075 431.9517
1806.9995 435.1082
1809.3479 437.69357
1812.784 435.10733
1817.4827 433.08914
1822.3624 433.94916
1823.2455 428.73935
1816.1108 427.9612
1813.712 422.75903
1807.4738 420.37027
1810.9308 418.64978
1816.3662 418.7519
1821.5125 418.1686
1819.0492 424.0597
1823.9697 423.23773
1828.7225 427.42798
1829.9973 423.0806
1827.2537 419.2822
1826.6699 415.12686
1822.5474 412.9341
1818.4568 413.4092
1814.9153 412.6464
1812.3334 415.10242
1809.0763 412.75467
1805.447 410.27847
1803.3386 407.06253
1799.138 405.738
1800.2014 409.89206
1800.5571 413.671
1804.4858 413.56433
1806.9791 416.42505
1803.4722 417.8852
1800.1373 417.89313
1796.4532 417.18243
1796.0474 413.10632
1795.6274 408.68845
1791.1572 408.32047
1794.374 403.95923
1798.242 401.44254
1800.8936 398.2222
1805.6992 399.25912
1806.3555 395.36444
1809.5758 396.2617
1810.8649 400.10516
1809.1858 403.09732
1802.8381 402.46173
1806.147 404.63358
1808.813 407.80508
1812.6725 409.0665
1817.9679 407.8525
1813.8884 404.7247
1815.8093 400.94724
1813.5287 397.231
1812.7924 393.33972
1809.4724 392.16257
1808.6869 388.55273
1805.6919 390.89444
1803.4011 394.3001
1800.3113 393.7337
1797.4712 390.81668
1794.2278 388.23984
1791.9272 384.46317
1787.6545 384.40427
1787.5269 379.89618
1786.9081 375.34848
1789.5857 372.00128
1794.3359 371.7826
1792.2117 375.43643
1792.2017 379.35504
1797.6421 374.27896
1797.2284 378.71933
1795.8306 382.4699
1801.3083 382.23093
1798.58 385.9276
1801.685 389.48914
1804.2866 386.3992
1805.9666 382.83435
1809.9343 384.8112
1812.4342 388.31744
1815.2439 386.12158
1819.6969 386.56827
1816.1 382.70007
1812.7773 380.4192
1809.0918 380.15262
1804.8153 378.7509
1800.9341 377.11584
1803.9789 374.4337
1806.118 371.0224
1809.6322 370.82776
1808.1536 375.6735
1811.616 374.88748
1814.6221 376.59558
1817.8181 375.62375
1818.6642 379.5823
1821.8533 383.0512
1824.0911 378.93704
1826.1472 375.52847
1821.5518 375.16125
1814.9061 371.80356
1819.003 371.48816
1823.5446 370.886
1821.1565 367.41013
1817.2133 367.24274
1814.5785 364.9653
1812.2537 368.59668
1811.1543 364.30707
1807.8624 363.21283
1805.535 358.89575
1809.0186 356.36703
1811.1233 359.86496
1817.0259 361.08212
1821.9058 363.2786
1827.5873 362.67926
1824.8536 359.55594
1819.0769 356.179
1822.9146 355.543
1827.23 354.76703
1831.8162 360.34113
1831.5884 355.79343
1836.5403 353.6996
1836.8044 359.36298
1836.3772 364.23846
1836.583 368.8065
1832.1891 369.72253
1831.587 365.12936
1826.6788 367.08228
1827.9045 371.2331
1830.1394 374.95013
1833.6443 376.40768
1836.5332 373.38846
1836.8604 379.92596
1830.9995 380.8008
1826.9536 383.07452
1824.3826 388.02643
1829.887 388.44785
1835.1484 385.2792
1836.9276 390.77377
1833.5586 393.489
1828.9353 395.7775
1825.7913 392.80682
1821.4719 393.6917
1819.1509 390.46323
1815.3308 390.72244
1816.9409 394.9768
1819.4045 398.40717
1820.7631 403.22986
1823.8641 398.23526
1826.8839 401.2771
1826.8068 405.83084
1822.8948 408.02396
1827.4432 410.92163
1832.7449 412.35062
1831.4835 408.14725
1831.6047 403.32693
1832.5481 398.67664
1836.8358 399.0644
1836.4265 405.09204
1836.6104 410.04587
1837.0986 415.62872
1831.2246 416.00644
1833.7388 419.07852
1836.3018 421.8559
1835.8523 426.0217
1837.1327 430.15042
1834.3188 432.17667
1836.944 434.69897
1836.116 437.74768
1831.5674 434.4479
1832.2491 429.14456
1827.3789 433.01923
1825.7234 438.19153
1818.7666 441.92154
1815.1774 443.797
1814.3284 438.95856
1809.9847 441.43533
1806.1499 440.9032
1804.2994 444.4709
1806.2687 448.04077
1803.0741 452.14728
1806.1478 454.2581
1810.1172 450.75098
1810.2817 456.28546
1805.725 458.6287
1805.6724 462.84882
1810.1558 461.04028
1809.4054 465.572
1808.0671 469.89612
1804.021 471.26993
1800.9132 477.34818
1800.1946 473.5939
1799.905 469.0642
1803.6603 466.31772
1799.1973 464.41718
1801.2251 460.62793
1801.0598 456.16766
1797.9073 453.02454
1796.0608 448.67398
1801.0328 448.19675
1799.094 444.512
1801.6395 441.33145
1797.8951 439.72208
1794.6635 438.09647
1790.4395 438.37393
1788.39 442.63184
1782.8766 443.5476
1786.1606 446.5489
1790.6316 449.06546
1793.6039 452.3031
1792.4094 455.98935
1796.6892 458.10077
1795.4214 462.5917
1795.3408 467.1186
1796.0651 471.5025
1792.0199 472.44586
1795.7888 476.05676
1795.7227 479.8242
1797.5459 482.9967
1799.0846 487.30634
1794.6559 491.30273
1799.57 492.171
1801.9053 496.48914
1804.0349 493.59024
1804.751 489.65103
1803.3413 486.17938
1801.124 481.9413
1804.698 478.4713
1806.7773 475.18982
1810.8143 473.08948
1813.0242 468.15115
1814.0895 461.1857
1817.0916 463.95673
1817.9678 467.44385
1822.0566 465.26053
1823.415 460.63675
1818.6703 459.4084
1820.1031 455.0253
1814.7412 455.0184
1815.3964 449.81042
1819.0839 446.47266
1823.2297 443.9412
1827.6257 441.7286
1831.0708 438.2413
1832.0508 442.29837
1836.173 443.41714
1837.5245 446.91953
1836.8363 451.26025
1832.2157 450.58063
1832.8876 446.74426
1827.1262 449.45364
1821.4846 450.0892
1824.7708 453.5751
1830.1006 454.38632
1835.3557 455.07874
1837.4309 459.26663
1832.696 459.38824
1826.6339 457.47525
1828.9774 461.3133
1826.775 465.06348
1825.501 470.02005
1821.186 470.25836
1823.0354 473.88428
1826.2395 475.49454
1828.4495 478.52792
1832.7311 477.0003
1831.3918 472.51648
1829.407 469.18613
1832.1674 465.36884
1836.7671 464.59567
1836.0917 469.3516
1836.5322 473.63055
1837.0878 477.78555
1835.6296 481.27948
1837.5144 485.33594
1835.9346 490.22266
1835.8539 494.8694
1828.0215 494.5827
1832.3093 497.54767
1836.9543 501.6636
1832.1364 502.6073
1827.771 500.9325
1827.6323 506.5821
1830.9117 510.38705
1833.7354 506.51102
1837.0264 508.9103
1836.4551 513.14325
1837.1138 516.9588
1837.1526 520.9525
1836.1548 524.0787
1835.2996 527.2916
1837.8683 527.54083
1838.0425 531.2108
1836.7876 533.8631
1836.738 536.77026
1837.6321 539.6971
1837.0388 542.7705
1833.8408 543.4283
1831.3431 545.5849
1828.6938 544.5375
1825.8632 545.7799
1826.0669 542.36487
1830.2372 541.73926
1830.7104 538.28143
1834.002 539.61743
1832.9856 535.2505
1834.5667 530.77264
1831.346 531.6704
1828.4838 533.99133
1827.1504 536.99475
1826.9696 539.9037
1823.706 536.81244
1823.8035 533.4065
1825.419 530.5453
1828.8801 528.97577
1832.1519 526.6607
1828.0652 525.07074
1824.6726 526.7669
1824.9355 522.21204
1829.8567 522.26825
1833.0481 521.6218
1832.9948 518.0914
1832.3093 514.25146
1826.4424 513.0322
1828.749 517.51196
1824.48 518.505
1821.6401 515.5518
1817.1903 513.74207
1820.6226 511.23447
1823.5095 508.6008
1818.2092 507.26987
1822.2104 503.92447
1823.4358 499.5785
1822.3103 495.09344
1817.9064 492.98712
1814.5326 490.06693
1814.5435 486.51025
1818.1147 486.72318
1821.3871 488.9282
1825.0312 490.31064
1830.1301 489.22272
1833.5758 485.92258
1830.7842 482.40643
1826.4231 484.36337
1821.6931 484.17834
1814.9672 482.68787
1815.6812 478.34277
1818.6793 480.8791
1823.1217 479.68646
1819.5164 475.787
1816.9229 470.92966
1815.4185 473.77124
1812.3877 476.22922
1811.4857 479.8485
1808.281 480.48026
1804.8313 482.50406
1807.7007 485.2722
1811.3099 485.08936
1809.6385 489.46375
1807.9573 493.34906
1812.5398 493.5157
1813.5653 497.6333
1818.2517 498.2025
1816.9215 502.48358
1814.0664 507.68448
1812.2657 502.75745
1808.8824 500.78073
1808.7782 496.95746
1805.1923 498.85385
1806.8403 504.20087
1809.9482 507.89383
1804.7767 507.83282
1802.8622 511.08423
1800.6006 513.87054
1801.7192 517.6732
1799.1873 520.60583
1796.8234 524.2344
1794.3788 528.2561
1790.5819 531.26056
1794.7125 534.29456
1793.6985 540.0567
1789.76 536.5232
1784.9459 538.08484
1784.4246 533.4798
1786.3943 529.63635
1783.1763 526.6473
1788.5928 525.73193
1791.9962 523.01935
1795.0846 520.2157
1796.9268 516.576
1796.4811 512.65875
1793.4175 510.05536
1794.7312 506.33148
1798.8828 508.5131
1801.6691 505.16245
1802.4371 501.37164
1797.9944 502.6768
1798.5862 498.1383
1794.9442 496.36066
1789.9795 495.46967
1788.4254 490.88287
1783.028 488.77472
1782.2596 494.12128
1784.9801 498.2412
1778.6753 498.3446
1779.5564 503.76437
1783.2764 503.76175
1787.7245 503.74448
1790.2644 500.0963
1793.6705 502.21854
1789.4398 508.02216
1790.8822 513.3432
1784.4844 509.33243
1779.375 510.51443
1785.6991 514.84753
1791.5513 517.50464
1787.6825 520.31854
1783.4553 521.31537
1778.3087 521.5518
1780.1141 516.26025
1774.6377 515.14825
1769.073 516.7661
1769.0552 513.63806
1766.8766 510.41885
1763.4556 508.2761
1763.9519 514.081
1761.3584 516.5545
1760.8892 520.62823
1765.2833 520.15076
1769.8245 519.9916
1771.9504 522.1972
1774.6714 524.57556
1774.4741 528.7129
1779.169 527.6509
1779.7579 532.3439
1779.3745 537.9728
1775.7023 534.4303
1771.7686 532.33716
1769.7683 536.1296
1774.1992 539.5446
1768.6906 540.73816
1770.856 545.2081
1769.0898 550.00684
1773.6395 549.6163
1776.8153 552.4101
1774.727 556.3913
1770.7448 554.2276
1770.5854 558.5769
1773.8811 561.358
1777.0154 564.0902
1780.9325 565.1348
1785.2754 565.36273
1788.0457 561.5767
1785.9202 556.84015
1782.7432 560.6159
1778.293 559.4494
1780.6892 555.2087
1785.512 552.4799
1781.095 550.02136
1778.3208 546.598
1775.407 543.7953
1781.6715 542.18677
1784.0183 546.23096
1787.714 548.5099
1787.9625 542.3025
1791.9641 545.45264
1796.8481 543.9858
1801.0176 541.2471
1798.9182 537.2576
1799.4116 532.2706
1804.3488 532.71765
1804.492 537.05585
1808.963 539.78796
1809.4814 535.2549
1808.3113 531.41644
1808.699 527.6311
1805.8444 524.8681
1803.8398 528.5499
1799.2954 527.8634
1801.6471 524.3678
1803.4287 521.15393
1807.6562 521.6914
1811.0974 518.97394
1806.4808 518.588
1804.9808 515.18463
1807.6669 511.51923
1809.5209 515.2215
1813.1278 513.0635
1815.2539 518.7103
1819.3589 520.2491
1821.04 524.6152
1814.2018 523.3302
1810.4316 523.75507
1812.9756 527.61804
1817.2002 525.76526
1820.874 529.07794
1819.7985 532.4185
1816.4199 530.27277
1812.217 531.26294
1813.8473 534.2269
1816.9276 534.7001
1816.5774 538.5026
1812.9524 537.9577
1813.0447 542.24255
1808.6343 545.76776
1805.3826 542.57196
1801.7465 546.4491
1804.0125 550.1345
1806.4424 553.5352
1810.3162 550.6701
1813.4849 547.61993
1816.1616 545.10187
1819.222 544.5627
1821.8495 545.5767
1823.4517 543.484
1822.9956 540.41565
1818.432 541.3827
1820.4366 538.7038
1820.1586 535.69165
" />
</g></g></svg>
