<?xml version="1.0" encoding="UTF-8" standalone="no"?>
<!-- Created for Inkscape (http://www.inkscape.org/) -->

<svg
   xmlns:dc="http://purl.org/dc/elements/1.1/"
   xmlns:cc="http://creativecommons.org/ns#"
   xmlns:rdf="http://www.w3.org/1999/02/22-rdf-syntax-ns#"
   xmlns:svg="http://www.w3.org/2000/svg"
   xmlns="http://www.w3.org/2000/svg"
   xmlns:sodipodi="http://sodipodi.sourceforge.net/DTD/sodipodi-0.dtd"
   xmlns:inkscape="http://www.inkscape.org/namespaces/inkscape"
   width="3200"
   height="800"
   id="svg2985"
   version="1.1"
   inkscape:version="0.48.1 r9760">
  <defs
     id="defs2987" />
  <sodipodi:namedview
     id="base"
     pagecolor="#ffffff"
     bordercolor="#666666"
     borderopacity="1.0"
     inkscape:pageopacity="0.0"
     inkscape:pageshadow="2"
     inkscape:zoom="0.35"
     inkscape:cx="1600"
     inkscape:cy="400"
     inkscape:document-units="px"
     inkscape:current-layer="layer1"
     showgrid="false"  />
  <metadata
     id="metadata2990">
    <rdf:RDF>
      <cc:Work
         rdf:about="">
        <dc:format>image/svg+xml</dc:format>
        <dc:type
           rdf:resource="http://purl.org/dc/dcmitype/StillImage" />
        <dc:title />
      </cc:Work>
    </rdf:RDF>
  </metadata>
  <g
     inkscape:label="Layer 1"
     inkscape:groupmode="layer"
     id="layer1"> 
     <g>
<path style="fill:none;stroke:black;stroke-width:2px;stroke-linejoin:round;stroke-linecap:round;" d="M 
1711.2401 499.6088
1713.1134 494.95114
1718.057 494.8248
1714.0422 490.17206
1713.1537 485.60834
1710.5625 481.27344
1713.8877 476.89822
1716.4011 481.07016
1718.9285 476.63477
1716.7635 472.53696
1720.1737 468.72778
1719.9127 463.7885
1715.6484 467.60355
1713.5638 463.6843
1716.411 460.43423
1717.9852 456.30685
1721.8026 458.4302
1724.2687 454.514
1723.7488 450.0257
1725.7339 446.37796
1729.1744 443.6979
1731.8953 440.83463
1733.4629 436.67303
1737.3934 434.69962
1738.0039 430.66174
1737.5885 427.0751
1733.2761 429.29495
1731.4935 432.69656
1728.3109 436.83926
1725.4436 433.39993
1722.822 437.05206
1724.8335 441.272
1719.5717 441.33344
1720.4777 446.17783
1719.4393 451.95575
1716.1934 447.99997
1714.786 443.98648
1715.105 440.01215
1711.0055 438.86154
1710.1724 443.322
1710.4355 446.88223
1712.4298 449.5978
1714.9697 452.7242
1713.4532 456.69186
1710.894 460.04306
1706.8973 458.5557
1709.1843 455.6794
1710.4446 452.67197
1707.3945 449.9563
1704.9517 453.42657
1700.7081 454.9633
1699.8472 450.78452
1703.1072 448.28522
1705.902 445.57886
1706.3641 441.49332
1706.6487 437.76755
1709.6881 433.87445
1713.7396 432.735
1715.4092 436.42834
1718.8523 435.47067
1720.4636 432.3541
1717.4337 430.02853
1721.356 426.4394
1717.7665 425.85843
1716.7332 421.89377
1719.4001 418.65555
1720.8646 422.738
1723.9149 420.36304
1727.8021 421.7949
1724.9426 425.37836
1722.4968 429.64822
1726.8389 430.22018
1728.3282 427.67838
1730.2849 425.44806
1733.39 424.72913
1736.1163 422.3724
1739.8586 423.43738
1743.8826 421.11484
1743.683 425.4124
1743.1517 428.84653
1741.7501 432.75702
1746.0037 432.36334
1747.5641 435.6491
1751.995 435.94995
1756.7887 436.77448
1761.3245 437.3107
1758.9384 440.9826
1753.7242 440.78625
1755.9795 444.5643
1760.922 444.88126
1764.2593 445.17273
1767.7739 446.42587
1770.5693 447.3255
1774.4353 447.02753
1773.5243 443.7868
1771.1965 441.27203
1767.4939 442.36288
1763.6782 440.9609
1766.0717 436.59192
1769.083 438.151
1772.9258 436.00266
1775.6107 431.87152
1777.0925 427.04016
1771.5149 425.846
1766.9688 428.74496
1769.8529 432.15628
1763.8605 433.5728
1762.352 429.9484
1759.0923 432.34286
1754.999 431.67416
1751.2623 429.78665
1747.836 428.1177
1748.9304 422.67438
1748.4773 416.90344
1749.0176 410.73083
1744.3223 405.16898
1743.4362 409.3195
1744.2894 413.21942
1742.5697 417.11533
1737.7365 418.31833
1738.5695 413.25287
1738.9084 408.24365
1739.4752 403.75592
1742.1599 400.65317
1737.678 399.4623
1735.415 405.09305
1731.2544 406.06647
1729.5345 402.26984
1726.0228 406.37418
1721.6388 404.03815
1716.7483 403.51022
1712.5139 401.3419
1709.814 396.6464
1714.7452 394.25858
1718.4655 387.95547
1719.7136 393.02264
1718.875 398.80582
1723.5293 396.7315
1725.3627 401.20178
1727.6548 397.34976
1730.7573 396.6899
1733.5408 400.92337
1734.4474 396.5656
1734.4695 393.04022
1738.8295 395.22488
1739.4109 390.80914
1743.7135 387.4595
1747.5527 386.07993
1747.7388 381.0174
1752.0245 384.72733
1751.6589 389.7661
1755.8243 388.0716
1760.13 387.16968
1763.5829 389.55136
1763.9777 393.72845
1768.448 392.29922
1768.527 397.3164
1768.8214 401.92505
1773.0825 400.96625
1776.6724 403.55676
1781.5359 407.05417
1786.1318 405.95892
1789.939 402.51443
1793.3165 399.09732
1789.3385 397.20975
1785.263 400.38104
1781.053 402.31152
1780.8179 398.0904
1782.618 395.35687
1785.8724 395.2566
1788.196 392.6667
1791.0828 390.2211
1793.3932 393.62326
1796.7184 395.96576
1798.4241 400.46017
1795.5881 404.25787
1792.2766 407.35382
1793.2861 412.41412
1789.5928 415.62445
1788.6155 410.0973
1785.5774 412.75452
1781.6292 412.14984
1777.0459 412.80905
1776.7877 408.20483
1772.4783 407.30045
1770.3843 411.67572
1768.0383 406.13852
1764.8884 409.10587
1766.161 413.1537
1763.5916 416.5727
1760.5403 421.13367
1757.9856 416.52417
1759.262 411.6033
1761.8121 406.8752
1763.1108 402.65305
1763.4991 398.34268
1758.7822 396.81522
1759.0223 392.2797
1754.4921 393.80246
1750.405 396.22473
1748.0037 391.52386
1744.0427 391.98392
1743.6968 396.16916
1746.8036 400.04855
1748.9031 405.4781
1751.8971 401.46982
1756.6798 400.71844
1757.8328 405.7997
1753.7611 407.7395
1753.3357 414.04083
1754.2576 420.39722
1753.814 425.58923
1758.2375 426.4042
1762.7313 426.02277
1765.9019 423.17517
1768.6677 419.30045
1772.9064 415.4314
1773.9883 420.31912
1778.1086 422.48856
1782.5145 423.64493
1779.361 417.74207
1783.8218 417.39337
1786.722 419.67322
1787.7542 423.43445
1791.2458 425.96143
1785.3236 427.29684
1788.6531 429.9299
1786.6716 433.2732
1789.9424 437.43765
1792.0122 433.76025
1793.5311 429.72168
1798.6968 429.66367
1797.0527 433.05188
1799.9711 435.45404
1804.03 432.13
1804.6569 436.72202
1802.9935 440.28403
1799.62 443.98486
1799.0886 439.51544
1794.7096 437.59338
1795.084 442.16904
1796.7009 447.23013
1802.3325 447.10007
1804.1339 443.24835
1807.9415 440.9554
1806.1069 446.01874
1809.3741 446.43393
1811.6758 443.60117
1816.2428 442.60287
1819.6907 440.68307
1821.4226 436.43085
1820.3009 432.18674
1814.7396 432.86395
1816.1062 437.1656
1812.4824 439.6273
1809.5535 436.18527
1810.1335 431.90628
1807.7738 428.41547
1802.6703 426.92557
1804.6017 421.8801
1808.4741 423.86343
1809.9875 415.5733
1806.0896 416.97614
1801.2621 417.44086
1799.4539 421.70227
1797.2778 425.99893
1794.8224 422.86005
1791.2296 420.4344
1794.8435 417.8877
1797.782 414.3801
1797.9689 409.292
1801.2828 405.43216
1806.137 406.4012
1802.9502 411.84125
1808.5737 410.9344
1811.7661 405.54294
1814.115 409.7167
1814.0906 414.91125
1812.0431 420.26712
1816.7456 422.17953
1812.9866 426.31903
1816.9973 428.63345
1820.1555 425.06973
1823.4205 427.62366
1828.1283 424.95978
1825.4208 421.8457
1821.4703 419.72552
1818.0732 417.2921
1825.2883 416.64694
1830.0217 417.2863
1832.2778 411.7652
1827.3809 410.3052
1823.1084 407.58386
1823.0447 412.9705
1818.4312 412.77927
1818.8982 408.56985
1818.0037 404.83224
1816.209 401.43735
1812.6108 399.01627
1808.4819 401.00284
1803.4883 400.56802
1805.5741 395.85736
1801.0328 394.8986
1798.6577 390.64673
1795.2585 387.89716
1791.9106 385.1478
1788.3528 385.95676
1785.9127 389.26855
1782.2178 391.81265
1777.9856 389.71637
1777.8423 393.97495
1776.753 398.32352
1772.9463 395.3237
1773.5468 390.5764
1769.7421 387.5731
1775.6941 385.9755
1781.5754 387.56973
1784.5275 383.9724
1779.8019 382.47284
1774.2327 381.8729
1771.3177 377.79495
1772.7319 372.8737
1776.0557 368.06567
1778.4752 371.46722
1777.3737 377.32642
1784.2892 378.82748
1789.4528 380.6011
1789.3872 376.02444
1791.0747 372.2332
1793.2886 368.84375
1797.2737 369.55075
1799.0804 365.82596
1798.9012 362.05118
1800.0186 357.182
1802.6748 361.00082
1806.5085 363.4227
1803.5458 365.3414
1802.0786 369.16107
1806.8046 369.66037
1808.5842 366.4937
1811.685 363.76306
1809.2969 360.90176
1813.4113 358.30603
1815.8556 360.853
1816.1128 365.42578
1812.3267 368.96643
1814.9236 372.73828
1810.9753 378.49643
1806.573 382.29294
1802.2177 378.4948
1808.894 374.27255
1804.46 373.7764
1800.0803 373.51547
1795.5452 374.13074
1796.1375 378.3277
1794.6312 382.13693
1799.7345 383.95673
1803.537 387.85806
1806.8337 391.20187
1811.1819 394.20923
1816.9348 395.88278
1821.3552 392.66406
1822.1101 397.5809
1822.0474 402.24893
1826.8103 404.45135
1826.8053 399.82217
1829.1882 396.41638
1826.4226 393.33563
1824.4502 389.29602
1824.6458 384.79706
1819.8557 386.68903
1816.0659 390.24557
1810.5688 387.65594
1814.1532 383.722
1816.5546 377.77866
1819.9744 381.34286
1824.5148 380.2435
1827.4427 377.93298
1822.287 375.196
1819.5205 370.84958
1825.023 369.47617
1820.5068 366.02856
1821.113 360.7258
1818.8552 355.57108
1818.394 350.14413
1818.5176 345.67404
1814.7955 345.0402
1811.1482 345.0662
1808.9915 347.6119
1812.2399 350.12283
1815.0383 353.4872
1811.5719 354.8469
1807.8403 353.36685
1808.9031 357.15253
1805.988 359.49683
1804.5227 356.47275
1806.5505 350.29153
1802.8438 349.19574
1802.595 353.41788
1799.0398 351.24915
1796.8619 347.22702
1797.9187 343.11288
1801.6653 345.49817
1805.6112 345.7605
1806.7178 342.34512
1810.4551 341.10513
1813.8364 339.17566
1815.2095 334.50317
1817.5968 329.9281
1820.3318 326.32135
1824.7938 330.29684
1821.6387 333.64923
1825.1659 338.27264
1819.4556 337.40735
1819.4565 341.33804
1822.6372 345.34198
1826.9707 344.36615
1824.7533 349.86362
1828.2448 353.13724
1823.6714 355.80228
1828.4567 359.50574
1825.5892 363.88614
1830.6642 365.59814
1830.7251 370.52368
1828.7153 374.15958
1831.481 378.8342
1829.1982 383.0507
1834.0319 383.4233
1832.602 386.85468
1828.5336 387.97488
1830.9473 391.81818
1834.6555 390.42468
1834.0254 395.7911
1836.0916 400.08704
1831.8237 401.24698
1831.4358 406.339
1836.7424 405.89673
1837.9639 411.455
1836.2772 416.9641
1833.4773 423.14786
1839.7338 421.6524
1839.0779 428.24347
1841.5116 433.46704
1836.9832 435.64856
1833.3463 432.6046
1831.2643 428.7255
1825.9222 431.49298
1827.2906 435.84454
1831.6099 438.1927
1835.0215 442.07388
1839.2439 440.00204
1842.9966 439.25848
1843.9672 444.9437
1840.3518 444.69003
1837.3162 447.19733
1833.9918 450.43832
1831.7897 446.60107
1829.0765 442.7726
1824.7013 440.44766
1821.6073 444.5038
1825.7942 446.62616
1828.1504 451.4704
1823.2858 452.2027
1820.1703 456.3688
1815.8972 454.87024
1817.7886 451.31616
1820.9382 448.525
1817.3309 446.85645
1813.9202 446.34326
1813.1598 450.01724
1811.299 453.84784
1808.7001 450.52844
1804.6887 451.0397
1807.2169 455.9531
1812.2274 458.15112
1816.6613 460.23633
1820.7493 461.80972
1822.1768 465.56027
1819.3586 468.617
1816.5006 471.4133
1812.1045 473.65778
1811.5356 468.1171
1816.3009 465.58774
1812.2489 463.09442
1807.9473 461.64197
1805.647 466.4704
1807.071 471.31888
1805.3354 476.15442
1801.9695 472.54083
1800.4838 468.21548
1799.3253 463.76035
1802.9236 461.75732
1802.9725 457.64783
1800.7207 454.01334
1799.3645 450.2252
1794.2278 452.58066
1796.8049 457.3566
1795.6605 461.7732
1791.3301 460.37152
1786.9364 460.75607
1789.7126 455.79346
1788.7455 450.01062
1792.8987 447.19894
1790.0681 444.41452
1789.1528 441.01083
1784.592 440.4123
1784.8185 436.5335
1781.6406 430.29956
1780.6846 434.93475
1778.2668 437.88937
1775.1068 440.12872
1778.137 443.14917
1781.7509 442.94177
1785.04 446.29453
1784.7075 453.5463
1781.5449 450.36835
1778.3326 447.66962
1777.3165 453.15088
1773.1771 451.04675
1773.3474 456.4238
1769.4404 454.01962
1766.8616 451.5438
1764.7527 448.66733
1761.5303 451.13437
1758.5449 447.62637
1756.1112 450.60086
1757.5288 454.6097
1751.4977 453.61136
1752.2354 448.4765
1750.2601 444.32114
1747.9626 440.33286
1743.3066 442.69852
1742.3259 437.44846
1737.4658 439.66318
1737.8624 443.9847
1734.2693 446.26736
1730.5891 448.45798
1728.685 452.58447
1733.4899 453.09085
1737.3264 450.30624
1741.553 448.1184
1746.9359 448.12057
1744.7302 452.92242
1738.856 455.08984
1743.3293 457.85693
1748.3994 457.55765
1754.155 459.40295
1750.0361 463.0373
1745.1892 462.79367
1739.9268 460.819
1735.717 461.1545
1733.2568 457.73328
1728.2896 458.0322
1725.2278 461.98846
1725.2852 466.91647
1723.4495 471.82193
1723.7096 475.8951
1723.4736 480.12796
1720.3986 483.24072
1718.8253 486.8456
1719.4109 490.63794
1723.2052 492.39713
1725.3944 488.3642
1725.3419 484.4155
1730.4404 483.0029
1728.927 478.70178
1729.5273 473.93936
1730.0085 468.83286
1730.9124 463.5306
1736.5659 465.9068
1741.4583 466.13577
1735.1725 470.35556
1736.4553 474.96313
1735.3618 479.6873
1735.1625 485.144
1730.6665 487.65012
1732.8293 490.9975
1735.5979 494.26898
1739.9453 493.688
1737.9817 489.59406
1740.2148 485.4785
1741.7266 481.05115
1742.5897 476.09308
1741.6747 471.25418
1746.2235 468.81158
1750.3574 468.47052
1753.5063 471.37247
1756.2054 474.84573
1748.6698 474.7962
1747.2139 480.15823
1749.9441 483.86252
1745.2681 486.80624
1750.5664 488.81656
1754.3846 491.48166
1756.9753 494.9718
1759.856 497.37704
1763.8181 495.90283
1761.8741 501.12
1765.2714 502.00528
1768.6686 502.68503
1771.4019 505.01007
1766.8092 508.16714
1772.043 508.79175
1776.0963 505.7213
1775.6547 501.31656
1772.4666 499.2048
1767.1365 497.9698
1769.7168 495.69263
1772.7997 493.61475
1767.6664 491.2831
1761.2953 491.91937
1757.6266 488.6503
1754.815 484.5259
1753.3152 479.12344
1758.814 479.99973
1760.2667 484.73285
1763.9694 487.61435
1768.2661 485.4091
1771.9413 483.33667
1767.8475 477.1345
1764.4448 481.10684
1761.9625 475.3228
1765.143 470.64066
1759.631 469.45627
1754.8859 465.76782
1759.1423 463.63962
1763.7458 462.98193
1759.8336 458.5833
1763.9802 456.02588
1768.5176 458.37122
1768.0511 462.48032
1772.2483 461.8917
1776.204 460.0518
1779.1201 456.9061
1783.3892 458.11606
1780.5977 461.83658
1784.5283 464.0996
1788.0018 466.2257
1792.1255 464.93686
1795.2678 467.42203
1795.9015 471.1833
1790.7595 469.73184
1791.6215 474.4488
1788.2963 472.91208
1785.7822 470.6631
1783.427 468.16794
1780.0334 470.17432
1782.5347 473.11078
1777.4417 473.84982
1775.9012 470.06674
1777.6864 466.5494
1780.8572 465.77402
1776.0919 463.82172
1772.7993 467.05652
1768.1471 467.02222
1771.3228 472.46646
1772.9705 478.0947
1777.7639 478.0105
1782.8318 476.8248
1786.8748 475.95828
1788.2389 479.19983
1791.8834 481.27753
1794.0421 478.49783
1795.1914 475.25333
1798.5571 474.42642
1799.3441 478.12854
1802.0406 480.75546
1806.194 481.3089
1807.2756 487.85886
1804.1138 485.76175
1800.262 485.2135
1800.7701 489.98398
1797.3547 488.39084
1794.488 486.9324
1796.7638 482.61618
1791.2499 484.74576
1790.5444 488.67508
1785.7933 487.95102
1788.3684 491.94818
1785.9321 494.5579
1782.2896 495.57162
1781.1448 490.81253
1780.6615 486.04636
1786.3657 483.34274
1782.0364 480.90442
1776.7794 483.23248
1774.32 488.8628
1777.0958 494.14554
1778.8657 498.1259
1780.406 501.86703
1780.6262 505.56445
1782.7639 509.12448
1779.2046 509.81638
1775.8013 510.54718
1776.179 514.67255
1772.256 518.1614
1769.9114 515.78796
1771.0725 512.36676
1764.6971 512.3587
1766.9344 515.4595
1764.9641 518.2011
1761.3556 516.10834
1758.1001 518.53906
1755.8809 521.6488
1759.3545 524.00903
1762.2734 520.99414
1763.056 526.5917
1768.5853 526.5488
1767.2554 521.7548
1772.0698 522.93585
1776.863 524.0261
1776.4913 519.27594
1780.9048 518.35864
1781.2291 513.7851
1785.3442 516.37335
1789.7578 515.18414
1786.2957 511.9907
1790.729 510.10382
1793.103 506.83533
1789.3046 505.36017
1786.3331 507.8271
1784.9381 503.9064
1784.4326 499.58182
1788.6045 501.21494
1788.9514 497.4547
1791.9994 495.09872
1793.461 491.5783
1796.8383 492.82834
1804.1598 492.12823
1804.4109 497.00092
1800.6536 499.7467
1800.0452 495.0412
1796.1157 497.0396
1792.7766 499.33768
1792.7107 503.05573
1796.3694 501.31128
1799.3566 503.53546
1796.4839 505.94873
1795.8962 510.03766
1793.9175 513.5133
1797.8712 514.0654
1797.6976 518.65826
1800.9183 516.82227
1803.0778 519.8603
1804.3822 525.056
1800.5662 523.06494
1797.3772 523.38184
1793.9192 524.9315
1794.3121 521.0704
1793.4377 517.4417
1790.2039 520.5074
1790.5281 525.0054
1786.2192 520.8589
1781.5288 522.90436
1784.719 525.56866
1788.6067 527.4286
1787.8574 530.821
1790.8268 533.77277
1793.2837 530.6497
1796.3219 528.1585
1800.5264 527.90015
1798.9076 532.728
1794.3054 536.4589
1798.6626 537.836
1802.7491 536.9584
1806.6022 536.5799
1804.1733 530.9708
1808.3439 528.40466
1807.7186 522.04865
1811.2375 525.356
1813.2627 531.0166
1809.059 533.23755
1815.7527 535.5643
1811.6254 537.8463
1813.1355 542.4268
1818.0756 543.4756
1816.4958 548.31116
1811.8701 547.4743
1814.3496 553.3825
1819.2898 553.6294
1822.8982 557.2545
1819.4862 559.94324
1821.1066 564.19995
1824.6394 571.3857
1825.2277 565.8499
1827.3422 560.51965
1826.3035 553.6352
1826.7112 547.45355
1821.7648 548.60486
1823.0421 542.9073
1825.8481 538.8312
1819.0256 538.74976
1822.708 535.7476
1823.9464 531.29596
1819.141 531.7601
1816.9489 527.52814
1815.4136 523.3882
1812.6932 519.9965
1810.9525 516.5449
1809.3561 512.7788
1812.6627 509.87482
1809.4479 505.31265
1807.6575 508.627
1804.0754 509.35086
1805.6162 513.6234
1806.6833 517.5972
1802.3296 513.738
1800.177 510.81766
1800.0005 507.5191
1803.0127 505.11584
1805.3154 502.55692
1808.6516 499.83582
1810.3738 495.4114
1808.5875 491.83414
1812.4238 489.35013
1816.842 489.64746
1818.973 486.05972
1820.8506 479.2061
1818.4004 482.15652
1814.1907 484.15616
1809.8855 483.9813
1809.9885 478.31268
1814.5303 479.03983
1817.6338 475.93192
1821.6049 473.73126
1823.3203 469.98218
1826.1482 467.2027
1827.1403 471.92258
1829.7117 469.9009
1832.168 466.80884
1828.8275 464.39288
1825.8246 461.99768
1824.4283 457.4779
1828.9805 457.854
1831.9836 454.70374
1836.3757 454.58566
1839.719 451.33337
1843.4325 449.4683
1843.7761 454.49045
1840.0286 456.3724
1843.5518 459.58804
1838.9126 461.1188
1834.6777 459.2017
1832.7429 462.6902
1836.3641 468.5698
1838.6641 465.82455
1843.1333 464.6504
1843.0793 470.58792
1842.6292 475.50754
1844.7183 479.75055
1844.5508 485.94
1839.9998 485.797
1838.8234 490.3742
1843.1877 492.97668
1841.6973 499.38397
1842.337 505.50458
1837.1843 507.53464
1837.2618 502.76846
1837.7965 495.89612
1834.0195 493.17038
1829.6807 490.50323
1834.0625 488.94998
1835.3829 484.71848
1839.6565 480.5148
1834.9684 479.38617
1837.5891 474.0387
1833.4775 471.406
1832.0525 475.03003
1826.0051 475.01123
1824.4331 478.45132
1829.2336 477.7299
1830.904 481.4082
1830.2615 485.48062
1826.6189 482.07654
1823.374 484.28156
1826.2084 488.43503
1821.8508 489.31027
1822.4564 493.43805
1826.753 495.14502
1830.729 495.7166
1833.4363 499.41736
1827.7346 500.98712
1823.585 504.07416
1818.4949 501.71548
1822.1462 498.31815
1816.749 494.3289
1814.5754 498.4842
1812.8705 502.84827
1815.3735 506.63037
1819.5334 507.05838
1818.7126 512.0681
1814.8508 514.14716
1818.0342 517.9591
1820.4353 521.9675
1822.2003 526.19934
1827.011 527.6646
1827.1031 523.5926
1830.7593 521.3495
1836.2379 521.82245
1833.4241 518.04614
1834.9126 514.43774
1828.8871 514.6272
1825.219 519.12854
1823.1012 514.96204
1823.4646 510.0797
1827.5068 508.08295
1831.8293 504.76584
1832.0764 510.22943
1837.2766 511.59384
1841.3848 511.4779
1842.1705 516.41034
1838.4614 517.2144
1840.8816 521.0994
1839.8606 525.3853
1834.8297 525.75055
1832.1327 528.41113
1829.2422 531.50165
1828.242 535.14636
1832.0354 537.27277
1834.4102 533.4765
1838.4711 529.9578
1838.9136 534.6511
1837.7012 539.1723
1837.4226 545.7608
1835.4912 542.4578
1832.209 540.86755
1828.2311 542.4317
1832.1594 545.96686
1830.9304 550.6839
1836.0857 550.988
1832.8304 555.5301
1833.8538 559.98706
1833.1642 565.18634
1829.2593 568.4518
1832.4767 571.4122
1830.2563 574.3927
1827.341 576.893
1830.209 579.03723
1826.899 581.7134
1821.9113 583.2264
1820.2343 579.1801
1823.4004 576.18616
1819.1633 574.4271
1813.5343 575.64136
1815.7427 579.2198
1817.1622 583.4434
1817.0281 587.7035
1812.4121 591.35864
1811.5787 586.386
1811.2695 581.7522
1807.9436 578.28314
1808.673 573.66547
1811.6643 570.3981
1815.8181 571.0261
1820.549 569.8039
1817.5128 566.94073
1813.218 566.09875
1815.6671 562.92737
1814.5986 558.63696
1810.2744 561.08844
1809.2229 565.642
1806.4117 569.5523
1803.4741 565.8773
1800.988 569.69885
1803.0864 574.4083
1803.047 579.65753
1798.321 580.69916
1804.7583 584.62164
1806.4119 589.26636
1797.5327 586.2609
1792.913 581.4337
1788.4294 583.9664
1786.732 579.98486
1781.7229 579.824
1782.834 584.2376
1777.8428 582.4083
1777.3542 577.4063
1781.336 574.67224
1777.6256 571.8416
1773.7344 573.5844
1772.9043 578.41174
1769.2034 575.50525
1767.2784 577.8913
1764.8773 575.4082
1762.8099 573.38135
1765.9843 571.52277
1769.5581 571.658
1771.4949 568.7985
1774.8755 567.939
1778.787 566.50323
1781.5829 569.696
1785.1107 570.1026
1790.9877 567.6351
1788.4429 570.439
1785.2653 575.46594
1789.4463 575.6593
1793.7664 576.21814
1797.9106 574.47
1792.7319 571.5102
1796.2002 569.1516
1793.964 564.41833
1797.612 565.26874
1800.0006 562.9324
1802.1067 559.51184
1805.7202 562.551
1806.4598 558.2967
1810.1876 556.0375
1809.2467 551.5319
1807.1434 546.3509
1807.2039 541.5798
1801.5211 542.5113
1795.8898 541.81793
1796.4692 546.9887
1791.2024 545.4407
1790.3062 541.0444
1788.8073 537.47125
1785.8531 534.5361
1784.0317 539.14514
1779.076 540.94977
1773.4722 539.1962
1774.7617 543.6967
1774.7133 547.9838
1773.7662 551.5378
1777.1967 554.65234
1781.6965 556.3788
1785.457 558.30164
1789.8618 555.1896
1786.1045 550.27844
1780.812 551.1316
1780.3998 546.10394
1785.4661 544.1342
1791.5875 550.189
1795.1283 553.70355
1799.2933 550.82404
1802.0684 546.8933
1804.4109 550.83154
1804.5557 554.86475
1799.9885 555.318
1797.3174 558.6793
1793.9885 559.84564
1789.8251 560.2181
1790.2833 564.2458
1786.7002 564.2777
1783.0676 564.41986
1779.6648 561.3895
1775.5142 559.1568
1774.6619 563.5769
1769.8572 564.44635
1766.6964 567.1159
1762.5612 569.35815
1762.2465 565.38916
1765.0737 561.8262
1766.9575 557.5319
1770.5156 560.3546
1772.0375 555.95483
1769.1582 552.2928
1766.385 548.8383
1769.5869 545.01886
1767.7705 540.22876
1769.0281 535.87823
1772.323 533.41534
1776.6594 533.95325
1779.831 536.62744
1781.8065 533.2004
1783.6082 529.64417
1779.0812 528.6233
1773.5508 528.63354
1766.724 530.6154
1764.2845 534.2044
1762.908 538.7218
1758.2952 538.5681
1754.7567 541.16266
1750.8173 541.1745
1748.746 537.5573
1745.049 539.6072
1741.3914 540.42755
1738.2859 542.5115
1734.0846 544.0874
1731.1675 547.06116
1726.2838 546.7325
1727.9382 550.0418
1731.8762 551.87683
1735.3665 552.236
1738.8618 553.07
1739.2489 556.53546
1741.2295 559.62415
1744.9275 558.5251
1748.4478 559.6198
1745.7725 563.95026
1749.5283 564.144
1753.0414 565.79
1752.3188 560.1502
1749.4958 554.9126
1744.0886 554.29913
1746.296 550.3227
1741.6924 549.9447
1737.5862 547.50757
1743.6295 545.469
1748.5818 544.7655
1750.3 549.4187
1754.1582 551.74585
1754.7881 546.65265
1758.9766 543.376
1764.088 543.6899
1761.0913 547.5156
1759.9718 551.2256
1764.2251 553.8327
1761.1588 557.6281
1757.8223 554.65625
1754.6864 557.0015
1755.8629 562.2901
1759.7676 561.4838
1757.7932 566.4795
1758.1951 570.14526
1759.7876 572.7452
1759.9453 575.80505
1755.1649 573.2813
1753.5671 570.10974
1749.684 569.1815
1747.7915 572.13495
1745.1726 568.3476
1740.864 568.8589
1742.0945 563.62775
1738.2825 565.4352
1737.0562 561.0712
1733.9225 557.8791
1729.7797 556.53784
1729.5461 561.9143
1733.3623 564.2071
1735.0294 568.78015
1730.27 568.2962
1725.7004 566.688
1721.0332 564.7396
1716.4358 565.3978
1714.1239 561.712
1710.9551 564.6221
1706.673 563.63855
1703.9696 561.44684
1700.5338 563.7335
1700.6243 559.3018
1697.2517 559.73663
1696.0929 562.5532
1691.3009 563.3999
1693.1497 559.9883
1694.543 557.48627
1693.8385 554.66626
1690.595 552.6791
1690.1465 557.5059
1687.1107 555.59357
1687.4803 550.1209
1684.365 551.6755
1680.873 548.40967
1685.9187 546.16547
1684.4017 542.57104
1680.7114 543.5654
1676.5 542.7423
1672.8018 542.25055
1673.2672 537.80585
1677.4005 538.131
1681.237 537.8328
1683.2046 533.39734
1684.8856 538.46265
1688.0881 540.63666
1691.9303 539.99225
1690.286 543.7803
1690.3276 547.3094
1693.4104 548.8743
1696.0098 551.86707
1698.3956 555.546
1700.7152 550.9773
1697.9197 548.00726
1698.5559 543.8097
1694.5361 543.8638
1697.1813 538.9815
1702.2106 540.3367
1702.6111 545.2006
1704.8466 548.51306
1706.7896 552.2257
1702.5176 554.3933
1704.8481 557.5601
1709.8295 559.5
1708.7367 555.7146
1712.4108 553.93256
1715.7568 550.8478
1718.6199 553.80664
1716.2544 558.36304
1720.9047 558.4305
1724.8721 561.55225
1725.1243 556.82874
1726.6012 553.17395
1722.1855 551.20026
1722.2327 546.14545
1717.9789 545.53375
1720.3707 540.5047
1723.2275 536.1837
1719.3926 533.4314
1714.7471 533.10486
1715.7773 538.2006
1712.7087 541.8905
1713.6403 547.0903
1709.6403 548.2186
1707.5496 543.43475
1706.9866 538.4068
1709.9893 534.98914
1701.8025 535.39935
1704.6742 531.25586
1708.502 529.26514
1712.924 529.16705
1710.6622 524.4307
1705.8186 524.9258
1706.1147 519.6238
1710.5525 519.3874
1712.9973 514.3799
1708.6019 514.6734
1704.5172 514.4471
1704.1874 510.19708
1707.7712 509.21405
1711.9126 509.49005
1716.6101 510.47247
1719.441 506.72678
1723.0936 509.76126
1723.6572 514.0678
1723.9941 518.73706
1723.8971 523.48645
1719.648 521.55444
1719.4583 514.9421
1715.9915 517.48224
1714.6096 521.3188
1715.6222 525.0759
1718.0687 528.1823
1722.0444 527.7327
1724.6687 531.1612
1728.6238 533.445
1728.1914 537.66144
1725.1681 541.9442
1729.9725 541.87555
1734.7303 538.79565
1733.3188 534.5579
1739.0964 535.0307
1743.9869 534.6394
1748.9774 533.0839
1753.8987 535.49506
1759.2457 534.28436
1758.9374 530.0414
1755.0421 526.2859
1753.002 530.4197
1749.0935 527.4704
1748.1613 523.4876
1751.9185 522.05316
1748.3566 518.9262
1747.4791 515.15216
1745.1412 512.79974
1748.9736 510.53442
1751.7566 507.45007
1756.5879 505.73608
1756.4094 509.44492
1753.7272 512.03766
1751.1208 514.81854
1753.715 517.50635
1757.1459 514.3558
1760.1986 512.16724
1761.0664 508.7965
1762.2985 505.50534
1758.1305 502.1399
1755.0332 499.36484
1752.7399 503.07623
1749.8416 499.16205
1752.5042 495.65854
1748.4325 493.84836
1744.1906 491.8545
1742.813 497.11624
1745.8077 499.92813
1747.9167 504.06827
1745.5795 507.43338
1741.6595 505.99704
1741.4683 501.97974
1737.4373 498.32547
1736.0945 502.26584
1737.6931 506.1649
1739.1287 509.7836
1742.5753 510.59772
1742.378 515.9126
1743.8826 518.8988
1744.4072 522.3723
1743.7733 526.35425
1744.5066 530.3835
1739.6346 529.2142
1735.2487 530.3644
1730.183 529.6454
1736.1561 525.2509
1732.0597 525.7453
1727.2954 526.1806
1728.5569 521.3077
1732.5442 521.2985
1736.0967 520.6654
1740.0753 523.9303
1739.9519 519.897
1737.3455 516.93964
1739.73 513.77606
1736.3005 513.4177
1735.4117 510.09106
1734.1145 506.40067
1731.7639 510.18414
1732.4844 513.60474
1732.7998 517.1502
1728.3375 516.58075
1727.9907 512.63245
1727.9313 509.09558
1730.3037 506.6287
1731.0094 503.68695
1725.7986 505.55032
1721.8882 502.81433
1726.5244 500.86996
1731.2789 500.7995
1731.9099 497.99176
1731.215 494.8109
1727.9452 492.03693
1726.6746 496.29327
1722.1567 497.61646
1717.3091 499.88272
1714.8184 504.34814
1709.6378 504.3824
1704.5787 504.47104
1704.511 499.45306
1707.571 495.42566
1708.3315 490.61008
1706.934 486.10376
1704.6772 480.82437
1701.7283 485.39462
1698.8608 482.04385
1694.2651 483.943
1689.7266 486.4048
1689.6892 480.87494
1694.536 478.4721
1699.6638 476.8712
1698.7368 470.65097
1694.1781 473.65088
1693.3652 468.90726
1688.529 470.4673
1688.8088 475.76358
1684.7715 479.86935
1683.8301 484.79715
1679.8962 487.90723
1685.7965 489.6892
1689.9575 492.2694
1695.3932 489.3728
1700.4353 489.55328
1702.3589 493.4459
1698.6497 497.7927
1694.1879 495.3334
1693.4966 502.10736
1694.3593 507.97858
1699.05 503.6912
1700.6608 508.5162
1697.3823 511.74817
1700.2665 514.78546
1701.4761 518.59674
1701.7275 522.574
1700.3201 526.64557
1699.387 530.7393
1696.0824 533.65906
1692.573 536.43646
1687.6833 535.177
1690.8668 531.8774
1694.4636 527.6603
1689.6287 527.122
1685.4385 529.1029
1680.8004 528.94055
1678.0103 533.27234
1673.2747 532.98975
1675.218 528.5814
1679.0895 525.1343
1675.6119 523.7828
1672.283 523.4283
1674.1245 519.1353
1673.5522 514.64404
1673.1165 508.91492
1675.6755 505.8659
1674.6531 500.95804
1679.438 498.12534
1680.4236 502.97165
1683.6582 506.4481
1680.2122 509.0022
1677.0717 511.45605
1678.359 515.4112
1678.3406 519.89526
1682.3331 518.3397
1682.6473 523.01434
1686.8822 523.7315
1687.4418 519.18195
1691.9362 521.45557
1696.7528 522.43835
1695.9966 517.3509
1692.736 514.36145
1689.0568 514.6443
1685.4656 515.4179
1682.0372 513.6744
1685.201 510.83545
1689.6597 509.61392
1688.5704 505.37247
1686.0105 501.52405
1689.2368 498.062
1684.5319 495.89417
1681.4849 492.0946
1676.4633 494.03238
1675.7388 488.0372
1677.9496 483.14633
1679.8098 479.3012
1678.1025 475.35696
1679.231 470.65115
1683.7881 474.05148
1683.1737 468.9819
1680.5392 464.74826
1685.0072 464.5655
1689.3258 465.16727
1686.844 459.23206
1681.877 458.0483
1682.676 452.3219
1688.7139 453.73825
1692.8949 456.46933
1691.6802 460.53833
1693.8116 463.8932
1696.9915 466.24716
1701.0282 466.142
1704.6223 467.8707
1707.1274 471.35132
1702.6077 473.3095
1706.4628 476.73392
1710.3333 475.1362
1712.0972 470.95883
1710.077 466.92325
1707.7555 463.34277
1703.5967 462.6738
1703.6902 458.0935
1700.4977 459.1778
1698.4054 462.35098
1696.7056 458.47574
1696.2106 453.32178
1693.1267 450.1211
1694.4446 445.1939
1698.4373 446.49332
1697.0657 441.16068
1701.882 442.80804
1701.6228 438.28217
1697.1863 436.81842
1696.0084 433.05835
1691.6115 433.20456
1696.454 429.15436
1699.7434 429.67917
1700.7437 433.85886
1705.0156 434.04892
1703.2771 429.39966
1707.062 429.3716
1710.7329 428.60364
1714.2532 428.3531
1713.4666 424.7328
1712.4888 421.36057
1714.1763 418.45816
1716.8748 415.4934
1719.8848 413.40457
1723.5853 416.07053
1728.2815 416.4598
1732.1262 419.96786
1733.1204 415.1151
1734.3796 410.28354
1729.8059 410.3948
1726.0085 411.91412
1722.1431 409.63635
1717.5883 408.3634
1714.081 411.23657
1711.7202 407.2556
1707.4502 404.6211
1705.1854 409.67044
1709.1006 412.57166
1713.2002 414.82315
1710.1003 417.22034
1708.3289 421.16898
1709.0293 424.79898
1704.9556 424.62772
1702.8186 420.48114
1706.3047 417.90808
1704.3728 414.4417
1699.8148 412.1441
1700.2946 416.97314
1696.9988 420.46146
1700.7919 424.49454
1696.9014 425.33115
1692.4585 423.99246
1692.9093 428.82562
1688.3611 429.61334
1687.1168 434.9265
1682.2878 439.42822
1685.6501 442.7163
1688.2695 439.14526
1692.7189 437.29288
1691.8071 441.74805
1689.9427 446.36237
1686.0325 448.16476
1680.9265 445.9644
1675.5396 444.62476
1675.243 449.542
1677.049 454.55734
1672.3228 455.48734
1668.6711 457.58728
1668.8083 461.31778
1664.4498 462.22418
1659.4386 461.96075
1663.858 458.33435
1666.7479 452.76624
1596.4303 398.123
1591.7333 400.55457
1587.5249 402.16266
1584.98 400.1419
1581.1633 403.1067
1576.4185 402.79333
1570.8872 404.91324
1565.3765 402.4009
1570.548 401.01822
1569.4364 396.31863
1574.2507 397.94916
1579.9087 397.48605
1576.2987 394.3282
1575.4171 390.44333
1580.866 391.196
1584.3358 396.37244
1586.7083 392.974
1590.5044 395.92755
1595.0966 393.24945
1591.6814 389.87137
1586.3208 388.17896
1582.166 385.77472
1578.992 381.1118
1577.9602 384.935
1574.6694 384.65433
1572.8928 380.97958
1573.8232 377.94376
1570.3538 375.5063
1567.241 378.67728
1561.5786 375.5854
1566.0413 372.61765
1578.0513 336.15976
1559.9976 370.7324
1554.6293 367.89636
1555.6812 375.0826
1556.468 380.45258
1561.8474 380.01477
1560.5782 384.5816
1557.6582 388.2682
1561.4761 389.90558
1565.5851 387.9648
1565.5063 383.351
1569.6833 384.29794
1572.3656 387.70493
1569.8539 391.34344
1565.0419 393.17358
1564.4517 397.96527
1559.5063 393.68127
1559.7946 397.5916
1559.5413 402.53128
1553.7511 402.68164
1554.0625 397.4867
1555.4961 392.4525
1554.9296 384.6797
1552.4673 388.35794
1551.0887 392.62814
1547.0735 388.66855
1549.8597 383.86053
1551.1632 379.03772
1549.3073 374.33856
1551.7175 370.87393
1547.0205 367.90237
1538.7052 368.55878
1538.6782 373.7491
1543.612 372.14133
1545.2612 376.6672
1539.7894 377.78906
1539.4844 382.37933
1545.4883 380.8834
1543.714 385.25232
1540.4277 389.2246
1543.1206 393.31042
1547.4785 394.31647
1544.0096 399.21597
1537.3759 395.68536
1531.37 394.49472
1535.52 387.5119
1529.2734 386.22424
1533.55 382.12534
1533.4385 377.1839
1534.7943 371.74298
1531.1832 370.12598
1529.4635 365.97528
1525.289 362.8578
1518.7704 362.6114
1516.9448 366.0483
1511.8054 367.59567
1514.8994 369.94424
1515.9801 373.81406
1518.6366 377.8693
1522.8938 376.24265
1520.0403 371.48233
1523.0144 367.37228
1525.9121 371.56915
1528.6863 375.53278
1527.0842 380.29135
1523.5004 383.3714
1518.6511 382.33057
1513.9647 380.81323
1509.4413 381.54663
1504.886 380.5343
1508.3606 376.91644
1512.56 375.76532
1508.3248 372.33475
1503.3845 375.9303
1499.1978 378.77658
1501.2981 383.49033
1496.1412 383.36737
1494.3187 378.86987
1490.9645 380.78378
1451.8464 401.90518
1447.5066 400.98193
1444.1864 404.06128
1449.1578 405.8715
1453.7632 407.29373
1451.1672 410.53543
1446.3998 409.10828
1442.315 411.06836
1444.2177 413.9949
1447.5627 413.24426
1446.3702 418.62585
1449.755 415.9461
1453.0205 418.5667
1453.1141 414.49362
1455.7671 412.6871
1457.364 417.85983
1455.8601 422.1553
1459.3386 424.62125
1455.7639 428.95206
1461.2374 429.9443
1462.9362 434.24078
1465.5698 438.7126
1458.3015 437.9163
1461.8629 442.28564
1462.2262 447.2523
1466.5182 446.10898
1468.9268 442.6154
1472.0394 446.512
1470.042 449.61826
1474.4744 450.52026
1471.8152 453.38882
1471.8687 457.47244
1472.4084 461.51447
1468.8767 464.2986
1465.562 466.9654
1463.6873 461.8004
1467.2728 459.77814
1467.8619 455.62863
1466.36 451.53787
1461.3096 451.28177
1456.9559 453.01865
1456.6172 457.0118
1462.8163 455.99612
1459.7684 459.68973
1455.9884 462.75336
1452.2529 465.52094
1448.5277 465.0329
1448.0383 459.16028
1452.6366 459.34827
1450.7524 454.08228
1454.126 449.38727
1457.8817 445.0677
1454.049 444.3914
1447.366 436.4749
1450.5215 431.6058
1451.9376 425.90985
1450.2507 421.6565
1446.9337 427.70828
1444.9058 431.67508
1441.6644 433.92145
1439.8585 438.2025
1443.9698 440.32092
1443.5886 444.60004
1440.4265 446.35153
1437.9497 450.17947
1437.1144 454.8819
1437.2374 459.54877
1436.4581 466.0746
1432.774 468.5539
1433.0212 472.38797
1437.0709 470.78943
1441.2385 470.43204
1440.725 465.6698
1445.1003 468.21045
1444.2632 474.30753
1450.9408 470.25473
1456.2844 467.97986
1460.3884 464.82483
1461.2244 470.058
1457.2711 472.89496
1453.184 475.64697
1448.545 473.63272
1448.1771 480.18466
1444.464 480.6801
1441.2474 478.17676
1441.1858 484.00732
1445.1233 486.0485
1444.2863 490.39798
1440.8416 493.0665
1438.8093 488.54874
1436.8936 484.34912
1437.1768 480.11636
1439.6248 474.2765
1436.2775 475.90005
1432.9563 477.31757
1432.4877 481.14133
1432.7885 484.37503
1432.9565 487.59454
1433.7175 490.75018
1436.7343 493.5373
1439.1084 497.6921
1434.563 497.6537
1435.014 502.02893
1439.4675 501.8649
1443.5441 501.4053
1444.0223 496.78873
1447.481 493.18234
1451.9551 492.75687
1450.2631 488.02164
1454.1085 488.54712
1457.4537 488.90817
1461.1222 491.30197
1456.32 494.56097
1460.3688 495.85297
1462.8512 499.7836
1466.6783 502.32104
1471.825 502.33307
1474.2716 498.17627
1468.989 497.92914
1465.1251 495.0005
1466.8752 489.7355
1469.1917 492.17902
1472.2473 493.66418
1476.2771 493.98404
1476.8035 489.94522
1478.6091 486.3741
1478.5066 481.97708
1473.7971 481.98447
1469.6049 479.61508
1464.3175 481.9074
1468.9688 484.68442
1472.7622 487.58685
1464.4202 487.34253
1461.0078 485.88962
1458.0721 483.2928
1453.4288 482.5524
1457.1705 478.59613
1461.4637 477.08508
1466.013 476.40594
1465.9073 471.8665
1471.7957 475.1802
1471.5204 470.28458
1473.2933 466.56808
1476.6766 464.56894
1475.9147 459.98972
1476.1217 456.68524
1475.9769 453.73395
1480.0131 457.25043
1479.2545 460.3975
1483.0029 461.5889
1480.8505 464.1033
1484.9637 466.07254
1479.7378 468.6651
1477.5703 472.69562
1477.3615 477.4798
1484.0718 476.15155
1484.4677 471.83273
1489.2705 469.6107
1491.2168 474.14978
1496.4642 475.79797
1500.8252 479.5555
1505.5906 481.9303
1509.5527 484.15945
1513.8455 484.93753
1518.2832 485.29416
1520.9453 488.33066
1520.3784 492.61578
1520.1471 497.4885
1521.6301 501.3691
1520.765 506.2353
1523.1165 511.21005
1519.1964 511.55872
1516.3413 508.28003
1514.1799 504.98013
1511.3405 508.03284
1510.2437 503.34927
1516.8306 501.94925
1514.7003 497.80765
1510.8273 499.1727
1506.6731 494.81345
1511.8438 493.79105
1516.904 494.2575
1515.3583 489.89844
1509.5927 489.5093
1504.8352 489.4447
1501.4076 486.29977
1494.6534 481.54944
1496.9185 485.41757
1495.8447 491.1611
1491.6938 488.4689
1488.0305 485.51837
1489.6699 479.93225
1483.6964 480.2612
1483.192 484.4528
1483.5725 489.26764
1481.2985 493.17252
1479.5564 497.5645
1477.641 501.6323
1481.8392 504.36203
1475.8119 506.036
1470.5524 507.05505
1467.9911 510.5357
1463.5583 511.1385
1464.0044 505.95276
1459.2062 501.7139
1455.4802 501.49548
1453.5942 498.18567
1449.8749 496.7183
1448.2891 499.72128
1447.388 502.84735
1444.9027 505.74097
1448.4166 507.0145
1451.8813 503.6184
1456.0188 506.63757
1459.7251 508.58224
1451.5394 509.42242
1454.8074 512.3639
1460.1897 514.4598
1456.3506 516.4202
1455.6183 521.4098
1459.8623 521.18835
1462.8358 518.6638
1464.7399 514.96564
1467.2457 517.59467
1470.3475 519.6451
1470.6848 513.9921
1474.4813 515.572
1475.2112 510.97766
1479.6329 509.59143
1483.2725 510.05807
1486.2462 511.98593
1483.0594 515.4942
1487.9836 515.583
1491.5466 517.3536
1490.2489 511.36618
1487.4833 506.6262
1492.6208 507.53552
1495.6239 503.75256
1491.7103 501.78326
1486.7281 501.71768
1484.2062 497.9981
1487.5111 492.86136
1490.8162 496.40875
1496.0588 497.0397
1500.8073 492.9992
1501.4156 498.0572
1506.0981 499.61584
1504.603 503.9889
1499.796 502.26657
1499.7454 506.97806
1499.8406 511.72107
1503.7789 509.77704
1507.4233 507.20197
1505.521 514.51526
1508.3749 511.95544
1511.952 511.59073
1515.0122 512.9115
1512.6881 516.14935
1509.3578 517.7958
1505.6892 518.68384
1503.1943 520.77997
1500.9495 518.1193
1500.2489 515.004
1496.0945 510.12888
1494.2374 513.7516
1495.5416 517.37164
1497.1993 520.1745
1500.2611 522.7196
1496.6055 524.26013
1494.0073 526.9813
1500.1533 527.1191
1504.639 523.7228
1508.3718 524.7031
1510.8834 521.8096
1515.1593 519.9628
1517.982 516.5167
1522.4772 516.38367
1522.6378 521.634
1518.7023 523.7363
1523.5983 527.8603
1518.0554 530.159
1514.924 524.7926
1512.6788 527.40314
1510.4421 530.0009
1504.9401 527.87103
1505.5747 531.57794
1501.0455 532.0523
1497.9727 535.6965
1496.259 530.8658
1491.2443 530.52966
1492.9255 534.71906
1487.9807 535.3182
1486.7523 531.2529
1488.0455 527.52783
1490.2218 524.70276
1492.7196 521.789
1488.196 519.71265
1486.6105 522.8596
1483.8682 519.98883
1479.7385 519.70917
1478.6201 515.5128
1474.6738 520.17957
1477.3654 523.7566
1481.157 524.05255
1484.624 525.1128
1483.7947 527.9141
1481.4598 529.54584
1482.3926 532.2858
1483.5116 535.58453
1479.2197 534.3394
1475.7238 531.7615
1478.1139 528.2301
1473.66 525.2963
1469.3259 524.21423
1472.0072 529.534
1467.4426 529.4221
1464.7395 526.9267
1464.7484 522.4638
1460.1915 526.35913
1460.7677 531.5511
1454.5725 531.74084
1454.945 526.8025
1449.3234 525.21893
1450.6074 520.37244
1449.8845 515.7358
1446.5762 512.74646
1443.136 509.6344
1441.0557 505.82587
1437.2941 507.73233
1440.9685 513.984
1443.929 520.17633
1436.2711 516.345
1433.2084 510.9243
1431.8463 505.64386
1430.4294 500.25497
1428.6025 495.93076
1432.151 494.57394
1428.573 492.03436
1428.1981 488.05096
1428.1558 483.23434
1426.2228 477.76944
1425.0208 471.64618
1427.2416 465.8353
1423.282 463.19635
1427.8175 458.16824
1422.4907 456.1863
1424.7896 451.45673
1421.72 446.2706
1426.8086 445.9342
1431.7896 448.18185
1435.3159 442.17648
1430.8197 442.48932
1431.0172 438.06247
1429.2982 432.46765
1431.4229 434.7827
1435.3395 437.15933
1437.346 433.15283
1433.6643 432.05038
1434.0765 427.78088
1438.5308 429.05673
1441.7941 426.54654
1445.8978 423.4051
1441.7471 421.49124
1437.0457 423.95032
1438.0559 419.6317
1442.0249 416.86783
1438.5797 415.11905
1435.179 417.08768
1431.5569 416.6234
1433.1024 420.11838
1432.6781 423.55765
1429.8821 425.9756
1430.1154 429.37048
1426.3596 431.31992
1427.0273 435.66547
1426.9672 439.9248
1422.9318 441.443
1422.1456 437.70758
1423.3356 434.8821
1423.0447 432.1499
1423.1127 428.91898
1426.2974 427.82016
1423.6929 425.0683
1426.6458 424.10953
1428.9194 421.83682
1428.4019 418.55984
1424.5955 420.3225
1425.1322 416.4489
1425.4495 411.5987
1426.2325 406.79303
1426.7285 403.21115
1428.5488 409.23984
1428.2996 414.2853
1431.5188 413.16162
1431.6465 410.08157
1432.3508 406.66
1430.2451 404.7664
1430.187 401.55783
1427.3689 398.78705
1430.2274 397.02585
1433.9773 398.32086
1434.7396 402.48862
1436.4829 406.32315
1435.1504 409.31915
1435.0166 413.09436
1438.5398 411.03836
1441.2483 407.44693
1439.5007 403.62198
1438.8497 399.24573
1443.5361 398.17853
1449.3363 396.48132
1442.6096 393.1232
1437.6304 393.90863
1433.2511 392.7563
1428.7883 393.0994
1430.5883 387.96567
1435.2582 387.35938
1439.4637 387.19022
1443.9979 387.8199
1448.3484 391.45505
1448.104 384.96783
1443.3528 381.6947
1438.0095 380.10855
1432.4686 383.0572
1432.2968 378.5453
1432.9658 374.4807
1434.1157 367.3532
1439.9954 367.80267
1436.6296 372.61548
1441.4048 374.56976
1446.787 377.3757
1445.7339 371.092
1445.0217 366.381
1447.0409 363.00385
1443.3605 361.3769
1439.2811 361.93582
1435.101 361.27267
1436.7756 355.10007
1441.5259 355.97305
1445.7435 357.08514
1445.3629 351.06534
1440.8147 350.4315
1436.2369 348.57117
1437.204 342.36057
1440.5106 345.33386
1445.1174 345.55664
1444.9349 340.30118
1444.0337 335.75806
1440.0792 339.85397
1437.6558 335.61954
1438.7736 331.19254
1441.8511 330.99023
1445.2554 331.08826
1444.2325 326.1512
1440.2246 325.85345
1439.9784 321.36627
1444.1066 320.66174
1442.4381 315.57684
1442.6272 310.09277
1442.691 302.88803
1494.6912 232.76428
1489.0077 227.9671
1495.7562 227.68312
1500.7136 232.77695
1502.6108 226.58098
1503.4458 219.27132
1507.2122 222.73605
1509.4194 227.18942
1507.0557 231.08905
1506.7162 236.66612
1512.5355 236.74661
1520.568 235.48448
1515.8484 229.57759
1512.9082 224.79443
1517.207 224.82564
1521.6061 228.22456
1526.711 230.85799
1533.1935 231.58012
1538.3301 229.66168
1535.24 221.92372
1532.2987 216.47362
1539.8251 214.31581
1535.1012 209.22037
1529.3434 211.10013
1525.0009 211.59676
1526.7269 216.05746
1527.7288 219.97438
1525.0328 223.64311
1520.8972 223.3736
1522.0021 220.02325
1523.0669 217.60768
1522.3259 214.42801
1520.4692 211.41197
1517.0117 209.63791
1511.9569 214.62315
1515.9938 214.23695
1518.582 216.47565
1518.2588 220.26276
1515.1396 220.23842
1512.1593 219.34694
1508.3335 217.65184
1504.4691 214.00381
1508.8959 211.75764
1505.4615 208.52403
1500.7821 208.88884
1496.0691 208.653
1492.5864 212.53174
1491.615 224.03128
1487.2286 220.7924
1487.8706 213.24672
1489.8314 207.04068
1496.3501 201.21205
1503.562 199.39365
1506.195 203.43704
1510.5774 207.19617
1513.4319 209.81186
1516.5856 203.85434
1520.7266 206.39256
1526.3225 205.17206
1530.2655 203.99294
1522.0913 200.70499
1513.3397 199.0985
1514.7738 184.22601
1517.879 180.44904
1520.648 183.90321
1523.0416 186.62663
1526.5767 187.45027
1530.4249 187.6181
1529.7296 190.66869
1533.54 190.68982
1534.3851 187.33107
1537.3806 192.1934
1541.9902 191.4687
1538.4899 188.22202
1536.5559 184.19476
1533.9807 181.05269
1530.5625 183.85474
1530.3436 178.7975
1526.1038 177.27028
1526.2172 182.08044
1522.3649 179.1017
1518.4863 175.42984
1513.9814 177.70917
1510.456 174.32062
1505.7853 175.23735
1501.765 173.65309
1504.7155 179.90813
1510.2847 180.98254
1506.6814 184.62514
1499.4237 179.48598
1497.664 173.81703
1494.0398 177.11145
1486.7908 174.78627
1486.0637 179.05054
1493.4133 181.74423
1490.1478 201.51031
1485.1561 204.80699
1481.4861 209.38823
1483.1797 215.9393
1479.9624 222.14987
1477.581 215.11462
1455.9507 199.52211
1456.0636 193.99908
1457.4567 188.47041
1461.5648 184.74841
1459.3335 181.82854
1462.8191 176.96086
1464.9446 170.2819
1469.5754 159.31378
1472.7683 141.32382
1483.029 125.96067
1490.7919 114.11812
1495.4641 108.27474
1499.1489 104.80726
1501.8481 100.83783
1504.8826 97.486305
1507.5573 94.66961
1510.8984 91.06565
1514.0502 87.78116
1517.1481 84.41614
1520.0787 79.44794
1522.6912 83.291664
1525.9058 78.47552
1527.4514 65.81811
1531.8813 70.1966
1529.6622 74.775276
1535.4299 79.90586
1534.4755 84.31141
1529.6626 84.44415
1529.276 88.90171
1525.5658 90.688385
1521.9597 93.314
1519.1912 96.109566
1516.6635 101.97655
1509.912 107.81799
1505.9617 111.22659
1513.4897 104.40864
1520.2001 100.10943
1523.3042 97.8176
1526.194 95.33747
1530.915 93.554016
1534.1936 89.84286
1538.7029 87.80182
1540.063 81.72117
1536.9503 75.419205
1536.8882 71.01157
1541.609 70.093956
1543.4148 75.74454
1545.0592 79.82056
1543.7418 85.8997
1547.7899 82.7339
1551.3177 84.767654
1556.6499 81.87243
1552.5131 80.12159
1549.7175 76.84949
1549.9313 72.948845
1546.1399 69.8404
1542.7275 65.02819
1538.33 67.12815
1533.4894 64.191986
1535.163 59.77715
1538.6206 62.620705
1540.3334 57.989998
1543.6964 54.62493
1547.0277 57.469788
1548.5215 53.891766
1547.2998 50.781128
1552.1213 49.775654
1555.4596 44.866413
1558.5327 48.170395
1561.9362 42.011463
1569.4282 37.583984
1575.2917 36.0744
1580.4471 35.796196
1579.9827 41.651978
1573.9801 41.902584
1566.7559 44.43755
1562.8693 50.172714
1568.2234 51.678127
1573.4961 52.071136
1571.3387 46.511997
1576.0508 47.19306
1579.3936 48.66726
1583.0248 45.540237
1587.324 43.344936
1588.5603 47.12383
1591.9738 48.131462
1594.6406 50.669212
1592.3633 54.336193
1589.5759 51.776203
1586.175 54.479973
1586.0232 49.593624
1582.7556 50.612785
1582.0552 54.192562
1578.0858 54.87838
1573.9188 57.163383
1567.4012 57.49023
1563.0717 55.12583
1556.7534 52.76485
1552.6089 54.890266
1554.1996 59.961113
1550.9496 58.211693
1548.8251 61.139805
1543.8898 60.115387
1546.6355 64.68665
1550.964 65.02935
1552.5822 68.94591
1556.1985 63.828873
1557.8616 56.87202
1561.1399 59.67522
1562.4468 63.28634
1558.4596 67.68049
1560.1604 72.70004
1555.3656 72.713066
1556.5466 77.21103
1561.2649 78.79548
1568.3009 78.16979
1574.6421 75.31279
1576.1124 69.08295
1570.1171 69.21048
1569.4401 73.830666
1564.3726 75.43488
1564.5076 70.69049
1564.3685 66.7785
1568.0662 63.991314
1571.1293 60.75109
1573.6572 64.53794
1578.361 62.90308
1583.6588 62.876194
1582.7874 58.29136
1588.9795 57.05168
1588.1676 61.126244
1582.4519 67.492
1580.0526 73.19919
1585.3495 74.56342
1587.9412 77.90975
1591.9548 74.768456
1586.4595 70.66362
1588.6827 66.10287
1592.2527 70.05816
1597.4963 77.10312
1597.7661 71.82305
1596.5924 66.294266
1601.1443 67.401054
1603.9014 72.210594
1602.4811 76.938736
1608.1659 78.03254
1614.6222 77.53937
1619.8655 76.56503
1625.5791 77.30523
1628.7484 80.464775
1633.5736 82.11251
1638.4211 85.06616
1643.9792 85.82411
1649.4993 86.547615
1647.8165 90.185356
1651.1505 93.27562
1648.7097 101.49736
1654.6322 94.36004
1656.5908 92.308334
1660.1222 92.42078
1663.2986 89.20136
1664.4843 84.17363
1660.5673 85.73853
1657.8882 88.73052
1653.1451 89.308754
1655.4048 85.04401
1650.1846 82.704216
1655.7585 80.87048
1661.1007 81.271774
1658.7896 77.49512
1663.1951 75.93404
1659.5582 72.916595
1655.3505 71.39097
1654.3209 75.488266
1650.6316 78.19138
1648.6234 73.47521
1645.1023 68.925835
1642.5082 73.88252
1645.1947 79.745514
1639.584 79.05001
1634.4606 76.79778
1636.7977 71.83397
1630.7203 73.34372
1626.4681 72.42164
1623.0647 70.448906
1619.2798 71.52185
1615.8354 71.29729
1620.1902 66.47276
1621.5724 62.004684
1614.949 58.694286
1613.8699 62.97134
1609.5277 64.87012
1612.5604 68.116714
1609.9712 72.39146
1606.3324 68.47662
1605.1924 63.774796
1601.97 61.046352
1597.6744 60.772217
1593.0076 63.68243
1592.8175 59.321987
1595.81 56.839382
1596.9207 53.64191
1599.2787 50.745487
1601.5244 48.406307
1604.2795 45.874237
1598.4235 43.005066
1596.0748 46.553566
1592.0676 43.489613
1594.3547 39.680683
1585.0273 39.60677
1586.1086 34.83689
1589.6982 37.82714
1593.3204 34.7324
1598.7449 35.19059
1600.8093 38.495857
1603.2603 42.02269
1605.0414 36.944206
1607.5475 34.144363
1607.833 41.42698
1609.0251 46.09222
1605.9437 50.697083
1600.6805 55.684937
1604.9939 55.22618
1608.1152 59.43556
1611.1665 55.306835
1616.5902 53.319702
1614.3035 50.04934
1610.1902 50.917168
1613.9386 46.289356
1612.7616 42.1194
1611.1781 37.836628
1614.4563 34.70544
1617.1627 39.09708
1620.3528 35.57392
1625.8385 34.33103
1625.8582 38.41072
1628.4175 42.17928
1622.1274 41.993668
1617.5414 43.569977
1619.5459 47.639088
1624.6726 46.469223
1629.5664 47.35796
1634.4895 47.01122
1637.1875 43.002396
1633.3374 41.116558
1632.2314 35.59048
1639.2964 36.579594
1645.6355 35.67068
1647.3754 41.278572
1642.3224 41.683987
1640.2198 46.4732
1638.2435 50.616814
1640.5801 54.954758
1637.789 58.248634
1632.79 57.86307
1635.6074 54.11126
1633.0181 50.795567
1630.708 54.22003
1626.7113 57.29264
1627.632 52.301582
1624.3667 51.782867
1620.8632 52.203392
1620.472 57.29479
1627.0999 61.772263
1627.0818 66.79597
1632.7833 67.314255
1633.3354 62.28018
1639.6611 61.900734
1639.157 66.93838
1644.4686 63.89088
1649.8064 63.996098
1651.0657 68.64438
1655.6904 67.30515
1656.5942 63.907795
1659.5349 60.46891
1659.6313 56.200348
1656.825 53.11583
1653.2461 50.897118
1648.978 51.20943
1653.2692 55.377155
1654.9346 60.125294
1651.5692 59.17116
1648.1538 59.191727
1643.9474 58.74214
1647.9873 55.213566
1644.7421 53.402744
1642.6003 50.462093
1645.2169 46.99657
1649.4263 46.49322
1653.603 46.983727
1656.67 44.421806
1652.2454 42.224915
1652.145 37.012077
1657.3027 40.18136
1658.6682 35.897205
1664.6223 35.48467
1668.5631 37.994892
1670.8512 34.425503
1675.9563 36.240936
1680.9396 38.284515
1676.7018 41.866673
1671.8251 40.54897
1668.6074 43.831352
1663.632 40.348152
1660.8933 44.322323
1657.9281 48.591785
1660.9076 51.87128
1665.0046 53.93305
1663.0048 48.776173
1665.2169 45.40905
1667.6517 49.60183
1671.6597 50.624012
1673.3047 46.055504
1675.9529 51.994408
1681.2391 51.637135
1686.0854 53.04934
1678.959 46.913837
1683.0415 43.418415
1685.5116 47.72344
1689.2327 49.971558
1693.2983 49.414642
1695.7343 46.43808
1693.0715 42.354496
1690.6605 45.78837
1687.968 42.091476
1685.8281 37.269093
1691.4805 38.245365
1696.805 41.430653
1701.2328 42.915848
1699.5898 46.533577
1698.3315 51.444515
1694.2406 53.407494
1690.5837 53.722317
1688.8235 57.10104
1685.9163 59.7103
1682.9976 56.05338
1680.512 59.348854
1676.6584 56.778233
1672.5018 58.62141
1669.7429 55.291893
1667.96 60.80639
1664.2542 58.581104
1663.0323 63.537964
1665.2008 67.3722
1660.4683 67.8409
1663.6616 71.51438
1667.0295 72.261055
1670.3367 72.597435
1668.4426 76.321175
1665.4443 79.01861
1667.508 82.268814
1670.4374 80.233765
1673.4879 79.0654
1674.5608 75.93099
1671.9749 75.017815
1674.9614 72.41481
1673.0095 70.05502
1669.1935 68.91183
1668.5278 65.04142
1672.8232 66.685585
1672.1528 62.972946
1676.147 62.28196
1679.6741 63.901497
1676.5898 66.90387
1678.0364 69.89761
1678.3107 73.29563
1677.29 77.6398
1680.5219 75.95777
1682.8589 78.65607
1679.5922 81.4142
1675.4097 82.431145
1674.5245 86.772484
1671.058 84.34751
1667.6279 87.16862
1671.0063 89.16276
1673.7595 91.70183
1677.8604 91.47229
1682.1649 91.65002
1683.8904 96.68943
1679.368 97.42926
1680.9175 101.91753
1678.3204 105.39281
1674.8789 101.75054
1675.5513 96.38501
1671.8289 95.86935
1668.7052 94.12291
1666.4568 91.51036
1663.2107 94.85119
1659.1937 96.99468
1661.5547 101.639595
1665.5619 98.68781
1669.9655 100.008575
1668.6538 104.89637
1673.1567 107.16589
1675.3204 112.34762
1676.614 110.12336
1679.4492 109.36278
1682.5948 110.43465
1686.6954 109.500755
1685.9531 113.45579
1680.5284 114.38693
1684.1672 117.92101
1688.9218 116.7553
1691.865 119.16926
1688.4419 122.945816
1694.9299 122.516106
1695.9467 117.30156
1695.7217 112.78984
1691.2035 112.8638
1691.2031 108.74935
1692.7832 104.653015
1696.2726 107.81809
1700.1768 110.37422
1701.4867 115.013176
1700.1451 119.86672
1705.0901 120.38684
1705.3036 126.333046
1699.7979 125.102974
1697.7277 129.72563
1693.4158 126.567444
1690.5588 129.28197
1693.4463 133.17177
1695.2524 136.82051
1698.4182 134.27168
1701.4342 137.44534
1698.6321 139.451
1700.8206 143.47151
1704.738 142.45866
1704.8329 147.57076
1708.7568 144.93996
1705.1473 137.92722
1702.9343 131.98404
1710.8689 127.75097
1708.2009 131.96568
1708.8899 136.88257
1711.4783 141.3517
1713.4946 136.76826
1714.696 132.65654
1716.2418 127.865944
1719.481 130.66043
1720.1499 134.81131
1718.4838 138.37563
1716.5922 142.35904
1714.3881 146.6492
1711.0455 149.69876
1708.0455 152.2106
1711.832 156.03142
1715.1233 152.42049
1719.757 152.52023
1719.4543 147.59077
1721.6398 143.3233
1724.0234 138.24539
1725.9807 142.23404
1729.7151 143.02153
1731.8641 145.86491
1731.0759 149.4708
1729.4519 152.23944
1726.1296 153.69897
1726.425 147.31302
1723.4409 150.40332
1723.2241 156.50848
1718.1421 156.58406
1715.8599 159.63531
1721.2024 160.73024
1722.2129 165.81882
1718.9606 164.76776
1715.2083 162.71873
1715.8738 166.22737
1717.7723 169.19882
1720.7494 170.89714
1721.5449 175.4262
1724.9823 180.28217
1731.3458 176.994
1726.7004 176.55289
1725.4635 172.64397
1730.1316 170.86339
1725.6885 168.30852
1725.7458 163.56712
1726.9468 159.79953
1729.8208 156.46973
1732.1294 159.85246
1735.0184 162.76793
1730.5636 165.13812
1734.5569 170.54492
1737.053 165.79172
1739.7937 161.64908
1742.4133 165.11987
1745.8986 161.64813
1746.9413 157.87337
1750.0535 154.93536
1751.4961 158.94547
1755.758 156.18288
1759.6564 154.29385
1764.0985 153.08847
1758.4758 149.62984
1756.1147 143.9737
1750.072 142.6826
1750.7802 138.01265
1755.2405 137.01498
1759.2334 139.72058
1762.4148 145.58864
1766.9128 147.40256
1768.7052 141.32677
1773.0267 137.0069
1769.053 133.28554
1764.2651 139.1873
1763.4037 133.82407
1757.9827 131.85622
1756.8894 126.31057
1751.1494 124.865776
1751.4791 118.66719
1754.8658 121.86358
1758.0714 118.89088
1762.7649 117.849304
1762.7827 123.16542
1763.3108 128.30144
1768.9814 126.49524
1774.4052 130.59445
1778.5509 133.6666
1779.6337 136.87979
1776.8137 140.32109
1773.4417 144.17859
1775.6016 149.65408
1771.3702 149.021
1769.0125 152.66797
1768.533 157.31798
1766.498 161.3469
1762.5419 158.72491
1758.3484 160.94432
1754.4355 162.02588
1750.4635 163.8059
1746.8225 166.37746
1743.6421 169.73721
1739.2255 168.78455
1740.0166 172.79843
1737.4165 176.03787
1744.2163 175.08643
1744.6191 179.00156
1750.4457 179.78928
1750.8903 174.96391
1747.5453 171.70602
1751.3235 168.98987
1755.7428 166.65614
1755.598 172.62502
1756.0082 178.26535
1760.6482 178.83498
1764.471 180.39754
1763.0798 184.46143
1758.6299 184.12921
1761.3055 188.6139
1755.1267 189.29022
1754.3955 183.64153
1750.2345 185.57156
1746.1296 183.62793
1743.2444 187.19588
1741.1461 191.02734
1737.3445 187.008
1740.344 181.97029
1735.6057 180.25629
1733.0955 183.55214
1729.1776 184.03828
1725.6132 184.86313
1729.8646 195.09894
1706.6771 210.20505
1705.2998 214.60632
1698.1875 213.78012
1701.1149 209.84587
1699.9171 204.9438
1695.3988 208.61354
1691.2231 209.71724
1690.4381 203.09714
1694.9456 201.85579
1690.0122 196.68698
1684.5908 193.95528
1678.6295 193.60747
1673.7838 194.41142
1669.9568 190.51965
1670.0342 195.68764
1670.4869 202.06734
1675.0587 203.78163
1676.6239 198.75722
1680.7295 202.64793
1682.4592 198.20781
1686.0205 201.23247
1687.483 206.41748
1683.6443 206.52658
1679.175 206.56133
1678.2748 224.86943
1672.6914 222.677
1666.8708 220.811
1661.6273 220.692
1656.6442 221.15721
1658.6263 217.007
1653.638 216.66603
1651.0752 220.17122
1648.5566 217.22673
1645.3943 214.44334
1642.9639 217.76785
1638.4093 218.73116
1635.2843 215.42273
1634.2526 211.78313
1640.1677 213.74214
1638.1357 209.91512
1638.8024 203.35684
1641.3082 199.1326
1640.6028 194.94981
1647.5193 196.37643
1645.3699 201.226
1649.5801 203.35014
1651.8627 200.2147
1655.7052 198.61757
1657.3036 201.90115
1659.7997 198.21362
1657.5995 194.83284
1662.5922 195.50114
1662.9368 201.36499
1666.6426 198.97739
1666.3779 193.93665
1664.5691 190.8121
1662.436 188.30276
1659.5681 191.35172
1655.3064 191.79692
1652.4475 195.27742
1652.5645 189.33212
1648.721 190.89195
1644.2874 191.59485
1639.2878 189.45798
1635.6721 192.90762
1630.4822 190.22835
1623.8575 191.71849
1617.0295 194.80215
1611.7424 199.39363
1617.9111 201.69145
1622.3851 197.86475
1625.2056 202.1963
1627.8181 196.96089
1631.7268 195.38628
1635.5378 198.79712
1632.0852 202.19298
1630.2719 213.19217
1630.4656 217.1698
1633.8683 219.51816
1629.5848 222.47104
1624.1606 226.27478
1620.6191 224.585
1624.3197 222.0749
1626.7373 219.05893
1626.1177 215.15585
1622.7133 217.31908
1620.1323 219.91716
1616.6052 220.62733
1611.9332 222.52838
1612.987 228.0274
1616.5754 225.0404
1619.5396 229.20103
1616.2303 234.78348
1609.6797 232.64899
1606.5981 236.81508
1602.5496 237.51508
1598.975 229.20135
1603.5657 231.9594
1607.5614 229.38925
1608.5841 225.39403
1603.0298 226.42891
1599.9882 220.78696
1594.3887 226.02846
1591.5974 231.75945
1597.6101 234.80057
1598.2744 240.89542
1606.1893 247.5512
1588.0597 312.48346
1588.2201 317.5952
1568.7355 321.7395
1561.9471 321.70187
1562.6425 317.97714
1555.0488 318.86765
1524.8276 313.7875
1522.078 315.64172
1528.0508 317.85916
1552.7622 323.8713
1557.5393 323.01593
1559.4447 326.94373
1564.2969 327.1676
1568.6187 327.43655
1573.155 326.1147
1588.0127 328.21915
1589.1823 321.27884
1588.165 314.91052
1626.2466 258.41046
1633.9761 257.2173
1635.1218 262.83365
1640.2012 258.72934
1644.9878 258.5844
1649.0079 256.04218
1653.0271 253.21944
1649.0553 250.92696
1649.1155 246.24301
1645.9727 242.26947
1650.612 241.4403
1653.9658 243.49962
1653.6521 248.19757
1656.95 254.52945
1654.7509 257.86145
1649.1373 261.59442
1643.9204 265.71594
1653.1613 265.25735
1654.453 261.4365
1659.6549 256.55746
1659.8645 261.20148
1658.2542 265.67123
1662.354 266.46664
1666.8533 266.3058
1670.5925 269.36563
1671.294 266.25275
1669.6497 262.5158
1672.3263 259.06192
1667.9951 258.39398
1664.791 262.08124
1663.3428 257.75964
1666.808 254.70375
1663.0662 253.17517
1662.0365 249.94746
1657.6631 251.41548
1658.8595 248.24821
1657.2152 245.658
1658.9166 243.03346
1659.0356 239.29832
1655.6256 239.71947
1653.3566 236.84743
1648.8782 237.14418
1644.4857 236.39093
1641.5612 239.36876
1641.6831 244.44775
1644.4603 248.30637
1643.4974 253.26007
1639.5614 251.1138
1635.2369 251.01242
1630.3916 250.70805
1625.673 248.4353
1622.0098 244.7031
1618.8647 249.32135
1615.8513 245.64992
1611.7516 244.7534
1618.0352 240.9077
1621.787 236.04451
1623.8916 239.11342
1628.626 235.46269
1634.7812 233.36127
1641.4761 231.47157
1646.9421 231.67514
1652.4802 232.40587
1657.5254 234.42856
1661.281 235.85999
1663.9434 238.37694
1662.5181 241.53781
1662.3044 245.53511
1667.5143 240.11142
1670.8439 236.73943
1666.3574 235.30165
1663.3322 231.0873
1658.2134 229.9706
1663.8647 225.67268
1669.0356 225.89102
1669.2261 230.75424
1674.4756 227.6042
1674.3818 232.4605
1678.4451 235.65013
1680.163 230.71432
1682.4152 226.1479
1686.4105 228.27548
1686.0416 233.47217
1683.4806 236.3556
1681.4542 240.61772
1675.154 239.11966
1671.6678 242.85512
1666.6514 243.97215
1665.7472 247.86327
1670.6478 252.76157
1673.2433 255.21861
1676.8015 252.48033
1671.4415 247.96925
1675.5103 246.81728
1679.1993 243.84526
1680.6897 248.68135
1686.0684 247.9893
1691.155 251.92975
1688.1864 256.07962
1682.8003 253.65364
1677.9268 257.6196
1682.7797 259.17554
1679.7562 263.47623
1676.095 261.3974
1673.9553 264.13266
1676.5098 266.9488
1679.6462 268.41718
1682.6117 266.6155
1685.0266 264.09143
1688.6445 261.09888
1691.8171 265.1027
1696.4495 265.13916
1695.0588 258.34747
1700.7982 260.4145
1703.1183 256.16803
1701.0942 252.49597
1696.2554 252.47992
1697.9388 247.46599
1696.1868 242.66661
1691.5846 245.85246
1686.6937 241.38434
1691.2518 239.14944
1690.3335 232.19516
1694.1182 233.46953
1695.9332 237.21368
1699.6874 239.2139
1702.1086 243.372
1704.4402 248.47557
1717.9685 231.4013
1712.71 225.76938
1705.3081 219.89279
1711.929 218.6726
1732.4479 207.10965
1731.0619 200.63963
1735.168 200.39882
1735.8032 204.08115
1735.279 211.16089
1735.2268 216.19023
1734.5583 221.20848
1737.0919 225.4114
1735.9517 229.315
1740.8844 232.14087
1744.8811 233.08957
1738.3745 234.8337
1739.3418 240.13693
1744.0878 238.52773
1750.3704 241.34589
1746.3599 244.12518
1742.1754 243.62073
1742.217 248.59164
1743.6245 253.62167
1743.4685 258.77896
1742.0728 264.48798
1745.2794 263.5709
1747.2811 260.25964
1749.1401 263.06473
1752.5093 263.67212
1749.8799 266.83136
1745.9753 267.74295
1742.5377 270.3853
1741.3005 275.69516
1742.4336 281.50928
1740.3844 286.48502
1742.009 291.778
1741.2614 297.0792
1740.9026 302.54993
1740.4171 309.04575
1745.0717 307.2853
1746.7319 302.16385
1747.3872 296.44278
1750.3248 291.4551
1746.679 286.8325
1747.9175 280.33704
1746.8137 274.8366
1748.6575 270.9549
1752.404 275.54388
1754.1035 279.7695
1752.9762 285.558
1756.9812 290.6467
1760.9059 287.07462
1758.4603 282.58313
1760.707 277.0191
1757.3418 274.3644
1765.013 273.40778
1770.1154 272.0309
1771.3304 276.32886
1767.3524 277.64316
1763.5526 280.6526
1765.9595 284.24414
1766.2185 289.15134
1770.98 291.24872
1768.6641 293.94516
1762.9126 292.61063
1759.3799 296.30804
1754.6826 295.4644
1752.199 299.3417
1753.6083 303.75284
1750.0382 307.36694
1748.9532 313.10635
1743.7324 312.59387
1740.5199 315.8824
1746.313 317.10068
1748.6572 321.0105
1751.8385 318.8382
1751.6072 323.63394
1750.1086 327.4872
1752.863 329.41238
1756.0973 331.47482
1752.8485 333.23083
1748.2206 331.99762
1746.3534 329.00873
1741.6062 332.51474
1742.7227 328.48627
1746.4568 325.2223
1744.6959 322.2865
1741.6567 319.84857
1739.9285 323.93695
1737.8672 328.5858
1736.5625 333.74097
1740.53 336.67978
1743.3813 340.82318
1743.4481 346.3221
1747.043 344.24875
1748.5145 349.25208
1748.2343 353.896
1753.0981 353.82883
1753.5103 348.97552
1751.6177 344.3182
1746.8787 339.42825
1745.4595 335.33267
1750.3326 335.72223
1750.4025 340.0513
1753.7612 338.6289
1756.1912 341.19946
1756.2456 344.71915
1757.7063 348.23126
1761.3904 349.1305
1760.828 344.49774
1760.6794 340.57968
1758.978 337.1994
1755.9841 335.3905
1759.6061 332.36398
1763.5083 332.6243
1757.4863 328.3906
1758.6418 325.18246
1754.8757 324.73682
1757.1385 320.90796
1758.8545 317.677
1754.3066 316.4661
1753.2322 311.0494
1756.7954 312.98816
1760.0437 309.9438
1757.0675 307.00357
1758.7747 301.49658
1763.3121 298.89722
1766.1997 296.2096
1768.7001 299.41052
1765.6814 302.8692
1762.3479 305.43768
1764.3992 309.68497
1767.6191 308.4818
1769.5996 304.5806
1771.9434 301.03003
1774.3118 305.41208
1771.6561 308.5538
1775.305 310.0648
1777.3735 313.89066
1773.5809 315.54498
1770.6647 312.76166
1765.9015 313.9317
1762.748 313.11993
1760.5947 314.97702
1763.294 319.52292
1766.8951 322.77292
1767.6947 316.66602
1770.0343 319.11386
1773.6521 320.10092
1772.3323 324.06296
1769.3774 327.94244
1772.7155 329.50644
1777.1174 326.52936
1779.3707 330.49048
1784.2502 328.83002
1783.5789 334.05832
1784.2734 338.82938
1779.5374 338.76382
1777.2229 335.16928
1774.5046 332.394
1771.3665 335.86554
1774.2904 339.5687
1771.7279 343.68127
1770.9559 348.23825
1767.9233 351.947
1766.6082 356.07858
1758.4993 352.4607
1757.2183 356.18127
1753.5074 358.7291
1749.2892 358.77454
1745.0499 358.62015
1743.8442 353.88568
1741.6595 349.61404
1739.4501 353.1236
1735.793 350.7211
1736.0347 355.0076
1732.3583 354.90753
1729.9678 357.9613
1717.0254 348.92694
1711.8138 357.2892
1724.01 374.1004
1722.9424 379.63235
1721.7249 384.08
1727.102 377.14786
1728.1223 371.7625
1728.0652 367.8007
1731.7112 365.44067
1728.1211 363.07684
1731.654 360.51065
1734.7523 361.9583
1735.8206 358.74878
1739.8964 357.5574
1741.999 360.88968
1744.4564 364.7856
1745.2776 370.66867
1747.1572 375.91028
1752.0549 376.9542
1753.9502 380.65045
1758.3752 383.2981
1764.5005 384.9032
1769.1141 382.66104
1764.7217 379.64078
1758.9266 378.81415
1762.3208 375.3487
1767.3262 374.5271
1763.8649 370.82104
1759.9718 371.04483
1757.943 374.14664
1754.7799 373.25906
1750.6674 371.78885
1749.2094 368.02542
1753.8938 367.63718
1757.2026 367.97644
1760.8629 367.20624
1759.922 363.5463
1763.5371 360.36725
1767.1742 360.5982
1768.1846 364.72546
1764.2272 365.47803
1767.6511 369.38364
1771.5824 367.7742
1770.9998 361.62283
1773.7468 363.6541
1777.3862 363.9857
1781.2998 363.44177
1782.725 367.45703
1781.9224 374.80505
1785.5125 371.6667
1788.8417 367.42715
1786.8645 363.43533
1784.8912 359.17615
1781.1166 356.37518
1779.4302 359.59845
1775.3083 359.2017
1771.237 357.3033
1772.3789 352.81088
1776.4451 354.56897
1776.6649 349.1331
1777.0619 344.02783
1782.3046 348.55698
1781.7494 343.88504
1786.9176 342.62146
1787.3401 347.58725
1781.3154 352.7121
1786.0203 353.3292
1789.9485 356.57727
1790.9458 361.00217
1794.0737 364.67087
1795.4532 360.033
1795.7025 356.0299
1794.7229 352.391
1790.324 351.69125
1792.7913 348.1811
1791.7354 343.9677
1793.7025 339.93445
1789.7222 337.20605
1790.1605 332.27713
1789.1498 326.90018
1787.0397 322.74445
1782.0464 323.94147
1777.7228 322.27753
1776.8804 318.22943
1780.563 318.34778
1784.5386 318.88403
1788.0691 316.59793
1792.566 315.83017
1795.4961 312.7465
1798.7175 309.79468
1802.7347 307.75946
1800.8052 304.32758
1802.603 301.2418
1804.818 298.2388
1807.992 299.5043
1805.9238 303.65524
1808.008 307.80762
1812.1798 311.7286
1808.177 313.54434
1804.2063 312.0354
1800.544 314.5762
1797.6929 318.97043
1792.6387 321.48016
1794.4321 327.124
1797.2206 331.95514
1797.3976 337.398
1802.296 340.63608
1802.6232 335.298
1807.2418 337.65015
1809.4757 333.70218
1811.5712 329.39386
1813.2955 324.9722
1815.9751 321.51483
1806.991 324.69574
1804.074 329.96304
1799.9628 324.8274
1803.4325 319.19794
1807.9376 318.72897
1811.793 319.1315
1814.9761 315.8833
1819.2866 317.0271
1820.2947 321.41177
1824.1239 323.26724
1824.0237 317.17627
1822.0123 312.5654
1817.2047 311.09326
1821.0659 306.9554
1822.4155 301.0161
1816.595 302.74313
1813.8729 306.92957
1810.7881 303.19525
1812.1844 298.92145
1814.8279 295.9846
1818.7009 298.34534
1820.2213 294.37445
1820.9619 290.0087
1817.252 287.00543
1820.0128 284.248
1819.2551 280.3719
1818.499 275.99982
1815.059 278.6034
1814.7593 283.00104
1815.9525 291.38358
1812.8931 287.9935
1810.6267 284.79126
1807.0884 283.47433
1810.1538 279.93793
1812.2676 275.65182
1815.3284 272.60077
1818.8639 271.5303
1814.0554 268.64774
1817.5256 266.20728
1816.8812 260.8158
1813.853 263.84415
1810.0735 265.85028
1806.2114 267.7409
1810.0767 271.29623
1807.7375 274.8565
1805.0586 277.41873
1803.6776 280.2149
1803.1816 283.6297
1803.0845 287.1965
1808.0001 288.81686
1811.3235 292.32007
1808.9489 295.2002
1805.5675 294.06155
1804.4072 290.60013
1800.6002 291.53494
1801.7836 294.8244
1800.7708 297.87152
1797.7712 300.55093
1794.0569 297.74973
1790.1687 296.94067
1787.2295 300.38748
1782.624 301.3198
1784.1179 306.40726
1788.5953 305.01413
1792.8684 302.5098
1796.5771 305.68298
1792.5251 308.45215
1788.8333 311.07764
1784.7039 311.46658
1782.1189 314.46298
1780.0933 310.26517
1778.814 306.42838
1778.7683 297.73026
1775.2495 299.18307
1772.5299 296.11197
1776.0477 293.47348
1774.7484 289.42072
1770.4218 286.615
1770.3658 281.9099
1774.8629 285.25922
1779.2316 286.2261
1780.1451 290.22986
1780.8335 294.07092
1784.1449 296.36792
1787.7208 293.43027
1785.6914 290.13022
1784.0387 286.22522
1782.6412 281.89996
1781.368 278.4998
1778.1442 281.93307
1774.1888 280.61578
1774.727 275.92188
1777.432 277.2836
1779.8716 274.88904
1775.0792 271.05075
1772.5227 265.54248
1768.8688 267.823
1767.9406 262.5428
1772.0985 260.2562
1774.4639 256.84283
1777.6066 260.5529
1776.6982 264.90628
1782.0953 264.2753
1782.4803 259.12195
1786.8372 263.57782
1790.4658 260.53265
1791.4736 266.0411
1796.4121 266.47125
1798.1428 270.97977
1793.2695 270.92487
1788.5043 269.94025
1784.533 269.04584
1779.1902 268.47537
1781.3933 272.1016
1785.414 275.79358
1789.884 274.83246
1795.0073 275.97595
1794.9547 281.81
1790.8237 279.74127
1786.8207 281.719
1789.8069 286.05722
1792.2183 291.57397
1796.8958 294.77872
1797.356 290.02866
1794.4177 286.7908
1798.9651 285.4545
1799.3655 280.63596
1799.797 275.99973
1803.3884 272.23227
1801.565 267.13873
1806.2964 261.838
1807.1647 257.21042
1810.8823 260.46478
1814.2747 257.58878
1816.8674 254.90855
1816.3431 250.1246
1812.1206 250.04916
1811.1829 254.31258
1806.3794 252.24329
1807.3232 248.57898
1814.2643 245.89513
1813.5686 241.3305
1812.6477 236.87431
1808.0413 239.89241
1809.4849 244.47597
1803.7891 244.84477
1800.187 248.17654
1794.9565 246.32011
1795.7145 251.52562
1798.8796 254.16458
1802.9937 254.02272
1800.6267 258.33023
1802.5552 262.45468
1798.496 262.4051
1794.4937 262.28485
1795.2266 257.8477
1791.6194 255.03604
1790.8472 250.03973
1786.4979 249.86874
1787.0383 256.7739
1783.138 253.5444
1778.541 255.25655
1778.2411 250.7243
1781.706 247.98299
1781.2231 243.70271
1784.0275 240.2354
1786.7496 244.25655
1791.2036 243.57274
1797.1691 241.54755
1802.1589 239.85341
1797.5763 236.00542
1793.9655 232.78896
1789.6139 233.059
1791.4417 238.35565
1786.157 237.17952
1785.493 233.41579
1781.815 231.23245
1781.5299 235.08974
1777.6986 234.35481
1778.4692 239.11061
1776.2822 243.66829
1774.6326 247.85468
1773.5513 252.78159
1770.084 252.09683
1766.4048 253.26707
1768.6003 257.07242
1763.9147 258.00775
1763.0754 261.47293
1763.9875 265.0642
1764.8678 268.7885
1760.9451 271.29398
1756.395 270.24377
1752.5732 271.2675
1753.4882 267.28943
1756.7308 266.24252
1760.3328 267.48264
1759.4714 263.65048
1758.6646 259.74368
1755.4219 261.98413
1751.801 259.24536
1755.4894 256.61536
1752.0955 255.02394
1747.47 256.7389
1748.304 253.07744
1746.8486 249.26602
1750.2922 246.15459
1752.272 251.17708
1757.4072 251.86357
1759.4066 255.91182
1762.4839 254.11668
1762.6377 250.79333
1765.4744 248.53325
1769.2404 248.39798
1770.3533 244.55263
1772.3611 240.11797
1773.7021 235.5671
1768.8884 234.95969
1769.1362 230.40518
1773.9833 230.81473
1778.1301 229.62784
1782.0073 227.65819
1785.4331 229.66113
1788.6832 228.46524
1792.3394 227.55937
1796.2982 227.59064
1799.0596 230.44966
1802.1119 233.23152
1805.0167 235.97774
1808.6393 234.50444
1809.367 230.92784
1812.9053 232.13388
1811.7612 228.02826
1810.6191 224.89548
1809.3383 221.0495
1809.2369 216.71596
1805.0985 219.59283
1805.9832 224.72295
1805.6235 229.48366
1801.6912 226.93283
1801.9979 222.82213
1798.1703 223.55222
1794.3643 223.02025
1796.203 219.40285
1797.3573 215.82791
1796.2993 212.53706
1796.0729 209.34067
1799.5969 207.12416
1803.5371 208.94318
1801.1776 212.333
1800.4692 218.92816
1803.7759 215.46037
1808.0295 211.51445
1808.1635 206.42236
1803.1438 204.30307
1807.5037 200.76773
1803.8713 199.96552
1802.3285 196.46152
1804.9514 193.28038
1801.4972 189.3608
1803.6615 185.96893
1802.702 181.06267
1800.3278 179.52423
1798.7006 177.18367
1799.7135 172.91998
1796.9874 168.3092
1795.9797 162.82695
1790.3298 162.88136
1791.7726 166.93753
1792.6697 171.14389
1788.4901 171.2062
1784.4647 173.43893
1785.9163 177.72299
1781.9086 179.47218
1787.5659 182.48877
1792.3809 185.58499
1791.728 181.07585
1790.327 176.30019
1795.3999 172.95836
1794.9056 176.2287
1795.2126 180.17531
1798.7097 182.61583
1797.6815 185.90356
1795.5884 189.81784
1799.1815 193.05116
1797.2533 197.29106
1799.7921 200.4148
1797.7977 202.87679
1795.7142 205.11308
1792.6127 206.00351
1789.998 201.85727
1785.9478 201.77904
1785.1498 205.69897
1788.6147 207.02592
1790.5603 210.39091
1787.378 214.04042
1792.226 214.07947
1791.731 217.96848
1790.9591 222.07512
1788.4218 224.2051
1785.2552 225.22203
1782.7533 223.0278
1779.9426 224.93466
1777.5698 221.23232
1777.2936 224.84634
1775.1531 226.29556
1771.8494 226.77066
1767.8102 226.03201
1768.5398 222.30252
1772.9624 222.77567
1770.3202 219.73557
1767.9722 216.68794
1768.2091 212.42319
1762.6777 214.18524
1762.3855 218.28369
1755.9543 216.17429
1749.6383 217.55652
1753.5251 221.73602
1758.7709 221.74431
1765.0881 221.3147
1762.9556 224.7324
1764.3013 229.22028
1763.694 233.70753
1762.1034 238.67195
1766.9661 239.72116
1764.8488 244.28015
1760.1903 243.08034
1760.7218 247.78603
1757.0813 247.0127
1753.616 247.93262
1754.6725 243.32114
1756.6055 239.62657
1753.6019 236.46277
1758.7513 235.22462
1757.418 231.41742
1759.6543 227.79036
1754.5668 226.70262
1752.9642 231.60957
1748.8137 237.62848
1749.0903 233.44302
1748.6191 228.62782
1748.6649 223.94196
1744.6057 221.31323
1742.7212 227.0771
1739.5198 221.02481
1741.8662 216.78302
1746.1072 213.63466
1750.9913 211.11124
1740.262 212.46942
1738.7463 206.84001
1742.9125 208.77463
1747.269 208.21866
1747.8354 203.60141
1752.4847 204.30066
1757.9026 205.24062
1755.1715 210.16592
1759.8165 210.51678
1764.5002 208.6359
1768.369 203.49934
1767.219 198.52678
1763.2819 203.95825
1761.595 199.95525
1756.413 200.31436
1751.7317 198.75407
1747.3348 198.28406
1743.3175 200.0609
1742.7147 203.99564
1739.1287 199.38828
1734.6686 196.45033
1727.7592 190.12251
1731.9893 188.63405
1734.1067 191.95193
1738.1036 193.60097
1742.8542 195.5966
1746.1753 192.05928
1749.9309 189.59976
1750.701 193.95984
1754.9119 194.94453
1758.7971 196.01985
1759.2567 191.8365
1763.126 195.53758
1765.7838 192.60316
1766.501 187.86685
1768.0128 183.27069
1771.942 186.24754
1776.6873 185.36353
1779.4369 188.6192
1783.0537 189.79707
1781.8525 193.80582
1779.2281 196.89859
1776.0034 195.43639
1775.5844 190.926
1770.3943 191.01869
1771.263 195.2191
1772.4731 199.64914
1777.0779 201.1735
1773.407 204.42659
1769.5403 208.02359
1773.7327 209.74078
1773.4174 214.0568
1772.9961 218.34702
1776.07 217.85335
1778.9272 216.1402
1782.031 219.58926
1786.8804 219.42006
1783.1931 215.20174
1783.7554 210.04388
1778.7891 211.74315
1777.3387 207.20462
1780.6638 205.79327
1781.4817 202.24178
1782.3024 198.77197
1785.9707 197.38171
1789.8021 196.08041
1793.6458 199.98737
1793.8274 194.30751
1790.2913 189.82135
1786.649 192.08739
1785.3257 186.23863
1781.1833 183.26624
1775.5083 181.30783
1770.5337 179.81546
1774.9027 177.01497
1779.4895 176.09465
1774.9578 172.16968
1779.4252 171.07489
1783.1841 168.79086
1781.1924 164.155
1776.7214 166.20094
1772.3561 167.85744
1770.6459 174.86772
1766.0249 176.0675
1760.8463 174.19955
1769.0121 170.79337
1764.5198 170.63707
1759.8419 169.33304
1761.5508 164.67429
1766.8445 166.0298
1771.7579 162.57922
1773.2053 156.33556
1776.6772 160.48026
1781.4205 158.92664
1786.5023 165.89589
1785.9634 160.56958
1787.1458 155.53278
1792.0869 159.19221
1792.9172 155.63765
1790.5981 151.64552
1789.2434 146.68112
1786.4623 143.12617
1785.4485 149.63878
1782.2566 154.13783
1777.4397 154.47406
1780.6243 149.10916
1779.8823 144.56836
1782.4811 140.38309
1785.6982 137.74908
1784.1841 133.19225
1780.9489 130.45744
1779.5552 126.68184
1774.8428 125.27875
1777.2429 120.77513
1772.3429 120.84602
1767.8956 119.72726
1772.9976 115.322075
1769.5309 110.16817
1766.868 114.393
1762.4574 112.36552
1756.7887 113.88365
1752.4547 114.12612
1747.7896 114.93513
1751.7455 109.49183
1758.4259 109.841194
1756.485 105.65705
1752.0961 104.59086
1752.6185 100.26448
1758.5818 99.916504
1761.9408 106.24365
1766.6082 105.93817
1763.1909 100.31376
1758.1704 93.13704
1754.9574 96.08958
1750.4008 94.173225
1747.0476 98.5021
1745.313 92.634705
1741.3514 95.33044
1740.2083 88.565025
1735.4712 88.84974
1735.763 93.90425
1737.0739 97.71041
1737.8966 101.10632
1741.912 100.36819
1744.6299 102.887474
1747.9915 104.528915
1746.7312 109.296455
1742.8228 107.29132
1740.0803 104.51575
1736.2286 104.56984
1732.6709 103.9684
1733.3508 107.503685
1733.2108 113.73618
1734.4872 117.1866
1737.5278 120.604126
1738.4526 115.032845
1736.0403 110.74948
1738.3254 107.96458
1740.4517 111.24707
1743.9056 112.773926
1742.8461 117.2727
1746.8893 121.33374
1742.1335 122.06335
1743.3176 126.93491
1748.0251 127.960365
1751.8667 131.78172
1746.1892 137.03952
1745.4705 132.35718
1740.1632 131.11801
1740.7461 135.82155
1735.699 137.05823
1738.0703 142.39246
1741.1025 139.87624
1741.8368 144.15622
1745.1545 141.92226
1746.0042 146.1404
1749.3463 147.84511
1753.3247 147.4937
1752.8096 151.94357
1747.0618 151.39496
1744.7113 154.58762
1742.0142 158.61967
1736.2395 157.5701
1733.8912 153.60954
1737.8604 152.95792
1740.4154 155.44383
1741.5747 151.56274
1744.0934 149.42465
1741.8975 147.5151
1739.0105 146.30081
1738.2258 149.4014
1734.7611 149.34843
1735.7073 145.67143
1734.1918 141.46814
1730.4656 138.17305
1727.6101 134.71185
1724.0114 132.42546
1727.5598 128.57545
1731.4031 132.1247
1735.7218 131.67162
1737.9524 125.95388
1732.7496 126.22206
1727.2479 123.242294
1732.0398 121.07451
1729.122 117.27141
1728.0712 113.051765
1731.471 110.50217
1728.6333 107.63238
1725.1172 109.8987
1721.6644 114.28324
1724.8796 117.54606
1722.4131 120.94164
1722.7762 127.16264
1719.1816 123.92856
1717.3842 118.67057
1715.041 114.84913
1714.0059 123.4147
1710.4968 120.57659
1708.5698 115.82036
1706.4868 112.32201
1704.48 109.094536
1702.667 105.37571
1703.4669 99.34987
1707.2263 103.64908
1709.513 99.97086
1707.3785 96.0229
1704.5592 93.12371
1700.8268 90.39916
1699.0338 85.70995
1693.88 84.91672
1690.7827 88.715744
1695.4479 90.282196
1693.1942 95.068825
1698.9788 94.835754
1698.0105 99.18126
1698.8109 103.63456
1693.7341 100.543755
1688.1707 105.120834
1683.6072 106.07369
1685.2192 101.4807
1689.2251 100.07273
1688.498 95.530785
1687.2286 91.6055
1685.7787 87.27973
1678.4075 86.54713
1682.0164 85.73511
1684.8225 82.246925
1689.0542 83.7028
1691.1847 79.95713
1696.1035 80.9064
1700.906 80.51785
1704.6798 82.90464
1704.5876 87.45946
1709.3882 87.59139
1710.1508 91.06961
1711.2885 94.576035
1713.6698 97.19263
1717.3486 99.69102
1721.0078 101.47524
1713.6813 101.85439
1713.0837 105.81724
1709.0359 107.8199
1712.1571 111.19372
1716.742 109.60179
1720.8285 109.68124
1718.2894 104.9684
1723.8154 105.121346
1724.9185 99.68963
1728.4657 103.292366
1733.127 99.73754
1729.2744 98.1828
1721.362 96.43504
1725.7203 94.30726
1730.7196 93.22082
1730.4758 88.31566
1728.0624 83.977554
1725.7046 88.93167
1720.8816 86.39202
1720.9967 91.21059
1717.5212 94.9708
1715.2457 91.441795
1715.5532 86.799736
1710.3867 83.32666
1715.0929 81.497604
1719.5383 81.43213
1723.9988 82.79618
1725.8479 78.692184
1721.273 76.886894
1721.7614 72.14072
1717.7032 70.37773
1716.5837 75.75752
1713.079 71.317215
1708.7766 73.20497
1705.4756 70.207504
1701.149 71.15696
1696.9342 71.69871
1699.3168 66.27876
1694.8812 64.10433
1698.2327 61.121765
1703.4854 60.65894
1704.461 65.46105
1709.9332 66.71635
1715.311 65.92323
1714.3236 61.012844
1709.0571 61.290695
1707.0756 55.978634
1711.801 55.622143
1719.7334 62.30867
1721.3977 66.78114
1725.72 69.52674
1725.9575 73.96102
1729.6223 75.88399
1730.901 72.04027
1733.8043 76.31416
1731.103 80.050476
1733.1605 84.21389
1737.1039 82.20446
1741.8799 82.71769
1746.243 82.93559
1745.7092 87.93247
1752.6309 89.0648
1749.9913 84.623314
1745.1389 78.229706
1740.5569 78.040924
1737.1582 76.30337
1741.0859 73.8481
1737.1008 71.58699
1734.2278 69.47876
1732.6987 65.97188
1729.6445 68.038826
1729.7059 62.990932
1726.1895 65.13252
1725.0552 60.988617
1721.9149 57.608868
1717.3591 56.623512
1715.3887 52.018238
1709.7117 49.666344
1705.5369 45.90481
1703.137 49.142384
1703.9597 52.83421
1700.9594 56.42324
1696.6765 56.628647
1693.083 58.47259
1691.0399 61.768238
1687.2673 63.563442
1683.4365 63.628796
1681.6497 67.65784
1682.4036 71.35117
1684.5394 74.44004
1686.9694 78.422
1689.26 75.27297
1687.9843 71.236725
1686.1578 67.89277
1690.4025 66.43318
1693.9342 68.48126
1692.3595 72.355736
1693.9807 76.47946
1698.6582 76.248215
1703.7062 75.72691
1707.3236 78.82513
1711.9204 77.42454
" />
</g></g></svg>
