<?xml version="1.0" encoding="UTF-8" standalone="no"?>
<!-- Created for Inkscape (http://www.inkscape.org/) -->

<svg
   xmlns:dc="http://purl.org/dc/elements/1.1/"
   xmlns:cc="http://creativecommons.org/ns#"
   xmlns:rdf="http://www.w3.org/1999/02/22-rdf-syntax-ns#"
   xmlns:svg="http://www.w3.org/2000/svg"
   xmlns="http://www.w3.org/2000/svg"
   xmlns:sodipodi="http://sodipodi.sourceforge.net/DTD/sodipodi-0.dtd"
   xmlns:inkscape="http://www.inkscape.org/namespaces/inkscape"
   width="3200"
   height="800"
   id="svg2985"
   version="1.1"
   inkscape:version="0.48.1 r9760">
  <defs
     id="defs2987" />
  <sodipodi:namedview
     id="base"
     pagecolor="#ffffff"
     bordercolor="#666666"
     borderopacity="1.0"
     inkscape:pageopacity="0.0"
     inkscape:pageshadow="2"
     inkscape:zoom="0.35"
     inkscape:cx="1600"
     inkscape:cy="400"
     inkscape:document-units="px"
     inkscape:current-layer="layer1"
     showgrid="false"  />
  <metadata
     id="metadata2990">
    <rdf:RDF>
      <cc:Work
         rdf:about="">
        <dc:format>image/svg+xml</dc:format>
        <dc:type
           rdf:resource="http://purl.org/dc/dcmitype/StillImage" />
        <dc:title />
      </cc:Work>
    </rdf:RDF>
  </metadata>
  <g
     inkscape:label="Layer 1"
     inkscape:groupmode="layer"
     id="layer1"> 
     <g>
<path style="fill:none;stroke:black;stroke-width:2px;stroke-linejoin:round;stroke-linecap:round;" d="M 
1542.702 696.8526
1550.3331 695.07526
1560.0487 696.82715
1553.7102 701.82874
1544.704 702.9819
1548.2026 708.9307
1556.4476 709.79913
1561.3859 704.6497
1568.0498 703.91693
1573.3981 699.2673
1565.9906 694.5394
1571.505 692.9495
1571.4292 685.5275
1563.4016 686.30005
1555.6572 689.6673
1554.6158 681.9588
1561.081 678.51764
1569.128 677.62756
1577.1351 672.31976
1577.6058 679.55695
1580.8884 686.44525
1585.8293 681.0471
1586.6168 672.59546
1583.8145 665.77374
1590.3569 664.24884
1583.5919 657.7622
1576.8496 664.4915
1569.6367 659.8891
1576.2288 656.0516
1581.3802 649.5839
1571.7642 649.8538
1564.4993 646.2048
1562.7483 653.5785
1562.2449 661.8593
1569.0322 668.72205
1561.968 670.7602
1554.7988 672.05133
1555.3822 664.83154
1554.8738 657.1135
1550.7218 652.5636
1555.6333 647.16486
1559.0697 641.1631
1557.8397 634.9853
1565.3937 637.5294
1570.7722 640.78546
1576.8754 641.0566
1583.4685 642.80664
1584.9956 636.6396
1580.1521 631.97656
1572.8829 631.171
1566.1636 631.21466
1576.7527 624.4244
1585.9878 626.28436
1590.1255 631.4114
1592.1444 639.06055
1597.1235 633.6588
1602.6616 638.13513
1608.9985 642.2908
1611.9011 635.62964
1610.8867 626.53937
1604.2378 629.9948
1596.2507 625.5844
1603.0936 620.83234
1610.7582 617.29034
1620.2928 615.2542
1617.8306 624.2309
1625.8379 621.84607
1630.2983 612.9946
1637.5594 608.09937
1644.6841 610.2317
1640.7341 618.8292
1635.4016 622.9943
1648.5521 618.7044
1648.7275 626.71423
1640.647 632.0674
1630.0355 633.3934
1629.9719 627.70123
1620.3391 632.2053
1626.8984 640.2517
1619.927 640.4843
1615.7554 645.73553
1612.966 652.30566
1615.8135 659.4262
1623.8909 657.0461
1623.1125 649.31635
1632.0874 648.3815
1635.025 639.5153
1641.0586 644.45044
1649.1372 646.42053
1649.1493 637.2331
1655.7927 631.74207
1660.8423 637.6046
1659.2927 644.9281
1668.8881 641.70465
1672.9275 649.0149
1673.3328 658.0129
1670.6667 666.0689
1675.2102 671.86
1681.5804 673.918
1688.6724 672.8295
1696.6918 674.152
1705.717 675.2338
1702.9321 681.945
1707.162 688.1402
1700.8727 690.8284
1707.5735 695.7867
1713.1052 690.8226
1717.0282 697.28595
1713.2145 705.4498
1717.7567 713.9429
1721.7482 703.3603
1726.8821 708.8965
1734.6445 708.42993
1725.9097 717.33435
1711.7255 722.3655
1720.2561 725.03815
1726.6144 731.3314
1734.8634 732.3959
1731.1887 724.34534
1734.9583 716.9787
1741.5103 713.26953
1741.5381 704.4073
1749.5322 705.68005
1747.7908 713.361
1740.1973 724.31805
1747.211 727.05225
1748.2239 720.50104
1753.9542 715.1452
1758.4403 719.0824
1763.3799 717.75757
1767.8419 721.419
1773.4841 725.09424
1771.7515 716.4424
1776.1611 711.4744
1782.0493 713.13324
1778.7561 720.32874
1786.0645 722.9369
1786.2164 731.8755
1778.5801 730.5467
1767.8745 729.27374
1761.9636 726.0008
1755.1544 724.4473
1754.3022 730.89655
1761.0134 733.907
1764.2042 740.3373
1770.8457 735.85785
1778.1511 740.3261
1785.3765 746.98645
1789.7974 739.3726
1795.5632 747.25653
1803.647 748.6375
1811.4001 748.4339
1808.6285 756.2388
1815.206 755.55194
1821.852 755.88965
1830.0092 755.8217
1832.9419 748.173
1833.3182 740.76044
1841.2665 741.1895
1848.1558 739.2492
1854.4148 742.1609
1858.0847 737.4204
1861.2607 733.0802
1865.67 729.6776
1864.7513 742.266
1863.9563 757.0363
1861.8099 772.0481
1869.2559 783.2308
1850.8386 783.2308
1848.9891 772.49536
1845.3533 760.00586
1855.1079 761.83246
1858.9752 749.1945
1850.4581 750.13385
1842.84 748.98413
1837.8628 754.4773
1833.636 762.5882
1839.1461 768.08417
1836.0032 775.8898
1836.0929 783.2308
1824.3835 783.2308
1826.4456 771.27454
1825.3567 762.48004
1817.6799 763.19385
1813.8033 769.2559
1818.2625 775.91797
1813.0869 783.2308
1807.7373 777.1812
1802.6727 771.19604
1806.7268 763.7786
1799.6476 758.09845
1791.1514 756.3001
1781.7134 758.0793
1777.2164 750.7187
1770.0758 746.85065
1761.9415 747.32166
1756.3062 743.93445
1757.3923 752.93024
1764.9231 754.1691
1762.7544 761.4672
1771.8242 758.7476
1775.8313 767.427
1784.753 774.80524
1786.3889 765.4476
1794.7288 769.81915
1801.0598 783.2308
1790.1948 783.2308
1778.4619 783.2308
1773.7388 776.1933
1766.4186 783.2308
1763.7019 776.03674
1765.6589 768.1894
1755.2736 772.49207
1754.4752 783.2308
1744.9617 774.93225
1742.4702 783.2308
1730.502 783.2308
1733.5977 775.2472
1724.0325 770.9959
1720.2664 777.0844
1719.1587 783.2308
1708.8281 783.2308
1708.5731 773.17255
1701.8036 777.2739
1697.9003 768.8354
1688.0979 763.3758
1680.4974 756.0264
1672.1647 755.0331
1665.707 752.686
1656.3506 753.84827
1659.7275 761.2671
1666.668 762.9982
1674.7008 763.3509
1678.7793 768.7486
1682.6112 773.8686
1690.2589 773.0055
1692.7739 779.93713
1697.7252 783.2308
1685.3506 783.2308
1674.5304 783.2308
1662.228 783.2308
1669.6873 777.82166
1669.4602 770.913
1659.0818 772.823
1651.851 765.8143
1645.2206 772.57825
1650.9624 783.2308
1639.813 783.2308
1631.2441 783.995
1623.1178 783.2308
1613.4231 783.2308
1609.1222 778.2423
1622.5951 772.1959
1634.8163 770.06134
1627.6571 762.55646
1633.1499 754.8662
1641.5205 760.7977
1648.8538 754.972
1641.836 749.60754
1636.3088 744.0805
1628.9316 744.61035
1623.9016 751.25574
1615.4368 750.8393
1611.9944 744.043
1604.6736 742.3702
1598.7192 741.1862
1605.3518 750.214
1608.7163 756.9671
1601.5859 760.1653
1604.2141 767.12036
1612.4089 764.8409
1618.7261 760.11975
1612.31 772.4689
1598.7174 771.29486
1591.9863 775.046
1601.6943 776.4434
1603.3568 783.2308
1594.8441 783.2308
1586.6357 783.2308
1584.1279 775.758
1583.0571 767.7689
1576.2668 772.6731
1577.5089 783.2308
1567.3248 783.2308
1569.2474 776.3316
1566.1416 768.18475
1558.4867 774.84686
1556.8596 783.2308
1547.2598 774.37317
1546.6967 783.2308
1537.1788 783.2308
1537.361 773.59314
1530.9827 764.96375
1539.946 764.37714
1547.8933 766.23517
1555.7616 766.419
1560.673 760.31024
1567.8834 757.3443
1573.9219 763.76886
1580.8818 758.8643
1587.822 762.715
1593.7783 766.99646
1594.2368 759.4269
1597.1526 753.2237
1597.8206 746.9163
1590.0945 747.48004
1587.9423 754.27026
1580.8146 750.0743
1574.9655 754.13336
1570.0416 748.9488
1569.0646 742.80096
1576.1162 742.7612
1581.8611 744.3696
1582.219 736.7468
1586.1116 742.05646
1592.409 740.6996
1588.0337 737.5399
1587.7675 733.3254
1594.3074 732.15704
1589.9402 728.9521
1592.2322 724.7446
1591.2389 719.2507
1595.7297 715.3166
1602.0297 712.56085
1602.9388 718.1599
1598.8287 722.3464
1598.5907 727.9264
1596.2504 736.55493
1601.6089 734.8646
1605.0642 729.50726
1608.9216 735.46844
1616.1399 736.5727
1621.9131 740.5075
1630.0631 736.0406
1625.8237 729.5223
1633.1752 726.86914
1638.0554 734.3515
1644.4956 739.0383
1649.3317 732.4786
1655.7491 736.4357
1650.1394 745.07886
1657.2335 743.37787
1662.4043 747.02106
1671.8093 744.8745
1664.9441 738.24915
1671.3378 731.8163
1677.6628 737.4517
1680.3445 728.8921
1673.1122 721.97894
1664.5864 728.39264
1657.7173 728.96277
1658.0548 720.3831
1664.7324 719.42957
1667.278 713.0678
1675.0966 712.01385
1682.7135 708.2867
1690.7672 710.3487
1682.5477 718.7603
1691.5424 720.4202
1688.7114 729.0173
1696.6233 730.6622
1697.3923 738.9421
1705.3269 740.6315
1712.1616 745.1101
1722.0337 744.41693
1719.1119 751.7288
1710.4232 756.0839
1702.451 750.9708
1695.0942 746.4941
1687.8391 738.65826
1680.4974 745.6868
1687.3594 749.6934
1693.3599 756.462
1702.9485 761.85803
1713.7952 767.8657
1718.6741 760.94055
1727.8865 764.2529
1726.8182 755.2753
1735.6917 758.60254
1737.2024 767.4267
1744.2347 760.98425
1747.8237 766.9585
1755.0364 762.304
1751.4362 755.26855
1748.5728 749.1715
1749.6628 743.4403
1753.0754 737.6613
1746.4529 733.55035
1740.1533 736.18933
1743.4446 742.07294
1740.0986 748.9173
1743.6556 754.5731
1732.1123 750.2766
1734.7043 743.0789
1728.383 739.8973
1719.552 735.93823
1712.6448 733.1957
1705.2057 731.10785
1702.9727 723.63794
1699.4368 718.8393
1708.2567 712.929
1699.4082 712.4339
1699.306 705.4684
1706.2695 702.382
1698.0985 697.2721
1690.4292 700.7016
1689.7031 690.62836
1696.2318 686.03204
1690.6521 681.5382
1682.625 682.2435
1678.9949 689.0972
1683.8997 694.94025
1679.7262 700.73175
1671.5948 703.73065
1672.5703 695.3908
1670.4011 687.20557
1673.8354 680.56665
1667.182 675.306
1660.0935 671.746
1661.6544 662.38885
1664.0643 653.58154
1655.0958 652.8744
1649.5195 658.317
1641.2759 654.5432
1632.7217 656.8805
1637.5428 664.34247
1645.1196 666.26337
1653.3717 666.8933
1647.4634 674.9538
1639.0693 673.48157
1630.747 671.1208
1628.5371 664.0295
1621.924 666.5685
1615.8679 668.77655
1610.6841 669.32697
1605.4014 665.2342
1607.1873 658.67163
1603.8624 653.1463
1607.1213 648.00476
1601.2461 645.8459
1596.032 644.7095
1589.6577 646.31445
1589.669 653.0235
1597.779 653.58154
1593.481 658.4576
1598.6118 663.1524
1596.8751 671.0762
1593.2898 677.56055
1594.3174 684.933
1602.4856 681.19525
1604.8132 673.7617
1611.2545 679.74585
1614.1492 688.3491
1607.2844 690.43536
1600.9717 689.35724
1601.9109 698.7992
1612.7758 696.42804
1609.3127 703.0751
1616.3683 707.0737
1619.5519 700.1162
1626.73 699.39703
1621.7322 691.23004
1626.7158 684.3483
1619.0317 682.60535
1619.9978 675.0851
1627.6064 677.1246
1634.1704 680.5456
1641.321 681.7389
1648.6367 684.1503
1654.4034 678.5145
1662.2333 682.02
1655.9591 687.85767
1663.7444 691.1016
1656.9563 697.65735
1663.9093 699.2997
1663.3025 706.64966
1656.665 711.80554
1652.4702 704.8018
1651.0779 693.78546
1645.219 696.63074
1643.4788 689.4586
1635.5754 688.2969
1629.8485 692.54877
1637.339 696.82574
1643.7041 704.3404
1644.7784 713.1445
1649.7123 718.2171
1651.3589 725.0402
1643.0397 726.3629
1636.8622 719.9985
1635.3312 711.98785
1633.8608 704.13873
1625.275 708.9046
1626.5411 718.6552
1618.1442 716.5113
1619.9507 727.1169
1613.3351 727.3016
1607.0256 723.6653
1610.872 718.3994
1609.8922 711.4436
1603.3589 706.35706
1596.8561 707.4068
1591.8849 704.08954
1585.9348 699.61523
1592.121 698.0205
1595.6226 693.38617
1588.1122 690.1383
1581.7572 694.37415
1576.6488 691.17957
1579.8735 701.08704
1576.1184 706.2307
1571.4258 710.961
1564.7686 712.8245
1558.6326 716.90967
1559.1561 723.13245
1566.4537 729.43274
1567.0634 721.60645
1572.0394 717.347
1579.242 718.4968
1578.8053 712.35223
1584.2683 707.31415
1590.1116 711.27484
1585.1982 715.55536
1584.9049 722.3239
1584.766 728.23505
1580.4377 731.61615
1579.2664 726.393
1575.7195 722.6379
1572.0502 726.8153
1574.6221 731.41254
1576.5598 736.66235
1570.3628 735.66034
1563.6853 737.3326
1558.8588 743.5255
1561.8784 750.8459
1554.451 753.2769
1548.3748 758.3652
1540.9939 753.5581
1539.3251 743.4371
1548.002 747.8267
1549.6825 740.18665
1542.809 733.5544
1554.464 734.1692
1559.6298 729.6986
1548.9985 725.77985
1550.8384 716.6533
1542.6353 717.5045
1536.3019 723.517
1533.7592 730.61127
1530.6807 736.93805
1530.6201 743.5733
1531.7295 750.72687
1533.6409 757.67615
1523.8708 757.57166
1522.0275 766.807
1527.2096 771.9899
1528.9086 777.7835
1528.0596 783.2308
1519.2444 783.2308
1518.0583 775.54266
1512.5232 769.9
1506.8632 776.40295
1509.9086 783.2308
1499.9933 783.2308
1496.7407 775.0087
1490.7013 783.2308
1482.3164 783.2308
1474.6381 783.2308
1466.9541 783.2308
1459.4899 783.2308
1452.4867 783.2308
1450.044 776.569
1453.0012 769.93085
1460.5846 773.9159
1467.8246 767.1828
1474.1013 773.9172
1485.9423 773.67566
1492.7552 766.7414
1503.2667 768.39465
1499.5188 761.33417
1495.9456 753.8765
1502.726 754.70557
1507.7312 756.51575
1509.641 762.76874
1516.9409 761.4754
1514.0037 753.72076
1516.1792 746.5158
1523.4062 749.9321
1522.275 741.45575
1523.7899 731.97565
1516.0491 735.41034
1509.8618 740.4956
1507.951 747.11224
1500.9435 748.3304
1498.9766 742.51807
1494.2195 736.6374
1488.3645 733.6458
1491.1594 727.34607
1492.2721 721.07056
1487.4238 716.7668
1498.6067 718.82556
1498.9954 725.2949
1498.5278 730.0805
1500.0798 735.43286
1505.648 735.61145
1508.863 730.203
1508.5333 723.377
1503.691 721.9315
1505.5006 715.1404
1509.5815 707.29565
1513.5482 701.88007
1517.5586 695.40607
1524.5173 699.888
1527.0408 707.35736
1519.3105 710.9897
1513.5992 716.4059
1515.4495 725.36066
1523.1248 723.98694
1526.8889 717.84424
1533.6847 713.7558
1538.8254 708.5745
1534.6428 701.75055
1536.1755 693.88495
1529.7415 692.9053
1532.6499 685.4862
1539.1034 682.11176
1543.2253 689.6682
1547.4067 684.34686
1549.9653 676.4021
1543.5386 676.6159
1546.6163 669.52386
1547.9371 662.53656
1543.0557 656.5196
1545.9534 648.4553
1542.7638 642.63544
1536.9353 645.69727
1534.3586 653.4012
1535.3474 660.6821
1539.5453 666.3886
1537.28 673.08307
1531.5035 677.43475
1524.8525 673.1873
1522.7937 680.55084
1524.0295 689.2249
1517.4324 685.7687
1511.7339 688.42505
1507.8319 683.0047
1501.7571 681.4313
1495.8384 681.2844
1502.5701 689.4778
1508.0673 695.1251
1500.8496 698.15875
1497.8622 704.5521
1502.5995 708.6724
1495.862 713.16956
1489.4976 709.62494
1480.7976 712.1331
1482.5911 704.8275
1490.93 702.5479
1492.2361 694.94836
1495.6765 689.19257
1486.3108 688.70306
1485.7314 697.4806
1480.1447 695.60956
1479.2601 689.393
1479.4596 683.0795
1490.1903 683.70435
1484.5934 679.1278
1479.6193 675.6258
1473.8657 673.8021
1472.5233 680.862
1472.3015 687.89465
1473.1184 694.7485
1476.1459 701.7233
1469.3104 700.16675
1463.1208 697.78265
1466.1006 691.44464
1459.8575 687.71356
1452.7357 688.5233
1451.5942 694.59064
1445.5555 693.0186
1445.8568 700.24713
1439.8462 698.3111
1436.5256 692.6199
1432.058 698.2647
1427.8745 704.3906
1436.26 704.7312
1432.7292 711.2115
1441.1305 714.94275
1442.5597 707.55035
1449.3022 705.933
1452.8583 700.6803
1457.822 695.0378
1458.1583 703.74713
1465.5778 705.6999
1458.6578 709.80865
1451.0068 711.0654
1448.7034 717.6232
1444.2445 723.33496
1446.806 730.42175
1446.8829 737.7891
1443.2009 743.61835
1444.4348 750.1147
1453.1361 753.36255
1453.9075 744.27045
1455.6075 735.4583
1460.0863 728.60016
1453.9087 724.7419
1455.6692 716.559
1462.9927 713.9391
1461.2489 720.7094
1467.779 720.8378
1468.7559 712.9667
1473.7638 708.4295
1474.467 717.5787
1481.3531 720.1556
1484.5337 726.25934
1480.6843 732.45233
1481.6533 739.4455
1489.2795 741.90875
1490.5907 749.19714
1488.8198 758.51465
1480.3158 765.57184
1478.6289 757.2524
1481.978 748.15405
1473.6298 741.6358
1473.2781 733.4519
1476.4078 725.6536
1468.8679 726.9851
1465.2654 733.774
1464.4979 741.3883
1462.0962 749.7839
1472.2905 750.4523
1466.8236 758.2511
1458.0245 762.04846
1449.6199 762.99115
1445.231 757.9719
1437.7584 760.11
1437.9415 753.74164
1430.8323 753.79395
1430.5806 760.43066
1432.801 765.65894
1429.4001 770.4793
1436.8203 771.6211
1440.0293 765.43616
1444.9835 769.18085
1442.4421 776.0168
1445.2574 783.2308
1437.8733 783.2308
1435.2252 777.9114
1428.187 776.7512
1429.6213 783.2308
1421.0266 783.2308
1413.9952 775.5569
1411.9337 783.2308
1402.2075 783.2308
1404.7826 776.07556
1407.5654 768.5565
1400.2737 763.4222
1393.6663 760.201
1404.5271 753.77576
1408.7493 760.02234
1416.676 758.94324
1416.1123 766.87476
1421.6685 773.6806
1424.0159 765.16003
1424.4672 757.4424
1420.2001 751.86383
1426.65 747.6317
1427.8862 739.43085
1434.6355 746.6268
1436.5424 739.2557
1436.9829 732.598
1435.5104 725.99646
1434.1385 719.1512
1426.091 717.2545
1423.1251 710.924
1418.4852 721.3321
1425.5107 725.062
1426.4016 731.72723
1418.9097 734.8581
1419.0378 743.8006
1412.334 750.33
1398.2806 751.1921
1394.5634 744.45404
1392.3605 737.17
1385.0568 735.2527
1383.943 728.15216
1390.2869 728.54974
1396.2035 731.15204
1404.2538 725.47296
1403.7756 731.53876
1400.9456 738.0184
1404.4258 744.98737
1410.7211 740.4525
1411.5464 732.54517
1412.1544 725.5412
1411.5292 717.1962
1404.4142 720.00415
1403.5367 714.2364
1408.3369 709.80615
1415.4014 710.53674
1418.6427 703.8607
1423.5907 697.92065
1429.0616 691.55066
1433.4276 685.53595
1440.7058 688.4722
1446.9084 684.90265
1450.2708 676.4053
1455.2323 682.1683
1458.678 675.9106
1465.1542 683.4375
1465.8843 676.61426
1468.1332 670.38306
1461.9304 667.4835
1455.0979 668.09393
1448.9336 665.56903
1452.4491 657.26636
1461.1475 658.92474
1468.5281 662.0466
1474.0803 665.93726
1480.1913 668.492
1485.9924 670.8771
1489.9927 676.9494
1492.2935 671.9794
1493.3582 666.5511
1486.8943 664.05945
1494.8018 658.8018
1503.3926 657.5191
1500.0364 663.8531
1501.1088 669.68665
1497.7622 675.09094
1506.2849 674.4583
1513.6666 677.5407
1516.5459 670.68884
1520.1449 664.1968
1529.9302 666.946
1526.2041 658.5282
1530.2206 646.3568
1524.3369 649.25464
1518.864 654.69116
1509.2365 665.96515
1511.8123 657.5234
1514.8302 647.89197
1505.9154 648.7293
1497.5436 648.42944
1491.0966 651.6046
1486.4324 644.2708
1476.1427 647.2834
1482.3898 652.4749
1487.2369 657.8261
1479.9491 661.1854
1474.8752 656.235
1467.9343 652.92847
1465.6061 644.772
1458.337 650.26874
1452.9559 644.77783
1449.6482 636.84503
1458.754 636.98395
1467.3021 635.9683
1475.4677 639.96027
1465.7411 628.1785
1458.6838 625.45715
1453.2385 628.9068
1445.9912 629.2473
1440.6908 633.5701
1441.1771 640.3666
1444.4401 645.98755
1444.3042 652.82855
1441.6257 660.71423
1442.6171 669.34534
1443.4193 676.29913
1440.1725 682.12115
1435.2281 676.9883
1434.7175 669.6055
1432.1149 662.30554
1434.1111 654.57556
1433.8165 646.2165
1425.0974 652.7296
1423.5837 660.9384
1425.6733 667.89844
1419.6902 673.3936
1426.4825 674.9257
1428.588 680.4559
1424.0654 685.11005
1417.248 681.2348
1411.8073 675.0862
1415.7418 667.80914
1408.0359 664.6879
1405.3864 670.67804
1401.059 676.2997
1394.3788 679.45844
1389.2273 684.00574
1382.4347 684.6131
1379.611 678.05524
1374.3295 683.5132
1367.9856 685.0061
1370.9167 692.0901
1364.4489 692.5733
1365.1101 699.06836
1358.2325 701.6288
1364.1221 706.0253
1370.2738 709.66956
1374.1722 714.76886
1382.5184 714.6021
1389.7366 714.8485
1392.2356 710.3189
1387.4927 706.54315
1382.0308 707.43445
1376.6361 707.0866
1371.291 702.79987
1373.887 697.58746
1378.0369 691.0178
1385.6467 692.1134
1380.1084 699.164
1387.1755 699.3709
1394.1559 704.0428
1395.4563 696.6219
1393.2749 690.6467
1400.0721 686.88104
1407.2307 682.4682
1413.163 688.80536
1420.6427 691.3371
1414.3417 697.23724
1408.8177 702.39825
1405.7102 693.45264
1401.1008 700.16766
1401.7565 706.89795
1397.57 711.64545
1397.1279 717.79956
1397.684 724.61584
1392.4331 721.8237
1387.1371 720.60504
1381.2296 722.3531
1375.8973 721.03394
1370.0383 722.3245
1363.1718 720.921
1364.2767 713.2511
1356.3907 708.107
1350.7172 702.93555
1346.5724 708.165
1351.5018 713.3251
1357.2693 716.5449
1352.657 722.6016
1350.0725 730.7928
1357.662 737.9697
1359.4338 729.19995
1367.8026 729.2542
1366.4705 736.3744
1370.5859 742.3785
1375.9872 730.06305
1377.7777 737.7133
1377.1038 746.4879
1386.1262 743.3285
1384.1342 750.7549
1390.8856 752.7324
1384.2045 760.88007
1378.4363 756.04895
1372.194 756.364
1366.6503 750.43066
1361.1637 745.34686
1359.8674 756.17285
1366.0208 761.2008
1366.2871 768.61774
1376.0625 769.2066
1384.5541 775.94977
1388.211 768.2706
1396.3551 772.9433
1392.0625 783.2308
1380.6932 783.2308
1370.308 783.2308
1359.0664 783.2308
1364.2616 775.5455
1355.5897 766.81793
1355.4795 776.49426
1348.8677 775.9611
1347.9573 783.2308
1340.8806 776.7671
1337.176 783.2308
1332.5658 775.7843
1338.0465 769.8939
1346.417 769.77295
1341.0719 763.509
1332.6165 764.9027
1332.7698 755.0318
1340.405 756.30115
1348.2083 761.4504
1354.0544 756.84546
1348.5056 753.56323
1344.1373 748.5244
1352.9386 746.6987
1349.3181 738.25586
1342.061 739.29535
1336.8956 747.126
1332.3638 741.8078
1334.9817 731.9289
1333.865 721.53754
1343.1571 725.6146
1343.3278 716.19806
1333.5725 711.93414
1339.6996 706.7762
1331.772 702.34375
1336.3219 698.04736
1343.5396 699.1648
1350.6909 696.0878
1343.2906 690.85205
1333.4705 689.88855
1338.7323 682.5327
1332.4 678.36066
1335.7974 670.73065
1332.7405 663.58264
1332.891 653.0974
1340.0466 658.76886
1343.3187 669.07825
1343.4424 676.4526
1347.3893 683.0993
1352.5848 688.2511
1357.6622 694.2103
1360.7621 686.06134
1356.1539 680.2204
1350.7485 674.53894
1351.5886 667.1966
1345.7881 662.7281
1350.7715 658.1329
1348.9976 651.9925
1351.1261 646.0024
1358.6587 644.2777
1364.0197 638.7235
1358.3257 635.1258
1351.9285 638.42426
1344.1351 641.86255
1340.4651 649.3093
1332.7885 641.9136
1338.2592 636.41144
1332.7522 628.97076
1341.0271 626.8123
1346.7236 632.1407
1353.5337 629.1431
1358.7576 625.05896
1364.1129 630.3183
1369.7445 634.3101
1369.1182 642.7489
1378.022 645.08496
1382.0518 652.4098
1386.2162 642.3385
1381.6172 637.4555
1374.8386 637.8312
1372.245 627.86163
1378.7484 630.31647
1387.0265 631.7084
1393.5723 636.007
1396.1886 641.7257
1397.9506 648.2859
1399.6587 655.0665
1389.9453 648.40485
1390.425 656.3246
1388.2198 664.3079
1380.3392 661.39825
1372.2477 664.7435
1373.9513 656.08484
1371.9307 649.40204
1364.5453 649.47217
1358.0239 653.7058
1365.6469 658.37274
1357.834 662.82227
1364.7314 667.82056
1358.485 672.40497
1365.3041 677.6307
1372.2211 673.74304
1380.2566 670.0155
1387.4232 674.2126
1394.9703 670.11127
1398.4265 663.06274
1406.857 658.3331
1415.4773 661.30756
1417.1566 654.5184
1409.7605 652.197
1405.2527 646.7086
1406.8054 639.4013
1402.9348 632.5013
1402.8959 622.3705
1395.8696 628.47314
1384.2994 623.7058
1391.2451 622.4741
1394.4663 615.81714
1391.2511 608.77795
1397.333 603.3569
1399.1693 595.19836
1405.5009 588.9727
1401.2327 583.5021
1407.2028 579.7298
1416.6061 578.2594
1421.899 584.9136
1414.1414 587.2327
1410.8679 594.9677
1406.5251 601.8672
1402.521 610.7983
1409.4026 616.48016
1413.4764 609.0094
1417.8328 601.9864
1421.2511 594.7555
1428.7079 600.97864
1437.2589 604.33527
1431.7148 611.58093
1422.7914 612.02264
1425.5692 623.8507
1416.5408 621.539
1412.2919 629.8536
1417.2297 637.2827
1415.0637 645.8061
1424.44 644.1835
1425.1348 633.68024
1432.8607 637.1376
1435.1006 627.8828
1435.0199 619.3799
1442.8365 612.1546
1443.6719 622.19135
1450.4857 619.0529
1456.8408 616.0378
1463.9788 619.8594
1462.4614 611.4386
1464.8309 604.55115
1471.238 611.4356
1470.0491 616.6082
1472.2854 622.3478
1477.8281 615.97394
1479.0162 609.3499
1482.1495 605.0425
1483.8431 599.2132
1479.467 596.553
1477.9651 590.9199
1473.9525 588.8781
1473.8445 595.1941
1474.3455 601.4874
1471.5756 606.1305
1468.4312 597.0945
1462.4951 595.53046
1459.5159 599.0702
1456.5488 603.8619
1451.81 609.8329
1448.9398 603.23376
1443.1091 599.52985
1437.664 593.26514
1428.5022 590.1344
1433.9352 584.09186
1427.172 578.16864
1432.6556 570.9004
1438.0726 576.30914
1441.9941 584.48193
1447.1395 589.9134
1450.8229 595.8618
1456.1364 590.44165
1463.1217 590.1296
1468.2424 589.6746
1470.3477 584.9485
1477.288 583.1366
1483.1056 583.32855
1483.1516 576.2741
1484.754 567.87085
1489.9839 570.8866
1496.5862 569.53937
1499.8185 564.0049
1505.4651 568.9164
1513.8401 568.6615
1514.232 577.58704
1520.2708 573.8781
1527.4375 574.41895
1528.6765 582.2846
1522.0745 581.959
1513.9441 584.61707
1507.9178 589.42487
1506.2805 582.87
1507.4271 576.3804
1500.9838 575.11505
1494.6825 576.16266
1489.3286 578.649
1489.9746 585.2349
1497.3628 581.7907
1500.6998 586.12695
1502.1229 591.5767
1494.9685 590.2388
1483.441 590.4325
1488.8486 592.37164
1498.862 595.57587
1495.5004 600.20605
1490.356 597.6524
1490.5247 604.19867
1489.1509 609.62604
1488.6522 615.7961
1495.5823 614.4142
1500.7357 618.88904
1506.6208 619.76294
1510.4438 624.578
1504.8285 629.68787
1512.2921 631.26996
1515.5302 619.6355
1517.6178 625.1599
1521.2585 629.3845
1530.0096 629.03516
1524.3501 620.0478
1531.4175 622.1746
1536.329 617.5184
1545.0632 615.9636
1539.7189 626.37994
1550.1128 639.72595
1548.4214 624.517
1552.2764 617.74896
1558.7925 619.75183
1556.6265 612.3957
1565.0532 613.4244
1573.3359 609.3146
1582.1223 603.5886
1583.8518 619.9868
1590.5 619.661
1595.829 615.1741
1603.8556 610.75635
1612.6365 609.085
1614.6433 601.34155
1622.6125 605.6825
1622.888 594.7797
1630.76 600.962
1639.457 598.9782
1647.4421 600.9165
1658.7638 602.3252
1652.1427 606.3361
1652.7045 613.3177
1657.1437 620.5492
1661.9625 626.7614
1667.3845 632.87146
1675.6487 632.2509
1677.4978 639.06604
1682.6526 643.8264
1683.1107 653.446
1682.3052 663.5349
1691.8597 664.1137
1698.9626 659.2137
1693.0103 653.96875
1690.7708 645.04504
1700.3625 646.7097
1706.3365 639.6642
1716.436 638.59015
1717.1409 630.6398
1709.7035 631.428
1703.9088 624.6659
1701.4551 615.0344
1694.6113 619.11273
1694.5596 627.84314
1701.3853 633.355
1694.3817 637.53033
1685.7493 632.99744
1687.01 622.59424
1679.224 624.5023
1670.8767 625.1819
1682.3308 614.8689
1675.6357 608.61975
1673.4119 616.5487
1665.563 618.5705
1659.6648 611.58246
1666.6012 609.22565
1668.6323 601.6572
1677.0201 601.09717
1680.6074 595.384
1688.0857 598.0031
1684.716 605.3341
1690.8745 611.3777
1696.4075 605.2479
1694.9084 595.6646
1701.5116 596.0413
1708.8901 597.7943
1704.9172 606.0913
1712.5647 609.19244
1709.4088 617.10046
1714.0756 623.2662
1719.1437 616.5252
1722.9739 626.70135
1732.1355 627.5309
1735.3518 634.73364
1726.1062 635.63635
1723.1061 644.8851
1732.5588 643.51447
1738.9574 649.5435
1742.9464 642.22876
1742.9929 634.5616
1750.2687 634.85004
1758.192 636.3925
1765.1599 633.1509
1758.3345 627.9185
1750.0466 625.71826
1741.4823 626.81323
1736.6788 619.6537
1727.932 620.8002
1727.3402 613.2156
1734.7324 610.9057
1743.217 611.94165
1744.6415 618.89844
1759.7452 621.11383
1759.896 614.6663
1751.9347 616.3657
1750.3195 607.3374
1741.916 604.6994
1742.575 596.11414
1735.0751 598.7696
1728.7034 603.0052
1721.4586 607.22644
1716.6687 600.09656
1713.5334 590.0516
1705.335 586.6466
1701.414 574.78107
1698.7642 584.1041
1691.8927 589.2219
1678.5394 588.7888
1685.0332 587.33386
1691.5221 581.11664
1691.11 572.97644
1683.5442 578.8221
1675.7036 580.7887
1678.8254 571.311
1669.5751 565.9172
1669.9559 574.09827
1659.669 572.5842
1664.6797 580.71234
1658.154 585.96
1669.7653 586.8473
1671.3553 593.9256
1662.792 594.6294
1653.7053 594.05884
1645.218 592.0792
1647.2654 584.5779
1650.8813 577.63727
1649.685 569.55084
1653.2224 562.9839
1659.1105 560.25635
1664.986 558.9005
1670.3403 554.75507
1677.9216 559.4317
1684.7938 565.6807
1692.8342 563.4497
1701.2919 565.2403
1710.2644 563.46716
1712.9795 571.76953
1712.7115 579.8187
1722.259 584.532
1724.4648 594.4474
1733.5684 587.2825
1727.1589 574.6371
1722.9624 565.34357
1718.266 557.2159
1711.8542 554.7055
1704.424 555.2128
1696.3401 555.0036
1701.8455 547.0158
1710.95 546.4089
1718.4619 543.98206
1726.1792 545.65497
1730.0056 539.5857
1733.1967 544.1992
1737.7947 539.3835
1743.3223 541.5018
1751.5603 544.2157
1755.817 550.0499
1749.1123 551.7745
1745.2332 546.6708
1738.7312 545.5684
1732.6854 550.1316
1739.7444 551.7156
1744.8176 556.28186
1752.9073 559.5173
1760.8196 557.0683
1762.9022 563.72327
1770.0487 555.27454
1763.5452 550.851
1761.7378 544.62683
1756.6576 539.9834
1751.703 533.95825
1748.9335 538.99524
1744.3682 536.22217
1742.7917 532.6878
1736.9814 534.3737
1732.4856 533.5477
1727.4528 534.22015
1722.0912 536.12006
1714.6562 535.03
1708.0847 537.24585
1701.2222 539.42413
1700.53 533.3148
1692.4156 535.9855
1694.7971 542.34326
1691.3707 547.6982
1686.589 555.3108
1677.8749 548.71344
1684.1764 546.30853
1683.9072 539.36237
1672.7842 540.9881
1669.891 547.5732
1662.0233 546.8029
1655.401 551.8328
1649.7223 547.82275
1642.4232 550.32996
1645.4369 557.5773
1641.8074 565.19666
1640.5714 574.28455
1636.6207 581.64954
1636.4343 591.1387
1629.3085 588.09625
1581.5486 551.6164
1574.2731 553.7341
1567.0392 552.8529
1560.5865 554.3446
1555.4451 557.9277
1551.6567 553.5173
1549.5477 560.36786
1553.5631 567.15137
1560.4926 562.3609
1568.2084 559.99976
1561.2212 569.12695
1554.4714 575.3643
1548.8518 580.3952
1539.6025 581.9897
1533.372 579.2039
1536.4644 573.8782
1542.7599 575.9934
1547.8141 572.62213
1545.7571 566.6936
1538.4058 566.67017
1541.9994 560.6323
1543.5625 554.08777
1535.581 556.51013
1526.2515 535.98126
1518.3915 530.63837
1509.6747 531.98956
1514.668 537.6165
1527.5883 557.78516
1531.3616 567.08795
1523.1797 565.9856
1517.9275 559.3229
1509.5024 561.28595
1502.9955 558.79395
1496.4937 556.49805
1492.575 563.3224
1487.6675 559.63574
1480.7003 562.4552
1481.2842 556.8084
1477.6245 551.8883
1470.7477 550.6916
1467.3103 545.16364
1459.5005 546.4857
1461.8246 552.895
1465.7583 558.5705
1472.5201 557.5297
1473.2809 562.96204
1458.7494 563.51697
1452.6018 569.34467
1461.3142 574.1113
1467.236 568.10095
1476.4877 567.6151
1478.3904 572.65283
1473.0192 575.0518
1470.2535 579.45703
1463.4597 582.4945
1456.1527 581.5843
1449.6377 581.51
1446.3351 574.8433
1442.6168 566.92285
1435.9246 563.3536
1432.8079 557.08746
1427.9786 563.1477
1424.3453 569.86
1417.6681 570.1075
1409.1123 573.07385
1411.1781 566.6289
1415.1722 561.74493
1421.1357 560.3005
1414.4215 554.2103
1408.9268 547.71686
1406.9213 538.19495
1407.3223 531.13885
1399.4829 531.7765
1393.7126 536.43896
1385.5737 538.2405
1378.9031 536.45825
1372.799 535.9618
1367.6644 532.8134
1366.6903 526.0403
1359.8131 525.51996
1362.0237 536.12085
1366.6124 543.6582
1376.6611 545.05664
1390.258 544.4156
1380.6938 550.9246
1384.095 557.0849
1380.0597 564.7083
1390.0688 560.46826
1391.4728 551.7667
1400.4766 541.3932
1399.5243 548.56604
1403.8015 554.11237
1407.407 559.58124
1403.6528 565.8066
1397.8406 559.0657
1394.3267 566.83484
1400.0553 572.14044
1396.1161 578.97235
1390.121 575.17975
1386.4177 569.09845
1378.7211 574.097
1385.8013 582.0562
1394.8394 587.073
1390.1058 591.8221
1388.9269 599.1533
1383.756 605.3867
1375.9166 606.868
1382.8998 614.3663
1378.11 621.0534
1372.1378 620.4375
1366.2102 622.85394
1360.2416 618.4195
1359.6963 612.3286
1370.6909 614.0394
1366.8054 606.63776
1371.0342 598.1046
1378.8079 597.0398
1382.3367 590.25604
1376.338 584.20233
1369.2148 588.7242
1361.9121 585.33966
1362.8499 596.48083
1358.1544 604.5835
1350.9739 611.4099
1350.2294 621.14307
1342.6628 617.37665
1333.9646 619.6495
1333.6713 611.91833
1341.968 608.904
1347.5476 602.64154
1353.7665 598.25195
1355.0767 590.95154
1353.3771 583.3336
1344.1191 582.53107
1346.5916 592.74677
1338.9974 601.1172
1332.7294 604.2759
1332.2001 594.253
1339.4421 594.64087
1338.5092 587.8122
1332.9645 583.476
1334.523 575.31934
1342.5094 571.24854
1333.0133 565.7584
1338.282 560.3873
1332.048 551.9107
1339.3378 551.828
1338.6667 543.4423
1332.6173 539.6172
1347.2426 536.39404
1346.9568 545.5547
1347.0947 554.42804
1354.6436 559.7031
1346.8241 563.1982
1350.089 576.1189
1353.1267 568.5979
1361.337 568.3977
1360.4302 576.5014
1369.6841 577.1366
1370.1422 567.06085
1373.8873 558.3146
1367.5627 551.9377
1363.2805 559.94385
1357.4104 552.74963
1356.0844 546.90936
1355.5814 540.5645
1354.8452 532.80493
1351.9816 526.1016
1346.2795 521.0266
1343.552 527.39545
1339.671 534.02625
1331.9985 531.08264
1335.2067 526.2103
1334.8885 520.5561
1333.2407 513.7954
1332.3071 505.29092
1341.3295 514.13715
1345.5945 506.1265
1338.8071 503.2213
1345.2565 495.60626
1352.7035 502.911
1357.9103 508.84476
1349.5376 513.3317
1355.6458 517.8291
1363.1228 515.58344
1369.0734 518.7375
1376.2678 516.4389
1383.3784 520.05835
1375.2612 526.05676
1382.9305 528.78796
1390.3525 528.1463
1396.083 523.6199
1404.9185 525.88495
1403.9165 520.57385
1399.352 509.6847
1393.111 506.40988
1396.7361 516.0474
1389.7188 516.2739
1383.6212 509.43674
1388.0159 500.80704
1392.7715 494.96326
1389.6661 488.0268
1384.175 484.41742
1377.0435 487.80945
1369.5317 488.36728
1383.0208 493.38104
1379.1636 501.0638
1373.8009 508.35672
1366.3757 507.03204
1371.3662 497.2607
1361.7434 499.68872
1353.5902 492.97952
1361.7737 491.79922
1361.4241 484.76987
1362.3308 478.0478
1351.4238 483.53564
1341.307 486.1613
1333.9138 493.47116
1333.5822 479.24637
1332.2183 464.84976
1338.0619 469.1903
1344.6462 475.83942
1354.8652 474.41315
1355.6245 465.07156
1348.1857 467.26245
1344.5488 461.00156
1338.1119 457.98172
1332.3446 454.1624
1337.0544 446.65726
1331.812 444.7706
1334.4185 436.94403
1333.0525 427.85233
1333.9762 419.9194
1332.0724 413.1277
1333.6555 407.8432
1340.0634 404.13538
1339.7961 396.3356
1333.1356 402.65973
1332.3688 397.61707
1333.7959 391.52402
1334.22 384.91757
1333.7887 376.40198
1334.4153 366.98102
1333.4111 352.67633
1335.1002 343.76645
1332.1353 326.00055
1331.0012 308.2631
1332.1111 337.0783
1331.4393 346.39218
1334.0884 359.7342
1341.4034 371.89822
1343.1478 382.36465
1344.9971 391.4784
1347.5591 399.97437
1350.0284 408.36426
1344.3022 409.26468
1339.6892 413.81094
1343.7443 420.6944
1352.3699 413.9998
1352.3811 421.68954
1355.1904 429.0933
1341.5994 428.63504
1344.3999 434.7867
1343.6221 443.1676
1341.6311 450.6964
1347.1494 453.34235
1353.4125 457.06552
1362.0134 458.21524
1351.8274 447.2538
1350.9164 438.30252
1360.8088 436.56387
1358.9508 442.37527
1359.555 450.08658
1367.4028 449.76874
1369.199 461.58148
1376.0623 458.8519
1381.359 465.03275
1383.2454 471.8287
1375.3566 469.3529
1362.4546 467.96994
1368.3899 472.03308
1371.1499 479.76093
1377.8708 478.07242
1383.7958 478.07346
1388.5316 468.83105
1392.8069 473.476
1388.8892 477.33997
1393.4186 481.07928
1402.8928 478.76883
1407.2822 483.0759
1401.7614 485.2681
1396.0214 487.8689
1400.7883 492.37982
1399.1715 498.5239
1403.0432 502.5299
1406.7354 507.8511
1405.2301 514.59875
1413.2197 510.12292
1411.9651 517.0995
1419.461 517.7122
1413.9607 524.3802
1414.1875 532.3243
1420.5232 537.51465
1413.6234 541.3342
1418.5753 546.978
1425.3145 555.2548
1424.792 548.2315
1428.4808 539.43024
1436.161 545.40027
1431.6963 550.0994
1440.3562 554.50397
1447.2499 559.39233
1454.5917 556.08575
1450.2482 549.8389
1444.1383 544.7248
1452.1675 541.9132
1453.1617 534.4442
1460.1566 539.5473
1460.4839 533.1663
1466.9215 532.7775
1473.6143 532.55554
1476.0569 543.811
1482.5234 545.73315
1485.769 551.35815
1491.7412 552.7317
1491.435 538.0108
1486.8998 531.58014
1479.4325 531.6648
1482.5896 526.11615
1476.2368 524.6399
1473.2671 518.2868
1469.852 526.0197
1461.7142 526.0056
1458.4164 520.2578
1465.6453 518.6411
1461.838 511.63492
1458.3848 505.2056
1453.892 515.02875
1452.048 509.04193
1445.7523 508.65457
1451.8424 502.69467
1453.5232 496.65012
1460.0857 497.49448
1465.9617 503.0551
1471.3341 510.71732
1474.107 497.8895
1467.4751 492.53802
1466.6486 483.88678
1458.6102 489.13196
1452.3757 483.04276
1446.9784 486.872
1451.1956 491.23087
1444.3239 494.3094
1447.7394 497.85257
1444.7963 502.42004
1439.1853 502.89795
1440.1656 508.9841
1436.3516 515.05786
1432.9628 521.8285
1441.8635 522.2285
1445.884 515.8804
1451.4424 522.743
1445.1643 533.5577
1438.2104 537.33276
1433.6625 530.25195
1422.8912 529.5838
1425.5513 522.6662
1427.2881 514.781
1424.5199 508.2066
1418.4438 507.91187
1418.4506 501.67908
1411.3835 501.31174
1408.8105 495.1447
1407.1367 489.51874
1433.0498 488.4278
1434.8312 483.0921
1435.3766 493.86444
1439.3419 496.51697
1440.4965 489.1999
1441.5172 482.4794
1435.9434 476.53635
1444.985 478.09332
1447.2612 472.70282
1439.6381 470.85693
1441.1654 463.0481
1447.038 466.14606
1447.2118 457.12137
1443.4878 447.99106
1452.6736 449.90747
1452.353 439.80753
1455.6273 430.82675
1462.408 431.90576
1463.7944 438.9411
1461.054 445.1007
1461.445 452.10834
1458.3755 459.75647
1454.4878 464.37946
1455.487 470.46548
1453.3053 476.3927
1459.6431 479.83682
1464.6388 473.4674
1466.879 465.63852
1466.7792 457.9718
1471.9597 453.32422
1480.2987 455.54922
1488.9229 455.78134
1491.1296 461.63248
1491.969 469.20016
1481.3629 464.35135
1484.037 472.2287
1484.3414 479.7548
1487.0315 487.84433
1490.908 494.3267
1487.8433 503.69818
1481.8779 512.0571
1494.8636 509.36853
1495.9713 500.9986
1505.7239 502.28278
1503.6796 510.15054
1498.4078 517.8446
1494.0354 528.3448
1497.5408 533.6394
1504.4966 535.6975
1503.0615 525.9336
1507.1819 518.01324
1511.9647 524.4311
1516.8011 517.42914
1520.8496 523.8233
1526.6101 522.3435
1531.0635 508.16595
1523.24 511.15485
1512.4949 511.2695
1513.2775 502.26474
1502.5044 495.75412
1514.4265 490.95572
1519.4323 473.41846
1506.2828 482.96283
1497.685 487.22226
1492.5643 479.5446
1499.618 476.20926
1502.7443 468.10904
1498.1027 461.98572
1504.9391 458.48743
1500.7351 453.84998
1499.2389 448.55545
1492.1287 444.90738
1485.1401 445.79623
1478.7019 445.85123
1471.118 444.29492
1471.9058 436.02643
1479.8772 435.63867
1485.7454 437.87943
1492.6583 433.4748
1490.9893 427.4718
1484.3528 427.12384
1482.7224 418.91812
1475.7478 419.69873
1476.4509 428.27847
1468.5488 427.63608
1460.5883 422.24802
1468.6954 419.19086
1463.4518 412.72815
1467.3262 403.9466
1472.7208 409.99857
1480.1365 409.8582
1478.5592 401.02042
1489.0988 404.15125
1486.8982 411.99857
1494.6238 411.36288
1501.0186 409.67752
1508.9088 413.20117
1517.5378 424.71234
1510.4912 420.1606
1501.6461 418.9724
1491.3359 419.2181
1497.2328 425.21744
1503.3928 428.72687
1510.5851 428.6738
1510.5465 436.26797
1500.5679 435.49628
1492.5905 439.52267
1497.5144 442.64832
1503.6339 441.6343
1508.2399 445.33978
1517.1042 447.63672
1521.6598 451.55038
1518.2437 440.24045
1520.7687 432.47742
1527.9705 430.80746
1530.3787 436.53268
1621.668 432.48035
1637.0498 421.87308
1645.7963 414.84372
1648.9104 407.59683
1653.2213 400.60675
1650.9125 386.1675
1651.8407 394.77762
1653.9197 406.3383
1713.0768 423.6686
1718.1904 446.74924
1715.4138 435.1101
1715.2472 414.1401
1717.9639 403.87042
1721.6128 393.38376
1721.2778 381.3947
1720.1204 370.65494
1718.2566 359.97165
1717.5636 349.33447
1719.3108 338.13663
1720.6659 325.99
1770.9923 273.63602
1760.0713 227.55396
1766.3851 223.90547
1772.737 228.16096
1781.0879 229.44078
1785.3307 223.49669
1777.0737 220.13846
1782.976 213.83057
1789.5842 217.27155
1792.7295 210.40303
1786.2524 205.0718
1779.0928 206.36783
1775.1914 211.44637
1769.4097 216.39822
1761.8342 213.54343
1756.8602 219.81099
1752.9846 212.12485
1762.1088 204.20796
1768.8809 206.9873
1767.5669 197.35979
1754.6854 204.70616
1749.2084 198.06989
1744.3215 191.50679
1745.4559 206.49292
1740.2574 198.92778
1733.2974 192.378
1738.4331 186.89095
1729.498 185.27652
1722.7711 189.42728
1721.3877 180.2549
1727.981 177.37595
1731.7078 172.66286
1737.5669 172.59708
1747.0192 168.90628
1745.7668 175.16176
1740.173 177.35815
1734.7717 180.37605
1743.8838 182.2384
1749.3424 184.91408
1753.4491 190.22154
1757.6996 197.0884
1761.8965 191.23584
1760.9203 184.36438
1768.3942 187.72096
1773.7141 189.01526
1775.4172 178.88432
1780.6624 172.21619
1767.5591 180.3187
1763.3152 174.55319
1760.2925 167.3177
1756.4508 181.20717
1751.7041 178.34044
1753.9124 172.45076
1752.4082 163.6835
1745.8025 160.3013
1743.9967 153.26656
1737.5693 159.5464
1740.807 166.78279
1733.833 166.52231
1729.1189 162.64377
1725.6691 156.11429
1733.4763 153.70116
1728.2854 147.51599
1718.126 149.38226
1717.4832 156.52986
1720.8965 163.90866
1725.08 170.3774
1716.4979 171.34625
1711.9976 177.91255
1713.4869 186.93665
1713.2823 195.32085
1721.5339 197.29501
1730.4557 198.8505
1735.7518 206.30003
1736.4565 213.31346
1745.9203 215.69833
1750.3958 224.78026
1740.8358 221.6302
1732.5719 220.0395
1725.8866 222.13264
1718.2921 221.24942
1725.437 214.50618
1726.7076 205.99187
1719.7646 210.401
1717.4448 204.12021
1711.0273 202.62685
1711.6494 209.6357
1715.0688 216.86156
1709.9825 215.08379
1707.1808 219.52768
1699.5575 219.50395
1704.4082 212.96295
1705.1438 205.87633
1705.0469 199.1338
1696.5271 193.56819
1704.751 192.49455
1703.9885 184.68336
1702.5222 174.25313
1705.091 166.22128
1712.4077 163.00342
1707.6962 155.04291
1701.6813 148.96895
1709.7778 145.52332
1716.6877 140.96808
1724.0754 140.14087
1730.8611 136.6197
1737.9452 132.28992
1745.1956 131.5141
1742.9438 123.63756
1737.5115 117.33777
1738.9065 109.845184
1744.5795 102.78963
1737.2036 100.97929
1731.1288 104.4099
1726.7577 109.597885
1728.0779 118.36293
1733.0154 126.02186
1725.5149 129.11066
1718.7852 131.42166
1712.0168 133.3238
1706.6487 137.63098
1700.4463 141.5145
1693.081 147.89809
1689.6713 155.54764
1683.3274 160.84772
1698.5685 157.75119
1694.7136 165.5258
1688.2712 169.16624
1690.5544 176.09593
1696.7977 180.29544
1692.6982 186.76674
1687.4094 193.69652
1675.8231 199.52048
1682.6333 199.58093
1690.4302 200.42398
1691.9846 207.69247
1697.7953 201.24057
1699.4271 207.72394
1697.6986 213.22609
1692.091 215.39952
1685.4335 212.79297
1684.7324 206.335
1678.7975 209.1988
1673.5337 207.22234
1668.4963 204.22139
1661.7463 205.83586
1661.9258 199.02596
1668.5634 194.67458
1676.9086 190.68721
1668.0431 185.39627
1658.4441 180.57834
1657.4796 190.80397
1653.2036 200.70143
1646.1174 195.94456
1647.6276 183.63443
1657.5605 170.97124
1668.3022 173.37717
1675.7383 179.79161
1683.7195 187.68666
1684.1472 180.73116
1680.122 171.5049
1675.3119 165.05096
1669.2587 160.66185
1662.3832 154.14627
1661.7113 163.50937
1652.8358 159.82109
1646.8597 172.15465
1641.8407 164.3539
1636.7595 157.19487
1645.7717 154.45343
1651.9891 148.9163
1655.3584 143.13611
1663.1188 147.28555
1661.6377 141.00616
1668.2698 138.93242
1667.797 132.24312
1668.6187 124.43112
1664.5535 119.23533
1666.2623 109.131874
1672.5056 115.99192
1678.6798 111.155464
1684.3046 105.44573
1686.4581 98.38302
1693.3492 98.482445
1701.3928 97.70959
1706.8933 92.6995
1709.175 85.53012
1712.8391 79.309074
1719.6075 83.62904
1726.8735 83.82094
1716.0612 91.353935
1712.161 99.37973
1710.1825 107.34737
1709.9899 114.8426
1706.373 120.47661
1700.5929 120.226585
1696.4343 125.20195
1690.897 120.18954
1696.2788 114.794815
1702.1696 111.35999
1703.6979 104.09505
1696.6826 104.54995
1691.9015 107.98401
1687.8293 113.179825
1682.5504 117.7566
1689.0552 127.66183
1683.6583 125.725685
1677.3268 122.85929
1674.0741 129.07925
1679.1008 133.53261
1676.6823 141.16217
1671.1047 147.09985
1675.2455 154.07375
1682.5835 149.64232
1685.502 142.20386
1686.582 134.92537
1693.7115 139.18605
1693.3479 131.81233
1699.5549 133.05759
1703.8921 128.90395
1709.0007 126.60188
1713.9299 123.38749
1719.7844 120.81599
1718.6453 113.16764
1718.2749 105.7313
1722.2427 99.55847
1724.8027 93.18992
1730.7666 89.898346
1733.4025 95.43266
1741.4906 94.362175
1739.392 88.59311
1741.8821 82.560524
1734.6858 83.86148
1732.5819 76.710464
1726.1342 74.561966
1719.8728 74.76279
1713.0852 72.57822
1706.4077 74.427864
1705.7482 68.27397
1710.3708 65.59128
1717.3628 68.07829
1716.729 61.579033
1724.1321 55.555737
1731.8257 48.00046
1738.9486 51.257412
1749.2754 45.94507
1745.0723 51.69902
1748.1843 58.823143
1740.872 61.065063
1732.512 57.69236
1724.6699 64.9569
1732.7081 67.47257
1741.149 68.67413
1739.5769 75.926445
1747.3396 74.08049
1749.9099 66.70539
1756.9464 65.15991
1765.388 64.698685
1772.8038 64.41634
1773.4734 57.919014
1775.2656 51.191765
1782.7466 49.266087
1778.4548 43.80715
1771.8337 43.29175
1767.8207 49.09875
1766.071 55.11454
1761.4951 58.878464
1755.6125 57.049915
1752.525 51.64464
1759.4838 48.83514
1755.6654 41.927372
1764.9325 43.139393
1768.051 35.598152
1765.2704 28.420736
1771.3083 24.069483
1764.9165 18.58791
1754.901 16.545158
1758.5889 22.772942
1758.1194 29.144068
1762.1311 37.917274
1757.7529 34.70947
1751.0795 34.34472
1747.1465 39.41116
1740.4603 41.89315
1732.0627 38.501507
1725.3462 42.27833
1719.9564 46.758526
1716.9309 53.045345
1711.5 56.84836
1706.4814 59.95527
1700.6266 61.909534
1699.526 56.089554
1697.7034 50.356934
1704.8922 51.13689
1711.2012 48.597446
1709.2983 41.197605
1707.8284 31.427542
1700.5863 35.141838
1694.2312 32.001305
1701.658 42.90175
1694.3068 45.16299
1691.4672 39.24112
1686.2222 46.0967
1678.1072 47.220646
1683.6183 54.672443
1690.9854 53.250362
1692.3909 60.328224
1693.9438 66.86866
1700.3756 68.66495
1696.5853 74.21493
1703.1951 80.35026
1696.7316 83.12148
1699.1082 89.83222
1691.1854 91.023506
1682.5481 91.92374
1678.2917 98.57393
1674.5216 105.322136
1668.823 100.29591
1660.7931 98.813545
1653.8177 102.14432
1657.1389 108.984856
1658.6558 115.999954
1654.1189 120.86674
1659.0366 127.49107
1659.2383 135.0118
1651.3339 134.56969
1645.5286 141.93814
1640.0713 148.2355
1631.4142 150.99693
1634.0132 142.72142
1634.562 135.92146
1641.2689 135.31406
1645.2211 129.59448
1648.3103 123.502304
1647.9895 113.118935
1645.2953 103.46091
1637.707 98.40013
1632.5146 105.43876
1639.1702 108.98826
1638.8607 116.9709
1639.4852 124.54251
1633.1653 128.8627
1627.5305 134.99721
1625.7268 145.02176
1623.047 139.04016
1617.9412 138.69582
1613.0367 135.22205
1618.5836 130.86319
1616.3484 124.11049
1624.7118 127.806015
1623.5555 119.97863
1630.8801 121.526436
1629.6299 113.51395
1624.7267 106.53734
1627.8931 99.16962
1627.7878 92.27656
1634.7814 90.90298
1642.8737 89.50193
1648.596 95.07571
1656.8253 90.16323
1650.8542 84.10338
1658.8689 79.7809
1666.2217 85.122505
1665.6819 92.5111
1673.4374 92.092354
1677.7 86.26239
1673.6772 80.651794
1669.1548 75.7364
1662.6343 72.75126
1668.0498 66.26712
1675.6509 68.12059
1679.9985 73.38785
1681.9366 80.126144
1686.7297 85.475044
1691.3704 80.108215
1687.9475 75.039375
1687.1527 68.54026
1683.2974 62.745586
1675.3928 58.018055
1665.9772 58.84988
1669.2556 50.04181
1662.4573 43.904568
1653.6232 45.75128
1645.189 43.44235
1637.3486 49.222874
1646.9403 53.627472
1649.0614 61.281075
1658.3525 55.15165
1658.3743 67.00065
1651.615 67.72213
1648.8406 74.46263
1642.7697 80.17363
1634.8114 83.009155
1625.1069 85.80837
1627.7037 78.58006
1622.4077 73.42257
1614.6488 73.57127
1617.2902 80.444916
1609.1283 79.05929
1611.0281 85.846695
1617.5049 87.646835
1620.2203 93.959526
1619.4883 100.7761
1615.7015 107.23003
1620.5964 112.13799
1616.931 117.411194
1611.0884 114.59365
1602.3704 116.22111
1608.8931 121.630005
1610.4724 129.95879
1604.9453 127.37724
1599.3513 122.73905
1592.3329 117.784744
1572.8762 154.11584
1570.092 161.85371
1565.1383 155.9276
1565.779 148.72322
1557.3048 152.37944
1552.7217 158.9955
1560.6866 162.19746
1553.0985 168.28973
1558.6875 172.7776
1565.6581 167.7996
1569.8496 171.2451
1577.9268 161.21805
1576.6144 166.83018
1574.6934 173.52776
1577.2749 189.50702
1566.5397 186.5537
1559.3654 182.30183
1551.2234 179.18752
1543.1185 177.38171
1533.3373 175.67903
1523.3024 174.40038
1526.6558 168.78096
1517.3191 166.11925
1521.045 161.80896
1526.9052 160.83862
1533.9333 165.30428
1540.4128 168.32956
1545.8638 163.51013
1547.7556 151.85492
1539.0521 154.08502
1533.019 157.40538
1527.0184 151.62007
1519.2134 155.5707
1512.7733 154.76086
1505.6804 152.70006
1503.2898 159.77182
1510.0911 164.47983
1514.9021 172.9097
1506.5073 173.96194
1502.1487 168.369
1495.4332 164.23364
1488.2673 170.5402
1484.5383 164.08963
1491.4708 158.79195
1486.4551 154.3004
1480.3995 154.67159
1478.553 146.79611
1481.0023 138.0547
1489.6278 138.99054
1489.0675 146.7862
1496.0228 153.36362
1499.958 147.06352
1498.4535 138.99707
1507.7616 138.69794
1510.1886 145.96994
1519.2427 145.89227
1529.5458 142.96547
1548.6991 140.1483
1558.3967 143.72513
1563.4697 120.845894
1550.2211 117.26422
1553.1552 100.12178
1559.0765 101.95591
1563.5753 96.71194
1559.5254 92.72301
1553.0029 94.10088
1545.7887 98.23071
1539.8801 93.06678
1546.733 90.31991
1554.1204 86.83882
1560.7028 85.52462
1567.5288 87.94842
1566.3663 80.62217
1571.0858 74.411835
1575.4183 70.85675
1567.2747 65.63
1559.8678 62.805264
1559.6107 70.49185
1564.7922 73.726166
1557.3866 78.57513
1548.4865 82.70892
1540.6255 81.011116
1533.7295 85.52141
1528.8408 79.1415
1522.5759 74.249214
1518.6301 81.63282
1514.1072 75.07823
1509.9982 81.405014
1505.4447 84.96068
1499.8737 88.11446
1489.9911 96.02259
1496.6036 93.21984
1506.7039 91.62505
1514.8661 89.76389
1523.8782 89.60946
1532.0747 93.655525
1515.3058 107.10974
1527.8123 110.31884
1538.0382 114.767494
1526.0259 125.60965
1515.8853 132.80879
1519.3232 116.789024
1509.9869 121.297554
1505.245 113.215065
1498.5568 119.913376
1503.1635 129.0123
1493.7623 129.81226
1485.2633 130.58876
1484.3346 122.78041
1478.412 122.35462
1476.3141 130.31694
1468.447 130.14165
1460.7852 126.15221
1455.1665 134.71213
1451.6537 126.11993
1446.0721 131.90071
1446.6847 139.67604
1451.0714 144.93658
1449.9894 152.79063
1459.5065 155.93073
1457.6589 149.00095
1459.328 141.8573
1464.3102 136.28342
1472.4508 139.93668
1467.0023 146.8869
1473.1234 154.87776
1476.9067 160.75153
1475.6986 167.07593
1480.5532 175.80544
1497.3064 174.77875
1490.0212 177.87633
1480.647 184.63658
1472.1415 174.6793
1465.6487 181.97609
1467.728 191.57378
1456.0104 194.08665
1456.6055 185.9374
1449.9089 180.89166
1447.9321 189.19151
1441.9135 183.01183
1439.9598 190.03087
1431.9219 185.06764
1436.9761 177.95927
1444.2979 175.05098
1450.3652 173.73793
1456.1995 169.75952
1457.799 177.7302
1464.3114 172.29547
1466.1359 163.79189
1466.9313 154.91591
1456.2019 162.47896
1447.6497 166.2306
1439.9513 170.10912
1432.5093 170.2888
1432.4054 160.75784
1439.1685 162.79976
1447.0488 158.92148
1439.4395 153.66754
1441.6365 145.67523
1433.0745 144.21347
1438.6465 134.82532
1430.2501 134.94333
1423.5803 137.57301
1423.9747 145.67151
1421.6849 152.85587
1430.0298 152.66313
1425.8802 161.59976
1420.0455 161.47838
1415.5293 155.86566
1414.0457 162.47966
1409.1915 160.13115
1402.909 160.32657
1397.3381 162.40242
1391.3058 165.38063
1384.1389 163.60353
1376.7262 162.9542
1369.4324 162.28076
1364.1791 166.31847
1358.856 171.03163
1357.0616 179.58327
1353.6077 186.62003
1350.304 175.2662
1343.7021 176.62886
1343.9753 185.5631
1346.5624 192.20006
1346.3158 199.47408
1346.6482 206.43916
1348.1091 213.92874
1341.4662 217.98566
1345.9224 228.76047
1354.4158 219.18375
1361.3092 229.81483
1362.7631 219.17772
1370.7148 220.6375
1375.3405 214.6302
1368.3816 211.51872
1362.8658 205.39519
1355.2473 210.13313
1355.4415 202.58401
1354.2172 195.2144
1360.9562 195.73909
1366.1981 193.05428
1363.7572 186.35515
1366.0345 179.30379
1369.4595 173.44164
1376.0807 169.93985
1384.1432 171.91034
1391.4545 172.84117
1398.7284 171.27144
1406.1521 167.85512
1405.8345 176.08743
1399.7312 181.88039
1393.7703 180.4926
1386.0244 181.0964
1378.274 178.43442
1374.4014 184.99449
1372.69 193.5856
1370.5481 201.22345
1382.1953 209.84557
1387.0167 216.50934
1396.2251 217.88335
1398.2554 211.43637
1391.1624 209.06854
1394.8167 202.36707
1387.7198 199.7626
1379.2781 200.86935
1380.6936 191.51976
1388.5375 189.3875
1396.585 191.89876
1402.8215 198.9305
1402.0607 205.15048
1405.1204 211.65033
1410.0521 205.95602
1416.5509 210.2184
1419.3037 203.06587
1413.286 197.93207
1406.3695 193.56732
1405.1371 186.06602
1413.3622 189.0449
1412.626 181.39398
1414.2194 174.09666
1415.5016 168.1636
1424.2692 169.91724
1428.537 178.48021
1420.9203 177.66931
1422.0853 185.51283
1420.8599 193.43855
1428.3882 195.42247
1428.1 203.80574
1438.1407 198.7649
1450.2588 200.14949
1458.5869 222.3565
1450.6799 253.42969
1460.8395 254.9384
1489.036 248.54776
1493.9384 241.88782
1485.7416 261.9054
1483.167 273.4903
1491.8446 266.48236
1498.8713 273.1263
1491.5466 276.24957
1486.2626 283.00433
1496.6353 283.76556
1493.9148 291.51868
1499.0992 302.5713
1494.1334 312.25375
1506.1193 316.80646
1498.8972 328.40643
1486.3389 332.92953
1490.5876 322.00397
1482.2672 318.01584
1479.8226 308.63452
1467.6658 306.8583
1464.5249 296.1805
1476.7238 298.8795
1483.0961 301.497
1490.2517 304.03552
1484.4377 292.95734
1478.9623 286.84964
1463.2239 286.5084
1455.9393 293.46777
1448.4125 308.26025
1448.2471 299.17282
1442.769 290.39853
1448.6625 289.96362
1453.9677 284.4786
1458.4603 279.3326
1462.5264 274.05533
1457.4775 267.66434
1451.2783 273.7276
1447.6063 279.6128
1443.0829 283.67184
1441.1465 271.8975
1331.0371 281.17673
1332.0052 257.93875
1332.5225 241.30606
1337.1497 233.28809
1334.29 225.40129
1332.9751 214.97902
1338.832 207.45789
1332.2849 202.98909
1337.6095 196.21262
1333.4053 189.74716
1337.9323 181.3017
1331.8528 181.15936
1332.968 173.33763
1339.4545 170.5429
1343.7396 164.64085
1351.9846 165.9284
1354.9381 158.73538
1361.7023 157.94557
1367.4348 153.67471
1373.4097 155.80655
1380.1698 156.77148
1385.8762 153.75058
1390.6715 157.40276
1397.0538 154.44518
1392.9215 148.69481
1385.353 139.90518
1385.1119 146.86914
1378.72 149.70415
1371.9116 147.04912
1377.4127 141.88727
1382.3037 134.691
1389.2191 132.44241
1394.895 136.30028
1391.2485 142.33702
1398.8585 143.19298
1400.9207 148.8832
1405.4269 154.04468
1412.9098 150.90662
1407.7491 147.70288
1407.522 142.59732
1409.7599 137.27374
1415.9818 143.69203
1416.1125 134.96463
1419.9307 128.48993
1415.6675 120.7557
1407.5492 124.69148
1409.5068 130.24596
1402.4883 138.01936
1401.1158 131.46503
1396.6376 126.63229
1393.178 119.17691
1401.0483 119.154
1408.5275 117.75689
1412.308 112.28759
1414.908 106.78285
1413.1624 101.06914
1411.5459 95.6224
1411.5457 89.41888
1406.4226 86.59632
1404.8627 81.41638
1399.7874 77.8955
1393.1095 80.64592
1386.7297 83.54649
1385.084 89.66509
1382.2512 95.0428
1380.3279 101.20804
1383.0935 107.2309
1391.8229 103.90134
1398.2147 100.627266
1387.3503 99.26765
1392.8889 94.89219
1392.2509 88.048195
1398.7759 88.44743
1403.5863 93.58937
1404.9962 99.68272
1406.2883 105.40105
1405.4116 111.68583
1399.3177 109.99213
1393.7024 110.901924
1387.898 111.500984
1384.9763 116.960396
1387.6135 125.22425
1380.2731 127.09413
1372.9458 128.99017
1376.6614 133.9382
1369.9137 136.6672
1365.7526 141.85149
1363.27 148.09909
1356.4573 150.1832
1343.8138 144.50578
1341.0214 151.16463
1347.0947 155.92413
1333.4628 164.61597
1334.636 156.64493
1333.4243 146.09724
1340.1997 137.09857
1332.5668 135.58963
1332.0109 124.62836
1336.4988 115.13913
1338.7417 121.45869
1338.3329 128.96367
1346.1455 128.35028
1353.1796 131.96118
1348.7334 137.81497
1352.1589 145.21442
1359.0978 138.56271
1361.1163 130.57596
1366.7261 127.48398
1371.865 121.15927
1379.2477 119.9984
1376.5829 112.40618
1368.386 113.45086
1359.9431 111.18685
1362.4685 119.85364
1355.3534 123.36912
1347.9182 120.66436
1343.4309 115.67764
1353.0216 113.71653
1346.429 109.740204
1348.7023 104.22294
1350.132 97.90102
1341.8998 96.78273
1340.1704 103.328804
1338.6461 109.44344
1331.4982 114.2133
1332.5022 104.72318
1333.505 96.563194
1333.7189 89.56037
1332.7921 83.32561
1341.545 88.93893
1339.9222 81.05115
1338.8276 73.521904
1332.521 76.63497
1332.5734 69.355515
1332.9833 62.772377
1339.9026 66.522995
1346.3883 62.9428
1347.0715 69.88379
1346.4254 76.53764
1348.021 83.660706
1349.373 91.16877
1356.8367 103.17875
1364.6088 97.15947
1365.8458 104.86273
1373.7399 104.87987
1373.6023 97.03198
1368.8171 91.30139
1363.2603 86.200935
1357.6255 93.956184
1355.9073 85.574745
1354.2703 77.98065
1361.9984 77.51546
1369.366 78.007225
1371.5068 84.79054
1377.304 90.04757
1378.672 82.68402
1384.4059 77.1144
1384.6715 69.1866
1376.4363 74.56222
1369.2051 69.22251
1376.691 66.07774
1375.8163 58.341106
1369.7864 51.68083
1362.9989 47.999146
1360.807 40.53679
1356.9282 32.396053
1352.4468 40.606266
1348.9822 34.500946
1341.0879 34.486
1343.2145 42.00358
1340.2145 48.90624
1347.9755 48.91896
1354.673 48.179375
1359.181 55.651394
1366.0635 60.70381
1362.0143 68.90692
1354.6827 71.09135
1355.7307 63.956112
1351.7709 57.621777
1344.9231 55.29217
1339.0127 58.495342
1332.0771 56.265606
1333.9635 51.08584
1332.9397 44.759327
1334.1277 38.629707
1333.0963 31.909653
1332.3019 24.280998
1338.6248 26.321508
1345.4174 27.787241
1351.3667 25.689548
1350.3483 19.456944
1342.8787 20.576984
1337.143 17.571846
1331.9127 16.095236
1332.0259 8.510168
1337.4412 8.274528
1341.0033 11.81025
1344.7972 14.607531
1350.0162 14.023492
1344.4742 7.1072545
1349.9313 8.503155
1355.6603 7.137703
1356.3278 12.963314
1359.3162 18.020132
1357.801 24.944153
1365.0193 24.089964
1372.2102 28.916462
1365.2894 33.57121
1370.9072 41.11169
1379.4423 38.696045
1380.9987 30.046516
1379.7935 21.196321
1372.7273 18.529285
1366.4282 14.65938
1363.6115 8.117001
1373.6606 8.777532
1381.939 11.156344
1389.532 9.621049
1397.3607 10.288772
1401.4442 17.492735
1388.7706 21.033882
1396.4645 24.418282
1399.3124 31.90179
1389.7466 33.186546
1386.9259 44.266205
1379.1443 49.31101
1384.8472 58.363
1392.4457 65.13601
1393.2003 73.13112
1401.2748 69.09883
1409.7225 68.16619
1408.4432 75.23401
1416.5035 74.36891
1414.7019 81.315704
1418.2151 88.07104
1419.6082 94.97179
1427.2881 98.643036
1420.2024 102.08277
1424.5787 106.54514
1418.9309 113.03305
1424.7198 113.37849
1424.6045 121.624855
1432.1687 127.04655
1442.7893 122.53559
1435.3467 118.82422
1430.8523 113.833115
1432.1545 105.77617
1435.4916 98.16131
1442.6168 97.49685
1449.7715 93.675835
1441.6201 87.09389
1433.6238 88.72146
1426.797 91.19168
1424.357 83.48154
1425.1995 76.172295
1433.6025 80.48124
1433.9784 71.86723
1441.1296 76.53871
1443.7534 68.01224
1449.2115 75.77625
1450.0044 84.27322
1457.3011 90.01421
1456.9456 99.428116
1449.0797 103.62568
1439.832 109.03455
1447.3711 112.96964
1454.5096 118.15938
1456.9719 109.15071
1463.9965 117.44127
1470.5333 122.27445
1476.0161 116.17015
1471.6187 112.16977
1464.8182 109.439766
1464.1812 101.78833
1464.002 94.91726
1470.4607 93.076996
1472.3846 98.49387
1470.885 104.70992
1477.9156 107.71954
1482.8094 114.27482
1493.8062 109.546135
1485.4324 106.31049
1484.9185 98.70564
1478.5426 101.181946
1479.0823 94.45193
1483.4202 89.535
1490.2599 88.8629
1494.2795 83.50721
1499.8768 78.6944
1506.574 76.113365
1507.0536 70.98853
1500.7825 70.52289
1493.445 70.535255
1492.0455 76.67274
1483.9159 75.278076
1486.1116 82.165794
1478.6088 83.53556
1474.6687 88.92925
1469.3191 82.40073
1465.1345 88.00585
1459.4758 81.67896
1457.5867 73.316925
1452.589 66.17038
1460.3535 62.17222
1453.2959 56.167088
1445.8032 59.6064
1438.0101 62.00167
1443.6016 52.300686
1450.0112 48.242092
1458.035 46.65287
1461.7286 53.97549
1469.8502 60.987774
1466.3243 67.61151
1466.3483 75.04428
1475.0514 74.197395
1476.3899 67.39349
1484.7441 67.87597
1490.2587 62.54231
1495.6572 63.622383
1500.4177 62.073067
1503.3818 56.47607
1507.4415 60.72039
1506.7827 65.623314
1511.982 67.97708
1516.9512 69.89654
1519.5464 66.19644
1520.2924 61.171436
1526.5236 60.986347
1527.0765 67.653824
1533.4778 71.99576
1541.6199 72.02277
1549.607 75.043175
1553.1636 68.75778
1546.3704 65.25968
1536.834 63.769035
1538.0854 53.56611
1544.7689 57.815346
1553.4603 60.822796
1552.8893 53.298553
1545.6707 48.38487
1539.6233 44.320232
1532.2263 44.02847
1526.9987 47.280197
1532.0718 56.644024
1525.5651 53.749355
1518.7289 50.361797
1518.1223 55.902687
1513.7194 61.355892
1510.7803 54.786495
1519.1537 44.1087
1524.0072 38.08831
1512.8558 39.363907
1511.6462 47.21396
1505.0938 49.254948
1498.3402 52.32966
1491.8896 53.836494
1486.2161 48.345387
1481.3214 42.5754
1474.5815 35.30814
1475.0385 46.7387
1479.8331 52.756073
1485.2542 58.421413
1478.1094 60.250774
1471.0122 53.910957
1466.3069 47.317974
1470.9045 41.032898
1464.7583 39.416325
1459.2797 38.542843
1452.2255 40.31463
1444.9731 40.342506
1439.2087 44.96348
1429.8099 44.28731
1428.637 50.88324
1436.0151 52.561806
1430.6526 58.5069
1422.7444 54.9844
1422.5155 61.258545
1430.9978 65.56863
1425.4548 68.351746
1419.3431 68.90679
1415.1927 63.91183
1414.2318 57.799385
1414.9556 51.64786
1407.5028 53.157116
1400.5886 50.613197
1406.6713 61.421135
1399.7344 59.632446
1392.4214 55.839054
1393.5323 47.928883
1396.9049 40.12915
1405.0106 44.368298
1405.0687 35.921604
1406.3276 25.848698
1413.3104 28.642239
1411.0408 34.2269
1411.2 40.251316
1412.881 45.790695
1421.2639 48.34129
1420.1025 42.537785
1425.5017 37.682243
1417.6086 36.547607
1419.955 29.78148
1426.5663 30.196299
1433.435 28.431223
1434.0443 37.83056
1440.3171 33.140774
1441.3817 22.591436
1432.312 18.826378
1424.2236 20.986017
1416.6345 21.061031
1410.6882 16.951935
1408.2454 8.714873
1420.8187 10.108958
1432.8035 9.761854
1442.914 9.857175
1448.1476 17.075945
1452.5977 8.386178
1457.5162 13.98618
1465.0236 14.024266
1462.3806 7.4169497
1469.498 8.748824
1475.1895 8.339677
1481.0092 9.67874
1482.0415 18.368647
1473.0864 17.010586
1463.9346 20.625393
1453.9116 23.046812
1447.7244 30.708046
1455.1715 32.484394
1461.1785 27.802435
1466.8772 32.829082
1470.4414 26.163488
1477.8468 25.80503
1486.2563 27.926466
1481.0798 34.42649
1488.2465 37.97293
1494.0825 44.254097
1502.653 42.486248
1503.9067 35.054077
1504.198 26.745872
1513.6986 31.790628
1513.7981 23.485209
1502.1119 18.145542
1495.2318 34.000343
1494.4423 25.05266
1490.7856 17.344912
1488.3843 8.815279
1497.3483 9.555757
1507.2847 8.869869
1512.9801 15.043865
1520.2119 9.342355
1530.9009 8.871613
1531.3286 17.66875
1523.0618 20.054026
1524.7493 29.66652
1535.6677 27.086704
1535.203 35.997654
1545.6196 33.55993
1551.6444 43.0149
1556.1276 35.23068
1566.4167 26.679665
1566.0044 33.551426
1565.7999 40.491295
1562.5271 45.40391
1560.1965 51.030296
1564.0586 57.02388
1571.1974 57.15091
1575.1396 63.87547
1578.996 56.941353
1583.9546 63.09654
1590.7114 63.04498
1582.4974 70.08778
1582.6594 78.36725
1574.3761 80.25903
1577.4519 85.82176
1574.3625 91.44437
1575.5864 98.87497
1569.1543 96.44725
1565.3231 104.32832
1572.3356 106.166756
1579.7181 110.86243
1587.6772 111.176094
1597.318 111.21632
1594.8909 105.31114
1602.5658 104.522545
1606.4786 110.26533
1609.4932 105.033714
1611.3473 99.966995
1612.4894 94.124084
1603.2144 97.29792
1606.2139 91.15922
1603.6155 84.581314
1598.1357 89.939156
1591.4138 92.50387
1596.0482 98.642876
1588.6089 101.11086
1581.5342 103.62073
1582.7357 95.322975
1584.462 88.145935
1589.9697 82.72406
1596.4722 81.26655
1602.0515 77.30554
1590.2233 72.55498
1597.5654 71.842026
1606.3751 72.56418
1610.0281 68.002716
1616.826 66.166504
1623.2229 62.41273
1629.7711 67.3706
1636.3458 73.64801
1640.8367 65.90804
1635.863 58.4569
1628.4358 53.82781
1619.9753 54.31916
1622.373 47.118122
1628.45 43.48113
1634.8334 40.519096
1628.4968 32.369915
1632.3354 25.906513
1636.7454 20.459341
1635.1693 14.593846
1626.3081 14.72981
1626.5298 20.486383
1623.1638 26.729702
1616.7571 22.05867
1610.8839 18.02503
1607.0654 26.492592
1599.7996 31.605484
1589.1743 41.123432
1596.9991 40.084965
1605.2212 41.72976
1609.6667 35.298645
1616.5402 31.228878
1623.9221 36.515118
1618.0376 39.78192
1614.5675 44.539143
1611.7034 48.59537
1606.448 50.66705
1613.6439 56.62517
1609.7598 61.571896
1603.6123 56.8794
1603.4093 65.56766
1597.4808 63.519547
1595.3242 56.018066
1599.1055 48.65623
1590.9752 48.733345
1586.4368 54.94076
1581.342 47.90321
1572.2694 49.43332
1573.8209 40.3865
1577.4247 30.99081
1581.8933 38.872208
1589.5006 31.783707
1593.1279 22.888123
1583.9243 22.351727
1574.4556 20.885548
1563.8514 18.253105
1555.9818 24.388697
1547.2427 22.922268
1540.2014 18.037563
1541.9346 8.992554
1550.8026 12.202352
1558.4827 9.669792
1568.2063 9.720447
1577.1105 10.506064
1585.7192 10.875517
1594.0061 7.62631
1594.7705 14.487208
1601.412 19.81336
1606.019 12.823976
1602.4299 7.9546776
1611.4072 8.015377
1616.5481 10.449101
1620.8889 11.6483555
1625.6752 7.4776144
1632.4961 8.24856
1639.7402 8.538828
1646.5823 9.592209
1654.7186 7.7074757
1662.2513 10.569328
1666.8927 6.969768
1675.2406 7.24202
1682.3993 7.6576147
1688.2433 6.8757954
1687.9231 12.407968
1679.6917 12.3395815
1671.7828 12.462433
1678.8915 17.093842
1680.1438 22.553017
1683.96 26.186377
1676.0864 29.339943
1667.9528 25.367426
1673.2886 20.550268
1666.3312 16.952145
1660.0458 20.34404
1654.5375 14.918112
1651.4346 23.884912
1645.2969 17.783619
1642.3779 26.485857
1635.6505 32.311428
1641.719 35.974556
1649.3689 33.227715
1657.1671 36.384186
1659.0367 28.097412
1666.6924 33.497643
1670.9979 40.73548
1677.2191 36.744667
1683.6813 38.214554
1686.4467 31.766542
1690.3955 24.890184
1686.8782 18.113937
1696.4851 16.063482
1693.7365 8.635443
1700.2117 8.4851675
1706.4486 11.269036
1695.8541 22.789474
1701.8741 24.866686
1709.3308 20.280907
1718.3091 23.147808
1715.8284 30.150602
1716.8903 38.09166
1725.6982 31.46458
1735.5868 25.59303
1736.8363 33.250137
1743.904 30.249573
1751.1069 26.359068
1746.9493 20.601557
1741.1562 17.60967
1733.7118 15.931998
1727.8198 21.71659
1721.4348 15.8813095
1715.3972 9.592758
1727.0726 8.9035
1737.8325 8.52426
1746.788 9.76339
1754.5054 8.505916
1761.8967 9.855406
1769.0474 8.8593
1776.45 9.679483
1783.0355 7.2092404
1784.8148 12.635489
1789.9341 16.748632
1787.8784 23.845312
1780.9354 18.962238
1772.8672 16.722353
1777.5605 25.728205
1782.4929 28.61522
1773.596 31.302326
1774.8564 37.560745
1780.5033 35.704353
1787.6134 32.9675
1784.8518 40.27456
1790.813 40.628475
1789.2917 47.311665
1795.4496 50.800858
1802.3372 49.662987
1797.7299 58.53159
1804.2858 58.619423
1809.6948 53.74672
1808.8613 45.49977
1803.9598 39.40703
1797.5181 43.15685
1795.55 35.8942
1793.5175 29.042896
1796.9043 22.594204
1797.1289 14.814319
1792.4417 8.152934
1802.6119 8.073213
1805.4507 15.997708
1806.6382 23.536171
1801.5802 30.95775
1810.9036 31.508978
1812.2424 38.723953
1822.9036 30.45135
1831.5437 32.97898
1839.8682 30.873615
1829.6064 21.831593
1816.814 23.14535
1812.7063 10.330972
1820.9523 12.96311
1829.2161 9.67787
1840.5747 8.105202
1838.2102 15.152082
1840.3665 22.760916
1848.303 22.298632
1849.4304 14.478541
1851.3741 7.6139665
1858.5544 11.279959
1864.0857 8.1655
1865.2468 17.203724
1858.7683 17.957718
1856.301 23.57466
1851.7706 30.22451
1846.3555 36.118084
1851.742 44.370777
1856.2682 38.87647
1861.5093 31.926165
1864.513 25.723392
1864.4744 39.59062
1862.6343 48.90235
1864.3008 59.485012
1856.6768 56.20468
1850.7234 51.03073
1847.9972 57.78588
1851.4324 64.184616
1858.352 65.645805
1865.3153 69.784805
1860.0837 73.46323
1853.635 72.774796
1847.6492 71.13978
1842.2687 69.58167
1843.273 63.39608
1834.7472 61.413406
1828.4939 69.95016
1832.5559 74.56611
1835.9807 67.88929
1839.3151 75.22814
1842.4106 80.19878
1848.9719 78.43136
1856.9448 79.40488
1864.7932 79.50592
1859.2129 85.704414
1865.3928 87.51792
1863.251 93.640686
1857.416 97.895134
1854.4424 103.81942
1858.8433 109.61613
1864.2468 101.67349
1865.2549 110.3083
1862.1519 116.567795
1850.4622 109.923706
1844.4458 102.35175
1849.4298 95.88164
1854.5101 90.97897
1851.6846 84.7704
1845.0957 87.1321
1841.03 94.41473
1836.4915 87.26604
1833.7231 81.196144
1826.5134 80.53262
1827.3064 88.524826
1820.4998 90.56042
1818.1548 82.61368
1811.9006 75.36475
1821.8152 74.49674
1817.8552 67.59889
1825.6626 63.85325
1828.3237 57.03357
1829.6788 48.420536
1835.3257 52.003574
1840.6284 56.84145
1842.4921 49.915257
1842.7422 42.876057
1835.3809 41.377544
1826.2169 41.31644
1819.1127 39.341465
1815.7585 48.431313
1822.5432 50.81348
1818.3329 57.99595
1811.6926 62.64408
1805.893 67.55502
1798.5312 69.9903
1801.1333 76.836044
1805.046 83.0236
1810.5928 86.9623
1814.8251 94.21511
1813.744 104.62056
1808.7146 97.22903
1802.41 93.62767
1797.522 86.78477
1789.936 73.510635
1787.253 65.66843
1794.0333 64.176315
1789.3013 56.001305
1781.8185 58.15462
1780.2512 67.56001
1776.8137 74.8794
1782.9174 78.91232
1791.4261 81.20508
1788.6533 89.00514
1786.6431 96.45622
1779.391 93.27031
1779.5536 86.02141
1771.8828 82.0756
1770.145 72.12472
1762.1788 71.931404
1755.1664 74.6955
1763.8306 79.69899
1763.8906 87.9204
1771.1222 91.25613
1772.4192 99.48242
1777.1655 108.883514
1769.8685 107.518074
1765.1398 99.08392
1760.0438 94.38485
1754.7507 89.95818
1755.8297 82.8422
1748.3928 81.114716
1747.6375 88.34582
1747.7793 95.6328
1753.2144 98.097275
1758.5945 102.67359
1752.8589 106.109764
1747.8889 111.05545
1749.7725 118.36421
1757.9485 115.17334
1762.5785 108.75303
1767.8954 116.9699
1760.879 124.19769
1752.422 126.93115
1755.9502 135.73932
1749.6018 137.16916
1743.2006 140.40369
1735.8422 141.89055
1739.66 148.00851
1749.7838 145.50856
1752.8021 153.09131
1758.6122 157.67297
1771.5479 167.98262
1766.5603 160.43079
1767.434 151.68216
1766.988 143.49196
1758.7173 145.41133
1763.2386 133.98415
1771.8059 138.403
1778.2212 146.87361
1788.4791 143.64175
1785.9885 153.42833
1776.5093 157.86005
1784.5609 164.75433
1792.1029 159.70694
1796.9977 150.86494
1802.866 142.74991
1795.7493 137.74698
1793.3241 130.26263
1796.6882 124.91704
1792.9379 118.52423
1786.4601 117.998886
1783.3356 125.80818
1785.4355 134.44298
1778.1095 135.38763
1770.8656 127.7985
1775.8586 120.18201
1780.9082 114.373314
1787.4701 109.71619
1780.1658 101.51496
1789.8062 103.40201
1795.1133 97.040146
1802.1138 103.522865
1796.8339 110.583954
1806.6196 110.80588
1802.3854 120.306046
1805.611 132.33206
1812.1234 125.00335
1809.6075 117.92539
1816.2891 114.83067
1822.9636 114.75734
1834.7959 117.74703
1830.1863 112.54961
1823.5789 106.31177
1822.5618 98.65472
1831.9517 95.1495
1833.1696 103.0404
1839.1188 108.75058
1844.8335 113.420235
1841.6902 119.03405
1838.419 124.97447
1836.8931 130.18355
1836.4197 137.38947
1837.3065 144.42291
1842.6301 133.74667
1848.0122 130.61685
1853.3 126.86809
1845.5071 124.848404
1849.8635 119.88773
1855.0508 116.41914
1857.916 122.580765
1865.2844 121.37418
1860.2458 128.44649
1865.44 128.46611
1866.0256 135.84799
1861.2164 136.40865
1855.1509 133.63585
1849.5502 138.21965
1843.2401 141.42456
1847.8499 146.84253
1854.7444 151.24309
1855.9875 142.24551
1863.8071 144.67151
1863.7145 153.4656
1857.2676 160.20364
1864.8785 163.69054
1859.1736 170.17163
1864.8833 176.01141
1856.9585 179.80338
1864.0122 187.15689
1854.9612 190.10019
1861.9324 197.50226
1863.481 206.37608
1863.4465 215.23276
1854.4929 214.5081
1853.4385 205.49965
1847.9791 198.25072
1845.1188 189.22318
1847.6445 180.96648
1851.3649 167.77232
1848.1046 159.33047
1841.0706 167.7596
1836.1031 185.69638
1836.6256 195.8403
1832.5138 205.1705
1842.1411 207.31358
1844.7484 216.2602
1833.7076 217.42838
1820.6143 221.43091
1825.5623 212.51997
1819.5059 205.68611
1814.9314 198.92201
1825.3489 198.30911
1825.3162 189.64035
1813.0243 192.64922
1803.5756 196.93698
1793.2094 200.06718
1799.3605 204.554
1802.6218 212.00818
1808.5966 205.91814
1814.7959 213.3502
1809.6829 220.52473
1803.0728 225.95154
1799.1165 218.05646
1794.6826 223.95338
1791.3401 230.03357
1784.0854 285.08734
1797.3003 297.1777
1810.6909 309.37903
1833.9722 342.99173
1840.0503 366.83624
1841.1775 382.678
1842.3406 393.5167
1839.6179 401.64917
1836.2034 411.2732
1838.6797 419.41678
1832.9869 419.95334
1832.002 427.97675
1838.6643 428.95438
1845.3306 433.45258
1854.7356 432.32343
1849.6049 425.77017
1844.1091 421.49606
1849.7317 415.58698
1842.8312 410.66125
1848.4312 404.28973
1851.9941 396.15497
1851.1569 385.08682
1863.102 386.25107
1861.2065 394.45535
1863.2709 403.2636
1855.3748 408.1869
1859.8215 414.44833
1865.5662 414.58258
1856.7036 421.7626
1863.915 426.37973
1861.6992 436.45792
1851.3025 442.76358
1840.4478 441.07742
1831.9176 436.15128
1828.7029 443.99237
1839.9832 450.67258
1826.9456 452.18747
1828.0448 459.5044
1819.5074 463.396
1815.6287 456.17368
1810.1296 465.99826
1803.1641 473.36658
1794.3406 478.72455
1792.8287 486.05255
1787.7646 483.63818
1784.792 487.6634
1788.7188 491.07098
1786.646 498.14127
1781.5232 499.50046
1776.0554 496.03018
1774.1205 501.7345
1768.6754 504.73615
1763.1566 508.40198
1757.3903 513.3091
1760.5758 534.0756
1765.4652 538.95013
1770.2095 532.915
1778.6641 530.0725
1785.6477 535.39465
1788.9064 531.419
1797.6302 531.2302
1795.7676 535.6888
1802.5542 538.65466
1797.9691 545.3742
1793.938 540.7831
1789.4556 546.5997
1787.084 541.5129
1780.6287 540.70734
1774.1523 539.55554
1769.5221 546.16095
1776.368 547.83264
1778.6056 554.23413
1783.8354 549.5239
1788.6472 554.63794
1793.9161 550.59485
1800.2087 551.3334
1792.8728 559.3912
1786.4487 561.52893
1780.4617 560.23126
1773.1289 562.5918
1782.8755 568.2927
1790.1066 567.0185
1795.0477 570.73376
1794.855 576.6194
1792.0627 582.33984
1785.9946 580.72485
1787.509 574.34686
1779.6543 576.93616
1776.7886 570.5668
1769.0336 569.459
1770.756 576.7002
1757.9016 581.033
1765.5002 582.99286
1770.9233 584.0624
1775.7301 581.92316
1780.1191 583.91144
1783.0623 586.91504
1787.0684 589.2466
1792.8689 590.1319
1791.9159 595.0947
1797.6969 591.4567
1799.6646 596.7919
1806.0085 601.3937
1813.574 600.14465
1815.1023 605.90686
1805.2681 609.4099
1798.0911 603.4596
1792.8802 609.32056
1784.7986 612.641
1777.4695 617.48706
1768.5281 622.1791
1777.2595 625.5168
1772.5989 631.9034
1779.2334 636.5803
1771.328 640.37244
1773.4314 647.3974
1771.385 654.37103
1766.7938 658.78955
1760.7394 660.81616
1760.6566 652.1677
1763.3672 644.6212
1754.0123 643.5273
1748.3495 648.6922
1753.041 654.94165
1753.9985 663.32477
1747.7471 663.64215
1740.5521 665.6549
1745.2354 656.98254
1737.7463 657.0081
1729.2703 654.24084
1720.5732 653.1333
1714.9071 657.74915
1712.1106 646.5448
1707.123 652.9435
1705.6458 660.0705
1702.5549 667.93225
1710.1055 665.34076
1716.7046 665.9806
1722.908 664.22754
1727.7805 669.2596
1732.8639 663.2717
1736.3152 673.341
1727.6455 678.8698
1720.1592 679.85754
1714.8358 673.2684
1712.1891 682.0127
1720.0762 688.24445
1726.3187 692.1921
1731.0594 700.05853
1739.0684 696.7454
1734.4452 689.8148
1736.8263 682.52966
1744.6816 678.42316
1747.7148 670.8979
1754.6091 675.5682
1752.0812 683.69525
1745.3977 688.79315
1747.4507 697.08185
1755.3756 692.8938
1756.5681 701.1125
1757.8988 709.2977
1764.7162 711.9716
1770.1168 708.45746
1775.298 703.27124
1764.8655 702.906
1764.5254 693.21375
1760.5728 685.6382
1769.6335 683.1947
1774.521 687.713
1771.4979 696.61066
1779.5332 693.1846
1782.2598 684.8273
1788.8135 680.9785
1786.6333 673.9233
1779.118 676.289
1771.6416 674.3816
1762.6748 677.9437
1758.4307 668.4655
1765.0012 670.0264
1771.2834 664.5894
1778.764 666.38696
1779.9592 656.1948
1786.4324 662.7825
1795.3662 658.23584
1789.7205 652.4316
1782.4586 647.7484
1784.8845 641.88135
1787.8036 635.44855
1793.0894 640.90466
1797.6434 645.0082
1805.0636 641.7938
1800.0847 651.6533
1807.8145 651.7493
1814.7644 654.8762
1813.6051 643.3666
1822.1763 647.55646
1831.2739 651.2515
1832.3713 642.3561
1822.052 639.0547
1823.146 631.79156
1815.8508 631.6494
1807.1705 634.12616
1809.6417 626.7626
1800.9143 624.4078
1798.7834 632.8803
1792.1447 629.7733
1783.5328 629.38196
1786.128 622.5395
1792.7865 620.1346
1799.1614 615.3878
1807.457 618.50946
1814.0089 613.0952
1815.5837 621.03546
1821.9641 623.53265
1827.2028 627.0206
1831.2845 633.8263
1839.6885 635.8779
1846.458 631.00635
1838.7449 626.9522
1832.3909 624.47076
1836.7438 617.88464
1831.1172 604.8058
1831.386 611.9415
1828.9208 618.4649
1822.4058 616.1155
1822.8231 609.19214
1824.3 601.08405
1818.3345 595.7553
1824.3909 592.43164
1826.3274 585.16406
1817.1365 580.8585
1816.363 588.12506
1810.1117 594.7605
1809.4187 588.6347
1806.6006 583.8214
1803.7178 591.5337
1798.9911 584.9455
1801.0886 579.1443
1802.261 571.7472
1797.7983 564.7334
1798.9214 557.98627
1805.4865 563.15796
1810.489 557.28204
1804.8705 554.9301
1804.5657 544.8532
1809.8065 548.5258
1815.7966 553.41583
1821.641 554.77997
1826.5867 559.3338
1823.4535 566.0815
1815.9744 562.57806
1809.2725 569.1131
1809.3538 577.4198
1816.2448 571.50806
1823.571 575.45746
1830.6348 571.2361
1832.4363 579.8081
1838.321 587.77625
1842.4753 580.1763
1850.076 575.34143
1844.2327 566.7913
1838.948 572.2536
1832.1996 564.31274
1837.4731 561.9352
1833.095 555.4129
1827.8611 551.08295
1825.2302 545.08307
1817.582 545.89905
1811.718 539.9793
1806.6418 533.539
1815.6317 532.789
1821.053 538.3775
1824.5332 531.12787
1832.1298 531.6023
1838.1577 528.07886
1845.9476 529.81683
1852.261 524.06665
1862.8418 519.7999
1863.335 527.87836
1863.6038 537.4654
1862.0742 546.1068
1864.1853 555.7529
1856.5281 555.72034
1852.1749 548.2837
1855.6274 533.0068
1851.1272 539.94025
1843.2393 544.67566
1840.0796 537.34534
1830.0219 538.8605
1834.1898 545.3042
1838.5435 551.1232
1841.761 557.9631
1846.1731 552.7521
1849.0828 559.80255
1853.4946 565.34155
1863.9336 565.4217
1858.2805 571.1542
1864.4773 577.13995
1857.7322 582.0659
1863.0442 589.17285
1863.6411 598.2748
1864.4824 606.96344
1865.7112 615.1725
1860.596 614.4902
1854.8215 613.7124
1856.6367 605.35657
1854.4521 596.20215
1850.2941 587.0418
1844.3986 594.3628
1832.4468 594.28455
1838.2057 601.17847
1847.1147 602.208
1848.1011 608.74133
1839.9205 610.29645
1848.0417 615.40173
1843.3865 620.6867
1850.3986 622.8045
1857.6936 621.6628
1864.7715 622.3707
1860.3186 628.8503
1865.8624 629.36096
1863.6707 635.73706
1854.1632 629.26404
1853.8823 636.47565
1858.783 641.6461
1865.0946 643.8087
1862.4851 650.8695
1862.9768 657.8103
1857.4792 663.324
1864.9631 666.5982
1864.9114 676.3332
1864.552 685.3097
1857.5496 685.7517
1851.6726 690.21136
1849.3339 683.33044
1856.8253 678.6658
1859.0835 671.6736
1852.0752 670.5217
1846.8052 676.7795
1837.8833 681.3848
1837.7036 672.85474
1837.4237 664.07733
1844.3478 668.0804
1849.0283 662.057
1851.0471 654.8221
1853.4523 647.8945
1847.7416 641.254
1841.5217 646.35187
1840.5251 655.355
1830.5033 661.5258
1822.7408 656.78906
1823.054 665.62494
1813.4269 664.08997
1804.7504 660.43475
1796.8553 665.18506
1791.5786 669.6863
1799.5542 673.55493
1804.9753 669.0185
1811.8367 672.96216
1820.4066 672.51636
1829.7898 674.79565
1821.9055 679.8617
1824.6597 686.3435
1831.4636 687.11444
1838.0715 691.393
1834.0898 696.2862
1827.2916 696.817
1822.0012 693.48535
1815.027 695.73645
1815.5513 687.4085
1812.2578 680.7137
1804.5536 680.194
1795.5894 678.96765
1798.8528 686.02045
1791.092 687.55505
1797.9021 693.23083
1806.669 689.4329
1807.2732 697.5217
1798.7852 699.92975
1798.3673 707.2599
1805.4934 705.9676
1810.2273 713.34863
1813.0365 704.6607
1819.9946 702.81165
1825.669 705.1085
1831.7397 702.94525
1834.7415 708.6301
1836.1885 714.44495
1839.5864 720.56635
1848.3954 725.382
1847.8959 718.7489
1843.6833 714.3667
1843.2996 707.9581
1838.7632 701.8712
1845.1047 701.1422
1844.6516 694.4828
1843.6566 687.2821
1851.4839 697.608
1857.6746 693.9199
1864.9087 694.4047
1861.3466 700.7587
1865.384 707.889
1858.4941 707.2315
1852.1292 703.97784
1850.8896 710.5006
1854.1249 715.80316
1855.1675 721.5606
1860.3096 714.1021
1865.4745 718.40717
1861.7145 723.3371
1856.3567 727.7899
1851.9303 732.48065
1844.3597 732.3978
1840.1494 726.58844
1836.3784 733.9025
1826.5155 733.51373
1825.8993 742.5066
1825.5314 749.9797
1818.8896 748.89215
1817.3513 742.82336
1820.213 736.8689
1816.8406 729.2509
1822.6876 724.6438
1823.0388 717.58997
1831.4579 727.7474
1831.0793 720.2058
1827.4548 711.68634
1818.1453 712.01996
1812.7872 721.37805
1802.8242 724.4332
1807.1375 730.3196
1812.6035 735.4226
1809.9344 741.6585
1803.8291 739.4757
1798.1389 736.64636
1794.8582 729.44916
1794.7485 720.74945
1802.7227 715.79004
1794.613 712.69604
1788.0326 715.1232
1789.5927 707.2515
1790.7498 700.59454
1782.6082 705.9337
1782.4961 699.1225
1788.435 693.5737
" />
</g></g></svg>
