<?xml version="1.0" encoding="UTF-8" standalone="no"?>
<!-- Created for Inkscape (http://www.inkscape.org/) -->

<svg
   xmlns:dc="http://purl.org/dc/elements/1.1/"
   xmlns:cc="http://creativecommons.org/ns#"
   xmlns:rdf="http://www.w3.org/1999/02/22-rdf-syntax-ns#"
   xmlns:svg="http://www.w3.org/2000/svg"
   xmlns="http://www.w3.org/2000/svg"
   xmlns:sodipodi="http://sodipodi.sourceforge.net/DTD/sodipodi-0.dtd"
   xmlns:inkscape="http://www.inkscape.org/namespaces/inkscape"
   width="3200"
   height="800"
   id="svg2985"
   version="1.1"
   inkscape:version="0.48.1 r9760">
  <defs
     id="defs2987" />
  <sodipodi:namedview
     id="base"
     pagecolor="#ffffff"
     bordercolor="#666666"
     borderopacity="1.0"
     inkscape:pageopacity="0.0"
     inkscape:pageshadow="2"
     inkscape:zoom="0.35"
     inkscape:cx="1600"
     inkscape:cy="400"
     inkscape:document-units="px"
     inkscape:current-layer="layer1"
     showgrid="false"  />
  <metadata
     id="metadata2990">
    <rdf:RDF>
      <cc:Work
         rdf:about="">
        <dc:format>image/svg+xml</dc:format>
        <dc:type
           rdf:resource="http://purl.org/dc/dcmitype/StillImage" />
        <dc:title />
      </cc:Work>
    </rdf:RDF>
  </metadata>
  <g
     inkscape:label="Layer 1"
     inkscape:groupmode="layer"
     id="layer1"> 
     <g>
<path style="fill:none;stroke:black;stroke-width:2px;stroke-linejoin:round;stroke-linecap:round;" d="M 
1386.6167 355.9914
1383.5638 356.28967
1379.7814 357.9849
1379.9036 362.07678
1383.8258 361.00977
1384.0743 365.54962
1381.0625 366.888
1377.2202 364.97247
1373.5668 364.3051
1369.9897 363.32462
1367.8027 365.83194
1367.3595 369.48743
1363.7817 371.8072
1364.9971 375.03384
1362.0997 378.10065
1360.692 375.292
1359.4229 372.6784
1360.0018 369.9039
1361.7864 367.52097
1364.5782 367.139
1364.9047 363.51413
1361.7478 363.63635
1358.6025 362.53482
1355.9935 364.17194
1358.8177 365.78635
1355.7516 368.45798
1355.7106 372.05692
1352.0491 373.55417
1348.3992 372.6924
1351.8798 369.44583
1349.2446 367.3359
1352.6506 365.4416
1352.7076 361.89795
1349.3712 361.93735
1349.3566 357.61118
1350.5022 354.14886
1353.0403 358.07333
1355.454 361.0593
1357.3921 359.36737
1356.5004 356.63663
1354.0979 354.3225
1351.9617 350.57324
1348.3973 349.04306
1353.3164 347.20187
1350.071 344.21188
1350.1163 339.80914
1350.5028 335.25662
1349.2642 330.36508
1352.5526 330.40213
1355.5194 328.59833
1354.4275 325.8519
1351.8324 326.6374
1348.9463 325.08392
1352.6406 323.12723
1352.9502 319.86288
1349.6229 319.61304
1351.3066 315.91348
1354.3004 317.29575
1354.9751 313.45746
1350.4592 311.90042
1352.579 308.4908
1349.4124 305.2847
1352.1697 303.56238
1349.4888 298.94836
1353.84 296.84177
1357.9066 294.87125
1358.2456 298.75323
1355.4761 301.46317
1356.0397 305.24945
1356.5371 308.43582
1359.7328 310.91174
1358.6711 313.86536
1357.2899 316.73965
1360.113 318.08752
1363.2887 318.43497
1362.7167 314.8293
1363.7019 311.5418
1367.1047 311.21304
1370.1522 311.81308
1371.4077 314.54343
1372.7875 308.6188
1369.0857 308.07977
1366.259 304.62943
1364.562 307.2961
1361.4678 306.61923
1359.8303 302.80084
1363.3666 301.77866
1364.658 297.4291
1369.0894 297.2024
1367.8618 300.92154
1371.2585 303.52472
1372.7292 299.58395
1377.1143 296.41058
1381.1282 295.2983
1378.9877 299.7363
1376.1501 302.4111
1378.8477 304.9842
1375.1328 305.70566
1377.1123 308.04614
1375.4044 310.2629
1374.2826 313.212
1377.5474 312.5877
1380.1348 311.19302
1380.0121 314.83478
1377.369 316.29504
1374.0734 317.85452
1371.0829 318.05408
1368.4565 318.98108
1366.7196 315.54926
1365.6315 320.41833
1367.6108 322.56808
1371.145 322.5357
1373.7218 321.36243
1377.2961 320.18918
1380.1086 319.21817
1379.7974 323.58658
1376.6174 324.4557
1374.0343 326.64764
1371.0708 328.68393
1373.8679 331.68298
1377.8741 329.251
1377.3141 333.48865
1379.5181 335.71024
1377.5267 339.16553
1374.5039 337.40848
1371.8271 335.74527
1369.6809 333.28104
1367.2236 330.96045
1366.3152 334.94922
1362.622 334.04538
1362.8082 330.68283
1362.0271 328.07492
1365.065 326.31647
1367.5881 327.9123
1369.0787 325.0811
1363.6792 322.49783
1361.6926 325.26044
1359.1019 324.26987
1359.7314 321.3524
1356.7256 319.84753
1355.9967 322.64673
1356.8745 325.59732
1358.934 327.18317
1359.4492 330.0765
1356.7871 331.31216
1354.5065 333.61502
1358.7153 334.31992
1360.0354 338.24854
1355.7574 338.1749
1354.1324 342.81967
1358.3444 343.3159
1361.8575 346.431
1360.9674 350.07635
1357.0792 348.6471
1357.2224 352.09778
1359.7095 354.21524
1361.0847 356.88873
1360.409 360.08698
1363.746 359.11652
1366.5187 360.70276
1369.0052 359.60068
1367.1178 356.1008
1371.2969 357.9639
1372.8378 360.95715
1376.1881 360.1471
1374.4379 355.77606
1377.5575 354.30942
1381.3953 350.72678
1378.4076 349.5632
1378.8413 346.5924
1375.5797 347.67114
1373.5654 351.3692
1370.695 354.59958
1369.3323 351.8716
1363.9694 354.03265
1365.3243 349.97226
1366.0483 345.5991
1363.3269 342.03012
1364.4216 338.3692
1369.3239 338.7773
1368.0065 342.09842
1370.2451 344.31152
1369.0667 347.6678
1372.351 347.49277
1373.8197 344.30548
1372.5411 341.2524
1376.5555 343.78036
1379.5747 343.0696
1383.4043 348.0721
1384.5789 351.68796
1387.1616 352.7073
1388.1549 348.79016
1390.5383 351.9347
1393.7981 353.1006
1395.023 349.46634
1391.4003 348.08795
1394.1648 345.32745
1397.3806 346.73352
1398.988 343.2226
1400.9717 346.4592
1399.6012 349.6157
1403.6088 349.29245
1406.8291 347.6077
1404.7449 345.82318
1403.2373 343.5966
1405.6632 340.85178
1408.2346 343.201
1409.8889 348.014
1412.2534 345.1248
1412.4955 340.37143
1416.6644 343.02646
1421.1705 343.38254
1425.4125 342.25302
1426.8352 345.4588
1424.679 347.64102
1422.6368 350.2545
1418.6345 349.73532
1414.3553 348.83127
1413.7035 353.71375
1411.2731 351.54745
1408.2896 351.77536
1405.3301 351.8964
1402.3118 352.72476
1399.5875 353.5181
1396.8986 352.03125
1396.7855 355.09668
1394.35 357.14706
1395.8639 359.95416
1396.2842 362.64017
1399.6049 363.68677
1397.7625 366.6145
1401.9664 367.35364
1403.0742 364.12372
1406.5834 365.24014
1410.5428 364.62338
1413.7917 360.81393
1409.3917 361.5098
1405.2765 360.93344
1400.7385 360.46234
1397.9299 358.10504
1400.5765 356.73492
1403.7839 357.60138
1406.0137 354.88287
1408.6804 357.2843
1412.1013 357.3331
1415.6858 356.7297
1418.2257 353.89523
1419.084 358.45337
1417.637 362.91104
1414.73 364.66684
1413.146 368.08136
1417.2097 368.08676
1421.5581 362.3972
1422.4841 358.7298
1425.9801 360.16464
1429.4371 361.82834
1432.9388 359.1189
1432.731 352.9022
1428.8824 355.70108
1423.0325 354.57303
1426.2637 351.4655
1429.4377 349.4143
1430.6653 344.69116
1432.2991 347.29865
1434.807 349.7787
1437.562 347.22946
1438.6317 352.1291
1436.7156 356.99695
1442.2578 355.36023
1447.1825 357.57068
1446.5293 361.71237
1442.6001 360.98355
1438.7333 362.04434
1434.1548 364.2106
1433.9111 367.50876
1434.3545 371.30905
1431.5963 372.3758
1428.1624 371.68228
1429.5098 367.24432
1425.238 368.60068
1425.6388 364.4421
1421.5433 366.0702
1420.811 369.21307
1420.4929 372.65323
1424.1786 372.31073
1422.9686 376.1102
1426.2579 375.38147
1429.7488 375.69333
1425.9957 379.33078
1429.4155 379.7214
1433.8998 376.81894
1438.0815 377.0517
1437.9182 381.21884
1442.6506 379.91412
1445.7002 383.3721
1448.8116 381.19696
1446.3739 378.8246
1444.0651 375.75256
1444.4707 372.20038
1440.8466 373.9127
1436.8862 372.8956
1438.0869 369.37793
1440.2467 367.2642
1443.7546 369.0467
1444.012 364.97763
1447.8508 367.55307
1450.104 364.11276
1452.4117 368.14453
1450.4207 372.71982
1448.23 375.66232
1451.6825 377.89453
1453.5825 374.52777
1455.3555 378.19965
1455.7487 382.43292
1452.3545 381.74634
1449.6587 384.6235
1452.0483 386.87607
1453.5394 384.84155
1456.3696 386.0802
1454.6976 388.55527
1456.1216 390.99915
1458.3263 388.5224
1458.8944 384.1839
1483.2375 385.72638
1486.8369 385.0136
1486.1665 381.0956
1489.9288 382.3967
1490.5603 385.7974
1488.4253 388.39597
1485.4385 388.44153
1482.9747 390.41953
1481.549 394.63446
1485.4679 394.94717
1487.5371 397.80692
1488.4186 394.3063
1487.3276 391.50287
1490.9514 390.03308
1493.1935 388.14615
1490.996 392.3135
1491.0312 394.96237
1493.7059 393.42355
1494.0063 391.06992
1496.6519 389.9371
1497.061 392.89465
1496.0178 395.26633
1495.1022 397.7634
1493.2621 396.14194
1490.919 397.88342
1493.3267 399.9013
1496.0103 400.6855
1495.4197 403.82858
1494.8854 407.27872
1498.2756 406.7553
1501.3811 407.50037
1503.1543 410.8442
1503.9556 413.75342
1503.4198 416.54938
1506.8899 412.1547
1506.5433 409.27014
1504.9706 407.16647
1503.1105 404.97665
1501.6768 402.6498
1499.2816 403.94275
1498.4832 401.24277
1497.8132 398.04492
1500.0045 395.89972
1500.1095 392.8602
1499.5775 389.95798
1504.6119 388.23303
1503.1444 391.02914
1503.5663 394.28052
1503.2856 397.53375
1501.2767 399.6321
1504.3901 401.47794
1506.3661 399.96487
1506.7467 397.02734
1506.7251 394.3024
1506.3413 391.76654
1507.835 389.48837
1507.6261 387.01672
1510.5348 385.06192
1510.7366 388.99777
1510.0273 391.905
1509.6796 394.71548
1511.3351 396.5889
1509.6279 399.53076
1510.7572 402.9178
1507.0237 404.12494
1509.3154 407.12643
1512.877 407.19968
1513.9261 404.1846
1515.5629 400.8735
1514.6849 397.29807
1517.6924 394.32376
1514.067 393.13153
1513.9014 388.288
1513.6769 380.83167
1511.4329 377.66568
1509.9844 374.0724
1508.8099 371.05902
1512.1602 370.15042
1515.7255 370.50677
1513.5454 373.85406
1516.7107 376.2562
1517.1565 372.69968
1520.0602 369.51694
1524.9958 366.96542
1525.447 363.16464
1529.3568 364.15366
1533.8748 362.87155
1537.2883 361.88464
1539.9712 363.42294
1543.1586 363.67056
1546.0402 364.61713
1548.1819 367.51303
1551.0411 365.99307
1548.9473 363.1273
1545.3291 361.19083
1541.9048 360.33505
1541.396 357.29913
1543.1565 355.01608
1545.0933 357.6458
1546.3042 354.02426
1545.0667 350.33453
1541.9983 351.58414
1539.1107 353.87695
1538.2551 358.65808
1534.2432 359.01102
1530.966 360.65198
1527.8832 360.364
1524.0007 358.08353
1521.5671 360.58084
1518.9382 361.86362
1521.5623 365.5165
1517.7355 366.02878
1515.8958 367.9714
1512.9479 367.1309
1512.6425 363.98642
1509.8997 365.85568
1508.3756 367.84668
1505.948 369.40173
1503.3223 369.6254
1500.329 371.34702
1497.8434 368.45163
1496.4436 371.78656
1498.7634 374.70663
1494.8477 375.8613
1497.611 378.58774
1501.6968 377.49936
1503.5121 374.4326
1506.6367 374.06128
1507.3147 377.4082
1504.8545 379.49527
1508.7794 381.63876
1506.2072 385.079
1504.5068 383.0762
1502.5833 385.63046
1501.3485 388.1771
1496.0986 386.63208
1498.9576 385.82977
1500.9941 381.9809
1497.2444 382.8671
1493.676 384.04947
1493.8724 380.43555
1490.8127 378.26828
1487.8651 376.57214
1488.0859 372.63235
1491.2493 373.9933
1493.2002 371.67105
1489.2191 369.18222
1493.2655 368.45248
1492.5934 364.99292
1497.0859 364.86365
1495.6646 361.21408
1498.2655 358.2799
1502.0154 355.02402
1506.4828 353.1101
1509.3938 350.15866
1514.586 350.01437
1517.3113 352.69467
1512.7356 353.40176
1510.6641 356.87372
1506.8307 358.60403
1502.6654 359.8812
1501.1534 364.92874
1504.6925 364.90747
1507.2275 363.33972
1510.3031 361.68817
1515.969 363.54868
1514.7648 360.4066
1517.0906 357.82025
1520.2926 356.76996
1522.615 353.5895
1521.691 350.15546
1521.6848 346.28607
1518.1729 347.6665
1515.3699 345.38205
1518.8223 343.41534
1525.485 342.7891
1528.7188 345.82544
1525.241 346.87302
1527.1539 350.41772
1527.2 354.1217
1527.2694 357.19904
1530.9576 356.30606
1535.3955 355.04922
1532.7476 352.53485
1532.787 348.36517
1532.5442 343.03482
1537.2146 343.34338
1537.7731 349.32443
1541.3436 347.28543
1542.1394 342.29712
1545.1788 346.01874
1548.2559 342.38577
1552.7229 341.54816
1559.597 345.01624
1563.3661 346.91052
1562.3435 349.8522
1560.1387 352.20694
1557.2113 348.75577
1555.5533 344.83136
1552.3201 345.67877
1549.1375 346.041
1548.079 348.9051
1551.1694 349.13608
1549.432 351.9957
1549.8352 354.63806
1550.8032 357.0763
1548.3464 357.26413
1548.4799 360.28934
1551.741 359.65533
1553.192 361.87274
1554.0942 364.40964
1554.863 366.77747
1557.5613 367.3474
1560.1656 365.33563
1558.3787 362.72424
1556.0872 361.22122
1556.2887 357.4195
1553.5897 356.27094
1553.1635 353.28867
1554.186 350.18454
1557.0504 353.7899
1560.8536 355.9648
1559.0963 358.88187
1562.8839 358.8657
1562.0828 362.07114
1565.2708 361.2158
1568.371 360.46317
1568.9581 363.8077
1570.5863 368.938
1572.6411 366.32635
1577.7705 365.94174
1574.28 362.43207
1571.5726 359.94122
1569.6877 356.79376
1570.9569 354.30246
1567.2944 353.89325
1566.6235 357.7867
1564.6205 355.75415
1563.2595 353.15036
1565.9642 350.89493
1568.6173 348.08972
1569.699 351.39514
1574.1992 352.9001
1574.908 357.26596
1579.1963 357.0074
1579.2546 361.34702
1582.4617 364.65402
1582.1418 369.47043
1585.41 373.01178
1587.994 375.71036
1588.8518 379.8913
1589.7871 383.33908
1585.4004 386.10828
1588.3167 386.79218
1591.2892 387.31805
1588.4916 390.0917
1591.0574 391.84012
1591.1433 395.34766
1592.5398 398.62296
1593.9875 396.3418
1595.9823 394.31125
1596.8611 397.47897
1599.9099 395.63794
1600.1848 399.21982
1603.2959 397.70114
1606.6492 397.91516
1610.1846 396.08994
1611.0386 399.29892
1614.4742 397.48016
1618.5625 397.3874
1618.0409 400.5294
1622.5533 400.58502
1623.2067 397.6225
1627.3197 399.18173
1631.9166 398.8511
1637.1392 400.30283
1642.5083 398.7425
1644.3958 401.8475
1641.9661 403.6129
1647.0277 405.66388
1647.8959 402.2371
1647.8862 398.8254
1645.192 395.58957
1643.0396 391.8759
1645.3383 388.16943
1643.3402 386.07968
1644.4108 382.37543
1641.1504 381.71567
1642.773 378.70926
1645.8281 379.11987
1647.6195 376.2418
1650.347 373.2336
1652.6588 370.01404
1654.0637 365.82904
1658.1721 365.4449
1656.9731 362.2264
1658.7893 358.91827
1661.9281 358.74866
1661.2693 362.73938
1664.9008 361.52304
1667.971 359.53793
1670.6194 357.6825
1672.274 361.25995
1668.5667 362.7665
1669.3386 366.71295
1665.591 366.16272
1661.7959 366.5887
1658.4272 368.49072
1656.1135 369.90573
1655.4055 373.03723
1654.103 375.59518
1651.3989 377.314
1649.8612 379.9347
1647.51 381.9991
1650.9904 383.327
1654.0442 381.47958
1654.2021 385.20993
1657.4023 386.85205
1660.1693 388.69904
1657.9457 390.70615
1654.1136 389.55493
1650.8386 387.21796
1647.1835 385.097
1648.101 389.0911
1646.5581 392.61288
1650.5217 391.84552
1651.9175 395.4047
1649.0742 395.90463
1651.8196 399.65134
1655.2069 401.82037
1655.815 397.667
1653.8872 393.42365
1656.9769 393.97098
1660.1343 394.29654
1659.6953 397.28244
1659.5952 400.12366
1663.0734 397.03537
1664.7903 399.46982
1666.022 402.672
1662.4202 402.93878
1663.8492 406.73248
1668.802 404.98438
1672.1759 406.6751
1672.0005 403.02722
1668.8478 400.28918
1672.6085 398.91467
1672.841 395.29044
1672.6255 391.37088
1668.7139 392.55582
1667.7234 396.38367
1664.6982 393.9248
1662.7465 391.12216
1666.0996 389.27853
1662.6355 386.52524
1663.4622 383.37872
1661.4282 381.17795
1658.3608 383.41534
1658.111 380.11948
1655.5824 378.55536
1658.0566 376.02985
1659.1519 373.1926
1660.7705 370.4494
1664.1544 369.73166
1667.2373 371.4981
1665.898 375.6621
1663.1382 373.22766
1662.2925 376.44504
1660.3796 378.38425
1664.853 379.51425
1668.2688 379.63025
1666.9446 384.7955
1670.5769 387.0018
1674.164 386.93167
1671.7107 382.79312
1672.2616 378.69107
1669.0022 375.10165
1672.008 374.3565
1674.4877 372.13763
1671.1747 370.356
1673.6041 365.1337
1681.2152 365.6422
1683.1525 362.1268
1679.2988 360.05164
1677.0894 363.12674
1674.4956 358.93164
1673.1343 354.20703
1670.5044 354.4675
1667.7572 355.71066
1664.8201 357.30002
1665.3462 354.18515
1662.97 353.32663
1660.6864 355.55685
1656.5533 353.69235
1655.0547 357.70728
1652.4772 355.44846
1649.1295 353.3698
1648.5001 358.29352
1652.8859 360.65686
1650.195 362.4343
1646.7825 363.5687
1643.1747 363.6501
1649.617 366.94205
1647.6261 370.18222
1645.0244 373.02145
1642.2188 374.78745
1643.8818 368.696
1639.9557 366.3578
1636.2758 364.89224
1634.699 367.64896
1632.1389 364.96384
1630.6962 368.62817
1629.2241 365.8099
1626.2612 366.3656
1624.2095 363.50485
1623.7418 358.51
1619.7164 358.29562
1620.0325 362.4101
1621.2463 365.47574
1622.1582 368.42422
1616.3665 366.14307
1615.6693 362.05945
1610.8273 362.57785
1602.3275 365.9924
1589.7129 369.07614
1596.162 367.681
1607.6055 365.36575
1612.873 358.94003
1609.9607 354.2436
1613.3284 354.2283
1616.9176 356.12698
1622.2633 354.7794
1625.6421 354.32272
1623.7294 350.03766
1619.2908 347.82883
1620.2733 351.7081
1616.9861 351.9697
1614.9414 349.48273
1611.5895 349.58005
1609.654 345.87558
1613.4033 345.40735
1614.3519 341.92175
1617.2462 344.44394
1621.5721 343.76483
1623.8816 346.66446
1627.0547 344.64047
1628.9316 349.89212
1630.5844 344.78992
1632.8108 342.6794
1632.7166 347.4589
1635.5168 349.48727
1635.671 353.03757
1632.1849 353.83676
1629.2036 354.07358
1627.6597 357.1122
1626.7644 359.8993
1628.4612 362.8865
1631.1338 358.80734
1633.6765 362.05222
1634.8702 358.3458
1638.8643 358.24805
1638.7402 362.19357
1643.0511 359.36276
1644.6733 355.87662
1639.4211 354.72012
1640.104 351.44366
1644.5624 352.4509
1643.6731 349.87836
1641.8258 346.92883
1638.6818 346.7468
1636.982 343.9947
1642.7036 343.66138
1643.8296 340.4039
1643.3079 335.2756
1646.9983 333.10663
1644.6783 329.8824
1643.2355 325.48627
1647.3041 326.33685
1646.6486 321.22812
1642.9734 318.00027
1643.7836 313.23483
1650.7433 311.07626
1655.1954 314.05685
1659.8328 314.79343
1657.2002 311.0857
1658.2268 306.9822
1661.73 310.58572
1662.3391 306.1262
1665.7599 307.39365
1669.0641 305.88083
1673.793 305.73727
1671.456 308.93533
1673.0671 311.7102
1674.6608 315.36618
1673.1796 318.4078
1671.0254 316.44785
1668.8461 314.75098
1668.6481 311.59323
1665.5659 310.6533
1664.9427 313.94138
1663.1353 316.97064
1667.2124 317.58234
1670.4941 319.98264
1666.867 321.26324
1663.2849 320.62766
1659.5034 319.14197
1654.5438 317.48477
1648.6764 315.5953
1651.3551 319.70935
1655.9708 321.044
1654.9541 324.9293
1651.279 323.32602
1651.6414 327.90668
1651.1259 331.93625
1653.988 334.48212
1659.0199 334.315
1656.9242 331.2629
1657.1603 327.7538
1661.0258 330.99637
1661.6082 327.4335
1659.563 323.8586
1663.953 324.29965
1667.9054 324.76926
1670.961 323.48727
1674.161 323.01553
1671.8937 326.6617
1669.6094 329.49753
1672.1558 330.48108
1674.7543 331.1196
1673.098 334.55234
1670.2603 332.7286
1666.4104 327.93353
1664.4786 331.24005
1667.4233 332.00323
1665.776 335.16556
1662.78 335.19977
1661.0035 338.44675
1657.2799 337.57166
1653.313 339.19037
1648.4353 337.02728
1649.3907 341.23315
1647.6221 344.27835
1645.6968 346.88364
1648.7361 349.35855
1651.5822 346.75845
1653.2648 351.03653
1655.792 348.1216
1658.8008 349.55417
1659.6428 352.73886
1661.869 350.78812
1662.3599 348.18274
1659.075 345.688
1654.2622 343.62338
1657.9866 341.52206
1662.7368 344.82285
1662.4308 341.69583
1665.5458 339.4467
1668.1675 336.93124
1670.5277 335.35516
1671.3022 338.0185
1674.2355 339.0556
1673.3523 342.75458
1670.3629 340.9708
1669.8527 344.6616
1666.6194 343.05075
1665.6172 346.46692
1667.9849 348.3962
1665.2916 350.55743
1668.0709 352.49374
1670.9722 351.36685
1670.767 348.3517
1674.4408 351.56943
1673.909 349.0613
1673.1752 346.01083
1676.4302 344.88602
1677.3806 347.9396
1679.5747 345.8814
1681.6208 348.37128
1680.0442 350.48932
1677.1448 350.41632
1677.7888 353.26044
1675.8896 355.8938
1678.9476 356.13376
1681.7109 355.8336
1682.806 353.21936
1683.3872 350.14816
1686.4888 351.6848
1687.4153 355.1404
1684.6956 357.78656
1687.9159 361.44006
1686.9727 365.79367
1690.8064 365.89114
1694.5903 366.39072
1698.8412 365.77917
1702.775 367.5061
1703.1907 364.6692
1706.7843 365.82715
1709.8556 364.006
1711.6588 366.678
1714.3066 364.72723
1718.0297 365.96024
1720.6649 362.9667
1717.1423 361.91296
1712.7755 361.58563
1709.756 360.41757
1707.1821 361.99652
1704.9441 361.4845
1702.4653 361.78076
1700.2969 363.21967
1698.1235 361.93268
1695.9248 363.1174
1694.138 361.15
1691.8757 362.63608
1691.9537 359.1585
1689.8242 357.32358
1690.7633 353.1901
1693.237 351.09702
1696.0261 352.16415
1698.7168 353.2523
1700.9087 351.4209
1702.0854 348.29648
1698.7612 348.64838
1695.4875 348.02744
1691.9705 347.44675
1689.1824 348.89505
1686.3102 346.9239
1683.1385 345.9728
1680.8203 342.80563
1685.3342 343.193
1689.1208 344.09354
1692.9681 343.4935
1696.8491 344.6961
1700.8071 342.384
1701.0724 345.31152
1704.792 345.85104
1706.3987 343.03183
1709.5548 345.51144
1712.7993 342.6148
1713.4485 345.8604
1710.9601 348.45932
1708.9583 350.90317
1707.0679 348.37265
1704.7869 351.10605
1703.3434 353.9133
1698.6372 355.68948
1697.4071 357.31448
1694.2493 355.49118
1695.2246 358.85883
1697.4098 359.6757
1699.8926 359.2075
1701.9913 359.43375
1701.5889 356.40454
1704.044 358.49603
1705.0674 356.1218
1707.3894 357.77713
1707.4608 354.1473
1711.3678 353.07126
1710.5197 356.88657
1714.639 358.78766
1719.3861 358.44226
1719.0142 354.54932
1716.1704 355.25165
1713.3381 355.6751
1715.3461 352.41208
1717.3485 350.2601
1713.586 349.7273
1715.9742 347.3241
1717.7183 344.37222
1721.6558 345.1427
1719.8234 348.1625
1720.4724 351.49002
1724.096 351.40744
1727.4608 351.90805
1730.4998 352.27704
1733.7649 349.71094
1733.8032 352.5607
1733.7352 355.3698
1737.1213 353.04465
1740.4965 351.59323
1740.8989 354.8489
1744.7375 352.30917
1747.4524 354.55844
1750.406 352.81088
1754.9265 352.04962
1755.0751 355.36337
1760.117 354.74155
1761.7711 361.3823
1766.3501 361.41727
1766.5797 366.0743
1764.1449 364.41306
1761.6002 366.7825
1762.4102 371.12073
1763.8954 375.41562
1767.0387 379.07028
1771.6472 385.34933
1773.761 389.0337
1770.1631 381.5451
1766.9174 373.8973
1765.5565 369.06247
1769.3225 367.842
1769.0275 364.00528
1771.8383 365.27432
1772.4496 368.4387
1775.5082 365.85776
1774.6995 362.72363
1771.3717 361.6568
1773.024 358.9376
1776.5222 360.20853
1776.4777 356.6475
1776.3895 352.88577
1773.0724 354.84802
1769.5399 355.18408
1768.9824 358.59348
1764.614 357.9535
1765.9015 353.42557
1762.713 350.57907
1767.0532 348.72885
1771.18 351.365
1772.1212 347.59286
1775.6832 344.22995
1779.5685 343.91916
1782.9674 343.93307
1785.9082 345.73297
1788.8293 343.7286
1792.746 344.26746
1796.5991 341.02237
1800.146 343.03848
1800.0493 347.89978
1797.3975 345.7448
1794.7119 348.23447
1793.5868 351.9418
1791.308 350.17203
1789.4568 347.79486
1786.4312 349.74258
1783.2323 350.02292
1781.0474 347.77472
1778.1007 346.7387
1776.607 349.43973
1780.3939 352.25873
1783.9204 354.7808
1780.0153 356.7075
1780.1964 360.75314
1778.7227 364.38382
1777.9824 367.7792
1781.7584 367.59702
1781.9983 364.24048
1784.243 360.0251
1787.5109 357.61545
1789.321 354.36655
1793.2269 355.0307
1796.7264 355.69296
1797.0823 351.35373
1803.4802 348.92694
1806.3071 348.15466
1806.605 351.0271
1808.1377 353.04135
1810.5709 353.91254
1813.1072 354.69635
1812.7451 357.10333
1813.6599 359.61432
1817.0751 359.73532
1816.4729 356.72177
1816.6082 353.50745
1819.6173 351.22556
1816.2408 349.1064
1813.4768 351.6053
1809.9531 350.66882
1809.2529 348.02905
1807.6572 344.98114
1803.9363 345.26706
1803.98 341.58282
1807.7334 341.7322
1811.3444 344.5991
1813.0856 347.69308
1815.5262 344.6263
1813.6088 341.0576
1818.4033 341.84628
1820.05 345.38794
1824.9503 344.30972
1832.4072 343.5304
1833.0017 348.4947
1828.7994 346.31885
1828.6489 350.47305
1823.6521 349.7669
1825.429 354.36935
1820.2333 355.81894
1823.044 358.55527
1820.1033 360.3418
1822.5468 362.43137
1821.3787 365.2214
1820.1704 368.06763
1817.4014 366.21112
1817.9773 363.13086
1814.2151 363.85535
1810.1633 364.50266
1810.5146 361.59274
1809.4867 358.3829
1807.7614 355.8273
1805.0713 353.84955
1802.1202 352.21112
1799.3094 353.74765
1802.0365 355.74265
1800.1029 358.22873
1803.1005 360.79648
1804.9219 357.67844
1806.7483 360.48157
1805.6902 363.68732
1800.8997 363.1433
1797.8052 361.30118
1793.6714 362.95438
1794.9675 358.9576
1791.4088 358.56314
1789.4282 362.05283
1785.8198 364.0524
1788.2732 367.36984
1788.8429 371.494
1790.1941 375.13602
1788.2976 377.69467
1791.3816 380.27487
1788.3994 381.73465
1790.864 383.93173
1792.8472 386.85596
1793.2958 391.40866
1790.3428 389.74448
1788.9426 386.43942
1783.5686 394.89096
1781.6128 398.0391
1776.8622 394.67355
1776.8531 391.4567
1773.7003 397.46765
1774.8696 400.0961
1778.3746 397.83322
1777.5946 400.3569
1777.5574 402.87024
1774.4982 402.58334
1774.4778 404.6191
1776.9626 405.8079
1779.0059 405.6845
1781.2971 404.46573
1781.0187 401.35086
1784.3167 401.14017
1785.6124 397.9429
1788.0925 395.34116
1791.3535 394.1489
1792.8424 397.75146
1793.3906 401.60388
1788.7974 399.9409
1789.4216 404.05002
1785.0762 405.02512
1782.1143 407.57513
1784.5968 410.017
1787.3468 412.83496
1791.0679 410.46823
1788.1212 408.0538
1791.7634 407.2912
1793.9978 405.25314
1797.2871 403.08438
1796.7168 397.73328
1797.2932 393.92346
1802.2732 391.5747
1800.4222 395.66284
1802.6074 398.01733
1805.9695 398.83273
1808.0195 401.07254
1810.9468 400.7422
1813.7568 400.20096
1816.9587 401.18768
1819.395 403.12103
1822.0472 406.02206
1821.5992 409.29074
1822.5575 412.19458
1818.7859 411.16403
1818.0293 406.6793
1816.1299 409.05203
1815.1868 411.98093
1810.75 412.4959
1810.2461 409.76758
1813.1709 408.88132
1814.3872 405.52402
1812.2854 403.3827
1810.7747 406.77206
1807.8693 405.98206
1809.5264 403.79602
1806.2477 403.14987
1803.5781 401.48395
1799.0757 400.0797
1801.0201 402.55545
1802.1166 405.20267
1799.6558 405.5671
1796.747 406.55554
1795.1504 409.59396
1797.9749 411.3278
1798.1172 408.50287
1800.2881 409.0079
1802.5155 407.61325
1804.623 405.4152
1806.949 408.52298
1807.4116 411.19424
1804.471 412.35245
1804.5254 409.22458
1802.3883 410.38608
1800.8191 412.1904
1797.2893 415.14288
1794.9425 413.31406
1791.819 413.4277
1789.7427 416.46408
1786.2474 418.94116
1785.9204 423.98267
1783.4773 427.85825
1781.3501 431.73898
1780.7255 434.9749
1784.3419 438.75107
1787.3445 442.46298
1791.0531 445.13693
1787.6414 448.60922
1791.6346 450.87863
1794.508 447.78784
1797.2817 445.09933
1799.8251 447.7626
1803.5383 449.88702
1803.3353 445.5687
1807.0312 446.73746
1810.0098 444.8801
1813.3364 441.88232
1817.5421 445.01657
1819.6228 448.11252
1823.9917 447.42496
1821.1115 451.18277
1818.5095 453.82056
1813.9073 453.74225
1816.3674 450.59302
1814.2125 446.68106
1811.6572 450.0858
1808.3524 450.3641
1805.8293 452.99332
1809.8765 454.1289
1814.2417 456.75595
1817.095 456.70425
1819.7692 458.3138
1821.7294 455.49045
1824.1226 453.56573
1825.7771 451.03107
1828.363 449.0358
1830.6252 446.54776
1827.1948 444.20395
1824.0859 443.11655
1821.1184 444.57794
1817.7725 441.42902
1821.0812 440.149
1818.3811 437.43
1820.4882 434.50717
1823.2921 436.9016
1825.7444 439.5686
1829.6279 440.7173
1831.5964 443.24863
1829.1647 437.40967
1827.143 434.64566
1824.1521 433.3728
1827.3022 429.31528
1829.865 426.50446
1834.0737 427.56705
1833.9333 424.67017
1831.6777 423.1771
1826.5015 424.32663
1828.956 422.26807
1828.5857 418.2749
1828.1411 414.75446
1831.4006 416.1699
1831.6765 419.84006
1834.6775 421.0024
1837.0825 418.08325
1834.2327 417.31686
1832.4961 413.59067
1834.0361 410.94757
1836.8613 410.15942
1840.3683 409.4523
1838.1772 406.74765
1838.7856 402.98087
1842.8777 402.19028
1843.3062 398.60904
1839.6143 399.21744
1838.752 395.9739
1836.4976 392.6235
1834.188 389.5861
1832.1448 391.8353
1832.4982 394.9521
1835.2454 395.80435
1836.2158 398.37357
1834.6868 401.04474
1834.9856 404.24066
1833.7922 407.6211
1829.9966 408.17673
1830.8596 410.99512
1827.1282 411.36963
1825.2876 409.0743
1826.6047 406.4515
1825.8645 403.66763
1830.4388 404.93228
1830.5281 401.78745
1831.9592 398.1837
1828.6343 397.78757
1826.0138 400.03268
1822.6343 401.37448
1819.4867 398.34927
1821.3352 395.03052
1815.8043 396.0662
1812.4423 397.07687
1810.6589 394.12363
1809.3671 398.33994
1807.1681 395.8475
1804.2402 394.52786
1806.9641 391.49094
1811.5188 390.33362
1813.8905 392.61737
1817.2405 391.89804
1821.2416 391.4182
1824.9592 395.69504
1828.8715 394.04547
1825.8073 391.33438
1829.7368 389.04407
1832.4097 386.15176
1830.9539 383.233
1827.7738 385.10934
1828.8606 380.73447
1829.1794 377.5539
1824.1364 375.9737
1825.3745 372.78326
1827.9332 374.60852
1831.5105 374.53772
1832.9674 377.46796
1833.816 381.58002
1836.9316 378.81927
1837.4872 381.9091
1836.5295 384.50378
1836.6289 387.5051
1839.1062 389.22153
1841.8645 391.0336
1839.5923 393.0352
1842.3466 395.3239
1844.8381 393.23163
1845.5562 389.6447
1846.5615 386.31097
1849.6018 386.1913
1847.9585 382.91147
1842.6201 386.8341
1840.02 384.86737
1840.677 380.77744
1843.3154 382.64294
1845.2081 380.00574
1842.5723 377.08682
1839.5693 376.50546
1839.3813 372.58536
1836.4614 375.54904
1835.3342 372.9228
1836.1123 367.9548
1833.3411 370.55795
1829.5886 371.73254
1830.8254 368.91086
1832.3384 366.22104
1828.6622 364.3067
1828.2242 366.8337
1827.66 369.38428
1825.5211 370.2623
1822.7715 369.60663
1824.7075 367.0655
1825.3093 364.51843
1825.4635 361.61694
1827.0518 358.72336
1829.2427 356.6596
1831.4666 353.63766
1833.8 356.61295
1831.7141 359.82516
1828.4613 361.2152
1831.0581 362.876
1833.9739 363.1927
1837.1746 362.57388
1838.7885 365.25607
1840.4414 368.12167
1843.0125 370.54883
1844.1351 373.90915
1845.2173 367.3713
1847.0957 363.35678
1847.0125 360.52393
1842.4746 359.48016
1842.8828 364.7423
1840.4116 361.6372
1835.3921 359.87704
1837.8748 357.75885
1839.446 355.04544
1835.4336 352.80588
1837.4468 347.72217
1839.2706 350.68353
1842.1532 352.36154
1843.0051 349.05698
1846.104 351.72757
1849.5308 352.16553
1846.6421 355.11014
1844.459 354.34286
1842.9246 356.53836
1846.242 358.01523
1849.1002 355.91513
1850.7731 359.72495
1852.2103 363.22015
1856.227 367.74478
1853.1952 367.16623
1849.0717 365.78452
1850.1094 368.8235
1847.134 370.5749
1848.8021 373.11954
1852.2554 374.04825
1853.158 370.83542
1857.1879 371.839
1855.4114 374.03613
1857.8145 376.45428
1858.7278 379.91254
1855.0364 379.83282
1854.7488 377.01352
1852.3015 378.2065
1850.1799 376.1659
1846.509 376.41714
1848.654 379.41946
1851.5916 382.10242
1853.1523 385.431
1855.5798 383.42865
1856.252 386.75195
1855.2212 390.02753
1852.0106 388.93976
1848.9846 390.43314
1847.8911 393.22208
1846.5056 397.25803
1847.6753 400.72818
1852.0559 401.39554
1851.8646 398.34067
1850.2902 395.70377
1852.0745 392.36652
1855.3157 394.20444
1855.8918 397.6593
1856.4805 400.96933
1854.8547 404.49838
1857.6296 405.66684
1855.9395 409.34845
1851.8362 410.01978
1848.9543 410.30173
1846.8792 411.96432
1847.3569 407.22986
1850.4656 404.9111
1846.4929 403.97806
1842.1836 405.8509
1843.9578 408.784
1842.0571 412.65454
1844.4893 413.02612
1847.5103 415.238
1850.8656 414.87094
1854.0955 413.5002
1857.1971 414.7701
1854.8301 418.1661
1857.168 421.98672
1853.742 423.80426
1850.7842 419.0896
1849.793 422.53214
1849.2649 426.30615
1846.062 425.0774
1846.5111 428.50635
1843.8057 427.95532
1841.4851 425.17477
1843.083 423.00122
1845.6577 421.5183
1846.9055 419.04694
1844.574 416.24887
1841.9238 415.8069
1839.2952 413.2275
1836.0537 414.4252
1839.2812 416.6202
1842.2543 419.02173
1840.574 421.96573
1838.1804 421.23746
1836.971 424.82178
1839.1953 426.82846
1840.3057 429.60104
1842.0239 431.59766
1841.5651 434.15292
1844.6462 435.7841
1847.1482 436.9896
1846.2188 439.61752
1844.239 441.6528
1846.6914 443.22662
1848.845 441.03857
1851.3174 441.65894
1850.1079 437.5883
1853.3049 436.19995
1851.0508 432.7481
1848.2786 434.38718
1845.1823 432.29938
1848.447 430.3641
1852.2299 427.64996
1856.582 427.40396
1854.8083 431.16086
1856.992 433.66675
1857.623 437.09326
1856.379 440.05527
1853.2471 439.85352
1854.8235 443.04904
1858.2216 443.68112
1855.804 445.8211
1852.6038 445.05475
1849.5386 445.11856
1851.0729 448.04343
1852.4692 450.51266
1854.4069 448.20288
1858.1792 447.8868
1855.103 451.7276
1857.9 452.90878
1856.3188 456.3419
1853.4636 454.33786
1850.8967 455.68365
1847.707 454.67294
1849.6709 452.05475
1847.6443 449.22446
1844.2478 454.30353
1844.3062 450.947
1844.5955 447.70224
1846.4167 445.9575
1842.7556 444.1179
1841.7849 447.73276
1838.6674 446.496
1838.7881 442.02603
1841.7461 440.07565
1841.5327 437.3054
1839.0542 435.88647
1836.8308 437.76456
1834.6521 432.88998
1838.1628 432.81143
1836.7551 429.33267
1831.681 429.73273
1830.0288 432.60284
1832.9443 436.11392
1834.3417 440.90543
1834.8218 444.89102
1835.7262 448.0839
1838.0472 450.3751
1837.8547 453.7527
1840.8966 453.0363
1841.6753 457.00137
1838.8997 457.75836
1836.0762 455.80597
1835.5999 459.06598
1836.3491 462.5306
1839.775 460.89304
1843.3494 462.73672
1844.3481 460.41452
1844.9224 457.16562
1847.813 458.60065
1850.7833 459.33835
1853.68 459.35675
1856.4661 461.8548
1853.356 465.89966
1848.6676 463.18887
1844.9648 465.73727
1840.635 464.49445
1837.789 466.43423
1834.1411 465.61826
1832.3223 462.84262
1831.8522 459.62848
1832.0425 456.40665
1833.1926 453.88297
1835.0862 452.00714
1832.0247 449.60556
1829.2043 452.64633
1827.0354 455.6162
1823.3322 458.82516
1818.5392 462.08154
1816.3369 460.32486
1814.0208 459.40598
1811.469 457.8006
1808.9165 459.8877
1807.3918 456.8903
1803.9413 457.0716
1805.128 460.09503
1802.2316 462.33707
1803.1151 465.6355
1805.944 463.40732
1812.5176 462.0253
1809.4855 463.4852
1806.7484 467.62613
1802.9287 469.54288
1799.7063 466.74106
1796.0566 468.31247
1792.1863 468.36618
1792.7314 465.66388
1796.4626 464.88144
1799.0188 462.89645
1799.7318 459.53204
1800.7727 456.98248
1802.0874 453.67276
1799.7372 451.51196
1796.416 451.24698
1797.6685 455.5208
1794.1384 454.79904
1792.4841 457.89053
1795.9216 460.42685
1792.9512 462.49252
1789.8616 461.21265
1788.764 464.6451
1789.0411 468.06525
1791.5728 471.3711
1786.9128 471.65305
1780.5673 467.78253
1778.0923 464.71286
1774.1978 466.50302
1770.902 464.18243
1766.1154 461.7944
1768.5691 459.28903
1764.9563 456.74933
1762.3623 459.06363
1759.6255 454.82858
1758.7444 450.22787
1762.865 449.53815
1762.6918 453.1253
1766.3998 451.27744
1765.1497 446.3977
1769.3176 447.32346
1770.57 451.7483
1768.8728 455.08624
1771.7235 457.60727
1774.6262 457.98837
1773.5447 461.8833
1776.5206 460.64096
1779.0751 459.47018
1781.8546 461.01358
1781.7502 464.1816
1784.8097 466.55234
1785.81 461.49323
1783.1835 456.78683
1787.6316 458.19336
1788.7205 454.60904
1784.1003 452.1141
1784.1979 446.12784
1780.3206 442.11612
1776.1978 444.65964
1780.6174 447.169
1779.5817 451.36288
1779.8643 454.99298
1777.0483 455.80396
1773.5911 454.1629
1775.6251 451.22037
1776.9015 448.30185
1773.0676 448.35812
1772.2511 444.8296
1772.365 441.45566
1773.0277 437.88092
1777.7452 437.95215
1774.2385 434.20578
1771.0562 431.75986
1771.7166 428.50885
1770.6193 425.29086
1770.861 422.14893
1772.66 418.46027
1769.878 418.56134
1766.5504 418.31216
1765.9248 415.4523
1769.8245 415.26642
1770.9819 412.6522
1773.2473 411.7224
1773.8986 414.99536
1776.0286 418.0085
1774.8915 421.82666
1774.2164 425.75845
1776.6777 430.89084
1779.958 427.8475
1777.4552 425.83545
1778.7173 420.56714
1779.8052 423.71216
1782.7489 424.6502
1782.8501 420.89908
1783.7974 415.86203
1780.5012 417.23666
1778.3523 414.98502
1777.2588 412.42413
1781.5016 412.4838
1779.3765 409.50107
1777.0321 408.5774
1775.6847 410.72827
1774.0416 408.81015
1775.2063 406.70364
1773.0166 406.34766
1769.8374 409.14743
1771.2987 407.7617
1771.2955 404.39807
1772.1431 401.13925
1769.3169 401.39908
1766.2888 401.74768
1768.1423 405.01556
1764.3826 404.2789
1760.0298 406.96048
1762.057 409.7408
1764.0448 407.40878
1766.6835 408.355
1768.1921 411.29257
1765.4318 412.06577
1761.6708 412.26138
1757.8547 411.86325
1755.4686 415.67368
1759.9608 415.64438
1763.2363 414.64337
1763.0518 417.9212
1759.7903 419.43765
1757.0074 422.743
1755.8445 419.1628
1753.5701 420.8541
1753.6531 424.32745
1752.8065 427.15707
1754.2368 430.3081
1751.3748 430.52002
1751.2166 433.97092
1754.2573 433.33145
1753.6418 437.1354
1756.2611 438.46002
1756.7417 435.1608
1757.7917 432.49594
1757.5563 429.78497
1755.5173 427.69162
1757.4757 426.0918
1760.3823 424.87915
1761.2551 422.43805
1764.0085 421.666
1767.5455 422.0278
1764.9299 425.74747
1766.8439 429.54596
1763.5676 429.377
1760.2859 427.77026
1760.3917 430.8016
1762.6692 432.9733
1765.3894 433.2793
1768.4756 434.00854
1769.2976 437.17706
1765.5237 437.6355
1767.97 440.38565
1767.6829 443.75388
1764.3367 442.0541
1762.3386 439.0245
1762.4163 436.1274
1759.8561 434.40292
1759.3079 437.55783
1759.4028 441.7168
1760.5823 445.55283
1756.2598 446.40308
1752.2314 448.2534
1755.2522 442.2758
1752.1531 441.21802
1748.7416 439.42905
1743.35 440.80093
1737.6108 441.027
1729.118 441.86465
1733.7831 443.51212
1740.7935 446.53125
1748.0159 444.77222
1746.6185 449.183
1741.1975 450.2478
1735.8224 449.59283
1730.8768 449.42618
1726.4841 450.7463
1722.0001 449.67975
1724.4873 444.55127
1721.5024 442.30933
1718.0485 445.39365
1717.9246 450.6065
1721.0266 453.35703
1718.3917 455.3212
1720.9453 458.43716
1720.4834 463.40298
1721.5731 467.51212
1717.9548 466.06442
1714.0471 464.63565
1711.1511 462.97363
1710.9163 466.63376
1707.0059 465.21054
1704.5496 461.28464
1701.6075 458.6498
1699.821 455.28506
1703.408 454.86728
1708.4818 460.19122
1706.4053 457.17746
1706.6614 452.59912
1709.0244 448.99448
1710.7043 451.92853
1711.0869 455.88632
1711.9917 459.56656
1714.8734 460.98666
1717.2222 463.1439
1718.2781 460.18546
1715.5175 457.42438
1715.0658 453.1197
1714.0338 448.63718
1714.2096 443.95663
1710.4609 445.34433
1706.7183 444.5196
1705.3342 448.22476
1701.9401 450.46027
1702.3752 445.19937
1698.105 447.00644
1697.769 451.09396
1693.6594 449.87817
1693.6183 445.60538
1689.6077 445.3443
1689.063 448.8176
1690.0454 451.92145
1686.3567 452.1849
1684.8998 449.9658
1683.8613 453.93018
1683.8029 456.5695
1680.9677 455.82462
1678.5092 455.22833
1675.4486 454.73755
1672.6022 457.03864
1669.134 458.08786
1673.6091 460.8047
1676.5983 459.2189
1679.4929 459.84567
1682.7765 460.2784
1685.803 462.29868
1686.3069 458.24478
1687.8457 455.10425
1690.1547 457.35538
1692.6515 454.8846
1696.3538 454.45688
1696.8578 458.17584
1692.7964 459.17236
1689.298 460.88742
1689.5837 463.98862
1692.94 464.21103
1696.001 462.0018
1699.9375 463.0261
1702.722 467.38852
1698.2137 466.0877
1694.4746 467.6232
1689.7958 469.33145
1684.9067 468.50098
1686.4559 465.73312
1682.5226 464.09772
1678.3389 463.46036
1680.3286 466.55792
1679.6647 469.80875
1676.5845 467.1517
1674.855 463.94034
1672.228 466.34195
1670.0813 462.4004
1668.254 465.41293
1663.684 465.37375
1659.8999 465.02008
1663.255 461.85092
1666.4916 461.01303
1664.5397 456.96948
1660.5847 460.07956
1657.1276 460.87256
1658.4133 457.25952
1660.9983 455.8002
1662.3766 452.8422
1665.4935 453.04102
1669.0718 453.35385
1672.6942 452.83545
1671.0309 449.34528
1669.7524 445.76108
1665.8416 444.967
1667.792 448.5218
1664.5896 448.9221
1661.2576 445.86057
1661.9404 442.05322
1658.5514 442.27255
1660.1333 438.51944
1663.718 438.66357
1665.6932 441.53296
1669.5543 442.2127
1673.2871 442.30963
1673.2258 445.50046
1673.9692 448.34528
1676.6262 449.39047
1678.5992 451.6481
1681.7506 451.57907
1680.21 448.8815
1680.9153 445.87418
1683.0159 447.65787
1686.0807 446.886
1686.0693 444.00958
1682.9666 444.24396
1683.2009 441.27817
1679.9436 442.82446
1678.1786 446.36075
1676.7826 443.56345
1678.5553 439.39288
1675.3035 439.9467
1672.0092 438.55548
1674.8779 435.81598
1672.809 432.39005
1675.3022 429.38574
1672.824 428.31973
1670.9877 426.42343
1672.819 425.06085
1675.9022 425.3115
1673.1368 422.4029
1673.62 419.53305
1673.6069 415.33176
1670.9043 417.29346
1670.4246 420.73398
1670.1963 423.5394
1668.9237 425.7334
1668.4738 428.15298
1670.5449 429.59097
1668.3223 432.04425
1670.0398 435.3543
1667.982 438.2778
1665.7213 435.5607
1664.584 432.99805
1661.3248 434.00986
1656.871 436.33224
1657.447 433.35327
1658.7433 430.82104
1658.7556 426.5733
1661.768 426.85007
1662.2207 430.24176
1665.2546 430.60504
1666.5638 429.00943
1666.6151 426.20303
1664.4226 427.48746
1660.5182 423.69443
1659.5896 418.38818
1655.9673 420.571
1657.4092 423.55673
1655.9033 428.24728
1652.8174 428.65927
1654.4845 431.7669
1653.7859 435.15607
1650.1014 434.30832
1649.9541 431.68063
1649.8729 428.91348
1649.4342 426.05832
1650.8245 423.15186
1653.9993 424.5001
1652.904 419.83072
1654.2434 416.3961
1650.2085 414.8272
1652.9607 412.34814
1655.0042 409.70822
1658.488 410.91
1657.1335 414.12277
1661.2728 414.38947
1664.481 413.76617
1664.0386 416.76276
1663.6158 419.32837
1663.0352 421.70435
1664.2819 424.5511
1667.0271 423.4698
1666.7472 420.8106
1667.5167 417.4026
1668.0681 413.93756
1670.6875 413.01144
1671.7439 410.21216
1668.4135 408.76422
1665.9712 410.66495
1662.4556 410.4172
1660.1813 407.71603
1658.6693 403.63333
1656.9823 406.35977
1653.3452 406.38492
1650.7319 404.33627
1650.3029 409.8408
1646.4619 409.51913
1643.1934 409.21555
1645.9751 413.50986
1643.4883 416.06052
1645.95 418.6211
1648.9717 418.31573
1647.323 422.20395
1643.3689 420.06418
1643.7114 424.27585
1646.7858 425.08896
1646.8029 428.44864
1644.6755 426.7705
1643.2172 429.59494
1646.8184 432.54694
1644.287 434.3565
1645.3783 436.93124
1647.5089 440.26202
1651.041 441.30368
1648.47 436.3247
1650.8672 438.07828
1653.7433 439.26343
1656.409 439.1021
1654.2965 442.56696
1656.527 445.4819
1658.2318 448.1979
1661.3688 449.56882
1658.4269 452.36456
1655.0947 452.43365
1655.8362 455.52597
1653.432 457.54752
1651.5801 453.7507
1647.8513 450.938
1651.5977 450.1649
1654.8358 449.24435
1653.0098 445.80972
1650.023 447.4863
1649.2981 443.6655
1645.2408 443.21442
1647.3076 446.14508
1644.7185 447.66266
1585.4802 447.88605
1583.5679 441.11508
1583.947 434.8186
1583.5548 428.47964
1584.804 422.77808
1583.2732 417.55273
1586.2915 416.7689
1584.5042 412.40622
1579.3501 411.40796
1575.4863 411.4142
1572.0657 411.84155
1572.7936 408.68442
1569.2201 408.99042
1568.2357 412.3365
1565.8397 410.42734
1562.4491 411.2712
1557.9335 410.26035
1559.9702 407.4117
1560.5989 403.73093
1563.3373 403.41562
1565.9403 403.32455
1564.1522 406.93082
1567.4315 406.4769
1568.4297 401.61478
1568.7448 398.73044
1565.4781 399.95578
1563.1791 397.6533
1566.4368 396.0453
1568.1818 393.07614
1569.6967 390.02646
1569.714 387.49652
1572.9387 389.911
1573.4657 392.86765
1574.5327 395.31363
1570.3398 395.29523
1571.661 397.9647
1574.0259 400.63135
1574.9637 397.95786
1577.626 397.71304
1577.3551 399.95102
1577.0154 402.40988
1573.9954 403.76205
1571.5446 401.78876
1569.0548 404.23825
1571.6586 405.86777
1575.9938 405.5262
1575.5674 408.22354
1578.6451 407.60828
1581.0195 409.22592
1583.5586 408.68427
1586.8524 406.11798
1586.2869 408.9436
1588.8757 410.9925
1590.185 406.8124
1592.7751 403.14224
1590.1476 403.30865
1589.6284 400.7068
1589.5107 398.174
1587.9143 395.84372
1588.2605 393.2772
1585.5981 392.2176
1584.9581 389.8339
1582.8975 388.23508
1580.8966 386.46457
1578.3024 388.1788
1580.7897 390.2706
1581.9191 393.2883
1584.592 395.07574
1586.2085 398.3347
1585.5123 401.16934
1587.4493 403.19757
1583.4757 404.65192
1579.6589 404.85498
1580.0994 401.9353
1582.3849 400.66696
1583.1713 397.6832
1580.2618 398.15207
1578.3148 395.1267
1578.1853 392.39194
1576.0399 390.0919
1573.7375 387.17178
1578.1245 384.67407
1576.2202 382.43042
1573.2645 383.28525
1571.2604 385.42612
1569.7582 383.35022
1567.2914 383.1175
1567.7463 385.32764
1566.3441 387.37302
1565.573 390.12802
1562.8507 393.5479
1560.927 390.0822
1562.7012 386.7681
1564.071 383.63693
1563.6588 380.42096
1566.6293 380.84836
1569.6525 380.73456
1572.9207 380.20737
1575.8137 378.5934
1577.8507 375.5787
1578.9412 378.75092
1580.4431 381.03964
1582.8135 382.81293
1586.093 382.4831
1584.1392 378.50095
1581.3738 373.68823
1578.0145 371.7503
1575.0189 369.49304
1573.7922 373.3436
1573.7351 376.54532
1570.4104 378.01587
1566.7875 377.57486
1566.2588 374.22836
1570.0117 375.24622
1569.8835 372.05438
1566.1765 370.6937
1567.2855 367.7091
1564.502 365.02298
1562.2902 368.19492
1563.0795 371.74298
1560.0071 372.4492
1558.6897 369.9421
1554.733 370.65652
1557.4042 374.01614
1561.4451 375.17636
1563.3589 377.43445
1559.7533 378.04916
1560.9326 382.8677
1554.0712 390.99045
1554.4373 394.56345
1558.3464 393.30792
1559.2786 396.84702
1559.8262 400.38412
1556.076 398.97745
1552.3657 400.69867
1557.3209 404.12354
1554.2831 404.06055
1550.4979 404.8333
1548.0415 400.23932
1550.4049 396.91342
1550.5138 390.35782
1546.5262 391.4791
1548.9935 393.8892
1544.872 396.30194
1540.0818 397.06882
1541.5017 392.19608
1536.9729 392.21042
1531.7787 393.62152
1534.3425 397.07455
1536.3684 400.74155
1539.9443 401.85687
1543.7882 400.68906
1546.3312 404.06485
1547.1422 407.7065
1550.4436 409.2174
1554.6096 408.09286
1551.9279 411.97263
1546.5332 411.49536
1541.7249 411.49167
1543.5908 408.82678
1541.534 405.82376
1538.3583 407.07767
1538.321 411.25986
1535.3812 408.78467
1534.011 411.86896
1531.7139 408.7509
1534.5757 405.0922
1532.0214 401.8453
1529.165 399.50546
1525.7167 399.0793
1527.4086 395.2988
1528.5564 391.23727
1524.6951 392.0636
1520.813 391.4607
1522.2616 395.2275
1521.8204 398.8586
1520.157 401.7269
1524.8025 402.85254
1527.4376 405.83337
1530.304 405.8043
1530.0112 411.492
1526.12 411.3298
1524.6434 407.5487
1521.89 409.73825
1519.457 412.11166
1521.2183 405.81204
1517.446 405.40268
1516.9667 409.43466
1512.8557 411.3273
1509.511 413.62433
1506.872 416.05606
1509.9315 417.74176
1510.2855 421.69077
1506.8088 420.54443
1506.5265 423.90634
1509.8351 426.2783
1509.3025 430.21826
1506.9331 433.62305
1508.4011 437.24722
1511.432 435.27084
1512.8368 431.67163
1513.8003 428.1963
1516.4509 433.49512
1515.2416 437.21826
1521.2999 439.20587
1518.4803 440.996
1519.4478 445.20044
1524.0459 446.4481
1525.4769 442.18927
1529.8911 444.21738
1535.556 445.7478
1542.6235 445.29575
1547.1191 446.85593
1550.9263 448.08804
1550.6398 444.3151
1554.0978 446.13657
1557.7185 444.77057
1561.5599 446.39313
1564.7747 443.47525
1566.9714 446.4064
1570.8893 443.66733
1573.8014 448.19928
1574.3906 443.22165
1578.4712 441.8757
1581.9984 446.41135
1577.9729 447.2504
1577.9119 451.22223
1582.0432 450.79868
1585.6459 452.38824
1583.0638 457.10806
1582.4954 460.72263
1581.675 465.50708
1577.8823 461.69595
1574.1853 464.11017
1570.1533 464.39557
1567.8583 461.2212
1570.9681 458.936
1576.4114 457.15884
1579.4127 455.18747
1574.2069 452.6669
1572.6846 456.04034
1566.5645 457.03107
1563.0978 457.24902
1562.0192 454.38266
1565.0383 453.75397
1569.1307 454.35458
1570.2235 449.67368
1566.9768 450.55685
1562.8785 450.4422
1559.7505 451.08813
1556.952 448.9907
1555.9421 452.05972
1556.6929 454.62228
1559.179 454.07394
1559.836 456.40283
1560.1403 458.98453
1561.9215 460.9493
1564.795 460.23056
1564.4899 463.34073
1565.4613 466.0608
1561.4108 467.5567
1560.6493 464.52374
1558.9741 461.91656
1556.8123 464.2687
1557.1427 467.56564
1553.6261 466.10153
1553.7468 462.60178
1551.0657 462.9024
1551.1692 460.12692
1551.776 457.35117
1555.7279 460.382
1557.2941 457.96182
1554.6702 457.30865
1553.8665 454.58472
1551.3329 453.7733
1553.1947 450.70074
1548.768 450.82916
1548.6871 454.4919
1545.9049 454.00195
1545.7778 456.6433
1544.2289 458.99908
1548.5599 458.07333
1547.9054 460.82062
1547.8661 463.70016
1549.8943 465.68457
1550.3042 468.8456
1546.5488 468.39362
1543.3264 466.57626
1544.8365 462.49112
1541.5328 460.56638
1540.273 463.98737
1538.979 468.48947
1534.1008 467.40356
1530.2035 467.86826
1526.6229 466.23532
1521.3678 466.4156
1519.8043 463.15195
1519.8167 459.89804
1521.9626 458.04254
1523.9427 463.3951
1524.6635 460.68076
1527.146 458.89386
1524.5514 457.5721
1522.6686 454.44882
1525.4275 454.42545
1527.533 455.3893
1530.4884 456.1541
1532.9872 454.5682
1535.5773 455.2613
1535.9564 458.79645
1533.2323 459.57428
1530.6394 459.83
1527.7963 462.23837
1531.6724 463.71896
1535.2958 462.56674
1537.241 465.2302
1538.4233 460.89655
1540.3358 457.53424
1542.6638 455.7645
1542.9298 452.58887
1545.8676 450.7523
1543.0442 448.9471
1539.3221 447.608
1539.8354 452.1744
1538.339 455.02072
1536.1521 451.05844
1532.3512 449.20016
1529.5994 452.34897
1528.0284 448.541
1525.3447 451.1689
1522.2764 449.7949
1518.175 449.2005
1514.9418 448.53793
1515.6279 444.89255
1512.3691 445.20898
1509.6006 444.15665
1514.0151 441.40903
1511.67 439.54733
1509.0095 441.2236
1505.9012 440.5074
1503.0284 441.1096
1505.9967 444.01865
1505.5837 447.03757
1509.5378 447.2805
1508.299 449.87872
1512.2666 450.5046
1508.7882 453.75406
1512.7169 455.21158
1515.9663 453.0174
1519.9779 453.2233
1518.4119 456.53214
1515.0691 458.23267
1516.1904 461.61597
1516.1543 465.7835
1511.9902 461.81955
1507.9384 461.83487
1509.7734 458.24765
1505.7389 457.17316
1501.885 458.52164
1503.7621 453.39835
1505.4773 450.96957
1500.9115 454.78702
1496.8352 453.47583
1500.1001 450.1048
1502.9371 449.0411
1501.8723 445.99307
1496.931 449.1424
1493.4012 449.15024
1490.0544 447.13217
1489.6345 442.94434
1492.1914 440.82144
1493.0624 444.51767
1496.3083 442.03613
1496.287 445.90207
1499.3228 445.0485
1500.166 441.00302
1497.8541 438.2274
1494.557 438.73654
1491.4031 437.5127
1490.0029 434.82632
1487.4452 439.1279
1486.0223 435.43726
1484.7604 431.48428
1483.8303 427.57452
1485.5901 424.31387
1483.0356 422.3065
1483.1564 418.59186
1486.2227 415.16647
1487.0719 419.1691
1488.2651 422.37335
1491.5709 422.40005
1494.5446 420.89316
1497.2843 420.3779
1498.26 424.0461
1494.5095 425.1295
1491.0996 425.38565
1488.2072 426.2001
1487.1925 429.14142
1489.0475 431.8607
1492.3054 429.0042
1493.5902 432.55087
1495.8436 435.30185
1496.5151 428.19528
1498.2219 431.69504
1502.2732 433.0562
1500.8761 436.50058
1504.6699 436.84616
1504.9865 430.40973
1505.489 427.00217
1500.8192 427.96017
1502.6803 423.63565
1503.2507 419.89508
1500.434 421.25204
1499.8362 418.61987
1500.5558 416.39752
1500.7245 413.74933
1499.3058 410.91855
1497.186 413.68042
1496.8397 416.88535
1493.2606 416.0715
1490.9338 418.82138
1490.0472 413.3067
1495.6162 410.74023
1491.7345 409.74127
1487.4133 409.5607
1483.8477 409.97427
1483.2937 414.84433
1480.7333 413.29483
1480.243 407.5871
1483.5603 406.0053
1487.492 404.94202
1491.2892 405.59348
1491.9589 402.70847
1489.4425 400.83347
1485.9553 400.96887
1482.8868 402.02005
1483.23 398.24915
1479.6982 398.88928
1479.9574 403.81323
1477.0652 401.31003
1473.3127 399.8323
1475.445 405.567
1471.3208 405.90952
1468.7135 400.97836
1467.1213 406.1194
1463.1 407.49033
1459.1052 410.6542
1460.6638 414.01083
1457.6306 414.865
1459.3245 417.56598
1455.9502 417.84308
1454.8131 414.2911
1455.984 411.65988
1451.8328 413.93237
1449.712 411.58258
1447.4897 408.34653
1444.1716 407.92038
1445.5984 404.40195
1442.3337 401.62912
1444.409 398.61884
1447.2466 396.90707
1451.0376 397.4297
1447.9929 401.35037
1450.1843 404.82907
1450.7069 407.9305
1453.4277 409.31894
1454.8191 405.1243
1456.9486 407.66342
1459.9384 405.23444
1463.8224 401.87112
1459.9929 399.33414
1457.8689 401.4537
1453.851 400.76688
1455.9847 397.9672
1458.4783 394.01828
1455.2657 393.84433
1452.2677 392.8628
1451.2085 389.69226
1448.3367 391.81747
1447.0553 387.6693
1443.9395 388.29776
1441.92 384.77362
1440.7394 390.50156
1437.2375 387.3434
1433.6376 385.3076
1432.7892 381.48264
1428.13 384.7844
1430.8846 389.13425
1428.8529 393.75095
1432.5891 394.4818
1435.7697 392.65106
1439.0332 393.59824
1444.0627 393.35144
1440.8274 396.79407
1439.168 399.87088
1436.2605 397.64084
1432.5414 398.86215
1428.9641 398.81125
1429.2549 403.9894
1432.4894 403.53824
1430.9797 408.38107
1434.6941 406.5596
1435.6272 401.97604
1438.6827 403.19632
1441.6366 405.7047
1438.2675 406.68713
1435.6876 409.8282
1435.5942 413.9841
1432.3678 411.4686
1428.627 411.30832
1431.2312 414.85065
1432.3015 418.55865
1428.2495 417.77277
1428.4822 422.6184
1432.9008 422.55493
1437.1326 422.87964
1436.51 418.30923
1439.4678 414.7629
1440.1498 409.94797
1442.9042 412.53882
1446.4321 411.99854
1448.2314 415.301
1450.2616 417.37717
1453.171 416.83844
1453.908 420.0073
1456.6757 420.37915
1459.2078 421.30124
1457.332 423.29953
1457.1686 426.13608
1456.2378 429.3636
1453.3945 428.2661
1450.9375 425.55347
1454.0096 425.28375
1455.1527 422.9016
1452.8221 422.60593
1450.9956 419.9291
1450.5139 422.50372
1448.1259 423.14606
1446.6985 419.44644
1443.5857 416.95215
1440.5457 420.22046
1443.5315 421.28183
1445.2477 423.5957
1443.3815 426.03464
1439.7164 425.5676
1435.5168 426.60995
1433.96 430.34253
1438.2578 430.42294
1441.7261 429.14133
1445.4088 431.65582
1445.4945 428.66403
1447.5314 426.19693
1450.1548 429.82626
1453.6887 432.4812
1449.8379 433.4287
1451.7861 436.82568
1450.7675 440.97446
1447.1178 441.40234
1447.5587 437.72412
1445.6814 434.72607
1443.2964 437.67984
1443.425 441.76254
1447.1658 445.88022
1443.0854 446.92584
1440.3126 443.5433
1438.3064 446.50684
1434.5814 444.587
1431.4138 447.6429
1435.1125 448.69025
1438.1191 450.6631
1442.3972 451.23737
1437.4004 454.16055
1433.8997 459.5903
1429.8909 460.36798
1430.8115 456.96335
1432.6207 454.25974
1433.2307 451.37296
1428.4976 453.30844
1428.2844 450.02252
1428.2189 446.57956
1424.9591 446.71768
1422.5166 444.39233
1424.8037 441.52057
1427.1906 443.94287
1428.6326 440.21744
1431.598 443.42636
1432.2369 439.57516
1435.9886 440.56876
1439.5438 438.67032
1441.0962 433.95093
1436.5465 434.78442
1432.4148 433.71515
1429.9277 428.50714
1425.0637 427.71896
1423.8473 432.6023
1429.3052 435.03036
1426.4805 437.08218
1422.758 437.0322
1417.9595 437.65714
1421.0864 440.36163
1418.5199 442.58893
1414.4998 442.0483
1411.1632 440.8812
1415.8862 445.56973
1419.6238 446.45807
1421.5879 448.6483
1424.3966 449.92593
1424.3983 453.08444
1423.8353 457.15088
1427.1804 455.9487
1427.143 458.75693
1426.8329 462.30466
1423.5869 460.76913
1420.7673 458.64044
1418.4413 456.13712
1421.5135 455.03085
1420.2617 452.24106
1417.7834 450.5947
1416.6038 448.39902
1413.4624 447.98056
1410.9808 445.62595
1406.5851 443.6075
1402.8546 445.0673
1406.1967 447.20303
1408.7008 449.59674
1411.5773 450.51837
1409.7677 452.75293
1407.5299 453.7584
1411.8191 453.8242
1414.5706 451.42123
1416.4188 453.7879
1413.1665 455.64914
1411.1517 457.60873
1408.7039 456.4752
1407.8378 460.2735
1412.1462 460.82333
1415.0515 458.0217
1417.7372 459.79172
1415.9307 462.62827
1420.1509 462.3252
1423.0121 464.90176
1418.4072 465.0442
1415.077 466.43
1412.6687 464.2578
1410.4233 467.06934
1408.7999 463.52686
1405.3663 465.69687
1404.9089 469.57388
1401.4666 468.4117
1398.0776 466.23657
1395.1418 464.95084
1397.1274 461.9471
1400.2303 462.0437
1401.6586 464.94116
1404.2664 462.56592
1403.3511 459.67416
1405.7522 457.46295
1404.5222 454.68048
1401.7244 456.53082
1399.3967 453.94464
1402.1471 452.5494
1405.3474 451.0388
1402.8685 449.059
1399.8215 447.63028
1398.9752 445.1949
1396.6119 444.1013
1393.1792 444.40427
1396.1052 447.87335
1398.8516 450.40573
1396.3601 452.69016
1396.9156 456.31958
1399.168 458.9291
1394.983 458.8711
1394.0044 461.80133
1391.461 463.92114
1393.1129 468.0732
1388.5543 467.56088
1388.9504 461.84195
1386.3025 464.70993
1383.3383 467.59567
1381.792 464.55588
1378.8273 461.87436
1382.7888 461.21442
1385.9872 460.87296
1384.6511 457.80167
1388.4508 457.26373
1391.1722 459.4515
1392.7264 456.31012
1387.371 453.2539
1390.4777 454.04834
1393.5737 453.57104
1393.6946 450.66333
1392.6394 447.7103
1389.6323 445.99707
1387.0061 443.5437
1390.0043 450.13608
1386.2589 448.7809
1382.5006 450.06558
1379.8817 448.04404
1383.057 445.52246
1383.158 441.4667
1379.8551 442.52707
1377.7152 444.4587
1375.4688 441.76797
1374.1921 438.91827
1370.9697 443.2334
1370.6628 440.6097
1369.9141 438.0682
1366.7533 439.19333
1367.8265 442.01367
1368.3823 445.22208
1371.5504 446.1935
1374.6128 445.68454
1376.4326 448.78726
1373.0059 449.11676
1370.8313 450.84064
1374.521 452.18625
1378.0421 452.7918
1381.1954 453.8842
1384.3588 453.58102
1380.1335 457.51154
1374.597 456.14288
1371.8861 454.21402
1371.956 459.73874
1376.5184 459.04498
1374.6455 463.10678
1378.4847 466.3165
1374.7046 467.1228
1370.2614 463.3496
1367.2556 465.53757
1367.3566 460.8272
1369.4346 457.27408
1368.3252 454.04355
1366.1841 456.53732
1363.1771 453.68332
1363.1558 456.17902
1363.8406 459.3597
1362.6696 463.43692
1360.1189 460.63437
1360.2043 456.51294
1358.9059 452.73218
1356.753 456.9608
1355.6697 461.85822
1352.8606 458.34497
1349.5953 457.2455
1350.8463 451.9793
1355.1675 452.39606
1359.4175 447.86337
1356.6799 447.33286
1353.0239 447.85895
1350.495 444.17188
1355.6097 442.18967
1355.4922 437.2521
1350.6313 438.31152
1352.216 433.02243
1351.3068 427.96573
1351.1707 423.94424
1354.7234 421.627
1349.2594 419.23917
1348.8989 415.03912
1352.273 417.81094
1353.4541 414.37582
1353.3833 410.8208
1350.2555 411.2059
1350.8372 407.22363
1350.1659 403.19135
1353.5172 402.87997
1354.4843 405.3903
1354.8215 408.07617
1357.8828 410.09177
1357.8154 415.35782
1357.4792 418.96613
1359.3448 422.39487
1363.0656 422.67603
1364.1716 418.9064
1362.2351 416.13965
1360.6606 412.36154
1364.3723 411.58633
1361.8708 407.59653
1365.7244 407.66586
1365.598 403.7813
1368.9591 401.49988
1371.733 402.0566
1374.795 402.5588
1377.0498 404.4958
1377.0106 410.62695
1374.7456 409.59943
1374.2529 406.9564
1371.8365 404.98325
1368.7009 405.16385
1370.8021 408.99612
1368.4965 411.29962
1366.3704 415.06833
1367.7313 419.47003
1370.2631 420.6357
1369.7025 417.20163
1373.023 416.4164
1370.0328 414.2357
1372.6683 412.90527
1375.2343 413.27277
1376.4445 415.98355
1375.332 418.64536
1372.7428 419.47525
1374.465 421.2733
1376.4458 423.37994
1375.1091 426.55063
1373.7065 423.836
1371.2975 423.04123
1372.2922 426.26523
1370.6755 429.13428
1368.2142 427.46265
1369.8601 425.60425
1368.6251 423.48703
1366.2552 422.61676
1365.5067 425.99203
1360.7439 426.66022
1355.9708 426.27823
1357.9268 431.019
1363.0199 429.96786
1366.997 429.76788
1370.5874 431.9702
1368.7141 434.36816
1367.0343 431.9773
1364.8633 433.15317
1363.7151 435.52432
1360.2952 435.53952
1362.7118 438.9676
1359.1488 439.37912
1359.9424 443.11716
1362.3398 444.88858
1362.4185 448.18726
1361.8793 451.11996
1365.2664 449.48355
1365.651 452.6818
1367.9387 450.9299
1368.8048 448.05435
1365.2721 446.83087
1365.5997 444.04703
1364.2574 441.51172
1367.134 436.35147
1371.5028 436.03076
1373.042 434.0112
1373.9412 431.5786
1373.7339 429.11847
1376.806 429.45322
1377.1284 433.13535
1375.738 435.7502
1378.3752 438.16782
1380.0045 432.65112
1379.6731 429.07175
1377.7681 425.63263
1380.8378 423.60226
1379.0697 421.84985
1376.9543 420.64572
1379.1157 418.56348
1379.9607 415.07748
1378.0197 413.21445
1380.3314 410.90207
1378.4073 407.37827
1379.7263 402.5002
1377.7775 400.14954
1376.5542 397.59604
1372.8689 399.15594
1374.0225 395.77933
1372.0804 392.8016
1375.2623 391.50104
1378.2122 394.3024
1379.0603 390.11102
1377.1436 387.09674
1380.7756 384.98236
1377.2014 383.52554
1373.153 385.3538
1373.4102 388.87936
1369.0483 384.40906
1364.5895 384.31247
1366.2617 387.52768
1370.0913 388.09686
1368.9302 391.1246
1369.0667 394.53143
1370.9397 396.54453
1368.6156 398.24103
1366.077 400.0959
1364.473 397.64618
1360.5239 396.74954
1359.9155 399.42352
1362.6064 402.3198
1358.87 406.0089
1358.7018 402.68008
1356.0948 400.53363
1356.5468 397.56067
1353.0386 396.05112
1352.6663 399.5717
1349.7317 398.4451
1348.1892 394.1024
1351.7777 392.9338
1349.585 390.9915
1347.5618 388.59677
1351.0995 387.44125
1353.6537 389.1304
1355.3304 391.92807
1356.5763 394.74295
1359.2208 393.78174
1362.7498 394.54477
1366.1917 394.41638
1364.5928 391.1942
1362.6609 388.37253
1359.8909 387.16745
1360.2185 391.08252
1357.005 388.93158
1359.1932 383.61386
1355.464 384.96127
1351.7557 383.29733
1348.4506 384.23056
1351.1055 378.42282
1354.6676 380.67096
1356.218 376.53036
1359.0001 379.82437
1362.8906 381.7088
1365.4619 379.34375
1368.5963 381.27408
1368.1898 377.01413
1368.5464 373.324
1371.9347 375.43704
1372.2098 371.6464
1371.0842 367.99213
1374.632 368.51913
1378.05 368.70804
1375.3179 373.8087
1378.6489 373.89328
1381.4943 370.67395
1382.609 374.49655
1385.5507 372.17862
1386.9624 369.05206
1387.9812 365.59506
1388.9915 361.98206
1387.3713 359.25565
1389.442 356.297
1391.8866 355.72394
1391.7285 359.28723
1392.4523 362.58517
1393.9816 365.94107
1395.0817 369.689
1391.1891 369.54904
1390.2574 374.12424
1386.4982 376.5837
1387.3297 380.71066
1382.9877 380.94223
1380.6055 377.48294
1378.82 380.4581
1375.6711 378.00168
1371.8439 378.77716
1373.2316 381.93073
" />
</g></g></svg>
