<?xml version="1.0" encoding="UTF-8" standalone="no"?>
<!-- Created for Inkscape (http://www.inkscape.org/) -->

<svg
   xmlns:dc="http://purl.org/dc/elements/1.1/"
   xmlns:cc="http://creativecommons.org/ns#"
   xmlns:rdf="http://www.w3.org/1999/02/22-rdf-syntax-ns#"
   xmlns:svg="http://www.w3.org/2000/svg"
   xmlns="http://www.w3.org/2000/svg"
   xmlns:sodipodi="http://sodipodi.sourceforge.net/DTD/sodipodi-0.dtd"
   xmlns:inkscape="http://www.inkscape.org/namespaces/inkscape"
   width="3200"
   height="800"
   id="svg2985"
   version="1.1"
   inkscape:version="0.48.1 r9760">
  <defs
     id="defs2987" />
  <sodipodi:namedview
     id="base"
     pagecolor="#ffffff"
     bordercolor="#666666"
     borderopacity="1.0"
     inkscape:pageopacity="0.0"
     inkscape:pageshadow="2"
     inkscape:zoom="0.35"
     inkscape:cx="1600"
     inkscape:cy="400"
     inkscape:document-units="px"
     inkscape:current-layer="layer1"
     showgrid="false"  />
  <metadata
     id="metadata2990">
    <rdf:RDF>
      <cc:Work
         rdf:about="">
        <dc:format>image/svg+xml</dc:format>
        <dc:type
           rdf:resource="http://purl.org/dc/dcmitype/StillImage" />
        <dc:title />
      </cc:Work>
    </rdf:RDF>
  </metadata>
  <g
     inkscape:label="Layer 1"
     inkscape:groupmode="layer"
     id="layer1"> 
     <g>
<path style="fill:none;stroke:black;stroke-width:2px;stroke-linejoin:round;stroke-linecap:round;" d="M 
1575.5605 324.4924
1583.2805 321.42712
1582.4645 327.9473
1575.4686 332.42178
1572.5 338.09198
1568.3966 342.21725
1561.5367 339.6026
1555.4183 334.53586
1562.0322 332.75198
1568.3912 332.39084
1561.1986 325.12503
1568.5223 325.17657
1568.7454 317.20728
1576.3647 315.04916
1583.3564 314.12567
1580.3174 302.39905
1570.8956 281.553
1563.3318 279.3752
1565.8617 275.24112
1579.4292 284.46143
1586.62 288.92294
1592.2755 294.96155
1589.939 319.69888
1590.0449 324.74054
1590.0991 329.90073
1595.6764 327.6823
1599.2861 333.7554
1613.7761 329.90576
1619.2936 332.28992
1617.6255 325.51617
1620.1158 320.26706
1624.2593 315.4597
1627.2405 309.3683
1632.1685 303.80713
1635.2844 295.9828
1639.9346 288.6754
1643.1295 293.88635
1640.0217 300.5863
1640.8036 307.54782
1643.2917 313.83124
1633.7186 313.25793
1629.4407 321.35098
1624.71 326.63022
1637.7812 319.58755
1636.781 325.85617
1632.877 330.55884
1627.2932 332.47858
1623.2295 337.1433
1624.4512 342.9669
1616.4265 339.32083
1611.8115 335.51254
1609.1813 341.31693
1608.623 346.6801
1604.5087 348.4063
1606.9583 352.84457
1611.4838 351.42697
1612.8784 346.48553
1617.0975 344.37494
1621.904 348.22705
1616.6433 349.61783
1619.5144 354.94693
1615.6926 353.67078
1611.9653 356.53607
1615.0254 360.5081
1618.2928 364.95273
1617.8859 371.02783
1626.2762 373.99008
1620.4287 376.31662
1617.2231 381.14243
1612.4904 384.1209
1612.747 390.28763
1613.7959 396.7757
1619.7738 392.3204
1620.5596 399.0267
1614.0935 403.32593
1608.5968 403.13712
1604.8663 407.7442
1600.0046 411.88635
1604.4568 416.91296
1598.8649 418.7635
1603.1475 424.7122
1609.447 421.41037
1609.774 413.68964
1614.9836 410.93878
1619.0181 405.72864
1623.573 409.57144
1626.0646 403.7671
1632.7008 402.13046
1639.051 397.71454
1639.7686 406.26868
1644.5433 413.53217
1644.8118 421.41644
1652.6362 419.2139
1652.5887 426.6661
1653.2551 434.07727
1660.1222 431.6854
1659.7549 423.18823
1666.375 424.14413
1665.0377 436.68298
1668.6426 431.6744
1673.2122 427.53253
1679.2075 428.0074
1683.001 433.44568
1675.9948 435.8409
1671.2405 440.23224
1669.0586 445.68817
1661.514 441.78757
1654.3867 441.5883
1643.2446 442.4676
1646.388 436.97998
1645.6064 429.7425
1639.0139 426.09845
1636.5443 417.5588
1631.9104 410.8189
1628.2225 419.51932
1623.4495 414.95264
1617.9641 418.19424
1615.7697 423.90103
1611.8 429.3427
1606.9261 431.08026
1601.9786 432.36658
1598.7988 436.70517
1593.1621 439.87567
1599.3033 442.94928
1603.8093 447.6999
1606.0714 455.35074
1603.464 465.09918
1598.7046 461.35434
1591.6594 457.70847
1598.5858 453.78983
1594.0731 448.80872
1589.0645 444.74808
1586.4446 439.7086
1582.8235 436.07355
1582.3424 430.2875
1576.0314 430.19165
1576.3285 437.36877
1580.2515 444.16147
1578.3317 452.00467
1585.798 449.72217
1584.2788 456.3477
1578.1633 461.1223
1578.9264 467.98196
1576.6626 473.73636
1580.9014 477.94754
1572.8474 480.19742
1578.7662 483.40668
1579.8763 489.68506
1574.229 487.57114
1566.8689 482.33957
1568.6423 487.8662
1564.4707 491.57776
1565.1217 497.42297
1565.4778 503.58237
1571.6288 501.53503
1572.2014 494.19186
1577.8027 497.7795
1583.6432 493.5823
1583.8203 501.70807
1588.8834 497.96292
1590.2083 491.80035
1591.2344 484.48148
1585.5121 483.62558
1586.9308 473.83218
1585.6562 464.04694
1592.3835 467.6584
1597.8503 471.7811
1595.1787 479.6817
1596.4116 489.6473
1601.7917 491.03632
1596.1587 498.80753
1603.4976 499.1634
1610.1699 495.83914
1607.1556 488.6705
1612.2742 488.6302
1617.3326 488.1666
1617.7117 493.23932
1618.0833 497.86356
1616.1605 502.20047
1610.0704 504.82532
1604.1604 508.9528
1597.8994 506.5856
1590.6826 504.64822
1590.6781 511.7194
1596.6621 514.4587
1600.3633 519.423
1609.3799 514.76245
1606.0516 522.79193
1609.6134 528.94135
1616.9111 531.22253
1621.9877 536.95514
1617.6938 543.97174
1625.0061 544.2206
1630.1859 548.7688
1636.0306 551.76984
1641.5859 545.9035
1635.0228 542.43964
1640.3478 537.4455
1647.6953 538.2987
1649.7822 529.46497
1639.0302 530.9803
1641.7537 526.4848
1639.3154 518.7577
1633.6172 522.01544
1631.2864 527.1706
1632.5544 533.9603
1629.1615 539.28925
1625.1003 530.6476
1623.8062 523.1547
1625.0918 514.5337
1614.7827 522.722
1618.4392 516.4961
1617.0254 509.50235
1623.6226 505.68433
1630.4299 507.77728
1630.8586 515.8775
1635.8716 512.77234
1641.6656 511.8298
1646.8235 508.40637
1646.7084 515.0111
1645.198 521.92725
1650.8398 520.6303
1656.7783 523.17554
1654.6665 514.9609
1654.2006 508.18384
1660.0385 505.02475
1664.5437 499.67233
1660.6512 495.2394
1650.3503 491.53296
1647.7485 485.75674
1648.4622 479.05637
1654.7429 484.03574
1656.6846 490.8452
1667.3235 489.7645
1662.1433 485.98737
1660.9407 479.04062
1660.7183 471.99475
1668.094 468.98944
1667.6074 463.7207
1664.2711 460.78015
1659.2922 465.96564
1659.4227 459.31827
1654.3627 459.66492
1648.541 461.76367
1651.3223 466.53378
1652.739 471.3826
1654.1962 476.8743
1644.9052 473.35413
1642.2021 477.89288
1642.197 483.2417
1641.457 490.29254
1634.2434 489.16644
1634.7363 495.21854
1640.8264 498.9174
1646.2081 495.91245
1653.8938 499.17578
1647.5073 502.69727
1639.0087 506.38553
1634.9795 502.0454
1629.0511 499.90735
1623.5786 497.3593
1627.6484 492.5093
1622.4722 488.32776
1628.2045 486.34576
1632.1356 481.41882
1636.8914 483.39746
1637.2563 475.86414
1633.2632 471.60587
1628.5131 468.40286
1621.8196 466.69293
1619.0311 471.06802
1623.9097 474.36826
1629.7181 475.9138
1625.9751 480.752
1620.4739 481.73697
1617.3275 476.05246
1613.9645 483.07907
1612.1934 478.78525
1609.4106 475.20544
1604.4962 482.9591
1602.1293 477.3476
1606.1028 470.83765
1613.9667 468.43716
1609.9281 463.3948
1618.6323 460.26825
1612.9829 458.09915
1613.5642 452.0857
1611.7131 445.9286
1606.8375 439.39944
1613.7261 437.74542
1619.3868 441.38507
1623.6025 445.54166
1620.0046 451.14258
1625.9434 454.90283
1624.7872 461.4531
1630.2781 461.38098
1635.4432 463.08826
1638.1942 468.69965
1644.9568 468.3962
1642.5349 463.24908
1640.787 457.94513
1634.9097 455.6298
1632.024 451.5551
1629.4219 447.52783
1628.5458 441.66687
1631.7125 436.52795
1625.5573 434.20575
1618.4058 432.03156
1623.4828 425.97998
1631.7665 427.0957
1637.9442 433.70404
1636.5751 440.96494
1637.4878 447.2919
1642.4823 451.3897
1648.4092 455.27158
1648.8981 446.9451
1655.311 451.0477
1662.2405 448.22614
1662.0613 454.51147
1667.9343 452.0427
1669.2455 458.02692
1672.7754 454.02078
1674.607 448.41284
1678.7064 444.5791
1682.2943 440.81552
1688.4001 438.70566
1689.6671 431.29584
1691.4762 424.2629
1688.0942 418.6152
1685.0226 424.80322
1679.437 420.41443
1681.5669 414.21002
1673.5817 412.62384
1672.7136 420.03366
1666.942 415.29892
1660.4861 415.0431
1653.7119 411.71136
1648.3792 406.08005
1646.798 398.59805
1653.9801 394.68488
1655.407 402.08084
1660.7576 406.5327
1666.8938 406.41953
1673.3645 404.5312
1662.3693 396.49463
1658.405 389.5811
1662.8164 386.22083
1667.9762 384.86752
1669.7765 390.9579
1669.5566 398.6853
1676.4087 394.85446
1682.4429 390.79343
1687.206 395.7079
1680.7456 400.619
1678.8611 407.865
1688.4902 412.58435
1685.4426 406.92114
1689.3408 401.46802
1689.9962 389.9864
1691.8849 383.82642
1696.8505 381.03265
1692.2413 376.45856
1686.7437 374.75854
1697.2971 372.84827
1702.1521 377.42365
1703.7335 371.35446
1709.233 369.50095
1706.7129 363.62997
1700.2723 365.76978
1694.2411 366.40033
1689.1595 368.90433
1689.09 360.48096
1696.185 358.63315
1699.2549 351.0367
1705.2455 347.301
1711.7782 348.9109
1706.0015 353.7103
1702.5332 358.76334
1710.952 356.84424
1715.2446 360.77512
1713.0411 365.10107
1715.0293 370.88876
1715.0425 376.8474
1716.1903 382.38602
1714.668 387.99738
1709.7537 385.30936
1708.7017 380.33514
1708.8164 375.1768
1702.3618 383.10876
1703.8177 387.93292
1697.0681 388.96527
1695.591 396.4375
1701.7708 394.60016
1707.1616 398.29272
1702.949 403.86072
1696.649 402.92825
1692.9363 408.14395
1699.2626 410.46158
1694.686 415.76093
1697.5106 421.4227
1702.0303 416.88205
1707.4753 419.52548
1714.5371 419.923
1717.4888 426.78793
1710.2838 426.5987
1703.1201 425.58185
1696.3423 427.8493
1699.1743 432.6381
1695.0532 436.43542
1695.408 442.41724
1689.6277 445.3446
1686.9725 449.9816
1681.531 450.24414
1678.1202 454.1297
1684.8198 456.5453
1681.0645 461.3234
1675.5039 458.84335
1673.094 464.08273
1678.0305 466.57928
1683.6654 469.95966
1688.6812 475.60037
1691.4146 482.7433
1696.9409 481.8772
1699.9364 472.03818
1693.4307 469.45773
1688.6348 463.0028
1692.4362 455.57755
1695.691 449.57224
1701.6035 447.01352
1707.2407 451.0789
1712.5662 447.2859
1717.8813 449.81802
1716.376 456.193
1718.669 461.66147
1709.566 457.66296
1701.0803 455.58676
1696.9464 462.28452
1704.1189 463.40524
1707.1987 469.8589
1712.051 465.0089
1718.6008 466.78738
1724.052 457.66708
1727.9108 462.64917
1732.8643 467.44995
1736.4602 459.78958
1731.3705 455.15967
1738.4562 451.97418
1735.9962 444.7597
1729.9355 446.52347
1724.5682 450.8165
1723.2267 442.2507
1715.7212 440.91644
1707.96 442.15695
1702.1008 439.5561
1705.5684 432.87817
1711.9901 434.41586
1719.52 434.21567
1726.2643 434.38217
1731.9557 438.2305
1732.435 430.40665
1725.2444 427.5318
1723.7529 421.35504
1720.3347 415.51346
1712.1985 413.13568
1706.1732 410.87753
1710.2953 404.615
1716.8235 408.3761
1722.0438 403.48572
1715.404 400.15182
1708.0182 391.4794
1712.832 393.99637
1718.7244 394.07108
1720.6085 389.07767
1723.125 384.95197
1722.216 379.12708
1720.7048 373.41006
1726.375 372.63718
1727.4341 367.82434
1731.1625 362.91272
1737.8077 366.53503
1743.0725 366.50177
1749.7213 366.27872
1746.4175 361.0504
1740.5798 359.5047
1735.0729 359.2183
1738.6613 353.0341
1732.1039 353.10822
1724.7239 354.28644
1728.3223 358.22238
1725.323 363.38614
1720.1914 367.08057
1721.2722 360.89694
1719.0374 356.29312
1716.4729 352.06448
1720.9221 348.852
1726.1339 348.75098
1731.1115 347.8543
1729.156 342.25912
1732.6384 336.87653
1734.582 343.44266
1738.9429 346.7416
1744.9614 348.67587
1745.4155 354.9324
1751.0353 353.86572
1753.5369 360.2374
1758.1146 354.68738
1761.9094 359.22238
1760.1051 364.75995
1755.4054 368.03143
1751.0134 373.43408
1757.3268 374.88116
1761.996 370.64764
1766.8221 366.31168
1768.4521 360.36002
1767.5944 353.7699
1772.7169 345.587
1766.3292 346.8397
1760.8551 349.27722
1753.1431 349.09186
1753.7611 343.96222
1759.3088 342.576
1762.2317 337.52972
1759.0929 331.43597
1755.0564 336.80905
1750.121 332.5043
1748.277 338.3092
1746.8475 343.43573
1739.8944 339.4945
1743.091 333.5114
1736.3242 331.88306
1728.7898 331.0708
1725.7771 337.49985
1721.7725 332.1708
1715.7778 331.91095
1719.5396 338.60892
1723.268 343.35742
1716.448 344.69382
1713.726 339.1579
1710.4492 334.0701
1706.6896 337.75592
1708.3303 342.79608
1700.6508 338.9319
1697.8132 344.6458
1691.173 343.21204
1691.9823 353.08533
1687.6086 348.82764
1682.6454 344.00406
1680.2267 336.0867
1675.2981 342.33444
1672.6295 348.87885
1678.0186 349.847
1682.9568 353.84207
1682.1487 360.0252
1675.3287 363.12863
1675.6812 357.2605
1670.5186 354.05823
1668.6849 359.7507
1670.1832 365.21902
1678.6151 366.76038
1684.0957 366.52896
1680.0725 372.45538
1681.2147 378.74185
1685.819 383.0321
1678.2678 385.9323
1673.3427 383.1108
1674.7446 377.02252
1673.2183 370.35736
1669.1946 373.76324
1664.2676 374.01755
1667.1595 379.26877
1660.6769 379.26236
1655.769 383.0459
1648.8855 383.218
1651.5232 387.73187
1647.0303 390.8721
1640.9344 391.31348
1641.7238 384.92538
1635.3813 385.87823
1633.2681 393.28967
1626.7866 395.9864
1627.3816 388.6184
1620.3699 386.43893
1624.5935 381.1114
1630.532 382.17825
1638.1837 377.66058
1632.2251 376.23846
1630.6438 367.23196
1623.9353 368.08655
1626.9261 362.3588
1622.1912 359.35162
1625.3154 352.79697
1631.4785 351.34125
1630.9076 358.19415
1636.461 362.9522
1639.69 366.23743
1645.5513 364.4883
1649.5359 371.7003
1644.408 375.09955
1644.2336 380.3515
1649.9675 377.95172
1654.6084 376.6615
1657.9761 373.63715
1661.1055 370.2629
1665.4431 367.11975
1658.96 364.5397
1654.9884 369.2622
1651.2415 365.50116
1652.6216 360.18265
1644.5681 358.25568
1637.7042 356.59918
1639.9276 349.81613
1631.8267 344.9904
1632.1592 338.0568
1639.6704 341.33655
1639.9391 333.10684
1645.9978 329.16315
1652.6932 325.0329
1645.0881 322.13925
1650.6339 316.9523
1657.7363 315.2986
1659.4568 322.08148
1659.9568 328.80746
1666.9812 326.04117
1667.6567 331.98282
1660.8323 335.35626
1661.4927 343.26123
1655.056 338.63824
1653.2898 332.54108
1647.0652 337.2683
1646.7028 345.2561
1648.6229 353.07236
1653.6721 349.26526
1654.1565 343.67093
1659.4924 350.0766
1656.8896 356.20395
1662.6748 360.21487
1664.0564 354.37256
1665.7864 348.812
1668.969 344.1153
1666.6782 338.7324
1673.0312 335.95425
1676.1165 329.77682
1673.8496 323.59235
1682.5691 326.09518
1686.6562 336.0617
1693.7521 336.2012
1696.5618 330.28842
1689.7195 327.7758
1690.2162 319.4906
1697.489 322.5756
1696.0088 315.93253
1691.7273 310.79422
1685.6975 308.99365
1679.3483 311.57297
1684.0465 317.6369
1676.2493 317.9643
1667.3071 319.47275
1664.3767 314.149
1662.0579 308.05704
1667.6077 303.45883
1670.8535 311.7001
1674.9487 305.51215
1681.3823 302.56335
1688.2241 301.63474
1683.2968 295.14557
1678.4806 288.8136
1676.5693 296.33868
1670.9161 297.96442
1671.026 288.88193
1674.5375 281.51895
1667.3492 276.83585
1665.4702 283.43433
1655.1293 285.1004
1660.6631 288.276
1665.2035 293.62302
1661.329 300.07492
1655.3201 303.3288
1651.845 309.53107
1647.3645 302.59375
1650.2584 296.32004
1656.7375 294.39346
1649.2955 289.69537
1648.7068 283.21902
1643.2302 282.43073
1628.6787 271.19846
1632.9069 265.47495
1627.989 266.80408
1624.9391 275.66226
1621.8966 274.3255
1623.9407 270.19293
1622.6931 263.86026
1613.8608 263.80496
1617.2625 274.66968
1619.1678 279.2145
1614.1527 280.9041
1609.7997 286.05087
1606.9614 280.83423
1601.7319 283.5247
1602.0114 290.74002
1595.7368 285.22366
1590.2803 282.4889
1597.0831 275.01657
1604.1604 274.0371
1606.4772 258.86276
1612.2338 254.66403
1607.7781 251.54646
1609.8457 245.26053
1615.5206 247.24352
1621.1868 242.41696
1620.949 250.85443
1619.8274 258.68655
1625.5645 254.9332
1628.693 260.88226
1632.1313 255.3098
1636.2926 260.13684
1640.1877 254.2243
1627.9504 247.68268
1628.8171 240.53886
1635.4783 238.76979
1634.909 248.29701
1641.9979 248.4931
1642.2775 242.71365
1644.3589 236.89886
1642.2761 230.39708
1646.2207 225.89899
1646.8865 219.93242
1647.331 212.82463
1640.2014 208.16768
1630.4926 207.85225
1630.7053 214.06433
1632.5847 219.88152
1639.6726 218.34895
1634.1047 227.49268
1627.8652 232.38478
1620.1108 234.24216
1612.8286 238.96039
1603.3483 239.58057
1602.9285 246.73058
1601.06 251.78516
1598.9814 257.10147
1593.3635 254.30267
1588.4308 251.00443
1595.7988 245.85149
1589.215 241.01468
1575.8049 238.76938
1558.9783 241.83615
1562.2019 252.02411
1547.9135 254.5485
1552.9872 261.48114
1557.683 267.18192
1560.9498 271.75165
1550.5852 270.6886
1542.0161 266.13007
1541.7625 246.20622
1540.0334 236.81264
1533.5415 226.0112
1532.5061 218.0813
1515.2275 198.64644
1510.4244 189.49577
1508.4907 178.12169
1508.3452 171.24239
1507.8392 163.99861
1506.7766 157.08618
1515.729 156.01445
1515.7113 148.63843
1518.8099 138.99414
1521.7529 131.78021
1520.5704 125.12369
1523.2395 119.13498
1527.0098 113.65274
1533.5446 107.539444
1527.0865 105.00175
1532.9762 98.031456
1542.117 100.37658
1538.2446 91.2105
1546.2292 90.85279
1550.7949 80.07905
1555.1946 83.782234
1557.0442 78.80546
1563.8899 79.38431
1561.1282 74.96269
1566.8993 71.960464
1567.6318 76.01623
1569.4254 81.34284
1565.8477 84.922035
1572.5668 86.14759
1578.2543 84.536026
1575.1318 81.594795
1573.3975 78.21099
1571.8358 74.40479
1572.6138 69.82439
1576.6858 72.69919
1579.2214 76.757034
1581.0139 80.91363
1585.7659 78.43796
1596.7024 81.931305
1602.8735 84.589714
1609.1833 87.46323
1609.5679 81.278854
1614.4648 77.39146
1608.8052 74.98099
1601.5581 76.52441
1593.8666 75.73429
1588.2992 72.97657
1582.6368 72.38063
1580.3921 67.47702
1588.2058 66.678215
1595.1663 68.75497
1600.3579 67.15187
1604.5054 71.39884
1606.6893 66.96265
1612.1222 68.490425
1614.8447 72.17289
1619.9764 70.80678
1620.5125 75.18369
1624.7427 77.48855
1628.9652 75.708206
1631.3074 81.16289
1632.0829 87.91974
1636.2135 84.50514
1650.8701 92.029884
1655.9333 101.50699
1660.3739 109.559135
1661.7793 118.26169
1664.4082 126.7432
1666.1434 135.84637
1654.8467 137.47096
1652.0449 128.67036
1650.0702 118.43258
1651.4637 108.8033
1647.1097 97.99718
1640.4216 92.04791
1633.5919 94.0769
1628.1051 93.428635
1621.3123 93.91821
1623.5669 89.18669
1625.3254 84.21662
1618.4395 81.30316
1616.7699 86.88038
1615.4048 93.92537
1609.904 93.493866
1603.8417 93.80545
1598.4459 91.10514
1592.4524 93.84299
1592.1118 87.48796
1589.2687 82.43434
1584.103 86.391785
1584.1863 92.47483
1578.2441 89.024635
1575.8624 92.7203
1569.8904 90.35309
1564.9763 90.39465
1560.7991 92.42321
1560.6735 84.4124
1557.7992 89.10752
1551.8927 88.358505
1554.2141 93.8091
1548.8723 96.68352
1540.3007 109.103134
1535.0853 116.33755
1538.1857 123.122154
1530.4911 123.94347
1525.3942 139.26328
1526.1959 145.88893
1521.3583 147.21033
1523.2097 155.21106
1522.832 163.59671
1525.2345 174.98442
1520.3496 186.78947
1528.6946 206.93222
1549.383 217.66972
1555.1775 212.32213
1560.4275 207.02278
1567.4141 205.09871
1566.4922 200.41953
1565.3091 177.41873
1568.0248 171.27194
1572.4994 166.96072
1577.9148 167.80583
1572.9482 159.61943
1567.0891 164.205
1560.0079 161.09296
1562.5569 168.40369
1556.8359 168.48212
1551.5743 168.37086
1549.4277 172.51303
1544.135 173.80818
1545.2135 162.95824
1548.7192 157.92764
1553.027 160.80057
1554.0708 154.77681
1559.3864 154.95792
1564.2795 152.5632
1566.459 157.59825
1571.0741 153.03542
1577.7435 153.98346
1584.6736 155.71896
1578.8793 161.42615
1583.7385 164.61931
1583.8284 169.80699
1585.0669 173.39833
1579.4795 175.49142
1577.7668 172.41104
1572.7355 175.40146
1572.3007 195.07425
1580.0717 206.56046
1576.8027 207.13075
1563.8495 210.95576
1558.9849 216.97664
1556.5878 224.5527
1558.5784 233.0677
1566.7579 230.18309
1574.52 226.03816
1586.669 225.22705
1596.6035 226.4664
1598.4868 221.2097
1606.9382 224.87114
1616.6216 223.95052
1625.026 224.0195
1621.9495 215.18118
1613.31 215.89021
1605.5171 214.53682
1600.2537 210.70062
1598.2109 215.19594
1591.6783 216.95471
1589.5042 211.92548
1582.6599 209.69513
1584.0408 205.97038
1587.7031 207.76492
1594.7539 209.55879
1602.0123 206.69554
1607.3362 204.35443
1610.1943 208.9699
1616.6979 208.31514
1622.2266 205.3211
1629.5537 201.57083
1622.4723 196.45288
1614.5035 192.22948
1610.4698 179.55489
1607.1721 172.24608
1606.5049 164.07355
1606.0753 157.42654
1612.5049 153.11993
1619.2996 151.79367
1619.2047 158.05397
1612.8451 160.5515
1612.8789 167.20885
1616.0371 173.29825
1622.3329 175.89627
1629.9958 176.25507
1637.8613 175.00215
1645.1223 173.91425
1649.2158 169.69138
1644.896 163.43436
1637.4822 165.10242
1630.707 167.26587
1620.5769 166.4008
1626.2717 162.39813
1626.164 152.84216
1632.8853 154.60667
1640.0334 156.50839
1662.9291 148.24397
1663.1713 155.90363
1666.0547 160.88657
1663.3269 168.11313
1671.1864 163.914
1672.1497 153.91412
1677.692 164.4965
1676.1254 172.0501
1677.2 178.99443
1678.2349 185.93405
1681.9395 191.64412
1676.1824 193.39532
1668.7587 183.54199
1664.4186 177.93231
1663.8235 185.96709
1668.427 190.52832
1664.2793 195.86119
1671.3005 198.53418
1680.2198 197.56354
1677.3029 201.71954
1673.0979 204.47491
1663.2693 212.04205
1659.9796 208.70467
1659.3578 214.98495
1651.7986 236.90413
1649.9968 245.06523
1649.6012 252.31363
1647.4321 259.23813
1653.622 259.0737
1656.855 264.19983
1654.6824 270.89868
1649.0344 266.87018
1647.0216 275.08252
1653.0797 277.5905
1659.5403 278.71664
1661.8352 272.4618
1662.6042 266.66696
1669.5624 269.06473
1674.1301 274.36514
1679.4158 270.44724
1687.8617 272.52963
1682.5983 277.51834
1683.0929 284.07193
1687.4816 289.4745
1690.4781 294.92804
1695.5371 298.35257
1693.8687 303.98746
1698.6427 308.531
1700.4503 302.89505
1704.066 299.33276
1701.4888 294.59598
1696.3291 292.4249
1694.656 286.55045
1689.9142 281.9532
1694.3138 277.64294
1695.7687 272.0524
1702.9471 273.89697
1701.1655 281.22485
1701.7749 288.04843
1709.0853 284.71164
1710.2385 276.53748
1717.5576 279.94485
1723.5862 283.38177
1729.375 282.03165
1736.0067 284.35623
1737.5067 290.17197
1743.6472 287.89383
1749.993 290.23972
1756.6624 292.4764
1763.4777 296.5618
1769.2136 300.5638
1776.407 300.7612
1776.3813 305.7969
1776.8727 310.6332
1782.134 312.55527
1778.4943 315.43793
1776.4335 320.21652
1773.473 325.8192
1764.415 321.31912
1770.4191 320.2307
1772.6145 314.34473
1770.5812 308.6224
1765.5588 307.44733
1765.9727 314.85583
1758.523 320.15714
1758.7643 314.7486
1760.0082 310.11063
1760.7382 304.1752
1756.8323 300.626
1751.3964 298.8489
1745.0956 296.09155
1746.8083 304.20697
1752.6979 308.73022
1748.4065 314.1755
1753.5615 317.75427
1748.5798 321.1887
1741.1278 320.27905
1742.4128 314.12482
1735.0623 316.17804
1733.5581 308.6247
1741.2468 307.65826
1738.8538 299.6536
1729.4985 301.65033
1733.396 295.06622
1727.8188 291.79724
1720.8652 291.20538
1719.4188 299.75943
1714.3347 290.74713
1707.7047 292.81003
1711.0089 300.26144
1706.6124 307.17313
1714.9841 308.81744
1723.2185 307.57715
1727.1287 314.57294
1720.9636 317.66644
1714.4266 317.19864
1708.461 314.41574
1701.9727 314.53424
1705.9847 321.27713
1702.6161 326.84137
1703.3264 332.72763
1709.3228 328.57278
1712.7964 323.89783
1718.9037 325.3319
1725.3562 325.1532
1730.5594 322.08658
1735.8344 325.37906
1742.1609 326.62573
1747.3555 327.01224
1753.1726 326.85904
1758.7415 325.40994
1765.9734 327.4143
1767.3335 333.5535
1767.9211 340.51196
1774.772 338.3077
1773.2537 331.7769
1779.035 330.9309
1780.3391 323.9538
1782.7561 318.69785
1784.2313 326.40845
1786.4551 331.2932
1782.0994 335.34824
1781.8151 340.3711
1779.3853 345.65167
1775.3468 351.33072
1774.5842 357.3947
1773.9701 363.7416
1773.7162 369.34344
1781.5083 367.0622
1780.2646 361.45288
1781.2959 355.06415
1785.6279 349.86288
1787.8374 337.57913
1787.356 344.1889
1788.2917 355.53763
1787.602 361.3781
1788.2518 366.5686
1791.2418 370.5672
1788.123 372.34573
1783.7356 373.5147
1777.9702 373.1058
1769.3182 373.32947
1763.364 375.90582
1766.7 380.0606
1771.6057 380.04553
1777.5605 378.99246
1783.3909 380.41827
1789.4233 377.31802
1790.0261 382.54376
1785.9625 385.67007
1785.2382 391.503
1790.148 390.16556
1789.7803 397.9055
1781.7883 397.02515
1779.8939 387.98257
1774.5667 384.8029
1773.9381 391.03754
1768.252 391.6869
1765.3582 386.09247
1760.5544 381.54388
1754.2361 380.3416
1747.4644 380.33832
1741.0164 381.2247
1735.7075 384.1587
1738.7882 374.3991
1744.8411 372.7166
1733.0005 367.90405
1733.273 374.0139
1729.6514 378.00543
1728.8586 383.03833
1729.0652 388.86087
1726.9946 393.9072
1735.5931 391.44815
1738.0515 397.64594
1745.4705 397.56454
1744.5055 389.55084
1751.4445 387.83896
1757.7605 387.66852
1761.4631 393.35294
1755.113 397.02344
1750.7239 403.27112
1762.6926 407.20364
1765.782 399.67038
1774.9827 399.02594
1771.9836 407.3437
1780.9436 408.00168
1788.4717 404.93842
1790.0795 414.93546
1784.1447 423.3587
1781.4845 416.7708
1773.8982 415.4484
1769.1752 420.447
1763.2124 416.89346
1757.2206 414.30136
1753.1207 409.28946
1753.2073 420.9557
1744.8584 422.40884
1737.8839 417.21658
1745.595 413.7487
1741.4355 406.0258
1734.105 408.83365
1730.9646 400.89
1723.2346 398.172
1725.374 408.86987
1729.21 415.30185
1731.729 422.44907
1738.3108 425.9737
1740.0756 432.22125
1739.8832 438.5843
1742.6519 444.5167
1745.6575 449.36206
1748.3713 454.2949
1748.714 461.57703
1743.1149 459.0859
1739.9229 465.78363
1745.7108 468.8231
1748.45 474.28748
1750.891 479.58517
1748.1688 485.51154
1743.5709 484.49356
1742.8887 478.2586
1739.8103 472.1633
1735.3949 476.04022
1728.7458 474.41293
1725.1765 468.67044
1720.3523 472.4466
1730.538 481.65958
1737.2814 483.43594
1732.6675 489.35013
1726.843 492.2113
1724.0378 485.35718
1722.2871 478.4361
1715.7106 481.33234
1714.5228 473.3775
1709.0012 476.35693
1702.4258 478.7558
1708.4308 482.8924
1715.4292 487.88226
1708.0106 488.94604
1703.9097 494.1249
1699.677 498.44733
1690.0055 489.98892
1682.858 493.25418
1684.544 484.2059
1679.2942 478.37216
1674.9714 473.04428
1667.8959 475.58224
1669.5948 482.14023
1676.9896 485.26514
1674.3472 490.52905
1669.508 495.97482
1676.4471 496.10815
1679.3015 500.60178
1673.3406 502.62164
1668.8638 505.13116
1666.6389 510.33545
1661.8022 515.3321
1671.6736 520.0651
1677.9364 517.0754
1683.4468 510.8846
1688.6844 506.466
1692.9723 502.78683
1698.717 503.4983
1706.1257 500.24802
1710.581 493.90012
1714.0273 497.35715
1719.7126 492.64368
1732.143 497.1261
1737.9445 496.20068
1740.1754 490.18582
1742.8823 498.77216
1749.1948 497.66348
1754.2195 495.9427
1759.8451 500.3598
1760.051 494.9255
1765.6445 494.709
1764.0349 489.83606
1764.8754 485.05933
1756.8077 489.9573
1747.2144 491.84833
1752.4464 486.88644
1756.4717 483.54874
1757.7855 477.09222
1760.8176 481.45364
1766.8699 479.92392
1771.7623 487.2283
1777.1047 491.99698
1775.8129 481.72693
1772.458 477.08044
1767.6531 474.25003
1769.3734 468.94077
1765.7778 465.0124
1761.3108 461.67355
1760.2546 468.38412
1762.5327 473.48837
1754.8151 472.36075
1751.7297 467.13593
1755.9866 463.48322
1754.6515 457.85907
1754.9337 452.31668
1764.1101 446.83984
1758.7649 448.27664
1752.6198 446.08765
1748.4607 441.12164
1747.1401 435.0463
1748.0911 428.54987
1754.598 429.8755
1755.0497 438.18948
1760.8958 441.89365
1762.1061 435.61328
1760.8318 430.47812
1762.5332 424.74292
1769.9718 430.0129
1776.1733 425.36298
1779.9473 432.82382
1789.2239 427.0009
1788.2902 435.12885
1789.5958 443.42294
1781.1774 441.81998
1774.4282 438.41995
1767.8191 436.66678
1768.4001 442.33633
1772.053 446.3776
1778.0638 449.43948
1784.4697 450.29324
1790.515 453.1277
1788.7921 461.14548
1781.8594 459.9264
1776.5183 456.81577
1771.8997 452.91605
1766.2003 451.55832
1761.1562 455.38577
1767.1086 457.8608
1771.2288 461.5478
1775.5892 464.9171
1774.5048 472.75452
1777.9476 469.88715
1782.841 467.76123
1787.9733 470.43
1781.1327 475.77356
1785.8213 479.545
1782.1809 485.66248
1784.2651 491.40427
1783.2695 497.14975
1783.5105 502.6026
1784.3091 507.7538
1782.2816 512.0254
1783.7443 518.8019
1774.7279 518.1502
1775.9429 512.25635
1777.5642 506.17123
1773.0002 502.4152
1777.7379 499.17795
1771.4369 494.87253
1766.4105 499.7343
1768.2458 504.39194
1769.3953 510.5492
1766.7565 517.52783
1760.3711 515.8147
1756.096 521.03125
1748.1433 526.8829
1746.6057 520.158
1740.2118 513.42346
1749.6611 515.5679
1749.4421 509.88162
1756.5745 510.91458
1763.3585 507.69623
1758.3013 505.10495
1753.1392 503.6581
1747.2606 503.47522
1742.9186 507.4103
1737.3755 504.91483
1732.1493 503.1334
1728.8099 507.75754
1720.7993 512.2969
1716.6794 515.9525
1715.1345 512.1536
1723.9827 509.406
1733.2493 511.23636
1734.9546 518.3131
1741.1404 522.3038
1735.8334 525.2082
1730.3503 526.1841
1724.667 528.7924
1719.1013 532.29895
1713.8213 533.07996
1710.792 536.71075
1705.5623 539.03326
1693.6274 544.34595
1699.475 541.19586
1704.533 519.2437
1711.2961 517.10706
1707.0629 513.8107
1697.9398 521.921
1689.4702 525.8094
1680.7069 530.7922
1674.294 537.96246
1664.0931 544.6115
1667.8711 556.5663
1666.1178 561.6256
1663.5547 565.5966
1657.947 566.2702
1652.0835 567.41486
1649.9524 573.74927
1645.0852 569.1982
1645.7202 563.96515
1650.0979 560.64813
1655.1956 560.93854
1660.5312 559.9209
1654.2313 552.87115
1644.0176 558.1372
1634.1472 558.67255
1625.9167 563.63385
1619.9186 568.7347
1618.7605 560.0779
1626.7114 555.99207
1621.591 550.93933
1614.8776 552.0694
1608.1866 550.2347
1606.8354 543.5238
1612.8884 539.50665
1606.5193 534.5149
1601.8022 539.1637
1597.8793 543.3233
1600.908 548.5911
1601.0654 554.8487
1603.8997 559.71747
1610.2542 558.2107
1612.4614 565.02924
1611.8995 571.3558
1604.552 567.44183
1598.1333 563.69916
1594.1047 569.8579
1598.437 574.1421
1605.2201 574.671
1611.9177 577.1207
1614.6119 582.62933
1618.9886 577.2134
1624.4302 574.279
1630.4111 571.19617
1632.5586 565.2514
1639.2983 564.12006
1637.7946 571.52936
1636.4175 578.9734
1643.6293 575.4472
1648.645 581.446
1642.589 582.6924
1636.2103 586.62024
1630.2781 578.4786
1626.1785 583.14044
1619.2667 584.92645
1621.8539 589.87646
1618.6882 594.2448
1627.5488 595.6517
1629.5173 589.579
1633.1614 598.32404
1628.8948 603.4849
1622.5247 605.0042
1622.9626 598.84283
1616.9907 600.33575
1615.1838 605.6067
1610.285 600.6138
1603.7565 600.4844
1596.811 597.9799
1597.7644 590.6601
1604.0121 587.31903
1605.029 594.02435
1612.4584 594.85315
1612.0248 589.035
1608.7341 582.8315
1602.8083 580.4311
1597.1638 582.755
1591.1533 586.01666
1590.3081 591.5836
1589.6042 596.81494
1589.022 602.3754
1593.5477 606.33044
1600.0363 605.4985
1607.292 606.943
1599.15 612.02045
1598.8904 618.56006
1598.6115 625.1771
1593.1704 626.8353
1590.6693 619.61865
1591.3402 613.6925
1585.9229 610.1032
1579.5442 614.1235
1582.0581 620.8511
1586.611 625.0923
1587.1826 631.3014
1586.7961 637.38007
1577.6196 642.33356
1582.5671 642.4126
1587.5315 643.98785
1588.3009 649.7101
1595.4645 647.5684
1592.725 641.12823
1599.0126 640.02203
1593.1838 634.3513
1599.5198 632.2452
1604.449 625.28735
1607.6519 630.735
1613.4517 628.7239
1618.2085 624.77985
1623.1516 632.47925
1628.8577 638.0549
1634.1011 641.8319
1635.4495 635.0313
1630.836 629.9495
1638.7972 629.029
1642.9023 635.24963
1641.3536 641.53735
1636.1345 647.5586
1634.3722 654.763
1640.3031 654.2708
1643.2561 648.4409
1647.4176 644.26215
1650.0771 639.91736
1649.8452 634.6818
1646.6483 628.6362
1643.188 622.5119
1636.1803 622.41077
1630.188 623.00543
1624.6426 626.8996
1623.835 621.1914
1621.2041 616.6291
1614.4977 617.3107
1611.2028 622.69604
1606.1019 619.10364
1606.6838 613.4145
1612.9731 611.0869
1619.214 610.8261
1625.5366 610.9228
1629.1819 616.63336
1632.0087 609.4243
1635.7712 614.80304
1642.0018 615.38153
1640.8368 607.9011
1636.813 603.20636
1643.9153 599.5415
1637.3544 594.0236
1644.1912 591.16016
1650.4285 588.72626
1656.7072 591.8614
1651.8585 596.0991
1650.0935 602.44275
1654.0973 606.8457
1647.8237 609.3469
1648.7616 615.8185
1650.1349 621.82886
1654.9102 624.85345
1654.4409 630.52155
1656.7052 636.44965
1663.4929 634.2923
1661.4175 627.449
1667.844 624.23016
1662.19 619.24677
1655.5854 617.79517
1657.3131 612.2097
1659.953 605.51086
1658.2178 599.2165
1663.7949 596.2479
1665.3728 602.0026
1668.4401 607.5012
1664.183 611.464
1669.0192 616.74786
1674.2252 613.005
1675.4329 618.9471
1674.4335 623.853
1680.4833 616.8828
1686.0709 618.87335
1684.4387 611.773
1679.4813 609.0555
1674.1951 607.0252
1672.6543 601.54535
1671.3396 595.9502
1668.5422 591.95685
1672.701 585.075
1676.2456 590.84283
1681.4446 586.71265
1678.4624 579.7989
1672.0763 577.65594
1667.1001 579.2262
1665.6377 583.6405
1666.675 587.68146
1662.3466 590.87195
1659.3904 586.3729
1654.705 583.59564
1660.4644 580.61
1662.8844 575.8567
1654.6101 577.89966
1656.1405 572.9351
1660.2396 571.393
1664.4233 570.076
1667.9438 572.2188
1672.2874 571.4113
1670.7048 566.2629
1672.1218 560.9999
1673.7723 555.4585
1678.066 550.3243
1686.497 542.7744
1685.1995 549.10095
1681.5286 557.2673
1682.8801 564.65076
1677.2207 563.6822
1676.6567 571.3865
1681.481 572.2083
1687.755 569.67896
1689.4897 563.43274
1695.0125 561.14075
1700.6685 558.3977
1705.6165 560.1356
1709.0879 554.42474
1715.5742 553.20624
1719.5023 547.95624
1722.5957 553.8168
1729.3799 552.5304
1725.3494 547.8327
1726.9458 542.8625
1723.9001 536.8146
1733.2827 541.33777
1731.3655 533.8696
1739.6342 530.901
1739.8834 538.43256
1746.2705 535.0681
1752.3445 532.0378
1757.5322 527.08734
1764.883 526.5802
1761.217 532.5307
1757.051 535.4079
1753.1891 539.24615
1755.8795 545.2753
1756.698 552.5981
1751.2335 559.07916
1745.0297 562.96075
1739.7347 558.09283
1744.6638 553.9665
1749.4722 549.6521
1747.9323 542.6463
1741.1351 545.8946
1735.6465 550.1174
1732.958 558.60516
1736.709 564.7043
1734.0247 570.71454
1729.1617 573.11224
1728.7262 566.21936
1726.2108 560.2074
1719.8951 559.58984
1716.4597 564.4259
1712.369 559.7534
1709.9302 566.38525
1704.4106 568.4133
1699.8796 565.52576
1694.5037 568.96246
1693.1201 576.477
1685.9354 576.6079
1687.2708 583.1198
1694.5258 584.35315
1700.3547 587.9161
1705.909 592.65967
1708.2505 587.84106
1714.1233 590.05383
1716.6824 595.95685
1710.7832 596.82104
1708.0381 602.2773
1701.5426 595.35547
1690.2361 590.8159
1684.2388 594.50146
1678.1543 597.52356
1682.0734 603.163
1689.3776 600.3703
1695.3246 595.86615
1701.5312 601.5215
1696.0161 604.59204
1689.5516 607.45966
1690.7161 613.57153
1692.8243 618.75464
1698.316 615.70575
1698.0723 610.6477
1703.717 608.6964
1709.5981 609.5784
1714.9186 604.8628
1720.1001 601.1121
1723.002 605.67896
1727.3877 609.6537
1733.5902 609.1456
1738.063 608.08673
1739.4712 615.0208
1742.6602 608.5548
1746.2788 603.7401
1752.0748 603.05023
1751.6025 597.96643
1749.3318 593.26514
1750.9158 587.5762
1744.0336 593.56995
1744.6261 598.2761
1740.4667 601.63727
1735.6423 603.05365
1730.3981 604.4635
1727.8705 599.7442
1722.8292 595.548
1728.8865 593.84186
1734.405 597.7235
1738.8785 594.1861
1733.886 590.83905
1730.5803 585.77344
1725.3947 589.17316
1720.1306 589.0759
1718.3336 583.8411
1713.2085 583.3374
1708.0663 581.2445
1701.6243 580.6498
1699.8706 574.25275
1707.7488 574.3209
1714.6215 576.8342
1715.1633 570.94684
1721.9524 567.7474
1723.0461 574.18994
1720.3616 578.8685
1724.9861 582.2971
1730.4275 578.87866
1736.5409 582.181
1738.9312 586.5742
1743.8397 588.667
1746.0427 582.9366
1744.3506 577.265
1737.6279 576.9744
1739.3594 571.46686
1743.6345 569.6091
1749.443 568.2106
1749.8219 574.8181
1753.1193 580.398
1757.2107 585.4212
1761.7627 580.8022
1759.512 575.92896
1755.1719 572.5522
1762.1909 569.719
1755.781 566.013
1758.7427 560.21857
1764.5427 557.3445
1764.7178 551.31067
1762.3066 545.915
1761.0284 539.658
1766.9714 540.9373
1766.715 533.7242
1774.3755 531.0529
1770.3964 524.1172
1778.2627 524.1689
1782.9501 528.7183
1780.3633 535.8447
1777.6211 543.2677
1774.1355 540.4877
1771.1633 536.63745
1769.3795 546.3435
1774.6085 548.9795
1771.5701 553.9856
1771.3472 560.41534
1766.3707 564.1708
1769.739 570.2738
1767.5234 576.8334
1768.5397 583.5463
1764.6709 586.5662
1761.0486 590.7714
1756.0542 593.14374
1767.2384 592.70215
1763.4655 597.661
1757.7222 600.64417
1763.0405 604.62195
1767.717 606.90607
1765.8778 612.5236
1767.3806 619.245
1762.1978 618.52295
1758.5189 614.39014
1758.356 608.44775
1752.081 608.2019
1747.1237 611.2829
1752.5479 615.1289
1745.8333 617.14764
1749.0216 622.2471
1755.9355 621.13055
1753.2671 627.0436
1749.5383 631.8184
1743.8657 635.05963
1742.366 641.41345
1744.9922 647.0414
1747.8972 652.7337
1754.5491 653.4795
1753.1149 647.03564
1756.3374 640.70264
1750.2797 638.94116
1757.258 632.58997
1760.8868 625.5379
1767.0535 626.0323
1766.0442 632.39935
1762.5818 636.8222
1764.337 641.94275
1760.059 645.9279
1761.6792 650.22064
1760.8711 654.79895
1756.9373 658.9253
1762.0726 660.6447
1761.1451 667.1553
1755.7484 665.0067
1755.1306 671.55634
1761.2952 673.9755
1757.6332 678.62714
1749.6233 675.9019
1747.9141 667.2473
1750.5105 660.12494
1743.2596 657.8004
1739.9293 665.778
1735.5542 657.8626
1736.0071 650.9764
1735.9084 644.4463
1726.427 648.7174
1729.9537 642.6112
1736.6989 636.91956
1730.8701 635.5829
1727.9163 630.1608
1733.3457 627.5668
1738.5192 630.2957
1744.4353 627.40796
1740.8676 622.2877
1734.9938 620.7899
1733.2076 613.80566
1729.018 616.2027
1729.0245 622.45593
1723.5024 624.9078
1716.7976 619.9022
1723.3641 618.61127
1722.5828 612.6957
1717.2338 611.8009
1712.0723 615.62134
1705.9265 617.3737
1699.845 621.81586
1705.1046 625.4456
1711.0082 625.1171
1716.7941 626.7908
1721.0712 630.51514
1723.3811 635.2569
1724.0763 640.73456
1718.1929 642.19855
1719.1055 650.39996
1712.2542 647.04736
1711.3647 640.1999
1715.1421 634.16345
1707.3616 633.19574
1700.6437 630.39246
1694.7214 628.4934
1693.739 623.72534
1687.9813 624.2139
1688.1963 629.7785
1683.2323 632.2675
1681.6606 624.5848
1676.7118 628.7393
1669.9347 630.7692
1670.1853 636.95856
1676.9126 634.33496
1675.2137 641.5201
1678.0525 648.2178
1681.3469 638.6986
1683.8472 644.02356
1684.9314 650.46045
1692.0004 648.41144
1691.0918 642.27606
1688.2996 636.9142
1694.3181 634.6089
1699.1853 638.2656
1705.1309 640.3876
1704.0505 646.0777
1697.4729 645.3788
1691.0032 653.57245
1691.7103 658.7623
1697.986 660.51013
1697.5939 654.13495
1702.0938 652.02045
1707.9446 651.4613
1713.283 655.4484
1719.0991 659.49084
1717.9194 666.3977
1717.2976 673.1103
1711.9791 678.9514
1704.4949 681.2545
1700.7358 676.4223
1704.7373 671.49713
1710.5675 671.7619
1711.0879 663.966
1706.1509 658.15717
1703.7126 664.2512
1698.4174 667.7388
1692.2456 666.05817
1687.1638 662.43286
1684.5289 657.29175
1678.9744 656.2601
1673.5697 653.5745
1669.5237 659.02905
1675.4059 662.24524
1680.7502 664.87054
1685.264 668.3689
1687.8082 672.49414
1694.7837 673.0865
1694.98 681.2038
1699.1521 686.05945
1696.5106 691.10767
1702.023 694.8079
1706.5671 690.0862
1709.2606 684.5475
1713.8544 687.7304
1719.6024 688.58044
1719.1055 680.0474
1724.7222 676.71155
1724.9879 668.2296
1726.3568 656.71985
1731.0282 663.7288
1733.6519 671.71967
1741.5995 674.0942
1743.6694 681.53424
1750.5396 684.0362
1756.7384 685.2888
1761.8601 683.95154
1761.4133 692.542
1754.352 691.77484
1758.5068 699.48584
1751.261 699.7836
1753.6694 705.08875
1757.1628 710.1185
1754.9019 719.3005
1752.1184 713.6692
1747.1392 708.3335
1747.5969 695.2615
1745.7064 690.0194
1739.2393 688.1363
1735.3784 681.826
1730.4204 678.1144
1725.602 685.3935
1731.4625 690.3458
1737.3954 696.31384
1743.9407 700.756
1739.549 705.16254
1733.6906 707.0288
1729.6797 700.5735
1724.5388 694.7888
1720.9362 701.8596
1714.1102 710.0663
1719.2987 708.71375
1725.4333 708.43024
1729.3496 713.0578
1735.5825 715.75085
1741.3333 712.6508
1745.4269 717.2649
1748.8032 720.9539
1750.634 725.49115
1751.0065 730.67596
1746.0178 730.1553
1747.8508 735.3385
1747.7087 741.28375
1747.6798 748.91437
1743.4271 751.4605
1735.3802 750.5756
1728.656 750.92236
1722.1677 749.2198
1729.2369 744.6847
1734.676 739.69464
1738.4895 746.0866
1742.4989 742.91455
1742.3759 737.7598
1740.4348 733.4491
1735.0197 732.2201
1741.9957 726.7748
1739.7793 721.316
1734.138 724.9528
1729.5376 720.07697
1723.268 718.8639
1724.3142 726.05164
1729.1833 728.9918
1727.7985 734.2796
1726.137 739.3635
1719.6027 741.5827
1720.1658 733.1934
1712.5095 736.58215
1704.9478 737.48517
1704.2783 731.32654
1713.42 729.55853
1718.3126 724.706
1713.8325 720.9894
1719.374 715.3013
1713.0027 715.6808
1707.832 711.9069
1707.2678 717.3973
1708.1708 725.21124
1702.722 720.8996
1699.1986 726.1635
1687.7848 725.1107
1694.2703 720.86346
1699.9641 714.8096
1702.7537 708.2131
1709.1787 706.41833
1713.8049 702.64374
1716.1409 695.3464
1709.3856 696.6074
1705.5219 701.6586
1699.3949 701.6356
1694.3248 696.9977
1689.8029 690.90326
1688.1201 684.1202
1689.4591 677.9284
1682.8444 687.9862
1678.9702 682.3497
1682.9083 677.2988
1678.77 673.0845
1674.2656 670.11414
1670.1345 666.0014
1664.7358 665.9066
1662.439 660.9426
1663.5879 655.8084
1666.9161 651.65674
1670.9175 647.04736
1667.2618 642.0854
1662.4215 646.75507
1660.6709 640.87897
1654.7189 644.9804
1658.173 651.0125
1650.005 649.9713
1652.3899 654.9599
1657.4974 657.0808
1652.0573 660.92676
1646.3904 655.08203
1644.5809 660.1202
1647.4631 665.60364
1649.2583 671.8784
1653.2081 667.4171
1657.6205 663.57007
1659.9714 668.99677
1667.217 672.4952
1666.4927 678.9264
1673.1451 678.4379
1668.3533 684.0071
1673.5795 687.552
1678.4524 691.504
1682.7935 696.0996
1687.6882 699.3714
1692.7424 703.65344
1696.2228 708.68555
1692.1932 713.53845
1686.9282 717.0079
1681.8984 720.9237
1680.2871 712.67523
1674.2676 717.0371
1677.5712 724.40936
1670.7336 724.07495
1667.1119 719.27386
1668.4971 712.7536
1662.2089 713.71533
1654.8363 711.64166
1648.247 712.465
1642.6287 715.45514
1647.1345 719.78796
1644.3872 724.97156
1645.5485 731.0609
1649.2817 736.56854
1652.1416 730.85266
1659.4097 732.88043
1657.3842 725.518
1651.4812 724.87854
1652.2437 718.196
1657.0284 717.7152
1661.4744 720.05066
1663.2805 725.7663
1666.4089 729.7198
1667.5109 734.6937
1664.072 738.8863
1668.2362 742.8676
1672.9604 744.8137
1678.0289 746.9503
1680.6432 743.0892
1679.0475 738.67596
1673.292 737.4368
1673.4995 730.1997
1680.0361 731.556
1686.9679 730.98364
1686.0925 736.41156
1691.7585 739.7294
1694.1726 730.69556
1697.3252 736.6005
1700.6007 743.21454
1707.4369 743.4687
1713.1322 744.93054
1714.8348 750.8499
1705.604 750.2527
1697.8439 750.7517
1694.64 745.45886
1690.5055 751.65845
1688.4469 747.4888
1686.3438 742.3169
1683.6115 747.69336
1681.7188 751.84174
1674.9524 751.06793
1668.3789 750.7177
1661.0697 751.27295
1662.957 746.37885
1658.925 741.805
1654.9697 737.8651
1655.084 746.602
1654.1527 751.5698
1648.7566 749.7171
1644.2606 751.4746
1640.0846 750.39685
1635.1348 750.72046
1629.9818 752.0794
1628.6517 748.07324
1624.3599 746.26013
1623.458 751.93207
1620.1987 748.2807
1616.3381 751.429
1612.9297 747.0806
1618.67 743.34174
1613.7344 741.1936
1617.0349 735.3549
1612.2177 730.6064
1614.0084 722.6111
1618.475 727.7254
1624.3643 725.9925
1626.9825 722.1502
1632.2858 722.9254
1632.5294 728.9567
1627.4883 730.25244
1622.8026 733.15845
1622.4353 739.0736
1626.7161 742.08606
1630.8315 740.29504
1632.8309 745.244
1638.3492 745.5637
1644.5248 744.92676
1650.0571 742.81085
1643.6038 737.5337
1639.8557 740.6243
1635.2296 739.448
1629.1602 735.50214
1635.8899 734.2916
1639.9193 731.03314
1637.7576 725.7779
1639.4723 720.55176
1635.9188 717.0073
1631.6659 716.25653
1631.6729 711.12585
1631.6975 706.15
1637.645 697.5979
1636.7039 703.53516
1637.5193 710.9341
1642.5486 708.2913
1643.666 702.5578
1649.6855 705.9721
1655.7002 704.9462
1660.6844 708.16986
1660.8594 700.7428
1662.2776 694.3404
1667.7615 700.54626
1666.2749 706.2098
1673.5499 708.3851
1686.8761 707.9468
1680.7225 704.2143
1674.6343 701.60913
1675.3694 695.7903
1669.6304 694.8978
1666.6296 689.8941
1661.8461 685.4668
1656.5455 687.8763
1654.7654 682.882
1657.7382 679.14014
1661.9431 676.68036
1656.81 673.0887
1651.5238 677.49976
1646.2966 680.9774
1643.218 676.2977
1641.2231 670.60864
1640.861 665.411
1636.7008 661.5596
1629.576 660.7771
1623.7385 656.6717
1629.2529 651.2008
1625.7721 646.07654
1622.4067 639.2652
1616.1993 634.5441
1605.2964 636.55
1611.2615 639.5652
1611.2968 647.39984
1603.933 644.6451
1604.416 652.0335
1610.4049 655.39343
1617.8428 643.64325
1618.3473 651.0523
1616.8608 658.3681
1615.456 664.5279
1609.848 669.409
1605.7747 675.3596
1601.7827 669.4017
1607.0101 661.76245
1600.1804 661.40015
1597.6719 654.0274
1588.6638 655.6306
1592.9534 660.18555
1594.3629 666.756
1594.3408 673.2484
1587.147 669.13416
1585.3981 662.6216
1578.4641 660.3858
1581.5315 654.4945
1581.2388 648.09106
1575.4658 650.59784
1572.7158 655.6535
1568.7283 650.5216
1569.492 645.4899
1574.318 645.1445
1570.9371 639.90594
1575.0144 636.9934
1580.7427 636.605
1580.5405 629.36755
1574.6145 621.3442
1568.9834 625.99146
1574.5867 630.75104
1568.095 633.7292
1565.7251 639.79443
1563.9647 645.60754
1562.8696 650.4573
1558.7949 653.977
1553.7089 656.4388
1552.4872 649.9828
1547.1509 647.7528
1550.1937 641.97797
1555.5034 644.12695
1558.1106 648.515
1560.3538 641.54175
1560.574 635.4119
1554.3912 637.35986
1554.5597 629.57324
1562.1758 629.2048
1561.1302 621.962
1567.0331 617.06604
1557.0306 613.5938
1552.9231 619.74774
1548.8958 624.8609
1544.0319 628.46515
1547.8165 634.28723
1544.524 638.71387
1543.6824 643.3636
1540.7194 646.6739
1541.2977 652.0767
1540.4119 657.16406
1547.0745 653.82135
1548.1257 659.1108
1552.8962 662.8065
1559.7947 659.25586
1565.4321 654.967
1566.2328 659.6322
1564.653 664.8539
1571.764 661.7443
1572.7766 667.10034
1579.2346 668.0821
1581.3835 674.4856
1587.2207 675.34576
1589.9296 679.5101
1594.856 680.501
1585.8933 682.9887
1581.2263 681.53394
1576.4321 677.9015
1572.9656 673.93146
1567.9404 670.3816
1563.0006 671.15753
1557.8892 669.1787
1558.2642 664.1496
1551.8251 669.0868
1545.0203 670.38403
1547.0023 665.36414
1542.955 662.10297
1538.218 664.61896
1534.9921 659.7808
1530.0526 656.7572
1531.1455 664.55334
1529.992 670.8467
1537.5602 670.3839
1536.5758 677.672
1530.0242 678.0148
1535.037 684.0749
1529.2051 686.3266
1523.5116 683.28955
1523.4548 675.9034
1518.6945 671.8187
1523.0554 666.64496
1525.0167 661.24286
1524.0287 655.3984
1516.1167 658.9773
1515.3605 666.1547
1513.1431 675.3309
1508.3751 670.9534
1501.0913 670.0953
1504.0427 663.51965
1509.7068 663.31396
1508.3864 656.8162
1509.0908 650.99646
1514.9393 648.711
1518.9014 652.989
1528.1836 649.5847
1534.4358 653.4216
1535.8868 648.92267
1534.1309 644.197
1527.5057 642.50555
1521.8203 646.06995
1518.3292 640.5404
1518.114 634.93726
1513.297 631.6699
1510.6592 626.4515
1505.092 623.89056
1500.4575 628.7389
1505.5233 632.74384
1508.9219 637.8318
1512.2194 643.1324
1505.5616 644.0589
1501.3971 649.54767
1501.7318 656.0256
1498.5116 662.3935
1494.4929 666.9872
1492.0471 671.50336
1496.016 676.85297
1502.354 677.01355
1503.0101 683.6391
1500.6282 689.0872
1494.4558 685.2398
1489.6743 678.86127
1485.4684 683.16095
1479.9349 676.91254
1477.1136 683.01605
1474.294 689.0032
1468.9402 692.2894
1474.6841 696.1411
1477.7938 700.8226
1482.9441 704.2315
1475.7024 706.5884
1471.5493 710.3377
1470.5137 701.9228
1464.5183 704.88727
1465.0559 710.7196
1469.3635 716.3396
1475.6621 719.96014
1477.9092 714.4435
1481.9004 710.32007
1488.1847 708.7561
1491.8558 703.95087
1496.4248 707.75305
1502.0796 707.3853
1507.4917 706.20355
1512.3278 706.0965
1516.8992 707.88275
1521.794 705.13477
1519.4254 696.52905
1515.113 700.7648
1509.3296 699.14886
1503.675 700.9744
1497.3904 701.33527
1488.4326 699.817
1483.7085 697.0269
1479.994 692.6412
1483.5665 688.55493
1489.5775 691.3703
1494.1948 695.18304
1500.292 695.3873
1506.3363 692.9363
1513.0088 693.12585
1510.8735 686.649
1508.8899 680.15356
1516.9347 681.0388
1518.1847 688.58276
1523.8848 690.9278
1525.08 701.10376
1531.3807 699.5561
1527.4026 694.95166
1533.4182 692.21545
1539.7052 688.6905
1546.682 689.69293
1542.9629 682.1203
1541.997 675.5494
1548.0493 676.6285
1553.3267 674.70996
1558.2346 675.25024
1567.8944 677.6226
1562.5833 677.6478
1552.7124 681.13617
1548.5797 684.6989
1554.3237 688.8469
1557.7158 682.6303
1562.4207 683.8485
1567.4825 684.5899
1571.9146 682.32495
1575.9114 684.8442
1571.2275 689.6743
1573.5587 694.56616
1567.1833 695.0027
1564.2195 689.5975
1559.1675 691.5032
1560.8695 696.3516
1558.4995 701.5298
1554.7916 697.0133
1549.7218 695.50415
1543.8301 695.3186
1538.4172 696.5459
1537.1624 702.5311
1544.3641 703.2405
1551.2781 702.76825
1549.0035 710.1632
1552.6378 718.73566
1556.5741 713.46423
1554.0387 708.1704
1558.2555 706.9073
1562.5295 705.709
1563.042 711.76874
1569.7606 713.419
1575.1414 716.97107
1579.3013 722.3031
1588.7446 726.35706
1595.6824 724.4664
1592.4913 719.65784
1586.6904 719.88043
1582.0623 717.2915
1581.8191 712.7779
1577.4802 711.0706
1574.1228 709.12854
1569.549 708.3297
1566.8296 705.4651
1564.6576 700.2273
1570.38 700.217
1573.3386 704.0865
1578.7755 704.09406
1576.9801 699.1193
1579.5178 694.4801
1579.1488 688.1186
1583.176 691.5244
1584.3375 700.47723
1583.3282 707.1384
1587.9077 711.8171
1593.4432 713.9318
1596.7369 708.0112
1600.5913 713.0447
1606.493 711.2759
1606.1031 705.41486
1600.4818 701.9993
1594.6919 699.0818
1590.3289 704.8242
1588.147 695.7521
1587.0425 688.8194
1591.8286 686.154
1594.396 692.3718
1602.0598 693.41815
1608.3071 698.1662
1607.8425 688.0715
1598.5597 686.5225
1599.7148 677.6304
1604.2148 682.8106
1611.5037 678.83124
1615.0546 685.4073
1613.214 692.06256
1616.8145 696.48553
1618.6515 702.48737
1623.822 695.3016
1621.8179 687.9606
1628.187 685.1268
1626.5769 676.37775
1619.6973 679.71747
1617.5986 672.3504
1623.7014 666.6694
1631.8131 668.7987
1635.5205 675.0952
1634.5138 681.37665
1641.4688 684.75854
1649.5386 686.1942
1648.109 691.81445
1655.6038 692.7785
1654.6001 698.53314
1648.9556 698.8216
1643.4294 696.2393
1640.3044 691.4141
1635.0845 688.62854
1630.0828 692.2159
1631.9635 697.3707
1628.7458 701.0053
1624.1823 703.2076
1625.0742 708.4049
1625.8884 713.6592
1627.611 718.012
1621.4661 719.76013
1616.5543 717.124
1619.6124 711.1055
1613.3856 705.5113
1612.763 712.6
1607.8503 717.1718
1599.7139 719.1793
1605.605 721.67114
1608.6046 726.0739
1601.2552 726.7665
1605.1428 731.9899
1610.0953 736.45795
1607.8535 742.2409
1606.1814 747.7637
1609.0845 751.77106
1600.2737 751.09894
1592.285 749.934
1595.733 745.2255
1601.4021 744.0358
1602.6608 738.4042
1598.7107 733.8444
1593.3156 731.1527
1593.3811 738.9758
1585.7896 734.2322
1586.0847 741.7381
1585.843 749.86206
1579.5212 749.2789
1572.3594 750.08936
1563.1805 750.7258
1558.3463 744.8107
1554.9094 751.15125
1550.1091 748.3689
1547.2653 741.8039
1552.3239 740.33264
1556.8735 736.8627
1561.2986 732.10645
1569.5336 733.60986
1563.947 739.0502
1566.5369 745.54767
1571.3887 740.8197
1578.0885 742.39026
1577.5728 735.2694
1582.4518 728.13806
1575.8658 728.007
1569.4803 727.34076
1570.7805 721.47015
1565.8085 717.75446
1559.9624 719.18964
1563.1974 725.5233
1555.7129 725.5121
1551.5752 731.3615
1545.2743 736.07086
1541.9336 730.72076
1536.192 727.86865
1533.7329 734.424
1528.5474 729.2655
1531.282 723.1759
1533.6528 716.1663
1539.9774 720.8063
1547.1201 724.6205
1546.3727 716.6093
1541.8896 711.72327
1536.7518 709.03186
1530.6154 706.25397
1527.7928 711.29
1520.6682 712.1455
1524.6372 717.1605
1524.7812 722.80585
1516.5675 718.19403
1512.6576 726.0776
1519.0188 725.43176
1521.9819 730.9068
1527.0249 735.0871
1536.5721 739.2691
1540.0989 743.09937
1544.5518 746.3204
1542.7415 751.12524
1535.4348 749.71313
1530.6783 746.00854
1527.3533 740.355
1523.6931 744.8262
1524.6932 751.0777
1518.0586 748.3093
1512.5122 750.5332
1506.0133 748.62714
1500.1904 751.6962
1496.9027 747.92554
1500.9458 742.66504
1506.1462 739.0917
1511.4713 742.6128
1517.8572 741.1949
1520.7386 736.66736
1514.9064 733.91693
1508.9546 733.1912
1505.8955 725.09296
1507.5972 720.16
1510.614 716.57184
1511.7631 711.7169
1504.9303 713.56244
1499.3856 713.95465
1500.2006 721.1881
1497.2672 727.998
1503.4883 729.68744
1500.6053 735.1417
1494.9155 735.56085
1489.3579 735.5493
1493.4977 741.78064
1491.648 747.3702
1490.1084 751.8138
1486.6967 745.4849
1482.996 750.59894
1476.3015 751.81604
1480.4908 744.69244
1485.9578 740.3481
1479.579 738.8938
1475.6007 747.6396
1468.7705 751.2677
1464.5093 747.02106
1470.6912 744.9769
1468.0905 739.5685
1474.8279 741.2603
1473.801 735.9952
1474.3647 731.1321
1479.8184 732.24
1483.2809 735.4003
1485.8763 730.3656
1491.3513 728.5642
1491.6709 722.2935
1494.5585 717.98706
1493.064 712.5332
1487.26 715.53925
1483.0768 719.40204
1485.9331 724.42303
1480.8207 725.3229
1477.7842 727.86194
1473.9104 725.6758
1469.3352 723.8747
1464.1351 720.52014
1460.589 714.292
1457.6086 708.154
1454.3049 702.6381
1459.9978 699.782
1465.6404 697.6921
1461.6085 692.079
1454.7174 695.6413
1448.943 693.4343
1447.3514 701.44434
1449.3368 707.95087
1452.5989 714.17596
1457.255 719.46027
1456.0815 725.82324
1449.6664 722.60596
1442.4329 722.64154
1445.4227 715.901
1436.5037 715.39417
1433.7272 707.69214
1426.9114 704.79755
1424.2117 698.4598
1432.7211 699.5281
1439.3478 703.8233
1442.062 709.89746
1441.4011 698.3614
1442.4364 693.2002
1443.1014 687.91046
1436.1993 692.2514
1430.1086 692.99786
1424.7319 691.59625
1418.6495 691.74634
1414.6793 694.865
1417.033 699.78046
1419.6858 704.434
1419.261 709.42413
1421.2799 714.01605
1427.1006 710.7908
1428.402 715.9135
1417.4254 717.63116
1423.2037 720.863
1426.6001 725.88324
1431.8015 720.98486
1432.1478 728.9728
1437.2365 725.7059
1442.6284 731.9023
1450.1368 730.9642
1446.2646 738.8444
1453.7687 738.44464
1457.9558 732.91046
1463.0422 727.2918
1468.9698 731.3586
1464.125 734.5557
1461.4181 740.5544
1457.1007 745.03925
1459.4697 750.9392
1452.029 750.7872
1450.4731 745.392
1443.7926 745.7373
1438.1503 741.7089
1435.3284 735.00916
1430.0619 741.7664
1427.3234 733.65765
1420.3055 729.6109
1422.2384 737.86237
1415.1755 737.9502
1411.4225 733.1705
1411.0945 724.5836
1416.5657 723.75793
1411.6113 715.9675
1412.4128 709.81964
1411.637 704.1551
1410.4744 696.932
1411.6583 689.18
1417.4149 684.2712
1411.5835 682.97217
1410.7439 677.2778
1412.1609 672.3912
1419.2483 673.0631
1421.8324 664.6801
1424.7706 669.3365
1431.5243 671.15564
1437.5212 667.4528
1441.67 671.68634
1437.383 676.37384
1431.3005 678.69867
1426.184 674.8501
1423.4954 679.82007
1416.8397 678.03534
1422.6279 686.11554
1429.1733 685.2846
1435.8239 684.8908
1441.6825 681.72833
1449.0028 685.34973
1446.8949 678.56946
1447.1584 673.61993
1448.2303 668.13416
1453.9287 665.21075
1450.1909 658.3384
1454.2854 652.12665
1461.3933 652.98553
1467.2051 656.7868
1460.4156 661.3421
1468.1155 667.9829
1461.1201 670.1655
1461.71 678.07074
1454.2898 673.6045
1454.4346 680.9648
1455.705 688.073
1463.2627 685.4837
1469.4548 682.8697
1470.6771 675.42285
1477.1735 669.4811
1485.3967 672.548
1485.5463 665.3824
1479.2157 662.05316
1471.4214 662.09344
1475.6222 655.51654
1482.5294 655.0945
1478.043 648.31964
1484.0468 648.90076
1489.4612 648.5343
1487.8616 657.24664
1491.7513 661.9991
1494.9191 656.28516
1494.81 649.98755
1498.7006 643.1291
1499.2195 636.86383
1491.7847 641.29425
1483.722 642.3873
1485.1519 635.8234
1490.518 633.9002
1495.2853 631.3592
1486.5771 627.44073
1480.565 630.82495
1478.3909 637.3668
1473.227 633.3217
1469.3898 638.20795
1474.1696 642.99976
1470.6681 649.74774
1463.7721 646.5816
1463.1992 640.34344
1454.7408 642.99915
1447.0188 646.9649
1439.6938 650.1995
1437.5728 644.0195
1433.1659 637.75903
1440.652 638.61914
1446.6432 636.71545
1438.4138 632.262
1437.5853 626.0898
1444.9397 627.54596
1441.4441 620.1465
1433.5487 619.1777
1427.1321 623.8579
1432.3285 626.365
1428.7628 631.14026
1427.0327 637.0487
1426.466 642.6444
1429.1029 646.8539
1433.0128 651.9257
1442.6272 656.1998
1443.3036 663.49603
1434.7991 658.75275
1432.4949 664.9123
1427.6871 661.8255
1425.9117 653.443
1422.0388 657.91583
1416.3048 660.8592
1416.3777 667.59607
1409.7891 667.6756
1410.1622 661.4432
1408.5737 653.9498
1415.7772 653.5912
1419.4789 647.6805
1420.578 640.57404
1422.3728 633.6151
1416.2977 634.73456
1413.0825 628.852
1418.3145 629.70605
1421.8954 625.9252
1414.7308 623.1383
1408.7719 625.2588
1410.1218 634.5631
1414.2435 639.9125
1411.8645 645.2442
1406.0929 646.0381
1405.1124 637.67065
1404.7715 629.9728
1403.5327 623.1896
1404.2092 616.8805
1403.8497 610.94324
1407.5801 608.6216
1413.5491 608.36914
1411.1947 614.87146
1409.5714 619.805
1418.7527 619.281
1425.5441 617.3023
1423.733 609.9889
1417.9601 612.8323
1418.1099 603.3285
1424.849 601.4114
1422.0323 595.0287
1426.9688 588.73584
1429.2277 581.9226
1432.1038 575.8074
1438.5425 574.0384
1443.3704 580.55963
1435.199 581.7701
1438.1833 586.50574
1434.3387 591.3721
1431.2421 597.83545
1429.8026 606.006
1432.2175 612.49054
1437.6057 605.63666
1440.7515 612.9242
1449.327 611.12317
1445.6582 603.26276
1439.7838 597.70325
1444.371 591.45496
1455.9371 591.7089
1451.0116 597.32104
1454.4391 604.46155
1461.0205 607.25964
1462.4622 601.94824
1460.7108 596.99133
1462.9514 591.26904
1468.2761 593.8583
1467.6628 599.3468
1468.0338 607.36084
1472.8519 610.46375
1477.0234 614.4206
1473.8788 620.2054
1468.0984 622.78625
1467.5979 616.00385
1460.3154 613.30206
1455.6681 618.0209
1448.7177 619.47424
1460.8912 623.5893
1452.9984 626.90405
1452.674 634.4469
1458.9705 634.4216
1463.6835 631.24817
1468.4307 628.91766
1474.3262 627.3169
1479.6025 624.72327
1479.8894 618.60376
1485.3232 621.178
1486.214 615.37994
1492.0769 618.59766
1492.9144 625.38605
1498.565 621.3719
1502.9199 616.1665
1497.2667 612.88245
1501.0131 606.6777
1501.8961 598.1717
1509.0282 601.49896
1507.803 607.82983
1508.5408 613.99567
1511.4811 619.2001
1517.3871 623.5602
1526.1104 624.5651
1521.3195 629.17706
1525.1986 635.6111
1531.0083 630.82275
1532.3076 637.6084
1538.4703 639.46747
1538.9725 632.98553
1536.833 625.95483
1533.0369 621.0197
1529.4685 610.3781
1526.8927 616.95935
1519.5232 616.9979
1521.6708 609.28174
1514.7983 610.2041
1516.3477 601.44354
1526.0638 603.2004
1532.7637 598.18585
1535.8834 591.92804
1543.3838 592.2748
1542.8176 601.37744
1534.8899 605.04034
1535.8127 614.5719
1543.0242 619.0399
1541.3585 609.719
1548.655 610.96454
1553.5347 604.39545
1561.8773 602.7832
1563.0212 609.52545
1571.4102 611.26556
1576.8081 606.4188
1582.4342 604.1795
1582.4794 597.71136
1584.023 591.5578
1578.1959 590.4146
1582.8853 585.0381
1586.1503 580.525
1591.9976 577.9519
1586.4453 572.7288
1580.5483 576.3731
1575.4744 578.1278
1576.8612 584.01874
1571.9738 592.4703
1575.8728 597.9051
1570.2981 602.7912
1565.295 597.3117
1564.6947 592.11566
1558.3209 589.3127
1556.2738 596.1129
1549.0664 596.5744
1550.8013 587.2836
1542.5632 584.6184
1535.4127 583.6285
1528.8593 585.5758
1522.2372 587.1924
1526.8861 592.86304
1521.4497 597.0039
1515.4164 590.531
1509.0747 594.29175
1506.1787 587.7002
1499.7769 587.0935
1495.627 594.37933
1494.2245 602.62646
1491.8657 610.33215
1484.8824 610.3203
1479.8319 609.66486
1476.8645 605.5622
1472.372 600.183
1477.4459 600.7602
1483.5957 603.88116
1493.4939 587.38947
1495.3772 580.4732
1496.3473 574.0561
1496.7537 567.9055
1503.4253 569.2649
1499.5902 562.03735
1501.2891 555.4245
1506.4495 557.85175
1507.6597 563.72784
1513.4225 566.2377
1516.7439 574.1054
1510.997 571.5682
1507.0238 575.11255
1502.8928 579.37286
1511.1196 581.43646
1517.3896 582.4093
1522.291 578.3929
1528.579 578.49603
1533.5868 575.6393
1539.5702 575.6997
1544.8353 577.17755
1550.5197 579.5081
1556.6324 577.1216
1558.5337 582.95715
1564.6041 583.21985
1566.3757 587.52783
1571.509 585.70264
1571.2191 580.7746
1566.9895 579.481
1563.0262 577.07465
1561.824 571.58405
1558.3654 566.9996
1553.986 571.3928
1547.9414 570.8206
1542.9778 567.7057
1542.1628 561.9019
1538.4868 557.368
1540.2942 551.33777
1542.0178 546.4161
1534.5762 552.18805
1533.9858 546.3104
1537.7771 540.22546
1542.9601 540.69135
1547.7423 539.4103
1550.6074 535.5254
1549.8333 530.8498
1551.671 525.6601
1553.8516 521.3487
1558.4039 519.6571
1561.0634 515.33545
1556.5127 513.018
1553.0946 508.5134
1547.0876 509.9458
1551.7388 515.98175
1545.655 515.93866
1546.4905 522.12616
1540.0687 523.4636
1539.635 517.3241
1534.2642 522.9393
1540.2397 528.743
1545.6521 528.88715
1542.8632 534.7233
1536.1666 533.496
1532.1857 528.80396
1528.5559 520.57587
1532.7823 516.0832
1526.2937 513.82684
1522.0283 519.2514
1520.2786 528.5424
1526.1019 526.72955
1528.7644 534.54803
1531.5812 540.2166
1525.015 543.6035
1518.2201 549.96533
1521.9902 556.1133
1526.6167 550.14386
1530.511 555.86096
1528.5002 560.8498
1534.9308 562.70483
1536.417 569.17017
1529.6907 567.7203
1525.9288 572.38416
1520.7339 568.6619
1523.5681 563.2518
1517.4902 562.11743
1513.679 557.0894
1510.1682 551.35626
1504.1613 549.12463
1501.1443 542.9142
1495.1085 549.3485
1488.1294 559.8277
1487.2915 544.63416
1492.446 541.91797
1496.8301 537.78467
1497.8674 532.1234
1499.2296 526.37354
1499.7842 520.98303
1495.7568 518.6794
1491.1987 517.87726
1497.7648 514.3395
1495.788 509.74728
1497.3733 505.41492
1491.7156 500.41284
1490.5339 507.07382
1491.8646 512.9902
1486.7843 515.4052
1486.9945 521.40826
1480.818 515.9283
1475.8081 511.6101
1478.43 506.0064
1484.4329 510.36047
1485.0729 504.32114
1485.0142 498.47647
1487.3217 492.51788
1493.9238 493.1181
1500.2109 492.26422
1497.6367 498.86194
1501.9768 501.95654
1505.6355 497.63776
1507.4214 491.1223
1512.1234 494.698
1514.6799 489.64847
1515.3844 483.55908
1509.603 481.177
1504.1232 486.16397
1502.098 479.97867
1495.6407 477.54907
1496.1133 484.67142
1489.896 486.40784
1483.3921 482.99796
1488.4783 477.48685
1479.6471 473.0102
1476.1069 479.8587
1474.3999 487.31305
1480.4762 491.9194
1477.418 499.9913
1472.1455 496.11008
1469.6565 505.90842
1474.4364 519.0081
1481.2238 522.3106
1480.6855 530.1653
1486.006 527.479
1492.9736 522.76355
1492.2725 527.8548
1489.3588 533.72437
1485.2606 538.0839
1480.0059 542.27234
1478.3652 535.99615
1475.4572 525.87885
1471.6755 532.31165
1471.32 540.6262
1465.3464 538.4464
1463.5182 530.1896
1457.5376 528.7294
1461.5269 519.9392
1468.2931 524.1482
1468.4801 514.9796
1461.4597 511.72498
1453.8151 509.56357
1452.6276 517.05835
1455.0737 522.89355
1449.5203 526.4615
1453.9607 532.65497
1446.2445 533.5095
1445.0632 545.8683
1438.476 534.392
1432.8894 539.8395
1432.4703 549.0162
1435.3771 557.5337
1442.7273 563.7837
1437.1346 567.721
1430.7501 568.1302
1420.5786 568.83136
1425.5244 573.56726
1422.6853 580.31995
1415.8248 581.122
1418.896 587.47577
1414.2069 592.63446
1412.196 598.2885
1408.4844 602.79095
1402.4164 601.80304
1404.0715 594.14557
1409.9081 586.39685
1402.4152 586.1916
1401.8202 576.00275
1407.9802 578.7274
1415.2655 574.05347
1409.0638 569.9841
1402.3641 566.4583
1401.1487 557.9444
1402.0717 550.7828
1403.2124 543.9662
1406.8451 535.46967
1414.5153 540.1053
1414.2764 548.6774
1411.8868 555.21185
1408.8441 561.65326
1417.5359 561.87103
1426.9077 561.1486
1423.8167 552.5332
1423.5469 543.2192
1424.2639 535.6493
1428.7909 531.22784
1433.0665 527.83484
1442.8933 528.3177
1438.2463 524.9021
1433.4283 520.8868
1430.1578 515.8343
1432.4514 505.06204
1427.2131 509.90338
1419.0397 509.12997
1421.4203 517.5962
1426.7035 523.17834
1420.5073 526.8345
1414.5479 530.0433
1413.2778 518.0326
1409.745 509.7852
1401.7095 511.76324
1403.8967 518.95544
1406.7854 526.0674
1397.3645 537.9609
1397.727 530.58716
1395.5647 524.1159
1394.9077 516.9611
1393.4193 509.71765
1393.6697 501.90768
1398.4694 505.64328
1405.162 502.59177
1412.5306 500.96835
1420.7762 501.0369
1428.0762 499.9708
1424.538 492.85492
1416.4061 493.03867
1411.0767 485.3575
1418.5149 485.26062
1424.175 480.3823
1426.9221 486.39557
1432.6758 488.73914
1431.988 481.10345
1428.8771 474.57037
1422.495 471.7627
1417.7767 477.44968
1413.8987 472.09897
1410.7261 466.5633
1406.3038 468.96216
1405.829 474.65872
1410.7566 478.92795
1404.1111 481.84756
1401.088 486.98773
1409.1741 491.66592
1404.0464 493.98215
1399.4125 497.81946
1393.2461 495.03046
1395.4037 490.0186
1394.7435 482.7987
1398.2463 477.18118
1396.369 470.9711
1400.8848 470.04538
1398.1304 462.90692
1402.6294 464.51837
1406.923 461.80988
1411.8839 459.77554
1416.4146 465.07858
1422.7078 464.65497
1429.771 466.11737
1435.5009 472.80838
1438.2891 466.4489
1435.2883 460.6892
1440.5312 456.05377
1439.6221 449.79788
1433.4819 449.27322
1431.3868 455.31555
1425.7479 458.28268
1418.5918 457.87387
1421.1927 451.65564
1427.1855 449.80374
1423.749 445.05905
1425.5131 438.95178
1420.1973 439.8729
1417.1576 445.37057
1414.6989 449.9099
1412.848 454.39737
1406.8416 454.90793
1402.8834 458.52274
1399.9407 455.21527
1402.8125 449.62195
1408.3535 449.14395
1405.5984 442.5226
1410.7836 443.2864
1414.4266 438.70343
1409.0004 434.69266
1406.3842 427.79663
1407.8739 420.55246
1411.3811 414.8306
1419.1978 413.6132
1424.4121 416.41077
1418.5121 421.01883
1415.3937 427.21805
1418.6228 433.24377
1425.6266 431.8694
1424.3506 425.67767
1430.5792 426.43686
1433.3353 431.8755
1430.3961 436.66534
1431.1293 443.21518
1438.1158 443.1369
1436.5083 437.4147
1441.4542 433.86417
1439.4058 429.7414
1436.4093 427.72906
1435.1595 424.14062
1433.333 420.40024
1428.1266 420.11722
1429.3524 412.52872
1433.3964 414.5187
1437.6143 417.36005
1439.2637 411.96634
1444.4034 407.66223
1450.9795 410.87183
1445.8379 414.2925
1442.3234 418.796
1439.8835 423.1633
1447.3599 420.06525
1446.4851 424.46097
1443.3588 427.69632
1447.1616 430.67862
1451.8594 428.96033
1454.5012 435.78427
1460.008 435.9209
1463.5388 440.7892
1465.8932 448.25433
1462.6481 455.70975
1457.712 448.5538
1452.6079 442.75174
1448.8123 435.85693
1444.1699 439.37216
1445.0586 446.00937
1449.5865 451.84717
1455.3063 459.47977
1447.3572 459.8359
1445.3947 466.31607
1452.6614 470.16312
1461.5527 466.05237
1461.4233 474.65204
1454.7295 479.19858
1449.7294 484.14368
1444.724 478.92612
1443.9243 473.34256
1437.6956 480.14508
1442.4116 485.01102
1438.737 489.6759
1434.5748 495.87836
1439.5417 502.8407
1437.75 510.18753
1438.758 516.8314
1444.7981 521.07007
1445.6316 513.1365
1447.2507 504.96176
1443.9084 497.11343
1446.0608 490.57565
1452.4827 493.45984
1454.6506 500.1764
1461.2207 504.29822
1463.8197 497.61478
1466.1093 490.54642
1458.1753 488.0598
1465.8212 482.46155
1470.069 474.81653
1471.4131 467.62396
1468.1079 459.92828
1474.1946 458.69467
1478.079 463.7662
1483.2026 465.72754
1486.2888 470.70935
1492.5896 471.34982
1496.128 467.11935
1501.517 465.12473
1497.726 461.4721
1503.5894 458.52545
1497.7644 455.61987
1500.4606 450.27042
1502.9556 443.7135
1507.0889 448.72336
1508.431 454.27594
1509.3824 459.87323
1512.9417 462.7281
1516.3883 461.14322
1519.5756 457.93472
1515.569 454.7895
1514.7269 449.76868
1514.166 444.76904
1509.5701 440.5474
1505.0741 436.2695
1506.9569 429.92767
1501.0901 430.43655
1495.3037 427.6202
1495.7012 434.20572
1498.2284 439.26935
1494.7675 444.36566
1493.0188 450.2701
1490.6484 455.8907
1492.5734 460.4699
1489.7323 464.8669
1484.8358 459.3371
1486.1704 452.0622
1487.1782 444.55377
1489.3619 437.71594
1481.8036 436.69348
1479.2023 442.4836
1480.5597 448.57147
1479.5393 455.14
1472.8523 450.99854
1471.9225 443.11105
1471.7625 436.41064
1465.1042 431.68793
1457.6044 429.65396
1452.4637 423.63632
1451.509 417.60495
1456.3524 413.49048
1456.6658 419.1718
1457.7761 423.9198
1462.4889 425.33508
1467.6415 424.32764
1471.1704 420.7934
1477.2164 424.07437
1471.4298 429.22574
1477.4296 431.30896
1483.767 429.53247
1489.7723 429.9329
1491.4951 421.81073
1484.6559 422.57816
1478.9519 417.08713
1474.491 416.86285
1470.7434 413.06662
1466.7863 416.94638
1461.9373 418.59933
1463.2705 412.46674
1460.7883 407.72156
1456.2941 404.89395
1450.4814 405.0574
1448.4753 400.04517
1442.7373 399.91937
1436.0072 399.9033
1438.2738 405.73044
1432.3276 406.89365
1425.2711 408.7583
1421.5377 403.45285
1416.2656 407.40536
1409.9307 407.47998
1413.3638 399.08664
1419.2764 395.6344
1425.3478 393.83487
1428.1371 400.86884
1432.1846 394.39203
1439.3992 393.48712
1441.9839 387.4635
1447.3274 392.90866
1448.9922 384.28043
1442.9624 381.12903
1445.1887 375.061
1451.9806 372.6798
1453.6912 378.82178
1457.0408 384.95682
1454.1633 390.35492
1455.071 397.2892
1461.8882 399.5385
1467.4655 401.89447
1468.2863 407.81204
1475.9819 409.58856
1474.868 402.1339
1480.5132 404.17163
1483.3209 397.99234
1489.0219 402.951
1484.0908 408.97885
1483.0419 415.23447
1488.5784 415.4948
1495.0267 415.04803
1491.3447 409.43768
1497.2351 405.8561
1500.7832 411.13162
1500.3765 417.75858
1498.2485 422.93164
1504.7305 423.55966
1511.7374 425.54767
1512.6964 432.30896
1516.6593 438.5809
1519.181 432.05542
1520.899 426.62735
1516.8693 421.42166
1511.1703 419.28424
1505.7356 416.3935
1510.139 412.93314
1516.1294 413.6272
1518.7511 404.43466
1512.9669 407.41864
1506.0182 407.3765
1495.7091 399.61926
1503.2299 400.87064
1511.0626 400.77307
1511.9265 393.97363
1505.0741 393.96762
1497.8499 393.16772
1490.7534 394.89197
1486.8973 390.2173
1479.4949 392.05545
1472.5851 396.53278
1470.5168 391.05032
1462.9814 392.99915
1463.2126 386.76132
1461.9276 380.2319
1460.0732 374.7361
1464.0903 370.62894
1457.0236 369.015
1453.5392 364.30176
1459.1685 359.6795
1461.6388 364.80725
1467.557 365.41306
1472.5922 363.61752
1477.4664 360.92166
1484.3422 353.06827
1477.8247 353.44095
1472.175 356.04755
1472.2756 347.6277
1466.2119 350.7203
1466.1057 358.4641
1459.3749 353.22458
1452.8978 353.39743
1449.0164 349.18378
1452.4471 359.2305
1447.1366 357.46063
1443.9492 361.95163
1447.9222 367.1978
1441.4468 368.49353
1435.8727 370.98413
1429.6417 374.5782
1426.9326 380.63113
1436.56 378.7548
1434.8931 386.48746
1428.328 387.62854
1420.7992 387.03204
1413.4856 388.50027
1416.7308 379.54767
1416.7947 371.36838
1424.2582 370.1377
1430.507 365.0241
1421.7417 361.96964
1424.3661 353.5277
1430.6362 357.40323
1437.0417 361.79395
1439.7991 355.90515
1444.5768 351.7584
1437.9855 350.27728
1431.7261 350.6335
1427.0094 346.21133
1427.7842 339.50763
1432.6898 336.0467
1435.917 329.57462
1441.7451 321.76678
1450.9502 321.83792
1448.1722 314.36255
1455.639 314.7759
1458.8364 321.67908
1463.4802 325.6732
1469.4354 327.8617
1470.2369 334.85956
1462.9838 333.1842
1456.4465 330.39554
1450.0538 329.16214
1443.3503 329.79254
1441.0304 336.76273
1434.0669 343.31815
1440.1855 343.8149
1446.1134 343.96747
1449.6099 337.4479
1457.5039 338.63315
1453.8203 345.59918
1460.608 345.86285
1465.9333 341.3191
1474.1271 340.95844
1480.2411 346.79022
1483.7139 340.86166
1478.9945 335.94867
1476.6334 329.48782
1475.0604 322.20547
1483.1146 323.0045
1481.6447 316.26196
1482.0881 310.2557
1483.1515 299.24002
1484.5485 305.01437
1490.215 310.25467
1491.1926 318.82034
1500.1847 319.32278
1503.7737 325.31625
1496.3832 328.30542
1490.0756 327.1706
1484.5128 331.23303
1490.6926 337.45334
1489.431 346.7346
1490.0789 356.40707
1495.5494 352.21954
1503.8448 350.73633
1498.3015 346.781
1498.3307 341.4638
1498.9841 335.81778
1504.248 332.9086
1510.2883 330.03485
1514.881 325.44412
1522.1545 325.2939
1518.1942 332.64844
1521.7197 338.77072
1525.3677 345.00766
1517.4641 345.09027
1511.5853 337.76035
1507.4594 343.40854
1511.4397 350.45193
1514.7057 356.3696
1519.6852 352.80893
1525.1357 353.9512
1529.5663 349.7196
1532.1084 355.16608
1537.6992 356.0285
1536.9053 348.98175
1532.8032 344.4567
1530.1589 338.59317
1526.409 332.31995
1530.2405 325.8836
1528.7565 318.90735
1531.8444 312.50552
1521.8643 318.275
1515.5139 317.75757
1508.8738 320.58383
1508.125 313.7671
1504.2834 308.1742
1497.9426 312.75
1497.177 304.79523
1496.6613 297.27396
1490.36 300.67834
1489.7511 292.85452
1483.1251 293.42212
1476.0125 297.93597
1475.6907 303.37088
1475.4083 309.2956
1472.5461 314.78177
1467.4312 319.74597
1463.425 313.33813
1453.5022 306.5507
1459.8268 305.3566
1468.4027 306.7969
1464.7722 300.16635
1470.3408 294.63712
1476.3098 290.73154
1483.0583 287.33157
1489.0438 284.90118
1496.0735 283.81448
1495.277 289.73996
1501.7814 290.401
1503.5747 283.5869
1510.8585 281.21274
1515.8024 286.27478
1509.9573 290.81754
1511.3977 297.48068
1504.851 300.35565
1511.2655 304.65396
1514.6898 310.3018
1522.4578 311.5621
1519.7235 304.4455
1518.1938 297.24075
1520.6016 292.46368
1523.5118 287.1051
1520.9506 281.3204
1520.0195 276.6143
1529.3065 279.5701
1535.1582 274.1861
1539.8854 278.15472
1538.4333 286.74997
1530.1555 288.44427
1532.4646 295.99478
1525.7672 298.4731
1528.4142 305.745
1540.1296 295.83514
1537.5222 303.72495
1539.3917 311.10574
1537.6421 319.853
1537.9196 327.4674
1534.7075 333.24832
1537.3213 340.04205
1552.3794 342.52103
1560.5835 351.81284
1565.1135 347.2699
1566.6442 354.29474
1572.2822 353.46835
1572.2133 347.29132
1577.3196 344.2091
1580.0396 339.66904
1581.9648 334.64035
1587.415 334.4855
1594.2211 335.2018
1589.436 340.68396
1585.7822 346.66074
1579.5892 350.44437
1584.2819 356.10623
1583.7874 364.6091
1576.6139 364.83826
1577.4547 357.80188
1570.3439 361.32315
1563.0549 359.39313
1556.331 359.1342
1554.4967 365.96243
1550.0526 371.61923
1536.5918 371.52753
1533.7711 377.96835
1533.5021 384.05655
1533.2173 390.0217
1529.049 393.57086
1527.1267 388.00726
1526.2721 381.39758
1519.5336 382.37454
1520.5565 375.38165
1527.3936 374.52335
1526.0448 367.51376
1532.2539 369.27588
1535.8318 363.01038
1528.8622 360.87302
1521.0779 361.28094
1518.3181 367.74167
1513.7275 373.16177
1513.5377 379.8901
1506.6888 379.9792
1506.4185 373.56674
1509.6399 367.3103
1511.6779 361.39023
1505.3334 357.40805
1497.7506 358.37833
1502.5471 364.42014
1500.1499 371.06516
1493.2997 371.78143
1487.3783 377.7149
1485.8451 371.46008
1494.4434 364.14786
1488.3679 364.94717
1483.711 359.9235
1481.973 366.04178
1478.51 369.37112
1473.324 369.56525
1469.4912 372.55307
1467.9517 377.78052
1468.745 384.3023
1475.0472 386.39642
1474.321 379.8167
1476.2255 374.6997
1481.4764 376.826
1480.2847 383.67328
1486.2772 384.16217
1493.6858 386.2798
1493.0687 379.21707
1499.6565 379.00882
1500.3599 386.68668
1505.8668 386.49765
1511.0076 386.78995
1516.0942 387.7207
1522.102 388.608
1518.8519 393.36166
1518.5273 399.03494
1524.7068 397.58405
1531.8026 398.5885
1528.3783 405.08243
1522.1835 409.12088
1521.5656 415.5189
1523.823 420.62244
1528.3684 413.44235
1536.0704 413.88416
1529.5093 422.19046
1528.4691 429.51657
1524.3739 435.96158
1522.9783 443.0769
1522.248 449.68823
1524.438 455.54263
1528.0264 461.7762
1531.3718 455.83002
1538.3097 456.66214
1536.7621 450.16455
1529.5 448.98578
1531.7615 443.26898
1531.3296 437.05396
1536.0765 431.76138
1536.7703 423.87762
1542.8977 420.56107
1540.6135 414.395
1542.2372 406.93094
1540.2634 400.20294
1550.3534 407.4716
1547.6316 414.71924
1553.0936 412.81995
1558.3102 408.3029
1565.0398 411.3999
1572.1562 414.4491
1574.5485 407.58603
1569.9075 402.61954
1579.859 401.13458
1586.5911 398.03668
1579.668 392.29733
1574.5886 396.465
1568.5874 393.82755
1563.7441 397.4488
1561.7393 402.9067
1555.2006 401.01947
1547.657 399.89307
1541.9304 392.4246
1545.6519 384.92664
1546.7639 378.34583
1548.385 391.14163
1552.9943 394.711
1558.1296 392.52982
1562.5712 389.40704
1561.1459 382.95694
1554.2906 385.01642
1555.413 377.87494
1561.0732 373.11865
1563.2141 365.4986
1568.1097 370.16412
1573.5228 371.21347
1579.3584 371.54245
1584.9662 372.25238
1590.5022 371.40903
1596.062 375.1544
1597.0446 367.7707
1603.2102 370.2065
1601.5118 362.737
1601.7354 355.90054
1606.9252 358.5918
1609.3362 363.9553
1611.3755 369.0486
1613.3313 376.1776
1607.5409 374.30008
1607.0238 380.6096
1601.0103 378.2596
1593.1239 380.9538
1587.7697 378.29822
1581.6815 378.64603
1574.6713 377.52182
1567.2981 378.30746
1568.2134 384.6987
1573.5511 387.62582
1579.6094 384.60004
1586.5782 385.31497
1587.4961 391.62946
1593.9823 387.74698
1599.5918 392.4503
1600.3967 384.98483
1606.1897 387.83975
1606.9595 394.99063
1601.975 399.7243
1597.6978 404.9954
1594.3192 396.89014
1590.9609 403.43332
1584.4689 407.05014
1579.9097 413.57278
1586.7009 415.24713
1592.1746 409.94205
1593.8309 415.96628
1589.6237 421.7542
1596.0442 423.9058
1596.0085 429.6822
1590.8435 433.83472
1588.3544 428.0531
1582.4274 422.8704
1576.7511 421.34277
1571.1914 421.58658
1566.7358 418.83026
1560.7207 417.9218
1554.801 419.3492
1557.0189 426.4557
1550.2471 424.1095
1543.9336 427.42212
1550.2028 431.2529
1543.3904 435.55743
1539.1124 440.9125
1544.3066 447.62753
1545.4789 452.84894
1551.0437 456.54514
1549.5393 461.87012
1544.0056 460.19437
1539.0262 464.18286
1533.1515 464.19287
1540.1494 470.5528
1534.697 471.90283
1529.4465 475.8298
1527.7455 469.53412
1523.2869 462.9194
1519.4539 465.59012
1521.6779 471.17465
1515.6771 469.3317
1510.7733 466.87775
1505.8939 466.8154
1500.0854 472.14355
1505.5436 474.6748
1510.5813 472.95505
1516.0732 476.37613
1522.6212 477.921
1522.0399 484.7777
1520.9545 490.47186
1521.6927 495.7994
1520.3136 501.5305
1516.2578 498.27567
1511.4655 501.25534
1507.2115 504.51123
1503.9698 508.29102
1502.5482 512.13965
1503.2693 517.10834
1506.554 522.3137
1506.5323 527.92267
1505.1213 533.68176
1507.2689 538.8594
1509.3629 544.41455
1515.4309 544.1558
1518.6029 539.80383
1522.8336 535.6649
1514.0042 535.0516
1513.1353 528.3747
1515.23 521.8443
1516.0754 514.46844
1509.3098 515.90607
1511.3303 509.08746
1516.8154 506.10202
1521.4028 510.1732
1524.7456 502.22903
1526.5845 506.82233
1531.0071 509.73807
1536.4288 511.7358
1541.3759 509.96948
1536.0696 505.68054
1530.9144 503.14374
1534.1802 498.885
1528.3615 497.31238
1526.7554 491.7999
1529.1078 487.47687
1528.1426 482.00504
1534.4305 479.7065
1534.1378 485.89474
1539.145 483.97946
1538.5485 489.60367
1533.2577 492.69366
1539.3457 495.07767
1539.2893 499.87033
1541.4674 503.60782
1546.8284 504.2982
1552.0271 502.57782
1545.7106 498.54642
1547.5156 494.05728
1543.984 491.27316
1551.1711 490.547
1548.9595 485.17877
1544.0875 483.41077
1539.9218 477.52414
1545.84 476.503
1551.281 479.749
1552.3175 474.06213
1545.2878 467.3104
1550.9424 468.23544
1557.1589 469.79675
1558.2573 463.83084
1557.0983 457.6285
1564.3851 467.9208
1564.7023 460.48947
1562.7415 452.31696
1564.9916 445.2879
1558.0646 444.97586
1553.8285 451.09323
1549.0933 443.85123
1553.1946 437.78778
1559.6658 436.36136
1562.8113 431.01257
1563.6907 425.46188
1570.4768 427.22754
1569.0195 433.81757
1568.095 439.21808
1573.0988 443.36804
1571.7919 449.18057
1568.8809 454.6243
1573.2338 457.94833
1571.0752 465.01495
1570.2603 472.0609
1566.1737 476.97647
1560.9402 474.36
1557.7728 479.9387
1561.7196 485.0259
1555.3914 486.38483
1558.3427 492.2114
1553.2708 496.45166
1558.2943 498.607
1558.8097 503.53497
1560.0 508.25055
1564.4072 510.02112
1566.0538 514.04456
1566.4412 518.4244
1570.6522 521.4506
1571.1411 526.3339
1575.5505 530.04407
1577.6124 525.2087
1577.3057 520.3013
1577.8296 515.49426
1571.3337 514.916
1570.2192 508.31665
1576.5615 510.353
1577.626 504.66968
1583.6737 508.96225
1585.3899 516.21356
1584.5051 523.0611
1592.279 522.0787
1598.974 528.07166
1597.9167 534.72546
1591.8081 534.6465
1589.5012 529.13214
1582.094 530.09174
1585.6472 535.85077
1591.7881 540.0056
1591.7697 544.4766
1593.8604 548.8965
1589.7388 553.09045
1595.5417 554.76434
1591.3822 559.8726
1589.4268 565.63116
1583.4047 565.35284
1578.3309 569.2545
1573.8022 572.06824
1569.9597 575.94336
1567.505 571.64746
1570.3376 566.494
1564.6294 564.2775
1558.6425 560.98804
1558.8713 554.05536
1553.4104 556.97797
1551.3167 564.20874
1547.5975 559.2285
1545.6261 553.6588
1551.5924 550.637
1547.8594 545.8105
1553.2384 542.27924
1557.1476 547.13306
1563.6929 549.5336
1565.0765 557.2647
1571.618 559.7792
1576.5846 562.6645
1581.2699 558.6668
1576.8832 552.3609
1570.6476 553.5674
1570.3267 547.29535
1566.3158 542.3877
1560.7075 541.3563
1566.1097 535.83685
1561.4536 532.98785
1556.4861 536.7899
1555.5474 530.5734
1559.1498 526.2374
1563.427 521.8775
1565.0631 527.00116
1568.707 530.7574
1571.87 534.3921
1576.6886 535.24603
1571.7856 539.8047
1576.2426 544.0459
1579.9424 537.9648
1583.7428 542.0178
1587.1228 546.9032
1581.5486 548.33496
1584.891 554.7495
" />
</g></g></svg>
