<?xml version="1.0" encoding="UTF-8" standalone="no"?>
<!-- Created for Inkscape (http://www.inkscape.org/) -->

<svg
   xmlns:dc="http://purl.org/dc/elements/1.1/"
   xmlns:cc="http://creativecommons.org/ns#"
   xmlns:rdf="http://www.w3.org/1999/02/22-rdf-syntax-ns#"
   xmlns:svg="http://www.w3.org/2000/svg"
   xmlns="http://www.w3.org/2000/svg"
   xmlns:sodipodi="http://sodipodi.sourceforge.net/DTD/sodipodi-0.dtd"
   xmlns:inkscape="http://www.inkscape.org/namespaces/inkscape"
   width="3200"
   height="800"
   id="svg2985"
   version="1.1"
   inkscape:version="0.48.1 r9760">
  <defs
     id="defs2987" />
  <sodipodi:namedview
     id="base"
     pagecolor="#ffffff"
     bordercolor="#666666"
     borderopacity="1.0"
     inkscape:pageopacity="0.0"
     inkscape:pageshadow="2"
     inkscape:zoom="0.35"
     inkscape:cx="1600"
     inkscape:cy="400"
     inkscape:document-units="px"
     inkscape:current-layer="layer1"
     showgrid="false"  />
  <metadata
     id="metadata2990">
    <rdf:RDF>
      <cc:Work
         rdf:about="">
        <dc:format>image/svg+xml</dc:format>
        <dc:type
           rdf:resource="http://purl.org/dc/dcmitype/StillImage" />
        <dc:title />
      </cc:Work>
    </rdf:RDF>
  </metadata>
  <g
     inkscape:label="Layer 1"
     inkscape:groupmode="layer"
     id="layer1"> 
     <g>
<path style="fill:none;stroke:black;stroke-width:2px;stroke-linejoin:round;stroke-linecap:round;" d="M 
1682.6521 596.95966
1684.7241 592.92926
1692.6123 597.5467
1693.7089 590.707
1697.4116 594.7319
1700.6976 599.8937
1696.0071 601.44476
1692.7168 605.2641
1692.2098 610.69867
1690.4 615.4348
1689.0134 619.86554
1687.109 623.277
1688.4633 626.87964
1685.0044 626.5789
1686.0521 630.07336
1682.7964 630.5194
1685.2318 633.18463
1682.5192 635.78143
1680.1819 640.6972
1677.3438 647.208
1673.718 654.96985
1661.4124 658.54065
1669.8531 663.4879
1666.4885 672.7242
1666.2766 681.8215
1679.2509 679.67126
1682.1978 676.572
1681.3898 672.2517
1685.4634 670.51605
1684.4358 666.0824
1687.3672 657.8257
1688.2852 662.64374
1699.0955 670.2629
1701.6683 664.3466
1705.044 666.58813
1705.9133 660.5229
1706.8027 656.0624
1709.2424 651.2454
1711.5276 644.6851
1714.6995 637.35455
1717.6384 630.55347
1717.529 624.46045
1701.0691 623.24963
1698.4409 626.50433
1697.7217 630.34204
1698.9646 634.6913
1696.6844 640.2097
1694.578 647.00323
1691.0244 654.0967
1689.6111 648.087
1692.0519 640.7006
1693.8772 634.0005
1694.0826 625.5075
1697.5688 619.6756
1702.1637 617.9937
1701.1141 613.4528
1702.4618 608.7417
1703.3246 604.4219
1705.7147 601.4062
1704.5929 598.49695
1701.7642 595.6554
1705.2255 593.1635
1704.3191 586.84143
1702.8333 579.40845
1700.5212 583.78357
1700.6057 590.09753
1694.7678 585.2899
1696.4861 579.7511
1693.3436 576.38885
1702.0262 574.25653
1697.2383 572.82446
1693.031 569.9846
1693.9857 565.0607
1701.0155 569.0772
1699.8115 564.6807
1698.6675 559.9095
1698.5745 554.03937
1693.9375 552.75903
1692.2251 559.10443
1678.5635 559.22235
1678.5172 564.72644
1676.5098 569.63916
1674.2085 557.52936
1677.8116 553.11346
1676.6798 547.75055
1678.0143 541.75
1688.9893 535.41187
1690.3562 548.3536
1696.2163 546.0313
1692.5121 540.4485
1693.3013 531.73505
1687.7327 527.68176
1691.7476 523.59686
1686.6351 520.5319
1688.5922 515.63904
1686.488 510.6775
1685.8611 505.49643
1685.4586 500.48367
1683.9583 495.7031
1683.2434 490.23288
1688.3372 492.30856
1693.8282 486.34067
1691.3434 483.32724
1694.4219 478.3503
1694.8514 472.30002
1697.0096 466.7835
1693.0457 466.51953
1695.1494 461.6853
1693.8698 456.40253
1688.3604 456.94327
1685.3995 452.2575
1684.1896 447.13782
1689.8369 448.55194
1690.8109 452.8794
1695.6228 451.1914
1694.4536 445.89584
1697.9297 442.56836
1694.8273 439.55453
1690.2517 439.0309
1688.7662 443.65652
1684.2644 438.95584
1688.1577 434.19183
1682.362 432.47406
1686.5742 428.1169
1688.4595 423.02512
1682.5757 421.78506
1679.8679 426.8994
1674.5966 429.4518
1676.6093 434.27985
1678.2097 439.1482
1680.6035 443.6346
1672.3191 437.86023
1668.2556 441.34518
1667.0729 436.6325
1668.8754 431.79153
1665.0125 427.47412
1661.7823 423.28564
1657.6359 426.0369
1656.1768 419.88312
1661.5789 417.82678
1663.9088 412.74005
1666.8679 407.1341
1663.1338 400.32944
1669.6714 400.06082
1674.9275 403.61145
1674.3048 409.4504
1670.963 415.00848
1667.2632 419.97025
1670.7996 424.75827
1675.6973 421.46143
1678.292 415.5342
1684.9923 415.80948
1690.5271 417.7651
1694.7219 420.57864
1700.0435 420.18835
1703.4685 416.8113
1707.5527 420.73755
1710.3063 425.2911
1706.8169 428.13834
1703.197 425.34903
1698.5216 425.33597
1693.7913 425.94635
1691.9414 429.97638
1694.5542 434.3957
1698.6228 430.7182
1700.054 437.1398
1703.5989 432.42996
1706.6387 436.16522
1710.962 431.4322
1712.8242 436.07495
1708.9899 440.7174
1704.273 440.9022
1702.0762 444.38058
1700.2864 448.46255
1699.703 454.3364
1705.0812 452.291
1707.2112 446.49805
1711.2432 451.04526
1713.2806 446.1591
1713.3792 441.6801
1719.3932 443.73718
1717.6707 438.9739
1719.401 435.17264
1723.8997 426.01773
1727.3077 432.86795
1723.8198 438.42633
1730.0092 438.95734
1734.2354 442.5106
1731.219 445.88748
1728.2954 449.13705
1725.6672 444.11227
1722.6145 449.1772
1717.4542 449.69662
1717.4274 455.7291
1719.7096 459.82706
1715.8174 462.89105
1712.0972 457.08688
1711.4261 462.7231
1703.2257 463.3351
1702.864 469.78043
1710.762 468.50974
1714.851 468.7821
1718.6157 467.22336
1717.9746 473.10718
1713.9016 472.90073
1710.0052 474.52505
1713.4355 476.86414
1717.4388 477.6784
1716.6213 483.57086
1714.7622 480.44583
1710.2062 480.33698
1702.4972 475.46692
1702.4102 481.1388
1702.561 487.00604
1702.6798 493.2149
1701.9387 499.56635
1707.6235 500.39438
1709.9583 494.82288
1710.0361 489.96463
1709.0509 485.55225
1712.716 484.61316
1715.1515 488.4528
1715.0638 493.5691
1713.712 499.23187
1714.2479 504.89023
1712.4026 509.62018
1715.6195 514.32684
1716.5719 520.90796
1717.475 527.45337
1718.0946 533.6981
1711.0116 534.12225
1708.9891 528.1938
1707.9232 522.3762
1705.616 516.1128
1703.3563 505.57074
1703.7153 511.60147
1703.8972 519.8777
1704.7548 524.9668
1705.809 530.3134
1706.78 535.5713
1710.2494 539.7009
1712.1136 544.1117
1713.1287 548.9268
1713.5645 553.3586
1718.4055 546.3157
1717.7341 539.7091
1733.5352 535.62274
1740.6906 536.2964
1735.8716 542.653
1737.1162 549.80115
1742.572 541.53357
1744.0035 547.09735
1747.7417 551.65295
1742.89 554.82446
1749.7273 557.3068
1747.3268 561.7183
1754.3113 563.6577
1748.0283 567.194
1752.3347 570.7864
1758.1265 569.21423
1761.797 573.559
1764.552 577.9394
1760.755 579.86865
1756.9882 581.96075
1756.5889 575.8488
1751.0908 575.1559
1753.1785 580.6112
1751.1078 578.85864
1746.7322 578.01135
1745.5819 572.6097
1740.6915 574.3934
1740.7572 568.51385
1740.6152 562.78906
1737.3475 557.1673
1718.3218 553.8617
1714.4097 558.26447
1717.3821 559.84186
1719.0809 562.76776
1715.147 564.0807
1718.1235 566.4764
1715.933 569.687
1720.5454 569.31555
1718.8743 571.00354
1718.4581 574.0827
1719.3716 577.3224
1718.7935 580.75323
1719.6285 583.78894
1720.5604 586.635
1718.4535 589.3561
1721.297 589.73083
1720.5918 593.26044
1720.9359 598.18097
1721.1738 604.3153
1721.3257 611.0612
1720.1705 617.4869
1720.6774 623.40094
1734.3584 629.7615
1731.6049 634.8164
1727.9214 641.00073
1723.1458 649.3087
1717.887 660.4263
1728.4279 656.9572
1737.3989 649.34436
1748.6273 648.46796
1743.9329 638.3745
1748.5099 621.5528
1750.0586 630.1814
1753.9937 640.86304
1764.6328 641.7499
1773.999 638.9586
1782.658 637.02386
1781.65 626.9936
1773.9238 628.3
1761.1234 631.4308
1759.7035 624.0029
1753.2343 622.53314
1750.6091 614.4699
1739.4874 621.2077
1735.7694 625.02527
1736.7643 618.85516
1740.1477 615.04047
1739.2727 610.0607
1743.4204 610.11993
1744.7769 605.43536
1740.5463 603.8299
1745.2179 600.8858
1742.6532 597.7196
1740.8757 592.9883
1744.1711 588.52997
1740.9387 584.822
1741.9799 579.52856
1746.7775 583.84814
1746.8347 592.97687
1753.1868 600.82465
1752.2567 607.8645
1756.8593 610.05756
1755.4292 615.83734
1759.3198 618.2101
1772.8683 620.6601
1774.1077 614.6725
1770.0408 613.96765
1772.6921 608.2478
1768.075 608.2153
1765.9114 603.81824
1771.3302 602.23425
1769.8595 595.43475
1767.3721 598.81586
1763.1707 599.14197
1760.879 594.39575
1764.8136 593.1295
1768.4124 589.609
1764.6329 587.5176
1760.0817 589.4225
1760.462 584.95026
1765.8344 583.1139
1780.9296 578.72723
1781.5977 587.1252
1782.5369 595.402
1787.8376 602.4017
1782.5217 602.84766
1783.5647 610.65674
1782.4075 618.93164
1788.9734 628.7133
1790.675 619.123
1794.1063 607.437
1792.2996 594.63995
1791.7502 586.46686
1793.7228 579.3689
1793.115 571.9784
1798.8365 572.28094
1796.9602 565.31067
1799.8875 558.35315
1792.6907 553.57465
1794.9862 546.27686
1802.8672 549.36847
1798.7094 541.2529
1797.8809 530.2868
1797.4017 535.39655
1786.906 545.1515
1785.2511 551.6794
1785.3376 557.9136
1787.5326 563.4941
1781.6873 569.3853
1777.3926 570.8839
1775.5824 564.30707
1777.9407 558.52167
1773.716 557.8382
1771.2373 554.0013
1768.279 549.42773
1763.0956 547.75824
1758.8073 544.5963
1755.547 539.95636
1752.2607 533.29395
1751.5571 527.34924
1738.7554 531.7208
1734.5159 528.6047
1737.0339 522.81085
1731.842 522.6913
1732.4915 515.7721
1733.0917 508.71048
1729.282 508.75473
1729.4297 502.43585
1731.9644 499.76273
1730.8956 494.70767
1729.0876 490.96402
1731.1671 486.10828
1730.3243 480.66592
1731.0703 475.92365
1731.0548 471.0431
1731.1783 466.06097
1732.1395 461.10974
1732.693 456.5937
1733.9459 451.89883
1736.9711 447.28564
1740.3499 443.10986
1744.2415 446.87296
1746.0476 451.41913
1743.6105 455.8917
1743.4343 461.78503
1742.7834 470.24896
1742.4147 474.5181
1742.8771 479.58527
1746.478 481.22867
1750.1931 478.62772
1747.5615 474.70404
1749.3851 470.21008
1744.742 466.52493
1749.6676 464.31808
1748.9636 459.3115
1750.9069 454.42014
1751.5876 448.0923
1752.1842 442.66806
1755.9414 437.08173
1750.515 436.27023
1746.8618 441.37204
1742.708 437.09634
1737.2579 438.3128
1734.581 434.02917
1740.056 430.3459
1745.645 432.24298
1743.2385 425.52142
1747.8975 421.8322
1741.9288 419.65884
1736.9768 422.5393
1732.7092 417.09146
1737.8401 415.19202
1736.217 408.79385
1733.0153 411.8132
1727.9697 413.21036
1725.7906 417.072
1722.1943 414.01813
1723.7046 409.693
1728.5587 408.68286
1732.5573 406.10175
1735.6115 402.92773
1740.2437 404.11325
1743.8639 400.11447
1744.8237 404.06454
1749.1289 404.3139
1750.6943 411.44736
1753.1721 419.22006
1759.7328 418.30356
1756.828 423.3748
1752.6028 425.5379
1749.6422 429.387
1755.229 431.00827
1759.8428 434.02213
1763.2529 436.8744
1764.3954 431.8128
1760.3505 429.76913
1760.0518 425.67157
1764.5464 426.69525
1767.5259 429.1748
1767.1941 435.4591
1770.6375 433.18866
1777.252 434.1382
1778.5465 429.2674
1774.6423 430.11646
1771.001 428.84866
1768.786 423.60934
1764.2234 421.72385
1766.3588 415.94907
1772.0045 418.95795
1773.2306 424.97144
1777.5469 424.0066
1782.9904 420.082
1788.7273 420.54913
1793.0854 422.13605
1795.6985 425.99765
1792.5676 428.32416
1788.6222 428.13522
1786.3179 425.01468
1782.0215 426.14917
1782.1075 431.41418
1785.5066 432.0345
1782.8275 436.85477
1787.8638 436.63116
1788.6642 433.01953
1791.8009 432.62933
1792.5935 436.98886
1795.7595 432.56232
1798.4268 429.61963
1802.4929 428.0658
1806.7349 430.17032
1802.04 434.04572
1803.1082 440.41394
1796.0858 437.02252
1794.3661 442.10873
1794.116 447.59186
1802.5242 448.16614
1801.7244 456.41983
1793.5284 453.88306
1796.6692 459.76352
1800.8059 463.83887
1799.478 468.7745
1799.8542 473.0824
1796.8826 477.3581
1800.743 478.4473
1797.8503 483.172
1800.3876 486.36264
1798.4098 490.79514
1798.5225 496.4785
1788.2476 502.15665
1788.2812 508.26382
1785.178 506.96536
1785.0076 502.9546
1786.0171 497.6386
1787.0093 492.30063
1788.0039 486.16367
1789.0409 479.95142
1789.9532 474.03336
1790.982 469.02496
1791.5662 464.42624
1791.6526 459.48492
1783.8533 462.34686
1782.226 456.66678
1783.4097 451.46008
1780.0293 447.41394
1781.7751 443.0366
1777.5892 439.42593
1772.7812 437.98398
1767.6908 440.17282
1760.8243 440.05048
1756.9536 442.99377
1763.9814 444.2122
1770.7737 445.09363
1766.2922 448.43796
1762.967 452.02487
1767.6344 453.1314
1770.8784 452.632
1777.8496 452.6459
1776.4465 458.70663
1780.8109 461.00165
1778.207 463.83783
1781.0092 468.00626
1775.2344 465.72086
1769.0621 460.67627
1766.7383 457.8935
1763.2128 456.2545
1761.5782 460.68137
1765.0221 462.6309
1762.0049 466.1494
1761.9644 470.85318
1761.6981 475.35748
1762.4952 479.2465
1762.11 483.0991
1761.7214 487.57507
1764.188 490.16663
1767.4337 489.851
1766.388 484.8829
1766.8374 479.99802
1766.2014 475.2823
1766.2793 470.8007
1767.2063 466.27225
1771.8774 469.99622
1776.1478 471.18805
1780.0249 474.15158
1775.9619 476.91885
1777.272 481.58978
1776.1285 487.105
1775.1576 492.33084
1775.3442 496.84027
1775.1475 500.92886
1775.5759 505.54922
1777.68 517.1424
1776.3397 510.45905
1766.5076 506.44034
1752.4658 516.89185
1750.9512 510.81317
1749.6562 506.01718
1762.8387 500.6888
1766.899 500.52115
1766.1099 495.30518
1761.8918 493.80164
1750.2194 493.3263
1749.3862 485.76724
1742.8933 486.57727
1745.4894 491.08057
1742.5648 496.44168
1746.662 497.5281
1749.5985 500.87442
1744.0015 503.83014
1745.0293 510.21613
1748.1791 514.42096
1747.5731 518.44336
1749.0662 522.9774
1754.0947 522.1749
1758.5698 526.3453
1756.2162 529.8837
1762.2357 531.3578
1756.9742 534.6719
1760.8433 537.92053
1765.7963 535.906
1765.1097 542.41705
1769.8596 539.1391
1771.8674 544.1625
1775.4332 549.7858
1787.341 537.70575
1787.2334 529.8143
1779.0267 525.3156
1787.0828 522.8146
1787.4297 516.7748
1786.4991 511.98016
1798.4773 520.1325
1798.456 525.1869
1805.0833 527.89813
1805.0988 522.94403
1806.3606 517.80585
1806.3723 510.31183
1798.479 514.3672
1798.5587 508.49033
1797.1211 502.05313
1800.3579 503.36673
1807.1885 502.56644
1807.1674 493.48578
1808.2166 484.1119
1808.9287 474.49298
1811.7697 464.7054
1812.8407 455.64908
1814.066 448.45023
1813.1416 441.16138
1818.4756 442.6431
1818.177 435.64233
1818.2588 428.87167
1812.3593 425.30972
1806.896 425.39655
1806.0729 420.7638
1799.9519 423.86115
1796.8655 417.45816
1788.5817 415.48004
1781.9783 412.92413
1777.6917 418.2385
1774.7141 411.88727
1769.1426 409.612
1764.8977 405.217
1762.3821 409.17133
1758.8618 403.27887
1753.4274 401.36743
1748.6638 400.00595
1751.2537 395.99805
1757.0433 393.28418
1750.6449 390.58276
1746.5056 387.39557
1745.4517 391.5783
1746.7573 395.74155
1742.0671 395.60562
1738.6586 399.07678
1732.1104 394.29825
1732.7185 399.03842
1728.9662 403.97232
1726.8269 400.4797
1726.4554 395.80075
1727.8501 391.18393
1727.4224 386.34595
1731.6233 386.99277
1735.0963 389.82712
1737.484 394.07605
1741.0784 390.13776
1742.5703 384.40466
1739.2087 385.7549
1735.6111 383.85138
1730.9602 382.2041
1725.4121 381.98853
1721.5908 378.05667
1719.8551 383.04245
1715.7158 378.67416
1716.068 373.3727
1711.406 370.93036
1710.022 375.7016
1708.6047 380.42157
1712.282 383.59286
1716.6987 387.1424
1722.8232 387.86636
1720.9294 392.31027
1716.8779 395.0019
1721.5199 398.70496
1723.6028 404.82617
1718.4518 408.41144
1712.0437 408.51694
1714.1002 411.8806
1717.6615 413.73157
1719.2839 418.30115
1713.5356 418.12695
1708.8552 414.7381
1707.3348 409.74606
1712.6931 404.04904
1718.812 403.80753
1715.6035 400.474
1712.0864 396.28336
1712.3972 390.2161
1705.3087 384.58347
1706.9349 389.49362
1706.7859 394.60278
1708.1035 399.57935
1707.5183 404.17722
1703.261 406.03415
1702.0674 411.34323
1697.2937 414.07956
1692.1835 412.68546
1687.7712 409.20602
1681.8385 409.19284
1681.2817 402.32138
1688.2617 402.32794
1684.7678 396.87244
1680.7122 393.05203
1681.5645 387.29715
1686.723 383.16077
1680.9956 382.11627
1676.1438 384.2433
1674.3334 378.99323
1679.0023 377.5992
1683.7937 377.46027
1686.3434 373.8025
1688.903 378.2089
1693.609 379.20615
1693.0259 383.44342
1691.5725 388.08508
1686.4446 389.70035
1690.0006 394.46265
1696.154 391.57465
1694.7302 396.54645
1694.8875 401.08734
1693.319 406.9005
1698.3131 406.15506
1701.8196 400.57712
1701.0011 395.39917
1701.5958 389.50125
1697.8157 386.09464
1699.7361 381.20282
1704.3193 377.9687
1696.5206 375.9449
1691.9526 373.38165
1688.9998 370.26974
1692.7673 366.89502
1697.0679 370.0195
1700.72 374.4816
1704.8087 371.5293
1707.7225 367.7946
1711.1825 365.56027
1708.4077 362.3125
1709.8018 358.57434
1707.0302 356.5477
1704.6334 353.8819
1700.1359 352.31143
1700.7306 357.3381
1703.3296 360.44775
1704.3281 364.70645
1700.4476 366.51178
1696.5554 362.29156
1691.169 361.67926
1687.2179 363.3717
1687.8801 355.9684
1688.9253 351.46365
1690.1692 344.00888
1690.4084 340.3843
1691.2133 335.94476
1695.5936 333.94275
1695.6118 340.1831
1693.28 346.5123
1700.2317 346.65973
1704.6089 349.25552
1708.6422 351.30563
1706.4227 344.16592
1701.5442 341.50223
1705.2742 337.02182
1700.0421 335.58014
1703.4338 330.23914
1698.1495 326.89664
1692.8475 329.47012
1687.3606 330.22794
1686.6725 334.42545
1686.5134 339.18036
1678.3752 343.75287
1681.5801 346.0553
1684.0146 349.6008
1679.4132 350.8219
1683.5017 354.30707
1680.1779 357.02893
1683.7167 359.93103
1682.3867 364.5487
1686.5042 367.37817
1683.1521 370.78238
1678.5428 372.97858
1679.4667 368.4334
1674.6498 368.85312
1672.0582 372.32538
1669.368 376.1799
1668.5222 380.881
1665.0391 372.48697
1657.8762 375.4918
1662.5477 379.2779
1657.4216 382.81754
1652.1932 379.77234
1644.9196 378.9715
1646.9089 384.13058
1651.6584 388.02982
1656.8448 389.086
1661.6486 387.54752
1665.6804 385.64334
1670.9844 386.10794
1675.321 390.11392
1675.8818 396.76413
1669.3599 392.84695
1663.1149 393.56674
1656.2119 394.58514
1656.0344 400.91693
1658.9897 406.9657
1657.1125 413.36884
1652.0608 414.766
1651.9894 407.8852
1646.7412 411.3468
1641.0381 410.0322
1643.3512 405.10318
1648.6543 402.04163
1649.6404 395.81845
1645.712 390.82474
1640.4136 388.16388
1634.661 385.41147
1629.7401 389.14395
1635.1785 393.11157
1642.0544 397.1148
1636.5242 400.32785
1630.3069 398.59637
1635.0638 405.4192
1634.6443 410.0269
1627.2427 406.644
1624.0349 400.7479
1623.4656 413.14688
1620.6151 409.35434
1618.0442 403.0353
1617.1284 396.99475
1611.852 401.91293
1607.2148 405.23132
1603.1963 401.65402
1600.196 397.91025
1608.8834 396.08957
1603.3035 393.10004
1599.3193 389.21085
1594.0558 386.59027
1598.4441 383.8135
1604.677 382.91058
1606.1661 388.93564
1610.7249 385.33307
1614.4626 381.04266
1618.0923 385.71143
1613.5637 390.96133
1620.1359 391.8885
1625.6392 394.22678
1624.0703 387.02994
1621.9603 380.31616
1628.5107 382.27603
1633.1965 378.5769
1639.1476 380.88803
1641.7833 356.79028
1652.0874 355.84912
1655.6923 352.60718
1661.5398 356.26062
1666.3295 355.07193
1660.9929 352.4214
1658.6964 349.72266
1661.7468 346.27283
1663.1804 349.43942
1666.1553 350.5827
1666.4182 347.06174
1665.1562 343.86127
1665.1035 339.8373
1662.3102 341.88104
1660.6672 338.3338
1664.36 335.63333
1663.0967 331.9452
1661.5841 328.185
1658.9667 334.25897
1655.8228 331.54248
1652.9554 327.5479
1649.8438 331.29526
1646.177 333.23447
1647.7172 338.02118
1652.2722 336.09863
1656.358 338.2906
1654.8378 342.07144
1659.0184 342.99115
1656.5226 346.8005
1652.221 345.8415
1650.3429 341.42737
1646.7183 345.30023
1650.4623 350.002
1646.9985 354.5088
1643.0021 350.3
1641.6244 345.40924
1644.2229 339.50586
1640.2512 339.00964
1636.7189 337.05396
1633.8506 340.77652
1637.2462 341.7731
1636.288 346.8938
1636.906 351.94452
1634.9968 357.28152
1628.5171 358.65115
1626.5382 354.13364
1630.7689 351.1096
1630.2991 346.10907
1625.5437 342.9824
1626.237 338.01382
1630.3451 340.0418
1631.3262 335.63748
1630.2833 331.69324
1625.4498 333.14468
1620.0068 334.63916
1621.5842 339.80917
1617.3987 343.64948
1616.6204 349.20163
1613.531 354.48737
1623.5299 348.53314
1620.4495 353.92462
1621.4076 359.22488
1615.5249 360.28888
1610.1935 359.68448
1605.9924 362.98972
1604.193 358.96466
1598.5801 362.43726
1593.1365 360.663
1589.935 365.88617
1587.6361 359.50778
1582.9683 360.89444
1583.6636 367.6755
1576.4039 369.874
1578.1106 362.92056
1578.4252 356.58145
1570.2072 355.0473
1571.9033 359.38733
1573.2251 363.8867
1570.7493 368.51883
1567.3429 364.8738
1562.5103 363.41068
1565.7839 359.25436
1563.9823 353.65097
1558.9766 355.34152
1560.1069 359.27158
1556.5798 362.94806
1553.5065 358.71518
1554.2084 354.14618
1555.1675 349.21124
1550.783 350.83435
1550.572 346.2604
1551.1172 341.99255
1545.503 344.43408
1545.7905 350.3264
1548.0435 355.31488
1542.7 358.58276
1547.4875 360.56552
1551.2247 363.5854
1549.2443 368.106
1547.5242 372.62704
1542.2844 370.83292
1543.6223 365.0331
1537.9043 366.7656
1534.297 371.12778
1530.3016 374.73212
1525.1193 377.7064
1530.2896 380.14587
1530.6025 385.20844
1535.136 380.8989
1536.1904 377.02875
1539.6283 374.82764
1545.0266 377.18402
1542.8539 381.45096
1539.3339 383.03754
1535.2828 385.43283
1530.83 391.83798
1535.5446 394.24942
1537.1096 389.34332
1542.0054 393.9992
1543.2303 388.1587
1547.3104 384.21667
1552.6072 384.422
1550.7657 379.27975
1553.1295 374.44812
1554.6722 368.77646
1559.3302 367.2873
1563.8483 369.4873
1559.8417 373.56033
1558.0144 378.96906
1563.4495 381.52863
1567.5366 375.25754
1569.6853 381.29398
1575.5284 386.26413
1577.6023 393.2462
1578.9083 398.50525
1583.1731 396.47528
1587.6093 395.59048
1590.2396 391.81985
1586.1451 389.41635
1580.9106 390.1836
1581.8683 384.44226
1578.6515 376.39865
1590.2599 374.09418
1586.4246 381.08392
1589.9453 385.0184
1594.1042 391.2039
1597.5286 394.06955
1593.5354 396.26257
1593.1251 400.15952
1595.6827 404.12622
1587.8425 401.47476
1583.1593 403.08875
1589.9464 407.1214
1587.1522 411.86038
1584.1101 407.80237
1578.5908 403.41846
1574.2434 405.74966
1574.3549 400.82025
1572.9344 396.01944
1571.8573 391.1429
1567.7957 387.2648
1564.6129 392.35834
1561.2252 388.51297
1557.1829 385.4216
1555.7496 392.6004
1549.6812 390.342
1546.987 395.95938
1552.5227 397.11624
1557.431 398.4134
1554.404 403.22824
1558.8119 403.92563
1562.666 401.38965
1561.3376 396.14136
1566.8912 396.56863
1569.2395 399.98184
1570.0605 404.3029
1565.5286 405.09225
1569.204 409.43164
1574.4048 410.2163
1578.8037 408.5279
1581.7007 412.91763
1577.7461 415.07812
1581.2141 419.5742
1586.441 416.60007
1592.3661 415.08456
1593.4154 420.3841
1587.3245 421.47263
1583.996 428.67667
1577.6335 424.49246
1574.1735 422.3565
1569.6907 419.4815
1574.574 418.19388
1572.3916 414.04092
1567.35 415.04434
1564.4344 411.435
1561.2849 408.49887
1556.7874 408.21844
1552.6982 408.3283
1549.3906 405.85437
1550.3916 401.17728
1546.0219 401.66965
1541.4465 401.90836
1537.3888 399.03458
1530.3728 398.7046
1532.6299 403.08652
1536.4167 405.812
1539.7026 408.98065
1544.2244 407.24628
1545.1002 413.35632
1547.8381 410.36285
1552.5964 412.10803
1556.6844 412.87958
1560.1125 415.1287
1563.0476 418.21472
1565.1672 422.43918
1568.871 425.5435
1572.447 429.05188
1576.1068 433.5568
1578.6707 428.50754
1581.594 433.08377
1583.3365 436.86395
1578.4594 438.8645
1571.2125 434.96097
1567.3702 432.8593
1564.2079 428.96103
1559.5312 427.4994
1559.367 422.1131
1554.021 422.787
1554.8104 417.83154
1550.438 414.31757
1548.709 416.82867
1544.4003 418.18512
1540.733 420.37616
1535.5548 421.08575
1534.6919 417.44455
1538.5249 415.86414
1541.3595 413.56396
1535.6058 413.31097
1533.7343 410.7628
1530.5272 407.9685
1529.3458 412.2599
1530.619 416.0294
1530.7394 420.5544
1526.7378 419.3142
1523.2793 420.2109
1519.556 422.12656
1518.2167 417.97073
1518.7075 413.5751
1522.3601 414.19016
1526.1061 415.1449
1525.2465 410.1629
1522.4385 406.17984
1519.0707 408.9683
1515.3336 405.6026
1513.2495 408.95056
1515.0055 412.1915
1513.6002 416.02054
1509.8668 418.1305
1507.2595 413.52762
1509.604 410.45114
1506.0017 406.28644
1510.8928 404.07275
1507.9181 399.50162
1503.1382 396.0002
1497.7744 396.26224
1496.9854 401.8277
1502.3525 401.85324
1500.5509 407.1276
1496.1208 408.13596
1493.7644 413.07404
1490.7009 409.34985
1493.0288 405.2288
1490.4751 402.02356
1492.3977 397.9393
1489.7863 394.68973
1495.6628 391.8226
1498.577 387.98795
1490.8363 389.0082
1494.1229 385.11746
1497.4829 381.57687
1502.296 380.34512
1502.3682 385.30124
1504.1072 390.6632
1509.7339 393.40045
1513.011 389.00568
1518.4375 386.90738
1517.3273 394.10773
1513.948 398.516
1518.095 402.1748
1523.1469 400.3859
1527.1338 404.31577
1526.702 395.05545
1522.0013 395.40784
1523.0154 390.0059
1527.019 387.5114
1523.4253 382.9287
1518.0627 379.83835
1512.8971 382.737
1507.5127 385.08484
1502.715 376.04266
1507.5785 378.66263
1512.4061 376.62704
1515.4045 372.52713
1519.7612 374.2957
1523.9784 372.3662
1527.5122 368.8284
1531.5327 365.40964
1535.6514 361.0852
1538.0728 356.73752
1540.8551 352.08286
1539.8278 346.8919
1536.435 342.45007
1533.0776 347.04398
1534.3302 353.18216
1528.9548 354.5215
1528.1411 361.17215
1523.1282 358.9081
1522.1699 354.06717
1519.2426 350.40012
1516.8989 345.6788
1522.9069 343.93283
1526.8486 347.9577
1529.5426 337.81155
1537.9749 335.06076
1543.6816 337.60895
1550.3568 334.57455
1545.011 331.50885
1545.7437 325.1635
1543.6255 319.40848
1538.5988 322.38043
1536.5906 317.342
1540.3256 313.81577
1541.351 307.83127
1540.0596 302.75476
1540.0739 297.70908
1536.6516 294.29065
1539.955 291.12244
1539.752 284.47217
1537.8177 277.8312
1534.7084 281.83215
1530.3307 283.40875
1535.212 287.7983
1532.463 292.3032
1533.951 299.31552
1534.6682 305.19287
1535.9924 310.29062
1532.3794 313.50296
1529.4716 319.2201
1527.8297 314.6859
1523.454 314.79202
1518.222 314.50125
1521.9214 319.876
1524.1283 324.81705
1529.6865 323.6881
1534.1847 325.67688
1539.8203 328.20602
1533.283 331.927
1528.0245 329.17136
1525.637 333.96176
1520.6914 335.5409
1517.2814 338.62875
1513.5332 336.39865
1508.9253 336.75476
1505.9679 332.81738
1509.6539 329.48322
1514.766 330.04993
1520.8083 329.89038
1517.6023 324.62708
1515.321 319.17563
1510.4872 323.1881
1504.8113 317.35025
1503.5491 322.02676
1504.1045 327.01358
1499.6075 333.56854
1495.305 337.02646
1498.5858 340.1744
1503.8224 339.43176
1509.4478 342.95212
1511.6268 349.17535
1512.82 354.72903
1515.5844 359.79712
1520.3787 363.22415
1521.3232 367.69894
1514.986 366.68912
1509.1444 360.67807
1503.4313 363.17923
1501.7567 358.37857
1506.168 354.76544
1504.7878 348.57132
1499.2263 345.66193
1494.0928 350.07166
1499.595 352.434
1495.7556 356.8938
1491.0251 356.45526
1487.4246 359.66776
1482.8547 359.91367
1485.8169 354.3633
1481.9973 354.85324
1478.9143 357.10446
1478.1504 361.29553
1476.118 364.32886
1479.4915 367.7989
1482.5155 364.6561
1487.2123 364.89896
1492.3091 363.45618
1497.6324 362.16205
1497.2898 366.92017
1495.193 370.93307
1499.98 372.0411
1501.9452 368.00726
1506.2205 367.3226
1510.3059 366.38132
1509.5287 372.13452
1504.9796 372.43384
1497.239 376.3052
1491.9293 379.55322
1492.0122 374.68655
1490.2849 369.31223
1484.4929 370.38037
1486.5945 375.40955
1481.2937 378.26385
1485.1079 381.14154
1489.1375 383.68448
1485.295 387.3546
1480.6461 385.4906
1476.1234 382.56787
1474.8293 388.09167
1478.7004 390.8348
1482.2776 392.8503
1486.4343 392.30292
1482.8484 397.37372
1477.0317 395.82605
1478.918 401.2683
1485.7361 400.70145
1486.853 406.22488
1481.9127 406.16016
1477.46 407.00012
1473.7736 409.11823
1470.5513 412.51804
1469.7888 417.71396
1474.0957 416.34427
1478.2532 418.36734
1480.9583 422.66104
1485.4271 423.75195
1483.214 428.934
1482.2505 433.9012
1479.3601 437.88574
1473.5616 440.452
1478.3705 442.38336
1477.0544 446.91888
1482.5676 445.51468
1488.0691 444.52975
1484.7446 440.338
1487.8682 436.60175
1488.6646 432.176
1488.8282 427.6545
1490.3829 422.78467
1487.653 418.99435
1483.3589 417.13562
1478.4241 412.78094
1483.5479 411.30002
1487.5681 412.97754
1490.481 415.47208
1492.6453 418.58014
1496.4686 417.8837
1500.1678 416.04868
1497.8497 412.64252
1502.8164 411.47772
1504.5918 416.98273
1500.6254 420.22467
1499.716 424.26404
1499.3323 428.20004
1495.4364 422.15247
1493.8905 426.1673
1494.6731 430.65485
1494.1007 435.24356
1491.9292 439.73987
1492.25 447.1326
1494.3064 443.52982
1499.0463 436.0429
1501.9857 432.03046
1505.804 427.5338
1504.687 422.128
1509.4524 423.4341
1514.2711 422.4775
1517.8821 426.7422
1512.918 429.39743
1509.0153 432.98898
1504.7626 437.29312
1498.9626 440.59863
1499.1029 445.68658
1497.7815 449.67984
1493.8563 451.32144
1501.0549 453.58295
1503.2539 457.6108
1503.3765 449.24875
1507.858 449.73105
1508.284 454.3267
1509.2493 458.30197
1515.9534 456.42722
1512.2573 461.79764
1516.1124 464.45114
1514.9847 470.3442
1520.1731 470.53647
1517.825 474.61203
1516.2792 479.15097
1512.1965 475.3139
1509.4542 479.36533
1506.5714 474.486
1501.8513 471.76068
1496.7217 472.39667
1496.0925 467.91882
1501.4874 466.55228
1506.2526 468.3139
1510.7614 468.3804
1506.2493 462.7845
1500.3054 462.40448
1497.6234 459.2157
1496.2325 455.03723
1492.6051 458.88007
1494.4471 463.15515
1491.0413 465.3633
1487.5764 460.18927
1490.1963 455.11227
1489.3234 450.77533
1485.4121 449.78494
1484.5958 455.50327
1480.7709 451.44968
1469.1956 452.89636
1463.5697 445.77393
1458.396 451.33893
1457.1873 442.69696
1453.2612 437.11618
1454.016 429.80292
1459.0492 433.03415
1463.8635 433.77344
1469.6714 435.99374
1469.2074 430.3924
1473.0831 427.98077
1475.4856 433.63467
1478.2448 427.8503
1475.2478 422.74295
1470.136 422.7465
1465.6785 426.43018
1463.9563 421.83606
1459.526 425.81677
1452.842 423.75894
1455.083 418.40442
1459.9241 418.4979
1465.326 417.3663
1465.212 412.6714
1460.2806 412.4369
1455.6802 413.2124
1455.8643 408.2518
1454.2825 403.72992
1456.7568 400.01294
1459.0979 404.08
1461.6714 407.93277
1466.1516 407.60144
1469.7859 406.7986
1473.4557 403.07968
1472.4288 398.28854
1472.3379 393.29926
1469.6755 389.25974
1469.4324 384.41595
1470.7925 380.3078
1472.4763 376.7819
1476.881 376.97046
1479.2366 372.57898
1474.5803 368.77975
1472.7427 372.81436
1469.5563 369.4349
1466.1213 371.45166
1467.0425 376.07132
1462.4692 374.05496
1458.8837 376.7306
1460.0828 380.8796
1460.3726 385.5972
1464.957 387.5968
1460.886 391.08044
1467.4075 394.19537
1467.9681 400.76273
1464.0762 403.4089
1461.8912 399.56744
1463.728 395.64105
1458.3641 395.3991
1453.9052 396.8724
1451.3662 392.9333
1455.3877 390.23575
1454.568 384.91074
1453.8167 379.5766
1454.741 374.83362
1457.5471 371.7336
1451.2988 373.24414
1450.6082 368.96707
1454.8312 367.14133
1451.6124 362.5925
1457.4142 362.18893
1459.4268 357.72998
1461.5167 353.85098
1466.2866 358.39575
1463.6995 361.84204
1459.4142 367.9733
1463.2146 367.1442
1467.2522 365.07867
1471.5269 365.0071
1471.205 360.759
1467.4121 354.2772
1471.2709 355.44507
1474.9431 358.2164
1475.4081 353.4841
1479.407 351.146
1483.6238 348.07608
1488.3828 351.00092
1489.3674 346.36746
1492.9805 342.93588
1490.4646 337.78238
1485.6637 337.0185
1485.6212 342.5461
1479.7751 342.07944
1478.4442 346.2865
1473.5438 343.11276
1474.0452 348.86066
1469.7478 349.32498
1465.2083 351.35446
1461.4514 349.0503
1464.7703 346.7774
1468.0931 344.2931
1468.2377 340.2074
1471.8845 337.45212
1475.9652 337.2626
1480.5535 337.45865
1476.935 332.12686
1482.6891 332.42435
1481.4554 327.23926
1480.1964 322.4899
1479.267 317.1183
1485.6035 318.34152
1488.7648 322.44812
1487.745 327.44415
1489.1729 332.00775
1494.0548 332.0892
1496.724 328.0456
1495.4478 323.65503
1495.2562 318.5017
1490.5399 314.24603
1496.7498 312.702
1494.5608 307.70416
1492.7122 302.49957
1487.4545 299.99313
1494.1449 295.9316
1502.3341 289.92242
1506.9587 292.9563
1504.2904 297.49673
1508.6184 300.70294
1504.9288 303.77603
1507.9182 308.05466
1506.8923 311.9766
1510.3745 316.30713
1513.4165 312.16205
1515.4911 307.82327
1511.4307 305.9351
1513.8469 301.87048
1512.8448 297.23938
1512.5131 293.47662
1512.3275 289.71945
1510.2379 286.65076
1505.2268 285.014
1499.6506 283.54416
1491.5919 276.8125
1483.7319 277.3889
1486.6473 272.80167
1485.5793 268.12497
1478.5118 271.33392
1472.6257 275.38394
1477.8033 277.1397
1479.301 282.58167
1472.593 281.7318
1467.8638 278.72186
1466.4717 283.92596
1469.9851 288.43176
1474.6339 286.49927
1484.3175 285.71198
1489.6523 282.2425
1491.0859 288.64023
1487.2318 293.1991
1481.8677 299.10144
1481.4108 293.18137
1478.0375 289.74213
1476.1445 297.6301
1472.3469 294.29102
1466.9308 293.28104
1463.8617 288.90173
1458.7952 289.2957
1454.9226 293.9571
1451.3099 298.8635
1454.1628 303.73462
1451.6196 309.00797
1447.6963 304.57886
1446.2461 299.8672
1443.3827 296.5827
1441.7891 303.36844
1437.7002 306.43488
1433.1803 306.12726
1438.8195 298.8911
1439.8092 292.798
1440.037 287.9622
1446.788 288.10785
1448.5112 293.35806
1453.0508 288.30487
1456.3171 283.5898
1461.0729 283.51505
1461.8334 278.81958
1466.2916 272.97946
1471.2036 269.66864
1472.9032 263.92264
1476.951 265.66058
1481.6439 265.14178
1477.3977 258.4325
1471.5677 250.945
1477.0435 252.4839
1482.9781 251.67114
1487.106 254.09729
1482.8154 259.16907
1488.1633 262.30844
1492.4271 268.20987
1502.0619 273.03513
1503.3433 278.75137
1509.5007 275.99673
1510.2476 281.44144
1531.5824 275.83078
1537.3007 260.65152
1531.8766 255.91222
1526.2686 258.7853
1519.8403 263.50357
1509.3242 270.15396
1506.7529 265.37418
1500.9979 265.3754
1494.8225 255.80634
1502.5729 256.6223
1510.7136 256.15637
1518.4901 250.90718
1522.9117 246.25523
1528.613 252.43694
1530.3043 248.4317
1534.623 250.64511
1535.7203 254.19069
1539.2131 256.48672
1542.2213 251.75362
1545.6523 250.21474
1543.533 246.04326
1539.7635 243.88899
1538.8627 249.64047
1535.4766 244.93245
1533.0784 239.96445
1529.8048 244.12498
1526.7008 239.52487
1521.5588 241.52611
1520.9458 234.88086
1521.3265 230.02911
1517.0881 230.87486
1515.2625 236.03996
1510.4436 234.46509
1507.0338 231.5932
1502.1016 230.69878
1495.7341 229.32275
1503.9204 240.17812
1514.0396 242.91162
1509.6696 247.21248
1502.2495 248.21298
1494.4978 245.75067
1496.0443 235.69157
1488.5648 233.6856
1489.3682 226.95204
1493.5808 224.25906
1496.1697 220.5307
1501.7487 217.8217
1500.6724 224.21315
1505.4912 222.30354
1508.5996 225.98492
1512.72 229.48767
1515.6389 225.40437
1510.8369 220.67201
1515.093 220.05492
1519.4407 221.87514
1518.98 216.11581
1512.6816 214.59828
1507.1954 216.78473
1506.5912 212.0857
1501.5132 212.07077
1499.8982 205.52234
1505.7499 205.80386
1510.1398 208.98842
1514.3748 205.85577
1511.4867 201.38896
1502.8116 199.42891
1497.4519 186.75049
1492.7596 170.28616
1502.2806 165.10663
1531.1029 167.58693
1553.2147 181.00124
1545.026 192.7643
1533.028 199.6281
1527.7014 190.61346
1520.9587 202.57085
1516.525 210.31477
1521.6176 210.46722
1527.0427 208.00774
1533.3958 208.35216
1531.3945 215.15865
1525.5891 215.40453
1529.8207 221.4207
1524.259 221.046
1523.5859 226.1645
1526.1318 232.08855
1531.169 232.94997
1530.6049 227.31328
1535.4435 224.0288
1536.7078 218.60243
1537.1001 212.76697
1543.5332 213.03528
1541.5636 207.11694
1548.7544 208.464
1550.7952 214.21104
1554.053 218.34756
1557.8071 218.58795
1562.1199 218.84378
1561.0266 213.94034
1565.4994 212.26932
1569.6769 209.42041
1561.9486 206.76308
1555.9233 210.94635
1557.8469 196.0306
1569.4209 188.0292
1587.3104 184.61069
1578.96 175.78491
1568.137 171.98312
1555.1016 165.70749
1543.5782 160.96301
1531.6907 148.69696
1524.3049 123.277
1523.6292 118.26347
1529.396 119.493355
1532.0934 115.29879
1534.1708 120.96899
1531.9742 125.45597
1540.227 128.0424
1543.7875 120.77643
1539.7549 116.21522
1552.5583 114.94547
1551.8555 123.15988
1560.4075 120.61085
1564.572 113.71983
1575.5137 119.56385
1569.1946 121.65308
1562.3505 138.61186
1589.3997 140.98198
1600.1691 146.73988
1601.1942 161.43274
1592.655 171.4005
1611.0234 171.96489
1622.6411 160.97215
1625.6359 143.7282
1640.3553 157.32161
1641.4031 174.16364
1628.0986 174.50465
1617.5732 184.20146
1632.5935 188.81937
1640.8392 196.9254
1638.6095 206.2006
1641.9534 211.60834
1647.7798 209.70244
1650.1534 214.45258
1644.9243 217.0984
1646.2778 222.57895
1640.5363 222.88661
1634.7964 220.91614
1638.8397 216.68173
1635.125 211.95193
1630.0905 206.23605
1626.238 210.37079
1624.843 214.89815
1631.4062 215.11018
1629.0353 218.39227
1624.9943 219.41182
1624.2788 223.32089
1629.2914 222.52052
1631.0311 226.46396
1628.5425 231.43028
1626.104 227.20494
1622.2849 229.01382
1617.8812 227.02211
1620.3767 223.38864
1621.1333 218.34422
1619.4458 213.57475
1621.222 207.84862
1615.7069 210.8683
1612.4006 215.49562
1607.6464 214.43622
1606.5317 219.27707
1610.1775 222.47203
1612.966 219.93031
1616.9711 218.03207
1616.3462 222.77524
1613.1538 225.34842
1606.9401 224.7684
1603.6469 223.64146
1600.2925 222.7598
1599.1797 226.55324
1594.1708 224.92226
1591.5137 231.7227
1586.62 231.20831
1584.8761 226.27068
1590.031 227.27267
1589.5164 222.208
1585.1313 221.3765
1582.4861 216.99094
1587.2169 216.62817
1592.1976 214.67474
1593.4375 218.83424
1596.938 220.90913
1600.9032 218.01129
1602.5173 213.74672
1602.9994 208.7352
1606.3085 201.11836
1607.42 209.02715
1611.3845 209.19725
1614.2349 204.48924
1619.8032 195.62915
1604.0065 183.77657
1596.1912 193.13606
1589.3883 203.69524
1598.337 206.34818
1597.3545 213.1889
1593.2725 209.03487
1587.9652 211.26012
1583.1365 208.38652
1581.3005 194.72653
1571.8695 200.26361
1576.0482 208.6745
1580.7379 212.2535
1577.3844 215.28835
1572.97 214.72777
1567.8318 216.25685
1570.4723 219.63184
1569.7896 223.85075
1570.0365 228.1008
1567.0392 231.79416
1562.313 232.28156
1558.7327 229.36061
1564.8989 227.26866
1565.7549 221.44806
1561.539 224.15776
1557.1359 224.182
1553.0121 223.87865
1549.0963 224.08258
1549.7098 220.27153
1546.5387 217.54424
1541.9419 218.24127
1541.1066 223.14526
1545.221 223.97212
1548.8324 227.4812
1547.2017 230.6677
1553.9939 228.53477
1553.8756 233.8504
1550.7986 231.70602
1547.0431 234.56334
1543.5667 229.48143
1539.1566 228.03345
1536.192 232.14122
1541.4846 234.24037
1538.7832 238.92569
1544.8174 240.47667
1548.7991 243.08896
1548.8376 248.03369
1553.2166 246.16876
1559.3193 245.98807
1553.859 240.36589
1558.3901 236.54918
1561.2443 241.56984
1564.5858 238.64053
1568.0934 236.98917
1571.0535 234.6918
1572.9004 231.92772
1575.1273 228.76955
1574.3372 224.85706
1574.6794 220.50902
1578.5516 219.836
1580.9911 223.00005
1578.6803 226.3272
1581.8005 229.62013
1581.8162 233.418
1577.3628 232.22128
1579.3824 237.97752
1585.4734 237.57906
1591.4915 237.77483
1587.7346 242.23929
1591.5142 246.04317
1590.0565 251.30153
1585.466 248.78076
1581.5889 242.86911
1577.1749 247.1163
1574.4615 241.15068
1569.0193 242.82655
1568.3691 247.64386
1573.6678 251.51195
1564.0549 252.07072
1557.0186 253.7925
1550.148 253.12149
1544.4332 257.58777
1550.7251 261.6886
1549.9592 268.03458
1544.862 264.4026
1543.3535 270.15814
1546.1951 273.59836
1546.0188 279.23044
1546.8518 283.89478
1546.692 289.01392
1548.5771 295.12485
1548.4633 301.54956
1554.3723 300.0624
1554.3995 294.57388
1552.4548 289.43115
1552.2645 282.85092
1551.354 275.56696
1559.6704 280.97067
1561.1165 286.13275
1559.8453 290.28967
1562.3966 295.63626
1563.0801 302.2773
1562.0846 309.81143
1556.4813 310.75186
1554.0233 305.3694
1550.4985 309.8961
1544.9958 312.92743
1548.4385 316.43268
1553.4725 316.21335
1563.1171 316.78708
1558.3704 316.89294
1551.0527 321.883
1551.9373 328.24652
1556.082 332.60098
1557.9573 339.78595
1557.1833 344.83405
1559.9236 350.03806
1564.9137 347.51913
1563.6702 342.11707
1570.4469 340.9569
1570.8909 346.24554
1577.6042 344.24243
1580.2661 339.01425
1579.274 331.05496
1581.8817 325.87714
1586.7852 322.53293
1587.3115 329.41785
1594.0211 329.52396
1599.01 338.26355
1603.0244 345.06873
1594.6084 346.8753
1589.6017 338.78503
1586.0315 345.0909
1587.0441 352.97723
1594.3667 354.3893
1600.3428 354.57446
1606.6787 352.98795
1610.3823 347.76343
1610.6202 341.59897
1615.8787 338.22607
1612.959 334.6986
1606.4216 336.89874
1608.5844 328.46527
1603.8435 328.03198
1599.0104 327.1127
1593.4136 322.97427
1598.4419 317.8864
1602.6042 321.65198
1608.458 323.06836
1612.3146 318.3642
1607.211 317.1991
1603.2172 313.0245
1597.0242 305.8944
1597.5237 300.05652
1596.5121 310.89862
1593.1816 316.63864
1588.0449 317.24298
1583.7318 313.96466
1581.1517 318.1439
1574.7695 323.20865
1569.1215 322.83453
1570.4009 328.60907
1570.5947 333.4144
1562.3285 331.2757
1557.4597 323.79276
1563.5635 324.41876
1568.1938 317.03333
1566.9155 309.84598
1573.0071 310.2129
1573.5583 315.7921
1579.5983 310.42017
1587.4583 309.60696
1591.1561 300.54785
1594.3868 295.11508
1585.7422 293.38254
1589.148 287.34457
1592.3501 289.82947
1595.6835 288.76608
1593.0363 283.66498
1586.8436 281.21844
1591.928 279.4031
1591.5488 275.15005
1586.7078 276.1625
1589.8932 270.75327
1584.3107 268.27612
1590.1892 265.05087
1585.6885 261.27472
1580.8932 255.51222
1587.185 255.85062
1594.8302 254.70891
1597.5736 249.11687
1597.8794 243.03448
1603.6267 247.01038
1607.274 240.77284
1613.541 242.91122
1609.7659 236.08163
1601.7694 239.75516
1600.1462 234.75967
1595.5068 230.65656
1600.0486 230.19264
1604.619 229.81607
1608.7651 228.17867
1610.9222 231.57962
1613.3995 228.87962
1617.5205 230.98227
1622.529 235.59784
1617.8276 238.72519
1624.9789 242.4914
1618.8729 247.93129
1611.5557 249.18898
1617.4022 279.97046
1618.0901 289.29922
1620.966 299.67386
1611.8384 303.84366
1605.176 306.32996
1610.8691 311.2379
1617.7314 308.975
1616.3689 314.80087
1620.1167 318.55725
1618.4431 322.0554
1614.3907 322.51358
1613.4639 326.89203
1617.7592 327.3133
1622.5305 325.06772
1626.5398 322.1113
1630.8658 324.8408
1633.256 319.5067
1629.3246 314.8047
1623.6932 315.9275
1624.1586 309.27173
1629.1567 306.3588
1635.8505 308.82953
1635.7788 314.6198
1639.7744 311.68158
1644.8031 316.47562
1641.2042 319.39114
1638.3646 322.93277
1636.7411 331.69016
1641.8732 334.54175
1642.4775 329.34436
1647.0911 322.57135
1650.6001 318.4073
1654.2386 322.19315
1657.6505 325.45798
1661.9703 322.99338
1661.0681 317.7936
1655.9713 316.90778
1654.9668 310.69785
1650.2686 313.31638
1648.0623 308.22513
1644.4507 311.77298
1642.7173 306.77866
1643.7075 302.5207
1637.9966 301.4328
1640.632 295.723
1635.5854 295.45544
1638.4999 290.5526
1636.8507 285.7607
1636.4519 278.69955
1632.4895 274.43732
1635.9137 271.11926
1634.6476 264.73276
1629.9745 259.86356
1634.1227 256.93613
1631.1858 250.91754
1633.3008 242.71553
1633.0487 235.86075
1638.8547 236.14285
1635.6259 227.25877
1640.247 229.48369
1645.7109 227.87479
1650.8933 226.72073
1651.1346 220.40958
1658.4164 218.67355
1660.1285 222.84296
1655.3734 223.80997
1659.2361 227.27818
1663.458 226.98178
1665.2625 230.9488
1667.6643 235.11322
1664.1752 235.93567
1660.3444 235.85583
1659.2738 232.03409
1655.0516 229.42058
1653.0547 233.46252
1648.4492 233.09793
1643.616 233.56297
1644.4531 238.89471
1640.7441 242.69963
1640.1058 248.9208
1644.6708 247.49988
1647.7925 243.65605
1650.1272 238.92453
1655.4705 237.65828
1659.7405 240.80077
1661.9067 245.65427
1658.1725 247.99553
1654.397 243.49791
1649.8705 248.56433
1653.7379 250.003
1657.7078 252.99258
1662.9648 253.16121
1665.5164 249.39548
1669.7441 252.51224
1673.5377 249.27142
1673.0858 244.86081
1674.715 240.01247
1668.1724 245.6821
1665.013 240.98251
1669.8346 240.68237
1671.6177 236.13545
1676.41 235.87607
1680.1448 233.74637
1684.3605 230.234
1683.2849 235.7617
1681.0962 240.0568
1677.328 243.07106
1678.3696 247.78847
1681.2546 244.92055
1685.5044 244.62709
1687.6027 250.22377
1683.2047 249.97705
1678.8809 252.10571
1674.7285 254.47964
1679.7228 257.18634
1683.9617 254.89488
1684.5144 259.3757
1682.5286 265.20682
1678.9867 263.11246
1675.7705 259.6988
1671.47 258.84586
1667.2903 256.99945
1662.97 258.2464
1658.8788 257.99936
1654.648 257.0027
1650.0808 255.04832
1645.7156 252.4741
1642.634 256.141
1645.9088 260.06647
1651.0016 260.59152
1654.9818 262.88617
1656.5132 267.33197
1658.4857 271.62555
1655.6986 274.72696
1659.542 276.70758
1666.8021 277.65594
1658.3615 282.55167
1654.9124 279.51028
1651.9688 276.41666
1653.1589 271.5402
1651.6102 267.67026
1648.1067 265.51282
1643.2485 264.63748
1644.2134 271.03806
1648.2488 271.8601
1648.1342 276.27347
1645.1381 278.4366
1649.935 281.62772
1646.1102 284.44986
1648.3229 289.03033
1653.9609 285.13434
1658.6421 288.67694
1652.304 291.5431
1657.8649 294.0632
1658.4579 299.41632
1650.5475 297.03555
1649.4188 302.39417
1652.6914 305.93442
1657.2186 304.72113
1662.5352 304.8805
1659.1018 312.11563
1662.713 310.90125
1668.6403 309.67914
1668.8143 304.1787
1666.4719 299.29193
1672.6432 300.1262
1672.5188 308.65433
1676.4987 311.92203
1680.1875 308.85086
1683.0066 313.05487
1685.362 307.16867
1689.8408 305.6981
1694.4092 304.34952
1694.5242 310.40738
1688.825 311.39966
1690.4529 315.63736
1696.5691 319.13446
1702.7195 323.36707
1702.5232 317.4015
1698.9799 313.3528
1701.4994 308.41644
1699.2168 303.67624
1700.089 299.0249
1694.3749 298.1358
1689.2397 300.21313
1687.3842 294.49762
1692.3547 292.18375
1698.419 292.09543
1695.9445 285.0327
1694.8708 278.50522
1694.4669 272.6971
1688.1152 274.41528
1688.2284 280.98218
1681.939 277.3399
1681.2002 283.55447
1688.5664 287.2663
1680.32 289.3403
1682.5227 293.9398
1684.1007 300.34494
1680.9216 304.26068
1675.6484 305.1822
1678.5333 299.76688
1676.383 295.26044
1672.2566 291.0353
1675.0945 285.60028
1669.8184 282.68774
1673.3116 279.04004
1676.5612 275.80328
1670.1554 273.31918
1668.4717 268.2727
1663.46 272.2416
1661.2675 267.3825
1660.0115 262.90445
1664.9329 262.34058
1669.0696 263.1948
1673.8937 264.82916
1674.4995 269.7793
1679.428 270.444
1684.273 270.31647
1689.1843 267.82007
1694.4729 267.6383
1697.217 263.86014
1692.603 262.9152
1686.6544 263.38608
1689.6311 260.02515
1693.6932 257.6749
1688.9873 255.39157
1692.7926 252.3498
1691.8665 247.3412
1690.2161 243.39908
1691.5723 238.99193
1686.3368 239.19684
1688.7341 234.8974
1689.5276 231.38052
1688.8453 227.72606
1689.2303 223.8681
1685.2408 225.41393
1679.3676 226.4724
1678.3275 230.45663
1674.2618 229.50044
1670.5505 231.38599
1668.3842 226.75998
1672.2769 223.9505
1676.4548 222.9021
1674.1516 218.0627
1679.0366 218.62146
1682.1138 222.44926
1686.0474 220.91495
1688.5052 218.86371
1689.054 215.018
1685.5015 214.83104
1683.3186 217.90442
1681.4673 213.97316
1677.5876 213.26027
1675.7792 209.41365
1682.5056 209.55586
1687.178 210.8822
1688.609 206.12254
1683.1729 200.13466
1674.1458 202.61542
1669.0977 210.58047
1672.3108 213.52214
1668.8088 217.3527
1667.8384 221.96747
1663.6709 220.65352
1664.1925 214.93971
1663.8545 209.44298
1659.3113 212.89313
1654.6611 216.14468
1654.7511 209.59552
1651.168 197.79317
1660.3223 201.3198
1669.7336 196.45352
1660.8574 190.363
1648.9639 185.79555
1659.7124 177.93425
1655.0344 164.88347
1658.057 153.04575
1672.5189 161.43909
1680.1521 153.29642
1692.587 160.69711
1690.7977 179.56569
1682.9001 173.02795
1670.1272 172.83333
1670.88 184.45084
1680.9545 191.0119
1694.6692 191.81943
1703.2142 178.65701
1705.2515 163.9126
1717.1226 170.8172
1726.4484 158.36447
1732.2346 135.6767
1727.7568 101.52751
1707.5298 110.70998
1701.749 118.93225
1702.0443 123.18156
1701.7104 127.481865
1696.9208 126.78438
1692.9279 128.27733
1679.8077 125.69926
1674.6942 126.14985
1666.2632 125.1527
1657.5763 122.60064
1645.5112 136.47449
1636.0891 136.07439
1629.3755 124.74569
1621.8093 123.89939
1613.9255 124.5705
1605.614 122.49761
1591.9762 125.82536
1584.739 122.77411
1591.6638 118.8834
1605.548 115.33097
1615.0684 118.74463
1616.8687 111.902664
1621.8407 118.13993
1631.0719 117.87025
1639.6691 116.239494
1636.9119 123.97131
1645.046 124.093285
1649.6685 119.084816
1665.8345 117.91713
1672.0581 121.240616
1679.1593 120.19272
1689.0325 124.64005
1694.0638 122.84966
1697.8207 121.60713
1700.416 100.72737
1690.9424 100.672966
1683.4565 100.89499
1678.0825 100.40141
1672.8555 99.41526
1674.4543 104.34997
1667.6135 104.46332
1667.1512 99.01883
1661.5579 99.13558
1656.0112 98.24589
1655.3187 103.54495
1650.6204 99.66913
1646.5078 103.400536
1643.229 98.05327
1639.5525 103.182625
1636.7207 97.75314
1632.272 100.351105
1627.8474 102.60199
1623.5814 97.76179
1620.9309 101.592026
1613.9788 99.20043
1607.0499 99.3377
1597.465 97.12025
1589.7036 101.499275
1584.317 100.006
1579.3154 94.980774
1577.9395 99.555214
1571.6526 98.61959
1568.0258 94.10628
1563.1306 99.13917
1559.5652 94.05118
1554.3253 98.418236
1546.2816 97.29301
1537.9054 98.16785
1530.2949 98.27481
1526.2355 114.544914
1521.2783 112.88792
1513.9509 113.06156
1515.5151 117.59006
1515.2905 121.90388
1513.3302 124.763855
1511.62 117.99217
1503.2169 113.583694
1497.7954 98.759315
1494.5731 110.944664
1494.2849 116.085846
1486.3064 114.902596
1478.4457 114.40483
1478.9849 121.06748
1487.553 122.59921
1495.2018 122.32053
1500.8026 118.35727
1505.5825 120.50086
1502.7775 122.87135
1498.4531 140.65408
1480.5305 157.39986
1480.2522 169.4345
1461.7836 166.64743
1469.8159 180.5587
1483.2449 191.6069
1484.8704 203.28346
1477.3296 202.37282
1470.1101 202.15746
1462.6943 201.2432
1460.3512 206.62622
1454.2668 212.5513
1459.9762 216.64513
1461.0312 211.6137
1466.2654 214.53922
1467.5188 209.79669
1471.9177 207.16275
1476.3997 209.6812
1481.2487 207.66522
1481.0214 212.94829
1486.3728 210.99098
1490.9409 205.45345
1494.7854 199.9413
1496.1245 208.9009
1491.5898 211.0054
1496.4937 215.1939
1490.9285 216.36223
1488.33 220.98366
1484.7194 217.52998
1479.7557 217.20924
1480.4882 222.93082
1484.2163 226.19556
1481.66 231.85251
1475.8444 234.98746
1479.5757 239.42755
1485.4629 240.63083
1482.9857 246.40388
1476.2664 246.06659
1473.0386 240.87117
1469.343 245.54675
1464.4607 243.15784
1464.5923 249.34264
1467.293 254.75063
1471.6143 257.99686
1467.8708 262.77676
1464.9766 267.08887
1460.5157 268.86804
1459.6868 273.20663
1456.822 276.30316
1453.81 278.97263
1450.2301 282.82144
1444.0131 283.2571
1444.8293 278.88806
1448.6765 276.38773
1451.1543 272.6782
1455.2892 269.4084
1451.668 265.9655
1458.3158 263.40933
1463.314 260.01364
1461.8768 254.80894
1456.8163 257.23196
1458.1008 251.1113
1458.9387 246.09476
1454.446 243.78627
1449.3173 246.59901
1452.4965 251.67906
1452.0376 258.7544
1447.8911 261.30725
1445.9705 268.2504
1440.1665 267.69165
1442.1495 260.65182
1446.3218 252.81186
1440.2262 253.17444
1433.3157 251.08885
1431.1212 244.64502
1427.59 238.01088
1431.9957 234.64822
1435.0146 238.78409
1438.3638 245.2409
1443.6174 244.35703
1447.0764 240.20985
1452.7534 237.73589
1459.8757 240.03154
1467.5902 238.56642
1468.9412 233.7911
1472.3544 230.88055
1476.4918 228.24716
1474.1873 224.59427
1476.1183 221.34337
1475.7318 217.17912
1472.7267 213.739
1471.8461 219.81494
1467.8492 218.10165
1468.1571 222.81358
1469.2246 227.16603
1463.8387 226.74843
1463.955 231.47606
1461.7783 235.17868
1456.9534 235.31392
1453.9723 231.92522
1458.4675 228.44269
1463.509 221.20337
1458.7883 222.32224
1453.913 222.87067
1453.0863 227.08493
1448.5757 225.56279
1453.2267 218.2173
1447.5012 215.17125
1438.7999 202.36873
1446.3943 202.88904
1454.0332 200.66345
1465.8026 191.74794
1454.4126 187.2025
1442.5286 191.91515
1430.9205 197.80011
1432.6073 187.71211
1424.7516 179.35335
1418.2462 180.89395
1411.7478 176.21312
1423.0083 152.75667
1414.3036 146.0795
1403.0577 122.512375
1401.6594 110.43111
1409.9114 99.82619
1412.6831 92.47201
1425.9136 94.301
1431.616 93.88397
1438.3325 95.09239
1438.748 88.0519
1450.096 93.369835
1463.5896 97.226875
1478.5568 97.7898
1469.7197 111.25778
1469.1324 116.382545
1472.1785 120.31882
1468.3168 123.32605
1448.2463 117.16641
1420.1058 115.92567
1415.5039 109.40032
1408.6384 135.82639
1403.5851 159.45581
1405.527 171.19887
1406.035 181.04007
1411.3105 181.61621
1407.8925 189.7729
1414.9912 186.12044
1421.2598 185.92203
1421.0623 191.22377
1420.4993 200.30789
1414.2847 195.53818
1407.9008 198.35567
1412.478 202.50029
1409.7076 209.49043
1411.0981 224.07773
1420.4913 226.19637
1420.1434 219.7504
1415.3588 215.55086
1418.2646 209.25676
1429.2979 211.55939
1430.1079 205.12302
1437.8123 209.65283
1436.4954 218.14116
1441.4283 216.49858
1443.9913 219.39854
1447.7314 221.24286
1439.87 223.12633
1443.305 226.01648
1444.6335 230.59311
1449.4974 231.17216
1446.6932 235.70517
1441.5157 236.14438
1438.4752 231.08412
1431.269 229.82466
1435.4387 227.54926
1434.417 223.63055
1431.3978 219.84134
1426.3687 218.62537
1427.2085 224.8554
1425.4329 231.27399
1418.929 233.18954
1412.9108 234.08572
1418.0758 242.45058
1417.8044 252.35333
1419.2374 266.1365
1426.1459 255.26242
1433.4258 258.28717
1434.3915 264.04877
1435.5164 271.10623
1442.7554 273.82883
1437.2872 276.89505
1438.7745 282.0072
1433.736 284.57068
1426.9229 276.90485
1417.6359 281.3558
1420.2544 291.03705
1419.1544 301.7404
1425.7274 296.43756
1429.1244 301.77023
1425.461 311.31952
1419.8601 310.1278
1422.1139 317.14655
1420.8466 322.74515
1423.5398 328.76205
1424.4828 334.20456
1427.4944 338.46655
1435.8909 331.41153
1430.705 324.8595
1426.4746 322.1401
1430.6251 319.79117
1428.7351 315.54495
1434.6294 316.4415
1438.8655 312.28018
1441.5062 308.86057
1445.6318 309.42886
1448.3329 313.65103
1451.5354 316.29108
1453.777 319.90524
1456.5377 313.6711
1460.3888 318.43518
1463.1489 323.49872
1460.286 327.3174
1456.4244 323.8657
1455.6414 329.4079
1450.9022 330.64313
1450.5262 324.87726
1446.4323 319.95636
1443.1312 315.0473
1440.2488 319.54355
1435.7932 321.73837
1434.6875 326.70184
1440.0115 326.0324
1444.867 324.9112
1445.3994 329.7055
1446.18 334.3588
1450.6101 336.68784
1454.7239 334.957
1459.2098 332.82083
1463.5994 331.80942
1466.1002 328.6513
1468.661 325.47433
1466.938 320.00183
1468.016 315.452
1462.8126 312.01953
1468.1536 309.8214
1467.0629 305.14883
1461.7766 304.03033
1457.8822 308.13522
1457.9153 299.4314
1461.1567 294.90448
1465.9237 298.85327
1471.5696 301.64285
1478.3328 303.33975
1483.3385 305.8604
1488.1569 308.48566
1483.3567 312.77823
1478.3063 310.72586
1474.6588 306.4086
1472.7811 310.90387
1473.8551 315.72702
1473.8136 320.4571
1472.6112 324.27753
1475.377 327.48767
1471.4688 331.22202
1468.3126 334.04013
1465.4425 336.7017
1461.2214 336.62518
1457.2422 339.1093
1462.9877 341.02264
1460.2942 344.2292
1455.7329 343.6038
1457.5117 348.8233
1455.2429 353.49344
1451.849 357.56198
1449.8822 352.02225
1452.7705 347.54135
1451.5873 341.68597
1446.6259 339.7302
1447.4641 344.9198
1445.704 348.11627
1439.6663 346.7294
1435.2197 343.9944
1430.2761 342.03333
1423.3716 341.1293
1427.774 347.55753
1424.6678 353.22006
1429.5723 354.25903
1433.3037 358.55585
1427.3239 364.7355
1433.0548 364.5632
1439.6818 365.2153
1444.7029 369.6588
1433.593 371.58417
1429.0785 378.14798
1436.8123 379.3537
1434.324 387.42636
1442.1539 385.92975
1447.8318 389.54965
1438.0906 394.83557
1429.8534 395.2126
1431.9943 401.78152
1433.2195 407.89633
1438.0836 404.85626
1441.4257 400.23602
1444.0947 407.4296
1446.2881 413.10422
1440.7565 416.0575
1437.0647 412.15887
1436.9562 420.2203
1432.4502 425.3642
1434.8125 435.0282
1439.5831 427.22046
1442.9917 422.70322
1447.5731 419.6084
1444.3173 430.12808
1446.7383 435.99753
1440.8295 439.52618
1437.2333 446.59476
1435.27 454.8261
1438.9999 453.8806
1441.2435 449.71826
1447.7612 444.2194
1450.7155 451.7664
1443.7262 456.2967
1440.0074 461.13477
1438.9379 467.23434
1440.3092 476.81216
1446.2367 470.0851
1450.2091 459.97946
1460.7336 460.4854
1455.7028 465.41214
1457.5858 473.02908
1465.1031 469.7508
1476.6151 465.8509
1468.2366 478.116
1472.3812 487.0124
1466.9097 484.10794
1460.9564 480.019
1461.2748 485.91364
1464.4357 491.60342
1469.5286 493.419
1467.1782 499.4635
1472.8104 500.17172
1476.7509 494.70892
1483.7207 489.1666
1494.6013 493.25137
1500.4169 490.14407
1502.6691 502.11313
1502.6473 508.9249
1504.1543 515.71466
1504.5524 523.0913
1505.3484 529.4025
1497.406 529.9478
1497.6356 523.53314
1492.5896 524.3524
1492.1498 517.3655
1488.1213 511.95438
1482.9021 503.7343
1472.3806 507.05908
1473.4287 513.0267
1476.2474 519.2938
1469.7023 518.2194
1469.7344 525.07916
1469.483 531.02795
1464.3901 522.35956
1463.5774 515.0531
1463.6079 508.4888
1460.8075 502.96295
1457.7975 496.23325
1453.05 488.12
1447.7947 480.03323
1442.1777 484.67578
1443.1858 492.509
1447.746 497.74658
1447.6652 504.44067
1452.4749 507.71887
1451.4753 514.658
1447.4788 520.83185
1454.2307 522.33844
1454.2817 528.9191
1449.1381 530.18396
1454.8567 536.4797
1452.2094 540.0006
1455.0931 544.74713
1461.5756 549.0507
1455.5627 554.2611
1463.9652 557.3063
1458.5406 563.1204
1462.0133 568.6851
1469.7415 569.0076
1467.3687 575.8472
1461.0017 578.6234
1465.6964 586.2057
1465.7932 592.59454
1468.6732 601.57007
1474.8207 600.3143
1480.2513 598.81885
1481.8127 604.81635
1485.0044 610.80554
1478.0741 610.6444
1470.8939 611.0829
1473.6699 618.9187
1475.9044 627.8991
1480.2139 621.00494
1486.0878 618.7198
1493.5009 624.43634
1485.1693 629.36163
1479.3425 636.0556
1480.4319 644.2721
1487.3812 652.0298
1491.1848 659.22986
1493.545 668.0782
1497.4246 674.2532
1494.594 677.2476
1502.0168 681.34894
1497.1199 685.518
1502.3329 688.2115
1500.6096 694.6506
1504.467 700.7473
1508.6956 708.96857
1515.7902 710.18384
1515.9158 719.7115
1518.8999 733.8072
1529.0068 731.6041
1545.4119 730.8955
1550.2571 725.59125
1532.6783 724.3001
1527.6416 724.6408
1529.9408 717.08954
1534.8923 719.0987
1534.8524 714.3834
1538.511 712.13043
1535.4583 708.92896
1531.4381 710.0679
1532.462 703.58374
1536.5684 703.4649
1539.5734 707.0101
1540.9862 701.7842
1539.7885 697.2863
1534.7932 697.9042
1534.8047 691.8251
1527.0573 676.3233
1522.7699 682.1083
1522.6111 688.09906
1518.4233 696.4174
1509.7539 691.732
1512.3324 679.8868
1513.5352 673.2174
1507.9015 670.98413
1502.7698 673.04114
1504.0676 664.82196
1500.3253 659.683
1499.6418 651.542
1508.8369 648.6522
1515.7196 655.9339
1515.5647 663.2942
1517.1449 650.83057
1516.0309 645.92346
1518.2921 641.5562
1514.2139 639.5962
1516.36 634.6347
1511.6553 632.5109
1514.3414 627.7253
1508.68 628.11176
1499.2577 641.7003
1486.93 643.86554
1495.1133 634.45605
1504.4121 625.0508
1501.5881 619.0968
1499.171 612.2738
1492.0803 615.9872
1492.8535 604.84503
1493.6027 597.4498
1485.3613 594.77277
1477.5193 591.2909
1476.5216 584.01575
1477.8221 576.2058
1486.8971 582.02875
1495.156 577.40704
1493.2339 585.9032
1494.7657 591.6913
1500.5132 593.46173
1508.4993 591.4025
1509.7573 586.8592
1517.2406 591.2075
1520.5889 592.2576
1520.7374 596.3747
1520.328 600.1028
1523.509 602.56024
1525.9691 599.22156
1527.495 595.8027
1531.1749 595.95386
1531.003 599.90424
1529.6838 604.23724
1533.9205 603.77423
1534.8994 608.7824
1529.7434 609.77606
1525.1028 612.12866
1526.3429 606.22235
1522.9022 607.4993
1510.3196 607.1605
1509.7844 600.0185
1505.8094 596.47986
1500.2915 600.4013
1504.1337 604.7099
1504.2673 610.6025
1508.4668 613.1079
1510.7407 616.8842
1513.0214 622.08966
1525.4247 617.01605
1527.4395 620.9009
1529.7234 615.59485
1533.617 613.78436
1537.9152 614.11316
1539.3663 619.58826
1534.9607 619.2498
1531.3793 622.0478
1528.0255 627.0606
1534.4604 625.48157
1540.2046 624.22864
1542.6945 628.94794
1544.8242 635.47034
1539.6008 634.07684
1537.3381 629.5525
1531.7502 631.3556
1529.2832 636.5387
1535.282 638.4295
1530.6895 644.16187
1532.6321 650.56366
1537.3549 647.26294
1540.041 643.0853
1543.4213 639.8448
1545.1571 646.7441
1545.3417 653.14667
1547.1333 659.45917
1545.6393 666.64935
1545.0726 674.30896
1540.7156 669.2113
1542.4331 660.4236
1535.4192 655.3107
1529.3024 655.39636
1532.4666 661.3412
1527.8265 664.4451
1529.9447 669.42865
1538.9705 677.10614
1543.9802 681.62506
1537.4414 684.45984
1543.4614 688.0047
1538.8636 690.6711
1543.0547 694.2005
1559.885 701.7061
1557.2948 706.4475
1563.2053 707.15515
1559.7462 711.01215
1559.4438 716.3988
1554.3481 713.7446
1553.4342 719.75446
1556.238 724.95734
1563.6974 724.19653
1572.4772 718.6682
1578.4056 714.8674
1577.8427 706.0714
1581.6277 699.07355
1584.44 693.53235
1587.9454 690.9146
1586.758 687.1427
1590.3478 687.19135
1591.8768 684.0486
1604.0212 689.4002
1601.9506 701.3365
1609.922 704.6929
1605.7048 709.1328
1596.2986 709.1302
1588.0721 713.58325
1591.7496 706.76526
1596.6595 700.9405
1603.1299 695.2675
1608.7893 689.7678
1606.3995 683.8569
1610.6913 683.33673
1607.8663 678.00934
1611.1378 676.0917
1614.425 679.9141
1618.6807 678.6349
1616.0183 674.48346
1617.24 670.4371
1619.0752 666.5584
1623.3558 669.95087
1625.2603 674.4761
1626.4276 678.5953
1623.238 684.13556
1617.9601 684.7743
1621.2654 690.4983
1616.1858 690.9155
1613.0714 696.83936
1614.56 701.8674
1620.197 701.1592
1620.9121 696.026
1633.6185 696.01245
1633.9297 691.24414
1630.2612 690.1301
1631.7917 686.4541
1628.6423 684.279
1630.0583 680.4591
1641.8533 679.3974
1642.2634 675.27936
1646.2068 675.9502
1646.6909 680.59076
1643.34 683.65295
1647.3938 685.1148
1643.9722 688.24036
1644.6244 692.5438
1648.499 692.7494
1647.8479 689.378
1656.2423 688.35297
1655.8657 682.13
1655.4775 676.5309
1655.0465 670.63745
1654.7539 665.15094
1655.2821 659.9547
1652.197 657.3679
1655.0388 653.70624
1652.6355 649.8941
1652.7755 645.2391
1650.9108 640.7262
1652.1063 634.8846
1647.9772 635.05206
1635.1486 643.5278
1632.2189 645.5128
1636.5403 647.9443
1638.6492 651.5305
1637.396 654.7684
1636.4196 658.3845
1640.7233 656.48145
1641.7018 660.6609
1643.0542 665.67487
1644.4285 670.51013
1639.8301 672.226
1638.3003 667.89374
1638.613 663.2856
1634.9507 662.65216
1632.0868 658.0124
1633.8987 653.4515
1631.9175 649.91583
1628.2894 646.5805
1625.8887 649.2997
1629.0361 653.70355
1620.8958 662.37317
1616.0695 661.8373
1616.2585 656.3194
1612.8121 651.48865
1611.1395 656.0058
1611.0051 661.1946
1611.6262 666.3076
1609.758 671.22046
1598.6074 667.7758
1593.446 670.57336
1595.9585 674.98315
1590.6174 676.0869
1593.4834 679.92413
1589.0548 681.62054
1571.1326 678.6876
1570.2461 683.0117
1567.0037 685.1554
1569.695 688.0606
1566.8848 694.20404
1564.6421 700.026
1561.2194 696.74225
1562.817 692.7051
1565.8933 689.7633
1563.6947 686.61285
1566.1366 680.32965
1568.6685 675.5838
1572.0275 671.8891
1567.7393 670.98267
1570.3009 666.9473
1570.2517 662.6586
1569.7506 658.1158
1568.6172 653.7124
1568.7781 649.55865
1567.2988 645.71576
1566.3228 640.0171
1564.6168 632.691
1562.3706 624.8136
1560.5592 618.053
1557.5022 613.30444
1558.9547 608.17737
1554.1782 607.4508
1557.0009 602.2436
1551.6356 601.1278
1548.2339 593.30273
1551.3798 595.70123
1557.118 596.32294
1556.2314 590.0859
1573.2955 577.2174
1571.6062 570.5091
1576.1357 572.814
1580.9954 571.753
1578.7446 566.2692
1574.5487 567.0222
1574.5552 560.3358
1571.8877 553.3071
1568.5322 557.35864
1570.065 563.89417
1551.3821 559.46466
1548.8872 563.87366
1552.4092 568.8355
1554.4011 576.04224
1555.9899 583.09076
1550.206 585.4027
1545.6886 589.8571
1542.7634 585.3593
1544.0156 580.44037
1542.7394 573.7782
1538.6409 576.3106
1536.1158 569.7615
1539.2721 566.93066
1534.5012 563.73535
1536.4619 559.6635
1534.1583 554.2801
1531.8413 557.9062
1514.3501 558.94543
1512.4266 552.37427
1508.5223 554.26373
1508.5242 559.1673
1510.5511 562.9506
1508.8354 567.1208
1511.009 572.1844
1516.2896 565.68146
1518.4238 571.3
1515.5442 576.95483
1521.5046 576.54974
1522.5413 581.3535
1523.9517 585.3669
1527.0029 584.2813
1527.9114 588.9554
1528.9338 592.351
1524.4434 593.6526
1524.3328 589.53754
1520.875 587.6322
1517.7024 585.75684
1515.8569 581.8864
1508.2627 577.85675
1506.6206 583.2299
1501.3312 587.2393
1500.041 581.5769
1502.6244 575.7338
1503.4668 569.6714
1502.691 563.1043
1497.3677 564.53217
1496.7306 571.1829
1492.3323 566.53046
1487.7026 573.43164
1484.5796 565.9105
1477.728 565.6277
1472.314 558.35504
1471.2512 548.7903
1472.645 541.43835
1461.829 540.55383
1458.909 532.3085
1468.5957 538.25195
1473.8397 534.8546
1478.5442 532.49194
1477.374 527.25104
1479.0059 523.5101
1480.9259 528.7
1481.8893 532.37225
1484.4851 536.0559
1490.0905 539.2004
1485.1072 544.5898
1484.2089 540.53406
1481.03 536.9639
1477.3601 541.5963
1478.203 546.5072
1480.7815 552.2089
1484.6478 557.7684
1489.7842 560.78766
1494.7418 558.76685
1491.9646 554.33044
1487.7175 551.55994
1488.1428 546.42993
1492.5664 548.16595
1509.2821 547.10846
1507.7681 540.0088
1514.9225 528.23444
1515.498 520.0559
1512.9661 513.36755
1517.0148 511.55447
1511.7189 505.35287
1516.5024 504.79022
1516.5336 499.20517
1511.4242 497.5677
1515.4794 493.60193
1514.6202 488.6415
1509.7206 489.34207
1506.4077 493.2919
1503.8303 485.79285
1493.6212 480.87213
1499.5765 476.93207
1502.1565 480.0472
1506.463 482.39105
1511.9568 483.821
1517.6158 483.75806
1519.5024 488.00095
1523.812 484.7246
1521.8 480.58575
1522.3154 475.9713
1525.5333 473.59454
1526.8663 479.12912
1530.9329 475.10947
1528.9951 471.36377
1524.8519 468.96152
1529.1901 467.21793
1531.4082 464.0479
1533.8893 460.59753
1538.0929 460.11157
1535.4788 454.83795
1529.6469 455.2496
1527.669 459.84964
1525.2666 463.8522
1520.8162 466.0493
1520.7527 460.4927
1522.5819 455.14926
1525.2113 449.6314
1525.4418 444.48636
1518.1626 446.34995
1513.4178 450.705
1510.8262 444.89548
1504.4822 443.37247
1510.3247 439.2691
1516.2014 438.43594
1518.599 432.29987
1523.263 440.15628
1523.7865 435.45468
1525.7815 430.82578
1522.9808 426.30255
1527.763 425.0843
1532.5721 425.68576
1531.313 431.92392
1530.7013 438.43527
1533.6758 443.91306
1532.2529 449.38788
1540.0822 442.47314
1537.2601 436.4061
1544.0576 435.83752
1546.0175 440.81262
1544.7466 447.0104
1539.4385 449.72305
1541.4305 455.55023
1546.4618 453.36588
1546.6733 458.98532
1550.8142 458.71805
1552.8408 453.45636
1550.1652 449.39255
1550.1044 444.62585
1550.178 437.93674
1550.9462 434.54968
1549.7284 431.16275
1545.903 429.4839
1541.4137 431.4294
1536.6077 429.7905
1537.831 424.62558
1542.1295 425.97736
1545.856 423.29123
1549.5073 420.5392
1549.8384 426.0217
1554.4102 427.6898
1555.3386 432.23367
1559.717 433.46625
1563.1556 436.1547
1556.4652 437.62735
1553.1333 441.5415
1558.2689 442.52786
1555.5037 447.46918
1559.4783 449.931
1565.3259 453.0237
1568.1097 457.99734
1562.4445 458.1312
1558.8604 455.5553
1555.4268 457.92108
1555.3802 462.0671
1559.3446 464.41708
1563.9597 462.7522
1568.3688 464.94406
1573.0015 465.34323
1572.9503 470.06403
1569.1208 472.44376
1567.4751 477.60068
1562.5128 479.47165
1553.8352 482.1418
1557.5387 479.30228
1559.3115 474.38205
1564.0992 474.06827
1563.9254 468.7698
1557.798 469.58304
1553.579 467.21698
1550.1824 464.01953
1546.6334 465.9813
1544.4259 463.15683
1542.1517 460.28442
1539.5557 465.0123
1535.2278 466.85672
1533.4578 470.88965
1536.6952 474.79028
1538.9761 470.20264
1542.463 474.1671
1543.5995 468.89886
1549.0181 470.09946
1553.916 473.62405
1551.3779 478.27634
1548.001 474.65964
1544.2605 479.0909
1547.9283 482.28146
1545.139 486.1332
1540.7758 483.7939
1541.4728 488.6754
1539.7538 492.1071
1536.2906 490.66275
1532.406 488.82956
1535.5554 484.76514
1538.1619 479.4086
1532.5681 479.29492
1530.027 483.4743
1527.662 487.06537
1528.4623 491.28934
1524.1672 490.36227
1520.3916 492.4792
1525.086 498.9109
1525.233 504.55157
1525.5916 510.26178
1526.2869 516.5207
1526.9774 523.70856
1527.2576 531.0417
1529.7537 535.9443
1528.5153 540.6678
1530.0262 545.8198
1529.656 551.9812
1532.7756 549.57874
1539.4124 546.74445
1540.6012 543.2623
1542.3744 549.61383
1543.6451 553.82074
1545.7736 558.31793
1549.4165 554.00385
1548.0055 549.40094
1545.9475 545.4023
1546.6229 540.7298
1542.5103 539.2727
1537.647 538.871
1538.9872 533.6436
1540.2335 528.0004
1535.4774 527.6828
1537.9058 522.11707
1537.7562 517.1963
1536.716 511.71188
1536.1384 506.3222
1536.0874 501.29303
1537.1025 496.55637
1542.979 494.99063
1547.6182 495.12863
1546.1444 490.79654
1549.9744 489.89835
1550.1019 486.11703
1555.0157 486.16986
1559.8748 484.5154
1564.8539 486.55032
1566.4113 482.46054
1571.0837 483.5696
1564.6493 491.37988
1564.0125 496.99298
1563.7245 503.0583
1561.7319 508.68277
1565.4838 511.342
1566.124 519.53345
1562.0431 515.7707
1546.3225 511.8895
1546.3564 505.77554
1547.0552 500.15884
1541.9558 499.80304
1541.27 504.3152
1541.6799 508.88818
1541.5154 513.7287
1545.0564 517.4284
1544.2523 522.8662
1544.9691 529.1857
1545.085 535.0117
1561.3727 526.70447
1561.6926 521.4713
1565.4342 524.6582
1566.6914 528.37036
1562.7491 531.47565
1567.061 533.5283
1563.1494 537.2384
1564.5669 543.6219
1566.4841 550.2775
1569.7345 545.8313
1568.1154 539.1169
1580.8281 530.89075
1585.7916 531.4852
1586.5349 536.01337
1581.8823 537.72003
1586.6957 541.0705
1582.7732 544.1482
1586.6228 545.609
1590.8187 544.1091
1593.3508 547.6634
1592.5735 552.60657
1587.2753 549.24884
1587.52 553.3629
1590.7394 556.9522
1591.5275 561.6059
1595.4827 560.2793
1597.2415 555.93964
1596.6907 550.7664
1594.6299 542.87256
1590.5405 539.1323
1593.4319 537.3865
1591.1841 533.6732
1591.3181 529.13605
1589.5314 523.8998
1586.8568 527.07294
1581.5416 524.9914
1579.4977 519.6559
1584.7739 519.765
1583.9547 514.0979
1579.0275 513.9801
1577.913 508.9943
1579.8823 504.93744
1583.6562 503.1199
1576.3433 503.99823
1578.057 500.3825
1577.1577 496.19766
1578.6973 492.56805
1581.4592 488.1281
1577.0986 488.22345
1576.7515 482.61053
1571.3308 479.74103
1573.9548 476.9413
1576.6276 473.19525
1578.8701 477.54086
1582.4883 479.58063
1581.7913 483.53168
1585.6531 485.82016
1589.8464 484.60593
1592.1008 480.5448
1587.5254 480.22882
1585.8982 476.38147
1582.3793 473.43762
1579.9329 469.47754
1577.7838 466.3576
1577.9175 462.38235
1572.2146 460.39185
1576.278 458.66287
1579.0208 455.84494
1573.5221 454.8604
1570.051 451.98557
1567.8555 446.39447
1562.7415 446.50052
1563.3413 441.20728
1567.8843 439.67398
1573.4062 439.1206
1572.1245 443.58685
1573.7557 448.41293
1577.4468 451.39017
1577.6431 444.30484
1581.292 448.1597
1587.1841 447.74313
1584.5187 443.56964
1590.4075 439.41937
1592.2633 444.7878
1596.0763 440.14832
1598.2349 445.6526
1604.1766 446.24808
1601.4731 440.8748
1605.9429 441.0082
1604.7744 436.0312
1599.5889 435.66083
1598.6733 430.2436
1594.147 433.62158
1588.7327 432.72815
1590.7788 426.74283
1596.3555 425.48135
1602.3378 425.24057
1604.2185 430.83313
1606.9373 422.9176
1606.8702 417.76328
1599.4705 419.20068
1601.0879 414.147
1595.0145 410.97223
1599.8314 407.97903
1606.5312 412.07968
1611.6633 413.89874
1614.6152 409.33218
1617.4229 415.49307
1622.408 418.3783
1618.0632 422.07913
1612.8284 419.99374
1613.2542 425.88608
1609.2429 428.64285
1609.3708 433.61508
1610.1741 438.07727
1613.9331 441.10342
1619.384 440.23233
1617.6366 436.7972
1614.3013 433.36075
1618.0305 428.55078
1622.6373 424.65744
1626.2952 421.53183
1630.4615 422.2959
1628.7968 427.25327
1624.1787 429.49557
1620.8422 433.3587
1624.3895 438.6118
1627.7252 433.70245
1633.1409 432.1864
1633.7864 427.266
1638.3052 429.52747
1638.8658 433.95773
1643.3873 436.54718
1648.2081 435.58804
1656.8455 436.94757
1652.9507 433.7579
1648.8656 431.03583
1645.2671 431.43573
1642.1154 430.83212
1638.534 425.68497
1635.1809 422.6136
1635.9004 417.7506
1631.9897 418.46274
1627.8927 416.14972
1629.1155 410.9634
1633.1652 414.20746
1638.773 413.9472
1643.0767 416.8556
1647.1588 416.4432
1639.2821 418.9573
1640.9014 422.36465
1645.6483 421.82608
1643.3529 426.3703
1647.8395 426.22083
1650.1506 419.73413
1652.2493 423.56573
1652.4861 428.36658
1657.1116 430.9173
1661.7019 432.18164
1662.2072 436.76773
1663.0048 441.20682
1658.5226 442.39478
1654.0283 441.9242
1651.3104 438.99713
1646.9657 440.53403
1643.9362 443.73877
1640.7793 441.67297
1638.3173 439.1446
1634.5778 437.0925
1630.1565 439.3585
1627.7406 444.8435
1622.7258 444.44528
1618.0186 444.15692
1621.5371 449.46387
1626.5563 451.04385
1631.7687 449.18402
1634.3047 443.9485
1639.3705 446.70947
1636.8004 450.65048
1633.8479 455.64584
1638.4241 455.54703
1641.6115 459.3057
1645.1661 463.42123
1648.2144 459.987
1646.0109 455.58994
1642.4513 452.5252
1644.509 448.4435
1648.6093 445.47885
1653.2886 446.53967
1649.5665 451.19656
1652.1287 456.7277
1653.9647 462.52698
1649.6875 466.06168
1643.5945 468.85464
1644.3262 473.10327
1637.5571 469.3043
1632.1069 470.12137
1626.8401 472.08054
1628.9374 466.8212
1634.6526 465.30618
1640.398 464.8525
1636.3756 460.60803
1631.1462 461.21408
1630.0747 454.7121
1626.9912 457.58392
1622.2805 455.0243
1617.461 453.46033
1613.1001 452.3659
1615.793 447.63937
1611.0193 446.9533
1609.4094 443.2995
1608.3032 450.3677
1604.9524 452.9673
1600.8472 450.50015
1599.8533 456.0807
1596.5063 451.8495
1593.005 449.7156
1589.7003 452.56897
1582.8834 452.91034
1586.6792 455.68384
1593.5853 457.19553
1591.3188 466.14517
1588.5854 460.8357
1582.4458 459.43674
1583.8806 464.49908
1585.6962 468.83224
1588.6678 472.51263
1592.3464 476.29684
1597.8556 477.1215
1599.8333 473.05884
1594.2091 471.1585
1598.8054 466.69345
1595.9282 462.20093
1601.7574 460.56308
1606.3552 457.87134
1610.971 456.30795
1614.1847 459.93817
1618.7081 459.5316
1622.9702 460.4447
1626.5109 463.04684
1623.305 466.18552
1615.9836 464.51413
1619.2485 466.8974
1621.6091 471.22556
1622.5719 476.2808
1628.1206 478.36237
1622.4612 481.752
1626.5092 485.43317
1622.9602 488.4526
1621.6434 493.3279
1628.7561 491.36206
1632.4103 489.49164
1630.4915 483.74695
1645.2452 477.3285
1645.6028 481.71582
1646.2498 486.37085
1645.8271 491.25
1645.5671 495.93954
1644.833 501.07263
1644.9843 506.19644
1632.403 506.59198
1632.821 502.4904
1629.2277 501.81683
1626.1431 499.79703
1631.9978 496.58807
1626.1997 495.1002
1621.4796 498.92673
1622.6003 504.31537
1624.9475 508.4158
1628.4186 506.67657
1631.572 510.7413
1628.7422 512.99677
1628.8931 516.7225
1624.2703 518.1793
1622.8179 511.86053
1611.6423 508.66748
1604.5837 507.9607
1604.21 501.30402
1609.7776 504.6827
1610.734 498.84888
1609.8927 492.73074
1611.0853 487.43988
1611.9935 482.11163
1610.6394 477.28552
1616.0186 474.51718
1615.1293 469.8149
1610.3287 471.49802
1610.7113 466.4901
1609.3873 462.02493
1605.0046 464.81473
1603.2567 469.38177
1605.9271 473.09613
1604.6084 479.21115
1604.6387 486.31073
1603.6462 494.20276
1588.5753 489.76135
1583.9807 492.46097
1581.3779 497.66742
1585.1843 498.1602
1588.4001 495.45847
1588.3405 501.88626
1588.6606 507.0241
1583.4285 508.6802
1588.7703 511.56082
1588.8497 515.8933
1589.7605 520.0562
1605.4255 520.47394
1605.1401 513.60034
1609.4924 512.8889
1613.4421 512.76263
1612.3743 516.6884
1608.4531 518.22144
1612.6909 520.9368
1613.7885 525.8463
1609.8582 524.68365
1606.8307 527.2064
1608.8542 533.7697
1613.6387 531.2635
1614.8491 537.999
1610.9117 542.0638
1616.0754 547.5765
1628.6072 548.7116
1627.8107 542.86884
1626.9976 535.1235
1626.5625 527.2948
1628.1207 521.7432
1642.1511 517.9037
1643.6863 523.16516
1645.8612 516.9467
1642.7286 511.48718
1646.3916 511.42825
1654.783 508.10556
1657.5314 504.3265
1658.2974 499.931
1657.5447 495.17
1658.5792 489.5595
1658.4316 483.35107
1657.7727 476.68195
1656.1019 470.17114
1659.0219 466.3542
1659.9739 461.64536
1658.293 456.6371
1655.1923 452.28983
1658.0944 448.461
1662.5156 446.49707
1662.8279 451.74588
1664.6405 456.72556
1665.6145 461.9858
1670.9348 460.61554
1671.0366 456.25784
1668.754 452.16367
1668.6449 447.85263
1673.536 444.16727
1677.2317 447.73904
1674.1741 451.78333
1680.2633 451.67816
1683.7136 456.86676
1680.436 459.11212
1678.054 455.59015
1675.5029 459.19962
1682.8286 464.8809
1682.4584 470.84283
1682.7881 477.877
1683.4097 484.43256
1673.7278 473.76266
1674.1135 479.96848
1674.0364 486.0262
1673.7662 492.29233
1673.6715 498.6736
1673.5308 506.1504
1673.3916 514.39166
1673.7385 522.48883
1674.5131 528.63934
1675.565 533.6838
1675.2004 537.8481
1674.477 542.9319
1664.58 546.2493
1659.5913 543.0679
1663.5264 540.39703
1658.1262 536.2491
1663.059 535.38513
1662.0488 530.0399
1661.2286 523.6542
1660.4407 517.3411
1660.7942 509.51767
1656.827 512.2843
1655.129 517.07
1655.8503 523.2183
1656.9219 529.7313
1642.9484 528.674
1642.5852 534.56946
1641.1172 539.8008
1645.0187 542.708
1642.0591 547.8788
1646.5728 549.9867
1648.0746 555.62915
1643.4065 555.85767
1631.1057 552.3942
1632.0966 556.55347
1633.5963 561.7807
1635.786 568.0001
1644.277 564.52484
1648.1716 561.04645
1649.0476 567.46893
1647.6973 572.25903
1648.6577 577.5029
1651.7214 581.8929
1648.9884 585.3276
1650.7301 591.2319
1650.0667 598.4812
1649.3108 606.1747
1658.0066 608.2608
1650.7069 613.23474
1642.171 610.9267
1640.0428 607.115
1637.8304 602.7239
1632.0491 602.6694
1636.435 596.60815
1630.3076 595.0145
1632.6985 589.99176
1626.9349 589.5339
1627.8562 599.56195
1624.2255 595.60565
1620.7886 592.5922
1616.2432 594.32635
1615.7927 590.7695
1616.451 586.98444
1621.5951 586.9991
1626.4674 583.9804
1620.14 581.00446
1613.898 583.59186
1610.5736 580.74066
1615.8896 576.7206
1610.1907 575.84344
1611.0299 571.5069
1604.6667 572.10297
1604.0879 567.11145
1600.4359 561.25244
1598.575 565.67566
1594.1177 566.39624
1598.0188 571.3432
1600.6918 577.01544
1605.478 577.91547
1605.101 583.15576
1608.9004 587.3303
1611.2183 591.2951
1600.8552 601.28
1598.0846 596.40515
1595.0635 600.06866
1596.2915 604.053
1590.4602 603.7281
1589.647 598.2672
1593.5056 595.84576
1594.376 591.2983
1591.1792 586.304
1586.5747 587.59186
1587.1349 582.20294
1583.0604 579.9721
1584.189 575.7458
1577.8376 578.1436
1579.786 582.84656
1575.7642 585.0375
1580.6083 587.69147
1579.4761 594.1724
1584.1136 591.9926
1589.3403 592.44727
1584.9137 597.9708
1582.3333 602.0751
1585.5427 606.68567
1586.9624 611.8343
1590.0857 615.2427
1588.2599 618.54663
1592.989 619.3323
1592.373 623.3413
1590.3168 626.4363
1591.9414 632.97144
1593.291 639.5506
1597.5201 640.9711
1599.8047 637.13715
1595.2699 635.9278
1597.9803 633.3415
1595.891 630.5123
1593.2678 628.2523
1597.1686 625.574
1597.8947 621.3305
1602.1941 618.6901
1606.3977 616.5304
1601.5231 612.53296
1597.9711 616.2254
1594.37 613.8841
1591.9792 609.2816
1596.8705 608.95935
1600.9458 606.7441
1605.1371 604.8332
1605.7687 608.59454
1607.5544 611.92285
1612.0333 611.2662
1611.4585 615.65186
1617.1284 615.837
1614.927 619.09393
1614.5553 623.7171
1618.8442 622.1377
1618.9695 627.5559
1619.3203 635.66284
1620.7468 639.37445
1616.9288 632.4544
1613.6758 629.6203
1611.6777 626.62695
1608.379 624.61115
1610.0936 620.55707
1605.3608 621.9863
1602.2217 624.95483
1607.2781 627.94354
1603.626 629.4146
1599.7633 628.8396
1600.9207 632.44556
1602.7457 634.1642
1604.9192 633.37134
1603.6561 637.52527
1602.459 641.0686
1603.0221 645.259
1598.6064 645.97845
1594.0516 645.65607
1595.8335 650.9816
1597.0969 655.5209
1594.8269 659.2453
1594.506 664.4816
1600.1248 661.5194
1602.0219 655.78015
1602.1218 650.4018
1611.6531 646.7124
1622.0848 644.149
1624.7856 642.4943
1628.6598 641.80396
1632.898 639.6444
1630.043 636.5895
1625.1487 636.81067
1628.3563 631.82776
1622.8232 631.91254
1624.9343 626.9844
1622.6339 621.66064
1634.836 608.94617
1637.9135 614.11444
1643.4398 615.0553
1641.7869 618.85187
1645.175 623.5044
1648.7133 619.25543
1649.7924 624.8053
1648.2885 629.55646
1662.8704 630.86334
1662.3926 636.2348
1662.4717 642.4552
1661.828 649.848
1668.5659 647.64087
1669.2798 642.1468
1669.3127 637.4243
1670.605 632.99713
1671.5143 627.8904
1663.0847 626.3368
1664.2797 621.7459
1665.3264 617.10345
1669.5593 609.3986
1667.7616 613.442
1673.6228 622.18463
1675.752 616.5874
1678.6443 612.45416
1677.5312 608.9682
1681.4519 606.204
1682.6184 601.6133
1677.2107 603.8248
1671.5486 605.267
1673.1787 599.92035
1678.7367 599.65906
1676.495 596.0519
1675.5627 591.59106
1680.9954 591.485
1682.3477 586.0587
1676.3804 585.4069
1680.807 580.0441
1681.3555 572.2574
1676.4558 576.563
1666.304 571.74426
1665.9316 566.5372
1665.8853 560.29114
1665.1171 553.02515
1660.278 549.9653
1661.6558 557.2074
1662.125 563.869
1662.3912 569.79974
1664.2388 575.5278
1664.6418 579.7657
1664.8597 584.01904
1663.4996 587.5239
1663.4742 591.88196
1662.1035 596.4617
1660.3252 601.74774
" />
</g></g></svg>
