<?xml version="1.0" encoding="UTF-8" standalone="no"?>
<!-- Created for Inkscape (http://www.inkscape.org/) -->

<svg
   xmlns:dc="http://purl.org/dc/elements/1.1/"
   xmlns:cc="http://creativecommons.org/ns#"
   xmlns:rdf="http://www.w3.org/1999/02/22-rdf-syntax-ns#"
   xmlns:svg="http://www.w3.org/2000/svg"
   xmlns="http://www.w3.org/2000/svg"
   xmlns:sodipodi="http://sodipodi.sourceforge.net/DTD/sodipodi-0.dtd"
   xmlns:inkscape="http://www.inkscape.org/namespaces/inkscape"
   width="3200"
   height="800"
   id="svg2985"
   version="1.1"
   inkscape:version="0.48.1 r9760">
  <defs
     id="defs2987" />
  <sodipodi:namedview
     id="base"
     pagecolor="#ffffff"
     bordercolor="#666666"
     borderopacity="1.0"
     inkscape:pageopacity="0.0"
     inkscape:pageshadow="2"
     inkscape:zoom="0.35"
     inkscape:cx="1600"
     inkscape:cy="400"
     inkscape:document-units="px"
     inkscape:current-layer="layer1"
     showgrid="false"  />
  <metadata
     id="metadata2990">
    <rdf:RDF>
      <cc:Work
         rdf:about="">
        <dc:format>image/svg+xml</dc:format>
        <dc:type
           rdf:resource="http://purl.org/dc/dcmitype/StillImage" />
        <dc:title />
      </cc:Work>
    </rdf:RDF>
  </metadata>
  <g
     inkscape:label="Layer 1"
     inkscape:groupmode="layer"
     id="layer1"> 
     <g>
<path style="fill:none;stroke:black;stroke-width:2px;stroke-linejoin:round;stroke-linecap:round;" d="M 
1646.9062 234.10979
1638.931 239.11107
1633.9828 248.3981
1622.1229 249.03116
1616.1831 241.75954
1628.0435 240.16823
1622.4434 232.7362
1618.8666 224.38039
1628.7572 221.93738
1631.167 230.3634
1639.4457 227.16493
1639.7173 216.74951
1634.3562 212.92738
1626.0652 214.39
1617.1763 215.16702
1606.9742 213.90782
1609.2457 223.53474
1613.1205 232.25279
1606.3503 238.00873
1600.4312 230.16017
1589.5106 234.2793
1591.869 224.19118
1600.0405 218.55504
1589.5559 213.88615
1574.8541 215.53687
1582.1329 223.41154
1573.5441 229.23486
1561.1543 228.90724
1563.3286 216.416
1553.3445 218.75029
1543.1416 216.11537
1549.2888 227.12767
1543.581 232.45311
1538.6292 226.72505
1534.2141 220.55829
1530.3711 213.65964
1525.8053 222.61131
1521.775 216.92413
1515.6414 213.69934
1516.3428 223.19806
1509.4824 220.0472
1505.0552 213.66971
1489.848 213.38222
1496.6335 216.30801
1502.4077 223.12857
1502.1187 231.83395
1510.0005 228.53181
1516.1095 234.0825
1509.2185 236.76619
1501.8981 239.42883
1495.1243 238.6929
1484.5813 235.6237
1490.3315 232.1928
1496.1785 227.5122
1489.6342 223.04747
1481.1865 226.13217
1478.2578 231.93869
1477.6893 239.81294
1467.8824 241.0074
1464.1516 233.66437
1471.4752 231.57146
1471.1434 222.90762
1481.367 219.25517
1481.023 212.24483
1473.4185 214.51643
1465.4331 214.28423
1457.9111 212.95543
1450.8229 214.22398
1444.6428 215.16402
1445.5925 221.89316
1452.7334 223.03703
1458.7253 219.29834
1462.9542 224.75902
1457.9408 231.43633
1452.2424 232.06433
1445.7626 229.99191
1438.4194 220.70741
1438.2286 228.09836
1439.0797 236.59773
1448.2627 239.92162
1458.384 242.49274
1458.87 252.28136
1449.2704 248.83554
1443.04 260.90002
1451.7898 258.65878
1454.2384 268.2295
1460.0992 261.1726
1468.7595 261.61505
1476.1008 256.10828
1467.0326 251.20688
1474.2218 246.85382
1482.0835 248.42664
1488.2273 243.51291
1496.375 248.08118
1493.3442 255.88474
1485.943 254.91602
1484.8387 264.1991
1477.0748 265.49167
1471.6307 271.70172
1463.3676 268.16806
1463.2129 275.11774
1471.7719 280.40997
1480.1969 284.89325
1489.8871 283.20786
1499.5961 285.74768
1509.7937 285.08948
1517.8682 289.99146
1515.3229 296.34265
1508.1042 297.55142
1500.9707 298.57687
1493.0376 298.85992
1487.043 293.5325
1481.2574 301.20023
1476.748 294.20886
1469.1956 298.78732
1469.7506 287.87015
1463.2295 282.89575
1457.2391 279.53714
1452.2661 275.7988
1445.963 276.54666
1444.1423 268.51038
1438.0122 275.44226
1429.483 270.4027
1416.2897 268.90646
1416.6448 258.53928
1403.181 262.36188
1406.0203 251.57736
1416.2286 243.59035
1425.8322 253.08571
1431.5356 261.56644
1439.6871 252.27979
1435.9404 244.96465
1426.5596 243.25542
1428.8779 235.08704
1429.6631 227.31482
1430.576 220.26524
1435.5812 214.21254
1441.0511 210.8273
1426.8812 213.19325
1421.1085 221.52979
1416.3142 214.03065
1408.3851 218.57928
1400.6678 214.76129
1391.8516 219.40886
1388.255 213.06993
1382.061 220.10597
1376.5173 216.59135
1373.9325 211.36552
1366.9319 214.63762
1360.2742 213.31248
1352.4126 214.62701
1344.7422 214.36089
1336.7374 214.15335
1329.412 213.2276
1326.281 218.93985
1325.134 227.11028
1325.3875 236.44614
1331.4087 233.25427
1333.7418 240.11406
1326.9083 244.55554
1326.3558 252.34174
1325.8706 260.50806
1332.0656 264.16168
1325.7788 269.07205
1326.7301 277.45395
1327.1926 284.69952
1328.6942 290.77716
1325.6066 296.27872
1327.0609 303.67407
1335.6444 302.81668
1334.3304 296.17545
1337.1595 288.05756
1343.9044 281.50247
1345.279 275.09393
1340.655 272.14084
1336.3096 279.67258
1333.0004 272.41415
1337.562 266.73105
1333.5198 256.62958
1335.3191 249.2947
1340.395 243.36676
1344.6987 250.21864
1342.5367 255.65558
1339.7866 260.5466
1343.7279 266.05026
1348.7308 263.12057
1350.7996 256.84854
1352.9407 250.09474
1348.1147 244.63788
1347.499 238.16153
1355.1635 242.07706
1358.0297 235.67966
1352.9502 231.858
1346.1492 231.01202
1339.8269 235.39386
1338.8129 228.68752
1331.5729 226.74623
1334.6222 221.45966
1341.4398 221.65475
1347.357 223.66528
1353.4829 223.36995
1360.3146 220.38428
1360.3732 227.31673
1365.549 231.80585
1368.6357 222.53526
1374.6155 229.40282
1384.5172 229.3213
1395.039 226.50893
1402.2491 230.45416
1411.4894 230.13281
1420.0522 231.5179
1404.0731 241.25179
1392.162 238.01114
1381.4365 241.84969
1372.5801 240.06737
1364.0327 238.70139
1364.9061 244.99153
1360.2576 249.02307
1360.0629 255.50943
1357.0985 261.8509
1355.7628 268.23026
1349.6313 269.73856
1351.6593 275.08224
1352.7 280.5935
1349.3236 286.1585
1344.6385 290.19794
1343.3632 296.222
1342.8278 302.98444
1339.9695 309.11765
1333.3307 310.7625
1326.2961 311.73846
1333.2776 319.7093
1326.0753 320.28223
1326.545 329.51566
1334.9606 327.64877
1342.2594 322.83438
1340.4536 315.96387
1346.1216 309.58868
1351.8599 310.62924
1348.1072 317.4707
1355.3762 318.56592
1357.9677 313.11502
1359.0718 305.81918
1364.8762 300.732
1365.8994 292.60904
1372.5958 287.78973
1382.1525 290.87534
1385.4646 299.00507
1395.73 297.662
1395.1296 287.5521
1387.5485 282.02768
1384.7983 274.6073
1382.4863 265.69025
1370.3822 266.69717
1375.6095 271.00797
1377.1808 280.08173
1369.3394 277.64322
1364.234 284.27112
1357.5793 297.8875
1353.3881 304.42572
1349.2728 300.4676
1353.8407 292.6861
1357.4684 286.07007
1357.5979 275.7121
1363.1766 276.0782
1362.8674 268.2507
1367.0352 259.84943
1370.5406 251.01956
1378.7863 255.66125
1391.9338 249.34048
1389.9626 258.95636
1393.9565 268.5162
1398.1917 276.98328
1407.5186 277.1857
1417.358 281.6009
1427.3337 280.26157
1436.6248 285.0982
1445.0496 283.5246
1453.28 285.2514
1447.1199 291.8389
1439.6118 296.37863
1438.1644 306.72983
1447.1132 303.68454
1454.5659 296.69928
1461.2819 291.2249
1460.7609 303.39136
1459.2445 320.9671
1443.0103 325.85355
1443.1494 315.97293
1426.2015 304.5654
1428.07 293.03616
1416.2595 295.49088
1405.8024 292.21454
1407.1073 308.0249
1418.2797 315.82712
1429.6582 315.52518
1425.852 325.46213
1413.56 330.205
1401.1412 333.35715
1401.2155 323.7485
1381.5751 313.26184
1374.0137 299.0981
1370.9938 307.3157
1363.9694 311.3965
1371.5082 315.47046
1365.0055 320.9679
1372.8135 323.7424
1376.3906 330.02472
1374.3812 338.97635
1364.7878 332.3076
1358.639 325.53998
1353.0957 333.49854
1350.4785 325.69525
1343.3411 330.42538
1342.4346 337.94482
1333.4591 335.8834
1326.0752 339.858
1333.6731 344.905
1326.019 349.61588
1326.3262 357.7602
1326.6335 364.33887
1326.7059 370.97873
1334.1511 366.7274
1334.8043 359.91635
1333.1315 353.04578
1344.0083 345.57706
1355.8148 341.08783
1358.4824 348.87524
1349.3904 354.40848
1340.9668 353.20422
1342.4044 362.17596
1344.4159 370.79865
1338.3323 371.54843
1333.5862 375.57098
1325.4425 378.27753
1325.836 387.56027
1331.5004 381.97995
1341.6548 379.82303
1347.3065 387.18063
1350.5864 376.84048
1350.441 364.82635
1362.3384 365.98923
1363.3319 384.15662
1348.4379 397.91595
1340.1433 394.20593
1336.558 387.15454
1329.1599 393.9136
1325.7876 401.54785
1333.9138 400.93585
1335.3553 409.11392
1338.4172 417.5784
1331.0605 416.23807
1326.0908 410.4675
1325.0034 420.71988
1330.8245 424.76025
1337.4021 427.26318
1335.3523 434.86316
1326.197 431.2707
1325.9031 440.28113
1325.4141 450.45602
1332.2421 452.6093
1333.4626 461.65674
1325.7217 460.837
1326.3805 469.56805
1326.4779 477.23907
1325.7834 483.50027
1327.1625 489.16608
1324.7513 495.0397
1330.5487 496.07687
1336.1179 498.89264
1342.8214 496.91412
1349.4388 493.53793
1358.2205 491.1956
1354.2003 483.32852
1353.3953 474.14572
1344.5034 473.66446
1344.358 485.833
1336.9402 490.68176
1334.4218 483.13242
1340.9304 479.00638
1334.2561 473.50394
1338.6293 467.26126
1347.5355 466.4076
1354.3578 462.9493
1348.759 454.17154
1342.5822 460.32233
1339.9558 452.9216
1332.7551 443.3289
1340.4924 443.79446
1348.5564 443.8934
1345.4001 433.47345
1343.2603 424.0785
1348.7839 420.8542
1345.8922 411.61545
1342.2162 403.78754
1362.2198 402.0428
1379.0305 389.73892
1395.7034 377.59137
1377.6786 376.1455
1377.6127 363.1413
1377.0862 350.565
1388.6582 337.83014
1402.7457 341.3275
1400.6378 350.4842
1401.2665 360.6211
1414.805 362.53757
1413.4618 347.35144
1425.508 339.7034
1430.3911 332.49225
1442.1285 335.12042
1452.7913 338.572
1468.097 338.61517
1484.8474 324.31628
1488.9165 342.31363
1478.8845 362.70535
1491.9014 381.8316
1518.0918 396.07498
1528.1742 390.10333
1520.1707 384.77487
1519.0095 375.52255
1529.0686 377.98337
1535.9258 383.6547
1544.1985 379.80322
1543.8137 387.67627
1553.0889 386.91995
1560.05 381.18842
1564.3425 386.6658
1561.6906 393.98376
1570.6704 392.71588
1579.4172 396.9356
1578.743 388.2858
1586.0007 391.2044
1590.1558 396.65506
1591.3455 404.3385
1584.0447 404.411
1575.9917 404.63135
1570.1534 409.31195
1574.7402 416.4557
1567.7244 415.88495
1564.0454 421.35983
1562.1698 427.90152
1558.0322 432.97443
1567.2708 438.63397
1558.207 439.64462
1552.45 445.38052
1550.0688 439.0832
1544.3483 443.1623
1546.749 449.75406
1544.5796 455.1296
1548.8591 457.22256
1546.8822 461.73038
1546.3591 465.81113
1552.1014 467.1188
1545.4275 470.61234
1541.4565 466.29092
1537.7656 469.31638
1538.9713 474.52637
1545.6785 476.14746
1549.9277 473.9877
1553.8943 472.2195
1557.3403 475.14276
1561.8671 473.49847
1567.286 470.44272
1572.923 465.58197
1579.8223 468.22073
1583.3516 462.16214
1580.9242 457.0762
1575.0984 456.91516
1568.8258 456.8262
1564.9471 462.95074
1558.8691 467.77173
1558.357 461.05957
1552.8756 461.6304
1553.7747 455.218
1561.4994 454.8113
1556.1289 450.13376
1561.5188 445.58615
1567.3749 449.20547
1573.2053 445.8732
1580.4487 450.6454
1586.7668 455.33716
1590.4204 461.2939
1596.8574 463.269
1596.6025 470.43063
1603.1329 476.5436
1596.1426 478.92743
1594.073 486.03064
1597.6385 493.81918
1588.5154 492.50925
1581.0244 491.48367
1579.1057 497.84714
1572.4435 492.96573
1568.7859 485.1044
1577.3668 484.7791
1586.47 483.1923
1589.1162 474.73993
1588.2712 467.75473
1581.3202 476.62598
1574.5183 475.68774
1569.5635 478.53912
1563.8774 478.84436
1560.8882 483.36426
1554.687 479.5851
1548.9817 481.49402
1548.7405 487.8371
1555.7699 486.28668
1552.9269 492.5168
1557.4395 497.5969
1560.435 491.93015
1565.9288 491.4448
1572.5181 501.46567
1565.7422 499.86038
1559.5729 504.21964
1565.7905 508.43552
1565.7261 516.0781
1558.5022 513.74915
1553.7375 508.4126
1549.5669 513.98505
1550.4407 521.56573
1556.9172 520.7131
1562.8684 524.25226
1557.0612 528.73584
1550.2574 528.93536
1544.0992 525.36975
1542.9027 518.4869
1533.2462 514.295
1536.4478 506.46823
1541.8921 511.73068
1546.1572 506.15115
1541.4153 500.57288
1551.5597 501.25247
1547.2794 496.02167
1541.9521 492.59418
1542.6495 486.03967
1542.3787 480.11493
1535.8163 481.2321
1531.689 475.50793
1532.7012 469.21085
1526.7057 467.3628
1522.6196 473.46445
1518.6829 464.3106
1524.2583 458.19897
1513.8942 454.97736
1520.1129 446.2013
1519.0 435.42007
1529.531 443.29547
1528.7095 451.3114
1533.2678 457.73074
1534.5547 463.41568
1540.8792 460.2133
1538.4309 453.38373
1537.1821 447.18378
1537.4119 439.03217
1544.0142 433.9657
1550.9467 431.6699
1546.9398 426.06573
1549.0405 419.08487
1555.5532 424.0436
1558.5342 417.0806
1553.6287 412.26746
1546.6389 411.61652
1540.5834 416.6832
1540.6122 424.2604
1532.9679 422.1289
1536.0358 430.53485
1529.4888 435.44305
1524.7184 428.03152
1522.1777 419.7347
1528.9592 413.59958
1535.2001 410.2876
1540.603 406.25424
1547.2554 403.28595
1553.2688 403.78033
1558.5662 407.57904
1562.6456 411.40286
1565.6072 403.68677
1570.6437 399.6144
1559.6732 401.05457
1554.4327 395.4222
1547.3123 394.51843
1540.6187 398.56833
1535.9536 393.0259
1530.5554 401.46332
1521.035 406.5048
1512.3356 412.0199
1510.1815 423.11676
1479.0021 414.20767
1473.0659 395.2575
1460.7754 377.64163
1450.5098 395.1681
1449.3821 413.66028
1460.8314 427.8213
1449.965 438.44858
1458.4298 444.95007
1451.3948 448.87933
1443.8981 447.29514
1436.8181 441.7771
1427.8291 432.04575
1440.357 428.2348
1431.015 416.37408
1436.981 404.0536
1431.5588 392.23975
1438.4277 381.8699
1443.9802 370.57562
1457.6042 357.5548
1443.362 355.59155
1441.7264 344.68854
1427.1445 351.43372
1430.2822 363.50827
1425.7611 374.70023
1409.4142 377.54144
1418.4587 387.6758
1404.4677 395.10754
1420.1001 402.5024
1407.1418 411.70264
1415.7833 422.8687
1401.5496 425.022
1393.6412 433.12054
1389.5322 425.2756
1393.1927 413.0682
1381.864 414.49472
1379.239 402.74417
1364.4102 418.156
1363.4983 435.18835
1380.63 425.9007
1382.5094 436.6475
1395.8887 447.1026
1383.1155 457.38553
1367.2034 452.99503
1373.1079 468.56656
1375.3602 478.38287
1378.3885 489.33084
1368.0112 486.9459
1363.7626 498.10294
1372.6674 498.8799
1380.6797 500.24213
1388.7485 506.46436
1390.4308 496.47678
1389.9818 487.7987
1386.4734 479.2258
1386.9358 468.6581
1396.4224 460.36148
1401.525 471.5305
1400.8455 481.93134
1400.8014 493.79803
1409.4884 501.1251
1399.2582 503.66965
1391.2078 517.0291
1396.1285 525.2578
1401.1216 533.47186
1399.6948 542.03613
1406.3276 548.50696
1409.4569 556.857
1400.6986 562.2711
1406.4567 567.28784
1410.3514 573.1061
1415.0774 564.24274
1422.6865 560.7394
1420.1213 552.02234
1430.2316 544.1381
1432.3956 550.15173
1429.788 557.3168
1437.3213 554.494
1442.784 553.99396
1445.0195 559.5576
1448.6807 555.31683
1455.0951 564.6014
1453.9645 559.15466
1454.2794 553.6412
1447.6337 549.09106
1440.8096 546.27673
1439.2555 538.6527
1431.9453 533.29895
1438.3204 526.3318
1431.619 519.13916
1441.1927 514.2917
1431.9923 506.31613
1439.553 500.25577
1449.4618 497.2736
1453.8263 486.44095
1458.5217 495.73135
1457.8048 504.91733
1449.5498 507.37946
1456.765 523.9852
1449.2942 524.221
1446.0433 532.891
1463.9548 530.93567
1455.7625 535.5657
1449.3282 541.3949
1454.1146 548.45496
1458.7505 546.0563
1461.0651 554.1031
1462.0707 562.74506
1461.3384 570.1235
1457.1554 575.66327
1452.619 571.3274
1448.8672 567.3502
1444.9314 564.3567
1437.5437 561.95746
1435.0485 568.17035
1441.7495 570.48145
1436.8295 576.4196
1429.3959 574.89075
1428.6552 567.05176
1421.714 569.9818
1416.3162 575.45575
1409.9856 580.5184
1403.2416 576.9655
1398.1064 571.5882
1394.9204 578.89
1389.0178 571.78973
1383.765 575.4286
1382.6699 562.64233
1391.5458 565.13763
1392.9381 557.85645
1397.9598 551.4625
1387.1649 551.51154
1381.4905 544.8509
1376.8126 537.9721
1389.5688 536.9203
1381.8906 529.0332
1376.4897 521.0407
1380.1517 512.28455
1371.0908 508.6147
1364.7731 515.6641
1365.2196 523.12274
1369.9161 529.7844
1360.8429 531.4823
1360.0555 538.46643
1353.8157 532.1483
1357.0392 523.7143
1347.4285 531.27435
1342.8185 536.77997
1348.2966 540.2789
1342.4717 542.5984
1336.739 542.46265
1330.0438 540.2221
1335.398 536.07764
1340.3345 531.9568
1340.7344 525.96796
1345.7826 523.9822
1349.7272 519.8385
1355.0889 513.81384
1360.8389 507.5094
1354.8157 501.75906
1347.4357 505.35776
1340.006 504.90186
1336.401 510.68115
1331.5923 504.73737
1325.2637 502.21747
1325.8811 509.5637
1325.1364 516.6605
1331.4779 515.005
1344.7378 512.82227
1339.9292 518.0462
1334.2448 521.7849
1326.8499 522.9068
1334.8616 528.2851
1329.6656 531.783
1324.8989 528.9634
1324.9423 537.3839
1325.8396 545.66205
1333.1173 547.6038
1330.736 553.4542
1325.0367 552.78613
1324.5459 560.5624
1329.993 559.16675
1336.2946 559.8814
1337.9026 553.9474
1340.5935 549.17865
1342.5795 559.2326
1348.9757 563.4893
1347.2714 555.5893
1352.4672 551.1061
1346.6106 547.7728
1353.8447 540.7082
1357.0588 546.11145
1363.6129 544.56384
1368.1437 537.938
1370.5176 548.0469
1376.9895 554.8595
1371.9386 562.94727
1365.7301 557.6124
1360.7504 552.02856
1356.2816 558.7582
1356.7864 565.4769
1352.3717 570.93787
1358.7349 573.0934
1363.572 566.68353
1368.4825 571.52985
1376.9651 569.9583
1377.0432 578.0643
1370.7878 578.0365
1364.4133 577.5659
1359.782 580.2974
1354.9677 578.36273
1348.8538 576.26526
1345.9707 570.42896
1341.3988 565.6686
1334.9673 566.03107
1329.0159 564.71844
1325.7921 568.5785
1326.0059 574.37115
1325.6965 580.36304
1325.8693 586.7004
1331.7151 585.0294
1332.4756 578.27264
1333.2566 572.02344
1339.6052 572.5919
1338.6444 580.1109
1337.6854 585.88544
1343.7794 585.4591
1343.7809 577.81885
1350.9888 580.9522
1348.7722 585.2694
1355.5128 586.12054
1362.023 586.05426
1367.5681 584.5358
1373.3739 585.80475
1379.9358 584.7429
1386.8586 581.3737
1386.5916 587.31555
1393.0061 585.39154
1399.3418 585.59216
1404.0195 583.76654
1408.4802 586.627
1414.3761 588.27185
1415.8843 583.1828
1420.5585 585.69226
1425.5417 585.34344
1422.3922 578.1836
1429.6044 580.871
1432.3186 586.2883
1439.0781 583.9343
1447.0642 585.2569
1445.4116 576.2959
1451.5568 579.7875
1457.3967 585.5633
1466.9186 586.1429
1472.2242 582.1301
1463.114 579.70935
1467.8444 574.5205
1469.1189 567.7691
1477.3145 566.9945
1482.8611 571.6189
1475.9015 575.24927
1479.1785 584.1107
1487.2977 586.65424
1486.4832 579.18896
1495.0181 577.7142
1496.284 584.9318
1502.7864 579.4495
1507.3988 584.0973
1514.3599 586.67896
1512.2468 578.4223
1520.467 576.0281
1524.9933 568.1772
1517.3242 570.4096
1508.6143 571.97003
1500.8451 572.0581
1504.7339 565.0256
1502.496 558.25055
1507.1818 552.9829
1499.5806 548.8124
1493.4827 554.13837
1494.2068 560.3857
1495.744 566.8781
1490.2368 571.5351
1486.3203 562.86053
1484.5157 553.58154
1478.242 558.60077
1471.7614 561.3206
1467.4359 557.3133
1468.91 550.77124
1463.817 543.75543
1471.2573 543.01917
1476.8412 549.6646
1479.585 541.05286
1485.4521 544.37177
1491.5905 547.6419
1493.9971 540.4278
1502.7172 539.57043
1505.8496 545.7662
1511.738 544.04193
1514.2925 551.1798
1512.897 558.017
1513.4387 564.5203
1520.6948 559.38025
1532.2339 565.6485
1537.8053 573.33594
1539.8496 583.15173
1549.2202 581.98224
1559.0131 586.24384
1569.153 583.7718
1572.7222 575.5681
1580.2225 574.40625
1586.0604 570.72046
1579.2943 584.34094
1590.0042 584.4761
1593.3922 577.03894
1600.0005 569.6982
1602.5444 577.565
1602.762 585.1807
1614.8613 586.00653
1613.1587 579.7186
1608.6559 572.5786
1606.425 563.45734
1604.415 554.77234
1598.415 549.1816
1606.1356 545.70966
1601.1847 540.5488
1595.595 536.1476
1588.0559 538.72205
1589.6855 530.4607
1581.8606 530.3638
1586.72 523.8083
1590.9197 517.5244
1592.529 509.01108
1583.5244 511.48718
1581.025 518.4299
1577.3165 524.8147
1574.1826 532.43176
1574.2725 539.5334
1565.6519 540.112
1570.6605 545.7043
1577.0651 548.1992
1582.7341 544.1232
1581.385 536.91956
1592.5417 544.5242
1587.0065 550.47125
1580.3635 554.9511
1594.3851 555.08484
1598.2318 561.7061
1592.255 566.8484
1588.5144 558.94434
1582.5349 562.86176
1575.5588 563.32117
1569.9745 567.4143
1571.7992 554.484
1564.7739 548.46344
1558.3287 546.3576
1549.5542 547.1489
1545.1305 543.4791
1542.4705 539.5978
1537.1511 539.6713
1534.1 542.11896
1537.3142 547.42535
1543.1741 548.24255
1541.8489 553.91
1548.6871 556.46686
1553.5317 551.0864
1560.1669 554.28235
1565.861 559.62476
1555.4796 561.14795
1560.6533 567.5429
1565.1271 574.31335
1558.6122 578.17206
1551.5509 571.2524
1545.8151 565.70764
1539.7166 561.3561
1535.0293 555.5968
1530.0288 552.3259
1527.0889 557.6566
1521.2848 551.53815
1519.076 545.27747
1525.143 545.7898
1530.9329 546.5632
1528.8505 539.3219
1528.1512 531.2642
1522.5742 529.8619
1522.8204 537.2408
1517.2296 539.7014
1514.8763 533.0463
1509.5918 525.62866
1506.6003 517.86395
1499.7731 513.0403
1499.6041 503.59442
1489.6394 501.04022
1488.4142 490.325
1481.6246 484.65372
1479.8429 495.52582
1468.3954 500.0266
1472.9478 489.1456
1464.3248 482.30893
1473.5093 480.50818
1473.4691 472.0422
1464.5941 473.16522
1457.6128 466.05347
1453.7949 474.9607
1443.3617 476.26904
1444.7186 488.3807
1435.8604 488.05392
1427.0476 494.1158
1420.8984 501.06915
1416.4528 492.55066
1408.9807 488.15555
1411.1826 475.543
1418.2047 481.4858
1427.1742 483.76495
1432.4912 475.0573
1422.2555 470.75522
1430.6449 459.68484
1420.6228 457.16125
1411.1462 460.98227
1405.7246 452.53845
1413.2441 444.21902
1423.843 445.66495
1431.33 449.2961
1438.939 454.73114
1441.1626 463.0532
1449.281 458.42325
1458.3395 455.9599
1465.8171 455.43304
1468.1354 464.24048
1477.0604 463.4913
1486.953 461.93906
1484.2612 469.6937
1480.0637 475.64194
1487.1204 479.03647
1492.7651 474.01678
1501.3618 472.36246
1497.312 464.99478
1496.6063 456.8469
1499.269 448.07648
1488.8087 451.13037
1480.6221 453.4111
1473.1116 453.21756
1466.2937 443.59448
1474.8138 439.57672
1485.3138 439.8377
1494.7776 432.84937
1508.0806 436.32397
1508.1057 445.64603
1507.3628 463.83914
1514.3887 472.53055
1508.3214 477.98148
1501.6018 481.63168
1494.6979 485.1142
1501.001 491.31082
1506.9008 496.007
1510.6509 503.70294
1514.245 510.02032
1520.7346 501.7064
1516.2037 495.00986
1512.5306 486.8862
1518.4468 480.3993
1522.066 487.1763
1524.1288 494.59644
1529.5513 490.54633
1527.4598 481.3561
1535.5072 487.57047
1535.6558 495.46994
1530.9059 500.82776
1526.2031 506.74686
1522.899 512.11224
1516.3428 517.98193
1518.5011 525.26373
1524.3474 518.76843
1528.7723 523.4529
1536.0272 522.6283
1537.5486 529.1198
1532.9922 533.26196
1538.372 535.237
1543.666 531.8722
1547.153 535.56696
1553.1053 535.10596
1550.2725 540.7712
1557.1024 541.0025
1559.9061 535.30927
1565.7377 532.66644
1569.4261 527.8074
1569.9644 521.89246
1574.169 516.41547
1573.8108 509.38803
1579.7361 505.06174
1586.2639 502.06454
1593.2489 500.92453
1600.209 501.1612
1609.5177 498.39145
1605.6699 502.6386
1603.0419 509.16107
1607.4314 516.8116
1599.0145 514.9752
1597.3093 522.35095
1597.9253 529.26624
1604.5078 523.53107
1610.5587 525.9231
1605.5309 533.3005
1612.089 540.82544
1612.8668 549.372
1613.4332 557.38293
1620.62 552.24554
1627.9335 556.23285
1633.1353 564.202
1627.8167 568.6797
1622.6328 562.4323
1614.3196 564.7468
1617.28 570.8472
1621.7927 574.36835
1623.8794 580.00555
1622.7625 585.52216
1629.6631 586.3892
1635.6294 585.37885
1640.5745 586.3374
1645.7728 586.942
1640.2866 580.68555
1632.2231 580.4321
1628.6497 575.35443
1634.5186 573.22925
1639.9823 575.4321
1640.535 570.2679
1640.1143 564.29114
1645.573 565.9991
1647.0176 570.8853
1645.7041 576.756
1646.2222 581.70575
1650.5007 583.92267
1653.9268 587.07184
1657.3706 583.5058
1662.104 586.3365
1667.3271 584.29865
1673.5535 585.1731
1679.6683 586.0457
1685.2468 585.0057
1690.8164 587.0865
1696.3732 585.65497
1702.8534 584.2861
1710.5513 584.1
1718.2927 585.6401
1727.045 585.15234
1734.8794 585.3324
1742.5504 586.5417
1742.1818 580.2921
1735.115 576.9696
1727.698 577.05054
1720.7958 579.1547
1716.3013 575.52576
1709.2242 575.6415
1697.111 578.1054
1690.136 581.27795
1684.5818 577.4208
1690.9688 573.3284
1696.7825 569.4429
1703.3755 573.31055
1714.7621 568.42505
1709.27 565.118
1701.5315 564.18274
1704.2982 557.06104
1711.3301 557.27576
1718.3665 559.59467
1724.8363 554.33875
1732.3229 551.7904
1728.3623 561.5139
1721.7898 568.1011
1729.2673 569.7264
1736.7429 567.3986
1741.5732 573.4242
1745.8221 566.983
1738.7754 559.2733
1749.1418 560.0718
1748.3062 552.9182
1758.9736 554.35095
1755.6682 547.3933
1747.8965 543.3769
1740.4585 549.82135
1736.3163 542.11346
1734.1876 533.91266
1725.2021 534.027
1726.405 541.6997
1723.2789 547.1752
1718.2981 550.57153
1714.6747 542.326
1712.9052 549.9107
1707.1855 548.84424
1704.1381 542.3336
1700.3284 549.13214
1694.7076 546.7597
1689.0608 553.8352
1696.9453 555.8032
1693.293 561.01886
1689.4728 565.3466
1683.6316 561.6081
1683.913 569.5318
1678.6656 580.05225
1677.4988 574.17053
1675.3113 568.8387
1675.8569 562.9735
1668.827 564.2679
1665.2607 568.1116
1661.124 572.07153
1668.989 572.61786
1670.6765 578.2475
1661.8208 578.2632
1654.0144 578.2771
1651.0598 573.9098
1655.8945 569.8927
1651.5823 565.87854
1653.7363 560.46295
1660.911 563.62274
1657.971 557.6495
1662.0078 554.3911
1667.8434 556.84424
1673.9171 557.23065
1680.396 556.30853
1681.8801 550.4132
1673.519 550.26514
1674.3677 542.75714
1669.5671 536.9631
1676.375 534.1209
1669.116 529.8435
1669.0442 524.04645
1671.2725 518.3453
1664.2776 515.5847
1667.6592 510.7146
1662.2725 506.267
1669.1997 502.71252
1673.293 509.64728
1675.5507 502.65234
1680.9912 498.27274
1680.6167 490.8983
1675.9392 495.8512
1670.6279 493.4086
1664.8887 496.36407
1658.525 499.48914
1654.366 504.29034
1654.6992 511.1845
1657.4032 515.8252
1663.0513 522.14087
1656.6714 521.726
1651.7747 524.2933
1658.7826 528.73346
1661.1824 534.19415
1662.282 541.0318
1667.6906 544.91846
1663.6418 549.3296
1654.1206 543.03357
1653.1807 551.5468
1645.7864 554.44116
1646.5214 560.2735
1637.99 557.6806
1636.2295 550.34705
1643.4768 547.786
1644.7251 540.0322
1650.9866 533.8262
1646.5927 527.10474
1640.246 524.61
1641.0577 532.6839
1635.6609 539.8703
1632.5018 530.6316
1625.6409 524.70734
1623.1588 529.80804
1625.1842 534.37946
1628.3336 539.235
1628.9614 547.2113
1621.1272 544.18207
1618.8955 537.3143
1613.8994 532.66797
1617.9812 526.2225
1614.6003 519.71216
1621.0715 518.49805
1618.6244 511.91022
1612.1687 512.1779
1611.4641 505.7778
1618.6722 504.46957
1626.9681 503.3415
1625.3583 511.20975
1633.6946 507.83514
1632.2963 514.29
1627.6604 519.11804
1633.7446 522.4721
1639.0381 516.3688
1647.7614 518.3972
1644.1587 512.83185
1640.6558 505.98895
1648.2474 508.1858
1648.4524 500.64078
1642.7611 497.25305
1634.4424 499.22153
1632.6821 491.6114
1640.6481 490.8128
1635.3054 484.6809
1630.5127 479.71646
1633.6823 472.1132
1641.0332 469.9734
1646.2863 465.24182
1641.5468 458.8393
1636.0287 463.75247
1627.3602 463.76776
1631.0966 456.02344
1628.9501 447.843
1622.0892 446.21268
1624.1625 440.10086
1630.3492 438.248
1636.9814 439.3984
1637.3843 449.33917
1646.3114 444.24802
1653.4714 449.16922
1659.6925 443.66388
1661.3326 436.6535
1667.7257 433.12802
1675.2793 432.6325
1675.5608 425.2667
1670.8678 418.74664
1664.9923 426.691
1657.6996 423.15
1663.6571 416.68808
1653.8293 416.25284
1658.0376 408.3354
1666.6426 407.5902
1674.4314 408.78848
1660.0059 399.34528
1664.2004 393.4168
1658.0304 387.71417
1664.162 379.71198
1673.089 381.5047
1673.8293 374.99203
1668.0132 371.57794
1672.8723 365.42703
1679.697 370.24872
1686.1582 374.4995
1689.3958 381.35736
1697.4468 379.4748
1696.9928 370.28354
1689.6976 367.1243
1681.4639 361.54654
1674.5565 357.53662
1677.8698 350.1398
1686.7993 351.21802
1688.4683 359.33615
1695.4778 356.3043
1701.0166 362.10083
1707.4907 354.85898
1715.626 347.8411
1706.8059 346.02966
1698.0421 348.3574
1691.6642 342.53964
1682.9274 343.22437
1676.0967 339.93088
1668.8452 342.3609
1660.9252 342.91022
1669.1467 350.59778
1665.9015 360.33533
1660.5596 353.15472
1652.2955 348.62534
1642.1326 348.2855
1634.9639 342.1723
1631.8191 352.39264
1631.9077 362.8803
1623.9093 363.03513
1620.7451 351.56976
1615.0775 360.06635
1618.7656 370.12994
1628.6578 373.00797
1635.9122 379.02737
1640.8351 372.3754
1649.2922 369.44296
1640.2848 360.92087
1648.473 357.4834
1656.3112 361.97858
1661.6018 368.73804
1655.5736 376.10602
1650.2567 384.45605
1642.6417 385.0533
1644.4425 394.73242
1651.3937 399.51108
1647.8002 409.04556
1639.1887 404.16278
1635.1924 396.44717
1634.631 388.06058
1627.0808 383.28717
1619.9478 380.43466
1610.5471 383.38635
1613.2264 376.15768
1609.0686 369.8782
1605.9762 362.51028
1597.5319 361.61642
1596.6561 369.87653
1602.7468 375.4465
1601.6248 383.2848
1605.5172 390.64594
1610.7184 397.0814
1617.4597 390.28717
1626.1337 392.32013
1627.7102 400.057
1628.7098 406.6472
1632.829 412.5413
1640.1105 413.49155
1645.0662 419.68393
1649.0944 426.42383
1654.9258 431.6185
1652.9965 439.65112
1644.6855 435.8144
1640.3765 428.3135
1632.7433 430.27686
1636.0066 421.6704
1629.9927 419.09708
1624.2283 417.28317
1622.1975 410.1481
1618.7874 401.06976
1612.3589 408.26532
1616.0679 414.65475
1617.5226 421.3367
1622.2874 426.01505
1627.9115 424.8002
1625.2037 432.39795
1616.8997 429.7041
1619.0814 435.9449
1615.7662 442.34866
1616.9263 450.32678
1610.9719 454.8638
1620.6475 457.5347
1618.5363 467.75137
1625.724 472.24847
1619.9148 478.63547
1617.0007 487.04932
1625.6626 486.39624
1626.3004 494.17957
1621.3389 497.51575
1615.3447 495.66843
1607.5713 491.8868
1601.7933 486.6179
1608.7998 482.81592
1611.5938 474.61325
1604.615 468.63593
1611.3251 463.83212
1604.1433 461.14972
1604.3121 454.25452
1609.6177 444.96616
1604.1682 447.41824
1598.5665 455.9985
1593.3062 455.70215
1590.1179 450.4226
1597.8608 448.90933
1593.2795 444.15527
1586.5216 445.32785
1580.5082 444.04022
1578.2645 438.22607
1575.4473 431.71497
1568.3694 431.0286
1571.472 423.7957
1579.4736 422.68246
1579.1919 411.40353
1585.7253 414.6552
1592.9171 412.5445
1596.6858 418.7324
1594.4402 425.85272
1587.3875 422.91135
1583.3254 430.9428
1588.5255 438.53702
1591.0875 432.32837
1599.1628 432.79803
1599.2651 440.62393
1605.8014 437.6973
1612.423 436.048
1607.302 430.55048
1602.5896 424.52036
1611.619 425.58884
1608.9636 418.84274
1603.7638 413.63696
1598.6846 406.94797
1605.6385 403.88455
1599.3086 397.2143
1594.7954 388.30273
1593.4573 378.62753
1585.9384 383.10245
1577.4375 378.27957
1571.6079 383.89206
1568.6261 374.01437
1564.4978 364.71237
1578.4888 369.04138
1585.8428 374.3681
1587.5457 366.11395
1574.2721 363.0662
1571.875 355.67856
1564.8966 355.4239
1558.6938 356.03992
1552.7802 358.61975
1555.4526 365.7955
1559.1675 372.72592
1552.2036 377.8858
1547.553 372.0983
1547.5614 364.12384
1546.9436 354.0466
1540.926 356.02243
1532.8079 351.4443
1540.8483 347.68768
1539.4696 340.00098
1532.457 342.664
1524.9073 344.619
1521.1233 352.58438
1526.4708 358.8776
1534.4036 359.84833
1540.4802 363.25873
1540.6094 369.62036
1536.957 375.0139
1532.9591 367.87305
1526.1613 368.396
1519.3705 365.8707
1512.3594 362.84488
1503.2087 354.018
1514.8068 342.65048
1515.2854 331.64316
1513.6045 321.70447
1521.8668 315.07788
1514.3978 311.10806
1518.3489 302.6028
1524.8918 306.47083
1530.9172 311.36255
1533.49 305.0611
1538.6719 302.1156
1531.9729 295.94656
1525.8129 298.62418
1524.7526 290.8509
1530.7052 287.9841
1535.5641 281.96344
1535.6304 274.37207
1529.6234 277.58514
1526.9739 283.18018
1520.2358 282.1323
1516.3467 276.28046
1524.9558 273.5341
1531.0015 267.2633
1524.2483 266.23822
1524.9791 257.55164
1519.0547 261.11145
1517.8103 268.18503
1510.9758 270.11746
1505.9043 276.5553
1497.069 275.05435
1480.5101 275.62656
1488.7493 272.6352
1493.9078 264.68387
1502.1282 267.3751
1508.9542 263.01138
1501.0171 258.73654
1505.1195 252.78874
1505.8341 244.79982
1512.5602 249.2461
1512.9202 257.30643
1519.1425 252.88997
1530.589 251.46968
1527.3671 243.35146
1529.1096 238.09702
1523.3348 248.20532
1515.5667 243.12315
1521.1283 239.70361
1523.8915 233.14435
1520.4819 228.08113
1530.0042 227.66786
1531.1355 232.72151
1536.1414 236.17256
1541.3685 241.23283
1535.0002 244.77008
1539.3541 251.66772
1531.2335 259.43768
1539.0244 259.93558
1548.6544 256.0007
1548.1974 247.99966
1548.4968 238.7903
1555.9473 238.89188
1558.3907 249.53989
1565.5272 256.99258
1556.5618 261.03998
1548.6415 263.63242
1538.2361 267.72684
1545.0948 268.78616
1549.3892 273.2391
1542.4058 276.66263
1541.6222 284.19403
1536.3301 289.38278
1542.3219 291.2058
1538.8629 295.9654
1545.0698 301.67334
1541.0837 309.81952
1538.0986 317.33408
1529.7388 318.43536
1524.1008 325.1287
1525.3838 334.81384
1533.8977 333.99118
1533.7325 325.91663
1542.8716 324.6526
1541.5499 331.86972
1546.2043 339.37222
1549.17 344.8803
1552.3309 350.40903
1558.967 348.5156
1567.3691 346.90344
1571.2411 339.24124
1572.0088 331.504
1578.9934 331.29318
1585.5349 334.93625
1581.7781 341.7392
1576.7136 348.02332
1581.8708 355.90598
1590.0035 357.69595
1590.5148 347.49728
1593.867 335.96924
1600.6227 353.00015
1610.2437 349.92126
1601.678 342.60397
1611.4545 337.1556
1619.0249 340.1368
1626.5433 342.8712
1635.566 334.91678
1644.7444 337.06104
1653.0917 338.86206
1651.6274 328.8729
1660.5382 331.39743
1669.0588 333.836
1671.0342 325.7953
1665.6808 320.69193
1657.2745 321.82745
1646.2858 323.80392
1643.0344 315.2216
1639.1199 321.1975
1639.4648 329.14124
1632.7994 322.69366
1625.3934 322.22363
1628.2078 331.56516
1619.1375 329.34085
1617.2163 319.2581
1609.3881 324.46268
1603.933 332.30374
1598.7385 324.87582
1589.0447 327.07758
1591.3091 318.59592
1590.2761 309.9406
1583.734 314.93076
1577.2046 315.20807
1582.5901 322.79346
1575.4769 323.333
1567.5482 323.92175
1559.73 326.42316
1564.2657 331.64203
1562.7205 338.61716
1558.2776 343.10712
1554.1993 338.64145
1556.2452 332.49057
1548.711 333.57
1550.8976 327.61517
1551.8693 321.76227
1546.5098 317.3644
1548.7231 309.96484
1551.8214 304.44205
1550.2529 298.5879
1547.314 293.66327
1547.4957 286.85654
1548.6571 280.8791
1554.1176 277.46735
1556.3741 283.25208
1560.4966 278.1072
1566.0702 277.60327
1570.3755 272.8328
1556.1558 270.56717
1563.043 267.83508
1571.0629 264.5389
1577.8706 258.3932
1571.9309 248.55199
1567.2623 239.38322
1581.0925 239.83447
1584.1462 250.1081
1593.8175 253.90152
1596.6057 242.95168
1607.036 248.69858
1605.7273 258.19965
1615.5339 256.19577
1623.2744 261.9031
1631.3074 256.54608
1634.3342 265.58008
1643.9705 260.73257
1644.7494 250.24915
1652.3303 245.39194
1654.8845 235.42992
1662.3724 231.03091
1654.9977 225.06798
1647.0319 221.7598
1650.3972 213.91379
1660.4436 215.0766
1665.1323 223.22481
1673.1704 225.70273
1670.2151 232.69742
1661.7412 239.44464
1661.4211 247.14293
1658.26 256.06628
1655.2142 265.18512
1656.2333 276.6584
1645.9624 273.1031
1647.1304 285.59213
1638.0302 282.8331
1635.1067 274.3798
1624.6932 271.78107
1614.9426 267.8186
1626.4365 282.3631
1633.724 291.00092
1641.692 296.31277
1626.2534 294.5693
1617.1488 295.34634
1616.4678 287.6893
1616.9983 278.2269
1608.9316 280.66132
1606.8363 268.79788
1598.7201 263.25146
1593.5254 268.9767
1586.4843 263.906
1579.2574 269.5808
1578.6584 277.5255
1572.7382 281.3565
1567.1143 284.15207
1562.8773 287.13483
1558.2561 289.32397
1552.7836 287.87796
1553.1542 292.99216
1555.9309 296.17438
1556.5931 300.5478
1560.8193 302.5733
1562.5597 308.12964
1556.7864 308.99338
1554.4326 314.8616
1558.337 320.9246
1562.0546 316.99316
1565.8428 313.21704
1570.8278 317.60565
1572.5581 310.25873
1568.1432 305.52292
1566.6113 298.5614
1561.4354 294.59018
1568.5126 291.00323
1575.8542 288.06674
1573.7747 295.6864
1574.9625 302.26523
1580.2289 307.53152
1585.7708 302.06903
1582.2274 294.44574
1582.9946 284.9004
1590.8652 287.1827
1587.719 276.58124
1595.8601 278.66208
1602.2798 275.37036
1600.9021 286.84808
1592.8602 295.34177
1596.3691 303.00714
1600.0527 314.70316
1608.8369 314.7254
1613.7646 307.94125
1604.0089 305.12558
1605.4688 293.48703
1610.9766 300.1032
1622.1592 303.0922
1621.3317 311.26666
1627.718 313.97296
1635.1265 312.66208
1632.4883 303.4561
1643.3755 306.4356
1651.1971 314.31906
1651.3087 300.47232
1653.424 292.4926
1659.2817 285.98633
1667.5026 276.8843
1668.5364 287.41003
1676.8354 294.58655
1688.0236 300.682
1695.7382 304.10138
1701.2241 292.72092
1688.9736 290.70886
1692.4398 281.44415
1678.4895 283.82758
1680.5892 273.81464
1691.5397 269.31696
1686.1448 262.2076
1677.1797 263.1029
1667.4539 267.5849
1669.6329 258.22345
1668.2809 251.41756
1668.8746 244.81778
1670.5547 239.0113
1675.1421 245.12215
1677.6947 251.91022
1685.1066 252.50516
1681.3754 241.90286
1679.2236 234.04364
1689.8069 228.79922
1689.5587 236.8722
1691.465 245.53296
1700.6753 236.1474
1701.138 246.41484
1695.1904 256.28232
1707.0854 256.91537
1711.8702 250.47464
1709.7921 240.5662
1715.29 231.53572
1706.752 228.05917
1702.3268 219.85594
1697.91 227.26099
1693.1489 220.28142
1685.6516 219.67142
1681.5648 226.62933
1677.2454 218.719
1670.0889 214.76369
1681.6415 213.0964
1692.3413 213.37498
1702.7452 213.51332
1711.9395 214.1965
1713.1722 221.77872
1721.7241 223.30797
1721.4641 213.6689
1729.564 216.06544
1738.1161 213.75471
1734.7186 223.01228
1727.5709 228.71255
1732.3086 236.63539
1724.4186 237.60844
1718.2338 241.22417
1721.219 251.15138
1730.8378 246.56805
1730.8236 257.16522
1722.0105 262.75662
1713.3722 267.9769
1702.6288 264.88025
1699.9594 274.20795
1708.0251 279.28583
1711.7623 289.00677
1722.4243 276.00153
1722.97 286.46735
1722.3999 296.29578
1713.2024 301.29822
1714.1654 312.07516
1704.5776 306.13007
1702.3999 316.86624
1711.627 320.93002
1713.4414 328.76813
1702.1174 327.06992
1690.1627 323.96762
1693.1554 314.41928
1683.7969 313.62427
1680.5542 303.7669
1668.3779 302.83212
1662.8923 296.35193
1657.3722 306.20428
1661.5366 312.96967
1671.1289 314.34866
1675.1031 308.63553
1679.5718 322.19586
1679.6154 331.31488
1686.4014 335.22513
1693.6204 332.02872
1700.1282 337.80576
1708.4005 336.85156
1716.2863 337.7418
1723.5356 340.33713
1729.5967 346.82428
1733.9514 341.77383
1741.0674 345.12433
1735.4753 351.94724
1746.267 352.19937
1745.1125 360.59857
1742.7188 368.2433
1736.1735 359.6352
1732.8419 367.5174
1738.4008 375.4162
1746.3035 377.13965
1734.0759 384.52283
1742.6908 385.32416
1746.2097 393.81625
1737.1306 393.57074
1727.8143 392.82013
1731.9263 402.44922
1744.0259 400.71918
1740.1824 407.43588
1742.7517 416.43423
1733.697 413.6392
1723.8091 409.79492
1721.057 424.3613
1715.8804 430.34695
1709.5887 435.47525
1704.6699 430.4097
1700.7695 424.14148
1695.8894 417.8645
1705.4761 416.2706
1710.2245 423.83478
1716.8364 416.70166
1710.8835 408.14267
1719.7479 400.4282
1708.2021 399.06616
1712.2715 391.2348
1719.8807 389.11337
1723.4263 382.0075
1730.415 376.9426
1723.1409 373.0589
1724.6227 364.42105
1726.4805 356.34003
1723.0334 349.07297
1716.9905 358.408
1709.3958 364.29935
1715.6836 369.66977
1705.7576 373.2703
1713.6885 379.5898
1705.6931 384.078
1700.7827 391.2504
1693.043 389.64084
1685.3221 390.21338
1680.9375 381.61148
1676.8228 389.5327
1669.181 388.118
1671.4458 399.09332
1679.9736 396.77563
1689.7886 399.79056
1699.0625 400.88855
1697.7024 409.41727
1687.6566 410.654
1681.5728 404.7126
1678.6447 415.87628
1685.5426 419.08032
1691.5071 424.23608
1695.1613 430.58057
1688.6727 434.00967
1684.2816 427.10077
1681.7524 432.90582
1681.0421 439.09625
1676.2917 442.32507
1671.9469 438.45584
1667.3817 443.06445
1669.4939 449.0923
1664.7887 452.33646
1660.6797 449.4709
1655.0856 456.359
1644.5881 451.59064
1648.7756 456.77795
1654.0371 462.616
1654.9385 468.2545
1662.9849 464.42978
1660.7098 457.1452
1667.7201 457.1627
1671.0193 462.08185
1668.3455 469.73718
1670.77 476.6025
1665.2135 477.6855
1659.4684 472.69022
1649.396 473.11072
1649.677 479.44745
1639.7074 476.99802
1642.1526 482.90088
1647.099 485.9434
1649.0303 492.63736
1655.751 493.8534
1653.2168 486.32346
1658.1758 480.02054
1659.3053 487.48398
1666.1067 486.40186
1672.9863 486.89285
1674.931 481.96753
1682.6143 485.81912
1677.7843 477.33145
1676.196 472.147
1676.0396 466.28064
1682.442 467.5301
1691.2568 467.9589
1686.9219 471.12268
1683.0724 474.356
1682.501 480.01654
1687.1508 481.5107
1694.9614 482.33444
1690.5767 484.2083
1690.2018 488.93787
1689.0912 494.02332
1697.4691 490.52325
1700.3547 485.5303
1700.3433 479.2276
1696.8668 475.3817
1689.9985 477.31845
1692.0795 472.83618
1697.6821 469.527
1699.8379 462.6417
1706.5403 462.12085
1707.3823 454.8824
1703.6833 448.57706
1699.9802 454.55283
1694.599 458.0584
1692.8743 463.3078
1686.8936 462.33646
1681.9219 459.95847
1676.7959 459.6701
1674.331 454.10178
1676.2317 447.92264
1683.4188 446.7167
1681.9163 452.99762
1688.0657 455.65393
1693.0286 451.3381
1689.9606 446.27805
1687.3591 440.6015
1694.1454 438.9802
1697.5928 445.09946
1700.5781 436.6883
1706.0364 441.88483
1711.925 446.5591
1713.8192 453.57227
1719.0662 449.29745
1727.1384 446.8412
1725.704 451.4992
1721.7483 453.8493
1724.801 458.03128
1726.9119 463.05414
1720.7965 464.75415
1718.9552 457.9332
1714.1292 460.5598
1712.8538 466.20264
1715.1646 472.92947
1720.594 470.63574
1724.3372 476.0088
1728.6378 468.69095
1731.9966 474.7503
1738.2291 481.17075
1737.8395 487.48148
1729.1748 481.85736
1731.2645 487.93466
1725.8442 491.85425
1721.553 486.2401
1718.8329 480.17676
1711.9877 479.22745
1709.1344 471.25262
1703.4591 469.36972
1705.2137 476.2101
1706.4231 483.8311
1712.9666 487.5929
1706.1621 492.23846
1698.9128 496.29477
1696.4281 501.64508
1690.7953 499.44968
1685.1982 499.52515
1689.5272 504.80768
1683.9795 505.233
1679.1652 507.3479
1676.561 514.5049
1678.9695 519.81866
1676.5903 526.29956
1683.7671 525.6894
1682.6998 531.67566
1683.0492 538.8288
1680.476 544.47034
1687.5007 545.71716
1691.8367 541.28125
1689.4227 535.67847
1689.9845 529.82916
1690.1367 524.1557
1693.6732 520.32806
1685.4661 519.8154
1687.008 515.2842
1682.6937 512.02185
1689.44 509.0594
1691.0192 512.6888
1695.9705 507.4436
1699.4703 511.73102
1694.4685 514.8056
1699.3826 517.854
1703.105 521.7768
1696.2909 527.14825
1696.295 537.39404
1701.2502 535.2739
1702.1284 528.8541
1708.4915 527.037
1708.7496 534.92
1716.5452 535.5567
1717.9426 529.37317
1718.1096 522.90594
1718.596 516.5705
1711.7396 522.0915
1710.1176 515.7708
1705.2445 513.28046
1716.0083 511.58975
1719.3424 504.5288
1711.351 506.25583
1703.4617 506.59155
1705.2494 500.42953
1712.6252 497.9295
1718.1304 493.6589
1724.1499 498.70624
1732.2406 501.6068
1727.957 506.14285
1725.0292 511.4567
1724.6277 518.65985
1724.8241 525.4088
1731.8726 525.2246
1740.9186 527.22943
1737.5431 519.3555
1730.9182 516.6883
1736.6141 510.31897
1739.5804 502.05585
1733.7686 494.88666
1741.5297 493.85672
1745.7117 487.48135
1747.5343 481.58774
1744.2662 477.37997
1753.4255 476.9574
1752.6599 471.11908
1747.0504 472.5137
1743.905 467.84543
1738.8181 474.12097
1737.2885 467.74323
1734.1161 463.04202
1730.3074 458.5253
1735.1829 455.7703
1730.6805 452.75873
1733.3513 447.33612
1737.5706 442.79282
1733.1753 437.39948
1727.9734 441.35663
1720.8794 443.66672
1715.466 439.44888
1722.6833 436.09134
1727.2314 430.04977
1728.9258 420.595
1740.4382 424.44595
1750.7878 420.49875
1750.1943 429.6256
1735.1572 429.94818
1743.1056 435.47113
1751.8008 440.76404
1757.3766 434.70267
1762.5431 440.53784
1770.9069 441.33322
1762.7401 447.53748
1768.6555 449.59094
1774.0822 452.32367
1779.673 453.37552
1776.3412 460.1438
1770.5466 457.42575
1764.1223 455.51382
1757.8795 456.50412
1750.7971 459.4289
1751.8738 453.59732
1756.3235 448.47247
1748.7017 448.21063
1743.6411 444.71906
1739.154 450.86353
1744.8455 454.366
1739.666 459.16827
1744.7556 461.95743
1750.9697 465.8554
1756.707 463.3119
1762.5748 463.10196
1768.4442 463.50107
1773.8091 466.37027
1770.8232 471.4237
1764.7997 470.64902
1758.6547 470.37274
1760.7336 477.7621
1768.4718 477.68832
1765.9602 483.66852
1759.758 485.78293
1753.6177 484.1408
1755.648 492.07974
1749.8162 494.38687
1747.1367 500.5681
1745.9396 508.86813
1744.3417 516.9429
1752.2389 516.3917
1759.4222 516.59503
1758.7747 509.30536
1753.2112 504.93613
1758.7231 499.54327
1765.5935 501.1774
1766.4579 507.91858
1766.8794 513.92175
1765.53 519.13556
1773.2281 518.25
1772.8348 510.8886
1778.4897 506.79688
1778.6428 512.3127
1780.2446 517.06476
1779.9222 523.30066
1787.3053 519.39954
1795.0903 519.70105
1799.6783 524.2172
1802.8256 518.35724
1799.23 514.56506
1805.1165 512.9871
1806.7773 507.35345
1810.8036 510.85837
1816.0715 513.5045
1819.807 509.54074
1814.3245 507.11316
1810.761 502.71005
1805.4924 501.0502
1807.3806 496.31073
1813.5537 497.73538
1817.7076 492.8957
1820.8901 498.01224
1817.6599 502.94235
1824.2722 503.0121
1825.7405 508.91342
1824.3027 515.38306
1819.029 518.1289
1817.9569 523.1541
1810.8546 525.7921
1811.7212 520.38666
1810.7815 515.9796
1806.028 521.9433
1804.8486 527.54376
1803.0504 532.49365
1797.3972 534.05316
1795.5206 528.472
1790.6743 524.93115
1784.5483 527.92694
1783.3916 534.6871
1789.983 533.68744
1794.8029 539.3909
1789.4956 542.35144
1784.2422 541.33563
1778.1216 541.4073
1776.0143 533.8812
1774.3119 527.4106
1768.0623 525.03687
1763.7163 531.30475
1758.9557 524.7727
1749.227 525.27966
1744.5342 535.6809
1753.8909 531.82416
1756.6171 538.4707
1763.103 543.14795
1767.662 536.2052
1771.8523 542.2979
1767.0605 549.0453
1768.2908 556.13727
1764.5387 561.79816
1757.3792 562.3987
1754.4402 568.6925
1749.3597 574.4644
1749.2456 580.6102
1749.8005 586.6285
1756.9587 586.58954
1755.5662 580.53503
1758.6511 574.379
1764.966 570.3124
1771.6897 565.76013
1773.3759 574.20825
1775.5613 580.8372
1767.9496 578.8687
1762.1764 580.49005
1764.5465 586.2703
1772.6755 586.3224
1781.9537 585.31433
1782.8206 577.3951
1790.6006 584.11316
1800.7804 584.933
1797.2491 577.8771
1789.6938 574.3127
1786.9999 567.6684
1778.847 570.79663
1780.3259 564.4914
1775.3385 559.34485
1774.3577 552.0876
1778.5676 548.11865
1784.6793 548.5144
1788.3013 553.326
1781.5607 556.5045
1787.467 560.42126
1794.1465 562.8309
1796.8411 569.3948
1801.3533 561.8427
1801.117 555.2088
1794.3187 555.3875
1793.0225 547.3203
1798.871 548.89014
1800.0228 543.2462
1802.9241 538.7699
1808.9938 538.55133
1809.6958 532.29224
1815.132 536.11554
1821.4119 538.6373
1820.683 532.03467
1815.5227 528.93494
1823.6077 526.7456
1827.7019 521.6227
1829.1613 533.7961
1832.6526 528.2017
1839.3542 526.97003
1838.8792 534.94617
1833.9333 540.91724
1840.8073 544.2008
1841.6334 551.1212
1833.9656 549.86456
1826.9889 548.2776
1827.1836 541.3014
1819.9567 547.5278
1814.8385 543.3338
1807.929 544.9598
1804.9977 550.34796
1811.8259 551.7463
1818.0802 554.7805
1819.7227 560.7599
1809.1122 558.8496
1806.2839 566.5701
1813.7311 567.4525
1820.348 574.82404
1814.9519 579.1787
1803.6324 573.0288
1808.4409 577.11536
1809.717 585.53265
1819.5986 585.04785
1826.6377 583.33344
1833.3328 586.6852
1840.3555 584.8346
1835.3204 580.5042
1831.4407 576.0966
1827.4471 571.2934
1822.1808 566.84174
1829.8271 563.008
1827.246 555.8146
1835.5359 557.9713
1842.0151 558.77844
1848.1833 561.9196
1847.1124 569.01245
1840.875 565.26654
1834.6528 568.4293
1840.1888 573.0252
1843.8976 578.3377
1846.0056 585.72766
1852.4668 587.1514
1850.8938 583.01013
1851.7742 578.76294
1849.978 574.0242
1854.9609 570.01636
1857.7393 575.1454
1858.1266 580.6491
1858.7334 586.32654
1864.364 584.33307
1864.227 577.874
1869.814 578.8073
1869.814 570.0332
1865.0713 572.861
1860.9692 569.63116
1867.1289 565.2062
1869.814 559.57684
1869.8516 551.54407
1870.7446 543.67535
1869.814 534.19495
1862.151 534.3392
1860.8219 542.7552
1857.9436 549.3287
1860.9141 554.6456
1863.8972 559.2123
1860.1997 564.414
1853.1675 565.2684
1856.1205 560.4512
1853.2755 555.66956
1847.2108 554.9383
1849.6785 548.7378
1851.4238 542.5838
1845.754 538.0324
1846.8643 529.7451
1853.9569 534.876
1855.3805 526.6817
1863.1501 525.1909
1869.814 525.0407
1870.7146 517.3089
1869.814 510.34177
1869.814 501.91214
1869.814 494.63248
1869.814 487.086
1865.5254 483.77203
1869.814 478.95178
1864.5547 477.75455
1859.7814 479.2321
1859.8295 484.1893
1863.4631 490.2824
1862.8716 496.13495
1854.5835 501.7366
1847.3055 500.80377
1850.0586 495.3841
1856.3378 494.6423
1857.3518 489.01514
1851.1345 488.99768
1854.092 484.64233
1849.6934 482.1072
1846.7576 476.40924
1849.1525 470.56534
1852.6951 474.61002
1854.4235 479.33243
1858.7405 474.09872
1855.786 469.37027
1854.259 464.80737
1857.0671 459.54114
1858.9441 453.60284
1863.9216 457.34482
1862.3469 463.46585
1861.8713 468.42157
1864.892 472.4491
1869.814 471.72406
1869.814 465.565
1869.814 459.47202
1869.814 452.72223
1869.814 444.9776
1864.3741 448.6527
1858.6265 447.04218
1858.1917 441.40213
1863.5533 438.31473
1869.814 437.2297
1869.814 429.4452
1863.3557 427.88922
1869.814 421.02686
1869.814 412.00644
1864.9875 415.6766
1861.0477 409.5929
1864.6628 405.0476
1869.814 405.0972
1869.814 399.0999
1869.814 393.69266
1869.814 387.56146
1866.1609 389.7163
1858.302 387.23563
1853.3442 384.31232
1855.5488 379.77155
1859.6775 382.5866
1864.5056 383.69202
1869.814 380.81952
1869.814 372.50378
1865.2664 376.22513
1860.4927 376.49078
1855.6531 374.18243
1852.8018 370.11273
1860.0427 368.60855
1866.1365 367.29913
1869.814 362.03357
1863.4387 358.0027
1856.5564 362.0923
1849.8232 366.25925
1842.7644 367.13132
1837.4574 367.4406
1846.3135 362.0332
1850.4438 357.49677
1847.0675 351.83478
1856.0767 353.74313
1860.8468 349.6457
1869.814 352.2802
1865.0808 345.7533
1869.814 342.65167
1864.2194 339.41736
1866.9395 335.33472
1869.814 333.87628
1862.4996 333.9044
1864.398 328.51285
1869.814 326.73163
1869.814 320.37573
1869.814 314.70456
1869.814 309.49564
1869.814 304.2542
1869.814 298.91867
1869.814 293.01215
1863.5614 294.55548
1862.0872 287.0374
1869.814 286.9435
1869.814 280.1967
1862.7494 279.8584
1869.814 272.51312
1865.0579 267.45203
1869.814 262.91995
1862.5704 259.44095
1861.266 252.58983
1869.814 253.28574
1869.814 243.56107
1866.1149 237.63051
1869.814 233.08253
1863.2441 229.44092
1869.814 223.41316
1863.2733 214.22464
1861.9456 221.43404
1854.5308 221.75258
1855.1083 213.72948
1848.8014 216.2457
1842.7614 213.04988
1841.6895 220.63986
1835.0042 225.04492
1834.9319 234.93387
1828.291 230.23428
1822.4575 223.08612
1832.1752 215.52682
1821.8083 213.6642
1812.0779 217.02606
1801.9158 214.48581
1789.012 214.12572
1776.1992 215.24304
1784.7023 222.64648
1795.0588 222.95822
1803.8391 226.37105
1812.2258 230.24333
1819.7091 234.60396
1825.7146 241.21686
1834.0585 243.10928
1825.769 250.29672
1816.346 245.73886
1819.9253 257.73306
1811.375 255.34657
1802.0972 251.42377
1807.6719 242.14127
1799.9176 236.85828
1789.1486 233.21397
1790.8329 244.72966
1778.1835 241.09975
1776.7667 228.78894
1766.9387 231.08783
1767.058 218.76752
1759.3643 213.19574
1756.1367 220.6971
1748.7655 214.34633
1742.5656 220.17542
1748.0723 225.28319
1738.87 230.24763
1747.5037 233.45346
1757.469 228.59052
1756.0176 237.58736
1765.6199 241.00946
1772.2161 252.63185
1764.0247 250.14069
1755.1356 247.73167
1747.8573 242.92432
1739.86 239.90369
1740.4902 249.63043
1749.1208 254.90396
1740.3027 259.9396
1747.9744 265.75635
1746.4039 277.232
1734.2183 268.90387
1735.085 279.80658
1733.8359 290.51508
1737.0547 299.87836
1725.8232 304.74512
1725.1824 313.24158
1735.7659 309.08966
1744.1116 310.79742
1752.6289 310.25644
1762.2306 312.4864
1756.0012 320.8543
1746.6102 321.07526
1739.9048 325.9634
1735.2622 317.94257
1730.8472 325.8527
1722.4734 321.21475
1722.6545 330.44455
1729.2798 335.14215
1735.7214 333.06714
1741.0078 337.22446
1745.628 332.75998
1751.6394 330.14633
1759.4639 331.18893
1765.5895 325.37256
1773.8049 330.51712
1768.168 336.2499
1762.7234 341.52222
1755.5961 339.61966
1748.9003 342.55606
1756.167 350.63525
1754.2759 360.7591
1751.7826 369.42938
1757.0118 375.2537
1752.164 381.5344
1750.6346 388.23685
1758.3403 391.1437
1759.5187 384.42508
1763.9409 379.33627
1763.3287 368.73257
1763.4414 358.91666
1771.6167 354.58087
1765.3762 348.85638
1773.3293 344.51425
1779.6179 339.08115
1782.114 328.76862
1788.4102 337.58917
1786.948 346.487
1780.2128 350.74838
1780.1211 359.252
1772.3818 364.67142
1776.7711 371.34552
1770.2864 377.0337
1773.0148 385.2354
1779.554 380.4181
1784.8955 374.0131
1792.4471 372.35477
1786.9414 364.57864
1791.1564 355.3206
1796.6523 346.95062
1797.2714 338.381
1802.0801 331.51312
1800.0913 322.40912
1792.7601 329.82346
1789.5105 321.40216
1793.5317 311.52847
1801.5742 314.0738
1811.5277 315.39792
1812.4431 321.96555
1808.5892 328.62326
1805.7745 339.28195
1813.8834 339.35184
1821.6876 341.174
1828.6147 340.00415
1834.4849 337.857
1839.9778 334.98996
1846.5591 336.9726
1852.5935 338.9446
1852.5073 332.0654
1847.8608 328.1232
1843.1235 330.4431
1840.8224 323.46188
1833.7451 328.39893
1825.5742 331.0773
1816.8855 330.6426
1822.5106 322.03613
1822.4242 313.50308
1816.6384 307.52798
1807.8246 308.34595
1801.5969 302.9936
1792.5906 301.3314
1783.5186 303.83377
1784.4258 312.52908
1778.9158 319.29803
1770.3921 318.08322
1773.3196 307.7979
1772.8862 297.2363
1761.5732 300.95364
1749.9453 299.40237
1745.2556 289.40042
1755.6431 286.9789
1765.963 289.13824
1761.7728 278.13797
1756.0159 270.9466
1758.6338 258.67282
1765.7032 265.19354
1770.5941 276.366
1779.074 270.96744
1775.5159 263.5488
1782.0724 254.13954
1792.8379 255.42271
1788.3098 264.10947
1793.8849 270.50824
1787.8982 275.3566
1781.3639 278.98138
1776.582 286.20456
1783.9155 294.5462
1788.3713 286.4393
1797.1351 286.9312
1796.384 279.28482
1805.1984 281.22543
1805.043 288.79453
1797.8241 294.64642
1809.5396 293.15045
1810.2313 300.55435
1817.3997 297.18222
1823.3346 301.33282
1828.9043 308.36032
1831.6952 318.9517
1836.4448 310.9181
1841.6926 315.63705
1848.2881 318.60474
1850.9905 323.9144
1856.8127 320.9403
1855.8762 315.4664
1856.6726 309.3623
1853.9319 303.27454
1848.7087 310.98688
1846.6187 303.0811
1840.804 305.71613
1839.1271 297.94592
1831.4551 300.0385
1832.6538 290.52774
1824.8192 291.13998
1817.2743 289.43677
1813.3218 283.30725
1821.6619 281.70963
1828.825 281.36966
1835.7705 282.8199
1841.3975 279.00375
1840.8972 273.09326
1833.2854 273.14413
1824.8003 272.9906
1816.4587 274.97906
1808.5378 274.45377
1801.3723 271.4049
1802.173 262.4734
1811.8676 266.2008
1821.028 266.0197
1830.897 265.28986
1829.9644 257.92563
1835.0872 251.03922
1841.3591 248.08665
1846.5037 252.97182
1849.1311 248.42723
1845.0704 244.29024
1841.8389 240.28957
1843.1426 234.81094
1842.9956 229.03204
1847.5387 223.63802
1850.3618 228.38309
1850.302 233.70238
1848.5972 238.33945
1850.3629 243.1104
1855.2166 240.89038
1857.1355 234.6226
1856.3662 228.68799
1860.7072 239.19453
1862.8046 245.9901
1855.223 248.2418
1854.1859 256.42065
1858.4246 266.17447
1851.9016 264.0502
1846.9066 259.5698
1839.9344 256.7319
1840.1855 263.67612
1844.5461 268.0167
1848.2336 274.06244
1853.7186 271.39066
1861.1964 273.5969
1855.0073 279.4636
1847.9524 281.4344
1854.9468 287.41275
1848.7085 289.15143
1842.0149 286.30594
1842.5435 293.05603
1849.5713 296.45395
1856.839 295.31137
1861.778 301.90732
1863.2935 308.47913
1863.3218 315.35342
1863.4827 322.1983
1857.4332 326.59622
1858.4514 331.41922
1857.9946 336.89307
1858.4125 342.71393
1852.9353 346.6404
1846.8384 344.14078
1840.1213 342.64615
1840.2698 349.78107
1841.0366 358.53064
1833.0146 362.1705
1827.479 357.34894
1834.8328 354.59836
1831.6328 347.3906
1823.7179 350.21332
1815.5452 348.63107
1806.9724 347.49203
1802.7825 354.56308
1797.6195 361.7426
1798.6978 368.61035
1806.0745 369.3505
1813.5587 366.89548
1807.3157 361.77618
1812.9214 356.6404
1819.7529 358.37738
1823.0475 364.4808
1819.3584 370.5755
1818.0562 376.1174
1825.863 378.31058
1826.2899 370.9887
1831.3425 369.02643
1834.7397 374.87958
1840.5986 374.19302
1846.4365 373.51953
1850.4679 377.44135
1848.0295 382.27463
1843.089 379.8174
1838.5371 382.86996
1832.6152 380.91
1829.847 388.7173
1836.2587 388.723
1841.6057 391.4192
1843.7571 386.53793
1849.1116 387.7791
1853.4653 390.6735
1857.9692 392.72275
1862.3645 390.1097
1862.487 395.26553
1863.0107 399.60736
1857.3169 403.32147
1854.3965 397.3839
1850.6658 404.45847
1847.3339 399.3182
1848.1545 393.37762
1841.5299 397.44858
1835.564 396.08694
1832.8121 401.9042
1835.9073 408.50723
1841.5996 404.4752
1846.811 410.21558
1840.2812 414.04773
1834.676 419.36734
1830.9344 425.2942
1837.5354 428.38052
1843.9541 427.69373
1841.9094 421.57135
1849.0548 417.52054
1854.5513 411.7722
1859.3118 418.4814
1856.6755 424.33038
1850.0266 424.64822
1857.5005 432.60596
1850.4277 431.6664
1844.0225 433.67862
1838.7495 434.9513
1835.0686 439.6453
1831.9994 432.84103
1824.657 433.18933
1822.258 424.34604
1821.317 416.33612
1829.1562 413.11716
1818.5292 407.70578
1825.8402 405.15393
1826.488 395.2227
1819.7405 399.10806
1810.8206 400.9045
1807.3068 393.4748
1799.7949 400.2172
1789.3424 395.5752
1797.7855 390.09323
1803.292 382.63412
1808.7568 384.24548
1813.0127 387.89398
1817.7343 392.0179
1823.5688 385.60663
1816.7484 381.86426
1810.2218 376.06604
1801.7653 375.42514
1796.1864 380.38928
1789.154 383.46667
1782.445 389.4107
1784.0548 404.6994
1777.4404 399.37054
1774.2797 392.82712
1766.2224 389.5526
1766.1392 397.42386
1769.3141 404.08002
1774.547 409.1528
1779.8287 414.50842
1782.6913 421.98825
1779.2483 428.69125
1772.0653 424.74863
1770.1013 418.13794
1765.4867 412.87045
1761.6886 406.3978
1759.0912 400.2028
1753.6992 396.3637
1752.6921 404.4676
1748.6729 410.5468
1756.9216 413.00955
1759.662 420.95126
1761.9136 427.4231
1767.0419 433.1609
1774.2971 433.87393
1781.0906 437.86786
1786.8512 431.02853
1792.5483 424.49017
1799.7621 418.73306
1789.3698 415.05423
1793.1862 406.9319
1802.8025 410.26794
1811.1995 410.35385
1811.0907 419.89233
1810.439 429.45428
1817.7402 432.8174
1820.7599 442.99454
1828.3541 439.68616
1830.1216 446.851
1836.565 445.91776
1840.7427 441.08508
1845.7683 441.7927
1847.8075 437.74435
1853.2515 438.307
1851.1384 444.77795
1853.2517 449.98294
1851.9519 455.4345
1850.6481 460.58804
1845.3579 459.70486
1847.2783 465.69656
1841.0684 465.86832
1842.1023 471.45822
1839.7188 477.52023
1836.0972 482.83572
1831.7031 480.47705
1830.0732 487.36627
1833.9954 493.08334
1838.063 488.9015
1841.5856 484.66812
1845.2156 482.16342
1846.2157 489.1967
1842.8989 493.73755
1838.2146 498.3346
1841.417 503.90652
1837.6748 509.39398
1847.1711 508.95264
1853.5117 511.1297
1858.5979 506.4468
1862.4143 501.22623
1866.7249 505.09808
1864.5281 509.33173
1861.2571 512.9219
1859.795 518.4156
1851.7563 518.93726
1845.0796 522.19495
1842.749 515.1819
1835.7723 520.05005
1832.0017 513.87195
1831.9307 505.38245
1830.7493 499.6433
1827.1324 495.39645
1823.627 491.75726
1822.8202 486.4193
1823.8119 480.16245
1818.2551 481.4823
1815.7247 486.99713
1811.6971 491.72504
1806.1986 490.40134
1802.2074 494.06274
1799.5735 498.885
1801.4062 504.45816
1798.9274 508.86124
1794.1241 513.39923
1789.0269 513.5692
1784.2198 511.24988
1785.7894 504.3771
1791.3419 507.78955
1794.2034 503.19168
1792.5522 498.04913
1796.1028 493.26352
1789.9957 491.98965
1785.4562 488.24472
1785.7899 497.3094
1779.6072 500.96323
1772.6604 502.73398
1763.6494 492.65485
1770.595 489.10986
1771.3031 495.6316
1778.8815 494.81293
1779.4297 488.83972
1774.2551 483.63165
1775.1368 476.36084
1779.0203 469.8229
1781.0494 464.73212
1783.3964 459.32242
1788.9133 463.29926
1786.9633 469.13004
1786.702 475.26602
1781.1927 474.63156
1780.6128 481.40668
1786.6016 481.43658
1791.4453 484.84375
1796.0593 486.771
1800.378 489.35193
1802.794 484.53177
1804.4307 478.75845
1808.6686 485.77734
1811.0669 481.60498
1815.0234 477.20648
1810.1797 475.50824
1811.6188 468.19934
1814.8988 460.2256
1823.3088 459.76654
1824.5857 467.16534
1818.1589 465.69632
1818.1371 472.8167
1824.1113 473.38422
1829.2051 475.62335
1834.9578 472.67282
1832.7892 466.67426
1832.5642 459.77533
1837.7009 462.34174
1839.3495 457.62265
1843.3961 454.74094
1847.5115 451.7137
1844.4761 446.66034
1840.6118 450.15524
1835.596 452.7971
1829.4497 454.55057
1823.8687 450.71756
1817.2156 452.86365
1809.4702 448.1422
1811.6615 439.73898
1802.059 440.76978
1801.8135 429.02664
1794.2844 435.2544
1788.9137 441.39267
1794.3127 447.11978
1796.6102 454.7161
1802.4042 452.97287
1808.7423 457.08063
1805.9988 462.778
1801.932 467.25568
1806.0068 471.99988
1799.6377 473.81796
1797.9865 480.3824
1792.3787 478.67657
1793.0873 473.3292
1794.8995 468.05106
1797.1818 461.77365
1790.7622 456.96786
1786.4373 451.9289
1782.9918 445.94843
1776.1626 445.59235
" />
</g></g></svg>
