<?xml version="1.0" encoding="UTF-8" standalone="no"?>
<!-- Created for Inkscape (http://www.inkscape.org/) -->

<svg
   xmlns:dc="http://purl.org/dc/elements/1.1/"
   xmlns:cc="http://creativecommons.org/ns#"
   xmlns:rdf="http://www.w3.org/1999/02/22-rdf-syntax-ns#"
   xmlns:svg="http://www.w3.org/2000/svg"
   xmlns="http://www.w3.org/2000/svg"
   xmlns:sodipodi="http://sodipodi.sourceforge.net/DTD/sodipodi-0.dtd"
   xmlns:inkscape="http://www.inkscape.org/namespaces/inkscape"
   width="3200"
   height="800"
   id="svg2985"
   version="1.1"
   inkscape:version="0.48.1 r9760">
  <defs
     id="defs2987" />
  <sodipodi:namedview
     id="base"
     pagecolor="#ffffff"
     bordercolor="#666666"
     borderopacity="1.0"
     inkscape:pageopacity="0.0"
     inkscape:pageshadow="2"
     inkscape:zoom="0.35"
     inkscape:cx="1600"
     inkscape:cy="400"
     inkscape:document-units="px"
     inkscape:current-layer="layer1"
     showgrid="false"  />
  <metadata
     id="metadata2990">
    <rdf:RDF>
      <cc:Work
         rdf:about="">
        <dc:format>image/svg+xml</dc:format>
        <dc:type
           rdf:resource="http://purl.org/dc/dcmitype/StillImage" />
        <dc:title />
      </cc:Work>
    </rdf:RDF>
  </metadata>
  <g
     inkscape:label="Layer 1"
     inkscape:groupmode="layer"
     id="layer1"> 
     <g>
<path style="fill:none;stroke:black;stroke-width:2px;stroke-linejoin:round;stroke-linecap:round;" d="M 
1602.0181 436.36774
1600.9619 441.68744
1597.8307 447.4422
1594.5557 452.95456
1589.1772 458.77405
1596.307 459.5401
1604.0105 457.96814
1607.3555 452.77963
1612.9651 449.3544
1605.6316 446.59833
1609.8241 441.70242
1617.3282 445.00906
1622.887 449.49765
1631.9877 447.30325
1626.7422 442.274
1620.2471 439.59415
1613.1643 437.34076
1617.0747 433.76538
1621.1268 430.08182
1625.2952 434.51163
1634.0322 439.09555
1640.7595 441.99173
1642.3818 435.11133
1646.7527 428.6998
1650.5571 433.03726
1652.9464 438.4276
1656.8779 445.11594
1648.959 443.36014
1644.5632 448.4903
1638.1112 449.88632
1650.1902 452.80997
1658.5021 453.39203
1653.1761 459.1753
1659.6758 462.47235
1653.8555 467.82126
1650.3462 474.92612
1644.0114 469.7438
1646.3396 462.67578
1642.2161 456.82727
1634.6543 457.37848
1628.448 454.44742
1621.8186 457.919
1616.0286 455.18182
1611.9795 460.58975
1606.5054 465.09735
1600.7141 464.65094
1595.9318 468.42627
1592.5912 475.08582
1588.9115 468.61343
1583.6321 471.82416
1577.6971 472.91278
1586.3113 480.1749
1579.7502 479.7197
1575.2474 485.68555
1582.1588 490.6585
1588.5706 486.94855
1591.5151 494.76093
1595.9233 487.91583
1596.418 480.4433
1602.2675 472.80585
1609.2039 475.5554
1612.4539 469.29636
1618.9119 465.43384
1627.3921 463.1246
1636.7473 465.28683
1629.1213 470.49658
1621.8959 473.32462
1617.1528 478.04657
1624.0107 484.54788
1629.554 480.56805
1636.8478 487.00806
1635.09 475.42932
1641.466 477.27158
1645.2225 483.63776
1653.4915 481.72635
1651.4608 489.66513
1644.56 492.99063
1647.2095 500.73218
1653.8658 497.31326
1655.0955 504.70828
1660.3507 502.21866
1664.4077 506.3054
1663.918 512.3284
1657.3749 511.84225
1660.4324 518.32446
1660.8271 524.76953
1656.0378 528.66876
1653.3472 521.9011
1650.4551 515.8407
1650.4204 508.36664
1644.3978 510.35608
1640.5599 514.81366
1635.8108 517.8729
1635.0127 506.7266
1640.8405 503.6866
1636.3511 497.04788
1629.032 492.1334
1622.2144 498.83813
1628.1311 502.13605
1624.5708 509.39404
1631.8319 511.40073
1629.9567 516.0621
1629.9084 521.4785
1624.8088 518.23914
1619.9689 521.86066
1618.3011 513.6679
1613.8654 519.18164
1610.8718 524.2846
1603.8152 522.4311
1595.9541 524.4392
1591.0721 517.39526
1586.0612 524.7405
1577.8245 524.6431
1569.0405 526.31464
1559.838 527.7544
1553.2368 525.43115
1545.4047 528.12195
1541.5599 522.02905
1535.5704 527.7058
1535.3016 520.4927
1531.1788 516.5384
1527.5955 522.62634
1526.8134 529.52344
1520.2075 525.9339
1522.7892 516.3531
1515.876 519.507
1512.0188 526.6811
1503.6035 529.598
1508.621 534.72327
1513.802 539.5259
1517.2706 533.2515
1523.434 536.8051
1520.7511 542.8016
1520.5663 549.76495
1514.0963 547.64453
1508.6868 543.64545
1506.6473 549.43506
1504.7549 555.00256
1512.285 555.24347
1518.8594 556.5219
1517.7478 564.07404
1513.2405 568.8429
1515.5715 574.6366
1514.0504 581.1742
1507.2909 579.89215
1509.2782 585.0752
1511.9119 589.39514
1504.283 589.9314
1502.8572 596.38104
1509.4303 595.702
1543.9019 605.9491
1533.6854 627.2451
1516.4807 610.19635
1506.4661 603.5787
1499.1487 602.91797
1492.891 605.0747
1495.4265 595.66174
1487.9678 598.49176
1486.2898 605.83905
1482.5599 611.0252
1488.467 613.58093
1483.005 617.7327
1477.5562 618.97034
1475.6602 625.1455
1470.8778 629.91614
1458.7415 631.67865
1446.1652 641.3444
1452.4663 662.6488
1437.0039 662.7859
1434.0076 673.01373
1428.7386 678.59656
1424.489 686.8102
1428.1523 693.0113
1435.2697 689.4185
1442.175 686.28436
1443.8523 676.5709
1454.4363 686.2152
1453.8865 703.49835
1442.2037 700.8755
1429.4001 704.0246
1433.8477 711.2702
1435.2295 721.3649
1447.6846 721.5095
1453.7439 715.5818
1457.4802 724.04376
1454.1489 735.66846
1450.2277 746.9667
1442.6412 750.97107
1440.6099 739.1603
1439.3971 731.09326
1422.3126 733.02234
1423.4126 745.5214
1402.5872 746.9229
1401.5813 723.5946
1418.2908 710.37286
1422.0781 699.1396
1407.0388 706.61145
1395.1552 708.2204
1384.9675 719.0649
1391.4147 727.6214
1376.9172 742.661
1364.3658 746.9827
1341.0913 758.5127
1337.2863 747.5471
1333.3649 735.8579
1325.4938 747.40186
1328.0419 764.87494
1334.9655 781.5103
1347.1383 782.9515
1350.0437 770.742
1365.3058 781.8702
1382.982 778.7755
1401.9434 778.48413
1413.9614 770.55817
1430.5259 774.4546
1435.6038 783.305
1455.2952 774.65216
1475.1648 783.7606
1490.7766 772.79407
1498.1803 782.9515
1503.6178 773.66
1513.6696 775.83813
1523.3538 783.32513
1537.7784 782.9515
1544.1697 773.9691
1538.6165 762.0891
1526.0726 768.8847
1525.9181 752.0738
1521.8265 739.4021
1523.8406 728.388
1506.6832 742.49316
1500.9043 762.91956
1490.6478 755.3897
1475.4197 755.2042
1468.9171 739.6533
1486.6027 731.99713
1475.3931 730.1624
1466.1493 726.21466
1463.0193 718.4841
1464.4425 713.1269
1467.0691 707.2424
1468.209 699.21436
1461.832 693.1993
1465.4326 686.2938
1462.2472 677.59015
1469.868 676.69855
1472.2317 668.1204
1475.5837 674.1756
1480.3993 671.732
1486.2074 675.66724
1483.5854 683.2495
1477.0695 680.9745
1474.782 688.00116
1476.1417 694.4515
1484.0842 691.601
1484.1597 699.61145
1476.6746 703.181
1477.3605 712.3363
1484.0989 718.94324
1489.1307 710.701
1496.335 723.69836
1502.2688 717.423
1501.7406 708.03204
1512.6614 707.7645
1517.7947 700.8348
1511.9641 696.32227
1497.8676 697.1549
1492.8494 692.84467
1494.541 687.13257
1495.53 678.2644
1498.4976 673.50183
1498.2151 682.5296
1500.597 691.30383
1512.2386 686.0096
1504.1665 678.4944
1515.3823 674.9038
1509.9727 666.08405
1502.3326 667.4405
1502.0005 657.9074
1495.3925 651.23285
1497.2527 643.9408
1493.4457 638.5874
1482.7915 642.3177
1476.6692 643.86176
1479.9076 650.5512
1482.9513 656.9373
1488.5363 645.6925
1489.1675 652.8524
1490.8065 659.9723
1487.8396 667.4981
1482.6339 664.34216
1476.0607 663.4189
1473.7463 657.49304
1471.5806 650.3219
1469.562 644.09467
1471.375 638.0345
1477.3217 636.0296
1479.5872 630.42017
1485.8086 636.2025
1487.6257 629.80725
1482.7903 624.7331
1488.749 620.93005
1493.9271 612.79913
1499.6024 610.82837
1504.5403 613.10565
1497.3513 618.9564
1501.7494 624.3544
1493.4778 625.4009
1495.4832 631.7438
1501.2274 634.9406
1513.5563 643.54944
1530.782 647.10376
1537.7163 640.6098
1542.6232 638.68164
1551.3716 644.26074
1545.6427 653.6944
1551.2039 666.81506
1547.3076 672.2071
1555.9945 679.09985
1566.5574 676.2018
1577.4493 674.29614
1575.4532 666.35785
1572.3661 646.5673
1592.529 633.3775
1610.4878 638.70874
1630.1302 614.0598
1660.4324 617.493
1686.517 623.221
1688.6422 640.66223
1662.8911 644.6174
1655.9272 654.88965
1652.7021 664.22705
1658.9425 684.08344
1651.9271 686.11255
1647.0488 690.0584
1642.4766 697.8718
1627.6396 694.6698
1632.0406 717.1461
1625.8402 736.8756
1629.315 747.74927
1626.5238 753.59894
1634.0859 753.3739
1637.6824 758.2888
1633.0095 766.62054
1623.3943 769.0644
1624.0237 762.12885
1614.365 764.4935
1612.0364 755.2869
1617.6047 755.2375
1616.5061 749.6018
1615.3899 742.4878
1608.086 733.7398
1599.9238 738.3171
1603.5437 749.0854
1601.6387 758.08606
1595.4673 763.7013
1597.9019 773.0728
1584.8772 772.2795
1578.5232 768.727
1573.7324 762.5411
1573.1273 753.42664
1591.1638 754.64734
1584.4268 740.0061
1577.799 724.10895
1587.8695 717.5575
1599.3345 725.26056
1617.9382 709.7054
1609.0215 697.8522
1615.8291 683.8442
1623.7047 675.2538
1635.8755 680.807
1637.0083 671.02527
1638.9313 658.1922
1634.03 645.6617
1620.5276 651.4539
1610.0951 662.0895
1591.5972 660.5322
1587.0859 674.9526
1589.632 697.9196
1574.8197 692.44775
1556.3171 714.629
1554.7393 693.6969
1545.1821 688.3912
1543.5278 679.7693
1531.98 678.55475
1532.0022 666.34955
1526.3453 673.8624
1521.2393 683.148
1532.4868 685.81573
1540.2104 696.40173
1531.7213 699.6139
1544.7848 718.3251
1552.5049 732.25214
1560.4623 738.8039
1559.0983 753.906
1563.1831 770.6296
1556.0653 775.7631
1555.667 782.9515
1573.489 782.9515
1573.7365 775.9238
1590.6952 782.9515
1606.3068 782.9515
1619.3018 782.9515
1619.0879 776.19147
1628.7095 774.7943
1631.8256 782.9515
1643.481 782.9515
1643.2688 773.9249
1650.7158 769.4982
1642.9357 764.38684
1644.3458 757.6936
1639.781 750.60394
1635.8931 740.27637
1640.4285 723.7718
1648.682 715.4428
1651.0112 720.38904
1647.2443 728.4263
1645.3972 737.91016
1653.4348 747.4148
1671.4409 739.10596
1662.012 731.1835
1666.7363 725.4788
1678.6354 726.15985
1686.4999 734.9837
1686.9431 715.80505
1670.6262 716.40765
1667.9419 707.65216
1659.1493 700.59283
1658.207 692.3235
1665.2046 687.6298
1665.8162 694.9809
1674.5009 694.0964
1687.8783 705.5318
1685.1489 697.8133
1686.2427 688.44653
1678.7136 684.3187
1672.6652 680.37195
1665.2688 670.36084
1674.9763 658.7748
1686.1819 666.675
1690.3468 678.5498
1693.6372 683.36176
1693.8757 689.9498
1689.802 694.1744
1694.76 697.3637
1698.8837 702.0237
1702.5587 696.33984
1705.0168 689.8149
1699.498 688.0535
1702.0347 681.36664
1693.109 672.35315
1693.7361 665.2318
1699.6129 664.0217
1695.4503 657.4328
1696.5442 650.06744
1700.917 644.5289
1696.3763 638.0517
1701.9128 637.4294
1706.3649 633.4312
1708.2894 641.31354
1708.4828 647.78864
1703.4841 652.03894
1704.2412 658.0535
1711.1174 660.0722
1713.947 652.9525
1716.1028 645.3289
1719.1758 639.3362
1711.9712 636.32764
1711.4359 627.45984
1715.5435 618.86743
1707.2202 619.8179
1704.9663 625.9446
1700.6083 629.9362
1695.5122 629.6489
1698.199 621.78436
1696.0333 614.95087
1689.5413 609.1917
1694.4414 606.56085
1697.7529 601.1207
1700.6367 595.89215
1694.1469 593.21387
1690.4412 599.61115
1682.5846 597.9701
1677.783 587.5133
1683.0438 590.1096
1688.6182 590.7032
1693.2678 585.7042
1692.1587 579.7503
1686.096 582.6792
1680.3682 580.08575
1673.8777 580.7148
1671.7319 573.26166
1676.027 566.60315
1680.699 561.1808
1673.3617 556.50494
1681.5503 554.5745
1689.1392 554.46313
1696.5044 555.5674
1694.923 548.20233
1688.526 545.743
1681.5563 547.8352
1674.5852 546.84814
1667.6207 544.125
1667.7018 550.3666
1668.1501 564.4865
1664.5266 556.1115
1661.4604 544.4657
1665.2555 538.4063
1658.8895 535.55286
1663.4116 531.8549
1666.4683 527.4563
1667.6666 521.4586
1669.0027 515.9291
1670.0979 509.53125
1672.4656 504.11615
1676.6223 508.34433
1675.5787 513.54895
1675.4852 518.72626
1674.2997 523.75665
1671.7667 527.9524
1675.6826 533.23816
1669.7028 534.20123
1673.3785 539.5616
1679.9884 539.81775
1686.3176 538.8736
1693.5414 539.23145
1695.7733 532.8823
1698.2607 526.80444
1701.1304 520.9864
1698.4285 515.28595
1696.0093 509.39532
1693.935 503.57285
1688.7878 500.04367
1686.8086 504.9307
1688.9149 510.2817
1692.3102 514.6467
1693.0846 520.46094
1691.8353 525.68005
1689.3713 531.1264
1683.7814 532.679
1679.3046 529.5154
1679.943 523.9
1685.5814 524.6152
1687.2853 517.6358
1681.689 518.2081
1682.6364 512.6189
1682.247 507.45065
1679.5533 503.1261
1680.0759 498.70236
1683.6235 495.7153
1689.2954 494.31418
1690.311 488.65762
1682.8467 489.56476
1677.0958 492.32275
1672.809 487.8205
1678.385 483.62793
1683.3656 478.3665
1685.9332 484.04156
1691.5144 481.1113
1695.8901 484.40103
1698.2089 489.45358
1695.1327 495.72256
1701.821 495.46213
1706.4084 489.63623
1703.2659 483.27548
1698.3967 478.46014
1699.9221 471.86877
1706.1387 469.11032
1705.2733 476.9173
1711.5745 478.86942
1712.1276 484.07666
1713.9719 490.17255
1712.8722 496.218
1721.8986 490.81116
1718.964 485.6052
1721.862 481.49094
1724.7002 476.8607
1731.1274 480.89523
1727.1174 486.3877
1733.5646 489.27374
1728.4142 494.2931
1719.9529 496.72092
1724.3041 500.71564
1728.0891 504.74255
1722.7639 508.10068
1715.9608 503.86963
1711.7593 510.11496
1707.6797 500.38754
1700.5029 502.45087
1703.3647 508.38904
1705.726 514.782
1709.2839 519.92163
1705.4807 527.36914
1703.1426 534.5111
1701.5042 541.26904
1702.4279 547.3592
1702.543 553.3203
1703.3662 559.29565
1701.7303 564.82513
1695.8872 562.4285
1689.0 561.7125
1684.8047 567.51746
1680.6241 573.35944
1688.2188 574.5763
1692.053 568.8349
1698.3345 569.96686
1705.1543 573.02435
1706.4263 566.6188
1711.012 569.83527
1711.3721 578.78973
1705.3124 579.82794
1697.3118 576.2059
1700.0427 582.92194
1699.8369 589.34576
1707.4092 586.9066
1707.1163 593.695
1706.2312 600.9216
1701.6686 607.96936
1707.6448 613.6627
1708.9452 607.2056
1714.0685 602.43835
1715.2452 609.06305
1719.5406 612.32886
1722.7838 621.8745
1717.9031 626.5282
1716.5117 633.5618
1721.8096 631.4488
1728.9965 628.81903
1725.0938 615.591
1725.5646 608.52856
1720.4729 603.62286
1724.7998 601.169
1719.1569 595.6395
1712.8728 596.10095
1714.7448 587.83105
1732.9198 587.5624
1762.8839 596.2678
1766.082 534.4244
1775.1459 535.34064
1781.031 531.7029
1787.9949 534.0294
1795.8364 533.4521
1803.8025 536.9106
1808.6382 535.1007
1805.5712 527.71
1802.711 522.4179
1801.574 516.635
1807.7019 519.6102
1811.8766 522.69977
1816.2311 523.60864
1814.2869 528.63153
1810.7828 530.36816
1814.5747 537.1993
1810.4116 543.1188
1812.4971 550.15436
1814.5986 557.2196
1814.0892 563.43744
1814.4856 570.8225
1815.8738 576.95734
1814.8221 583.01135
1816.003 590.083
1819.2126 596.8917
1813.0234 597.724
1817.7332 606.06274
1812.6311 607.3057
1816.1387 615.0602
1811.9601 621.5497
1821.3898 623.66815
1813.4966 629.8365
1819.2424 636.4141
1794.7329 650.1522
1814.267 664.33295
1803.3259 673.2085
1801.4519 681.3297
1800.1418 691.0019
1816.7958 688.7178
1832.7048 677.6832
1829.4034 694.93787
1831.6023 702.8937
1839.5599 700.0133
1840.9753 690.6982
1850.9597 689.42426
1850.366 697.3833
1855.0541 706.76624
1836.8539 717.4093
1829.3661 733.88635
1813.5496 727.0755
1813.0675 715.7954
1811.7148 700.15784
1803.3735 722.24896
1789.9836 727.72424
1781.8583 714.87494
1778.2943 720.30994
1768.1238 717.57556
1761.9006 726.9982
1771.6682 733.7634
1762.123 736.1429
1756.5862 741.52905
1747.6069 733.4458
1738.0443 723.24927
1743.0688 714.10223
1752.858 718.9405
1753.3271 706.3926
1753.5225 699.0877
1761.0817 698.62036
1763.599 705.93854
1768.5469 701.0315
1777.0568 699.2546
1776.8804 707.8958
1783.8967 703.2866
1790.2732 709.3221
1791.5815 695.533
1781.5657 684.20605
1777.9545 670.16675
1767.4209 690.8114
1756.7786 693.1346
1746.5278 693.8531
1754.6329 681.97614
1750.3445 676.7049
1745.313 676.8754
1742.0168 684.7456
1732.8413 688.58203
1734.4935 677.0232
1740.743 663.8627
1755.055 672.9216
1753.9458 664.993
1749.127 655.06964
1744.6868 636.0237
1732.3292 650.5361
1719.6305 663.29364
1712.6937 669.4385
1705.9797 666.17926
1701.0914 672.9778
1708.3245 677.77496
1717.1268 677.41907
1717.0731 687.2154
1721.5908 697.11646
1713.9297 698.53
1707.934 714.2613
1720.2264 727.26025
1703.9253 734.69
1690.2631 754.5956
1677.0508 763.69165
1661.9158 762.0252
1655.4746 783.80286
1663.9664 783.2393
1673.2437 783.0955
1683.809 783.49744
1695.6475 782.2051
1710.368 778.2673
1728.9594 782.9515
1729.3712 769.50226
1736.9553 765.75714
1735.0862 758.63135
1714.9619 751.89294
1732.6989 741.6455
1742.9175 751.26025
1747.4983 759.104
1750.8685 767.98865
1742.5054 771.73566
1746.6023 781.17523
1760.6779 783.3184
1763.4316 768.9643
1757.4507 755.6428
1776.2958 754.3124
1798.215 747.25244
1788.6804 782.2723
1812.9644 782.9515
1803.4053 766.64594
1819.3226 756.52924
1832.4316 753.6753
1847.2095 745.4075
1855.3314 753.4966
1823.9346 769.50037
1837.1228 782.9515
1848.0 770.31116
1864.4285 783.5861
1862.2781 760.90576
1869.3 748.0142
1867.9705 733.1812
1870.5906 706.36835
1865.929 694.9997
1859.4269 686.2475
1854.978 667.3751
1853.9255 662.17456
1859.8542 657.5793
1859.7871 650.09766
1852.242 657.1597
1844.6086 660.63007
1834.0476 663.7173
1829.137 655.50085
1832.8745 649.852
1823.1134 647.12537
1827.6202 639.8045
1836.1675 643.19305
1841.6047 653.01605
1844.9812 645.1536
1843.2015 637.30524
1842.4414 629.9947
1834.5176 634.2196
1826.2898 630.339
1833.3657 625.0383
1834.2593 617.9413
1826.5367 617.61676
1823.259 611.2537
1823.5673 603.91907
1830.8977 609.6866
1830.5315 602.0734
1826.2163 596.7803
1827.5247 590.2401
1821.9326 584.65094
1828.7817 581.72876
1823.384 576.9887
1828.1523 571.80334
1820.5681 571.2436
1818.7671 565.1376
1824.4963 566.2712
1828.0964 562.2685
1827.2255 555.9708
1830.2659 550.9892
1824.7073 549.1738
1821.3501 559.209
1819.3383 553.1728
1818.2289 547.5947
1817.8007 542.6254
1821.638 537.7603
1824.7982 542.60956
1830.3785 544.0773
1829.4679 536.65485
1823.962 532.1295
1818.2028 532.1902
1829.1757 529.0791
1830.6501 521.73615
1822.7163 522.2874
1820.0591 517.37714
1813.9749 516.6449
1808.9875 513.3347
1813.8674 508.48636
1818.7107 511.78342
1826.4319 514.6182
1832.7368 512.3175
1830.2095 503.36044
1823.5293 507.35052
1819.3157 501.01987
1811.6355 501.6881
1804.6697 501.42978
1806.1545 507.25122
1803.7673 512.17114
1799.4816 510.08545
1797.4133 505.26038
1794.6648 512.29297
1796.433 520.03784
1788.9915 514.1918
1783.9877 513.14087
1790.3513 519.18585
1785.3932 524.21063
1772.613 529.45764
1769.8679 523.32495
1767.3496 517.2796
1774.2595 517.67914
1779.9972 516.41266
1778.8163 508.79974
1772.3281 510.93195
1772.99 504.0241
1769.1213 499.37012
1766.6578 506.74472
1763.3795 511.88782
1757.2546 515.62256
1760.3738 521.45624
1764.1282 527.28595
1758.1327 532.735
1750.4677 531.2174
1753.5349 524.6163
1747.4767 520.28564
1744.0951 525.7734
1738.3511 520.99506
1743.2495 514.5315
1750.4946 514.2444
1743.8146 507.90714
1736.6904 514.416
1731.8127 517.5976
1728.0536 513.1754
1731.6708 508.83292
1737.249 506.75284
1732.4606 500.2864
1737.6653 497.68796
1743.5443 500.60315
1750.0781 497.52017
1756.4669 499.46664
1749.958 505.04
1755.2393 509.19583
1758.0701 504.66718
1763.2502 502.55908
1763.8226 497.2595
1759.401 491.34995
1754.4869 479.30902
1754.8125 470.1737
1766.5956 472.2932
1769.5656 460.85962
1771.402 450.9592
1762.8544 450.30133
1763.7189 443.63367
1772.6537 441.75113
1781.9258 435.0264
1776.9839 426.4798
1772.461 421.09958
1766.7417 417.57007
1765.0544 412.06143
1767.7216 406.9894
1773.3596 406.43466
1772.3094 413.52402
1777.5194 410.21912
1783.7275 410.4947
1778.8099 417.56842
1783.9607 422.37408
1784.1183 428.87946
1790.2324 433.53964
1792.8729 439.71448
1798.8469 432.65985
1799.3551 440.85785
1802.8586 448.39554
1799.9948 454.48657
1795.4678 447.33026
1788.0204 447.87094
1784.1196 441.48114
1781.297 450.63547
1787.3892 456.42648
1780.2516 459.99994
1778.366 467.8584
1778.6333 477.78525
1766.0509 479.93286
1767.1787 487.3042
1778.3204 484.88995
1774.3615 489.43033
1769.1564 492.77338
1775.0483 496.6644
1778.8242 501.3985
1783.6068 504.73364
1787.7393 508.52386
1789.3341 503.50107
1792.836 500.77048
1799.0515 499.55078
1789.6895 494.7861
1785.03 498.74454
1781.317 493.38208
1786.3549 488.6848
1786.9297 481.78885
1788.1772 474.00238
1782.6721 471.7484
1787.4701 464.66544
1798.2224 462.1804
1804.7731 462.4657
1811.0254 454.18613
1815.9333 458.56888
1810.3182 469.67786
1820.0104 465.43015
1826.0817 467.28436
1831.053 472.65152
1837.3167 475.68134
1842.1516 480.82562
1849.6063 485.44257
1858.7831 491.6148
1869.637 496.98456
1870.8279 486.3743
1869.814 477.4208
1861.7041 481.541
1854.5354 478.08
1851.522 471.8433
1845.1643 473.21298
1845.7468 465.14157
1839.0593 468.17313
1833.3114 465.39008
1839.2914 458.93256
1846.0743 450.83157
1846.9824 457.63547
1852.6748 460.38504
1854.5925 465.9013
1859.1771 471.0734
1864.7222 473.71732
1869.814 467.9584
1863.7246 464.49908
1860.2551 459.2825
1856.5817 454.57324
1866.5615 453.43018
1869.814 458.14932
1868.8777 447.99564
1868.0259 439.45953
1859.3608 447.6427
1852.4896 450.50464
1844.1289 442.6624
1851.3171 443.49628
1856.8555 439.98654
1851.05 433.39905
1844.802 435.6171
1841.6908 427.9172
1838.015 433.97968
1838.9519 449.35278
1832.074 453.91135
1829.9666 460.10577
1823.5669 458.78516
1821.0483 452.37228
1821.9247 446.11594
1829.8428 446.92056
1835.1414 440.75793
1826.3291 438.58145
1819.5798 432.98654
1824.6792 428.86734
1831.3896 431.40884
1835.4598 424.19025
1827.0791 421.76608
1832.3248 417.2664
1826.7385 412.89575
1820.3262 409.03958
1821.0688 401.71457
1827.3708 403.07062
1832.6841 408.6247
1838.2717 416.0164
1847.1384 425.48694
1843.1887 418.8471
1838.7301 409.01025
1833.4976 399.94098
1827.3359 392.95706
1822.3569 385.9544
1821.0514 377.56107
1814.2858 379.3846
1807.8896 375.19287
1802.283 370.9638
1801.5784 363.2955
1814.28 369.12357
1813.7521 360.51022
1807.6499 360.97955
1810.147 352.55945
1808.1719 346.54312
1808.7876 340.1112
1803.6211 335.82156
1794.9011 336.4655
1788.709 331.86282
1788.9879 340.3222
1793.5377 347.6075
1800.454 343.78763
1801.297 353.52072
1793.9316 356.56577
1793.7946 364.3747
1793.638 371.07196
1786.2295 369.23526
1776.7533 365.9036
1781.2505 363.8026
1786.3073 360.39206
1785.9319 353.54514
1784.4104 347.57172
1781.0883 342.29303
1780.9695 335.215
1775.4187 337.8441
1769.3984 337.94336
1771.415 344.1372
1770.7147 350.93506
1777.146 349.2982
1776.8618 356.6779
1771.8665 362.0723
1767.398 358.8226
1766.2091 354.0051
1763.8927 347.77026
1763.552 341.3636
1756.8123 344.0897
1757.0347 349.5872
1759.9409 354.80667
1759.2352 360.3211
1763.7441 363.59097
1766.0347 368.5471
1771.689 368.73895
1771.0115 374.57117
1777.0219 372.93842
1781.8818 374.9673
1787.9897 378.3988
1793.3403 377.06607
1797.5493 379.3112
1798.2019 387.76526
1796.169 394.46558
1789.4573 393.20215
1792.5645 385.74295
1786.5552 386.48224
1782.2638 381.2275
1776.8365 382.68045
1771.4524 380.85773
1765.6886 377.10358
1760.3837 372.85382
1757.7288 367.46967
1753.6863 362.73068
1748.1487 360.51523
1741.8094 360.53162
1745.2908 354.66745
1752.5599 354.98526
1750.0339 347.5958
1742.9974 349.06863
1735.1936 350.75436
1737.278 355.31555
1739.7089 366.17154
1742.6194 371.30545
1747.9603 367.2557
1752.4258 372.91144
1740.5394 376.92447
1735.0083 375.06317
1734.2631 381.68698
1734.6692 388.27304
1729.1053 388.6491
1727.1228 384.1702
1727.1223 379.31885
1721.0591 383.6692
1718.3591 378.79135
1713.2928 383.33624
1710.6731 377.4483
1703.6027 377.75858
1697.3206 378.444
1694.9528 384.7888
1699.991 386.29974
1703.2776 391.54465
1706.6008 384.6189
1711.547 390.15604
1717.8928 388.8699
1723.0305 391.43207
1728.2222 394.8483
1729.9711 401.19568
1734.9071 396.60153
1739.6095 391.35522
1743.3154 395.66153
1747.6987 387.7018
1741.532 384.14166
1747.097 378.2561
1753.3427 381.65643
1759.3367 379.4994
1763.9077 385.09576
1771.9706 387.88742
1779.8359 388.0464
1778.0983 394.06616
1783.4294 392.94592
1784.7528 398.85175
1791.601 400.0763
1798.4193 402.04904
1805.0055 404.07275
1810.5132 399.52316
1810.7122 393.6892
1803.5073 396.67603
1803.6938 390.23502
1801.9172 380.87296
1806.5562 383.05536
1810.0332 386.87137
1815.549 388.6123
1818.861 395.38077
1814.2814 404.46725
1809.7958 410.08197
1801.8413 410.6499
1793.5679 406.6021
1795.1165 413.08875
1800.2075 418.15897
1807.1055 418.95914
1812.7965 416.16943
1819.4717 415.45975
1820.0725 421.9991
1814.9153 424.516
1813.4785 430.7259
1812.1962 437.66022
1818.6755 439.92676
1814.4767 445.14758
1810.2024 448.6922
1806.8218 442.91022
1804.3633 437.42142
1806.8578 432.5405
1808.1846 426.29935
1802.2196 425.26382
1796.263 426.26535
1790.3018 426.11728
1793.2181 419.92648
1788.15 416.64102
1788.9677 410.74796
1785.8961 404.6943
1778.8904 402.2357
1771.3574 401.02005
1763.9111 402.03867
1760.2716 407.7513
1754.7737 403.93613
1758.3745 397.79062
1766.6251 396.57068
1762.4253 391.90106
1756.0264 388.91336
1751.2542 394.25827
1749.9158 400.19186
1746.7926 406.698
1743.9137 401.65454
1738.2404 403.2245
1739.3528 409.91937
1739.3998 415.61707
1743.5312 418.98825
1748.5182 419.07642
1746.5887 412.48163
1753.6617 411.15717
1759.6942 416.27286
1754.1183 419.18607
1758.3092 425.33652
1764.9381 423.9687
1770.2092 430.37164
1763.6555 433.84164
1755.1182 432.2067
1749.8768 426.0576
1741.6702 426.47083
1745.9507 432.65393
1754.4558 442.47134
1748.8605 446.97754
1740.6086 443.7816
1738.0936 437.79025
1731.738 441.93134
1725.6344 446.77142
1721.4513 440.3701
1726.8494 435.26096
1732.81 434.2012
1729.5419 428.2056
1728.4934 422.5128
1737.3425 421.4749
1730.6102 416.17926
1731.175 411.1347
1732.0878 406.2358
1725.1394 407.3494
1725.559 416.39594
1715.9874 421.6328
1714.4967 412.50873
1708.6257 416.85883
1709.666 423.81738
1717.4414 430.9247
1713.6365 439.7167
1716.3352 447.53015
1714.9135 455.19284
1720.8901 453.64868
1722.4855 459.67828
1728.4474 454.13727
1734.5265 450.2221
1742.6187 451.94296
1739.5574 459.19205
1749.6143 457.194
1755.7239 452.1294
1756.5396 462.0169
1746.3141 465.2307
1746.3212 474.87534
1746.7264 483.85022
1751.848 488.70355
1745.4468 492.60324
1739.7515 490.8388
1739.3055 483.07535
1737.2844 476.12866
1738.1653 468.8052
1733.2261 460.98947
1727.2273 461.63782
1730.0924 467.63263
1729.1484 473.301
1722.8461 467.32678
1719.4352 471.9579
1717.5616 477.1341
1711.1553 472.81406
1715.0443 467.77066
1717.5066 462.14874
1711.7346 461.45258
1705.1208 462.33884
1700.1272 465.75793
1699.6475 458.24396
1705.0059 455.23837
1700.1528 450.14142
1706.1302 444.55225
1705.564 437.11282
1710.9873 431.71252
1704.828 428.69064
1697.5575 425.568
1698.7705 431.88895
1692.2258 435.28705
1698.5792 438.23666
1696.4045 443.84006
1691.1111 448.67996
1684.6123 451.8498
1688.1838 458.17078
1694.0658 455.63556
1694.6553 463.31552
1687.7227 464.83386
1692.8005 469.3376
1694.534 474.5831
1689.2936 476.17642
1686.4941 471.50345
1680.2739 465.43848
1680.7596 471.3401
1676.3503 476.0727
1668.7626 475.26605
1670.6194 481.89847
1665.6442 487.28873
1670.3505 493.7499
1674.0972 498.43777
1667.9983 500.71362
1664.281 497.52194
1664.902 492.2188
1659.344 494.38486
1658.1318 487.93286
1662.4152 481.76102
1658.9989 475.7706
1662.9489 470.44638
1666.7179 464.79807
1673.1964 468.1881
1681.0087 459.45383
1676.5454 454.39044
1672.7776 459.89816
1665.9126 457.13397
1665.1138 450.7067
1663.7064 445.0205
1671.2262 449.27698
1678.2302 448.6117
1675.3743 442.4314
1681.9371 443.92773
1687.5339 441.18842
1679.9287 436.58142
1672.755 434.89532
1670.1067 441.0553
1664.3541 439.33878
1659.1296 435.33585
1657.4591 428.37683
1667.1674 432.52625
1673.7362 428.7974
1673.9741 419.76
1682.2083 418.05777
1684.3337 424.77216
1690.9916 427.57275
1692.821 419.65485
1688.2004 413.98563
1680.9962 408.92148
1675.0138 413.2812
1667.5548 412.67218
1671.7197 406.02707
1676.998 401.43402
1665.6501 402.31076
1660.3145 397.99875
1666.8872 392.0613
1670.6244 396.88467
1677.4961 393.81396
1673.508 387.56046
1679.4436 386.19943
1684.9906 385.21045
1683.8704 390.50717
1685.2825 395.4448
1683.7693 400.9181
1688.6992 406.4155
1691.6962 399.15875
1696.1812 404.46094
1695.8784 411.26917
1700.4935 415.80212
1702.3073 421.64587
1705.448 410.33624
1710.742 405.03253
1721.9509 399.97995
1715.8206 396.39343
1705.2762 397.96933
1703.053 404.22742
1699.0234 397.7093
1696.1277 392.1973
1690.4866 392.80722
1690.3738 387.75244
1689.6766 382.61484
1686.4232 378.544
1681.939 379.6229
1676.1378 380.1782
1678.9519 374.3123
1685.6262 372.40396
1691.2957 377.26184
1693.9735 371.8019
1701.4559 369.8217
1697.1765 364.10858
1690.5211 365.98676
1684.0471 365.56015
1678.1708 368.8897
1677.2954 363.87234
1681.9327 358.00015
1688.72 359.08862
1694.1069 356.2072
1682.4105 350.70764
1688.9197 350.6443
1696.2845 348.55032
1699.6757 353.26205
1701.8706 359.0287
1707.5642 362.13092
1707.8416 370.25247
1713.8982 371.71097
1718.5703 373.51343
1723.6531 374.4357
1728.7222 374.36264
1731.1688 370.4252
1733.6368 366.5642
1734.5322 360.75336
1727.1746 361.62723
1729.1011 356.03827
1726.6211 349.96503
1716.0278 342.94257
1708.5972 343.13068
1712.9736 348.97742
1720.1365 349.3486
1714.9028 357.48273
1721.0103 358.66913
1725.6511 366.7652
1720.5034 367.90997
1714.4907 364.95288
1709.7208 354.56995
1705.3156 350.67816
1701.3955 345.17566
1703.7188 338.61642
1696.5918 339.74536
1691.5461 344.8983
1688.8264 339.15314
1683.152 342.24402
1675.9417 339.58636
1675.5957 346.66766
1674.6143 352.79358
1675.1284 358.51602
1670.9016 362.2567
1669.664 367.75906
1673.0559 371.85666
1670.2295 375.78476
1669.9341 380.83365
1667.3322 385.2958
1662.0983 387.36835
1657.666 390.411
1654.0472 395.0797
1650.2441 397.93738
1652.142 404.70905
1653.9961 411.71066
1660.1504 407.0104
1662.1724 415.8659
1662.675 422.44983
1655.2025 418.5543
1651.7747 424.01
1643.8483 423.5799
1641.9087 416.987
1648.0079 417.11536
1645.5646 410.41983
1637.5911 412.30994
1631.1432 412.6966
1627.9703 407.018
1624.3933 401.13815
1626.4922 394.36374
1619.3171 394.47003
1620.3555 386.77814
1628.1313 386.4022
1624.249 380.008
1630.2252 376.14276
1624.3009 371.85794
1618.9333 367.95605
1620.8722 361.8065
1626.6461 363.2219
1631.9517 367.72192
1632.0608 357.73395
1638.2985 352.7594
1644.1263 358.2918
1639.4525 364.76035
1637.7311 373.34998
1645.1333 372.51477
1648.9963 365.42108
1654.9426 373.2127
1649.4167 378.74844
1643.243 383.11038
1635.8838 380.56274
1636.7726 387.5986
1633.194 392.46292
1632.7936 399.35278
1634.988 405.43707
1641.8171 405.0617
1645.4441 400.20364
1639.6077 396.69955
1644.9592 391.4111
1651.1106 386.8269
1656.9851 381.5213
1663.04 378.87216
1663.4902 372.19254
1663.4268 365.49014
1656.9292 366.51123
1659.5806 359.30978
1665.5999 360.2122
1668.1641 355.28714
1667.0063 348.75232
1669.3306 342.66333
1666.4441 338.25458
1661.7418 343.86502
1658.5829 338.7832
1652.2983 341.77658
1656.1708 347.7765
1661.1152 352.97284
1653.1565 359.23065
1652.1732 353.2262
1646.5386 349.53458
1644.6981 342.57486
1636.5414 344.98166
1628.108 349.03275
1621.1733 354.20425
1614.9958 360.35565
1611.6211 356.0185
1604.4463 355.83755
1602.9095 360.4771
1597.0193 356.8097
1598.3162 363.6183
1607.6677 363.58594
1612.4723 367.97287
1617.0961 374.54263
1616.4934 380.50107
1610.9332 382.8129
1613.7292 388.48697
1612.6307 393.92575
1617.0333 402.1932
1620.8837 408.3077
1620.6726 414.25516
1625.9033 416.26526
1630.6016 419.1721
1633.8203 422.6268
1637.7769 420.3903
1638.712 428.81146
1631.9196 433.01416
1632.1945 427.23047
1626.3662 425.7932
1620.3925 424.93542
1621.3024 420.01257
1615.7684 423.066
1613.6951 419.28528
1615.0767 413.67093
1611.8802 407.8142
1608.9143 414.82498
1603.9731 411.14847
1598.3842 406.89288
1605.3004 404.1211
1610.9412 399.89023
1602.9011 398.3705
1596.0806 398.0565
1592.2797 404.18945
1585.5365 403.85672
1586.5402 398.20047
1588.7847 392.8269
1595.2804 390.72687
1591.5459 383.82486
1598.6172 385.04657
1601.6091 391.59503
1607.1722 393.81494
1606.4203 387.13934
1602.9167 381.82104
1605.7979 377.98346
1610.1533 374.68365
1604.4543 370.29004
1597.3262 369.9926
1597.9816 377.31006
1591.2585 375.55545
1584.9028 372.17117
1589.3309 367.41223
1591.6583 362.4818
1590.2446 356.36282
1584.31 358.83215
1580.7437 352.9578
1576.0363 359.047
1581.5127 365.4714
1574.791 367.83862
1577.8058 374.34296
1570.9309 377.808
1564.5355 382.0818
1560.7976 375.7165
1567.3754 370.61472
1569.1063 363.36783
1567.136 357.33057
1572.9717 351.74338
1568.9648 345.79105
1567.3695 339.222
1577.8865 344.71478
1584.0074 336.89105
1579.3949 337.17075
1574.0503 338.06754
1570.3811 332.29126
1564.197 330.99026
1567.9568 325.3849
1571.8289 319.85565
1575.4895 325.15735
1580.2126 319.6092
1579.7266 309.8161
1571.1893 313.37997
1572.856 305.8512
1576.5077 298.84073
1569.6606 296.28183
1564.6796 293.10602
1560.9167 288.80945
1561.2062 282.799
1569.9379 290.2746
1576.9843 289.1489
1568.872 283.08804
1570.5215 267.9259
1560.1387 275.7302
1554.7976 285.2037
1552.9407 291.32053
1547.873 287.63406
1542.0637 287.64462
1545.3756 295.05795
1551.5566 297.99854
1556.4617 302.7595
1558.0896 295.5727
1562.9897 299.1273
1565.1304 304.109
1564.7311 308.7301
1565.0571 313.74686
1564.4628 319.22418
1561.6001 324.99304
1555.911 325.83313
1551.5188 330.16476
1557.3495 332.31003
1561.0262 336.84595
1559.8678 343.1423
1551.162 344.52847
1552.3497 337.688
1545.8756 334.3452
1538.9192 334.66055
1544.7623 328.30307
1548.619 323.90625
1552.0139 319.58234
1557.6711 319.78195
1559.1595 314.17914
1557.2994 308.61063
1552.0496 313.88934
1550.3492 308.15427
1543.3533 309.6635
1547.0883 302.89627
1540.8505 301.27045
1539.0885 292.8758
1533.8547 291.53055
1527.0125 288.64728
1528.4661 282.36414
1530.8461 276.25058
1535.5718 284.37213
1539.4734 278.7309
1545.685 281.979
1552.2114 280.57907
1546.619 276.68616
1544.2559 263.65088
1536.4172 269.60037
1528.1343 268.4504
1520.2375 266.5441
1522.4012 261.11407
1518.259 254.1689
1513.6193 258.91888
1508.5145 264.10547
1514.1193 267.00436
1512.489 273.3917
1521.0985 274.02356
1521.198 282.0326
1514.2161 281.4166
1507.302 283.61945
1500.9163 289.1607
1494.2759 288.5938
1492.8945 297.51492
1491.1624 306.4577
1499.7931 299.9992
1500.6084 306.74075
1504.2499 311.73682
1504.3284 316.81805
1507.9429 319.68777
1499.235 319.51996
1496.3904 313.1679
1487.6952 314.5771
1492.553 319.92087
1494.6418 326.12653
1486.3905 324.34564
1487.5082 331.24268
1479.8243 329.22583
1481.6812 336.4368
1484.5571 342.59216
1489.8325 347.75378
1482.3176 348.5996
1475.1074 347.61316
1470.4639 351.92636
1467.4014 344.56665
1461.0452 339.64636
1458.985 346.31357
1452.2528 340.52554
1451.2462 348.6543
1449.2981 356.60858
1451.0609 363.09464
1445.1951 365.1883
1437.8481 364.4617
1439.1335 358.48825
1443.5245 355.462
1443.5393 348.54483
1436.2155 349.6421
1436.47 341.61337
1445.2086 342.01355
1443.5985 334.91354
1434.4435 333.1526
1440.4491 326.26392
1447.2836 327.48923
1452.6221 330.9967
1456.506 335.2956
1467.7521 337.07562
1475.9916 341.42444
1474.172 334.44824
1468.5724 329.2989
1473.9702 324.99548
1471.9513 317.63913
1480.4235 319.18076
1480.3953 309.1992
1475.261 299.61743
1484.0519 300.6739
1485.642 292.66638
1479.2645 289.88107
1471.5677 292.63812
1466.1697 288.58636
1461.6947 284.80746
1452.0933 280.9469
1452.2294 274.931
1458.3578 278.28976
1464.9849 279.59375
1470.5686 278.78278
1468.2212 272.56094
1462.6229 271.90863
1457.8077 269.07095
1451.9944 262.04123
1447.5262 255.4642
1443.9059 261.1843
1438.2675 256.09558
1437.067 262.16983
1434.5886 267.83627
1430.6267 263.1004
1427.4564 258.91302
1420.7693 257.83505
1422.7112 265.79404
1427.7714 270.75143
1433.8982 273.76053
1440.2002 272.5699
1441.4843 266.77066
1446.5709 269.2041
1452.1067 268.86496
1445.6332 276.69266
1438.8475 279.19067
1430.1663 278.36
1422.9136 280.26416
1421.0498 273.5512
1414.1512 269.2952
1415.5741 263.26974
1411.9874 258.4493
1404.8801 256.1235
1405.221 248.4122
1410.6111 251.1035
1411.094 244.43967
1414.9261 239.01709
1417.4634 246.54684
1426.6935 252.99313
1433.0658 253.95332
1431.5435 247.18262
1438.1581 246.37645
1442.9017 250.38235
1449.5392 245.2483
1457.807 242.09142
1443.4678 239.84824
1447.1716 233.83821
1455.3413 232.8911
1448.7686 226.61494
1447.1165 219.22447
1454.8596 222.33038
1462.2404 225.91512
1464.4558 234.65883
1469.0659 242.63188
1473.1445 251.11006
1468.9783 257.21292
1463.531 250.454
1455.1792 252.9046
1460.2972 260.48175
1466.3618 264.8367
1475.8809 259.78168
1472.9768 264.95764
1473.4624 271.37183
1479.1367 267.89178
1481.3816 262.11624
1485.7338 258.83044
1494.0262 260.05942
1490.3854 264.35205
1484.7072 267.06314
1489.2028 270.68546
1484.1824 274.731
1478.3195 274.16846
1475.9609 279.80026
1472.8492 285.2043
1481.0355 281.15076
1486.4507 283.74234
1494.4973 282.0519
1490.6201 277.04932
1495.9441 271.507
1500.3185 279.0208
1505.983 274.8969
1503.3268 268.92654
1498.8068 264.26086
1498.5374 255.80583
1504.7485 258.98096
1505.5266 251.85709
1511.5979 250.8137
1518.4333 247.22523
1503.4138 243.06715
1499.5757 248.5154
1495.6562 241.16542
1495.6813 232.1134
1491.1655 225.01544
1489.2913 230.21964
1489.852 235.69173
1486.9149 240.08199
1484.0447 244.77023
1490.1259 246.46892
1494.0708 250.46783
1489.9739 254.98616
1484.622 251.19177
1479.6764 254.93555
1478.1135 247.1918
1477.7349 240.52098
1481.626 234.7294
1481.1101 228.65285
1472.9835 233.93097
1471.7749 225.99454
1476.9282 216.67323
1479.0555 222.65668
1485.9515 221.38533
1486.9811 215.1352
1493.9277 217.17476
1496.4377 207.34149
1486.5573 209.48398
1477.3823 210.45126
1469.361 212.61462
1467.997 219.52203
1460.7804 215.61565
1453.5298 214.28485
1447.9077 211.47624
1442.5151 208.84856
1444.7167 200.27982
1440.032 199.17204
1437.8828 193.67722
1444.7461 192.90337
1443.3105 187.04924
1453.5472 185.21646
1448.0504 183.54314
1443.9219 177.77382
1438.4778 171.16733
1436.2189 163.48895
1431.2804 166.84454
1431.1239 173.02504
1436.6279 177.34479
1438.3804 183.34882
1434.5295 189.13766
1431.4028 183.32532
1428.8004 177.9578
1424.5342 182.45047
1427.6927 188.77774
1421.9637 191.26207
1419.9446 186.83774
1411.4794 188.26926
1405.0454 187.8944
1411.0266 193.34904
1417.2499 194.77563
1422.4824 200.5754
1425.278 195.34547
1430.8048 195.99118
1434.1396 200.74478
1439.4725 205.23636
1433.384 206.92793
1435.5509 212.96558
1442.1616 214.63107
1438.6401 219.3763
1441.1216 225.7055
1438.8298 232.65633
1432.7758 229.97554
1430.2286 235.01381
1434.9961 240.01239
1425.5913 238.33295
1420.5442 240.19896
1419.9875 234.37347
1412.595 231.87222
1406.3921 226.40218
1403.4684 232.79677
1408.0425 238.39702
1401.7686 242.81766
1397.4741 236.36758
1394.9891 229.21022
1399.9908 222.55972
1404.6667 217.64574
1409.7994 211.11394
1411.7625 219.18712
1414.4946 224.25014
1419.3579 227.10031
1427.1049 225.5156
1433.5455 223.36766
1429.3983 217.6773
1421.4811 219.56625
1428.1306 211.1836
1427.1353 204.39716
1421.824 211.66399
1415.546 212.27716
1417.3699 204.95415
1412.2529 200.94621
1405.0867 203.8342
1406.0913 196.36333
1400.0531 196.60358
1394.5286 191.47302
1399.3617 188.41296
1396.3116 182.60966
1392.045 175.90767
1387.9529 168.7327
1387.9476 179.22751
1390.2573 186.28876
1389.1079 194.19292
1392.694 197.91371
1394.9885 202.80202
1398.121 208.30775
1403.322 211.07245
1391.8267 210.65909
1394.8427 216.04832
1392.5896 222.39407
1387.2175 216.72917
1383.9386 221.8943
1387.1957 227.92201
1381.8743 231.12277
1376.9749 224.08124
1374.336 230.25928
1367.7637 231.90833
1370.6235 238.09319
1370.642 245.07869
1370.809 252.24496
1363.7584 255.78421
1358.5576 261.63596
1352.5645 266.52524
1352.5756 272.31305
1358.6127 275.5474
1361.5994 281.36728
1363.5658 286.78873
1364.0623 295.82584
1368.6141 301.12643
1365.596 308.43512
1364.0092 314.86066
1358.3921 311.37225
1359.9219 304.05698
1356.3108 298.43808
1356.8494 291.1712
1355.7286 284.46555
1351.5116 279.23972
1344.4432 274.21524
1335.779 280.5683
1341.3762 280.96933
1347.0055 284.0913
1349.1589 289.60025
1350.5809 295.8569
1346.721 300.777
1351.8716 304.63626
1352.1047 310.49362
1358.5983 318.57407
1354.2793 322.7727
1351.1029 316.6129
1344.2886 315.09586
1344.954 307.7668
1338.6892 304.40863
1340.0424 299.23856
1336.5026 294.3122
1343.9082 294.23953
1340.0996 288.3841
1332.0804 287.6657
1329.9169 295.03964
1333.1111 300.88666
1328.8331 303.64148
1332.7113 309.1563
1338.7794 310.6853
1335.9257 316.7667
1340.2487 322.90247
1346.5011 323.5583
1350.327 328.6378
1356.9515 329.90198
1361.8389 326.0567
1365.8494 321.14432
1370.8629 317.8086
1370.753 312.02704
1375.66 309.19232
1377.804 315.60895
1384.4756 313.60345
1381.1454 309.17984
1388.3788 307.52536
1391.1459 312.355
1395.684 308.86212
1395.7544 302.1081
1390.3677 300.85083
1382.7517 303.86258
1385.1826 298.68622
1388.5753 293.2351
1394.9518 292.7424
1397.1906 283.63635
1387.8575 284.5434
1389.2761 276.57175
1391.7738 267.23697
1380.447 267.26163
1380.4071 278.5554
1368.8655 284.48398
1366.01 276.93665
1371.0385 272.22885
1362.0945 268.9743
1369.0133 265.32504
1373.416 260.37985
1380.0814 257.11343
1387.5066 260.83005
1387.7463 253.72612
1379.48 248.10022
1378.6792 238.14566
1389.49 235.87405
1385.0735 241.975
1389.9297 248.33784
1394.3137 243.5474
1398.225 251.57031
1396.2535 258.84457
1397.7483 266.50278
1405.8289 263.09616
1403.8417 269.2944
1397.8895 275.26172
1405.9219 281.59113
1407.6436 273.7579
1414.1482 277.50717
1415.9573 284.14246
1409.5519 289.27188
1402.3723 290.51544
1400.3654 298.23056
1401.7087 306.8594
1408.1837 306.9221
1406.4503 299.25223
1414.1046 302.16022
1415.0194 307.62738
1420.7717 301.18753
1412.5259 296.37888
1416.8264 291.467
1421.8032 295.40573
1427.1606 298.4335
1433.0371 299.01898
1437.2578 303.47708
1436.5038 311.04697
1447.1992 313.20337
1443.884 307.0117
1444.5017 299.3459
1452.1487 302.94687
1452.3595 295.15747
1444.7825 292.28812
1437.3534 293.82153
1429.9265 291.7843
1423.0894 288.30844
1428.9438 284.86813
1435.3295 285.21573
1441.0631 286.95303
1445.8608 283.20966
1450.2208 287.93842
1455.8873 285.94803
1458.422 291.77475
1463.6255 296.23935
1467.5602 303.98904
1470.9138 310.34344
1460.1404 303.18042
1455.4503 310.77603
1461.8357 315.0786
1464.2839 322.82977
1461.5223 330.63284
1455.679 322.7205
1448.9875 319.68497
1440.9929 317.90854
1434.4645 318.546
1432.9341 325.57486
1428.8295 317.1571
1429.1931 311.1864
1428.9911 305.1627
1422.2466 306.621
1420.9225 311.57172
1423.6051 315.3494
1421.7665 321.21323
1427.0538 322.48508
1424.8585 328.4768
1425.3552 334.94708
1427.7277 341.2281
1427.7902 348.36407
1427.1788 355.78076
1433.1218 355.1579
1431.9102 360.95914
1426.5896 363.1035
1429.9198 366.23972
1433.1655 369.47842
1437.1378 372.71786
1442.3505 371.425
1441.0347 380.83197
1444.3114 389.109
1447.7424 395.92383
1454.5728 396.39398
1455.3713 389.6855
1463.1199 386.31088
1457.3716 382.52197
1454.1992 376.98944
1449.4805 383.84918
1447.2001 375.69092
1452.6698 370.22913
1457.652 365.82544
1456.9062 359.19492
1456.1377 353.4664
1463.3564 352.5142
1469.3628 358.54913
1473.593 363.5389
1463.2026 360.57495
1464.558 366.99496
1469.3978 371.3873
1460.7762 373.48724
1464.3654 378.7126
1469.2258 381.42728
1474.0526 378.4952
1476.4722 373.70023
1479.3586 368.2121
1484.064 375.6365
1487.9905 367.78964
1494.0165 362.523
1482.6661 361.17664
1478.0225 355.13098
1487.3695 355.3817
1494.4119 353.7127
1497.4818 347.2923
1492.6306 342.46063
1488.9985 337.6499
1496.2025 339.3414
1499.2837 335.66544
1494.1385 332.52783
1501.0403 329.92627
1502.0032 324.3929
1507.9111 324.21494
1514.0286 320.82993
1511.2733 314.37607
1509.9642 307.04358
1517.0837 311.5052
1523.9916 309.10175
1528.0372 303.38965
1518.2241 301.99615
1510.38 299.86166
1506.0713 293.60742
1513.3776 291.21808
1519.8223 290.90677
1523.8076 296.67456
1530.0216 295.72192
1534.909 300.1218
1535.3728 307.89627
1530.2435 313.783
1533.6012 320.40027
1538.9343 315.61703
1545.3342 317.8638
1539.5791 324.96277
1532.7794 328.0226
1531.6328 335.01477
1524.5472 329.74152
1526.4794 322.89807
1522.0898 317.51343
1518.189 325.1293
1516.0186 331.72366
1508.8984 328.50238
1510.1547 334.05246
1504.7075 335.2565
1509.921 341.21155
1502.4618 341.21588
1503.1321 347.27008
1507.9071 349.22348
1513.625 351.608
1516.7219 345.6853
1516.4884 339.43137
1522.0483 335.9664
1524.1312 342.27203
1527.2429 348.12747
1533.716 342.38715
1538.4907 346.215
1543.8898 340.98615
1544.605 348.901
1544.2242 355.8163
1543.5188 363.47812
1550.1191 366.42746
1552.1926 360.29324
1551.456 353.28
1556.7817 349.75763
1563.4341 351.2004
1559.755 359.25446
1559.596 367.22314
1552.6317 372.20566
1552.7754 378.61075
1545.193 378.08926
1545.1635 385.10364
1549.003 391.64008
1554.4706 394.9188
1554.8054 384.50974
1560.5773 388.5912
1566.2941 393.81046
1560.7086 396.73132
1554.6975 401.99667
1552.6791 407.9692
1556.1028 414.0179
1547.3116 411.99023
1542.88 417.7378
1536.4131 417.0766
1533.0641 426.05396
1528.6433 421.00427
1525.0382 415.425
1519.2034 416.23413
1519.8875 423.61197
1517.524 430.9774
1510.8502 429.22623
1510.9088 423.30905
1504.705 421.3561
1500.7578 424.98544
1504.467 428.6456
1508.7017 434.70914
1514.3356 439.55615
1513.43 446.22485
1508.0718 440.80338
1505.201 446.92783
1502.024 441.13022
1502.134 434.5727
1496.4344 437.41562
1496.381 444.5904
1490.0682 439.07968
1484.0149 443.21335
1480.8892 449.94647
1480.7784 459.23032
1474.5958 455.22458
1468.3661 451.70587
1474.4004 446.275
1477.6375 438.10788
1483.9142 434.10785
1491.9426 431.8142
1497.8479 430.5003
1496.107 425.06934
1491.5604 424.05133
1487.3336 419.02063
1481.6373 415.39154
1481.0886 408.14667
1487.3259 407.1245
1491.182 412.62115
1494.2144 417.81116
1499.0515 419.73895
1500.919 414.80118
1499.2253 409.65878
1494.7406 406.25443
1495.4312 400.1838
1502.6749 401.78433
1510.2983 406.3677
1505.442 408.62344
1507.4666 415.22885
1513.1018 417.23477
1515.8508 410.65735
1523.1632 407.54312
1531.0667 411.47122
1531.7703 404.18155
1539.3961 407.06076
1546.9519 401.80942
1541.094 397.45703
1539.2029 389.83966
1533.2373 396.0979
1525.6792 393.81467
1526.2539 400.49005
1516.366 404.18558
1519.917 399.3061
1518.5178 393.07614
1518.021 386.93237
1520.4355 380.80212
1526.9153 380.2211
1525.179 387.1912
1531.827 387.43665
1536.0387 381.84528
1537.4769 375.90115
1543.9896 371.4715
1538.0302 368.99854
1531.596 369.22006
1529.5471 375.12143
1524.6501 369.77307
1519.3613 374.38113
1513.5507 380.8149
1508.2261 374.6999
1514.026 370.69464
1510.3491 365.40524
1519.7594 365.12802
1521.0527 358.05795
1527.8885 362.572
1534.815 363.02332
1537.702 357.8585
1534.1776 352.0633
1527.7654 355.8256
1520.7776 351.23947
1514.8258 359.21213
1508.2675 357.17978
1501.0808 355.98038
1503.0964 364.1621
1499.7946 370.72766
1492.9312 375.29095
1500.7112 379.02835
1506.6359 382.73703
1510.3312 387.90274
1512.0538 393.03036
1512.0356 399.30832
1506.0493 395.73126
1499.4454 393.634
1502.3168 387.8713
1494.7948 385.19357
1487.7112 382.28464
1486.6926 389.21964
1492.8115 393.41153
1488.1844 399.9419
1484.0549 395.1783
1479.4927 400.29187
1475.4581 406.0669
1474.1464 415.40823
1480.6362 423.51303
1486.622 427.64648
1476.1416 430.0067
1471.3436 423.53143
1468.0878 434.02704
1470.8837 439.94135
1465.5386 444.1554
1460.206 438.8831
1458.9829 446.9728
1462.2593 453.645
1463.5468 459.6815
1462.8689 466.27414
1467.9442 471.35736
1460.3993 473.49915
1456.7228 480.03925
1455.9635 485.98022
1461.653 489.85815
1456.2139 492.55182
1450.2362 490.60205
1443.7714 489.29385
1436.8011 491.5361
1429.7604 485.93
1433.3386 479.93686
1440.0999 482.30673
1448.8002 482.4059
1452.3613 474.68222
1454.917 467.95102
1448.5004 465.11005
1442.2733 468.14548
1445.0195 474.9387
1436.1595 472.30008
1427.9268 475.58438
1427.8674 467.50992
1430.9688 461.45306
1422.2114 461.07336
1415.0107 456.40256
1410.2449 452.27066
1415.0253 446.69333
1420.8763 452.03677
1428.4961 452.79224
1435.875 456.8183
1438.1553 463.24966
1437.27 451.7426
1444.7808 451.52762
1443.8875 458.7541
1449.9071 456.21008
1455.6296 460.6638
1455.7894 453.35495
1451.1133 448.52832
1452.3445 442.54117
1452.3274 436.92612
1457.0446 431.54572
1464.2017 428.81955
1457.2438 424.3074
1463.003 421.20374
1466.1509 415.4136
1464.4147 407.46548
1470.2445 407.8271
1469.747 399.80704
1473.468 394.46542
1478.8411 391.2696
1479.7307 383.5185
1472.839 386.48346
1468.0221 390.77606
1462.6475 394.244
1461.9578 400.89932
1455.6976 403.4237
1452.6323 408.81805
1459.2413 411.50687
1454.7103 416.92206
1448.287 412.76352
1445.1421 418.40158
1444.4106 425.32205
1450.9447 423.81354
1448.3179 431.9579
1440.3647 430.55258
1441.0144 438.00723
1445.6122 443.18192
1439.926 446.16653
1433.0446 444.99954
1431.4404 438.10754
1424.1295 433.13477
1424.4413 443.8682
1417.4662 439.2259
1415.0084 431.32617
1421.828 423.68518
1423.2975 414.76392
1430.4563 417.72354
1430.5537 425.53372
1433.4379 431.6714
1437.7308 422.23456
1437.6616 414.93777
1442.296 410.25827
1447.2957 403.5159
1439.746 404.01465
1440.193 395.99216
1432.716 392.93842
1435.0564 386.19376
1433.0193 377.9764
1427.5685 372.64502
1426.5873 381.51282
1424.8867 388.96606
1421.0803 395.78088
1426.9875 399.3952
1433.5426 400.97644
1432.8237 409.0935
1424.8547 407.11603
1417.5305 404.1988
1413.9188 412.74393
1412.2406 420.99884
1407.3785 427.21494
1405.8623 435.032
1409.7594 441.26404
1402.9507 442.26642
1405.7373 447.64548
1403.1558 452.33908
1404.6548 457.5732
1408.103 460.92447
1414.2424 463.06042
1416.5317 468.81433
1421.2225 472.54306
1420.381 480.27502
1412.1355 476.00583
1408.7931 468.66046
1404.025 478.40768
1396.2977 482.17844
1387.5677 485.46133
1383.1594 492.38715
1375.5763 489.35867
1370.6807 496.8339
1377.2319 498.59354
1380.968 503.68817
1386.6729 499.59912
1392.5361 493.47473
1400.8873 488.7912
1410.6461 484.59726
1413.4922 491.57925
1407.015 495.12524
1399.568 498.23257
1393.5359 503.58304
1386.9277 507.36697
1380.5272 515.53876
1386.121 514.781
1391.7716 512.35315
1396.9163 515.44214
1400.7659 519.02325
1404.6348 522.7615
1400.7476 525.9887
1394.9761 524.07874
1390.309 521.5376
1384.739 521.64795
1379.3556 520.52924
1373.9862 519.6379
1367.4083 518.6468
1368.342 513.2288
1372.3762 515.10364
1375.8997 513.05066
1380.6322 509.71628
1374.6758 506.21188
1369.5309 507.04453
1365.2169 502.30505
1364.2894 492.98593
1358.2935 499.90112
1354.871 493.66046
1348.116 497.00418
1341.8016 500.02536
1345.1257 505.72736
1337.9529 506.27866
1335.3975 514.7904
1341.2484 511.4634
1348.588 512.00616
1351.5433 504.2023
1357.7174 507.5694
1363.3121 510.6475
1360.736 518.1442
1355.263 514.75903
1349.5885 519.6838
1354.0298 525.4495
1345.4792 526.9021
1342.5437 518.5332
1336.2444 521.94635
1336.4377 528.05725
1344.0171 534.6012
1350.3218 534.93805
1348.1093 543.00977
1348.4476 549.163
1346.671 554.65466
1347.8275 560.0166
1339.9229 566.7669
1342.1328 560.42126
1339.6536 554.6327
1342.5715 549.24365
1341.5552 542.12305
1337.3815 534.30365
1335.0117 541.41797
1335.6406 548.6628
1332.9622 555.4387
1336.1254 560.2093
1332.7667 564.65546
1334.0626 570.38306
1330.7424 574.9604
1336.3173 577.46014
1336.8799 583.3162
1330.6365 581.28204
1329.5762 587.0804
1329.2213 592.76556
1328.0187 597.9417
1333.2655 600.0091
1337.691 594.1262
1336.2844 588.8176
1342.6582 585.64923
1342.4094 579.9203
1340.3187 573.7028
1344.9739 571.50604
1346.8715 565.8511
1349.6912 572.834
1347.2368 577.67224
1351.25 580.83636
1347.42 583.84454
1351.9696 585.8394
1352.4856 589.92773
1349.5178 594.1343
1347.6333 589.53674
1342.8812 590.93585
1344.0345 596.65045
1348.1482 598.9545
1351.5651 602.25903
1349.0693 605.77155
1345.4227 610.3248
1343.3721 604.16876
1339.4238 599.87115
1336.9758 605.8645
1342.158 615.1539
1338.4677 611.7172
1323.8967 608.0617
1324.0916 627.80914
1333.9697 618.04034
1341.2186 620.4984
1338.896 625.21436
1344.6552 626.665
1341.3896 631.2576
1346.6508 632.75757
1349.3864 637.45
1343.1143 638.6284
1324.7905 649.96655
1334.4323 655.66284
1327.8483 670.12384
1327.538 679.3208
1336.7971 675.4706
1335.2451 684.6232
1327.1201 687.91626
1325.7053 695.8919
1326.5171 708.6477
1330.4248 701.6121
1334.95 693.7999
1344.5663 682.3547
1351.669 675.20764
1342.2622 671.80914
1346.4282 663.397
1347.7594 652.65436
1349.5814 643.9016
1354.4744 639.0883
1358.0565 634.1771
1358.7351 626.9258
1352.722 631.5301
1351.2441 626.5965
1348.3689 622.17285
1347.3387 617.07477
1352.4078 610.56305
1353.6501 615.7994
1355.3783 621.19543
1361.6888 618.47
1361.4945 611.8032
1358.0416 605.1286
1366.9193 605.65125
1381.8956 615.8963
1376.1119 634.7324
1364.0044 635.25696
1362.1888 642.76666
1368.8873 641.73413
1378.665 652.88635
1367.4065 648.6032
1356.1628 643.81854
1358.0107 649.0893
1360.149 661.6473
1360.9089 678.4382
1369.0193 684.69836
1368.1351 691.5262
1355.6733 687.1258
1347.412 691.2783
1354.92 697.76166
1364.1797 706.79517
1369.7539 701.5433
1374.9471 695.8789
1382.8887 695.59607
1396.3608 691.8898
1390.1743 686.40765
1381.3115 686.0842
1378.4904 679.0598
1373.5219 668.0034
1390.074 666.62286
1397.2502 658.938
1398.4878 671.93286
1388.9187 678.182
1395.4504 681.4458
1402.9089 685.993
1410.0665 694.4965
1413.861 686.4584
1411.1954 679.2968
1412.5237 671.6027
1420.7616 676.3849
1422.4115 664.28705
1407.0331 664.94556
1409.7417 635.3189
1410.5353 624.0467
1445.9618 606.86945
1477.3807 611.04224
1479.9069 602.7865
1480.0629 594.5332
1485.652 591.5471
1490.5758 588.77924
1496.5431 588.482
1501.1226 584.5692
1500.6461 578.386
1501.3358 571.1681
1507.6489 573.3512
1505.7096 565.08875
1510.4185 561.5573
1500.0061 558.10333
1499.5294 564.1105
1494.3673 567.67084
1494.83 574.37085
1493.3839 581.1114
1486.5417 582.3541
1480.2083 585.5412
1480.914 577.2587
1487.8896 573.8998
1481.5598 569.3724
1481.4429 562.14825
1488.033 565.6072
1493.1927 559.5239
1486.7535 557.75446
1490.8099 551.8097
1497.2275 551.67065
1499.6624 545.2907
1503.401 540.27075
1498.5881 534.68585
1492.1046 536.7329
1493.2919 543.76526
1487.2583 546.1142
1484.0667 551.3745
1480.2695 555.06793
1480.5786 546.33887
1485.5068 540.16754
1478.4551 539.0528
1475.6501 531.9664
1481.706 526.47565
1484.4291 533.32416
1491.4589 528.9991
1497.2212 523.82965
1491.0214 518.33386
1487.0103 522.376
1480.9994 516.7893
1485.8464 512.5344
1491.4141 511.22314
1496.2953 515.1626
1502.0149 514.76575
1505.4576 522.162
1508.9344 514.8926
1515.5316 512.3256
1519.7542 507.83948
1524.7358 508.0226
1527.5956 512.253
1532.4542 510.19977
1537.4425 509.60526
1540.1941 515.1098
1548.5624 515.7258
1547.6403 522.3847
1555.7467 517.58344
1563.2974 518.7353
1571.6646 516.44037
1580.0558 513.8918
1586.4083 509.70938
1595.7604 510.1581
1600.9777 515.3023
1609.3298 514.3378
1604.478 508.34912
1610.187 504.8182
1616.4482 507.54913
1616.2466 501.2742
1613.2913 495.9878
1619.7332 492.16348
1617.0486 485.96112
1610.8948 488.68103
1610.8558 482.19995
1603.6599 481.508
1603.2594 488.47894
1600.0989 494.81363
1607.6875 493.48618
1606.926 499.0286
1602.4705 502.1203
1597.2623 501.63266
1591.8323 503.817
1586.0599 499.95102
1579.7537 501.4469
1575.7604 494.52835
1569.8027 491.70496
1565.1042 496.83704
1562.4954 503.12274
1570.6201 500.83856
1574.1213 507.16577
1566.2382 509.7048
1558.7101 510.45624
1551.7935 508.68466
1545.0709 509.88593
1541.807 504.8961
1548.4208 502.21863
1555.3518 502.32864
1558.237 495.96454
1562.5758 490.29626
1567.2136 485.0014
1569.289 479.289
1573.5413 478.16656
1568.9869 473.82895
1565.6584 477.72388
1563.048 480.31018
1559.1774 478.43607
1559.1372 484.53568
1554.6315 488.59012
1553.358 481.01343
1555.2043 475.23804
1557.6893 470.4631
1562.7484 473.14435
1563.5515 467.5232
1568.5051 469.73782
1569.5122 464.73105
1559.1138 464.14615
1564.2646 461.2146
1569.1431 457.4285
1574.3552 460.69998
1573.6987 469.44464
1578.3219 465.2929
1584.291 463.25015
1581.2378 457.12546
1575.7229 454.00034
1571.9904 450.04504
1565.9907 450.82095
1569.6224 444.2097
1577.3876 446.14868
1582.6569 449.61026
1588.3801 450.72058
1590.1425 443.5831
1581.3613 440.752
1586.3042 436.85614
1584.1995 429.87372
1580.7288 424.42636
1588.7429 421.69986
1593.7451 423.8154
1598.0166 425.60095
1591.1014 430.7032
1594.6561 437.288
1599.5201 431.03183
1602.8064 423.74704
1605.714 428.15887
1606.9482 434.4971
1611.0635 430.84537
1615.3015 428.02426
1610.3041 424.8863
1607.5519 420.44418
1601.7623 418.03824
1596.3883 415.75104
1591.2101 412.85004
1586.1108 410.00574
1580.1492 405.76776
1579.0144 398.94644
1579.1409 391.31186
1584.6892 386.68472
1583.9124 379.48517
1576.6711 383.3063
1570.3508 387.84048
1573.0708 395.9035
1568.6901 401.17435
1562.0956 402.89673
1560.6117 408.64536
1567.5444 408.52505
1574.3762 405.9902
1580.2767 412.4836
1583.7914 417.83987
1574.3556 414.5336
1573.843 421.9706
1566.9808 418.88528
1562.7806 415.10782
1560.3264 422.8911
1567.2277 425.00385
1571.5319 429.41675
1577.3243 432.48788
1574.4785 439.10278
1568.3292 436.48154
1563.5044 430.33386
1560.4719 436.3834
1562.6923 443.2243
1555.1724 444.7093
1552.9026 438.51965
1548.4745 445.771
1543.1321 441.34183
1544.1097 435.04947
1549.956 431.16882
1555.9017 428.51758
1553.6642 419.95877
1547.9758 423.04654
1543.9047 427.78275
1538.0168 429.16092
1537.0103 437.7014
1527.3671 437.6274
1520.7787 440.13385
1519.2687 445.3755
1523.2937 449.30402
1517.6707 451.21097
1511.0146 451.59924
1504.5137 453.55704
1503.9344 462.17276
1499.2131 458.7415
1497.6636 451.6305
1490.4154 448.44272
1486.6772 454.78595
1492.3726 458.55457
1492.5773 466.2208
1499.0732 466.43405
1496.2812 472.8038
1489.6741 473.15378
1491.5413 479.6653
1483.4781 479.00797
1488.5443 485.30954
1489.7552 491.33908
1489.8075 497.74966
1495.7164 500.56165
1501.832 498.68954
1508.3438 498.89505
1514.1855 497.15454
1518.6333 492.56754
1512.9266 490.58365
1507.3755 491.76184
1501.6066 491.17554
1495.9962 493.4019
1496.0839 485.88385
1502.9856 484.662
1498.6901 479.0326
1502.7484 473.41446
1506.1708 468.97794
1509.5956 464.3533
1509.5027 458.1185
1516.2058 456.90506
1522.3093 455.29456
1528.146 454.61447
1528.6594 449.28223
1526.2256 444.1328
1532.8488 443.76938
1533.5858 451.2663
1537.6769 446.9935
1542.5535 448.43854
1552.414 453.12033
1558.7029 449.95816
1561.9636 455.53598
1556.6486 458.55258
1550.2346 460.3785
1543.44 459.5914
1546.0918 453.52097
1538.8474 454.4731
1532.2756 457.81528
1526.1702 460.09967
1520.9689 463.09158
1515.5625 463.06677
1514.5286 469.15704
1521.05 472.1012
1525.5632 467.04605
1531.261 464.07486
1537.1285 459.94067
1536.6089 464.7237
1541.7319 466.39883
1546.8309 466.049
1553.604 465.98407
1550.2264 471.38016
1543.1388 473.47153
1547.8553 477.50803
1547.7024 484.45114
1544.6881 489.85577
1552.0026 494.03452
1547.2687 495.84146
1542.6814 498.1577
1538.4484 493.8853
1533.1113 492.33997
1528.8889 488.96738
1531.7646 482.68872
1537.9507 486.9424
1540.454 480.7769
1535.8324 475.8849
1537.1912 470.06903
1530.7484 470.28745
1528.6448 475.6181
1524.3843 479.79666
1516.272 477.9352
1511.0137 474.2937
1506.3953 478.51428
1509.3838 483.87024
1514.8508 485.019
1519.7133 483.6583
1523.3894 487.5111
1524.5045 494.50858
1530.5612 497.6887
1537.5625 499.95435
1534.5878 503.49698
1529.8293 504.84714
1525.8186 501.53952
1520.9474 500.01724
1516.2167 502.52368
1512.52 506.2585
1507.4492 506.3859
1502.2714 506.41843
1496.6649 507.3981
1489.7251 505.18198
1484.2 501.85135
1481.1262 507.99344
1474.3069 505.7442
1469.1603 501.3731
1467.6724 509.37283
1462.2346 513.24304
1473.9934 513.3746
1475.5156 521.5796
1469.742 525.723
1466.6743 519.2028
1458.2118 518.7853
1457.4784 524.581
1450.7378 520.5743
1444.3937 522.7915
1448.4678 528.0338
1441.6841 530.5299
1438.0984 526.0968
1433.9088 530.8399
1427.5605 529.82806
1421.5088 527.9254
1423.9506 523.205
1423.9663 518.25146
1424.1022 512.8662
1430.2971 512.00165
1430.1593 505.70483
1424.1208 500.4287
1421.5295 506.26413
1413.9282 510.02325
1418.6906 512.62714
1416.514 518.43964
1415.7937 525.15125
1408.9181 526.3434
1410.054 520.0596
1406.9036 513.6863
1399.377 508.7813
1404.5267 504.46988
1410.2606 504.93665
1415.0509 500.2817
1419.9473 494.57394
1420.9924 487.0577
1427.1893 492.80655
1431.0267 497.84442
1436.0573 500.6712
1441.3583 500.95258
1446.0956 497.11334
1452.8933 498.25546
1445.8383 506.35654
1437.8336 509.4484
1434.3157 516.7312
1429.3977 518.62067
1431.3248 524.56573
1437.2335 520.85864
1441.05 517.0866
1445.0209 513.62933
1451.1296 513.1436
1456.4661 510.59515
1452.9019 504.61682
1461.3295 504.7948
1459.3008 498.1073
1464.5045 497.17795
1469.0516 493.69714
1475.6533 494.35468
1477.4469 500.23
1482.9972 495.50992
1482.4169 489.87347
1480.6317 484.88776
1475.9501 481.3756
1473.7019 488.24347
1466.5719 487.37506
1463.2306 480.517
1469.0604 482.02786
1471.4408 476.86566
1475.8636 472.7468
1482.8937 472.17517
1485.8877 464.82614
1477.3745 466.03772
1470.7335 462.33188
" />
</g></g></svg>
