<?xml version="1.0" encoding="UTF-8" standalone="no"?>
<!-- Created for Inkscape (http://www.inkscape.org/) -->

<svg
   xmlns:dc="http://purl.org/dc/elements/1.1/"
   xmlns:cc="http://creativecommons.org/ns#"
   xmlns:rdf="http://www.w3.org/1999/02/22-rdf-syntax-ns#"
   xmlns:svg="http://www.w3.org/2000/svg"
   xmlns="http://www.w3.org/2000/svg"
   xmlns:sodipodi="http://sodipodi.sourceforge.net/DTD/sodipodi-0.dtd"
   xmlns:inkscape="http://www.inkscape.org/namespaces/inkscape"
   width="3200"
   height="800"
   id="svg2985"
   version="1.1"
   inkscape:version="0.48.1 r9760">
  <defs
     id="defs2987" />
  <sodipodi:namedview
     id="base"
     pagecolor="#ffffff"
     bordercolor="#666666"
     borderopacity="1.0"
     inkscape:pageopacity="0.0"
     inkscape:pageshadow="2"
     inkscape:zoom="0.35"
     inkscape:cx="1600"
     inkscape:cy="400"
     inkscape:document-units="px"
     inkscape:current-layer="layer1"
     showgrid="false"  />
  <metadata
     id="metadata2990">
    <rdf:RDF>
      <cc:Work
         rdf:about="">
        <dc:format>image/svg+xml</dc:format>
        <dc:type
           rdf:resource="http://purl.org/dc/dcmitype/StillImage" />
        <dc:title />
      </cc:Work>
    </rdf:RDF>
  </metadata>
  <g
     inkscape:label="Layer 1"
     inkscape:groupmode="layer"
     id="layer1"> 
     <g>
<path style="fill:none;stroke:black;stroke-width:2px;stroke-linejoin:round;stroke-linecap:round;" d="M 
1694.0859 527.60736
1691.4143 528.54285
1689.5547 531.81604
1682.1494 528.32947
1680.0255 530.96484
1677.7639 536.3789
1679.9789 534.1954
1684.7448 534.5114
1692.0457 536.9242
1696.0209 528.1556
1706.2902 534.3463
1716.7314 537.26465
1720.5378 535.3518
1718.4349 533.39307
1716.0549 533.1497
1716.9507 529.715
1715.9633 526.00934
1717.9703 524.5563
1716.0077 520.8852
1718.2776 522.5
1721.3875 522.1089
1724.0847 519.67224
1727.552 518.60956
1725.8689 522.0865
1724.1013 524.2951
1721.6274 525.52246
1718.6782 527.04236
1720.9872 528.352
1720.8301 530.8402
1722.8025 532.5724
1724.3812 535.20685
1731.1401 532.4851
1726.1514 531.9443
1724.6061 528.6821
1726.8126 526.40063
1730.2384 523.08545
1732.1522 520.131
1735.2384 522.40424
1735.9343 526.3244
1731.9409 525.664
1732.876 528.97327
1735.8647 531.2873
1735.4064 535.43726
1732.2882 537.6174
1733.4186 541.1711
1736.5756 542.33295
1734.995 545.73413
1731.8289 547.0293
1726.4108 546.5959
1722.3845 547.0391
1721.0543 543.6362
1725.6184 542.33734
1727.1267 537.3307
1723.4045 538.8091
1720.2391 539.24414
1717.3008 540.97577
1716.7944 543.8403
1716.8022 546.6701
1716.6002 552.2054
1718.0214 555.8294
1716.9519 559.2233
1720.5356 559.9134
1723.9602 561.5448
1723.0205 558.0607
1721.8894 555.1886
1722.6523 552.1716
1720.0728 551.0719
1718.0491 548.71564
1725.123 549.69794
1726.2012 552.6642
1725.9435 555.8983
1726.3456 559.08844
1730.8241 557.4205
1731.9653 551.86755
1735.6101 549.5226
1736.2107 553.1601
1733.2714 555.3364
1736.4288 557.36664
1733.7144 558.93805
1736.2949 562.05493
1732.2721 561.9566
1727.4927 562.3812
1725.3724 564.6352
1728.0068 567.00323
1728.0098 570.40234
1732.1549 571.1466
1731.7963 565.86176
1735.3887 566.0703
1735.9728 569.79364
1735.9519 573.4406
1736.0361 577.5783
1732.4823 575.5256
1731.872 579.0417
1734.0239 581.39307
1736.6661 582.14355
1735.2863 585.93866
1735.8798 589.6181
1731.5809 588.9075
1733.407 592.1891
1736.4099 594.11127
1735.7792 598.13324
1736.1184 602.78644
1732.5697 601.1889
1728.5216 600.16675
1731.0132 597.5695
1732.7163 595.1229
1729.2959 593.3968
1726.6368 596.69916
1724.5242 599.77563
1724.7019 593.74335
1726.6584 590.38116
1727.4569 586.68756
1731.3826 584.20917
1729.1101 580.93524
1726.4319 579.1102
1727.6144 576.09216
1726.0552 573.0148
1723.0421 574.60846
1720.5594 577.47345
1717.5637 579.186
1718.034 573.6873
1719.3253 569.74646
1723.4956 570.652
1723.9902 567.45013
1721.311 564.57526
1717.7295 562.6302
1717.4102 566.5697
1708.4203 569.63226
1707.2174 578.54205
1704.9795 584.80646
1692.9644 575.01685
1688.1978 569.3056
1683.107 574.71643
1687.4274 574.7341
1688.6208 580.32367
1684.6907 617.58856
1690.4805 618.08453
1695.0156 617.9399
1704.8813 628.61115
1709.515 615.0595
1717.9825 612.2434
1721.4987 611.6235
1721.0035 616.8402
1718.047 618.963
1718.6139 624.765
1719.3169 630.93164
1724.3456 630.7633
1726.6892 627.0407
1722.6776 625.575
1723.1835 620.7661
1727.1211 622.85516
1728.9633 619.9191
1726.457 617.58575
1730.23 616.459
1731.7925 613.6206
1732.949 610.486
1729.2372 608.3941
1728.1166 612.77026
1724.3062 614.6335
1725.4146 610.0388
1723.5559 606.9519
1718.9258 607.2472
1717.8094 603.9249
1718.2458 600.93677
1717.2068 598.9672
1717.61 595.86194
1717.76 591.94745
1718.1362 588.1137
1718.1803 584.04987
1721.4379 581.9384
1723.7815 578.3743
1725.5219 581.87067
1724.6729 584.51575
1722.5663 587.2227
1722.1915 590.86395
1720.5819 594.2894
1722.7657 596.87634
1720.2422 598.3692
1720.862 601.6763
1722.738 603.438
1726.1648 603.5096
1729.3312 604.3232
1732.7446 605.7182
1735.8802 607.4442
1736.5616 611.2252
1735.4602 614.6511
1733.5007 617.8041
1736.5221 618.52167
1735.0809 621.7106
1736.3239 624.69464
1733.1143 625.62445
1731.7269 621.0733
1730.3208 625.42786
1729.5756 630.1737
1733.5215 630.26953
1735.6975 627.95483
1736.575 631.025
1735.2484 633.4967
1736.0334 636.14514
1733.0762 636.9136
1731.9028 633.63165
1728.2931 634.62085
1723.8969 635.6156
1719.1208 636.3795
1719.8103 640.6588
1718.2632 644.15735
1724.3127 640.5328
1722.7041 644.6448
1719.9927 647.24286
1718.003 649.9826
1718.4756 653.70996
1720.8071 656.97473
1721.5546 653.95056
1724.4243 654.40656
1728.1912 651.3854
1725.8396 652.20935
1722.2797 650.4337
1725.245 648.2334
1726.4971 644.8906
1728.9078 642.7722
1727.7045 638.91864
1730.9333 638.63135
1732.2861 641.5779
1735.5969 639.3981
1735.608 642.6159
1735.6879 646.3485
1732.7075 644.9371
1730.4216 646.58514
1729.5668 649.0165
1734.3911 649.62836
1734.4243 654.0087
1731.2993 652.7618
1728.1567 655.6147
1730.9299 657.40643
1734.3958 657.5414
1733.19 660.4682
1732.758 664.09094
1731.9677 666.9047
1730.5996 669.5961
1727.7474 667.71173
1729.5352 665.73505
1728.1434 663.3596
1730.7252 661.86115
1728.1799 659.86115
1725.339 660.7654
1724.71 657.53973
1721.6459 660.05554
1718.0845 657.973
1717.8635 661.71783
1716.3823 665.96204
1716.9282 669.44025
1718.3625 673.5996
1716.4551 677.1586
1713.8232 671.41327
1711.2122 675.0864
1712.5068 679.11096
1711.1958 682.8726
1707.6246 678.76245
1703.164 680.63715
1706.8236 683.76227
1710.9736 686.6757
1708.5552 687.55084
1706.2827 688.29584
1707.0435 690.9327
1708.8887 693.27
1710.534 690.34467
1713.665 690.5981
1714.083 686.2437
1717.5553 685.7139
1715.8204 682.0115
1719.8206 680.8059
1721.4172 676.9499
1724.7212 674.726
1723.013 672.1134
1720.6632 669.9779
1719.5059 666.5271
1720.4188 663.3392
1723.7235 663.125
1725.739 665.3241
1722.554 666.4158
1724.5475 668.7835
1726.9254 670.72516
1729.2146 672.5085
1728.5278 675.4448
1726.6198 678.19476
1724.3422 680.50024
1723.8171 684.0503
1720.582 684.3677
1721.1943 687.55756
1719.577 690.2074
1716.4375 689.2782
1717.4775 692.8204
1714.9757 694.8776
1711.8142 694.018
1711.7334 697.71063
1708.4336 699.77527
1707.3186 696.0886
1704.2145 698.9577
1705.6494 702.38257
1702.4818 703.6589
1700.037 706.0558
1697.1351 704.9242
1696.3827 708.15265
1693.422 706.5643
1692.4355 709.7888
1689.5216 708.1694
1688.6233 711.0292
1685.5884 712.74097
1682.09 713.22235
1680.696 711.21
1676.9646 714.4331
1676.8877 710.8128
1673.7446 708.72516
1675.0358 705.3366
1673.6814 701.848
1671.31 705.1299
1668.5211 707.67615
1670.1187 710.7319
1671.7045 715.3749
1666.4187 716.2954
1660.8367 717.1886
1658.1091 712.99036
1654.7081 711.07574
1653.3939 714.6128
1655.8792 718.0845
1650.2244 719.32855
1649.4182 714.5947
1647.1787 710.66455
1650.6854 710.47076
1652.7263 707.6711
1651.2728 704.7499
1648.2444 707.0181
1644.5222 707.93115
1642.4004 705.2232
1639.91 702.595
1638.6697 706.2944
1640.2069 709.5484
1639.6301 714.54535
1642.844 712.25525
1646.0276 713.6991
1644.3679 716.447
1644.4858 720.3665
1639.837 719.4417
1636.1257 721.0196
1635.5978 716.8681
1632.6528 714.6972
1629.3463 714.05334
1631.0911 711.4717
1634.2097 710.546
1636.4126 712.4743
1635.8533 707.621
1636.5065 703.231
1633.4076 702.43256
1629.9862 703.216
1626.8704 704.00543
1628.4185 706.5755
1632.6211 705.33905
1632.1975 708.1228
1629.464 708.95435
1627.2336 710.50006
1626.2502 712.99
1624.6382 715.3033
1622.9639 717.8658
1627.3334 717.112
1630.9044 717.9882
1632.0999 721.7388
1627.853 721.6835
1624.3591 721.7041
1620.8354 722.1102
1616.6339 722.2499
1616.0111 717.73566
1619.5422 717.2569
1618.04 713.84937
1621.6649 713.8957
1622.3356 710.61316
1624.9316 709.0286
1624.3164 706.64996
1623.3425 704.06573
1620.3608 705.94727
1616.5442 705.4709
1612.994 706.4493
1609.2953 705.36896
1608.7046 708.83704
1605.5343 706.4955
1601.9932 705.9727
1597.3909 707.0417
1600.7886 709.2149
1604.7441 710.78705
1608.1938 712.57495
1612.2876 710.3929
1618.4613 709.5743
1615.4215 711.2635
1613.9718 714.7923
1610.6688 714.58795
1611.7125 718.0023
1612.4338 721.2633
1611.7148 723.6795
1607.5066 722.4186
1602.8673 722.6087
1600.1926 717.7419
1604.4863 718.27606
1607.7906 717.0047
1603.9258 714.8349
1601.0847 713.32544
1596.8718 715.4561
1598.2069 712.06384
1595.2002 710.665
1592.0546 708.7544
1593.7859 706.12775
1589.215 705.5983
1585.6469 706.81165
1583.6829 705.2049
1582.3981 707.9486
1579.7362 705.14716
1575.8901 706.374
1579.144 708.4494
1582.0122 710.52295
1581.8562 713.0951
1584.463 712.50775
1585.9133 710.06537
1588.5801 708.2
1589.046 711.1665
1591.5688 712.16675
1593.8949 714.1402
1595.9432 718.8799
1597.7588 722.72986
1593.0464 722.8034
1588.426 722.63617
1584.3268 722.6261
1586.3232 718.3317
1589.5397 718.37695
1592.7837 717.8853
1590.9214 715.312
1588.2981 715.08154
1586.7827 713.27014
1584.7319 715.6595
1582.9143 718.1695
1581.2065 715.51135
1579.4703 718.8446
1579.9436 722.9212
1575.8733 721.566
1574.6987 716.2726
1578.0117 716.2324
1578.2266 712.592
1575.9844 709.9675
1573.1509 712.7384
1571.8806 708.9044
1568.6543 711.816
1565.482 714.87036
1569.6368 716.1187
1571.9486 719.327
1571.7946 722.67975
1567.3252 721.6115
1564.9817 719.0394
1561.865 721.2592
1561.8215 716.2202
1559.3909 719.0153
1556.74 721.057
1556.7102 717.17957
1553.4235 717.2319
1552.3716 720.1987
1548.6201 719.1414
1545.1697 718.52686
1549.8713 715.4131
1552.537 711.9298
1554.8218 713.826
1558.2688 714.07043
1558.093 709.72473
1561.2855 712.4401
1564.0859 710.47174
1567.3182 707.8644
1571.6516 705.67737
1566.4268 704.48303
1562.3059 706.30396
1559.1152 703.7929
1556.4375 706.22644
1554.192 703.4695
1551.2711 701.75397
1549.2058 704.1751
1550.7882 706.77783
1553.6564 708.5392
1549.371 710.38965
1547.1143 713.0286
1543.9832 714.1591
1541.5024 717.9571
1537.9672 717.42664
1537.495 713.7258
1535.1124 711.84045
1532.681 709.3182
1529.1897 710.49854
1531.5471 712.94055
1533.8523 715.3276
1533.8746 717.92523
1529.6562 716.6108
1527.9265 713.81433
1524.9015 715.5072
1525.7284 710.89966
1529.9995 707.6492
1526.9895 706.8381
1523.9672 707.4504
1523.9713 703.84235
1527.6113 702.2849
1529.5297 704.51605
1532.1874 705.488
1534.6833 706.0107
1536.1919 708.6732
1537.272 704.84753
1539.6274 702.6126
1540.4974 705.8062
1539.5516 709.4426
1540.675 713.15643
1543.9003 710.11536
1546.9902 707.7598
1543.306 706.52545
1545.7236 704.3495
1546.9862 700.9733
1543.1536 701.68646
1539.3405 699.30255
1536.2759 700.16376
1533.385 698.1172
1534.1515 702.6477
1531.1969 701.21466
1529.086 698.00934
1525.5603 696.45154
1521.7213 694.3669
1522.3052 698.2374
1525.0118 700.3033
1519.994 700.9077
1520.3057 705.30316
1518.5364 709.84863
1521.9674 709.5324
1522.2534 712.9623
1519.2748 714.62537
1514.8845 713.21564
1514.111 710.03467
1511.1838 708.47076
1509.7871 711.96265
1506.1365 710.427
1509.2161 706.03973
1506.3401 704.6875
1503.1646 704.6903
1503.9529 707.7287
1501.7373 709.8354
1499.0741 707.564
1496.2551 707.3284
1493.7883 705.36536
1490.5118 704.29736
1492.7583 701.6621
1495.4895 701.94617
1498.239 701.36694
1498.564 704.3025
1501.3563 702.9283
1501.844 700.3858
1505.1539 700.9608
1509.017 701.8348
1512.6655 703.602
1515.6654 706.77234
1516.7585 703.4123
1515.9032 699.7015
1511.9634 699.0432
1515.2068 695.8672
1519.1613 696.37933
1516.8776 692.92847
1512.3779 692.0537
1510.6008 695.2175
1507.4286 697.6261
1502.9915 697.26605
1504.5104 693.98157
1507.7903 691.4429
1504.2776 688.9568
1500.6184 686.1762
1497.5459 686.90753
1501.0107 690.68176
1497.5872 690.58813
1496.5304 693.88727
1499.807 694.6241
1499.427 698.2963
1496.2347 698.37256
1494.5021 695.9894
1492.0972 698.0852
1491.504 694.2323
1493.9075 691.6904
1490.124 690.0741
1491.7638 686.48254
1494.3638 688.3321
1495.96 683.5851
1492.9836 683.0991
1491.4209 680.1822
1487.669 681.38556
1484.7987 681.1525
1490.0925 682.9414
1488.0419 685.48035
1486.0961 688.7557
1484.2095 692.2502
1487.9847 693.4886
1484.6887 696.4714
1488.2311 697.346
1489.2269 700.3979
1486.8771 702.5893
1484.074 700.7387
1480.9795 697.9948
1480.615 694.3638
1476.9448 695.45734
1473.5823 692.3515
1472.2317 688.8133
1468.9976 686.9513
1471.4536 683.7289
1476.0121 686.1636
1476.8402 689.63104
1479.8203 691.32794
1481.5256 687.86523
1479.3762 684.42804
1484.1436 684.74274
1481.9519 681.6769
1479.2511 680.9379
1475.2783 682.4012
1472.6987 679.24884
1472.4886 675.20013
1470.847 671.0577
1467.3291 673.93665
1467.9646 678.5994
1466.558 682.6378
1463.5496 677.13654
1461.7457 673.35803
1463.2566 669.59784
1459.8109 669.88934
1457.8853 666.3967
1457.8918 662.92126
1460.1973 659.6941
1456.9585 660.44025
1456.3801 657.9793
1456.1184 655.4272
1455.9518 652.8395
1454.591 650.5123
1454.2513 645.74744
1455.804 647.64056
1457.6859 649.5671
1458.954 651.88696
1462.2853 653.1118
1459.5371 654.2851
1459.4114 656.82245
1462.5269 656.6263
1463.6033 660.377
1461.1057 663.0774
1460.901 666.6502
1464.2268 665.0135
1466.5985 669.2419
1469.2822 666.396
1467.2728 663.1858
1470.7479 660.16797
1467.4585 659.85535
1465.8698 657.4323
1464.9998 654.7519
1465.5902 652.0498
1463.5062 650.2206
1461.1826 649.60504
1459.985 646.9735
1458.0514 644.5271
1454.8066 643.323
1454.9689 640.95624
1454.1694 638.8596
1454.1965 636.02454
1454.5604 633.086
1456.0674 630.842
1460.1022 630.34326
1457.5856 626.726
1454.121 626.93304
1457.7435 622.6584
1454.405 622.2672
1454.2299 617.2287
1454.85 613.25653
1453.974 609.00397
1454.6716 606.29944
1453.7991 604.15247
1454.4211 601.7741
1456.251 604.1976
1459.4513 603.86615
1462.272 603.49567
1462.9368 599.94073
1460.0172 599.40985
1458.287 600.79144
1456.75 601.9858
1456.5862 598.49243
1454.2683 598.8451
1454.6407 595.61395
1454.8126 592.4063
1454.7417 588.84155
1455.2224 585.2563
1453.8795 581.81915
1455.2539 578.2179
1455.4001 574.9577
1455.7053 571.5106
1455.7914 568.27313
1460.1909 570.6321
1463.8044 574.5407
1466.7495 577.6969
1467.1807 581.2187
1469.8177 579.4076
1470.0922 582.4806
1472.2522 584.5319
1472.8744 581.5512
1472.9406 578.79095
1473.3339 576.05536
1470.4219 576.67316
1468.1343 574.4906
1466.1217 571.8783
1464.2563 569.3124
1466.5231 565.44324
1469.7717 564.2728
1468.7297 567.80225
1469.255 570.30554
1470.799 572.0337
1471.4801 574.2892
1473.4116 572.75354
1472.9847 569.74915
1472.8964 566.58746
1473.3596 562.76697
1470.744 560.8805
1473.4966 558.3203
1470.073 557.7061
1471.6323 554.58563
1473.5266 550.6975
1474.1522 553.99115
1485.1274 558.20123
1501.509 570.7697
1502.1869 578.9636
1496.6405 576.68475
1487.8345 598.2482
1499.038 615.1359
1499.1716 626.81177
1485.4547 628.6666
1479.4355 616.83966
1471.2548 612.3894
1466.8082 610.4681
1469.3422 607.0056
1471.6488 603.04974
1471.497 597.7906
1472.0536 593.95294
1467.6847 594.6969
1469.0017 591.30273
1472.2524 590.2644
1473.1376 587.1517
1469.8427 587.72595
1466.274 587.7458
1468.6272 584.98254
1465.7684 584.1839
1463.0305 585.6848
1463.7385 581.4955
1463.3549 578.23535
1459.2957 574.5275
1459.1654 578.1929
1457.9058 581.5858
1460.5579 582.95325
1458.7863 586.2976
1458.2722 589.86664
1458.3909 593.2433
1458.0049 596.3697
1461.0878 596.1749
1462.5544 592.75214
1462.5178 589.13855
1465.6014 591.0699
1464.1632 595.8785
1466.3347 598.3533
1469.0018 600.37103
1466.3167 602.6514
1464.9094 605.8502
1463.5343 608.7068
1460.3086 607.7395
1457.5448 606.61847
1456.4884 609.65466
1458.4822 612.2383
1462.1844 611.8905
1464.337 615.4319
1467.5897 614.54504
1470.5339 618.2116
1470.9843 623.63544
1466.4836 621.91895
1463.8398 618.8934
1460.1493 615.85504
1457.5416 618.3498
1461.1805 621.57336
1462.2047 625.9662
1466.9109 626.6661
1471.1035 629.0084
1468.0858 631.49365
1464.1461 631.17773
1466.156 636.0416
1470.721 634.8278
1470.2263 639.2635
1470.5083 643.5907
1466.603 641.9368
1463.8741 639.3369
1460.9111 634.62006
1457.4314 636.6312
1460.6052 638.65814
1458.4429 641.11444
1461.905 643.26544
1464.0126 645.7592
1467.7473 646.088
1465.4718 648.5033
1468.283 650.33936
1470.8588 648.0508
1479.5077 648.38354
1470.9437 652.5886
1468.0043 654.1359
1470.2966 656.6083
1473.166 661.83276
1472.2771 664.3012
1473.1857 667.9436
1476.2947 666.9942
1475.7686 671.31195
1479.4736 672.7561
1476.9053 675.4562
1477.1478 678.8514
1480.5171 676.9696
1483.0358 675.2427
1483.1539 678.378
1485.8567 677.82385
1488.3038 678.24896
1492.8901 667.05084
1491.5835 663.7126
1492.3372 659.88947
1493.5823 656.6972
1497.1729 654.5996
1500.6387 659.0365
1492.8887 662.64606
1496.7124 668.60803
1500.6245 665.6724
1536.7538 675.64716
1545.3813 661.7049
1553.7473 675.6756
1582.727 663.08435
1591.2976 667.0415
1591.8496 663.0865
1590.6501 659.3185
1596.3931 659.8009
1599.5221 658.18945
1595.5073 663.6123
1596.4387 667.3604
1599.6516 668.3277
1601.5906 666.2439
1602.0973 663.62054
1601.8003 660.6708
1606.602 659.591
1607.862 656.74194
1634.5559 661.1331
1645.7776 662.31793
1651.3478 661.1908
1652.2874 666.04
1640.3237 663.5651
1637.6593 677.27466
1642.3035 700.3646
1644.9269 702.0361
1647.4578 703.86554
1648.9993 700.79095
1652.2181 701.4678
1655.3417 699.30646
1657.7777 701.3101
1660.144 698.7653
1666.3516 696.51196
1664.4622 698.9622
1662.059 701.37195
1662.6647 705.2222
1659.3413 704.22833
1655.0227 703.3979
1656.217 706.9247
1659.8192 708.69183
1662.3492 712.82007
1666.0059 711.42737
1664.231 708.1153
1667.033 704.74567
1665.2723 702.2959
1669.2749 702.03076
1668.0154 698.89886
1670.9851 699.3365
1671.7097 696.3254
1674.3135 698.2479
1677.0232 695.53723
1680.6853 696.084
1682.9648 693.89874
1685.1725 690.6822
1686.9324 692.85284
1685.8218 697.4364
1682.345 698.8734
1679.9209 700.5249
1677.363 699.1867
1677.2896 703.0356
1680.0225 703.6337
1681.47 705.3877
1678.4426 707.2733
1682.2272 707.8754
1685.2269 709.95087
1685.8734 706.85956
1684.0448 705.25684
1685.6288 703.074
1682.7738 702.38385
1684.8713 700.2496
1688.0558 701.17786
1688.0728 704.9624
1691.022 703.68933
1694.5319 702.2116
1695.1074 698.5078
1690.9559 699.42224
1688.8213 695.7936
1690.2874 690.65985
1692.6637 694.9121
1695.8657 692.2527
1698.1929 695.57635
1698.7096 701.6296
1700.4734 698.9349
1702.5284 695.3422
1704.7634 692.64886
1701.1641 691.246
1703.9166 687.7257
1701.8629 685.49426
1698.2 688.5146
1693.9255 687.916
1698.7698 683.8194
1693.5134 677.8075
1697.2551 664.3651
1697.354 660.21454
1697.0524 658.81506
1694.6243 659.3842
1694.5978 664.40326
1691.4207 664.44196
1687.606 664.4236
1691.4736 659.4698
1687.391 659.4016
1676.9519 648.1849
1643.8394 620.0183
1638.7288 617.8361
1641.3097 614.17145
1632.3779 535.2701
1633.1211 528.014
1593.8895 567.9402
1593.4713 611.90546
1595.613 616.67474
1596.8152 622.805
1592.5837 625.633
1547.2694 624.9811
1542.4011 623.67694
1547.0345 618.26697
1546.4215 612.2657
1546.3391 574.4988
1549.5345 535.1169
1544.647 537.54095
1505.3175 533.5558
1503.1606 527.70074
1501.19 537.2752
1484.4329 536.91705
1474.6528 541.9932
1472.0864 544.31714
1472.8589 540.5452
1470.1683 540.46606
1468.5549 542.7795
1468.0461 545.322
1464.9452 547.73315
1461.0192 548.0551
1458.8743 550.2182
1459.775 554.42694
1463.0144 557.5632
1463.9017 553.88306
1465.3401 550.96515
1468.8566 547.992
1474.2145 546.7936
1471.7378 548.08075
1469.6555 551.3281
1468.0206 554.4662
1466.3584 557.3418
1467.3859 561.15015
1464.3179 560.3088
1463.4774 562.8903
1463.4879 566.0326
1459.2263 565.4927
1455.6144 564.2579
1454.9067 560.3542
1458.7955 559.9181
1456.0236 556.9254
1454.9437 554.00574
1457.2587 553.29346
1455.1426 550.39325
1456.1802 547.30365
1457.713 544.5392
1454.8429 544.5644
1455.0564 541.34247
1454.7301 538.59735
1455.3501 536.37805
1455.5562 533.5395
1455.142 529.9902
1457.9227 528.6772
1460.5691 530.4223
1458.9572 532.7917
1458.3032 535.7498
1460.7549 536.1402
1464.2008 535.0059
1464.2759 537.8833
1460.1722 539.499
1457.5166 538.3667
1457.4504 541.0778
1459.5702 542.5323
1460.7224 545.07263
1464.7744 544.41705
1463.147 541.9926
1465.0109 540.7103
1467.2612 540.0334
1467.9602 537.67236
1466.717 535.3195
1467.1887 532.8383
1467.9587 530.6916
1470.4019 530.00745
1471.1556 533.16345
1469.6284 535.37585
1471.4951 537.5213
1474.3489 537.3951
1474.0287 534.17975
1474.409 531.1472
1472.7744 529.283
1471.5017 526.4638
1475.257 527.20667
1474.23 524.18915
1475.3433 520.6131
1474.7269 516.7439
1475.0605 512.9908
1474.7722 509.3826
1474.5454 505.7416
1471.8578 512.1904
1471.7128 515.29144
1471.3127 518.49506
1471.5093 521.78723
1469.3555 524.6237
1468.0581 527.9602
1466.4484 525.83374
1463.9904 527.34485
1464.7942 530.11755
1463.4957 532.6481
1460.6624 527.3387
1459.383 524.9798
1459.6675 522.00354
1455.8989 525.45953
1455.4841 521.08453
1458.0264 518.72394
1461.2002 516.36865
1463.2971 520.3591
1464.1969 523.8206
1467.8003 522.1838
1466.4011 519.67725
1468.313 517.06726
1464.9719 515.75323
1468.0801 512.3854
1463.7805 511.91968
1463.2454 508.41818
1466.9974 507.449
1470.8644 508.88977
1470.6357 505.25287
1474.4618 501.9131
1475.3016 497.7808
1472.0693 498.49573
1470.0933 501.66412
1466.5719 503.0111
1463.2004 501.23572
1463.2733 504.86215
1458.287 507.2653
1457.6804 512.385
1456.3644 515.50006
1456.3381 509.88312
1455.8687 505.93753
1457.3925 503.73077
1455.3965 500.921
1457.0332 497.74927
1458.5067 500.60205
1463.0018 497.7072
1466.8262 498.96655
1469.2604 496.71973
1468.1757 493.6859
1465.0216 495.0161
1464.3601 491.15674
1461.5731 493.38556
1459.3206 495.5407
1456.5427 494.37982
1456.331 491.47665
1458.7749 491.3003
1456.74 487.9711
1456.2964 484.5208
1458.5305 481.9362
1459.3129 485.91046
1461.1323 489.37247
1462.6005 486.25552
1466.0391 487.5603
1468.345 490.63898
1470.1681 487.43015
1469.4879 483.5428
1465.6755 483.42798
1461.9823 481.99228
1456.8424 478.30078
1460.1262 477.5589
1464.549 479.17795
1466.6926 475.8839
1465.5558 473.14203
1465.5999 470.62204
1466.7919 468.77158
1469.9255 473.3043
1473.7078 475.07413
1475.5956 478.33298
1469.0276 478.51678
1472.0887 480.46033
1475.5414 483.01343
1473.8141 485.99545
1475.6084 489.07425
1472.5342 490.57297
1472.0303 494.2296
1475.4257 493.51346
1486.4507 494.24023
1488.707 496.5234
1487.0669 499.21463
1490.1213 499.84683
1492.6188 501.40494
1496.144 501.74313
1500.3088 502.98663
1505.4036 502.97067
1504.053 500.14792
1501.8223 498.08615
1502.5679 493.53653
1496.8269 497.60226
1492.7804 497.67743
1490.8162 492.75284
1487.0065 490.09232
1490.1655 487.7074
1494.7278 486.58646
1497.5176 489.4047
1501.1978 486.26016
1504.0253 491.578
1509.6456 491.86896
1510.3179 495.16
1507.682 498.666
1509.2828 501.96036
1512.0398 500.63605
1513.9419 498.82962
1515.012 496.2218
1514.0087 493.33514
1512.9602 490.6159
1515.476 490.15906
1514.1276 487.51065
1511.5406 486.11224
1510.9379 488.88174
1508.7906 486.7691
1507.1571 488.75336
1504.2117 487.6644
1505.8772 485.53162
1504.8579 470.17596
1500.2356 470.82574
1501.0493 464.5308
1497.2715 460.98685
1497.211 464.1599
1498.1188 467.18204
1496.1902 470.1101
1494.1826 467.2669
1492.3583 469.4222
1489.9663 467.1675
1488.2242 463.70856
1475.2927 458.96872
1475.2961 455.54764
1475.3344 451.62323
1475.4835 447.55542
1470.9904 454.0935
1470.8997 449.2583
1472.5258 445.1774
1475.6925 442.50854
1471.2485 441.6231
1468.1694 446.02615
1463.9692 446.3428
1464.8052 449.57428
1467.1357 451.87216
1463.08 454.91092
1463.584 459.9121
1466.4917 462.8535
1466.9121 456.61847
1470.202 458.8738
1471.1672 462.2892
1470.47 466.06348
1473.459 465.42105
1475.7987 462.4006
1476.2887 466.7877
1475.7485 471.4427
1472.7218 469.8152
1469.4392 469.4405
1467.2192 466.03467
1463.5406 467.23065
1459.7863 469.36737
1462.0929 471.54315
1462.303 475.1127
1457.6859 473.19095
1457.8118 467.07407
1461.4136 464.21124
1458.3259 461.14883
1458.7883 456.70776
1457.4966 452.42636
1460.8226 451.6548
1461.5114 448.3712
1458.3375 447.30823
1460.9731 444.81046
1458.997 442.6931
1459.4944 439.12128
1460.3275 436.1721
1462.8953 434.24026
1460.2219 433.17593
1459.5057 430.04205
1461.9685 428.85126
1464.5012 432.15146
1466.3007 436.1402
1463.7699 438.45682
1462.6528 441.61197
1465.182 443.80505
1467.3173 441.02884
1470.3733 437.56174
1474.9346 438.14343
1474.8115 433.956
1472.6924 431.05164
1469.5714 433.79227
1469.665 429.82944
1466.543 430.68253
1467.5414 427.09222
1471.7366 426.38855
1475.2596 428.4996
1474.6932 423.08426
1473.2026 417.05423
1471.4027 420.34476
1468.9028 423.54404
1464.507 426.90564
1462.6892 424.28024
1465.2634 422.2486
1465.6418 418.82645
1467.0837 415.41254
1467.0314 410.8082
1469.5513 408.99454
1470.6915 412.94907
1474.4695 412.9718
1473.5842 409.49866
1474.456 406.64575
1473.8279 404.0715
1474.0896 401.40225
1470.6257 402.67444
1471.0842 406.1812
1467.4636 405.43692
1467.392 401.41583
1470.4263 399.24515
1468.0536 396.24515
1471.4713 395.81177
1473.8226 398.66525
1474.5499 395.93396
1470.6564 392.2417
1467.565 392.073
1469.0615 388.76053
1468.3286 386.03983
1471.6904 385.6471
1474.762 385.63547
1473.6045 389.41354
1474.1421 392.7587
1491.1776 394.16217
1489.6127 397.86707
1489.0244 402.23425
1493.6248 403.912
1492.0521 406.85117
1497.4486 407.56732
1500.1414 403.6227
1496.121 399.2022
1496.3977 393.9513
1501.0457 393.76547
1505.4348 392.844
1510.826 392.87723
1515.0405 393.85785
1516.8002 397.09708
1525.2948 395.02655
1528.675 396.0043
1526.0879 399.64905
1531.833 403.2604
1531.121 406.90225
1526.8917 404.11978
1515.4766 404.52948
1515.4037 400.54565
1513.8202 397.4251
1511.4719 398.55707
1507.5957 395.6958
1504.1532 398.78464
1508.3165 402.04578
1512.9823 403.7129
1510.134 404.79562
1510.4213 407.82404
1505.9769 405.60217
1502.7572 407.9143
1503.5544 422.0537
1499.8676 428.25912
1498.2809 423.154
1494.0391 423.01013
1490.4629 425.3432
1494.1833 426.87354
1496.4619 428.96808
1490.0416 429.65152
1490.1544 433.78558
1493.4141 431.81476
1496.9833 432.6378
1498.847 435.58173
1502.2052 432.47382
1504.1963 434.83533
1506.4392 430.47156
1507.6875 434.2835
1510.3589 436.00842
1509.9707 433.22507
1512.8158 433.40002
1513.6018 429.95746
1510.143 430.2249
1508.9795 426.65918
1508.3733 422.7509
1512.0555 422.8483
1512.7284 426.37668
1516.0646 423.9531
1517.4608 426.96347
1517.3969 430.30554
1517.8359 433.43512
1515.6476 433.8209
1515.0863 436.6646
1512.5574 437.89008
1510.1388 439.54745
1509.4962 438.04538
1507.0332 436.95764
1507.2197 439.59613
1504.5464 439.25195
1502.4049 437.60214
1500.7686 439.48105
1497.8468 438.62576
1495.3813 436.71405
1492.3165 436.10925
1488.1321 440.7683
1489.8545 453.9788
1489.7474 456.6685
1487.5637 459.21118
1490.2994 460.2851
1492.0112 463.68396
1493.2047 459.0868
1493.011 455.21033
1495.9548 454.88373
1497.7183 457.7664
1499.8229 453.79227
1504.4928 453.9017
1509.4948 454.1741
1508.7308 456.8954
1505.6608 456.21027
1503.5023 458.9887
1500.6122 460.42508
1506.1257 459.63644
1507.9861 462.32047
1505.1299 464.47455
1505.5598 467.2124
1509.5944 468.99353
1511.6953 465.62714
1514.5332 466.50754
1515.3339 462.8895
1516.4546 460.1801
1512.7688 461.10797
1512.2578 457.71066
1513.6515 454.44904
1515.7131 456.4684
1517.5416 457.7399
1525.3569 456.43027
1527.9359 454.76175
1531.0138 453.9907
1533.0707 455.86786
1534.8239 458.2096
1536.3293 453.43002
1543.1204 453.94803
1548.4911 453.8351
1552.4691 454.74173
1552.1842 456.94006
1548.5118 457.63376
1545.0095 458.54227
1541.2455 461.16354
1533.6759 464.30908
1530.2914 457.47702
1527.1057 457.76062
1528.3701 460.33533
1525.2915 459.95837
1526.0697 463.1009
1526.8727 466.44043
1529.46 464.80783
1530.1527 468.57983
1534.4622 470.433
1540.0571 470.90656
1545.5605 468.96124
1550.5024 468.1489
1553.0234 464.98764
1552.3445 460.0217
1554.5544 458.22205
1554.3557 461.9311
1565.0521 467.19705
1572.2583 470.2358
1580.7664 469.787
1587.448 468.07672
1590.3325 464.14484
1587.4856 463.10687
1588.3296 458.63705
1582.2102 454.4287
1575.9089 454.10474
1565.2156 454.5717
1566.6774 436.8196
1571.6947 437.83676
1571.9861 430.41696
1577.9092 423.39243
1573.0582 423.5605
1566.9951 422.98843
1563.9602 426.2601
1563.4745 432.0784
1553.8401 433.7173
1554.4777 429.29437
1554.5605 425.74915
1551.9774 424.41113
1549.7742 428.3405
1551.39 431.6546
1547.327 432.67178
1545.0085 427.63693
1547.2472 424.5926
1549.0452 422.36887
1542.7896 422.68698
1538.245 432.06763
1542.7842 434.5139
1550.7288 436.60043
1546.2617 437.88373
1540.6104 438.91556
1534.5422 437.26373
1529.3314 435.56967
1531.8204 431.8944
1526.8645 430.5797
1529.827 427.72485
1526.7379 425.76764
1529.0115 423.32394
1532.6521 423.00143
1534.1592 426.75662
1537.5343 423.44522
1536.6782 407.02896
1541.8038 405.55576
1546.245 405.24365
1550.6829 404.19714
1548.778 400.3881
1552.4285 399.805
1552.2784 395.83737
1549.5779 393.2037
1547.7078 396.33978
1544.8684 393.7983
1541.4945 395.86905
1540.7938 392.42926
1535.5133 392.1753
1537.0131 398.11032
1538.1718 402.16953
1533.4219 397.38327
1530.0946 392.5892
1530.425 369.49017
1536.9532 372.66138
1543.0464 373.55716
1548.4116 373.14047
1551.7783 370.4934
1552.77 364.56543
1542.2308 352.21533
1554.3878 358.67236
1571.2269 360.98422
1583.2292 351.46353
1595.3005 350.5006
1603.4203 348.6843
1610.9639 351.18195
1617.3125 355.23572
1622.5388 360.73
1638.1467 361.257
1639.7184 355.42334
1642.0526 357.42624
1643.8297 361.03046
1645.8153 358.6455
1649.9666 361.2429
1652.6041 359.14423
1655.9626 358.4956
1658.6147 358.73816
1655.3702 362.6123
1659.4509 361.73843
1662.0212 359.23096
1665.2621 360.4229
1665.0302 363.9384
1661.2596 363.72876
1664.1141 367.5768
1661.6824 367.78973
1658.7532 370.9318
1653.4924 372.91168
1652.2592 393.56125
1648.4261 393.54605
1647.3103 373.41473
1640.7959 371.55276
1625.403 367.59055
1626.5847 373.19876
1628.1804 377.4192
1625.5385 379.2798
1626.0382 382.57806
1625.6403 385.92422
1621.6636 382.712
1619.8503 374.06442
1607.7747 373.07108
1602.3369 374.31235
1594.3196 374.0229
1586.3231 374.20264
1568.1332 373.78357
1567.8561 383.29803
1577.7683 394.4092
1594.0868 390.89755
1597.592 391.24017
1596.2495 397.66046
1599.8534 402.35245
1602.4099 396.8647
1607.6582 400.7508
1607.6599 395.4309
1612.7484 392.4406
1614.1459 397.78
1617.6531 393.553
1620.9492 391.20898
1618.1846 387.9844
1622.5991 385.69452
1623.5455 389.00693
1630.5763 391.8926
1639.8186 393.67825
1644.1207 392.7301
1640.7363 396.6229
1638.8887 399.09625
1639.2036 402.93585
1641.5354 405.45172
1641.4214 402.18747
1643.2795 399.65594
1645.2328 396.46713
1644.6307 402.84277
1647.1074 404.50046
1644.4668 406.9412
1648.729 407.621
1650.9606 404.15613
1647.7235 399.53818
1654.0206 400.0778
1657.2699 398.07867
1655.5656 394.90787
1657.1919 392.48627
1661.1318 392.57437
1664.6812 393.48138
1661.8324 395.76492
1663.9149 397.37854
1666.9551 395.81955
1676.073 394.50726
1679.7832 392.8995
1681.0872 395.83508
1683.1625 399.09717
1680.8527 401.9151
1685.631 402.73886
1691.0914 403.81882
1694.9377 403.82425
1696.3369 397.34674
1698.342 396.27997
1693.2352 395.6357
1687.6522 394.3629
1685.0942 395.9046
1684.0405 392.77792
1688.9701 392.20236
1691.2571 393.51187
1694.0918 392.58646
1697.619 392.50568
1701.5637 393.5584
1703.0919 396.9009
1703.0002 401.14224
1698.4136 402.13873
1701.3214 404.9872
1697.6396 407.01163
1692.8804 407.8414
1688.2772 406.988
1684.1814 406.5021
1680.5188 405.31723
1677.1194 402.6043
1676.0941 398.3942
1667.0867 399.37375
1664.0282 400.5901
1665.9348 403.4039
1663.201 405.85144
1661.2043 403.04025
1660.613 399.77386
1657.6057 401.99646
1658.9224 406.86978
1655.6537 405.03775
1653.1497 407.6013
1647.7021 423.92212
1652.9341 423.7877
1658.4506 423.41965
1659.5071 428.03152
1663.4532 425.07675
1663.4827 429.25015
1664.7256 431.6075
1674.2607 429.44647
1677.9342 429.99112
1680.4343 433.96198
1686.114 435.6032
1684.8275 432.60562
1681.4834 428.4823
1674.6079 424.87762
1678.5857 424.06216
1683.1139 423.21927
1687.757 427.16296
1688.4902 423.1259
1693.7798 422.8159
1698.1753 424.3749
1701.6672 426.83978
1699.1791 429.9568
1693.0984 426.70642
1695.1104 430.77142
1691.6954 433.66666
1689.7305 436.7233
1690.78 439.54138
1685.7334 439.1228
1680.8569 438.17667
1675.6929 434.97922
1663.7499 434.05908
1662.0245 435.7734
1659.3721 432.7801
1659.7516 437.21204
1656.6727 437.52295
1651.6046 430.2931
1648.3563 434.48898
1652.8604 435.34586
1652.7646 439.06433
1648.0801 438.8003
1643.0707 437.4799
1644.4895 433.26807
1640.61 432.51102
1638.718 435.572
1636.8188 431.5488
1639.4083 428.5974
1642.7279 427.9119
1642.611 422.98755
1638.4832 424.1046
1636.3641 427.15195
1627.5724 425.75507
1623.9418 427.44467
1624.105 423.5668
1619.9077 422.85095
1615.7566 422.5368
1615.1846 426.09747
1612.0747 423.8461
1608.9945 422.7161
1605.2732 422.69504
1601.0345 423.896
1603.8743 425.19022
1608.4597 426.50784
1605.8276 428.21683
1604.3655 431.65027
1608.4363 432.29437
1614.8652 431.10208
1617.7878 430.44202
1621.2465 430.77954
1624.2527 431.56592
1627.7361 430.5714
1625.377 435.1697
1621.0571 437.5777
1620.0212 433.9269
1616.6082 435.39203
1615.0723 439.16974
1611.8599 435.97098
1608.2379 437.89935
1604.3772 436.29276
1601.2354 434.38367
1600.3325 431.01154
1602.2278 428.04306
1599.3477 427.38443
1590.7189 428.42108
1589.1091 424.7115
1584.424 423.6653
1585.769 429.5552
1590.1191 432.61526
1587.6155 435.28946
1582.626 433.68152
1579.7874 430.344
1577.7151 434.83185
1575.9529 438.81622
1580.4618 438.56018
1584.6578 437.8752
1587.4845 454.92276
1590.997 456.37674
1591.865 460.00232
1603.9648 461.3843
1603.2603 468.34442
1609.3384 470.00235
1615.0848 470.83334
1615.7366 466.1435
1613.9332 462.66852
1606.82 454.8068
1614.4553 454.9302
1618.4619 456.81467
1621.086 454.69037
1625.1854 455.57294
1628.1919 457.91684
1626.3066 460.72662
1622.1154 459.7802
1621.4131 464.2169
1619.3608 466.8366
1624.4956 464.3221
1627.6852 464.40732
1624.3939 468.17783
1620.2251 470.0934
1622.958 486.5715
1622.5325 491.02026
1611.727 485.28464
1590.5037 489.35822
1583.6338 485.00003
1572.1692 485.03708
1561.9714 490.25223
1552.898 494.7505
1553.4393 491.66922
1552.9447 488.34415
1549.6401 485.9002
1541.5258 485.20084
1532.9999 495.6997
1532.1732 486.36548
1528.0624 486.19122
1527.9202 488.66745
1525.3713 487.3284
1525.0422 489.90976
1526.5305 492.08743
1523.9741 492.71686
1525.6467 494.98428
1525.207 497.8303
1527.6628 500.6044
1531.2811 501.9921
1534.596 502.93628
1538.1096 503.08945
1541.7952 502.97913
1545.186 502.11853
1548.2556 501.53235
1550.2587 499.55136
1551.8566 497.43506
1564.0161 498.81082
1569.3937 501.6967
1573.8564 502.9802
1578.707 502.38992
1584.6985 500.7815
1589.9229 496.37933
1603.7896 500.85165
1612.9167 502.98187
1620.7638 501.94022
1621.8824 495.31287
1624.7491 499.1763
1627.7378 497.18848
1625.5576 494.93243
1625.5988 490.79623
1627.6868 488.67703
1628.4657 492.95734
1636.5658 494.09686
1640.946 500.43906
1649.3157 502.95993
1654.6047 499.9273
1659.0135 500.9587
1662.7622 499.3956
1665.563 496.91174
1662.9648 494.0713
1666.4897 493.17957
1664.456 490.58276
1661.4968 489.88147
1657.2295 494.11972
1648.5848 491.69946
1639.7057 486.72528
1641.6521 469.06067
1638.4963 466.0132
1636.8787 461.46936
1637.2432 457.87805
1638.6693 455.2219
1642.2133 454.59122
1645.0775 456.59436
1647.0522 454.2251
1653.8717 454.43204
1658.2991 455.02737
1660.825 459.20932
1661.6306 463.0591
1662.2529 455.24063
1664.9917 457.32126
1665.0404 460.5035
1665.125 463.5068
1664.1785 466.42267
1661.9481 468.98273
1660.8267 466.43216
1657.766 465.01474
1657.6388 467.87238
1658.6954 470.17157
1654.8372 469.99426
1654.2949 465.86548
1652.9382 461.65012
1655.2113 457.6011
1650.5608 455.68777
1648.1725 459.33322
1642.0182 459.14117
1640.1176 462.5287
1643.3585 465.5498
1646.5502 469.28406
1648.5143 465.70938
1651.4258 467.64124
1650.4553 470.7416
1646.2354 485.33856
1651.3911 486.36435
1654.0209 489.3616
1656.238 486.8556
1659.7633 486.99265
1663.3761 487.3183
1666.62 489.4137
1676.585 491.44308
1678.6414 487.55322
1684.3762 486.17215
1684.4675 489.98007
1687.374 487.97827
1690.0968 486.47626
1691.5382 491.1035
1692.3339 488.44635
1694.9917 486.45078
1697.3782 489.06897
1701.4028 487.90445
1703.7783 491.04935
1699.2834 492.8139
1700.5012 496.75876
1696.8723 496.82883
1691.9607 496.5222
1688.2595 499.13376
1683.0472 497.98993
1677.1348 499.60278
1681.6917 502.8826
1685.796 503.338
1689.4333 503.22873
1693.6531 499.72806
1698.3472 500.0941
1696.6182 502.96356
1692.8208 503.19397
1692.6838 519.9744
1701.51 521.00684
1700.7819 501.92145
1702.8917 499.5821
1704.1216 497.1104
1703.7924 494.29373
1715.8706 492.0445
1716.4076 495.67072
1716.3076 499.53592
1716.3342 503.41833
1719.6682 506.19907
1716.2527 508.06592
1719.6434 509.8995
1716.5591 512.8019
1719.9878 514.9085
1716.5653 516.9792
1718.9655 519.435
1721.4856 518.24756
1723.6812 515.75757
1722.41 511.99115
1724.0322 508.2035
1725.9877 511.70114
1726.5066 515.3866
1732.2765 516.1381
1735.7837 517.9541
1735.5814 513.6136
1730.9231 512.5543
1728.2122 508.2735
1731.3328 504.9488
1731.8215 508.4405
1734.7427 510.56836
1735.4414 507.62878
1735.7557 505.03772
1733.8787 503.42822
1736.3269 502.14154
1735.9915 499.50958
1735.731 496.63974
1732.8389 498.4792
1732.7927 501.15515
1729.7913 502.0321
1729.7706 498.6379
1725.904 498.03314
1723.5251 500.55368
1726.2222 501.5079
1726.702 504.99985
1723.1985 504.48822
1719.7825 502.82666
1720.6191 500.20987
1719.0183 497.5736
1722.0481 496.8869
1721.8975 493.4663
1718.888 492.9015
1720.1597 489.33145
1716.3257 488.2567
1716.088 483.9579
1719.6514 485.74228
1719.9594 481.18164
1722.9241 483.63004
1724.5165 486.8632
1723.337 490.21722
1725.8741 491.7527
1724.7532 494.9584
1727.4753 494.8839
1730.2705 495.0332
1732.8209 495.21735
1735.5734 493.32324
1732.1079 490.9601
1735.4644 489.31873
1735.9353 485.0613
1735.4144 480.92664
1732.9264 477.88528
1735.5248 476.2892
1734.925 471.77664
1731.2922 474.08804
1727.9583 472.2654
1726.8197 476.69357
1729.5626 478.68997
1731.7876 481.14606
1732.7632 484.0073
1732.8807 487.0844
1729.2877 491.79422
1727.8026 488.87347
1729.2146 486.49634
1729.3894 483.22372
1726.4587 482.46295
1723.9708 479.2434
1720.9575 476.457
1716.2964 479.65872
1716.3145 475.85788
1717.62 472.79318
1720.0828 469.9428
1723.3782 473.13495
1725.0111 469.46182
1721.989 467.30444
1720.4071 464.7678
1720.1282 459.83786
1719.6904 456.75497
1718.701 453.689
1715.6537 453.02588
1716.5139 455.62402
1715.0612 458.23465
1717.5145 458.34863
1717.2239 460.8749
1718.2708 463.51645
1716.6309 466.52487
1715.7728 469.79367
1715.3601 462.90787
1702.4846 465.60486
1700.544 467.67584
1698.4962 469.54507
1695.363 470.4547
1691.1843 470.86282
1693.7303 467.69543
1696.9244 465.91174
1699.1807 463.22073
1692.6538 464.09183
1689.6447 466.80457
1686.1532 470.42407
1684.8718 465.96414
1680.3705 468.8036
1677.6943 464.3018
1675.7957 459.68018
1677.0603 455.62177
1681.0087 455.786
1684.686 454.7415
1684.7117 459.54306
1689.9839 457.91086
1688.6124 454.76846
1692.7655 454.14813
1694.163 457.17502
1696.1211 455.10837
1698.0073 455.70474
1700.021 457.3334
1698.8113 459.7518
1702.8337 462.2507
1702.9591 458.99673
1702.248 455.96097
1699.4908 454.2956
1694.6487 437.88074
1698.0723 435.97864
1701.3682 433.3315
1716.947 431.524
1718.0928 428.83176
1720.3059 426.31186
1717.3854 425.04675
1718.1342 421.2055
1720.8912 422.7062
1723.8761 421.391
1726.7725 422.51382
1723.6842 424.87323
1723.0425 428.06024
1721.9363 430.77243
1726.0029 430.1441
1727.3899 434.05356
1729.0681 438.01303
1725.5402 437.54056
1723.4983 434.09427
1720.0526 433.41827
1717.193 434.6544
1716.3281 437.595
1719.1754 437.65955
1722.1896 437.83517
1724.9808 441.454
1726.0308 445.588
1729.0109 442.39154
1730.4014 445.76828
1729.1796 449.86572
1726.0062 449.5677
1723.5208 451.74234
1722.0134 448.2724
1721.7896 444.8403
1720.6277 441.43094
1716.6947 440.9983
1716.8872 444.1006
1717.5604 446.82852
1715.6099 449.33044
1718.0662 450.0385
1720.371 451.31653
1721.9202 454.39227
1722.6411 457.16916
1725.9534 453.9433
1727.9796 456.20468
1728.5505 459.43292
1731.9144 459.7295
1728.9025 463.2199
1726.6049 463.57367
1725.6508 461.05792
1724.9012 458.26266
1722.1665 461.3159
1723.5477 463.9542
1725.8062 466.19247
1728.8702 467.8143
1732.1115 468.72256
1735.4005 466.82217
1731.185 463.99948
1734.0281 463.63733
1735.1927 460.78207
1735.0881 456.3314
1731.6987 456.15735
1730.5049 453.04837
1734.7305 451.7841
1732.6285 448.9569
1734.9025 446.477
1734.6328 442.2352
1731.9315 440.46613
1733.937 437.39142
1731.9581 434.612
1733.1774 431.04755
1729.6041 431.11215
1726.3392 426.12546
1728.8359 427.37567
1731.8447 427.62906
1731.9551 424.0173
1729.2665 424.3294
1730.1421 421.76596
1730.8658 419.27612
1728.6263 419.46307
1729.2448 415.91315
1727.708 411.8196
1725.6478 408.06662
1721.9092 404.70718
1720.4746 408.74713
1722.1772 411.4911
1724.2107 413.4315
1725.8157 415.8401
1726.1884 418.86676
1722.3802 418.4235
1718.1022 417.6033
1720.7354 415.42163
1718.2766 412.48828
1718.4062 405.80234
1718.9703 401.37515
1723.062 400.46692
1725.894 403.1806
1726.1882 397.77313
1723.3047 394.82236
1721.2833 397.37735
1718.3407 397.31464
1718.9543 393.2685
1721.6812 390.53088
1725.72 392.05707
1725.5828 387.19864
1722.3944 386.25876
1718.6483 388.24442
1718.7196 383.83228
1722.158 382.23203
1725.6035 381.7544
1725.4086 376.9732
1722.1322 378.06445
1718.902 379.33453
1718.236 374.91226
1718.0154 370.03662
1721.0361 365.80426
1722.0455 368.31213
1721.7852 371.127
1721.7378 374.2687
1725.1205 373.19287
1725.4266 369.68057
1725.2574 366.47083
1724.5791 363.6292
1723.4945 360.95844
1724.999 357.60583
1724.635 350.91434
1723.5966 354.35962
1720.8999 358.07712
1719.1521 362.18936
1718.0452 365.6181
1709.8726 360.50018
1717.3551 359.3673
1718.0831 355.4715
1719.1017 352.25653
1719.4567 349.05563
1718.3728 345.789
1721.3147 343.6688
1723.5564 347.6019
1724.7867 344.4832
1724.7087 340.87576
1720.9564 339.89587
1718.139 341.53067
1718.1808 337.43927
1723.4406 338.01108
1724.957 335.784
1721.2795 335.6556
1718.7367 333.48434
1719.2192 329.9296
1723.6447 331.4891
1724.193 326.30887
1721.3147 325.74896
1718.104 325.75433
1718.9039 321.0992
1723.7991 320.75232
1720.8799 316.8924
1718.154 312.92084
1721.5378 312.08716
1724.545 313.75473
1723.1875 307.78558
1718.6616 308.23337
1719.0739 304.44662
1722.7578 303.1847
1718.2913 300.37173
1720.8787 298.1614
1723.8864 299.69858
1722.8652 295.23096
1723.3538 291.94763
1723.508 288.4723
1720.7075 288.4499
1723.377 284.845
1720.3746 284.32486
1717.9642 286.27054
1717.0325 282.96497
1712.0975 280.65488
1712.2646 277.0862
1711.5757 274.33954
1713.1133 271.77835
1710.5017 271.80994
1710.8667 268.93527
1713.9343 268.84103
1712.2867 266.21402
1711.6464 263.62094
1710.6271 260.9952
1711.9679 258.78415
1712.408 255.89145
1711.5525 253.15962
1709.6385 251.6346
1712.2482 250.05034
1710.3385 248.45653
1712.4722 246.84767
1709.793 246.03516
1708.052 247.60654
1707.53 249.84428
1706.887 252.30255
1707.4673 255.0022
1709.8245 256.18256
1707.641 258.9973
1707.8748 263.35223
1708.2197 267.15295
1707.906 271.58273
1708.6633 276.86996
1709.0913 282.65863
1711.9011 286.1548
1711.4875 290.93066
1716.8657 289.38666
1719.3087 291.94684
1718.0725 295.2534
1711.9387 295.7829
1711.8564 300.79147
1712.4242 305.29248
1712.591 308.9211
1712.6111 312.5432
1712.489 315.9097
1714.637 318.06537
1712.9343 321.44955
1712.8665 325.02805
1712.8771 328.67673
1713.148 332.34253
1713.3126 335.8057
1713.0527 339.51392
1712.6976 343.96906
1712.3077 348.75452
1711.9492 354.71606
1701.1467 353.43655
1698.0021 351.63794
1695.7461 348.95676
1692.8889 352.0092
1692.302 348.6329
1690.5975 346.60886
1688.819 348.18433
1687.3668 350.79047
1688.4633 353.87103
1691.5518 356.01956
1695.6157 356.06647
1700.3909 356.7492
1700.6003 360.6927
1704.8047 366.7547
1696.3737 372.7306
1686.9775 374.8695
1677.6364 376.56378
1665.4204 379.25195
1676.7659 366.43866
1681.852 368.87592
1687.5042 368.58826
1692.6233 366.46207
1697.3567 364.89462
1695.8204 361.01877
1691.227 361.04208
1687.2491 358.78183
1682.1731 357.94553
1684.1809 353.71524
1685.6547 347.39566
1682.3103 348.98788
1677.7817 349.9238
1679.5193 353.87143
1675.8079 358.74173
1673.8398 353.18924
1664.0275 356.7313
1660.636 355.2004
1657.8451 353.16885
1655.1932 355.46454
1653.5837 352.076
1649.0145 352.3177
1651.2167 355.4946
1647.9801 356.6156
1644.5332 353.46005
1643.1599 343.539
1634.9745 343.64038
1636.7488 329.11984
1642.7446 328.84122
1649.5233 328.30276
1658.0437 327.7419
1652.964 316.43292
1649.5477 315.57883
1656.2566 315.86218
1659.304 315.64966
1661.7213 313.66223
1659.7178 311.56586
1656.5846 312.08148
1652.6816 313.11423
1649.74 310.14716
1645.6721 311.22
1646.4563 306.50293
1642.257 306.84332
1641.424 310.46948
1639.1877 312.5712
1646.3579 315.5576
1642.7606 315.59592
1638.812 316.34256
1634.1929 316.48297
1630.4939 315.78964
1627.246 314.5943
1626.374 311.80945
1630.2172 311.28207
1633.1543 312.49213
1636.1111 313.39838
1636.2358 308.7259
1638.2122 304.40997
1641.9912 302.06277
1641.6925 297.6235
1638.4463 294.26678
1635.2981 296.77927
1635.0592 300.76038
1633.2559 304.66147
1631.1333 308.00635
1628.9458 303.8445
1626.4205 300.90247
1622.9692 303.95444
1626.2596 307.8017
1622.0553 309.44568
1622.013 313.24728
1623.7526 316.23853
1627.0349 317.06995
1629.7661 328.6634
1632.4257 329.6232
1626.3619 329.9834
1621.0338 330.25406
1612.9058 330.60864
1599.1813 331.47055
1597.1512 317.02612
1597.7377 314.01712
1596.2983 311.004
1595.6307 307.33206
1591.8457 306.18008
1594.9375 302.78952
1599.3665 302.64426
1602.7882 297.82257
1599.8605 295.12988
1597.3048 298.86945
1595.1992 295.2339
1597.6516 292.32428
1595.8414 289.45035
1597.6531 287.50537
1600.0992 289.28098
1599.332 285.34354
1597.9032 282.35025
1596.0092 279.65735
1592.9636 277.7863
1591.1969 274.5249
1591.3154 270.89252
1588.5104 269.76862
1588.5989 266.47787
1592.5011 267.35297
1591.0916 263.5298
1590.5659 259.7533
1590.7948 255.5149
1594.6564 256.1966
1596.7161 259.7235
1595.1487 263.0235
1600.0972 267.21826
1596.0486 267.24045
1594.6477 271.8143
1596.8333 275.03522
1598.7124 271.13144
1603.3348 269.7663
1602.4265 274.06955
1602.7921 278.05484
1599.1877 277.76593
1601.2361 280.88953
1601.6488 283.82593
1602.3708 286.96597
1604.9 287.8611
1602.3773 291.49597
1605.0475 294.5956
1606.3608 290.72263
1610.8777 290.0855
1609.7916 293.4592
1609.4841 297.19635
1607.5312 300.32803
1603.2098 301.55865
1606.4017 304.38654
1609.8536 305.27167
1606.2318 309.37366
1603.4192 306.43185
1599.7017 306.79602
1600.8804 310.6449
1603.141 313.20752
1600.6862 316.40823
1603.9746 316.74432
1606.8646 313.8931
1608.0603 317.00052
1611.3278 315.09454
1614.036 316.13232
1617.1616 316.52145
1620.2302 316.45963
1617.2426 312.89612
1612.848 310.03635
1609.5901 311.2072
1613.9929 305.42975
1617.0607 309.42923
1618.6262 305.71475
1613.1543 300.84625
1614.5321 295.65768
1618.9075 300.72604
1619.1685 296.07037
1622.918 295.3953
1625.856 297.59097
1630.688 297.53018
1630.7528 292.50232
1627.2317 293.27628
1623.733 291.28418
1623.2573 288.1064
1627.967 288.57468
1631.9769 288.01126
1634.3114 292.06412
1636.1317 288.64008
1639.5925 289.77545
1642.3851 291.79926
1645.6165 293.9548
1647.5312 297.88065
1646.5854 301.45203
1649.8236 304.46506
1653.3022 305.93256
1653.7627 309.35355
1657.4354 307.95062
1660.7866 308.5597
1663.1569 310.68124
1665.0216 312.4015
1666.8385 314.23227
1669.1212 313.46964
1667.4933 316.5138
1664.4624 315.08496
1662.6119 316.4901
1667.094 327.2925
1674.5016 326.60355
1687.0486 338.52975
1685.8142 326.0802
1687.6652 315.2747
1689.6306 311.9112
1692.2585 314.09232
1693.401 310.44012
1691.2114 308.2766
1689.7667 305.10806
1693.604 306.3404
1693.7776 302.78076
1690.9834 301.89737
1692.8755 299.0149
1693.6366 295.97302
1690.5359 294.7453
1693.8374 292.21027
1693.3885 288.06262
1691.073 290.84857
1688.7742 288.05792
1687.559 291.8319
1684.3615 289.92792
1683.8967 286.56232
1679.6025 286.9002
1680.4487 283.33167
1676.2795 282.42404
1674.6152 286.464
1669.7623 287.4587
1671.0378 282.79175
1673.8658 278.95853
1675.0118 274.94553
1678.45 277.43045
1681.6216 279.36118
1684.584 281.95947
1687.1713 284.65018
1690.8029 284.3438
1694.1228 284.2379
1693.2472 280.2452
1688.8599 280.5226
1685.8762 277.52835
1682.7068 274.64337
1682.5234 270.3586
1678.7537 272.3287
1675.2297 270.77725
1676.7291 267.6841
1679.7949 266.91287
1682.8838 265.92188
1682.0526 262.719
1680.1536 260.56345
1677.0598 260.38333
1677.4672 264.03818
1674.92 262.76685
1672.5154 262.55835
1671.4482 265.04117
1673.3159 267.22235
1670.1952 269.1391
1672.0339 271.19617
1670.8235 274.2701
1669.7527 278.23456
1666.83 275.48203
1663.3684 275.85068
1659.9194 276.35052
1658.4735 279.56998
1655.7124 280.23154
1654.8633 276.88196
1656.9532 274.7615
1660.407 272.90878
1657.9622 270.4865
1655.3604 271.78162
1652.9841 268.76285
1655.1123 264.64572
1656.025 267.51678
1659.4789 267.06415
1658.4592 263.2185
1660.4155 259.10074
1664.2972 260.22464
1662.4409 263.38538
1663.5354 267.1053
1661.8358 269.73645
1664.3452 271.89127
1667.3936 271.112
1668.2405 267.4094
1665.9785 265.45572
1668.0717 263.45877
1670.4059 261.16663
1667.5685 260.23242
1666.6793 257.22217
1663.9143 254.74103
1659.965 254.41246
1656.4081 254.10814
1652.4451 254.7277
1654.2069 250.48209
1655.2819 246.9048
1656.1759 243.9857
1649.6892 244.99017
1650.5437 248.19173
1646.2063 246.68813
1643.1556 245.14764
1645.8225 250.4535
1649.2014 252.21768
1648.4661 256.627
1651.2634 258.96912
1655.9935 258.7568
1653.94 261.81644
1651.8417 265.48853
1649.2445 267.7669
1647.0896 264.62457
1650.0812 262.65567
1646.3728 260.54825
1644.707 267.45035
1642.7548 263.5558
1642.6426 258.57312
1645.2175 255.02531
1641.077 254.86528
1637.2695 253.08995
1641.7708 251.42664
1641.74 248.22122
1638.7661 245.8643
1636.9913 249.41092
1632.7799 249.24608
1634.3967 245.56795
1629.0562 245.42256
1629.2958 249.29405
1629.0913 253.19183
1633.1282 253.71907
1632.7539 258.18262
1637.2208 256.98828
1636.1476 260.78952
1639.6056 260.69064
1638.6691 264.75925
1636.06 267.15942
1633.6228 262.7079
1630.8165 264.6634
1628.781 260.9909
1629.3346 256.86884
1626.1237 257.3879
1623.0732 256.9359
1624.9564 253.72862
1625.9794 250.70854
1621.888 250.23485
1625.2747 247.2804
1621.6044 245.31587
1618.1807 247.93301
1614.0657 246.23187
1609.0715 246.31416
1610.1729 250.8676
1614.2649 251.53159
1617.8518 252.76514
1621.1835 254.08667
1618.5146 257.05606
1615.2715 257.29376
1615.9109 262.89258
1618.7717 261.2505
1621.2782 259.25696
1624.3594 261.29028
1621.8065 264.64322
1618.6937 266.3535
1616.4528 268.5981
1612.566 262.77335
1612.6808 266.74432
1611.3938 270.40735
1612.5503 274.28085
1615.0616 271.65848
1618.2559 272.6329
1620.7202 274.3926
1622.1367 276.99274
1623.8921 278.9547
1626.9917 278.78827
1624.6154 274.30032
1623.602 271.76343
1620.989 269.57535
1624.9414 268.47882
1626.2938 264.85938
1629.0212 268.33307
1628.1516 271.90973
1626.692 275.7457
1629.8713 275.53625
1632.6349 272.9361
1632.7104 268.67117
1636.8469 271.6885
1641.0127 268.80505
1641.1841 273.09485
1644.9347 273.14545
1646.7334 270.50848
1650.1842 271.24146
1652.8184 272.77756
1651.872 276.14514
1648.8689 274.49017
1648.8212 278.05838
1652.1484 279.5549
1653.1807 282.2522
1655.7651 283.48273
1658.0494 285.02307
1654.5886 287.72928
1653.3009 291.55576
1657.6682 290.28378
1660.4033 288.12463
1661.3848 283.12823
1662.1321 279.5808
1665.9421 280.30743
1666.8928 284.38745
1663.921 286.2439
1663.8463 290.09128
1667.0647 291.59283
1670.3513 291.10638
1670.4564 294.13394
1672.147 296.3042
1669.6382 297.94003
1666.7755 295.82324
1663.5936 294.24634
1660.2897 294.59753
1656.946 294.18655
1653.9785 295.85913
1656.9415 298.9447
1660.0887 300.18307
1663.3168 298.5323
1666.979 299.89178
1662.9705 302.5447
1666.1564 303.1765
1666.7683 306.41446
1670.1963 307.18115
1669.6398 303.71243
1671.452 301.14206
1673.8025 298.50797
1675.7943 301.0391
1677.907 303.9684
1673.6873 304.7619
1672.7543 309.61298
1675.4666 308.13226
1679.0602 307.67154
1683.1614 307.6622
1681.7905 303.67722
1684.4016 300.875
1683.8845 297.69516
1679.9609 299.93808
1677.3689 297.04504
1677.664 293.2244
1674.5449 294.4477
1673.7646 290.61673
1677.4678 289.67902
1680.8774 291.23306
1680.8362 295.69754
1683.8862 293.63345
1686.9614 295.59467
1688.6824 298.5939
1687.6925 302.00668
1685.707 305.0169
1687.8195 308.35916
1685.5793 311.4255
1682.6133 315.2122
1681.2349 311.40973
1677.1932 311.84772
1677.2582 315.6596
1671.856 316.06558
1673.2461 313.1688
1669.7749 310.69888
1666.8127 309.97256
1664.206 308.00977
1662.6432 305.7674
1659.7084 304.5284
1656.6929 303.69177
1653.3528 301.9758
1651.9045 299.14
1650.1606 294.96564
1649.1727 291.09552
1645.3384 288.78595
1647.2819 285.29755
1650.0895 287.6855
1652.6006 285.38174
1650.4355 283.6424
1649.0223 281.54193
1646.2761 280.26434
1644.7856 282.82782
1642.782 285.31732
1639.388 285.76093
1635.1948 284.73428
1634.8179 280.90204
1639.0637 281.45038
1642.4462 279.58774
1644.9419 276.742
1639.51 276.6682
1635.6693 276.40247
1632.1577 278.0926
1629.8446 280.61832
1630.9369 284.29977
1627.6475 283.30585
1625.4546 285.43152
1624.5144 282.01794
1621.4988 284.95953
1618.2614 286.63245
1619.0414 291.02094
1614.7444 289.94104
1611.2286 286.34174
1612.3511 283.33313
1615.4465 284.70154
1615.0231 280.54056
1618.4458 282.12494
1621.2928 280.94077
1618.6375 278.21674
1616.3813 275.88846
1613.4592 277.50235
1610.7941 278.83127
1608.95 280.8518
1608.1654 283.7058
1608.032 287.41803
1605.3868 285.04514
1604.2551 282.73148
1605.656 280.34955
1606.2521 276.7844
1608.6362 274.50217
1607.3381 270.88535
1607.3516 267.0009
1603.9817 264.284
1599.7507 263.33548
1601.995 259.83334
1605.6936 257.17148
1606.4658 260.46048
1608.7322 263.61737
1610.6271 259.6063
1612.1913 256.13022
1608.6692 255.06183
1605.698 252.18408
1605.0132 248.33813
1603.3344 244.97252
1601.4224 251.12856
1602.7786 255.19495
1599.2925 256.39502
1597.414 252.81206
1597.1334 249.17075
1599.5631 246.45445
1594.3074 246.33812
1589.7018 246.61316
1585.799 248.83089
1592.7231 251.20473
1588.1702 252.00745
1586.803 256.7101
1583.1617 255.64337
1583.6632 252.51309
1578.0155 253.06145
1574.5688 250.04271
1577.47 249.6832
1581.5371 250.22269
1580.083 247.82582
1584.3325 245.4777
1579.1399 245.42542
1575.0021 246.28937
1570.9979 245.38467
1571.244 249.17574
1568.4183 251.36581
1566.5427 254.51099
1566.4863 257.90054
1563.9827 260.10638
1559.4847 258.1319
1562.7031 256.1976
1564.6611 251.05534
1567.6659 247.53468
1565.4979 245.25607
1562.7595 247.03755
1561.2051 249.75935
1561.0935 252.88643
1558.3857 254.35002
1555.7622 255.73509
1553.8738 258.23105
1555.5479 260.54523
1558.4199 260.82367
1560.7024 262.56198
1563.7037 263.1513
1566.8274 264.1484
1568.7478 261.17288
1570.2189 257.8618
1571.0192 254.74046
1573.302 252.84673
1573.809 258.93454
1575.9957 256.42175
1579.5573 256.44348
1581.4651 259.28506
1584.5774 260.62497
1586.9137 262.78476
1584.5939 265.37085
1582.5186 267.33112
1583.1418 271.09885
1585.4948 269.12006
1587.0967 272.45978
1587.0259 275.2499
1588.8159 278.01297
1588.778 281.33978
1592.9663 281.80255
1595.5579 285.3019
1592.7389 285.09756
1591.5488 287.88965
1593.3634 290.99564
1591.189 293.87057
1589.4386 290.92905
1586.7194 293.7216
1587.8689 296.87216
1592.1234 297.29483
1591.3677 300.5905
1586.3138 300.4544
1588.2433 303.3447
1587.9973 307.13016
1586.5352 310.86697
1589.7893 311.0845
1592.6638 312.41974
1593.0631 316.4005
1587.8625 316.03162
1580.249 317.28793
1583.1206 313.7355
1583.4128 309.4187
1583.846 305.53052
1579.3888 308.9605
1576.7717 313.12964
1571.318 315.2793
1573.75 309.1418
1568.0267 309.23755
1560.6196 309.59985
1563.6971 305.4657
1568.0022 303.59885
1571.9825 303.54788
1574.8253 304.98666
1578.7363 304.9769
1578.321 300.85837
1582.1862 302.0759
1583.4202 298.17096
1580.1171 296.79205
1576.9598 297.66077
1574.1646 299.56186
1570.8622 300.1824
1568.1104 298.74158
1565.0626 297.85046
1564.095 301.3173
1561.0924 299.164
1559.0928 296.26846
1559.4854 293.13397
1560.3088 290.5153
1563.325 289.72568
1567.1202 290.36136
1564.4181 292.46344
1562.8135 295.163
1567.1748 294.74243
1569.6788 292.11493
1570.7047 295.73724
1573.6486 295.75507
1572.5579 291.8984
1575.0388 292.40192
1576.2709 294.84143
1578.2367 293.7459
1579.8137 292.71646
1576.3523 290.38773
1578.647 289.87854
1579.5942 287.7029
1580.2103 284.9492
1582.333 286.86398
1582.4626 289.4796
1581.1759 291.4123
1582.9646 294.7365
1583.8158 291.98868
1586.0636 290.2186
1584.8998 287.12332
1587.9065 287.40158
1589.2212 284.46637
1584.6581 283.93393
1584.6937 280.85968
1584.556 277.62653
1583.5493 274.63663
1581.1473 273.2911
1579.1549 275.7343
1576.1799 277.195
1577.1836 280.37643
1581.1611 278.98886
1579.892 282.438
1575.029 283.45877
1576.6497 286.6324
1573.8856 288.17493
1570.949 288.62323
1568.3691 287.10495
1565.0768 287.03485
1563.4042 284.3191
1563.5132 281.84085
1561.8079 279.39944
1563.9908 276.136
1566.9084 277.42203
1566.8818 280.56604
1567.5581 283.83908
1571.4673 284.8378
1570.9106 281.06903
1573.103 278.7056
1570.0826 276.0394
1573.615 274.4403
1575.7594 271.85794
1578.7968 271.49533
1580.2141 268.6313
1574.5742 267.83853
1577.548 266.6386
1580.5902 263.5265
1576.9664 261.7333
1572.5039 262.82553
1571.88 266.47867
1568.8845 266.9968
1570.9519 271.09662
1567.3129 272.809
1563.7701 272.3899
1565.8293 268.69345
1562.4766 265.89673
1561.8389 268.8136
1560.6841 271.65918
1557.663 272.3829
1553.939 270.961
1557.4319 269.53986
1558.5446 266.69385
1557.548 263.74844
1555.0338 265.22714
1554.2882 267.99963
1551.4542 266.71933
1553.3469 263.11267
1551.1018 261.60834
1549.8606 258.6293
1545.4923 258.89026
1547.0302 262.3816
1549.0518 264.88132
1546.9337 267.51285
1549.6321 270.26788
1546.8999 273.13593
1542.8871 274.28702
1545.4113 276.59244
1550.1658 274.91922
1552.1433 273.054
1554.3572 275.3436
1557.351 275.08234
1560.6613 275.54352
1557.9514 278.59625
1558.2274 282.30222
1561.074 285.26773
1560.6469 287.8579
1557.5421 286.00995
1554.0756 283.06503
1554.1486 278.86282
1551.0253 280.78906
1549.6052 277.57837
1546.853 279.35107
1547.2943 281.92657
1548.9272 284.15765
1551.1406 285.89258
1554.1053 287.4921
1556.9673 289.97018
1554.5565 292.07312
1550.9857 290.4911
1548.0299 288.14325
1545.6864 285.14172
1543.2742 283.0028
1543.4904 280.30267
1541.4755 278.21707
1539.2079 283.14713
1538.2219 280.15143
1539.1339 276.20825
1535.9089 277.61005
1534.6036 280.85477
1534.2842 284.01923
1535.979 286.52063
1539.1866 287.0616
1542.1094 285.8824
1544.2333 288.57382
1546.4796 291.58484
1542.837 291.94485
1544.3235 294.76038
1539.1952 296.752
1539.991 293.52045
1540.4224 289.86414
1536.4789 290.51007
1536.5719 294.31393
1533.6013 295.92038
1531.0236 297.92386
1528.4716 300.37936
1522.8833 301.38943
1521.3033 297.33636
1525.4705 297.16205
1528.509 293.78696
1532.4521 292.61432
1532.5682 289.1066
1530.4556 286.73376
1527.3794 289.35605
1523.658 292.79092
1520.0695 289.73935
1523.3359 288.25812
1523.4841 284.4533
1527.0265 284.77228
1530.3606 283.64966
1531.0012 281.242
1532.4662 278.11475
1533.515 275.1502
1534.2899 272.14868
1531.6426 270.9601
1529.4143 268.15854
1534.517 267.57526
1534.5236 261.77
1537.6769 263.81625
1539.1505 266.7128
1537.1039 270.40488
1536.7983 274.13132
1540.0837 272.68307
1541.0029 269.4385
1544.4318 270.3113
1543.4497 265.65698
1542.3113 261.60443
1538.6138 259.40543
1540.9213 255.2815
1544.21 254.92738
1547.7654 254.81102
1551.2617 255.52943
1552.7288 253.31287
1554.5975 251.6392
1557.4116 250.44183
1558.0905 247.14572
1559.9972 244.63449
1554.2074 244.96935
1553.6255 248.23422
1549.9502 250.88937
1549.4922 246.24422
1544.9536 245.2279
1546.1226 250.14888
1542.4119 249.77097
1539.6735 245.0695
1536.0382 247.11646
1533.591 244.62207
1529.6067 245.05724
1526.021 244.51888
1522.5302 244.73955
1523.8087 247.273
1520.5737 247.97827
1517.5747 247.15692
1519.1799 244.42801
1514.7441 244.17458
1514.6085 247.26741
1511.2101 245.55843
1508.0126 245.67264
1504.7959 245.05867
1504.8511 248.64876
1508.2777 249.65129
1511.1517 252.22946
1512.1605 249.1927
1515.4984 250.83076
1517.3256 253.85396
1519.1377 251.3209
1522.2549 250.95514
1521.6913 254.54288
1524.1952 256.9951
1520.7737 259.4416
1518.3386 257.003
1514.4163 255.38324
1511.6356 259.59076
1507.5127 259.76865
1503.9403 261.19553
1502.936 258.04376
1500.58 259.2626
1500.9562 263.05942
1500.5422 266.52454
1504.2627 266.05167
1506.3284 263.6606
1509.5226 263.13617
1512.5128 263.98837
1515.267 259.97052
1518.4978 262.1622
1515.7526 264.89548
1512.6285 267.6799
1508.9635 267.36053
1505.9392 269.44083
1502.6383 269.15262
1500.1489 270.79626
1500.2206 274.62335
1500.3224 278.8765
1500.8413 283.01196
1500.5466 288.34103
1502.1859 292.06567
1505.7676 294.14957
1506.8151 297.554
1504.4117 300.98785
1500.7728 295.60718
1500.5841 300.42358
1501.1123 306.1078
1506.158 305.5777
1506.3022 310.92404
1509.9375 308.52292
1514.2601 308.96533
1512.3872 304.27625
1508.8457 301.54636
1512.4128 299.82745
1509.5244 293.656
1511.43 290.15915
1508.4773 287.20642
1505.8871 289.8064
1504.3755 285.26907
1506.8832 281.9043
1510.2784 283.03976
1512.2058 286.1108
1515.5409 287.5972
1515.2034 283.32217
1516.452 279.75793
1519.7603 278.62778
1521.8978 276.2233
1519.4883 274.02792
1516.9008 276.3579
1515.9624 272.8863
1513.063 275.51978
1512.9093 279.63223
1509.5681 278.39893
1507.5577 275.96768
1504.7958 279.37375
1502.8547 276.93082
1504.1254 275.09326
1503.1338 272.17303
1505.8269 273.47818
1507.796 271.48505
1510.0483 273.79654
1511.7666 271.14523
1515.2124 269.59525
1518.115 268.7575
1520.2379 270.86597
1522.9563 272.4506
1522.7545 268.02185
1519.5284 265.78806
1522.6011 263.7724
1524.4446 260.85117
1527.478 258.95694
1529.2751 256.2633
1528.6813 252.91556
1525.4882 253.37988
1525.2217 250.10536
1527.1184 247.7203
1529.4597 249.59425
1532.4971 248.75215
1532.3533 253.31197
1535.502 251.48232
1538.9453 250.11372
1537.2279 254.95128
1533.9083 257.25262
1531.0807 260.2967
1531.6461 264.95404
1528.0748 262.8383
1526.1692 265.80237
1525.8451 270.0017
1528.3519 272.28772
1530.4628 275.12378
1527.5096 275.48495
1525.0938 274.29913
1527.4573 278.0161
1529.5146 279.1114
1526.2788 281.16415
1524.4763 277.88358
1522.656 280.69754
1519.5546 282.37015
1519.26 285.7472
1517.2015 290.8537
1514.4451 292.49268
1512.2139 295.73907
1515.3796 297.08664
1518.7993 294.29227
1517.7438 299.25424
1517.8062 302.45895
1516.127 305.8954
1519.5063 306.57935
1522.6073 305.27124
1522.3477 309.64218
1527.0798 310.29572
1526.0996 306.74023
1527.2412 303.3546
1530.197 306.40848
1534.3145 305.86124
1533.1335 302.12576
1535.96 298.7923
1539.1438 300.07895
1541.8911 301.36295
1542.0164 297.25348
1544.5287 298.4272
1547.2458 296.98486
1548.8308 293.94757
1550.9373 297.33575
1552.6056 294.97278
1555.8054 295.95984
1553.4353 300.3806
1556.775 299.64398
1559.6802 303.41275
1555.972 303.919
1555.1991 308.3969
1550.8435 309.30713
1547.5356 305.07343
1551.914 304.18726
1550.2931 300.37253
1547.5967 300.77106
1544.8594 301.79443
1544.1951 305.83603
1548.1084 313.23434
1541.9497 310.49332
1539.5955 306.14084
1537.8701 303.13574
1537.0024 309.52454
1532.0901 310.86075
1529.6099 315.49197
1523.939 314.09155
1520.2424 315.35904
1518.7048 311.02542
1516.204 315.85233
1513.9314 312.5627
1510.6707 315.38156
1507.0406 347.8252
1509.3959 350.1549
1513.4672 348.93427
1518.6469 354.62927
1516.524 362.81216
1509.781 368.65695
1499.7723 367.61545
1487.9614 367.66125
1482.8137 360.50012
1480.8933 352.9745
1475.9426 349.70334
1474.916 353.98413
1475.6288 357.30597
1474.3357 360.48148
1474.9313 363.57123
1475.6621 367.16367
1472.6586 366.36545
1473.2506 369.4935
1475.0875 372.05548
1472.5922 374.70218
1475.2379 376.36902
1472.6069 378.34906
1474.8766 381.40033
1471.7236 381.74576
1468.6143 382.8537
1468.3916 379.93524
1469.2367 376.86484
1468.8656 373.73987
1471.1909 371.79547
1469.0531 369.26755
1469.3295 366.1899
1470.1619 363.075
1469.6644 359.67947
1472.0502 357.2801
1469.8367 354.72003
1472.8412 351.12183
1469.6724 350.60837
1469.2213 346.55338
1472.647 346.86682
1475.3615 344.94403
1470.9255 341.9957
1473.0385 338.23703
1470.283 335.91907
1474.4502 333.447
1470.944 331.95422
1470.8547 327.85712
1472.6449 324.92984
1470.6207 321.9388
1471.5941 317.89786
1471.2778 313.83566
1475.6208 315.16537
1480.651 319.8105
1476.8354 319.48276
1474.1079 319.7089
1475.2571 322.6727
1476.3455 325.4305
1474.5353 328.27472
1476.339 330.62906
1480.5042 325.92078
1480.51 332.13638
1478.3632 336.64093
1476.645 340.6646
1480.654 344.86533
1491.48 356.38568
1492.9602 362.13565
1495.0189 355.77963
1498.2736 353.86108
1493.357 351.7758
1496.6146 350.81104
1497.9685 348.18335
1500.2924 350.3482
1502.0906 353.81287
1505.7976 352.38187
1503.6875 350.36008
1502.6006 347.4128
1505.0983 315.65573
1501.2656 312.2004
1480.5339 314.2593
1473.9755 310.56424
1471.9506 306.9195
1472.6212 302.63892
1472.7131 298.29062
1472.4324 294.05762
1472.7472 290.19775
1472.9458 286.13382
1472.497 282.60068
1476.3324 284.07938
1476.0605 287.22815
1476.7734 289.9479
1476.0552 292.93954
1476.3027 296.26865
1476.3278 300.22476
1476.035 304.91235
1477.9214 310.1732
1480.6898 307.7829
1480.6047 303.30206
1480.6504 299.56824
1481.1499 296.74457
1480.8215 294.12033
1481.2786 291.10464
1481.451 287.77298
1482.1438 284.8024
1481.3412 282.48492
1480.123 279.6341
1483.1438 279.6534
1481.955 277.31046
1483.4707 275.42712
1481.1659 273.23505
1483.9055 272.2705
1483.8151 269.23495
1481.6471 267.92294
1478.3193 269.52786
1475.5726 270.83865
1477.452 273.27383
1476.9299 276.97397
1476.6201 280.8205
1473.5641 278.62408
1473.8901 274.9177
1473.1754 270.51694
1476.4562 266.8698
1474.0463 265.74966
1474.2369 260.47632
1476.9253 262.30554
1479.3381 264.43338
1483.9048 265.44986
1483.4994 262.57767
1485.6549 261.27292
1484.5713 258.80508
1481.3578 260.327
1477.6075 258.24722
1475.1921 255.36452
1479.1221 254.11739
1475.4948 250.80714
1478.5183 248.87738
1475.7968 245.13864
1478.8232 243.97159
1482.8636 246.41406
1482.5391 251.52258
1483.2098 256.37167
1485.3795 253.83038
1485.7299 249.74022
1501.253 251.14726
1501.1694 255.00317
1505.1663 256.44815
1508.7239 256.6031
1511.45 255.58679
1507.4 253.52989
1504.4288 252.331
1501.5753 247.21823
1486.669 245.39835
1484.5267 242.01027
1486.7622 238.06935
1484.2644 234.25981
1481.8075 238.41737
1476.9811 239.77995
1476.0844 234.66682
1479.3418 234.93182
1479.0105 231.35501
1476.1932 229.36969
1480.1041 227.68764
1477.9575 224.64122
1478.5681 220.90831
1480.8749 217.96234
1478.169 214.86398
1481.4384 212.59886
1478.4991 208.99289
1482.1016 207.89926
1485.7682 209.44727
1485.9583 204.89244
1480.8036 203.68236
1481.8018 200.00995
1487.2296 201.40106
1487.617 198.37527
1484.9567 197.34644
1482.1982 195.82047
1484.8492 193.51106
1488.4214 194.2071
1487.9333 190.08676
1491.5336 188.0659
1496.0024 186.7255
1500.5023 185.36853
1505.0448 185.32051
1508.4169 184.9586
1513.0066 184.2342
1519.4463 183.665
1525.7157 183.04852
1533.7888 182.74635
1542.166 181.96251
1550.341 181.43573
1559.3853 179.38008
1556.9944 193.30246
1557.4513 197.86618
1553.0168 198.93857
1549.6124 197.31256
1551.0814 193.13376
1545.216 193.68138
1539.1217 192.99773
1534.1234 194.36179
1538.5095 196.09843
1545.5505 197.44931
1542.4395 198.09703
1538.0707 199.16032
1531.92 198.94331
1526.5989 195.25816
1522.4983 197.69089
1517.0189 195.87834
1511.5665 199.40312
1511.0599 194.42976
1502.6138 187.4345
1499.1691 189.10326
1497.532 192.1296
1494.809 190.44145
1491.7578 192.42177
1494.4459 195.25331
1490.9158 196.67932
1492.1143 199.7595
1490.537 203.15756
1489.668 206.31015
1490.3326 209.3902
1487.858 211.52438
1489.853 214.24107
1485.4637 215.36894
1488.4893 218.23613
1485.0759 220.7832
1488.4523 222.95746
1488.0176 227.33635
1483.5039 224.9964
1484.5073 229.78963
1488.0912 232.65804
1497.6283 232.21445
1505.0713 221.49657
1514.4362 220.71739
1521.0007 220.60832
1542.2856 219.61652
1559.7095 219.71169
1584.3555 216.62047
1584.7928 213.35582
1583.6577 210.68393
1586.6155 210.17476
1584.481 207.38599
1584.5957 204.29147
1584.8977 201.00687
1584.7566 197.14975
1586.7936 193.43166
1573.8262 179.76334
1582.0632 179.70459
1586.8718 180.7081
1588.9875 179.64917
1595.0027 180.7095
1601.2039 180.65549
1607.4802 180.00212
1611.6677 180.71068
1616.1334 180.92513
1620.3568 180.99931
1624.0306 182.01013
1624.5211 179.68115
1628.5978 180.19925
1628.0165 182.76892
1631.5626 181.71388
1634.3545 181.12349
1636.7924 183.54109
1638.2644 179.67085
1639.7025 181.25772
1642.8052 180.42407
1644.8877 182.56894
1641.658 183.47688
1644.8489 191.88058
1637.9429 191.83354
1631.6226 191.66962
1633.2219 195.59424
1636.0983 195.78485
1639.5659 195.87268
1643.3044 195.68927
1645.8375 198.69273
1647.3948 201.98235
1650.3683 205.01175
1653.3231 207.79613
1654.0094 201.68504
1650.935 199.28824
1648.2831 195.48717
1652.3085 191.99709
1653.047 195.9016
1656.7268 196.11299
1658.107 199.43367
1659.0203 202.83998
1656.2936 205.10571
1657.6694 208.8329
1659.2036 212.51674
1660.947 215.6903
1663.1392 217.64769
1666.761 216.44926
1670.6985 216.10733
1671.305 212.0604
1667.7672 212.398
1663.9993 213.15393
1662.2217 209.65915
1661.671 205.8955
1662.733 201.13812
1665.6736 204.16833
1666.5579 208.3173
1670.8579 207.6834
1669.7817 203.94894
1671.7219 200.75987
1674.1947 205.01851
1675.187 201.62486
1678.3562 202.32484
1678.7448 205.34564
1676.303 208.03543
1673.9968 209.9597
1675.5188 213.1593
1674.2466 216.36589
1673.9015 220.49904
1670.2684 219.94989
1666.8506 220.10959
1668.5034 223.06241
1668.6293 226.16805
1671.968 224.71971
1675.4607 226.27351
1676.7462 223.90948
1678.051 221.05505
1681.5638 220.93158
1687.0864 223.7135
1685.3093 220.97418
1684.9908 217.10268
1688.4152 217.75446
1687.3837 213.40623
1688.2892 210.0452
1685.0386 209.26625
1683.2626 212.02008
1682.904 214.45961
1681.3408 217.31177
1677.6609 217.47032
1679.2502 214.23781
1678.5991 211.22223
1679.5784 208.12558
1681.7793 209.5662
1683.138 206.19785
1687.5952 206.49382
1688.1536 202.74905
1685.3181 203.49469
1681.7561 203.22028
1682.2546 200.36269
1685.2847 199.77269
1688.1504 199.57256
1687.4622 196.76591
1682.9587 197.22318
1683.2252 193.87784
1679.8939 195.99257
1680.0083 192.66649
1676.3262 192.32253
1673.6881 194.1136
1676.9185 195.01247
1679.271 199.29472
1676.7415 198.19176
1674.0442 197.73227
1671.063 197.1826
1671.2734 192.77255
1667.7988 192.00848
1667.5316 193.9937
1668.6653 196.16362
1667.6128 200.32077
1665.287 197.9278
1664.6296 194.89478
1661.4741 196.79906
1659.3496 193.06439
1663.7 192.09198
1664.2963 186.13388
1661.3955 184.82399
1658.6879 184.90547
1658.4263 182.97108
1655.5088 183.41902
1653.1663 184.70985
1651.0416 183.6541
1647.6288 183.81285
1645.8535 179.69524
1650.1403 181.0507
1653.5845 180.9814
1656.9988 180.8766
1659.964 180.94685
1661.5646 182.21579
1664.8386 181.20969
1663.4412 183.01457
1664.1067 184.58081
1666.4578 183.87144
1668.33 181.53427
1669.777 183.66167
1669.7529 185.62964
1672.4377 182.58862
1676.1558 183.5573
1680.2809 184.0632
1684.5358 183.1579
1686.2886 186.01933
1690.0074 183.11581
1690.207 186.49306
1693.3689 185.63564
1695.9529 183.71346
1699.8374 185.53117
1703.4412 186.1628
1706.4889 188.04135
1702.4478 190.47504
1698.4723 190.21562
1696.1104 188.04802
1692.394 189.31065
1688.8148 189.29042
1685.8705 194.47601
1693.6404 191.85126
1694.9553 193.8978
1697.7976 194.01619
1700.3125 194.02167
1703.3859 194.6043
1701.6455 197.84097
1704.629 199.63647
1701.7539 201.40814
1698.708 198.20316
1696.3241 196.57542
1694.6653 198.49283
1698.0754 201.03073
1696.1738 203.4627
1699.283 204.466
1702.1741 204.0951
1705.0969 204.11896
1707.8972 202.59193
1708.3 198.98161
1706.6699 195.96733
1707.0426 192.30542
1710.1428 189.6722
1712.8088 192.52483
1711.4989 195.45724
1715.2709 197.78714
1712.5104 200.08511
1716.0817 202.69904
1712.8425 204.72414
1715.855 207.52426
1718.4955 211.25166
1714.2686 212.16595
1717.0846 216.11844
1717.9403 220.3438
1716.5212 224.36034
1713.6777 223.07812
1709.3086 222.68878
1705.8737 219.66011
1710.2603 217.96365
1709.4819 212.80736
1707.6218 209.53917
1708.6895 206.52576
1704.9927 207.29065
1701.7185 206.72612
1702.4176 209.24297
1704.1272 210.7707
1706.0057 212.57126
1706.8809 215.72386
1703.468 215.82169
1702.3474 213.13174
1700.1107 212.00937
1699.801 209.53085
1698.715 207.20732
1696.3727 207.47949
1697.2079 211.04529
1698.7012 214.6937
1696.8396 217.39218
1700.8591 217.56549
1702.4683 220.63281
1700.2601 223.04535
1700.8289 226.53334
1702.8237 229.82657
1706.4318 232.2296
1702.684 234.25775
1703.3594 238.17114
1705.6826 236.67273
1708.1416 237.18413
1710.3577 235.45078
1710.4545 231.91415
1705.191 224.86803
1708.9299 227.77966
1715.2563 228.6407
1715.9124 232.16649
1718.0525 227.13675
1720.3707 225.0415
1719.6294 230.33862
1719.3385 233.73064
1720.3754 236.52948
1720.5631 239.79117
1719.9327 242.51581
1721.0171 245.49896
1721.3918 248.63156
1721.2239 251.84274
1721.0739 255.56615
1722.337 258.82162
1720.5857 261.01318
1721.4994 264.6864
1722.0577 268.76398
1721.6616 271.7877
1719.4446 272.8301
1723.1757 273.5267
1721.252 275.5869
1720.6445 278.4182
1723.5449 278.53503
1722.3899 281.5149
1718.4279 280.3113
1717.6528 277.20264
1717.4108 274.31406
1717.7286 270.52795
1718.0654 267.0654
1717.5593 263.1566
1717.3142 258.91885
1716.9655 255.529
1718.5803 253.33292
1716.6403 251.09853
1717.6606 248.2826
1716.8381 245.19351
1716.3575 241.62659
1716.9319 238.15002
1715.3988 235.53883
1711.3035 238.82709
1710.928 241.39584
1711.913 243.70518
1709.5345 243.87358
1708.4626 241.15884
1706.0583 240.11125
1705.9602 242.89
1706.9585 245.02412
1705.8661 247.40364
1693.3518 246.2238
1691.4008 243.99493
1690.9718 248.05614
1689.4563 245.89624
1687.336 243.94751
1685.0491 246.23537
1687.3862 247.5832
1687.4492 250.02176
1690.3826 250.66882
1693.4613 250.07571
1691.4004 253.07735
1693.9833 254.14922
1691.855 256.09183
1693.6759 258.43875
1693.0653 261.93408
1693.4707 265.6231
1692.0958 268.4509
1692.7852 272.0893
1693.8008 276.13293
1690.0964 276.16617
1687.0494 273.15256
1688.5707 269.83038
1685.9248 267.75305
1686.075 263.5495
1689.6493 264.2986
1690.1626 259.29373
1687.1495 259.85187
1683.9268 259.29425
1685.3193 255.53986
1688.6488 255.77866
1687.7817 252.79755
1684.534 251.72414
1683.9912 248.73886
1681.4102 246.56908
1678.8523 247.98904
1681.0872 250.32654
1681.9822 253.54376
1681.8317 256.75632
1678.8804 257.79446
1676.0684 257.11172
1673.7322 259.55865
1670.4258 257.88535
1673.1467 256.52658
1671.261 253.94266
1667.9612 254.06483
1667.5078 250.09264
1662.9236 250.29471
1659.3151 247.98917
1663.9507 245.59332
1668.8732 245.67552
1673.2393 244.12396
1672.3647 247.18065
1671.5568 250.23488
1674.3029 251.69217
1675.2952 254.22282
1678.7755 254.91011
1678.3674 252.27669
1676.8496 250.11926
1675.3693 247.6676
1677.3181 244.85213
1680.6428 243.66183
1683.9407 243.99178
1683.6323 232.47116
1682.9829 229.04291
1681.3591 225.27968
1678.3474 232.08618
1673.802 231.82773
1669.6066 232.1389
1665.395 231.88707
1659.9927 231.53119
1655.8176 232.1753
1650.9875 232.10054
1644.2509 232.12306
1640.5969 232.17693
1637.3442 231.98112
1633.7737 231.41444
1633.221 224.38904
1630.2478 225.82788
1626.6848 225.95067
1627.3665 223.07748
1629.951 221.37218
1632.8474 219.7291
1636.6339 221.19003
1636.9138 225.54315
1641.4253 224.93423
1646.0887 225.52522
1645.6252 220.72058
1649.0663 222.72643
1651.1605 226.20866
1653.1246 223.54199
1656.1552 226.23969
1656.0173 222.91934
1658.7211 223.24216
1660.027 226.02922
1662.5745 225.16292
1665.3934 226.04707
1664.8481 222.99136
1663.8474 220.20148
1661.2936 221.81136
1659.2396 219.25691
1655.522 219.6972
1651.4729 219.88849
1653.2837 216.0092
1657.1848 215.98177
1654.4692 212.2683
1650.0518 210.53922
1649.3914 216.7613
1647.4974 213.92648
1643.5819 212.88377
1643.8911 217.01292
1640.8428 220.36462
1637.2148 217.19237
1635.1088 215.02954
1639.9191 214.84059
1640.1488 210.65541
1641.3375 206.89346
1645.3177 209.62904
1646.173 206.11507
1642.9716 203.17036
1641.6147 199.7004
1637.3678 199.68646
1633.046 199.93147
1635.2195 203.21873
1638.7958 203.28412
1637.1091 207.25221
1636.54 210.60829
1635.179 212.22337
1632.8496 212.85713
1632.5626 208.65071
1630.2771 210.76848
1626.8448 210.52872
1624.8994 207.23625
1628.815 207.13176
1633.4968 205.90465
1630.8447 203.55531
1627.0941 203.51996
1623.3682 204.03079
1620.1497 203.3712
1621.0087 206.89519
1622.0315 210.15273
1623.8518 212.43372
1626.1201 214.76395
1630.0844 213.72032
1632.5461 216.66513
1629.2607 216.7114
1626.7047 218.67921
1623.7871 219.88284
1623.6536 223.07858
1623.7832 225.9889
1621.1938 225.72243
1618.329 225.96024
1619.6014 222.90317
1616.5334 221.3074
1615.0656 223.88481
1614.9734 226.23596
1611.449 225.33105
1612.09 222.01639
1611.2974 219.34787
1615.2272 218.53831
1620.057 219.17946
1621.7928 215.6946
1617.2599 216.01323
1619.1787 212.79594
1618.4542 209.68478
1617.5562 206.81332
1616.396 204.14563
1613.905 206.47408
1614.9033 209.67651
1615.6749 213.06316
1612.4441 212.08955
1612.741 215.503
1609.9028 216.25752
1607.9098 218.57997
1606.3392 220.7267
1607.743 223.01007
1608.3835 226.31668
1604.5559 225.46693
1600.1941 225.69794
1602.073 223.0919
1603.1531 220.82353
1600.2556 219.51093
1597.4133 218.87021
1594.617 218.67952
1597.5903 222.62791
1595.6611 225.53023
1592.8861 221.79193
1591.3041 225.23593
1587.2094 224.22934
1584.564 220.80565
1588.7798 220.43889
1591.6836 217.42667
1595.9583 214.96065
1592.2433 213.69743
1588.0692 216.70055
1588.3693 213.37253
1590.4738 210.29982
1588.4323 207.29872
1588.8823 203.93803
1588.981 200.17258
1589.2314 196.4974
1592.2931 193.9372
1597.9073 193.70644
1595.9598 196.77612
1593.1279 198.92503
1593.2949 202.81137
1592.7493 206.60437
1594.5112 210.10483
1597.6967 211.2927
1600.8688 211.9592
1600.0316 215.59778
1603.7002 216.20204
1603.9264 218.45418
1606.7277 215.62971
1607.9708 213.14703
1609.5355 211.12865
1603.9996 213.44359
1603.8962 210.20786
1606.9587 209.29807
1610.9586 208.56355
1609.8588 205.63844
1612.404 203.33075
1611.7968 199.81247
1608.3889 198.40436
1608.8104 201.52333
1606.6705 203.68422
1605.2017 206.48088
1604.4297 200.21265
1601.9055 203.54327
1600.854 207.81934
1597.2739 205.94652
1597.769 201.35202
1600.4264 198.15512
1602.8065 195.71158
1602.459 191.8016
1607.5349 192.00113
1612.4692 191.73865
1617.0792 191.75618
1615.4104 195.43958
1618.9967 195.59517
1622.4462 195.96423
1621.4178 191.99557
1625.7842 191.66528
1625.4963 196.11313
1627.8713 195.25053
1630.3926 195.9925
1628.7534 199.85706
1624.766 200.39906
1621.6442 199.90767
1618.9297 199.57826
1617.3402 201.62497
1614.5303 200.98074
1615.8151 198.4066
1612.3496 195.87872
1609.28 195.40154
1606.0459 196.05978
" />
</g></g></svg>
