<?xml version="1.0" encoding="UTF-8" standalone="no"?>
<!-- Created for Inkscape (http://www.inkscape.org/) -->

<svg
   xmlns:dc="http://purl.org/dc/elements/1.1/"
   xmlns:cc="http://creativecommons.org/ns#"
   xmlns:rdf="http://www.w3.org/1999/02/22-rdf-syntax-ns#"
   xmlns:svg="http://www.w3.org/2000/svg"
   xmlns="http://www.w3.org/2000/svg"
   xmlns:sodipodi="http://sodipodi.sourceforge.net/DTD/sodipodi-0.dtd"
   xmlns:inkscape="http://www.inkscape.org/namespaces/inkscape"
   width="3200"
   height="800"
   id="svg2985"
   version="1.1"
   inkscape:version="0.48.1 r9760">
  <defs
     id="defs2987" />
  <sodipodi:namedview
     id="base"
     pagecolor="#ffffff"
     bordercolor="#666666"
     borderopacity="1.0"
     inkscape:pageopacity="0.0"
     inkscape:pageshadow="2"
     inkscape:zoom="0.35"
     inkscape:cx="1600"
     inkscape:cy="400"
     inkscape:document-units="px"
     inkscape:current-layer="layer1"
     showgrid="false"  />
  <metadata
     id="metadata2990">
    <rdf:RDF>
      <cc:Work
         rdf:about="">
        <dc:format>image/svg+xml</dc:format>
        <dc:type
           rdf:resource="http://purl.org/dc/dcmitype/StillImage" />
        <dc:title />
      </cc:Work>
    </rdf:RDF>
  </metadata>
  <g
     inkscape:label="Layer 1"
     inkscape:groupmode="layer"
     id="layer1"> 
     <g>
<path style="fill:none;stroke:black;stroke-width:2px;stroke-linejoin:round;stroke-linecap:round;" d="M 
1601.302 596.3149
1597.1006 593.19916
1591.2032 593.46936
1593.5127 587.4699
1599.2504 589.6879
1603.8077 592.17535
1607.7214 594.6254
1613.6155 585.0867
1611.8444 578.4593
1607.3566 573.4451
1615.4387 574.6413
1613.5033 569.24
1605.5378 568.828
1599.3665 570.9597
1590.976 569.41016
1594.3815 574.0672
1586.4381 587.16864
1584.1277 592.3806
1587.4995 597.3104
1582.4844 597.67377
1577.9453 596.10315
1572.7278 597.2131
1571.9008 602.79846
1570.1119 607.52576
1575.6265 610.3306
1581.8123 608.988
1577.0464 603.1517
1582.8053 602.83545
1588.0894 604.5925
1589.3276 610.44495
1594.4803 613.80426
1598.4113 617.0033
1601.4218 621.9814
1607.3624 622.3794
1607.5911 615.2384
1603.6217 617.34125
1601.7747 612.20465
1600.3768 607.9699
1598.8765 604.39026
1594.3164 607.5373
1595.5039 602.06384
1591.6271 600.3413
1596.1245 597.2627
1600.3057 600.8296
1603.886 599.7733
1607.6333 599.13043
1605.6011 604.0024
1606.54 608.9118
1611.4102 611.6148
1611.326 605.7823
1611.9744 601.17096
1612.941 597.619
1616.351 604.1743
1616.6443 609.2298
1617.0034 613.559
1614.5924 617.1928
1611.2524 618.9419
1616.4695 624.0013
1612.6348 625.07495
1608.7114 628.85046
1614.1763 631.47064
1611.2681 637.06116
1614.6495 642.30396
1618.9738 645.7357
1619.3665 636.8144
1620.3722 630.29016
1621.3171 624.8023
1618.9336 620.6997
1619.0686 616.7758
1621.6862 611.68353
1622.4077 618.105
1628.8865 616.6466
1626.1891 620.80554
1629.4191 624.8971
1628.5725 629.4457
1628.9226 635.8076
1633.0288 632.34393
1634.5686 626.52386
1638.5114 628.1585
1642.8154 629.301
1637.9995 633.14343
1642.8591 634.833
1640.2385 638.2239
1635.2489 637.7872
1639.4463 642.9322
1635.3486 645.10803
1639.8424 647.66876
1636.6216 650.5421
1631.5822 649.86035
1628.4048 643.83026
1623.5446 643.14996
1624.6743 649.0941
1627.4845 653.83887
1622.5616 655.04315
1618.0884 656.9225
1618.0245 651.5009
1613.015 650.09784
1609.7843 645.68256
1606.2568 641.18866
1601.8304 638.39655
1597.9333 643.0385
1598.9453 648.13544
1603.6207 646.24225
1606.7316 650.75854
1608.8405 654.5806
1613.1849 656.0931
1609.4885 659.97595
1606.4421 658.1597
1603.3771 656.1684
1601.4111 652.20575
1595.6279 653.6969
1594.2545 648.7343
1592.0541 643.9598
1588.495 639.91943
1593.0262 638.27826
1597.1519 637.4607
1598.3423 632.3903
1605.407 633.90985
1603.4409 627.75604
1598.3057 626.4504
1593.1775 628.27625
1590.6355 633.5345
1585.5867 630.8245
1588.0757 625.3591
1594.7002 621.6706
1589.815 618.82886
1585.4629 614.4603
1579.4188 616.511
1583.403 621.24774
1580.4789 626.8983
1575.5146 622.5649
1573.4032 617.2176
1570.065 613.8164
1566.4762 611.45355
1564.7979 607.27106
1560.1631 608.25616
1555.772 610.2658
1551.6469 607.85724
1555.1907 604.06146
1558.7786 604.598
1560.4922 598.754
1562.7894 603.4427
1566.9021 601.6072
1566.226 595.4825
1572.4258 591.3509
1578.7458 588.97485
1571.1167 574.66656
1576.2158 572.155
1584.2458 573.09705
1584.5052 568.26495
1578.4889 568.5989
1571.8331 568.44604
1568.1676 571.9135
1564.542 569.70294
1559.7914 569.18713
1563.3376 559.56683
1566.8833 563.5206
1574.6611 559.8194
1568.6279 556.259
1575.4473 538.91473
1580.6675 535.3372
1583.6537 529.6887
1591.087 531.5604
1596.356 530.1375
1600.8289 527.04114
1604.0182 522.89056
1606.8057 517.7848
1602.2192 516.0916
1604.9976 513.09656
1608.5027 510.17734
1612.0319 510.91354
1610.4373 514.76526
1613.0786 516.9393
1609.3796 520.1896
1608.0538 524.5479
1606.2775 530.2069
1603.9333 535.1041
1599.5806 537.29065
1596.2903 542.98724
1592.3977 537.7855
1589.0393 543.77466
1585.5746 539.75073
1580.6823 543.5205
1580.5929 558.08966
1585.6228 559.1551
1591.6223 559.6117
1597.4465 556.5416
1599.9502 561.30585
1604.7937 555.9663
1606.8699 560.5681
1610.5403 562.95544
1614.9344 554.958
1621.7446 550.3142
1626.9244 550.6936
1627.8042 558.1895
1621.1481 558.48834
1620.6398 569.42804
1627.9209 567.76666
1626.4531 573.7242
1621.5022 576.16504
1624.3647 580.70514
1629.4083 581.4541
1627.6918 586.27515
1621.6467 587.64935
1625.4148 591.62396
1631.0488 591.5783
1635.986 592.0607
1633.9154 586.0474
1638.2517 583.97943
1641.129 588.6409
1646.5522 587.27966
1650.0989 591.24554
1645.6384 593.4035
1644.8818 598.57104
1640.991 593.0664
1639.802 596.8595
1639.6755 601.53595
1640.47 605.9478
1636.2993 606.58026
1630.4396 607.76404
1627.8492 602.37427
1633.2308 602.11365
1635.3528 597.868
1629.1189 596.95667
1623.6613 605.5772
1627.4149 611.4925
1632.8188 612.853
1637.1826 611.6308
1637.8972 616.3253
1631.6394 621.94586
1637.0039 622.5758
1640.6991 620.03644
1642.1013 624.29254
1645.8837 620.7633
1651.2839 623.5523
1656.1609 623.3573
1650.3989 618.07996
1646.676 613.55524
1643.2808 616.4476
1641.2185 611.77704
1644.0687 608.7146
1649.0741 608.70074
1652.8862 612.3939
1656.4019 616.641
1661.2346 613.9257
1665.704 610.359
1670.333 606.49084
1663.6611 603.69336
1660.2423 607.66125
1655.7327 606.6725
1651.2085 603.5389
1645.3218 603.7821
1652.1573 596.649
1657.3341 599.6312
1661.7736 596.50977
1665.8052 598.6834
1669.22 601.95374
1673.9158 601.44104
1671.2346 596.51013
1675.9425 595.6983
1673.8856 590.9359
1675.2593 585.7558
1672.2883 583.594
1667.9656 583.3521
1664.0684 572.09955
1659.6606 575.4571
1654.8867 573.3346
1654.3376 578.97363
1658.2021 582.3325
1659.6483 587.2668
1662.8832 583.2437
1665.1204 586.5307
1669.9526 588.114
1668.3229 593.68445
1666.1722 590.7984
1662.3666 591.2408
1657.1787 592.4344
1653.5957 588.7846
1654.208 584.36676
1649.7833 583.1835
1643.4205 583.43396
1646.5178 578.5885
1650.1499 575.72363
1645.9664 571.6307
1642.5615 567.90485
1647.5659 564.8564
1653.0592 566.99976
1659.0996 568.3688
1662.6561 564.33527
1662.9801 558.96265
1656.2261 561.57794
1649.8877 558.7901
1642.8423 559.7155
1645.892 552.2111
1630.135 545.66547
1624.9136 544.2078
1622.5515 540.06305
1628.8704 538.0406
1624.3075 533.5909
1629.5851 529.7848
1625.033 525.74066
1628.2383 521.2705
1628.1085 515.87177
1626.6901 510.7487
1625.3568 504.15244
1630.6204 504.83368
1638.8226 514.3588
1643.2434 518.91785
1642.9395 525.81384
1646.2733 530.98413
1645.3499 536.61176
1648.3037 540.0885
1645.2915 545.25366
1650.7852 545.8274
1654.3666 542.4963
1659.7893 541.3158
1656.8273 547.5533
1659.5774 554.37134
1663.0992 547.69403
1663.7864 539.3588
1666.8033 533.54816
1682.981 534.1705
1683.5243 528.63214
1683.5773 522.827
1684.9764 517.21716
1689.4835 521.759
1694.476 524.9655
1695.2286 529.9392
1692.3871 533.1542
1689.0426 527.1172
1688.0726 531.9644
1692.8044 537.8903
1687.1171 537.02057
1682.777 540.41095
1686.0156 543.75854
1690.1332 541.61365
1689.9644 548.0642
1683.0685 547.82965
1682.8882 556.6446
1685.5992 552.1889
1693.0466 553.17114
1688.5051 556.89343
1691.5863 560.56696
1695.7535 560.2519
1699.2764 556.43994
1704.2817 557.3929
1708.4703 556.2072
1705.2213 549.84576
1698.6338 550.59125
1700.3162 544.6045
1694.5992 545.30273
1697.3086 539.8537
1697.9026 534.5216
1702.5996 538.43854
1707.3721 536.0037
1706.4917 542.88043
1712.9386 547.6158
1715.0118 540.87427
1715.2743 534.8559
1716.671 530.2082
1711.4823 531.2264
1706.6804 529.96906
1702.594 532.491
1699.7052 527.9049
1704.6038 525.17944
1700.7435 522.2827
1696.211 519.1777
1691.602 516.1106
1692.9828 509.87015
1687.8224 504.8277
1693.084 502.1353
1695.9231 497.53033
1696.4607 492.22748
1690.4216 492.66086
1687.5873 497.96094
1681.1644 501.13068
1681.8013 507.12683
1686.863 511.0905
1681.4197 512.80334
1676.6476 512.87256
1674.4601 517.187
1671.5293 512.6789
1667.8359 514.24384
1664.16 515.40436
1663.573 510.49048
1660.5894 513.6642
1659.1262 518.42737
1661.0507 524.9325
1664.7828 522.48047
1665.959 519.1252
1670.4138 517.55585
1672.1072 521.4492
1669.8003 524.69104
1669.229 529.08466
1665.3455 527.5824
1662.2223 531.3289
1659.4424 534.57355
1655.603 536.576
1650.8 535.37866
1651.996 530.6234
1655.6538 527.83026
1650.5107 524.2286
1654.5037 521.57556
1651.538 516.4521
1646.4158 512.69556
1650.2324 507.79514
1655.917 510.73352
1658.4434 502.23694
1655.7633 496.35907
1650.7754 500.8435
1644.2219 502.4352
1646.4031 494.50223
1648.1653 487.49533
1653.2905 489.6872
1660.2139 492.95816
1667.2031 484.16644
1668.8763 473.1916
1673.9688 467.6955
1682.8062 469.57904
1681.5233 463.8553
1678.8328 458.79892
1684.8152 457.246
1689.115 465.66318
1699.5757 471.239
1704.9617 471.73682
1701.6084 463.6202
1690.6853 458.89975
1697.1909 457.33377
1699.9028 447.18237
1706.7152 457.3204
1711.8887 462.34357
1719.0408 462.64685
1716.2688 468.3362
1724.6624 469.1987
1723.9567 463.63568
1727.5793 459.77505
1729.1921 465.52222
1733.2734 462.24146
1737.9803 462.47345
1742.4972 460.0904
1747.5862 459.4402
1752.1139 458.2543
1755.6654 460.0459
1759.4142 462.01562
1763.7373 462.80383
1766.7462 465.93576
1766.3494 458.209
1762.0078 457.4931
1762.4846 453.2585
1766.242 451.13898
1766.1152 444.46002
1765.0442 439.47516
1765.3606 435.08746
1761.8126 433.8858
1760.1675 438.23505
1760.747 442.19873
1762.4337 445.63437
1762.7151 448.99918
1758.569 449.3035
1757.1948 454.92435
1751.1975 453.84497
1753.8684 449.3779
1756.3115 444.6666
1754.9519 440.23825
1751.9114 436.40256
1750.3103 431.63364
1746.1257 428.16904
1741.6294 431.6354
1745.7697 437.48972
1749.9695 442.27298
1741.4305 442.99985
1742.0002 453.85416
1736.7012 457.07474
1730.8519 456.20706
1722.9983 456.86298
1715.7225 457.00928
1722.8699 445.87772
1727.0242 444.26962
1725.7528 440.14648
1726.3242 435.5756
1722.3567 432.31952
1726.465 429.12305
1722.8713 426.46518
1726.8964 422.43307
1722.7867 420.30887
1723.6093 414.07336
1727.9104 416.31253
1740.8708 420.5525
1740.5979 411.36893
1740.5269 402.36697
1740.4021 394.2288
1748.5682 397.21857
1748.7789 402.56995
1748.7881 408.71402
1748.7644 415.26926
1752.2632 420.03296
1746.4714 421.91656
1751.2991 425.67447
1756.6516 424.22507
1755.7351 429.18033
1756.7401 434.83337
1759.7444 430.10083
1764.1414 429.09833
1762.5197 424.71692
1758.5581 419.6588
1763.6975 420.2876
1764.6725 416.15326
1767.1066 409.29532
1764.2959 412.03494
1759.8298 413.7471
1755.0596 415.2187
1755.7649 409.39975
1760.9258 407.9623
1766.0334 405.3162
1763.9854 401.69946
1757.5101 403.9393
1755.9158 399.2962
1755.8738 394.1829
1760.3303 398.7631
1762.9348 395.26028
1761.5052 391.13687
1766.5437 391.32825
1763.5486 385.73224
1762.9363 380.5962
1762.9705 375.5404
1763.3263 370.7327
1765.4576 365.75446
1766.4873 360.3892
1764.0148 355.71152
1763.918 349.95505
1758.6385 349.04297
1762.8569 343.5498
1756.6423 337.5974
1761.8445 336.73117
1766.4238 337.08597
1765.8887 331.4517
1759.9581 330.87375
1760.1992 324.0833
1758.0967 318.3227
1760.7748 313.19046
1761.6449 307.60422
1755.1938 310.3495
1752.7255 302.51007
1758.2224 303.43857
1764.8341 302.4937
1761.9596 298.4204
1756.1235 297.65955
1759.2954 293.56854
1759.256 288.83575
1754.9215 285.46982
1750.2074 288.24765
1753.7931 292.04733
1749.0142 296.29706
1745.0969 293.93555
1741.5256 297.17346
1744.0757 302.34207
1748.4448 306.23123
1743.652 311.98044
1749.8683 316.5027
1752.7098 323.81735
1754.5718 330.72772
1748.9755 331.16846
1744.4242 323.14713
1742.5697 332.41147
1742.7953 340.6341
1748.4602 337.3433
1753.1582 341.5218
1750.0144 346.71948
1744.4097 346.59967
1740.2385 348.16132
1741.4673 353.48703
1746.3538 352.4233
1747.5825 357.4984
1744.519 359.92703
1740.4746 359.4527
1741.3525 364.97327
1747.617 364.16913
1754.4752 363.26346
1753.3655 358.3221
1752.8588 352.37753
1758.498 355.67172
1760.4949 360.69226
1760.0986 365.69745
1756.1903 368.86063
1756.1383 373.65955
1750.3398 368.59595
1750.0356 375.04114
1750.0476 382.85757
1755.1482 378.57797
1756.4468 382.5799
1758.7908 385.84894
1757.3289 390.2623
1753.0128 387.82956
1749.5878 390.54413
1740.4934 386.71768
1740.3484 380.67807
1740.4631 375.2322
1740.3331 369.83905
1724.6213 373.6721
1720.3575 367.72995
1723.2507 361.01578
1725.5898 354.10928
1725.4465 348.6552
1720.0234 345.599
1725.1559 343.05994
1721.5421 339.92935
1725.1477 337.88065
1725.8987 332.21823
1722.9854 329.36218
1721.4229 334.21176
1717.0167 334.2792
1714.4553 329.4275
1721.0225 325.32025
1725.8771 325.01144
1724.2549 319.31232
1718.4833 321.03983
1714.4408 324.6421
1709.1873 321.5114
1701.9297 324.5562
1706.5613 328.79388
1701.0078 331.41357
1704.4401 336.40408
1705.2915 342.3698
1704.9524 348.07837
1701.8064 347.51123
1697.9563 347.65973
1693.4896 347.30994
1698.9016 342.501
1698.3967 337.20453
1692.9702 339.98706
1683.6696 341.35498
1683.9756 334.33447
1675.3574 334.9958
1676.5901 327.87958
1681.8876 329.09244
1687.4393 328.90878
1691.5725 326.10855
1693.8801 332.55426
1696.8156 326.70795
1690.895 320.93332
1696.1683 320.2095
1701.6025 316.22028
1704.3214 319.76987
1713.9264 318.26874
1719.0115 312.95966
1711.7301 311.6411
1709.3483 306.02304
1715.296 306.93185
1720.5657 304.70398
1722.9453 309.4201
1727.7605 313.256
1728.2322 306.55533
1734.8899 309.74722
1734.7533 304.21594
1722.9065 297.89026
1713.0969 298.73477
1712.197 293.12247
1718.501 293.0976
1717.1453 288.58276
1718.2959 283.7563
1723.645 289.22794
1723.0641 284.90674
1724.4183 281.258
1725.7738 277.10052
1722.6633 275.59604
1718.6702 277.1475
1719.301 271.66113
1724.2618 270.8448
1721.8335 265.11075
1727.5459 261.42932
1727.8839 266.7705
1730.0922 271.648
1736.5239 270.00958
1737.1208 275.67856
1732.6265 278.5096
1730.0321 286.15033
1724.2297 294.0896
1740.1299 292.01776
1744.3481 289.26227
1738.6362 287.33148
1735.0574 284.6296
1738.245 280.72733
1742.9854 280.80432
1744.4136 284.88638
1749.5055 282.18347
1746.5725 277.31155
1751.0059 277.33673
1755.0288 279.59283
1755.0659 273.73834
1754.8322 268.4455
1753.9856 263.00943
1749.4661 265.00867
1745.0159 265.8271
1749.7079 268.82196
1750.005 272.9886
1745.8118 271.5203
1742.5089 275.82968
1740.2653 272.42017
1741.7671 268.68588
1734.643 265.3591
1739.8892 263.87823
1744.989 261.1986
1749.9883 260.33926
1752.7048 255.93646
1752.9167 249.08559
1747.4358 246.67227
1748.1439 252.16173
1745.9287 256.56744
1740.5704 258.2489
1734.6709 255.64804
1742.1995 252.42822
1741.3069 247.20227
1735.4897 246.95006
1730.6294 249.38568
1727.6466 253.59154
1723.7523 256.126
1719.7131 258.71497
1714.1167 259.89542
1709.0796 259.7234
1712.2434 254.54953
1712.4789 246.0995
1715.3491 239.55461
1719.2256 245.51888
1723.5718 248.81856
1728.0289 244.92764
1729.3927 239.78362
1731.4874 234.29103
1729.5138 229.19597
1725.2273 226.40508
1729.8378 223.17743
1735.3481 222.92043
1741.5344 220.35246
1741.681 225.23729
1741.9395 230.38196
1746.3936 232.38615
1745.5642 236.9288
1741.1073 236.20995
1737.0398 234.21307
1735.1495 239.6418
1739.7328 240.8796
1744.0702 242.22523
1748.2897 241.04767
1752.9994 242.38133
1750.8307 236.21246
1751.0271 229.78925
1749.7897 224.25323
1750.4353 218.01692
1740.3333 210.67822
1736.0054 212.51526
1739.6293 203.47166
1737.7604 197.88344
1738.4081 190.92224
1739.9001 184.87427
1735.128 185.61519
1729.6954 187.65924
1726.4409 193.6089
1729.2322 199.4723
1726.3549 206.6129
1729.83 211.3158
1726.2794 214.06029
1724.5911 220.12262
1722.6669 214.12233
1719.6937 210.98064
1716.5796 214.25607
1720.3385 217.71439
1717.0323 219.8418
1720.8033 223.36827
1720.3857 228.42287
1723.0374 232.44978
1726.6536 235.27455
1722.2911 239.10863
1717.0356 234.41064
1710.2727 235.71805
1711.2108 228.65392
1715.4764 224.29451
1710.6575 223.02524
1712.8622 218.85449
1706.5577 215.40749
1712.4366 214.20822
1712.549 209.18419
1720.0109 206.06194
1719.9001 199.7949
1718.6787 194.20267
1718.0474 189.36908
1715.0326 185.08124
1710.6653 183.8695
1711.1981 190.01907
1712.3267 197.27786
1715.7505 203.96082
1710.9583 203.28989
1703.5747 211.18727
1702.2402 203.48814
1700.5559 197.22148
1702.8065 191.71965
1697.7892 189.35199
1701.6675 185.61224
1696.4434 182.35411
1692.6843 184.50679
1694.0896 191.43587
1693.9624 199.40842
1697.0963 203.7948
1692.6495 207.09683
1698.5391 210.24948
1693.5593 213.07368
1693.1316 217.53859
1698.3298 218.36922
1701.9008 215.81143
1703.4116 222.9971
1701.8303 228.44673
1706.87 230.0896
1704.3037 234.22949
1699.5509 235.16144
1694.9519 233.22638
1688.9092 229.82668
1690.8228 233.65794
1690.2762 238.0814
1694.612 238.9032
1698.5278 246.14886
1706.1844 247.94026
1700.044 250.52704
1692.6199 246.89478
1687.9419 247.67516
1686.406 256.78433
1691.0808 256.54254
1696.8225 257.05734
1703.5975 257.08218
1703.8428 265.0614
1707.3203 269.12515
1698.6207 267.8871
1699.1921 262.9671
1694.2896 263.30847
1692.1709 266.9726
1689.4612 270.21872
1691.6882 274.1474
1695.5701 276.11795
1691.8768 280.19434
1694.204 284.3823
1691.06 289.17783
1694.6261 291.9247
1698.6096 287.8909
1698.7274 279.5019
1695.6 271.29126
1701.664 272.8157
1704.9728 278.04712
1703.2981 283.4385
1705.1925 289.09366
1699.8827 294.4715
1705.4375 295.42484
1704.2534 304.73666
1698.7786 304.57916
1703.2128 309.9631
1697.4688 314.5305
1697.7712 309.3479
1693.1636 308.96582
1688.2664 308.67
1688.627 312.2121
1687.1006 318.78967
1682.0828 323.38852
1677.5286 322.19214
1682.924 317.30655
1683.5276 311.04294
1682.8429 306.70325
1688.4819 304.6241
1693.5256 304.07208
1694.4258 296.7358
1688.6283 295.78967
1685.7097 291.97266
1683.3556 297.08896
1680.9528 292.62946
1673.1932 295.7639
1676.3949 304.5667
1681.959 303.4846
1677.9019 309.78986
1678.7736 313.54614
1672.8835 309.33514
1667.8696 310.57703
1670.3901 304.4294
1665.1509 304.594
1660.8342 304.7043
1653.6929 307.20074
1654.3848 300.2114
1662.0586 292.25485
1665.5654 296.66595
1667.1797 291.58914
1673.8174 289.26514
1678.6934 286.8818
1675.2588 280.90994
1678.1151 275.4786
1675.2267 270.49948
1678.9744 268.86554
1687.4626 262.80038
1682.562 260.3477
1680.3446 254.9826
1676.4036 251.89894
1681.1221 245.57367
1673.5383 247.77122
1670.1179 244.84108
1676.2454 243.72664
1679.1389 238.22446
1684.6646 240.02823
1686.374 234.3355
1681.9585 233.0762
1678.2512 228.04765
1673.5159 226.86761
1668.0085 221.8485
1672.8545 221.79
1676.9442 220.07277
1678.4432 223.90077
1683.7142 224.47633
1690.7709 223.12735
1691.9163 228.93607
1694.8995 227.96877
1696.1248 223.7799
1687.1033 219.60838
1683.8322 218.35066
1680.5823 218.19868
1682.9001 212.98686
1686.1777 209.59973
1684.7682 203.47064
1685.3721 197.86464
1679.1956 197.19339
1681.2343 193.20354
1685.4785 191.27277
1680.5542 187.96771
1685.9581 185.76398
1684.4119 179.71243
1691.8923 177.22093
1686.1827 173.32697
1680.6293 173.19627
1684.1082 166.09058
1685.862 159.89471
1686.9722 153.12915
1685.36 147.09221
1684.9824 141.40425
1689.71 141.91582
1696.8229 140.70366
1696.6172 148.71513
1697.0049 158.09857
1694.8157 166.06331
1700.1321 169.15552
1695.9694 172.08125
1698.4775 176.3739
1701.0891 180.64095
1705.855 177.5648
1711.6826 176.92339
1716.2637 180.0212
1722.8201 183.48218
1732.4795 177.83261
1737.2618 176.23451
1740.3591 177.14722
1737.9589 169.95587
1732.5234 172.48146
1732.7285 165.48651
1733.0508 158.90561
1716.9718 159.21144
1715.8729 166.17976
1718.9958 172.49202
1711.0345 171.93826
1710.092 166.24893
1708.2871 162.25452
1709.0619 155.8853
1705.7681 151.06413
1713.9948 145.84671
1704.5583 143.32584
1706.6489 137.91
1696.7925 133.52115
1709.095 132.46138
1710.5936 121.188446
1704.3217 123.38851
1697.5604 127.61055
1688.738 130.16226
1686.8115 135.45036
1688.7314 125.766464
1686.5046 120.87785
1690.9885 118.06773
1695.9752 121.15498
1699.7189 116.33542
1706.5342 114.73243
1706.5137 110.00935
1700.8972 106.515854
1705.3066 100.89858
1701.5824 97.40668
1691.534 94.84776
1698.9841 94.415565
1702.7343 88.537926
1697.4187 85.345665
1693.0951 83.22203
1701.2704 83.58568
1698.0854 77.49797
1700.8671 75.90881
1697.867 72.67225
1693.5582 74.90841
1694.1636 71.32164
1697.157 61.862083
1693.9543 50.985844
1694.2249 38.95306
1695.331 18.648386
1694.5265 32.248085
1694.6423 44.715183
1693.9504 56.882412
1692.3271 62.455887
1690.0444 72.02978
1689.6421 77.45722
1689.4264 86.75985
1685.9594 89.57594
1683.5807 100.22167
1690.4257 102.00484
1691.9008 107.5965
1689.074 112.86925
1684.0955 108.360374
1681.1189 113.521034
1680.2402 119.157875
1680.0603 123.833954
1678.9736 128.20041
1678.793 133.52373
1676.7725 137.87933
1676.7532 142.24231
1677.3278 146.19635
1674.3657 151.21155
1678.7653 157.5046
1673.2487 159.97287
1671.226 166.12036
1671.4508 171.77081
1669.7935 180.54056
1663.888 175.28462
1663.9059 166.79646
1663.7788 157.92549
1653.7184 172.53088
1657.1584 182.51645
1655.2268 188.96414
1664.0864 186.39853
1669.5415 189.67087
1675.4471 186.19589
1678.312 181.21956
1676.0098 192.12581
1674.1959 199.14656
1667.8567 196.69649
1668.8082 201.0893
1674.0261 206.22325
1678.0645 202.73743
1680.0149 207.24657
1676.304 210.98663
1678.0776 215.09814
1673.6499 215.9763
1670.4894 213.04567
1664.0105 210.12619
1657.2075 216.86185
1657.363 211.42284
1658.8792 204.61143
1662.2344 198.10803
1658.4186 194.80826
1652.5493 197.60919
1653.8181 203.36375
1652.1946 208.40623
1651.7198 215.16673
1647.3881 221.49794
1653.8469 221.85747
1658.7498 222.41576
1663.3009 222.09921
1656.2416 227.17725
1650.5166 229.43753
1654.7134 233.41087
1658.9329 235.64262
1665.3066 233.47809
1672.4727 233.69112
1676.9636 232.67787
1673.023 238.96243
1667.187 240.20584
1662.3582 239.49086
1655.289 240.76787
1650.446 237.79355
1647.012 243.04947
1651.086 245.978
1655.5564 247.95905
1660.5443 245.54132
1665.9973 246.52351
1668.3739 251.65085
1671.8544 256.26822
1676.0034 259.10028
1677.4543 263.37653
1672.9956 265.47156
1671.99 273.51306
1664.029 269.3183
1658.2073 272.16794
1663.4875 274.65625
1664.7045 279.35175
1663.0835 283.9612
1660.4354 287.79507
1655.8389 293.56577
1649.9481 290.6666
1655.148 286.39996
1658.202 282.37772
1658.4734 277.97528
1653.6277 279.8451
1653.4673 275.24918
1650.3683 272.10498
1652.9708 268.5822
1656.7748 266.75345
1657.5721 262.7932
1662.6774 263.91965
1668.7286 265.89383
1660.7996 255.23297
1654.5198 258.0157
1652.5422 253.16489
1646.4471 249.81328
1645.1962 254.31378
1646.5118 258.61813
1650.1967 262.8794
1645.0513 267.2563
1645.5139 276.01376
1646.7556 281.8282
1645.1606 289.03207
1642.0411 297.10443
1645.7311 301.43256
1642.1603 305.94855
1641.5762 312.0105
1641.4199 317.65625
1644.6902 317.83167
1647.139 314.1184
1653.124 314.23578
1655.5697 319.21735
1652.1729 321.16586
1646.5549 321.77826
1641.312 323.6223
1640.956 329.98383
1645.7899 328.2265
1651.3253 327.71982
1656.2737 325.24103
1656.4651 330.33197
1656.7308 334.66183
1656.0913 338.5648
1657.9628 343.28308
1655.7251 352.05283
1652.1511 359.5526
1656.8096 365.16687
1658.1644 357.11316
1655.3413 347.12213
1653.5085 341.9341
1650.4812 334.77917
1642.2124 337.08008
1640.1976 345.02695
1641.1852 354.47885
1641.3215 363.07318
1646.1418 360.78296
1648.888 366.94965
1648.8193 374.4316
1640.9819 372.05066
1641.0718 379.5679
1649.0206 381.88528
1650.8633 388.33017
1649.3734 393.8945
1645.8989 390.7807
1644.024 386.50867
1638.1477 385.53726
1640.5005 392.57016
1636.6788 397.99838
1636.5795 407.02133
1636.5225 415.90128
1636.2305 424.84262
1648.4579 421.89963
1650.9598 418.7017
1654.8542 416.39133
1651.17 411.81387
1652.4817 405.0553
1652.3706 399.2911
1670.134 394.1446
1669.9572 399.14313
1674.6875 405.2959
1675.337 401.7615
1673.9608 398.04565
1677.2766 395.51828
1677.2407 392.069
1675.5853 383.7621
1680.2341 382.46014
1683.4496 370.77933
1683.363 362.80948
1683.5388 351.77954
1696.5216 359.23718
1700.6482 359.2897
1700.2645 369.06604
1694.0255 371.9153
1697.614 375.36862
1702.7737 374.17392
1704.6106 378.8512
1703.1516 383.5503
1698.2062 381.21735
1691.617 380.66663
1699.1675 387.96405
1704.3113 389.06665
1702.457 394.24554
1697.1191 393.26434
1696.9404 398.8794
1701.9432 400.1992
1694.7212 404.01462
1690.7388 400.63245
1691.3032 393.90405
1693.9243 386.91406
1688.4971 387.213
1683.7479 385.97296
1684.1016 392.6472
1682.6143 398.03128
1686.8362 398.3045
1685.1733 404.53485
1689.5955 406.33362
1687.5764 411.4869
1683.9478 412.97052
1683.3098 418.7595
1688.116 418.13907
1690.7627 422.69238
1695.8608 422.387
1694.3147 418.64325
1692.3275 414.97733
1692.2191 410.11606
1698.4802 413.6617
1698.936 418.23703
1703.4136 415.65274
1708.121 415.1413
1709.8387 410.47183
1703.2585 410.78253
1696.5864 409.65326
1699.8359 405.6077
1704.646 404.52005
1706.6924 408.18677
1711.6495 406.06018
1709.2601 402.82553
1706.237 399.97565
1709.7394 398.56482
1706.5743 395.69235
1709.6425 392.6635
1709.8005 388.69022
1707.7155 384.7765
1709.2511 380.65823
1712.6525 384.04883
1715.4482 387.9265
1717.2695 381.8059
1723.9663 381.2037
1725.3527 386.1873
1720.7975 387.09586
1725.1111 391.4383
1731.0188 393.85068
1729.75 398.88898
1723.9724 395.89603
1717.5935 393.05014
1718.5933 397.75723
1722.6006 400.9688
1727.5636 404.00708
1727.6947 409.7155
1722.7595 405.9667
1721.6859 410.2278
1714.4672 409.81784
1712.9235 414.28085
1716.7996 414.6176
1715.7961 420.20218
1712.2937 418.74335
1711.6528 423.54544
1710.9958 427.6458
1708.3146 431.89807
1705.5651 428.75403
1701.8535 426.85168
1706.269 424.42944
1707.9783 419.8237
1703.7283 420.05402
1700.9054 422.5358
1698.3552 425.50116
1694.9407 426.43472
1692.9204 428.82043
1693.032 433.1176
1696.6407 432.6516
1698.7874 429.92786
1702.248 432.0607
1704.6958 434.79388
1705.8818 437.62524
1699.8857 436.67657
1695.0413 437.09103
1689.723 438.72076
1689.8672 434.92642
1685.3357 436.38184
1683.6865 429.84372
1689.1299 430.7608
1688.2274 426.67288
1684.5842 423.71265
1674.947 427.96033
1674.9185 436.3772
1656.0618 432.19153
1655.2855 441.15488
1649.5208 441.3366
1651.5273 432.9825
1654.5764 427.20096
1655.4869 421.61804
1651.3436 425.03323
1648.6443 429.19196
1635.9397 431.72556
1635.408 442.07983
1638.3452 454.30746
1645.7639 452.5617
1645.6809 459.51053
1650.1075 468.96713
1655.3848 471.6896
1659.02 467.43362
1656.5205 458.81665
1664.791 457.05725
1673.7224 456.12708
1671.7649 460.81503
1668.2224 465.64102
1662.7722 462.8888
1664.0621 469.92102
1660.8243 474.55008
1660.8726 480.09247
1659.2849 487.15436
1656.3616 482.81918
1653.4714 476.53302
1650.0259 481.04575
1646.1001 478.23157
1646.6218 473.10876
1634.6962 471.6245
1634.248 477.43317
1634.8435 482.35257
1644.2328 484.78513
1635.3287 487.8094
1631.4792 491.5886
1636.0052 494.32153
1632.4231 498.34555
1626.9231 497.10016
1626.9674 491.52817
1628.3569 486.8669
1630.5093 483.52072
1628.2957 478.9844
1630.6846 473.79346
1627.1553 473.72583
1624.8088 470.7063
1629.3574 467.65845
1632.8135 463.44275
1625.4912 463.71252
1622.6372 467.14224
1617.1937 466.06265
1619.6741 462.2196
1613.9325 460.90964
1607.1118 458.99017
1603.575 464.2975
1600.3196 458.0165
1595.1847 461.64993
1593.552 454.96454
1589.8236 459.33838
1586.4008 455.052
1579.2407 455.51025
1582.2368 457.7446
1581.4221 461.88547
1577.0779 460.01395
1574.6451 456.8203
1568.3882 458.82745
1562.884 460.71982
1567.1238 462.61475
1572.1476 459.91742
1575.5437 463.56293
1571.4414 464.5353
1568.0742 466.82196
1568.1984 471.28278
1562.681 473.27606
1557.1216 475.89536
1564.514 476.62946
1570.0314 476.9401
1571.8439 473.55795
1572.8081 469.51788
1575.9517 467.87146
1579.3855 466.58157
1583.427 466.60312
1586.0775 463.36453
1590.0161 464.60846
1598.0981 466.0967
1600.6968 470.7276
1606.6442 469.171
1610.0021 464.08432
1612.3785 468.33447
1615.9531 470.82376
1620.1464 471.13065
1623.4136 475.27954
1620.9418 477.61133
1618.2666 475.08685
1614.314 475.9068
1610.4585 472.82425
1608.5769 476.7798
1604.5022 474.92404
1599.6182 476.19257
1594.2433 475.94473
1594.4852 471.39914
1592.3226 467.63275
1588.4058 470.88776
1583.5038 471.24557
1578.1628 471.9849
1575.9828 476.29285
1581.8542 476.17285
1587.9712 476.1016
1587.791 493.88116
1582.5272 495.4224
1578.7946 498.13263
1573.7605 498.5765
1574.1074 503.4461
1568.909 503.13593
1567.0961 508.13522
1571.819 508.60104
1576.5559 508.87646
1579.968 504.39374
1584.0844 501.3126
1587.2405 498.136
1592.7001 496.43036
1598.3195 498.22217
1602.8243 501.51324
1607.8035 504.60022
1604.9286 507.76697
1600.6654 507.13843
1595.6711 503.74942
1590.8151 502.02246
1586.9406 506.64508
1591.8062 510.52435
1598.1132 513.59344
1599.4071 519.56006
1593.4717 517.6867
1594.4847 524.22974
1587.5588 522.1787
1581.5021 518.2075
1582.5613 511.04727
1576.3802 514.98804
1573.814 520.384
1578.982 525.19165
1573.8638 528.0552
1572.7083 535.242
1567.2523 532.13965
1566.772 523.91125
1566.1823 518.2512
1571.0244 515.1372
1562.9495 511.48703
1529.2487 516.6298
1528.8947 505.52792
1529.3837 494.18808
1529.634 481.71783
1530.1185 476.84216
1536.3468 476.85776
1537.9827 473.40067
1541.9385 471.3247
1543.6309 475.90457
1549.8228 475.67218
1552.3889 470.75653
1558.1182 469.78925
1563.8203 469.5256
1563.8319 465.68692
1560.0577 465.0159
1556.6483 462.45474
1554.057 465.10373
1548.992 465.49503
1546.0271 468.87112
1540.6528 467.04312
1535.481 469.37625
1530.9432 468.9687
1531.8529 472.82428
1526.1707 472.01108
1523.6427 475.05035
1519.2556 474.10812
1514.4875 485.43338
1511.6583 489.1135
1515.1151 492.51883
1510.5613 494.00882
1513.361 500.97302
1505.5455 500.6662
1497.5079 501.03387
1501.0149 494.79248
1505.4972 493.41888
1506.8628 489.02896
1509.0067 484.59918
1503.1426 484.06998
1502.3334 487.80484
1500.1848 490.65292
1497.1091 485.4146
1489.6278 478.35754
1476.259 475.858
1491.5862 485.55728
1492.9299 489.9656
1496.5746 493.05566
1491.845 494.5635
1488.3594 500.0539
1478.0262 500.1293
1466.3467 500.16013
1466.7654 490.98697
1459.3478 493.21906
1450.3516 493.8038
1451.9448 501.00092
1440.7924 499.54745
1432.7012 498.64175
1425.3893 500.2122
1439.3474 506.75656
1438.4335 515.5341
1425.5217 524.3937
1439.5127 536.74176
1440.0438 529.6296
1437.6093 523.93604
1441.9188 519.922
1445.9591 526.87085
1446.5648 532.3403
1451.0571 535.8799
1445.2802 539.34973
1439.8027 545.06976
1447.8704 549.1976
1450.1229 542.49646
1452.6029 547.42847
1457.7953 548.5675
1456.9711 542.9581
1456.9988 537.0274
1451.8364 529.11444
1450.8821 522.74915
1455.8994 523.90216
1458.1135 529.63086
1466.5752 521.142
1478.1377 519.9318
1486.7466 520.7534
1496.3511 507.0338
1496.8258 513.76306
1496.4984 520.9317
1501.8464 525.44147
1504.8971 521.2452
1509.7329 523.0919
1507.8301 527.4132
1511.5168 531.1316
1513.6841 538.2777
1519.3325 535.9347
1529.0098 528.0828
1527.1989 536.8668
1527.3262 546.0428
1520.9705 548.5245
1523.5249 541.42053
1517.8845 542.5712
1513.8601 545.67804
1509.6213 543.6885
1505.5264 541.17004
1508.2731 536.5365
1502.937 532.01654
1496.8945 528.39154
1496.5527 535.142
1500.8833 538.9108
1500.8279 545.4963
1495.4226 542.46295
1488.528 542.9666
1488.98 547.4461
1482.7284 547.8357
1478.4873 546.675
1473.063 549.0367
1468.0061 549.49023
1466.7003 553.37476
1471.2603 554.55194
1474.3121 557.49097
1476.6761 552.2523
1479.4576 555.64716
1483.5579 554.808
1485.5424 551.03815
1489.0159 553.76355
1493.0623 551.46704
1495.5176 547.3811
1498.4265 551.5785
1500.3324 555.9416
1495.8693 557.0854
1491.6287 558.2528
1487.3055 559.0272
1483.5713 560.03595
1480.5634 561.9247
1477.1973 560.70184
1473.4319 562.10645
1479.0205 566.3031
1474.7369 566.73004
1471.187 565.79034
1467.446 565.24084
1469.737 570.4852
1463.9135 573.80084
1456.9276 573.50195
1459.9404 570.20514
1464.2878 568.21246
1464.066 562.0026
1469.3972 560.66187
1466.9847 557.5692
1462.2404 557.4072
1462.2712 552.48267
1456.9475 556.12213
1453.7574 552.38763
1450.1913 555.4146
1445.9591 557.871
1446.8984 562.9352
1451.4491 565.35675
1452.7411 560.4556
1457.9989 560.60144
1460.4622 564.6274
1456.3588 566.0191
1453.3123 569.77423
1450.487 573.5702
1447.1212 569.0043
1442.1693 565.84467
1439.9504 559.1811
1439.6481 552.09094
1435.9436 563.16235
1430.5525 563.13904
1426.6866 568.1961
1425.2789 574.2991
1429.2394 578.1643
1432.8673 582.0601
1427.2682 584.59503
1424.2695 580.63654
1418.943 582.5318
1421.6929 588.05865
1427.6609 593.0737
1422.6687 594.87524
1422.2472 599.0965
1418.8352 600.5773
1417.33 595.21686
1411.9089 597.87933
1412.8229 593.2197
1414.3486 587.7742
1415.2891 580.6187
1418.1804 573.6967
1421.5541 569.8478
1422.4786 564.50006
1416.7405 564.75476
1412.3817 561.6995
1414.5575 550.08405
1409.3387 549.89954
1411.3009 545.0856
1405.1654 543.2723
1401.5278 537.72156
1399.7618 544.0734
1397.3899 548.23804
1403.8947 549.28705
1409.3901 556.59576
1409.995 567.31824
1410.9929 574.23285
1403.6907 570.2862
1397.9111 568.27527
1390.9917 564.03156
1392.0145 547.631
1393.6609 543.5867
1396.4756 540.2016
1394.972 536.5061
1390.455 538.7148
1385.9388 539.216
1383.5264 535.5127
1379.9467 538.8289
1377.8168 534.4465
1372.4877 535.7102
1374.182 539.7769
1376.6248 542.96594
1369.5208 540.402
1367.5227 537.1823
1365.5189 541.1901
1362.6843 538.33044
1360.9875 540.9851
1356.7511 539.1974
1357.5261 544.4856
1362.3138 545.0254
1365.8544 546.54065
1369.555 547.8991
1370.7302 543.9865
1373.8815 547.0527
1378.0798 547.09015
1382.4584 547.35333
1381.4897 542.7787
1385.4294 544.0005
1389.2333 543.8599
1386.8257 548.3612
1385.6707 552.8856
1385.7814 558.4022
1385.0023 565.0634
1380.0648 566.2633
1376.3877 564.2157
1372.2949 563.6725
1368.2748 558.9111
1365.2913 561.51013
1360.8406 566.5953
1364.6318 565.8304
1368.9602 565.3986
1368.8223 570.4999
1363.5789 571.64514
1359.8209 575.1984
1357.0524 568.97363
1351.3848 568.76276
1354.3839 573.6811
1350.9965 577.3035
1352.0808 582.0887
1357.211 580.30884
1354.9265 586.6298
1360.5183 585.76434
1367.0603 583.82556
1363.034 580.3547
1366.9376 576.36
1371.4255 579.221
1372.8441 584.1625
1377.4764 587.2693
1381.206 589.94867
1385.6218 587.3248
1387.6155 582.29236
1387.3949 575.6325
1383.8342 578.57556
1381.9982 583.6768
1377.8147 581.5019
1376.4338 577.0864
1372.9163 573.71826
1374.2144 568.6684
1378.2125 571.3597
1380.8735 575.5915
1382.9506 571.0789
1386.8385 569.82733
1391.1884 570.603
1396.8875 574.58466
1397.8296 583.76825
1394.8262 587.24585
1389.4838 591.16437
1385.2219 593.0601
1376.8625 593.83527
1371.9296 593.5402
1373.3671 589.2769
1368.7814 589.04803
1364.5045 589.8366
1360.4104 591.07153
1357.8706 593.78815
1354.609 591.812
1350.2734 590.2075
1348.6633 585.8892
1345.1354 582.6979
1345.7407 578.5061
1347.195 573.7729
1345.2745 569.7285
1346.1799 565.9821
1349.463 563.35986
1352.462 559.8976
1356.2592 562.9789
1360.607 559.6969
1360.8796 550.7081
1355.0342 551.61926
1354.8036 547.3028
1351.4392 543.23145
1348.6981 548.0348
1344.2959 545.1096
1335.184 545.6054
1340.0059 547.4694
1341.4214 552.8385
1335.6154 552.7389
1334.3846 558.57007
1339.06 559.51514
1344.0757 560.7832
1341.2001 564.82837
1334.8429 564.82623
1339.1317 568.0452
1341.558 572.4231
1341.6703 577.3836
1336.8805 575.8028
1335.4928 570.4816
1333.0414 574.1913
1332.8053 579.8105
1336.6549 580.7321
1338.7954 584.5723
1344.1973 588.3937
1345.754 593.16254
1343.694 598.1495
1339.7203 596.4519
1340.1791 591.89197
1335.4547 589.92664
1333.4114 585.75616
1333.3018 594.06885
1335.4515 598.1938
1333.885 602.48236
1339.7994 602.6603
1343.5455 604.30457
1348.0372 602.9293
1347.5239 598.9037
1350.2106 595.09
1352.4296 598.166
1352.9703 601.92365
1356.242 597.3031
1359.2565 601.09625
1361.6886 596.20544
1365.6033 598.1524
1366.8816 602.2756
1367.1384 594.5163
1372.0554 597.6673
1373.5111 603.0667
1377.5392 600.0676
1381.4996 596.1715
1383.6603 602.63904
1390.4615 602.3951
1388.2444 597.1623
1394.3835 594.755
1398.5789 598.0676
1400.1372 609.0915
1405.0281 612.3195
1409.6746 609.2479
1413.0713 604.6918
1415.3881 599.5403
1419.1707 604.4911
1417.6056 608.7388
1418.9221 613.3762
1410.6985 615.4239
1401.5709 616.9949
1401.8314 623.4899
1406.6819 626.78143
1407.7477 620.53656
1412.2528 623.354
1418.6965 621.05554
1427.1366 615.5993
1431.2063 616.0094
1434.4348 618.06854
1430.9991 621.51624
1426.4843 621.13275
1427.9948 625.87067
1421.2345 629.02783
1419.6218 637.7718
1420.7981 646.9607
1413.5886 646.34937
1417.5933 651.5414
1423.7942 652.6368
1427.2709 646.29803
1429.499 640.21606
1433.7185 644.2689
1436.0702 652.4666
1429.765 652.6311
1422.9865 657.95996
1415.6976 656.94055
1411.773 652.522
1408.3619 649.1961
1405.9615 646.29926
1401.4161 649.7867
1405.8204 653.37994
1402.1039 657.16547
1400.2098 661.411
1404.9297 662.3805
1408.8173 657.9856
1409.2156 664.04785
1411.7 668.1925
1412.9196 672.6239
1410.9407 677.5044
1406.775 679.17957
1402.5065 680.0407
1398.6733 678.4025
1394.565 680.5229
1394.7219 675.01544
1395.3118 670.2603
1399.5857 672.7031
1403.3713 674.996
1407.6318 672.7813
1404.6802 668.784
1399.8958 667.01886
1395.8365 665.23987
1395.9014 660.4868
1396.405 656.6411
1398.7164 652.7918
1394.5916 652.0481
1394.6189 648.3623
1396.1982 645.872
1399.9293 645.6447
1402.0532 640.27637
1408.4358 641.7939
1410.067 636.9885
1411.0785 629.2277
1407.1882 632.6303
1401.1951 629.73016
1399.3555 634.8576
1395.0836 642.4092
1383.3239 633.1637
1347.1165 633.4658
1342.13 630.6198
1339.9861 618.99664
1336.5088 631.81006
1334.3988 637.7086
1338.2601 636.7335
1340.0286 642.3994
1342.1166 636.533
1345.857 638.6963
1348.119 645.5426
1344.1571 649.24054
1335.7416 649.3258
1342.5208 655.6656
1346.9442 663.7055
1342.4513 663.247
1338.7253 667.208
1337.303 657.33105
1334.8743 663.2895
1333.7703 669.98535
1338.2031 673.08936
1333.2308 676.4749
1337.152 679.66675
1333.7986 684.7179
1336.517 690.83203
1342.3085 688.52637
1339.141 685.07587
1343.0931 681.18146
1342.4609 676.0791
1343.055 670.32733
1347.3389 668.74805
1348.2198 673.4002
1347.9501 677.6519
1349.1677 682.19055
1346.0887 685.1906
1343.311 693.7559
1334.3138 695.94934
1340.0376 696.66284
1342.1719 705.27765
1347.8798 710.6645
1348.682 704.0893
1348.8381 695.4016
1346.9014 690.65485
1350.0488 688.1636
1394.7825 686.31537
1399.2274 684.0962
1404.5547 684.5132
1410.1837 683.492
1414.98 681.0765
1417.0636 675.71405
1421.7573 676.66846
1424.2289 672.15265
1418.0907 669.32635
1414.145 662.5991
1419.3748 662.806
1423.898 667.6768
1425.7386 663.27045
1430.2875 659.3947
1431.638 665.70087
1439.8806 668.86176
1438.6045 661.7949
1443.7278 646.0927
1441.6534 638.1876
1435.1855 636.3997
1426.293 636.62
1429.8267 632.55554
1432.6578 628.29315
1440.9825 630.9974
1444.7935 627.42615
1446.2207 621.73206
1441.4734 620.1142
1437.7631 615.49023
1442.2993 613.0907
1446.2058 615.7474
1450.2712 613.2769
1453.6005 609.5751
1458.3502 610.47974
1462.5615 607.87164
1459.6829 596.629
1457.1257 590.5648
1458.6233 585.9732
1452.7937 589.9747
1448.6359 592.5303
1443.1534 592.53217
1439.7694 595.5085
1441.7283 601.1015
1447.126 608.9016
1440.7786 608.66254
1436.3226 610.0928
1432.1204 610.8574
1427.2559 609.53357
1430.2137 604.1021
1425.1337 603.5053
1427.7195 599.11053
1434.3336 600.53406
1432.0592 596.1587
1433.0793 591.49677
1429.9718 587.86755
1436.3926 586.39667
1444.0822 585.3648
1442.3154 581.6762
1439.0322 578.7136
1435.4341 576.26605
1431.794 573.45374
1431.4386 568.8461
1436.965 569.36255
1440.7789 572.4795
1444.9336 573.9346
1445.1843 578.2127
1448.7042 579.8221
1452.0667 585.5834
1455.6481 581.833
1461.9209 581.42676
1465.8079 584.6957
1465.4507 589.1903
1470.5138 585.33673
1474.2661 595.0115
1484.0734 609.0926
1489.1252 608.7458
1487.8508 613.9541
1482.5592 617.00146
1482.1459 612.99695
1477.748 613.8058
1478.6483 608.7721
1473.297 608.6638
1468.4493 609.47675
1463.8726 611.0619
1464.5702 614.07385
1469.0173 615.61926
1473.175 613.22833
1470.4243 619.81177
1468.9563 623.9532
1463.7639 622.18726
1464.6593 618.1404
1459.7866 616.7645
1455.0012 616.5516
1451.0587 619.5018
1451.1316 624.7155
1457.4442 622.68695
1467.573 628.76917
1469.1968 633.5562
1472.5841 628.84357
1474.7332 633.4682
1476.8599 630.003
1473.6777 623.3187
1475.621 618.3797
1476.8644 626.24097
1491.763 625.86835
1491.4072 622.7264
1493.0409 615.68054
1497.642 618.1697
1503.0344 616.49756
1509.8551 617.66675
1511.0126 622.7156
1507.2904 624.36395
1503.2269 621.9821
1497.6411 625.65826
1502.0049 628.6102
1505.5784 630.8064
1510.4808 628.90814
1510.2828 634.67975
1505.7246 636.7582
1510.2518 640.56305
1506.2523 643.3119
1509.4064 647.034
1505.7489 649.97363
1507.2644 655.1184
1507.4608 659.69196
1508.4366 663.3748
1513.4838 659.2777
1511.8888 656.06525
1511.0232 651.46594
1515.5515 651.8147
1517.956 655.273
1521.0544 649.95325
1515.179 647.2074
1519.4982 642.2962
1527.8737 641.56116
1527.68 648.5451
1526.5845 654.38654
1533.2198 645.6634
1537.2057 649.1157
1542.4509 649.538
1547.3794 652.7891
1552.8993 655.0427
1553.4948 661.1803
1558.6477 659.5397
1559.5242 654.8314
1564.5071 652.4901
1568.6526 649.1095
1569.9412 652.7455
1568.9578 656.9298
1564.0925 657.9506
1568.5242 661.7998
1568.9819 667.35345
1563.6287 663.8276
1558.6163 665.0553
1554.3488 667.95013
1549.8672 666.86176
1544.896 668.1788
1542.5789 663.8022
1544.9601 658.76294
1540.8307 655.1151
1538.4298 659.7585
1533.5652 653.1808
1532.9485 658.4037
1528.2355 659.68176
1525.9425 664.154
1521.1732 666.07404
1520.6594 662.0858
1522.616 657.8045
1517.3644 659.9493
1512.8514 663.4305
1516.4017 665.9717
1519.4805 670.9162
1524.7128 669.308
1528.6176 671.73773
1531.1304 665.1623
1536.1812 664.29614
1538.5657 668.5218
1533.081 670.4617
1528.7064 677.30646
1523.4305 675.05676
1527.9386 682.04767
1533.7667 677.5378
1536.7142 673.93036
1541.9164 671.7594
1546.291 673.451
1549.8759 670.93585
1548.832 676.94214
1553.122 678.3216
1549.0875 682.19226
1544.7437 680.6862
1542.1659 676.91614
1538.4054 680.947
1533.4026 683.48047
1536.5197 688.3021
1541.0532 689.7933
1541.5408 684.75366
1545.367 687.1269
1547.3905 690.81635
1545.8289 695.7749
1541.3615 698.7903
1537.1425 694.5323
1535.443 699.4326
1532.3398 702.9273
1532.0337 706.70355
1529.4507 709.6612
1525.7983 710.4149
1521.5454 710.21625
1519.4414 706.6994
1520.5652 701.6408
1525.7238 704.5809
1529.2898 699.6461
1524.9331 698.2818
1520.9762 696.17145
1523.7458 691.5335
1528.1165 693.7523
1532.5398 694.67175
1531.6975 689.07336
1527.0702 687.44196
1523.0548 683.73016
1520.0388 687.7634
1516.1304 684.5672
1521.2336 679.7105
1516.9893 677.9195
1515.473 673.73395
1513.2689 669.8214
1509.6519 667.4023
1504.7922 664.8064
1506.3021 669.9932
1509.5314 673.6419
1511.1262 677.5991
1512.6447 681.741
1508.7025 683.69855
1505.954 679.74115
1505.1031 675.1527
1501.0029 677.2715
1498.4996 680.07904
1494.4456 681.8508
1489.9099 680.6332
1494.1176 676.3593
1495.3235 672.57666
1495.9893 667.417
1487.9651 665.27234
1482.3173 664.56134
1485.1892 669.3745
1490.9739 669.607
1488.7885 676.9928
1487.044 673.62054
1482.1809 674.09125
1483.0033 678.2449
1484.4236 681.90234
1478.1617 681.93274
1473.6472 681.6025
1469.8303 679.2516
1473.5918 676.6196
1478.0392 676.43677
1474.7661 671.5947
1479.9988 670.2443
1476.5903 666.56586
1472.2155 664.36743
1470.1879 669.1221
1469.1245 673.967
1465.9774 677.42
1462.1986 675.78076
1459.4626 672.7502
1460.8694 667.5957
1464.9279 670.6534
1466.5425 665.17017
1462.9397 662.12067
1466.2719 658.052
1470.1677 659.9374
1474.569 656.8911
1477.4725 661.22656
1481.135 659.083
1486.2156 659.42944
1478.9423 651.79156
1471.5498 651.1988
1471.6965 646.20667
1475.6548 644.63947
1477.0801 640.25653
1472.942 637.51105
1471.5967 641.4069
1467.639 638.8686
1467.5214 644.358
1465.5103 652.1776
1458.5525 659.15186
1458.5354 663.95685
1454.2242 666.23096
1455.2563 670.21674
1449.1959 669.00446
1447.179 676.0229
1448.1233 681.88605
1441.6508 684.0917
1446.5238 685.8808
1452.7311 679.6938
1453.8035 674.708
1457.9397 680.0149
1462.1589 681.41675
1464.8972 685.64624
1462.5327 689.4756
1458.6355 686.90686
1453.6456 685.25085
1453.3243 690.35004
1449.4045 689.60016
1446.0442 691.70593
1443.0538 688.99445
1439.1622 688.3673
1435.7126 690.5302
1431.6276 682.87665
1430.0472 678.79364
1435.3564 676.956
1436.6931 681.4749
1441.5768 678.8321
1435.3698 672.3457
1430.2626 670.63696
1427.4348 675.7827
1425.2714 682.04004
1420.3993 681.9374
1417.6656 686.10645
1413.3342 688.1076
1408.3969 688.7473
1403.68 689.6599
1399.1984 689.1911
1395.8215 692.2762
1394.0823 697.6733
1399.0459 700.4984
1397.7465 696.46326
1401.2568 694.33795
1406.3153 694.46484
1411.6128 693.6932
1417.2686 692.2495
1422.1349 688.5932
1427.0823 686.37427
1431.6384 689.2682
1427.1484 691.05835
1428.0221 695.84204
1423.2161 694.2321
1419.8812 697.3256
1415.0366 698.3132
1409.5721 699.1919
1414.9355 703.5299
1414.0344 709.5334
1418.9146 707.4931
1421.0125 702.30444
1426.1467 699.9894
1429.5447 703.79474
1424.7196 705.9092
1428.2312 709.43665
1426.229 712.65753
1422.7865 710.2587
1419.0098 713.0788
1414.42 715.1084
1414.0261 721.0868
1409.6183 718.26666
1404.0718 715.358
1408.9625 712.1669
1409.3618 706.2783
1404.0457 705.07733
1402.9594 709.9996
1395.1938 707.6519
1396.932 712.48413
1398.5138 716.88586
1394.7322 719.59814
1400.597 721.36816
1405.4092 720.92834
1408.1161 725.2613
1411.7981 725.9369
1416.6437 725.977
1421.7118 727.0814
1420.5378 722.78723
1418.9388 718.51733
1423.2566 715.7831
1425.1218 719.92017
1426.107 724.49225
1429.7795 726.39984
1434.4152 726.4489
1431.5299 720.4294
1428.8221 716.2397
1432.2738 713.48816
1436.3198 710.75256
1431.663 708.3148
1434.9309 706.39966
1440.7986 704.81854
1440.1792 700.30176
1435.9628 702.74603
1432.7109 699.47723
1432.2485 694.29626
1437.0504 696.2483
1440.022 692.7281
1443.0396 695.1807
1450.2539 696.10315
1455.9271 693.7195
1460.0715 696.25055
1464.6923 693.87994
1468.8286 689.0486
1466.3342 681.9062
1469.8127 684.32874
1473.4714 686.9194
1477.1643 687.4972
1481.311 685.49774
1485.8268 686.6323
1489.6624 684.7048
1485.8579 691.414
1482.0962 690.01624
1482.2642 695.168
1478.9976 695.91437
1478.2551 691.3514
1474.2852 693.13605
1469.9612 693.77374
1474.6619 698.15845
1478.2556 701.47784
1473.2319 706.0457
1477.4198 710.0854
1479.3975 705.79095
1483.6359 700.6444
1484.2051 706.0745
1482.6908 711.597
1488.4324 710.3591
1489.0433 704.98395
1489.2859 699.746
1485.162 696.11896
1488.1805 695.37384
1491.5553 694.3491
1495.3843 692.052
1489.9879 689.7543
1494.3263 687.2766
1498.821 685.0197
1503.3936 684.28204
1500.9001 689.6138
1507.3312 689.80774
1510.0367 694.96173
1513.5254 690.2035
1517.7816 692.8706
1515.7382 698.2118
1511.339 700.1647
1506.9003 700.824
1502.7904 702.1036
1503.6028 695.7369
1495.4717 697.53156
1493.4958 702.9124
1498.1985 704.2674
1493.8738 711.92065
1495.284 717.6835
1491.0508 722.5709
1486.2773 722.31036
1490.4136 716.6951
1485.9475 716.00354
1482.1644 718.8533
1478.5205 715.30566
1475.1184 719.1276
1477.2584 722.61304
1474.9127 726.3513
1471.5437 723.681
1469.8907 719.1988
1465.3875 719.9508
1461.4615 722.99677
1456.4226 722.7566
1455.8838 717.05365
1460.645 717.1299
1459.7036 710.8822
1466.0767 713.901
1472.5144 715.06433
1471.7843 710.7599
1466.174 707.1662
1471.2062 701.8944
1466.793 699.26654
1461.0387 702.9294
1454.2826 700.38556
1455.2107 706.41174
1448.8307 705.49255
1450.5007 710.68994
1451.778 714.92413
1451.3296 719.65784
1445.6824 716.142
1440.8445 711.9508
1436.8597 716.5083
1437.835 721.43176
1439.4578 725.8477
1444.1844 726.63965
1451.231 725.71985
1455.7754 727.6363
1460.0077 727.8951
1464.6497 728.34204
1466.7772 724.6998
1469.2993 728.65216
1472.4974 729.99927
1475.5288 731.21564
1478.5581 729.2531
1482.1978 727.8385
1482.5156 731.5401
1487.418 730.8185
1486.3795 727.0493
1490.489 727.67163
1491.7484 731.3408
1494.3844 727.30365
1496.065 722.3621
1501.0353 729.4729
1507.7119 729.51697
1508.1619 724.36194
1500.6162 718.8225
1499.6079 713.6676
1501.6821 708.74615
1505.9598 706.8005
1510.896 705.93634
1515.3778 704.5037
1508.5498 711.6109
1514.745 711.154
1518.7229 714.3945
1512.0889 717.3304
1516.2751 719.2043
1518.2672 724.3769
1517.8564 729.8196
1521.0781 728.4103
1521.5946 722.04645
1521.813 718.0992
1525.1868 714.9048
1527.403 719.50226
1530.965 715.72595
1534.5239 711.1391
1536.4224 715.18054
1541.8362 714.61316
1548.0702 715.1211
1545.7261 710.58484
1540.6134 709.92004
1536.6339 706.50745
1540.7615 704.46063
1545.7056 702.35425
1548.9608 705.8096
1551.8058 710.3876
1553.6023 715.0328
1557.648 713.94763
1561.5609 716.046
1562.8206 712.4304
1560.68 709.1959
1556.887 709.0977
1554.9797 705.22046
1552.8251 700.7887
1552.1583 696.2196
1557.052 695.4928
1559.948 702.15295
1564.1259 706.6194
1568.259 705.8338
1572.848 705.5604
1571.1675 700.5867
1566.1857 699.04694
1562.0704 695.84326
1564.0195 689.65845
1569.5809 689.0321
1571.1484 694.4721
1576.0284 698.1135
1577.1296 693.7233
1577.2085 689.19073
1575.5631 684.65314
1571.0332 682.3137
1566.6205 678.5633
1563.0885 682.68774
1558.9995 685.64325
1557.93 690.0017
1553.032 690.9468
1550.1001 686.9606
1553.5837 684.7431
1556.2767 681.6999
1558.5852 678.59656
1557.2192 674.5549
1553.2352 673.31805
1558.6198 670.2827
1563.7212 669.8242
1562.3125 675.2446
1568.8097 673.41364
1574.4583 677.01337
1574.9221 671.14636
1574.8972 666.3116
1573.8534 662.1776
1573.9266 658.0271
1573.3423 654.2484
1577.4158 654.4335
1574.645 650.4235
1573.1812 647.1695
1569.6807 644.1993
1564.1406 647.29614
1564.6294 641.60516
1563.796 636.4828
1571.2463 639.4422
1570.5762 634.72375
1567.8518 631.1956
1563.3478 629.0978
1559.2773 632.4179
1552.502 630.4145
1545.9371 628.2225
1544.1443 635.2909
1552.075 639.127
1556.1504 635.94867
1557.3396 641.3768
1559.3734 645.66455
1557.9481 650.6725
1553.0581 647.70825
1547.7583 646.261
1542.2224 643.0854
1537.2865 637.89954
1532.714 639.5427
1529.047 633.6941
1534.805 630.25946
1538.8497 624.11005
1529.4453 625.36487
1519.627 628.095
1519.3615 614.79016
1519.7386 607.4421
1511.0571 601.63226
1511.9482 611.42017
1507.4902 613.3502
1508.1615 607.9983
1503.2389 609.9736
1498.9214 610.9876
1493.8116 611.2559
1495.5813 607.2058
1496.6155 601.38165
1504.946 594.54785
1513.8744 596.1811
1519.7899 600.3899
1527.1198 601.4411
1523.8655 594.7319
1518.4355 590.7808
1510.7809 589.49097
1509.2458 584.18427
1508.7212 579.6237
1514.2754 580.4153
1516.4376 575.3875
1511.5819 575.86426
1506.5691 574.8438
1503.7198 571.24774
1499.1682 567.92175
1494.8721 571.8145
1499.3011 575.1383
1503.5652 580.4844
1503.3746 587.38983
1497.946 580.85645
1494.1099 584.6287
1492.549 578.0084
1487.681 575.5289
1481.7701 584.7921
1483.7129 588.1147
1479.4824 588.7076
1473.9526 584.0354
1467.9391 580.10236
1468.5206 575.40424
1474.1008 574.22
1476.5336 570.7563
1481.316 574.3937
1482.4008 570.5018
1487.1688 570.35724
1484.167 565.6828
1489.2333 564.0373
1491.5131 568.988
1494.9385 563.6013
1500.3994 561.7991
1504.0728 557.30194
1508.7177 557.6671
1507.5802 553.52734
1503.3911 551.1692
1505.5885 546.91406
1510.1144 549.8136
1515.9774 550.8083
1513.4094 554.8576
1512.8771 559.6972
1519.2625 556.1326
1524.8019 553.37787
1531.0071 554.9924
1536.0928 547.3107
1539.239 559.73517
1542.5544 555.97546
1548.9679 549.8248
1548.9565 544.8965
1550.7722 555.588
1555.6514 559.4984
1544.498 561.326
1549.355 569.0366
1554.673 568.2145
1554.6233 573.2544
1546.4735 574.32715
1543.6802 569.1831
1537.9863 568.62146
1525.7568 563.1952
1521.0284 563.93915
1516.9353 561.769
1511.4595 564.2866
1506.7168 561.79407
1504.5746 565.9021
1508.9297 568.51447
1512.1682 571.05383
1516.1232 567.41846
1520.9388 576.6028
1519.2606 582.46375
1523.471 587.32635
1525.6748 582.054
1526.4563 577.01044
1524.2977 572.3189
1540.1677 574.4753
1543.0792 579.47394
1543.2965 585.52057
1549.2133 586.451
1545.2485 591.97986
1550.0111 594.1347
1551.0414 599.1793
1545.5468 597.52747
1546.2622 602.5639
1545.7588 609.39746
1541.776 613.7929
1539.1809 609.1645
1533.4177 610.3071
1528.4375 611.74634
1530.6022 618.68945
1537.0646 617.75195
1545.1743 619.08276
1551.7072 615.2643
1552.6055 621.702
1557.219 626.2639
1562.7346 623.4235
1558.5192 619.35144
1558.1475 614.53
1562.1478 612.1857
1564.6162 617.0895
1568.4102 621.0391
1569.3796 626.04095
1574.2932 628.5852
1576.0125 633.3286
1577.3397 639.00714
1580.8105 633.84784
1584.1896 637.6925
1585.255 643.8785
1580.569 643.5195
1575.9636 644.2754
1579.1367 649.7214
1583.3652 648.89844
1588.6238 648.10876
1590.7043 652.8889
1585.8513 653.5355
1589.9597 658.14136
1584.928 659.66925
1581.5812 655.3408
1578.9149 659.787
1580.4207 664.3252
1581.3604 669.95166
1580.7744 675.39465
1580.5747 680.44775
1583.9297 685.4592
1589.9834 683.13446
1586.1714 679.5663
1590.2896 676.01984
1594.11 679.5731
1598.9244 681.1153
1603.8666 678.91724
1599.8512 675.25073
1595.1598 673.4344
1590.911 670.1386
1586.2136 672.09125
1587.1956 665.2137
1592.4269 663.57294
1594.6646 659.28546
1598.6033 656.9265
1601.1522 660.3834
1605.5654 662.25037
1602.0614 664.8574
1597.812 663.6235
1595.0814 667.7501
1599.3491 669.8464
1603.4434 668.7633
1607.033 666.7275
1609.6489 670.38727
1605.1337 673.0138
1608.9211 676.9646
1608.1255 682.61237
1602.7045 686.01984
1601.4006 691.0528
1596.3391 686.6583
1590.6997 688.3243
1584.8777 689.7484
1581.705 692.4006
1581.3971 696.4253
1581.5916 699.44617
1580.0339 702.55756
1575.945 702.8466
1578.1165 706.8508
1582.2856 706.66534
1586.4437 705.16437
1590.9042 703.5157
1585.1902 701.43854
1588.5034 698.433
1585.8162 694.73773
1590.2806 693.5081
1595.5385 693.27405
1600.685 696.17334
1599.9294 700.93243
1594.2759 699.17096
1596.1953 705.47253
1592.0336 709.20276
1587.197 709.2667
1583.492 711.7032
1579.5665 711.52454
1576.176 710.0816
1572.5635 710.01935
1568.8884 711.37726
1566.1646 714.3717
1570.8038 715.5063
1575.4077 714.6529
1580.7509 715.6046
1586.6311 714.86523
1591.3427 714.68945
1595.2605 713.6523
1599.3916 715.46674
1603.9004 713.2843
1598.8573 710.2804
1602.3308 706.3221
1606.6001 702.83997
1610.3367 699.0479
1605.5143 696.8624
1608.0342 692.20496
1609.3418 687.2358
1614.454 688.8106
1619.8364 687.28424
1616.7664 683.5365
1613.9978 679.90625
1613.3284 674.3782
1614.2881 669.69635
1614.2158 665.4307
1610.1311 664.54535
1612.6752 661.2701
1615.7578 660.6066
1618.9275 662.11426
1618.4869 666.80206
1619.5535 671.0407
1618.929 675.42
1621.5172 679.1209
1625.0066 683.2197
1627.5933 688.65076
1623.8577 688.8349
1622.6216 692.66693
1617.9688 692.7614
1613.4381 694.57764
1619.56 697.2216
1615.4319 700.31775
1612.452 706.2648
1607.9553 708.92316
1609.232 714.767
1614.425 713.158
1619.804 714.84503
1619.1072 709.57886
1617.0461 705.1513
1621.615 704.3039
1622.9817 700.3895
1624.8542 696.5988
1628.2073 696.058
1628.9342 692.63135
1632.513 691.2233
1632.1013 686.58417
1629.8413 683.07135
1627.5273 677.7028
1626.008 672.0309
1632.4877 669.50653
1628.9019 665.7858
1626.6028 660.5952
1630.4242 658.5719
1634.1508 655.0998
1635.4006 659.6819
1633.1611 663.65765
1636.9174 666.26996
1639.6722 662.472
1640.7184 658.4532
1639.3794 654.48346
1643.1234 651.4679
1645.395 656.3095
1649.5383 654.18365
1650.1436 659.741
1645.2012 662.0236
1650.5017 664.6147
1656.6332 663.18884
1660.6714 673.79254
1665.9111 677.0758
1659.6427 679.776
1656.3536 671.0384
1652.1228 669.529
1649.0339 674.51495
1652.5381 678.37305
1654.2126 683.82336
1652.522 689.9538
1647.7983 685.01465
1641.8207 686.9
1644.9199 680.1802
1642.9169 674.426
1646.477 669.0226
1642.3967 666.51385
1639.4028 670.7336
1635.0239 674.14575
1632.9906 678.78143
1639.3894 679.03064
1636.2244 682.2123
1636.8849 685.3546
1636.5973 688.6913
1637.9585 692.879
1642.3159 694.9814
1646.3486 691.0592
1648.7832 695.7834
1654.2876 696.21014
1654.9089 702.1743
1649.6309 705.4087
1649.2979 700.76666
1643.7966 700.3184
1637.1918 698.13855
1632.9564 696.26324
1630.528 700.8029
1627.1903 704.1895
1624.3033 708.9161
1624.7969 713.4925
1629.0007 715.8241
1635.2352 715.5866
1630.8008 712.3222
1629.5117 708.40735
1634.3268 706.0772
1637.9453 702.5881
1642.4583 705.76294
1640.5616 710.20233
1635.9944 711.41156
1641.3644 714.99
1645.9344 713.6586
1647.1151 709.1605
1649.9218 715.2663
1652.3569 712.25037
1654.743 708.0359
1659.8683 703.262
1664.8442 701.4637
1660.5771 697.6877
1658.8213 692.627
1659.1956 687.07025
1664.9032 684.58875
1665.136 691.02563
1666.3679 696.1641
1670.1998 699.70905
1672.6312 694.52924
1676.7883 697.2431
1678.1622 702.1112
1679.7787 707.9622
1674.5454 709.3876
1674.2458 704.0999
1669.064 704.9211
1664.7798 706.87006
1659.9509 708.3819
1657.3647 713.12164
1655.9988 717.08563
1661.7894 717.2494
1662.4946 712.7845
1666.6157 711.71106
1670.5935 712.1702
1667.7347 717.64685
1673.8287 715.51483
1676.8833 719.02637
1680.0944 714.3175
1685.2853 712.46075
1684.9248 718.4277
1691.4268 718.74225
1690.343 715.2535
1690.8326 711.2388
1690.7217 705.92584
1685.2021 706.4564
1683.3479 700.1008
1688.7678 700.24493
1693.8022 697.97974
1695.7201 703.02344
1699.3206 697.4252
1701.5996 701.9619
1707.2687 701.39264
1711.4329 702.4202
1715.113 704.4528
1717.9744 707.54376
1717.0212 712.76495
1712.685 710.59814
1708.8486 707.9039
1704.4935 706.69226
1699.9679 707.82227
1695.1282 708.8639
1697.4829 713.0645
1695.9644 717.4271
1700.4823 718.77026
1702.5305 713.50714
1707.5051 713.43054
1706.4119 718.67175
1712.2178 717.77454
1718.5123 718.7175
1722.4141 713.9558
1722.6674 708.7067
1722.139 704.3906
1718.8939 701.4315
1718.8262 696.77466
1714.4716 698.8158
1714.581 694.20374
1710.0775 695.10626
1704.9504 696.165
1700.7745 692.23804
1695.9558 692.2296
1700.7595 687.4441
1705.4573 684.3261
1702.9564 681.4276
1698.4631 682.3189
1693.7457 682.2236
1690.4054 678.50775
1687.1042 683.8582
1693.0208 687.46436
1691.0814 693.45496
1686.8348 692.471
1681.4912 694.38727
1677.5881 690.65717
1675.2863 687.1224
1683.0947 688.3861
1680.8242 683.46576
1675.9148 682.13055
1680.9727 677.6855
1675.5001 676.5327
1667.5632 671.0959
1662.0348 667.74
1663.0892 662.9678
1669.3169 663.76416
1668.0996 655.67303
1661.6558 650.09894
1657.4663 648.2705
1657.4622 654.4114
1660.6831 657.01575
1654.2115 657.4916
1653.037 651.41583
1647.5638 649.5071
1644.2822 645.7006
1644.6914 640.4505
1648.909 638.2183
1651.2527 633.7372
1646.3916 632.7296
1646.6475 626.02527
1650.095 628.9234
1655.3528 630.08685
1657.264 636.7533
1655.1699 641.1759
1649.3042 645.06635
1653.1925 646.7512
1661.7974 643.6666
1662.9882 637.2143
1661.4042 631.20544
1666.331 627.81854
1661.7749 625.1153
1662.5815 620.18054
1670.9431 625.5051
1673.3063 629.3658
1675.6768 621.3008
1670.1265 621.01337
1666.83 617.5522
1669.8562 614.23926
1674.9983 615.7925
1672.5144 610.77045
1676.1578 608.7823
1678.6809 603.60156
1678.9902 599.53906
1681.7998 595.464
1679.5056 591.7315
1679.2201 587.6893
1684.6223 589.1879
1690.3792 589.96564
1687.5278 595.07513
1684.6217 600.0057
1681.1859 608.03894
1685.0471 605.7572
1689.1292 603.1629
1693.3201 601.24347
1694.4574 594.6933
1698.7285 590.20166
1704.1023 589.6628
1701.3673 594.9676
1701.1296 602.5248
1700.3892 610.26215
1695.3013 614.1157
1690.6394 609.3665
1684.1063 611.5218
1684.8772 617.2777
1690.1107 618.6651
1688.2638 624.492
1682.4929 622.80316
1681.4241 633.67535
1668.9409 634.1411
1668.3312 640.2263
1666.9645 645.51434
1674.147 645.8872
1678.605 649.42664
1674.0361 653.6328
1678.9259 654.10974
1684.9556 649.9073
1683.6794 654.7982
1680.7058 659.49255
1676.1361 660.64105
1676.2216 666.47327
1678.0925 671.58325
1684.8511 669.5519
1682.2206 664.9079
1685.7996 660.74634
1691.7887 658.546
1688.1027 656.85156
1689.5039 652.40405
1694.2924 653.1343
1696.8706 657.6226
1701.2268 659.60486
1705.6304 662.4378
1705.4742 667.5991
1700.4502 665.6387
1696.0762 664.9402
1694.876 661.50684
1689.6134 664.7554
1693.3113 669.1015
1689.9968 672.5082
1685.3826 676.03204
1695.6782 675.83
1701.0255 676.6998
1697.8417 670.78204
1701.9761 671.5664
1706.2708 672.9727
1706.2639 677.79755
1710.121 680.13275
1712.5226 684.99585
1708.7787 685.99005
1706.7375 690.43866
1713.4065 689.37524
1717.7599 691.73096
1719.5797 688.2241
1717.5156 684.5916
1714.5469 680.6922
1715.558 675.0431
1711.1074 674.8986
1710.8651 670.02045
1711.1943 664.9908
1714.7188 661.152
1720.1055 658.6448
1716.3785 655.20087
1709.4628 658.4053
1704.6184 655.0221
1699.2361 653.3585
1701.3206 649.21765
1700.6481 644.1424
1696.1464 647.1817
1691.464 647.5444
1687.2454 645.117
1681.5001 645.2385
1679.2598 641.29315
1683.4619 638.86554
1687.6232 639.75684
1693.1827 641.3622
1697.7881 637.9842
1703.3999 639.3557
1704.4401 633.884
1701.1282 628.57367
1697.0841 632.01263
1690.5072 634.3352
1694.945 624.32684
1700.6497 617.50055
1702.5669 623.72797
1707.1782 629.4603
1708.3887 623.43823
1712.3859 624.08154
1711.6621 620.5532
1712.4336 617.0256
1707.249 615.13245
1707.9668 609.16833
1710.6079 603.88
1713.3076 611.24744
1722.9185 616.14307
1726.1593 612.65405
1730.1057 611.88544
1734.137 612.0204
1735.1405 608.0978
1737.2739 605.34766
1737.6943 600.9565
1736.8616 596.71954
1737.5049 592.5321
1734.4048 589.0614
1731.6053 592.166
1728.7117 595.50433
1732.3785 597.51996
1733.3771 602.1287
1729.0588 603.31635
1731.1691 607.0368
1726.4473 607.7291
1721.7108 609.8644
1716.7517 607.6503
1716.1531 602.6685
1722.1464 604.3276
1721.6637 599.75244
1726.78 600.2889
1725.8474 591.4679
1724.0093 595.7433
1718.3252 597.13446
1712.7842 598.3471
1708.0286 595.8154
1708.6377 589.5857
1712.8356 590.3286
1716.7382 592.4951
1720.6194 590.81775
1723.6207 587.1717
1728.8156 587.53894
1728.3289 582.50323
1723.6464 583.1211
1718.6777 583.8499
1715.7101 586.5275
1711.1394 584.0377
1705.3557 584.2017
1699.5532 584.232
1694.6372 585.9747
1689.916 584.01697
1684.5774 583.99335
1679.6725 583.52563
1683.9888 572.81964
1687.2196 571.36
1687.2476 567.6627
1683.1968 566.21234
1683.8892 561.6345
1688.3706 563.30475
1692.2134 566.4324
1697.6254 566.39624
1701.1482 563.85095
1707.2004 564.94257
1714.7393 559.4784
1741.3398 557.8534
1742.041 564.78406
1742.0032 569.59705
1741.7502 574.47516
1744.0042 577.9314
1740.2622 581.994
1734.7955 581.6394
1732.3329 584.78656
1737.0995 585.4951
1740.3029 588.2308
1744.8716 585.90735
1746.1088 581.67053
1750.4208 579.39435
1751.1946 584.0646
1752.3131 589.1987
1749.0736 592.42773
1747.8917 597.10297
1743.5356 591.6283
1741.9464 595.7522
1742.2024 600.0481
1741.842 604.3683
1740.9242 608.2822
1745.6031 614.2154
1744.699 610.2205
1746.9067 602.5759
1748.1165 606.98193
1751.4011 610.7529
1757.0012 608.1402
1755.8049 614.1485
1753.8302 619.49194
1748.5652 618.1367
1745.6418 622.8738
1740.7756 622.77014
1741.8724 617.8897
1739.5359 612.30194
1736.8931 615.7271
1736.3516 619.5082
1731.9178 616.5981
1727.2305 617.3338
1730.8624 621.24255
1731.7422 626.83997
1729.2173 630.9899
1726.2015 625.79065
1717.9354 632.57495
1715.0643 637.7486
1712.7075 632.37933
1709.8281 635.5015
1709.1061 639.9614
1706.8439 644.43134
1706.5194 649.7614
1711.169 652.9817
1711.765 647.1604
1716.5958 649.5468
1721.935 651.663
1721.8726 646.53
1718.2621 643.55176
1713.6967 642.7499
1720.1284 638.585
1724.3788 642.19946
1727.1947 648.4821
1725.1277 655.44135
1730.2932 654.6461
1737.0127 654.8937
1743.4451 656.49945
1742.7555 650.9572
1738.9064 647.11334
1732.7733 646.0986
1728.7329 638.3418
1733.2292 635.8219
1738.6671 632.8063
1739.7765 639.01624
1742.7849 643.5261
1747.2118 646.55505
1748.5017 651.2575
1749.1794 655.65265
1751.5991 659.73236
1756.6047 660.22723
1754.8015 654.8678
1754.0408 649.8951
1760.7273 650.37634
1759.9198 655.0445
1761.9845 659.8791
1766.4899 660.192
1769.571 661.8845
1772.3595 657.60956
1770.2914 654.2351
1765.5264 654.411
1767.041 648.95776
1763.4753 645.88074
1758.3859 645.7514
1754.0712 644.8798
1750.9219 642.74133
1747.3556 639.98865
1744.2975 636.1356
1744.0283 631.8074
1741.8618 627.7576
1747.4746 627.5528
1752.1577 625.3624
1758.1506 625.2971
1756.6017 631.62225
1750.3167 632.5243
1753.5997 637.9365
1758.7119 640.48126
1763.7877 640.82166
1768.2205 642.2641
1767.8372 636.671
1761.9325 635.5812
1763.2058 630.02454
1764.9159 624.28455
1760.4761 619.5409
1765.9459 617.2449
1761.7104 612.90784
1763.3523 607.31433
1767.6536 610.7352
1770.8542 606.27954
1773.7399 601.99713
1767.6975 602.8739
1762.165 602.6059
1757.21 602.6031
1752.2173 602.4103
1753.9053 596.2455
1757.6857 591.8825
1759.5442 597.3434
1764.9716 598.3408
1764.0881 593.48285
1764.1614 588.8907
1759.7891 587.3752
1755.7616 584.5995
1757.5994 578.7515
1760.5121 582.4313
1764.2633 579.15106
1765.6633 583.61835
1770.758 580.13184
1766.2732 575.1344
1760.9899 574.5673
1762.2544 569.97595
1757.403 569.6702
1755.8951 573.50397
1752.9987 576.6687
1747.4081 573.3293
1752.0039 570.6618
1751.9214 565.6062
1749.313 561.4938
1745.2264 559.7728
1747.8822 555.4691
1752.56 558.97797
1755.1632 562.06665
1755.263 566.05597
1759.0011 565.2374
1762.7379 563.91364
1765.887 567.6633
1768.0499 564.2621
1769.8274 560.4998
1765.8812 558.5291
1770.1536 553.8265
1766.913 550.56934
1763.4962 547.50336
1761.2548 550.098
1757.8274 551.27515
1763.7288 554.4592
1761.551 559.6864
1757.6449 559.1858
1758.9896 555.20087
1754.6383 555.5364
1751.8934 552.1781
1754.029 549.57074
1754.5193 546.2354
1750.1924 543.56134
1743.3413 551.3657
1742.9535 544.56525
1747.1763 538.24304
1741.5012 536.7976
1742.4595 529.3017
1747.92 530.1108
1746.7723 522.341
1744.8384 517.41705
1749.934 516.3019
1752.7864 520.46576
1753.8949 514.0515
1757.4786 516.1406
1762.2588 514.1429
1757.2467 511.14148
1751.2495 510.8
1747.9669 509.8517
1746.1798 512.7298
1742.4722 513.43115
1739.7783 510.3958
1738.2483 514.41626
1738.7157 518.53217
1741.2891 522.6877
1737.3118 526.29407
1730.9143 526.1071
1734.3231 521.77466
1728.4363 519.19104
1732.7297 516.237
1733.06 511.8967
1725.6173 513.1386
1720.002 508.1424
1717.7615 513.6159
1715.0364 517.40015
1717.388 520.2549
1714.6305 522.6021
1717.2329 525.4612
1713.4796 526.7386
1709.2869 525.7731
1710.9312 521.43945
1706.5801 518.9803
1702.3025 516.1945
1698.7723 512.132
1698.6355 505.9798
1701.5094 501.77536
1702.555 496.56458
1702.8042 491.39105
1698.8722 487.80392
1696.9705 482.68726
1702.7717 480.96606
1704.5771 485.64594
1707.9636 493.40192
1713.2234 493.15002
1713.9967 498.3888
1707.7097 501.56836
1705.6489 509.31122
1710.4636 515.3595
1712.1936 510.01
1713.7666 504.38977
1721.08 502.2643
1731.4703 497.47815
1740.7645 496.5071
1742.8186 500.98087
1740.86 504.52463
1743.6492 508.22562
1747.617 505.69617
1747.985 501.006
1753.4933 498.5004
1756.5759 491.6854
1752.5353 493.3509
1749.1931 496.0183
1744.9519 494.98428
1746.5627 491.153
1741.0237 491.53177
1738.7177 486.6676
1733.6733 483.40198
1731.0054 474.99332
1733.02 468.61685
1738.4812 469.57654
1741.616 466.00803
1746.295 464.8109
1751.2832 464.2456
1755.4221 465.39905
1759.5524 467.43976
1757.884 472.54813
1763.5869 470.01425
1767.7635 473.2984
1762.2192 475.24728
1757.3625 477.96594
1751.8025 477.03513
1748.0466 473.85025
1753.5562 470.99622
1749.6008 469.0099
1745.4843 469.35104
1742.848 471.89124
1741.1722 475.66525
1741.1659 480.92215
1745.7119 478.46838
1747.8455 483.23706
1741.937 485.53656
1745.421 487.03354
1750.815 488.3578
1755.4401 487.38116
1753.755 482.37857
1758.7308 484.19946
1762.428 481.38226
1766.312 478.35144
1768.3301 483.23196
1763.3705 486.06976
1760.9506 490.3524
1766.3151 488.71725
1770.3718 488.90244
1770.7236 495.42645
1768.4894 492.8924
1764.7897 493.43903
1766.5139 498.1672
1762.082 496.2986
1757.9292 495.94092
1760.6964 500.89966
1756.9294 501.08167
1753.6543 503.52493
1753.7804 507.69257
1758.8184 505.59427
1760.9604 509.528
1764.3076 506.4689
1764.8284 502.22827
1770.4978 500.8397
1770.1211 505.6123
1772.0333 511.1179
1766.7205 510.51816
1767.5327 515.7024
1770.7063 519.5672
1768.4528 524.96124
1765.7405 522.41724
1763.114 519.43744
1758.4124 520.1269
1757.7461 524.75757
1751.9258 525.7244
1752.1274 535.11285
1754.9463 530.2952
1762.7827 526.1321
1760.5032 530.4524
1758.2441 535.42664
1755.8838 540.23
1758.3127 545.40594
1761.7386 543.2534
1762.8394 539.1336
1764.8978 534.8063
1766.8262 530.1436
1771.643 526.0232
1772.4928 530.81805
1771.1105 534.92255
1773.0311 539.9442
1768.3157 540.65826
1766.478 545.00037
1771.0925 546.07965
1774.253 548.90314
1777.2828 555.00256
1773.3146 557.3791
1775.3652 562.1866
1772.7457 567.18506
1770.199 571.0611
1771.908 575.091
1776.151 577.375
1777.266 571.4608
1781.5126 575.55786
1787.5513 575.16724
1780.3114 581.472
1774.9023 586.91705
1772.7119 583.7205
1768.7554 587.3231
1770.3998 591.9508
1769.8595 597.3833
1774.9573 596.50415
1776.1907 591.9055
1781.0852 590.2091
1785.4921 591.9825
1786.9371 585.7323
1790.5247 590.869
1794.9592 588.8
1793.6929 577.9853
1800.8367 575.3027
1796.5431 573.09064
1797.842 566.9392
1800.9281 569.7078
1804.7302 565.4472
1800.6234 561.61145
1801.4928 556.6463
1795.2954 556.2523
1792.6687 559.94946
1794.4462 564.07635
1791.6964 570.35
1784.8103 569.72125
1787.4348 564.504
1783.0913 560.13403
1787.7019 556.48535
1787.309 550.924
1787.8394 544.86017
1794.2949 547.33014
1800.9398 548.377
1805.8651 548.996
1806.7621 544.00726
1803.8954 539.15466
1800.2737 542.84576
1798.1974 537.8744
1792.8313 541.68665
1787.4067 537.95807
1791.435 536.09906
1793.5459 531.3632
1799.1327 531.523
1797.3206 527.2397
1793.5765 523.50244
1791.5328 527.2333
1787.818 531.13696
1786.532 524.7681
1788.4708 521.2455
1787.786 516.66724
1790.7146 513.37415
1791.1646 518.1033
1796.9326 520.79724
1801.8876 520.012
1806.3002 522.19653
1800.574 523.9384
1803.3286 527.85376
1802.8757 533.9657
1807.5956 535.121
1806.99 530.79443
1808.7971 526.42065
1813.4492 525.6303
1811.9183 521.1035
1816.2866 516.78845
1817.9468 523.0781
1817.2119 528.05804
1821.4202 528.3432
1823.1034 532.5927
1826.519 529.1024
1826.6458 532.65955
1830.2615 532.3455
1829.6223 537.278
1825.6846 536.2903
1823.1567 539.1645
1826.4607 541.08386
1821.9629 543.446
1819.221 539.7504
1820.6068 536.12305
1819.425 532.6033
1812.0343 531.1357
1811.9729 536.4164
1808.7764 539.50415
1812.0681 542.1789
1821.1002 548.6053
1811.0518 548.36584
1808.6467 555.81537
1806.5803 560.068
1810.3671 564.1595
1812.6495 559.42755
1816.0632 555.99805
1818.7622 559.91315
1815.781 563.69275
1814.8054 568.6498
1809.5952 569.0996
1804.8894 570.7267
1806.4304 574.43097
1810.8239 574.13525
1815.231 573.5438
1820.3667 574.32416
1821.414 569.7991
1819.3623 566.3578
1823.0928 563.6797
1827.3174 567.2323
1825.816 572.993
1831.9841 574.0543
1833.3243 570.55
1839.1368 571.67426
1837.5637 564.17773
1832.9644 565.6927
1829.1425 561.50964
1824.3208 559.2937
1822.4723 555.8
1824.4885 552.07104
1825.3558 546.92834
1828.6033 551.0817
1829.1946 555.7004
1833.7277 558.1365
1838.65 558.65814
1837.6221 553.13
1833.8772 550.939
1830.6749 546.8227
1836.4989 545.93335
1834.0198 537.7302
1833.9634 531.4134
1837.8735 534.06635
1841.7375 535.1892
1838.8489 541.19324
1847.2468 551.9637
1842.9797 554.8514
1845.104 558.7483
1843.5579 563.24634
1843.2095 568.2329
1849.953 559.616
1851.3995 554.71497
1854.4038 551.6435
1856.1532 556.5001
1857.1709 561.2912
1853.7141 564.92596
1848.9053 566.62225
1847.717 572.9443
1848.2815 588.5754
1854.699 572.2487
1859.8668 569.0382
1865.3387 566.34717
1865.1799 560.7552
1861.5132 557.5604
1859.3315 552.58325
1863.3176 551.2619
1869.2949 550.8837
1866.1873 553.4233
1867.3655 556.97266
1871.3342 556.4292
1871.5691 562.2482
1871.5354 568.0549
1870.2944 573.58325
1871.48 580.70435
1871.345 588.31915
1867.6046 593.31934
1864.0953 589.9972
1858.9084 590.8781
1854.5728 591.81537
1862.0339 593.9446
1866.9287 598.01587
1871.577 595.56464
1871.2908 601.928
1867.5284 602.49945
1871.3972 610.32056
1867.771 621.46216
1869.3113 644.2093
1849.7068 633.0216
1850.1371 642.5596
1850.5105 650.47235
1847.1863 655.26776
1848.3181 657.5029
1843.0896 658.6258
1842.883 663.18536
1839.254 662.1703
1836.758 659.6888
1832.3636 672.94617
1822.6409 669.5139
1819.7175 661.21094
1817.0303 664.6734
1812.6681 665.14386
1815.96 669.5878
1811.4436 670.99866
1810.5172 675.22974
1806.8115 679.4479
1811.3223 680.0605
1814.767 676.7257
1817.755 673.76984
1821.311 676.3148
1819.2251 680.6804
1815.0554 684.0078
1821.385 692.7546
1826.3993 695.08057
1819.8451 705.1305
1819.9458 699.2763
1815.0392 692.63617
1809.8346 685.0414
1804.0029 685.9335
1798.263 684.523
1793.338 686.56366
1787.813 688.50183
1790.8613 694.67426
1796.2263 693.48865
1802.1234 692.88824
1808.1256 691.94586
1807.8403 700.077
1801.4924 701.51935
1795.352 702.88727
1797.5203 717.339
1789.8469 715.32776
1778.676 716.1283
1773.5769 717.4488
1774.0604 710.6504
1775.6387 704.1674
1779.5632 706.6247
1785.135 704.7315
1785.9954 699.66565
1784.7831 693.01874
1777.6156 693.10223
1782.1478 696.4786
1780.9558 701.5847
1777.5592 698.5017
1773.611 697.93475
1769.7356 699.00714
1771.0101 703.4448
1768.6427 707.2404
1766.1213 711.0502
1769.0713 714.6212
1768.5115 718.75745
1763.5864 718.32556
1757.3976 719.06866
1751.2017 719.4939
1746.8691 719.6618
1741.3234 718.3038
1743.8787 711.8887
1748.3627 714.8076
1753.2078 715.93335
1758.2865 714.3083
1762.5734 714.8133
1760.6289 710.02496
1761.9728 705.93115
1757.1067 702.10504
1764.3921 702.67035
1765.3999 698.7944
1759.8033 698.0916
1762.1997 694.19696
1762.0837 689.1465
1765.8647 690.76965
1767.7389 694.7516
1772.1748 692.98083
1770.1846 688.84607
1764.4288 684.36633
1762.0625 681.73566
1767.6106 685.6899
1775.2261 688.3638
1772.3369 683.6622
1774.5663 679.3371
1771.4556 671.2455
1766.2721 672.3872
1770.4001 675.9074
1768.0101 680.1005
1763.528 678.00104
1762.3105 673.55505
1758.1438 675.471
1758.4482 680.37836
1754.6099 680.7605
1753.9598 676.44904
1750.0112 674.67883
1745.0146 673.7071
1742.187 670.3282
1738.7825 666.9353
1736.663 671.837
1733.476 667.23303
1730.739 671.65625
1727.137 666.91705
1722.4486 668.8539
1725.7526 673.1284
1728.3618 676.7181
1726.8564 682.097
1728.1401 686.03864
1728.3816 689.79236
1729.1125 693.3562
1726.3235 695.40485
1727.9364 698.81805
1734.9192 700.2626
1738.9429 701.6884
1743.2416 699.4767
1736.771 695.1993
1741.1403 692.24536
1736.2202 688.5329
1736.974 682.4612
1732.1334 681.72406
1734.7247 676.3043
1739.8821 675.9159
1745.3856 678.2276
1741.3341 680.5197
1742.4486 685.2779
1745.7803 689.2229
1747.4852 695.30664
1751.3219 691.368
1750.3274 686.6198
1748.4409 680.95465
1751.7184 682.8926
1755.5222 685.43616
1759.9916 685.1999
1757.4489 688.8557
1756.6996 692.6236
1753.8967 696.7171
1750.0317 700.5422
1752.4194 704.9847
1756.1709 707.47095
1754.8191 711.82416
1750.2781 710.39594
1747.3594 705.91724
1741.7505 706.6165
1736.061 706.769
1738.234 712.13995
1734.5503 715.9208
1726.1343 719.1191
1728.402 715.29736
1727.5057 710.62476
1727.4413 706.45966
1728.945 702.7821
1725.3873 702.2426
1722.7417 699.7745
1723.1953 696.51843
1721.4991 693.1916
1724.43 690.91034
1723.7106 686.6387
1722.2964 682.838
1718.9408 680.1605
1724.0048 678.2413
1720.1028 676.6864
1720.2886 672.79926
1716.3923 668.51447
1720.3518 664.1301
1725.522 660.99634
1730.4712 662.18646
1735.5552 661.986
1740.7855 661.5681
1744.2408 665.3587
1746.5659 660.98706
1751.1539 664.78284
1747.8011 669.10065
1753.3217 670.13525
1758.7693 670.2135
1757.2766 665.1322
1762.8782 666.03845
1767.447 667.17505
1771.2549 665.3088
1773.8031 668.0405
1777.4626 669.77484
1776.1167 674.4011
1781.9227 671.0335
1781.2615 674.9133
1779.965 679.5797
1778.408 684.39526
1781.4695 688.9463
1784.4832 683.8423
1789.1487 680.86487
1793.6453 679.37024
1797.0549 675.96967
1802.0985 680.8185
1802.1891 676.3295
1800.3624 672.2193
1798.7971 668.59143
1795.4321 666.441
1791.0327 665.5719
1792.2509 672.63605
1785.2612 677.8332
1787.075 673.4297
1786.9169 668.88275
1785.7994 664.59454
1782.0964 667.2305
1779.1663 664.92596
1775.751 664.4922
1773.5652 661.37897
1777.4432 660.0365
1782.5243 661.92645
1781.7903 657.7714
1783.8868 654.778
1777.3666 655.3307
1774.927 651.7806
1771.704 649.5285
1771.5217 645.30066
1773.8628 640.9449
1776.5146 645.7731
1779.5271 650.6138
1783.9159 648.6614
1786.4574 651.96533
1789.552 648.12787
1795.0442 651.57776
1790.6316 652.8246
1790.3126 656.8997
1787.9504 660.53687
1795.2653 659.67865
1801.6368 658.64905
1801.1255 663.30634
1803.5098 667.1348
1805.2375 669.91187
1805.8948 674.57764
1807.8164 671.6985
1808.8516 667.21606
1807.1814 663.27435
1809.5938 659.75275
1806.3022 656.21277
1807.9734 652.26794
1799.3934 653.8415
1802.5964 649.6216
1799.8999 645.3655
1794.7327 646.3925
1792.5507 642.17053
1789.4507 643.8023
1785.4028 643.87854
1780.9252 645.2489
1781.1783 640.82153
1778.1958 637.59436
1773.1222 635.98596
1769.5303 631.64294
1770.1224 626.624
1770.3467 621.0727
1771.4247 614.7615
1775.5281 618.27136
1781.2664 619.2741
1781.196 625.4231
1776.0845 623.2244
1775.5186 627.92224
1776.7703 631.8964
1782.1554 632.162
1785.2532 627.56555
1787.5945 631.34424
1784.0311 636.2988
1787.3402 639.31067
1789.8524 634.9222
1792.52 630.8806
1797.5918 631.9945
1799.416 629.03735
1805.3977 629.8388
1806.962 634.4029
1801.8534 634.6725
1795.6167 635.3435
1792.7369 638.1665
1796.4218 641.10345
1799.7626 639.084
1804.1558 640.2088
1806.5406 643.7408
1807.6394 647.8386
1813.4352 648.2888
1813.5964 653.3326
1814.3835 658.87085
1819.011 655.3736
1824.0542 659.0339
1829.1824 660.35034
1827.8845 656.057
1823.8129 652.53784
1819.2885 649.2293
1819.7448 642.78546
1824.85 640.3543
1824.9657 634.2462
1821.8954 626.8983
1825.4001 626.75653
1825.3062 622.5413
1818.8467 608.0955
1811.5354 602.35803
1813.9874 597.0516
1811.3981 593.76263
1806.585 595.14484
1809.1067 598.80743
1804.0659 600.63293
1800.9241 596.3658
1797.6788 601.0126
1800.0895 605.70416
1806.013 605.85187
1803.6036 611.1339
1796.7677 609.6207
1796.6587 614.81604
1791.8905 617.89636
1800.9847 616.53864
1806.3435 618.9569
1810.7264 620.002
1813.2925 621.3453
1816.8906 620.8758
1813.2611 626.6929
1816.9607 629.307
1819.583 632.73553
1818.5 637.1592
1814.4781 640.5822
1811.9303 644.2718
1809.9061 638.673
1812.6802 633.6447
1807.7412 623.6673
1803.7244 620.8867
1802.4237 624.1547
1797.7157 624.8326
1798.6936 620.6102
1793.8964 621.8176
1794.7225 627.30835
1790.2765 625.9299
1787.0142 622.03455
1786.4517 616.55945
1783.1166 612.76
1777.8652 613.57446
1774.4194 609.43195
1780.6747 608.0092
1778.5015 604.3736
1778.8888 599.8508
1780.9395 595.2577
1783.5449 599.82214
1785.8926 603.8084
1786.9408 608.9535
1791.0543 612.45013
1792.3826 606.0822
1791.8376 600.9999
1786.9888 597.2197
1790.9685 595.8984
1795.4636 595.3724
1799.21 591.439
1804.0073 592.23267
1804.8274 588.67285
1809.3004 590.05194
1814.6427 590.29315
1819.713 590.30554
1823.4546 589.55273
1826.0232 591.69855
1818.1704 593.77454
1817.9717 597.9263
1823.2362 596.05145
1829.4863 594.9321
1830.8173 590.07465
1835.1702 591.64844
1839.4302 593.1224
1841.6417 589.3617
1845.2498 593.29156
1850.4937 594.9538
1849.2158 601.29614
1849.77 613.2083
1849.6201 622.45905
" />
</g></g></svg>
