<?xml version="1.0" encoding="UTF-8" standalone="no"?>
<!-- Created for Inkscape (http://www.inkscape.org/) -->

<svg
   xmlns:dc="http://purl.org/dc/elements/1.1/"
   xmlns:cc="http://creativecommons.org/ns#"
   xmlns:rdf="http://www.w3.org/1999/02/22-rdf-syntax-ns#"
   xmlns:svg="http://www.w3.org/2000/svg"
   xmlns="http://www.w3.org/2000/svg"
   xmlns:sodipodi="http://sodipodi.sourceforge.net/DTD/sodipodi-0.dtd"
   xmlns:inkscape="http://www.inkscape.org/namespaces/inkscape"
   width="3200"
   height="800"
   id="svg2985"
   version="1.1"
   inkscape:version="0.48.1 r9760">
  <defs
     id="defs2987" />
  <sodipodi:namedview
     id="base"
     pagecolor="#ffffff"
     bordercolor="#666666"
     borderopacity="1.0"
     inkscape:pageopacity="0.0"
     inkscape:pageshadow="2"
     inkscape:zoom="0.35"
     inkscape:cx="1600"
     inkscape:cy="400"
     inkscape:document-units="px"
     inkscape:current-layer="layer1"
     showgrid="false"  />
  <metadata
     id="metadata2990">
    <rdf:RDF>
      <cc:Work
         rdf:about="">
        <dc:format>image/svg+xml</dc:format>
        <dc:type
           rdf:resource="http://purl.org/dc/dcmitype/StillImage" />
        <dc:title />
      </cc:Work>
    </rdf:RDF>
  </metadata>
  <g
     inkscape:label="Layer 1"
     inkscape:groupmode="layer"
     id="layer1"> 
     <g>
<path style="fill:none;stroke:black;stroke-width:2px;stroke-linejoin:round;stroke-linecap:round;" d="M 
1525.7848 286.87762
1529.8105 286.45557
1534.4547 282.86078
1540.4603 282.4396
1552.1603 282.70544
1547.092 285.0473
1544.8424 298.55405
1543.9166 309.5454
1539.5499 312.77203
1535.2014 311.59857
1530.1215 310.90475
1532.4275 305.07236
1538.6304 305.78113
1536.255 299.13458
1536.1484 292.971
1542.4469 291.79675
1539.7363 287.6342
1534.9937 288.02472
1531.3506 290.83786
1529.2778 295.60678
1526.4807 291.49814
1522.5731 294.96362
1519.2378 299.14688
1523.9001 301.6042
1520.124 305.612
1525.2955 308.1364
1528.0283 315.7926
1525.0782 314.45993
1522.6788 311.89117
1519.3108 311.01996
1515.8999 309.49
1512.2123 309.47067
1512.7222 315.0541
1509.9292 312.9187
1506.3015 314.1276
1507.489 308.29678
1506.6171 304.71405
1511.0515 304.88647
1515.4113 303.05878
1511.8616 299.9625
1515.2717 296.7665
1517.1942 292.74002
1521.8597 289.82315
1521.243 285.0078
1517.7959 288.02048
1512.9187 290.16977
1510.7893 295.2003
1508.0604 291.13593
1502.5623 290.1952
1504.4409 293.54742
1506.8856 296.59335
1507.6897 300.7523
1503.3944 302.85193
1502.0297 306.46365
1497.6244 311.3588
1494.9133 305.36343
1499.684 300.45892
1503.4508 298.5364
1500.0912 295.0787
1495.7529 297.38217
1490.6544 298.1811
1487.2938 302.52792
1478.7183 304.38318
1481.6888 300.78214
1485.3793 296.4595
1480.456 295.26367
1476.6418 300.0595
1472.8308 298.5337
1468.9067 296.1316
1472.126 294.28864
1475.9817 295.03513
1477.3734 290.8885
1481.5869 290.0236
1480.3286 286.42337
1483.2322 283.19666
1485.5664 287.38962
1484.8134 291.71042
1488.8099 291.60703
1492.4662 293.36118
1496.5865 291.8148
1495.7826 287.5999
1491.7466 287.7944
1488.1373 284.57687
1491.4235 279.23108
1492.546 283.26498
1499.9673 287.65616
1497.2079 283.4008
1505.9248 271.80847
1492.0153 272.5932
1486.1641 270.2371
1483.6968 275.33862
1479.6556 278.17136
1474.6454 275.66547
1474.3328 280.70163
1478.2715 282.8269
1476.1105 286.7733
1472.1835 285.84924
1472.0015 290.15222
1467.5721 291.74658
1465.1945 295.1904
1462.5322 294.98407
1465.6008 286.0311
1469.0739 281.03937
1464.0468 276.4322
1460.0815 280.19186
1454.2986 282.31876
1450.0804 287.9522
1454.9126 289.38446
1460.5477 288.9662
1460.5719 292.1249
1456.8516 293.70508
1453.6422 294.83847
1450.822 292.3794
1446.8534 292.43637
1444.613 289.64914
1441.9452 292.05316
1443.7347 295.22815
1441.1102 298.24908
1438.3829 295.11243
1434.2532 297.3674
1437.2493 300.4173
1433.1904 302.67566
1430.1475 306.2682
1433.218 309.3387
1437.5331 310.3802
1438.2456 315.50977
1432.4329 315.40863
1435.8281 319.4167
1436.085 323.60864
1432.265 324.384
1430.3146 329.6654
1429.0308 336.12518
1432.4377 333.5457
1436.353 334.1533
1438.4856 331.39655
1434.4711 329.12057
1438.4207 326.80637
1441.0745 322.97913
1441.4955 329.15402
1441.0112 335.45914
1443.5891 332.5324
1447.1123 333.96707
1449.583 337.4564
1448.9167 342.5323
1452.9761 340.284
1457.1046 342.81198
1461.2794 341.33978
1465.7362 340.4079
1465.0693 344.5346
1466.112 349.24014
1462.5885 347.06412
1460.9758 350.97168
1459.2617 346.96832
1455.6715 347.63644
1452.4043 346.16974
1444.9423 344.0191
1444.2932 338.74088
1438.589 337.9173
1433.8473 337.85907
1431.8273 341.39017
1437.6814 341.23358
1440.8881 343.7547
1437.7839 347.99286
1443.1425 349.36572
1448.3389 348.32468
1446.5538 353.75458
1451.9188 358.47598
1452.4651 353.2199
1456.3953 351.5676
1458.5675 354.9931
1456.5095 357.98093
1455.3207 362.41382
1458.3743 364.80237
1461.814 367.44467
1463.2559 370.8035
1465.8132 374.45114
1469.8538 372.36368
1471.9667 368.6789
1473.0908 375.29636
1477.0146 377.87244
1469.492 378.38666
1473.3507 382.02863
1479.7284 383.21085
1476.3986 387.2926
1479.8276 391.54935
1483.3713 387.8909
1488.2451 387.33868
1485.4415 382.33905
1490.6746 381.4793
1487.4652 377.1854
1482.204 378.7092
1481.7676 374.18057
1476.9341 372.40073
1480.1381 368.59106
1483.9948 368.03662
1485.7476 372.1591
1489.3221 368.62796
1490.5802 373.59073
1494.6152 371.24118
1498.797 373.9515
1494.108 376.92828
1497.8835 379.3463
1501.6587 377.62906
1507.4651 380.94446
1505.1613 384.37125
1509.748 385.09607
1514.4698 382.8975
1516.702 387.3733
1512.8416 388.11523
1508.4457 389.6097
1504.086 387.8923
1503.3926 391.584
1507.2146 393.44116
1505.5378 397.5181
1501.0891 395.80484
1498.5115 391.15057
1499.3429 386.53918
1501.4406 382.33606
1495.4462 383.02344
1493.0426 387.2784
1492.8472 393.00607
1487.8638 393.57904
1484.0137 396.20645
1490.6001 400.29678
1495.949 397.2993
1500.5521 401.22278
1496.5159 403.7464
1497.7246 408.26187
1502.8943 408.0127
1503.3584 412.50134
1507.8732 410.76804
1507.8289 416.2309
1511.1927 414.69498
1512.7283 418.55933
1518.2571 422.0173
1521.1702 418.97696
1526.1067 417.73102
1523.9723 413.34143
1525.8103 408.51007
1529.4849 406.45837
1533.2119 408.5112
1533.8591 412.8074
1528.7582 412.64038
1531.243 417.45743
1527.9202 421.64575
1532.1606 423.3221
1536.8407 426.17374
1532.418 428.97302
1526.9812 427.06122
1521.2921 426.81375
1523.3433 432.15192
1528.5289 432.29053
1532.9558 435.4725
1536.4735 432.48587
1541.329 430.13412
1540.46 436.1831
1539.0239 441.338
1533.6962 440.28806
1528.7037 437.91135
1524.3651 438.247
1526.939 443.8436
1531.6932 445.9117
1531.596 451.37186
1526.5121 450.34924
1528.9419 456.11197
1531.2769 460.28757
1526.271 461.083
1530.2064 465.08133
1529.2643 469.89893
1533.522 468.4742
1535.2811 464.92236
1539.1464 464.89346
1540.072 459.14932
1535.4517 460.2902
1535.8141 455.16638
1541.613 453.0128
1537.3928 450.1488
1537.0176 445.74292
1543.0165 445.92978
1545.2764 439.55273
1547.0708 433.433
1542.3191 423.58582
1538.0898 421.08282
1536.4403 417.10132
1542.9503 416.7068
1538.9976 411.52588
1544.3157 410.64603
1545.6663 405.3652
1547.8906 400.17587
1544.9304 396.47662
1542.246 400.75864
1539.871 396.05035
1536.5242 399.4851
1540.6455 405.45972
1536.5072 405.5686
1532.9629 402.32294
1529.7145 398.22183
1531.9132 395.15616
1535.576 393.40765
1537.7683 389.2694
1534.5634 386.53827
1531.6659 383.61383
1533.0347 379.6859
1537.3942 379.1852
1538.1667 384.15836
1540.8164 381.03162
1543.6342 382.76855
1542.8589 387.1265
1541.7968 391.72415
1547.1752 392.98486
1547.2372 388.4854
1547.0222 384.06238
1545.465 379.23508
1541.2603 376.8874
1544.6108 374.04272
1540.8412 372.02728
1537.5239 373.9322
1534.6484 375.74588
1527.9144 379.5076
1522.904 379.3167
1526.3292 384.92392
1531.344 389.2199
1527.9419 390.6989
1526.6212 394.62723
1524.5464 398.23566
1528.8534 401.69498
1525.6602 403.10828
1522.2705 403.47012
1521.3047 406.81616
1521.4263 409.96173
1518.7587 412.92078
1516.8141 416.37866
1514.0732 412.1079
1516.503 408.1754
1513.0841 403.27966
1511.0314 407.25714
1505.7286 404.45828
1508.3038 400.4335
1510.1293 395.26926
1511.7136 398.8106
1515.7893 400.24487
1517.7952 403.93405
1520.5974 400.06082
1517.8264 397.0358
1514.147 396.13977
1512.4122 392.007
1516.1747 392.732
1519.6422 391.71255
1521.4587 395.18207
1524.0267 390.2627
1521.0685 387.52808
1520.2683 383.16498
1516.8795 377.94617
1511.7335 378.82565
1512.6646 373.66058
1508.2822 375.02615
1505.1638 377.33887
1503.5513 372.39893
1498.9382 368.76636
1498.8549 363.7968
1493.9296 366.5028
1492.1455 362.655
1495.338 358.6535
1498.9475 358.8443
1502.5236 359.5679
1506.1409 358.96423
1504.7921 363.65662
1503.4778 367.43958
1507.8386 369.79794
1508.7925 362.92566
1512.3196 368.00226
1516.681 370.89648
1521.5149 364.65332
1525.0452 368.06705
1521.2606 370.03027
1520.5057 374.74548
1525.5311 374.31494
1528.4781 371.00955
1530.7738 374.84283
1532.9674 369.9659
1536.64 370.07797
1537.5707 366.47968
1536.2183 363.1849
1532.3588 364.6441
1529.6572 367.12964
1526.8564 363.69205
1528.64 359.32098
1525.1355 353.4251
1528.828 348.0243
1533.2274 348.087
1529.9146 354.15637
1534.1921 355.14035
1532.7305 360.19568
1536.3235 358.98123
1539.884 356.58652
1544.1888 360.45135
1552.338 355.22638
1547.1086 364.75308
1540.9786 363.04776
1541.8336 367.6308
1545.443 369.922
1549.6318 368.73416
1558.2256 373.96082
1564.4718 378.69363
1571.871 376.53757
1576.4825 366.01123
1579.5754 375.1215
1585.0098 375.0931
1586.3861 366.064
1591.6616 373.9672
1597.287 376.51138
1599.6958 372.86768
1604.6016 374.6882
1609.9426 374.62463
1615.1642 376.102
1618.2997 372.373
1620.9537 376.5807
1623.6233 372.47275
1621.6449 368.48642
1625.8027 368.02313
1628.0886 361.21085
1624.4199 358.72372
1624.1553 363.99545
1620.6134 361.47717
1618.9354 357.02008
1615.252 360.72858
1618.4558 365.2355
1612.7534 364.10916
1606.9204 364.96094
1598.197 363.66187
1606.3813 359.61395
1610.8564 351.96426
1601.1462 349.19757
1609.2733 340.9911
1605.9976 337.15714
1602.2233 338.77457
1604.7291 332.67285
1608.3761 329.68634
1612.3289 329.32053
1612.3982 324.3118
1612.1136 318.8511
1608.7495 314.50095
1610.4543 308.43643
1606.7524 304.47803
1597.6455 305.78555
1603.8966 311.53873
1604.2991 318.23486
1608.2583 320.398
1606.1794 325.44775
1602.4076 328.00708
1590.9745 330.49518
1575.9459 337.3201
1552.3226 322.06644
1544.7094 322.51944
1546.5479 326.0211
1542.7421 328.65665
1535.7292 328.44464
1531.1102 328.2711
1527.7345 328.23514
1523.9711 328.73447
1520.5608 329.79593
1516.3661 331.7482
1513.4358 329.4724
1509.4858 328.484
1508.1837 332.3903
1509.5315 338.0529
1512.607 334.43253
1519.9763 333.94293
1523.9258 336.13885
1527.0436 332.90973
1529.8611 339.90125
1523.2465 341.38885
1517.2753 337.2349
1518.2676 341.81976
1522.2697 347.4666
1517.5194 352.51184
1512.3008 353.7777
1508.9528 347.98984
1506.8523 351.1127
1506.3126 354.51993
1501.7097 354.95535
1501.3341 350.92474
1503.7266 347.61395
1506.2162 342.9791
1501.5273 343.37628
1496.8815 342.7592
1499.6333 338.1008
1504.0526 334.39752
1500.1398 333.44882
1495.7463 333.9719
1495.4193 338.43573
1491.3601 337.27545
1492.3323 341.43497
1488.6326 342.42816
1485.0245 344.58356
1485.9832 348.38977
1482.6156 353.1091
1483.3679 358.4262
1486.5211 355.73392
1488.0951 352.12982
1491.5757 349.26334
1492.6968 345.74292
1497.9493 347.3849
1496.9392 352.5104
1492.9625 353.8985
1490.6509 357.7122
1487.346 360.83777
1486.9572 364.9038
1482.568 363.53262
1479.6558 361.0922
1476.5074 363.78445
1475.7198 367.75827
1471.1184 364.42767
1467.3961 368.54083
1465.7043 365.18524
1467.8177 361.25046
1463.8058 361.82233
1460.064 360.5585
1463.1959 357.6763
1462.7858 353.89978
1466.1023 353.58527
1468.0804 357.18347
1469.6216 352.4925
1472.3516 355.25735
1472.0131 360.26328
1475.6093 358.98856
1479.2976 356.67523
1476.1982 353.7514
1479.5746 350.52557
1481.1971 347.06467
1478.3097 344.64883
1477.7511 340.61655
1474.0574 344.9509
1475.4407 349.2331
1471.1742 349.09528
1469.3424 344.9724
1470.2314 340.11194
1474.0002 340.45166
1471.2795 334.89667
1466.4384 335.87793
1462.2428 334.99527
1459.0344 332.81467
1456.7568 337.27744
1452.3966 332.638
1453.2649 324.43304
1450.5427 326.88315
1448.4905 330.06598
1444.7677 326.94522
1446.6615 322.57938
1441.7407 318.74414
1445.2944 317.0959
1449.8356 319.44446
1454.0134 319.71686
1457.3745 322.59482
1460.3684 319.71777
1464.046 320.38672
1466.7986 330.43103
1471.9397 329.315
1467.7288 323.0962
1470.1362 319.98746
1466.358 318.11948
1464.8551 314.4914
1461.2229 315.81348
1457.6846 317.0489
1455.2771 315.05182
1452.1284 315.37607
1448.2222 315.0689
1450.0304 312.1076
1446.0432 311.043
1442.1727 312.81445
1442.6322 307.48373
1437.6211 305.8426
1443.6743 303.45575
1445.1405 299.08252
1447.6908 296.52927
1450.8451 297.36725
1453.686 300.10992
1456.7227 297.89154
1459.6627 295.83676
1460.4324 298.9963
1463.1635 299.55493
1466.6277 298.5541
1465.5525 301.46887
1462.623 303.84796
1458.6498 302.08038
1458.3411 305.45822
1455.2809 307.6946
1453.362 304.16608
1449.326 302.30478
1447.7393 306.30444
1450.8092 308.49335
1453.7302 311.21603
1457.5259 311.7105
1461.6608 312.2051
1460.2693 308.89474
1463.3875 307.33298
1465.8716 310.0546
1469.1097 311.22775
1469.992 306.612
1466.9956 306.57147
1467.0981 303.77023
1469.2653 300.75583
1471.8668 302.7296
1474.2722 305.09637
1472.9392 309.10516
1481.823 312.68866
1485.3893 325.9182
1480.1621 327.4378
1476.1085 331.77527
1476.1312 336.74835
1479.3881 333.96738
1483.1057 331.46768
1483.2539 335.06848
1481.214 338.05838
1481.4475 341.98865
1485.0371 340.2251
1486.798 336.8616
1488.187 332.63385
1493.0248 327.7817
1497.4299 325.3116
1498.662 329.72147
1503.1929 327.90494
1506.9478 324.5704
1508.1643 318.76328
1512.482 318.90985
1510.2769 322.73892
1512.7513 325.43912
1516.9777 326.88065
1517.8391 323.29465
1514.7926 321.45428
1518.7146 319.45132
1516.6049 315.12515
1521.0596 316.117
1523.8579 319.9429
1521.5044 324.4606
1526.1907 324.03177
1531.0981 324.05194
1534.1002 321.15378
1529.0634 319.97467
1532.3577 315.91156
1536.7274 317.36465
1539.1691 323.0055
1540.9219 318.32437
1544.3026 314.1289
1545.186 318.16574
1549.1597 318.80103
1548.7715 313.92508
1551.3917 310.18146
1560.1279 306.1751
1577.7283 304.74527
1577.7861 314.2289
1586.9333 311.52054
1588.3088 305.08856
1584.3763 275.1757
1579.5865 267.3919
1587.4977 264.47958
1593.86 272.3202
1606.6608 261.11148
1612.1056 266.47937
1613.3933 274.48248
1619.1902 271.30917
1624.3489 279.84744
1619.9891 287.14377
1629.7184 295.14438
1632.905 289.94077
1626.9658 287.05954
1633.3112 281.4285
1638.3389 285.6526
1643.9192 283.93942
1649.534 287.59735
1650.6239 292.87894
1646.3491 296.54434
1644.5038 290.22687
1639.3475 293.1178
1640.6902 299.9495
1634.3595 302.54462
1628.728 301.92014
1623.9504 298.98297
1625.4895 305.41318
1631.2007 307.31708
1634.8837 309.12827
1639.3949 307.22992
1638.2703 311.79388
1636.2518 315.19855
1633.6372 317.9633
1629.5432 318.57523
1630.2935 313.60175
1627.5825 309.49048
1624.4164 312.7868
1619.7515 309.5288
1615.5625 311.34543
1622.7035 318.60184
1627.3741 322.17966
1631.8779 323.46976
1637.2682 321.55817
1641.9423 321.89124
1646.564 320.39996
1645.1862 315.9251
1640.827 317.13498
1642.4087 312.3453
1645.1667 308.66953
1647.5652 312.08282
1652.0216 312.2696
1649.1873 316.2893
1652.674 316.33676
1655.501 317.50995
1655.8516 312.49573
1659.199 311.81357
1658.7634 315.69705
1658.3462 319.3909
1661.7582 318.8546
1663.9431 321.54443
1662.4026 324.37674
1660.0673 322.5171
1656.0431 322.51727
1651.7037 320.49554
1650.7091 324.7437
1645.8021 325.75793
1648.8367 330.37952
1654.749 326.1928
1653.8962 329.9971
1650.5648 335.79688
1654.5425 333.93323
1658.0557 336.7908
1660.5825 339.78925
1658.977 332.52182
1658.1554 329.09647
1659.633 326.2319
1662.5288 329.58652
1663.8064 327.06323
1666.5101 328.63687
1667.0261 331.4343
1670.7764 330.98163
1669.8466 327.92316
1674.2875 328.95496
1672.2855 325.86414
1675.0914 324.4021
1679.1863 329.05002
1678.6552 325.5872
1678.3958 321.1249
1674.6661 320.47256
1671.7078 321.76343
1669.6099 323.73566
1667.4996 325.6609
1665.2162 324.35336
1667.2979 321.73785
1668.945 318.8623
1665.2341 318.68552
1665.8223 315.546
1662.3217 315.02716
1662.6918 311.13965
1660.3473 307.671
1661.0424 302.4968
1657.0507 304.07214
1655.1965 308.03024
1650.2563 307.87555
1643.1865 304.79846
1647.0405 303.169
1651.956 302.53152
1655.5289 299.31592
1654.6721 295.61765
1656.2767 291.55475
1654.719 288.3434
1653.8914 284.32703
1650.1292 282.68933
1654.5919 279.83298
1656.5015 269.55786
1662.9272 275.64648
1666.9043 274.37732
1661.655 279.8746
1657.9976 281.37204
1657.9341 285.1725
1661.2576 286.0788
1662.2344 283.5116
1665.6445 282.59497
1665.948 278.70602
1669.8656 279.3361
1671.012 275.70706
1670.8552 271.72748
1676.3379 269.11816
1679.1033 272.67902
1675.013 274.34167
1673.776 279.0946
1676.5309 281.22995
1675.0051 284.889
1677.1091 289.06763
1678.1053 293.97433
1673.4203 294.12088
1668.8992 295.82968
1667.0432 299.14825
1668.5107 292.1744
1672.0581 288.936
1670.4469 283.16705
1667.9745 285.82068
1667.0237 289.099
1663.8379 287.9894
1659.9154 289.19376
1659.7808 293.8111
1664.0653 293.1123
1661.8523 297.79736
1665.5482 302.77933
1664.5725 307.02432
1668.2676 307.53125
1672.0042 308.7183
1675.2073 307.8913
1679.3472 307.8406
1677.929 311.80603
1673.3499 313.25668
1669.606 311.62222
1666.0754 311.6741
1669.5903 315.2622
1672.5529 317.58813
1676.3508 316.84503
1684.2863 312.4808
1688.7142 309.4
1683.353 305.13388
1675.6882 303.6295
1670.5197 304.11832
1671.8408 299.9801
1675.6677 298.62308
1679.3556 299.17252
1682.9705 297.8701
1682.5543 293.6904
1681.7256 289.64786
1681.3705 285.5059
1680.661 281.65198
1678.8408 277.5924
1685.576 282.02307
1689.4247 284.06546
1686.213 286.7081
1686.05 290.73157
1690.9131 288.44638
1693.897 285.8003
1697.4047 285.0171
1698.55 281.68805
1695.022 281.3154
1692.1401 281.93872
1690.4889 279.2725
1687.7872 277.51895
1684.2986 277.91855
1682.7317 274.61533
1682.2688 269.06897
1686.633 270.49713
1689.2434 274.0937
1692.1598 271.6055
1695.7269 274.05917
1699.2762 273.93893
1693.1056 276.52197
1696.9573 278.1268
1700.5006 278.30792
1703.0658 281.39462
1704.111 277.5588
1705.8843 274.69183
1710.7288 278.00507
1707.1428 280.41782
1711.0742 282.771
1715.0865 282.22586
1719.6761 283.8501
1717.9484 287.14874
1716.1339 291.1353
1712.8096 292.63498
1714.8518 295.81555
1718.6736 296.63876
1720.769 293.84378
1720.1896 290.60593
1722.8759 288.3356
1724.7285 285.52267
1727.8817 289.002
1725.5287 292.64703
1723.8231 297.70166
1719.1555 300.65598
1713.5193 299.61722
1709.4482 302.87238
1709.5232 298.83218
1710.0944 294.8195
1706.1984 293.4052
1702.8461 295.5463
1706.5427 297.05698
1703.9249 300.06528
1699.5793 297.7348
1695.8706 295.1409
1699.4545 292.51202
1702.9185 291.15988
1705.3093 288.36078
1707.7855 290.65372
1710.8679 289.8754
1713.5416 287.0215
1708.9586 286.46265
1706.0953 284.16193
1701.2101 284.06052
1702.4875 286.91803
1698.9629 288.24185
1695.5428 290.09763
1692.6667 292.96014
1689.244 292.52686
1686.6675 295.79144
1691.1289 297.4932
1687.0725 301.00476
1691.6768 302.4345
1695.8041 300.21954
1699.9061 303.2796
1696.7222 309.12875
1703.0466 308.26727
1705.0276 304.12482
1708.3962 308.03204
1712.8007 306.69913
1711.6658 311.89096
1715.5269 319.45416
1719.3083 317.29532
1717.6255 313.13083
1716.2948 309.3434
1715.0745 303.3177
1719.3116 305.47827
1722.3466 308.66818
1722.409 314.21005
1723.2549 319.3508
1720.3368 321.65714
1717.1923 324.04025
1718.1427 327.61957
1722.0099 329.25266
1722.6743 324.8547
1726.2567 323.2846
1726.4247 318.80585
1729.8508 317.78857
1727.5431 314.7997
1725.6923 311.53174
1724.0906 303.35175
1727.763 301.0205
1731.662 298.35297
1728.7402 295.5983
1731.9631 292.0834
1736.8646 298.35364
1736.9302 303.4921
1732.5521 302.26874
1731.7631 306.24344
1727.4291 307.27716
1730.5027 311.14426
1734.8083 309.92477
1738.37 309.984
1740.1553 307.2437
1742.4412 304.77084
1744.7471 309.98193
1742.6416 312.89557
1738.5919 314.82022
1733.4437 314.36475
1733.5244 317.91092
1730.1234 322.21094
1728.926 326.1884
1732.7448 326.1481
1734.813 329.39737
1737.6902 331.26022
1740.5916 327.32477
1736.9983 326.5869
1736.2397 323.2626
1733.5718 321.33795
1737.8318 318.77054
1740.2897 321.96014
1743.7428 323.75742
1743.7249 318.42166
1747.4377 315.87866
1749.3243 321.15466
1746.4729 326.34732
1744.1907 329.8343
1741.2092 331.51987
1738.8376 334.42584
1740.3182 336.77145
1735.9723 335.1894
1736.1973 338.41443
1734.28 341.892
1732.4403 339.59744
1732.1511 336.89972
1733.3915 335.01544
1733.6724 332.11346
1730.4805 333.2962
1730.1035 329.84964
1725.8049 328.3514
1725.7327 332.33066
1728.3948 335.3251
1729.3599 338.4862
1726.8295 340.94785
1730.1248 343.15482
1725.9655 347.09097
1721.2543 350.5761
1718.103 355.92673
1715.0266 352.80765
1711.4583 358.58072
1710.4343 354.89963
1708.9781 350.86444
1712.8601 348.87097
1712.4993 345.01837
1716.2529 342.0991
1718.9563 346.3881
1722.4926 341.47397
1725.0995 336.81927
1721.4573 335.44302
1718.4117 332.3306
1714.0457 329.4212
1709.2881 326.8901
1712.9473 323.64578
1709.2344 321.27673
1706.6716 317.31436
1703.6201 323.50348
1700.427 320.7304
1697.4185 326.24005
1701.2876 327.44302
1704.5931 330.2862
1709.476 331.80185
1712.54 338.7568
1707.8464 341.7579
1705.1162 346.37897
1707.3734 336.9976
1703.2832 335.50833
1699.7244 337.14322
1696.6528 334.17584
1698.9766 331.08664
1692.7214 331.82153
1692.4415 327.10474
1695.3806 313.92184
1690.7539 316.5749
1682.9811 321.49435
1683.8317 326.00195
1685.4275 333.8135
1684.0968 341.62048
1682.2064 346.25787
1688.5571 346.2177
1692.8853 349.46365
1697.1342 352.06415
1700.5414 355.2406
1704.9106 357.3516
1702.6768 361.5105
1704.8403 364.9304
1701.7554 370.65762
1700.2168 377.30472
1694.501 375.6102
1699.9169 364.35364
1696.6299 359.81854
1693.491 355.6713
1688.7402 353.0886
1684.384 352.23242
1676.7305 348.99542
1678.2378 342.86835
1673.7681 343.70175
1669.8898 342.82782
1667.6553 339.90497
1671.8616 338.9049
1676.544 336.6814
1673.1489 334.69568
1669.4622 334.79208
1667.4382 336.9419
1665.5132 334.27118
1662.934 332.37927
1661.751 335.55515
1664.0197 337.93405
1663.9882 341.12115
1665.8103 343.36356
1667.8662 345.91617
1672.0178 348.36642
1668.0232 349.48795
1668.1481 353.52042
1673.9882 354.102
1668.5833 357.81714
1664.9744 359.2754
1661.2611 357.0964
1657.4753 356.39148
1657.4592 360.95267
1661.6259 361.1798
1665.2517 364.7392
1669.4442 362.66885
1674.1373 363.87704
1670.2104 367.20987
1666.0427 369.82852
1672.3217 371.4757
1675.8738 368.4373
1678.8812 371.88788
1681.2363 366.0646
1680.2153 360.35593
1685.4335 360.3461
1688.7373 357.80276
1691.872 361.78793
1693.4003 367.6651
1687.5638 367.67227
1690.0608 372.85822
1690.0146 378.25952
1694.2651 380.16663
1697.2758 382.84537
1693.5353 384.29483
1692.1482 387.43338
1689.4326 383.342
1686.1073 380.81674
1685.4507 376.70453
1681.9978 374.55753
1677.5941 376.9805
1675.9551 381.93964
1672.6823 378.60965
1671.2487 382.41705
1667.8529 379.5639
1671.9346 375.26932
1667.1532 374.71463
1662.6799 373.9833
1658.6659 373.48853
1663.0037 379.27982
1658.7092 378.81216
1657.1151 384.5464
1650.4532 384.42566
1653.1539 380.4904
1654.2825 376.22113
1652.0586 372.41974
1655.7112 371.26224
1657.3824 367.65256
1661.5664 368.87247
1660.2013 364.62137
1654.514 364.31073
1653.4039 360.2656
1653.0104 356.68018
1653.9703 352.77023
1654.6978 348.20483
1657.8896 352.21704
1660.1423 349.6696
1663.007 353.965
1664.1099 350.36472
1663.4885 346.73703
1661.4735 343.71097
1658.3137 346.1903
1657.3556 342.1407
1654.0347 339.05377
1652.9554 343.71735
1650.4058 349.4618
1649.5001 353.96255
1648.6691 358.51462
1644.5212 356.4854
1645.2024 352.31033
1640.1727 355.35132
1635.5264 355.30026
1633.1758 349.7954
1629.9102 345.74194
1619.8705 340.20868
1614.6082 333.39343
1610.1248 335.01938
1614.3286 339.9746
1615.4567 346.30304
1615.7318 353.22446
1619.4127 352.80847
1627.0317 352.65424
1630.3699 354.38736
1630.6224 358.1436
1632.5503 362.53528
1635.9508 359.71686
1640.1095 360.68436
1644.6414 361.10397
1642.141 365.4978
1646.6613 365.71948
1649.8324 363.03726
1652.5614 367.70618
1648.9524 369.61066
1644.8757 370.47546
1648.8455 375.16196
1646.5453 378.421
1645.3948 383.2938
1646.4344 388.7158
1642.1599 386.96786
1640.5466 390.47302
1637.4827 393.7846
1635.1453 390.06552
1637.0995 386.37106
1636.504 381.67532
1640.363 383.2153
1641.7488 379.28143
1639.3439 376.46582
1642.206 373.1624
1638.9417 367.93515
1636.5066 364.2823
1633.5583 368.19644
1630.0535 365.92902
1629.092 370.23114
1637.0764 371.26
1635.9604 374.9301
1631.9115 373.90155
1627.7756 374.98157
1621.0315 381.21503
1625.6088 379.4558
1633.2538 378.22556
1629.6139 381.71085
1630.788 386.57123
1629.149 390.7315
1627.3816 395.08624
1625.1722 385.65665
1622.9386 390.40817
1617.2406 391.91412
1616.4249 386.7434
1611.5055 390.34442
1610.2095 385.33557
1603.743 385.7605
1597.2994 386.63684
1592.3341 385.01816
1586.0494 386.06906
1580.1492 385.57938
1574.9089 388.1997
1570.3611 385.00375
1564.5662 385.1247
1557.7122 379.78647
1557.8098 386.8781
1558.2843 393.11053
1567.4885 391.29874
1572.6355 399.11362
1578.9741 396.74893
1578.1719 400.16968
1578.917 408.69867
1584.778 406.69046
1589.6265 408.37265
1585.3594 410.6435
1587.2886 416.01236
1590.8357 415.72223
1595.2445 416.27197
1593.0945 410.40555
1595.5251 407.96164
1598.3896 406.0245
1592.5809 405.0703
1588.4521 399.44818
1583.7412 398.30984
1588.2203 395.76154
1592.8733 396.64435
1595.3777 399.8255
1597.407 395.1533
1601.5435 398.8758
1603.7302 394.33823
1606.3772 398.80658
1608.3418 407.64636
1605.1244 408.40756
1601.7828 407.18237
1599.429 410.42743
1603.7075 411.6321
1609.8374 410.9406
1610.227 414.8322
1612.7645 420.73788
1606.5737 418.665
1600.1987 417.09152
1595.0154 421.02896
1589.8689 424.40112
1584.9412 423.8765
1584.9443 418.23468
1579.9155 416.22888
1579.0891 423.59232
1576.3192 427.96063
1571.6755 425.7387
1571.6366 431.83148
1577.6104 435.09665
1584.0825 432.1918
1585.0996 436.6997
1590.4402 432.7725
1590.2136 437.87006
1591.5005 442.3279
1596.0878 443.1505
1600.3928 446.8636
1601.7954 443.21613
1603.4321 439.37378
1602.082 434.22064
1598.4365 438.90393
1596.4153 434.2104
1599.1167 429.39517
1593.896 429.35968
1595.7373 424.67654
1600.0131 424.65198
1602.8179 422.68564
1604.3032 428.35895
1608.7758 425.6079
1608.7438 431.94403
1613.439 429.36288
1617.5637 434.89777
1620.3962 429.88608
1616.8251 425.9556
1618.5712 418.79767
1616.3735 413.65247
1614.3047 409.96088
1611.857 405.17453
1610.261 400.66125
1611.8624 396.87268
1617.3602 399.38416
1614.4432 401.72705
1618.1787 405.43283
1621.8308 408.49695
1626.8198 409.67746
1627.9038 413.3753
1629.9053 416.3301
1628.6849 419.49146
1621.9658 413.4751
1624.0524 417.45792
1625.1726 421.702
1620.6952 423.23477
1624.4819 426.2213
1628.9924 424.13168
1629.4043 429.3606
1634.1512 430.28348
1635.4797 434.21582
1635.3264 439.27948
1636.1099 443.82803
1630.977 442.08786
1631.1664 437.29022
1626.9844 437.44907
1629.2622 433.49115
1625.397 430.1558
1624.8855 434.15887
1621.3003 434.6207
1622.9398 438.47992
1626.6593 440.90045
1623.9229 443.15277
1620.0277 440.3409
1616.9346 441.11395
1615.9141 447.18124
1614.3289 443.79166
1613.345 439.3829
1613.5391 434.4509
1609.8823 437.48627
1606.1187 436.50653
1607.3328 441.78192
1610.8038 443.454
1608.6764 446.40918
1604.9646 445.62183
1605.3926 449.06125
1608.3842 450.16907
1610.8804 449.20596
1612.7994 447.53207
1615.2194 450.31015
1612.1831 452.16263
1614.8861 453.83563
1619.5715 455.8772
1618.1366 451.706
1618.71 446.06964
1622.1497 446.10852
1621.5996 451.1777
1625.7151 449.79498
1627.9856 445.54883
1630.4513 449.91315
1633.7156 446.88068
1635.6881 452.18988
1636.773 458.56726
1632.5251 460.9569
1628.5491 458.99673
1630.8655 454.90253
1625.023 455.063
1621.7506 459.3383
1625.0901 461.35117
1628.073 465.03204
1632.332 465.55972
1636.5146 465.1563
1639.8602 464.7357
1640.7456 471.1672
1638.9797 477.0309
1641.2705 481.72842
1636.282 482.21542
1633.1001 478.688
1630.2898 483.14185
1634.0925 486.4114
1638.6807 486.878
1642.3116 490.50073
1643.6742 486.01987
1649.9949 486.5359
1646.6672 481.6906
1644.1917 476.2386
1656.1154 468.70886
1659.2507 468.57913
1661.5927 470.91333
1665.8374 471.25134
1668.6862 473.50156
1665.6586 478.07434
1663.5315 474.25894
1658.9362 473.6863
1660.8241 477.95526
1662.1621 482.40167
1665.9651 483.94913
1673.3325 485.14487
1669.6584 481.0584
1670.8271 477.3651
1673.7483 471.89874
1670.5637 468.91348
1667.1165 468.3351
1666.2035 465.59152
1667.0126 462.6714
1663.7065 462.8937
1663.9072 468.5359
1662.3811 466.36987
1660.3883 464.1335
1656.9708 464.5335
1654.1823 461.92365
1656.7002 458.8486
1660.408 460.40512
1662.5605 456.7642
1659.4326 455.2299
1657.201 452.28168
1654.4406 454.75653
1651.9037 457.1739
1651.6421 452.02173
1648.4353 449.28625
1652.2202 447.64212
1648.9995 444.69763
1646.4843 440.4125
1644.3536 435.73737
1642.9794 430.8753
1647.5131 431.755
1650.6483 433.56335
1650.344 437.169
1651.5366 440.9857
1654.5956 443.5375
1655.7543 448.43033
1659.4866 448.88223
1662.1729 450.3527
1664.5023 452.5908
1664.8247 447.73224
1666.1067 443.78665
1667.9435 440.69025
1664.593 436.8224
1663.4916 440.6693
1662.0322 444.83057
1658.3184 444.8483
1659.0995 440.9404
1659.7515 436.8084
1655.3928 438.03372
1655.5452 433.24408
1653.2375 429.20316
1648.0906 427.89047
1650.5358 424.91052
1651.6023 421.05157
1654.5554 418.25754
1654.548 414.76852
1658.3048 411.9698
1658.7424 407.33362
1655.0507 406.2891
1655.4069 409.26596
1653.9121 411.65427
1650.3452 411.93448
1650.4669 416.17328
1647.8342 418.92398
1646.5012 422.57172
1643.5454 425.80072
1637.8855 427.01248
1632.2742 426.5542
1634.4442 423.66684
1637.7328 420.98907
1632.7709 420.489
1634.1296 417.17953
1632.8469 413.42108
1632.3937 409.40717
1636.1614 410.91006
1637.6323 415.15555
1643.7688 417.27756
1646.5189 413.8524
1642.5784 411.6778
1646.4474 409.01865
1650.9895 407.5259
1647.1691 404.12982
1642.6138 404.42322
1640.6843 407.3798
1634.32 404.2997
1630.2229 406.11783
1629.7046 401.45004
1625.7961 404.8469
1621.5338 402.539
1621.8391 395.54938
1625.2646 399.52722
1632.2557 397.28467
1638.6604 398.536
1642.6115 400.3667
1646.3071 397.62183
1642.0833 394.6281
1647.0801 393.31122
1651.8167 390.07852
1657.1472 390.10352
1661.8942 387.54462
1663.7473 383.2912
1667.1453 385.39417
1670.569 386.65143
1674.4014 389.24084
1674.2402 385.54694
1678.6647 385.7368
1681.0929 381.35184
1683.9491 385.17343
1684.8977 389.43933
1688.228 387.5588
1690.1521 391.15753
1687.6028 395.83194
1685.0289 399.1123
1683.7449 396.12045
1681.258 394.61304
1676.2163 395.39816
1672.3142 394.14883
1670.4783 390.9008
1666.7491 389.8235
1663.7948 392.35513
1659.6611 393.8495
1658.8815 397.74878
1653.7336 395.44238
1650.0875 398.98706
1651.3586 402.75327
1655.1055 403.46133
1656.384 400.5626
1662.0312 401.1844
1660.6746 404.6359
1662.6842 409.42953
1664.7473 405.50397
1667.4454 402.25452
1666.9642 398.96036
1663.6311 396.94925
1668.168 394.94873
1671.6804 398.44745
1674.591 401.1477
1680.8604 399.7349
1676.6355 406.04367
1675.2219 411.79196
1674.0037 417.2019
1673.6862 422.141
1669.5321 420.28534
1669.4797 416.51288
1670.8999 413.6043
1671.3118 410.21515
1673.572 407.5163
1671.7832 403.5636
1668.9484 406.18027
1667.4335 409.5835
1666.0101 413.21103
1661.8566 413.4844
1665.7643 417.76877
1662.0515 417.23724
1658.326 416.5964
1659.1776 420.92102
1655.7325 421.874
1654.7686 425.44574
1658.7991 425.55017
1658.8119 429.60086
1661.3313 433.03403
1664.269 427.90182
1662.3228 424.6245
1663.1027 420.9479
1666.3641 423.28473
1669.7212 425.1148
1673.2797 427.70093
1672.4315 433.41278
1669.5303 429.73776
1665.6963 431.74603
1668.5692 435.6712
1673.5425 438.29996
1671.2129 441.11713
1681.1671 449.024
1671.628 445.76608
1668.2007 446.77542
1669.2141 450.28018
1669.8381 453.6525
1666.481 455.7589
1664.8479 459.54358
1670.4922 457.28226
1668.4629 459.83908
1669.987 464.59586
1674.2776 466.41843
1673.0582 462.9381
1675.7394 461.57382
1685.1099 467.08386
1697.2089 471.60275
1699.2295 465.9709
1704.1648 467.36768
1702.2749 461.3323
1697.7476 459.1536
1706.9291 450.0221
1712.7947 461.76282
1722.6401 464.4835
1724.0953 472.34885
1736.1051 476.77402
1735.6034 482.53113
1731.4601 483.51907
1725.4523 479.99915
1720.7401 485.66406
1712.3602 480.5293
1717.5734 478.2385
1716.4159 470.80743
1704.0128 474.30692
1694.5833 479.49152
1688.0178 484.33545
1697.433 485.34058
1706.2781 489.84955
1707.3906 497.52643
1702.179 497.4052
1697.3627 498.42963
1695.9309 502.6586
1700.6843 502.53143
1704.6904 502.02338
1705.9626 506.76657
1702.4958 507.97546
1703.1815 512.5917
1701.3967 516.53314
1705.3713 518.05963
1709.7643 518.3127
1715.9495 519.23834
1713.6693 513.60516
1707.184 514.4259
1709.0215 510.46677
1712.9802 507.60406
1708.9788 503.85214
1712.5457 501.29056
1714.915 495.95578
1718.1583 498.91248
1722.8977 494.99484
1727.654 494.87692
1728.9836 487.71463
1733.2104 490.16013
1733.8959 495.1579
1728.7406 499.88586
1733.9371 499.79315
1738.5366 506.1893
1740.5392 499.4993
1744.8927 501.9796
1745.2067 496.1794
1742.2642 492.06003
1744.3209 483.73898
1745.6488 478.27625
1749.846 482.33923
1755.1887 482.64417
1760.1401 483.52808
1760.4412 479.23676
1760.5405 473.93536
1756.446 476.24164
1752.0408 477.589
1751.1809 471.71786
1752.7732 466.05792
1746.2452 464.54614
1740.2074 469.32422
1735.7981 466.91086
1738.274 461.6909
1749.9553 458.57443
1751.472 450.9345
1759.9022 445.51917
1764.7786 450.85257
1768.3796 453.287
1776.3394 449.37436
1782.7537 451.56305
1769.5405 457.30136
1766.2422 464.5028
1765.1285 470.88998
1765.2444 476.5496
1769.4722 475.5777
1771.7006 470.95334
1775.7029 471.55734
1778.6171 468.21097
1774.8384 465.3905
1781.431 463.52106
1783.7206 468.5369
1780.9534 472.26273
1778.5286 475.5044
1780.9891 482.66205
1777.5428 479.90265
1774.229 475.77704
1772.8014 479.93643
1768.7568 480.96484
1764.5076 481.8057
1767.2198 485.47852
1763.4155 487.85168
1758.5873 487.72766
1755.8131 492.21548
1753.3673 487.6037
1748.1882 487.60123
1750.0206 492.16064
1750.9945 498.19766
1755.653 502.8709
1755.7416 507.61667
1751.4597 504.09113
1746.5498 507.1024
1742.1721 508.1541
1743.3748 513.41376
1747.3503 517.1518
1748.4712 512.1628
1753.0201 510.8035
1752.2798 516.69543
1753.2949 521.8417
1748.0852 522.6551
1743.686 519.73975
1740.9215 522.65564
1736.976 522.5754
1733.801 521.1987
1732.4727 525.179
1735.1326 528.1073
1737.9973 530.8076
1739.3787 526.89636
1743.7866 526.4432
1747.4302 528.81665
1751.8761 526.91797
1756.4924 527.44446
1760.9299 528.9118
1756.2295 532.42896
1759.7366 534.49335
1763.8047 535.81793
1764.6211 530.6973
1767.7737 533.1482
1770.4456 535.7754
1767.1514 538.3658
1764.6709 541.10425
1763.8176 544.46747
1763.2507 548.76624
1760.4984 551.56464
1759.5156 546.7834
1757.7047 542.8196
1759.8413 539.23
1753.7202 537.78394
1751.6934 532.4332
1747.5344 534.14264
1742.8799 532.67664
1738.8779 534.767
1735.3143 536.25195
1733.2429 539.69714
1730.9712 542.3508
1728.3372 544.7516
1734.2576 544.6229
1737.646 543.04364
1742.8998 548.06396
1741.8239 552.2154
1738.295 551.8125
1738.0819 547.3174
1734.9697 549.6212
1731.6292 547.2304
1728.0217 549.2791
1725.0413 546.8434
1721.6051 548.9601
1717.5085 547.7751
1715.2749 543.9845
1719.6241 543.1621
1723.6621 543.2246
1727.2415 540.2484
1726.3755 536.02075
1730.4009 536.4512
1732.809 532.8986
1730.2024 529.83105
1726.7975 531.59924
1724.425 527.04755
1728.2598 525.83575
1725.5104 522.17096
1729.9592 521.2852
1734.7927 516.8736
1739.3428 517.35706
1737.9076 512.0714
1731.1829 513.26215
1727.602 511.09692
1728.3036 506.97305
1733.2163 509.13293
1734.0562 504.62277
1730.2548 504.0805
1724.5569 501.90244
1723.5823 506.9965
1719.0996 504.43414
1718.291 509.54105
1719.0894 514.26196
1723.6853 512.7307
1729.7195 517.07227
1725.6814 517.1697
1721.3234 518.5588
1719.8315 523.11676
1718.9502 527.2295
1721.0403 530.65894
1723.1964 533.9327
1719.3363 534.6489
1722.2166 538.5564
1717.2008 538.6621
1712.9294 540.1158
1712.5247 535.90564
1715.9431 533.351
1711.9834 531.93677
1715.0029 528.0282
1714.0776 524.44073
1710.7792 522.2672
1707.2007 522.1476
1704.1758 522.2508
1701.4062 520.1973
1696.3254 520.538
1693.9712 524.2275
1689.2615 521.0303
1691.7375 518.2531
1687.6119 515.7444
1683.2667 516.36725
1684.685 520.64545
1681.4979 524.2332
1680.2366 519.8734
1678.0192 516.4789
1673.8944 516.96295
1675.4686 511.00266
1679.9039 512.74036
1684.0662 512.03156
1689.2078 511.95377
1692.1896 509.7652
1695.3657 511.02875
1693.5508 514.75397
1697.1091 517.16644
1698.3307 513.8076
1699.1902 510.37213
1698.4355 506.48453
1693.737 505.95428
1690.1487 500.9555
1689.3411 506.2491
1685.9044 508.70383
1684.5693 504.4986
1681.1979 508.0272
1677.5671 505.73245
1679.863 501.71667
1684.1238 493.524
1673.582 493.30255
1668.3228 497.6876
1666.7822 501.9455
1662.2814 503.87427
1662.0515 498.75397
1663.6877 493.32874
1663.9926 488.21866
1658.4185 495.37045
1653.5465 492.03543
1650.2928 494.63962
1647.177 489.835
1645.5782 494.2485
1641.7639 495.09515
1638.9884 497.0296
1638.4102 500.08945
1639.8934 503.04614
1643.241 504.1041
1643.7284 499.5347
1647.9591 498.67935
1651.284 500.95938
1655.2837 498.31293
1658.6742 502.22726
1656.6609 506.8033
1653.8446 504.10938
1650.0398 507.84396
1647.44 504.21045
1644.5872 508.54895
1640.8214 510.03546
1638.6472 506.69092
1635.3088 505.8784
1634.3562 509.3094
1637.289 511.65198
1639.601 515.37115
1636.311 517.6332
1633.9003 520.79913
1635.7881 524.7534
1640.0638 526.29156
1643.6731 529.4503
1640.8024 533.56635
1636.755 529.73926
1634.875 533.89014
1633.5792 537.9408
1637.3748 541.42773
1638.6617 537.33624
1645.3904 538.0501
1642.415 541.0309
1641.4525 545.5278
1641.1956 550.1967
1637.5063 548.39044
1636.5901 545.22565
1632.7925 547.3743
1633.3438 543.0383
1629.4741 544.3109
1628.1317 547.5405
1630.519 550.5751
1626.9215 551.175
1624.4888 548.5093
1624.1365 544.9163
1625.4636 540.90686
1624.1323 536.3102
1629.8069 539.87134
1629.1565 535.04974
1631.5757 530.2529
1627.1162 530.85504
1623.3582 530.9397
1621.0059 527.5132
1618.2832 524.8329
1619.1493 521.66284
1621.9424 522.1722
1624.4225 523.8977
1626.8555 526.45264
1631.2842 525.489
1629.0088 521.4926
1630.7344 517.0836
1633.3632 513.3494
1630.8265 508.28867
1629.6455 505.09045
1632.634 504.67014
1635.407 502.24677
1631.095 500.75183
1628.1678 497.62897
1631.6012 494.33273
1634.2493 498.03207
1635.9266 494.01755
1638.2224 491.32364
1632.9976 490.29153
1628.9641 488.61038
1627.1108 493.07687
1623.5659 490.08755
1619.6025 490.1207
1625.7875 485.86194
1620.9408 485.34573
1616.1936 486.88477
1612.5427 488.82056
1613.8733 483.65384
1617.1594 482.3389
1612.4951 479.4967
1615.2249 477.54916
1620.4131 480.7639
1619.6285 477.5168
1618.0242 474.3291
1614.6082 473.11508
1612.7302 470.07263
1611.1787 466.4444
1614.7485 463.28
1615.7473 466.9002
1618.386 469.75848
1622.125 470.17725
1621.9896 473.6312
1623.8357 476.772
1624.5702 481.83243
1627.4812 478.90817
1629.2905 475.14053
1634.7505 474.0322
1635.3633 469.60086
1630.4337 470.1743
1626.37 471.80826
1625.1349 467.96954
1622.7107 465.33524
1619.4766 464.4226
1617.81 460.74457
1615.7112 456.74097
1614.1368 459.40204
1611.1636 462.36856
1610.8625 458.8299
1607.9247 459.90973
1607.8387 464.42648
1605.988 467.36856
1608.529 470.5549
1610.29 474.55872
1608.6918 478.70236
1610.4137 483.50702
1608.5846 487.11768
1604.7491 486.0226
1606.4166 482.3336
1603.3823 479.37326
1605.4395 475.67496
1604.4188 471.73343
1600.1774 472.63
1599.8604 476.52844
1597.1942 480.7097
1592.4218 481.74402
1594.0751 476.32376
1594.3066 472.28976
1591.0435 467.9372
1592.7303 463.38815
1597.6367 461.3867
1597.5524 465.19525
1597.6237 469.36652
1602.0833 467.93817
1602.07 463.86334
1605.5018 462.06772
1602.2684 460.32895
1604.156 457.61755
1607.264 456.23016
1611.3506 455.84024
1609.2354 453.2093
1605.9072 452.6548
1602.7468 454.23523
1601.6528 450.92508
1596.2571 448.16153
1591.6251 449.80627
1596.8435 452.9498
1600.209 456.91776
1596.8608 457.43652
1593.5726 457.71902
1589.7534 456.33508
1584.6842 451.29684
1586.1155 444.44174
1580.2683 441.35822
1578.5267 446.0446
1578.509 452.6647
1573.4817 457.69226
1570.9979 452.15942
1572.8461 447.47647
1573.0604 442.3754
1567.0363 445.4419
1561.0873 442.81912
1563.932 437.4395
1569.8959 437.16116
1565.8115 429.4452
1564.8925 421.241
1564.9811 413.17868
1572.6609 418.2882
1572.3213 410.39352
1566.8972 402.1079
1558.4276 401.6674
1554.8567 406.9434
1553.7363 413.9853
1557.7329 418.86884
1550.8271 422.69223
1554.7936 427.7368
1560.4575 426.1226
1559.5004 432.21634
1554.784 434.42065
1555.2646 439.06354
1554.9313 443.90622
1555.5732 448.78882
1559.4634 447.5096
1563.3918 449.13153
1565.2742 453.2524
1566.8187 457.33215
1563.8053 460.92023
1567.6725 462.86392
1566.681 468.36105
1562.0762 466.31345
1560.4166 462.6999
1561.667 457.04782
1560.2826 452.71518
1556.5892 454.59506
1557.1437 458.9514
1556.2012 462.99316
1555.554 467.21872
1557.4385 470.69363
1553.758 474.07135
1537.6267 470.78833
1533.342 472.67532
1529.386 475.14465
1526.6777 479.51334
1532.2017 478.8992
1536.005 476.26785
1535.468 481.98376
1531.5446 483.3893
1533.8535 488.12326
1528.2622 485.6999
1526.1155 491.22064
1530.9208 490.8655
1533.1976 495.502
1531.5739 501.78476
1528.6611 495.483
1520.8271 490.8693
1522.2434 484.04037
1520.609 478.53564
1513.6075 475.34897
1511.6174 480.3576
1515.2365 484.70615
1516.8848 488.66983
1512.5123 490.5922
1508.2115 486.3949
1504.9299 481.54895
1503.2286 485.90536
1499.8539 490.0449
1496.4282 494.0607
1491.8813 493.1701
1492.8746 497.66385
1494.6019 500.88873
1498.6725 499.3172
1499.369 503.58374
1503.3967 500.22736
1502.3877 495.6177
1505.5332 492.0478
1510.0345 499.20312
1515.7211 500.31143
1515.893 495.76678
1520.3489 498.4975
1520.9583 505.9109
1519.2462 510.59906
1513.123 509.9361
1510.3997 513.66296
1517.106 517.7556
1514.6062 526.13165
1515.7196 530.7526
1521.2239 532.8862
1527.2933 531.7403
1532.8931 533.37115
1538.2697 538.27734
1536.9114 543.3326
1533.6112 541.27325
1529.9131 543.2541
1531.0022 537.54205
1525.3215 537.02606
1524.4678 542.22394
1526.6318 545.05585
1526.3602 552.4294
1523.8832 549.21936
1521.1152 546.39594
1517.7715 549.42126
1517.2095 544.2776
1521.2761 541.05505
1518.8395 538.87714
1516.9918 535.58685
1514.1377 540.14294
1511.7012 536.04865
1508.1965 529.0774
1508.2323 534.07153
1501.9756 536.46216
1500.1345 541.81635
1506.4491 539.39215
1509.9766 541.6179
1512.5657 545.31415
1512.7505 549.57495
1508.6971 549.3604
1505.9995 544.2932
1502.9979 547.57996
1498.6901 546.8632
1495.1276 544.77765
1492.0952 547.07404
1493.1862 541.1635
1497.5359 536.4671
1498.3596 528.80695
1503.3491 530.8224
1503.699 526.09875
1499.0408 523.9231
1504.0472 518.831
1499.7504 514.37225
1496.9292 511.2243
1500.2401 508.3444
1495.0938 504.94727
1491.3868 502.36176
1489.5558 504.61563
1493.3552 508.42267
1488.5858 508.55762
1486.9192 512.3009
1482.7985 511.5847
1479.2306 513.6509
1477.5131 509.29807
1478.5715 505.0184
1483.0736 507.52347
1486.0996 504.58734
1482.6514 502.94153
1486.2153 500.32724
1489.5925 497.75705
1486.7275 496.05194
1484.2592 494.7363
1485.0895 490.40753
1488.993 488.9624
1494.8949 486.69803
1498.0881 483.02957
1496.9564 478.38547
1501.1332 476.38327
1505.5317 468.503
1498.1418 466.8144
1489.5027 454.8331
1487.32 464.5317
1492.9822 469.70502
1489.6466 476.1242
1493.0347 480.68433
1489.9766 483.48764
1485.9186 485.47217
1480.892 481.26218
1484.9524 478.88168
1483.165 471.773
1480.2806 468.12805
1477.6797 475.77045
1470.9706 473.1659
1471.1654 481.4033
1475.9945 482.72537
1472.6562 487.01718
1467.6622 487.40018
1474.0413 491.13022
1478.3121 487.7441
1480.4863 492.94974
1476.9631 495.90192
1481.4305 497.6957
1479.4232 500.5454
1475.6936 502.42114
1474.1499 499.5383
1472.458 495.78445
1469.4136 492.74765
1465.1698 491.12015
1461.322 489.16824
1462.3124 484.58508
1466.476 482.5695
1465.4834 478.74237
1465.8136 475.06113
1462.416 464.81595
1453.4106 455.8107
1440.9852 457.3027
1436.6992 459.41785
1444.0842 464.03046
1440.3401 469.01697
1446.0002 472.2947
1449.7073 474.24335
1451.6246 470.0106
1457.162 474.50906
1459.6643 480.5134
1453.7577 482.71902
1457.3425 486.32324
1452.3485 489.4338
1450.8562 485.35797
1447.3368 487.7299
1442.9114 486.25137
1445.8176 483.32407
1449.0508 481.24274
1451.2726 477.4944
1446.7821 477.23538
1443.8884 480.03336
1440.8889 477.69223
1442.7971 475.01022
1438.9465 474.06253
1437.33 478.28296
1433.5867 475.06778
1428.5746 474.83325
1427.1226 468.5864
1421.8418 459.92133
1413.1036 465.90308
1417.6348 470.08032
1419.0312 473.85355
1423.4551 476.1277
1426.6318 479.76544
1427.1177 484.98874
1432.4899 484.5383
1431.8152 480.08133
1435.851 481.65988
1440.4658 482.10123
1437.8854 485.10922
1436.2738 488.26636
1440.181 489.5889
1444.1533 491.17645
1444.3107 496.65637
1441.2659 500.1783
1440.1453 495.1963
1436.6376 493.21518
1434.6925 497.71005
1431.9009 502.06
1436.4642 503.45694
1440.1984 505.16238
1444.0328 504.2815
1447.6777 503.19568
1448.5264 498.07462
1448.8889 492.92914
1453.5858 493.86563
1452.4916 498.10144
1457.1617 497.57083
1457.4916 492.3771
1461.2467 494.25635
1465.6731 495.79456
1469.5415 499.663
1465.4503 500.14972
1464.4486 503.6406
1461.3259 498.97113
1459.6191 503.1505
1456.0446 501.59265
1452.7715 502.20844
1450.9578 504.6616
1455.8575 506.2366
1451.4008 508.54736
1446.9707 508.60986
1443.0424 509.30417
1438.9128 509.73294
1435.7871 512.63135
1433.8513 507.0766
1427.2965 503.65018
1425.2897 499.55637
1429.2943 497.3182
1431.285 493.7802
1433.5227 490.85773
1430.6085 488.30264
1427.2593 490.15543
1425.6602 494.2513
1421.411 496.0085
1421.9591 503.12662
1419.4241 500.10196
1416.1685 497.26965
1411.6323 496.86948
1410.9056 492.4046
1405.6293 492.90262
1406.5361 497.76562
1405.6132 502.8633
1408.6682 505.5152
1410.9161 501.42435
1416.007 503.0846
1413.2654 506.71265
1412.6382 515.2195
1409.2745 512.7818
1409.1459 509.40228
1404.6045 508.07938
1402.3154 511.0162
1399.4637 514.0098
1398.8539 508.47394
1400.9677 504.13245
1402.171 499.86816
1400.9207 495.55154
1400.4 491.49384
1397.3032 489.09192
1395.0435 486.24194
1393.4374 482.19794
1390.9237 485.1266
1389.6304 488.04953
1386.4349 490.15555
1385.0474 492.95993
1389.9996 492.7951
1394.4878 493.97183
1395.1017 498.53607
1390.603 499.25558
1390.0636 503.8959
1384.461 505.03864
1380.5413 501.48816
1385.7864 498.09796
1382.9373 495.26126
1379.8951 497.0192
1376.8525 498.42377
1378.5753 505.34546
1375.0374 502.54486
1373.4753 498.96878
1370.433 498.2741
1367.9011 496.85852
1372.4714 494.91382
1376.2069 493.6583
1380.6002 492.7476
1378.7413 490.00342
1375.0251 489.36093
1376.5155 485.46545
1380.7517 482.75043
1380.137 486.0996
1383.5039 487.55643
1385.5563 484.22287
1384.006 480.30426
1386.6387 477.49774
1388.7108 481.27213
1391.245 477.45212
1395.0508 478.20468
1397.9075 480.53595
1399.0293 483.8474
1402.5782 486.50986
1405.9066 488.10495
1410.4152 486.97723
1413.4211 481.67548
1415.8561 486.48654
1415.1505 492.08362
1418.8417 491.57117
1423.0239 490.3585
1421.3916 486.47858
1420.3385 482.08575
1418.507 478.20282
1413.5962 475.7795
1408.8193 473.91263
1408.1006 478.41394
1408.2783 482.10562
1403.4113 480.90588
1402.9735 476.78354
1400.0568 478.2067
1397.3243 474.414
1392.6832 472.14255
1395.9786 468.64377
1392.1605 460.48633
1391.6959 465.6719
1387.1097 469.61343
1386.7762 473.88782
1380.2812 475.4997
1377.8606 479.3873
1373.9677 476.72614
1374.3577 481.79196
1369.6765 481.05145
1366.7992 477.558
1369.3698 473.38614
1375.7219 472.26923
1374.0221 468.2725
1374.3174 460.85724
1370.367 464.60767
1368.6324 469.06934
1363.0002 467.43716
1354.6927 461.35034
1349.6272 457.9246
1348.1974 464.98035
1352.745 466.33173
1354.0945 472.52362
1357.4542 469.40204
1362.7489 473.46738
1357.6399 475.95267
1361.9536 478.9692
1364.0806 483.0721
1367.2288 485.49017
1366.9272 489.21613
1371.8448 485.6937
1371.3162 490.90552
1368.7753 493.58978
1365.4222 492.44977
1362.939 488.69196
1359.4926 488.06677
1358.8467 484.1191
1355.9198 480.4015
1352.5826 483.47293
1354.4407 487.67593
1355.7712 491.3181
1358.664 493.57788
1362.1981 493.06094
1365.011 496.15994
1361.2133 496.8601
1363.2017 499.4654
1359.3472 501.99176
1361.8159 505.88058
1365.61 508.5377
1363.3077 511.51614
1364.9764 517.6913
1369.4066 519.3791
1366.9553 522.80145
1363.1788 522.1287
1359.6881 520.44434
1360.9944 516.73035
1359.7567 513.9798
1358.6149 510.94656
1357.833 508.11487
1356.0619 505.14096
1353.345 502.40784
1357.5526 498.4576
1354.0548 495.69446
1351.056 498.58557
1343.6384 498.2671
1338.7184 495.4429
1336.2987 493.12863
1338.9161 491.44098
1338.4045 488.6306
1338.7281 486.19254
1338.5845 482.98947
1342.0671 484.73984
1344.0537 487.63513
1341.981 489.75464
1341.72 493.92523
1345.0361 493.5755
1347.2925 495.92352
1350.759 492.5579
1346.9271 490.25696
1350.0471 487.38797
1346.5311 485.306
1347.76 481.58228
1343.375 480.96475
1339.887 478.94574
1336.0658 478.68973
1334.2219 481.79877
1331.1951 483.6065
1332.052 476.69403
1336.4249 474.1465
1339.4929 471.11942
1345.4102 476.45715
1351.0807 478.12448
1349.1172 472.40677
1344.5211 470.30438
1336.5531 466.36478
1329.3538 456.00378
1325.4465 473.6135
1327.1953 481.11514
1325.3304 484.5286
1328.1295 485.3878
1329.1715 488.13516
1334.9784 485.744
1335.0446 489.9924
1332.0088 488.41882
1330.8523 492.55496
1327.7086 491.098
1325.4653 488.96924
1326.3682 494.0362
1326.1154 497.92093
1326.1085 502.29626
1329.2035 504.231
1327.1024 509.44662
1326.9122 514.41925
1326.8746 518.69495
1331.1171 520.57495
1333.452 517.4072
1332.2787 513.6996
1334.1327 510.34995
1338.4451 510.21506
1342.6761 512.1243
1342.9015 507.00946
1342.9235 502.60095
1337.7911 504.6562
1332.5396 506.6074
1333.9082 501.57376
1330.2994 498.00507
1333.3605 494.70383
1335.6241 497.9456
1339.7123 499.23355
1347.4443 500.37985
1348.6034 504.99976
1347.3804 510.3894
1352.3668 509.0655
1354.9736 513.2651
1355.3953 517.7437
1350.5656 515.22894
1345.5068 515.9626
1338.9784 515.5756
1337.5503 519.88293
1335.2859 523.5651
1331.5374 524.4304
1329.2742 526.9115
1326.3055 523.1451
1326.2477 528.13135
1326.2936 531.66693
1326.8907 535.2777
1326.5259 540.01135
1328.0679 545.035
1327.6694 550.04944
1327.9501 555.66455
1333.9379 554.34546
1339.487 553.63025
1345.0798 555.51013
1347.5258 550.01935
1342.9368 548.1154
1340.8843 543.53143
1337.1511 539.94257
1335.3262 547.12573
1332.2339 541.4466
1331.8105 536.6868
1331.5045 532.3536
1333.5381 529.11084
1337.4265 534.9612
1339.0502 531.31836
1337.4667 527.45
1340.1344 524.1863
1342.6129 519.99365
1347.3026 520.9326
1351.2816 521.4987
1355.6677 522.4635
1359.3717 525.51764
1357.9115 529.75134
1353.6332 526.9603
1353.4093 532.6382
1349.4347 531.50793
1348.4066 527.0338
1344.4829 524.9466
1343.1963 529.35596
1344.4523 533.95825
1343.0511 538.66583
1348.7488 537.34705
1353.7827 537.0375
1352.5226 540.9551
1347.2645 543.0289
1350.7197 546.67426
1354.1542 550.1865
1351.3315 552.87836
1352.0925 556.6855
1358.7723 558.4198
1357.9359 555.4338
1357.4573 551.8281
1361.4263 552.7221
1364.3219 556.7334
1365.555 553.29926
1364.8098 549.53394
1361.0951 547.82965
1358.305 546.5265
1355.5518 547.35077
1353.9161 544.3717
1357.2145 542.3008
1360.461 540.45624
1361.6818 543.5411
1365.1655 545.47144
1369.294 543.4437
1369.3126 547.67926
1373.8823 547.5309
1374.4175 542.79694
1379.8518 541.96674
1372.7827 538.68164
1368.8853 539.5653
1365.0652 540.7687
1365.0941 536.28503
1361.9639 537.4138
1357.8767 537.9121
1357.5588 534.022
1361.5573 533.2514
1362.966 529.7157
1364.0996 526.316
1367.5645 529.6778
1366.2427 532.9157
1368.9407 536.0258
1370.9087 533.7167
1371.5645 531.0251
1371.7087 527.7222
1368.696 525.804
1372.7281 523.55286
1376.9863 525.865
1375.1655 530.05347
1379.5737 530.3726
1377.7511 533.9426
1374.3591 535.04767
1377.6377 538.5226
1381.5895 535.4774
1385.7224 535.1231
1384.2499 539.18427
1384.9436 542.9086
1382.9806 545.9947
1378.4453 546.96313
1379.5654 552.09564
1375.3895 551.8995
1369.9154 551.8825
1369.2125 556.6069
1372.8256 555.41095
1376.3689 556.70575
1380.6448 556.3826
1383.7957 553.99744
1382.8411 549.8313
1386.9111 550.8715
1388.1139 554.4322
1385.9066 557.4516
1392.4241 556.8808
1396.1646 554.3936
1400.5929 555.4212
1405.845 556.9441
1411.0836 555.06104
1415.9098 555.1045
1420.6014 554.1185
1425.325 556.91846
1425.241 552.1181
1424.5632 547.8835
1426.7845 543.7012
1430.6199 539.63
1436.3011 539.7595
1429.218 535.5227
1425.7035 537.1911
1424.8856 540.3894
1421.5713 543.21375
1419.655 547.34625
1415.311 548.63763
1410.2614 548.1774
1405.2961 551.1626
1399.6493 549.34656
1394.0161 549.9197
1391.1881 552.4618
1388.8206 547.5757
1389.3673 544.24994
1389.3468 540.98376
1388.6232 537.63995
1392.6598 538.28516
1393.7565 542.4291
1394.277 546.2591
1398.8013 543.2774
1404.0337 545.57623
1403.543 540.2407
1399.7296 537.1651
1396.5173 539.28937
1395.914 535.4367
1394.5795 533.0751
1394.4426 530.4435
1391.0037 534.5155
1387.9501 531.8347
1384.302 530.4072
1382.2854 526.6348
1381.9255 522.433
1377.7509 521.0666
1373.7251 518.8203
1377.4126 515.63324
1372.7781 513.99805
1367.6017 514.19775
1370.1647 510.42145
1369.009 506.75085
1366.4818 504.36502
1363.9873 502.34573
1367.2288 500.32416
1370.3873 501.9634
1371.725 504.8995
1374.292 507.86438
1378.2573 511.17343
1386.1086 510.5958
1390.2585 508.80637
1394.854 513.9659
1396.9868 517.792
1391.4586 519.47296
1390.6257 514.3996
1387.07 516.19385
1382.9242 517.007
1386.1841 520.7134
1387.3306 524.30615
1389.0303 527.1983
1391.2021 529.7882
1392.7345 523.63635
1395.16 526.84094
1398.4437 529.5537
1399.9052 532.868
1403.6915 534.8887
1404.6123 530.4312
1402.366 527.64795
1399.806 524.70734
1397.0138 521.8206
1402.4553 519.80066
1404.448 514.9295
1408.1888 517.47125
1408.9777 521.6396
1405.2284 523.9433
1408.026 527.40356
1411.8147 525.67255
1415.7494 526.64233
1418.8514 525.59955
1421.8627 525.13
1424.6642 526.4533
1421.7465 528.95105
1420.1471 532.4319
1417.1125 535.5255
1418.1758 529.55725
1414.8074 530.77167
1412.9727 535.6254
1411.1577 530.51227
1408.0852 532.64044
1408.0067 536.257
1408.7825 539.5391
1409.0428 543.5931
1413.6316 541.73236
1417.3682 541.30914
1420.6097 538.77277
1421.4988 535.66895
1424.6511 533.85297
1424.8369 530.8176
1429.4785 532.0003
1427.937 528.88086
1428.3088 525.1924
1430.9381 522.19116
1429.1545 518.73126
1425.3063 516.6361
1425.3538 512.1402
1420.8298 512.1958
1420.7709 516.21924
1422.5219 519.7129
1425.6091 521.99146
1420.6825 522.17163
1417.4115 522.3963
1414.2454 522.8849
1413.2727 519.31445
1417.7399 518.94824
1416.7637 514.9217
1414.9985 510.9633
1418.5023 507.88086
1422.4174 507.3138
1425.9158 507.49164
1429.3419 509.20053
1432.4114 511.51678
1429.9147 514.6478
1434.3547 517.6458
1435.3889 523.0654
1440.2286 523.58484
1442.4861 528.33826
1437.6285 529.1051
1432.8848 527.3849
1434.39 533.2803
1439.1101 535.1169
1443.6079 533.2327
1442.6758 539.65894
1442.7656 545.5332
1446.9554 544.2393
1452.1022 543.30505
1454.2017 547.2588
1449.8639 548.25946
1445.4653 549.21704
1441.6228 551.6238
1437.8711 555.1778
1438.5425 558.1849
1443.0278 556.64325
1445.2355 554.00366
1448.5895 552.82385
1450.0077 556.6574
1452.7755 552.532
1457.7611 550.7091
1456.7212 556.02783
1461.8002 555.7898
1467.3666 556.3636
1469.9146 553.4845
1473.0627 556.2932
1474.2119 552.0882
1473.4856 548.55707
1470.7893 546.6454
1468.1786 550.4422
1464.3662 552.5405
1462.3546 549.06146
1460.1821 545.8759
1457.5015 543.4027
1455.3358 539.9251
1456.6683 535.49945
1460.206 533.2332
1463.8314 530.93665
1463.0818 526.01025
1462.5784 521.59875
1460.8859 517.4759
1458.1528 523.0824
1458.0886 528.6834
1453.4023 526.5431
1453.4291 531.6153
1452.1534 536.6667
1449.0488 540.35443
1446.9353 536.88153
1448.8281 532.90643
1447.7568 528.5527
1446.3296 523.67926
1444.8032 519.3883
1439.5072 519.21497
1439.168 515.0131
1443.4574 513.8204
1450.3735 519.61523
1453.1101 515.18555
1455.7114 510.64047
1459.6726 509.1192
1459.364 513.438
1464.1117 511.8396
1462.6832 506.81473
1468.4772 510.52533
1468.3549 505.35358
1472.8357 504.6361
1472.6879 508.9481
1467.5859 515.2855
1473.503 514.0512
1477.7463 517.83875
1474.8868 520.67377
1470.7782 519.0804
1466.0684 519.51996
1468.4335 523.64636
1467.7711 528.06024
1468.5591 533.3283
1465.0424 536.6456
1460.5835 538.8782
1463.9967 542.46826
1466.1843 546.7355
1469.1586 543.40875
1468.6134 539.758
1471.9633 537.8808
1474.1509 534.12775
1476.3577 530.2837
1471.8619 529.8055
1473.102 525.2273
1478.0537 525.76
1481.2418 523.072
1486.4814 527.222
1486.0686 522.0308
1482.5747 517.5416
1487.1251 516.5517
1490.6353 519.72144
1491.5602 513.0751
1494.6613 515.87006
1496.127 520.0
1492.9286 524.61
1491.4143 529.87103
1491.2827 535.70135
1485.9539 532.751
1480.6733 531.72565
1480.7382 537.057
1485.6053 537.9889
1489.043 540.99603
1488.9409 544.8313
1485.5206 542.9947
1482.2356 540.92566
1476.6593 538.3137
1473.9348 543.12646
1477.6871 543.46765
1478.011 547.7156
1478.5315 550.992
1478.1488 554.00275
1477.6047 556.9254
1482.2957 553.56836
1482.4277 556.9287
1487.7166 556.57947
1492.2502 556.786
1493.3691 553.4411
1490.2915 551.96094
1486.8826 553.4424
1485.0214 551.122
1482.1748 549.2211
1480.9512 544.4519
1483.7612 546.0926
1486.462 547.9581
1489.3346 548.9159
1495.0674 549.89844
1499.0209 551.6231
1496.836 555.75726
1501.1852 556.8152
1502.5355 553.5461
1505.875 551.8464
1506.9094 556.39014
1511.2563 555.1753
1515.89 556.6672
1515.4038 552.83075
1520.8326 553.3399
1520.6093 557.12946
1525.5015 556.3919
1530.2946 555.50977
1535.4413 556.8286
1533.871 552.9502
1529.6335 549.32983
1533.4039 547.0782
1536.4746 550.38385
1538.4125 546.09283
1542.735 542.55396
1548.7787 546.07404
1544.8606 547.4302
1540.3651 548.2239
1542.2777 550.89014
1539.6167 554.6026
1543.8348 556.9271
1545.3093 553.48615
1549.2737 556.91095
1550.7212 553.9078
1548.2467 550.7476
1552.449 549.8741
1556.9336 549.26
1553.9342 545.98926
1555.4781 542.46936
1554.8689 538.91144
1557.2905 536.6996
1555.7593 532.49585
1560.6353 531.1539
1557.4783 526.99835
1552.0164 534.5092
1549.6578 538.04395
1550.2656 542.22736
1544.8494 537.5552
1541.8943 533.30444
1547.5663 531.8692
1544.8082 527.03674
1537.4729 531.00696
1532.4735 528.1906
1538.3972 523.5048
1534.5215 516.5928
1535.2803 510.79764
1531.2798 507.53424
1539.108 506.63742
1540.4048 513.8787
1546.4945 516.3238
1550.3716 520.471
1557.7367 521.70245
1563.4751 519.7944
1567.9038 517.4799
1569.3928 521.8411
1566.7477 523.8634
1564.1227 526.4722
1566.3479 530.249
1570.3431 527.3716
1572.9021 523.3993
1573.5518 531.8846
1576.6088 537.74207
1580.3112 530.9842
1581.4265 535.79065
1580.4949 540.89905
1577.8804 545.24097
1573.4644 543.26843
1569.2524 542.72675
1565.0181 543.96515
1565.262 539.61633
1569.1954 538.30804
1572.9983 537.2237
1569.737 533.2566
1566.4979 534.7036
1563.4065 535.0334
1560.0422 535.3321
1561.3586 538.96204
1560.2428 541.99713
1559.2625 545.52747
1562.6418 547.79803
1560.7614 550.90204
1558.4515 553.2282
1554.8094 553.8985
1554.5609 557.86084
1558.3699 556.9105
1561.7 555.6643
1564.9427 555.9946
1568.779 557.02844
1568.7998 552.69
1564.6407 551.8942
1567.1609 547.9483
1571.4366 548.28394
1573.2695 553.55505
1573.875 557.1729
1576.2821 550.013
1583.6731 545.41315
1586.0603 540.53644
1590.8635 543.3959
1591.3062 547.62756
1586.7847 549.2164
1581.7683 550.8356
1579.7491 555.5349
1586.2476 555.97943
1590.315 553.17596
1594.2946 556.59607
1594.5009 551.34894
1598.2799 553.29974
1602.2773 554.6776
1601.2383 558.1451
1606.3739 556.10254
1608.0062 552.1419
1610.6663 556.1915
1614.5369 555.6436
1618.5012 558.01886
1618.4146 553.81323
1616.4513 549.693
1612.845 551.67975
1611.3667 547.8923
1607.4009 547.73267
1605.1346 545.40924
1605.5314 542.0495
1603.3099 538.7815
1600.7463 543.2269
1603.3296 550.87335
1600.616 548.005
1596.3606 546.75836
1595.7578 541.6363
1598.6802 538.58734
1595.545 534.6171
1591.5298 538.1597
1585.9347 532.91626
1585.3828 527.56415
1581.9532 525.1809
1577.1187 525.64844
1578.446 522.90137
1575.9639 519.9379
1571.8514 518.8941
1573.0208 515.3338
1572.6188 508.79068
1572.735 504.62738
1572.5205 500.17496
1566.9325 502.18497
1561.3094 503.66428
1560.9546 509.42444
1556.9584 509.85776
1558.0125 514.08655
1554.5062 515.98596
1550.7827 515.14496
1550.9156 510.91528
1544.9427 509.0525
1548.2607 505.43378
1544.0603 503.28897
1544.506 498.44632
1548.069 499.46747
1547.0607 494.05774
1548.0142 489.60522
1550.3435 486.0684
1554.4951 484.36688
1558.4288 484.9539
1551.684 480.1819
1556.2981 478.1617
1559.658 480.61624
1560.4615 475.15842
1562.2296 470.84116
1566.9114 473.71057
1564.9019 477.3996
1564.58 481.1892
1562.7151 484.8379
1564.1345 488.50272
1562.5776 493.30258
1558.8491 489.266
1553.754 489.9185
1551.3816 493.78732
1557.5114 493.65182
1555.1252 496.94193
1551.7518 498.21002
1551.543 501.73566
1552.0707 504.78003
1553.3837 507.7944
1557.3704 505.75574
1556.2902 501.67722
1559.5962 498.4781
1563.8262 498.2983
1567.8801 495.52472
1567.6357 490.85907
1575.2717 495.95465
1575.0327 490.79834
1573.7649 485.00012
1568.3599 484.8688
1571.1361 478.90033
1576.0663 475.1667
1572.7627 470.44537
1574.3374 463.91064
1580.2329 460.25113
1585.6454 462.02792
1584.9235 466.55707
1580.2129 469.91675
1587.5166 474.75488
1585.4763 480.6779
1578.9994 482.07132
1581.3461 491.69666
1580.4741 496.2501
1586.0303 495.38266
1584.887 487.28366
1590.3184 485.18884
1589.8123 490.34915
1594.8972 491.3204
1591.7638 495.052
1595.8989 498.0788
1599.1604 504.40665
1597.9167 509.02768
1593.8999 504.50018
1588.3567 506.13928
1587.7695 501.8489
1582.4135 501.7165
1578.2922 500.2079
1576.5702 503.64322
1579.1888 506.5565
1583.517 507.39124
1582.362 512.7668
1584.5588 516.52704
1580.3364 517.21906
1580.7108 521.02106
1584.2039 520.75134
1587.8813 523.5805
1592.4967 522.8265
1594.5391 525.9023
1589.9897 527.4722
1591.0736 531.6822
1596.3265 529.30457
1601.1677 535.0735
1600.6387 530.8844
1600.119 525.79224
1600.4448 521.0519
1596.6304 522.4127
1596.7354 518.632
1593.5763 517.402
1591.0544 515.00745
1591.0172 519.92957
1587.7267 519.2119
1587.7584 514.74396
1586.7415 511.1513
1591.3976 509.9451
1594.528 511.168
1596.0391 514.1667
1598.8386 514.7413
1600.6272 517.11194
1603.7458 517.45953
1605.8401 513.4782
1601.5415 512.44977
1603.2136 508.72415
1608.1658 509.4764
1612.6979 509.3311
1616.3064 507.86343
1619.2441 509.73865
1615.9149 512.1094
1612.5813 514.54443
1610.4696 512.51904
1608.9529 516.25946
1611.5693 518.4785
1614.3313 517.4152
1615.4482 514.9843
1617.6006 516.32935
1619.6294 513.73083
1622.6039 511.72086
1620.3953 504.87677
1615.4966 503.91626
1611.9803 505.57153
1611.3655 501.53857
1608.6782 504.7194
1605.6947 505.83408
1603.5667 502.9741
1601.187 499.6073
1599.2704 494.97052
1599.2478 490.3766
1596.4597 485.4992
1601.1927 483.1265
1601.4355 487.6739
1602.6643 493.4749
1605.3981 490.91193
1609.5571 491.36908
1609.1051 495.45505
1605.2483 496.8262
1607.6118 500.08813
1613.5786 498.59018
1613.3241 494.39523
1616.0088 491.60095
1618.3142 495.61554
1622.9148 495.57367
1618.3666 500.3699
1623.5249 500.57672
1627.2612 502.5038
1625.5096 506.0037
1623.5216 508.66553
1628.8125 510.41983
1627.0444 512.70197
1623.5403 514.9446
1626.9669 516.0812
1625.7617 519.4651
1622.653 518.71
1620.6721 516.6959
1619.0979 518.9074
1615.6602 519.8666
1612.9438 522.2793
1609.5969 523.88824
1607.7075 520.68024
1604.1697 522.7429
1604.8627 526.6216
1605.5012 530.564
1605.7863 534.52405
1607.222 538.28625
1609.6426 540.84393
1611.5037 543.57227
1614.3052 539.4455
1615.3224 535.0692
1610.6313 535.9609
1609.9668 531.9201
1609.8036 527.7209
1614.664 526.92676
1614.3965 530.9425
1619.259 532.82416
1619.207 538.1643
1620.2216 542.0973
1615.3674 544.6102
1619.2056 546.1337
1620.836 549.7422
1623.4138 552.576
1622.5236 555.99255
1626.8347 557.2385
1627.4995 554.0351
1630.5375 554.86053
1633.2683 557.338
1633.6322 553.71735
1634.3542 550.4717
1637.4928 552.68024
1637.3408 556.4127
1641.6166 556.1461
1643.8251 553.17786
1647.2488 556.3937
1647.3158 550.5524
1651.3341 553.13434
1653.742 556.9968
1655.9928 552.2054
1659.6871 556.3075
1662.9124 553.0645
1666.9883 550.7061
1668.6027 555.8109
1676.0249 556.2221
1676.9131 552.1739
1678.3113 548.46027
1675.8486 545.39514
1672.8022 551.81024
1670.8715 548.16345
1671.2617 544.05383
1667.0178 545.24445
1665.4089 541.15894
1665.314 536.3904
1660.511 538.1721
1661.1616 542.1407
1655.1785 541.81415
1657.5223 544.92413
1662.8787 546.80585
1658.769 548.976
1652.2737 547.1616
1646.3549 545.7984
1649.4341 541.60345
1653.6934 538.4528
1649.4292 535.1125
1645.9639 533.03235
1652.9921 534.8726
1653.9727 531.00476
1654.4568 526.07367
1644.2361 524.282
1640.2758 520.78217
1645.1287 518.54095
1643.5679 513.98706
1647.8306 513.0279
1652.3757 511.18854
1655.9657 511.25098
1659.3778 509.69064
1662.4221 508.4903
1668.5853 511.53427
1670.7189 515.5209
1667.4412 518.35535
1664.4568 513.7096
1660.3983 513.68335
1655.2476 516.0963
1655.8057 521.13416
1662.6035 518.7963
1662.5796 527.1914
1658.4633 529.24493
1657.5258 535.21924
1662.2467 532.6742
1668.351 533.24854
1670.7139 529.7854
1666.9404 527.8332
1668.5258 522.7826
1672.9794 521.97314
1675.8005 520.3053
1677.7894 523.34674
1676.0303 526.36316
1672.4801 525.8616
1674.9435 529.95044
1674.0814 533.04755
1677.5883 534.1534
1677.3176 538.3217
1672.7751 536.53265
1669.5165 539.38544
1674.3845 541.1615
1679.7488 541.7024
1684.4626 538.5158
1683.8679 542.3221
1681.8251 546.2275
1684.7363 550.76917
1680.7722 553.26855
1683.937 556.36816
1689.2816 555.50604
1693.7406 554.9724
1697.6904 555.9839
1702.5908 557.762
1702.5626 554.3587
1699.2913 552.035
1694.9751 549.81696
1696.327 544.8203
1698.9789 548.0222
1702.8884 549.2217
1705.1921 551.73315
1706.5201 555.29724
1709.7957 556.951
1709.9479 552.2205
1707.43 548.7227
1705.799 545.5587
1701.7632 545.3885
1699.5819 542.20337
1703.8142 541.50995
1704.359 537.1513
1700.3031 537.92426
1696.4502 538.9824
1693.365 541.3879
1691.8165 545.6224
1690.1935 550.55035
1686.8518 547.23816
1687.3778 544.02423
1688.5518 541.09924
1690.6644 538.65784
1688.1229 536.11914
1684.3823 534.3226
1680.9579 536.4387
1680.7686 532.051
1678.8098 529.0053
1682.4296 528.689
1685.72 526.14014
1689.4192 525.9392
1685.4934 530.81134
1689.0322 532.1962
1692.6974 530.5468
1692.842 535.61646
1696.5037 533.71594
1700.8998 533.5667
1704.722 531.6343
1701.9625 529.1579
1697.9775 529.125
1699.3923 524.1139
1703.028 525.42236
1705.8513 527.34094
1708.8452 525.201
1709.6962 528.1657
1708.296 531.29297
1707.5475 534.72437
1708.8665 538.35736
1707.7029 541.884
1710.7412 543.92883
1711.2212 547.42474
1713.6838 550.2745
1717.284 552.4592
1713.8353 555.6254
1718.1912 557.0053
1721.259 554.2889
1724.8142 552.1961
1725.1486 556.80835
1730.464 556.43567
1728.6232 553.4623
1731.5382 551.14044
1733.911 553.6227
1735.3362 556.3687
1738.6656 556.3743
1742.2319 556.62024
1744.6433 554.25964
1746.8309 557.9076
1747.8845 553.8949
1746.3713 549.66473
1742.0879 544.26196
1737.9563 539.41077
1742.4667 539.3708
1747.2881 538.84607
1747.703 544.5224
1752.2756 542.6426
1754.404 547.12964
1750.2643 549.7283
1750.7905 556.60187
1755.2678 556.3326
1752.2941 553.89545
1754.1725 551.3626
1757.3553 551.7023
1759.4844 556.05835
1764.142 557.28845
1763.5364 553.35504
1767.5144 554.5383
1767.0538 550.88055
1767.4664 546.96063
1770.8501 549.69073
1772.0493 553.47394
1770.3986 557.0379
1775.3129 556.8659
1775.7646 553.121
1774.9093 549.60016
1778.8232 550.3232
1780.5652 547.1976
1776.6267 545.87024
1772.8124 545.75934
1769.6057 543.3314
1771.2756 539.59174
1774.9402 540.9207
1778.8894 540.28284
1779.3029 543.73846
1783.1436 544.56805
1783.0862 541.6529
1786.6965 543.3643
1787.4736 540.68976
1782.605 538.7286
1786.6997 537.42395
1786.6719 533.8892
1790.717 534.3567
1791.0065 538.7463
1796.0487 537.9832
1794.4213 541.24976
1791.4071 543.21716
1789.3098 545.6182
1786.7686 546.63794
1784.4869 547.51965
1782.8196 549.81665
1782.2031 553.0468
1778.7827 554.3687
1780.768 556.99347
1784.6329 555.968
1788.1505 557.0968
1788.5474 553.6287
1785.6766 551.71643
1788.5112 549.8497
1791.1882 548.1904
1793.7715 546.57416
1796.4138 544.07056
1799.341 541.0903
1803.4584 541.33673
1801.618 536.4805
1804.8638 532.86633
1809.4403 535.5877
1807.2762 539.2109
1813.0768 537.58905
1813.5347 541.67706
1808.9955 544.1202
1805.2329 545.6234
1801.4496 545.994
1798.0171 546.9584
1799.7438 550.04694
1803.7612 550.15295
1806.5242 553.3466
1803.3186 554.5349
1800.624 553.1833
1797.8308 554.4098
1796.1953 552.11365
1795.1171 549.45233
1792.2941 552.04224
1791.6975 555.4194
1793.1462 557.77325
1795.6697 556.1072
1799.9397 557.024
1804.3413 557.50214
1808.7208 557.0668
1810.3784 553.9432
1813.9333 556.1511
1819.0432 556.48553
1816.9282 552.7248
1816.5929 548.54297
1812.3668 550.6738
1808.0852 549.278
1812.836 546.1498
1817.8052 544.0506
1820.5033 540.4389
1817.702 537.68585
1822.6199 534.4687
1818.3887 533.0397
1819.5945 528.6724
1824.1495 528.8269
1828.3408 526.40137
1826.4775 531.6929
1829.2949 533.64746
1832.2222 537.08813
1828.2745 538.1696
1824.6006 538.08655
1824.9194 541.6447
1823.1768 544.3477
1821.1635 547.27747
1821.3105 551.35645
1823.7886 555.64
1828.7687 557.3103
1828.875 553.55804
1826.0242 551.1512
1826.0715 547.3808
1828.3477 543.8877
1831.3376 541.9012
1834.6326 544.39703
1830.9492 547.8203
1832.5254 551.602
1833.879 556.0801
1839.0283 556.358
1844.2595 557.35315
1844.5184 553.242
1848.281 551.46063
1846.5647 548.05853
1850.1499 545.51996
1852.3846 547.6482
1856.1385 544.31824
1852.8872 541.2489
1849.942 541.9936
1847.2163 543.5393
1844.6521 543.9856
1842.1111 548.49316
1840.5579 552.1547
1836.562 552.3793
1836.7458 548.1454
1841.8872 544.4082
1838.7219 544.013
1835.0581 539.79395
1838.8922 539.63275
1842.8855 540.0393
1846.6304 539.4708
1849.7955 538.1994
1852.7336 536.6895
1855.7517 539.5994
1857.6826 536.752
1855.153 534.2429
1858.6753 533.3112
1862.3551 532.14606
1861.9305 536.32245
1859.7961 540.2136
1861.676 543.12067
1863.4471 546.6481
1859.6194 548.6164
1856.0259 549.65875
1852.6685 552.2473
1849.1586 555.92737
1853.8037 556.3698
1858.2976 555.0932
1862.1721 552.994
1865.239 556.42285
1866.0676 550.4194
1869.9292 547.96606
1867.1788 544.0733
1869.9292 540.68536
1865.9072 538.3197
1869.9292 533.6798
1866.3102 533.46094
1866.1653 529.6559
1867.0547 526.5987
1869.9292 527.2591
1868.2649 523.5
1869.9292 521.5384
1870.9065 517.43445
1869.9292 513.5261
1866.906 511.64124
1871.1548 508.15118
1869.9292 502.00156
1865.7991 505.9952
1862.7651 501.99036
1858.6152 503.15198
1859.5107 507.3335
1862.7336 511.2236
1865.5344 515.54877
1866.6901 519.6271
1864.5082 522.25446
1864.3319 525.2235
1862.1874 527.4985
1859.958 529.7855
1857.2601 527.8791
1855.6433 530.6976
1852.1569 532.6588
1848.7654 534.3223
1845.1766 535.69745
1841.3624 536.02905
1837.0205 535.3223
1833.5569 532.98236
1832.2925 529.35205
1832.1631 525.53326
1834.2874 522.5243
1831.1719 520.7876
1826.3536 521.8302
1823.7871 524.705
1819.7162 524.13855
1815.166 523.015
1814.5107 527.5354
1814.1039 532.35284
1809.6122 531.8152
1808.6887 528.61584
1804.2435 526.2888
1809.5192 525.02783
1810.8485 521.45447
1813.9498 518.56744
1817.6238 517.36487
1819.8582 520.3121
1823.6453 518.6857
1822.1381 515.02106
1819.2737 513.0147
1815.9021 513.0324
1812.6721 514.4774
1809.8531 516.84064
1806.3765 521.2417
1802.2692 521.04626
1799.1864 524.8867
1800.9468 529.7363
1798.3643 533.3404
1794.5609 534.40515
1792.5215 529.74994
1796.212 529.09064
1794.2177 524.5522
1791.0125 521.0091
1790.7722 516.72235
1786.8845 518.58466
1787.0007 513.7978
1790.6066 512.1652
1793.1962 510.0058
1788.4138 508.53305
1789.0691 504.3632
1793.0355 504.28363
1791.9542 501.04312
1792.1189 497.4004
1795.555 496.23956
1795.8644 492.68927
1796.0214 489.05563
1795.4253 485.022
1791.2141 485.27023
1791.0197 489.3739
1791.4006 492.9148
1788.7133 495.08636
1785.1924 495.91644
1788.3998 499.6745
1784.5437 501.67905
1780.4033 504.1573
1784.2045 506.6847
1783.7239 511.16586
1779.42 514.5049
1783.0298 516.179
1782.9272 520.60455
1782.3372 524.29504
1787.0126 523.4523
1790.2236 525.9729
1788.5869 530.10547
1784.9618 527.50885
1779.6177 527.51874
1780.847 531.42224
1784.3533 531.18475
1782.4878 535.25214
1778.181 536.4062
1774.1428 535.0108
1777.1826 532.0208
1774.8673 528.6842
1771.2803 530.64264
1768.3625 527.43475
1764.609 524.71173
1762.4814 520.7463
1759.1755 523.5766
1757.5267 518.187
1763.1641 517.0409
1765.7417 513.6561
1767.7595 518.8854
1769.5682 522.9086
1773.2258 524.69415
1777.3752 523.741
1778.26 519.3248
1773.1724 519.0324
1775.0955 514.26526
1779.2731 510.11276
1775.9801 507.71973
1772.586 509.59714
1770.2305 514.03375
1768.6199 508.4963
1764.9083 509.43402
1760.623 513.2464
1761.7617 508.01367
1759.9022 503.75867
1764.621 504.045
1768.3834 503.29074
1772.0944 503.656
1775.9783 503.6007
1776.7808 499.8178
1780.9767 498.7815
1781.0408 494.36914
1777.3457 491.41962
1772.5347 491.3301
1775.2687 495.75806
1771.0774 497.7054
1766.6815 498.47238
1762.2992 499.755
1757.2999 498.25943
1760.9683 492.85727
1766.4326 493.53503
1768.6241 489.4099
1772.2883 485.34027
1776.5134 485.3727
1780.7236 487.9223
1785.5841 490.90363
1786.106 486.52362
1785.1216 482.19806
1782.6289 477.3157
1785.559 472.89896
1789.5806 470.63882
1792.0286 474.52908
1787.4459 476.99548
1788.7991 481.78787
1791.7925 479.54807
1795.4695 480.56372
1799.6484 479.7377
1802.5016 477.29077
1804.362 481.20535
1805.6102 477.03903
1808.8435 478.5593
1810.6134 475.06577
1807.379 474.02283
1804.6106 472.14972
1801.2397 473.03677
1799.0648 475.64465
1795.6943 475.98428
1796.9272 471.02005
1793.8405 467.5808
1786.6964 465.46692
1790.3505 462.5688
1795.4788 461.51184
1798.6377 464.48184
1801.3096 468.56326
1806.4717 467.93393
1803.9657 464.35623
1807.8967 461.24652
1802.6476 459.47647
1797.4401 457.2621
1794.271 452.41736
1787.6835 454.96976
1789.8701 449.3291
1785.7239 442.86392
1797.1495 448.38187
1800.2759 445.0543
1803.5837 450.5268
1799.1188 452.53995
1802.3638 455.02817
1806.7146 456.3853
1812.035 457.49844
1810.1584 453.2747
1810.9617 449.41354
1815.8097 454.69153
1820.6083 457.1837
1817.4128 459.88388
1816.7161 464.56534
1813.2369 461.86484
1810.1016 464.91187
1809.5303 470.97885
1812.1388 467.96243
1815.7073 468.97946
1813.9463 472.24277
1813.9923 475.9291
1817.9108 473.90436
1817.3679 477.40115
1821.1217 478.69366
1822.5126 475.3825
1826.0422 477.19287
1829.1418 479.0921
1832.4233 480.41336
1828.8064 483.07355
1825.1091 481.26938
1821.7405 482.33405
1820.9203 485.32343
1823.7222 488.67123
1826.0911 485.78403
1828.1162 489.6156
1831.1638 486.4465
1833.5737 490.04175
1836.8569 486.72006
1833.9319 483.7868
1836.6107 480.62463
1840.863 483.0661
1841.5992 488.29214
1838.1263 490.94223
1840.9587 494.0029
1836.2454 494.65247
1834.7695 498.77832
1839.9128 498.35593
1844.7537 496.89243
1844.6052 492.70236
1846.7178 490.03262
1845.375 486.04074
1846.6521 482.02753
1847.1277 477.6762
1851.1809 478.15656
1853.7896 482.72266
1850.64 485.01962
1850.3574 489.20554
1853.5197 491.0915
1856.989 493.8463
1858.5544 489.93405
1856.3567 486.22974
1859.1763 482.46228
1855.5171 479.2541
1854.4224 474.7096
1851.4224 471.99957
1854.996 469.39642
1849.8813 467.7509
1845.3091 466.9997
1845.8994 470.48254
1847.3318 473.91074
1843.1322 478.48148
1839.4468 477.60916
1841.789 473.09485
1839.4952 469.08926
1842.0337 465.7483
1840.4749 462.31815
1844.5491 462.82736
1847.419 461.2546
1849.8918 463.19342
1853.1597 464.8281
1856.4844 465.506
1857.4907 462.17792
1860.939 461.068
1860.1384 457.3039
1856.2935 457.3913
1853.3674 460.16116
1850.4995 457.28616
1846.9625 456.3599
1843.7847 459.12918
1839.541 458.5686
1836.3931 452.97995
1833.5378 456.77292
1828.8381 456.39426
1830.1016 459.5286
1828.8792 463.0986
1825.6177 465.24255
1828.6309 468.08688
1831.1998 470.98602
1832.2168 465.41315
1833.7334 461.93964
1836.437 459.83246
1837.3572 464.87448
1834.5276 468.1176
1835.4979 471.8245
1836.8162 475.07138
1833.201 476.5702
1830.1361 474.7776
1827.0817 472.7372
1823.979 471.94815
1823.8796 468.76294
1820.2151 471.5791
1818.864 468.36603
1821.2745 466.22766
1821.4633 462.65976
1825.26 459.70956
1825.0836 453.2191
1820.5764 445.19437
1826.103 437.38632
1832.627 427.00333
1829.2788 431.4569
1840.3318 450.56348
1841.1555 455.46045
1847.7815 450.44672
1853.3286 447.44012
1851.4958 443.1456
1865.9297 435.4278
1866.49 442.5729
1869.9292 443.5958
1868.2938 447.70953
1862.491 447.78546
1857.3121 448.15982
1854.8007 452.6598
1859.7142 452.82132
1865.3721 451.32504
1869.9292 451.76917
1867.7565 455.697
1863.4763 455.19846
1865.0809 459.67783
1865.1458 463.68503
1871.2361 458.59192
1869.9292 464.1995
1867.6418 467.15195
1871.218 469.8717
1869.9292 474.70648
1866.4934 472.56564
1862.7793 475.2299
1861.9476 471.684
1863.8655 468.33948
1860.8157 465.4367
1859.2102 468.80386
1858.0618 472.4269
1858.3704 475.6923
1859.2563 478.58524
1862.8193 479.23563
1866.4922 477.4168
1871.1816 479.3342
1871.1194 484.28687
1866.7177 483.25885
1863.0654 484.83936
1869.9292 489.03244
1869.9292 495.2088
1866.4353 499.063
1866.1719 493.42807
1864.1055 489.01578
1861.9374 494.40884
1859.2081 498.1906
1854.0576 497.046
1849.6255 495.01123
1847.7821 499.72726
1844.0342 501.35226
1851.3835 500.4212
1855.1497 501.86285
1853.55 506.01926
1848.5017 504.55084
1845.7277 508.9736
1849.9312 509.82935
1853.749 511.5921
1858.06 512.02527
1859.9929 515.9429
1863.24 517.9928
1861.6246 520.41284
1860.867 523.58813
1858.3705 525.1819
1857.8962 520.2724
1855.0662 516.7722
1851.2249 518.26764
1848.4052 515.597
1845.0352 513.2677
1840.6125 510.35483
1840.2632 515.1502
1843.1913 518.65
1846.8247 521.5188
1851.3678 522.7645
1855.18 523.0691
1853.2432 527.12177
1850.201 529.73596
1847.7 526.22455
1842.2136 523.3089
1842.7128 527.58057
1845.8015 531.07184
1841.2642 532.0583
1837.4995 530.50305
1837.272 526.79834
1838.1399 523.32855
1837.8405 519.57294
1835.3888 516.65533
1831.9482 515.1873
1835.7352 511.81363
1833.6407 507.31268
1837.5481 506.88852
1843.4978 505.9776
1840.5519 503.6014
1837.0083 502.21124
1832.6086 503.12167
1829.4644 506.26495
1828.4689 502.43948
1829.6802 498.69833
1832.1746 495.49252
1830.3579 492.53055
1827.1797 495.12146
1824.6519 492.37335
1820.1631 491.8566
1819.3951 488.5898
1815.7286 487.71634
1816.2056 484.4017
1817.4614 481.16434
1813.0852 479.34088
1812.6349 482.94568
1810.9991 486.99323
1808.712 482.2822
1806.792 485.73895
1802.9935 484.93567
1799.2766 483.3766
1800.0776 487.63312
1800.3456 491.7871
1799.616 495.68423
1799.2528 498.97678
1795.7869 500.74875
1798.8241 503.4704
1799.4165 507.6099
1796.45 505.37585
1793.84 507.44458
1797.3503 510.4046
1798.689 514.0883
1794.7543 513.3721
1795.2277 517.24994
1796.3433 521.0924
1799.107 518.316
1802.1091 515.9367
1805.8503 516.69946
1804.6271 513.0529
1809.2937 512.21094
1807.6187 508.3783
1810.6694 507.1114
1813.0559 509.93954
1816.1648 507.43417
1819.1748 509.13153
1822.6388 510.01337
1825.6798 511.83408
1826.6418 515.3515
1828.696 518.24866
1829.3853 512.4772
1831.0151 509.89377
1826.085 508.2165
1824.9084 504.65067
1820.9695 505.68814
1822.0128 501.7587
1825.6133 500.31116
1824.1515 497.56326
1821.5493 495.45624
1819.0781 498.77664
1817.1274 503.05627
1813.4695 504.2551
1810.3036 502.49548
1807.4935 500.70877
1813.8616 498.7529
1817.0675 494.66992
1814.0908 490.81696
1812.4791 494.43118
1809.099 496.96942
1808.6581 491.76215
1804.3419 489.59515
1804.1039 494.40863
1804.5359 497.8804
1801.4795 501.08948
1804.118 501.84607
1806.7502 504.76306
1803.2959 506.37097
1801.4281 510.91653
1804.8906 509.71112
" />
</g></g></svg>
