<?xml version="1.0" encoding="UTF-8" standalone="no"?>
<!-- Created for Inkscape (http://www.inkscape.org/) -->

<svg
   xmlns:dc="http://purl.org/dc/elements/1.1/"
   xmlns:cc="http://creativecommons.org/ns#"
   xmlns:rdf="http://www.w3.org/1999/02/22-rdf-syntax-ns#"
   xmlns:svg="http://www.w3.org/2000/svg"
   xmlns="http://www.w3.org/2000/svg"
   xmlns:sodipodi="http://sodipodi.sourceforge.net/DTD/sodipodi-0.dtd"
   xmlns:inkscape="http://www.inkscape.org/namespaces/inkscape"
   width="3200"
   height="800"
   id="svg2985"
   version="1.1"
   inkscape:version="0.48.1 r9760">
  <defs
     id="defs2987" />
  <sodipodi:namedview
     id="base"
     pagecolor="#ffffff"
     bordercolor="#666666"
     borderopacity="1.0"
     inkscape:pageopacity="0.0"
     inkscape:pageshadow="2"
     inkscape:zoom="0.35"
     inkscape:cx="1600"
     inkscape:cy="400"
     inkscape:document-units="px"
     inkscape:current-layer="layer1"
     showgrid="false"  />
  <metadata
     id="metadata2990">
    <rdf:RDF>
      <cc:Work
         rdf:about="">
        <dc:format>image/svg+xml</dc:format>
        <dc:type
           rdf:resource="http://purl.org/dc/dcmitype/StillImage" />
        <dc:title />
      </cc:Work>
    </rdf:RDF>
  </metadata>
  <g
     inkscape:label="Layer 1"
     inkscape:groupmode="layer"
     id="layer1"> 
     <g>
<path style="fill:none;stroke:black;stroke-width:2px;stroke-linejoin:round;stroke-linecap:round;" d="M 
1612.5444 529.37775
1610.658 529.96405
1608.4678 529.67676
1606.8148 531.076
1605.5906 532.8393
1604.4153 531.3631
1602.7158 532.87836
1600.9043 532.4456
1598.9238 532.4433
1596.8215 532.1238
1594.8594 531.1074
1593.7522 529.80237
1591.9819 529.77423
1591.3613 531.92126
1589.5894 530.68884
1588.3896 527.79346
1584.8138 528.6165
1585.0068 531.0854
1587.2063 529.56
1587.6763 532.082
1584.8855 533.89734
1582.9558 535.0212
1581.2811 533.9519
1582.7601 531.84503
1581.3499 530.02704
1583.7325 526.3334
1582.2169 528.133
1579.3661 529.0163
1579.1243 526.3815
1580.8755 525.53204
1582.7185 524.4457
1585.2319 524.2615
1586.3364 526.6062
1588.0524 525.10864
1587.4034 523.2254
1589.9668 522.3815
1590.2856 524.408
1589.8142 526.4254
1590.516 528.5077
1591.7272 526.39166
1593.1617 527.83075
1593.8785 526.00195
1595.9559 526.18726
1597.6904 526.8064
1595.577 528.494
1597.3765 529.9067
1599.2828 529.13947
1600.9044 530.2768
1602.8912 530.1416
1605.2465 529.2646
1606.9258 527.9222
1604.91 526.3391
1603.4714 527.9067
1601.5236 527.5885
1599.7236 526.92206
1599.5122 525.004
1602.3639 525.4045
1603.2008 522.16876
1601.6696 523.39996
1599.844 523.1284
1597.5637 523.5439
1594.992 524.1674
1592.4669 524.03546
1592.9596 521.75684
1595.3696 521.9381
1597.145 520.4679
1599.7843 521.3527
1599.8602 519.28253
1602.1575 519.9092
1603.5405 518.0774
1604.8145 520.0047
1606.3237 517.68976
1608.34 517.695
1607.7896 519.3933
1606.8214 520.9233
1605.643 522.445
1604.6748 524.2039
1607.1923 525.41266
1609.4761 527.4362
1612.0426 526.9925
1614.6694 526.2912
1612.6277 524.57385
1613.9755 522.7079
1612.2031 521.6898
1610.5627 522.97205
1609.7645 525.06616
1607.9701 523.1263
1608.9338 521.1578
1610.3124 520.333
1611.9595 519.6514
1614.0527 520.1167
1613.0568 518.0319
1610.4907 518.1998
1609.6034 516.6271
1611.5802 515.9796
1613.5404 515.94073
1615.0972 514.5221
1617.572 514.48694
1619.3726 514.2461
1620.9406 513.26807
1622.9148 512.48755
1622.6508 514.47974
1620.9375 515.85815
1618.7695 517.06714
1617.0856 516.7515
1615.3805 516.3007
1615.6821 518.3623
1616.1952 520.4316
1616.0034 522.3437
1615.9662 524.39484
1617.0374 527.1083
1618.2076 524.87854
1620.2034 525.1114
1622.3042 524.4463
1623.8665 526.0396
1623.8752 528.3094
1625.936 529.0197
1627.9431 528.2044
1626.3939 526.95184
1625.5367 525.41565
1624.5105 523.5576
1625.4968 521.70526
1623.9548 519.73694
1622.8214 521.8475
1620.4573 522.4712
1618.2527 522.1375
1618.3977 519.5724
1621.0599 520.0799
1620.5447 517.9617
1622.6718 518.04364
1623.4667 516.1339
1625.0929 517.5739
1626.0886 519.38336
1627.4434 518.05493
1627.0432 516.42725
1625.4712 515.5814
1625.0122 513.9941
1624.7217 512.3077
1626.4792 512.13794
1627.7844 511.60617
1628.4908 513.2352
1629.7993 511.1149
1632.2864 511.00385
1634.4976 510.20837
1632.2263 513.76013
1630.4758 513.0665
1629.662 514.93665
1627.2743 514.5259
1629.0254 516.6433
1630.3479 518.25525
1631.3429 516.33234
1633.1595 515.5427
1633.7905 517.54614
1635.5441 516.4206
1634.8646 514.4019
1634.3599 512.4847
1636.4988 512.34534
1636.9065 510.33743
1638.3511 509.30637
1640.5659 509.4765
1642.1124 508.445
1644.523 508.36853
1646.6498 508.1084
1643.4634 510.5022
1646.074 511.06152
1648.3584 511.08536
1648.4634 513.36694
1649.4993 515.67523
1650.2959 517.5591
1652.5479 516.2858
1652.9803 518.30066
1654.5085 519.5537
1655.9843 518.44055
1655.383 516.62665
1654.9084 514.7548
1655.5536 512.1551
1656.8839 513.9642
1658.2926 515.26154
1658.6558 512.55786
1657.6525 510.86426
1656.3313 509.49792
1654.414 509.77454
1652.3805 509.9086
1653.3285 511.8234
1653.1414 513.8644
1651.0342 514.3608
1650.8556 512.222
1650.4502 510.13498
1648.7705 508.93274
1648.9926 507.1577
1651.185 507.79333
1653.314 507.60678
1655.5684 507.4813
1657.526 507.50308
1659.4071 507.0014
1659.1752 509.10178
1660.3458 510.68787
1660.7013 512.5431
1659.8315 514.5336
1661.487 514.4916
1663.1726 515.27
1664.7734 514.648
1662.5377 513.18695
1664.1583 512.87067
1665.1572 511.3257
1667.0771 511.75104
1667.8354 510.11633
1669.4159 511.23837
1668.9298 512.9648
1668.2098 514.4795
1666.3175 513.39014
1666.5282 515.55457
1664.9 517.10724
1667.2307 517.7718
1665.9662 519.6994
1665.8339 522.18115
1664.9467 524.7764
1663.2495 523.99335
1662.752 520.95404
1661.6366 522.63495
1659.5592 522.79614
1659.8356 520.5399
1663.2118 519.03754
1662.6608 517.1426
1660.7119 516.41534
1660.326 518.4724
1658.0242 517.18756
1657.6909 519.5672
1657.5747 521.9137
1655.7275 521.1569
1654.1707 522.53876
1653.0072 521.0512
1651.325 519.73865
1648.6641 518.7829
1647.3536 517.25024
1647.144 515.3823
1645.9773 513.7238
1643.9761 512.80817
1643.8083 515.0751
1645.087 516.7485
1646.1406 518.9019
1645.0791 520.4754
1644.3702 522.9436
1645.7113 524.56635
1647.5326 525.9781
1648.1171 528.3583
1650.4606 527.74567
1652.3002 528.5112
1651.754 530.31836
1649.5703 530.0447
1650.3104 532.0495
1647.9912 532.37006
1646.4778 530.66174
1644.2471 529.47205
1645.6519 527.5485
1643.7277 526.2799
1642.9941 524.62006
1642.4095 523.39154
1642.4208 521.9688
1643.4956 520.89075
1643.7775 518.8923
1642.9492 517.3498
1641.4529 516.4343
1641.7732 514.40845
1641.5432 512.0295
1638.9725 511.83524
1639.6853 513.968
1637.4124 514.6127
1639.4226 516.2552
1637.2638 517.2281
1638.7324 518.4544
1640.8107 518.51025
1641.7361 520.05115
1638.6462 520.3638
1640.2267 521.4057
1640.6792 523.3263
1638.4915 523.2072
1635.6926 523.5963
1636.6648 521.5716
1636.0273 519.3219
1633.6919 519.8191
1631.9696 518.89136
1633.7078 521.8649
1630.998 523.19037
1630.5961 520.95764
1628.8834 519.1664
1627.6769 520.7097
1628.1389 522.58655
1626.9453 524.3824
1629.1204 524.64215
1628.6871 526.54395
1629.8337 528.30554
1630.9877 526.02374
1633.1758 524.53894
1632.7343 527.2138
1634.5728 527.97375
1635.5189 525.80597
1637.7258 525.603
1639.5441 525.8516
1641.2372 525.6483
1641.9957 527.83734
1641.058 529.79474
1639.4653 531.70154
1639.0034 528.5879
1636.7913 528.0136
1636.5964 530.37744
1637.0361 533.00287
1634.5739 532.1172
1633.3948 530.2894
1631.6492 528.9905
1631.5786 531.7304
1630.0928 530.2454
1628.8394 531.59296
1627.8197 529.9216
1626.5509 531.52795
1624.7754 531.0016
1623.0653 530.71204
1621.5447 531.5569
1621.0652 529.2227
1621.7274 527.0259
1619.3081 527.8187
1619.751 531.4644
1617.9534 531.7279
1615.7517 532.81445
1615.7849 530.84955
1617.5745 529.4714
1614.7488 528.742
1613.5272 531.27625
1613.327 533.1368
1611.3323 532.5373
1609.7601 533.9237
1609.1072 531.9019
1607.625 533.62317
1605.9703 534.83325
1604.1692 534.2116
1602.8286 535.4665
1600.8262 534.84686
1599.2494 536.2052
1597.7338 534.529
1596.8809 536.68207
1595.0588 536.959
1595.3945 534.9273
1595.0754 533.2729
1593.1223 532.7292
1592.1592 534.63434
1593.3671 535.9957
1593.4983 538.1324
1591.2257 537.2797
1588.786 538.9444
1588.7445 536.5707
1589.8894 534.1125
1587.2249 534.4491
1586.2163 537.0636
1585.1833 539.5597
1581.724 540.9151
1581.934 538.9721
1583.739 537.2611
1581.1113 536.5722
1578.9612 536.2907
1579.2365 534.2224
1580.0471 532.3554
1578.9904 531.0627
1577.0474 530.6606
1577.658 528.2901
1576.5732 526.5531
1574.5187 527.036
1573.1866 528.8089
1571.5038 527.7266
1571.2649 529.87854
1571.1493 531.6676
1573.4348 531.098
1575.3578 529.29205
1575.308 531.68555
1577.1155 532.9934
1577.4369 534.93384
1575.5021 535.17896
1574.5168 533.34784
1573.3115 535.1358
1572.3064 533.6291
1570.4954 535.41565
1571.6827 537.1481
1573.8143 536.6707
1574.5294 538.0802
1576.0496 538.9159
1576.5103 536.7456
1577.6741 538.0139
1579.6653 538.47864
1578.2305 539.78284
1578.9724 541.246
1577.708 542.3965
1576.3508 541.1688
1575.0425 542.76544
1573.2433 542.0235
1572.6356 543.77985
1570.6117 544.3173
1568.6282 544.3304
1566.8528 543.5505
1567.6007 542.0457
1569.3066 540.69135
1569.4884 542.60626
1571.1267 542.0233
1572.2708 540.58453
1574.5123 540.4013
1572.8824 538.90955
1570.7771 539.35583
1569.368 537.7982
1567.8777 539.7412
1565.7448 539.2185
1564.8011 537.2046
1563.3967 534.94543
1565.6995 534.6256
1566.6456 536.61066
1567.2668 538.1485
1568.2965 535.786
1567.836 533.672
1570.0084 533.12164
1567.6489 531.3316
1568.832 529.07916
1565.2101 529.83905
1564.3696 532.3123
1561.327 531.1495
1561.1022 533.3654
1561.2139 535.99756
1562.8433 537.5959
1563.9216 539.4069
1561.0919 538.47424
1560.0798 540.0717
1558.3894 541.51434
1556.2657 541.1886
1556.8025 538.9455
1558.7173 537.8066
1556.272 535.80774
1558.9673 535.21985
1557.8047 532.52954
1554.708 533.18884
1550.6124 534.10077
1548.0331 535.2556
1544.8927 535.9158
1546.9519 537.427
1548.3888 539.33203
1551.0453 539.1829
1550.6322 536.9098
1552.881 534.9778
1553.9309 537.52686
1554.1746 539.87103
1554.2983 542.35315
1552.7264 543.58496
1552.1562 541.20544
1549.8342 541.79626
1547.2667 542.07495
1547.9741 544.2407
1549.6663 544.5291
1551.3424 544.2592
1549.5608 547.3816
1551.4263 546.56683
1553.5011 546.2995
1554.5663 544.6526
1556.0736 545.7709
1556.3309 543.39386
1558.1082 543.95715
1558.715 545.80396
1559.9933 544.94403
1560.1711 543.2866
1560.8572 541.7405
1562.7826 542.668
1562.925 540.7476
1565.9937 540.9591
1564.8076 542.42316
1565.4412 544.29126
1566.7463 545.3821
1564.2463 545.08057
1562.9955 546.3057
1562.2477 544.23566
1561.3389 545.7102
1560.9357 547.07874
1559.2445 547.6137
1557.4646 546.5719
1557.3809 548.01465
1555.4015 548.04724
1553.4067 548.5349
1551.4441 549.289
1548.842 549.9199
1546.6907 548.7911
1545.8787 550.5354
1544.3593 551.59814
1541.5667 552.23724
1539.564 551.59204
1537.6484 552.76154
1536.9348 550.36005
1534.2985 549.43384
1535.1371 547.1789
1537.2794 547.9651
1537.1768 545.81036
1537.5851 543.7355
1539.5134 546.6315
1538.9941 549.098
1540.9099 549.7794
1541.5812 547.9393
1542.9528 550.2275
1544.1497 548.2532
1547.2672 546.6825
1545.7551 544.39996
1544.3553 545.98413
1541.9653 545.9061
1539.9822 544.2612
1542.3531 543.5514
1544.2863 542.225
1545.9055 540.26654
1544.1665 538.9442
1542.3876 537.22595
1540.0049 537.2507
1539.9491 539.4458
1541.8606 540.8191
1539.1819 541.9807
1536.0408 541.82544
1537.3894 540.165
1537.465 537.9952
1534.875 539.17114
1533.9144 541.5841
1535.3182 544.1905
1533.59 544.84937
1531.6854 545.4636
1530.361 543.8469
1532.0842 542.60065
1532.488 539.5179
1530.49 540.21136
1529.3501 541.6031
1527.2406 540.65625
1527.2903 542.19727
1526.5802 544.17004
1528.4253 543.7099
1528.6533 545.6273
1528.2753 547.6511
1526.4156 546.80273
1526.5278 548.99744
1524.6742 548.3174
1525.2417 545.3484
1523.3917 546.4492
1523.3142 549.7265
1521.4336 551.14056
1520.7424 549.56366
1521.6088 548.0053
1521.0096 546.4121
1518.7759 546.09973
1521.158 544.6838
1523.48 544.0547
1525.314 542.7341
1524.6927 541.32434
1522.661 542.08777
1520.7444 542.7554
1518.7312 543.46204
1516.6187 544.3022
1514.4243 544.8749
1516.6178 546.80383
1514.8376 547.7217
1516.5211 549.3088
1518.8503 548.36884
1518.6445 550.58246
1518.3031 552.4554
1520.7352 552.8087
1519.7456 554.8476
1521.8401 555.3242
1523.5098 552.1582
1525.3395 551.4196
1526.913 550.545
1529.0054 549.58923
1530.3647 547.1829
1532.8179 547.5257
1531.3218 549.32306
1534.9672 551.6608
1534.8441 553.7822
1532.0178 554.1476
1532.6 551.4993
1530.4371 551.5325
1529.3729 553.31177
1528.0149 551.8337
1526.6101 553.7831
1529.3464 555.4345
1526.8159 556.2042
1524.109 554.51465
1524.5839 556.95856
1522.6466 557.4575
1520.4796 557.6334
1518.6207 558.5366
1518.6483 556.16113
1517.1074 556.7067
1516.2668 558.6074
1515.0786 559.92004
1513.6649 558.9251
1513.7708 557.43274
1515.43 556.4933
1516.0808 553.5517
1513.7911 553.0022
1511.9313 552.5311
1515.8489 551.45483
1514.108 550.2718
1512.2448 550.327
1512.7485 548.83344
1513.3113 547.03357
1512.2053 545.2403
1511.6957 547.4168
1510.5513 546.51276
1509.4185 545.5683
1509.1259 547.5815
1507.5289 546.7881
1505.6799 547.07385
1505.8898 549.05164
1507.6763 549.3212
1506.4049 550.70544
1507.8608 551.57135
1509.315 552.3931
1509.6039 550.7704
1509.0934 549.2364
1510.6675 548.9176
1511.1279 551.05634
1510.4897 553.4483
1508.8851 554.2512
1507.5657 553.7042
1506.3475 552.86176
1505.11 551.8348
1504.2583 553.6124
1502.6339 554.8439
1502.8467 552.7415
1501.4155 552.6325
1500.5115 551.23615
1502.0704 550.3221
1503.8723 550.8555
1504.0455 548.97076
1503.655 547.3323
1501.9185 548.4285
1499.7959 548.3373
1499.3489 549.8637
1496.8004 549.4408
1498.161 551.601
1499.4492 553.04565
1500.8021 554.93146
1498.8746 555.0275
1499.4438 557.1037
1501.3961 557.3081
1503.467 556.52057
1505.561 554.6739
1507.352 555.5778
1511.5359 558.27704
1511.3751 559.65826
1512.9358 560.4223
1511.0645 561.25433
1509.6411 559.80505
1508.6611 561.4814
1507.2646 560.31244
1508.5995 558.63074
1505.3683 556.374
1505.612 559.4368
1505.0621 561.35864
1506.154 562.3803
1503.3564 562.8965
1503.582 560.4045
1501.7332 560.5682
1501.2825 562.3536
1501.0493 564.2455
1499.1387 563.46924
1497.6411 564.76666
1496.894 562.6874
1499.5835 561.3613
1497.1564 556.9002
1495.3822 558.28046
1493.6023 557.9277
1495.2124 556.02893
1497.1934 554.3681
1495.1915 553.679
1496.2181 551.79803
1494.0184 550.74976
1492.9973 553.8252
1491.6499 551.5672
1488.8954 551.95667
1490.1676 553.9533
1490.9685 555.7772
1493.0658 556.12317
1491.4811 557.95844
1489.4076 557.59753
1486.9889 557.4972
1487.7743 559.3912
1488.6404 561.20154
1490.4523 560.042
1492.4856 559.64197
1494.1636 559.733
1494.1077 563.17865
1495.611 565.03656
1493.61 565.70667
1491.514 566.08356
1491.2666 563.73944
1487.4065 563.02374
1488.9944 565.13574
1489.5446 567.3285
1486.7382 568.1265
1486.6176 565.5256
1484.3856 566.77454
1482.4708 565.4579
1483.5347 569.0363
1480.3335 569.6968
1478.2109 570.5646
1476.2847 570.9299
1477.5432 567.7242
1481.1245 567.689
1479.619 565.38745
1481.4464 563.2145
1483.1177 561.82477
1484.6415 563.7847
1485.6284 560.9721
1484.7484 558.47516
1485.589 555.9429
1488.0317 555.2065
1486.5156 552.63684
1484.8647 554.16394
1483.2698 553.07336
1480.7455 554.22595
1482.9242 555.8452
1481.9165 557.8104
1482.4143 559.98486
1479.6162 559.4135
1477.0579 560.1034
1479.3174 562.06555
1477.1102 563.305
1475.4679 565.0378
1474.9196 562.13873
1474.0952 560.4521
1472.3308 559.49005
1475.005 558.5018
1476.9003 557.18945
1479.5509 556.7472
1477.9788 554.73425
1475.155 555.3674
1473.369 557.3277
1471.979 556.178
1469.5565 556.4046
1467.307 557.36084
1466.3313 559.32465
1467.1427 561.2226
1465.6177 561.99164
1464.3325 563.4071
1462.0298 563.96295
1460.1965 565.9141
1458.0671 564.86035
1458.0016 567.1154
1461.8965 567.1164
1464.2297 565.5709
1467.1875 564.8181
1468.6918 562.7026
1468.6577 559.7849
1470.4962 558.1429
1470.4397 560.5804
1471.7678 562.26685
1473.3752 563.99835
1472.1677 565.89075
1470.2504 564.4082
1469.6566 566.63824
1467.802 567.51624
1465.7174 567.31793
1463.4991 568.391
1462.2706 571.2064
1459.9735 569.02344
1459.9634 571.4076
1458.0387 572.0285
1456.639 571.0777
1456.7058 573.5743
1454.8741 573.00977
1454.0966 574.85645
1455.2635 575.8126
1456.5201 576.88873
1456.5946 575.18524
1458.0056 575.50494
1459.5619 575.38165
1459.21 573.5509
1461.3248 573.81354
1463.4901 573.3181
1464.7672 571.4421
1466.6014 571.168
1468.1697 570.27527
1470.0107 570.3382
1471.9602 569.6102
1474.3293 568.02185
1474.4664 569.92664
1473.9962 572.13794
1471.4673 572.645
1468.995 573.1869
1466.8239 574.1698
1464.854 574.9368
1462.8285 575.9043
1460.7693 576.43256
1458.7222 577.40314
1456.9807 578.3718
1455.3354 578.31775
1453.9021 577.135
1452.5797 576.0845
1451.9258 574.6504
1452.486 573.16547
1453.4292 571.8133
1450.5599 572.86487
1449.7039 575.0594
1447.3932 576.01935
1446.8029 574.3051
1444.6351 574.17163
1443.8933 575.8986
1446.156 577.8323
1448.7324 577.91736
1450.7158 576.90894
1452.1093 578.21265
1454.022 579.07166
1452.4404 579.95593
1450.3074 579.8213
1447.896 580.5588
1445.3279 581.89355
1442.3236 583.4857
1438.9148 584.38336
1439.041 582.23676
1437.1544 581.2116
1436.5616 583.2859
1435.6488 585.4201
1433.1688 585.943
1431.208 587.12
1429.6901 585.81476
1430.538 584.3921
1431.9281 583.331
1431.3984 581.1503
1433.3512 580.43134
1433.6951 583.1884
1434.9733 581.7325
1435.4987 579.5761
1433.4569 578.2998
1434.6842 577.00433
1436.7253 577.988
1438.0261 579.5801
1439.7572 578.95184
1440.3337 580.45605
1441.1873 582.22943
1442.8312 580.5821
1445.024 579.7229
1443.5096 577.88184
1441.9681 573.9328
1442.7771 571.98676
1443.3102 570.09674
1445.2144 569.6662
1446.5372 568.4337
1447.1035 570.4592
1445.1157 572.04834
1447.1096 572.3208
1448.7495 573.14374
1449.0695 570.85565
1451.233 571.0678
1450.377 569.1874
1448.2682 568.3751
1449.7552 567.1324
1448.1394 564.97064
1450.5352 565.24335
1452.311 568.04285
1452.8524 569.9665
1454.8495 570.1394
1457.1372 569.0088
1454.8698 567.6447
1452.9218 565.83826
1454.031 563.7073
1455.8228 565.40247
1457.56 562.75037
1459.8671 563.3238
1458.9845 561.1435
1461.2085 561.2522
1463.4397 561.0435
1464.5234 558.3273
1462.292 558.9442
1459.9086 559.1886
1457.3328 560.02545
1455.7191 562.4321
1454.935 560.475
1452.6855 561.27594
1451.6989 563.23553
1449.6241 562.2873
1447.3575 562.76855
1445.2711 562.996
1445.1792 564.7399
1446.7168 566.3377
1444.9065 567.0499
1443.2777 568.097
1442.8762 565.8381
1443.02 563.62994
1440.9132 564.6498
1438.8259 565.22797
1436.2358 565.9141
1433.2849 566.09344
1433.6178 567.7971
1435.4235 568.8243
1434.0474 570.7804
1432.9762 572.571
1434.9884 573.3433
1436.0322 571.47253
1437.7904 569.6044
1438.3184 567.61865
1440.9895 567.3975
1440.722 569.7171
1440.2708 571.9441
1438.151 571.76874
1437.2996 573.865
1439.5374 574.1398
1441.2136 576.0368
1441.5242 578.2734
1439.1389 577.5455
1438.8354 575.9481
1437.1031 576.22546
1435.642 575.25476
1433.5286 575.09595
1431.798 576.5624
1431.4639 578.94495
1429.3466 579.0982
1429.2484 580.7744
1429.7518 582.66187
1428.0465 582.0017
1427.368 579.61285
1426.7373 577.7199
1428.1925 575.91614
1429.6088 577.272
1429.7516 574.6058
1431.6569 574.195
1430.8108 571.976
1432.1066 569.8515
1429.6704 569.84375
1430.8135 567.39575
1428.1038 567.9457
1427.3634 570.1656
1428.7257 572.35205
1427.1375 573.41724
1426.5322 575.0348
1425.0654 576.318
1422.8038 576.09503
1421.9629 577.99036
1420.1936 576.73254
1420.1582 574.90186
1422.034 573.849
1420.3956 571.9219
1422.1411 571.334
1423.7463 572.17957
1424.4166 574.1444
1425.9996 572.0469
1424.8969 570.4677
1425.4386 568.5183
1423.0347 569.1928
1420.8124 569.6273
1418.7184 570.5302
1419.1654 573.2222
1417.1354 572.70184
1416.5457 570.8348
1414.3044 571.33765
1413.99 573.0589
1413.8496 575.549
1415.7598 574.4958
1417.857 575.20844
1416.7219 577.114
1418.5894 578.4735
1420.5127 579.2761
1422.5901 579.82904
1424.2399 578.2809
1425.5453 580.0484
1423.9261 580.78253
1425.0103 582.3618
1426.5648 581.92834
1425.0111 584.0618
1423.0762 585.2576
1424.6932 586.2603
1426.2285 585.46265
1427.7623 584.02765
1427.4558 586.3399
1428.6992 587.6566
1427.685 588.99304
1425.3226 589.7589
1424.6587 588.04285
1422.9023 590.6048
1420.9825 588.84393
1421.8505 586.9148
1421.2124 584.12665
1423.0536 582.80896
1421.3914 581.5687
1419.2856 580.9993
1417.0048 580.3529
1415.1138 579.1547
1413.4008 577.98193
1411.5352 576.8026
1409.2655 577.7235
1408.231 579.19867
1409.6289 575.68964
1411.3662 573.99963
1411.4667 571.8361
1408.2527 571.8305
1408.6439 573.8526
1406.183 573.8483
1405.2643 571.86914
1403.6462 573.7881
1402.3302 571.90125
1401.4783 574.47424
1404.2819 575.972
1407.0449 576.11676
1405.8341 578.1576
1403.7006 580.13336
1403.0281 578.29095
1401.7113 576.7015
1399.2014 576.07855
1399.5521 577.94916
1399.9019 579.5624
1401.529 580.6964
1402.4576 582.48486
1404.472 582.1641
1405.8372 580.50476
1407.5474 581.2987
1409.5786 581.35187
1411.245 579.6573
1412.897 581.29535
1414.8572 582.3568
1415.9967 585.0713
1417.0798 582.77686
1419.1569 583.1889
1419.0596 585.59375
1418.4176 587.8147
1416.09 587.72675
1416.6063 590.74615
1414.3247 589.52747
1412.0134 588.9272
1410.1261 589.5169
1411.4991 591.6319
1408.7928 591.28534
1409.5555 593.4591
1412.0071 593.8782
1414.1013 591.6735
1414.0328 593.59534
1414.6813 595.15234
1416.1692 593.3865
1418.9021 590.3696
1420.563 592.0879
1418.3326 593.3582
1416.3885 595.86334
1413.8076 596.2654
1413.7274 597.81305
1412.9564 599.6196
1411.5508 602.216
1409.5674 601.62134
1410.8755 598.9308
1411.7034 596.20276
1409.7177 595.9129
1408.4755 597.80115
1406.3734 596.8261
1404.2892 596.3598
1405.7938 598.9836
1403.7732 599.2492
1403.6495 601.2317
1404.9534 603.16364
1406.4358 601.5405
1408.1825 599.9578
1408.379 603.4515
1406.7618 604.84357
1410.0072 605.0447
1411.4143 607.0038
1409.467 607.77
1406.45 607.0717
1405.0305 608.8982
1403.1703 610.138
1401.3514 611.0428
1401.1637 613.0072
1403.3335 612.6636
1403.6584 614.5744
1403.0939 616.15186
1405.6239 616.10333
1404.9348 618.11676
1405.6632 620.3218
1407.7322 619.34814
1407.8328 617.07874
1410.4052 617.19446
1408.0189 614.6187
1405.831 613.5736
1405.8356 611.2675
1408.0225 609.34906
1408.5063 611.7468
1411.3452 610.77185
1410.3804 613.70496
1412.373 614.8943
1413.1228 617.99524
1413.2974 620.6817
1415.0029 620.75305
1414.7992 622.7629
1416.1666 623.9466
1416.2786 626.08435
1415.8217 628.48584
1413.7635 628.326
1412.3025 627.03015
1414.3965 625.5437
1413.181 622.9258
1412.7458 624.92285
1410.7701 625.1363
1411.6155 623.0404
1411.3767 619.99817
1409.2446 620.46643
1409.9905 622.4627
1407.4004 622.521
1408.7087 624.8689
1410.2611 627.56366
1411.5175 629.69275
1413.1459 631.12885
1414.1553 633.2395
1416.1608 632.75916
1415.1995 630.5093
1417.3593 631.2325
1417.7216 629.5287
1417.7677 627.2964
1419.4813 629.0556
1419.85 630.998
1418.7394 632.94135
1417.9386 634.92865
1416.0131 635.26935
1418.5127 637.38873
1420.3499 635.0981
1421.4119 632.78564
1422.874 635.1279
1420.6067 638.07574
1421.4539 640.1267
1423.5865 640.8882
1423.058 637.983
1425.0514 636.6073
1425.2347 638.9445
1427.02 640.03845
1427.5013 637.9183
1429.2002 639.6915
1431.0372 641.1739
1431.1774 642.9511
1428.448 641.72797
1425.87 641.5259
1424.4043 643.143
1426.8947 643.78204
1428.9728 643.76953
1430.6893 645.3763
1432.8876 646.532
1433.7054 643.7817
1436.345 645.12256
1435.285 647.6223
1437.9373 649.2986
1438.5588 646.7533
1440.9163 647.80963
1443.6631 647.94415
1440.4169 650.78107
1442.7583 650.5364
1445.0132 651.67285
1447.8431 651.57794
1450.3121 651.1619
1445.9426 649.0888
1448.3365 647.64984
1450.758 642.22375
1451.4148 648.1143
1453.1003 651.55096
1455.9292 651.62103
1454.6327 648.4709
1457.6016 649.01715
1459.8783 649.3981
1461.8328 649.34656
1458.4869 651.98444
1460.5612 651.6792
1462.2327 651.9721
1463.4222 650.28235
1464.268 648.53094
1464.4539 651.83484
1466.7183 651.54205
1465.6498 650.03455
1467.0563 648.95013
1469.0624 651.2354
1470.1356 649.9688
1468.9253 648.2824
1471.7119 648.27454
1472.8125 650.61505
1474.2477 648.2206
1476.2056 650.1886
1477.3729 647.9439
1479.9069 649.8541
1480.6975 647.5568
1483.1631 646.87897
1483.985 649.3917
1485.9111 646.90234
1487.4482 648.1677
1489.9174 647.90497
1490.347 645.60535
1492.5171 647.25995
1495.4111 647.65814
1494.8232 645.4902
1498.2781 644.42114
1498.9951 646.29144
1502.9397 646.10266
1502.8556 643.8807
1506.6694 644.0825
1510.1111 643.08923
1515.1029 642.115
1519.801 640.62506
1524.1307 639.4024
1526.5176 637.1751
1527.4812 638.72925
1528.9626 639.1533
1529.5269 636.7372
1531.4603 635.43555
1531.6652 636.8651
1531.2389 638.7444
1533.1102 637.57947
1533.7305 635.34424
1534.9946 637.31635
1536.7278 636.2342
1536.1915 634.1402
1538.9915 633.15607
1539.0215 635.6152
1541.837 635.1616
1541.1672 632.8235
1543.2401 631.4528
1543.7988 633.68463
1545.6617 633.91895
1546.2607 630.82153
1548.0444 632.40216
1550.306 629.0876
1551.2965 631.3919
1554.6062 630.4635
1555.0887 627.20667
1558.6041 628.95685
1560.3617 626.27106
1563.0868 623.8319
1565.7662 625.8338
1567.1039 621.80316
1570.3629 623.9664
1570.98 620.3475
1574.3027 622.4268
1574.3315 618.8244
1580.4136 618.1833
1587.5441 614.8185
1591.233 611.643
1595.0657 611.14404
1594.2039 608.6895
1597.0927 608.5554
1598.3558 609.9554
1600.2941 608.2296
1598.5878 606.99524
1596.967 605.8634
1600.3853 606.35913
1600.4233 604.76337
1599.3566 603.3081
1597.7212 599.69037
1601.7637 601.36206
1602.9595 595.76196
1606.718 592.6864
1610.1139 589.3683
1613.2688 591.0884
1613.8573 593.6706
1610.9053 593.80023
1611.4021 596.3937
1608.5122 595.84827
1608.9523 598.0719
1606.1891 597.7886
1603.5295 599.42865
1604.631 602.1613
1602.2246 603.33044
1603.6572 604.5942
1602.5344 606.00385
1602.6467 607.5524
1605.6489 604.78326
1607.2378 602.6786
1605.939 600.03174
1608.0693 600.10187
1609.8677 601.0765
1611.5859 598.8927
1614.4646 596.5951
1616.94 593.5213
1615.9697 590.1103
1618.9001 590.76636
1618.3898 587.3564
1621.2623 588.8526
1621.6523 586.1557
1624.4415 585.68085
1623.615 583.83704
1622.277 581.9505
1620.235 584.17944
1614.3964 584.44946
1618.7291 579.81647
1620.9458 575.43005
1625.0367 569.8122
1626.0817 566.86395
1627.2642 563.9176
1628.8645 560.6094
1633.859 563.46826
1635.2794 561.41846
1637.6155 559.39746
1638.2358 561.8747
1636.9967 563.9789
1635.2588 565.4338
1633.0793 565.90234
1631.6228 567.258
1631.4813 569.22345
1629.9321 570.7091
1632.0369 571.3816
1630.988 573.6843
1628.7882 572.97534
1628.2509 575.31586
1626.4333 577.29297
1624.3711 579.5298
1624.8938 581.61566
1627.0015 582.76587
1627.4802 579.94556
1629.617 578.2982
1631.8145 576.1899
1633.962 574.0708
1634.2952 571.15094
1636.5927 570.093
1633.3871 568.5213
1635.2643 568.16486
1638.0477 567.08154
1639.6536 564.61615
1641.0016 562.28766
1640.2184 559.93945
1642.5688 560.2984
1645.2045 559.39557
1644.4087 557.70953
1644.9592 556.2769
1642.6729 557.9097
1640.5049 557.5039
1637.3837 556.8203
1635.5862 558.5687
1637.6859 554.8848
1639.5393 553.2936
1637.7004 552.1764
1639.3882 550.1407
1640.0745 547.77637
1640.3969 545.2143
1633.825 547.92163
1630.9907 556.6536
1632.704 551.95996
1634.7915 543.8788
1637.2693 539.80554
1639.1938 534.6404
1641.6348 533.60657
1642.8909 531.51587
1644.8019 533.14575
1646.9901 534.65094
1646.6367 537.29767
1647.3711 539.65594
1645.4365 539.7073
1644.4155 537.6797
1644.5122 535.52716
1641.7943 535.8642
1642.1616 537.774
1642.9473 539.64136
1643.6013 541.40796
1645.3677 542.1563
1641.7312 542.65656
1643.081 544.68384
1643.962 547.1498
1646.2969 548.2877
1646.6421 550.2661
1645.6865 552.08765
1643.8347 551.7403
1643.5393 549.5744
1641.7367 552.0833
1641.6042 555.5209
1643.1619 554.1304
1645.0728 554.20306
1646.7722 554.7579
1647.763 552.59155
1648.9307 550.4805
1650.8678 549.64435
1649.9531 548.0675
1648.6263 547.1903
1646.77 546.10455
1644.8623 544.74567
1646.7092 543.91064
1647.8882 542.4226
1648.8306 540.8109
1649.372 538.44446
1648.7332 536.3456
1649.6855 534.23865
1651.9612 534.0352
1653.3025 535.4198
1651.1881 536.4351
1651.3672 538.97034
1653.5591 537.6316
1655.6055 538.98914
1657.9778 537.76447
1658.4061 539.6481
1656.3553 542.1182
1654.2936 541.62476
1653.0625 540.15076
1650.687 541.23175
1651.8037 542.90076
1650.0272 543.7576
1648.8358 545.0348
1651.5227 545.9922
1652.8 548.2284
1654.3263 546.23047
1653.477 543.95044
1656.0627 544.3465
1659.076 542.56335
1661.9366 541.2489
1661.1104 538.25415
1663.952 536.73566
1663.6317 539.18774
1665.6917 541.2148
1666.3215 538.9736
1666.9342 537.0473
1663.7628 534.032
1666.2261 534.498
1668.7317 533.4223
1669.7197 531.33136
1667.3698 531.1098
1665.1211 531.7972
1664.7931 528.96606
1662.5743 530.3298
1661.6603 532.75903
1661.4092 535.33545
1659.3513 536.2111
1658.807 534.1235
1659.354 531.9757
1660.1506 529.92883
1656.9775 532.2013
1656.6177 534.03973
1656.4009 536.46747
1655.13 535.38995
1654.5619 533.4389
1652.2368 532.1613
1653.8564 532.05884
1655.4023 530.83716
1653.7493 530.1177
1654.1404 528.1155
1657.3905 530.2689
1658.3589 528.5987
1658.4016 526.74475
1656.0688 528.32196
1656.2854 526.0823
1654.2668 526.0318
1652.1776 526.12775
1650.1143 525.5991
1648.9905 524.05426
1647.721 522.81177
1646.044 522.0221
1647.5083 520.5763
1649.4275 520.56647
1650.3066 522.04675
1651.6521 523.2846
1653.3904 524.2807
1655.7856 523.757
1657.6838 524.29193
1659.4585 525.0437
1661.3977 525.17645
1660.7878 527.55963
1663.2745 527.184
1666.8094 528.19214
1668.9369 528.7967
1670.9313 529.4004
1671.9432 531.3416
1673.8535 531.96063
1671.3098 533.32196
1673.4133 534.20856
1673.1602 536.7224
1671.2544 535.7073
1668.7224 535.53827
1669.5771 537.74585
1668.9824 540.16693
1671.6908 538.91406
1674.2834 538.52594
1675.2982 536.7366
1677.0511 537.3161
1679.0325 535.74585
1677.2202 535.2883
1675.3097 534.821
1675.635 532.7748
1677.5646 533.264
1679.5564 533.64667
1680.8732 530.089
1682.9753 530.2385
1681.4417 531.99536
1681.3359 534.1182
1685.0314 536.38873
1691.086 535.5641
1693.1196 535.75446
1693.3995 538.1851
1691.108 538.0192
1692.5271 539.949
1691.5548 540.888
1692.6611 542.8319
1694.2551 543.2927
1695.1515 541.8283
1696.6555 542.2145
1696.8435 544.0422
1695.2047 544.7539
1693.686 545.48627
1695.1221 547.2086
1696.5897 545.8446
1697.7808 547.0591
1698.1068 548.9303
1696.0985 548.9519
1697.2938 550.8222
1699.148 551.0023
1700.4906 553.0753
1702.9978 554.818
1709.0704 556.687
1713.1145 559.728
1715.974 560.4426
1717.0687 558.97864
1718.9979 560.23157
1720.6907 558.8792
1721.9789 559.8744
1722.9293 558.0896
1724.3066 559.53033
1725.3197 557.31006
1726.6827 558.99054
1728.0945 557.26086
1730.1786 557.42944
1732.9016 557.0847
1735.5461 556.3012
1738.1426 556.0318
1738.2556 554.281
1735.9192 554.0943
1738.0022 552.4861
1740.7 553.8946
1742.813 552.70776
1746.1558 552.9507
1748.5679 551.75635
1746.8619 550.7711
1746.7203 548.65643
1748.6797 549.79193
1748.6351 548.0249
1746.9686 547.0884
1744.9182 549.5287
1744.5776 551.532
1742.1436 549.617
1739.8901 550.81354
1737.0437 547.594
1736.9468 551.0294
1734.9836 552.0156
1730.6744 549.64124
1733.4214 552.98553
1733.7854 555.06885
1731.44 555.3971
1731.6167 553.20776
1729.387 554.3958
1727.4586 554.44916
1725.8086 555.24493
1724.0457 555.3451
1722.8251 556.42676
1721.3989 554.8327
1721.0328 556.7853
1719.3181 557.43866
1718.4215 555.4659
1717.182 557.1309
1714.8544 557.3494
1711.879 557.4863
1705.5814 553.478
1701.3303 550.62885
1699.8984 547.81476
1698.8574 545.27795
1698.5543 543.1796
1698.2614 541.17334
1697.7471 539.3214
1695.8312 539.6598
1694.0671 540.5824
1695.2227 537.493
1697.4229 536.97894
1695.9193 535.67175
1697.1322 534.0948
1694.6294 534.40894
1694.2136 532.9523
1691.9486 533.02136
1692.716 530.1742
1694.3171 531.2556
1696.4882 532.2875
1697.0276 530.68646
1695.0818 529.3347
1694.0913 527.26074
1696.4302 527.9464
1697.86 528.98065
1697.0747 526.20074
1694.6973 525.11896
1695.2715 522.85345
1697.4177 523.995
1698.2603 521.4392
1695.5315 520.57495
1696.6387 518.8507
1695.9719 516.48193
1698.3751 515.7565
1699.3804 518.4634
1701.0966 515.62305
1699.3619 513.26526
1701.9194 512.8899
1702.7583 511.05386
1704.7245 510.90173
1704.2062 508.81238
1702.3347 508.4884
1700.3066 509.8447
1698.5125 511.4151
1697.0311 510.40628
1696.318 513.5404
1694.7008 510.90775
1692.591 512.29504
1692.5269 510.14044
1691.793 508.291
1690.0652 509.03757
1690.0159 511.32715
1687.9973 509.1877
1687.3206 511.31714
1685.4498 512.309
1685.2362 509.3791
1686.6091 507.23853
1682.9946 509.7876
1681.168 511.15363
1679.1655 510.06854
1679.6923 512.91565
1678.852 514.46356
1679.8635 515.62787
1681.5465 515.7129
1681.7108 513.67487
1683.4718 512.23773
1684.3018 514.6323
1683.0555 516.41003
1685.0651 516.83405
1686.2312 518.4488
1686.7987 516.1374
1686.7566 514.09375
1688.7173 513.4931
1690.7557 513.868
1689.004 515.9282
1688.2052 518.0753
1688.112 520.23706
1686.565 520.3539
1686.1251 522.4105
1684.6654 523.8411
1685.2657 526.2784
1683.8762 525.79663
1680.5295 524.79364
1681.8483 526.4251
1683.9775 527.71655
1682.2859 528.3641
1680.3618 527.9871
1679.5657 526.4373
1678.0801 527.6289
1676.7773 528.9368
1678.8728 529.5086
1678.8911 531.5335
1676.7101 530.9521
1674.846 529.9872
1672.9088 529.7565
1673.2214 527.94885
1675.1699 527.7663
1676.5281 526.2883
1674.496 525.7294
1675.1854 524.15344
1677.2468 524.2113
1678.2947 525.46875
1678.9443 523.631
1679.8 522.23944
1681.8022 523.1803
1682.718 524.6455
1683.6964 521.94495
1684.8066 520.1955
1683.8259 518.31104
1682.7 519.92755
1681.4692 521.21545
1679.5862 520.2791
1677.646 521.676
1676.2605 522.8589
1674.9456 521.63135
1674.9984 519.7656
1673.7332 518.4041
1671.5444 518.73395
1672.2078 521.0726
1672.9413 523.30676
1672.5508 525.70526
1670.9502 527.11646
1668.8629 525.99
1666.8196 525.3058
1670.2935 523.9488
1668.8867 521.6762
1669.3163 518.8878
1669.2302 516.35077
1670.883 514.5623
1672.1571 516.19214
1674.2278 514.3661
1674.5148 516.4971
1676.3784 517.8221
1677.133 519.79156
1678.7852 518.6793
1681.575 518.48846
1680.2604 517.5421
1678.2711 516.7527
1676.5492 515.68024
1677.0367 513.9765
1676.2931 512.605
1678.5079 511.90427
1677.1354 510.7169
1675.2146 510.19843
1674.4873 512.0785
1672.719 512.5101
1670.9961 512.2337
1672.637 509.7711
1670.2072 509.56232
1670.8491 507.46735
1668.0724 508.16647
1665.9567 508.96762
1663.3452 508.0348
1664.0547 509.67978
1662.608 511.1035
1661.5099 508.93274
1661.6556 507.00296
1664.4451 506.65262
1666.5405 506.22498
1668.6573 506.1122
1670.1726 504.69617
1672.7576 503.40378
1675.2354 502.6801
1677.4178 500.73593
1680.1675 497.58725
1680.878 500.61917
1680.0057 503.19858
1679.2744 505.55215
1676.4028 505.22284
1672.763 505.49008
1673.5294 507.31323
1675.4133 508.04495
1677.6958 508.07184
1680.2177 508.31903
1681.9924 507.1968
1684.1693 506.5807
1685.877 504.61536
1682.7317 504.30182
1683.8928 501.87292
1686.7932 502.4928
1686.2715 500.2067
1686.0728 497.58664
1683.4167 498.65665
1683.1066 495.3638
1685.638 494.4302
1688.1918 494.9487
1687.6395 492.46417
1690.0123 491.1597
1691.9042 491.83362
1690.2206 494.33368
1692.1062 493.75754
1693.1846 495.8351
1694.5717 497.63437
1694.175 500.07178
1693.9829 502.27722
1696.3147 501.75464
1698.1184 502.72156
1702.684 502.37885
1702.3855 504.44766
1700.0448 503.76102
1699.5914 505.89188
1697.6179 505.20828
1695.5875 504.3171
1693.3452 504.52945
1690.7715 504.44443
1691.3746 502.4454
1691.5897 500.41663
1692.3844 498.489
1690.9346 496.88312
1688.4604 497.069
1689.2765 498.98752
1689.0072 501.08826
1688.7562 503.49048
1688.3687 505.55646
1689.5857 506.99045
1691.985 506.2239
1693.8822 507.73004
1695.791 506.60507
1696.0261 508.68787
1698.5044 507.91833
1701.3699 506.78003
1704.3231 506.05096
1706.0044 508.24054
1707.5883 507.1057
1707.261 505.06503
1705.5836 503.9248
1705.4996 501.95312
1705.5994 499.5161
1707.6279 499.21188
1707.8647 501.153
1708.6755 502.9
1709.4508 505.17987
1711.2755 503.97195
1711.1025 502.09573
1713.2625 502.1472
1712.2996 500.10226
1711.6003 498.0158
1710.1605 500.28424
1709.3304 498.41467
1709.3644 496.60754
1710.7595 495.7429
1712.653 496.16345
1713.5568 494.63678
1715.435 495.708
1714.2557 497.27335
1713.9417 498.9346
1714.5408 500.73422
1716.3816 500.46262
1716.1013 498.7782
1718.3177 498.89728
1719.2856 497.10077
1716.9824 497.07434
1717.4406 494.92807
1719.3748 494.0298
1721.1082 492.70163
1721.261 496.06003
1723.316 494.768
1725.0392 493.50824
1722.945 491.39322
1725.0476 490.85123
1726.8407 493.06082
1728.6787 492.7026
1730.1005 491.7691
1731.1045 490.5995
1732.9592 490.3742
1734.5226 489.03894
1732.9846 488.3653
1731.386 488.59308
1729.7827 489.29858
1728.9191 490.65372
1727.2704 491.38235
1726.6912 489.7593
1728.0773 488.6367
1726.2682 487.766
1724.188 488.5454
1722.0209 488.87112
1719.8926 489.97012
1718.1411 490.98944
1717.1205 492.81918
1715.18 493.58472
1713.5208 492.55423
1712.2888 491.49722
1710.4924 492.3478
1711.5745 493.95065
1709.0238 494.0803
1707.3583 492.70477
1705.0984 492.01703
1702.6792 492.86984
1704.0868 494.08084
1704.3091 496.14716
1706.3173 494.6074
1707.7384 496.134
1706.2751 497.38266
1703.524 498.1016
1703.479 500.461
1701.3002 498.81796
1700.4084 501.25543
1698.5256 499.8155
1696.3689 499.32355
1696.8481 497.1622
1699.3933 497.37042
1701.7496 495.81042
1700.8848 493.09387
1699.7366 494.4686
1698.2074 495.47775
1695.7507 495.19797
1697.2466 493.60687
1696.3167 492.15665
1694.3247 493.5665
1694.6108 491.40442
1693.1675 490.68472
1692.5936 489.45218
1695.0553 488.70285
1697.0928 488.1386
1696.2445 490.0636
1697.7354 490.78595
1698.8177 492.33142
1700.1196 490.91473
1698.9016 489.7343
1699.4678 488.28693
1698.4126 486.74783
1700.2559 486.5533
1701.6725 485.44907
1703.6392 486.14627
1703.5676 484.12128
1705.8613 483.93304
1707.5659 483.10516
1709.4271 482.024
1712.8796 480.35098
1715.1876 479.99173
1716.3422 481.9039
1715.5514 483.483
1716.6196 485.0912
1714.9498 486.18893
1713.02 486.78833
1712.2407 484.82755
1713.7548 483.1124
1711.5449 482.20493
1709.6694 484.2575
1710.3031 486.4494
1707.9657 485.88208
1705.6202 485.8828
1704.4762 488.0349
1702.4803 487.58194
1701.4106 488.9377
1701.5438 491.018
1702.9331 490.69464
1704.023 489.8593
1705.8511 489.72977
1706.4568 487.62973
1708.074 488.51697
1707.3201 490.7102
1709.2125 491.0345
1709.8225 488.81732
1711.5378 490.03116
1711.7195 488.14755
1713.9579 488.54755
1714.0337 490.36084
1715.6818 491.30222
1716.144 489.04254
1717.4698 487.69156
1719.9404 487.489
1722.1321 486.26532
1724.5562 486.32986
1726.6376 485.57333
1726.5222 483.9177
1724.8364 483.7546
1723.4723 484.7227
1722.6229 483.29446
1724.0083 481.50525
1721.9236 481.3387
1722.2568 479.33334
1719.75 480.67624
1720.0754 482.36172
1721.1042 483.79526
1720.0511 485.01212
1718.4048 485.7413
1718.231 483.32788
1717.8743 481.10562
1717.5117 479.52127
1717.6659 478.21576
1719.8022 478.8911
1720.2013 477.20917
1722.4515 476.8901
1724.7628 475.3318
1724.5521 477.53342
1725.0981 479.1274
1726.182 480.32834
1726.3096 482.18497
1728.4341 483.2613
1728.2368 486.34348
1729.5887 487.51028
1730.9656 486.45905
1732.9413 486.18494
1734.72 487.02377
1736.3044 488.4311
1737.5675 487.2444
1738.0112 485.11917
1737.1582 481.47073
1735.7053 479.77704
1734.4626 478.00366
1732.513 476.69415
1732.2458 474.4802
1730.0276 475.95096
1731.3806 478.65845
1733.3464 480.7604
1731.6864 482.44153
1735.4698 483.10208
1735.7959 485.3797
1733.4789 483.99414
1731.3689 484.39377
1729.5573 484.64334
1730.2611 481.05554
1728.1638 480.88284
1728.6755 478.59866
1727.2352 476.84174
1727.5676 474.4232
1729.9746 473.36624
1732.1276 472.41742
1733.8735 471.3895
1735.7405 471.09518
1734.2145 473.33646
1735.9038 473.97775
1734.3722 475.58008
1736.4104 476.2101
1737.9374 478.1564
1739.8881 480.4837
1739.0814 483.02988
1740.3524 485.99576
1741.457 483.68597
1743.5197 484.08954
1745.0448 482.93582
1746.988 482.40927
1748.3796 480.85257
1749.916 481.4603
1750.482 479.67062
1752.417 479.84283
1754.2579 478.42426
1756.143 478.03757
1757.9337 477.22656
1755.919 475.94272
1753.4354 476.3353
1751.9773 478.15488
1751.3124 476.76462
1749.638 476.22495
1749.1764 478.51187
1747.3046 478.8474
1746.5323 480.5115
1744.7273 480.15353
1742.5964 480.70193
1741.0966 478.0568
1740.0625 475.99228
1738.0625 474.94867
1737.2981 472.69485
1737.6943 469.87598
1740.3043 469.8161
1739.0486 471.57397
1739.6686 473.62863
1741.5575 473.14218
1742.9395 475.16592
1744.6926 472.4327
1742.6205 471.27686
1741.792 468.51965
1743.4642 467.78262
1745.1754 467.32126
1746.5227 466.1893
1748.087 464.85052
1748.8374 466.6742
1750.2266 468.21396
1752.5609 468.70416
1752.2861 465.5449
1750.6047 464.36496
1753.4932 462.6435
1756.1387 462.8067
1754.7854 464.59222
1754.4536 466.82428
1755.5349 468.891
1753.572 470.93518
1750.6505 470.97278
1747.6918 471.42114
1747.4312 468.95035
1744.838 469.98502
1745.6549 473.98358
1743.648 477.53552
1745.7291 477.84402
1746.1383 475.78067
1747.9421 476.78958
1748.1157 474.13992
1749.9746 473.27023
1751.3815 474.97183
1752.3896 473.30023
1754.3585 474.69867
1754.5176 472.80286
1756.3706 471.24722
1758.839 471.13568
1758.7301 473.10712
1756.5712 473.58823
1758.0221 475.1324
1759.6407 476.26178
1760.3645 474.37912
1761.5416 475.8422
1763.2805 475.18637
1762.2198 473.7285
1760.8584 472.30032
1762.785 471.52698
1760.9097 469.99863
1763.1213 469.36984
1764.7273 470.27274
1766.4312 469.40112
1764.8491 467.4483
1762.49 467.53314
1763.2983 464.9973
1765.6521 465.07327
1765.4563 462.54532
1763.1196 462.28824
1761.0144 461.95175
1761.102 464.31253
1760.6724 466.15866
1760.0684 467.98038
1758.1234 469.25452
1757.764 467.07355
1757.1383 465.20746
1759.0009 463.98682
1758.8914 461.8849
1757.1088 461.14996
1759.8745 459.8684
1762.3827 459.6673
1764.3035 458.1621
1767.1458 457.7434
1765.5294 460.10486
1768.0405 461.12497
1767.9615 463.49695
1767.9016 465.85986
1767.3544 467.6493
1770.0487 467.61548
1768.9755 469.36713
1768.452 471.0529
1766.4524 471.57507
1764.6318 472.20905
1763.9962 473.73486
1765.9683 473.5306
1768.2435 472.777
1770.8284 471.04016
1771.5543 469.37006
1772.632 467.81445
1773.5844 469.86227
1775.9768 469.15378
1774.8151 467.96002
1775.2268 466.24506
1773.5735 466.09198
1773.053 463.84314
1771.6884 465.84766
1769.8759 465.212
1770.6826 463.10046
1769.6984 459.87753
1770.547 457.95935
1769.1108 455.9991
1771.3226 455.3914
1773.1942 454.3509
1775.1128 454.3937
1775.6132 452.62778
1776.986 454.49225
1778.553 453.6024
1779.2456 451.70914
1781.7327 450.61942
1784.095 450.05914
1785.8362 448.24362
1787.0953 449.55008
1788.5211 451.00388
1786.3939 451.8167
1785.8481 453.63397
1786.559 455.68173
1788.4707 454.08282
1789.9008 452.706
1790.5597 450.93124
1791.9431 449.8926
1793.1443 448.52002
1791.9973 447.3096
1790.1266 448.74356
1788.5481 447.35748
1791.2466 445.76212
1793.9749 445.42398
1796.4614 445.8634
1796.449 443.59702
1798.8746 444.3205
1799.4158 442.18756
1801.4824 441.0817
1803.2861 441.94006
1803.436 440.0189
1804.7007 440.8856
1805.8307 439.33545
1807.4615 438.136
1806.2266 441.69363
1808.1245 441.4186
1810.6586 442.05466
1809.5908 443.9625
1812.3264 444.10437
1813.5304 445.9828
1815.5208 447.68842
1815.5918 445.81992
1817.5311 445.27066
1816.0597 443.99142
1814.3479 443.78998
1813.134 442.20248
1812.3374 440.4221
1810.2572 439.84113
1808.696 438.9271
1810.4177 436.9826
1812.5481 438.1817
1813.1063 435.4911
1814.9995 436.5321
1816.169 433.97134
1818.7969 432.62576
1820.8245 431.3316
1822.2563 432.20544
1820.9211 433.503
1820.1136 434.98145
1818.3375 434.62775
1817.1135 436.267
1815.3796 438.66864
1814.4305 440.2867
1815.5249 442.12274
1816.7925 440.77344
1817.5728 438.28656
1819.2395 436.8021
1820.2708 438.55936
1821.3335 436.99377
1822.0463 435.3848
1822.9596 433.76154
1824.1929 434.95053
1823.5879 436.92328
1823.9895 438.59897
1822.3003 439.35156
1820.5461 440.62244
1818.5914 439.76392
1818.7705 441.68356
1817.6758 443.0879
1819.3242 444.07147
1820.6356 442.7917
1822.3761 441.80725
1824.2614 441.9549
1824.6826 440.22302
1826.6124 440.54816
1825.8665 438.30048
1828.2886 438.7592
1830.323 437.23343
1827.3906 436.6874
1825.9246 435.3939
1828.2214 434.15967
1826.1232 432.97388
1824.3885 432.14267
1823.1763 430.4269
1825.2207 429.38855
1826.8346 430.61703
1828.9551 431.36465
1831.467 431.4399
1830.6677 434.17892
1833.0482 435.87604
1833.5542 432.97345
1835.9736 434.01846
1835.5063 430.8325
1837.6376 431.35593
1839.866 431.64264
1841.2722 433.31998
1842.9025 434.44504
1840.6804 435.88245
1840.0737 438.2458
1838.8105 433.98358
1837.4369 436.34296
1834.7979 437.78882
1832.6941 439.34454
1837.4282 439.16232
1835.2411 440.9029
1832.7236 441.843
1830.4595 440.3693
1828.4833 440.99524
1830.5797 442.90317
1828.3134 444.45413
1828.3853 442.86978
1826.2609 442.6859
1825.8448 445.00467
1823.8135 444.04404
1821.6979 444.7088
1823.24 446.40536
1820.8623 447.5254
1819.8965 445.71072
1818.6997 446.95413
1817.187 447.57336
1818.6558 448.8636
1816.6362 449.47443
1815.2339 450.51932
1814.3157 449.2307
1813.7305 447.7248
1811.9811 448.11044
1811.1648 445.846
1809.7725 447.40656
1808.0535 446.27225
1807.0356 444.0996
1805.7943 446.99127
1805.6365 450.21985
1807.5376 449.2155
1809.4788 449.60153
1811.2109 450.05203
1812.9294 450.31586
1813.3522 451.66733
1811.3375 452.0873
1809.366 452.3876
1807.3693 452.2252
1806.6266 454.5348
1804.8708 453.3396
1803.0132 452.68378
1800.7178 453.52374
1802.8579 455.71405
1800.2448 457.2275
1799.0808 455.3067
1797.5327 453.91895
1798.061 452.03778
1799.4829 450.7143
1800.8495 448.66812
1801.522 450.93723
1803.5449 450.32513
1803.6632 448.22955
1802.5623 446.58456
1804.2095 445.08078
1804.8341 443.27545
1802.0594 443.25278
1801.2913 444.82904
1799.9966 446.42245
1798.4851 447.64645
1796.7742 448.2249
1794.9744 448.22385
1793.9578 450.2108
1795.2197 451.1147
1797.2067 450.09354
1795.7794 452.78278
1793.4677 453.33286
1792.6007 451.7071
1791.609 453.70575
1790.8025 455.60446
1791.47 457.8861
1793.392 456.49762
1794.6675 454.66446
1796.1526 456.21082
1797.8701 457.7771
1796.2638 459.32455
1794.4802 458.53622
1793.4434 460.34775
1791.3008 460.2123
1790.4099 461.8544
1789.4236 459.22348
1788.3724 456.99484
1786.019 459.0692
1787.57 460.24863
1787.938 462.77438
1785.4064 462.67126
1782.4371 462.93427
1781.3309 461.02448
1781.106 458.51385
1783.726 460.02087
1784.5784 457.36227
1782.3834 456.2555
1784.018 454.85223
1783.6847 452.4027
1781.4331 453.2516
1780.3246 455.4191
1778.7426 456.85236
1776.6348 457.13174
1774.7451 456.31696
1772.9266 457.13
1772.9841 459.29224
1771.7738 461.22284
1774.2096 461.62366
1775.5739 459.3125
1778.3606 459.62372
1779.1393 462.05835
1776.5928 461.96765
1775.2595 464.06445
1777.6499 464.10175
1776.7346 465.89185
1777.3384 467.80728
1778.669 466.01788
1779.4097 467.4538
1781.2931 466.44943
1779.8093 464.22308
1781.6488 464.93454
1784.3066 464.86136
1809.8812 505.28198
1807.9705 507.58255
1805.661 509.83264
1809.103 509.2475
1808.6736 511.19595
1806.6256 512.4932
1805.5353 514.37683
1803.9232 513.4594
1801.8049 515.3994
1800.5382 517.53577
1798.4629 518.7577
1796.3469 518.8703
1792.9668 519.74994
1795.0956 521.1466
1793.8586 523.152
1791.0222 523.3529
1788.3115 525.65
1786.0083 527.4006
1783.865 529.1943
1781.8241 530.3003
1779.8533 531.73016
1777.7932 532.96515
1776.0115 533.99475
1773.8406 534.7005
1772.1915 536.3199
1769.2976 537.7696
1766.3417 539.2621
1763.9856 541.06976
1761.7683 541.13715
1759.8357 542.4554
1759.3713 544.3607
1757.444 543.2305
1757.0302 545.01886
1754.994 544.7943
1753.9954 547.0517
1752.7961 545.41644
1751.5411 546.7939
1749.7327 546.6089
1750.5769 548.703
1750.6743 550.71466
1752.6487 549.24713
1754.9084 548.78564
1756.554 547.3376
1758.5613 546.62463
1760.7083 545.8039
1762.3604 544.0946
1765.0975 543.64435
1767.0515 541.85535
1769.7272 540.4211
1772.3969 538.9193
1775.1873 538.2133
1775.3127 536.0783
1777.6765 536.1071
1779.6674 534.6244
1781.9247 534.2536
1782.6597 532.6062
1784.6642 532.0391
1786.2161 530.43726
1788.3823 529.3149
1790.693 527.74426
1791.6207 525.48413
1794.0967 525.71844
1796.5977 524.10846
1796.7336 522.1774
1798.1025 520.9405
1799.5724 522.2877
1800.3214 520.20996
1802.3062 519.7464
1803.4045 517.8439
1804.5779 516.0142
1805.5894 517.573
1806.8494 516.087
1807.8999 514.95074
1808.8801 513.8854
1810.1206 512.8386
1811.7188 512.0841
1811.5264 510.02158
1813.6652 510.4476
1814.2805 508.65228
1816.1597 508.01685
1817.6493 506.26328
1815.1794 505.25873
1813.2396 507.06573
1811.0208 507.81226
1812.0748 505.31094
1812.621 503.06967
1817.1077 503.0763
1819.0742 504.49863
1821.0536 503.88898
1819.8197 500.91266
1821.4586 498.57272
1822.4608 501.21658
1824.4819 499.56827
1826.0769 497.08374
1823.3358 497.34937
1823.5768 495.28033
1823.4396 492.98285
1826.1019 492.09818
1826.6233 494.80338
1828.8782 494.3131
1830.433 492.01657
1831.7604 490.29834
1827.9938 492.14905
1828.3785 490.14966
1824.166 488.2849
1828.1385 487.93207
1829.8291 488.67148
1831.4866 487.99777
1833.3208 488.2436
1835.0258 486.13412
1833.1455 485.99084
1829.8948 486.5618
1831.2661 485.50885
1832.251 483.77728
1833.9751 483.0687
1833.2666 481.23682
1835.0715 479.17627
1835.4454 481.25665
1835.3582 484.30124
1836.7551 482.7353
1837.3958 480.73788
1839.0752 479.99106
1837.6993 478.57562
1836.0232 477.21414
1837.4855 473.82986
1837.6703 475.92816
1839.5684 477.8155
1840.3079 476.3274
1841.7966 475.73148
1841.9067 474.03564
1842.9387 472.40756
1840.742 472.20398
1839.5847 474.28235
1839.084 471.46457
1840.616 469.45462
1842.541 470.328
1841.8038 467.42667
1843.9092 468.4137
1844.5792 470.279
1845.9327 467.61322
1844.3865 466.2733
1842.4568 465.2297
1843.937 463.80475
1845.9214 464.6384
1847.2717 465.80972
1847.8654 463.4268
1849.7981 459.98846
1847.5737 459.17886
1848.1178 461.3197
1846.0609 462.36176
1844.0896 461.91068
1845.3411 460.13065
1845.9077 457.8511
1848.17 457.08228
1850.2991 457.75067
1851.4915 456.02536
1851.8298 453.88235
1851.3281 452.04602
1849.6251 454.95496
1847.0896 455.28046
1848.3701 453.10394
1848.5701 450.67554
1850.0352 451.0945
1849.9583 448.46915
1850.0764 446.1705
1850.8761 444.07315
1852.4479 443.39542
1853.3508 445.40817
1851.7617 446.33188
1852.7352 447.84204
1851.9221 449.85236
1853.4974 452.1053
1854.0056 449.81088
1854.8567 448.02246
1855.4392 446.39978
1855.5513 444.77298
1857.0559 443.83923
1855.9443 442.4062
1854.2798 443.59976
1853.6067 441.8756
1855.1431 440.60107
1853.6294 439.85486
1851.3912 441.67514
1852.0326 439.43503
1846.604 435.83832
1843.0559 437.13434
1844.7982 435.47015
1846.8956 433.72226
1848.7711 435.04733
1851.2488 434.94943
1854.3005 433.5491
1853.9834 435.41278
1852.5542 437.00415
1854.3513 437.6044
1856.0198 438.65558
1856.977 440.30484
1858.1772 441.5984
1858.9182 438.92093
1860.5168 437.17316
1860.8054 435.06696
1862.4104 434.30283
1860.8665 432.83344
1858.796 433.43048
1858.6594 435.48578
1857.1047 437.00064
1856.3401 435.07886
1856.4441 433.34995
1854.9423 431.61
1853.3052 431.54453
1852.1779 433.10965
1849.9698 433.14578
1848.0005 432.16977
1849.4136 431.14514
1847.8167 429.75568
1849.6357 429.09097
1849.8643 427.32974
1851.679 428.22437
1851.0364 430.91586
1852.2573 430.1145
1853.4314 429.32278
1855.0009 429.60876
1856.7112 430.30713
1856.4238 431.85052
1857.9056 431.7336
1859.4489 431.3976
1858.9304 429.59866
1860.8394 430.31552
1862.214 431.28287
1863.4456 432.5939
1864.0126 430.8398
1864.8995 429.061
1862.7883 429.25415
1863.6138 427.43756
1862.2773 425.939
1862.8485 423.87177
1864.7532 425.15662
1865.6849 426.8835
1866.4187 423.7264
1866.7957 421.15472
1864.7501 419.70328
1867.0562 418.64084
1866.6555 416.3464
1864.5195 417.30157
1862.5178 418.0201
1860.5862 419.0071
1859.9565 420.8488
1862.6858 420.64713
1864.4337 422.34854
1861.253 422.3252
1860.4099 424.14465
1858.4327 422.99225
1857.9551 420.24756
1857.8057 417.7833
1855.6003 419.28595
1855.8676 421.16495
1856.0237 422.7507
1856.2474 424.23557
1857.0677 425.47745
1858.3696 425.87943
1860.1826 426.04855
1861.113 428.0947
1858.887 427.7412
1857.1821 428.67688
1856.047 427.8221
1855.5964 426.65515
1853.9109 427.75183
1852.9604 426.32834
1851.2051 426.02127
1850.8552 424.13855
1852.411 424.2922
1854.7899 425.64645
1854.145 424.3506
1853.6123 422.75635
1853.4097 421.16074
1853.3002 419.45807
1852.5305 417.79263
1853.0815 415.48373
1855.1249 417.34647
1855.4419 415.22507
1857.6818 414.7486
1859.0192 415.85504
1860.31 417.06445
1861.739 415.91406
1863.281 415.15576
1865.2563 414.6271
1864.0121 412.85318
1861.8342 412.83685
1860.7919 414.38373
1859.2522 412.7555
1862.0292 410.8666
1859.9504 410.13998
1858.3674 408.35416
1857.3628 410.5814
1856.2795 412.8856
1853.5127 412.8393
1851.1201 413.44193
1850.9426 416.0269
1848.9208 416.3396
1850.1438 418.18475
1851.1506 420.0338
1851.1482 422.0345
1849.4226 423.33148
1848.2081 421.9343
1849.0332 420.21472
1847.8756 418.54608
1846.333 420.5494
1845.6532 422.42538
1844.794 424.42886
1846.1592 425.80594
1847.4395 424.1637
1849.0415 425.57825
1847.6472 427.4046
1845.3237 427.54938
1846.1267 429.38333
1846.0566 431.4472
1844.7573 433.16156
1843.7478 431.6231
1842.0034 431.33237
1841.0535 429.53986
1842.7146 429.3906
1844.419 429.66916
1843.2354 427.67657
1843.1337 425.69818
1840.927 425.48917
1840.7345 427.4405
1839.1207 429.46182
1838.1836 427.7373
1835.7244 428.43384
1832.9744 427.7122
1833.2219 429.84128
1830.3816 429.09418
1827.8623 428.06784
1830.1992 426.94876
1831.3608 425.812
1832.7722 425.27484
1834.2643 424.57047
1834.5879 426.36737
1836.72 426.29074
1835.6748 423.69614
1837.2433 424.56717
1839.1487 424.6915
1837.9565 422.47394
1838.417 420.2381
1840.6162 421.0029
1841.1587 423.17352
1843.2888 422.8313
1843.3413 420.3175
1845.6023 418.73343
1846.5859 416.87146
1844.9696 415.33655
1844.6632 413.23517
1842.5188 413.45694
1843.3042 411.4514
1841.4507 410.2962
1843.1428 408.96176
1844.5608 407.37286
1846.0094 408.64804
1844.9275 410.28622
1846.1567 411.7507
1846.8595 413.40103
1847.2468 415.14703
1849.0222 413.9721
1848.9653 411.6403
1847.4089 410.04837
1849.5009 408.83847
1851.5397 410.58658
1854.6826 410.3499
1852.7932 407.9038
1855.9032 407.18774
1853.7438 404.8259
1851.0278 404.07504
1850.0682 406.32385
1847.5535 406.988
1845.9429 405.71863
1842.7073 406.42038
1842.4138 403.93347
1844.4531 404.5925
1847.6022 404.04144
1848.7708 402.20517
1846.9766 399.8299
1845.4744 402.45593
1843.9784 399.94296
1845.5288 398.27432
1842.956 398.29813
1843.905 396.92267
1842.26 395.9006
1841.1023 394.34033
1840.418 395.7662
1839.1705 397.45233
1841.2024 397.45752
1840.999 399.03073
1839.4978 399.4266
1837.9583 399.21005
1838.1118 400.7951
1840.0994 400.98224
1841.8657 400.74844
1840.2678 404.65088
1840.6262 407.6883
1839.1997 410.03067
1840.1836 412.52567
1840.6152 415.18262
1842.7933 415.84384
1843.8491 417.73376
1841.2242 418.33704
1839.203 417.22675
1837.4866 418.1317
1838.0469 415.26645
1837.3516 413.18564
1832.5715 411.16656
1835.7719 400.23148
1836.2957 398.77628
1837.1187 397.2798
1834.7646 397.701
1834.553 395.95462
1836.6825 395.48822
1838.6223 395.7198
1838.909 394.1755
1838.5564 392.60843
1837.0425 393.55664
1835.8391 390.6215
1835.9735 392.42313
1834.946 394.0313
1832.9535 394.6257
1832.926 397.90958
1831.5729 396.5024
1825.8977 400.51654
1830.4812 394.7123
1831.9993 392.73694
1834.0597 391.91394
1832.5483 390.5188
1833.4578 389.05075
1831.2457 388.08453
1829.3303 388.74225
1830.3662 390.8834
1829.5522 393.05118
1827.51 392.938
1827.9755 390.3048
1825.8848 391.34805
1823.4429 390.772
1822.1626 388.62674
1824.997 388.83514
1826.8865 387.6899
1829.0063 386.4674
1826.5286 385.16226
1823.8145 386.1323
1824.4607 383.18124
1821.9019 382.93295
1820.1416 380.6548
1817.9498 378.4313
1815.6708 377.1963
1813.4128 376.06845
1812.1536 374.30173
1810.491 375.84705
1811.0161 377.94095
1812.0786 379.63602
1813.6509 378.229
1815.3484 379.83765
1817.5149 380.23672
1819.0975 383.30283
1820.7173 385.95575
1819.7262 388.16653
1816.8643 386.7464
1818.0464 385.36298
1816.281 384.05463
1816.2866 382.10403
1813.7618 380.9551
1814.2957 384.7726
1813.303 382.94766
1811.5859 381.68237
1804.124 389.38544
1809.8345 380.5115
1808.3821 379.41736
1806.5408 378.27438
1808.4607 377.0016
1808.258 374.8745
1810.2272 373.16168
1808.2838 372.61084
1807.1539 371.31088
1805.9672 369.92694
1804.3313 370.6901
1805.1067 372.56244
1806.0863 374.15347
1805.8185 376.19138
1803.7173 377.89453
1803.4344 375.35675
1802.8763 373.31732
1802.6804 371.488
1800.9719 374.54053
1800.4484 372.18484
1798.2242 371.11462
1801.4148 369.9614
1802.7047 369.19562
1803.9253 368.5023
1801.2584 367.15594
1799.8184 369.46408
1798.084 367.82355
1798.7427 365.59738
1796.2118 364.2114
1793.9375 361.88312
1792.6769 363.58713
1794.5038 366.32944
1795.6519 369.08484
1792.5254 367.80612
1790.255 366.5131
1791.2565 364.91098
1790.1875 361.69324
1790.3234 359.33133
1787.3289 359.14764
1785.9102 356.9125
1783.6906 355.43277
1781.6238 353.5328
1779.057 352.76297
1777.1877 355.1544
1779.5986 355.2015
1781.396 356.3457
1783.148 357.6923
1783.9646 359.81848
1785.2981 361.51004
1788.2305 364.7561
1786.9729 362.8598
1783.0825 362.84845
1778.692 364.65405
1781.0779 359.89337
1778.801 358.03146
1775.4788 357.51175
1774.6377 354.72476
1771.7982 353.79425
1774.6274 352.11658
1777.289 351.40286
1775.2329 349.62726
1773.0894 348.6534
1771.6671 346.8892
1770.1763 346.00366
1768.5546 344.607
1766.7761 347.7168
1768.8458 347.31506
1770.4548 349.23328
1771.6837 351.16946
1768.3015 352.19672
1768.4104 349.52036
1766.1886 349.74896
1764.2405 348.12802
1760.3018 355.4872
1761.6903 347.34592
1760.4597 345.51813
1763.081 345.10016
1765.0134 346.0953
1767.0566 345.77634
1766.0266 343.8094
1763.901 342.66245
1761.7471 340.94867
1761.2329 343.09128
1758.9589 341.81732
1758.6512 344.4259
1756.0764 343.45276
1756.4817 340.789
1758.883 339.2683
1756.1963 338.04318
1753.3092 335.60126
1753.947 337.57233
1753.7908 341.2403
1752.1436 339.65637
1749.9135 338.76
1751.3197 336.95676
1750.9961 334.7893
1749.5762 333.40204
1748.4362 335.0463
1748.6112 336.84637
1745.7186 336.2035
1746.6421 338.39923
1741.8392 341.1708
1742.575 336.40686
1743.1534 334.57394
1745.1196 333.70276
1746.8824 334.09106
1747.6309 332.40054
1745.5522 331.45605
1743.6681 330.37708
1741.6674 330.20828
1740.9117 328.7194
1738.8895 328.28793
1737.6876 327.09018
1735.9316 326.34915
1734.3662 325.35913
1732.6665 324.28003
1730.9054 323.36697
1729.0494 322.96576
1727.9999 321.3781
1726.6857 322.93375
1725.4436 324.04434
1726.1859 325.74588
1728.01 324.76846
1730.1155 325.3713
1731.9933 326.4699
1733.8112 327.6546
1736.103 328.5886
1736.1375 330.4148
1737.4773 332.3037
1738.9177 330.36932
1740.7352 332.27493
1743.0328 332.55664
1739.681 334.6067
1736.782 336.65982
1731.2615 335.66525
1726.4973 332.742
1730.1013 331.96906
1733.6577 332.80664
1733.4148 330.05606
1731.1663 328.75156
1729.4343 327.48602
1727.7059 326.9366
1727.0013 329.5935
1723.9259 329.84763
1722.0969 328.29156
1724.2468 326.30106
1724.0018 323.52667
1725.9058 320.82483
1723.8096 319.38086
1724.0436 321.39346
1722.4708 322.5615
1722.5548 325.3815
1721.1478 324.07083
1720.1758 322.4476
1718.0209 321.2495
1717.1354 318.46957
1719.7637 319.83575
1721.876 320.7227
1721.4373 318.50732
1719.0347 317.29907
1716.0715 316.10257
1713.3926 314.99045
1711.1825 316.59982
1711.546 319.12015
1713.9967 317.88095
1715.4866 319.85376
1715.8699 322.22778
1717.533 324.7505
1718.979 326.96112
1713.7485 323.84808
1711.8914 323.6971
1712.5243 321.2498
1709.545 321.7603
1709.4895 319.488
1706.5648 319.72836
1708.4583 317.40414
1708.7369 314.78946
1710.8403 313.62662
1708.2523 311.9302
1706.3644 313.14694
1704.355 314.38913
1706.1741 316.25848
1704.3147 319.15027
1702.5721 317.15475
1698.513 316.89893
1701.5992 314.57068
1702.7408 312.61554
1704.6443 310.6409
1701.8756 310.50146
1701.5177 308.93958
1699.0084 308.74603
1697.6912 307.35715
1697.7123 310.8637
1700.158 311.60556
1698.7125 313.07263
1695.9487 313.64407
1693.0466 313.179
1693.9374 309.7868
1696.0828 309.55286
1695.2289 306.83087
1693.2291 306.22552
1691.2722 307.91055
1691.1882 310.59555
1689.2129 311.53888
1689.1433 309.08298
1688.0221 307.21478
1689.763 306.0073
1691.6371 304.79193
1689.5992 303.73816
1687.7587 304.94904
1686.7511 302.90033
1685.971 304.5282
1684.25 303.61566
1683.5469 302.0091
1681.3265 302.62775
1682.2092 304.42197
1682.5603 306.44525
1684.5875 305.65872
1686.252 306.7004
1686.2599 308.70038
1683.8129 307.9643
1680.5852 308.2176
1679.8956 306.00598
1679.7856 304.16827
1680.4448 301.0783
1678.7388 302.21008
1677.1224 300.9873
1677.4954 304.26404
1677.3494 306.87677
1675.0079 306.09857
1675.3492 303.85287
1675.3486 301.9421
1673.2727 303.7538
1672.0942 302.30905
1674.0176 300.6328
1671.1023 300.4518
1668.3239 301.13647
1665.8529 301.289
1663.162 301.68945
1665.117 303.11877
1669.7891 302.85196
1671.1946 305.26895
1667.6272 304.0889
1664.9501 305.95435
1662.6603 307.0439
1661.5176 305.13446
1662.3029 303.45398
1660.1597 302.47314
1659.9089 303.96576
1657.9619 303.3817
1658.886 305.84537
1659.7925 308.99548
1656.7098 311.7305
1655.8099 308.60947
1656.2299 306.44824
1656.7208 304.47476
1654.882 304.21152
1653.1825 305.20364
1653.615 307.15704
1650.951 306.7464
1648.8331 307.83478
1651.8735 309.7727
1650.1418 313.4754
1647.7579 310.22842
1646.1405 308.1641
1644.2427 310.03864
1642.6945 311.61664
1641.3463 310.26938
1640.8607 312.71857
1639.2356 311.8582
1637.3491 312.65607
1635.1702 313.7076
1633.54 315.32718
1631.6643 315.38037
1631.8085 317.64468
1633.8586 318.61603
1635.7827 315.2528
1638.2426 314.05634
1643.2383 319.71686
1639.2449 322.2796
1635.8824 322.9783
1633.8398 321.76367
1633.2928 324.90024
1630.4822 326.30234
1631.2219 328.12512
1628.0743 328.14325
1629.2208 329.74292
1627.7646 331.38382
1626.0596 329.88843
1625.1731 332.288
1623.0596 334.3398
1622.2341 331.59637
1623.9772 329.46832
1621.8129 329.12582
1619.8789 329.8895
1620.4795 327.25876
1618.6235 326.46066
1620.0197 324.01633
1622.0259 325.4035
1623.3452 327.06305
1625.6493 327.38162
1627.7096 326.01608
1628.0437 323.904
1630.248 324.54623
1631.1669 322.9456
1631.175 321.12494
1632.2957 319.76038
1629.6942 319.28217
1629.7339 316.6543
1628.0045 317.54507
1626.0276 317.9815
1627.1924 319.90692
1628.8074 321.65945
1625.9735 322.1925
1625.0308 324.80667
1622.7922 323.1977
1624.2141 319.53195
1622.6602 320.76993
1619.5737 321.2234
1617.4971 322.87073
1375.4108 391.88193
1373.205 391.86655
1373.254 390.20642
1371.6161 390.81357
1371.8496 392.9714
1370.1768 391.84354
1368.9299 390.5302
1370.983 389.5225
1369.6204 388.84424
1367.7869 388.59198
1365.3015 387.682
1366.211 389.1451
1367.2903 390.69034
1368.3746 392.3971
1367.6162 394.4932
1367.832 396.7404
1365.6079 395.53003
1363.4329 395.0138
1361.8229 396.7379
1363.7303 397.87314
1365.8826 398.25992
1367.9829 398.9399
1369.6719 398.30762
1371.358 399.3544
1372.9208 397.18884
1370.8052 396.96173
1369.3649 395.54517
1369.7822 393.64926
1371.1311 394.9868
1372.928 394.96945
1374.4714 393.90622
1376.1125 394.82144
1375.627 396.90125
1376.8569 399.32007
1374.3872 399.1985
1372.9219 400.78458
1368.9583 400.6185
1370.7429 401.69348
1371.9677 403.50748
1374.2449 402.37106
1375.07 404.52484
1376.9296 402.2157
1377.882 405.12833
1375.9596 406.98224
1373.6515 406.73053
1371.8646 405.6314
1369.6897 404.59628
1368.7106 402.5889
1366.9437 403.27237
1366.6443 400.7115
1364.7648 401.4382
1362.9784 400.19104
1360.869 400.352
1360.5177 398.6821
1359.5447 396.4476
1358.0645 398.3399
1356.9191 396.38013
1354.5155 396.85428
1354.3534 394.5797
1356.6509 393.78775
1358.8025 394.19174
1361.2592 394.21768
1364.1245 393.23257
1362.8812 391.95844
1364.567 389.6479
1363.1823 388.80823
1363.7428 386.7677
1362.26 387.0002
1360.8219 385.8482
1358.5952 385.895
1356.694 384.91672
1354.1548 383.8188
1353.0088 385.58502
1352.7241 388.28625
1354.7023 389.86008
1357.9639 389.28983
1359.8142 387.37924
1361.2932 388.00287
1360.2649 392.0266
1357.6941 391.50662
1355.1313 392.0608
1352.7255 391.91483
1351.6898 394.96527
1348.6395 394.14658
1347.9264 391.21564
1350.2222 392.43683
1350.7415 390.2235
1350.262 388.33072
1350.2825 385.92093
1350.4547 383.24637
1346.3828 382.52875
1347.3947 384.3448
1346.3723 385.64328
1348.117 387.81137
1346.2175 389.97092
1344.5103 391.58652
1345.7064 393.39334
1342.9 393.93948
1342.3818 396.3396
1341.3722 398.51114
1339.4585 397.11777
1340.0286 394.71817
1340.7257 392.56558
1342.5077 391.34903
1343.3949 389.00815
1341.6573 386.5592
1345.1532 388.20993
1345.7972 386.99896
1343.8892 385.50656
1343.1693 383.13153
1340.4362 382.41623
1339.1509 384.10443
1336.5137 384.31122
1338.3502 386.42517
1339.6398 388.20938
1341.1187 389.8296
1338.9048 390.6849
1337.1038 389.42184
1335.3386 391.10785
1333.3447 390.0292
1335.2473 387.7853
1334.1385 385.58847
1331.4316 386.57727
1331.5529 388.85696
1328.7177 388.99875
1326.805 391.94354
1329.2913 392.09268
1331.3237 391.87213
1333.3668 392.66794
1332.4332 394.86395
1330.9248 396.95157
1329.9407 394.47754
1328.3022 395.87967
1329.689 399.26392
1328.0383 398.1484
1325.9229 396.83572
1324.8501 398.95236
1326.7653 399.92535
1327.7075 401.76343
1324.4707 401.7798
1325.6785 403.4602
1324.6594 405.79944
1327.4576 404.87283
1329.111 406.37738
1329.3928 403.91083
1329.6829 401.84344
1331.2749 400.72836
1332.3649 398.97736
1333.6965 397.12283
1335.3174 395.89316
1334.8956 393.97757
1336.649 392.89938
1338.4653 392.77716
1337.566 395.293
1336.7991 397.6767
1337.7717 399.6858
1338.6288 401.9023
1340.2625 400.71918
1342.0452 400.9329
1341.0518 403.79538
1340.104 405.88156
1341.1649 407.44327
1342.4299 408.61832
1341.9375 410.4936
1339.8577 409.82727
1338.4948 408.20886
1338.1163 404.13464
1335.9537 402.26917
1334.9355 399.4328
1333.5547 401.4331
1331.6545 402.9125
1331.4368 405.2275
1333.647 404.03574
1335.3314 405.3376
1337.1462 406.5977
1334.7902 408.53342
1332.8971 407.0539
1330.4438 408.21143
1331.9983 409.9968
1333.72 411.36627
1335.8523 412.10025
1336.736 409.86023
1338.3962 411.63068
1339.433 413.79623
1340.6173 412.11557
1342.2638 413.08914
1340.9814 415.0585
1342.6515 415.96378
1340.5148 417.6036
1342.4114 418.46124
1342.4738 420.34152
1340.3268 421.22327
1343.4786 422.06094
1343.8606 424.49234
1341.8762 423.1302
1339.6757 425.0116
1337.4526 426.01556
1337.1554 423.97867
1335.01 425.24414
1332.8273 425.27164
1330.8119 425.95618
1330.8561 423.8432
1333.5106 422.68744
1335.3738 423.1374
1336.1703 421.5125
1336.7245 419.93243
1338.5724 422.47107
1339.1074 419.64157
1337.3396 418.14755
1338.8788 416.28406
1336.8242 416.18518
1337.4305 413.95154
1335.1731 414.44244
1333.0074 413.91656
1330.8932 413.03802
1329.3358 410.86075
1327.6156 408.45157
1326.1028 410.43817
1328.0463 413.14636
1326.5854 415.88235
1329.8834 415.62708
1332.5507 416.32962
1334.8192 416.67218
1334.3639 418.54727
1333.9557 420.44485
1331.3969 421.8723
1331.6445 419.96945
1331.2767 418.119
1328.8572 418.05997
1328.851 420.50314
1328.7375 422.70166
1325.306 423.19577
1328.1122 425.13467
1325.6938 427.8075
1329.3206 427.33548
1329.7986 429.5665
1330.629 431.62314
1332.5634 432.94144
1333.2772 430.17413
1331.8612 428.3214
1334.4376 427.55307
1335.9734 430.0219
1334.8529 432.05826
1335.0134 434.26834
1334.616 436.22385
1332.3949 435.4589
1330.2253 434.44272
1331.0342 437.75702
1333.1134 437.95114
1335.3328 438.2852
1333.9893 440.0026
1331.7075 440.89807
1333.7902 442.23944
1333.1055 444.2439
1333.2147 446.52835
1334.6892 447.96353
1337.3757 445.4212
1336.4039 443.41827
1339.648 441.93707
1340.8492 444.3237
1343.0726 442.33096
1342.5256 439.8623
1342.0565 437.0934
1340.462 438.8137
1338.6227 439.59418
1336.5245 440.98105
1337.121 438.5102
1336.82 436.3759
1337.8116 434.74808
1339.1973 436.8798
1339.9224 434.96
1341.7345 434.61893
1341.3141 432.16113
1339.5197 432.78528
1337.1141 432.7728
1338.3273 430.63354
1340.4165 429.9918
1337.1312 428.10477
1339.5948 427.77817
1342.8523 426.0937
1343.0543 428.59265
1344.9135 428.17755
1344.5454 430.81793
1344.2578 433.03397
1345.9246 433.5164
1345.0057 435.32623
1346.8651 436.61417
1345.4342 438.99112
1346.92 440.799
1347.4619 442.94003
1344.0442 444.83182
1345.2416 446.9334
1343.3596 448.68463
1342.0898 446.80475
1339.5374 446.96942
1340.9436 449.5003
1338.4137 450.82547
1337.253 448.588
1334.7115 450.777
1334.8346 453.42358
1335.4637 455.98196
1336.0354 458.53973
1336.817 460.83743
1337.0259 463.16867
1337.2739 465.77902
1338.8276 467.58038
1341.5542 466.78986
1339.8898 464.47498
1342.3705 462.3718
1339.7227 461.72018
1339.0715 458.92303
1341.8949 459.86713
1341.4423 457.08585
1338.5294 456.10803
1338.0934 453.45612
1340.9822 452.3449
1343.5166 451.52646
1345.3892 449.46625
1347.7094 448.94754
1346.0426 451.57776
1347.5052 453.00284
1347.3705 455.1521
1348.2046 457.17648
1344.8605 454.1505
1342.0527 454.6326
1344.8657 456.824
1344.1619 459.10315
1345.6227 460.94165
1347.1372 459.228
1349.6199 459.55618
1348.1241 461.77014
1350.4504 461.8552
1351.0565 464.0163
1352.9298 465.20923
1351.6115 466.10233
1348.9987 464.24976
1346.663 463.63803
1344.5961 462.8804
1342.7876 464.80243
1344.8649 465.70502
1347.328 466.06406
1349.623 466.95255
1352.2202 467.96356
1353.7584 469.54395
1354.3036 471.6793
1354.9329 473.62036
1356.2994 475.18573
1356.505 477.09332
1355.8441 479.01654
1358.0573 479.41617
1356.8165 481.3771
1358.9492 482.06894
1359.7714 484.66153
1357.4603 484.09576
1355.2959 484.6561
1354.8241 482.72162
1354.4624 480.6353
1353.5674 478.74924
1353.8995 477.21423
1351.4749 477.58707
1349.0066 477.13132
1349.4548 475.4229
1351.5356 475.46936
1353.7289 475.45532
1352.4052 473.0634
1350.3951 473.55063
1348.3507 473.63055
1346.5857 473.18787
1345.0319 473.69772
1345.3254 470.57205
1347.54 471.19885
1349.7751 471.66467
1351.7324 470.4953
1349.6094 469.3686
1347.4253 468.65372
1345.3765 467.9246
1343.3788 468.46588
1341.1405 469.53912
1338.7664 470.1899
1338.9546 472.83414
1342.7432 471.03738
1343.7715 472.60126
1342.859 474.8683
1341.1388 473.0123
1339.943 475.8075
1341.7964 477.05283
1344.1542 477.05258
1345.461 475.61508
1347.385 475.583
1346.9996 477.60675
1345.4752 478.77774
1346.102 480.79404
1347.6147 481.90472
1349.9712 482.1253
1348.0814 479.68405
1349.7765 478.60327
1350.4357 480.2726
1352.2584 479.7736
1352.4108 481.70538
1352.3385 483.45404
1353.0226 485.20074
1351.0052 486.42328
1350.503 484.43777
1348.6202 485.85922
1348.4124 483.65494
1346.5356 484.7441
1344.9716 483.1574
1343.996 481.0143
1342.9835 479.1984
1340.7522 479.38992
1341.7545 482.16312
1342.6815 484.55292
1342.7982 487.102
1343.7185 489.2121
1345.146 486.55252
1347.2523 487.6945
1349.5444 488.01562
1348.453 489.8085
1348.4905 491.6414
1346.0275 489.85742
1343.9603 491.9416
1345.8702 492.60727
1347.8386 493.31616
1350.0164 493.68137
1351.5096 492.63467
1350.7616 490.76263
1351.3726 488.8376
1352.8431 487.56708
1354.426 486.6786
1356.2798 486.73825
1358.1924 486.96008
1360.7229 486.77795
1361.8256 489.02457
1359.6251 489.20816
1361.0288 491.41788
1363.0057 491.5186
1363.2982 493.74832
1360.9474 493.71045
1358.9626 492.93103
1358.1659 491.13675
1357.0786 489.2782
1354.992 488.89355
1353.2454 489.9542
1353.4785 491.97144
1355.6499 491.50842
1356.8977 493.5756
1354.8834 494.23886
1352.729 494.25275
1353.3356 496.36798
1351.0217 496.03674
1348.6433 497.6723
1348.9424 495.54587
1346.9152 495.11807
1344.7769 494.94086
1345.9604 497.12277
1345.9622 499.01913
1346.269 501.3894
1347.3772 503.09378
1347.9956 499.99612
1350.2563 499.5846
1351.6545 498.26016
1353.8629 498.7067
1354.6976 500.8709
1356.7894 501.1504
1358.5819 502.10077
1359.0398 504.27252
1361.0558 503.60532
1361.1505 501.147
1362.4088 499.1113
1360.6039 497.79855
1359.0847 499.69064
1358.3615 497.5892
1356.463 498.75598
1355.5033 496.6721
1357.2511 495.7112
1359.1537 495.26096
1360.9147 495.85345
1362.5048 496.07706
1364.2449 496.02472
1364.8284 498.172
1364.9978 500.6703
1363.5604 502.9528
1366.3837 503.38095
1365.8009 506.11295
1363.2982 506.72583
1359.5435 506.523
1357.0076 504.44385
1355.1501 503.6197
1353.1266 503.6301
1351.6212 505.16202
1352.3279 501.1998
1349.7888 501.6874
1349.9338 503.80206
1347.9725 505.67957
1350.5531 507.40234
1348.4225 508.95184
1350.763 510.69656
1349.794 513.74194
1352.2576 513.7443
1354.4406 514.98126
1354.1233 517.5533
1351.052 516.91437
1352.0594 519.4435
1352.0342 521.64813
1354.8123 520.60077
1356.5989 518.6357
1357.0515 516.14886
1356.844 513.08673
1354.0864 511.63336
1355.517 509.67075
1353.3468 507.4079
1356.1245 506.7877
1358.502 508.87604
1362.3545 509.72885
1359.9257 511.34647
1360.0964 514.2936
1359.4509 517.2958
1363.1414 515.7191
1364.219 512.65784
1365.9103 509.6472
1368.5883 509.6342
1368.5157 514.55945
1370.2125 519.83105
1374.3604 529.70654
1367.0521 532.74817
1365.8777 526.6482
1364.9255 521.44995
1362.2697 519.012
1357.8091 520.77386
1356.502 522.7464
1355.263 524.4924
1353.4238 523.1446
1352.9534 525.3919
1354.6648 526.74084
1354.1414 529.01526
1356.6547 528.0213
1357.4103 525.47485
1359.805 523.09033
1360.5388 525.52234
1359.4891 527.68176
1360.5348 531.2048
1357.9835 532.02924
1358.3079 529.72705
1356.0994 530.54364
1355.0452 532.2418
1355.6726 534.9487
1357.4116 534.0875
1359.5931 533.9489
1361.4216 535.4606
1360.7614 539.12854
1359.3269 537.07526
1357.1266 536.83887
1357.5903 539.7209
1359.2834 541.4272
1359.2062 543.94055
1359.4209 548.0877
1360.9852 552.1217
1362.7008 556.6939
1365.0989 562.4627
1369.414 569.32776
1370.8757 567.5902
1372.8333 568.9049
1373.2012 566.4516
1375.2948 566.961
1376.3938 565.20844
1378.9742 564.36694
1378.9597 566.1906
1377.3839 567.5276
1379.3213 568.717
1380.965 567.4815
1381.484 565.4987
1381.2222 563.6202
1383.5322 563.90186
1383.321 567.008
1383.7965 569.4847
1381.4243 569.9285
1383.0491 571.9657
1384.694 573.60254
1383.1249 574.674
1384.6945 575.6756
1385.2434 577.2079
1384.8771 578.55286
1385.7684 579.90906
1387.4839 579.7007
1387.6892 578.1136
1387.1295 576.37964
1386.5028 574.35376
1385.9924 572.0857
1388.4027 571.9068
1389.6144 570.2716
1389.894 568.2551
1391.0565 566.924
1387.9341 566.61346
1387.8823 569.0723
1386.0647 570.1585
1385.8024 567.6996
1385.4572 565.31
1386.1635 562.8392
1387.9622 564.18616
1389.7812 565.358
1390.7521 563.63556
1389.144 561.95886
1392.2701 562.7453
1392.2426 565.4633
1394.0383 565.2279
1393.8711 567.34717
1395.9526 567.819
1397.9269 569.67426
1399.7634 570.95013
1400.2249 572.667
1398.9507 574.23627
1397.7267 572.4896
1395.4818 572.87366
1393.1746 572.83057
1396.0676 570.494
1393.9485 570.31586
1392.2922 568.7199
1391.5842 570.7797
1390.6686 572.861
1388.2365 574.1207
1389.5863 575.2825
1391.7053 574.9692
1394.1854 575.32263
1396.6293 575.26587
1396.9415 577.8525
1397.3986 580.6246
1399.5592 581.75775
1398.7169 583.4507
1399.5505 585.6149
1401.2039 584.1564
1403.0208 586.16425
1403.978 588.2175
1406.0808 588.1718
1406.2075 585.9544
1403.9987 584.422
1406.1688 583.38306
1408.3182 584.0832
1410.6948 583.2908
1413.0049 584.3756
1413.5823 586.9137
1410.9005 586.11005
1408.8689 586.87134
1408.0865 588.87476
1406.4705 590.41
1404.9851 592.09247
1407.0479 592.71405
1407.696 594.9663
1405.6149 594.4904
1403.6912 593.89197
1402.5083 592.12177
1403.9498 590.37225
1401.857 589.75275
1401.308 587.5557
1398.6711 587.48975
1396.7533 585.9498
1396.8174 583.74603
1395.4633 582.46234
1395.0922 580.1587
1394.4475 577.9922
1392.274 577.2017
1389.8794 577.44366
1389.703 579.92474
1387.0804 581.35443
1388.5758 582.5113
1390.8146 582.1708
1392.1471 579.65784
1393.2025 581.7955
1394.0674 584.11273
1394.1952 586.1497
1395.0992 588.16815
1397.0679 588.8445
1396.0525 590.6175
1394.024 590.70984
1392.9565 592.6236
1391.1044 593.7237
1391.513 595.95746
1393.1294 594.68835
1395.5239 592.37823
1395.0167 594.0064
1394.9365 596.0977
1393.4663 597.0413
1393.1653 598.83466
1391.1428 597.8008
1391.2781 599.58093
1390.0642 601.2721
1392.3173 600.87506
1394.5509 600.4523
1397.1167 600.197
1399.0498 598.7337
1400.6348 597.08685
1398.9995 596.084
1397.0264 597.5267
1395.4094 598.6756
1396.7633 595.6194
1397.1366 594.01715
1397.957 592.52545
1398.1536 590.8591
1399.5659 589.43286
1400.4495 591.3464
1400.0825 592.9059
1399.1484 594.34064
1401.3724 594.156
1402.1951 595.6466
1402.6985 597.64764
1401.4888 599.3921
1400.6346 600.8934
1398.774 601.62756
1401.249 602.62115
1399.4109 604.27203
1401.283 605.4361
1402.79 603.6462
1404.1422 605.5613
1402.5377 607.6202
1399.7115 607.2751
1399.8488 609.86444
1397.5774 609.194
1397.2039 607.2765
1397.2999 605.42236
1397.4006 603.4691
1395.9492 602.42114
1393.9539 602.11896
1393.8501 603.8025
1395.0521 605.35913
1394.8698 607.6124
1392.8141 605.35693
1392.2361 606.77466
1389.2173 605.4962
1391.0688 604.593
1391.8511 602.6694
1389.6053 603.06586
1388.0392 600.88916
1385.5615 600.178
1386.5321 601.91797
1387.8514 603.6816
1386.2617 604.16943
1384.384 602.3353
1383.2493 599.6958
1381.7026 597.28326
1383.9587 596.9361
1384.3438 594.9462
1385.6361 592.9194
1386.9591 594.60645
1386.9408 596.4652
1385.6022 598.1456
1387.6128 598.6861
1389.4478 599.3508
1389.2122 597.16486
1389.2927 595.0122
1389.7505 592.25854
1387.835 592.6271
1387.5815 590.2202
1387.7041 587.942
1389.8005 589.83563
1391.6825 590.85034
1392.6938 588.8056
1389.7427 587.5075
1391.8602 586.8293
1391.9177 584.31683
1389.9219 584.9255
1388.0522 585.0447
1386.3678 584.6674
1386.2902 586.8435
1384.7249 585.9135
1384.0062 587.5612
1385.2866 589.1191
1385.3477 591.02924
1382.6135 589.20715
1382.329 591.14197
1383.3007 592.9679
1381.196 594.466
1379.8727 592.3178
1379.4333 589.43884
1377.7502 587.662
1376.5596 584.9111
1376.8585 582.2816
1374.7472 582.533
1374.2534 580.0303
1372.612 578.19464
1371.6954 576.2426
1373.6326 575.7772
1375.8076 575.6595
1377.4082 576.82587
1378.8613 577.68835
1378.7426 579.5164
1380.3197 579.31744
1381.8252 578.5351
1380.6016 577.5045
1379.8071 575.6437
1378.0789 574.8292
1376.3219 573.1412
1374.7334 573.77954
1372.8574 573.16516
1371.3175 574.2486
1369.8446 573.6936
1369.6713 571.4527
1371.7269 571.02386
1374.0974 571.2367
1375.1302 569.0861
1377.5076 569.69336
1376.3617 571.1565
1378.2373 572.93646
1379.3497 571.16095
1380.5294 572.91046
1381.4745 574.34735
1381.8192 576.24774
1383.163 577.33203
1383.138 579.331
1384.181 580.2223
1384.9585 581.61865
1386.0669 582.9755
1384.4105 584.34564
1383.7882 583.01056
1383.0876 581.45795
1381.7921 580.21893
1380.1724 581.24335
1381.4464 581.75555
1381.8198 582.9981
1381.8994 584.4281
1382.7573 585.8027
1381.3872 587.3919
1379.6967 585.78986
1379.3722 583.5337
1378.5046 581.39844
1376.8245 579.5494
1375.2985 577.8956
" />
</g></g></svg>
