<?xml version="1.0" encoding="UTF-8" standalone="no"?>
<!-- Created for Inkscape (http://www.inkscape.org/) -->

<svg
   xmlns:dc="http://purl.org/dc/elements/1.1/"
   xmlns:cc="http://creativecommons.org/ns#"
   xmlns:rdf="http://www.w3.org/1999/02/22-rdf-syntax-ns#"
   xmlns:svg="http://www.w3.org/2000/svg"
   xmlns="http://www.w3.org/2000/svg"
   xmlns:sodipodi="http://sodipodi.sourceforge.net/DTD/sodipodi-0.dtd"
   xmlns:inkscape="http://www.inkscape.org/namespaces/inkscape"
   width="3200"
   height="800"
   id="svg2985"
   version="1.1"
   inkscape:version="0.48.1 r9760">
  <defs
     id="defs2987" />
  <sodipodi:namedview
     id="base"
     pagecolor="#ffffff"
     bordercolor="#666666"
     borderopacity="1.0"
     inkscape:pageopacity="0.0"
     inkscape:pageshadow="2"
     inkscape:zoom="0.35"
     inkscape:cx="1600"
     inkscape:cy="400"
     inkscape:document-units="px"
     inkscape:current-layer="layer1"
     showgrid="false"  />
  <metadata
     id="metadata2990">
    <rdf:RDF>
      <cc:Work
         rdf:about="">
        <dc:format>image/svg+xml</dc:format>
        <dc:type
           rdf:resource="http://purl.org/dc/dcmitype/StillImage" />
        <dc:title />
      </cc:Work>
    </rdf:RDF>
  </metadata>
  <g
     inkscape:label="Layer 1"
     inkscape:groupmode="layer"
     id="layer1"> 
     <g>
<path style="fill:none;stroke:black;stroke-width:2px;stroke-linejoin:round;stroke-linecap:round;" d="M 
1579.9263 229.46304
1585.39 229.0861
1589.1725 231.61201
1592.4852 227.98613
1599.639 228.22105
1604.8425 229.701
1608.6187 227.16774
1610.3052 231.54764
1608.3674 235.01952
1603.8829 236.10999
1599.9326 233.78897
1595.0853 232.61177
1591.6143 235.5529
1591.3525 239.11176
1596.4541 238.31755
1600.0303 240.91089
1604.1826 241.76521
1608.0017 239.56615
1606.6108 245.4867
1610.27 247.99689
1610.4117 243.26863
1613.366 239.92085
1612.6357 236.42346
1617.9854 238.4456
1619.2535 235.32732
1615.3406 233.19453
1614.0289 228.32954
1618.6279 228.40154
1620.4467 232.18172
1623.4849 230.2993
1625.6096 228.02733
1629.3406 227.45859
1633.4172 228.94565
1636.5402 232.57846
1632.6069 233.91466
1628.7969 232.0593
1625.3671 234.80667
1622.5902 238.2017
1626.7004 239.61818
1630.1466 237.6899
1635.4498 237.89111
1640.8374 236.83018
1639.4712 230.16191
1643.6763 231.61108
1646.6846 233.62814
1647.4521 237.9738
1642.7668 243.09015
1637.6587 242.82559
1632.7496 242.2884
1628.5548 243.65405
1624.2441 243.01653
1620.5057 242.85168
1617.1042 241.83905
1614.6321 244.31085
1615.0417 248.13655
1618.9204 247.60356
1622.5846 247.56487
1626.5392 247.34842
1632.2455 246.9773
1635.6743 249.89188
1640.2462 248.14534
1645.9031 249.27797
1647.2157 255.02063
1644.6606 259.1236
1641.5278 253.89342
1638.1729 258.1062
1636.937 262.8024
1633.9222 266.27313
1636.8447 268.38605
1639.8868 270.46332
1641.5087 266.71115
1641.5719 261.93005
1645.7291 265.01712
1649.1434 261.1475
1650.3743 265.09952
1653.5328 267.0857
1654.4037 262.0301
1658.2891 264.54895
1660.3706 260.47656
1663.6895 256.95102
1663.3024 264.1432
1667.2446 261.64072
1670.2755 265.01584
1666.1658 267.9492
1669.4296 271.62415
1668.8198 276.87274
1666.8635 281.87274
1661.693 284.81393
1662.1165 279.12128
1659.2957 274.73633
1664.4131 273.56717
1661.3374 269.24536
1657.3665 268.98837
1654.799 271.69543
1654.5586 276.27493
1656.615 281.29678
1651.3302 279.52567
1646.1619 281.05124
1643.2266 283.23193
1645.2567 285.6566
1649.3857 283.24713
1647.9373 288.10843
1644.0874 290.38928
1640.4064 289.89267
1640.8337 286.40726
1637.1301 284.87625
1637.6803 281.18036
1640.3317 282.74115
1642.057 279.61594
1641.5045 276.21152
1645.6265 277.3526
1648.4028 275.21124
1650.9606 272.4909
1648.4487 269.0837
1644.9199 271.08478
1642.279 273.497
1637.0737 273.75552
1638.7102 277.63553
1635.5603 277.99316
1632.4866 276.0736
1632.9811 271.0072
1628.8572 272.8679
1627.0552 268.7406
1630.7402 264.55984
1626.398 263.07303
1627.7251 257.46225
1632.1523 259.65057
1635.2715 254.74773
1630.7499 253.84895
1628.8997 250.48225
1624.6575 252.30452
1620.6902 253.46086
1616.7542 252.50264
1612.3689 251.51436
1612.7075 255.83041
1608.3142 253.69035
1605.3535 249.73898
1601.9017 246.18192
1597.8394 247.14232
1595.3068 244.1153
1591.6129 243.03918
1589.3849 247.24524
1586.1295 250.63142
1582.6018 248.77878
1583.547 253.87823
1580.3146 253.48587
1577.0542 253.74683
1574.6765 257.26895
1572.7109 254.32231
1569.5448 251.5827
1565.2416 252.54866
1567.8337 248.36903
1564.7063 246.91353
1561.5552 249.22768
1557.467 251.74782
1554.9749 255.7855
1550.4026 257.1111
1550.7367 263.08612
1547.5562 265.85837
1550.8337 268.65518
1554.3451 268.12784
1559.2202 269.871
1561.3253 275.19244
1556.3079 272.95596
1555.8375 277.35834
1552.4839 280.35452
1556.8584 283.42288
1560.6002 280.35867
1565.3644 279.8303
1569.7863 278.5001
1566.5608 274.1397
1564.594 270.58035
1569.6913 268.86755
1567.1438 265.5513
1566.9513 261.66687
1562.83 260.93146
1561.6584 264.39685
1562.7554 267.52603
1557.0842 265.30682
1554.0105 261.20285
1558.0012 261.00665
1560.0356 257.70898
1561.1289 254.18922
1565.4327 257.36176
1569.2264 255.73969
1570.7677 259.96164
1572.2969 264.67673
1570.9795 273.84018
1573.6774 270.58618
1576.0664 267.48654
1578.1238 264.0397
1575.0333 261.39398
1578.3091 258.84247
1581.7557 257.7375
1581.5955 261.81418
1582.2312 265.75436
1585.1354 264.06293
1587.355 267.06662
1587.8003 271.42365
1584.6271 269.3878
1582.8137 272.4778
1580.2445 268.56583
1577.9888 272.16544
1575.4259 275.7355
1574.985 280.05237
1571.529 283.2951
1566.7744 285.87527
1562.2325 285.0947
1551.9987 285.25592
1547.9006 282.54282
1544.3875 279.50333
1549.08 277.27518
1551.4055 273.4666
1544.5958 275.49506
1547.084 271.22375
1543.6989 267.90082
1542.4338 272.05643
1538.7472 273.88608
1538.3152 268.8962
1534.1343 272.38104
1533.4598 268.00558
1529.5369 266.4047
1525.1045 266.294
1527.187 261.81665
1531.306 261.8125
1534.065 264.11023
1537.4489 264.45276
1541.1987 265.03363
1540.0718 260.44437
1544.1891 262.00082
1547.206 259.8054
1540.6224 255.68536
1544.807 255.26723
1549.4851 252.76688
1552.9214 249.5525
1557.5126 247.03929
1551.8575 244.32605
1555.8121 243.27095
1558.2008 240.2886
1561.8712 243.71454
1562.6311 238.78838
1566.5635 239.60135
1567.681 243.56133
1572.2502 241.9583
1571.066 238.59752
1573.2566 235.14914
1576.9307 237.62949
1583.6547 238.59409
1580.5852 240.68076
1576.5352 242.0899
1575.9801 247.11224
1574.0896 244.9172
1570.7499 245.8212
1572.2318 248.78911
1574.4358 251.10992
1578.4808 249.44821
1579.9546 245.09448
1584.6674 244.56586
1587.4016 241.37157
1586.6158 235.65474
1581.5013 234.28801
1576.5671 232.05408
1571.2953 231.30553
1567.9482 234.11467
1563.6104 233.50304
1561.5479 220.10902
1554.7384 224.84476
1549.2421 225.60445
1543.8527 228.19893
1554.0588 237.39717
1558.9113 235.60104
1550.1136 238.71045
1547.8898 241.476
1546.3386 245.44484
1546.6971 249.32574
1541.294 249.97942
1535.9824 252.15967
1536.7256 256.78113
1535.3871 260.34915
1532.2313 257.2909
1527.5905 256.7762
1525.1122 251.8132
1530.4993 252.76192
1532.0741 248.033
1537.5878 245.5946
1542.5983 242.26895
1538.8168 231.1036
1534.2654 231.64366
1528.8834 235.13515
1521.9143 236.5783
1522.1725 241.35768
1515.5836 241.19531
1513.0288 246.78938
1508.299 244.40775
1503.1975 246.24406
1500.7737 249.94829
1497.0044 252.06743
1493.0469 253.39447
1490.2397 255.79243
1494.8214 257.6906
1496.6177 260.86676
1500.7186 256.0179
1506.0892 251.70126
1512.2701 261.2968
1518.0234 257.68024
1523.1621 258.01016
1520.7336 262.8733
1514.9741 265.22327
1510.3846 268.69885
1507.2825 265.80148
1504.3125 270.68845
1500.0272 272.8975
1492.0073 264.46155
1490.0038 260.25485
1486.1556 257.5862
1484.9163 261.529
1487.3154 265.26028
1487.4526 268.99765
1484.3971 273.2215
1481.976 269.66827
1482.4562 265.98633
1480.0659 262.97507
1476.4326 267.76755
1472.3536 271.02576
1467.1841 275.2605
1467.7397 279.4687
1471.717 281.64056
1472.3264 276.3264
1476.5111 276.82224
1479.1007 273.28125
1480.6255 278.1065
1476.2273 281.1475
1474.7998 285.0088
1472.0864 288.5387
1469.5963 285.68927
1465.7253 283.78647
1461.8766 281.28616
1466.1906 289.07574
1461.7393 287.7496
1456.8091 285.68546
1457.1992 290.17642
1451.7703 291.87402
1455.1786 294.4047
1459.1156 295.96805
1458.9719 300.26816
1459.1509 304.70404
1463.258 303.20157
1465.2126 298.58304
1463.3143 293.6616
1468.7798 293.08444
1479.7172 296.83594
1483.6249 295.35513
1487.7008 294.5319
1485.1178 290.0419
1488.9385 285.56766
1490.1035 289.99435
1494.0515 288.14426
1494.7587 283.93887
1491.2979 281.72318
1494.3922 279.4174
1496.366 275.71936
1498.8936 278.60168
1499.152 282.4171
1502.9906 276.2014
1507.1411 277.4695
1509.0737 273.4471
1512.2926 276.79453
1514.8824 279.75937
1510.4281 280.49753
1503.8291 280.68622
1502.3435 284.75
1502.1384 288.44586
1507.2971 287.69855
1505.5819 284.68256
1508.434 283.35785
1512.4061 284.27994
1515.789 283.48196
1518.5768 281.45914
1518.4121 277.89407
1516.6934 275.0406
1513.936 271.5933
1518.2133 270.74634
1519.901 267.31357
1521.677 274.36032
1524.1921 270.83548
1529.3107 271.42172
1526.5782 275.42905
1530.7721 276.91135
1535.1239 277.3971
1539.362 279.2115
1542.4055 283.68857
1538.0543 285.1548
1532.9286 287.54645
1533.436 282.2093
1528.4807 280.95416
1524.7626 278.92935
1521.4514 278.30237
1522.03 281.546
1522.3718 284.40875
1525.4417 283.30222
1524.9521 287.08105
1528.9109 285.4736
1528.3684 289.8798
1533.3708 293.14255
1537.2477 290.40338
1541.8674 290.25253
1545.6387 286.976
1549.0955 289.4021
1554.0587 289.853
1558.3206 289.32828
1562.9429 290.2982
1567.0043 292.8005
1562.269 295.55023
1557.7339 295.52255
1553.893 295.80667
1550.3649 293.24442
1545.7616 292.97293
1549.0327 296.59167
1546.3206 298.55762
1543.3325 300.37827
1542.8048 295.81442
1538.6248 295.68332
1536.5452 299.84616
1540.7952 302.25095
1537.9355 305.1425
1534.7561 309.86426
1531.0731 313.34814
1526.2045 313.5417
1521.3821 314.47217
1524.0308 318.64468
1523.1444 322.42477
1522.1165 326.59174
1516.7256 327.4297
1512.6163 327.80304
1508.4103 329.4484
1509.8113 323.9756
1514.8884 322.80344
1519.0713 323.84982
1518.1987 318.68784
1516.3729 313.63797
1512.4266 319.06433
1506.2451 320.54877
1505.0524 325.2563
1500.4487 326.50354
1501.2827 321.62552
1508.1459 316.87805
1511.6445 314.29257
1507.1008 312.72714
1502.8293 312.81625
1502.6125 316.98572
1498.3728 312.46823
1497.4375 316.90073
1496.7656 321.05435
1492.7496 319.72256
1489.1742 318.23862
1485.0853 318.86746
1481.9038 321.65994
1479.3909 325.68927
1473.6073 324.6203
1475.5723 329.21936
1470.1108 329.90396
1468.0276 323.6304
1475.9058 320.30725
1479.1255 316.72754
1483.5464 314.0276
1488.4141 314.02286
1492.8711 314.81412
1494.5859 310.76556
1500.5596 308.6218
1504.6885 308.3396
1508.5498 308.31128
1507.0463 303.72025
1504.3772 300.29327
1501.4182 304.40686
1499.357 300.66296
1497.1075 296.10678
1500.6326 295.8665
1504.45 295.99286
1509.4579 298.46646
1513.4833 301.0136
1511.8451 305.26297
1512.4501 310.2413
1516.3422 307.3514
1521.4586 309.28772
1519.7952 303.59277
1525.2648 303.37625
1527.6786 308.11093
1533.2933 305.4085
1530.3844 302.45862
1532.6907 297.91418
1527.9683 297.9073
1527.9198 293.7486
1523.5265 290.6644
1523.1138 298.70212
1517.6871 298.11722
1521.8782 294.36548
1518.1696 291.34564
1520.8743 287.69754
1519.0217 284.93445
1516.0585 287.65912
1512.2454 288.5128
1514.1023 294.11392
1508.7535 294.45007
1509.6508 290.97903
1505.1147 291.4209
1501.089 291.99884
1498.3715 286.87918
1496.9187 291.5608
1492.7369 294.06094
1489.6797 298.9413
1494.8785 299.34555
1492.7012 303.26794
1496.561 305.93192
1491.2659 308.2425
1486.556 309.7735
1487.4718 304.28198
1483.6417 300.66818
1477.5359 302.26636
1481.9135 306.43695
1479.1256 311.32135
1474.8003 308.0446
1472.9774 313.9793
1469.5431 318.48666
1461.3359 308.3581
1458.5394 311.51755
1456.2755 307.58667
1453.7332 310.79535
1455.2178 314.22284
1458.0312 315.5249
1457.5387 319.0804
1454.9174 321.15762
1453.9829 317.82407
1451.9254 314.77628
1449.0586 313.0968
1450.8448 307.92245
1446.4418 306.39023
1449.5789 302.77686
1454.402 303.317
1452.8373 298.58383
1448.3529 296.49042
1444.4589 301.51132
1441.5541 306.83575
1438.9534 311.8058
1445.2992 310.51813
1444.6451 314.49496
1449.6727 318.21674
1451.4893 321.84647
1447.7408 322.644
1443.3021 322.02435
1445.6677 318.60263
1440.7231 317.28345
1435.6064 317.23282
1438.2722 322.04645
1438.8523 326.60147
1443.7069 325.8804
1443.3438 329.82257
1447.3779 330.0514
1443.4432 334.29272
1447.3673 335.49823
1451.0751 333.79764
1451.1624 329.7263
1449.21 326.02362
1453.7864 324.53534
1453.5627 328.04404
1464.7452 329.09195
1463.8229 334.35724
1463.7878 339.186
1468.2808 341.47827
1470.5023 346.67267
1473.8365 350.25757
1476.6688 353.60364
1480.9677 351.33478
1482.7314 356.55966
1484.7275 352.84204
1488.1654 352.03815
1491.4932 350.3276
1492.8945 345.4988
1495.2242 349.2601
1499.0728 353.00314
1498.7385 349.84845
1499.7692 346.67645
1497.1163 343.8354
1495.393 340.69992
1492.0895 341.36887
1489.1094 341.04306
1488.7611 345.52414
1485.2545 348.14844
1484.3632 343.90427
1486.264 341.22073
1484.6558 338.02188
1487.6587 336.4229
1483.7834 333.87936
1479.903 336.1075
1481.325 340.4759
1480.7883 345.28342
1477.7725 348.44672
1476.1565 344.44574
1476.7438 339.19318
1472.8835 341.4021
1469.9774 336.06573
1474.7056 334.20935
1479.3547 331.7748
1482.7057 329.3169
1485.0126 325.7452
1488.0233 322.78485
1492.3573 323.8939
1489.6958 327.23898
1493.9633 327.7125
1496.8267 324.82477
1497.1715 329.29837
1495.2716 332.80048
1491.7073 330.8709
1486.8378 330.10648
1488.3933 333.18
1491.9028 334.66122
1490.9658 337.87036
1494.7877 336.93066
1498.0231 336.43744
1500.0314 339.3998
1501.1873 342.76578
1503.7372 345.061
1504.9233 348.0299
1502.8518 351.06104
1501.3115 355.36975
1497.8403 359.33957
1495.5664 354.9956
1490.5754 355.36734
1486.5892 358.0218
1487.6604 361.585
1492.4852 358.9493
1492.7935 362.83212
1494.8701 367.34857
1488.4729 364.8909
1490.8408 367.29752
1491.8691 370.74106
1493.0531 373.81613
1493.4258 377.41833
1495.6606 380.233
1496.5457 373.24683
1498.2795 369.99017
1499.7146 366.7896
1497.1366 363.5925
1501.4896 362.66284
1502.8967 358.97522
1505.0417 355.6949
1508.5371 353.9529
1506.4158 351.80447
1509.1443 349.07272
1511.4303 346.04636
1507.657 343.94534
1504.6473 340.7744
1504.7317 337.10913
1501.4987 334.8928
1499.3402 332.03406
1503.2272 329.5721
1505.1863 332.92844
1508.9725 334.761
1508.9624 339.14578
1511.8872 341.67395
1515.2388 342.59796
1514.0809 338.279
1512.5485 333.42465
1515.8209 331.6144
1517.0627 336.63962
1520.5117 337.09857
1519.3646 333.16736
1520.0197 329.68048
1523.1304 333.07507
1523.9103 329.45422
1526.6447 330.15027
1529.221 326.87567
1526.4232 324.5804
1529.5349 318.84702
1531.982 323.15115
1536.4562 320.49292
1536.0372 315.3647
1541.4717 316.90366
1545.437 314.00278
1540.2433 310.81314
1543.192 306.0464
1546.0004 309.36652
1548.0427 305.33643
1548.3241 302.08304
1551.7229 307.38873
1549.9285 311.79636
1554.4982 311.27548
1556.6019 308.41895
1556.6533 304.8357
1553.8315 302.07416
1551.4319 299.39792
1559.4478 300.76758
1561.3397 306.2883
1564.9929 303.66327
1565.5063 299.1404
1569.5056 296.92023
1573.358 297.37717
1570.4485 302.09695
1575.6555 303.02545
1575.572 299.74194
1579.7693 300.17
1584.3973 298.6322
1588.7345 298.12775
1592.3992 295.92654
1597.1809 298.34473
1599.9336 294.81522
1604.2443 298.38818
1605.9832 294.76498
1605.2155 290.15076
1599.431 290.81067
1600.3304 287.0977
1602.2258 282.10214
1604.3801 285.5606
1610.6768 287.6455
1610.904 292.35812
1611.5111 297.52048
1617.8986 298.28165
1616.5569 294.0311
1616.5607 288.6956
1621.3473 291.89044
1626.0952 292.4237
1623.2186 297.2589
1628.0542 298.8504
1632.6155 298.74728
1630.0137 294.61197
1630.3663 289.78317
1628.0511 286.09155
1622.7358 286.88126
1624.596 281.40515
1619.4476 281.8374
1613.7435 278.53192
1614.4198 283.73416
1608.3885 283.73386
1608.6849 279.47363
1610.8416 274.4278
1605.3223 275.96225
1603.4438 278.85342
1598.0482 278.62497
1597.5149 282.8333
1592.7736 277.7237
1591.863 281.85297
1594.8605 286.47675
1594.6925 291.6464
1590.2537 289.42892
1588.4739 284.5791
1584.2874 286.56567
1586.4224 292.07645
1582.6678 293.7295
1579.7416 296.50418
1578.2612 291.41476
1576.2134 294.4618
1572.2241 292.5513
1570.2731 288.37784
1574.8552 287.928
1580.563 288.43658
1578.2952 284.3268
1579.9456 280.29602
1581.0895 276.19168
1584.9503 280.95972
1586.5696 276.534
1590.212 274.22067
1591.376 269.1342
1594.1836 273.00626
1599.1151 274.47363
1601.0083 269.25867
1604.6781 272.54648
1605.5353 268.0862
1609.6718 269.96753
1616.7076 272.04343
1613.6006 269.27118
1612.4624 264.92307
1608.9291 264.32605
1605.2136 263.3547
1601.2208 263.6196
1597.2156 264.74286
1596.7888 269.7581
1593.8163 266.11874
1590.4414 264.6822
1588.4258 262.0547
1585.3604 260.01688
1586.095 256.22733
1589.676 258.02365
1593.1997 260.8664
1597.6521 259.74295
1593.4758 255.65172
1589.6641 252.9799
1593.8391 249.94539
1597.1628 254.24449
1600.0925 251.05682
1604.0078 253.94098
1600.7667 256.7658
1604.3887 258.8269
1608.8372 259.0813
1613.3091 260.30185
1616.9436 262.71204
1617.6073 257.5266
1623.5404 257.70883
1620.9971 260.83707
1621.9294 265.00116
1616.9839 266.7508
1621.5204 269.5006
1618.416 276.3049
1623.2511 274.6776
1627.4573 277.22464
1629.8104 281.0123
1633.8904 280.97586
1632.6936 284.3311
1633.8125 287.47314
1636.647 288.96466
1637.3618 292.25888
1633.657 292.70428
1636.0638 296.22656
1637.2201 300.22733
1640.584 298.7386
1640.3035 294.16495
1643.9241 295.8757
1648.0535 293.86658
1651.6375 291.082
1652.8292 285.83102
1657.1409 287.6684
1661.6991 291.22986
1666.6504 287.64587
1672.0037 288.25964
1669.7537 292.1965
1670.8123 297.0638
1665.3716 295.1565
1661.2139 299.23145
1656.8204 293.6571
1653.7668 297.68884
1647.9873 298.6771
1644.1552 302.00415
1650.5653 302.82944
1655.8331 304.10107
1660.4216 305.627
1662.221 309.77594
1666.4841 304.9517
1669.256 301.4546
1675.879 302.45474
1674.1208 307.76306
1666.4966 310.15607
1670.446 311.43274
1674.2576 314.46237
1678.8481 316.17606
1679.8915 311.59366
1684.2942 313.95578
1684.3143 309.09818
1688.939 308.40005
1692.3091 304.04788
1694.7843 299.65796
1699.4307 297.54047
1701.7148 293.3972
1705.7145 292.95947
1701.6633 288.9215
1703.768 284.29532
1707.4796 284.30646
1706.4967 288.97592
1710.3253 287.3756
1711.4684 282.95465
1713.2046 279.4816
1715.7129 275.52438
1716.1577 269.7984
1711.2545 266.1683
1706.122 261.75812
1706.0247 266.73877
1707.4475 271.46838
1711.8662 272.4572
1709.3531 276.53513
1706.8829 280.12943
1701.2686 279.91434
1698.0199 276.14346
1693.8914 272.39255
1698.2206 271.26053
1703.97 275.89835
1702.5475 271.56018
1700.9354 267.08667
1700.6262 263.01102
1701.0825 257.0232
1698.4541 259.57797
1694.8853 262.76166
1695.2643 267.2859
1689.9427 268.33145
1689.333 272.6159
1686.0162 274.38858
1682.2466 275.74237
1681.1511 280.07388
1686.2001 280.42133
1690.0093 283.31656
1691.4865 277.33704
1695.4152 280.3194
1695.0837 284.51962
1699.7073 284.20865
1697.3892 288.44614
1695.9517 293.24652
1692.6892 288.83597
1688.3542 288.32672
1683.3231 286.41626
1685.3906 292.10168
1690.4961 294.44257
1687.8662 298.85107
1685.6588 303.8114
1680.0782 305.7728
1682.067 298.80893
1676.3745 297.7999
1675.1941 293.32367
1680.9624 293.27396
1677.8864 289.38513
1679.1587 283.39468
1675.8605 285.51523
1671.872 283.0919
1673.973 278.9815
1677.5382 276.53607
1674.2533 273.07205
1673.4849 268.2314
1678.1387 266.63583
1679.0011 271.6803
1682.9169 269.94952
1685.1631 266.76892
1690.054 263.9895
1689.956 259.51733
1685.2759 261.9465
1680.5969 262.65042
1674.3677 261.70798
1678.8751 257.98074
1684.8925 257.09164
1682.91 252.98434
1684.5131 247.66672
1679.0266 249.65102
1679.275 244.65996
1673.311 241.07895
1670.3394 243.46388
1674.1863 247.78636
1676.3213 253.55853
1672.549 255.51248
1668.915 258.01752
1667.7957 253.21571
1669.2324 248.67361
1663.963 250.36919
1659.7649 252.46176
1658.4211 255.90132
1655.6539 257.89984
1651.4952 257.58917
1652.5686 253.02551
1656.324 248.68628
1651.021 248.23668
1647.303 242.76674
1652.2732 243.01848
1658.1299 242.2753
1660.9757 246.3441
1665.2336 244.07176
1665.7725 238.72649
1660.4866 236.754
1654.7152 237.2522
1651.9435 233.00623
1655.9346 221.38751
1662.8259 224.73831
1670.651 224.06142
1670.3488 228.96321
1676.356 227.80667
1677.1891 231.83752
1682.8793 229.99602
1684.1377 234.8844
1690.1023 233.05745
1698.2119 237.09674
1691.8522 237.5192
1689.4143 250.29912
1689.8896 254.76968
1694.595 257.62997
1695.3032 253.28662
1705.781 248.14323
1702.7894 245.67693
1697.0469 242.37112
1701.4384 241.06413
1705.503 240.59604
1709.0304 243.1671
1714.1611 244.92883
1721.6265 250.55766
1716.8717 248.80151
1710.6676 247.49997
1709.2212 250.96573
1713.0509 252.23167
1715.1564 255.43822
1718.9388 254.09288
1718.457 258.60187
1721.9966 261.06552
1725.2776 264.15997
1728.7063 261.7147
1725.583 259.22244
1722.6328 256.17874
1726.1753 253.33092
1729.06 256.3126
1732.3557 257.89792
1735.2805 260.19504
1732.2227 262.0281
1734.8085 264.02722
1731.2703 265.5934
1728.4973 266.69757
1720.393 275.02292
1718.429 280.49908
1714.8845 284.499
1720.6882 291.05893
1724.9062 286.6656
1728.956 288.25592
1725.5098 290.59674
1724.4814 294.21472
1720.6931 295.46622
1720.6278 299.75824
1719.1667 304.20804
1716.3788 301.0468
1717.1582 296.04358
1713.9678 297.73438
1711.4722 301.25806
1708.0383 304.39285
1705.8672 308.4284
1702.0786 310.8732
1709.6437 310.33905
1708.6055 314.03235
1708.5487 318.43735
1703.5984 316.19272
1697.7896 314.7915
1692.0621 320.4561
1696.2415 319.4317
1700.8574 320.94397
1704.9873 322.46265
1708.4929 323.95648
1712.1283 326.11734
1712.0999 321.34824
1716.3223 321.11407
1714.1118 316.5943
1713.478 312.07422
1711.7466 307.15845
1714.5182 304.57312
1716.1274 308.46622
1719.9442 307.98615
1717.5376 313.01346
1719.5044 317.325
1723.4172 314.86795
1720.8641 311.7259
1724.2441 310.80426
1727.6553 311.6833
1735.4482 316.25488
1732.422 320.8822
1729.2966 323.86374
1736.3854 320.23022
1740.0735 320.2153
1743.6766 321.45813
1744.3232 324.75192
1748.468 326.0079
1749.3068 321.48007
1748.088 317.09207
1743.9756 317.48267
1739.8092 315.9518
1739.7003 311.90955
1743.335 312.06802
1746.8418 312.9391
1754.7638 305.63602
1753.6575 300.95178
1757.7682 302.98917
1757.7236 309.89374
1760.0708 306.40186
1761.7535 301.8842
1764.9219 299.8802
1766.877 296.1645
1762.8386 296.00223
1758.9604 298.81015
1755.722 296.7401
1759.0692 294.3566
1761.7559 291.77124
1749.7957 287.26746
1745.3943 283.63693
1749.5627 281.3638
1745.9758 277.4871
1739.8135 279.20657
1741.2332 282.9894
1736.8115 284.33566
1737.1055 290.85977
1740.6096 287.67554
1744.273 289.37354
1745.3108 293.13876
1740.3701 295.22263
1737.5048 299.9976
1733.1371 302.75272
1730.8373 306.68362
1727.0897 308.1899
1723.6318 306.56674
1723.411 302.6279
1727.6223 303.43484
1725.3533 298.4394
1730.0004 298.97778
1734.4131 296.1197
1729.2661 294.16116
1732.5098 291.03076
1733.2322 286.19394
1729.2911 283.39413
1733.6111 279.93613
1737.3616 275.6199
1740.5266 271.37332
1743.4978 274.03394
1744.8915 268.31567
1748.7426 264.42972
1753.0374 266.91214
1748.8889 270.92184
1751.7524 274.11905
1753.163 277.8413
1755.8915 271.52246
1758.5763 266.50333
1755.4329 262.64777
1751.9043 259.84546
1756.0162 258.12302
1759.5518 257.35812
1758.3689 253.7117
1761.5214 251.32133
1763.4854 248.23718
1767.3167 248.72917
1766.6394 244.90059
1769.9374 244.99791
1770.5546 241.63934
1772.7721 238.75908
1776.0723 239.36217
1779.6492 239.43889
1776.414 235.57707
1780.485 235.64859
1780.5573 231.81262
1784.5385 228.09897
1784.8704 233.05113
1789.2358 234.21506
1788.7587 228.80261
1793.1858 224.96782
1789.8202 222.36943
1794.8608 219.20659
1799.5107 215.00778
1806.5026 216.57379
1806.1641 221.35144
1801.324 219.95915
1798.2852 223.28523
1797.1177 227.63951
1801.3485 228.42859
1804.7151 225.93071
1810.4487 224.2385
1807.8599 230.09088
1804.693 232.11388
1803.9016 236.78761
1800.8279 233.15765
1798.4651 236.29086
1797.1084 231.91203
1792.9192 230.19786
1793.7397 234.77138
1790.9414 238.54128
1785.4553 237.59726
1786.7952 242.31224
1790.7905 242.46158
1795.5427 238.7237
1798.8997 240.44385
1795.0557 242.57132
1794.2478 246.34651
1789.8367 246.35301
1788.923 250.41231
1785.675 247.45735
1783.255 241.26045
1781.0771 243.83243
1777.0782 248.32722
1777.6421 244.01561
1774.598 242.36284
1773.5271 245.6966
1772.0015 249.22151
1775.4102 252.51611
1780.8202 251.35156
1781.898 247.37465
1784.8279 253.34193
1781.4171 257.89368
1778.5654 255.30795
1776.8826 260.204
1774.4069 264.63736
1770.5504 263.9481
1772.0248 259.77475
1772.6178 255.61382
1769.3748 252.30284
1765.1108 252.51625
1763.3113 256.41302
1767.7397 256.75882
1766.5321 261.34714
1761.3967 261.4779
1763.1301 266.5591
1766.9265 266.56238
1769.66 269.04092
1765.2214 272.62323
1760.9248 271.9994
1759.4303 277.40213
1755.1522 282.59238
1764.2826 289.92703
1766.303 292.5866
1769.9248 294.6351
1769.1682 299.16028
1773.3486 299.717
1771.587 303.4613
1776.0941 305.0183
1779.1718 310.64313
1774.5055 313.09937
1771.1094 315.10815
1767.3657 316.24854
1766.3888 312.2414
1767.019 308.24368
1770.3848 310.091
1774.0033 308.36594
1768.2155 304.286
1764.334 305.0053
1762.8228 309.4975
1760.4354 312.76978
1760.2283 316.69693
1763.7948 315.19202
1764.2738 319.19565
1762.2289 322.01096
1763.8767 325.7045
1765.4734 330.501
1756.3042 334.5578
1753.0559 332.26886
1752.5697 326.46353
1749.3546 331.90625
1745.4899 334.6728
1745.1115 329.60995
1739.2712 331.44202
1741.0211 327.7219
1738.7513 324.2309
1734.9336 326.21762
1733.6584 331.17603
1732.2024 335.9289
1728.1777 337.4025
1728.0205 331.78162
1730.2223 328.09308
1725.4435 327.13162
1722.0566 330.58932
1717.7432 334.48984
1721.1304 335.18234
1725.0599 334.24792
1723.1775 338.4783
1723.1179 342.5851
1719.821 345.35925
1718.6375 340.76382
1715.0616 338.24557
1711.3582 340.5526
1715.2058 344.2862
1712.0143 346.50558
1708.2964 343.79895
1707.3987 347.8011
1710.4884 350.9804
1714.566 352.27203
1717.5535 348.76645
1723.9546 347.27744
1724.4668 351.38446
1724.6692 355.06668
1720.1222 352.1393
1719.759 356.59988
1714.5488 356.99005
1716.3663 361.99133
1719.3091 366.23135
1720.6646 361.34647
1725.0076 362.45404
1724.0359 358.8727
1727.832 358.03128
1730.9391 360.2494
1733.7698 356.0764
1730.0856 354.50833
1728.0735 350.72858
1731.7722 349.70807
1735.1091 346.229
1729.2407 345.9358
1727.3024 341.99814
1732.394 341.31494
1737.6196 340.9819
1736.7852 335.70422
1741.6726 337.22678
1744.1117 341.99973
1748.8519 339.6032
1753.623 337.75873
1757.1432 341.51413
1759.0348 347.05563
1760.8125 353.5456
1756.7202 353.8113
1756.1382 349.62842
1752.9824 343.6778
1751.3702 348.39996
1746.7507 346.75092
1740.1803 345.59085
1741.872 349.95306
1735.4093 351.43866
1739.1245 353.35306
1738.5068 357.76773
1734.8917 359.8926
1733.4379 364.7886
1736.9757 362.99902
1741.6719 362.17862
1743.2843 357.12622
1746.4005 352.90125
1751.7145 353.67886
1748.7196 358.15988
1747.0402 363.4054
1752.2622 366.08353
1752.744 361.27396
1755.7451 357.84396
1760.8647 359.19885
1757.7429 363.11584
1761.2456 365.85233
1757.1875 368.8857
1761.7457 371.56046
1761.7172 378.29315
1759.8335 375.3592
1755.2725 374.34848
1752.1577 371.08154
1747.1215 370.25766
1743.1962 367.69794
1738.3754 367.17484
1734.3508 369.86255
1739.7312 372.3715
1743.6211 375.7406
1749.3293 375.866
1748.1309 380.68573
1754.7726 379.0598
1752.183 383.6415
1756.1014 385.5245
1758.4387 381.82233
1762.9895 381.60608
1761.4 384.55655
1762.4838 387.89322
1759.3145 388.4265
1761.0537 392.63672
1761.3425 397.3724
1758.4114 399.39407
1761.6836 402.0167
1760.0397 404.75833
1757.165 403.28574
1754.3977 400.5743
1750.6167 402.27945
1747.8881 399.24478
1743.6033 397.87592
1740.0955 401.15768
1739.582 394.6877
1735.083 396.4929
1732.5332 392.23047
1732.9344 387.94345
1736.8909 384.21286
1738.2324 389.3462
1743.1299 390.47278
1746.5853 393.80173
1751.0492 395.0122
1754.571 396.13452
1757.7961 394.51337
1755.884 390.50238
1752.207 389.42407
1748.3503 389.50446
1747.2319 385.63132
1742.5339 385.4142
1742.7361 381.1306
1738.8315 379.00266
1734.2471 379.4871
1729.6216 378.9548
1735.4558 374.971
1731.3359 373.7238
1727.3009 373.22372
1728.654 369.70157
1730.632 367.02863
1729.0743 363.27176
1726.5923 366.1163
1723.1339 366.5267
1724.0282 370.432
1719.9072 371.3251
1722.1317 374.7538
1726.353 376.8259
1723.2766 378.9005
1724.8214 383.033
1731.0361 383.46924
1727.0754 386.57526
1725.8357 390.28918
1727.629 393.8529
1729.1783 397.01312
1734.9834 401.30542
1736.8033 404.62033
1730.8236 404.45413
1731.2546 400.0355
1726.8657 400.21844
1727.2424 403.93567
1727.5431 407.98596
1727.9417 412.28473
1729.2819 416.21252
1731.5016 413.13647
1731.5186 409.7578
1733.9727 407.34875
1735.8328 412.18393
1739.5283 407.67673
1744.7637 404.35373
1744.287 410.31876
1740.133 413.40442
1733.3738 415.87787
1735.625 418.42157
1739.421 418.46884
1744.1736 419.91977
1746.3989 416.03983
1752.0879 422.31256
1755.7212 418.5578
1750.6467 413.74042
1749.0784 407.9084
1753.2401 406.44327
1755.6143 412.49036
1756.4812 407.7583
1760.0973 407.5053
1759.5338 410.74942
1766.6921 418.83847
1765.6025 424.33008
1768.5444 427.52338
1769.7484 423.73062
1771.7616 420.69574
1770.8948 416.69885
1768.5106 413.6393
1773.6495 411.91324
1770.0059 407.5182
1771.4575 401.7916
1777.1013 399.61188
1778.221 394.5235
1773.0906 396.51556
1771.889 392.04712
1771.987 387.82123
1777.3137 390.03622
1775.4489 384.85596
1771.6981 382.83517
1773.942 379.60507
1777.728 381.17236
1777.6204 377.16367
1778.9585 373.46738
1782.725 372.63232
1786.7753 372.82654
1793.9272 368.45312
1789.5026 367.01285
1785.6444 367.795
1781.4811 368.37476
1779.2174 364.0374
1776.7786 368.4369
1775.0742 372.54807
1772.3718 375.49106
1771.548 369.82187
1771.7368 365.26807
1774.9532 363.1936
1776.0543 358.67978
1771.4937 358.89285
1773.8079 353.93643
1769.701 353.61615
1770.8282 349.32138
1772.611 345.5863
1768.701 343.37656
1768.1486 339.24445
1766.1248 335.13364
1769.5776 335.2693
1772.3557 337.37067
1773.719 341.4485
1779.4977 338.76764
1775.9476 337.1025
1775.4701 332.5239
1778.9619 333.81088
1782.4341 333.77826
1784.4045 337.0641
1788.2991 335.11304
1786.7595 331.5277
1783.6965 328.84296
1778.2036 329.65082
1780.2601 326.5328
1777.938 322.52264
1772.7803 322.0146
1771.7183 325.11307
1774.4979 327.62656
1772.5461 332.58398
1769.494 331.5205
1769.5781 328.3994
1767.3655 325.99567
1767.3713 322.21747
1769.9127 319.13263
1775.129 318.62717
1778.5126 315.87756
1782.9822 316.65564
1783.0454 322.7959
1787.0946 321.38895
1788.6472 326.74463
1791.4187 331.25528
1792.662 335.46332
1793.587 339.2766
1796.8678 343.02597
1793.7007 344.3036
1789.395 343.7371
1788.3049 339.57114
1783.3903 341.33243
1784.8528 345.0708
1787.1357 348.39554
1788.9352 352.1371
1792.7188 348.83182
1798.4097 348.53625
1796.8522 353.2124
1792.2156 355.7802
1786.9121 357.24588
1784.1267 354.6899
1782.5176 350.9759
1780.926 347.02997
1778.2903 343.38455
1776.4255 348.6327
1777.8972 353.04712
1780.0786 356.17444
1781.4359 359.79153
1784.4614 363.05023
1789.3362 360.8904
1793.2625 363.39975
1796.4365 359.5303
1800.8976 357.2021
1803.0408 363.21133
1798.5377 365.10355
1799.053 370.44995
1804.181 369.9588
1801.2108 375.9124
1806.5721 376.21466
1804.4164 381.83585
1807.8024 387.76523
1804.4479 393.1234
1808.5751 396.21948
1808.6847 401.77194
1807.9542 406.349
1809.7036 410.3232
1809.4724 415.10913
1810.7473 419.97842
1805.8523 412.38293
1801.8838 412.26437
1798.2413 409.19315
1796.9417 403.6344
1802.8462 406.94873
1802.9653 401.23563
1799.3347 396.9272
1801.7948 387.8369
1797.4058 383.6039
1796.1343 378.12357
1795.1189 373.23645
1790.7869 374.16196
1791.4504 381.48782
1787.0902 378.55734
1782.6108 377.0507
1781.8654 381.25046
1785.8147 384.18954
1779.9412 385.61636
1783.6191 389.12015
1783.2875 393.78857
1782.3704 398.28574
1782.2004 402.50458
1778.3031 404.136
1774.6704 406.46823
1778.9117 409.77475
1782.5057 407.10028
1786.7239 406.92587
1786.3981 402.16116
1787.627 397.41
1788.7849 392.45142
1790.741 387.50217
1796.5718 390.25253
1793.8113 394.97885
1792.7302 399.58456
1790.6536 403.15927
1791.942 406.70648
1789.6686 410.44757
1788.3885 414.4079
1784.642 411.21115
1783.0488 414.9302
1778.5828 414.67126
1775.1501 417.38226
1783.5632 419.2366
1788.9435 418.55838
1786.6106 422.19214
1781.9763 425.11404
1779.2441 420.52954
1775.6362 423.04675
1773.5593 426.75687
1773.8452 430.75394
1778.401 427.86832
1782.4176 431.33203
1785.9794 429.47012
1788.6791 433.19672
1791.7717 436.80884
1793.5886 433.44348
1790.3608 428.2316
1786.6929 425.76852
1791.4552 423.6932
1793.8939 420.2386
1793.2914 415.5648
1794.2074 410.8012
1797.8877 415.20908
1802.4396 417.1048
1806.457 419.00854
1803.2119 422.70258
1808.3197 425.30984
1802.731 427.9521
1798.1396 424.45248
1798.5062 420.10974
1795.3574 426.83487
1793.7778 430.09103
1798.4343 430.91965
1798.149 435.25833
1803.3147 433.76508
1808.189 431.6542
1807.7751 437.6316
1807.389 443.31735
1802.7329 445.0175
1803.9685 448.96414
1808.0431 448.66815
1806.3401 452.77356
1805.9125 456.82874
1801.6711 457.96777
1804.2761 461.16788
1801.6901 463.83353
1802.1135 467.06528
1803.4016 470.6956
1801.1642 474.2176
1796.967 474.93576
1798.2107 479.4732
1796.4255 485.07257
1793.2864 491.60922
1789.0414 489.88312
1790.0397 484.5748
1792.8853 480.1056
1791.9202 475.6522
1787.8215 473.20035
1782.7207 476.0759
1786.8281 479.6742
1781.7063 481.4924
1779.5457 485.65753
1784.5841 486.972
1784.8141 492.95517
1780.2513 490.96033
1776.362 490.20718
1772.5319 490.1903
1775.3613 496.0585
1769.9989 493.73932
1770.294 486.565
1774.5706 485.46558
1775.4524 481.61078
1773.2434 477.54462
1777.8644 477.37592
1776.917 472.48035
1772.3104 472.71408
1768.3584 475.21664
1769.2554 478.62518
1770.0056 482.15076
1766.2869 484.19342
1762.7197 486.1556
1766.7375 489.22018
1764.3829 492.77533
1760.4016 490.74243
1760.0603 496.1163
1758.557 501.06494
1754.1823 495.3929
1754.7133 491.68228
1757.1348 488.91107
1754.414 486.20187
1750.7571 485.4855
1750.2688 490.03647
1748.2357 493.97375
1748.3881 499.4298
1753.4076 499.19513
1752.9526 503.49875
1749.1315 506.1129
1744.8794 502.5995
1743.2278 506.58432
1741.8097 510.5172
1746.783 510.66315
1751.273 510.6957
1755.3136 511.08603
1755.8655 506.82553
1760.6002 506.03635
1764.4684 502.08817
1765.6222 497.46097
1770.582 499.05255
1775.387 502.13654
1770.5035 504.12344
1765.3433 506.84937
1765.0364 511.13702
1759.9055 510.87042
1758.9431 515.78577
1755.62 514.90063
1752.0693 515.7792
1748.093 515.9607
1744.177 514.49426
1739.1268 513.1781
1736.3628 515.313
1734.1301 518.9349
1731.8751 514.80023
1728.1387 516.43353
1722.7346 514.914
1724.4829 510.68906
1727.5305 504.84506
1728.9904 510.84116
1734.1948 510.72485
1732.3066 506.71072
1732.6191 502.347
1737.7499 507.44104
1738.0454 502.81503
1734.3257 497.91263
1740.6038 499.37997
1743.8223 495.97253
1738.8145 494.18213
1733.3613 493.06226
1728.3691 491.605
1724.2782 494.9913
1728.4882 498.54245
1723.4781 500.8118
1719.0787 498.6938
1719.0276 503.7521
1722.7222 506.6358
1717.4171 508.06442
1718.1748 512.4049
1715.6707 516.58356
1718.061 519.3239
1722.248 519.5636
1726.4249 520.3748
1730.2644 522.282
1734.3306 523.5871
1738.7261 524.55975
1739.1641 520.2172
1742.4553 517.97394
1744.0806 523.4623
1747.562 521.2046
1751.6469 520.6402
1755.9497 519.8823
1753.4437 525.58765
1748.509 527.7142
1752.3342 531.7889
1755.2068 538.24097
1756.5964 532.512
1759.6833 529.70447
1758.3906 525.62537
1759.9606 521.9697
1762.0132 518.4049
1763.2037 514.5257
1767.2565 517.48553
1771.6693 519.9636
1773.2402 515.7532
1769.287 513.19086
1769.9453 508.44263
1774.1133 510.7296
1777.021 507.07062
1782.0757 504.97153
1780.5968 500.68787
1780.4215 496.055
1786.2047 497.1862
1790.8096 497.49857
1787.5552 502.39267
1786.0059 507.20032
1784.7354 511.39755
1780.6501 510.8368
1777.6315 514.61005
1781.1969 516.8785
1776.9363 519.9914
1776.6721 524.73035
1772.7034 525.0229
1768.5344 523.74445
1764.7377 521.91174
1763.9856 526.9109
1768.4225 528.97375
1772.5385 529.9045
1768.707 534.74884
1764.1619 532.1787
1759.1498 535.77704
1763.3245 536.3301
1765.01 539.849
1760.4165 540.1198
1760.8439 544.1827
1757.05 542.9291
1753.829 545.0374
1749.741 543.7153
1748.4714 548.4223
1757.0826 548.47845
1753.141 550.26874
1749.9148 553.8381
1747.1498 557.79486
1743.237 555.6017
1744.1787 551.0722
1743.6816 545.81274
1738.4099 545.46075
1738.665 550.035
1738.5569 554.9996
1734.5979 553.2373
1732.3323 557.74365
1735.3778 560.04865
1739.3187 559.3981
1743.2637 561.5277
1738.7878 564.3335
1736.9302 568.05176
1733.4749 566.86383
1732.3973 563.21375
1728.5397 567.22766
1732.4159 571.1111
1728.3914 572.4392
1725.7462 575.2087
1723.6749 578.15015
1721.1245 575.62396
1719.4023 571.2117
1723.7805 570.34564
1723.9958 565.2086
1728.0654 561.9152
1721.4612 560.4256
1725.0295 558.6274
1728.4689 557.19965
1729.846 553.7747
1731.667 550.0237
1733.5039 546.2385
1734.7169 541.40704
1732.0303 537.6252
1735.2361 535.58746
1737.658 533.0262
1741.6016 536.7712
1739.9645 540.9063
1745.5648 540.824
1751.2891 538.9028
1748.2244 536.1057
1746.064 532.8093
1741.9326 531.9817
1743.0437 527.7852
1737.9108 528.8814
1733.3004 528.3887
1730.0032 531.56915
1727.7274 526.5629
1723.121 529.2811
1721.9417 534.42395
1726.2073 534.11597
1728.3552 537.4542
1728.5499 541.9838
1728.3961 546.35944
1727.2488 550.6228
1723.7959 549.43854
1724.7549 553.98627
1720.7549 555.8869
1719.5133 551.9422
1715.0792 550.2393
1717.044 546.05066
1720.3821 547.56573
1723.4832 544.42267
1723.6669 539.5236
1719.6624 539.9567
1717.2039 542.3735
1714.8301 538.3711
1717.5323 535.139
1717.7493 530.04553
1723.1155 524.24677
1718.3385 524.5282
1713.8405 524.76917
1708.2626 525.8741
1711.6782 520.6836
1712.177 514.58
1708.8026 517.19037
1705.6525 514.8528
1703.2131 517.3658
1705.8479 521.7901
1701.0137 521.97626
1695.7722 522.0512
1697.9531 526.7044
1703.1465 527.0751
1702.966 531.5061
1702.5753 535.3729
1707.9246 531.1567
1712.269 528.946
1712.9429 533.2695
1710.9507 537.25793
1707.3312 535.51294
1706.8174 540.05035
1710.4717 541.3206
1713.5333 542.895
1711.8777 546.5492
1709.2631 549.9053
1704.7612 548.277
1707.5753 544.52484
1702.7723 543.7125
1703.0544 539.4727
1698.2504 542.87115
1695.0787 546.51685
1695.3314 550.17004
1691.4349 552.4831
1689.6716 549.0382
1691.1755 545.91003
1689.1478 543.2173
1693.5692 542.1147
1698.9094 537.82855
1697.6187 532.06885
1694.9087 537.612
1690.6527 537.6404
1687.1167 537.5665
1686.436 541.85645
1683.064 542.0396
1680.1364 542.91534
1676.7032 545.3791
1680.5789 548.51044
1676.2688 549.8396
1674.6768 554.2651
1680.0901 554.53125
1683.5219 552.6454
1684.5929 545.88446
1685.8577 549.35535
1687.4038 554.3792
1685.4257 558.5885
1691.372 556.9219
1693.8173 560.33905
1689.7205 562.1609
1687.0046 565.25073
1684.5792 568.84393
1683.7476 572.9021
1680.5582 575.10565
1676.6423 576.96564
1675.9675 572.5214
1678.5009 569.18726
1681.1222 565.96783
1682.1719 561.8509
1678.1072 558.81366
1675.8542 563.5722
1672.9526 567.7717
1671.3518 572.4683
1672.1265 577.466
1680.2075 580.364
1684.551 578.7385
1688.3805 575.63855
1689.586 579.66895
1693.1207 581.8554
1691.6628 584.9226
1687.1001 583.7608
1687.9973 589.2142
1691.8488 588.8667
1696.245 586.2148
1698.22 582.3369
1699.7838 577.87164
1695.5618 579.088
1693.7759 576.1705
1692.9119 572.599
1688.4904 571.00726
1692.1099 568.14233
1694.8425 564.7593
1697.4271 569.1375
1698.2124 573.58966
1703.2108 574.9027
1706.88 573.20807
1702.633 570.07764
1700.793 565.4407
1698.8715 561.4979
1697.4661 557.2573
1695.8695 553.86884
1699.806 547.79584
1700.6741 552.48254
1705.5918 553.696
1702.427 557.5104
1705.017 561.1849
1706.1152 565.22345
1707.4799 569.00653
1711.583 566.3939
1711.7737 562.17224
1709.3069 558.04443
1711.1877 553.8173
1715.5045 555.3905
1716.2305 559.91174
1719.1693 564.54346
1716.3179 567.0448
1715.0012 570.9604
1711.0819 571.1606
1710.3822 575.5701
1714.1101 574.812
1717.0557 576.73334
1719.298 580.25806
1715.3484 582.9299
1712.939 579.36725
1710.8424 583.0317
1710.2764 587.0153
1705.6615 588.1215
1706.8013 583.07086
1707.7927 578.36115
1703.7532 579.47473
1702.4612 583.4565
1701.101 587.29407
1700.5734 591.68744
1697.0361 590.24994
1694.2275 593.08093
1690.1599 595.08405
1686.0823 593.80664
1685.472 598.5121
1679.7512 600.8564
1677.4279 596.92316
1681.5857 595.92163
1681.0146 591.8773
1684.0586 589.0891
1682.731 584.4267
1677.9482 584.5671
1679.093 588.255
1676.8164 592.7201
1673.5566 590.4983
1669.5818 592.36285
1672.8207 595.8806
1674.5656 599.9629
1673.5256 602.9065
1669.3044 600.8683
1668.3268 596.80493
1663.9839 596.1888
1658.1659 597.2722
1663.8346 600.7659
1667.6948 604.94824
1663.322 606.16925
1659.5184 603.9002
1655.2135 605.6384
1653.9209 600.5686
1652.4882 593.91583
1649.1123 597.29974
1644.5679 598.7642
1647.9336 603.7526
1651.3707 608.465
1646.3864 609.5465
1642.0537 607.2026
1640.9161 601.7908
1638.5342 596.8022
1634.113 594.56793
1631.8986 590.56824
1628.9597 593.07214
1625.1545 593.87115
1622.569 598.1876
1627.2937 598.37866
1632.0725 598.6987
1636.271 602.4873
1633.6481 605.8335
1637.9971 609.93524
1633.199 609.7664
1630.8087 612.27936
1624.418 611.977
1628.0923 608.4733
1629.9794 603.2827
1625.6007 603.3811
1621.1997 603.34015
1622.6249 607.74945
1618.6509 612.0024
1617.4586 607.18555
1612.7302 608.1618
1612.7034 612.4715
1607.8187 613.38513
1603.5376 612.2746
1599.8148 611.4781
1596.4796 612.3397
1593.534 610.02576
1589.5537 612.3576
1588.6125 608.51373
1593.0112 604.867
1597.418 606.05505
1596.3452 599.97705
1600.4847 599.23346
1604.6748 598.75977
1607.5913 594.45886
1612.3997 597.30695
1609.0007 600.0265
1606.0021 604.0921
1601.5377 603.5745
1602.4028 607.7551
1607.5558 608.7388
1610.0011 604.50574
1613.2495 603.0777
1616.2418 602.3618
1618.8632 600.2749
1617.2395 597.0485
1614.9324 593.1313
1616.3995 588.5167
1620.414 593.06036
1623.0922 589.0703
1627.4921 587.8202
1632.1438 585.8949
1635.6976 588.79956
1639.1323 591.46045
1643.5286 592.9567
1647.149 590.3182
1652.1917 587.8345
1656.2019 590.5655
1660.1033 587.8927
1664.3213 585.4662
1661.1062 592.8881
1665.5997 590.4564
1669.3008 586.7621
1674.1572 586.51044
1675.4576 581.36127
1671.2297 582.382
1666.9309 580.7921
1667.4464 576.0689
1666.594 571.75037
1667.9135 567.7173
1669.6793 563.25696
1672.0536 559.24774
1669.7701 555.04706
1665.6912 553.47394
1665.2561 558.6354
1664.727 563.53253
1663.26 568.4009
1660.3079 564.8919
1656.2578 566.027
1659.9321 560.6413
1660.0286 555.8882
1662.2004 552.16235
1658.5889 550.55695
1654.6056 550.32764
1655.323 554.25195
1655.9756 558.4088
1653.8564 562.1906
1650.9706 566.2492
1649.6298 571.10974
1650.2247 576.0326
1654.6035 570.9087
1657.4646 575.1169
1659.2891 570.2112
1662.5431 573.569
1661.6997 577.7457
1661.508 581.75146
1656.563 583.41125
1654.669 578.08856
1651.0533 581.3701
1648.5408 584.97577
1643.8013 585.0066
1640.0972 586.14624
1636.7638 583.3929
1636.2341 579.0767
1632.6724 580.9579
1630.9701 576.78564
1630.5675 572.8315
1627.0568 574.3039
1624.7378 571.8491
1621.6621 573.869
1621.3738 576.98846
1625.0756 578.193
1628.396 579.8716
1628.6309 583.51245
1624.0559 583.28015
1619.8339 585.34973
1619.4304 580.2928
1614.6814 583.33014
1612.6342 578.9769
1609.2445 576.1639
1605.7842 577.9942
1601.4398 578.33307
1596.4617 579.658
1591.8188 577.65985
1594.656 574.5028
1598.5392 575.38245
1602.4772 573.38306
1604.68 570.46796
1601.1372 567.16425
1598.009 570.59546
1593.5686 569.40466
1596.7992 565.1748
1598.4312 560.739
1599.9972 556.5741
1602.3668 552.0937
1599.4735 552.3445
1595.9648 552.51086
1592.0524 550.7457
1592.2712 546.5192
1587.1746 547.3523
1582.6353 546.3469
1578.5405 543.9887
1574.3741 546.7192
1571.4062 551.63715
1577.1251 550.26697
1581.8992 551.8614
1587.1843 552.0326
1585.0127 556.13995
1588.0576 560.37396
1590.5944 555.6081
1595.1821 556.331
1593.6455 560.26855
1591.5045 564.00653
1589.5266 567.68835
1585.5266 565.9352
1581.6158 564.1336
1582.8209 560.0547
1579.3656 556.3677
1575.2529 555.23676
1567.9353 555.5785
1571.9515 557.7192
1573.0406 562.1682
1577.5521 561.4484
1575.334 566.9349
1579.9406 568.428
1583.4187 571.4656
1587.0919 571.4437
1590.4438 573.4252
1587.4161 577.38934
1591.8862 581.39404
1587.6653 582.0864
1586.0602 586.1968
1590.3481 590.168
1590.5028 585.7179
1594.2737 585.3746
1596.2137 589.86664
1598.0459 583.98364
1602.8597 582.7481
1608.4612 583.6213
1611.0167 589.31635
1605.5798 589.4101
1601.1904 587.8187
1600.7365 593.95496
1594.2181 594.5232
1591.5355 599.1227
1588.7175 603.8859
1583.6221 605.87067
1584.2241 610.8482
1579.1462 610.6953
1578.2247 606.46106
1573.2877 608.47174
1567.7864 607.3534
1561.5062 607.0114
1562.5521 603.22314
1566.6973 600.28455
1571.7609 602.4869
1576.3901 601.3577
1580.5544 602.5124
1581.6631 598.7075
1585.4213 601.4638
1587.0297 597.7681
1587.7876 593.69916
1584.368 589.5677
1583.0273 594.83014
1577.2826 596.8736
1573.1636 596.5512
1569.3625 595.6162
1575.447 592.08105
1579.2769 593.8362
1580.4922 590.303
1580.169 585.44525
1583.3054 581.6038
1579.064 578.56226
1583.521 576.349
1579.5923 573.6208
1575.7876 572.619
1572.097 572.76117
1569.5215 570.42944
1565.51 569.6979
1569.8607 566.1873
1568.0422 561.561
1563.7256 564.0384
1564.1647 558.41534
1561.0508 555.7822
1564.0175 552.0358
1567.2666 549.58453
1560.4155 549.62463
1560.5667 545.5775
1565.1556 545.68695
1569.9937 546.0671
1572.648 542.28345
1567.8427 541.3232
1562.949 540.9667
1557.7799 540.9648
1553.283 542.9461
1555.6412 546.67065
1554.6355 551.20087
1551.4062 549.7769
1549.7198 546.3312
1545.1804 545.90765
1542.7432 550.6264
1538.3916 553.0374
1534.639 548.27875
1539.9916 546.65173
1540.4598 541.0108
1538.735 536.8135
1534.3055 538.0611
1536.624 542.9209
1532.1635 543.33545
1529.4194 539.236
1528.4341 535.13544
1532.4255 533.4914
1528.4956 530.5833
1531.9635 528.03326
1527.4851 525.53265
1523.176 527.0174
1524.3738 531.3309
1518.7777 531.3951
1515.7993 527.5113
1514.3478 532.22754
1510.9388 530.4969
1511.1163 526.81744
1507.4532 526.92267
1506.7964 530.98224
1509.1091 534.3421
1503.6558 533.7464
1503.5444 528.97095
1500.1362 527.80414
1496.0675 525.9821
1492.9943 520.9254
1488.1653 521.00916
1486.7297 525.31354
1491.2437 525.69995
1491.105 530.6068
1495.1002 530.1081
1499.3948 532.45856
1495.1145 534.5192
1491.3682 537.0512
1489.0417 534.05865
1487.0062 529.84143
1483.2529 527.8782
1479.0834 528.3795
1480.6807 531.50793
1484.9106 533.7494
1480.9504 534.99335
1477.8335 538.00464
1473.6542 535.8407
1475.6206 532.3747
1475.6312 527.4748
1471.9504 528.69934
1467.843 528.8329
1469.3572 532.85736
1469.0869 536.84534
1472.4778 539.55273
1473.5608 542.4219
1473.6389 546.00977
1477.483 543.25995
1481.2783 543.9603
1482.3928 539.2663
1486.4603 538.2509
1489.8975 540.9916
1485.604 543.4405
1485.7037 547.98865
1480.9395 549.3392
1476.1707 549.10077
1470.8142 549.4369
1472.0557 553.8195
1477.5358 553.84546
1483.3478 556.0168
1485.1653 552.64435
1489.7872 554.7328
1489.9856 550.00586
1490.4513 545.426
1496.322 546.23694
1494.3491 542.66644
1495.7595 538.90656
1500.301 537.65094
1505.088 537.52313
1509.14 538.66974
1510.0271 542.3928
1510.3091 547.4089
1513.7155 544.73694
1514.5273 540.2017
1513.5497 536.079
1518.2615 537.24316
1521.906 534.59924
1524.5361 537.5327
1524.5474 541.4378
1527.7803 543.5491
1528.5414 547.826
1530.6906 552.13464
1533.8804 555.58295
1526.8586 556.29456
1527.6913 560.9203
1531.9932 559.9954
1530.534 566.0597
1535.2708 564.1864
1537.9314 567.5399
1533.4657 571.0311
1538.4927 571.9559
1542.1515 569.11865
1546.337 567.73846
1548.302 571.9971
1552.1133 573.7053
1552.1714 578.1207
1554.2175 582.2163
1555.5927 586.3952
1558.7794 585.7211
1561.4268 582.9583
1562.5729 579.4666
1557.435 579.05634
1556.96 573.9098
1555.4498 569.1432
1551.2123 568.21814
1549.8843 563.8297
1554.095 562.81635
1550.8075 558.47925
1546.8794 559.692
1545.2145 563.4524
1541.199 564.03235
1537.7842 559.57306
1542.1215 558.0266
1545.6613 554.92566
1547.3638 550.78046
1551.2722 554.18726
1557.9001 551.4123
1557.5448 554.6629
1554.9866 557.31506
1558.8901 560.2546
1558.2601 564.8326
1560.6176 568.49225
1561.938 572.4126
1561.2568 576.0344
1565.8347 575.7493
1569.5184 576.5276
1573.7372 578.0886
1576.2285 582.62616
1575.2356 587.72577
1571.3262 583.3352
1566.8474 581.26483
1562.6959 587.9512
1566.8745 586.40466
1570.5995 589.69696
1566.109 592.72845
1562.4124 593.3703
1561.4402 597.9526
1559.2183 592.2533
1556.6937 590.3846
1553.2585 591.54767
1555.816 595.9452
1556.8517 600.8899
1556.2932 605.7519
1551.6035 603.78
1551.4888 598.58026
1549.502 594.52576
1546.6145 590.0333
1549.769 589.61127
1552.3121 586.8021
1549.7231 584.27216
1545.744 584.41205
1547.749 580.3095
1546.6466 576.4737
1544.1246 572.52893
1541.9417 576.3221
1537.6968 575.88275
1533.8671 577.03
1528.9789 575.55743
1527.7844 571.0738
1524.2972 568.3827
1525.3135 564.10376
1522.1257 560.4588
1520.2683 565.2828
1519.6552 571.2606
1522.7437 575.27234
1525.4309 579.57294
1530.5046 580.6055
1528.9858 585.01074
1525.1617 584.5973
1523.0491 588.69434
1527.3978 589.3336
1530.2743 593.2345
1531.8466 589.86755
1532.8906 586.09
1534.8601 582.48486
1538.4644 580.52795
1542.4568 581.5855
1543.7037 587.39667
1540.5306 588.08655
1537.68 585.7193
1536.5107 590.14154
1535.2277 593.9479
1539.6963 593.69696
1543.7195 592.6847
1544.8094 597.03314
1547.4846 601.403
1543.3969 601.70044
1539.566 601.93463
1539.8922 597.8477
1535.9291 598.48676
1532.2665 599.72266
1532.5809 596.3186
1529.1493 597.07764
1526.1646 597.1633
1525.9688 593.28766
1521.6754 592.90674
1517.9575 589.9137
1519.0592 585.66473
1521.438 582.1456
1518.0939 578.7453
1514.4579 575.85345
1514.5189 571.1902
1509.0283 576.563
1511.262 580.95734
1514.9667 583.5898
1512.6938 588.3023
1507.9471 584.8821
1502.6864 583.3856
1500.1599 579.05396
1505.3158 579.4039
1508.9393 571.7795
1512.2175 567.4819
1516.164 565.29443
1516.2385 560.099
1519.5376 557.168
1521.7477 554.0483
1525.0662 551.2225
1520.6124 548.98047
1523.4495 545.653
1520.5227 541.00134
1518.0299 544.272
1516.0612 548.981
1516.0194 553.89813
1511.4686 550.9463
1509.9995 554.28424
1506.9631 557.57996
1511.9485 558.529
1510.8601 563.3289
1506.3235 561.85913
1501.8972 563.05786
1500.9935 558.7334
1498.5586 555.49884
1503.9001 554.63696
1505.5056 550.28094
1506.3998 545.6476
1504.4045 542.00494
1499.7881 542.62317
1501.2137 547.16266
1499.8307 551.33325
1494.6401 549.65137
1494.5396 553.83905
1493.7922 558.50354
1496.9216 561.73157
1496.4442 565.6253
1501.9775 567.7535
1506.5724 567.40155
1504.0004 573.5958
1499.5626 573.5677
1498.2264 569.29803
1494.9785 572.1674
1496.1216 577.64777
1491.7588 575.2086
1487.1207 572.4852
1490.1469 569.99536
1492.8616 567.7485
1491.2112 563.4496
1488.2678 559.2143
1483.576 561.206
1486.2385 564.4639
1485.7162 568.5023
1481.4216 567.1566
1478.5609 563.3023
1479.791 558.2898
1475.1614 559.20447
1471.3724 563.29913
1469.9503 559.00653
1467.1337 555.4413
1465.2228 551.15765
1459.4913 552.8469
1462.3386 555.9049
1464.2563 560.2931
1464.5195 564.2607
1466.8845 567.4128
1461.4326 568.19794
1462.9641 571.57776
1458.8022 572.6014
1457.7687 576.39636
1453.5565 580.03314
1449.5469 578.8665
1445.6013 576.5547
1444.6558 580.94794
1449.9117 584.2762
1445.8197 584.93567
1440.8079 584.8737
1444.2175 588.2933
1441.9388 591.89307
1436.297 586.6984
1438.3309 592.0493
1436.5541 596.7632
1432.3514 599.00336
1429.5613 603.8251
1425.3291 606.8605
1423.4762 611.0459
1420.2618 609.7157
1416.4535 612.06494
1415.5983 606.9065
1420.6589 604.81964
1424.6191 602.2585
1427.7123 598.9896
1424.0979 595.9823
1419.923 598.931
1416.1931 602.19147
1411.4395 609.8121
1409.9586 603.6986
1412.8517 598.26953
1416.5898 594.176
1420.373 592.38995
1423.3625 588.4902
1426.6199 583.706
1428.271 593.1118
1433.2434 591.9578
1430.3268 587.34503
1431.5835 581.13226
1434.6049 575.2054
1435.9395 578.8161
1438.7019 581.3713
1440.9391 576.8434
1439.4668 572.1013
1442.854 567.91547
1445.885 572.2716
1450.8234 573.61066
1454.2675 575.3048
1455.375 569.8284
1449.7361 568.7915
1447.0503 564.09564
1451.3483 559.7372
1453.1665 564.67993
1458.4355 565.38727
1458.4679 561.0797
1456.7338 557.56354
1454.8073 554.32404
1459.6511 548.9112
1462.6469 546.6575
1465.3154 543.9084
1467.2246 547.4591
1469.6996 543.9955
1467.2097 540.5096
1464.8132 536.7233
1460.8127 538.12897
1462.2058 541.5361
1458.4628 544.0263
1454.2695 540.91876
1457.356 539.6917
1457.4513 535.5032
1461.289 534.35004
1459.5664 530.8819
1464.4006 531.70416
1463.7246 527.2405
1467.2584 524.9683
1471.0133 523.5764
1466.1617 521.44073
1465.271 517.53174
1461.8046 518.29694
1457.9086 514.8241
1458.3633 518.7642
1454.5302 519.3844
1452.5906 516.0933
1448.4209 515.5766
1445.395 518.83325
1449.9475 520.968
1453.68 524.11365
1457.8936 522.78204
1462.4551 522.7711
1460.0076 526.4529
1456.3964 527.8101
1451.9728 528.54785
1454.6945 531.8783
1453.8269 535.68964
1450.7261 536.2713
1448.6023 531.71045
1445.1199 527.9134
1448.5345 525.45154
1443.1792 523.2255
1439.5304 518.87067
1438.0498 513.9318
1435.0688 510.24582
1438.8218 506.4484
1442.9348 508.38953
1443.2903 513.40125
1448.2961 511.29144
1453.7847 512.4059
1453.303 508.7936
1452.0337 504.52203
1448.7899 502.93234
1448.5907 507.5761
1445.9918 505.2481
1443.6775 502.89493
1444.6694 499.59244
1447.3245 496.20883
1451.7301 495.9612
1450.1123 499.84686
1454.1188 500.11383
1457.5509 498.2269
1460.3816 495.4302
1458.1091 492.22916
1455.482 495.31653
1453.9379 491.71106
1452.2526 488.2447
1454.2744 485.06323
1457.2269 488.0588
1461.2546 489.67404
1463.7745 493.39984
1465.9604 490.72314
1468.9585 488.56863
1465.0249 486.45636
1461.6528 485.05164
1458.4689 483.34695
1462.1884 480.1605
1466.651 481.7383
1470.5677 484.62433
1473.096 489.5969
1469.2585 494.77646
1464.8389 497.27594
1461.3986 499.87784
1457.8158 502.3888
1455.2783 505.05658
1458.5189 506.97107
1458.6604 510.74072
1463.1108 508.60468
1462.4133 503.9146
1467.149 500.89975
1466.785 506.25446
1468.073 510.39236
1462.332 513.2819
1465.8643 513.6765
1469.0769 519.3506
1471.8235 517.37646
1469.6702 514.57983
1472.2651 510.18497
1476.694 510.03098
1479.2333 513.2576
1475.0062 514.958
1478.9238 518.6844
1474.4098 519.902
1475.2914 523.5472
1479.5547 524.0098
1483.2573 522.36316
1483.8344 518.06537
1483.489 514.1315
1482.3833 509.67673
1480.2715 506.1362
1481.6613 501.71283
1482.6284 497.40106
1477.9583 498.11438
1477.2031 502.1953
1475.0243 505.77213
1470.7808 504.47522
1472.6245 499.4304
1474.2883 494.37717
1474.9741 484.4627
1472.0037 480.496
1474.5729 476.7725
1469.5486 476.35352
1464.9149 475.5613
1460.0178 475.62903
1454.9023 472.36252
1450.5117 473.03293
1448.2002 476.77682
1452.2942 477.73636
1456.9889 477.83313
1455.0354 481.22174
1450.4803 482.82208
1446.8987 480.7848
1443.3687 478.6116
1444.6321 475.77042
1442.1228 472.88852
1446.0256 472.1934
1448.1351 468.69647
1452.1292 467.15726
1456.8992 467.45486
1460.6064 471.28186
1464.0471 467.40594
1460.0922 464.53104
1464.3887 461.84335
1469.5109 465.03244
1467.688 470.78143
1473.283 471.25424
1478.496 475.95584
1477.7937 480.1776
1479.1622 483.45538
1477.9158 487.3797
1478.1875 491.01877
1479.4016 494.508
1483.1239 492.9662
1485.2476 489.98746
1481.9994 487.8348
1482.9415 484.3036
1482.2966 480.72882
1486.6953 486.2061
1490.3741 489.91138
1488.3113 493.17056
1486.5223 496.41443
1485.7576 500.03177
1485.3333 503.35794
1485.445 506.64417
1486.5115 510.56436
1489.3009 512.843
1489.0375 516.7776
1493.69 514.28156
1493.8052 509.60574
1489.9082 507.99307
1489.1245 503.99707
1489.866 500.37427
1490.9629 496.8463
1493.722 493.93774
1497.1414 497.49878
1494.5089 500.46167
1493.0518 504.5081
1497.429 506.09045
1499.6464 501.5133
1503.6389 503.70337
1502.5328 508.46503
1498.5387 511.83875
1503.8304 513.85803
1500.5416 517.3185
1496.1558 517.411
1497.8336 521.71356
1501.2837 523.4206
1505.0458 524.0031
1504.8816 518.999
1510.0992 516.2227
1508.879 521.37897
1512.4716 523.16034
1516.8248 522.38324
1514.6547 518.1976
1521.0157 517.97943
1520.424 524.4943
1525.5468 519.8017
1530.501 521.7331
1535.6569 522.9278
1535.9128 527.16846
1536.1165 532.20844
1540.7665 526.62744
1546.3463 527.8634
1544.4468 531.6563
1540.0409 531.67346
1543.1626 536.0637
1544.2305 541.6271
1548.9193 541.78625
1547.031 537.6879
1549.0254 533.5283
1551.9803 530.68774
1552.1162 538.01044
1555.5333 535.6039
1557.6932 531.497
1560.9764 535.50696
1565.658 535.8003
1570.1122 537.3064
1573.5776 535.3309
1575.6499 539.657
1578.6746 536.4244
1581.9398 539.90796
1586.4677 539.54254
1589.1577 542.9441
1592.8806 539.0342
1598.6709 540.7736
1595.3477 543.46533
1597.0353 547.9517
1601.0004 547.4883
1602.6466 544.1325
1603.3217 539.94366
1607.9048 539.83704
1607.8492 543.53
1606.4375 547.1029
1604.9028 550.1323
1609.0624 550.7633
1613.0055 550.8224
1617.3837 550.74414
1618.5265 554.52686
1622.4094 553.7702
1625.2805 551.0281
1621.6875 548.8434
1616.9082 546.32996
1611.8108 546.05524
1612.5184 540.54285
1617.0298 541.23083
1622.5756 539.3414
1622.2954 544.0319
1626.7552 545.9095
1630.3086 549.1022
1628.4509 552.6095
1627.7413 556.08954
1624.872 557.2225
1621.3481 558.2877
1620.1261 562.0968
1625.6829 561.3113
1625.9637 564.9239
1620.974 565.5618
1616.7936 567.1264
1612.5562 567.6816
1609.5859 564.2593
1609.1416 560.19
1614.3369 562.5058
1616.56 558.7967
1613.8992 555.5301
1609.7683 555.89703
1605.9921 553.88837
1604.5168 557.4326
1602.8922 561.5447
1605.0061 564.8943
1607.947 568.05475
1608.6627 572.04376
1613.1685 572.48895
1616.4917 575.8931
1617.8318 571.58887
1621.1168 569.7124
1624.3528 568.05975
1628.427 569.0764
1630.7319 564.3266
1633.3716 568.2702
1633.9944 572.4529
1636.4794 575.3295
1640.6891 578.0273
1645.2308 580.2815
1645.3333 575.3515
1643.7415 571.06824
1638.5474 571.4642
1639.7526 566.9607
1635.802 563.83997
1638.7644 559.9997
1642.5002 562.3669
1645.7568 566.23566
1648.2574 561.58307
1651.3862 557.6883
1650.6943 553.37524
1646.0214 553.32043
1646.485 557.5384
1642.1484 556.764
1638.2411 553.03864
1636.5339 556.32434
1633.7156 559.4363
1629.6978 559.84503
1631.6338 555.3937
1633.6156 552.142
1635.8978 548.9315
1632.0493 544.61774
1628.7264 539.84375
1635.0652 539.3279
1636.8901 544.5842
1640.6599 542.0361
1641.005 537.0752
1646.9729 535.9682
1646.5474 540.7459
1650.0791 544.37964
1647.0134 545.63885
1643.4846 544.902
1640.3314 547.9485
1641.8665 552.10803
1644.6464 549.1133
1648.4667 549.7946
1651.8347 548.15344
1653.2365 542.4571
1655.9285 545.5782
1659.9341 546.4108
1657.9331 539.7525
1651.9972 538.39545
1654.6564 534.57996
1660.45 532.96985
1663.1759 538.43884
1662.4268 543.0493
1667.4795 542.7557
1664.7334 547.5566
1668.5719 549.75006
1672.1136 549.02106
1671.6672 545.0829
1672.8805 541.3657
1676.5055 541.1624
1677.7408 537.97003
1681.1918 537.2325
1683.8563 538.09735
1683.8575 533.28577
1687.9622 531.9757
1692.7074 532.70636
1692.1018 527.8099
1690.953 523.5489
1686.3293 525.8286
1683.8442 528.58997
1678.0182 528.3057
1680.524 530.43
1679.5859 534.2307
1676.1593 532.4319
1673.7299 536.21893
1669.8702 538.3142
1666.5479 535.1927
1666.2904 530.7431
1671.4719 532.27826
1671.6335 528.19226
1675.654 526.00214
1680.9487 523.82385
1686.1853 521.2887
1691.0023 519.06586
1695.4109 516.1254
1699.066 517.6379
1700.9008 512.7865
1705.2633 508.6856
1707.6998 511.47147
1712.7297 510.34018
1710.6624 506.29547
1714.5056 503.03156
1706.2532 495.38947
1707.8154 491.63284
1711.7216 490.36288
1714.0522 487.00122
1715.8445 483.90955
1719.6323 481.439
1723.0734 478.4184
1717.7844 475.2693
1722.0156 474.17023
1721.9791 469.6755
1725.7883 471.12292
1727.2708 474.5691
1732.3159 487.46674
1735.3512 483.37305
1738.1292 480.0334
1739.6907 476.16553
1743.0271 473.59625
1747.1238 471.98196
1748.8987 475.18167
1746.2617 477.84485
1742.6914 479.38995
1741.1738 484.62024
1737.9248 488.75397
1743.3269 490.28143
1746.5367 487.06482
1745.5442 482.89893
1749.3226 481.5151
1753.6675 481.52875
1751.6251 477.93277
1755.494 476.3053
1757.9989 478.95148
1757.2988 482.282
1758.8362 485.36813
1761.658 481.28247
1764.9503 479.2203
1760.3099 475.58884
1763.909 474.53467
1762.7683 469.86017
1766.8657 471.28522
1769.4214 468.62372
1774.081 467.19647
1776.5128 463.08646
1778.3057 458.79663
1781.9492 456.2457
1783.9625 459.9397
1781.3948 462.01672
1780.6069 465.20273
1778.9159 468.60666
1782.7086 471.6435
1784.1826 467.49496
1788.4182 468.25485
1786.0123 463.6893
1787.839 459.45505
1787.7361 455.93042
1793.4458 458.13376
1792.5084 461.68652
1789.702 463.68137
1792.8303 466.63968
1792.9099 471.09967
1796.6914 470.26508
1799.5342 469.30267
1796.9618 465.19287
1797.5767 461.0905
1797.9154 456.77545
1791.9714 454.53818
1788.1108 451.34647
1784.4783 453.06973
1781.2667 450.69592
1779.9238 446.5002
1778.6334 441.86942
1783.5941 442.30164
1785.6436 446.93732
1790.1989 447.68695
1793.4746 450.17627
1796.667 452.84274
1801.4597 452.96677
1798.8232 448.36215
1794.4585 445.57416
1798.3159 443.1684
1803.6274 440.15225
1799.9941 438.73294
1795.5781 439.13626
1792.3354 441.28473
1789.116 443.51013
1787.4625 439.2677
1784.8744 436.06787
1780.4247 436.56897
1777.4384 433.29605
1774.7971 439.73782
1772.7079 435.4684
1767.8016 435.51163
1769.2498 431.31747
1764.3438 430.7799
1762.2655 435.97568
1751.8889 432.32504
1751.3307 427.82715
1749.0771 435.41473
1745.0707 436.52612
1740.9482 435.37427
1745.2346 431.07083
1746.0376 424.90814
1741.4028 428.05322
1739.6421 423.59808
1736.6792 428.0361
1732.5259 428.52676
1734.4518 423.39243
1731.2743 420.08395
1726.7828 418.30035
1727.4916 422.43307
1729.5985 425.68045
1727.7802 430.19223
1730.484 433.06873
1734.468 432.68842
1738.8306 432.15173
1736.191 436.68185
1732.8147 440.75748
1731.2804 437.14948
1726.713 435.46286
1726.2312 439.79324
1724.6628 444.2876
1723.419 449.28094
1727.6978 448.56854
1729.5183 443.5944
1731.6504 447.6039
1734.7689 449.6662
1730.8479 452.95575
1729.9375 458.171
1734.116 456.9455
1738.9634 457.50674
1737.2963 453.2361
1742.4766 452.93112
1740.7994 449.70093
1737.9384 447.67255
1735.438 444.24084
1737.9783 440.43393
1742.3477 440.00208
1748.0366 440.6979
1745.5148 443.8348
1740.8024 444.593
1744.6993 447.89597
1754.4916 452.62613
1758.7633 454.5604
1763.617 453.234
1767.0747 458.4603
1769.4524 452.24493
1764.9634 446.67987
1758.6106 448.81787
1759.6815 443.33813
1764.7418 440.14825
1769.415 441.13007
1771.613 445.6376
1774.9822 449.0047
1776.9998 453.62662
1773.3573 456.9499
1771.9907 461.3312
1769.0698 464.3587
1764.303 464.7665
1761.9285 460.2347
1757.6516 459.10147
1753.6387 457.17487
1750.3389 460.16495
1749.136 464.32614
1753.663 462.54288
1757.7424 464.05496
1759.2937 467.73285
1757.3025 471.9498
1752.5642 472.8402
1754.044 467.82385
1749.884 468.65683
1745.4048 468.27118
1735.6185 461.70996
1731.0679 462.60956
1733.0476 466.2348
1730.2162 470.07166
1727.1089 466.57297
1726.9868 462.35413
1722.7537 464.4611
1723.8591 460.06305
1726.238 456.5499
1724.6235 453.08804
1720.6097 456.93112
1718.6259 462.5583
1718.5682 466.94473
1715.6011 469.91498
1712.2495 474.77975
1714.893 479.35797
1709.9629 480.395
1706.5245 483.18738
1709.1218 486.95132
1703.7394 486.96707
1703.3168 491.04947
1699.1329 492.6148
1696.154 496.2801
1702.6582 496.08734
1700.2043 499.2287
1696.5383 501.7977
1691.7186 500.2287
1692.3293 504.91867
1687.1265 505.51587
1684.9417 509.64206
1680.0023 510.5415
1595.9917 441.18335
1597.3188 438.45038
1599.3638 435.9325
1602.6251 433.162
1605.9202 429.5233
1601.9991 427.0866
1598.4768 430.35767
1597.4945 425.37915
1597.6929 420.15057
1601.3527 422.0466
1606.2423 423.859
1611.0339 424.9901
1610.3114 419.3826
1614.8915 421.24274
1618.46 417.86578
1621.195 414.32632
1620.1797 409.6177
1623.4663 409.81174
1625.5607 411.97342
1629.1122 408.7358
1626.0087 406.54175
1623.8162 402.5335
1627.862 402.45883
1630.934 405.14548
1633.5001 401.8121
1637.1912 398.97192
1638.9174 395.38788
1642.762 395.72925
1644.4755 392.261
1640.3219 391.25967
1637.2222 387.26477
1641.0502 386.80768
1643.8674 384.42853
1643.9075 388.63257
1647.2231 389.24252
1650.4224 387.15707
1648.0024 384.646
1652.5166 383.89154
1656.5737 381.45355
1659.1753 377.51855
1661.1476 374.30884
1663.9817 372.15656
1666.9426 369.86313
1664.4116 367.14832
1666.0781 364.33533
1667.0437 361.02255
1669.5144 363.46738
1670.1637 367.0971
1674.1362 363.90176
1672.4084 360.80966
1672.8635 357.02097
1677.7722 359.03497
1681.4229 353.70966
1686.2122 351.5092
1676.6355 353.8802
1673.8096 350.14822
1672.8755 346.14853
1678.8364 347.2216
1684.4736 348.03125
1690.4694 346.0239
1695.53 342.3627
1696.749 338.13132
1701.2961 336.8261
1699.4004 334.05637
1704.6653 332.3743
1707.4302 328.7105
1702.3478 326.59995
1700.4858 330.2799
1697.5039 324.90546
1693.3678 325.6143
1687.4719 323.43796
1689.6871 326.1342
1688.3713 330.02267
1684.884 327.4498
1681.3107 330.8475
1684.9005 332.07208
1686.3916 335.59476
1689.9286 333.36234
1692.439 330.31604
1696.3612 329.23907
1695.9471 333.06317
1693.3569 335.6052
1689.9214 337.20444
1691.4146 340.8997
1686.561 340.11365
1685.0452 344.07462
1681.5181 341.16168
1677.5068 341.25134
1682.3582 336.29535
1678.325 334.7816
1674.5609 337.08627
1673.2894 341.0335
1670.3605 342.64697
1667.4178 342.83487
1666.8236 346.43414
1662.9365 348.4174
1662.0125 351.57422
1666.0876 354.29486
1667.6494 350.17685
1670.6416 353.371
1668.7461 357.86346
1664.9191 358.256
1661.5449 358.82465
1661.9188 355.30493
1657.884 353.17624
1657.9746 357.52734
1654.2753 356.45764
1654.1165 360.13986
1650.3655 360.0282
1651.8982 364.1782
1647.5227 364.20892
1650.234 367.91394
1654.0555 368.7087
1655.9012 363.55182
1658.8778 361.3853
1663.0469 362.16022
1660.7479 365.21442
1657.2303 367.2289
1660.5848 369.5912
1657.2769 372.80582
1653.3528 372.73492
1649.5193 371.7763
1646.2235 373.25946
1646.334 368.859
1643.4666 366.80396
1642.0405 370.88147
1638.3755 371.8539
1640.0745 375.70114
1643.0139 374.2398
1644.1469 377.19934
1647.3347 377.74918
1650.437 375.89816
1654.834 376.74435
1653.595 380.1433
1649.9976 380.46298
1645.7146 381.24878
1641.8037 380.1002
1638.7019 383.68625
1637.9794 380.23297
1636.3452 375.56635
1634.4568 378.76303
1631.1958 380.43182
1627.7554 384.16324
1633.5508 384.4428
1632.5822 389.2344
1636.3696 390.6782
1634.7963 394.02518
1632.4193 396.9542
1628.8704 398.3678
1624.5729 398.07858
1625.7874 393.46246
1629.714 392.80563
1628.3828 388.07178
1623.5043 388.33615
1621.8259 393.66254
1619.0493 391.75824
1616.6526 395.4302
1619.7245 397.33838
1620.823 400.41187
1619.1725 403.86438
1622.0873 406.0296
1616.8838 407.35104
1616.81 411.6242
1614.7556 415.8193
1612.0928 412.67245
1611.7465 409.1551
1612.5928 405.7023
1615.0714 403.38098
1616.2877 400.23657
1613.1155 397.30093
1610.7214 400.98837
1607.511 404.13815
1607.6437 407.95578
1605.8915 412.087
1608.4845 415.15314
1605.176 418.77243
1601.9458 415.946
1602.81 408.3275
1599.271 411.9804
1596.9951 415.7498
1593.7623 417.9652
1593.8164 422.73672
1590.1278 421.30115
1589.7153 425.6474
1593.3234 427.36032
1593.781 430.8246
1594.9135 434.36804
1593.4696 438.38965
1590.9425 436.12564
1589.2292 432.96558
1587.5352 429.5943
1585.5563 425.39352
1582.113 429.51117
1577.7161 434.04965
1583.7247 433.38416
1584.2314 437.5431
1587.3618 437.22485
1588.9757 440.1905
1591.4752 441.64648
1593.5771 442.598
1592.5996 445.4382
1589.7944 446.71207
1588.6599 443.72342
1584.4148 441.5291
1580.6119 437.5423
1577.786 440.5775
1580.3633 443.85165
1583.621 445.19025
1586.4575 446.57846
1587.7294 449.93323
1583.7478 448.96756
1584.0226 452.10828
1581.6726 455.67343
1579.5454 453.2721
1577.1039 457.45535
1574.1835 460.9835
1570.7168 463.76685
1569.0276 467.60873
1565.941 463.83145
1564.7373 460.3202
1569.3292 458.83975
1572.6898 454.64902
1572.3964 448.9046
1576.426 451.29044
1580.1067 448.6524
1576.6443 445.91116
1573.2351 443.57968
1574.048 438.09967
1570.1105 440.99088
1567.4891 445.06952
1562.6992 448.06796
1561.4272 452.00217
1567.3495 449.72217
1567.9935 453.78778
1564.6086 456.11697
1560.0474 455.6243
1560.8608 459.3599
1556.7257 460.459
1555.9523 455.14832
1551.6288 459.15552
1552.7628 463.60922
1547.1259 464.48163
1551.623 467.90744
1556.7178 466.1002
1560.8783 463.69876
1555.4069 470.30786
1551.3877 472.74222
1548.5864 476.14026
1556.189 474.34198
1559.4155 471.77484
1560.7068 467.88754
1564.9324 467.91803
1563.5327 471.617
1560.7059 475.9535
1556.926 478.52747
1553.1135 476.9911
1553.7666 482.2112
1550.7244 480.3443
1546.6152 480.31055
1549.112 485.35275
1544.6807 490.5989
1543.8259 486.85123
1543.3829 483.14532
1542.4769 478.92636
1543.9299 475.61847
1545.6088 472.5928
1547.4218 469.33734
1542.1387 468.9771
1540.1436 473.5361
1536.4998 474.22922
1538.6326 478.3655
1539.0109 482.83258
1537.6702 486.47372
1538.7112 490.44308
1540.0059 494.63638
1536.2192 499.26752
1534.2753 496.1731
1533.2966 492.61218
1532.5847 488.64062
1532.9521 484.47852
1535.1202 480.75757
1533.2307 477.54486
1529.959 480.9034
1527.6698 484.84598
1523.888 487.09518
1527.6431 490.4086
1528.5731 495.11426
1530.8965 499.78348
1523.8367 495.7394
1520.823 498.99573
1521.9823 502.32654
1525.973 499.6305
1527.7788 503.6701
1533.0787 504.259
1538.05 508.5218
1538.2869 512.5643
1534.0491 509.00357
1529.1626 507.84943
1524.1118 505.40372
1517.6155 513.9955
1513.0898 510.63724
1507.8752 511.65054
1508.3428 506.78305
1516.7834 499.96085
1518.7346 495.59238
1522.464 491.82373
1518.9281 488.69598
1516.7577 492.32565
1513.6877 496.5363
1511.69 493.08112
1513.9104 488.93552
1513.225 484.355
1509.1302 487.9023
1508.0787 492.22546
1504.7173 489.80627
1503.2344 486.3423
1498.6664 483.78964
1498.016 478.35797
1493.9656 477.82135
1490.2488 473.63754
1495.0306 471.58163
1497.4863 473.8067
1501.4928 474.58997
1501.0547 480.24286
1504.6074 482.28165
1508.5774 483.6916
1509.689 479.6171
1504.5546 478.0214
1507.0668 475.45456
1504.419 471.5111
1501.4061 469.0998
1496.0635 467.58258
1491.5834 468.97668
1487.008 469.3304
1484.2604 465.2507
1481.2404 461.70758
1483.7433 457.34222
1485.2744 461.01782
1489.0269 461.5744
1488.9749 465.3223
1493.4338 464.5576
1499.1304 465.97433
1501.106 463.0387
1497.5575 461.31842
1493.2295 461.0081
1487.8129 457.29648
1491.0917 457.72092
1494.8146 457.27106
1497.9033 456.1724
1492.5757 453.64856
1492.439 449.79
1496.0471 449.4483
1492.3784 446.0764
1488.6736 450.0861
1486.9314 453.50995
1483.931 449.18738
1479.911 451.35724
1482.3344 453.97043
1479.4653 458.07086
1476.7422 454.53326
1466.2028 457.9057
1462.0864 455.18884
1460.7704 450.67987
1456.7239 448.71408
1457.2905 444.2072
1455.0302 440.07874
1454.3601 435.54642
1465.5697 428.94363
1467.5852 435.71808
1473.1118 436.06488
1471.0889 441.2045
1473.3729 445.4849
1473.5077 450.44177
1476.6844 449.1778
1479.7416 446.51474
1487.3577 446.2814
1483.9176 443.72467
1484.0614 439.2492
1487.3268 439.63318
1489.3103 443.0035
1494.439 443.16687
1491.5657 439.62747
1492.4879 435.81418
1490.6849 431.32193
1488.7301 435.7921
1485.0533 433.7101
1485.4633 429.06265
1481.395 429.9915
1481.2686 437.27274
1479.0762 442.46793
1476.4076 439.35526
1478.5566 434.08936
1476.627 429.90543
1471.2391 431.36612
1472.6421 426.71667
1468.1155 424.09424
1472.8373 421.99374
1470.9088 418.60983
1474.7993 416.27023
1476.4884 411.41486
1472.4038 413.69836
1470.7106 410.7019
1469.1879 407.54456
1470.1691 401.52676
1472.4353 404.82736
1474.5186 407.92593
1477.7214 404.54758
1482.2021 403.01627
1486.4663 404.87585
1485.4753 410.45148
1480.8602 408.6404
1481.5714 413.49615
1478.7852 416.38043
1476.9744 420.2569
1477.4197 424.72308
1481.8279 425.54608
1481.6298 420.95053
1484.6582 417.33716
1486.2319 423.23456
1488.8083 427.64532
1491.498 425.02026
1490.2697 419.74673
1489.4092 414.7911
1490.4812 410.15933
1491.0148 405.81082
1490.3796 401.60788
1491.0907 397.38156
1489.7526 393.26294
1491.2006 389.26263
1493.9421 385.06866
1491.2734 382.48508
1487.9962 380.34097
1489.501 376.37152
1486.037 374.96277
1487.8259 371.64624
1486.2124 368.26416
1483.8145 364.7308
1481.9113 361.13965
1479.3644 365.58127
1476.666 368.6935
1478.3322 372.7396
1482.1409 369.27756
1482.2955 372.90894
1482.5879 376.73868
1477.9808 377.35278
1475.0244 381.83905
1479.7596 381.10526
1484.031 381.06134
1486.8723 385.65225
1484.0168 389.8326
1484.0248 394.08478
1486.0714 398.68713
1480.3009 397.89844
1475.0939 399.49512
1477.5751 393.0219
1480.5918 386.20734
1475.491 387.4197
1470.6001 384.6778
1469.9436 380.55582
1471.044 376.4297
1474.8027 376.02524
1473.7662 372.16962
1470.0006 370.82797
1472.3755 367.44717
1475.0746 363.47034
1477.5612 360.8182
1478.7438 356.93558
1473.5819 357.82327
1468.5192 356.63232
1470.6825 353.14212
1466.2318 350.51785
1464.4338 345.48853
1459.8619 342.94342
1459.7257 348.8944
1463.121 354.55432
1458.2236 354.04507
1457.4435 358.9686
1461.1156 360.0002
1463.2131 364.04306
1465.2959 359.45636
1469.2379 361.1136
1471.4993 363.60947
1467.5309 365.7583
1465.1387 369.4052
1466.65 373.55243
1466.1998 377.97223
1461.9312 376.28806
1460.7566 372.3799
1460.5292 367.90604
1457.1858 364.67227
1455.7253 370.50623
1456.3698 375.86597
1455.1992 380.41614
1457.4656 383.05072
1460.9978 380.4119
1465.0688 382.82358
1466.4889 386.7593
1469.9675 389.32742
1472.3606 392.76068
1469.5674 396.6315
1465.5092 401.08908
1463.273 397.56866
1464.3093 393.84775
1465.6437 390.90045
1462.4612 388.4604
1460.7052 385.53595
1456.9152 386.5734
1454.5215 388.10657
1458.382 391.03253
1458.4067 394.99182
1457.8367 399.56918
1460.7083 402.08035
1466.8577 404.84915
1463.9474 406.62906
1461.117 405.85928
1457.8636 406.7681
1460.9153 410.60464
1465.6106 409.669
1466.5232 412.33484
1468.9207 415.32748
1466.1237 419.36166
1462.7142 422.85464
1465.266 415.2249
1462.079 416.3381
1459.125 414.58368
1450.2195 418.51724
1446.882 417.12808
1448.7499 412.55594
1444.4758 413.92004
1441.8434 411.30005
1445.855 408.94516
1447.4034 404.38278
1443.7998 404.2504
1441.1097 406.95117
1438.5234 410.13327
1435.6248 407.49066
1438.2673 404.299
1435.9863 401.6167
1441.9598 400.7537
1438.635 398.3439
1432.606 399.3993
1432.3972 403.95508
1430.6859 407.5034
1427.0507 410.12326
1425.4718 414.4064
1421.8914 417.34787
1421.0231 422.04678
1416.9489 418.95358
1417.449 413.63898
1420.9248 411.71588
1422.6422 408.54376
1421.2783 405.1432
1418.9807 401.89365
1415.2452 401.73108
1411.6576 401.33423
1412.349 396.0894
1416.0344 397.32718
1420.0732 397.7844
1420.2566 393.54068
1424.7654 392.95993
1424.4836 397.39056
1423.381 401.4318
1426.1979 405.6087
1427.9717 402.02127
1429.0273 398.03418
1428.4515 394.21906
1432.5239 393.43713
1435.5477 395.83765
1441.3577 394.57178
1445.3903 397.577
1444.7743 391.323
1438.185 391.70004
1437.8372 388.07242
1441.3695 386.52087
1445.3304 386.64343
1444.9954 382.76654
1445.2961 378.80853
1441.5852 380.30978
1438.5447 381.73557
1436.9653 384.44235
1433.571 385.33328
1432.4963 381.1151
1435.9026 378.47055
1431.6796 375.91437
1436.4335 374.07443
1440.3125 376.1837
1445.1969 374.49268
1441.7046 371.54214
1445.0751 368.1203
1444.6713 362.15436
1446.0697 355.26233
1442.3883 357.22528
1438.417 354.854
1435.255 351.96918
1439.5178 348.14728
1441.9934 351.27234
1446.0057 350.20276
1447.2062 345.77396
1449.3342 340.12726
1444.7806 341.32535
1441.0496 338.51562
1438.7059 335.04196
1438.891 330.7682
1432.1387 330.55093
1434.4346 327.0155
1432.7698 322.6846
1429.0397 327.4961
1426.5316 332.40863
1424.4196 337.4279
1429.9645 338.27283
1430.1439 334.41235
1434.9298 333.26468
1434.4725 337.658
1436.084 341.30667
1440.7474 343.767
1435.5581 345.85226
1432.1179 348.32877
1427.6786 345.77805
1431.0508 342.8992
1426.7922 340.16553
1424.1276 342.5601
1420.9152 344.4268
1423.4069 347.9654
1419.2465 350.31897
1417.6787 356.8635
1420.8888 353.8237
1425.0919 352.67114
1428.0454 350.06763
1430.9562 353.6032
1434.0431 358.38013
1429.7555 361.92
1433.2887 365.2569
1438.4708 361.0205
1439.8346 365.75735
1437.2051 369.4734
1432.7269 370.7206
1428.1675 371.24133
1426.2653 366.25424
1424.5481 361.45917
1428.3655 357.09363
1423.2749 357.2368
1419.6827 361.38324
1415.9304 363.41736
1420.489 366.74606
1423.0343 371.28656
1418.0808 372.23114
1414.9462 368.18146
1412.9208 372.8666
1415.8732 376.12256
1412.9944 378.9266
1411.7896 382.93805
1411.1002 387.11902
1409.0746 389.726
1412.7571 391.01242
1414.7238 386.16296
1417.0841 382.47275
1418.9813 378.72467
1422.9937 376.11945
1427.6124 377.43045
1422.7314 381.43878
1427.2916 381.9531
1429.9374 385.27698
1433.6775 389.32474
1428.9857 389.8248
1425.9651 386.7014
1422.5808 389.75723
1422.1676 385.52646
1418.792 386.50488
1417.2188 389.83862
1415.9435 393.37912
1409.3369 393.9593
1408.9116 398.99692
1410.133 405.7985
1416.8225 406.5225
1413.9122 409.62253
1409.6442 411.79132
1413.2683 415.33887
1409.2634 418.21008
1412.3215 420.9372
1409.1454 423.92014
1412.011 425.94272
1415.7871 423.34354
1415.7229 427.27982
1418.9905 426.61377
1422.6338 426.98154
1425.9888 429.4531
1425.778 422.9493
1427.7045 418.55557
1431.1614 422.59146
1429.5831 426.52768
1431.1387 430.03528
1429.3574 433.97818
1425.3391 434.29184
1423.0532 437.8903
1418.0726 435.56445
1421.3291 432.12833
1417.0172 431.36264
1413.4058 429.3259
1409.3344 429.39984
1412.443 432.16333
1413.2502 435.55618
1409.1305 434.32907
1409.3954 439.2431
1413.3942 439.7872
1417.4607 439.58032
1420.5828 441.4818
1424.5955 443.32605
1426.3273 447.48514
1423.47 450.24384
1424.7698 454.4841
1422.5048 459.0745
1420.2443 463.23383
1416.9202 457.99216
1419.1619 453.9063
1418.8417 449.19553
1419.6162 445.32516
1415.2432 444.4177
1411.192 444.8737
1413.6497 449.77112
1413.0813 455.15012
1415.0416 462.0105
1416.4314 467.07986
1420.1343 469.84924
1416.8706 472.1341
1418.1744 476.47025
1421.4216 474.63852
1425.3909 476.26227
1429.1986 473.38617
1429.2771 477.73264
1426.5225 481.6468
1421.2523 479.96902
1421.7552 485.4927
1425.7567 486.6633
1429.3004 489.41458
1425.3103 491.86847
1427.0404 496.53604
1430.7091 493.78796
1433.7792 497.46396
1429.8574 500.78958
1431.5526 506.58304
1434.4502 503.09552
1439.1108 501.08948
1438.0452 496.52286
1436.0876 492.2783
1434.1492 488.7219
1431.4452 484.9758
1432.5474 481.11795
1433.1271 476.68018
1436.4116 478.0096
1436.9846 482.15735
1438.1769 485.58972
1440.6118 488.6031
1440.8765 492.79187
1442.6943 496.3877
1445.041 491.11353
1449.4221 492.15112
1448.4272 487.45618
1445.038 485.49417
1442.3252 482.7154
1440.0275 479.67422
1440.3091 476.37646
1438.4622 474.23044
1435.7704 472.96622
1432.8324 472.5891
1433.2744 467.64767
1436.3232 468.43152
1439.0829 470.40878
1442.8113 468.8738
1439.6567 465.44888
1444.2587 465.32947
1448.118 463.4147
1449.9165 458.8597
1453.8123 462.96136
1454.9763 459.312
1459.345 459.69263
1455.5007 455.21353
1452.5513 451.89914
1448.8694 448.86954
1450.3737 444.45187
1448.0653 439.84018
1449.3258 433.56107
1445.1908 436.09073
1441.0701 437.5827
1441.5804 441.74295
1444.3582 444.4869
1442.8989 448.0746
1443.7893 452.44846
1448.0642 454.26556
1444.8632 457.6825
1443.1066 461.213
1440.0499 456.01035
1438.9987 460.85745
1435.534 463.46323
1431.3774 463.38232
1429.5101 466.6379
1430.2742 469.9323
1426.644 469.7651
1424.0874 471.79016
1422.826 466.96017
1425.9308 464.70688
1427.1996 461.1493
1428.2079 457.1679
1431.9415 459.04678
1435.7576 458.33575
1434.8857 454.1332
1429.9656 453.15704
1430.5698 448.98688
1434.8572 449.21707
1439.1323 450.8681
1437.2958 445.29913
1437.1659 439.9216
1433.2834 441.47522
1430.4576 444.42148
1428.2749 439.335
1433.1355 436.89926
1434.3163 432.9074
1438.1832 434.35104
1442.461 431.7947
1446.5808 429.16196
1452.9606 429.75394
1451.2878 424.79263
1446.9753 424.9703
1445.5723 421.41354
1442.595 418.20337
1439.6855 415.44995
1436.047 414.1417
1433.6519 410.88614
1430.3507 413.3533
1432.1753 417.30692
1435.5631 419.24377
1435.7145 424.28635
1435.1775 428.8086
1439.1178 428.4552
1441.8965 425.17267
1439.4686 420.94528
" />
</g></g></svg>
