<?xml version="1.0" encoding="UTF-8" standalone="no"?>
<!-- Created for Inkscape (http://www.inkscape.org/) -->

<svg
   xmlns:dc="http://purl.org/dc/elements/1.1/"
   xmlns:cc="http://creativecommons.org/ns#"
   xmlns:rdf="http://www.w3.org/1999/02/22-rdf-syntax-ns#"
   xmlns:svg="http://www.w3.org/2000/svg"
   xmlns="http://www.w3.org/2000/svg"
   xmlns:sodipodi="http://sodipodi.sourceforge.net/DTD/sodipodi-0.dtd"
   xmlns:inkscape="http://www.inkscape.org/namespaces/inkscape"
   width="3200"
   height="800"
   id="svg2985"
   version="1.1"
   inkscape:version="0.48.1 r9760">
  <defs
     id="defs2987" />
  <sodipodi:namedview
     id="base"
     pagecolor="#ffffff"
     bordercolor="#666666"
     borderopacity="1.0"
     inkscape:pageopacity="0.0"
     inkscape:pageshadow="2"
     inkscape:zoom="0.35"
     inkscape:cx="1600"
     inkscape:cy="400"
     inkscape:document-units="px"
     inkscape:current-layer="layer1"
     showgrid="false"  />
  <metadata
     id="metadata2990">
    <rdf:RDF>
      <cc:Work
         rdf:about="">
        <dc:format>image/svg+xml</dc:format>
        <dc:type
           rdf:resource="http://purl.org/dc/dcmitype/StillImage" />
        <dc:title />
      </cc:Work>
    </rdf:RDF>
  </metadata>
  <g
     inkscape:label="Layer 1"
     inkscape:groupmode="layer"
     id="layer1"> 
     <g>
<path style="fill:none;stroke:black;stroke-width:2px;stroke-linejoin:round;stroke-linecap:round;" d="M 
1586.3939 298.07278
1587.2966 300.25223
1587.6892 302.42892
1585.4539 301.7885
1583.4214 302.03818
1581.2339 302.49008
1580.9885 304.76617
1583.3727 303.95718
1582.7935 305.58588
1582.7834 307.16037
1584.7377 305.54935
1585.6897 303.9555
1587.0349 305.95947
1585.675 307.25317
1587.9436 308.80197
1589.6975 308.0066
1590.4406 306.124
1588.9165 305.68604
1587.813 304.22208
1590.0371 303.6239
1592.1062 303.73743
1591.8864 305.97803
1593.1167 307.04633
1594.5886 307.59814
1593.9832 305.11197
1595.8428 305.8862
1597.8441 306.9526
1600.2155 307.5679
1598.9971 305.271
1600.5225 304.2033
1602.012 305.6246
1603.1686 307.9805
1602.0692 309.7304
1599.9897 309.79303
1597.8096 309.6171
1599.302 311.73865
1597.1208 312.16702
1595.404 310.62347
1596.2261 308.33685
1593.9058 309.36398
1591.8724 308.44025
1590.1575 309.96823
1592.388 310.67627
1594.0605 312.3605
1595.904 314.0735
1593.8597 314.7652
1594.861 317.02933
1591.9547 316.15536
1590.3562 313.4973
1587.9524 311.53143
1586.3721 316.6855
1588.7413 316.19684
1591.2849 318.2457
1587.3568 327.67505
1584.8263 326.75943
1585.1741 328.9616
1583.0825 330.23358
1583.261 328.2381
1581.9733 326.99142
1580.3711 327.40863
1579.5587 325.87326
1577.8906 325.10422
1577.0245 326.57623
1576.1571 324.3528
1574.3759 324.88092
1573.4576 323.47318
1571.8694 324.08
1571.0039 322.7744
1569.8843 321.305
1567.9076 322.37183
1568.8993 324.0502
1568.5701 326.5593
1570.4341 325.35968
1572.5374 325.59
1573.3873 327.17844
1575.1378 326.34125
1576.218 328.19638
1578.6292 328.21045
1580.8367 329.55112
1582.9031 333.26315
1580.8959 334.43115
1579.5936 336.501
1580.4109 338.5914
1580.762 340.6033
1577.9312 338.59747
1576.1837 340.6297
1578.3573 341.2387
1579.271 342.94012
1581.6023 342.3398
1582.8528 343.5589
1580.6515 344.6825
1580.1619 346.8787
1580.239 348.8226
1582.2856 350.19562
1583.0583 348.3603
1582.5333 346.29745
1585.4026 348.4823
1585.0636 346.4389
1584.1603 344.6105
1586.0583 344.2115
1586.6361 342.48492
1584.4902 341.9779
1583.0945 340.26495
1582.6572 338.10886
1582.7585 336.0798
1584.5984 334.75266
1586.8027 335.0844
1586.0353 333.1518
1584.9531 331.40628
1587.8838 331.879
1587.0598 329.95288
1589.5046 329.27792
1590.5962 331.49225
1589.3062 333.71014
1590.332 335.79315
1588.4023 335.89636
1588.8123 338.0574
1587.0195 337.7772
1585.1418 336.97897
1585.0894 339.15048
1586.355 340.60132
1588.0757 339.81778
1588.5845 341.68082
1588.4937 343.77777
1587.2932 345.69058
1587.7188 347.53165
1589.4404 345.45508
1590.4125 347.2972
1591.4598 345.63885
1591.0869 343.89282
1592.8499 343.0358
1593.3927 345.0685
1595.2157 346.6908
1596.9158 349.2647
1596.4307 352.1003
1596.6641 354.57693
1598.5952 354.56985
1600.5609 355.5517
1600.464 353.35965
1598.5896 352.72064
1598.1106 350.82687
1600.0471 351.57858
1601.2299 350.53162
1601.9973 353.55063
1603.9786 353.4718
1602.7822 351.64044
1603.0027 349.56372
1601.2969 348.19092
1599.4001 349.35522
1599.0767 347.00354
1596.566 344.78433
1594.916 343.61038
1595.2319 341.51248
1593.4786 341.34256
1591.6392 341.13123
1590.2943 342.3448
1590.2169 339.8573
1590.5232 337.87256
1592.5013 339.37872
1592.281 337.3704
1592.2537 335.26358
1592.0677 333.27414
1593.6041 331.27078
1592.0776 328.96912
1594.9095 328.73874
1596.0896 331.87704
1594.578 333.781
1594.2734 336.1124
1596.1565 335.50986
1596.6249 337.51852
1594.3066 338.0087
1594.5972 339.75812
1596.4888 339.4462
1598.8594 338.52173
1598.493 336.36945
1600.7072 336.37125
1601.0223 338.39288
1602.8049 339.42535
1603.1499 337.489
1603.048 335.92548
1602.3037 334.59833
1600.8668 334.31583
1599.2639 334.3105
1597.3988 334.19608
1598.3245 332.10077
1600.4707 332.48657
1600.0856 330.57767
1601.9281 328.86975
1603.3673 329.22992
1604.7832 329.8536
1606.6669 330.30948
1605.7697 332.17874
1604.1765 331.7266
1602.5245 330.8883
1602.4446 332.7417
1604.0718 333.91852
1605.1837 335.97244
1606.033 334.1447
1607.7097 332.74448
1608.8557 331.02887
1608.781 328.6518
1606.429 328.20837
1604.0544 327.60504
1602.4071 324.70782
1601.8788 322.16284
1599.222 322.73907
1600.0153 324.6831
1601.676 326.86072
1599.8093 328.82544
1597.2434 328.96475
1598.6907 326.59158
1596.9963 324.8836
1597.6094 321.1632
1595.7314 321.36572
1595.821 319.0638
1597.7 318.2754
1598.9077 319.9647
1600.683 320.0645
1601.0559 317.90848
1602.7075 318.57913
1602.8789 320.38437
1604.9335 318.7153
1607.9254 318.4701
1606.6864 317.17728
1606.353 315.47885
1609.0999 315.4379
1611.0645 312.49768
1610.2936 317.63593
1612.5046 316.1352
1622.1062 315.0396
1623.784 316.72717
1621.8301 318.915
1624.7948 318.8948
1623.9219 320.7616
1623.9209 323.00403
1621.742 324.58575
1625.3164 326.2761
1623.4897 326.11826
1621.401 327.16962
1619.6641 328.7156
1618.5621 326.27017
1617.4459 328.46872
1615.3485 327.2066
1615.524 329.5387
1615.9392 331.9222
1614.4814 333.9036
1614.449 335.7444
1615.0603 337.29144
1614.3182 339.10104
1612.1965 339.86737
1610.1404 341.19928
1611.7859 342.28796
1614.0134 342.38815
1615.4409 340.79684
1616.3345 342.9299
1618.4541 342.5589
1617.8138 340.4222
1616.5686 338.64798
1618.315 337.6322
1616.5802 336.0075
1616.5762 333.97302
1618.7488 335.13367
1620.542 337.5971
1619.9406 340.13907
1621.0988 342.09918
1620.3629 343.61755
1620.8357 345.2452
1620.8652 346.95703
1621.4065 348.66348
1619.8854 348.89133
1618.7738 347.87503
1619.0879 346.27264
1618.8846 344.53528
1617.3134 345.1499
1615.4735 344.9348
1613.4197 344.58804
1611.647 344.33466
1610.0168 344.57245
1608.7936 343.75076
1607.4763 342.82132
1606.8715 341.14407
1608.5604 340.41867
1609.2566 338.78055
1609.78 337.293
1610.7671 335.87134
1612.4669 337.6937
1612.7766 335.6466
1612.0253 333.972
1613.4788 332.38428
1613.315 330.67355
1613.3936 328.84656
1612.2086 327.39606
1610.9192 329.69513
1611.0972 332.01175
1609.6926 333.80478
1608.03 335.17838
1607.1421 336.95755
1606.8307 339.01044
1604.9772 338.24796
1604.8536 340.53708
1604.7913 342.71732
1602.5359 341.49802
1600.1938 340.73227
1598.0939 340.81464
1596.7886 342.3459
1598.7927 343.39578
1601.1167 343.33966
1603.0232 344.66776
1605.396 344.83997
1607.2948 345.50302
1609.1256 346.79736
1611.4186 346.45715
1612.5073 347.97528
1613.9773 346.50388
1615.6672 347.18213
1617.321 347.0647
1616.7408 348.75784
1618.2257 349.76978
1615.9998 350.42432
1614.512 348.78403
1612.6824 350.78586
1611.3069 351.99393
1609.2317 352.7067
1611.1691 353.95654
1611.2861 355.97644
1613.2905 356.94073
1612.8641 354.96454
1613.3043 353.03058
1615.1444 353.0358
1614.4835 355.14188
1616.132 355.1815
1615.647 358.15707
1613.4888 359.43915
1613.6954 361.47614
1615.0616 363.0823
1616.6637 360.9273
1619.1893 362.21927
1619.3782 360.03766
1622.5874 359.67294
1621.5156 361.486
1621.1595 363.81418
1619.0642 364.35822
1617.0813 363.7235
1618.0635 366.19788
1617.7112 367.90424
1619.0485 368.97296
1620.324 367.83102
1620.4108 365.91718
1622.3845 365.7469
1623.5175 364.34723
1622.9117 362.83914
1624.3502 361.5883
1625.8297 362.9592
1625.0862 364.93674
1624.2806 366.51895
1627.0161 365.10342
1626.6371 366.88254
1627.6624 368.23853
1629.4424 369.2283
1631.7291 369.93286
1630.6724 371.6623
1632.6206 372.6437
1634.1611 372.3668
1633.6776 369.89737
1635.0283 367.7353
1636.9738 367.68112
1638.6254 368.50833
1637.4446 370.25052
1639.8252 369.88083
1640.5481 371.49686
1638.835 371.85938
1637.0084 372.28586
1635.5234 370.64935
1635.3704 373.44083
1635.7417 375.22122
1633.9856 375.34995
1632.1057 375.1406
1633.807 377.88745
1634.3005 380.23697
1636.4038 381.2552
1635.1327 383.18488
1632.8445 385.3395
1630.3948 385.85574
1630.2504 383.88077
1627.0103 384.58868
1628.7246 386.6775
1627.5148 387.88892
1625.7439 387.24466
1623.6987 387.78247
1624.077 385.29727
1623.109 383.2879
1624.8678 378.8076
1621.9026 380.39526
1618.9021 380.2354
1620.4225 377.8896
1618.1199 376.89938
1618.5701 372.133
1620.6599 375.02206
1622.7045 377.84116
1623.5309 375.58676
1624.8588 371.94037
1627.8099 371.80957
1627.0154 370.29303
1625.3086 369.62863
1624.7412 368.12613
1622.384 367.53513
1622.2888 369.23517
1623.3685 370.63644
1621.416 371.6533
1620.0819 370.1105
1617.4626 369.86127
1615.9052 371.1442
1613.812 370.33786
1611.8934 371.8909
1611.2389 369.8242
1609.6713 368.21576
1608.9751 371.04944
1607.2753 369.5405
1606.2267 371.51532
1603.7839 371.30597
1601.7578 370.71924
1602.7769 369.04153
1600.691 368.28708
1598.5603 367.926
1596.3186 368.74512
1596.4453 366.84827
1594.6492 366.74222
1593.2893 367.7034
1592.285 369.4493
1592.1498 371.48944
1590.2842 370.34967
1589.6501 368.24054
1588.2964 369.6012
1588.3583 371.74826
1586.411 370.25006
1588.1953 367.24683
1586.7585 368.27957
1585.0295 368.79105
1585.0205 371.7931
1583.6823 370.35703
1581.9779 369.22528
1583.3779 368.05783
1582.3052 366.64978
1584.0698 366.15216
1585.2056 366.93793
1586.4861 366.47473
1587.1627 365.26074
1588.8125 365.41522
1590.4006 366.12024
1591.367 367.85214
1592.5607 365.6822
1591.6473 363.8341
1593.0137 362.3334
1594.6343 364.385
1596.3359 362.8372
1597.1816 365.1817
1599.106 365.5645
1598.498 362.98203
1600.5636 363.78943
1600.9547 366.15048
1602.6716 367.03036
1604.6644 367.28662
1604.8827 369.32428
1606.7251 367.71426
1608.2197 366.45465
1608.8962 364.72223
1610.9332 365.86963
1612.7773 367.78784
1615.3853 368.30756
1615.7073 365.9269
1613.5664 365.3275
1612.2771 363.48294
1610.2998 363.0978
1608.4663 362.6773
1611.211 360.97443
1611.2051 358.45465
1609.686 357.09088
1608.7596 355.03183
1608.814 360.83932
1607.8286 359.17743
1606.519 362.12582
1605.6917 360.40665
1602.9213 359.69717
1604.014 361.8501
1604.7297 363.58276
1606.9221 364.00662
1606.0238 365.57635
1603.99 365.44516
1602.5188 364.2838
1602.0691 361.90866
1600.2227 361.0478
1597.9387 360.25143
1595.1504 360.74023
1592.3275 360.0501
1590.0216 361.15344
1589.7388 363.58807
1587.6467 363.55103
1587.697 361.6573
1587.7449 359.2628
1588.8724 356.94797
1589.7748 354.6667
1588.4236 352.59213
1586.421 351.31543
1585.104 352.8922
1583.8585 354.60623
1582.8596 352.75616
1580.559 354.24908
1582.0295 355.71844
1583.2914 356.82956
1584.9647 356.29666
1586.8635 354.69824
1586.5333 357.14658
1584.3046 358.75897
1582.5499 360.772
1584.1746 361.15335
1585.8519 360.39624
1585.6165 362.56412
1585.4744 364.48557
1583.4702 364.62244
1583.5586 362.8199
1581.9037 363.0087
1580.3816 363.08783
1580.0977 361.62613
1581.0615 360.26004
1578.8951 360.68845
1578.5596 359.19742
1575.9697 359.68124
1576.9299 361.43118
1578.6057 362.67706
1577.1211 363.719
1577.7189 365.74255
1579.5293 364.8235
1581.4893 364.9886
1580.4072 367.01468
1580.0277 369.31378
1581.2264 371.49396
1577.9556 373.43982
1578.7363 375.7779
1576.2971 376.23337
1575.7535 378.47183
1578.0342 378.23605
1580.4602 377.63406
1577.831 380.8214
1579.7637 379.89062
1585.0396 383.9471
1584.8729 386.36914
1587.0238 388.64453
1587.3081 385.78778
1588.6108 383.98175
1590.0498 386.34708
1591.5248 383.95
1592.3573 385.76636
1591.9773 387.72064
1588.4783 387.51184
1589.3701 389.1232
1591.1984 389.12717
1590.7947 390.79117
1590.44 392.5092
1591.7859 393.55988
1591.5925 395.04437
1590.0518 394.3299
1588.6193 393.13223
1589.7839 396.0948
1587.8851 395.19058
1586.4458 393.73947
1588.8494 390.95428
1587.1595 391.37576
1585.3427 391.60806
1583.5137 390.88937
1585.2505 388.96832
1583.0648 388.30017
1581.436 391.10876
1579.4023 389.8834
1577.7109 390.5416
1576.7078 388.3084
1579.0166 386.79535
1580.8893 388.11533
1582.482 385.5634
1580.6938 384.37225
1578.0028 384.16537
1576.539 386.0419
1575.0862 384.36215
1575.792 380.86288
1573.6929 379.63837
1573.515 376.8169
1575.2078 374.22388
1573.2186 371.26685
1571.3763 369.16907
1570.5189 371.26367
1567.4253 369.8871
1566.9789 372.15253
1566.3314 374.24402
1564.8639 375.4372
1565.5461 378.0156
1564.5162 380.71475
1563.1156 379.0066
1561.0205 379.79703
1562.302 381.39328
1563.7662 382.85947
1567.1667 383.38126
1569.7579 384.13007
1570.8379 382.53708
1572.5309 383.77454
1573.2858 385.53275
1571.4858 385.81805
1570.8037 387.75876
1569.6454 386.02072
1568.1154 387.24768
1567.9049 385.21512
1565.7655 385.5497
1564.3153 387.2536
1563.6724 384.70242
1562.706 386.0936
1561.1261 386.30627
1561.6754 383.94028
1559.71 384.22452
1559.1775 385.81564
1557.729 386.8807
1555.9305 387.7544
1554.0813 387.95898
1552.4213 387.74002
1550.4996 387.29843
1550.4172 389.21564
1548.4634 387.58554
1549.2657 385.01758
1551.728 383.5914
1551.7415 385.69937
1554.078 385.3351
1556.452 385.39334
1557.8232 383.33334
1560.3269 382.2021
1558.8634 380.93127
1558.0068 379.1254
1559.546 378.4946
1560.977 377.58505
1562.0902 376.3695
1563.7251 377.04193
1563.051 374.5907
1564.3269 373.00836
1565.3755 371.22424
1563.7302 370.4898
1562.5659 372.11414
1561.2888 370.49222
1561.5946 368.88446
1562.3893 366.99176
1563.3567 368.79364
1565.6519 368.93478
1564.3889 367.19745
1564.4934 365.25763
1563.2423 363.65903
1564.069 359.84467
1566.2883 359.43604
1567.6688 360.07327
1567.5593 361.91214
1568.6176 363.5057
1567.522 365.26346
1566.4448 366.9101
1568.5208 367.7967
1570.0004 365.83286
1572.806 366.85895
1573.7556 368.91992
1575.7734 370.35568
1578.115 370.39865
1578.1945 367.83633
1575.7781 367.63455
1575.2959 365.32446
1573.265 364.37732
1575.1377 362.68307
1573.5155 360.6638
1571.5631 359.78223
1570.8834 361.83932
1570.5093 363.63898
1569.5448 360.5888
1569.286 358.784
1567.8441 357.60608
1568.6536 355.26782
1569.7509 356.82303
1571.3116 357.81747
1573.4686 358.05536
1572.9463 356.14728
1575.2659 356.3033
1576.9703 355.11078
1577.5674 353.44678
1575.4895 353.5317
1573.7067 354.31824
1571.7771 353.23627
1571.056 355.1924
1569.2162 353.17242
1570.2556 351.5328
1572.0634 350.79712
1573.825 351.82062
1576.0613 351.43457
1577.7996 351.58157
1578.9884 352.8848
1580.372 352.00824
1579.5923 350.5911
1577.7036 349.1914
1575.0255 349.68
1572.9707 348.6839
1573.99 345.8282
1575.7083 347.46124
1577.7458 346.4329
1577.6268 344.21323
1575.2452 343.49774
1570.1031 343.79257
1571.5522 346.81165
1569.1571 347.35382
1570.2205 349.2322
1568.3054 350.7178
1566.3374 351.1323
1566.748 348.8182
1567.0446 346.3533
1568.1261 344.59488
1567.4023 341.59958
1569.6176 341.21725
1567.2782 339.3066
1564.995 340.29663
1563.2107 342.21216
1566.0945 343.3867
1563.9001 344.56976
1561.6199 345.92752
1564.9231 346.87045
1563.4185 348.47168
1564.3005 350.68008
1562.3384 350.8282
1560.9117 349.15662
1558.9164 348.64813
1557.9835 351.73154
1559.3414 354.32178
1560.6003 352.07687
1562.5491 353.5329
1564.7268 352.6137
1565.0002 354.2135
1567.1287 353.45224
1566.4076 355.47516
1566.2252 357.037
1565.1265 358.21014
1563.6014 357.4539
1563.9707 355.6463
1561.6066 355.48853
1561.47 357.56775
1557.8391 360.98547
1557.4814 363.18243
1557.0414 364.82892
1556.6709 366.50665
1557.0864 368.3814
1558.5103 367.36688
1558.5505 365.6749
1559.7205 364.5059
1559.3688 362.7531
1561.017 362.16483
1561.7563 364.45114
1561.3492 365.82
1560.1099 366.69894
1560.1877 368.40015
1558.6976 369.1197
1559.1553 370.5478
1557.3962 371.6702
1556.9064 370.18198
1555.357 371.59503
1556.3486 373.33118
1558.0309 373.11356
1559.2721 372.17447
1560.761 372.29135
1561.4084 373.99103
1559.3425 374.0938
1560.3619 375.45822
1558.9447 376.42114
1557.4738 377.19415
1557.6969 374.8103
1556.4806 375.86636
1555.2058 374.7115
1554.0807 373.2935
1553.249 371.58752
1551.3818 370.6925
1550.3812 368.3637
1552.1409 366.85367
1553.2446 369.16644
1555.2723 369.51227
1555.0708 367.76312
1554.4291 366.14026
1555.0493 364.08313
1555.3882 361.7039
1552.7842 361.70758
1552.4119 364.45465
1549.9119 362.94864
1548.8645 365.38727
1547.7059 367.78168
1548.3477 370.409
1549.8553 372.13672
1547.1952 372.78207
1548.9125 374.1953
1550.6367 376.17212
1551.049 373.66364
1552.4625 374.33246
1553.2897 375.8575
1554.741 376.87634
1555.9403 378.2685
1553.7755 379.1707
1552.3701 377.82697
1550.5333 378.61185
1548.6545 378.73795
1548.2742 376.0401
1546.9508 377.27866
1542.7107 377.93744
1540.6011 376.944
1541.6768 377.31952
1542.5763 379.94244
1541.0134 379.45383
1539.9902 378.60342
1538.2565 379.37546
1539.3499 380.80994
1541.1036 380.89874
1543.1011 382.13333
1541.8575 382.3355
1540.5652 382.3185
1541.1248 383.97055
1542.6497 384.76385
1541.1274 386.16776
1541.1152 388.3943
1540.5758 391.38312
1538.9299 389.65125
1538.7982 386.60504
1539.5867 384.6141
1539.3112 382.73047
1537.7345 383.03436
1532.1326 380.87247
1529.582 380.6051
1530.9504 378.4304
1533.3633 378.7187
1535.5337 377.49658
1536.6255 375.5259
1538.7113 377.24423
1539.7999 375.94534
1541.2339 374.70837
1539.465 374.43387
1538.2228 375.03284
1536.5706 373.33423
1538.1986 372.7904
1539.8843 372.79694
1541.9438 371.91953
1541.7168 369.966
1544.9286 370.09528
1542.4684 367.78168
1539.9746 367.90637
1539.4968 370.59683
1537.2261 370.98807
1537.3633 368.576
1534.903 369.799
1534.9111 371.79456
1534.8206 374.27036
1534.1729 376.34708
1532.3402 376.0916
1532.879 373.28125
1532.1404 370.2974
1531.9043 367.92358
1534.5164 367.79758
1533.6194 365.4044
1535.2563 362.9551
1536.2817 365.649
1538.5304 365.84833
1540.7753 364.56824
1538.4203 362.70993
1540.2721 360.29965
1538.0093 359.96423
1535.6694 360.21533
1535.3728 356.69577
1537.4451 357.49222
1538.8738 355.04758
1537.0331 354.7423
1535.1963 353.48776
1537.1392 352.52542
1538.1506 350.83292
1537.5609 347.4219
1536.1411 348.66434
1535.2281 350.59277
1534.0133 347.91327
1529.2351 348.8841
1527.6384 351.50113
1526.5212 354.6303
1525.4294 356.8462
1524.0829 355.20505
1522.0663 355.36752
1523.5131 352.5092
1525.4827 353.0514
1525.538 350.37015
1526.992 347.99042
1529.0962 345.98364
1527.1394 343.79053
1530.873 343.7649
1531.8721 346.12448
1535.0884 345.9565
1536.9612 345.14526
1539.2395 344.2468
1537.4441 343.09348
1539.023 341.52377
1536.6733 340.8515
1535.3512 343.40842
1533.196 343.8343
1534.1385 341.40506
1534.6283 339.1687
1531.7336 340.8373
1529.0864 342.55698
1528.4834 340.2954
1530.3035 338.62967
1530.5345 336.40384
1533.1226 337.43567
1536.7357 337.92703
1535.4407 335.5369
1535.5829 332.24994
1533.7867 333.90698
1531.6764 334.68292
1531.815 332.1034
1533.8844 331.0319
1535.4385 328.50037
1535.8776 325.19608
1533.9841 326.63464
1532.7316 328.98157
1531.7045 325.74606
1533.4832 323.53238
1530.3563 323.02637
1528.985 320.90186
1527.7305 318.6343
1530.5259 317.47604
1528.7258 316.43207
1526.0066 315.89435
1528.1486 314.57736
1529.6964 313.21704
1527.5103 312.74265
1526.5443 310.6453
1528.6259 308.18692
1529.1705 310.2422
1530.75 311.20508
1531.4816 308.77557
1531.4193 306.133
1533.987 307.32642
1536.0063 305.75034
1536.9543 308.11484
1539.357 306.306
1540.3856 308.04712
1542.7217 308.93753
1540.2838 309.97015
1539.6682 314.02734
1540.7319 316.6218
1538.9998 318.46844
1537.2664 317.0787
1536.8699 319.9294
1534.3262 320.55722
1536.2754 322.74243
1538.9088 322.8387
1538.4463 325.34985
1541.1553 324.48193
1541.351 322.15652
1543.861 323.18832
1543.4565 320.671
1540.9214 319.72394
1542.7849 315.21414
1543.8292 317.62122
1545.2964 320.66928
1547.0995 320.80215
1548.5533 321.03455
1550.2346 320.72687
1552.5771 322.23926
1552.0634 320.99048
1551.2611 319.55283
1549.8754 318.72348
1548.4534 318.22754
1546.3041 318.88412
1546.5182 317.31744
1545.7474 315.77826
1545.1154 314.25452
1542.6687 311.58768
1544.9067 311.88843
1547.0806 311.55142
1548.2167 313.8588
1547.9276 316.01358
1549.8842 316.09653
1550.7375 313.79944
1552.0869 315.97946
1551.5962 317.67603
1552.7994 318.93887
1554.0426 319.66928
1554.2433 321.2241
1553.9485 323.01706
1551.8767 324.04254
1549.7957 322.52908
1548.9716 324.9078
1546.6748 323.313
1546.2513 326.18985
1548.035 328.6339
1549.9674 327.18912
1551.9922 328.69992
1552.736 326.41574
1554.1938 324.99756
1555.8583 323.06097
1557.6609 322.2141
1559.2317 320.98517
1559.5204 323.92822
1561.8484 324.95508
1561.5122 322.67932
1564.0118 322.82843
1564.6184 324.64645
1563.6785 326.1608
1565.938 327.17236
1566.8363 325.43665
1566.3743 323.59424
1565.9677 321.2891
1567.7826 320.10547
1565.3989 318.64124
1564.0334 320.25992
1561.8209 320.066
1563.0034 317.67883
1560.6056 318.00693
1559.0071 316.78085
1557.8286 318.84454
1556.1685 320.49265
1555.5232 318.36166
1554.6819 316.6647
1556.7128 316.03745
1558.4243 314.71677
1555.694 313.41492
1554.4739 314.91727
1552.5054 314.30927
1553.3615 313.0062
1554.2334 311.6903
1554.8264 310.011
1556.41 311.3613
1557.4404 309.75714
1556.2169 308.8704
1554.1848 308.26944
1554.29 306.46368
1551.7826 308.49512
1552.9982 310.19778
1551.5463 311.43777
1549.4432 311.8927
1549.4113 309.77182
1548.3888 307.19492
1546.9727 309.00967
1544.9342 309.71115
1545.166 306.6876
1546.6565 304.78058
1547.0634 302.36502
1549.5814 303.09543
1549.6802 300.18427
1551.7527 300.9421
1552.7727 303.10464
1552.9171 305.4129
1554.0627 301.17673
1555.8563 302.09662
1555.1681 304.09317
1556.182 306.83612
1558.2139 306.63193
1558.779 309.55508
1559.7189 310.8709
1558.7649 308.0023
1560.5146 306.44666
1562.4424 306.02213
1560.2412 308.63333
1561.6891 308.4415
1563.427 308.44632
1564.2924 306.9876
1564.4956 304.96463
1566.6035 304.2671
1566.1147 306.63495
1566.092 308.52637
1568.9506 306.90274
1567.5833 305.76294
1569.2255 304.7567
1571.06 305.01514
1572.9579 306.14224
1570.3672 307.89224
1572.3223 308.2289
1573.4481 310.9205
1575.1112 313.63397
1574.4963 316.39648
1573.9253 319.42725
1573.0525 321.47437
1575.1075 322.36993
1576.186 320.3423
1575.8865 317.80444
1577.741 317.93057
1577.1003 315.05972
1577.194 311.9473
1575.5322 310.4487
1574.8927 308.2123
1578.3298 305.32077
1578.9001 303.11588
1576.1132 302.55344
1576.9614 299.84122
1579.4843 300.46567
1580.7854 297.60822
1582.3232 299.91333
1584.6909 299.44772
1583.753 296.90237
1586.7512 296.0441
1587.2198 293.9089
1584.9044 294.2335
1582.5712 293.975
1586.2003 291.4742
1590.7565 289.7414
1589.2285 292.44766
1589.5072 295.24655
1588.6074 297.4959
1589.565 299.48242
1589.9443 301.5141
1592.2858 300.7256
1591.0581 297.80698
1591.9839 295.37628
1591.8596 292.63284
1593.5355 290.48758
1594.0422 287.59906
1597.2311 287.64627
1599.4844 288.4225
1601.4996 286.59833
1602.2438 288.90305
1602.8915 290.56174
1603.7734 291.95145
1604.4275 293.07077
1602.9165 294.2011
1602.1268 292.40897
1600.9463 293.42545
1601.0942 294.7437
1601.4945 295.98727
1602.9016 296.5933
1604.0532 295.6702
1605.0267 297.20023
1606.2477 298.35416
1607.6848 299.67654
1605.8168 300.7302
1604.1425 299.27512
1602.7784 298.1917
1600.7991 297.87283
1599.2031 296.93118
1599.2206 294.85626
1597.1798 295.9339
1596.9089 294.0764
1598.094 292.66373
1599.6863 292.68842
1601.1108 291.2162
1599.9618 290.4367
1598.1846 290.60568
1596.2134 290.06927
1595.675 292.17828
1594.2787 293.81665
1594.5918 296.17966
1593.4417 298.3891
1596.4923 297.97055
1598.6694 299.4432
1595.6418 300.2549
1593.8771 302.31464
1595.6204 303.16425
1597.2494 304.32257
1598.2988 302.24313
1600.6276 301.92505
1601.3616 299.8449
1603.3826 301.33612
1603.28 303.4938
1605.9333 303.00168
1608.2964 302.0683
1609.7766 300.18698
1609.3374 298.33658
1608.1487 297.24506
1607.202 295.96872
1605.7764 295.35684
1605.1528 294.14578
1606.5262 293.06888
1606.1261 291.3142
1604.7668 289.83145
1605.0057 287.5554
1607.4691 289.36923
1610.3975 290.6672
1608.5659 292.07126
1608.1411 294.21915
1609.8281 295.67
1610.8596 293.44937
1613.0471 292.87082
1615.2617 292.10468
1615.3835 294.24466
1617.2137 295.12656
1614.3179 295.73303
1612.1144 295.81003
1611.111 297.98154
1612.0802 299.94183
1610.8848 301.7456
1610.6475 303.7058
1608.3121 304.569
1606.1312 305.40875
1604.1422 306.04736
1605.8413 308.25143
1604.3871 309.95267
1604.3741 311.85913
1602.4602 312.21832
1600.2446 313.68942
1599.943 315.82883
1598.3928 314.1158
1597.3643 316.0969
1599.3481 317.59415
1602.1332 316.53845
1602.325 314.75677
1604.0198 317.16342
1604.1702 315.56818
1604.7433 313.6794
1606.2186 311.40515
1607.6357 310.1517
1607.9861 307.53046
1609.2986 309.55484
1610.8291 308.43546
1609.8627 306.08786
1612.0984 305.93707
1614.5259 305.79626
1613.0916 303.90277
1613.129 301.7986
1614.9849 302.41626
1615.7949 303.72818
1616.874 304.8181
1617.2224 306.413
1618.4836 303.7664
1619.5492 301.9096
1617.0325 301.6748
1618.3193 300.0268
1616.5774 299.23676
1615.1002 300.55264
1613.894 299.3892
1613.2555 297.66998
1615.2152 297.82126
1616.8337 297.18585
1619.0472 297.92596
1620.6208 299.6099
1622.7833 300.27905
1622.1299 302.4733
1620.7123 304.51282
1623.8113 309.3338
1623.298 312.40634
1627.0222 308.89633
1626.1364 306.30127
1629.4012 305.77722
1632.4409 304.6694
1632.7365 306.8448
1633.6989 308.75256
1635.6022 307.5134
1635.5303 305.23477
1638.0679 306.73022
1637.8878 309.03662
1640.221 309.43387
1640.8484 307.1044
1643.5347 308.12192
1646.0271 307.7848
1644.0337 304.69812
1645.0597 301.59143
1646.9999 303.68356
1648.811 301.09363
1650.9862 302.88226
1653.0471 304.5645
1652.125 307.3053
1649.6476 307.27783
1647.6707 310.13852
1645.1499 310.73633
1642.3423 310.61563
1643.9156 312.82376
1642.3065 314.8059
1639.7013 316.04813
1644.427 315.7668
1645.1831 317.96533
1647.1572 316.27808
1645.6897 314.119
1647.1437 312.97006
1649.023 312.06635
1651.2659 311.7215
1650.425 309.7162
1653.1782 310.17242
1652.7512 313.0459
1654.7883 312.20267
1656.4708 310.22324
1654.9286 308.03552
1658.7947 308.23218
1661.81 306.81964
1665.1425 306.91934
1668.7667 306.96188
1667.956 309.38095
1670.9609 309.63898
1669.8022 312.07846
1669.0828 314.69678
1669.6338 317.03235
1671.455 316.8282
1670.9722 314.31134
1672.6702 312.2144
1672.6147 315.03885
1673.4049 318.08344
1671.8323 321.1846
1671.0942 319.0656
1668.8579 319.28085
1667.8796 321.82642
1669.8198 321.25616
1670.219 323.3079
1668.2333 324.50867
1666.121 323.52435
1666.2311 326.07797
1665.8048 328.27817
1667.625 329.3789
1665.9248 330.82635
1669.2075 333.0375
1667.2174 332.8847
1665.2354 332.68356
1663.3726 333.15192
1663.9717 329.88303
1663.6968 327.1373
1664.2664 324.94928
1662.1852 324.8198
1660.5676 326.07883
1660.3354 323.8607
1659.4661 322.17807
1657.5868 322.6035
1655.7383 321.85056
1654.0187 321.1929
1655.0615 319.25922
1657.1749 319.69473
1659.4294 319.59128
1661.9601 321.2672
1663.4789 322.9835
1664.7157 321.17184
1663.367 319.1834
1661.2175 318.71194
1661.4509 316.61368
1659.0186 317.30045
1658.4521 315.1255
1656.6694 316.93134
1655.9113 314.79965
1653.5549 315.0558
1654.3828 316.8834
1652.9851 319.6002
1652.7164 317.8161
1651.4802 316.12857
1650.3912 314.0384
1648.7771 315.01047
1649.3468 317.16785
1650.9121 318.82098
1649.048 319.28284
1646.9027 319.37836
1648.3491 321.28458
1651.4761 320.94785
1652.7124 322.87195
1650.0723 322.5694
1650.8689 324.89285
1653.0055 324.94003
1655.5024 324.11594
1658.2457 324.8202
1652.8176 327.1841
1650.6919 329.11877
1650.2446 327.00815
1648.3538 328.0147
1646.7156 329.12653
1645.6998 326.95648
1647.5917 325.36206
1644.8772 324.5723
1646.3075 322.40448
1643.6296 321.98267
1644.5015 320.04367
1642.4393 317.41794
1641.9343 320.11536
1641.3293 322.56296
1640.3339 324.8946
1638.3949 324.49274
1636.6306 325.0406
1634.834 325.47568
1632.791 326.6856
1631.3486 324.66867
1633.1309 324.0521
1634.2452 322.32553
1635.8871 320.11194
1636.9443 322.66724
1639.2288 322.74057
1639.4462 320.77167
1640.3177 318.3653
1638.0885 318.3299
1635.8396 317.7322
1632.9723 319.65088
1631.4045 321.74863
1629.4662 323.3824
1628.6821 321.60568
1626.2139 321.31952
1626.1702 323.46503
1627.0804 325.05023
1628.828 325.01318
1630.1119 326.2256
1630.209 327.8806
1631.762 339.83194
1629.6942 340.843
1628.3906 343.53967
1626.6497 345.45935
1626.5686 347.25937
1625.9812 348.65424
1624.5249 347.95047
1624.8025 346.33643
1624.6848 344.4035
1623.6288 342.25717
1622.3574 340.09378
1622.5054 344.03857
1622.8168 345.77332
1622.8573 347.27414
1623.126 348.83807
1622.2864 350.1449
1621.6776 351.67166
1620.0713 350.68268
1618.2076 351.7803
1620.0397 352.87534
1622.2402 353.67636
1621.0491 354.92386
1623.1897 356.49374
1625.7349 359.20538
1627.5111 357.39316
1625.4674 356.4067
1624.2472 354.503
1623.5405 352.68045
1623.7969 351.09424
1624.6019 349.741
1626.2216 350.46127
1625.3623 352.21313
1626.4594 353.92383
1628.2617 355.13922
1630.7134 355.99997
1629.6163 353.1963
1627.5356 351.93283
1629.0686 350.73236
1627.6633 349.13538
1629.4808 348.66275
1628.2809 346.83923
1630.0674 346.2407
1630.414 343.65833
1632.2312 342.83603
1633.8081 344.02515
1633.7211 340.35748
1635.1759 341.35925
1637.1201 342.30627
1637.2031 344.5701
1635.4642 343.43564
1634.6516 345.92416
1636.5286 346.20392
1637.3901 347.61658
1639.2283 346.8149
1638.0792 349.0869
1639.6356 349.6661
1641.4125 350.15387
1640.9481 352.12042
1640.7094 353.9709
1638.5493 353.4707
1638.4723 351.4728
1636.3474 352.38126
1634.2605 351.34372
1636.3528 350.12808
1635.413 348.34207
1633.543 347.9362
1632.1846 345.90924
1631.3632 348.35626
1632.8862 350.04285
1631.0504 351.00687
1632.1538 353.3259
1634.6001 353.96576
1633.3127 355.94568
1636.5845 357.33997
1636.6241 354.9256
1638.8069 355.7602
1639.2568 362.42184
1634.0435 360.2864
1634.4144 357.79105
1631.8921 358.8671
1629.6552 358.44403
1628.1898 360.14737
1628.0115 362.24603
1630.5662 361.58273
1631.4248 364.3388
1629.2383 364.4867
1630.2598 366.72278
1632.3135 367.82516
1633.5193 365.79742
1636.0903 364.41113
1638.4186 365.28064
1640.0325 367.2987
1640.9688 365.0836
1643.235 364.36313
1641.9917 362.56662
1643.3312 360.7199
1645.2587 362.7105
1647.6951 362.00354
1649.9385 363.7789
1646.9607 364.87466
1644.2562 365.91745
1646.0487 367.23346
1648.0453 367.54855
1649.4277 366.1732
1651.7198 365.81308
1651.0852 368.191
1649.4548 369.53912
1647.7133 369.864
1646.3065 369.4701
1645.1843 370.36014
1643.5719 370.10864
1644.208 368.2229
1642.2229 367.32455
1641.7513 369.24887
1642.1671 371.11487
1642.5087 372.8753
1644.2437 372.16028
1646.1398 372.40247
1648.3171 371.7836
1651.4705 370.72336
1650.258 372.58633
1651.0437 374.47433
1647.6948 373.84283
1648.5588 375.41214
1649.9918 376.79465
1651.9308 376.87253
1650.621 379.02097
1648.6821 378.8182
1647.3882 377.1797
1646.222 379.0987
1644.7589 377.3208
1645.8304 375.29108
1644.153 374.3859
1642.2728 374.774
1642.7058 376.57523
1643.5569 379.70636
1641.9309 378.36523
1640.4639 376.8826
1639.0906 375.74545
1640.5648 374.9836
1640.6433 373.21033
1638.8533 373.8037
1637.1505 374.03683
1637.6102 375.70544
1636.0902 376.9269
1636.417 378.78128
1638.357 377.68442
1639.8845 378.89893
1639.9673 381.07306
1640.3577 383.01013
1638.153 380.12128
1637.9692 382.74805
1637.5714 384.73993
1637.291 386.81735
1635.448 385.69073
1634.7173 387.95844
1632.3481 389.88947
1632.3319 387.73282
1630.6455 387.95975
1629.5631 389.1503
1627.8185 389.9807
1625.7234 389.7147
1623.5065 389.89294
1621.3307 390.91037
1622.7349 391.88455
1623.8643 393.15005
1625.0887 391.60165
1627.045 391.88177
1625.885 393.57916
1624.437 395.18826
1622.1517 396.23523
1622.0098 394.16
1620.5674 392.86942
1618.4387 393.2216
1619.654 395.044
1617.2695 395.26706
1616.2598 394.20453
1616.7395 392.70743
1615.6649 391.73672
1615.5519 390.25916
1617.3934 390.98294
1619.3901 391.2345
1618.888 389.46085
1619.5051 387.38855
1621.2368 389.0919
1621.7598 386.71588
1620.3528 384.50458
1618.0841 385.3267
1615.8237 384.50043
1613.2693 384.33118
1610.319 384.007
1609.0702 385.72446
1607.2145 386.20117
1605.8702 383.90015
1603.1752 385.7807
1601.5537 384.1156
1600.9932 386.75085
1600.8878 389.31223
1598.9431 387.90594
1598.22 389.78516
1596.377 390.3156
1596.2297 388.30563
1596.6996 386.34946
1598.7349 385.67203
1598.193 383.81308
1599.8174 372.40338
1599.883 370.2107
1597.9902 370.51633
1596.0923 370.69696
1594.2136 369.6186
1594.792 371.92505
1594.9723 384.18427
1594.399 386.43686
1593.8701 388.28818
1594.705 389.74908
1592.8811 390.05582
1592.206 391.73123
1593.8821 392.13358
1594.808 391.37766
1596.6228 392.1271
1595.1672 393.76456
1595.0859 395.6925
1593.1937 393.20697
1593.3977 394.75253
1592.5673 396.41364
1594.945 406.51883
1597.2529 395.5784
1597.6295 393.69534
1598.9253 391.72314
1600.7145 391.72388
1600.5723 393.5762
1599.5754 395.18777
1602.1813 395.37094
1605.748 395.90747
1604.1401 394.8234
1602.9358 393.1246
1602.0974 391.19177
1603.4893 390.42957
1603.2878 388.33353
1605.0994 386.18353
1605.718 388.3361
1608.0118 388.4913
1610.1207 388.12924
1611.6677 386.52814
1613.8351 386.98575
1616.2411 386.90854
1617.2837 388.64005
1615.2639 388.63162
1613.8865 389.6074
1612.6448 389.1371
1611.3904 389.39664
1610.5895 390.63745
1609.1587 390.33243
1607.3538 390.67346
1605.5236 390.33868
1604.7626 392.1566
1605.5569 393.86166
1606.7545 392.65057
1608.4686 392.41824
1610.2474 392.1424
1610.0146 393.67578
1608.6732 394.2961
1607.2441 394.65808
1608.3992 396.26074
1610.0953 395.40228
1611.5355 395.5707
1612.749 394.8873
1613.1813 393.381
1611.5764 393.39273
1611.8884 391.34753
1612.9818 391.81143
1614.1819 391.4854
1614.8213 393.16647
1614.5356 394.7024
1614.227 396.2276
1617.5496 397.6859
1618.0701 400.76147
1618.8208 403.21942
1620.639 401.2546
1622.8866 401.09393
1620.0724 398.70575
1622.3942 399.00024
1624.7144 399.6041
1624.9315 401.98386
1622.603 403.06015
1621.2056 404.50958
1623.5797 405.34158
1626.1971 405.2538
1627.3975 407.7961
1624.896 408.08722
1623.0503 409.9504
1620.7218 409.55948
1622.1216 407.6174
1619.5592 406.79626
1616.4387 407.1718
1618.1075 408.99515
1616.8888 411.06995
1615.9534 413.16867
1614.1631 411.695
1612.1677 413.27353
1609.5793 412.00775
1610.3147 413.97638
1609.1321 415.32254
1607.8684 414.17966
1605.8435 413.85864
1605.9646 415.49075
1603.7836 414.52084
1603.1787 412.67633
1602.1139 411.23325
1602.45 409.54758
1603.8824 410.32495
1605.5599 409.82303
1605.2001 412.10608
1607.3538 412.25992
1607.2236 410.2335
1609.303 409.8321
1611.8538 410.56595
1614.6243 409.24286
1613.2864 407.08755
1611.0493 408.1989
1609.4186 406.48016
1607.7695 408.05756
1605.9124 406.87848
1604.5127 408.07294
1602.9878 407.86337
1602.3508 405.9758
1601.2369 407.62463
1599.4453 407.5618
1597.7252 406.79645
1596.3499 408.16257
1595.7942 410.08438
1597.9148 409.752
1599.6172 410.1047
1600.9266 409.42227
1600.798 412.0922
1599.089 412.24097
1597.3625 412.0961
1595.5457 411.91855
1593.4589 411.54785
1593.1122 409.99603
1594.211 408.5197
1592.6476 406.84988
1591.4985 408.7423
1590.3184 406.5382
1588.9946 407.89023
1589.4011 410.25674
1591.0758 411.41934
1588.0795 412.66403
1589.6592 413.51822
1591.9746 413.35648
1593.262 415.16125
1593.9036 413.1676
1595.1624 414.03833
1595.2961 415.79526
1595.199 417.519
1593.4438 417.04025
1593.8064 418.97882
1591.4675 418.41638
1591.4717 416.7073
1590.989 415.0343
1589.2478 416.20798
1587.4437 414.77625
1585.4565 415.21207
1583.7546 416.62088
1583.2521 414.84238
1585.1167 413.3411
1582.8806 412.7738
1582.6344 410.65176
1580.9752 411.79062
1581.1014 413.93967
1581.313 415.90848
1582.3206 417.32672
1582.2186 418.843
1584.1904 419.08075
1585.3235 417.3394
1587.1731 417.09955
1589.0059 418.44254
1586.3792 419.52164
1587.5123 420.9648
1586.5975 422.69446
1589.6584 421.3065
1588.5244 422.7941
1588.4424 424.38428
1589.2256 426.25766
1587.6094 426.9322
1586.1681 428.28394
1585.7437 430.4092
1587.5459 430.51462
1589.4679 431.1157
1587.6587 432.3652
1585.4592 432.2423
1584.1359 430.9446
1582.9664 432.1384
1582.0233 430.3866
1580.7013 431.6717
1580.0996 433.8917
1580.9208 435.59442
1581.9612 433.563
1583.0854 435.07913
1584.2799 433.62262
1584.7291 435.66873
1585.8672 434.77475
1586.6262 433.5772
1588.1471 434.93958
1586.9279 436.04898
1587.9829 437.2278
1589.7158 437.15555
1590.0232 439.53717
1591.6423 438.99472
1593.521 438.89606
1593.6733 437.35254
1591.6074 437.0333
1591.8713 434.82697
1590.2222 435.17786
1589.1321 433.81955
1589.9526 432.69934
1591.6765 432.81573
1595.1008 432.09946
1593.3811 433.48666
1593.0126 435.88297
1594.3472 435.2662
1595.0908 433.96948
1596.3057 434.7203
1596.9719 436.3572
1595.3262 436.61652
1595.4941 438.4066
1596.9214 439.45117
1598.321 440.2376
1597.7583 437.7646
1599.3601 438.75607
1600.1952 437.45706
1599.2925 436.18585
1599.4219 434.49707
1597.8894 434.85214
1597.0607 432.9705
1598.9247 432.92404
1598.9995 430.52145
1597.4067 429.06183
1596.1577 427.58374
1590.1699 424.19638
1596.4823 424.81613
1598.0093 426.44592
1599.3442 425.01495
1599.9946 426.9138
1599.2957 428.63187
1601.1298 428.6495
1602.9673 428.25327
1603.668 425.70956
1601.8876 426.3842
1601.0294 424.77277
1601.4957 423.23505
1598.371 423.22427
1596.6602 418.5612
1598.3593 417.7813
1601.991 418.25558
1600.1895 417.89264
1597.1968 416.1818
1596.79 414.10434
1598.6211 414.25983
1599.5679 415.89795
1601.0264 414.01083
1601.7828 415.88135
1603.585 416.58353
1604.1853 418.57025
1605.4528 417.14453
1606.9203 418.79514
1607.3367 416.68817
1608.9457 416.88956
1609.509 418.43427
1610.8365 416.49536
1612.345 416.71475
1613.991 417.4398
1613.5593 414.74448
1615.3049 415.09088
1617.2173 415.32498
1615.8683 417.08133
1617.4165 418.43274
1615.0006 419.74362
1615.4204 422.76404
1613.3179 421.92606
1611.5714 422.65747
1612.421 419.70697
1610.529 420.56863
1609.2661 422.47958
1608.3745 424.55283
1609.9763 426.49683
1611.1475 424.5971
1613.762 424.3099
1615.9155 426.04718
1615.834 428.9221
1618.1787 428.43454
1619.6989 425.84607
1620.5125 427.9559
1620.2229 430.5978
1620.3784 433.6005
1621.9946 434.23126
1622.0142 432.14902
1623.1497 430.67538
1622.3342 429.12747
1622.9592 427.3011
1624.4536 425.90915
1622.4377 425.0346
1621.2985 423.297
1623.8711 422.41125
1625.8701 424.38046
1626.263 427.2714
1628.3269 426.35092
1628.6604 423.98438
1626.89 422.31976
1625.7668 420.44955
1624.2366 418.67365
1621.7141 418.31097
1619.7087 418.18784
1618.1 416.8623
1619.377 416.0107
1621.1488 415.81046
1620.1387 414.13596
1618.2433 413.45834
1619.4412 411.4113
1621.6458 412.40973
1624.5945 411.2063
1625.7194 413.1322
1623.2775 413.88406
1622.7737 416.35507
1624.9604 415.81888
1626.9885 418.21866
1628.4482 416.61847
1627.8939 414.62625
1630.4734 415.35837
1630.1556 413.1744
1630.7424 411.3051
1627.1515 410.59464
1630.0288 409.09
1631.5786 406.53592
1632.6216 403.2196
1634.9325 403.32013
1634.0156 405.29343
1633.7983 407.5895
1632.8188 409.54898
1633.2257 411.96765
1632.647 414.11493
1634.1233 415.59833
1632.1852 416.66345
1631.0493 418.83408
1629.7689 417.88196
1628.5494 420.28568
1631.0515 420.67517
1630.0104 422.29416
1630.8564 425.64615
1631.7043 423.81592
1632.8884 421.21902
1632.9045 418.69363
1634.4762 417.60178
1636.1785 416.1359
1635.3816 413.81592
1637.8799 414.994
1641.086 415.4079
1640.1453 413.9088
1640.1508 412.17014
1638.236 410.64365
1637.6603 412.8276
1635.4608 411.50372
1635.8833 409.58508
1636.0591 407.393
1636.5513 405.20593
1638.6652 406.27686
1638.0898 408.2925
1639.986 408.6287
1640.8179 410.31357
1642.4783 411.33582
1644.2473 410.25214
1644.7773 407.97986
1643.4471 405.9321
1642.3501 408.49692
1641.2168 406.5673
1639.9987 404.75003
1638.1191 403.48956
1637.5989 401.14127
1636.4028 402.30447
1635.0686 401.08563
1633.2935 400.60712
1633.8203 398.3859
1634.8539 396.61795
1633.1036 395.33478
1632.5449 393.4675
1630.5542 393.26352
1630.9386 395.83804
1629.5713 394.9031
1627.0232 395.5108
1628.1553 393.7754
1628.9075 391.98853
1630.1992 390.7003
1631.6161 391.7476
1633.8497 391.5934
1635.6217 392.47366
1635.2433 390.1769
1636.8433 389.0419
1637.2827 391.0484
1637.3528 392.79095
1638.3235 393.84033
1639.134 394.88043
1636.8855 394.53732
1634.9663 394.17462
1636.2306 395.8729
1636.3037 397.8043
1635.7268 399.41782
1637.9542 399.37405
1637.8517 397.48715
1638.1893 395.99982
1639.561 397.4085
1639.9878 399.07022
1639.5547 401.20917
1640.7177 402.63803
1642.2045 403.9926
1644.3568 403.58307
1646.5769 403.4542
1645.742 401.3586
1643.2452 401.36487
1641.6228 400.04346
1643.1924 398.4032
1642.8113 396.06842
1641.455 397.33148
1640.3679 395.76398
1641.604 394.40805
1643.8495 394.8342
1644.133 392.6176
1642.7372 393.15332
1641.4011 391.6988
1640.2032 393.50998
1639.2456 392.09314
1639.4148 390.2293
1638.719 388.22467
1640.3679 386.96582
1639.5967 385.00635
1641.6052 385.18265
1643.3656 384.96252
1646.0758 383.99854
1648.7611 383.96268
1647.5989 385.8586
1647.9773 388.11496
1646.743 390.18805
1644.8059 388.97903
1645.9911 387.50583
1645.0276 385.96518
1643.0172 387.47617
1641.2145 389.03534
1642.9448 390.27267
1644.7773 390.9021
1645.8882 392.21472
1646.7476 393.3182
1648.3628 392.97223
1649.7096 394.21487
1648.3396 396.07477
1647.1077 395.0687
1645.3938 394.57477
1645.1753 396.83502
1645.0327 399.2998
1647.2616 399.2521
1648.1764 401.51962
1649.3314 403.4139
1651.254 401.53394
1654.1583 403.32788
1653.7023 401.31973
1655.4576 400.21594
1653.6763 398.71982
1656.0536 398.07446
1655.208 395.68417
1657.7308 396.37976
1658.543 398.4774
1660.5927 399.53226
1657.3835 400.2958
1655.925 402.29312
1657.5718 403.0096
1658.5057 405.5188
1659.4142 403.10852
1659.1709 401.0279
1661.5815 401.90552
1663.0214 403.92776
1660.844 404.45758
1661.6819 406.8186
1664.0212 406.4346
1664.465 409.33636
1662.0632 409.5142
1656.4711 407.7559
1655.9999 405.03125
1653.6997 405.43002
1651.3318 404.32416
1651.0846 407.93185
1649.919 406.10394
1647.9478 405.05353
1645.8054 405.89447
1647.7031 407.4544
1646.7031 409.915
1649.2007 409.26733
1648.8286 411.71384
1647.7222 413.94955
1645.6005 412.58414
1643.0889 413.3813
1643.2042 415.85477
1645.3412 415.72733
1646.9327 417.66473
1650.3574 418.0432
1649.245 415.8741
1650.9026 413.72174
1652.7568 416.1454
1653.9563 420.24277
1655.314 418.3461
1654.9108 415.66458
1653.926 412.68997
1651.3505 410.82187
1654.165 407.74576
1654.9302 409.9802
1656.8092 411.0348
1655.8335 413.3664
1657.2926 414.61682
1663.5743 412.63428
1666.0308 412.5337
1669.4082 413.6012
1671.2079 414.75055
1672.979 413.47302
1673.6796 411.20624
1671.1029 411.05194
1672.8234 409.2276
1674.8502 408.14914
1677.2587 406.0954
1678.1492 408.55576
1678.8646 411.23193
1680.7114 410.88004
1681.2181 413.13474
1681.5671 415.57553
1683.2034 414.6691
1683.5784 412.7108
1682.7534 410.87375
1681.5938 408.784
1679.9247 408.17096
1679.792 406.04266
1679.0872 403.94
1679.433 401.42493
1681.1383 400.9114
1678.2886 400.03262
1680.1095 398.74554
1679.1954 396.48157
1677.7557 398.04077
1676.385 399.75467
1675.5116 398.06842
1675.5498 396.2629
1677.2324 396.0438
1677.0303 394.25543
1678.6562 393.7269
1676.2026 392.47348
1677.1704 390.68872
1675.6367 387.75204
1677.057 386.1451
1677.1227 383.82864
1675.0206 382.5139
1674.4655 385.53085
1671.6757 384.68555
1669.2131 383.46884
1669.4686 386.03012
1671.373 387.60788
1673.3942 388.1887
1675.1713 389.76086
1674.2035 391.61316
1672.167 390.6073
1671.1858 395.04764
1673.0695 393.6996
1675.0569 394.21658
1673.6637 396.2526
1672.0232 397.36047
1669.9148 398.1594
1671.8379 399.99548
1673.8997 399.17056
1673.5215 401.734
1675.5707 401.5293
1677.613 402.05637
1676.9828 403.7763
1675.2778 404.14435
1674.0928 406.02274
1672.01 407.20288
1673.1163 403.97226
1671.0144 402.60413
1669.4756 400.74155
1664.3394 401.55252
1662.7946 399.6841
1662.6487 397.30124
1660.3607 396.98343
1661.3816 394.02246
1659.4938 394.50494
1657.5249 393.97498
1656.0198 392.37326
1650.499 391.78256
1648.2721 391.2742
1649.1912 389.7924
1650.5002 388.42804
1650.0315 386.06686
1657.502 385.98105
1658.7843 391.3911
1658.9932 388.91953
1659.9827 386.12515
1657.54 381.96152
1657.5913 376.76746
1659.6101 374.66196
1660.1914 377.22195
1658.913 379.5877
1659.7484 382.99026
1666.2246 381.42587
1668.2739 381.2041
1670.1794 380.59308
1667.2812 378.88464
1664.4374 377.60056
1666.6941 376.28238
1664.6506 374.29865
1662.3104 374.13818
1662.489 371.4708
1659.8663 372.32208
1657.533 371.42267
1656.1597 369.41434
1657.0366 366.86462
1659.1891 367.32132
1659.7385 369.60138
1661.4155 366.88803
1661.9165 364.79785
1663.8867 363.71234
1661.8989 362.2803
1660.1653 363.27438
1658.5217 364.64813
1658.8124 361.384
1661.2102 360.2657
1660.1099 358.5078
1661.507 356.6363
1663.722 356.7651
1663.0205 358.7373
1663.3156 360.82114
1664.9813 361.41367
1665.853 365.46304
1664.0992 366.83316
1662.6184 369.13013
1664.9545 369.33545
1665.9318 371.482
1667.2555 368.65067
1674.9153 367.2479
1674.8345 369.74945
1677.1322 371.87814
1677.0988 374.21448
1677.9802 376.61807
1675.7139 376.59534
1675.328 379.5382
1677.3684 381.18643
1678.1047 378.88815
1680.138 374.74518
1680.1064 372.01712
1678.4594 369.59488
1680.4834 366.6384
1677.6213 367.06653
1677.502 363.834
1675.168 364.54092
1675.6647 361.77734
1676.3452 359.57986
1673.6697 357.9298
1675.1156 356.63928
1674.7688 353.65793
1672.707 354.01385
1671.0461 351.2598
1669.4856 348.5032
1667.8989 345.87073
1666.2134 347.58176
1664.7178 344.12384
1664.1477 346.7082
1663.6831 349.744
1663.2008 352.3788
1663.1177 354.65964
1660.8306 354.1462
1661.0747 351.15445
1661.747 347.8283
1662.3269 344.93872
1660.0054 343.4008
1662.2795 342.26245
1660.7578 340.13168
1663.0083 339.99475
1664.5754 341.45242
1666.23 339.8201
1668.237 339.78305
1667.1903 337.78113
1665.3456 337.14554
1664.4757 338.81012
1662.4641 337.53232
1663.2971 335.5148
1665.429 334.91635
1667.1403 335.56116
1668.5984 334.78757
1669.1918 336.5019
1668.961 338.15305
1670.3068 339.48026
1671.8395 341.39444
1669.7434 341.73892
1667.8501 341.6488
1666.2124 342.36166
1667.1094 344.03238
1669.3506 343.99603
1671.5232 343.73557
1670.7471 346.2947
1672.0687 348.65054
1673.3341 350.93948
1675.5532 351.29065
1676.5599 355.26266
1678.092 357.93802
1679.5294 360.69525
1679.6382 364.06238
1681.8335 363.1495
1684.2502 364.24136
1685.1908 366.75745
1682.8986 367.38574
1681.4668 369.66992
1684.4323 370.13174
1683.541 372.5799
1685.2788 374.57468
1684.6451 377.19998
1687.3967 376.73724
1686.5986 379.20493
1688.6575 380.4247
1689.7483 378.89972
1690.6073 381.3904
1691.4371 383.20648
1689.085 382.62836
1686.858 381.4317
1687.7317 383.90686
1689.8618 384.47018
1689.2471 386.39008
1691.4348 385.4754
1693.1001 384.9594
1693.4551 387.22717
1694.6366 389.04935
1691.1658 387.30035
1690.7953 389.4297
1692.8016 389.12845
1692.3984 391.0703
1690.7668 392.6334
1691.8994 394.91357
1692.8324 393.10617
1694.6849 394.6247
1694.6179 392.58734
1694.6183 390.83432
1696.7112 389.40317
1696.4344 391.82144
1698.6772 391.9484
1697.297 393.94095
1696.6819 396.2064
1695.2645 397.78598
1693.376 396.51855
1691.6238 397.92685
1690.105 396.72922
1690.4292 399.84653
1690.6825 402.6151
1692.3473 404.07513
1690.6714 406.11438
1693.8041 405.52188
1694.7002 402.60083
1692.8278 401.55585
1693.1023 399.31577
1695.2661 399.9609
1697.4386 401.24823
1698.1786 398.92374
1699.1628 396.12668
1700.7798 394.6081
1700.9889 397.8331
1700.2125 402.48898
1698.1451 404.23853
1700.7751 405.81723
1701.3896 408.4805
1693.6039 409.5116
1692.6145 407.33875
1691.3784 408.83063
1689.2139 408.76233
1690.01 410.7141
1688.8907 412.02176
1690.7114 412.83856
1691.8643 411.0922
1692.1326 414.04828
1690.4696 415.22482
1690.3505 417.45056
1689.0818 419.3892
1689.4768 421.7208
1687.387 421.97934
1686.6084 420.34274
1687.1903 418.74994
1685.4119 417.79544
1687.3433 416.93817
1688.7703 416.1846
1688.9534 414.26135
1687.3925 413.3896
1685.4435 414.6735
1684.3978 416.2537
1682.9397 417.6376
1684.357 419.40274
1684.6439 421.44968
1685.6846 423.18307
1683.994 424.35562
1684.7377 426.35126
1686.4152 425.32474
1687.8927 424.00708
1689.9404 424.2055
1691.0483 426.034
1690.2332 427.95282
1692.4574 428.38745
1703.4854 426.54514
1704.5995 423.8831
1706.741 422.41855
1705.0088 420.34756
1703.7349 416.30453
1701.5968 411.74033
1703.9366 410.55597
1704.7515 413.66797
1706.3214 416.8621
1707.7102 419.62012
1709.3865 421.60175
1710.6785 423.8962
1708.2263 424.399
1706.6165 425.85907
1705.8257 427.86807
1705.9294 430.0095
1707.7917 431.53116
1708.2142 429.64465
1708.3342 427.54068
1710.2532 426.26926
1712.4485 427.25946
1710.4634 428.93015
1712.876 429.86478
1712.2688 432.31665
1710.1454 431.4274
1708.1846 433.56726
1705.5679 432.108
1703.1697 431.8254
1703.7792 429.35483
1701.3948 429.219
1692.8954 431.02518
1691.1537 434.00323
1691.0833 432.12564
1690.6593 430.05194
1688.8336 430.93347
1688.4482 428.84482
1688.5251 426.4045
1686.5172 427.42368
1686.5547 429.1944
1685.442 430.26315
1687.055 431.21005
1688.6919 432.84668
1687.4183 434.73773
1686.4124 433.16913
1685.3652 432.06915
1683.8751 433.9195
1683.6086 432.07855
1681.5693 431.90292
1683.9526 430.5706
1683.0602 429.42816
1684.4021 428.2413
1682.6969 426.7233
1681.3889 429.43823
1675.0684 429.46756
1675.2092 432.42538
1673.4126 434.73434
1671.9099 433.423
1673.0774 432.40488
1673.6888 430.79575
1671.455 430.80768
1670.3876 428.77496
1672.6748 429.07632
1672.7415 427.0746
1671.579 425.24127
1672.1877 422.9703
1670.2483 421.13788
1671.2769 418.90265
1672.5009 416.51956
1669.3354 416.86432
1665.7343 415.59665
1667.2518 417.9492
1665.8306 419.52185
1668.6252 419.85736
1667.4619 421.5431
1668.4187 423.10117
1670.2048 423.38376
1670.044 426.6546
1668.9597 425.0586
1666.3436 423.41748
1666.9904 425.47775
1665.8752 427.3408
1668.2773 427.7119
1667.1892 429.6127
1664.8125 429.53586
1664.2963 431.7201
1666.7423 431.94406
1668.9352 430.59888
1670.1444 431.8672
1668.6659 432.87238
1670.4181 433.36716
1670.5991 435.28644
1667.9789 434.3104
1666.3529 435.33255
1665.1687 433.72653
1661.9934 432.4366
1659.4331 431.40067
1658.9512 432.99008
1659.7727 434.6568
1657.5754 434.0743
1656.3534 435.52982
1653.998 435.52936
1653.541 433.33493
1652.6246 431.57083
1655.7336 432.84802
1657.3347 431.6756
1657.4451 429.81064
1659.2352 429.33057
1657.6332 427.14105
1656.0479 425.65863
1656.3262 422.75443
1654.3539 422.9543
1653.787 425.00992
1652.8335 426.47897
1652.0853 422.8562
1650.9067 425.5026
1649.0247 429.0509
1650.7052 428.1165
1652.4467 428.03485
1654.8281 427.4461
1655.9966 429.0942
1654.7148 431.02713
1653.8125 429.2953
1651.6802 429.8544
1650.7548 431.36838
1649.119 431.3143
1650.8423 433.34262
1651.8429 435.30103
1649.027 434.55856
1647.6786 432.57733
1637.6165 433.22992
1637.1177 430.61743
1635.7736 427.88715
1631.137 427.58188
1629.3888 428.90787
1629.886 431.28934
1627.3842 429.53705
1624.9506 429.33313
1626.658 431.5542
1628.352 432.9001
1632.2869 431.88995
1632.359 429.5645
1634.868 430.05478
1634.3969 432.4394
1635.9198 433.20697
1635.0608 435.12704
1632.6415 434.11954
1630.4283 434.0132
1631.3588 436.0273
1633.3427 436.0114
1633.4989 437.77325
1631.3003 439.67972
1631.4274 437.90073
1629.9039 437.27975
1628.4133 434.92242
1628.6432 436.59528
1627.6665 438.31406
1625.4856 437.6248
1626.7914 436.1758
1624.8853 435.7621
1626.1614 433.955
1624.5359 432.23013
1623.7837 434.3191
1622.562 436.21252
1623.3196 438.35202
1620.4407 436.83078
1619.3503 439.5115
1617.8906 441.79712
1618.5164 437.26468
1619.0292 435.19562
1617.1761 435.31808
1616.3965 434.13925
1618.5774 433.11267
1618.0349 431.0244
1616.4346 432.60355
1615.6893 430.8698
1613.3833 430.87207
1612.9067 426.2892
1612.8427 428.59097
1611.0251 430.83975
1610.676 432.80072
1610.261 434.87247
1612.4525 433.35858
1614.4026 432.60324
1614.2749 434.44635
1615.0287 436.0141
1616.5115 436.74692
1616.771 438.24054
1616.7672 439.87335
1615.6235 441.65436
1613.8267 443.48904
1611.6945 442.02493
1613.4934 441.13757
1614.5684 439.36847
1613.9607 437.56705
1612.6385 435.72577
1611.2417 437.1566
1612.1393 439.21594
1609.5529 438.78418
1609.0063 437.00433
1607.8723 435.72372
1605.75 435.5897
1607.4723 433.94104
1608.6779 432.35123
1605.5155 432.9089
1603.6204 433.79816
1601.7913 430.89297
1601.1078 433.01996
1601.0051 434.69186
1602.5314 435.19675
1601.6742 436.66635
1601.4207 438.99207
1603.042 438.09457
1604.0817 436.42584
1605.0759 438.32816
1607.0264 438.3017
1607.9319 440.64948
1610.2173 440.54492
1609.1682 442.63913
1607.4595 444.1251
1605.7794 446.55518
1604.303 445.22083
1603.2784 447.5975
1601.0862 449.13043
1600.1063 447.26968
1601.4185 446.25775
1602.5818 444.9265
1601.4271 443.58096
1603.7021 442.6303
1605.6055 443.5458
1606.2477 441.4957
1604.909 440.34378
1603.21 440.09003
1602.0044 441.2218
1600.0586 440.45685
1600.5896 442.15186
1598.9698 442.51318
1599.4368 444.97504
1597.5876 443.92395
1596.8757 446.04712
1598.4316 447.605
1596.2902 448.6165
1594.5298 447.1134
1591.6722 445.4489
1593.9578 444.9334
1595.6619 443.93903
1596.9637 441.8322
1595.4424 440.512
1593.4075 440.66867
1594.4746 442.34726
1592.3688 443.14462
1591.3984 441.2848
1590.019 443.51282
1586.7776 442.58203
1588.9169 441.3296
1588.1787 439.24606
1586.3257 438.54355
1585.396 437.27087
1583.7234 437.29904
1582.1029 436.81247
1582.4032 439.07938
1584.1736 439.82617
1586.1238 440.577
1584.2104 442.5523
1581.3435 441.40643
1579.1072 439.4956
1580.544 438.1198
1579.0674 436.14554
1577.4485 437.12677
1574.4729 437.28683
1572.4904 438.13705
1570.8032 437.5707
1574.2924 435.51114
1572.7417 433.9237
1572.3257 432.16696
1572.2277 435.85117
1570.0684 435.91013
1570.1113 434.13235
1569.8019 432.28192
1568.5702 430.5066
1567.2955 432.135
1567.7545 433.89856
1567.9674 435.8818
1568.7491 437.9442
1566.4746 437.62393
1564.375 436.60117
1565.9017 435.325
1565.532 433.56088
1563.453 434.65527
1561.5332 433.05002
1563.3729 432.6771
1564.9486 431.96494
1562.9518 430.63983
1561.2717 430.40475
1561.8932 427.90265
1563.8604 428.05576
1566.2559 428.3106
1564.4314 429.99725
1565.8705 430.55206
1567.1993 430.08154
1568.4054 428.1882
1569.1459 426.30453
1566.833 426.06534
1568.2188 424.68256
1569.7496 423.5775
1570.7588 424.8167
1571.5532 426.4291
1570.543 428.08035
1570.0066 429.94272
1571.6805 430.44977
1573.7847 429.7079
1574.437 431.5943
1575.0565 433.54657
1576.3225 435.1582
1577.9985 434.2666
1578.9348 432.51526
1576.8994 432.71893
1576.4365 431.32495
1578.5752 430.8837
1576.5273 430.0579
1575.42 429.35922
1576.5422 428.2653
1578.0156 429.4495
1577.9867 427.95444
1579.2428 428.18906
1580.2338 429.69403
1580.5378 427.89575
1582.0565 428.09467
1583.4393 429.49268
1584.2843 428.04813
1585.864 426.25842
1587.3605 425.10696
1585.9764 424.5471
1584.7512 421.30783
1584.8066 423.56558
1584.0796 425.68402
1582.3733 424.54385
1583.1892 422.77536
1581.1716 420.5203
1580.2634 417.82974
1579.1185 416.30173
1579.4049 414.76773
1578.3253 413.42075
1579.376 411.87793
1579.3788 409.18286
1580.9072 409.39243
1582.2415 408.42508
1583.8634 408.81522
1585.2532 409.6854
1584.779 411.49957
1586.8922 411.5052
1587.2827 409.3173
1586.7584 407.0365
1584.6559 407.03625
1582.5549 406.47018
1580.3458 407.11798
1577.8813 407.49695
1578.8624 404.87973
1579.6923 402.8699
1580.4595 400.977
1579.1625 399.0202
1580.8732 395.13306
1584.8727 395.81445
1584.2659 393.7381
1582.3647 393.6575
1579.5596 392.8212
1578.2426 395.11774
1577.2963 392.58435
1576.2811 393.97992
1575.7396 390.79694
1574.2856 389.57584
1573.9534 387.33
1572.1317 389.34805
1569.3285 389.47443
1567.2123 388.94888
1567.093 391.2274
1564.3237 391.13806
1564.2745 389.32678
1562.3242 390.34854
1562.6483 388.39044
1561.1316 387.96292
1559.4583 387.86435
1560.6913 389.373
1560.3969 391.0146
1558.9823 390.12054
1557.8218 388.76633
1556.8911 390.34225
1555.0273 389.83667
1553.7737 391.40115
1552.4749 390.04788
1550.5812 391.17017
1551.592 392.92276
1552.3574 395.11926
1550.0482 395.3047
1549.0223 393.01608
1548.4694 390.40314
1543.9945 392.35974
1543.5643 394.92355
1541.8339 395.91858
1542.0049 393.1296
1539.9976 394.3738
1537.9883 393.86005
1535.9633 396.6698
1537.469 397.45868
1538.9408 397.26974
1540.5321 396.93817
1543.5369 397.13846
1545.3379 398.34067
1544.5841 400.48932
1542.8091 401.3843
1542.6133 398.83813
1541.2944 400.3773
1539.9567 399.2243
1537.9581 400.29443
1540.2665 402.05798
1539.557 404.27505
1541.641 404.96518
1541.7852 403.32553
1543.6865 402.96558
1545.4335 403.36694
1546.4202 401.38818
1548.1074 402.74707
1548.042 404.61923
1548.2615 406.82166
1546.5696 408.25714
1548.6271 409.06375
1548.2406 411.04846
1550.6968 411.12128
1552.9744 410.8653
1550.8115 409.38385
1550.2203 407.4825
1552.3491 408.34146
1554.3014 408.80988
1553.4336 406.67868
1551.7122 405.91034
1549.8755 405.3857
1550.1062 403.37115
1552.02 403.7895
1554.0161 402.8457
1554.9755 400.64432
1552.4084 401.4742
1549.957 401.19684
1552.1937 399.47748
1555.2288 398.5418
1552.9238 397.54056
1553.912 393.43176
1555.9607 392.31033
1558.2391 391.97937
1557.7996 394.21375
1555.8096 394.68045
1554.477 396.16623
1556.7867 396.8106
1557.5916 399.24747
1559.1848 400.70288
1557.5925 401.5598
1556.0969 402.86148
1556.2959 405.12607
1554.1631 404.91238
1555.5386 407.23218
1558.1819 406.15784
1557.5398 407.74182
1557.0443 409.5982
1555.4551 410.43365
1555.1056 412.22272
1556.934 412.71152
1558.5508 411.8031
1559.1473 409.88672
1559.8534 408.1388
1560.2646 405.80463
1559.1726 404.62326
1558.0939 403.548
1560.013 402.50534
1561.4622 403.60486
1562.0098 405.22308
1563.5812 405.40036
1564.6079 406.7848
1566.4714 407.53998
1566.0623 404.6003
1563.7411 403.00262
1565.7754 401.78912
1564.3964 400.20837
1562.0197 401.4001
1560.46 399.92667
1560.614 398.51718
1559.4702 397.62808
1558.4917 396.5645
1561.2142 397.04474
1562.2915 396.0062
1562.3794 399.20276
1563.9196 397.9744
1564.6432 395.97595
1562.64 394.20596
1560.1332 395.0501
1559.7643 393.2633
1561.2003 392.49884
1562.8385 392.1953
1564.7437 393.4154
1567.6622 393.79565
1568.6812 395.52634
1571.4465 395.40683
1570.441 393.52417
1568.8544 391.8953
1570.7465 391.17865
1572.6852 391.83762
1574.6534 392.56668
1573.1385 394.15372
1575.1399 395.2156
1574.1462 397.55353
1576.7354 397.9116
1577.8533 401.0601
1576.5536 399.8282
1574.2457 399.9991
1573.0667 402.0606
1575.4546 402.37888
1577.5853 402.91116
1576.5839 404.86325
1573.7677 404.97635
1574.9216 407.58987
1576.4393 409.4454
1578.2981 410.27167
1577.0262 411.65338
1575.7007 412.96686
1577.1074 415.24866
1575.0337 415.01184
1572.9756 417.44803
1575.1155 417.01038
1576.5525 417.6139
1578.1963 417.6471
1577.3472 419.98315
1574.2778 419.7774
1575.7206 422.11356
1573.9828 422.85406
1575.0421 424.34525
1577.0481 423.5861
1578.8838 424.40912
1580.3479 426.18262
1578.517 426.3354
1576.8965 426.8778
1576.8748 425.32468
1575.3772 426.17087
1574.7954 427.80243
1572.5941 428.27252
1573.6996 426.40225
1572.9846 424.86066
1572.1455 423.2037
1570.5275 422.23337
1571.7806 420.9263
1573.3915 421.1984
1571.8411 418.9924
1570.9279 416.7234
1569.8618 418.81168
1569.7605 420.62125
1568.0106 421.33405
1568.2969 422.89868
1566.4312 423.08023
1566.9585 419.80167
1567.8558 418.126
1568.7567 416.44254
1565.0822 417.8512
1566.0831 415.84317
1567.7458 414.1616
1566.5785 412.36038
1570.1116 411.6978
1569.9344 414.46384
1572.8773 414.20724
1573.2506 412.03903
1574.2046 410.19315
1572.0117 408.47006
1569.5706 407.48666
1567.8405 410.37393
1565.6228 409.75262
1563.7085 410.85776
1563.0715 408.6096
1561.6102 407.33878
1561.1271 410.76974
1562.2168 412.98975
1564.6002 413.49496
1562.8948 415.63004
1560.0692 413.73895
1559.1001 415.6734
1557.2894 414.60956
1555.2748 414.65228
1555.2566 416.81433
1553.3313 415.45914
1553.6171 413.2707
1551.7356 413.30862
1549.7126 412.61063
1548.2356 413.5319
1549.9747 414.72903
1551.6411 416.00186
1553.0345 417.91226
1550.9504 418.4129
1549.9258 416.84335
1546.959 414.9425
1548.1272 416.33636
1548.1158 418.48544
1547.3745 422.77124
1546.0438 424.40295
1544.923 427.49908
1543.2711 429.28116
1546.3433 430.2905
1547.2555 428.41476
1547.0017 426.039
1549.0305 426.89206
1549.2662 429.7233
1550.2472 431.6074
1552.059 431.62592
1551.2384 433.58575
1549.7094 435.2826
1549.5046 433.4812
1548.1736 431.83487
1546.0591 432.747
1544.2468 431.39633
1545.3584 434.56317
1547.8699 433.6924
1547.4612 435.0408
1547.8181 436.98917
1545.9038 436.16388
1543.1758 436.0013
1543.409 433.5753
1540.9397 434.37433
1541.6465 431.72385
1540.4895 429.51294
1542.0712 426.6871
1543.8195 424.91672
1542.741 422.26508
1544.9376 422.16586
1545.1371 419.7204
1543.1427 418.37006
1545.0941 416.79086
1544.7516 414.4827
1542.7864 414.9511
1541.898 411.8996
1543.8977 412.54968
1546.145 412.6944
1545.6792 410.45886
1543.8228 410.63937
1542.2528 409.7507
1542.0807 408.0159
1544.0483 408.5396
1544.5978 406.57697
1546.2301 405.48523
1543.667 404.8794
1542.8651 406.56677
1540.4427 406.31213
1538.0786 406.576
1536.4595 407.7391
1538.2577 409.44418
1536.2391 410.58914
1535.7584 412.89133
1534.0043 413.45273
1532.5992 414.72296
1533.8423 415.81235
1535.4108 415.7758
1533.5806 417.89465
1531.6614 418.6721
1532.9072 420.16336
1531.3737 421.7846
1531.0457 423.3688
1531.7379 425.19916
1533.4192 426.07343
1533.6405 428.23865
1534.7046 429.77783
1533.0475 431.69595
1535.761 431.7485
1539.1146 432.64984
1534.1644 433.89282
1531.7604 434.29605
1530.51 431.38235
1529.638 433.38925
1527.8812 434.53467
1525.619 433.57626
1524.2156 431.45538
1525.6294 429.22708
1525.6127 426.64444
1528.2393 428.96365
1527.6498 431.44296
1531.6029 429.57803
1531.5952 427.29337
1529.8514 427.75754
1528.7622 426.1951
1527.2335 425.5181
1529.7292 424.75848
1528.7814 422.79358
1526.8813 422.33823
1528.4512 420.15668
1530.3438 420.297
1529.4739 418.29022
1527.9261 417.99835
1526.2681 418.62558
1527.1859 416.34097
1525.6976 415.2007
1525.888 413.17227
1524.8481 411.38217
1524.6887 409.04837
1525.9694 407.0454
1527.505 408.59323
1526.5985 410.44788
1528.9761 411.13193
1527.6105 412.4111
1528.1302 414.2775
1529.2587 415.94534
1530.713 417.28796
1531.9236 416.28168
1531.9431 412.92093
1533.8094 411.04742
1534.6089 408.72992
1535.3718 405.38782
1537.3259 404.52237
1538.0662 402.47958
1535.5325 399.74246
1535.2827 402.30765
1529.1191 402.0326
1529.8386 399.8328
1529.472 397.31055
1527.6741 394.24625
1526.9601 392.2446
1527.4877 396.29977
1528.0901 398.40195
1527.152 401.42334
1527.2306 399.80338
1526.1963 398.1537
1523.4629 399.0011
1524.7864 397.28384
1525.6294 395.12476
1524.1259 393.52234
1521.8501 390.35114
1523.5598 387.86603
1523.7726 390.60983
1525.3156 391.52905
1526.4415 389.39774
1525.7019 387.38034
1528.3082 387.2196
1529.8488 385.21045
1530.8182 382.85205
1528.6191 382.85416
1527.6721 384.49338
1526.2562 385.5523
1524.3201 382.0128
1522.3782 383.4762
1524.0125 385.05496
1521.7517 385.8568
1520.7201 382.0667
1522.2488 380.57523
1523.6907 378.95334
1520.8334 377.9467
1522.9425 376.033
1521.147 374.6524
1518.4756 374.0745
1519.8975 372.00488
1520.9719 369.98853
1522.5184 372.18875
1524.4607 369.82703
1524.5835 367.42667
1522.197 368.14175
1523.168 365.59845
1521.4026 364.57864
1520.0514 366.57516
1518.9563 368.73907
1517.3126 367.36203
1515.6459 366.0714
1517.4158 364.57785
1519.3112 363.84167
1522.5488 362.46658
1524.3754 363.45682
1524.1997 360.4332
1522.0613 360.03995
1523.7716 357.9045
1521.7751 357.6828
1519.7595 359.17615
1520.3444 361.7516
1517.6244 361.55765
1514.4685 364.09863
1513.9211 367.4853
1515.484 369.5387
1517.4938 370.70776
1514.8964 372.23718
1512.579 374.48364
1515.0112 375.37732
1512.9926 377.42694
1510.4174 378.4553
1512.1724 380.5232
1509.3268 381.7022
1510.1499 384.04016
1507.2191 384.4349
1508.8052 386.61246
1506.3838 386.88327
1504.151 387.86975
1505.5988 389.87894
1507.3647 388.9122
1508.3745 390.55948
1506.9547 392.1168
1508.4417 393.70035
1520.2311 396.30063
1521.7263 393.4699
1522.9241 396.0982
1521.1403 398.84192
1518.4028 399.58804
1520.1083 401.5114
1522.261 403.97394
1522.972 401.61987
1525.1028 400.97195
1526.6329 403.3779
1524.9247 404.5615
1523.3372 406.36783
1519.7599 404.33875
1519.3088 406.6586
1521.0305 407.56787
1520.691 409.68863
1517.9276 408.9058
1519.488 411.20862
1518.1029 414.22534
1517.7462 411.61523
1515.4756 411.36877
1516.4307 413.27164
1515.164 414.57648
1513.2668 414.5606
1510.4143 414.45102
1510.542 417.00754
1509.089 418.5082
1512.0752 418.6552
1513.0275 416.8717
1515.1082 417.08755
1516.6345 416.22058
1515.719 419.7695
1514.248 418.6493
1513.156 420.26584
1510.9587 420.2043
1509.3676 421.6147
1511.5237 422.35153
1514.0002 421.87305
1513.0615 423.7192
1511.3445 424.93625
1508.9822 424.17297
1509.53 426.31036
1508.1382 427.79428
1508.1542 430.4087
1510.0558 429.94852
1510.6355 428.31116
1512.1649 427.20877
1513.6398 425.94946
1515.1178 424.28647
1516.1108 426.7487
1516.9579 429.6408
1517.2845 431.83847
1515.7402 433.3995
1514.5831 431.71268
1514.735 429.9857
1514.7573 428.0115
1512.9233 428.99466
1512.2886 430.652
1512.1833 432.53595
1513.4275 433.65695
1510.4794 434.19672
1510.3188 431.8398
1508.4713 432.8491
1506.3385 431.8574
1506.2808 429.17047
1497.7267 427.98044
1496.2467 429.63257
1497.8005 430.62866
1495.779 432.01508
1493.9742 431.18628
1494.2355 429.29706
1492.1282 429.88242
1489.8969 429.63684
1490.2738 427.54996
1491.7274 425.54886
1493.0304 427.37512
1495.4144 427.55978
1495.3973 425.2101
1493.6171 424.1304
1494.274 421.40158
1494.76 417.33188
1494.8324 414.15686
1497.2377 411.90973
1508.1342 414.86566
1509.488 411.57324
1507.7231 409.87018
1508.4127 405.6381
1506.3342 406.9681
1503.0037 403.4315
1505.9877 403.00137
1508.3273 400.4971
1508.6422 396.66855
1506.8071 394.623
1504.7579 394.6404
1504.9738 392.18176
1503.3022 390.46506
1501.2438 391.43683
1503.0586 393.48526
1501.1057 393.9141
1498.8164 394.371
1497.5273 396.40814
1499.7473 398.5613
1501.1359 396.35837
1503.4438 396.91687
1505.7509 396.85114
1507.5833 398.23727
1505.443 399.80786
1502.9287 399.5226
1501.2646 401.12897
1499.2238 402.3816
1497.8553 405.05588
1499.8253 405.9625
1498.3278 409.06097
1496.3394 407.9725
1494.9387 411.00467
1492.6455 415.57858
1492.3802 418.3525
1491.4624 420.15637
1489.4507 421.1296
1491.9532 422.4825
1490.1665 423.70087
1487.7207 423.945
1488.8638 425.7446
1487.358 427.56372
1484.863 429.52817
1487.3994 430.67236
1488.9429 432.0716
1491.4631 432.08044
1493.6855 433.3517
1488.3044 488.8193
1485.8068 489.14944
1485.7034 491.65924
1477.5598 496.74747
1474.902 496.14944
1472.8347 497.35098
1469.8727 496.45676
1467.8523 497.42258
1465.5374 496.39392
1465.9358 499.38467
1460.0664 502.14432
1459.2096 499.31735
1458.3678 496.7878
1459.8728 494.9267
1462.391 490.79022
1459.9843 489.6543
1458.5294 492.29813
1455.8623 489.95184
1449.1807 490.31598
1446.0101 489.79138
1440.4983 489.30713
1443.1841 491.08682
1446.0994 492.63855
1446.8313 495.09256
1444.2157 494.4469
1443.758 496.9911
1445.8333 496.9897
1447.6744 498.1786
1446.2572 499.1934
1444.6008 498.81818
1443.5565 500.6113
1445.2052 500.80463
1446.8853 500.9355
1447.5717 502.57617
1446.6678 504.29492
1445.7843 502.62418
1444.5306 503.1899
1442.7854 503.32455
1444.2858 505.50043
1446.5259 505.8328
1445.8207 507.54526
1443.9017 508.2412
1445.5468 510.3105
1447.5231 511.09695
1448.105 508.2881
1449.525 510.91238
1451.5161 510.4108
1452.9873 512.48004
1454.336 510.18448
1456.3679 510.85608
1458.1753 509.55984
1456.6902 507.8379
1458.1667 505.0993
1458.0197 502.0821
1460.1633 504.96518
1459.3038 507.3807
1464.9384 510.6759
1467.1396 511.3113
1469.4468 510.54556
1467.9437 507.97104
1469.5651 505.93964
1467.1517 504.65723
1469.671 502.84662
1467.7727 501.9546
1468.1523 499.85034
1470.4663 499.23804
1476.0425 498.49875
1476.2776 500.53412
1476.6758 503.20544
1477.7943 504.89926
1476.9781 506.96152
1471.7845 510.7495
1475.8977 511.91333
1476.866 509.63925
1479.0494 507.82916
1479.7578 504.81323
1478.8354 501.84418
1478.9814 499.16492
1484.38 497.04822
1487.7617 498.59766
1487.5524 496.38705
1487.7445 492.74774
1488.5188 490.84515
1491.5645 495.66434
1494.0682 496.17368
1496.4629 495.05518
1496.3098 496.78668
1496.1382 498.42856
1495.199 500.52875
1493.5293 500.3841
1494.0724 498.1239
1491.1848 497.71594
1489.0844 501.00806
1488.232 503.34137
1486.167 500.502
1485.5789 503.1341
1486.4172 505.60812
1488.97 505.87885
1489.4916 508.59012
1487.3177 508.3343
1485.1848 508.05634
1480.1765 509.8223
1479.1981 511.68582
1482.7761 511.07242
1485.5977 511.06607
1488.0125 510.63995
1487.9951 513.3781
1490.2915 511.22607
1499.4966 511.2546
1501.3867 509.39417
1499.1359 508.6416
1496.9884 507.51733
1498.3025 505.7692
1500.1482 507.0638
1500.91 505.37216
1499.1002 503.8497
1498.0374 502.38663
1496.1656 504.4777
1495.8948 502.41125
1496.6777 500.21744
1498.3376 500.38464
1498.4636 498.0586
1498.446 496.20847
1502.6353 496.3301
1503.3416 498.8828
1505.1257 497.10928
1507.2981 496.4251
1505.174 500.15414
1504.4554 502.85464
1502.6567 501.6458
1502.5249 504.00934
1502.0848 507.1317
1503.427 505.6545
1508.027 504.60913
1508.467 501.55527
1510.9941 498.94186
1513.1981 497.16605
1515.8602 496.47058
1518.3834 496.95444
1520.2354 498.75644
1521.3945 501.16302
1519.9231 502.88187
1518.2534 500.32764
1516.3724 501.7738
1516.9863 503.6439
1514.1763 502.27032
1512.2509 501.68295
1510.4253 501.33945
1510.0718 503.56155
1512.2026 504.24243
1510.1561 505.53378
1508.958 506.92258
1509.7083 508.8734
1511.1862 507.6977
1512.233 506.22473
1516.9462 508.73428
1515.022 509.84995
1513.0813 508.58926
1511.4805 510.3421
1513.4515 510.93277
1513.8394 513.27606
1515.9824 511.93823
1517.4921 510.649
1519.1212 511.82144
1519.5527 509.29626
1521.7919 508.63312
1525.932 511.69406
1529.0857 514.41547
1529.2883 511.63077
1531.7074 511.7139
1536.8931 508.70602
1531.3857 509.62823
1528.8738 509.92072
1526.194 509.48865
1526.1748 506.9839
1525.2712 504.38657
1525.7059 501.96188
1527.6809 501.96988
1527.4203 503.6039
1527.6482 505.32083
1528.4641 507.9754
1529.4291 506.32755
1529.763 504.28207
1529.5369 502.39905
1533.2219 500.2635
1533.2402 498.40292
1530.0941 498.84024
1528.9298 500.46582
1527.1611 500.05054
1525.3722 499.70724
1525.2795 497.70386
1524.0011 496.11893
1527.1597 496.0435
1527.8641 498.01453
1530.5255 496.59467
1533.5144 496.3692
1535.9757 498.07498
1538.4995 499.42178
1538.4116 502.45428
1541.1069 501.0844
1541.089 503.88306
1543.9292 505.53458
1543.8214 503.06308
1546.4711 503.1514
1546.8628 505.49155
1548.0685 507.68265
1545.5106 508.10657
1540.6716 509.42047
1538.1677 506.63388
1538.0737 510.87918
1541.1484 511.93152
1544.243 511.18494
1546.9581 510.34796
1551.5176 510.8641
1554.1816 511.84717
1557.0521 511.21793
1556.8029 508.67017
1561.2665 506.26437
1563.5271 505.5675
1561.4543 509.02893
1564.1869 508.89658
1565.1978 511.48254
1568.4757 510.34753
1571.9404 512.2011
1571.8807 509.65067
1571.4967 507.36057
1572.6797 505.16608
1574.324 507.363
1574.586 510.55634
1577.4094 509.1482
1579.0425 510.82196
1581.0764 509.98566
1581.1384 512.10144
1583.7302 512.2292
1586.3455 511.20404
1584.7086 510.25714
1582.7179 510.08588
1581.016 507.58517
1579.7223 508.79102
1578.6965 507.07758
1579.323 505.06818
1581.1863 505.44043
1582.5358 506.89142
1584.8981 508.42102
1587.1876 508.87518
1589.4204 508.59683
1588.8032 510.70233
1590.4341 512.30334
1591.1465 509.97525
1593.7534 510.48856
1598.154 511.11624
1599.343 508.93265
1601.4313 511.17667
1604.0474 509.98416
1606.1398 512.0832
1608.494 512.1755
1608.4377 509.74243
1606.5852 510.12515
1606.4941 508.13553
1604.6472 507.20792
1606.5728 505.7649
1605.1511 504.16895
1605.5784 502.00256
1605.7814 499.89807
1602.9022 498.27164
1602.6393 496.14645
1600.1912 496.15894
1599.2509 498.00778
1596.7714 497.02225
1597.301 499.17865
1597.7252 501.29788
1596.9285 503.87952
1597.6365 506.30276
1596.1306 508.37564
1594.9609 505.66623
1595.3896 502.7471
1595.2769 499.81778
1593.87 501.9178
1590.9535 500.476
1589.3723 500.35437
1587.7411 500.6594
1586.7177 502.06708
1586.9998 504.07202
1589.0667 502.43942
1590.7493 503.59943
1591.8584 506.1888
1589.662 506.60132
1588.8438 504.56708
1587.5923 506.62885
1585.671 505.4703
1584.589 502.8742
1583.3616 504.50543
1581.5773 503.5846
1582.1906 501.09076
1582.048 498.46216
1584.592 498.74045
1586.823 498.76553
1588.6394 498.51212
1589.8506 497.11917
1587.4109 496.32544
1585.146 496.57904
1582.9874 496.0338
1580.8417 496.78348
1579.0874 498.49176
1580.2334 499.95334
1579.4004 501.7927
1574.5242 500.18192
1574.2961 503.1396
1571.6759 503.07687
1572.309 500.91922
1570.5717 499.34183
1573.0037 498.61786
1574.1597 496.4918
1572.4683 494.66815
1571.6031 496.79718
1569.26 497.32425
1568.7443 495.3372
1566.5557 497.1898
1564.2089 496.6222
1562.8672 498.54712
1564.1019 500.8638
1562.1433 503.50995
1559.4548 504.45523
1555.3527 504.0922
1555.0757 506.59845
1554.2961 509.33252
1552.9343 506.88785
1552.8684 503.89972
1554.0425 501.9051
1555.6036 500.426
1560.1914 502.23648
1561.9818 500.96436
1560.523 499.39105
1555.2375 497.8766
1552.9333 499.47455
1546.0925 499.5503
1540.0522 497.303
1542.6061 496.5882
1545.6245 496.7588
1549.9049 497.1313
1552.4222 496.86697
1554.6318 495.80066
1555.3293 491.37726
1553.2965 492.05682
1552.0319 490.1354
1553.7378 488.6201
1555.7739 489.0215
1566.9934 488.75595
1568.6898 488.099
1570.4583 487.217
1570.0847 490.57208
1571.2745 492.71277
1573.0619 491.9346
1574.491 493.3703
1574.8701 489.35193
1572.9296 490.0819
1571.2328 489.0587
1573.283 487.4547
1599.3615 461.95496
1598.1448 456.83115
1597.7225 453.99057
1599.3569 452.62967
1598.485 450.07797
1601.5281 452.62253
1600.864 455.45398
1599.8818 458.7484
1603.7883 488.0468
1607.3616 488.78238
1605.1064 490.80536
1607.2084 493.15765
1605.2311 495.31168
1605.4397 497.79886
1607.7009 496.73462
1607.9048 499.74188
1607.9359 502.04724
1607.6001 504.03305
1608.3076 506.95627
1610.3894 509.2261
1610.1979 511.04996
1612.0991 510.68893
1620.6576 507.87042
1622.745 509.70572
1624.3193 511.72046
1627.4664 511.3723
1629.9952 510.37302
1632.7488 511.913
1635.3528 510.57373
1632.9133 509.4041
1634.0153 507.12146
1632.4335 505.30112
1630.9536 507.8328
1625.689 509.55325
1623.279 507.2323
1623.151 504.22766
1620.8239 505.04642
1620.3323 502.41495
1622.4685 501.11618
1622.1719 498.47736
1625.0554 498.7839
1624.0533 496.40613
1626.4758 496.16025
1628.0986 497.166
1629.7278 498.36136
1631.3862 497.43118
1630.1343 495.51932
1632.5493 495.55396
1631.6759 493.01428
1630.0648 489.9101
1628.0114 488.12793
1630.1962 487.45514
1632.2695 487.95758
1634.1096 487.9478
1634.1523 490.52606
1632.1877 490.4784
1633.8655 493.1993
1634.3691 496.14496
1634.5232 499.28354
1632.8658 498.54553
1631.4219 500.51126
1631.8483 503.2078
1633.6038 501.7285
1636.3767 504.08405
1638.3749 501.29547
1640.3794 501.42612
1641.9243 499.6356
1639.9827 498.69962
1642.0164 496.72427
1643.9006 498.1598
1644.6753 495.98087
1646.6353 497.10632
1648.6409 496.7427
1649.4502 498.89407
1646.9888 499.71405
1648.0317 501.38452
1649.5581 501.28543
1651.1777 500.3686
1652.0856 502.2497
1650.3442 503.11392
1648.2391 503.63278
1646.5913 502.77463
1645.0381 502.011
1643.6481 503.4385
1642.6218 501.65482
1641.263 503.56723
1639.1337 504.09256
1641.4077 506.12598
1639.0497 506.95227
1640.3612 509.89468
1642.2166 508.77786
1643.3148 511.53403
1644.8429 509.55975
1646.6599 511.2342
1649.0142 511.0462
1649.7712 508.9305
1651.2892 507.27704
1662.3914 505.90225
1664.7529 506.2924
1664.4966 508.59216
1666.0275 510.33624
1668.2285 510.0609
1668.0991 512.6401
1670.4003 511.8644
1673.0908 511.67075
1675.887 511.76978
1674.3314 509.7319
1670.8888 509.93344
1667.0529 507.70163
1664.8853 503.78143
1661.6912 502.4581
1663.5825 501.00754
1664.2902 498.55078
1661.6969 497.32733
1664.011 495.54697
1666.4198 493.90366
1664.3738 492.15775
1667.7577 490.71194
1670.7915 489.03516
1673.5807 489.97647
1676.4473 489.92435
1676.1729 492.73404
1678.8062 491.4353
1678.781 493.8816
1681.1376 494.13226
1686.8127 496.28558
1689.92 496.6215
1688.3522 498.5178
1685.551 498.4968
1682.8511 500.8961
1683.8772 496.60696
1680.6733 496.37122
1678.1439 496.01685
1678.7544 498.43063
1681.4049 498.48083
1680.475 500.41727
1678.5275 501.5988
1681.0375 502.50128
1679.6572 503.807
1677.7034 504.1898
1677.0637 507.1683
1676.5681 509.2958
1678.5635 509.999
1679.1786 507.962
1679.3408 505.81573
1681.1459 506.8992
1681.8368 504.53268
1686.4998 503.68198
1688.3099 504.04843
1688.689 506.20776
1690.7664 504.8895
1693.3143 505.6638
1690.9883 506.63077
1691.687 508.20047
1689.5206 508.46008
1690.186 510.7214
1691.9691 512.6536
1692.2164 510.1083
1693.6456 508.37946
1702.6998 512.07605
1702.4419 509.3733
1695.0942 506.42905
1695.5846 503.44507
1693.6118 502.5339
1690.7356 502.21744
1689.7628 503.58038
1687.1876 501.80307
1686.8962 500.12982
1688.8057 501.83035
1689.9265 499.97504
1696.0541 500.41663
1695.2211 496.84555
1697.4376 497.97772
1698.8522 495.66226
1702.6152 495.96292
1703.5366 491.4715
1704.5386 489.3042
1705.6228 496.2322
1704.3254 497.89767
1702.2417 497.9902
1700.0363 497.4889
1701.6449 500.4528
1703.9397 500.29233
1705.9827 499.50253
1703.477 503.02304
1704.3276 505.5845
1705.093 508.26965
1706.5029 511.0497
1710.2417 507.53714
1709.0615 504.955
1705.7885 502.66595
1709.9576 502.03128
1711.9342 500.59048
1710.3486 498.7611
1712.6243 498.1612
1714.5459 496.45728
1715.3768 498.8312
1717.7883 496.39487
1720.7456 497.73016
1719.0977 500.29938
1721.4866 500.58826
1724.0419 501.01566
1722.5972 502.89673
1719.9149 503.01096
1717.2008 502.47357
1714.7666 503.54898
1714.2582 501.4154
1712.3173 503.01578
1711.209 504.92267
1712.9653 505.69284
1712.5962 507.92007
1712.291 510.24988
1714.6533 509.86993
1714.9644 507.5412
1717.1116 510.0844
1714.996 512.4685
1719.1976 512.1165
1719.9199 509.9833
1722.05 509.6519
1722.1674 507.5625
1724.8594 505.57822
1725.4861 503.66354
1726.967 505.39133
1728.9968 506.2025
1727.4255 507.62
1725.5509 507.75946
1727.255 510.34265
1728.7046 509.1813
1730.6865 509.04364
1730.3679 511.69873
1733.2407 511.15036
1735.7538 508.5966
1737.3447 511.4367
1738.916 509.0326
1740.9153 511.20053
1743.2953 506.78156
1745.2192 509.05847
1747.6528 510.9149
1753.0455 511.83704
1756.5579 510.65298
1757.4066 507.219
1756.0253 505.2047
1753.981 505.92487
1755.2245 507.90402
1753.7523 509.56982
1750.1771 510.67166
1747.6497 508.09277
1745.5032 506.70367
1746.6003 504.9306
1744.1704 504.2049
1741.491 504.3088
1745.2947 502.6627
1747.2363 501.5207
1746.9999 499.2507
1744.6654 500.83838
1742.1377 500.79688
1739.8833 496.9214
1738.5476 498.09866
1736.727 498.42694
1738.6084 500.23862
1738.781 502.962
1738.3303 506.4218
1736.3943 504.6579
1736.2676 501.64865
1735.0786 498.90558
1733.5415 497.37332
1731.2692 497.6363
1729.6935 499.28278
1728.6168 501.29208
1728.514 503.7442
1726.8002 502.38162
1726.1785 500.2628
1727.4395 498.9557
1728.5181 497.22412
1730.2513 495.8099
1732.8896 495.59866
1735.5394 495.94656
1737.8146 496.03302
1737.0867 494.1771
1738.9902 493.5487
1737.9216 491.9299
1735.7126 492.48605
1736.0955 489.99542
1733.4988 488.11725
1736.4626 487.5442
1739.2356 487.9035
1738.2594 489.75745
1739.9917 490.94675
1740.1616 494.54904
1744.8173 498.29443
1747.0344 496.71823
1749.3273 497.06488
1751.6437 496.60617
1753.9946 496.2843
1754.6559 498.47147
1753.1248 499.7283
1755.3004 502.07553
1757.7673 504.0502
1757.6895 501.455
1756.8604 499.07697
" />
</g></g></svg>
