<?xml version="1.0" encoding="UTF-8" standalone="no"?>
<!-- Created for Inkscape (http://www.inkscape.org/) -->

<svg
   xmlns:dc="http://purl.org/dc/elements/1.1/"
   xmlns:cc="http://creativecommons.org/ns#"
   xmlns:rdf="http://www.w3.org/1999/02/22-rdf-syntax-ns#"
   xmlns:svg="http://www.w3.org/2000/svg"
   xmlns="http://www.w3.org/2000/svg"
   xmlns:sodipodi="http://sodipodi.sourceforge.net/DTD/sodipodi-0.dtd"
   xmlns:inkscape="http://www.inkscape.org/namespaces/inkscape"
   width="3200"
   height="800"
   id="svg2985"
   version="1.1"
   inkscape:version="0.48.1 r9760">
  <defs
     id="defs2987" />
  <sodipodi:namedview
     id="base"
     pagecolor="#ffffff"
     bordercolor="#666666"
     borderopacity="1.0"
     inkscape:pageopacity="0.0"
     inkscape:pageshadow="2"
     inkscape:zoom="0.35"
     inkscape:cx="1600"
     inkscape:cy="400"
     inkscape:document-units="px"
     inkscape:current-layer="layer1"
     showgrid="false"  />
  <metadata
     id="metadata2990">
    <rdf:RDF>
      <cc:Work
         rdf:about="">
        <dc:format>image/svg+xml</dc:format>
        <dc:type
           rdf:resource="http://purl.org/dc/dcmitype/StillImage" />
        <dc:title />
      </cc:Work>
    </rdf:RDF>
  </metadata>
  <g
     inkscape:label="Layer 1"
     inkscape:groupmode="layer"
     id="layer1"> 
     <g>
<path style="fill:none;stroke:black;stroke-width:2px;stroke-linejoin:round;stroke-linecap:round;" d="M 
1812.1289 516.09393
1807.7562 518.0774
1805.5853 513.2833
1810.2035 512.82776
1815.5479 508.70374
1820.4233 511.12772
1816.1135 515.5984
1819.0791 518.6239
1822.2439 522.288
1823.5645 516.9315
1827.8759 518.1737
1826.1155 511.66663
1825.2485 505.28888
1817.7834 500.83344
1811.8994 502.47192
1809.0222 507.88098
1808.0013 497.46204
1801.93 494.7673
1794.843 495.4932
1804.1168 502.69064
1801.7142 509.35794
1796.523 513.8061
1801.6771 515.8275
1799.7122 519.8076
1804.0354 521.4309
1808.2949 522.47015
1811.056 524.718
1813.2633 520.71783
1818.0193 523.38824
1815.4248 525.8981
1811.7631 527.96875
1807.1569 530.30676
1806.5391 526.58966
1802.2549 526.9062
1798.2137 528.5004
1794.2689 526.29785
1796.9062 522.1682
1791.8207 518.31244
1788.7662 514.393
1792.4487 509.13684
1782.8054 504.81595
1782.9974 512.3705
1783.0701 520.25085
1790.2557 522.2743
1787.946 525.9547
1789.6531 530.8943
1786.6561 534.9585
1789.1294 539.7755
1791.6649 544.9284
1786.1724 548.12225
1793.2809 549.7688
1798.5598 551.9288
1792.1655 556.5393
1796.798 559.75745
1801.5006 558.0346
1804.7554 562.4854
1808.5331 567.6097
1810.5421 573.9348
1804.7009 571.3498
1802.688 575.3654
1808.0615 578.90643
1813.6882 580.7145
1814.4314 586.57904
1814.309 593.5694
1813.1385 599.1602
1809.2649 595.31384
1810.7437 589.87384
1808.7809 584.8208
1803.8212 583.86273
1799.7058 579.2941
1799.0266 584.6179
1794.4146 583.1278
1790.2532 585.4331
1786.3628 587.01715
1782.9027 578.53644
1785.6292 573.7788
1790.2617 578.92365
1795.0415 575.4513
1790.4095 570.5698
1797.3145 570.0698
1802.7942 567.21814
1798.8748 564.481
1792.4928 564.8884
1787.6611 561.72284
1785.5077 555.0966
1779.312 556.31775
1779.1221 548.47205
1784.4651 542.7347
1779.7367 541.08154
1774.3708 539.90857
1769.8269 534.6062
1776.03 536.11914
1778.3333 530.7233
1783.7611 529.7965
1779.8552 525.0893
1774.7885 525.86523
1769.3035 525.7249
1771.1975 521.79034
1768.429 518.0927
1765.8336 514.2668
1768.0272 510.94357
1764.5386 507.45642
1761.6482 511.87506
1755.8228 512.6264
1758.3848 508.166
1760.312 504.0942
1763.3931 501.0304
1757.7091 499.5549
1754.1559 504.19937
1752.061 508.72122
1751.9591 499.67752
1756.6337 495.00958
1761.31 494.38925
1756.4663 490.17136
1751.0643 493.76004
1748.9614 487.09033
1756.0464 485.20972
1752.8743 479.4552
1746.1011 479.73248
1742.6469 471.9948
1749.5792 472.30685
1746.8634 465.22705
1744.1382 458.0596
1740.4086 465.38504
1737.9971 461.18994
1734.6809 457.66885
1739.0956 456.11948
1739.5704 451.32617
1733.6598 452.74005
1731.2029 447.8808
1738.1646 446.30228
1733.7208 442.84454
1727.7509 441.23972
1733.4796 436.9955
1728.6505 434.65732
1721.906 435.38458
1724.3962 431.70792
1728.0664 427.62222
1723.0591 421.8394
1719.1981 425.89426
1719.0809 430.32962
1713.8298 430.90396
1705.6763 428.0934
1710.6621 427.33316
1715.4469 420.09143
1716.7175 415.05646
1710.3376 415.60913
1707.1522 410.7108
1703.9122 418.03018
1700.668 427.5706
1695.2235 428.6466
1689.0393 427.30124
1695.2307 419.57864
1697.7148 414.23822
1689.6176 414.5506
1683.8649 414.95792
1682.0355 428.2734
1670.0543 427.15842
1663.2358 426.34137
1676.0134 425.20224
1678.2476 413.0991
1671.9865 414.52466
1665.8015 411.69974
1661.5686 415.1088
1657.7198 411.77832
1650.7673 409.2824
1645.8898 410.7675
1647.9915 414.1432
1653.0479 414.04358
1656.4634 423.94968
1655.247 429.37265
1649.7374 424.84775
1645.1761 428.57315
1643.0924 423.88187
1636.4403 428.09122
1631.9694 423.53833
1637.7659 423.0244
1641.5873 413.68948
1642.0225 407.91263
1636.2957 412.98868
1632.4103 408.0424
1630.1208 413.48648
1625.3826 409.7707
1620.4178 412.11472
1617.3773 407.39032
1613.6726 412.49594
1610.8291 408.03186
1605.11 407.723
1606.5967 412.48227
1599.9813 412.75912
1599.8796 407.76727
1594.7968 410.30896
1589.7158 412.60184
1588.8033 407.3914
1582.0507 407.48914
1583.3585 412.41245
1576.9133 412.58386
1574.9177 408.17218
1569.1394 412.62952
1567.4377 407.68835
1561.5349 411.1931
1555.2681 413.57166
1552.1769 409.50528
1546.3661 413.4089
1542.3605 408.77252
1537.807 412.6088
1535.7246 424.12735
1527.0093 424.2144
1530.607 412.3765
1524.706 414.49136
1521.0872 410.92307
1516.7495 414.6944
1511.5688 410.28412
1498.774 411.61673
1498.0857 416.19012
1492.1825 424.94675
1491.4894 415.64276
1484.4519 416.59958
1479.4056 411.16934
1475.9877 417.1689
1469.9764 419.1808
1463.5663 422.982
1459.2097 428.46506
1457.5818 435.36447
1451.8833 438.3134
1454.3564 441.45813
1453.4071 446.32828
1453.4835 451.91193
1459.2906 441.75897
1464.3567 434.46304
1465.6034 428.42926
1472.0961 428.41132
1478.799 428.07474
1485.2054 427.90222
1491.9846 430.0687
1499.612 430.2656
1505.0691 428.072
1499.3625 425.05835
1504.882 414.52856
1510.5555 415.577
1508.6726 423.805
1510.7609 428.72623
1516.4209 429.01843
1515.8656 423.78088
1522.0417 427.18585
1530.8242 428.2464
1539.8785 426.8303
1544.0623 428.31613
1545.6014 423.08826
1548.5422 427.496
1553.8606 428.00333
1551.9534 422.38373
1557.3789 423.55164
1560.7861 426.80878
1566.2031 428.4549
1564.7673 422.36172
1570.6458 423.9588
1574.1597 428.7149
1581.2125 429.2617
1577.717 423.31085
1585.198 422.00934
1585.5381 425.828
1587.9426 430.27975
1591.238 426.7407
1592.5 422.447
1595.9592 427.09216
1593.9644 431.0225
1598.9026 430.80396
1603.1215 430.851
1600.6252 426.71954
1598.4481 422.59705
1603.9818 422.53696
1605.0549 427.04852
1608.5339 424.86908
1610.4861 421.9641
1614.1501 426.27084
1615.5881 422.72675
1620.4061 422.8267
1625.8971 423.1328
1628.3776 428.0893
1621.4796 427.7683
1616.1675 429.24313
1611.0222 428.97177
1607.4397 430.23303
1611.5828 503.69162
1615.0299 507.68933
1619.3623 505.25345
1624.2194 504.34705
1628.2632 505.6284
1633.0398 503.073
1638.6534 503.7049
1643.6025 508.61212
1644.0199 503.11227
1649.7734 504.3222
1649.5502 510.588
1657.1508 509.69553
1656.4061 504.51395
1663.5806 505.71832
1670.9823 505.79443
1668.5612 509.3758
1664.5507 512.41614
1660.3971 515.7691
1654.581 515.3456
1649.305 516.78156
1643.9697 515.3329
1639.4465 511.55505
1636.0868 507.85287
1631.657 508.71964
1627.9711 511.51233
1629.5038 516.1983
1624.6001 516.56854
1623.0969 510.99402
1618.1174 511.9261
1619.1924 516.79443
1623.3453 523.5189
1629.4719 523.713
1635.363 523.65314
1633.4072 518.0714
1634.0908 513.0635
1638.5261 516.6869
1645.3745 523.4565
1638.5056 526.4901
1643.3871 527.8672
1646.265 534.82697
1640.7794 532.7859
1635.863 532.364
1632.314 529.33307
1627.064 529.0548
1622.6255 530.451
1618.9299 527.89874
1617.0868 522.4796
1614.3203 525.63367
1612.2798 529.85516
1610.6838 540.5707
1611.8513 547.2365
1606.8209 551.2258
1600.4615 552.81305
1594.9813 558.70404
1601.1549 560.29596
1606.5447 558.3972
1610.9362 562.17255
1612.4319 557.36835
1615.011 553.479
1620.9656 555.1499
1618.7976 558.5154
1615.8682 561.9022
1619.7031 563.0387
1622.5024 561.24023
1625.6239 559.31177
1625.5569 554.80164
1623.4546 550.6927
1618.1917 548.6146
1618.5791 541.7051
1624.5464 545.93726
1628.0956 541.834
1631.906 547.78516
1629.7173 552.03094
1630.1387 557.19495
1626.4021 563.3128
1630.9337 562.4318
1635.365 559.6435
1637.2164 563.9118
1641.8698 562.0439
1646.6998 561.47766
1648.6924 565.10504
1652.6538 561.3237
1655.0696 566.0864
1653.262 570.8675
1658.2094 573.3952
1662.7737 575.6416
1667.3167 577.9928
1672.7738 577.51715
1669.1658 572.2569
1674.6841 570.83777
1673.658 565.25916
1667.8369 566.41846
1664.2424 570.32367
1659.7179 568.36993
1662.1249 564.0765
1669.3915 561.6404
1673.5746 558.6756
1667.9623 556.73303
1664.4614 559.8427
1661.0851 556.1585
1658.0513 560.8211
1655.432 556.2649
1655.9321 550.53107
1651.1978 554.00824
1648.0951 557.4209
1642.1154 556.0102
1635.9023 554.2372
1639.7031 549.6837
1636.0663 544.1363
1644.1329 545.36145
1645.9707 551.5069
1650.0066 548.2841
1653.2041 545.494
1658.5803 544.35095
1653.8726 535.2609
1649.3407 529.47095
1653.2122 524.8876
1657.417 529.90375
1662.0774 533.7512
1660.874 524.64655
1666.8259 525.94946
1667.2302 517.8354
1673.2703 518.86584
1671.1279 514.32336
1674.3851 511.66574
1679.0167 511.44815
1676.2922 507.2073
1681.6915 506.6913
1683.8337 512.1743
1684.4788 517.1611
1678.6074 516.76624
1675.7041 523.9632
1684.2019 524.8549
1689.5835 525.8821
1690.3038 517.92804
1690.6411 513.16205
1687.3032 508.03882
1693.8867 509.10397
1698.9835 512.4697
1696.0726 516.8966
1701.2106 518.718
1704.9153 516.3561
1704.8528 512.2257
1710.8291 513.86066
1716.571 513.4303
1722.0498 514.5243
1724.2102 519.4407
1727.4817 513.54175
1729.564 516.4153
1735.1119 515.8544
1741.4252 516.792
1737.115 521.58954
1730.4285 520.3588
1728.1711 525.4426
1732.7744 526.9654
1737.4308 528.1929
1729.9376 531.7663
1725.7949 534.49146
1729.7767 537.3282
1724.2551 542.92596
1728.7548 541.86096
1733.643 540.34045
1734.1527 533.7284
1741.1658 534.91174
1737.803 538.3
1739.3792 545.6295
1741.1262 554.70074
1734.5876 551.8779
1727.2434 549.288
1722.6505 550.9297
1719.9457 544.6405
1717.391 541.4647
1720.5018 539.9798
1724.2754 538.32043
1719.6418 535.02216
1714.4158 536.6545
1713.5403 541.9872
1709.1559 539.8819
1706.8114 534.46826
1709.1964 530.26013
1712.5973 526.07996
1714.1829 531.4946
1718.7761 529.85944
1722.9482 531.1246
1726.8853 529.2983
1722.8663 525.9273
1717.5593 525.41125
1718.8097 518.9341
1713.7828 519.04517
1708.6285 519.22687
1707.509 524.7056
1703.9022 527.8692
1699.9988 523.9458
1694.0813 524.94836
1698.1605 527.36786
1702.6732 538.84045
1697.8091 547.5621
1702.2317 550.05365
1706.8931 551.9485
1712.0101 551.1767
1717.7743 551.55225
1716.1123 556.5113
1711.1368 557.94775
1705.5078 559.28125
1701.1453 556.5574
1696.3164 554.3724
1692.7949 560.0889
1690.8419 564.7913
1686.5024 566.762
1684.0864 560.89844
1678.1593 560.5644
1679.7103 566.6909
1682.5469 571.643
1687.6885 574.0418
1693.6097 571.443
1695.261 567.0883
1698.6675 562.15405
1700.3696 567.79065
1700.552 572.9988
1705.3214 571.35767
1709.1542 576.44025
1710.1188 571.42896
1705.3157 565.3044
1710.7942 563.5008
1713.5276 568.0216
1715.1355 574.7719
1718.6194 578.656
1724.0161 580.862
1726.7344 584.56366
1729.5349 588.0861
1733.3796 587.39874
1735.6692 584.7016
1731.7544 582.69855
1730.3077 578.1086
1724.4965 575.33575
1721.5137 571.3206
1719.4152 567.13696
1718.0106 562.1373
1731.4131 565.1496
1732.1222 559.36017
1738.4331 559.1242
1741.95 562.9342
1747.7206 562.15784
1744.6171 558.68494
1748.7046 556.67535
1743.7955 550.5203
1747.1958 546.9331
1755.0638 550.2778
1756.3193 543.3362
1751.5044 544.6348
1743.9307 538.665
1746.5831 533.9045
1750.6814 536.001
1752.2213 531.51715
1756.6902 534.41364
1758.9167 530.54803
1754.4424 525.8899
1760.2312 525.2863
1758.7811 521.273
1752.278 520.6489
1747.6958 525.54004
1742.194 525.6821
1746.7408 518.84814
1748.625 513.34393
1755.1735 517.0597
1760.728 516.3095
1763.9178 519.46
1765.384 523.5942
1764.762 529.52374
1763.4209 534.3805
1761.7563 542.53516
1766.8193 544.24493
1772.3927 545.55286
1762.7056 558.6078
1768.7262 559.99854
1772.7412 563.0555
1777.513 564.5272
1775.0181 569.99286
1768.7529 569.9969
1762.0212 563.54584
1754.0977 561.35297
1753.3353 567.2051
1747.9419 570.1788
1745.6262 566.16376
1742.5535 571.18774
1739.8422 567.42206
1736.5508 563.89734
1734.8745 568.7994
1731.3464 571.737
1737.3596 573.26807
1736.9603 577.2998
1740.5454 582.01935
1744.2905 584.46155
1752.7198 591.3721
1757.0828 590.806
1761.6072 587.0978
1753.8137 585.67596
1755.7692 578.9342
1751.7131 577.30347
1751.77 572.694
1757.1858 573.02167
1762.2267 571.4569
1761.4424 576.91254
1766.9741 577.0128
1772.0801 577.01697
1769.6543 585.0166
1772.1809 590.9898
1768.704 597.4882
1770.6747 601.8411
1763.6427 600.2012
1757.323 598.9011
1751.9054 598.6298
1747.1676 597.91516
1743.0942 597.9983
1743.2849 592.92755
1739.8362 594.5539
1738.0205 589.6629
1733.4844 591.21136
1736.2911 593.6555
1729.7008 607.95337
1728.1844 612.8965
1730.6422 617.73816
1735.8097 612.84753
1743.1604 613.0367
1751.7748 605.6469
1750.6964 612.4778
1750.0854 618.46173
1746.6683 621.97174
1750.9248 625.6884
1754.7855 624.4905
1756.999 616.59607
1757.5234 609.9154
1759.4758 604.8615
1763.0104 613.0544
1766.8904 608.26245
1773.5532 610.09784
1768.896 615.6309
1763.7826 619.6199
1758.8875 622.22943
1760.475 628.00323
1756.088 630.9707
1760.5476 635.7095
1764.9172 631.457
1765.2559 625.55225
1770.8228 628.13837
1769.5303 622.6789
1773.3645 619.5749
1776.6282 616.2812
1781.5192 613.86646
1779.969 608.1794
1776.4595 603.55084
1776.4886 597.5684
1781.6248 597.2667
1783.1113 592.7537
1788.1832 591.3339
1792.7408 591.0508
1797.0513 588.99097
1801.3328 590.69415
1805.936 589.96356
1803.6418 595.0219
1805.888 599.14825
1804.5049 602.782
1809.9485 603.6818
1814.2141 604.7516
1814.0594 609.61084
1811.2742 611.94403
1807.7407 613.1622
1804.4877 614.88605
1801.4711 609.9518
1807.9436 608.5636
1804.2635 606.63354
1799.4894 599.01324
1796.8821 594.57086
1792.4675 597.58734
1787.5686 596.4843
1789.9583 603.449
1784.5823 603.93555
1786.6384 609.45154
1795.0753 602.618
1799.4236 604.9692
1795.2944 608.735
1791.9268 611.67816
1792.7346 617.59766
1787.4996 615.66113
1783.0887 619.814
1788.6676 622.0063
1797.19 617.14154
1799.6223 613.776
1801.5994 620.0188
1806.3566 619.9026
1806.4397 625.12366
1811.3461 626.9638
1811.0952 621.4925
1810.3408 617.04126
1814.6072 616.2283
1814.8973 623.0901
1814.7224 631.0125
1810.0182 632.19116
1804.6024 630.67975
1800.7687 625.6561
1796.0056 622.8558
1793.0541 626.4424
1789.0227 628.794
1784.1802 627.0913
1779.9402 623.90265
1775.4302 624.68146
1776.3027 630.45154
1780.9923 632.0289
1786.732 633.57135
1791.2898 637.2003
1793.9305 632.497
1799.0779 631.521
1797.0006 638.48755
1794.7246 644.19666
1795.7784 649.9993
1790.018 642.7636
1785.9645 639.47876
1781.4153 637.54346
1777.4297 640.35175
1774.3934 636.1832
1770.4062 633.1451
1766.6924 636.9852
1763.1578 641.0421
1770.1383 641.1463
1768.5499 646.3962
1771.6661 650.06696
1775.2505 652.55383
1774.6707 644.95667
1779.504 646.5013
1784.3401 644.39124
1789.8066 648.92444
1785.0188 650.125
1780.7864 651.9745
1779.1538 656.03357
1779.3121 660.0133
1773.6548 659.01025
1768.8499 655.6276
1765.4014 651.89905
1760.4811 653.3228
1755.7825 650.96423
1753.3677 646.2936
1762.8845 646.5731
1757.9386 643.21204
1755.1565 637.1078
1751.8345 641.9752
1748.5515 649.15485
1743.6613 652.3094
1741.0133 647.2132
1745.3966 643.5441
1748.6853 638.3496
1750.6685 633.16077
1747.1372 629.8603
1741.756 630.70593
1743.844 636.2328
1739.6617 639.7287
1736.4178 632.3259
1730.8418 631.34344
1725.0474 631.602
1724.3455 636.7852
1730.3165 637.4117
1734.6849 639.8513
1736.1206 646.3833
1730.6481 644.42365
1725.6987 641.91016
1725.8065 647.3476
1719.9592 648.6376
1721.041 653.80786
1722.0557 658.4707
1720.6761 662.67
1717.7024 666.94507
1722.4819 667.6823
1725.6991 665.0709
1726.6104 661.0214
1727.4602 656.07135
1725.948 651.87085
1731.9105 650.44836
1738.3152 653.9347
1733.3445 655.6107
1731.6069 659.777
1730.6443 664.77856
1734.278 668.7685
1728.4528 668.9805
1727.8807 673.3297
1733.5714 673.4748
1730.8525 677.83276
1725.5325 677.7841
1724.2986 683.1876
1728.5653 683.4663
1732.6216 684.6974
1735.7568 687.67346
1738.5071 682.8888
1734.3909 680.53534
1738.0505 677.5758
1739.2921 672.5112
1739.6262 666.86786
1735.0963 663.4576
1738.6759 660.5137
1743.8292 659.46265
1748.6729 656.48706
1753.8256 656.03357
1750.7231 663.6002
1746.1216 665.17847
1744.7988 670.30945
1743.394 676.0655
1744.1105 681.4131
1750.6997 680.8947
1748.8662 675.8369
1750.6897 670.8903
1756.1914 667.91846
1758.6865 664.4041
1762.8407 666.9177
1766.846 664.3678
1770.8242 666.1007
1774.4443 668.3343
1778.6084 664.5045
1785.028 662.39404
1785.3833 668.14087
1779.5201 670.2557
1781.9446 673.578
1785.8131 674.9938
1787.9872 678.94244
1791.89 678.36
1795.5977 676.08405
1799.966 678.76355
1804.5557 676.2572
1805.1697 670.89075
1798.3376 671.1684
1790.6445 672.3995
1792.7021 666.8668
1790.7354 660.82904
1785.8729 656.16156
1792.3499 654.8872
1799.757 656.3712
1796.6086 661.3092
1801.295 665.09174
1806.3251 660.73206
1806.9092 654.0969
1801.871 650.4826
1800.6234 644.68146
1802.567 639.0021
1806.7742 637.0034
1813.0361 637.5923
1812.7615 643.6673
1807.1001 645.8545
1813.0981 650.42017
1813.9286 656.79193
1813.6895 662.5623
1809.0472 667.0969
1815.218 668.95276
1812.0739 674.04407
1815.546 678.27026
1809.4117 679.6942
1814.1302 683.4788
1814.9276 687.99146
1813.7712 691.83203
1812.6116 695.79596
1815.6937 700.3368
1813.5988 705.32916
1808.6757 706.64014
1815.0923 710.20905
1810.7004 712.9613
1804.4841 710.0632
1805.851 714.8206
1813.5972 717.8603
1812.9672 723.45416
1806.6821 719.95514
1807.0665 725.0185
1802.5565 726.2635
1797.8281 727.5718
1798.5092 720.88995
1793.8162 723.6563
1790.7188 726.93774
1787.133 722.7171
1781.3118 723.88837
1782.2217 718.26746
1777.2479 715.7638
1780.7415 711.30963
1775.7502 709.4391
1778.1536 699.32806
1783.1942 700.85834
1781.4131 705.7184
1785.198 712.54224
1787.311 717.18005
1792.3263 718.07086
1796.6521 714.0148
1801.1589 716.38525
1799.8835 708.1516
1794.3811 709.4395
1790.649 712.23883
1787.6223 707.8035
1788.8079 703.6669
1788.7804 698.853
1790.2423 693.8863
1784.6921 695.6465
1780.7628 692.5182
1775.1394 694.2769
1775.5598 689.7187
1771.8943 687.07684
1774.7358 682.44086
1778.5371 685.76996
1782.5502 687.049
1785.912 690.7313
1788.258 687.6402
1792.1953 687.72754
1796.7953 687.8918
1794.9059 691.8158
1795.5062 696.4572
1793.7133 701.0897
1795.1721 705.3253
1799.4222 700.70685
1803.9712 703.6668
1809.4819 700.36523
1805.0331 697.5913
1800.8833 694.2521
1802.0015 689.1083
1807.1777 691.7707
1809.13 686.35876
1804.6669 683.2213
1800.0176 684.29144
1795.5016 682.5213
1790.8339 683.1823
1785.9778 683.63495
1783.4064 679.6218
1779.948 681.30975
1777.648 676.92816
1771.055 672.96356
1770.7786 678.2791
1768.4043 683.76184
1767.7286 690.72955
1765.293 696.54584
1771.2969 698.3013
1773.292 704.2271
1765.8325 703.7236
1763.8352 710.5962
1769.825 710.7591
1771.7008 716.99915
1769.9504 724.1108
1775.2645 721.3735
1776.8723 726.5627
1773.5768 729.6964
1770.7866 734.2454
1773.8047 741.974
1775.5044 735.3712
1780.8372 731.4351
1786.0902 728.8426
1787.7996 734.2588
1783.7701 737.8009
1778.6351 739.1782
1781.0613 744.09406
1787.0564 742.8753
1787.343 748.78076
1782.3146 749.46735
1785.0464 755.9757
1789.9427 753.2566
1795.7339 754.5265
1799.8662 755.5197
1804.3722 756.33154
1806.6017 750.6837
1801.9966 750.49854
1803.9534 744.67365
1806.9321 736.8603
1802.3514 739.1353
1798.1646 742.327
1798.166 747.88654
1793.2596 749.2987
1792.7432 744.1489
1791.9226 738.5324
1793.5778 731.7059
1797.1411 736.1796
1801.4487 732.7206
1806.9774 731.42645
1811.0725 728.78845
1815.4048 729.2587
1812.9064 734.20404
1813.2893 739.01227
1809.2465 741.7107
1809.053 746.52893
1813.9248 745.75934
1812.236 751.3893
1809.6003 755.43726
1808.6024 760.1149
1803.7345 761.9591
1798.5879 761.48346
1793.4498 762.493
1791.7698 757.826
1788.1085 761.6611
1783.3945 762.2372
1778.7355 761.3273
1773.3823 762.3571
1772.0078 755.80035
1776.3208 755.813
1780.2567 754.10004
1776.6024 748.05396
1771.9136 749.8489
1766.8907 753.449
1768.638 759.0792
1767.1836 763.207
1763.3538 760.11383
1761.2695 756.1174
1754.1685 753.1802
1758.4094 752.09534
1762.6185 749.6984
1766.525 747.1322
1769.3958 743.7356
1767.4506 739.2781
1766.2264 734.99036
1761.2328 736.77277
1762.5797 742.54376
1757.9364 746.2326
1757.2603 740.1166
1757.4227 733.3074
1762.5516 731.5531
1767.362 729.48883
1764.456 724.72125
1766.6189 717.4958
1762.8094 719.4628
1758.9506 718.04974
1759.1157 712.7401
1754.9188 716.44116
1749.9103 716.665
1752.3495 711.4993
1746.7452 711.587
1747.6489 706.6222
1752.2517 702.1881
1755.2089 707.7402
1759.2673 704.40814
1758.4807 698.1905
1760.363 691.6639
1762.5073 685.2788
1764.1278 678.86835
1756.73 678.84314
1756.3854 685.16583
1754.2467 690.8264
1751.9292 695.3791
1747.5867 698.99084
1743.1494 704.1921
1742.8219 699.4328
1739.5756 696.3723
1740.669 691.5421
1745.9382 693.033
1750.0267 686.97217
1745.2661 687.04315
1740.6512 686.7875
1735.3357 692.23376
1733.6375 696.65894
1728.0048 696.5138
1730.4312 689.6477
1726.2561 691.5538
1723.0502 688.07025
1721.2563 694.5881
1722.7468 700.4132
1717.8682 704.1322
1715.0494 699.5015
1708.2808 701.70026
1711.2289 705.6491
1715.1082 709.78534
1716.0845 715.5575
1721.66 716.3234
1721.212 709.4306
1726.281 705.92926
1730.5883 701.97736
1736.697 701.957
1739.0295 707.0145
1741.1239 711.7484
1738.5823 717.60144
1743.7974 715.6925
1745.4209 719.9157
1749.0618 722.5472
1753.6973 721.5907
1758.7849 722.875
1760.2141 727.71326
1755.9028 726.3964
1753.9673 729.4949
1750.6 726.8145
1745.3088 726.7921
1741.1355 722.7146
1738.9377 727.25555
1732.3345 726.755
1734.7346 721.91125
1732.4742 716.12537
1736.0913 711.95233
1732.3184 708.28455
1726.9941 712.6163
1727.5559 718.9228
1727.2014 723.53485
1725.1854 727.6582
1720.7026 722.0128
1718.8567 726.94165
1713.308 727.28467
1707.9924 725.77423
1714.1486 721.63
1709.9526 718.0582
1710.0569 712.7337
1706.0643 709.52136
1702.8058 706.1191
1703.1398 700.97906
1698.4178 703.0864
1693.729 704.3893
1691.097 708.8699
1698.3298 710.88556
1698.3665 717.9718
1703.6713 715.10925
1705.4321 720.85675
1701.3193 724.16626
1695.5239 723.86884
1692.306 719.5255
1689.4353 723.54395
1684.1125 723.545
1678.7278 724.17346
1673.9492 722.6294
1668.4443 722.27203
1660.7903 723.74316
1658.5148 717.7924
1655.9663 712.6499
1661.5089 711.72205
1665.2361 717.0094
1666.3606 709.57104
1669.6451 704.75995
1676.8247 706.00494
1680.8927 711.9729
1671.0961 712.54193
1675.4425 715.5326
1680.568 718.66486
1686.3088 716.7493
1691.991 714.1183
1684.8414 708.54156
1686.3098 703.43427
1684.0798 695.16376
1677.8667 697.444
1677.8184 692.0441
1679.2957 687.5664
1683.677 689.0199
1688.0018 691.04846
1692.0298 694.29956
1695.9409 687.822
1698.172 693.9533
1702.4081 690.78375
1702.7494 685.6283
1699.395 680.99493
1693.718 681.9455
1689.7098 686.5763
1688.2836 681.08453
1683.4094 683.585
1684.9037 677.5258
1690.8062 676.5191
1686.9937 672.3628
1690.3064 667.7939
1685.279 665.9485
1680.7374 667.8267
1680.4912 672.7615
1680.2085 678.0701
1675.0885 677.94196
1677.1909 683.0555
1673.6196 687.7022
1668.259 687.2138
1669.7711 681.2445
1662.9994 683.65173
1658.1321 680.4055
1663.709 677.3533
1669.2026 675.64374
1673.2567 672.39307
1674.6975 667.8645
1678.105 663.65497
1682.5807 659.6756
1687.5054 659.9334
1692.2661 662.0074
1693.1814 656.1038
1692.7955 650.91766
1687.6592 652.67334
1687.7628 645.32886
1692.375 645.7358
1695.3501 642.6045
1702.649 644.52875
1698.0715 648.1261
1699.7258 653.60016
1698.1166 659.1042
1698.5914 663.85626
1695.7139 667.1841
1700.4279 671.11456
1694.2319 671.9835
1696.572 676.51
1703.5015 675.7348
1705.0217 680.3056
1710.1589 678.72253
1710.9677 673.779
1715.535 678.635
1713.1389 684.3967
1708.2258 684.3362
1708.9213 690.0367
1716.7965 688.67346
1718.676 684.15894
1720.8269 679.97577
1719.9098 675.5918
1722.8103 671.9915
1716.4823 672.1036
1712.3213 667.8358
1706.6433 670.40076
1703.2471 665.1685
1708.4958 663.6652
1704.2267 657.95514
1710.2562 657.70886
1714.8601 661.98395
1716.258 656.60315
1714.6741 651.26965
1709.0853 651.811
1704.2198 650.02466
1708.5884 645.4115
1707.1033 640.6913
1704.0642 638.04205
1709.889 636.2545
1712.7823 640.14105
1714.268 645.5768
1720.563 643.3608
1717.9119 639.7891
1717.873 635.3242
1719.995 631.3923
1715.4744 629.063
1712.862 632.7849
1708.2234 630.4948
1705.052 633.41455
1701.8304 629.99316
1698.0427 632.4992
1700.231 636.10077
1699.5408 640.80066
1694.7339 637.2332
1692.4653 632.3248
1689.6809 639.01917
1684.293 638.8803
1682.5599 643.06354
1683.0898 647.90234
1680.2532 650.766
1683.2764 654.4784
1677.7416 654.77057
1677.0448 659.2889
1671.9451 655.8596
1671.6965 661.44775
1665.1506 660.239
1667.9895 665.99457
1665.4414 670.49164
1659.7644 671.5923
1657.6519 675.4211
1653.0515 676.8373
1652.6738 671.56586
1647.626 673.57275
1642.9729 672.1325
1636.951 673.30865
1630.7096 672.31085
1623.3516 672.6071
1619.3706 677.6969
1624.5048 680.54474
1628.9294 677.62006
1634.6838 680.5112
1641.1094 678.4614
1641.4026 685.3045
1645.1936 681.85815
1648.397 678.1062
1649.2849 682.64764
1653.2987 682.17236
1656.3173 685.7953
1660.3081 689.2231
1665.0793 691.5346
1671.2941 694.2158
1665.2775 697.4276
1659.2637 695.8143
1653.7773 697.36426
1662.3146 704.9673
1657.5034 707.68036
1654.5658 704.4135
1651.7291 708.0588
1647.5483 704.29224
1646.6877 708.5357
1642.2257 707.1144
1638.076 705.2063
1632.4517 705.8573
1626.0641 706.70905
1621.071 709.6663
1616.9648 714.1722
1623.0142 715.60846
1627.9192 714.71606
1631.7322 711.2103
1631.3722 719.95746
1634.8286 715.7625
1637.2926 711.1145
1641.7036 713.1873
1646.478 713.7745
1651.0503 712.9233
1652.2512 718.0877
1652.798 723.7557
1644.9358 724.37354
1646.3992 719.3918
1641.065 718.7636
1636.8074 719.9761
1636.917 724.44055
1628.8372 723.8919
1624.1243 721.70087
1620.252 724.6474
1618.797 719.9167
1613.8364 719.37317
1615.1293 724.7969
1610.9536 723.0499
1606.9443 724.2247
1607.7058 718.11346
1603.4219 720.0722
1601.6481 723.8735
1595.9956 724.324
1597.8855 717.98065
1592.751 720.0603
1588.0851 724.72906
1587.0818 720.24084
1583.3715 717.02545
1580.367 712.7587
1577.38 717.84216
1581.3752 723.1113
1575.04 724.0634
1571.7377 719.3603
1566.9081 722.0159
1565.671 725.40906
1564.548 717.1095
1558.7069 715.28766
1558.6044 722.7447
1552.1696 722.31396
1545.7816 723.85565
1540.1891 722.4442
1535.7935 720.49994
1534.2573 715.9327
1529.1453 713.13727
1524.6558 717.4831
1528.6641 720.5109
1531.9547 724.3175
1523.0176 724.27386
1519.4402 720.08276
1514.7822 723.951
1515.9019 717.17645
1522.4601 713.1287
1518.113 711.69904
1514.5433 708.0737
1513.7169 712.69446
1509.348 710.87976
1510.123 706.3505
1512.507 703.494
1506.5315 703.33185
1505.6819 707.28766
1503.5432 710.642
1498.353 708.8165
1500.9521 703.8941
1495.0283 703.91266
1488.7993 702.7697
1484.1003 704.3529
1478.9901 704.1555
1475.3994 700.5988
1482.1903 693.3256
1488.9993 693.9259
1488.6708 689.58264
1493.1495 686.2241
1489.4501 685.4884
1487.7118 680.6901
1493.1882 680.05646
1497.246 679.1192
1497.9801 685.43823
1501.9027 682.7024
1501.1246 677.57587
1505.8536 672.5257
1505.4965 676.54
1506.478 680.5619
1511.8616 685.25494
1507.396 685.6264
1504.0991 688.4498
1500.5347 690.72626
1495.3325 690.0857
1494.6256 694.89044
1500.3246 695.51044
1506.2358 695.66003
1508.7504 691.3113
1512.804 689.5817
1512.5259 696.18933
1516.232 692.6697
1519.0702 689.71313
1516.5648 685.9853
1519.7048 682.77704
1522.0662 679.03906
1517.8469 675.82904
1515.9487 679.8441
1511.8313 680.5276
1510.2952 677.06573
1511.8292 673.9335
1509.9604 669.65967
1505.4775 667.9516
1510.3325 664.5457
1508.554 659.92126
1504.8049 663.501
1500.3094 665.39294
1500.4299 669.627
1500.526 673.45795
1495.1335 673.6794
1489.908 676.2732
1487.2444 672.3408
1483.3181 675.6334
1478.6403 678.3199
1481.886 681.6722
1484.894 685.07074
1483.7645 689.4644
1479.3438 687.59216
1474.2008 689.3277
1474.9603 684.8357
1473.6821 681.3224
1473.771 676.992
1476.5978 673.13837
1480.5914 669.5165
1480.7473 662.73004
1480.7988 656.2979
1474.9242 655.5895
1477.9751 652.07965
1479.5702 648.33356
1477.8058 643.5602
1482.6113 644.1344
1486.6616 646.44507
1484.375 651.6451
1485.5137 657.8181
1485.788 662.71783
1485.8718 667.53705
1491.3899 669.4568
1495.723 667.6409
1496.1843 662.29156
1491.0775 663.7942
1491.6953 658.7707
1489.487 654.83093
1489.8953 650.837
1492.1366 647.53235
1495.045 643.8024
1490.5615 641.8672
1486.5574 639.6739
1482.6013 638.1363
1478.5211 638.04395
1474.3638 640.07294
1470.944 642.3589
1467.0736 641.13043
1465.9526 636.85815
1462.6345 634.92224
1458.3806 632.97394
1454.584 630.50964
1449.8597 631.0502
1444.8353 630.97156
1440.0762 630.20526
1437.4697 634.0156
1433.8737 636.10944
1437.2794 640.47125
1441.9082 649.75366
1436.2146 647.68445
1430.2847 647.839
1433.0219 643.25134
1430.2052 638.234
1429.6451 633.5698
1432.5156 630.1162
1435.5447 626.8048
1430.9308 624.2735
1430.0345 619.239
1432.3756 613.77795
1427.3696 614.7849
1423.5732 611.8472
1423.6826 606.6192
1428.2869 603.4763
1429.3738 609.2128
1434.661 609.2868
1438.9515 608.9079
1442.4796 612.08453
1438.3027 614.6403
1435.0023 616.89844
1436.2466 620.75226
1439.7351 623.641
1444.966 622.99023
1443.4229 619.6564
1442.1085 616.22473
1446.593 616.2311
1447.4314 611.5599
1450.43 615.0587
1455.6423 616.0146
1453.0569 612.6249
1456.0798 608.58875
1458.0214 611.34503
1459.0176 614.54016
1463.0278 614.89124
1462.1316 610.2858
1465.873 612.1069
1469.803 611.5292
1473.5939 611.7989
1474.6945 616.5
1472.5181 622.3808
1467.6829 623.9123
1469.8467 616.9321
1466.3745 620.1272
1461.2427 618.2992
1457.082 620.1318
1461.8253 622.55096
1462.5371 630.46405
1468.0608 631.62067
1470.5514 636.3875
1474.9415 634.65137
1473.895 630.55194
1479.9098 631.9014
1485.1852 632.78094
1490.8478 631.77344
1491.1656 636.36505
1497.0973 639.2145
1497.1588 632.7968
1502.0093 636.1059
1505.9791 633.4645
1511.2775 636.6713
1510.8201 631.9515
1516.2449 631.68164
1511.76 623.73206
1517.2145 618.4781
1518.0706 623.9123
1523.1842 623.77844
1526.977 624.5751
1529.8994 622.2378
1531.4178 625.80914
1534.6665 631.7876
1535.3186 636.0268
1541.2628 633.6411
1547.125 631.72565
1554.2273 632.8287
1548.3771 636.3624
1549.9061 642.1299
1544.3391 640.5472
1539.4592 640.5232
1534.8098 642.2848
1531.2451 639.9786
1527.492 636.73663
1528.6228 632.3499
1522.7432 633.0152
1517.9761 635.47406
1521.0586 639.7342
1526.0469 641.9024
1523.6268 652.5933
1518.9028 656.2992
1517.6174 651.0981
1520.1737 646.0255
1512.7659 647.9792
1514.5149 643.7734
1514.8197 639.637
1507.3662 641.3275
1501.8207 644.10364
1507.0325 648.0202
1501.7195 651.99664
1497.864 648.25824
1495.1981 653.0759
1497.5696 657.15186
1500.867 660.64575
1503.7156 657.4577
1507.2773 654.12585
1512.3127 653.52484
1513.6243 658.43756
1515.8872 662.3712
1514.6257 667.32477
1515.198 671.6853
1519.675 670.9899
1523.8351 668.29944
1519.5392 665.55664
1521.9598 660.7812
1528.2244 659.0652
1532.8127 654.1137
1535.2822 659.0253
1540.0515 655.06946
1541.9952 650.91034
1551.2285 655.8675
1546.5394 658.13605
1541.601 659.8143
1544.4467 671.3576
1550.6699 671.91223
1551.2472 676.7236
1545.7959 675.3453
1544.105 680.2052
1540.4001 676.37646
1537.6017 671.7752
1534.619 676.30365
1530.5288 674.7173
1529.7349 671.02484
1524.1943 674.18085
1526.7639 678.74695
1529.7576 681.39526
1534.0531 680.9772
1538.3334 681.05963
1540.8607 685.0751
1536.6058 687.4903
1532.7926 685.6604
1528.2465 686.6726
1524.2101 683.9482
1522.8271 688.2066
1527.0303 691.4774
1527.8572 697.2405
1523.0055 693.5161
1519.7931 696.9265
1517.1602 703.8958
1520.3657 707.1234
1523.1534 702.8571
1525.6782 707.89325
1530.5883 704.4482
1532.5665 707.9845
1536.513 710.89557
1541.5593 714.0479
1547.0208 716.9638
1552.8126 713.43555
1546.9229 707.8744
1539.911 705.85547
1534.6073 697.4744
1531.4523 691.6677
1536.0476 692.39044
1541.0613 696.4368
1541.4082 690.8546
1547.6049 691.8341
1546.9895 697.5664
1554.0183 697.242
1555.9417 692.35724
1560.2865 689.8242
1564.1226 693.46124
1568.6263 688.131
1574.0995 689.1579
1575.0623 694.6874
1575.236 699.624
1568.5793 696.9616
1561.0227 701.2273
1554.7552 706.6354
1563.1606 708.99884
1570.4235 707.04803
1569.3131 713.4538
1574.913 712.21344
1577.6094 706.85864
1582.9036 707.3728
1586.0518 711.4584
1589.0728 715.4162
1594.0276 713.3823
1591.2102 708.20874
1588.0496 705.003
1583.4844 698.0111
1580.2319 691.2198
1586.5377 692.8589
1592.5103 696.4781
1599.1167 698.73706
1599.5254 693.51385
1602.2437 688.53204
1605.7732 692.3236
1610.5875 694.5279
1606.156 698.4687
1597.2073 707.9635
1601.4736 714.19006
1606.2634 712.0008
1603.1808 707.0292
1609.8685 705.9502
1611.8218 710.2215
1611.4678 715.03296
1616.8452 706.56415
1614.4651 698.33466
1621.9147 698.1714
1628.2931 697.315
1634.8911 696.1386
1641.2856 696.6648
1646.8977 696.95276
1650.2415 693.29846
1654.6567 690.95123
1649.6499 686.984
1646.1594 690.48364
1640.4496 691.34186
1635.2722 687.6209
1630.0804 691.24225
1628.0742 685.43256
1623.273 690.44696
1619.2131 683.24054
1616.575 687.56055
1617.4652 693.17505
1611.2288 688.7398
1606.6876 684.98737
1612.1676 680.08704
1615.7638 672.8267
1609.0154 673.347
1602.1589 672.59814
1604.633 679.04364
1599.05 683.5246
1596.0726 688.76544
1591.0261 688.9311
1592.2213 681.64856
1598.2878 678.2318
1594.6777 675.15936
1595.3269 671.03784
1588.8523 671.92303
1588.853 676.9758
1584.9673 680.6336
1585.2336 686.73676
1578.7961 684.031
1579.7985 677.75684
1583.1499 672.9186
1576.6292 672.0649
1573.6123 677.04565
1572.9036 682.9328
1568.0095 680.2878
1565.3127 675.7666
1569.5917 672.25964
1562.7559 671.1488
1560.326 675.1659
1561.776 680.48944
1563.8713 685.4897
1557.6608 684.9769
1551.62 687.54126
1545.7672 685.81256
1548.9016 681.0503
1553.4661 682.3213
1556.5881 678.6472
1555.843 673.87695
1556.3582 670.1122
1558.0524 656.443
1565.646 656.2769
1575.3815 655.4033
1578.8679 659.0572
1585.983 659.7677
1584.8562 653.9232
1590.6958 653.7287
1592.1462 659.25006
1598.4308 658.657
1596.0496 655.42395
1597.847 651.45264
1602.8345 652.4465
1604.6279 660.1109
1609.4716 658.67194
1608.6376 653.1693
1615.3005 656.23395
1623.5488 653.39087
1625.7743 659.19324
1630.0515 652.57446
1632.5088 657.22296
1638.8221 658.29785
1642.5693 653.3866
1650.6113 653.2733
1649.0658 659.05396
1656.8005 658.1301
1659.1533 653.7294
1665.8331 653.1717
1670.7014 650.43964
1675.6606 649.48956
1665.5674 646.11365
1662.2212 640.1671
1656.6888 642.0934
1654.2974 638.22015
1657.525 635.8859
1657.0828 631.4878
1662.1135 633.62714
1667.1202 632.8014
1668.2971 639.13324
1671.5232 644.5482
1677.6754 644.46497
1675.2255 639.70953
1679.5603 636.8389
1672.4061 634.251
1676.8755 632.08215
1682.6003 632.4027
1687.282 633.4946
1680.801 624.5684
1680.3574 620.3684
1681.9227 615.7048
1682.4391 609.9266
1679.3895 604.2222
1683.97 602.3066
1686.7047 605.9259
1691.041 600.6516
1691.4888 606.02216
1696.508 605.7142
1699.4171 611.4908
1697.6686 616.48975
1693.1942 615.0139
1690.1101 611.0206
1687.2825 616.18726
1687.1101 623.46954
1692.9995 623.2113
1699.1024 622.8589
1705.0878 622.53204
1708.8724 617.5024
1710.9854 622.7296
1716.259 621.4099
1720.7781 621.887
1726.4626 622.17926
1724.9539 617.3321
1714.228 615.72546
1709.235 612.9882
1703.3489 616.2871
1705.648 609.7489
1702.7559 605.0361
1699.185 599.4351
1702.4966 594.3438
1706.8352 598.70667
1710.0884 602.9978
1712.1029 607.13763
1715.4385 610.6672
1720.2207 612.9485
1724.2509 607.9809
1717.9901 603.38605
1724.5466 599.81604
1717.0645 591.729
1708.4768 586.1185
1699.1469 582.74786
1696.3513 590.91956
1694.6783 596.25574
1689.7081 593.79095
1684.953 595.76105
1683.0933 587.69653
1689.4321 588.27875
1690.169 580.5296
1682.9268 578.58044
1677.7379 576.0153
1676.2559 585.47485
1678.0848 591.0732
1679.6918 596.6861
1674.8564 601.059
1674.2723 595.07416
1670.7754 591.2073
1670.4674 584.8892
1666.6008 587.7681
1664.0651 583.35504
1659.5641 584.9819
1657.3606 581.3716
1653.8545 576.1339
1646.2986 576.19354
1644.9922 583.0621
1638.054 576.34814
1633.5698 581.53815
1628.5754 576.1935
1624.6104 582.03796
1623.8513 587.0205
1627.9512 592.28876
1628.06 586.8691
1631.2589 585.1633
1635.8491 587.431
1639.8292 583.93207
1640.498 591.2996
1638.5232 596.97174
1634.6581 592.88196
1631.1145 596.39545
1633.6461 600.81085
1638.3859 604.1774
1643.5714 607.4958
1643.483 601.56555
1644.2217 595.41626
1648.7351 596.25586
1652.201 592.283
1645.4579 589.2232
1649.9493 587.39685
1650.489 582.57513
1654.5664 585.70636
1657.0464 589.44885
1662.2603 588.33936
1660.6741 592.5971
1665.4792 593.8887
1669.5314 597.10535
1664.8721 600.43445
1660.8568 596.92285
1656.7012 595.0316
1653.1241 597.97534
1648.6924 604.0263
1653.4983 605.1036
1657.6215 602.38495
1661.1521 605.35657
1666.354 607.05383
1670.2871 604.5046
1675.2031 607.4352
1676.8777 613.6182
1674.8022 618.77
1673.1879 624.3114
1671.3744 612.84674
1666.1616 613.5537
1661.1882 611.2001
1655.3164 610.4236
1648.6062 611.86127
1651.3655 616.7166
1655.5592 617.3313
1659.2732 615.8415
1663.4233 618.13947
1669.2007 618.8656
1665.9125 624.0218
1659.895 623.43256
1654.4333 623.6042
1648.4124 623.6194
1645.9998 617.891
1641.4443 614.09393
1641.0549 622.04706
1643.3535 629.7978
1644.4065 634.6296
1651.3556 631.9749
1649.7731 635.9774
1650.3894 641.72833
1645.6018 640.33453
1640.7024 642.28766
1639.0938 637.7768
1633.5898 641.57654
1632.7288 635.7083
1627.609 638.29114
1625.2086 642.1813
1619.3796 640.0125
1614.2535 633.3623
1621.6064 633.4626
1628.209 632.31494
1636.9961 632.48267
1634.3809 623.8153
1626.4634 623.7053
1617.2539 623.7018
1620.2255 619.19965
1626.7056 617.36273
1630.0317 613.3736
1634.8192 617.17413
1636.372 610.5221
1632.8987 605.8377
1628.3816 607.979
1627.4136 602.9147
1625.0736 597.4738
1621.1023 593.5354
1616.758 597.3728
1611.37 595.7856
1608.9998 590.09106
1614.2786 589.985
1619.5143 587.2457
1614.7563 584.9386
1617.8264 581.5201
1619.9169 575.147
1611.9701 574.99615
1611.1245 581.2278
1608.082 584.4083
1603.7019 587.7994
1598.8296 586.0842
1595.7522 589.1165
1590.7607 589.0044
1586.5486 587.5635
1581.734 587.36926
1585.0553 582.5556
1588.7471 581.0676
1591.8752 584.89966
1592.8949 579.9645
1596.0083 582.54675
1599.8196 580.5168
1603.5983 582.4652
1604.4398 575.44965
1596.0781 574.7675
1587.3297 574.9819
1588.6212 560.33234
1582.9905 560.2997
1577.8892 561.85205
1579.4221 576.0042
1569.3497 575.23914
1558.3004 576.345
1555.9581 582.7082
1547.3473 576.1779
1546.7113 583.55585
1551.0739 582.76917
1552.7819 588.643
1549.2108 592.868
1556.6469 595.3063
1558.8137 586.6034
1562.5879 591.19415
1563.6807 597.01746
1569.1202 599.86957
1569.847 592.6525
1564.067 583.4918
1569.4475 585.16504
1574.0806 581.4417
1579.6208 582.936
1575.3553 587.4725
1577.19 592.9018
1574.9844 597.19037
1581.6515 594.09064
1585.7059 593.1226
1589.4719 594.23175
1592.187 597.8737
1594.4712 593.7372
1598.6641 597.482
1600.2812 592.6977
1605.2192 594.17145
1605.9316 599.6317
1600.702 603.0074
1597.3695 606.7503
1592.7527 602.64716
1588.821 606.3104
1592.4117 610.1023
1589.221 614.61584
1596.7225 613.33704
1595.8422 618.6498
1594.8837 624.36615
1601.5172 616.8603
1607.5596 616.41315
1603.6787 611.1472
1606.76 606.5082
1611.7678 603.51495
1615.9408 607.2461
1620.8882 603.18427
1623.4054 609.53827
1619.7722 613.7034
1613.1694 614.70514
1610.1222 623.2698
1602.612 623.5107
1607.2716 634.6958
1612.3073 640.8037
1603.659 640.9648
1600.4861 633.27405
1593.673 633.8917
1596.797 640.1389
1590.606 641.0931
1583.7249 641.4217
1578.7341 638.5696
1575.5438 642.3893
1568.2571 642.5829
1564.8878 639.1707
1559.1139 642.8761
1553.9022 639.2188
1558.6027 638.94904
1560.024 635.8174
1561.1908 632.18884
1566.3937 632.48773
1570.633 633.71063
1571.8204 638.6075
1575.8772 632.9298
1581.7156 633.13885
1586.7494 636.3976
1588.2144 631.61127
1585.1453 624.466
1589.7747 620.63824
1582.3826 619.88226
1583.2717 613.618
1583.8016 605.68604
1585.6633 599.2282
1579.4456 601.4229
1578.1934 608.84174
1573.2458 604.69135
1568.3844 608.9445
1571.9113 613.81445
1576.775 616.4837
1576.2432 623.8385
1569.4728 621.8978
1562.3219 624.1312
1559.179 619.75024
1558.9357 613.6991
1565.1327 615.26984
1564.1497 605.68256
1558.9177 603.0647
1555.3787 609.6412
1548.5073 614.3923
1552.7539 617.07806
1552.4182 623.7281
1544.7098 623.0644
1543.7491 614.07214
1537.77 613.97906
1540.4159 618.69293
1537.9438 624.23413
1533.3728 623.04987
1534.7731 618.9033
1531.512 615.1592
1533.4186 609.4841
1540.3807 608.1949
1546.3737 606.1493
1552.4633 604.6336
1551.0054 598.39325
1544.5693 599.84216
1537.5703 603.36383
1529.5316 604.6933
1526.1163 610.359
1525.457 614.99426
1527.6697 619.20135
1522.1207 618.1754
1518.9579 612.23566
1512.2904 609.99493
1513.2268 616.0183
1508.5967 618.7271
1507.6404 613.8814
1505.3799 607.86835
1500.8398 604.7861
1502.6592 612.05695
1498.8545 613.52747
1495.3975 611.34717
1488.9675 612.10693
1489.6467 616.84326
1494.8768 616.54486
1502.156 617.3831
1505.4744 622.60974
1502.1722 625.3787
1497.8369 622.73486
1492.2822 623.7661
1486.5981 623.48627
1481.7438 622.157
1477.3577 622.4575
1484.4991 616.7836
1479.5034 615.8811
1477.9662 611.1326
1477.1675 605.5699
1472.2955 605.832
1467.1232 603.80554
1460.4867 606.6403
1460.6499 601.29315
1466.0609 595.36584
1475.8973 600.03705
1483.0588 595.0791
1488.8507 595.05176
1492.8076 600.1738
1486.6776 600.4209
1481.5737 601.66766
1482.4395 606.8951
1483.5842 611.96796
1488.082 605.69965
1492.6184 607.90814
1495.6582 604.43506
1499.2711 597.185
1495.1516 593.8982
1491.6382 589.911
1488.8092 582.3865
1480.2778 585.27594
1472.5347 589.46936
1465.3539 583.22656
1462.1554 579.49713
1459.4861 586.64703
1453.357 587.2356
1456.4572 581.5913
1448.9135 577.2485
1442.8846 585.9141
1436.1376 589.3813
1449.7697 592.1167
1443.893 595.73676
1438.4985 599.4981
1433.7745 603.00256
1429.2808 590.51794
1430.1637 586.4133
1436.6163 583.51434
1433.3973 578.45953
1435.0251 573.9536
1437.8425 569.1294
1433.1517 564.8054
1424.9233 561.24805
1440.0082 557.9831
1441.6578 563.4472
1443.5002 569.90295
1448.5027 566.0238
1446.8093 557.49005
1443.1877 548.86957
1433.9304 545.927
1425.5322 543.4356
1417.0264 545.17664
1410.573 536.2439
1415.611 534.92487
1420.7183 533.02856
1426.4469 533.93567
1431.0149 531.8369
1435.568 534.8106
1440.034 531.79956
1442.2678 538.4526
1447.4379 536.7757
1453.2175 540.02545
1458.5355 536.2632
1461.063 541.6305
1467.3339 541.96204
1473.1914 540.7625
1473.2101 534.5702
1468.3657 528.03564
1465.9705 535.1214
1460.1984 530.27106
1461.0559 525.4602
1453.2284 528.0712
1445.7512 526.6436
1449.8889 518.0804
1455.7147 517.7342
1461.1919 515.6495
1467.526 517.1496
1471.7319 512.55597
1474.835 517.81
1478.1915 513.3403
1482.6149 517.4123
1489.97 517.16974
1495.3746 514.47205
1501.8541 516.5078
1503.411 525.1173
1495.3481 525.29346
1488.5344 525.48175
1483.2787 527.69
1478.4985 525.5736
1475.8901 529.764
1483.3914 536.2106
1479.4613 539.49133
1479.7013 551.2404
1487.0005 546.95123
1491.2737 552.05524
1486.4868 553.8524
1482.0844 556.75024
1477.6377 559.7644
1472.393 556.6392
1472.9023 550.9859
1464.6151 550.7531
1453.6143 550.71356
1454.2349 562.1686
1453.6538 569.72504
1456.0713 576.11096
1461.4552 571.93896
1466.9573 567.6919
1464.4172 563.6185
1470.8523 562.87573
1475.7345 565.3542
1476.294 570.28687
1471.755 571.83624
1467.0854 572.5003
1465.4568 576.44775
1470.5934 579.2288
1475.5256 576.75916
1480.4943 576.0141
1486.7659 574.5413
1484.996 570.9839
1480.6118 571.11975
1482.1514 566.2588
1483.3385 562.0323
1487.7523 559.6692
1489.3602 564.65497
1489.5333 569.0732
1493.6935 571.8138
1499.5139 578.3999
1497.0449 585.0887
1505.0079 576.7687
1510.8147 576.8188
1516.6528 575.5348
1522.931 574.97986
1526.75 582.8233
1525.679 587.5674
1523.8984 592.91785
1518.6371 596.92926
1516.0402 591.37933
1520.0032 585.2181
1513.8306 585.1679
1507.6274 587.1618
1501.933 590.2706
1505.1166 597.5388
1511.1123 595.8425
1508.874 603.7998
1515.6199 604.4206
1522.1866 604.9083
1526.087 597.6848
1532.4697 597.968
1538.1302 596.1227
1543.4246 593.5543
1543.922 587.3451
1537.7092 589.1754
1531.396 591.68774
1533.3433 584.3129
1540.1514 582.4086
1536.0789 575.3764
1529.3364 574.32983
1533.2239 569.00574
1530.1487 564.37616
1526.0642 567.4813
1521.316 568.6471
1516.6077 567.2591
1511.858 569.38873
1506.4092 569.86273
1499.9607 570.9907
1496.6265 564.82526
1492.8081 559.0951
1503.8562 563.2432
1511.4823 561.8753
1518.9839 560.8538
1524.8916 560.18506
1529.0183 556.87335
1532.8945 559.4043
1538.6926 558.2069
1536.4731 563.5855
1541.8328 563.9713
1548.2715 562.93774
1553.1942 560.6698
1557.6975 563.167
1564.2891 562.5707
1560.8887 558.2034
1558.6948 553.4501
1553.0365 554.91266
1550.1271 549.96735
1547.0813 554.9392
1543.8981 558.5378
1541.9166 551.43005
1537.238 553.113
1532.2057 553.26654
1532.3658 549.05273
1534.7815 545.673
1539.8474 546.04706
1545.1118 546.63007
1549.5052 544.4614
1553.9784 542.81915
1556.0452 548.20575
1558.724 542.59705
1563.6377 541.6125
1563.0748 547.4732
1565.4069 552.5637
1567.1846 558.0058
1570.9365 562.14154
1572.7941 558.51666
1577.7788 555.8881
1583.1853 552.4029
1589.4626 554.3222
1594.9711 550.5966
1599.6733 545.5807
1604.7506 542.5228
1598.4434 539.36005
1593.575 544.6653
1588.3181 547.7581
1577.6931 549.38544
1571.8246 553.6066
1570.6542 548.314
1569.1042 541.9113
1574.9946 544.0002
1577.4946 539.49805
1582.3683 544.4074
1585.7303 539.9692
1591.4264 540.17725
1592.3208 528.6135
1590.1864 524.3137
1592.4702 520.3774
1595.6355 524.38074
1600.688 522.72314
1598.9807 528.0596
1604.9541 528.30743
1609.2893 525.6351
1604.9768 522.14417
1609.3538 520.7662
1613.0392 518.6657
1613.8181 514.6068
1611.2 510.6626
1606.7377 507.96936
1608.0393 514.9919
1603.1962 514.5427
1597.7999 517.92633
1598.2815 512.1063
1602.1077 505.45544
1595.991 506.68018
1590.5536 505.7623
1592.639 514.4192
1588.6116 511.36475
1584.2048 507.47516
1582.6187 512.54834
1577.7004 509.29822
1577.6255 515.70905
1582.439 517.57355
1587.5287 517.59674
1585.113 522.9003
1586.8207 527.2768
1584.394 529.51483
1580.6248 527.83136
1580.3035 523.28876
1576.336 521.81866
1572.2802 517.4548
1573.317 512.08575
1568.3376 510.22858
1567.3412 515.6472
1561.9146 511.1085
1562.1465 517.0726
1563.7832 525.7181
1567.756 523.15546
1572.6082 524.5687
1575.6943 528.79645
1569.505 529.08453
1563.4625 530.2963
1558.1714 529.4425
1553.259 531.6781
1548.6285 529.6567
1547.0674 534.1384
1540.643 535.8455
1542.5986 531.64404
1544.2803 527.37714
1547.5337 524.0258
1552.062 521.6888
1552.6593 526.5894
1556.5604 524.1091
1560.5519 522.8842
1556.1665 515.9004
1554.946 510.70926
1547.555 510.4836
1549.4972 515.80023
1543.5626 515.7022
1538.8075 513.6021
1539.8193 509.68582
1533.5305 512.1295
1530.9088 517.03613
1537.3545 517.3914
1541.2976 523.5265
1538.6713 527.8053
1534.1104 525.90173
1528.6074 525.9229
1530.3525 531.88074
1536.3768 532.5503
1533.0531 536.5956
1528.7687 544.7657
1525.8129 535.9737
1523.5269 530.6067
1522.1865 525.08234
1514.4565 524.8172
1509.5126 516.3245
1517.3945 515.8312
1524.8324 515.1933
1528.2207 509.79742
1519.871 508.9025
1510.7196 508.81723
1501.9127 508.65454
1493.0612 507.61646
1486.4723 512.153
1485.842 506.37305
1480.2418 508.20602
1473.9673 507.36584
1466.9049 509.6866
1461.9067 509.16254
1456.4242 509.79346
1451.5508 511.723
1445.4913 512.20526
1444.704 519.04254
1440.044 517.4427
1435.8245 520.8827
1432.111 515.91125
1426.2587 514.88025
1427.5848 510.98062
1432.1824 510.00436
1437.7384 512.6239
1434.166 506.1277
1433.6788 500.55414
1434.8391 494.0893
1436.8195 487.45007
1438.8628 479.49792
1443.1178 473.64136
1445.4336 465.61624
1450.0613 458.16138
1447.4341 450.4306
1443.1466 458.64243
1437.345 469.51318
1432.4587 481.10733
1429.1764 489.58322
1425.3335 496.11508
1429.6708 497.76276
1428.5743 504.0588
1423.1906 502.37604
1424.271 507.4288
1420.737 510.72513
1421.7369 515.33954
1418.0681 517.79553
1422.2236 520.86926
1426.7938 519.1036
1430.0272 522.605
1425.4095 529.4554
1422.1598 526.2105
1417.1486 523.4364
1411.8118 525.5135
1409.731 529.46
1404.3827 527.9598
1402.3441 524.1335
1393.3439 521.9977
1399.1958 519.5026
1406.4589 521.10236
1402.975 514.55347
1404.5813 508.46234
1401.724 502.15326
1397.6023 508.41388
1394.5051 514.2998
1388.738 517.3173
1384.5927 512.9423
1389.6019 508.093
1393.8202 502.67065
1393.4128 496.49524
1385.5332 498.0722
1370.2422 495.69894
1360.1064 511.78006
1370.1766 523.68225
1379.1567 520.24255
1379.8282 527.556
1386.0518 523.2353
1389.64 527.9498
1397.1978 526.5564
1397.9023 531.7149
1404.5784 532.25854
1400.9163 535.5361
1397.8517 539.5729
1400.8358 545.49695
1404.8971 542.9452
1408.8977 540.503
1408.5155 549.1527
1405.1426 555.6172
1399.9465 559.6356
1410.7214 564.2857
1416.3093 559.17566
1417.7859 563.7934
1418.5681 569.1293
1412.4935 570.3376
1418.4962 577.41473
1421.7191 573.0901
1427.8911 571.1475
1427.017 576.5669
1421.2482 586.2973
1416.5745 582.9976
1403.3186 577.9584
1402.5427 573.66785
1397.1282 576.0582
1397.0575 581.2511
1399.8645 585.90247
1395.7991 587.4057
1392.7825 585.1601
1388.201 586.59625
1390.5382 590.23615
1394.4768 592.58344
1398.8668 591.03143
1403.5393 592.2092
1400.1632 596.7657
1405.3679 597.1037
1409.7479 598.22327
1414.222 586.4172
1414.9167 592.3323
1414.1522 598.8294
1414.2968 606.9187
1418.7112 607.0492
1418.259 611.64343
1412.8411 611.02686
1407.566 612.6549
1409.2927 606.99225
1404.6013 605.90094
1401.9706 610.57404
1402.1945 616.54205
1401.678 622.3417
1397.9932 627.609
1402.4182 629.9366
1405.4027 634.9226
1410.0481 638.205
1414.6621 641.4647
1417.5498 646.8488
1413.9984 649.4796
1411.6187 645.47253
1408.0399 642.7416
1403.66 640.9959
1402.9012 646.9475
1407.0693 649.79987
1410.5663 653.7857
1413.3745 659.3697
1418.631 657.67114
1415.787 654.0871
1420.0566 652.2833
1422.0195 648.52277
1421.42 644.4618
1419.2349 641.48785
1419.3284 637.51697
1415.2601 636.0089
1419.9858 633.6214
1421.1564 629.86005
1420.3931 625.474
1416.8657 621.47076
1412.692 624.6683
1415.2936 629.8461
1411.3431 633.7822
1408.7911 630.0814
1406.794 625.18176
1408.3909 619.14307
1413.4067 616.21515
1419.1104 616.6169
1423.5048 618.68195
1425.3606 623.3195
1426.7855 628.6236
1425.2653 633.71704
1424.166 637.90015
1424.4644 642.04596
1428.4258 641.8813
1425.9712 646.58453
1425.8557 651.6655
1423.9563 655.28766
1430.4037 653.4473
1434.7683 654.7632
1436.512 659.7141
1440.2739 656.11127
1441.7405 661.3819
1447.5885 660.3249
1445.8009 654.5019
1449.2594 649.46576
1452.395 656.203
1460.962 652.44226
1455.5287 649.5072
1453.162 642.81396
1447.362 643.3188
1441.7863 643.91077
1442.4974 637.2672
1448.2438 637.0951
1453.7955 636.48096
1458.7333 638.66364
1462.9568 641.7055
1458.5463 644.2481
1462.7455 647.479
1467.9651 646.3239
1473.6654 646.7633
1472.0369 651.71606
1466.989 651.59674
1465.7046 656.7445
1463.253 661.6609
1458.2422 656.79724
1458.0999 662.54364
1456.1166 668.0972
1453.1132 663.2015
1449.4044 666.5054
1446.2709 670.3121
1450.6998 673.0594
1444.5521 674.71075
1447.1907 678.2034
1451.051 679.8787
1453.1907 684.24713
1458.9882 681.18494
1455.3629 677.3983
1456.0184 672.417
1460.7312 674.7264
1465.3704 673.46686
1462.0076 668.0012
1467.5751 668.37787
1468.7169 663.6232
1470.8105 658.69507
1476.2471 659.9394
1475.4379 664.59784
1473.6646 668.5834
1470.5586 672.8251
1468.9772 678.08
1464.0887 679.94995
1468.3367 683.87
1468.2275 689.0763
1462.8075 686.78284
1457.4368 686.497
1464.7975 693.5587
1460.3981 696.161
1459.3237 691.67944
1455.1953 691.83466
1452.0225 695.39
1446.8488 696.7989
1441.33 696.89496
1444.7352 701.43317
1440.5043 704.1324
1436.1313 706.9896
1434.3821 710.974
1440.1592 710.4314
1437.517 716.2025
1442.9545 719.6706
1450.1647 716.68756
1456.0989 719.4328
1461.3611 722.09705
1463.5101 717.4708
1459.8555 715.0924
1455.9825 712.20654
1450.9144 710.2922
1444.802 713.63196
1445.4109 707.6778
1449.5276 704.51544
1451.2853 700.20135
1456.7008 699.4394
1455.1841 705.63135
1460.5121 704.36017
1463.4426 700.304
1469.2593 698.07697
1468.5219 702.6859
1473.2968 706.1458
1469.259 707.3135
1465.2626 707.33936
1460.76 709.07794
1464.2935 712.56335
1468.4758 712.0537
1471.9188 713.4127
1476.12 715.9344
1476.2236 710.3617
1481.7753 709.9921
1487.0406 713.3278
1490.6914 708.7823
1494.8073 713.5202
1500.176 714.64136
1503.0127 719.2726
1505.9851 715.1842
1510.7477 715.7605
1510.0679 719.87225
1507.3296 723.1221
1501.8984 724.81525
1497.5503 719.845
1495.9861 723.99286
1489.9291 723.8923
1491.4178 718.05023
1485.3641 720.36084
1481.4952 715.67975
1479.3425 721.00653
1482.3984 725.7592
1476.615 727.75867
1472.9882 725.3081
1474.8856 721.6384
1471.4706 718.7628
1467.3579 717.84973
1467.7538 722.9093
1469.0822 727.6953
1463.4148 727.0024
1456.8369 726.72296
1450.7657 722.6623
1449.0696 727.27545
1443.2861 725.7706
1437.6829 726.5893
1435.3517 721.961
1429.3274 722.3848
1431.3273 727.05365
1429.9689 731.4326
1425.7885 733.4401
1420.4899 734.81995
1420.9474 729.2677
1425.4613 726.033
1424.7559 719.8119
1417.9075 712.13153
1413.837 708.93585
1407.2495 711.2173
1401.206 711.1607
1402.3829 716.89087
1407.0779 717.4404
1412.4323 716.8686
1417.9794 718.2
1419.8218 723.35547
1414.6631 725.92944
1408.9546 724.0997
1403.0222 724.3111
1399.0421 721.20685
1397.2716 716.50104
1394.645 713.6518
1396.243 709.669
1397.5002 706.02826
1397.8438 701.7632
1397.8658 697.1571
1402.1262 697.4205
1406.0712 697.4148
1404.1035 691.03394
1398.3763 692.5787
1393.5382 689.14215
1393.9556 682.3877
1398.4464 677.36584
1399.4773 686.5845
1404.1368 683.3241
1410.1251 679.8676
1412.2502 685.4161
1409.176 688.61285
1408.642 693.94745
1410.4398 699.2111
1405.3744 701.88513
1401.9766 704.91455
1407.2878 706.2833
1411.7534 704.37366
1415.458 701.5577
1417.7839 697.2042
1413.3768 693.6478
1417.4457 690.83606
1422.388 693.77374
1426.7324 694.53436
1431.747 695.141
1429.9384 699.61633
1426.3577 703.07355
1421.8173 700.5502
1420.5648 706.0561
1423.8984 709.8388
1423.7534 715.2293
1431.0369 718.02985
1431.5869 714.06177
1428.0348 711.9148
1429.9865 706.858
1434.0397 703.0525
1436.7728 699.3044
1436.1907 693.79083
1440.0852 691.529
1444.0897 687.7975
1445.6232 692.27454
1451.3993 690.47314
1449.0087 687.86316
1447.0011 683.9855
1443.2351 679.9015
1438.3589 679.7556
1441.0262 683.48676
1440.3022 687.2233
1436.557 686.84015
1433.1307 684.19824
1431.771 689.81555
1426.9762 687.1232
1421.773 687.0222
1417.0667 683.8316
1417.3868 676.71985
1423.9111 680.4622
1429.0637 681.108
1433.283 678.64777
1436.2982 675.0318
1440.426 673.61554
1440.5376 669.04956
1443.6702 665.67267
1437.9243 664.8839
1432.9849 665.03156
1436.0713 669.78925
1430.9385 669.9719
1428.1063 667.5085
1427.0126 663.99744
1422.4166 666.1125
1416.8163 667.0567
1410.452 665.6139
1410.273 672.39606
1404.4364 676.3304
1402.1757 669.9665
1396.0986 667.3895
1397.6641 660.618
1403.4132 663.375
1408.2885 659.39215
1403.8583 655.85626
1399.2322 653.80164
1398.0448 649.1313
1398.011 644.2165
1397.1077 639.88824
1400.8569 636.8154
1397.1395 634.0007
1392.7476 633.2101
1387.8059 631.70416
1385.1361 636.45056
1390.887 637.38104
1392.1963 641.8765
1393.5284 646.5306
1393.4274 651.4836
1393.2317 656.5255
1391.0604 661.9297
1386.4546 665.9151
1390.7139 669.5056
1392.6659 675.0527
1385.3066 672.4652
1380.1151 668.464
1379.8405 675.55914
1386.4368 679.0712
1388.098 685.0306
1382.9672 686.84937
1386.1215 690.62915
1389.5017 693.35645
1392.329 695.9577
1393.8068 699.3917
1392.4174 703.068
1391.7112 707.7239
1390.7916 712.2506
1391.3335 719.18414
1389.5502 716.0924
1387.1814 711.0405
1385.938 707.06104
1388.2126 703.343
1386.5775 699.3666
1384.1083 695.718
1380.2455 693.92944
1377.0234 697.6778
1380.0043 700.6431
1382.7179 703.8209
1379.4598 707.5477
1382.8712 711.63873
1378.3693 713.65735
1380.0446 718.6882
1384.8854 716.442
1386.6191 721.734
1387.113 726.6946
1391.7001 729.2813
1393.5941 721.8123
1395.7698 725.6619
1398.0303 730.2612
1404.3647 730.9264
1403.5051 737.8375
1398.1011 735.9589
1392.6428 734.8746
1393.3812 740.3846
1393.5084 744.7851
1399.5469 741.97314
1397.5203 746.5914
1401.2378 748.99054
1405.3628 746.5403
1407.7258 742.5033
1409.6642 737.21576
1410.6459 731.2295
1415.5663 734.62964
1424.057 739.0756
1418.9653 741.62427
1413.9149 742.7262
1411.6577 748.77576
1412.5092 755.5423
1418.4363 755.25684
1418.0657 748.925
1424.1863 749.7973
1424.1069 744.83234
1430.0842 737.00793
1429.2714 741.57166
1430.0214 746.0866
1429.6965 750.8801
1423.6747 754.4964
1427.8324 755.95844
1426.3065 761.57806
1422.3928 759.92645
1416.4221 761.31726
1408.8783 761.25385
1406.4719 752.50305
1404.5027 757.8164
1399.1473 761.7493
1398.988 755.0479
1395.0728 751.2141
1390.6189 748.3728
1387.7474 745.4943
1384.0593 750.7646
1388.7439 753.0837
1392.1439 756.84106
1391.938 761.9149
1384.7471 759.9889
1378.3545 758.17426
1379.8398 753.465
1374.6652 749.62976
1379.1321 745.311
1373.8175 741.6596
1378.1268 738.0345
1383.4703 738.73706
1384.0975 743.69543
1388.5573 739.2347
1387.4113 733.1242
1382.6864 733.38153
1381.1089 728.2857
1380.4375 723.4937
1377.4526 732.05414
1373.2169 732.76526
1374.3536 725.6598
1373.7095 719.86127
1373.2484 713.7377
1373.7754 708.4224
1374.3232 703.52057
1372.4994 698.924
1371.7148 691.49945
1374.9152 693.374
1378.4113 690.20514
1377.96 686.1888
1379.563 681.4387
1373.0521 685.1291
1373.3044 678.29816
1374.1995 672.2021
1373.0886 667.41705
1372.636 662.2227
1376.9879 662.455
1380.966 662.0079
1385.1349 660.4787
1381.5822 655.3438
1387.0977 655.96606
1388.4238 651.48016
1388.3668 646.41406
1386.6066 641.8429
1381.5109 641.8499
1378.3279 646.7051
1383.1324 649.0207
1377.2749 654.1572
1373.0054 656.6537
1373.2734 651.2501
1373.0771 645.47876
1373.8672 639.901
1378.0537 637.78735
1380.2614 633.5222
1383.1906 630.1494
1381.0538 626.7339
1374.404 632.8295
1374.4829 626.58057
1377.485 622.25836
1374.2872 618.0493
1373.0469 612.1701
1373.4309 604.9915
1374.218 599.28406
1372.3822 592.1503
1372.9755 586.13696
1372.3373 580.2559
1376.6149 582.43896
1378.4395 588.08356
1376.636 594.32306
1381.3059 594.2333
1381.7386 599.5796
1380.5077 604.4371
1377.845 608.7412
1379.4668 613.40894
1381.6901 617.85864
1382.4021 622.09937
1386.2844 622.44434
1388.5264 626.2172
1392.6803 628.679
1394.825 623.6638
1390.7708 620.64215
1395.6536 618.5753
1396.7946 613.69714
1396.4534 608.2558
1400.192 603.105
1394.6879 603.3252
1390.3544 606.9575
1391.3138 612.4606
1388.355 617.0661
1385.2651 613.7939
1384.8988 608.9237
1386.5646 602.9942
1390.9272 600.59094
1395.9918 598.1035
1391.5587 595.802
1386.9326 597.0083
1386.1906 592.39514
1383.4569 588.5392
1384.1473 583.8802
1381.1173 581.5271
1375.0037 576.65485
1379.3035 577.11383
1383.2838 575.2614
1386.2405 578.3593
1388.3162 582.07825
1392.3434 580.9837
1391.6228 576.87634
1393.486 572.1379
1398.0903 570.2544
1397.447 564.5527
1392.5142 567.39575
1388.2084 572.91534
1386.6514 567.8105
1389.9325 562.9858
1392.9293 559.0086
1396.3042 555.2159
1399.8956 550.38983
1394.3259 550.5452
1395.0039 545.0412
1389.442 548.1608
1388.8018 553.6327
1386.2095 558.0964
1383.5452 562.3818
1380.2228 566.30615
1382.1589 570.88245
1377.067 571.92615
" />
</g></g></svg>
