<?xml version="1.0" encoding="UTF-8" standalone="no"?>
<!-- Created for Inkscape (http://www.inkscape.org/) -->

<svg
   xmlns:dc="http://purl.org/dc/elements/1.1/"
   xmlns:cc="http://creativecommons.org/ns#"
   xmlns:rdf="http://www.w3.org/1999/02/22-rdf-syntax-ns#"
   xmlns:svg="http://www.w3.org/2000/svg"
   xmlns="http://www.w3.org/2000/svg"
   xmlns:sodipodi="http://sodipodi.sourceforge.net/DTD/sodipodi-0.dtd"
   xmlns:inkscape="http://www.inkscape.org/namespaces/inkscape"
   width="3200"
   height="800"
   id="svg2985"
   version="1.1"
   inkscape:version="0.48.1 r9760">
  <defs
     id="defs2987" />
  <sodipodi:namedview
     id="base"
     pagecolor="#ffffff"
     bordercolor="#666666"
     borderopacity="1.0"
     inkscape:pageopacity="0.0"
     inkscape:pageshadow="2"
     inkscape:zoom="0.35"
     inkscape:cx="1600"
     inkscape:cy="400"
     inkscape:document-units="px"
     inkscape:current-layer="layer1"
     showgrid="false"  />
  <metadata
     id="metadata2990">
    <rdf:RDF>
      <cc:Work
         rdf:about="">
        <dc:format>image/svg+xml</dc:format>
        <dc:type
           rdf:resource="http://purl.org/dc/dcmitype/StillImage" />
        <dc:title />
      </cc:Work>
    </rdf:RDF>
  </metadata>
  <g
     inkscape:label="Layer 1"
     inkscape:groupmode="layer"
     id="layer1"> 
     <g>
<path style="fill:none;stroke:black;stroke-width:2px;stroke-linejoin:round;stroke-linecap:round;" d="M 
1800.9802 581.70026
1796.411 578.3035
1800.7268 574.5122
1800.8693 569.9508
1796.3256 568.80444
1801.9106 565.85767
1805.1512 562.23773
1798.8396 562.1
1793.6833 561.47284
1796.1652 557.04706
1800.8435 555.2436
1795.9735 551.4818
1794.6544 546.5212
1788.5632 548.2049
1788.8977 542.14557
1784.9628 535.51483
1789.4539 535.48315
1802.1434 529.0265
1808.4912 527.8792
1813.7219 527.3738
1809.0137 522.497
1810.2821 517.23737
1806.32 514.70496
1807.4695 509.73676
1807.7706 504.54922
1805.5632 499.6081
1809.5803 499.1144
1813.0781 501.84433
1812.4341 507.11652
1813.0552 512.1312
1818.8011 512.0093
1816.1493 516.0856
1814.547 519.98114
1813.9432 523.6234
1819.3739 525.09424
1819.8914 520.61035
1820.9546 516.18335
1824.8684 519.4649
1827.3439 514.21155
1823.8419 513.27057
1822.3296 508.44836
1827.0442 509.47275
1826.3385 505.40732
1823.5801 501.56094
1817.5895 507.96115
1817.5095 503.80255
1818.277 497.51086
1811.9441 493.7971
1803.9362 496.38306
1801.1487 492.09998
1795.0588 493.16818
1786.4764 497.57504
1800.5814 499.39075
1803.3503 503.52734
1801.5177 509.75766
1795.4448 510.3644
1789.4718 512.3808
1782.4708 506.11142
1782.6595 512.6289
1785.8955 518.2807
1780.8577 521.7964
1787.1958 524.66595
1791.881 520.8094
1796.3964 518.3873
1801.0944 515.71967
1803.4464 520.5013
1804.8136 525.15454
1799.1816 524.7324
1794.9755 526.98785
1789.8164 529.50226
1784.9425 530.74396
1780.6377 529.07434
1775.8612 526.9099
1770.728 522.6976
1766.3754 527.31885
1761.796 523.18256
1765.3918 519.1821
1766.0961 514.07043
1763.7861 508.0641
1761.9861 502.57864
1759.1781 497.62128
1761.1698 493.53253
1758.9906 488.59528
1755.0121 487.28467
1754.1888 483.67865
1754.7301 479.34613
1750.7646 475.10315
1748.8229 470.51508
1748.5902 465.66003
1744.6165 462.4362
1745.7921 456.15634
1741.4337 457.4387
1739.5151 452.30807
1737.6973 446.45816
1734.1709 440.43176
1727.691 440.19604
1730.6069 445.85562
1733.0308 451.40604
1735.3925 457.12445
1738.894 461.26834
1737.8634 465.8523
1742.0936 467.36584
1743.2354 472.82758
1744.9578 478.91257
1749.5957 480.6539
1747.9696 485.7698
1747.8538 491.7812
1751.7053 491.21985
1755.9768 492.7692
1752.2435 497.49933
1754.6848 502.7927
1753.3083 508.5636
1758.573 511.76495
1757.3702 517.49194
1754.1836 522.61127
1757.4602 527.8216
1751.9792 528.74646
1744.3218 526.6716
1747.2891 522.0392
1750.0051 516.6977
1747.5247 512.40027
1741.3848 516.09937
1739.688 520.9873
1738.4829 527.2604
1733.4756 528.24243
1730.3871 532.0587
1724.3279 532.84924
1721.6074 538.3257
1725.1311 542.33026
1728.9043 537.2382
1731.904 540.8622
1736.5962 540.6363
1736.402 536.3936
1741.9279 535.5426
1741.7388 540.81555
1747.0145 537.4976
1747.393 533.3295
1752.8552 534.63794
1758.36 533.92816
1762.6873 531.81384
1767.2496 534.67267
1772.8685 535.03705
1775.2343 540.63416
1778.8586 537.9799
1782.096 542.05817
1782.8104 546.24445
1777.7483 549.4866
1781.043 556.3825
1786.302 553.6238
1790.623 555.8448
1787.9299 560.5361
1787.9296 565.28296
1792.2264 566.7531
1793.2163 572.857
1790.2003 577.3066
1786.8572 572.1481
1775.3279 562.5698
1769.3574 562.8272
1775.0515 569.2822
1783.1448 577.95764
1790.2709 583.06354
1787.488 591.3127
1783.9203 596.1346
1794.7023 595.78735
1797.5815 590.6758
1792.1078 588.3193
1797.1624 584.9234
1803.5657 586.7629
1802.497 592.6828
1808.306 589.8089
1812.2961 587.0769
1808.3843 583.6391
1804.9879 579.4376
1806.5997 574.75476
1807.3839 568.97327
1811.9102 574.0233
1811.6709 579.2351
1814.4756 582.9849
1815.4773 588.9156
1813.1296 592.806
1807.1189 595.72504
1812.789 597.7448
1813.608 603.18915
1811.003 607.61304
1814.5433 611.5971
1814.1398 617.5509
1810.2926 613.8065
1806.2227 609.95526
1807.3048 602.35284
1800.798 599.06683
1801.2511 604.517
1801.0719 609.3101
1801.5312 613.6265
1798.387 617.19293
1794.5275 617.67865
1790.936 616.6428
1790.044 621.46686
1787.2126 625.63196
1785.6997 630.6955
1791.8928 631.2314
1798.661 629.65765
1800.4487 625.20905
1793.6063 626.1296
1795.954 622.0913
1800.4648 621.0617
1805.1022 622.48047
1802.5461 618.0177
1805.5891 615.6771
1808.7207 618.1977
1809.7996 622.02386
1813.6492 622.08276
1814.9955 625.6727
1812.2839 628.18585
1808.186 626.83594
1804.229 629.56506
1808.6853 634.027
1814.4874 633.34326
1812.3739 639.5452
1812.7659 645.5411
1806.4547 649.25806
1800.3705 648.30365
1799.6094 653.7625
1795.3551 657.30835
1796.9275 663.4958
1802.2025 660.9258
1805.577 655.7443
1810.8922 657.409
1811.7844 651.1938
1815.2178 653.96533
1816.2291 658.6522
1813.84 663.156
1814.5773 668.7655
1814.6359 675.2075
1812.9608 680.15466
1815.9414 684.3586
1812.8909 688.0162
1809.1932 685.1381
1806.1013 683.13965
1807.0011 677.9346
1809.4504 673.37476
1808.3184 668.01935
1807.917 662.39056
1802.1095 667.29913
1802.3534 672.8725
1800.3416 678.05536
1802.2444 682.35284
1794.9684 676.4712
1795.6863 669.7456
1790.3032 672.4833
1787.508 668.0355
1790.8025 663.39185
1788.7793 657.5457
1782.8999 658.44965
1783.0582 664.03296
1777.2432 661.15424
1772.523 658.23303
1765.7153 665.52515
1752.8704 675.86005
1755.9604 678.9174
1759.7423 678.90894
1763.1117 680.92896
1763.6571 677.52045
1767.4966 678.1923
1771.0323 675.4603
1772.3198 671.1181
1771.9004 665.35767
1776.6455 667.09766
1781.1292 669.94916
1783.2915 674.1841
1788.1101 677.47986
1777.9458 677.2778
1782.9263 681.13995
1788.2206 683.39435
1793.7397 682.363
1797.6458 684.6215
1801.4441 687.35895
1803.582 690.66595
1808.6166 690.85846
1805.028 695.7096
1809.9426 695.76996
1814.6632 691.9179
1815.9702 696.352
1813.1431 698.953
1809.0864 701.4884
1804.2543 700.7431
1811.7161 705.4336
1815.4381 703.117
1814.4855 709.30994
1815.5792 714.5239
1811.103 714.7993
1806.979 717.1061
1812.9038 719.89624
1808.7266 724.2118
1814.1428 724.7978
1812.0554 729.0455
1814.5547 733.7325
1810.4194 735.73694
1806.9504 731.9789
1803.6396 729.5832
1804.2314 725.20715
1803.4312 720.6344
1801.039 715.5883
1803.5281 711.37354
1808.6702 709.9623
1805.0458 706.1669
1800.3713 704.4616
1797.3766 700.127
1799.778 695.7955
1796.2734 691.3597
1791.013 688.2695
1783.2347 688.4095
1777.5193 684.12164
1772.1787 681.8256
1770.0542 686.04126
1769.4705 691.23254
1764.7158 693.6058
1768.5171 697.1655
1773.3901 697.7379
1774.8953 689.96375
1778.8275 693.4658
1782.332 697.052
1786.3411 695.81494
1789.5332 692.9313
1792.5785 698.26636
1790.4539 705.7128
1795.1846 705.3904
1797.6392 710.2221
1794.5868 714.56696
1797.4094 718.44476
1798.5532 722.2341
1792.9863 719.98206
1789.1392 716.62524
1790.078 711.32465
1783.1576 711.6181
1784.2916 715.6073
1784.2925 719.8424
1782.5051 723.5618
1778.8036 722.4957
1773.8267 725.3162
1773.6531 730.8975
1769.5431 734.36664
1767.969 739.4751
1772.5857 741.6288
1777.821 742.3628
1776.793 736.48724
1779.0308 731.6727
1779.0266 727.0494
1786.2434 724.4909
1788.4668 721.19324
1791.0149 724.6861
1794.884 724.6658
1799.3756 726.4152
1799.1072 731.28735
1794.6349 729.0138
1794.4598 734.16736
1795.272 739.34
1800.5997 736.0066
1799.9069 742.12573
1798.353 747.7769
1793.0984 745.20123
1787.7477 742.4736
1790.4038 738.7375
1788.6621 734.1993
1790.6072 730.5492
1788.0323 728.0677
1783.7343 728.2872
1783.7472 732.72815
1784.4146 737.09564
1782.3562 740.45483
1782.189 745.0763
1782.4749 749.1824
1778.2041 750.05145
1774.0249 746.91125
1766.9327 749.24414
1771.2726 751.3628
1769.9575 756.5368
1775.4875 754.611
1780.0422 757.0171
1783.8792 753.5035
1787.1177 747.0854
1789.2756 750.77563
1794.1997 752.6543
1799.7203 755.2297
1803.7997 750.2657
1808.2698 747.194
1805.6486 742.89355
1805.7169 737.77405
1812.3556 740.60675
1813.3127 746.7696
1810.9675 752.8975
1807.4661 757.9854
1801.6338 761.5262
1794.9115 760.83704
1789.1973 762.8708
1789.2336 756.4576
1784.7017 760.24384
1780.2992 762.9766
1775.0391 761.0417
1769.9413 762.78186
1765.7617 760.5183
1761.4261 759.0704
1764.0115 753.34033
1758.3087 753.3436
1758.9093 747.0158
1766.4314 745.0351
1762.3076 741.6027
1757.2977 739.97394
1757.7396 733.21344
1762.8118 735.7394
1763.6418 729.999
1768.5115 727.38336
1761.6959 723.60486
1757.6375 727.62524
1755.7646 722.42535
1752.9464 718.0185
1747.6772 721.5805
1751.3728 726.2891
1745.6277 727.57043
1742.6862 723.71906
1738.8064 721.00104
1737.9052 716.4231
1736.2515 711.41754
1731.5477 710.3185
1731.1792 704.8939
1729.1646 699.92126
1724.6948 702.8907
1718.1873 708.618
1719.8596 713.92224
1724.4375 708.62354
1726.7643 714.1621
1731.5052 717.6285
1723.5988 719.0081
1725.1929 723.04974
1733.8066 722.60956
1738.553 726.92847
1733.0696 727.78644
1729.4397 724.41455
1725.6102 727.96826
1719.5664 726.0995
1718.0134 719.96185
1713.1865 722.5717
1713.5945 728.01337
1707.6439 726.8873
1707.0782 722.6698
1701.5343 723.58624
1696.3203 723.56866
1690.2795 723.4224
1689.7235 716.2006
1695.1366 717.83374
1697.7673 711.9354
1693.6444 709.1344
1687.5029 710.0601
1683.2448 714.1093
1684.4993 719.426
1682.8188 724.3354
1675.9548 723.2816
1677.3403 718.10034
1672.5284 712.1268
1668.7112 716.6903
1668.8921 723.21924
1661.9285 723.12714
1654.9658 722.83466
1654.0547 716.21906
1648.198 718.7501
1647.5847 724.03186
1642.161 721.7825
1636.9324 724.37537
1629.6453 724.86084
1631.3339 721.26324
1629.262 716.783
1626.3948 719.569
1624.0791 724.27295
1621.259 720.51825
1618.178 717.16144
1617.7205 724.23425
1613.9863 720.3465
1609.6969 724.2091
1606.6951 719.33514
1600.7478 724.56805
1600.8733 719.1074
1598.0527 714.0773
1599.6016 708.0723
1594.4991 706.2791
1592.4622 711.53424
1588.2777 706.4578
1585.8662 697.10394
1580.1289 697.66583
1574.6371 697.14655
1582.1396 690.6028
1576.6016 691.0036
1571.8782 690.06396
1568.819 694.28906
1568.5046 698.90125
1562.9099 696.4655
1557.8423 697.3599
1552.2358 697.7085
1550.6868 692.4484
1553.2705 686.79443
1556.9468 691.2853
1561.6147 688.9805
1566.3663 689.6229
1564.7546 682.2218
1570.3649 684.4147
1573.5736 680.38196
1578.3523 685.15704
1584.1565 683.0383
1586.6152 678.0529
1579.3882 678.2192
1571.2529 673.742
1576.604 672.5731
1582.2588 671.1401
1584.722 674.01984
1590.7881 672.6085
1597.6213 672.08057
1596.396 677.8714
1591.7076 679.91815
1600.0159 683.32
1594.8108 687.1198
1589.3564 685.882
1587.9962 690.7307
1592.1841 695.53656
1598.8112 697.56946
1603.9211 704.8363
1607.9592 709.2066
1603.8455 712.5049
1609.728 714.84094
1614.0144 713.79474
1617.8562 712.37024
1621.8323 712.4707
1622.9685 716.34784
1625.7046 713.84454
1629.4028 713.7417
1628.7966 710.9904
1631.2588 708.48645
1630.596 704.55304
1627.3884 697.85785
1624.7599 704.16156
1626.2231 707.15857
1626.0269 710.0981
1622.3319 708.4357
1619.2397 705.22766
1618.5132 708.7582
1614.5459 707.88257
1610.8517 705.922
1607.4707 698.7381
1606.7961 693.9662
1598.7412 691.28546
1604.2516 689.1299
1610.2727 687.4512
1615.1417 679.6939
1609.7512 678.4893
1605.915 682.02386
1602.3723 677.022
1605.1168 672.4251
1611.9097 672.3557
1617.4799 673.89514
1622.6516 672.5675
1621.7289 679.3597
1627.2654 680.91113
1629.1084 676.0794
1635.5693 676.8595
1635.8987 671.63635
1628.9462 671.5864
1625.2577 658.4811
1626.2754 653.003
1632.2019 653.69464
1633.4663 659.6408
1639.3389 654.1279
1643.5205 658.83167
1648.0308 653.0978
1657.314 655.2314
1652.0776 658.6573
1650.7283 670.98206
1647.618 675.34454
1644.0432 671.6358
1640.2251 674.94336
1643.6364 678.1807
1646.1477 682.12616
1647.24 686.19525
1640.2451 682.2445
1637.8523 686.8199
1633.6332 681.12256
1632.998 686.72266
1627.6548 686.82184
1622.2877 686.3513
1616.5005 685.82416
1614.8551 691.7444
1612.9072 696.7059
1617.1389 698.84814
1621.2893 697.0559
1620.5105 691.59174
1625.4807 692.22314
1630.0343 691.5403
1633.4253 693.51575
1634.4993 698.56836
1635.9196 706.57465
1637.1791 712.37463
1632.993 712.40314
1633.504 716.9675
1636.3301 720.1968
1639.7184 716.85315
1642.5598 713.13043
1641.2562 706.5296
1647.2274 705.75995
1647.1663 712.7604
1651.5509 710.04614
1657.9047 710.86346
1661.3889 716.4012
1665.3451 710.56946
1661.8838 705.4424
1654.8899 705.4544
1646.9048 696.7505
1641.8175 696.15497
1638.0931 692.5235
1642.862 689.1681
1647.8182 691.6075
1653.2222 692.3592
1652.5532 687.5897
1652.5865 683.31366
1650.0248 679.5572
1654.3184 678.61066
1657.0042 683.1557
1657.3713 689.4297
1651.8776 697.3509
1656.8177 696.6555
1661.8762 697.7867
1665.4719 693.5958
1660.6619 692.64355
1663.3457 688.57996
1660.4084 685.1999
1658.7246 678.9545
1662.0032 675.7135
1656.8158 674.67487
1652.4232 674.56323
1657.6917 671.07117
1663.5195 670.7369
1667.2518 673.5831
1672.9717 673.21564
1679.8932 673.048
1683.4827 677.9535
1681.4344 668.1778
1686.6534 668.6564
1688.4122 674.2626
1691.3616 679.6386
1696.4257 675.12134
1698.7468 680.6305
1696.2854 685.9008
1702.8447 685.8426
1709.0948 684.5115
1711.6322 681.3953
1715.6698 683.90704
1720.1056 685.47217
1723.7974 685.97614
1726.6553 688.9373
1725.739 692.4014
1721.9974 692.59955
1719.8042 690.21606
1716.6263 688.2372
1712.413 688.1604
1708.0265 689.05743
1705.1641 692.45404
1700.0676 691.46045
1695.3303 695.5223
1693.3595 690.46576
1689.5 686.46045
1684.1045 683.68396
1677.4808 684.46643
1676.9852 678.03174
1672.516 680.4411
1668.1991 678.50165
1663.2617 680.7406
1666.5311 684.65314
1671.6599 686.3339
1668.5096 690.23083
1671.715 694.4482
1675.1213 690.5611
1680.0083 689.27844
1684.9883 690.1256
1688.5238 694.5901
1681.7255 695.38245
1676.421 696.8082
1667.7806 697.82153
1668.54 705.1273
1674.4967 705.74805
1677.8848 712.4857
1681.1559 708.3625
1681.7644 703.8501
1689.7363 703.933
1698.0806 703.26514
1702.2451 707.82886
1706.1344 712.7336
1700.6766 715.86
1704.1522 718.58887
1709.4124 717.85974
1714.0416 715.8042
1712.2281 711.05725
1708.3231 706.8148
1705.5737 701.89233
1712.4558 700.60657
1713.9205 705.35956
1719.2216 702.67914
1718.5049 697.5634
1724.03 697.1679
1729.9204 695.4756
1739.1381 691.2976
1747.3625 694.0365
1742.1897 697.3664
1735.1638 697.61066
1738.0923 702.6645
1739.8434 707.1872
1742.1128 711.8643
1743.9531 716.8577
1749.0482 715.3521
1758.154 717.19165
1759.4064 712.0046
1753.2856 710.2214
1747.4309 709.6237
1744.991 703.87286
1750.103 702.9586
1751.8817 697.93823
1756.6061 702.0806
1758.749 706.37897
1764.9188 709.758
1769.1655 714.18915
1763.7605 717.0035
1766.8319 721.9601
1771.2001 719.50635
1775.4327 719.80676
1779.5377 717.11145
1775.3641 713.17224
1778.4502 707.99066
1784.425 706.54956
1786.7228 701.5581
1779.7335 701.1274
1774.7411 703.2104
1771.1276 707.432
1766.0011 703.473
1762.802 699.1542
1758.1757 696.68854
1760.4053 691.6545
1764.0221 688.13104
1764.776 684.2173
1758.4974 683.7009
1756.9305 687.721
1754.325 692.6367
1750.637 687.92615
1752.4144 682.42944
1743.9966 688.1586
1745.7426 683.14404
1748.125 678.7657
1742.8512 677.04144
1738.7188 673.36127
1733.7782 670.64105
1732.3386 663.9694
1734.4188 657.4226
1732.997 651.915
1732.8767 645.2964
1729.322 647.8439
1724.6879 646.8248
1727.7858 642.2685
1722.2865 641.98145
1724.9949 636.9907
1731.4731 639.37415
1734.1101 635.32635
1728.2526 632.1905
1734.8033 630.07385
1739.9219 633.65106
1743.1111 629.51843
1749.5537 628.01166
1747.4528 633.44354
1750.7063 638.0055
1754.9398 635.12915
1755.1196 630.28345
1755.9153 625.6656
1755.9918 619.6307
1758.9379 622.0563
1762.1185 624.6558
1762.1672 629.209
1760.9009 634.05347
1761.1938 639.56085
1756.249 640.8501
1751.9275 643.96387
1747.3668 643.0408
1745.5493 639.2098
1741.4414 638.33466
1736.9191 640.9544
1741.4788 644.1911
1737.0273 647.7012
1738.9071 653.18604
1740.4026 658.8083
1744.943 653.5022
1742.4635 648.965
1747.0146 647.4881
1750.9902 650.178
1754.8059 654.73486
1750.2667 656.7743
1749.393 663.35156
1750.785 667.8714
1745.4993 660.36755
1736.8984 663.4183
1741.0796 666.572
1744.7793 670.4778
1748.9955 673.4562
1758.2819 666.4058
1760.6418 654.82874
1758.5513 650.23804
1756.4375 646.21985
1763.9943 650.4691
1767.2642 655.0606
1772.6163 652.8439
1769.3257 648.7991
1770.9243 643.8091
1763.4177 644.7761
1767.0275 638.62115
1767.5408 632.36914
1772.6604 635.8078
1777.8936 633.17224
1776.009 640.4958
1782.2417 640.6803
1778.8529 645.72217
1777.0571 649.8033
1778.1779 655.17865
1784.3196 652.0511
1791.5348 650.99927
1785.3657 646.1617
1789.3921 642.5706
1794.4696 645.7153
1799.3059 641.93195
1805.8644 642.4137
1803.0527 636.2324
1797.3828 634.64685
1793.655 638.3025
1787.9202 636.5098
1782.3783 635.4461
1780.5505 627.6239
1776.8524 623.1538
1773.2877 628.7303
1767.6729 626.1448
1771.6611 621.84924
1766.4116 620.4231
1761.8978 618.758
1759.5898 614.1281
1764.7883 613.971
1769.7795 615.59656
1774.4204 616.3871
1779.536 617.13196
1783.0529 621.5722
1786.3335 616.85944
1783.6477 612.4454
1790.7183 611.6547
1796.3989 612.6758
1795.3418 606.9343
1791.9989 600.9123
1788.4379 605.83875
1783.5632 606.1767
1778.7695 605.90247
1776.9116 611.22314
1772.6511 607.0536
1768.6991 609.6819
1762.7161 607.74475
1756.1461 605.95026
1751.5828 601.9452
1751.262 608.9101
1755.7905 611.357
1753.2483 616.3985
1751.1829 622.40924
1747.2485 619.937
1749.1343 613.98065
1746.3563 609.8214
1743.8365 614.26636
1739.5193 612.79065
1734.8983 613.0599
1730.1703 611.1625
1727.388 603.8374
1725.993 608.5622
1721.868 609.54675
1725.2148 614.9364
1730.6527 616.7682
1727.5948 621.12604
1722.3196 620.895
1718.0082 622.8697
1721.821 630.9752
1719.6204 635.13367
1716.5752 638.59125
1716.6836 643.22906
1719.7058 647.3909
1712.9985 646.9196
1710.6792 651.84656
1706.3748 654.57214
1703.4098 658.7021
1697.7539 661.3306
1701.4895 664.2798
1706.9766 664.5565
1708.4141 669.32086
1714.2466 671.6147
1713.0941 666.7977
1710.6962 661.0499
1717.6989 664.43677
1718.4153 660.02356
1713.651 657.08026
1716.5344 651.7993
1719.9323 655.9561
1722.3325 652.11456
1726.6598 651.25073
1728.7749 655.0071
1724.6724 657.58856
1728.9978 660.3756
1723.6428 663.00726
1728.4803 667.5238
1723.8052 669.29584
1718.876 669.56805
1718.124 674.88556
1723.0247 675.31824
1728.5708 674.9614
1734.2749 678.1348
1738.9844 682.48846
1734.7886 687.54016
1731.4979 691.5872
1729.0776 686.0244
1730.8717 682.0398
1725.0625 680.7882
1719.66 680.2691
1714.9115 678.6286
1712.0247 674.83624
1707.727 673.7157
1708.6394 677.8813
1705.1545 681.00507
1702.4962 676.78766
1703.1941 672.6314
1701.8539 668.9224
1696.9233 668.85944
1692.1079 669.96344
1691.9994 664.58765
1692.3965 659.7393
1687.7057 659.5707
1684.6494 663.3497
1679.4509 661.78
1675.8853 667.32153
1670.099 667.53687
1665.2512 665.11633
1663.5688 659.2918
1669.4038 660.40125
1674.4961 661.3211
1672.9358 655.3787
1665.9022 654.21405
1668.1226 650.49536
1673.6941 649.8829
1678.7283 644.72253
1674.6359 643.0226
1672.6317 637.7511
1672.0787 632.5449
1677.8125 632.5223
1678.4875 637.62427
1682.5874 639.6666
1686.9957 641.67944
1683.8196 645.64
1678.6735 649.9779
1678.4395 655.24585
1682.7356 657.1416
1684.0961 650.50793
1686.6483 654.2682
1691.0541 653.83734
1696.5624 656.2245
1695.5685 650.9407
1690.1372 647.9146
1692.3572 642.6091
1690.2162 637.4029
1683.9053 633.4448
1689.5609 632.25946
1695.1968 633.8683
1699.886 631.5479
1702.61 636.25604
1704.0538 641.38196
1697.6864 639.4867
1697.858 645.43555
1701.1366 651.2453
1705.7866 647.02155
1710.4692 641.86945
1709.894 636.63135
1705.3301 631.8702
1710.1377 631.21826
1715.0723 632.2545
1712.4573 623.3542
1708.1355 622.32446
1714.8083 618.955
1718.0403 613.06195
1714.2385 607.53546
1719.0359 603.3778
1722.476 596.6674
1716.3466 590.97845
1710.7123 587.0547
1704.1694 584.2346
1697.1932 591.0683
1693.5105 588.32513
1689.4263 588.3899
1685.1428 589.1718
1680.9886 586.36896
1675.8866 584.54114
1675.7756 592.5646
1680.4187 592.7697
1681.2533 597.5138
1676.3291 599.6644
1671.6309 598.06635
1670.9158 593.3663
1670.8958 588.08966
1665.5754 591.9138
1666.3372 597.10016
1661.421 596.05725
1658.9994 601.93115
1654.4834 604.17975
1657.0576 608.60645
1662.6567 607.9023
1665.1035 603.54016
1670.916 605.3968
1676.4258 606.32275
1681.1849 604.1519
1685.515 606.7493
1686.3118 601.20984
1685.9536 595.3023
1690.591 592.9423
1691.1299 597.70764
1695.6925 596.00946
1698.9277 600.6623
1701.3352 594.3511
1706.0398 597.09735
1704.6482 603.30695
1701.0372 607.22107
1710.8181 602.2173
1708.1726 608.59937
1712.6179 613.6881
1707.9038 616.25214
1703.625 612.4712
1701.6921 617.115
1703.904 622.4506
1699.5846 623.31934
1695.5132 621.80963
1692.8202 625.2331
1689.2666 623.17017
1691.246 617.4093
1691.178 613.1978
1697.187 613.936
1695.8992 606.4351
1691.9315 602.92664
1690.6562 608.0701
1685.2587 612.7057
1683.066 617.3062
1684.9933 623.3268
1679.7261 623.36206
1673.1013 623.8301
1675.2847 618.29834
1679.589 611.92126
1674.2212 613.238
1668.0352 611.3978
1662.2632 614.7789
1668.3497 617.26294
1665.6895 623.6661
1666.2535 632.7964
1663.1404 637.8956
1666.9186 639.7223
1669.095 643.04926
1670.343 646.66205
1664.1179 646.4558
1658.337 641.52264
1654.0581 638.33014
1649.9019 641.5563
1644.0696 641.77716
1639.4113 641.0884
1635.3094 642.7861
1632.4595 639.96625
1635.8882 637.3641
1638.0897 633.28455
1636.5374 628.65546
1644.0166 631.8251
1641.1349 636.4342
1645.8568 636.9754
1649.7328 633.6508
1654.8867 632.3224
1659.7917 633.90564
1655.9878 624.21185
1660.1604 620.3712
1656.148 614.14886
1652.9884 618.9721
1650.3114 613.94403
1647.7015 610.4949
1649.561 606.1962
1647.913 601.94617
1650.5558 597.51904
1648.5187 592.5477
1652.9517 592.12
1655.7178 596.3771
1658.3674 592.03705
1660.6389 587.8723
1664.6165 584.54767
1670.0035 583.95
1669.8551 577.1499
1674.9708 573.3389
1681.5582 576.9451
1688.2806 579.7564
1696.602 582.087
1706.6385 573.6244
1713.0123 576.50574
1718.6699 577.63007
1724.0518 577.969
1725.0481 583.23114
1730.0698 587.38794
1732.3667 582.59985
1730.3285 577.4173
1737.4238 575.8829
1733.4141 569.7082
1731.9426 563.2532
1737.9088 563.4924
1742.0208 568.8213
1748.1085 567.39886
1750.1772 572.5431
1752.5303 578.50165
1758.3967 578.39435
1765.1638 586.7677
1756.5181 589.4061
1753.1729 585.5511
1742.1973 583.2523
1736.1576 587.4515
1733.5176 591.81537
1738.0165 592.2226
1742.0392 594.7236
1745.853 599.1018
1748.9801 595.18823
1753.5648 596.13055
1757.9778 598.1939
1760.069 602.10565
1765.4812 598.8346
1770.095 600.5094
1776.8984 598.2913
1771.9939 592.8638
1772.1327 586.8771
1769.8936 583.0209
1771.8326 576.77576
1765.7825 577.45197
1768.1919 571.8522
1762.9109 571.29095
1759.6793 573.5565
1755.2488 574.71655
1755.6245 568.7361
1753.451 562.266
1761.6724 562.13617
1766.2839 557.91833
1769.1923 544.5561
1760.8035 542.8019
1754.3428 546.7566
1748.2981 546.3895
1743.7059 550.3567
1742.192 556.295
1748.388 557.62866
1744.593 562.415
1735.4697 556.55225
1736.7932 548.9967
1727.0101 549.31836
1721.9697 551.1005
1717.1022 549.7732
1716.3491 540.917
1709.8145 540.1682
1710.1655 533.43005
1716.7548 533.46735
1713.5297 527.6688
1718.0009 526.6506
1722.4835 526.93494
1727.6033 526.5779
1732.6737 522.0304
1733.8145 515.8841
1727.4187 517.1898
1722.1351 515.63196
1717.8856 519.39825
1715.7518 513.44476
1710.7275 516.46735
1711.5446 519.9704
1709.6118 523.9129
1708.3518 528.02405
1703.9531 524.3286
1703.9451 529.52734
1704.8611 535.9448
1701.5095 540.27576
1698.1514 550.24243
1704.6548 550.4601
1707.5248 556.8666
1711.2888 551.4027
1716.514 555.03625
1718.657 561.3118
1720.9519 566.4154
1723.4769 572.2437
1717.5376 570.89484
1711.334 569.4926
1714.4724 565.00916
1712.3391 559.91113
1705.6268 564.7618
1701.3647 558.75854
1695.0642 558.33716
1694.6838 565.24414
1700.5076 570.221
1693.296 571.54913
1686.9297 571.044
1686.6293 562.86816
1679.4833 560.8289
1680.3452 568.9398
1673.4858 566.2154
1667.9316 570.1293
1662.4252 572.0336
1659.2021 576.52893
1658.0007 583.1301
1653.2135 585.726
1646.9188 584.85516
1639.6782 588.6971
1644.209 590.93195
1643.565 596.4631
1641.3962 602.4733
1642.0513 607.963
1641.6992 614.99786
1646.497 618.1994
1647.9722 624.0163
1640.3945 622.6139
1632.9233 622.0819
1626.5555 619.3011
1621.1792 613.2736
1611.6038 614.33417
1617.3209 618.1195
1619.6 624.02844
1610.9211 622.3943
1604.4392 623.7791
1599.2554 620.7842
1604.3813 616.0999
1604.1967 609.44977
1612.0055 607.9106
1617.2229 605.48254
1623.5067 606.4317
1629.0247 610.0532
1634.9155 614.1677
1635.2181 605.0864
1629.1927 601.65045
1630.7638 595.22144
1636.9062 596.5172
1633.227 590.02765
1634.3843 584.104
1627.6396 584.3364
1632.3921 576.8954
1640.5576 580.52625
1648.1582 577.4882
1654.455 571.8073
1655.2698 564.53357
1660.5549 565.88794
1666.1692 563.44543
1672.8387 560.1354
1667.7773 557.48785
1661.206 557.9627
1654.9961 557.352
1652.2393 552.76227
1646.8369 551.59546
1646.1233 546.0646
1651.826 546.3684
1657.2289 547.237
1660.781 536.66516
1665.0674 531.04706
1661.1549 529.33795
1657.3047 532.6097
1652.7354 535.5108
1650.4729 529.0518
1655.1506 526.6756
1659.2101 523.74976
1664.219 524.7409
1668.5251 524.13226
1674.77 523.03955
1682.417 524.44867
1687.9094 526.5483
1693.6993 525.8681
1698.714 525.55206
1689.6039 522.7153
1685.691 516.6645
1691.8752 516.85205
1698.8589 518.389
1704.5997 517.9568
1708.7727 512.99
1703.6498 512.89886
1698.8971 510.6602
1696.4707 514.00653
1691.743 510.6685
1687.3938 507.662
1681.4863 507.16086
1682.8586 512.1525
1678.7903 516.9918
1675.9373 511.66803
1675.4944 506.76492
1664.6643 506.15912
1669.8569 508.61133
1672.427 516.51984
1667.2946 515.04456
1662.3062 515.95374
1656.3749 516.2711
1660.2751 511.01266
1657.7518 504.5827
1650.0886 503.40015
1655.3422 507.87802
1653.3734 511.37878
1650.8114 515.0249
1651.3022 521.39886
1646.6428 525.01465
1645.9934 534.1653
1638.8484 532.8681
1642.2247 528.5637
1640.4231 523.40045
1635.7278 526.2727
1631.0706 523.24524
1631.3033 530.21454
1631.4534 542.4155
1629.7452 548.47235
1623.6006 550.0853
1629.3191 553.952
1631.5737 558.9248
1635.8646 554.493
1635.5012 547.3562
1640.2352 544.3524
1640.834 550.09906
1641.8262 555.85266
1646.8258 558.331
1649.856 563.3708
1642.7368 563.1065
1636.8368 562.0097
1629.4269 562.95013
1623.1442 562.0118
1625.0977 557.2264
1619.7109 556.9167
1617.0072 561.0503
1612.3215 561.38184
1607.3816 559.43317
1611.7341 554.3668
1617.734 552.7576
1617.0966 547.45935
1617.7018 541.3681
1624.4702 543.0254
1623.8163 529.79004
1625.8553 524.4496
1617.1558 528.52856
1611.1825 528.9719
1610.5685 540.32043
1610.9407 546.39233
1606.8447 550.3369
1603.0563 546.687
1604.3364 540.6769
1604.7172 528.3118
1607.556 523.9045
1613.2932 522.4284
1619.8173 523.34784
1621.279 515.83527
1627.8381 516.2322
1634.2368 517.0005
1637.0278 513.3752
1640.8054 516.12305
1645.7817 517.2326
1646.8136 513.01746
1643.7288 511.01492
1640.0026 509.5179
1636.0103 509.16708
1631.1543 511.12906
1624.122 510.7896
1619.2754 505.93842
1626.456 505.39233
1631.3403 503.7137
1634.9103 505.97156
1637.5776 502.73746
1643.2422 506.27335
1648.8556 508.23004
1643.3479 502.3184
1659.1432 429.45657
1661.8639 424.99432
1666.8226 423.75342
1667.4377 429.16858
1672.4341 424.7522
1675.8582 429.57623
1684.5486 430.37006
1685.9764 425.04468
1692.0272 427.8281
1698.295 427.21063
1704.2256 429.1656
1709.3558 426.2129
1713.356 430.3906
1717.8142 425.70447
1720.1924 431.59613
1725.2317 434.29504
1731.1067 434.59195
1729.4199 428.2234
1724.269 425.72977
1718.1807 418.61136
1712.7815 412.2903
1709.4277 417.52518
1703.6013 412.42828
1699.3323 417.55124
1692.7997 415.6547
1687.1626 411.49796
1685.415 416.29892
1679.5378 425.79916
1677.8265 420.09546
1673.592 415.74332
1680.1953 413.56644
1675.0781 411.24988
1669.2465 411.69193
1666.7229 414.96942
1662.5773 409.37604
1661.9016 413.909
1657.4869 414.75012
1654.8801 409.9656
1651.8938 413.95782
1646.8798 411.71878
1641.8264 407.77597
1639.581 413.32986
1632.3601 412.05917
1635.6481 422.85178
1642.7882 423.33353
1649.4758 423.68863
1656.1544 423.8811
1652.9518 428.38
1646.4661 428.00482
1639.8783 427.77902
1632.5569 428.00827
1628.4402 423.57224
1624.5605 428.64282
1622.6224 424.66162
1621.4161 421.2122
1617.1144 423.718
1617.2421 428.61218
1611.5758 425.1305
1611.2585 421.69403
1615.2446 412.308
1625.1565 412.576
1625.3921 407.22476
1619.1686 409.65756
1611.0397 407.138
1609.1798 412.54282
1603.3259 410.1581
1596.4177 410.34207
1589.3104 412.54398
1588.2363 407.6889
1581.8662 410.59467
1576.2611 411.56268
1573.8186 406.45697
1570.2717 412.08945
1565.211 409.02054
1563.952 413.0649
1558.2188 408.6049
1558.1776 413.47067
1552.7539 413.0035
1548.7288 409.8526
1541.8577 408.84253
1535.2736 404.05252
1535.4368 412.66196
1540.0844 413.51953
1545.4922 413.72318
1550.6277 422.45
1546.7382 424.16373
1542.2861 422.73294
1537.2815 423.03824
1536.8478 426.49084
1537.5162 429.4924
1542.0272 426.84235
1545.8496 428.87512
1551.585 427.85184
1557.3447 427.72165
1556.3105 422.83667
1563.5311 422.78482
1562.6643 428.09305
1568.6044 427.4008
1572.172 422.5467
1575.8419 427.8452
1582.1918 423.09863
1583.6757 429.2742
1591.7107 429.59186
1592.064 423.14227
1598.8676 427.44293
1604.0195 423.10358
1605.3352 429.5147
1611.4546 429.25784
1612.4827 504.86447
1605.573 505.7842
1602.7778 512.1397
1610.0657 511.20404
1615.49 514.1322
1607.3718 517.49536
1600.5374 518.88354
1600.5712 525.3356
1595.473 527.97845
1594.4456 522.1329
1594.2852 516.51263
1590.5448 512.4186
1596.7306 511.6623
1598.9442 505.5137
1593.3884 506.7654
1589.5836 504.81415
1586.5812 507.48416
1580.179 508.90854
1574.2461 510.93985
1569.2845 510.2851
1569.497 516.05597
1576.489 515.5757
1581.7565 515.45105
1584.8113 511.39594
1587.2705 516.45306
1586.8722 521.666
1590.3118 525.2853
1587.6709 528.65295
1582.3221 526.8706
1579.8989 521.65155
1575.2332 528.60516
1573.764 523.1224
1567.593 523.2361
1565.7129 529.2543
1560.713 524.5219
1555.3872 525.8663
1554.6088 531.3364
1547.4308 533.467
1548.4922 527.50214
1541.3031 524.893
1548.0067 521.43274
1561.3171 516.6646
1564.1869 511.21576
1557.582 510.79013
1553.219 514.8383
1546.9348 512.18176
1539.3145 510.7578
1539.7386 516.4654
1532.002 515.305
1531.7073 510.00192
1524.5701 509.44006
1524.8727 515.3586
1519.3567 517.65607
1517.5232 513.00336
1517.4109 507.94528
1511.3271 511.35895
1513.0397 517.2421
1507.1165 517.0296
1502.1025 515.55133
1504.5828 510.6901
1508.2958 506.7267
1498.9026 506.84332
1491.0345 507.84048
1497.3099 511.78583
1498.169 518.0302
1492.2407 516.1705
1484.738 517.7734
1478.6631 516.46375
1479.048 510.3649
1486.1371 512.7185
1483.7916 506.53094
1474.0769 507.0468
1466.7166 507.28003
1467.741 511.47565
1472.9177 512.6498
1473.1873 517.91876
1467.8064 516.9399
1461.9689 518.0465
1462.492 513.2727
1461.4036 508.38702
1457.4697 510.8268
1456.0994 514.9656
1454.0417 508.25647
1450.5176 511.82346
1445.2374 512.28143
1434.8585 508.39822
1434.4966 514.2171
1439.5441 513.06195
1440.8273 518.37695
1448.1539 518.18365
1454.8784 519.073
1457.0996 528.2979
1449.969 527.5368
1442.3799 525.82996
1433.6162 521.6842
1430.5681 517.322
1428.2252 511.52338
1430.9158 506.7551
1433.959 501.32916
1435.0228 496.3058
1436.8302 491.67804
1436.4442 487.20523
1440.6425 485.95877
1442.8453 478.4932
1444.9089 473.29547
1447.6528 468.54984
1445.2302 467.09143
1446.1926 463.89667
1448.4324 460.52032
1449.3628 463.79
1456.2905 463.28442
1451.7789 459.2617
1449.1189 456.9919
1449.2872 452.5272
1453.3251 454.21918
1454.0518 449.1262
1457.2996 444.08325
1459.9214 438.34402
1463.8859 434.09448
1464.9781 428.41968
1470.3569 431.18808
1476.2286 427.8849
1481.1866 430.51685
1489.8031 429.7915
1492.6177 424.74435
1499.5029 424.8243
1496.4371 428.85196
1499.4678 431.04443
1504.2786 430.432
1509.3975 428.9864
1510.2677 423.97437
1516.3757 423.79166
1514.2764 428.6688
1519.7793 428.9078
1523.2537 423.7385
1525.8158 428.50177
1531.0292 427.951
1531.2612 423.50064
1530.1598 414.74326
1529.373 410.45197
1524.8943 414.70764
1522.3413 410.95657
1518.566 414.12585
1513.3438 415.34048
1512.4347 410.82092
1506.3875 411.9628
1499.6831 412.00977
1502.8705 415.70132
1508.5193 415.81024
1504.8247 422.84265
1504.6613 426.3942
1497.042 416.56198
1493.4463 414.59308
1488.5417 416.00494
1482.6083 416.69836
1484.2274 426.26773
1476.3688 419.949
1478.4604 412.85025
1472.0028 409.0392
1471.0802 417.27332
1470.6348 425.43878
1466.026 421.43073
1459.1909 426.2511
1458.1729 431.5437
1454.416 437.53577
1451.4827 443.51566
1447.4836 447.9876
1445.8197 454.84055
1442.9669 454.62222
1444.4652 460.0688
1439.7751 460.38992
1438.9039 464.4736
1442.5826 464.9797
1442.7183 469.5308
1437.5873 468.70334
1435.0303 473.4725
1440.3407 473.10977
1438.2048 477.26855
1438.6133 481.83328
1432.753 479.08932
1433.4906 483.82224
1429.0106 485.3127
1431.8069 489.03445
1431.5713 493.11453
1429.4413 497.0054
1427.1139 491.86786
1424.1138 496.4039
1425.66 500.3576
1429.7609 502.10068
1426.1063 506.1384
1422.1855 504.01315
1422.0887 510.1559
1419.7501 514.70734
1425.7354 516.83276
1421.6218 519.6
1417.4667 520.8284
1415.8601 525.0539
1410.507 526.88293
1404.4856 526.8341
1407.5461 531.57544
1413.4641 535.465
1419.7408 533.67523
1421.7047 527.3382
1425.4182 523.49036
1425.9205 531.8206
1431.7279 532.9259
1438.2358 534.6508
1444.6619 536.4906
1445.5693 544.8827
1449.7443 540.1586
1452.8998 536.6961
1456.176 541.0779
1459.6598 535.12354
1463.5688 529.0929
1465.1707 535.7509
1470.0592 538.5117
1476.2456 534.4438
1470.6394 534.0103
1470.4967 529.8417
1468.5712 526.0179
1475.5685 527.97626
1481.7073 531.6454
1480.9962 525.6093
1487.8318 525.8528
1494.7306 525.65515
1500.4484 525.27747
1505.5205 525.07184
1512.2605 525.02014
1519.2515 525.489
1523.8643 532.273
1524.9402 526.04706
1529.8455 523.7947
1534.5677 525.9968
1537.3413 530.5468
1542.915 530.46265
1541.1405 535.5022
1534.6238 535.609
1530.1829 530.9943
1527.7751 537.2599
1531.4822 546.1273
1533.7952 551.85126
1539.8663 556.16064
1544.8263 553.2989
1539.9769 547.3341
1546.7341 545.1107
1550.2914 549.81445
1554.058 544.0605
1559.9583 543.0732
1566.6254 540.94965
1573.426 544.0692
1575.7156 539.44366
1581.0798 542.1765
1587.9178 539.7354
1586.3511 546.4123
1587.477 552.86017
1592.485 549.71
1592.4355 543.5511
1596.8793 539.0863
1598.692 543.42017
1597.106 547.8558
1599.3859 552.45416
1603.5968 555.17004
1601.7129 560.8644
1596.0193 559.99457
1594.3035 555.02844
1589.764 558.85016
1585.8923 561.65247
1582.6598 557.3277
1577.4404 556.17834
1581.0623 550.36633
1575.4966 551.1674
1571.1431 549.4139
1566.368 546.6616
1560.7999 549.6776
1555.2891 552.3252
1559.1976 556.2363
1559.8381 562.4119
1565.9698 562.13226
1564.3363 558.0208
1566.4307 553.1684
1571.1304 556.56433
1571.0402 561.53485
1575.9106 560.75543
1580.5037 562.66284
1580.7212 576.0967
1572.8845 575.1005
1564.5955 574.9554
1565.3711 582.6441
1566.3772 588.37756
1572.7114 586.82513
1572.922 581.4052
1578.7065 583.7557
1580.8743 588.87854
1587.433 586.22205
1585.027 581.8698
1589.7545 575.39154
1604.4537 575.2342
1597.6345 578.29443
1592.8806 582.83484
1590.6207 589.2351
1595.8367 589.0706
1600.0126 585.91534
1603.8302 582.64886
1608.8096 583.27954
1613.2924 587.69543
1614.7538 582.0079
1613.4509 575.199
1622.9026 575.43475
1621.3989 582.20734
1620.8489 586.95233
1626.0106 591.1639
1623.717 596.0112
1621.5833 601.2449
1618.2897 591.9165
1616.6678 596.5968
1612.2664 601.1713
1606.5103 603.6597
1603.2678 598.6519
1610.516 594.8611
1606.3354 590.91315
1601.1364 592.97644
1597.4905 596.45874
1593.7667 601.74866
1592.7699 596.68225
1591.9424 593.1941
1585.3069 592.70557
1579.9683 596.0548
1574.4006 593.1443
1567.9982 595.2378
1562.2277 594.34015
1562.835 601.2966
1563.3105 607.25586
1557.9077 606.2654
1558.3484 611.69
1559.4489 615.3925
1563.4651 616.5048
1566.9387 612.47473
1569.1141 605.1931
1572.4614 599.46564
1576.7384 603.7791
1575.1345 608.7505
1573.4222 614.1779
1579.162 613.6536
1581.48 618.67926
1584.769 613.7899
1583.5576 607.7128
1582.0637 602.2507
1587.1926 597.0146
1587.5875 602.56573
1591.2488 606.7942
1598.6125 605.0675
1597.3492 612.7334
1590.7616 612.67566
1588.4677 617.8516
1594.5117 618.43866
1591.7114 623.8095
1585.2543 623.79486
1579.0977 624.17053
1588.1321 633.91016
1581.963 633.3332
1575.8098 633.83905
1569.9287 633.6845
1564.1113 632.83014
1559.2614 635.7918
1565.5022 639.1161
1571.3674 640.87024
1578.0138 640.51575
1583.8049 640.24603
1588.9148 641.14777
1593.8036 640.50934
1594.272 634.0172
1597.888 628.1176
1601.083 634.6769
1599.1182 640.8359
1605.2507 640.69086
1606.8038 633.3444
1613.3035 631.7138
1612.5176 636.46063
1610.7529 641.25433
1616.3501 642.2933
1618.1322 638.0254
1619.8262 632.76605
1626.7844 630.1896
1632.4371 633.12354
1628.8618 636.4919
1623.9877 636.52515
1628.1885 641.88434
1622.6273 641.76434
1618.0992 653.23773
1614.0295 657.6731
1606.9462 658.6877
1607.5116 652.87946
1597.3833 652.3331
1598.0664 658.2414
1591.8572 657.87
1586.5933 657.33093
1582.0378 654.4246
1576.4922 659.20306
1574.811 654.2292
1565.1279 656.18225
1561.5801 642.2323
1557.2062 639.671
1553.1304 642.1685
1552.0336 637.2952
1548.0571 633.7415
1552.6656 632.2371
1557.8398 631.84076
1561.8081 625.1741
1567.9421 624.2745
1572.7023 624.49164
1575.3872 619.98157
1570.3982 617.8424
1566.75 619.1061
1563.9775 622.5837
1559.4976 620.0996
1557.2189 624.5055
1550.7084 624.4626
1543.4365 632.3229
1537.884 631.08606
1537.9354 634.5613
1533.0856 635.64874
1531.741 629.1355
1537.4265 623.6289
1542.1537 618.50714
1544.4323 623.8615
1549.1357 619.5198
1554.4956 621.1438
1553.6152 615.5664
1553.3169 609.6309
1551.036 605.34735
1545.544 604.2777
1541.7909 608.0069
1548.3097 610.5996
1547.4713 615.3779
1542.8375 613.0923
1537.5763 614.09235
1530.876 613.73755
1534.6233 618.3969
1529.9939 621.2205
1525.5079 623.73145
1519.4727 623.91565
1520.0253 618.6741
1524.8004 615.514
1524.2043 609.8325
1528.724 607.30194
1530.5793 603.1387
1524.7421 601.67017
1521.1418 605.4459
1516.3064 607.2571
1518.0005 613.6931
1512.5612 613.19073
1512.1631 618.0614
1513.4016 623.6218
1506.8699 623.83734
1505.165 618.4042
1507.3326 613.43964
1507.0743 607.5215
1502.3752 606.2354
1499.8673 601.6697
1501.856 597.1136
1500.3298 592.5802
1500.5211 587.37744
1505.9144 585.88995
1508.2219 589.7713
1511.0771 594.6237
1516.5338 592.42993
1515.0039 596.9284
1506.7292 595.739
1506.4661 601.8197
1511.3822 603.0334
1511.6316 608.25085
1516.5728 601.8485
1520.768 596.10803
1523.5935 591.8355
1526.5616 595.72815
1529.9906 591.2885
1532.1218 595.7079
1535.5825 599.62445
1535.0641 607.69354
1539.1588 603.68866
1541.8973 598.8327
1541.9115 593.6134
1549.4307 600.3167
1555.6985 602.2762
1556.3923 597.21954
1551.2806 594.355
1546.5935 594.20074
1543.9963 586.3665
1537.5492 592.42206
1534.7438 588.1794
1530.979 585.6436
1537.3741 583.7605
1541.1217 577.9742
1548.1506 579.78235
1551.709 586.38727
1556.672 591.82404
1559.2036 585.3836
1555.5037 578.4769
1553.8782 562.14777
1550.3861 556.8873
1546.5226 562.1694
1540.1376 564.1009
1535.9778 560.90234
1531.022 557.5007
1525.0508 559.77985
1522.4927 565.8336
1516.5989 567.3565
1518.8724 560.8233
1513.5613 560.27875
1512.1001 564.6797
1510.2504 568.6234
1505.6439 567.10046
1507.5814 561.62427
1502.3153 563.0518
1498.5676 568.1667
1497.002 563.31116
1493.1827 558.31055
1491.5215 562.10156
1488.113 564.7673
1493.0542 568.00977
1491.171 572.6303
1497.4993 573.57874
1502.3165 571.33795
1506.6487 573.0321
1511.5576 572.2647
1515.5428 572.6906
1520.5583 572.0737
1516.6653 577.3774
1520.9022 581.1229
1525.2899 582.35315
1525.0063 575.4199
1527.0293 569.7228
1530.9778 564.88
1533.8778 570.82404
1531.6973 575.6207
1529.8397 582.3004
1526.4445 587.47565
1522.803 585.6639
1519.6394 588.48987
1517.1741 584.4217
1513.9238 587.9362
1511.6368 584.05774
1511.1554 577.0949
1506.5131 578.3235
1501.6453 577.822
1495.7727 580.93756
1487.7971 582.808
1485.7661 573.64856
1486.6157 569.57086
1483.3887 566.3192
1481.9485 561.4745
1480.3379 556.1244
1486.6648 558.69
1490.8436 553.6776
1488.4111 547.4781
1485.4752 552.831
1480.2526 550.0015
1478.701 542.58093
1485.2803 538.9463
1480.6768 537.97845
1475.3427 539.6744
1471.3444 542.7979
1466.0386 542.2298
1461.3346 541.41895
1460.0201 549.208
1466.549 551.6339
1472.5701 551.17017
1474.5688 555.6583
1470.7098 560.6754
1476.37 561.7337
1473.6489 566.97943
1478.7927 567.094
1479.3999 571.7269
1481.9961 575.57324
1477.344 576.8549
1472.9147 578.9493
1473.494 572.92566
1469.5149 569.4566
1467.5123 565.671
1464.015 563.51953
1460.7686 569.4949
1464.635 571.02814
1468.1682 573.98535
1468.4529 578.77734
1465.3013 583.06116
1462.9442 576.53534
1457.0853 575.8319
1454.5356 581.5666
1460.1069 582.08746
1457.9316 587.49835
1451.5564 587.0295
1452.6018 592.22144
1447.1246 591.58014
1446.4567 596.55505
1440.7477 599.98413
1434.794 605.16785
1434.6155 610.8111
1439.609 611.0202
1445.0095 612.2158
1445.9225 616.9624
1443.739 622.2688
1440.0059 618.7881
1435.8395 616.45294
1430.137 618.12335
1432.1792 622.6891
1436.5813 625.3944
1430.0387 629.9953
1424.6671 636.2137
1422.6907 631.96936
1424.9266 626.7869
1425.5001 621.62714
1419.2917 624.85876
1418.8596 620.70386
1413.8877 619.418
1411.5856 622.72534
1409.0587 627.0263
1404.7572 628.7682
1402.0452 633.75867
1397.2356 634.4542
1391.8679 631.7889
1387.4069 626.8759
1394.1896 626.2416
1399.4531 628.33655
1397.7642 621.3747
1403.0956 624.0196
1405.8265 620.8044
1405.286 614.9781
1400.3516 615.9205
1402.7736 609.9576
1405.2782 605.49896
1409.978 606.9312
1413.2867 609.9626
1416.6752 606.71497
1423.5315 605.4751
1425.3693 610.36096
1420.9133 609.90857
1417.1581 611.9097
1408.9275 611.8106
1409.2328 617.6082
1412.9099 614.75323
1416.8796 616.3666
1420.9248 615.77185
1425.0526 615.90326
1430.109 613.51746
1429.7358 608.41437
1429.0605 603.08417
1435.1833 599.8493
1441.4879 594.6136
1442.8652 585.0936
1448.7753 577.8102
1446.4677 570.72504
1452.9379 570.7316
1454.9963 562.7571
1449.5735 564.0237
1443.3488 565.8548
1438.6847 569.088
1435.4923 574.12946
1436.4142 581.4877
1437.8254 588.94763
1433.0157 586.03564
1430.9569 590.3589
1426.2225 587.547
1422.2421 583.03375
1416.7952 584.72064
1414.9126 590.753
1412.8435 598.5702
1407.1962 597.26965
1401.5497 597.0562
1403.2126 592.0313
1399.7075 587.5811
1394.6484 587.953
1390.0553 589.92145
1391.3811 594.633
1396.8936 592.66626
1396.249 598.1356
1400.4169 603.3827
1394.8796 604.0835
1390.6372 600.55585
1385.9617 597.5166
1385.5024 592.5503
1382.2268 589.37
1379.6832 594.44965
1379.7682 599.5139
1383.4507 603.7414
1388.7588 606.53357
1382.3541 610.969
1388.9279 612.73724
1396.2454 609.67004
1394.3108 615.78326
1390.0088 620.12836
1383.9471 620.1704
1379.7156 624.57666
1381.1868 630.45087
1386.3312 634.3167
1381.1156 636.9764
1381.1782 642.1309
1388.1041 641.3436
1391.9213 637.5535
1396.0245 640.6989
1393.889 645.34326
1390.992 648.37164
1386.2716 650.69995
1385.1035 645.674
1380.3167 648.71643
1377.6643 652.86285
1382.2126 655.271
1386.2439 657.649
1384.7102 663.2626
1379.2954 661.46906
1380.0579 667.7192
1380.3645 673.4922
1380.4612 679.2059
1379.7394 684.2784
1377.5842 691.1039
1382.1558 693.6434
1387.0176 694.9766
1391.2103 698.25073
1391.8394 704.2305
1390.6937 709.3107
1384.7927 710.5031
1387.0557 714.45496
1389.9282 718.80457
1384.5992 720.2051
1379.0432 711.9488
1379.6992 717.1267
1379.6532 723.62213
1384.6113 727.3012
1390.355 724.35266
1397.8064 725.36633
1395.5529 720.26135
1393.9414 714.61237
1396.952 709.59406
1398.2051 704.5112
1403.1129 708.14215
1407.9857 709.36676
1412.9873 709.88135
1415.3331 715.0527
1410.4413 714.54724
1405.7522 715.65454
1400.241 714.32855
1401.5068 720.12604
1406.0469 723.09283
1408.7598 727.94617
1413.6907 724.5681
1411.6327 719.7464
1418.5209 721.4255
1424.5541 723.3179
1425.5459 719.70496
1429.2965 717.50574
1430.2947 723.5872
1434.0327 720.93274
1437.5199 718.0563
1433.2028 715.166
1433.8462 709.68646
1437.8995 713.2797
1441.6436 711.10486
1443.9814 707.6202
1443.3003 703.1933
1440.6731 699.72363
1436.6232 701.3889
1438.6362 706.78955
1432.6086 704.85516
1428.9623 701.3917
1424.6177 703.101
1424.1958 698.2831
1428.2764 695.6836
1432.6462 697.8692
1436.7917 695.5742
1435.2928 691.4646
1430.8542 691.15466
1427.2966 690.868
1424.1804 691.995
1421.49 694.627
1416.9578 693.2493
1413.8427 697.0398
1414.2334 701.3582
1419.0647 698.46893
1419.2756 703.1465
1422.24 707.50806
1426.9672 708.05536
1428.9913 712.05457
1424.431 714.55884
1420.0929 716.561
1419.7782 711.71643
1417.5637 708.0663
1413.948 705.4926
1408.7922 703.78436
1408.7361 698.23944
1403.4161 701.38257
1396.4889 699.9642
1395.0623 694.8776
1400.6842 695.86224
1405.5292 693.94684
1402.0089 688.46576
1397.5857 690.0497
1392.1206 690.6748
1388.0308 688.55994
1383.04 687.82825
1387.6917 682.3807
1386.8672 675.9412
1386.7786 669.5819
1390.5431 664.716
1391.1196 659.39685
1390.8928 654.0021
1396.1698 652.05646
1396.7145 658.53876
1395.9044 665.18744
1400.4858 668.963
1405.9979 669.5967
1411.2377 672.0769
1415.3098 667.0025
1421.4792 665.26953
1426.5466 667.003
1431.393 664.20996
1431.6564 668.5294
1435.8339 672.1032
1440.8854 669.3061
1437.0112 665.9743
1439.344 661.9793
1441.7749 657.95636
1446.0798 655.79755
1449.2135 652.77057
1446.1477 648.93463
1442.0737 651.8053
1437.293 654.74225
1433.409 656.8792
1431.2372 651.8925
1423.4417 653.96924
1419.9254 647.6369
1415.5 642.8481
1415.899 651.5016
1417.1637 656.2128
1412.3275 660.20087
1407.6234 662.76855
1401.6161 663.26105
1403.7411 658.0318
1402.0941 653.6498
1409.3235 654.07086
1412.4553 647.43225
1406.4122 647.56354
1401.429 649.20154
1399.4604 645.32764
1401.904 640.5673
1408.3663 642.3824
1411.9337 638.15875
1406.0928 637.3256
1407.3303 632.61896
1411.8074 632.5836
1413.9976 627.0879
1418.0312 629.6276
1416.4724 634.1526
1418.5394 638.04987
1421.6714 641.6726
1424.8776 645.9356
1426.6111 650.1674
1430.6531 645.15924
1427.0125 641.4823
1429.9681 637.23975
1434.5386 635.0638
1437.7815 631.11554
1442.8405 630.05255
1447.4835 630.5019
1448.4352 635.1521
1442.9227 636.0805
1438.8015 639.1578
1434.7489 642.0682
1436.2297 647.83887
1440.9049 646.09406
1443.4673 642.18256
1447.8386 639.66815
1447.8544 644.7288
1451.7788 647.25616
1456.146 648.2094
1453.4563 651.60846
1453.3591 655.97644
1457.0306 657.80695
1460.1154 660.9172
1464.6182 663.0219
1464.7058 667.6056
1462.3326 672.6799
1458.2344 667.97284
1454.847 663.382
1450.3662 659.195
1445.5144 662.0943
1449.809 664.92413
1445.7892 669.1534
1451.1962 670.78735
1455.5823 674.3738
1461.7963 678.12744
1467.7634 675.0451
1468.6183 670.6458
1471.5222 666.8043
1470.4587 662.788
1470.556 658.6396
1474.8295 656.8727
1479.534 657.096
1484.2325 656.97473
1485.9353 660.83936
1481.8308 663.2881
1476.4316 663.1659
1477.7351 668.8858
1473.4908 671.11346
1473.7529 674.9037
1481.7524 673.1762
1483.336 668.88477
1487.2059 675.3362
1477.9788 675.6943
1478.5537 682.68695
1482.1692 678.2613
1485.6304 681.52106
1488.4028 685.60254
1487.0944 690.3163
1482.7156 686.6968
1476.5625 688.433
1481.7051 692.1023
1488.7157 694.9748
1495.5872 694.9179
1497.5011 689.6685
1499.3555 685.44775
1492.364 689.9452
1493.384 684.4337
1492.1736 679.05145
1496.4965 676.1692
1498.7495 672.2326
1502.6748 676.6562
1507.868 674.30145
1510.8947 676.86176
1514.0841 671.76855
1510.0441 667.4224
1505.1992 671.0873
1504.9987 665.32935
1502.3447 661.12396
1499.4895 657.06696
1504.7373 656.32745
1509.1854 661.03766
1515.2706 665.2147
1520.6915 667.38605
1520.1865 673.24445
1526.8829 671.33
1532.7998 672.6774
1533.0797 656.0745
1527.3391 658.93964
1520.5338 661.00256
1515.5667 658.3894
1510.9905 655.60144
1507.568 651.37146
1514.4403 650.8049
1520.7053 653.43823
1519.5537 647.0322
1514.0994 642.7816
1510.1744 646.638
1505.5035 643.3707
1502.5902 646.8725
1502.4736 651.4515
1498.4321 651.49335
1495.9646 654.4963
1494.1938 657.4968
1495.7179 661.82086
1498.5948 665.1865
1501.1549 668.6558
1494.1049 667.74756
1491.7769 672.49396
1487.844 667.8903
1489.9518 663.6722
1490.7911 659.5241
1489.1301 655.50073
1493.0289 651.6778
1496.1643 647.9414
1496.5912 643.91864
1500.9434 641.49677
1497.1284 639.18774
1495.2333 635.58777
1492.8029 631.5838
1490.3374 635.64136
1491.8016 640.2666
1491.7109 645.2051
1487.7961 647.6811
1489.104 651.19934
1484.0613 652.7247
1481.6357 649.50757
1475.9363 651.7733
1476.9712 647.3526
1472.0842 645.86926
1477.9141 643.11566
1483.2133 645.06885
1487.1675 642.791
1486.5885 638.90314
1485.3794 635.28436
1482.0057 639.95953
1477.413 638.45526
1474.5679 635.5236
1472.2957 640.72656
1470.0217 635.73486
1465.2606 636.4594
1466.6066 641.62286
1463.1161 645.2654
1468.0284 648.34784
1469.8271 653.36676
1464.895 657.5948
1463.9369 652.363
1458.8628 653.5567
1460.236 648.58875
1460.3851 639.57495
1457.1921 643.23895
1452.2749 642.4791
1453.5265 638.25287
1455.3947 634.6159
1452.4922 632.38983
1452.1696 628.8714
1458.1449 630.4246
1459.1288 635.1832
1462.8289 632.2867
1468.0526 631.04596
1474.6499 631.1326
1480.6245 630.72876
1480.5453 634.8967
1486.4313 631.4118
1493.6377 623.4284
1487.2886 623.10583
1481.0394 622.36847
1475.2684 622.5011
1470.8575 620.93695
1467.3838 623.60504
1466.5 619.0487
1470.4252 614.0652
1475.6842 615.2292
1481.73 616.1256
1485.078 612.3752
1486.1218 606.98834
1483.962 599.44055
1478.2701 602.66705
1481.7646 606.2469
1477.6493 609.6678
1469.897 610.11633
1473.5924 606.43854
1473.3315 601.0134
1468.4567 603.0252
1464.5975 605.8108
1461.8821 610.88544
1463.879 613.5954
1461.2101 617.3263
1461.9681 620.87946
1462.183 623.95087
1456.8344 619.78986
1456.6365 614.9887
1451.0365 613.31464
1456.6191 610.0863
1459.5978 606.8601
1461.2498 600.6384
1466.9656 594.4326
1473.068 588.79565
1479.9607 585.3899
1479.871 596.9629
1486.5825 593.68475
1493.5667 589.3776
1493.032 594.70465
1495.5249 599.1498
1490.51 600.404
1487.0547 603.0418
1490.7102 607.7576
1495.6805 605.5586
1493.8102 612.9306
1489.7319 616.24585
1497.9844 617.19055
1498.6033 610.49097
1502.3441 613.6996
1500.1017 623.589
1499.1633 633.09564
1503.9956 632.1528
1504.0725 637.2947
1509.0221 640.87054
1510.5547 636.9409
1508.408 632.7564
1512.559 632.16943
1516.3892 631.6279
1515.5253 636.5849
1518.6222 641.22705
1523.6626 641.0714
1521.2515 636.78235
1520.023 632.46606
1524.6566 632.6195
1528.3597 634.86224
1527.884 641.2481
1532.0996 640.7911
1535.9987 642.3054
1538.6353 638.4818
1544.1354 637.5017
1547.4146 641.49084
1541.6431 642.2615
1539.1099 652.47534
1544.2015 652.85925
1540.8973 659.01996
1549.328 658.63654
1552.1062 653.3228
1557.7903 657.0767
1560.0918 671.83954
1566.0217 674.72345
1559.2053 677.62585
1557.9492 683.2486
1551.5337 680.76825
1553.2029 673.55914
1546.8124 677.22314
1546.128 673.6182
1546.0487 670.46375
1539.1659 672.4678
1539.1453 678.3314
1544.3239 681.43176
1547.052 686.45544
1544.4706 691.38983
1544.601 696.83813
1538.1626 696.62616
1537.8237 690.7122
1539.7294 684.9855
1533.1218 684.7867
1529.7478 689.96686
1531.408 696.1253
1523.9971 697.4324
1522.8065 691.96844
1523.5737 685.9237
1527.3463 681.36365
1532.9598 678.3775
1526.0283 675.91034
1520.9352 679.85175
1516.03 677.6983
1511.8538 681.085
1506.1271 680.63934
1499.504 680.66223
1505.5508 686.1821
1503.541 690.28735
1501.8959 695.0465
1508.2578 696.1247
1510.4454 690.95404
1510.9316 686.097
1516.6022 684.7466
1517.1642 689.8206
1515.7078 695.62445
1512.9875 704.4187
1506.2106 704.80005
1509.704 709.6177
1513.4194 714.43677
1519.0197 713.32825
1516.3481 709.1884
1519.6615 704.3903
1524.3118 707.4137
1530.5212 705.69666
1535.0338 709.60803
1541.1924 712.1231
1539.4006 705.56665
1546.5099 706.19617
1547.0171 712.54517
1550.3978 716.8318
1552.2432 710.576
1553.4891 705.4411
1559.137 706.021
1565.4038 706.3498
1570.9803 706.97235
1576.8921 706.68555
1582.2372 707.1418
1585.6617 711.7408
1580.8164 714.27826
1584.6737 718.7638
1589.0349 716.584
1594.3007 718.7026
1592.2795 723.68085
1585.4495 723.9831
1580.1676 721.3952
1576.8441 724.70044
1573.0073 720.90295
1576.1143 717.2356
1576.1733 711.72894
1571.183 712.2146
1569.7019 716.5032
1565.7274 712.8074
1561.9961 710.4276
1557.0386 712.76025
1556.1484 718.68567
1560.6472 717.2198
1564.6545 718.5317
1567.9066 721.22516
1569.315 724.9089
1562.2391 723.66766
1556.0573 724.73834
1551.9797 721.7616
1547.7845 723.66144
1544.2673 718.4439
1541.0288 724.26416
1538.4441 718.96594
1534.2972 715.8884
1534.0807 724.008
1529.1997 721.7553
1529.0491 713.21924
1523.6357 713.92285
1524.7589 718.9534
1523.2461 723.97534
1518.9136 719.2191
1516.0568 724.8809
1514.0583 720.45435
1508.4026 723.5482
1509.8495 718.95764
1507.3561 714.76135
1503.3894 718.15717
1502.4241 722.91315
1498.2015 725.5182
1496.6316 720.825
1492.6306 716.62427
1494.3206 710.83575
1498.5916 714.7949
1502.9286 710.78467
1499.8704 705.32654
1494.5934 703.2362
1490.7118 706.1199
1484.7037 701.77606
1485.6465 706.43024
1487.2985 712.0805
1479.9835 710.363
1482.2365 715.4006
1486.9423 718.0126
1490.4025 721.24493
1492.0704 724.93365
1486.079 724.358
1482.4182 720.7971
1481.0159 726.2204
1475.8236 728.13367
1473.3423 724.6837
1468.946 727.40344
1465.1426 723.739
1469.329 721.6023
1473.6432 719.2635
1477.9243 721.66486
1476.7714 715.27545
1469.393 716.0592
1472.1427 711.7239
1473.6974 706.75604
1479.4796 705.3344
1476.8148 701.0228
1471.0051 700.0756
1466.0354 697.58344
1462.5214 693.9237
1462.6965 689.5255
1469.1918 689.50354
1471.9438 684.4331
1474.6658 679.51697
1470.0532 678.8483
1466.1605 681.3624
1464.9905 685.5994
1459.2028 684.76624
1456.2323 680.0831
1452.785 684.9312
1449.9347 678.8175
1444.888 675.8992
1439.9724 674.5848
1437.2535 678.2144
1431.9598 678.85175
1426.366 681.0106
1421.4531 678.96545
1416.2809 675.3052
1408.8778 678.2471
1404.1174 675.8713
1398.6086 674.3334
1393.1593 671.3916
1393.4944 678.23773
1394.9338 684.52466
1399.9735 680.7814
1404.3967 683.4266
1409.4432 684.0684
1407.9744 688.7044
1411.4683 692.466
1414.79 688.0324
1413.4431 681.93225
1417.6295 683.52435
1421.7289 685.3214
1420.3644 689.60675
1426.4243 686.7591
1430.9319 683.8167
1434.2256 687.0054
1438.084 683.2978
1444.0939 682.40454
1447.364 687.3443
1452.731 690.8327
1457.4663 691.3178
1453.3918 696.5477
1459.2551 698.2363
1463.3098 704.0347
1468.0979 705.43726
1465.9701 710.811
1460.114 710.33575
1457.8945 716.06146
1462.8143 715.03766
1465.0547 718.7426
1460.739 721.23724
1462.6265 727.75116
1458.3448 725.87396
1454.0249 727.6603
1450.6075 724.6675
1455.379 721.60535
1453.1857 717.59143
1449.0409 720.23047
1447.6388 716.3894
1451.363 713.5373
1454.2816 711.1221
1456.2097 707.22015
1458.8138 703.7093
1454.0928 701.84546
1447.734 693.143
1441.0457 688.64197
1441.4154 693.789
1444.8833 697.3911
1448.9578 699.7274
1447.8608 704.0747
1451.7915 706.1457
1448.5903 708.7047
1446.8158 711.97296
1443.4963 714.6485
1442.4353 718.2396
1439.6085 722.50555
1444.9232 722.6892
1446.6685 727.53253
1440.9663 727.12946
1435.2164 726.7233
1430.459 732.81024
1428.5204 728.22754
1422.2712 726.6599
1418.5024 729.18475
1423.8795 732.1193
1427.4031 736.49585
1430.5642 739.3159
1430.1074 744.1229
1430.126 749.5148
1425.9408 746.53613
1424.8231 741.93555
1422.8007 737.62317
1418.0315 735.1828
1413.5219 740.6054
1418.5636 741.0522
1420.3833 745.7195
1419.5432 750.47205
1415.9834 752.9107
1411.0 750.86273
1414.0475 746.23834
1407.0531 746.50903
1408.2476 739.94403
1412.1036 734.9645
1413.782 730.1251
1406.6533 733.33386
1402.6572 729.018
1401.9297 736.65393
1402.882 742.7045
1397.1293 742.1727
1391.7311 743.2059
1390.8065 737.3425
1395.8347 735.93994
1397.5597 731.07654
1391.4589 730.03766
1385.8912 733.4438
1381.2598 737.62933
1385.6521 740.58075
1387.0717 745.93677
1386.6796 750.6802
1385.9434 756.03925
1392.4453 755.25116
1393.2151 749.2356
1398.7866 748.273
1398.8284 755.2951
1402.9923 750.9811
1406.3989 753.9526
1411.2904 756.80914
1415.4784 757.1127
1421.8281 755.86993
1424.4917 750.914
1427.7489 754.38684
1426.5261 759.07666
1422.7472 761.2704
1418.5065 759.2372
1418.59 762.99506
1414.2596 761.7174
1410.096 761.85126
1406.3976 758.22375
1405.3888 762.2771
1401.06 760.7705
1395.5769 761.62024
1389.2775 761.28766
1382.5626 760.6206
1377.5619 756.5568
1380.7942 751.5132
1374.7513 749.6578
1380.4154 744.8735
1374.3868 742.6023
1376.2958 737.2836
1373.3287 733.40204
1379.3119 731.08
1374.575 727.32544
1373.545 721.9055
1373.3767 716.79236
1373.6619 711.8793
1372.5219 706.9697
1377.2278 705.1438
1381.171 707.1291
1385.2114 704.81055
1386.8365 700.5927
1381.1868 699.89935
1376.6024 697.4112
1372.9111 701.0629
1372.4421 693.34784
1373.7291 687.0994
1373.6212 682.0515
1373.73 676.6895
1373.9208 671.911
1373.4934 667.2107
1373.1117 661.95807
1375.0409 657.6348
1372.5983 652.923
1372.8525 647.1575
1376.3938 644.4615
1374.0721 639.827
1375.1552 634.5502
1374.2546 629.8191
1374.2161 624.43756
1373.8699 618.3317
1378.9072 616.25116
1373.8594 610.8387
1375.5178 604.7665
1373.3295 598.78406
1372.3705 593.13513
1376.2297 591.14374
1377.9675 586.62384
1372.6931 586.883
1372.9349 581.1086
1377.8478 581.3972
1381.3148 577.7051
1375.9601 575.6543
1377.3746 570.5193
1380.535 567.84924
1382.7051 572.09064
1385.7426 575.44867
1390.1436 573.39557
1386.4779 568.55096
1383.9001 564.97455
1381.4436 561.49506
1386.1245 560.15424
1387.8578 555.8622
1394.29 557.75793
1389.4039 551.50055
1390.8152 546.32367
1394.5535 549.502
1397.5135 552.9117
1405.5964 552.39716
1406.7256 557.0231
1400.7584 558.5424
1398.8896 565.3952
1394.6743 563.60156
1390.0059 562.2333
1390.1741 567.1019
1393.8226 569.38165
1397.415 572.18677
1395.9584 577.1312
1391.3906 579.1943
1386.5481 580.5608
1382.4875 583.8325
1386.698 586.31335
1391.406 584.3278
1397.3097 582.459
1402.8577 575.9924
1417.7506 577.6351
1422.9448 576.37006
1431.2214 577.76117
1427.7366 573.9563
1421.8582 571.53375
1415.146 572.3042
1411.3048 569.1482
1410.3694 564.28436
1415.4045 561.2053
1417.7723 565.43304
1424.304 560.96313
1430.2075 568.83246
1434.2256 563.28174
1441.7333 561.7703
1439.8628 557.51776
1446.6428 557.0787
1451.9419 552.1398
1442.535 550.10126
1436.6781 546.37506
1432.0813 544.4807
1426.7454 544.1604
1419.5913 544.45886
1411.6504 546.7771
1408.5587 539.6177
1404.544 543.3393
1400.9482 547.36914
1396.3032 544.993
1397.6731 540.8165
1399.266 536.01263
1401.8202 532.01117
1397.3165 529.2449
1398.4847 524.92426
1392.3251 521.5639
1390.0818 526.12585
1392.5989 529.208
1384.3341 528.17084
1385.0009 522.72314
1387.1835 516.81494
1379.7728 518.803
1377.4539 526.1359
1369.6538 522.96295
1359.8264 511.75974
1368.695 496.80756
1384.1389 497.4179
1390.2936 502.17087
1396.8395 501.5351
1395.6067 507.71628
1386.6814 509.02322
1390.9552 512.03485
1395.1454 515.4365
1397.6893 519.63873
1402.3656 521.6586
1407.0986 521.1749
1403.8761 516.1266
1401.2454 512.6171
1401.6273 507.93387
1405.9747 507.86066
1402.5093 501.88828
1392.9772 496.24747
" />
</g></g></svg>
