<?xml version="1.0" encoding="UTF-8" standalone="no"?>
<!-- Created for Inkscape (http://www.inkscape.org/) -->

<svg
   xmlns:dc="http://purl.org/dc/elements/1.1/"
   xmlns:cc="http://creativecommons.org/ns#"
   xmlns:rdf="http://www.w3.org/1999/02/22-rdf-syntax-ns#"
   xmlns:svg="http://www.w3.org/2000/svg"
   xmlns="http://www.w3.org/2000/svg"
   xmlns:sodipodi="http://sodipodi.sourceforge.net/DTD/sodipodi-0.dtd"
   xmlns:inkscape="http://www.inkscape.org/namespaces/inkscape"
   width="3200"
   height="800"
   id="svg2985"
   version="1.1"
   inkscape:version="0.48.1 r9760">
  <defs
     id="defs2987" />
  <sodipodi:namedview
     id="base"
     pagecolor="#ffffff"
     bordercolor="#666666"
     borderopacity="1.0"
     inkscape:pageopacity="0.0"
     inkscape:pageshadow="2"
     inkscape:zoom="0.35"
     inkscape:cx="1600"
     inkscape:cy="400"
     inkscape:document-units="px"
     inkscape:current-layer="layer1"
     showgrid="false"  />
  <metadata
     id="metadata2990">
    <rdf:RDF>
      <cc:Work
         rdf:about="">
        <dc:format>image/svg+xml</dc:format>
        <dc:type
           rdf:resource="http://purl.org/dc/dcmitype/StillImage" />
        <dc:title />
      </cc:Work>
    </rdf:RDF>
  </metadata>
  <g
     inkscape:label="Layer 1"
     inkscape:groupmode="layer"
     id="layer1"> 
     <g>
<path style="fill:none;stroke:black;stroke-width:2px;stroke-linejoin:round;stroke-linecap:round;" d="M 
1485.6572 321.25284
1483.8204 322.482
1486.4458 319.2597
1483.8579 317.74945
1483.8264 314.44107
1479.8744 313.40262
1480.8962 317.08115
1483.1714 320.14374
1480.836 320.41608
1481.5415 322.71704
1482.2955 325.2807
1484.3812 324.88794
1483.2932 327.45364
1485.9958 327.14557
1486.2268 323.58856
1488.181 324.36438
1488.6967 326.9076
1490.3674 328.91257
1487.3843 329.93234
1484.1567 330.3494
1485.9702 333.48093
1487.5857 336.44507
1489.2122 332.5688
1491.6577 334.28583
1492.0154 330.9369
1494.0906 329.55212
1496.606 330.15424
1494.5592 332.48346
1497.0637 333.6682
1494.5404 335.97052
1491.5223 337.19223
1490.2163 339.21262
1488.403 340.38092
1491.0349 342.32123
1493.982 339.43832
1495.5876 342.21838
1497.3573 339.70395
1497.5201 336.90918
1499.8049 335.36905
1500.8934 338.65594
1499.4729 341.73392
1501.9983 342.3725
1504.1165 340.33093
1504.6099 343.43225
1502.9146 344.87378
1500.5161 345.68903
1498.1926 344.3252
1497.4196 347.3288
1495.3694 345.57523
1493.3936 343.83185
1491.7517 345.77695
1493.7922 348.17346
1495.7161 349.87686
1499.9517 348.59338
1498.4814 350.5625
1496.7761 352.41867
1498.7563 353.727
1500.8448 352.3872
1500.895 355.83365
1503.9458 358.5645
1503.1699 355.03543
1505.5139 354.70688
1507.47 353.66718
1505.3877 351.7675
1505.1687 349.11627
1503.0032 351.5613
1502.3402 349.29773
1502.7357 347.24582
1504.8053 346.45187
1506.8195 344.96146
1506.9879 347.2281
1507.7944 349.39145
1508.3373 351.6565
1510.4474 350.51804
1513.4343 349.5165
1512.5764 351.67178
1512.5234 354.24896
1510.5176 353.12695
1509.1322 355.26328
1510.599 357.18185
1508.7242 358.7022
1506.3495 357.39178
1507.196 360.8976
1510.9745 360.81924
1509.8315 363.37885
1512.2015 364.07782
1514.6823 364.6437
1512.7073 367.07346
1514.7814 369.96045
1515.9767 373.21576
1516.7506 375.73965
1517.708 377.96124
1519.3037 376.4186
1520.4658 378.45
1518.9587 380.38943
1517.1389 380.0824
1517.6553 382.72415
1519.7571 382.94806
1519.8378 385.21512
1518.0793 386.03745
1520.0774 388.65018
1521.6836 391.27347
1523.1805 394.09464
1526.217 393.62234
1528.4546 393.80032
1530.5109 393.65506
1533.6539 393.89685
1533.2219 396.7091
1530.9895 395.90234
1528.6572 396.57684
1526.1766 396.30743
1523.0856 397.32516
1525.0927 398.8499
1523.9701 401.77942
1526.011 403.8167
1526.759 401.4339
1528.1682 399.50262
1530.5737 398.578
1533.0916 399.59018
1535.2784 398.56946
1537.8369 399.00403
1536.8403 402.51498
1539.6194 402.2101
1540.7264 399.67233
1536.456 395.9233
1537.112 393.36493
1538.425 390.48682
1540.7178 392.81195
1539.7244 395.82
1542.0875 397.12372
1544.4846 396.93695
1544.2888 393.52914
1543.2601 390.64154
1544.5245 388.1391
1542.9565 385.49374
1540.8403 388.00925
1537.9313 387.22836
1539.3921 384.03177
1536.1959 382.758
1535.3993 385.4648
1535.0735 388.44116
1535.3519 391.20758
1531.1433 391.88504
1532.949 390.3997
1532.567 386.75577
1532.2372 383.42545
1529.4861 381.80975
1524.9117 381.70422
1526.7812 382.9001
1528.8188 384.4958
1530.0331 386.6465
1530.5433 389.22507
1528.1803 390.62134
1527.7053 387.14847
1525.6608 385.58237
1525.9656 388.60214
1525.1526 391.38275
1523.3751 389.27032
1523.3389 386.98602
1521.678 385.79684
1523.9886 384.0582
1522.2251 383.10907
1521.262 381.35907
1522.083 379.65634
1524.0464 379.81323
1526.6782 379.35092
1529.327 379.06464
1529.1387 376.26913
1525.988 376.26108
1523.3127 377.15198
1521.4177 375.5146
1522.3254 373.25208
1524.5284 370.38434
1524.8757 373.37988
1527.501 372.91986
1528.163 369.6578
1526.5496 367.55252
1529.7318 365.9395
1528.1383 364.11618
1525.6644 364.546
1523.1877 367.66833
1523.0836 365.34317
1520.5586 364.0829
1519.1183 366.1859
1520.0302 368.28403
1521.6262 370.02774
1519.8538 371.64005
1518.8105 373.91995
1517.2819 371.25714
1517.4913 368.6995
1515.6649 367.0763
1517.3236 364.0838
1517.5682 361.23602
1519.4933 358.54303
1520.549 361.17682
1523.3381 362.6457
1523.5065 360.18353
1526.3064 361.23297
1528.7367 361.32867
1526.0474 358.42548
1525.6586 356.0027
1527.75 354.9708
1525.744 353.07263
1523.7053 352.15906
1521.958 350.60495
1520.7297 352.55438
1522.9833 354.81555
1522.8212 357.8446
1520.6643 356.3545
1519.5808 354.57672
1517.328 355.91132
1516.2963 358.45993
1514.4635 361.62677
1513.224 359.044
1513.0511 356.64368
1514.97 355.36407
1515.0391 352.662
1517.5303 353.25836
1518.4617 351.21747
1518.3263 349.02493
1515.9076 350.18338
1515.626 347.2037
1518.3397 346.67987
1517.4999 344.53998
1520.9286 344.37283
1520.544 346.3658
1520.9579 348.68872
1522.8776 346.4177
1524.045 348.75464
1525.8672 349.91806
1527.2721 347.45663
1528.691 349.24097
1527.7277 351.08224
1528.3054 352.78287
1530.2933 352.93454
1531.0046 351.0628
1530.9703 348.81625
1529.9222 346.57098
1530.9017 344.47147
1532.5386 347.06693
1534.1418 345.89813
1535.6548 344.85025
1536.8397 343.54886
1537.8785 341.98587
1539.8433 340.8431
1541.9576 341.61533
1544.353 341.38263
1546.6544 342.11606
1544.7351 344.17282
1541.8766 344.2749
1539.65 343.62677
1542.8805 346.84238
1545.3202 346.61746
1547.0178 348.0169
1550.0422 347.54156
1548.0634 345.21405
1551.2303 343.85846
1551.3655 340.7651
1553.0859 339.03027
1555.309 339.49945
1555.1886 336.76007
1554.0889 334.0026
1556.8859 334.51425
1559.4297 333.66708
1558.3875 336.99347
1557.5117 339.55432
1554.0062 341.97736
1554.4028 344.51822
1552.8918 346.76077
1556.4645 346.39337
1556.9219 342.93942
1559.232 341.7654
1560.4409 343.80435
1560.0414 346.46094
1562.7107 345.34494
1564.2332 343.52258
1565.5966 341.47058
1567.6285 342.95468
1570.132 341.79898
1570.5732 338.73984
1568.1758 339.86584
1566.94 337.2573
1564.9221 339.07922
1562.4891 341.11743
1560.2327 339.33105
1562.2272 337.9829
1560.7644 335.92148
1564.0399 336.2029
1566.1067 334.25317
1562.4076 333.7615
1563.8961 331.78183
1566.2472 330.99655
1568.2029 329.38553
1564.7925 327.028
1563.2603 328.74792
1561.2169 330.4249
1560.5631 326.99863
1557.1307 327.83362
1558.8992 330.77625
1556.3223 331.5533
1554.196 329.7575
1555.2482 325.40756
1552.446 325.85675
1550.2839 327.66614
1551.6937 329.71793
1548.4768 330.42938
1547.0814 333.22266
1549.7754 332.91187
1551.8635 333.47733
1551.6975 336.9127
1548.9279 336.45084
1548.8972 339.6148
1548.9268 342.625
1545.9426 338.89694
1546.2302 336.23322
1544.7976 334.34045
1543.0651 336.50473
1542.8511 339.0695
1540.5688 337.98834
1538.4098 339.05402
1536.3639 340.15576
1535.1016 342.21036
1533.4786 340.8291
1532.9425 343.33197
1530.5995 341.72147
1528.4766 342.88184
1527.6342 345.10718
1525.1675 345.89255
1526.0 342.8694
1523.3141 343.42224
1519.8845 342.90387
1516.6542 342.37198
1514.6027 344.33218
1512.7847 346.82788
1510.514 348.3237
1509.41 346.28537
1509.1802 343.7312
1511.7081 344.21597
1513.6963 341.7418
1511.0868 341.05817
1508.2222 341.43542
1506.4193 342.34137
1508.6787 339.3675
1506.2278 338.30417
1503.7429 337.0062
1502.3585 334.82236
1500.3586 332.60666
1498.9386 330.95258
1499.0939 328.5211
1497.1194 327.51312
1494.8988 327.25037
1492.6616 326.88797
1490.8474 325.33966
1490.4863 322.71008
1488.2893 321.21667
1490.6375 319.94043
1489.2268 317.8454
1486.513 316.80927
1487.5615 314.49658
1489.6721 312.37198
1486.4622 311.1223
1483.342 310.67307
1480.1112 309.28333
1480.3278 305.54428
1485.4314 306.65042
1489.3242 305.53708
1491.373 303.57245
1493.291 302.50336
1493.8175 305.93015
1490.7299 307.5386
1489.0282 309.46323
1492.6559 311.4468
1493.0623 308.86536
1495.3431 310.40134
1494.5854 313.65826
1492.2122 313.994
1490.2748 315.3164
1492.2788 316.84137
1492.9742 319.2409
1493.1223 321.40454
1492.9634 323.7248
1494.9001 324.36505
1496.6737 325.12665
1498.759 325.5522
1498.2944 322.8671
1495.92 322.02475
1495.7268 319.82104
1494.5383 317.68997
1495.4463 315.7386
1497.037 317.57852
1498.485 320.11868
1499.2335 317.4564
1499.8506 315.00842
1497.3981 314.30536
1497.0382 311.66962
1496.5208 308.16013
1496.6438 305.1393
1495.4679 302.72626
1495.1089 300.2746
1496.403 298.0533
1498.4227 297.30795
1497.9857 300.02792
1497.9525 302.42987
1500.5356 302.74738
1502.2941 301.51578
1500.105 300.20483
1501.3115 298.46463
1501.0204 296.03107
1498.8857 294.77396
1496.6323 294.0628
1501.0894 292.7938
1498.7404 291.24945
1495.8066 291.4191
1492.8088 292.45132
1494.6361 295.3271
1493.8137 297.88593
1491.6031 295.6837
1489.8118 297.90097
1491.5104 300.0874
1488.3689 302.64688
1485.1554 302.17157
1482.622 303.15906
1480.5349 300.71393
1482.7505 298.54562
1484.4717 295.99298
1486.9558 299.58258
1487.2251 296.4606
1489.5876 293.3996
1485.8832 292.90192
1487.9053 290.9191
1490.8887 289.0147
1494.2709 289.18906
1494.3185 286.05545
1497.3042 288.163
1497.712 285.2305
1499.784 282.776
1501.4985 284.52277
1500.5443 287.91357
1502.5487 289.7074
1504.0464 285.58865
1503.6241 281.87924
1507.0143 280.52563
1506.7495 283.3432
1507.8887 286.03195
1505.415 287.72745
1505.6359 290.17252
1508.4448 289.51016
1510.9093 290.53568
1510.4203 286.8364
1512.7147 287.68832
1515.0211 286.56223
1512.9106 284.65625
1510.0963 283.16324
1510.239 279.3699
1512.8396 281.22324
1513.8108 278.08575
1516.5055 279.0157
1516.1606 281.19577
1515.1937 282.98828
1516.5891 284.38806
1517.9595 285.7958
1516.5785 288.0616
1515.1941 289.81024
1513.0381 289.92813
1514.0356 292.16684
1514.513 294.9514
1512.3212 293.97668
1510.1727 292.9264
1507.0752 292.58536
1504.0562 292.2567
1503.8857 294.5295
1506.6506 295.87622
1508.741 294.7588
1510.5375 296.74414
1508.518 298.42633
1505.8208 298.33914
1503.6256 296.7226
1503.3912 299.0002
1504.4529 300.547
1504.6317 302.66708
1504.1343 304.43
1501.8483 304.85693
1499.2643 304.85867
1499.0508 307.37128
1499.8645 309.80795
1499.4258 312.43167
1501.7075 312.00546
1503.3142 309.39017
1501.7343 307.3422
1504.4865 307.0094
1506.3107 305.4747
1507.9714 303.4767
1506.5417 301.14273
1508.7537 300.7891
1510.6621 301.46912
1512.3887 299.39322
1513.0767 297.0222
1515.4371 297.5814
1517.7496 296.46246
1519.5369 295.05634
1521.3953 293.69955
1523.8873 293.8783
1523.6497 291.95587
1521.7384 290.7089
1520.008 289.52615
1519.1141 292.24796
1516.8167 294.4584
1516.5332 292.12387
1517.7922 289.84085
1519.5411 287.3085
1522.1704 287.30035
1523.8905 289.17636
1525.2283 286.89975
1526.8749 288.81778
1528.1694 290.5342
1525.8734 291.6945
1528.6582 292.43134
1530.8961 290.60922
1533.5986 291.4287
1534.692 288.85666
1532.2686 287.52805
1529.8091 287.97778
1528.0311 286.2788
1526.8793 283.78943
1528.9994 281.97443
1526.084 280.18457
1523.5938 281.86456
1522.0815 279.81894
1519.75 282.89032
1518.9106 280.7929
1519.6426 278.4753
1517.4088 276.85846
1521.0295 276.4772
1523.8374 277.00934
1526.4685 276.507
1529.4263 275.8887
1529.2062 278.82315
1531.7476 280.55066
1532.3528 283.21545
1530.3917 284.83337
1534.1891 285.4085
1537.0797 286.5328
1537.5209 289.27823
1537.7341 292.21655
1542.2618 293.34366
1545.4993 295.21436
1548.3707 296.90656
1550.9379 298.2393
1550.672 300.87592
1553.0024 303.5327
1555.692 302.8219
1553.4507 300.5686
1555.2645 298.2832
1557.6963 300.503
1559.3339 297.83585
1556.327 295.28793
1552.8555 295.95245
1551.7172 293.60483
1548.7924 292.79465
1545.8289 291.3619
1547.4409 288.1257
1550.6533 289.92984
1550.5524 287.16046
1553.0499 286.2982
1551.5316 283.82654
1550.1544 281.52145
1548.3821 284.85565
1547.9288 282.0278
1545.2355 279.86554
1542.6084 281.38168
1540.5125 279.42157
1538.533 280.9799
1541.0392 284.05344
1545.3522 283.10483
1544.4403 285.79578
1543.6578 288.86182
1540.7231 290.4247
1540.3594 287.058
1537.3467 284.25375
1537.1853 282.21088
1534.6868 282.00064
1534.9313 279.22653
1532.404 277.69513
1532.5605 275.21512
1535.8154 276.01477
1537.8163 278.1028
1539.7012 275.91772
1542.8359 277.13437
1546.5073 277.14496
1548.1224 279.2831
1550.4508 278.21176
1552.2063 280.90723
1554.1942 280.1785
1557.2366 282.4526
1554.6188 283.87177
1555.0581 288.4722
1557.1414 285.97507
1559.9009 284.98505
1558.682 288.67844
1558.1161 291.58002
1553.2571 290.90265
1555.4349 292.29126
1559.4131 294.58273
1562.2264 294.01147
1561.1953 291.0668
1561.6042 287.55615
1563.7809 289.88846
1564.7745 292.5225
1566.759 294.54672
1565.0988 295.77908
1566.3822 297.83575
1568.5609 297.1996
1568.4113 299.9416
1569.652 302.16937
1571.3683 305.49512
1567.7872 304.19513
1564.9314 305.3478
1567.7559 307.5404
1570.2959 308.8086
1573.0256 309.2488
1570.5588 311.85504
1567.9116 311.16983
1568.7666 314.01242
1566.1674 314.1075
1563.6931 315.48138
1563.8722 312.4168
1561.7755 311.6475
1565.4875 310.49707
1564.4983 308.01785
1561.5114 305.61755
1564.1335 302.75577
1565.2773 300.1808
1562.742 297.13016
1561.9022 300.16547
1560.3724 302.55585
1558.4169 304.4321
1556.6073 306.2524
1554.2375 306.1849
1555.1593 309.23047
1557.0745 310.99744
1558.6843 308.06662
1561.7761 308.72385
1559.5647 311.1024
1561.1388 314.4179
1561.6477 318.21402
1559.6846 316.70407
1558.0372 314.1455
1555.3004 313.09894
1555.289 316.26855
1557.4993 317.87015
1559.3701 320.6806
1556.5981 322.3235
1555.0448 319.6487
1553.5032 322.60822
1558.6702 324.36612
1561.6814 323.83536
1563.1245 320.4796
1564.6268 317.98642
1566.7534 319.49805
1567.1111 321.97415
1564.0311 322.70755
1565.6448 324.45743
1567.6912 326.18802
1569.691 323.9613
1571.2941 321.86313
1569.4258 319.79733
1567.02 316.8375
1569.1931 316.6024
1571.1833 317.56778
1571.3778 315.0172
1572.6292 312.79343
1574.5753 312.81985
1573.8419 316.1875
1572.465 319.35474
1574.5778 319.58072
1573.9869 322.75345
1573.1832 325.3391
1570.2754 327.0756
1571.7891 329.1348
1574.4862 327.76236
1573.9807 331.36505
1571.1241 331.87494
1568.903 332.9151
1569.12 335.82413
1571.584 336.041
1572.9702 333.82986
1574.3534 335.4308
1573.4933 338.14453
1573.2161 340.4822
1572.2306 342.89612
1574.2832 343.1055
1573.4989 346.09836
1570.4075 346.79874
1570.3749 344.45355
1568.0834 345.77014
1565.8754 345.9184
1563.5266 347.5399
1564.9556 349.56607
1567.9012 349.00827
1570.9531 349.1093
1573.8417 349.58878
1570.8396 352.03888
1569.7759 355.04932
1567.242 357.32498
1566.8926 352.05228
1565.8834 354.78632
1564.2451 357.92865
1561.1918 357.75723
1562.4562 360.19794
1566.3768 360.03183
1569.4498 358.6396
1568.5254 361.62134
1565.0723 361.9207
1567.6764 364.16705
1566.5306 366.4425
1566.0319 368.57034
1565.2115 370.54367
1562.9025 370.66177
1563.5815 367.4952
1565.0237 364.28442
1562.8462 365.10657
1560.7952 367.45862
1561.4912 369.1825
1558.7603 368.42618
1556.7743 369.7282
1559.7343 370.9625
1557.8376 372.95114
1555.5306 374.3074
1559.3713 375.83435
1561.2653 373.14816
1564.594 372.71967
1563.8359 374.94824
1562.0493 376.06033
1561.9847 378.69012
1560.3204 380.90274
1556.782 380.1569
1557.6144 377.43558
1554.8104 377.48175
1553.1162 375.4345
1550.3104 375.54608
1548.7103 374.005
1549.0349 377.90198
1546.4956 378.7862
1544.8335 380.85864
1543.9346 378.1586
1541.0815 377.20886
1543.0347 375.12415
1546.5017 375.916
1546.8431 372.17465
1544.255 372.5826
1543.209 369.2923
1547.1538 368.85355
1546.1428 365.26263
1549.9509 365.86847
1551.838 368.86743
1549.8452 371.066
1552.2192 372.9185
1554.5289 371.03186
1554.4648 367.26788
1553.8431 364.63278
1551.4252 362.99142
1549.7546 361.1522
1549.8015 358.08414
1550.769 355.2052
1553.6135 357.04138
1553.1028 359.8673
1554.8538 361.8065
1556.831 362.91443
1558.5544 364.13092
1557.166 366.29715
1560.3252 365.79114
1560.628 363.4965
1562.4863 362.53757
1559.3595 360.9682
1556.349 359.16174
1558.6069 358.02344
1556.5457 355.25772
1558.5869 351.98105
1559.634 354.83368
1562.6918 355.06406
1562.832 352.17822
1561.2603 349.58444
1558.178 348.69183
1555.4631 350.30725
1553.9697 353.46298
1552.3805 349.8656
1550.632 352.16046
1547.7185 353.0941
1548.0369 350.20425
1544.4266 349.85785
1541.621 349.96674
1540.3192 347.26126
1538.501 345.52
1537.0039 347.03897
1537.6288 349.19687
1539.261 350.60278
1537.9622 352.59296
1535.7234 355.0872
1535.3751 351.90216
1535.1184 348.71085
1533.2565 350.19214
1532.8511 353.66028
1530.1621 355.43896
1529.1826 358.27005
1532.291 357.04105
1532.3389 360.286
1530.832 362.0322
1532.6731 364.32904
1531.7218 367.39636
1530.4597 370.48676
1532.783 369.8115
1533.1893 372.19138
1530.3237 373.4021
1531.9939 376.01056
1533.9103 374.182
1535.5149 370.45502
1534.8174 367.46762
1537.6089 366.13458
1535.3068 363.62628
1537.5787 361.76288
1534.7786 360.39868
1534.895 357.6098
1537.5184 358.5139
1540.0548 356.98196
1539.0834 354.72305
1541.8606 353.3476
1544.7775 353.22556
1546.8995 356.4036
1543.5815 357.3411
1546.7043 360.71115
1543.6833 362.2725
1540.8823 360.0685
1540.1168 363.58258
1541.7131 366.40775
1538.7444 369.52426
1540.5844 372.58188
1536.8975 373.06738
1538.205 375.7497
1534.79 376.87543
1532.0623 379.37262
1534.409 380.57443
1536.783 379.0679
1538.9775 379.60388
1541.0823 380.76492
1542.612 382.60965
1545.1985 383.7248
1547.2708 382.6336
1546.9471 385.97192
1547.6765 389.2361
1548.0186 392.31097
1546.9197 395.8738
1549.6799 395.66885
1551.6766 393.36624
1551.8314 397.64716
1554.1886 396.35336
1555.8613 394.25906
1557.8564 395.79562
1560.3989 396.5224
1563.0868 394.14117
1560.0458 393.34946
1557.6604 391.63742
1560.0442 389.3926
1558.2095 386.7172
1555.1459 386.25574
1555.6891 389.14603
1554.2574 391.8498
1551.6115 389.4468
1552.6511 385.6677
1549.9819 386.4181
1549.4058 383.654
1552.1213 382.7466
1550.1049 381.1652
1548.0494 380.38907
1551.2411 379.4809
1551.9442 377.50095
1553.6326 380.12643
1555.1274 382.9031
1558.2881 383.3388
1561.2327 385.131
1563.0771 387.88736
1562.6022 391.31522
1565.0789 390.33792
1566.351 392.55798
1565.8453 394.7618
1568.4153 394.99368
1568.186 397.10602
1565.0099 397.15436
1562.6667 397.30875
1562.2346 400.3683
1564.9698 400.7193
1567.2324 399.4993
1570.215 399.95096
1568.9238 402.85312
1571.8298 404.69302
1567.8359 406.58664
1565.2793 403.82785
1563.7483 406.80072
1565.1517 409.6008
1568.1315 410.5319
1569.8485 413.66763
1570.9038 411.72186
1570.8961 408.00272
1573.8977 408.6544
1572.6788 410.57047
1575.9865 411.90607
1573.8007 413.24457
1571.7571 415.26404
1574.0256 416.6677
1576.6229 417.17487
1576.4963 414.52194
1578.6857 413.20218
1579.5135 415.59903
1581.4296 417.90982
1578.655 418.70383
1580.9812 421.35617
1577.8025 421.1553
1574.9485 420.27042
1572.6759 419.57285
1570.2053 420.91544
1570.7175 418.15088
1569.058 416.65048
1566.8348 416.51892
1567.6952 413.9196
1565.3179 413.02798
1562.5754 412.65964
1561.4115 409.86932
1560.459 406.88867
1561.8071 403.759
1558.723 404.3635
1556.3083 404.50336
1554.5643 406.0632
1552.2239 406.61377
1552.3735 403.59622
1554.5961 402.71
1556.9294 401.6165
1559.5819 401.8668
1559.6299 399.39066
1557.4768 398.3797
1555.2782 399.1897
1553.3752 400.42935
1551.2162 400.4993
1548.9254 398.9382
1546.3765 399.62784
1543.7596 400.39157
1542.957 403.04196
1545.958 403.1186
1548.1241 402.2813
1550.1177 402.32886
1550.1082 405.13202
1547.7776 405.6792
1546.7487 408.06638
1544.5071 405.83997
1541.0814 404.99048
1538.5085 405.85144
1535.5659 405.789
1532.4725 405.02737
1534.1799 402.10748
1531.0801 401.33252
1529.6982 403.2574
1528.374 405.57657
1525.0717 406.2765
1525.886 409.13187
1529.6531 407.93048
1530.8411 410.99808
1527.2126 411.5375
1527.2926 414.71167
1529.9434 413.90924
1532.941 413.66434
1535.041 412.13968
1533.0309 408.5853
1536.2401 409.03772
1539.5481 408.78186
1542.2512 407.9323
1544.2103 409.6615
1546.9152 410.71817
1547.2927 413.18475
1548.4012 415.3685
1549.5945 417.8218
1546.8269 417.52682
1547.5863 420.27805
1544.6716 420.1743
1541.3853 418.56833
1543.9281 417.45743
1544.8318 415.0706
1543.9797 412.59293
1541.2452 411.6966
1538.2272 411.65912
1537.773 414.51965
1541.1449 415.164
1538.3162 417.8124
1535.9802 420.519
1533.6401 418.86807
1535.3264 416.25043
1532.3848 416.11694
1530.6278 417.24826
1528.5632 417.44583
1530.6871 420.03812
1532.8009 422.16846
1534.3916 424.79092
1537.2593 423.6347
1538.9554 421.19678
1541.495 421.4914
1543.3726 423.08856
1546.2659 423.06387
1549.1057 422.74677
1551.5007 422.5232
1553.0438 424.16135
1555.4917 423.23615
1557.8197 421.2068
1560.8707 421.69412
1559.5165 418.27322
1556.2391 418.1934
1554.2 420.7396
1550.556 420.1262
1552.6989 418.43256
1551.4049 415.79666
1553.9861 415.79208
1556.6305 414.79828
1555.946 411.23422
1553.2913 412.4035
1550.6106 413.5036
1550.1118 411.01868
1550.0088 408.396
1553.6864 409.0749
1557.1608 407.10648
1558.1436 409.45587
1558.9712 412.61053
1560.3091 415.2018
1562.4386 416.98648
1564.601 415.73105
1564.8696 418.681
1562.638 420.21634
1564.9895 421.6048
1567.5946 419.43213
1567.4431 422.2258
1566.3281 424.25797
1566.6246 426.2981
1566.5894 428.5141
1564.7899 429.45837
1562.6832 430.77365
1564.679 432.51755
1566.3677 434.4217
1567.0594 431.85263
1568.2452 430.42902
1568.9572 428.51584
1568.4403 426.35965
1570.8019 426.8795
1570.124 425.01965
1569.6937 423.2056
1572.662 423.1594
1576.3271 423.18314
1574.5112 424.90436
1572.6901 427.24243
1574.5066 427.277
1576.6062 427.07266
1575.1259 429.84076
1573.8596 432.06458
1571.779 429.39474
1570.6058 430.94016
1570.4192 433.0062
1572.5475 434.52264
1577.1228 432.77512
1575.1587 435.20105
1575.7788 437.62683
1578.2743 438.62158
1580.2107 440.5201
1579.9132 443.45004
1577.0397 444.55295
1577.9879 441.98264
1576.2136 440.3975
1573.7621 440.0755
1570.1345 441.7498
1570.4973 439.26535
1572.7587 437.542
1570.2268 436.38007
1568.4218 434.8838
1567.4252 438.14325
1565.7305 441.03604
1568.0931 441.43616
1569.0983 444.80005
1566.8757 444.04007
1565.2642 446.28915
1567.6196 447.2416
1570.1353 447.46307
1568.1965 449.90228
1570.6396 451.09988
1571.9119 449.06848
1573.0764 446.97006
1571.6919 445.55847
1570.9861 443.7627
1572.4797 441.97067
1575.2343 442.8437
1573.6664 444.3912
1575.5293 446.30145
1574.7472 448.397
1574.4094 450.31732
1573.138 451.55078
1571.9541 453.48883
1572.359 455.99493
1570.8229 458.47058
1569.4387 456.00867
1568.9978 453.12137
1566.0768 452.1757
1566.5306 455.14987
1562.8624 454.43958
1559.7611 456.29434
1558.9677 453.117
1563.0363 451.564
1564.7548 449.0616
1560.6042 449.86862
1557.231 448.95258
1556.0059 451.5792
1553.0247 450.0051
1551.5317 451.69434
1548.7063 450.49225
1548.9753 453.65952
1550.2336 456.52255
1547.6028 456.6776
1545.816 454.0951
1545.421 451.1708
1545.7163 448.64832
1543.1838 447.8013
1540.342 447.70212
1539.6516 445.08142
1542.297 444.10806
1543.8066 440.93393
1545.0939 443.1128
1545.6096 445.61057
1547.905 447.58594
1550.7737 447.6403
1552.8646 446.14243
1554.5886 447.9395
1556.6144 445.52747
1559.3131 446.64774
1562.2743 446.46005
1563.8806 443.73618
1562.655 441.24548
1563.9286 438.53513
1564.3466 436.1722
1562.5833 434.09097
1560.1154 434.87885
1559.7616 431.9248
1562.2548 427.67474
1564.479 426.55377
1563.1692 424.22168
1560.1932 424.1582
1557.3619 425.01392
1559.5344 426.7685
1559.7638 429.4031
1556.7373 429.13898
1556.2356 433.00897
1555.1001 436.48828
1558.1963 436.91824
1560.5363 438.92545
1559.9258 443.03503
1556.5765 440.54126
1553.0795 440.2747
1552.8064 443.5356
1550.258 441.89014
1549.1255 444.84775
1547.6952 442.76605
1547.1312 440.4253
1545.6052 438.3013
1545.6049 435.41687
1549.5503 438.6733
1552.1809 436.6557
1548.8627 435.39902
1551.4385 433.07343
1549.4916 429.70093
1553.3733 430.28375
1554.5236 426.83145
1551.2828 426.65756
1548.3846 425.782
1545.2504 425.79648
1542.715 426.67767
1540.265 424.7594
1540.019 428.52267
1537.2136 427.0328
1535.4862 429.78235
1533.0732 428.25632
1533.113 432.67014
1531.6735 436.80463
1535.3483 436.1897
1538.5747 437.99042
1538.7944 434.63007
1538.0386 431.6592
1542.3347 433.36197
1542.6482 430.37216
1545.9976 428.85126
1546.5481 432.28055
1542.3365 436.66437
1541.5736 439.71655
1539.2029 441.34604
1534.9003 440.23398
1531.048 441.24088
1530.0981 445.25668
1533.5027 447.55457
1534.1056 444.1792
1537.2289 443.3994
1536.861 447.0764
1536.129 450.20087
1533.4861 450.94662
1532.1636 453.20816
1527.4655 454.53326
1529.4719 453.2689
1530.7909 449.3511
1528.0107 448.98798
1525.6111 450.46814
1524.6595 452.976
1521.6355 453.36642
1522.1233 455.9946
1519.0227 456.86618
1522.3455 458.84406
1523.203 461.5938
1524.4642 464.18088
1523.2825 466.70508
1520.4724 466.32236
1518.1388 467.88635
1515.0582 466.34073
1517.4841 464.2111
1520.6685 463.46204
1519.3973 460.60785
1516.2699 459.6514
1514.5198 462.2971
1512.0001 463.81085
1512.3423 466.9884
1509.2646 466.2063
1510.1038 469.13562
1506.8295 468.75662
1505.4202 471.12366
1502.4854 472.048
1502.5477 475.22424
1504.3894 473.7748
1506.5028 474.80026
1508.1436 477.53503
1505.1298 477.7542
1506.039 480.6858
1504.8162 483.40134
1500.8627 483.8728
1497.6754 483.52975
1499.0237 480.68723
1502.3701 480.84952
1502.0449 478.007
1500.1064 475.2506
1498.283 477.6295
1495.8873 479.69736
1494.112 481.6988
1493.8009 483.94778
1491.37 482.96265
1491.0962 485.2823
1488.8197 485.23044
1488.9146 487.52292
1489.6968 489.55594
1487.2533 490.0528
1486.492 487.94067
1484.1332 490.68637
1486.1279 492.7665
1488.8037 492.45032
1487.178 495.40854
1490.5609 497.02423
1488.1293 498.44577
1484.7155 497.82504
1483.2965 493.80286
1480.7651 494.75677
1481.7366 497.92508
1478.2218 496.8225
1478.9983 499.3928
1481.7329 501.50146
1479.2236 503.15775
1479.984 506.37802
1481.0352 509.9787
1477.4175 509.80487
1475.7858 506.8721
1476.195 504.28085
1476.9457 501.3777
1475.8564 499.1515
1473.9735 501.5349
1472.7043 503.72018
1470.1444 504.8996
1471.707 507.18488
1473.5094 509.19116
1473.6586 511.7309
1477.3615 513.2681
1474.6681 514.4386
1472.0282 514.5018
1470.0927 513.42004
1468.925 511.79355
1469.581 509.55496
1467.4993 507.62408
1465.6614 510.5532
1464.0858 512.72046
1461.7527 513.4686
1460.4116 515.50586
1459.2559 517.59216
1459.3248 520.4622
1456.4136 518.9773
1456.5989 521.76105
1453.3873 521.47974
1454.2777 523.6519
1454.2183 526.1531
1451.5255 524.6739
1449.8263 526.2679
1447.7106 527.2764
1446.397 528.95215
1445.0991 530.92114
1448.0912 530.6689
1451.0027 531.0598
1450.2864 528.69824
1453.1067 528.62634
1453.4958 531.4623
1455.539 530.8712
1457.5444 532.0113
1459.8715 532.77264
1462.7197 531.43555
1460.0076 530.4453
1457.8721 529.23724
1456.0168 527.88196
1458.6713 527.0149
1456.9343 524.5786
1459.3212 525.19617
1462.0289 525.8548
1464.8414 525.9416
1460.603 528.2059
1462.7081 528.7752
1465.0316 528.389
1465.5024 530.6913
1467.9696 530.4448
1467.6971 528.45184
1468.0242 526.3361
1466.7948 523.8686
1464.2642 522.76215
1461.9811 522.91675
1459.633 522.9707
1462.3992 519.6467
1466.7559 521.1027
1465.372 518.4096
1463.4657 516.18695
1466.6697 514.8194
1469.3646 516.2304
1468.416 518.7982
1470.6738 521.775
1469.5947 523.9387
1470.9493 526.74426
1472.8502 524.9919
1475.7994 524.6824
1474.7793 527.4491
1472.9543 529.08545
1470.4604 529.2495
1469.7688 531.4656
1467.4543 532.7326
1464.7915 533.1147
1461.7611 534.21265
1464.707 535.26715
1463.8176 536.7798
1463.6891 538.92065
1465.9385 538.87683
1467.4762 537.01416
1467.2347 534.94885
1469.8408 535.4346
1470.2632 533.45166
1472.2415 531.69824
1473.2661 534.07007
1472.2267 535.8889
1475.7993 538.9721
1473.6235 538.3848
1471.5619 538.0945
1471.0344 540.215
1469.6558 537.7933
1468.2257 539.4745
1469.0424 541.46246
1466.7483 541.7675
1464.2253 542.0776
1462.1617 540.48456
1461.339 536.9024
1458.746 537.45135
1458.3187 535.0197
1455.6946 534.37573
1453.2194 533.55756
1451.3 534.43115
1449.6445 533.22394
1447.5574 532.9354
1446.7639 534.64813
1446.8646 536.9932
1446.4926 539.6779
1444.7257 538.5082
1442.7777 537.2219
1444.438 535.7234
1444.4082 533.4592
1442.8619 532.1336
1441.6191 534.45355
1440.3171 536.3681
1437.976 537.2963
1438.9539 539.6341
1441.12 539.35297
1443.1642 540.1325
1441.7076 542.4056
1443.2731 544.3961
1444.2441 546.6103
1440.3694 546.15594
1438.6687 542.96875
1436.1305 540.3863
1434.4551 543.1499
1431.2526 545.056
1433.042 547.66846
1429.8949 548.5434
1427.2776 549.7592
1429.9738 551.98566
1433.0527 551.72626
1435.6635 550.48157
1436.2778 546.52075
1438.9045 549.1059
1441.3219 551.49884
1438.575 553.4287
1435.2885 554.3849
1431.9636 554.34235
1429.8816 555.33453
1429.609 558.3672
1431.8096 557.9072
1433.1598 556.2136
1434.5538 557.8774
1437.3379 556.7437
1435.8632 559.45264
1437.8582 560.0582
1440.2295 557.2249
1443.3534 555.44653
1443.1869 558.5197
1443.646 560.7017
1443.6825 563.1962
1441.0685 562.3947
1439.2396 561.3258
1438.435 564.067
1439.9343 566.2105
1437.1091 566.66656
1435.956 563.558
1434.6206 566.2671
1432.0503 566.9504
1429.4795 567.1276
1429.3027 564.6235
1431.0782 563.48596
1433.138 563.9607
1434.5403 561.54474
1432.748 560.0998
1430.9889 560.9809
1428.8757 561.5424
1427.32 559.958
1426.7223 557.83264
1427.8145 555.97406
1427.2053 553.2509
1424.4937 552.4956
1422.2844 554.6509
1424.8756 555.78705
1424.4984 559.2707
1422.1189 558.4049
1420.1749 556.70483
1418.4122 559.0776
1416.6039 561.1665
1414.7731 563.2435
1413.2683 565.4014
1411.3164 567.10803
1409.2872 568.60474
1407.4448 570.895
1405.6754 572.9301
1403.9233 574.77686
1402.0466 576.31696
1400.5327 577.9382
1399.063 580.05927
1397.0787 581.9083
1396.4954 584.27106
1394.0099 586.1263
1391.3624 588.4485
1393.907 589.75366
1396.9873 590.1557
1397.6499 587.2007
1400.4437 585.68726
1400.2115 582.89044
1402.1453 580.2443
1405.3934 580.82196
1404.4539 577.8868
1407.0562 575.92694
1409.207 573.5158
1411.2449 571.0857
1413.83 569.36163
1416.7756 569.19385
1416.8354 566.15344
1419.5061 564.14
1420.2959 561.2021
1422.9412 562.318
1425.5908 562.1098
1427.0331 563.7304
1426.4368 566.29755
1423.322 565.5104
1420.5544 567.5897
1418.9521 570.949
1422.0818 570.7706
1424.4786 572.5031
1424.5745 568.9333
1427.6686 569.14935
1431.1401 569.84827
1430.682 572.857
1428.2086 571.4746
1427.0914 573.82306
1427.9475 576.41284
1424.3688 575.91956
1421.01 577.0907
1423.0975 579.3421
1420.4323 581.97394
1417.9121 580.2588
1415.039 579.39996
1414.6959 576.2636
1417.9141 576.40753
1420.4006 573.7865
1415.904 572.821
1412.6102 573.99677
1410.3773 576.5424
1411.923 579.1051
1407.9812 579.1033
1409.9552 582.0562
1406.855 583.7609
1403.496 583.4423
1403.0707 586.9107
1405.7518 587.0034
1406.9816 589.3544
1406.7625 592.165
1403.6788 590.45776
1400.3939 589.3518
1398.2738 593.3036
1400.9476 592.4044
1403.5275 593.91974
1401.1765 595.6957
1399.0085 596.9832
1396.3698 596.1302
1394.0869 598.34753
1396.6058 599.43146
1394.58 601.192
1391.4993 598.54114
1390.3425 596.3632
1393.18 595.6034
1395.1863 593.09064
1392.0194 592.57495
1389.0414 591.2221
1389.0114 594.0787
1385.7404 594.2215
1387.3469 597.3269
1383.9617 597.52264
1381.6315 599.8249
1379.7227 601.9294
1379.5245 604.7147
1377.9519 606.8257
1377.9545 609.9996
1380.4243 608.80237
1382.7104 607.22894
1383.1887 604.04395
1384.679 601.32166
1387.1681 600.4356
1389.527 599.97986
1392.1823 601.22656
1390.0769 602.9607
1387.2074 603.67096
1386.0049 606.4654
1385.1809 609.72565
1382.7662 610.83044
1380.444 612.00507
1378.4602 613.17773
1380.7428 615.0164
1383.2168 613.91895
1385.478 612.9113
1387.653 611.2525
1388.3489 608.814
1389.6182 605.91187
1391.1613 608.15753
1393.2664 606.41437
1392.6497 604.0915
1395.8732 605.4242
1395.7437 603.1466
1398.0825 602.49164
1400.4559 601.4321
1399.0619 599.6139
1401.9176 599.14923
1404.1674 597.5834
1405.7659 595.4179
1408.2177 594.9974
1410.3402 592.74084
1409.6798 589.4275
1412.1746 589.40674
1414.1938 590.7848
1415.6318 587.69116
1412.3174 585.5642
1409.1578 586.06976
1413.7766 582.54425
1416.7274 584.0768
1419.5703 585.70795
1423.8025 582.58466
1426.6411 579.27985
1430.9529 577.6972
1430.2134 575.35675
1432.6516 574.9893
1434.122 573.2762
1433.5903 571.24133
1434.6825 568.9265
1436.8165 571.2014
1438.2993 569.09064
1440.8269 569.3611
1442.4921 567.192
1442.6105 565.03436
1445.9811 565.1455
1446.1951 561.94916
1448.941 561.7812
1451.3165 559.8491
1447.3047 558.651
1447.977 555.89844
1447.6301 552.93695
1447.7123 550.02246
1444.5859 552.6185
1444.0543 549.22296
1447.8187 546.87585
1451.0308 549.3342
1452.0507 546.52435
1453.1414 542.83154
1449.7303 544.10175
1446.4778 543.9884
1444.8177 541.85474
1447.953 541.51154
1450.7153 540.80963
1449.2169 538.64197
1449.8983 536.407
1453.0872 536.5041
1453.4335 539.51715
1455.9905 537.8094
1456.9363 541.54535
1459.6978 539.80536
1460.7688 543.10236
1465.8438 544.5298
1463.1692 545.4326
1461.2488 547.6035
1458.4703 545.4999
1455.2196 545.2091
1455.8032 548.77954
1459.204 550.0211
1456.1423 552.582
1453.2976 551.8179
1450.7891 553.42084
1452.3755 556.8131
1455.6377 556.0781
1459.2794 553.60345
1462.6636 550.7178
1464.9619 548.5058
1467.0735 546.99536
1469.2915 546.7019
1468.5325 544.02423
1470.9303 544.9822
1473.3015 544.2504
1470.9856 542.737
1473.2185 541.2811
1475.7322 541.6261
1478.1692 539.12445
1480.4004 537.3098
1477.61 536.1252
1475.03 536.00543
1476.7504 533.5131
1479.8749 533.90814
1482.606 535.33606
1481.187 531.0565
1483.3596 532.4872
1485.7865 533.4817
1488.2382 531.702
1486.5875 529.7558
1484.1129 529.4062
1482.0881 528.10693
1479.6609 528.6941
1478.3523 531.4162
1474.6155 532.4802
1475.2848 530.51324
1477.1311 529.2257
1477.4707 526.7745
1479.8269 525.8246
1478.5188 523.80334
1476.8767 522.0176
1476.2943 519.58374
1473.9036 522.3699
1473.7775 519.69885
1471.1438 519.2628
1472.3926 517.0763
1475.1628 516.94684
1477.6593 517.0538
1479.8308 515.4175
1480.7684 512.9016
1483.4133 513.80817
1483.2043 516.6608
1480.4834 517.7699
1481.471 519.7429
1478.8396 520.04724
1480.2823 522.0613
1481.7638 523.8607
1482.7203 521.7557
1483.7186 519.3251
1485.959 518.4365
1486.5278 516.1109
1489.1104 516.04407
1491.5518 515.826
1491.6211 512.83276
1494.7095 512.9222
1493.9432 515.1562
1494.4393 517.378
1492.6517 518.80927
1490.8062 518.4171
1488.8323 519.01776
1487.8718 520.7434
1485.9581 520.87494
1484.5807 522.05896
1484.4744 524.52155
1482.633 526.0441
1486.0507 526.7048
1486.8257 523.36395
1488.6268 525.00653
1489.2472 527.2362
1489.9102 529.68475
1492.3 528.3005
1494.658 526.6758
1494.7125 524.2745
1491.6746 524.9942
1489.5505 522.7155
1491.1978 521.1738
1493.2769 522.4935
1494.3354 520.177
1496.5364 521.4229
1497.527 524.2211
1500.1694 522.19916
1498.9943 519.60376
1496.7095 518.12994
1501.7458 518.6553
1503.6483 519.9442
1507.0706 517.3495
1505.4241 515.9413
1503.1235 514.4964
1501.693 516.19385
1499.165 516.3995
1496.9442 515.1132
1497.6748 512.64355
1500.4408 512.9465
1498.162 510.0689
1500.8387 508.98447
1504.1876 508.58182
1502.8229 511.12402
1505.1067 512.6318
1509.7943 514.76227
1510.7278 511.75754
1513.461 509.95273
1514.0507 512.9866
1516.8337 511.18674
1517.5018 508.92743
1515.9055 507.24207
1513.2626 506.789
1514.3083 504.16013
1516.8859 503.95844
1518.4672 501.45694
1515.3092 501.00403
1512.6274 499.0257
1512.0376 502.14334
1510.8624 504.56537
1508.7952 506.3579
1510.777 508.2763
1507.525 512.14594
1507.6265 509.16867
1505.9917 506.42838
1507.9474 503.75394
1506.4861 501.98395
1509.0507 500.53003
1509.6162 497.3167
1510.29 493.70148
1506.987 494.234
1506.0565 496.82123
1503.9585 498.1805
1505.4541 499.96448
1503.7317 502.02277
1504.2634 504.66342
1501.3547 505.8788
1498.1915 506.94824
1498.6301 503.05368
1501.3378 502.6529
1501.29 499.54953
1497.6487 499.48917
1495.3564 501.22836
1493.1508 503.57852
1496.0326 504.5616
1494.9199 507.37244
1495.1958 510.377
1492.4651 509.59848
1491.6727 506.57318
1489.6968 504.22983
1486.6602 505.19537
1488.0718 507.96143
1489.6486 510.18457
1488.4572 512.7591
1485.9419 513.2684
1485.0519 510.25574
1483.6566 507.378
1483.4586 504.21173
1485.114 501.31036
1488.0428 501.49637
1491.1807 500.91885
1493.5864 498.773
1493.1277 495.8049
1495.3434 495.7212
1494.8889 492.98502
1491.0587 494.06873
1491.1261 491.5105
1493.5085 491.34338
1493.9801 489.3311
1491.8896 489.31485
1491.2297 487.3448
1493.3245 485.81567
1493.9333 487.40256
1496.2314 485.68552
1499.357 487.58545
1496.3092 488.7646
1497.3953 491.21146
1500.3555 491.48508
1498.9097 493.97424
1497.1862 496.1179
1499.4902 497.22272
1501.877 495.75848
1503.7042 493.5951
1503.1691 490.7452
1502.7987 488.29886
1503.1599 485.80438
1506.4958 487.96237
1507.0059 491.10138
1510.4547 489.38333
1513.0508 486.89142
1514.6938 489.62936
1513.6177 492.51593
1513.9713 495.72015
1516.3892 497.9156
1518.4242 494.91983
1517.5997 491.80066
1520.8158 491.9753
1522.6985 494.19736
1521.6061 496.99353
1519.3348 498.52005
1523.9775 499.086
1526.012 500.55124
1527.8849 502.47382
1524.5967 503.44272
1525.4323 507.15356
1522.8662 508.65494
1522.6808 505.94785
1521.7823 500.91147
1521.0332 503.6742
1518.7152 505.27502
1519.8506 507.1262
1520.2101 509.44183
1523.9736 510.66577
1525.2866 512.2972
1521.0084 511.516
1519.1615 512.89575
1519.6711 515.21173
1519.147 517.8593
1519.3252 520.6415
1518.579 523.3463
1518.8502 526.3621
1518.289 528.6038
1521.358 529.40424
1520.7493 525.0544
1522.5237 526.6387
1525.0392 527.3561
1526.5872 524.2589
1524.325 523.75446
1521.5404 523.0912
1522.7363 521.209
1525.444 520.6492
1521.9072 519.02106
1521.9075 516.43896
1522.2765 513.69556
1524.804 514.82245
1524.3453 517.43427
1526.7015 518.06586
1527.8682 515.7981
1527.6887 512.9578
1527.4402 509.53842
1527.9742 505.83826
1530.7092 508.2414
1532.2612 505.65466
1533.5671 502.45346
1536.1991 503.11093
1539.0999 502.61926
1536.726 499.4658
1533.3657 499.31268
1530.9126 501.07944
1530.3506 503.91583
1529.1976 499.11838
1527.1842 497.29697
1524.6682 496.4354
1525.9398 494.07623
1528.6378 492.17438
1530.2466 490.4296
1531.8102 488.34354
1530.5535 486.26807
1529.8589 483.5184
1527.7412 485.2914
1526.0131 486.96442
1528.107 488.62454
1526.0594 491.22174
1523.3977 491.08975
1524.2598 488.81677
1523.3214 486.4068
1524.2871 484.01602
1524.2279 481.13193
1521.727 482.55554
1520.8835 485.32462
1520.7659 488.64468
1517.6299 488.25253
1518.1642 485.2742
1515.2897 485.42963
1515.9272 482.61606
1512.7427 482.55478
1510.6436 485.30844
1507.559 485.157
1509.153 482.37192
1509.7661 479.89853
1511.4423 477.7128
1513.7854 479.69357
1515.6321 477.34634
1513.0767 475.5295
1511.5242 472.62012
1509.5103 474.7305
1508.5197 471.6314
1513.1553 469.81146
1516.2168 470.04153
1514.3406 472.36267
1515.9335 474.08682
1518.1562 475.71472
1518.521 473.095
1519.4663 470.90298
1521.5504 469.2866
1525.0881 469.16812
1526.7527 466.70953
1529.6545 468.8658
1529.7947 466.5396
1529.8572 464.32175
1527.4746 463.33447
1526.4623 460.835
1525.68 458.4414
1525.189 455.9837
1528.9258 457.78
1529.7656 460.84372
1531.915 462.6897
1534.3589 461.34393
1532.3931 459.25897
1531.7235 456.3951
1534.5442 455.86902
1535.937 453.0688
1537.3938 455.36655
1539.6301 453.10852
1538.6478 450.19614
1541.5356 450.47638
1542.9312 452.7744
1540.1166 455.97296
1542.6417 455.80255
1544.934 457.17453
1543.6522 459.36255
1541.9258 461.26056
1540.0221 462.9696
1537.7623 461.0622
1540.5452 459.01172
1538.075 458.06772
1535.501 458.76294
1535.4697 463.41876
1537.6565 463.91595
1538.8594 465.63654
1539.3478 467.64737
1537.9822 469.98117
1536.3959 468.14932
1535.6201 466.134
1533.03 465.1331
1532.8501 468.1405
1535.0541 470.31552
1533.4423 472.105
1531.0657 471.2233
1527.7216 470.78983
1523.2434 471.46286
1521.5658 473.7695
1523.5619 475.7787
1520.7266 476.66434
1518.6967 478.45303
1516.9927 480.19925
1518.9883 482.37433
1520.987 480.0073
1522.7256 478.3371
1524.8263 478.6539
1526.5458 477.09003
1526.0251 475.0001
1525.4435 472.7542
1528.7468 473.85925
1531.5919 474.3817
1529.002 477.0671
1531.3787 477.0384
1531.7972 479.28647
1530.1523 479.9241
1527.0944 479.56024
1526.7333 482.64877
1528.6903 481.14575
1531.9014 481.82553
1534.8412 480.90332
1533.9731 482.5977
1532.6223 484.52097
1534.4121 486.42865
1534.4175 489.18985
1537.0928 490.32294
1535.97 493.07172
1533.0894 491.60278
1531.885 493.847
1528.5831 494.54956
1530.0487 496.28156
1532.3936 496.88602
1535.2366 496.02914
1538.5123 495.7639
1539.8207 492.43347
1542.0482 495.9557
1540.371 498.41486
1540.7009 501.00278
1542.888 503.98157
1538.9863 505.23434
1541.7146 507.27783
1544.0762 509.049
1547.1444 508.8457
1549.2667 510.61356
1548.8975 513.5838
1547.3253 515.8905
1546.5698 512.142
1544.1921 512.2287
1541.4406 511.60962
1539.3597 510.26248
1538.2296 507.80884
1535.3363 505.97177
1533.9879 508.43558
1536.029 509.84436
1536.8064 512.0313
1535.2998 514.015
1533.1351 511.6252
1530.2031 511.19495
1530.5693 514.1653
1532.8298 515.54755
1535.0496 516.836
1537.6239 516.4142
1538.8748 513.6897
1542.792 514.42084
1540.3635 515.729
1539.6119 518.42566
1539.3134 520.69745
1538.5939 522.9433
1540.6561 524.1224
1542.7139 522.03534
1542.7854 519.6167
1542.4653 517.2777
1545.0046 516.3048
1546.0254 519.44556
1547.0117 522.22235
1544.7416 524.2094
1544.6262 527.4752
1542.385 525.85864
1539.2648 526.7822
1536.7915 524.45935
1534.2665 522.01953
1536.2175 521.33105
1536.2262 519.0402
1532.9583 519.03986
1530.4526 517.5151
1528.7251 519.5862
1528.721 521.8371
1531.6797 521.3665
1533.8507 523.9729
1532.5383 525.5678
1530.9843 524.05115
1528.8689 524.31287
1528.4221 526.86847
1527.0254 529.4053
1524.1925 530.73926
1521.9863 532.50867
1519.9026 533.4266
1518.4697 531.01294
1517.387 533.1971
1518.1196 535.3256
1517.9398 537.39984
1517.3293 539.49786
1517.0573 542.4225
1519.4678 543.76886
1520.0502 546.6827
1516.8376 545.8958
1517.2036 548.8868
1516.3097 551.76917
1519.0944 551.959
1520.8096 549.5426
1522.092 552.91986
1522.3114 555.76697
1525.7346 555.5228
1523.8883 557.8486
1520.7042 560.4441
1519.5143 557.7375
1519.4783 554.8509
1516.3995 554.9697
1515.8917 557.96436
1517.6246 560.19965
1515.552 561.94165
1518.8254 562.6367
1521.664 563.5965
1523.6534 564.52203
1525.1333 566.1802
1523.9232 568.034
1521.7412 566.93774
1519.3635 564.9548
1516.893 565.2716
1514.8064 565.0964
1514.7609 568.411
1514.6643 572.253
1514.1708 576.0551
1516.9308 574.4941
1517.9875 571.6132
1517.1038 569.06
1519.033 567.24457
1520.3712 569.4415
1520.7856 571.7178
1519.9725 573.83746
1519.504 575.91974
1519.2261 578.344
1520.8704 579.99133
1520.3303 582.51056
1520.5105 585.3565
1518.6304 587.66473
1515.4159 585.73486
1517.4584 583.85706
1517.4375 580.8591
1516.7493 577.74756
1514.1057 579.85114
1513.7598 583.12054
1513.0089 587.43494
1515.9558 588.6347
1514.3878 590.7946
1512.7881 592.3842
1513.0182 595.09674
1512.0327 597.22723
1514.456 597.6816
1515.4513 600.09863
1512.5033 600.15216
1511.921 602.52057
1514.5847 603.0147
1515.4573 606.26154
1513.2158 605.4229
1511.2141 605.1999
1511.3552 608.1573
1510.9203 611.66656
1514.1846 611.4798
1513.5436 608.77594
1516.3113 609.271
1519.1577 610.1672
1520.8636 608.0411
1518.3436 607.1343
1517.72 604.6692
1516.9247 602.18036
1519.6676 602.8469
1521.1307 605.16266
1523.0704 607.89124
1525.6571 607.1178
1523.7601 605.7806
1523.8895 603.8085
1522.1707 602.23285
1524.2592 599.55
1521.4415 599.71436
1520.3722 597.0771
1518.8273 600.16656
1517.3525 597.92487
1518.0144 595.62665
1515.7346 594.3153
1517.7517 591.2252
1519.1857 593.48846
1521.3152 594.33887
1523.304 594.06683
1524.9513 595.592
1523.0953 597.1042
1526.2318 597.7716
1527.6481 599.73627
1526.8931 601.78503
1524.7993 601.8225
1525.9656 604.7489
1527.6658 607.8057
1527.1907 609.9638
1524.8304 609.501
1522.577 611.1819
1520.0746 612.9362
1516.8779 612.5349
1516.6406 615.2651
1513.8905 616.4341
1512.8562 613.9362
1510.878 616.4316
1513.5028 618.9385
1512.12 620.2541
1510.3032 619.92914
1509.7776 622.8462
1510.0544 625.5085
1509.9973 628.37976
1512.5151 629.0837
1512.875 631.5751
1509.7728 631.723
1509.168 635.2044
1509.6672 638.51807
1509.4985 641.4139
1509.4548 644.5458
1512.7339 646.2584
1510.9102 648.7431
1508.1368 647.9808
1508.7856 651.4349
1507.5598 654.3029
1510.1907 654.71576
1511.2686 656.8877
1510.0841 659.3115
1507.8569 657.6618
1507.3164 661.539
1510.2896 662.535
1507.7805 665.3127
1508.3816 669.3197
1507.1272 673.4951
1509.0347 675.1733
1512.3186 673.1562
1515.3331 670.24567
1512.0712 666.5522
1513.5889 663.2144
1516.2609 664.7419
1518.6509 667.0791
1557.0865 682.48376
1520.7283 660.3768
1522.0493 657.39874
1519.7626 655.9289
1519.5652 653.14105
1522.889 654.2432
1521.9766 651.5105
1524.3109 650.78894
1522.4746 649.0973
1521.7261 646.87036
1523.5902 645.1278
1524.612 647.9367
1525.9487 645.6793
1525.2195 643.1216
1527.4376 641.4275
1528.2904 638.27295
1526.0217 638.3249
1525.0278 640.20306
1522.816 640.7423
1520.5571 641.7548
1517.3073 640.31903
1520.0432 638.4373
1523.3049 637.48334
1522.2429 635.1237
1519.5339 635.2362
1521.5538 632.24976
1524.2441 630.1185
1526.8995 631.13477
1524.9882 633.5647
1526.1754 635.9579
1528.4282 635.0803
1530.865 636.00934
1528.9432 632.8457
1530.6156 630.844
1528.7554 628.9766
1526.1244 627.4819
1525.5771 624.7941
1522.4907 626.21674
1521.6675 628.9568
1519.2228 630.06366
1517.8145 631.41656
1517.8137 633.40704
1516.7745 636.0922
1516.3473 638.29156
1516.787 642.4783
1518.7083 643.9659
1521.3983 644.3357
1518.8098 646.4053
1520.0592 648.4772
1519.137 650.20447
1517.0232 651.1919
1515.6455 653.05865
1516.848 655.53076
1518.2961 658.4814
1518.884 662.57275
1515.433 660.682
1516.0636 658.4004
1512.6129 660.7446
1513.1597 658.5271
1514.131 656.2919
1512.9814 654.0401
1512.2683 651.59064
1514.2045 649.4681
1516.5656 648.1353
1515.7971 645.35846
1513.3424 643.118
1513.2852 640.29297
1513.4943 637.525
1511.821 635.9321
1512.0605 633.66345
1514.9353 634.23456
1515.1887 631.36127
1515.9254 629.11383
1514.2695 626.7153
1512.1553 625.9364
1511.5546 622.7372
1513.5134 623.6488
1514.8743 621.443
1517.7355 621.6427
1516.0875 624.1307
1516.6887 626.6966
1519.0842 627.52386
1519.2057 624.7978
1520.6721 622.4015
1523.4122 623.2262
1523.3333 620.5729
1522.473 617.9549
1520.1104 619.44617
1515.852 618.70056
1517.9358 618.14954
1519.7766 615.96436
1522.4685 614.9064
1524.859 614.1611
1525.7415 611.94586
1527.8384 613.65985
1527.6207 615.89795
1525.1698 617.0011
1525.8601 619.34607
1526.7998 621.5978
1528.272 623.68866
1529.7225 626.27094
1531.6736 628.1021
1533.1256 625.0195
1530.7368 623.70514
1532.521 621.8901
1534.2333 620.05853
1530.3004 620.3505
1528.4781 618.5448
1530.3807 616.59424
1532.8379 618.2501
1533.303 615.8656
1535.7288 615.79474
1536.5712 612.2885
1535.0242 610.13135
1537.0717 607.59674
1534.7516 604.16144
1533.3928 606.621
1532.4043 608.823
1531.9078 611.21576
1533.7385 613.14795
1531.544 614.37225
1530.1228 613.29987
1528.9135 611.5423
1529.7249 609.4619
1530.2633 606.9241
1528.4067 605.5393
1527.8735 603.64514
1531.392 603.8616
1529.5244 601.8668
1531.3706 600.2966
1536.8064 601.59814
1538.6022 603.712
1540.094 598.62134
1537.2036 598.0639
1534.1893 600.0505
1529.3927 597.7606
1527.5342 595.5472
1530.7959 594.94934
1532.3534 597.32117
1534.5651 595.6447
1534.816 592.4771
1537.774 594.2565
1540.9098 594.68036
1542.5997 591.27985
1539.6411 590.9328
1536.9053 589.98346
1537.3483 587.24603
1539.7634 586.66046
1542.3258 588.01953
1544.5009 585.4016
1542.2201 584.53564
1539.8527 583.6471
1542.1404 581.3544
1544.6681 582.1907
1546.0161 579.60114
1543.4315 578.97974
1542.0225 577.2314
1539.2906 577.63007
1540.0286 580.28326
1537.312 579.42615
1535.0063 577.5751
1533.9252 580.04456
1535.5215 581.8584
1537.9619 582.38666
1536.2909 584.62146
1534.3771 586.939
1533.219 589.65765
1531.332 591.99286
1528.5328 593.3043
1525.666 592.9933
1522.974 591.79596
1520.7231 590.6806
1521.9716 588.20624
1523.8181 586.1523
1523.3595 583.4568
1523.4199 580.7479
1523.5708 578.0634
1521.481 577.33704
1522.5769 575.3899
1524.6011 574.4509
1522.7751 572.79083
1523.2041 570.23676
1526.0347 570.2405
1525.4456 572.3676
1527.4309 574.1279
1528.4404 571.6887
1530.1681 573.81635
1528.8342 576.7651
1525.8538 576.4436
1526.0764 579.03925
1526.2849 582.01764
1529.3907 583.7752
1526.7958 585.12524
1526.2412 588.03485
1524.5977 590.0773
1527.7753 590.88904
1529.3499 588.45856
1531.2794 586.58734
1532.9608 583.7478
1531.2638 581.13513
1528.7543 579.95886
1531.7555 578.0428
1532.0117 575.5578
1534.7223 574.6948
1536.8318 576.0521
1538.5023 574.8456
1540.8121 575.293
1540.2692 572.9875
1537.0193 572.93646
1536.2081 570.8532
1535.5817 568.4656
1533.9996 570.8325
1533.1997 572.97736
1531.1337 571.17175
1528.8921 569.3289
1526.7098 567.9365
1530.1136 567.3732
1532.4263 568.8538
1532.3822 566.1105
1530.9314 563.91113
1528.527 565.7464
1526.802 564.4366
1528.6956 562.12854
1525.2451 562.45514
1523.2122 560.4743
1526.5057 560.0538
1527.66 557.6249
1525.6588 553.18713
1523.7434 551.1369
1523.5931 548.38983
1523.0093 545.81213
1525.4089 544.6635
1526.2083 542.7366
1527.6838 541.20465
1527.2173 539.7338
1526.3007 538.2769
1525.3357 536.5769
1523.0684 538.1252
1524.9915 540.55237
1522.7158 540.6858
1522.366 543.1598
1520.0098 540.35944
1520.6763 536.8823
1522.8076 535.1803
1524.9819 533.7765
1527.0222 532.1146
1529.4612 531.94464
1527.4186 534.66595
1528.442 536.39636
1528.6895 538.21875
1529.4915 539.9497
1531.0042 541.58215
1533.1565 542.25885
1535.9285 541.6783
1535.9172 539.16907
1537.7288 537.8482
1540.3226 537.86523
1541.1816 535.0523
1538.8668 535.1135
1536.5339 534.68243
1535.3755 531.7076
1533.9456 533.7154
1532.2809 535.31805
1534.9817 536.37756
1533.2567 537.7482
1533.51 539.9814
1531.3728 539.3072
1530.7517 537.15375
1530.1321 534.3564
1532.1088 531.883
1530.1544 529.51373
1531.1633 527.3531
1533.7526 529.69617
1533.6102 527.6849
1534.9926 526.12726
1536.6781 527.42365
1537.2198 529.61804
1538.0911 532.339
1541.0924 532.4439
1539.9458 530.01996
1541.9271 528.52795
1543.6694 530.885
1543.9008 533.86145
1543.2517 536.57355
1545.5769 538.0687
1546.566 535.45654
1549.1819 534.5173
1549.6956 536.8185
1548.479 538.45654
1547.7336 540.56647
1545.1141 540.96875
1545.3379 543.8954
1543.4762 545.6337
1542.4332 542.3914
1542.5598 539.4119
1539.3468 540.8953
1540.2993 544.3068
1540.5105 547.0076
1542.9272 548.0983
1542.6738 550.54395
1540.6038 551.3889
1538.1428 551.5045
1535.9109 550.5038
1538.6985 548.73035
1536.8613 546.0948
1537.5919 543.57263
1534.1882 544.61163
1535.2231 548.0305
1532.6838 549.24817
1531.2277 551.89453
1529.4443 548.6665
1531.8595 546.5131
1530.9104 544.12335
1528.9164 542.6983
1528.4545 545.488
1526.4268 547.422
1526.3435 550.12103
1528.3748 551.71985
1529.16 554.53656
1530.921 557.0237
1530.44 559.6165
1532.5559 561.2217
1534.3488 562.8917
1537.5126 561.5202
1534.4879 558.7165
1535.71 555.5449
1532.8208 555.0798
1534.286 552.4368
1537.7262 553.7442
1539.1007 556.0369
1537.5778 558.26733
1539.9033 560.1771
1541.2932 558.0734
1543.0753 557.05304
1544.3712 555.61755
1541.2059 554.1694
1544.259 553.0655
1546.2407 556.03784
1545.0118 559.70984
1546.4746 562.85614
1543.4939 564.89667
1542.131 561.9507
1539.6053 564.8511
1536.7332 564.2421
1535.0078 566.13574
1538.5221 567.81964
1538.6229 570.5767
1541.1995 570.5434
1542.066 567.7535
1546.4386 566.89166
1545.2 569.50433
1543.7089 571.6776
1543.3348 574.2844
1544.9812 576.42334
1547.303 576.64087
1546.722 573.5255
1548.329 570.47296
1549.2917 566.5773
1549.7246 563.35425
1550.7566 560.8501
1548.593 559.5932
1547.8315 557.4221
1547.7972 554.302
1550.654 553.5744
1550.6335 556.27045
1551.8365 558.2381
1553.0366 553.95605
1552.5426 550.93134
1548.8275 552.02277
1546.3927 551.1677
1545.1453 549.2207
1546.5408 547.2246
1548.213 545.23804
1548.0358 542.9851
1550.3928 541.5458
1551.722 539.1984
1553.235 541.7827
1551.2297 544.43054
1549.6323 547.2167
1549.2771 549.69904
1551.9906 547.773
1554.4062 548.16644
1554.011 545.37134
1555.6124 543.63104
1555.8096 540.66315
1556.7104 538.0146
1554.1178 537.79364
1552.1293 536.15173
1551.9259 533.543
1554.7094 533.7917
1556.0779 535.408
1558.3835 535.379
1558.2931 532.15393
1556.6566 530.65704
1553.8691 531.24335
1551.2096 530.4284
1549.3588 532.1323
1546.5515 532.38104
1546.3142 529.46204
1548.8391 529.2006
1547.414 526.1166
1549.8312 523.873
1550.623 526.6892
1552.8864 528.43304
1555.7227 527.9146
1558.9355 527.8624
1559.8579 524.0914
1556.6412 524.4693
1553.5131 525.3575
1553.5249 522.29224
1550.9027 520.99475
1549.3629 518.8839
1550.4073 516.37445
1552.7727 515.2199
1555.9556 512.4385
1554.2668 510.60214
1551.6859 512.78827
1552.1213 510.2457
1550.8794 508.31885
1548.8639 506.37933
1549.9309 503.9916
1545.725 505.9977
1546.3497 502.9681
1543.6826 500.16882
1546.5754 499.41132
1545.5747 496.42453
1549.0406 496.17758
1552.5303 495.62833
1549.6572 498.6773
1548.7946 501.37872
1551.5148 501.54608
1552.6523 498.42346
1553.9265 500.96487
1555.4762 503.12402
1553.4609 504.21423
1552.0796 506.18674
1554.3704 507.4688
1556.4175 508.74457
1558.1156 509.9983
1559.454 512.45557
1558.5425 514.77466
1558.0463 517.6821
1555.4365 515.4943
1553.948 518.5996
1556.5037 520.993
1559.1411 520.52795
1561.3894 520.2685
1561.5529 516.6515
1562.3466 513.72974
1563.4421 511.47293
1561.8176 510.30008
1560.1316 510.0938
1560.489 507.60168
1558.3774 507.1074
1556.6029 505.42737
1557.2261 502.09518
1559.0781 503.01315
1559.5176 505.05023
1561.4673 505.33502
1563.3502 504.50244
1563.097 506.64313
1562.4236 508.304
1564.2463 508.97382
1564.8984 506.1696
1565.5629 503.68048
1564.1471 502.32135
1565.9806 500.23883
1563.2112 499.86923
1563.7063 497.071
1566.4158 497.28113
1566.4785 494.74402
1566.1544 492.25516
1563.6404 492.32193
1561.9723 494.70224
1559.8964 497.06293
1560.781 500.24103
1561.6173 502.691
1558.5096 499.738
1556.0638 499.66837
1555.8937 497.23804
1556.7621 494.7453
1559.388 492.8505
1555.9563 491.51407
1553.3026 493.23376
1552.348 490.9078
1553.1678 488.97867
1549.8456 491.44968
1548.829 493.69614
1546.1022 491.83804
1543.8455 493.62607
1542.7861 490.5572
1540.1714 488.7804
1542.8767 487.10376
1545.4454 488.59265
1547.7947 489.5608
1550.145 488.68198
1550.7227 486.56937
1548.0627 486.4514
1549.6567 484.12994
1552.068 482.32748
1552.2655 484.70593
1553.4097 486.6498
1555.4819 488.4401
1558.3135 489.63303
1562.0093 490.24942
1560.915 488.03925
1563.514 486.82922
1566.0303 485.97787
1566.282 489.09775
1568.5023 490.99496
1569.0936 486.4727
1569.3252 482.4403
1566.797 483.16766
1564.2458 482.70544
1561.6991 481.90048
1561.7876 484.07034
1560.5387 485.57208
1558.4729 483.95044
1558.725 486.74496
1556.8136 486.5668
1555.4532 484.97125
1554.3187 483.18674
1555.1678 481.16333
1556.9739 482.36478
1557.4548 479.6247
1555.2058 478.80252
1553.2103 479.9188
1551.122 479.6443
1549.7089 481.255
1548.053 482.22726
1546.6313 483.83105
1545.6123 486.041
1544.0763 484.29535
1541.6451 484.2051
1539.8965 485.85147
1537.2239 487.3643
1535.6362 484.15317
1537.9384 484.4492
1539.405 482.13855
1537.0681 481.93555
1536.5819 479.668
1538.7217 479.44678
1537.0991 477.446
1539.55 476.95215
1538.2631 474.47055
1536.5101 475.54077
1535.0262 478.10953
1533.4459 479.15964
1533.7972 476.2683
1534.7301 474.08167
1536.7213 472.52493
1539.343 472.05103
1540.1469 474.2515
1541.7693 475.5491
1542.6858 477.5314
1541.1194 479.4382
1541.6718 481.68506
1543.9897 481.9269
1544.2294 479.38608
1546.2834 481.10822
1546.9595 479.0136
1548.7949 478.26843
1550.7369 477.15845
1552.905 476.95175
1551.24 474.44443
1552.9185 472.82166
1555.4539 474.2564
1554.7786 476.39883
1557.0199 476.8766
1559.2245 477.8931
1559.3185 481.20786
1561.2803 479.50162
1563.8667 479.7799
1564.2418 477.32205
1566.2177 475.47842
1567.7614 477.49982
1566.7076 479.8574
1569.9487 479.7853
1571.374 478.01627
1569.7058 476.80893
1571.4226 475.74405
1571.6119 474.13425
1572.1134 472.6005
1573.0802 470.8838
1571.8387 469.49982
1573.256 467.59033
1573.2328 465.21744
1571.9353 463.2224
1569.9601 464.8681
1570.7391 467.36322
1568.6617 469.65805
1570.1753 471.6676
1569.0137 474.37912
1567.4143 472.16714
1565.0813 472.91867
1563.2852 470.92706
1565.2704 469.02472
1564.1583 465.71603
1561.0146 465.38586
1561.0574 468.07068
1560.6578 470.93195
1560.5814 473.40295
1562.9841 474.61325
1561.383 476.7761
1558.7623 475.10974
1557.4698 472.5963
1558.0343 469.81952
1556.9232 467.073
1557.186 463.68472
1555.1416 463.40002
1552.885 463.09042
1550.819 464.23038
1553.5002 466.56732
1555.0082 470.56323
1552.2133 469.5772
1549.354 471.38916
1549.9446 467.4462
1547.1593 468.76828
1544.3239 468.8703
1545.2476 471.56473
1546.8668 473.48224
1548.7004 475.22327
1545.8467 476.6591
1544.1726 474.69156
1542.1838 473.02377
1542.4651 470.96323
1540.4208 469.95197
1542.019 468.24655
1541.8328 465.98615
1542.7031 463.86118
1545.178 465.9471
1548.0465 464.9774
1547.5297 462.2056
1544.9857 462.49918
1547.1193 459.52072
1550.1835 461.51608
1550.7924 459.3446
1553.114 457.80118
1554.631 460.40207
1556.6027 457.5225
1558.7151 459.8695
1559.2429 463.25146
1561.7559 462.35995
1562.6147 460.04645
1562.4852 457.62015
1565.2516 457.6796
1567.7235 459.05173
1565.216 461.83206
1566.9478 464.49222
1567.6986 467.1995
1568.7804 461.94678
1571.5706 460.8754
1574.3359 462.3648
1575.8259 459.87946
1577.2625 458.38492
1573.6326 459.31372
1575.0483 456.88675
1574.6813 454.13193
1576.1262 451.81857
1577.1904 454.0032
1578.4142 456.27438
1579.7076 453.61246
1582.1536 454.1794
1584.2257 451.33914
1583.4978 448.70862
1581.5939 450.99753
1578.8228 450.86206
1576.7355 449.53107
1577.915 447.7658
1579.0851 445.79526
1580.5804 448.3806
1581.7225 445.99405
1582.2229 443.24545
1582.5656 440.83347
1584.9402 441.06064
1587.4808 439.76605
1586.1543 436.55002
1584.0862 438.4328
1582.7601 435.1599
1581.1731 437.74908
1578.7775 435.65457
1580.3246 432.85904
1578.185 429.49005
1578.5936 425.9185
1580.2107 424.0481
1582.2086 427.20258
1585.4482 426.6768
1583.3933 424.4002
1584.8578 422.42267
1583.7556 419.9817
1584.5747 416.96173
1588.0186 415.81818
1587.2234 417.87506
1587.3848 419.87265
1587.5927 422.2119
1587.6179 424.75238
1588.3583 427.90936
1591.2681 427.23288
1593.9395 428.36185
1590.4456 424.49243
1592.3666 422.47537
1590.29 420.90598
1590.8992 418.163
1590.8667 415.382
1593.7792 416.31848
1596.3303 415.38162
1597.6931 413.27606
1595.2834 412.4494
1593.0391 413.41336
1594.2178 410.19006
1591.135 410.19922
1590.4998 412.56836
1588.3 413.2423
1586.1073 413.33124
1584.1305 413.76456
1582.3079 415.0549
1581.2568 412.714
1579.0023 411.17776
1581.7336 410.1577
1584.1311 411.07986
1585.0354 408.88547
1587.7639 410.5479
1587.6754 407.9729
1590.0387 407.27844
1592.2896 407.31094
1594.2 405.3094
1594.9686 407.80402
1597.503 406.90848
1597.0815 404.60715
1599.4795 404.1043
1600.7444 406.08716
1602.8938 407.58664
1604.0536 409.50507
1603.6483 412.02747
1601.4326 410.3465
1600.0502 408.41574
1597.4856 409.69818
1599.179 411.69098
1601.1373 413.11258
1601.091 415.5034
1600.8667 418.44797
1598.7278 416.645
1596.3877 418.383
1593.6575 419.236
1595.083 421.54108
1594.2216 424.5705
1595.7383 426.66418
1596.8835 429.72592
1598.7188 428.0848
1601.2009 427.38168
1602.458 425.1563
1600.7924 423.49265
1598.3541 425.39056
1597.5244 423.0497
1597.9393 420.1673
1599.852 421.18683
1602.0599 421.08624
1604.138 422.43134
1606.0388 424.53854
1606.9194 422.09427
1607.1749 419.05728
1603.9917 419.6495
1603.7329 417.29156
1606.2235 416.26785
1603.9673 414.50436
1606.2344 411.13574
1606.6554 413.01974
1608.3107 414.21408
1609.5592 416.4076
1611.224 418.73404
1613.2303 415.69937
1611.2615 413.04214
1609.2915 410.51874
1612.0542 409.33142
1614.4032 411.1667
1615.9948 414.04596
1619.0033 412.9731
1618.4608 410.24634
1618.9436 406.84842
1616.0471 407.95868
1613.7043 406.78387
1611.5308 404.89194
1610.5222 407.0146
1608.1622 407.206
1606.5255 408.9842
1605.6555 406.17288
1603.5375 404.87186
1602.1987 402.99463
1605.8303 402.41608
1608.4797 404.15744
1609.415 401.2479
1611.752 402.55475
1614.3024 403.85538
1613.5854 400.3089
1617.1377 397.2554
1619.7108 400.27988
1616.5779 400.64542
1616.7244 404.07248
1619.491 403.74942
1622.3817 401.95093
1623.3916 398.7764
1625.7142 400.96176
1626.6101 397.98547
1624.4346 395.65906
1627.3639 394.28845
1626.1998 391.24805
1624.3828 392.4045
1621.9364 393.60025
1620.7999 396.97226
1619.0687 393.83075
1621.7874 390.19003
1624.0723 388.32693
1627.3239 389.35852
1626.9474 386.751
1624.8406 385.6245
1626.5417 383.7585
1628.1024 381.4352
1628.9578 383.67346
1630.1588 385.5153
1629.1409 387.68948
1628.8062 391.73788
1630.782 392.83136
1630.4435 389.86298
1632.9535 390.4672
1633.3887 392.65735
1635.1791 394.10825
1637.624 394.55255
1641.8688 397.3165
1639.0109 397.47794
1636.6758 399.32886
1635.9456 397.19275
1634.1064 396.35422
1632.4718 394.97797
1630.2966 395.26385
1628.9973 397.06204
1629.4233 400.12662
1631.9645 398.02847
1633.2891 400.19016
1635.4185 401.7317
1635.9863 403.95502
1636.3069 406.19086
1634.8091 407.9973
1637.6324 410.74414
1635.1814 409.7405
1631.1616 409.30017
1629.6497 406.41553
1632.2385 406.74185
1633.988 405.5065
1633.1486 403.27777
1630.7507 403.0168
1627.8549 403.2453
1624.9636 404.31015
1622.3649 405.4682
1621.6094 408.51437
1622.8223 411.60687
1624.7533 408.6164
1627.1118 407.02057
1626.9294 411.15176
1629.9258 411.91818
1632.7488 411.925
1635.2075 411.59674
1634.7625 413.99417
1635.9594 416.16925
1637.9889 415.23383
1636.9099 413.1595
1638.6119 413.0395
1639.4442 411.18927
1640.0646 408.9984
1637.8414 408.40836
1638.5837 406.18073
1641.2161 406.6096
1640.6547 404.10028
1638.3926 403.67395
1638.039 401.31427
1640.4623 400.6717
1643.0536 403.45154
1643.1381 400.84198
1645.6555 399.88235
1644.0503 398.69418
1645.2714 397.06296
1647.2114 396.0481
1647.9954 393.76212
1649.2144 391.68936
1651.4432 391.12424
1652.1074 387.98508
1649.9988 388.22955
1647.6425 389.79138
1647.9579 387.32956
1646.8186 385.54675
1647.2864 383.43054
1649.3702 385.17834
1651.386 383.51035
1649.0449 382.30765
1647.5016 380.6415
1645.8486 381.617
1645.226 379.71213
1642.1011 381.0314
1643.8353 382.05652
1645.0762 383.74902
1644.5006 385.6644
1642.893 387.17603
1642.2693 384.1533
1640.0923 381.9539
1640.2438 385.7964
1639.6681 388.95966
1641.9441 389.33203
1645.6198 387.8295
1644.6096 389.96448
1645.6763 392.22412
1644.0715 394.65305
1642.264 392.10037
1640.5466 394.48444
1638.951 391.60648
1636.0815 391.81708
1636.0396 389.5089
1637.7943 387.47504
1635.9728 385.6684
1634.1233 387.81284
1631.765 387.5853
1633.198 384.86523
1635.394 382.629
1638.1539 383.75858
1637.4529 380.28796
1639.9983 378.6286
1637.8629 376.75836
1635.2266 378.1968
1633.5593 380.50708
1631.5521 382.71182
1630.2849 380.1389
1631.2701 378.08344
1632.7275 376.63614
1633.6632 374.2529
1635.8722 375.23215
1636.8025 373.24686
1636.0249 371.11288
1638.9856 372.13416
1641.4854 371.5916
1640.1844 374.96774
1642.1226 376.4542
1642.8033 379.1255
1644.0261 377.47327
1644.8978 375.32394
1643.425 373.32257
1646.3054 372.1631
1647.4149 374.45862
1647.3801 376.56863
1645.8002 377.76663
1647.6262 378.6288
1649.4357 379.81152
1651.5728 379.10947
1651.5853 381.3975
1654.3816 383.11093
1652.2832 385.61304
1654.4603 388.40915
1655.8315 385.82452
1658.4733 388.17233
1661.502 385.8503
1664.346 387.38626
1664.6631 384.29404
1667.3104 383.4495
1665.373 381.2521
1662.1876 382.0336
1659.5365 380.8222
1657.8235 383.379
1654.4227 380.06717
1657.2461 379.1037
1656.3234 376.25143
1654.1621 374.8672
1652.9414 377.1456
1649.7007 377.46875
1649.9247 375.40268
1651.6302 373.87778
1649.3054 372.04715
1650.3142 369.14212
1652.3647 371.20132
1653.3677 368.69382
1652.0862 365.8617
1649.2976 361.30554
1649.6993 363.6634
1649.1321 366.45395
1645.8322 365.84915
1647.2773 369.11813
1644.2809 369.40204
1641.3531 368.69675
1638.422 368.31845
1641.3495 365.83105
1643.1691 363.48315
1645.8489 362.3181
1647.3768 359.75455
1645.1613 359.13516
1647.3022 356.8529
1649.3246 355.14496
1651.2633 356.32858
1649.9302 358.6579
1652.5162 358.61917
1652.6107 361.304
1654.2859 363.25693
1657.3674 364.7231
1655.0066 365.88507
1655.9773 368.1752
1656.9038 370.59265
1654.8727 372.36594
1657.9946 373.23993
1660.329 371.57312
1658.5409 368.156
1661.0256 368.3214
1663.0935 370.39417
1662.4222 374.20984
1659.383 375.8154
1661.3284 377.9459
1664.166 378.84573
1664.8298 376.05667
1665.2642 372.1054
1666.9635 374.3343
1669.5405 375.6145
1672.437 376.55627
1670.581 378.6813
1667.46 377.91397
1668.3906 380.6207
1669.5093 382.82373
1667.2899 386.15375
1669.2327 387.5357
1669.8612 385.2259
1671.6874 387.2264
1672.4802 384.7925
1671.5647 382.62085
1672.5111 380.655
1675.1162 382.28726
1675.0175 384.63446
1677.8276 385.0883
1674.2849 387.44907
1677.008 387.9136
1679.99 387.704
1682.9731 388.4288
1684.9233 386.2854
1682.8518 385.54858
1680.9248 383.99646
1678.7556 381.85532
1676.3015 380.25607
1677.321 378.0677
1674.2179 378.45267
1675.7241 376.00912
1676.7054 373.85184
1674.7368 373.463
1672.8976 374.24295
1670.8215 373.0633
1668.5057 371.82678
1669.8413 369.27628
1666.4368 368.86572
1663.7593 366.99905
1664.6628 363.97177
1661.8875 363.5137
1660.2047 365.4743
1659.1575 362.1583
1662.9448 360.55856
1660.4166 358.74518
1657.1775 360.67917
1655.3196 359.6542
1657.8031 356.93143
1654.8556 357.51874
1653.7007 355.7921
1652.8472 353.96674
1651.3484 352.75037
1653.8147 351.08347
1656.1006 349.2924
1656.1671 352.31082
1655.8577 354.7459
1658.8306 353.82043
1661.2592 355.72092
1664.2982 355.03055
1665.153 357.90002
1666.6129 361.34427
1667.6201 365.206
1670.6313 366.36618
1671.8656 363.244
1674.6066 365.91354
1673.3901 368.6039
1672.736 371.21796
1675.4792 370.69363
1677.2339 371.4305
1677.3074 368.23032
1678.2197 365.03323
1675.3783 362.43082
1677.1036 359.7105
1679.9121 361.92365
1682.2806 359.50305
1679.9929 357.80875
1678.9825 355.07712
1682.7102 355.25217
1684.3937 357.3819
1686.4468 355.3965
1688.7228 353.46548
1687.6056 350.87863
1686.8351 347.9895
1687.1093 345.3926
1686.1562 343.1957
1686.4028 340.41583
1683.9702 339.1624
1683.7871 342.24893
1684.3445 345.82123
1681.6973 345.0137
1681.19 342.4791
1681.4094 339.63705
1679.3809 337.6017
1676.0564 337.56366
1673.5177 339.2153
1676.2244 340.29523
1678.8129 340.73907
1678.9261 344.1785
1676.7234 343.14203
1674.2964 342.37415
1671.7905 341.17133
1669.5835 342.49774
1668.7023 344.83655
1671.7075 346.30002
1672.0153 343.9961
1674.4888 345.25742
1676.7701 346.3304
1677.3513 349.11176
1679.5199 347.14038
1682.3406 347.798
1684.3762 349.66678
1684.9651 352.5989
1681.6718 352.54626
1680.7327 349.9996
1678.291 351.94403
1675.0435 351.1938
1675.7433 354.07306
1672.1682 354.71283
1675.4039 357.05426
1672.6195 358.89764
1669.7101 361.04465
1668.9587 357.68524
1668.5011 354.7171
1666.5906 352.42673
1669.258 351.2596
1672.2511 351.4127
1674.1781 348.25287
1671.1719 348.88644
1669.03 347.4499
1666.8169 349.0156
1664.4236 349.81094
1663.9153 352.27246
1661.4259 352.09952
1658.8467 351.00107
1658.7915 348.7254
1658.3682 346.43173
1660.9612 347.18326
1661.8844 349.27228
1663.8809 347.15768
1664.0688 344.7153
1661.0604 344.80914
1663.5155 342.39383
1666.376 346.05298
1666.6105 342.89667
1666.2775 340.59756
1669.0538 339.29895
1671.1404 337.40863
1673.3119 335.9689
1675.4448 334.2911
1677.8949 335.20074
1677.8611 332.12756
1680.5918 331.2647
1683.5144 330.1059
1685.3677 333.1394
1682.7665 333.123
1680.6533 334.73932
1682.6392 336.5456
1685.0719 336.36484
1687.6067 335.3618
1687.2598 337.88913
1689.7522 338.7636
1688.9753 341.40643
1689.331 343.87085
1689.6929 346.5955
1690.224 348.9412
1691.128 351.418
1693.7661 350.24133
1693.6233 348.3308
1693.1947 346.4884
1691.9519 344.77515
1691.9495 342.12592
1692.7511 339.51154
1694.4482 336.9414
1695.1034 331.43405
1692.5438 333.21585
1691.0776 336.07358
1688.7816 333.25375
1686.7417 330.50507
1686.4297 328.31088
1689.3818 327.28732
1689.7683 330.99774
1690.9891 328.96823
1693.1393 329.37424
1692.6029 326.02875
1695.7856 324.88412
1695.4567 327.80334
1697.7695 329.47174
1698.3677 332.11966
1700.4116 334.01718
1696.3816 334.50992
1698.0664 337.45923
1696.0222 340.42087
1694.8176 343.25983
1696.1284 345.66882
1696.477 348.27493
1698.7625 346.62238
1701.1996 345.88593
1705.1946 344.465
1703.3264 344.01764
1701.0907 343.35452
1698.2623 343.57816
1699.1365 340.83075
1702.6572 341.27567
1701.3201 339.56726
1701.1362 337.06955
1704.0813 338.57074
1704.7288 341.39148
1706.3796 342.64868
1708.6592 342.7734
1710.8838 340.93558
1713.7904 340.14035
1717.061 339.5851
1715.617 336.65393
1718.924 336.13098
1720.0568 339.19516
1722.1016 337.60385
1723.4797 339.2331
1725.9225 338.58286
1726.9913 336.19672
1724.3804 336.157
1724.4945 333.11392
1721.7518 334.49017
1720.9578 331.34842
1718.2772 332.72192
1715.1228 333.43887
1712.439 336.3301
1709.6945 337.61444
1707.4875 339.90408
1706.227 337.44507
1706.7795 335.3272
1709.1975 334.29013
1711.7363 332.7628
1714.8103 330.4788
1711.5703 329.4052
1708.8174 328.67862
1708.1584 331.5222
1705.5209 332.95325
1703.4144 335.14133
1702.9509 331.39145
1700.8282 329.5903
1698.9045 326.73502
1698.6554 323.50284
1701.4906 324.08405
1703.203 326.89206
1705.4807 329.46133
1706.7272 326.55936
1706.6257 323.69348
1704.1304 321.77084
1708.8118 321.06622
1710.2494 325.43756
1713.5463 325.07562
1712.4756 322.36032
1713.0653 319.67297
1716.2449 319.94687
1719.4539 319.22278
1719.0049 321.8001
1719.1731 324.98563
1716.2898 323.807
1714.0847 327.53046
1716.9854 327.9704
1719.4099 328.07254
1722.1143 327.67938
1722.2698 325.35785
1721.5005 323.1209
1724.06 323.0769
1724.8193 326.25626
1727.7604 326.19116
1727.2532 324.6485
1725.9055 323.51755
1727.942 321.94785
1725.6823 320.69702
1722.5067 320.85776
1722.0698 318.3914
1725.1035 318.3107
1728.1816 318.7508
1730.123 320.40326
1731.5961 318.48492
1732.4734 320.68643
1733.851 322.0126
1735.4517 320.42593
1735.0394 318.704
1737.9941 319.74088
1741.1165 320.38162
1744.0085 321.4603
1747.1489 322.46405
1748.4957 325.3345
1746.3549 326.8414
1744.4409 324.89078
1742.3372 323.43573
1740.9492 325.17233
1740.0734 322.8624
1738.1152 322.0725
1735.9375 322.56714
1737.6527 324.6719
1734.906 324.74548
1732.7815 323.7318
1730.4622 322.71262
1729.3844 324.44687
1731.8569 325.2138
1730.2261 326.12967
1727.7228 334.49216
1730.3887 335.77588
1728.4407 338.1905
1730.8127 338.3537
1732.8258 337.67517
1733.4792 335.6063
1735.545 336.31326
1735.3547 338.60742
1737.4856 336.48465
1740.0632 336.47855
1738.8993 338.80463
1742.1777 339.60464
1743.5616 337.4654
1747.3877 336.61853
1746.7936 339.37436
1745.8032 341.3476
1749.7842 342.67944
1749.8827 339.06805
1752.7925 339.74515
1751.6228 336.33655
1753.0269 333.7682
1749.6276 332.57654
1751.4929 331.791
1751.5219 329.61078
1749.0364 328.78348
1750.9625 326.6981
1750.7721 323.32553
1753.209 324.95142
1756.1558 325.59705
1758.7302 327.5292
1761.1387 329.1728
1759.2561 331.77975
1757.264 329.97336
1755.4937 328.24722
1753.2981 328.0113
1754.2471 331.08835
1756.6558 332.92313
1755.1278 335.2486
1755.158 337.99893
1756.1682 341.0232
1753.7397 342.55936
1752.5331 345.32306
1755.1125 348.21594
1755.9441 345.08246
1758.413 343.8091
1758.8066 341.4716
1758.2443 338.79962
1757.7609 336.08188
1760.043 334.50754
1760.663 337.08167
1760.9622 339.6795
1761.3961 342.17346
1761.4368 345.08603
1758.8632 346.70407
1758.037 349.72015
1756.6377 351.97714
1758.331 354.40253
1758.0314 357.44196
1760.6462 358.4699
1762.6135 360.53085
1765.3586 360.34302
1765.742 362.73032
1768.0764 362.28156
1768.8507 364.1105
1766.7556 366.1497
1765.2676 368.95132
1761.9774 366.54807
1763.9856 364.502
1760.9893 362.88156
1757.9304 361.47385
1758.1206 365.19305
1759.2958 368.569
1755.6101 367.9461
1756.499 370.82092
1753.1417 371.5266
1749.9946 373.60095
1747.0482 375.46854
1747.0808 377.51007
1744.8645 378.7793
1743.2415 377.35934
1741.3414 379.35165
1739.0347 379.72922
1737.5508 381.23947
1737.8002 386.99475
1740.2831 390.25748
1737.5161 392.5953
1734.0198 392.76987
1735.2501 389.1093
1734.6135 381.58737
1731.2545 383.32004
1726.5343 384.79184
1721.2632 385.99747
1715.6404 387.38263
1710.2831 388.12024
1705.9248 388.66718
1702.3778 388.8855
1699.7358 389.01758
1697.7043 389.18
1696.0527 388.5179
1694.3894 389.39078
1693.2799 387.82523
1690.7205 387.64792
1688.5555 387.42514
1686.8784 386.405
1686.1967 388.62732
1689.2964 389.1321
1691.8691 389.33118
1690.3187 406.5665
1696.7128 405.75165
1697.7313 410.24286
1699.5186 410.88458
1701.5581 410.70914
1703.8276 409.2889
1706.415 410.41324
1710.5482 410.1739
1713.9825 409.09317
1717.95 408.7195
1721.991 408.1735
1725.3752 407.21686
1721.8662 402.5444
1726.193 399.2454
1726.362 403.38852
1728.7808 405.61545
1730.9232 407.8728
1733.2922 406.00525
1731.4789 405.1205
1730.5835 402.57996
1731.0352 399.54114
1730.2347 396.083
1734.268 395.5611
1734.1605 398.3718
1737.1165 396.47482
1739.9999 394.23752
1742.8174 395.94742
1745.1012 398.0263
1748.1959 396.581
1748.888 399.46927
1751.2456 398.2264
1751.6522 395.13126
1749.9637 393.32233
1746.2695 394.07904
1743.305 392.76294
1744.0768 389.75327
1744.2402 386.46222
1740.9114 386.30597
1742.8789 383.584
1745.3267 381.84543
1746.9708 383.46985
1747.3835 385.69876
1747.3936 388.38748
1748.053 391.13275
1750.4979 386.16678
1752.6182 383.84775
1753.7609 385.92935
1751.144 388.87735
1752.8503 391.08228
1754.8591 392.77115
1757.2684 394.27243
1759.3293 392.04047
1757.393 390.21005
1755.1621 388.41266
1756.4519 385.2458
1755.3159 382.0516
1758.2881 381.5495
1756.8088 378.48703
1754.1271 378.21713
1752.8533 380.0183
1751.7255 381.6528
1749.8206 383.39688
1748.7695 381.2151
1747.7699 379.57764
1750.334 378.2802
1751.7365 375.80325
1754.5474 375.31815
1756.6294 374.00052
1759.3054 375.3297
1759.7562 378.32632
1762.2175 380.5788
1765.9879 378.75244
1763.3649 377.8387
1762.6791 375.16296
1759.6519 372.17944
1762.1227 370.11166
1763.637 372.4024
1766.239 372.82825
1767.3441 375.98874
1769.0348 373.0131
1768.6279 369.17175
1771.4021 367.4475
1770.0007 365.83945
1771.4128 363.08313
1771.8416 360.58926
1768.919 359.86868
1772.6025 357.53125
1769.8214 356.52838
1766.9519 357.5551
1764.0192 357.65924
1762.0918 355.22107
1765.1467 354.44766
1767.8358 354.07568
1768.9849 351.7885
1770.4907 349.50342
1769.4067 346.0273
1766.9458 347.9997
1765.9524 350.7
1763.2793 351.3179
1760.643 352.4062
1760.9329 349.00253
1763.4834 347.56482
1765.5604 345.35895
1763.8726 343.28348
1763.6687 340.4227
1763.5386 337.74033
1763.5206 334.9017
1762.0039 332.18256
1764.6272 331.6923
1767.1631 334.2467
1767.0565 336.9165
1770.72 338.51047
1768.5557 339.7518
1766.0148 340.10565
1767.1401 342.9931
1770.0865 342.6114
1772.8816 342.3782
1772.9967 345.5063
1773.8997 348.0919
1774.3438 350.92557
1771.9005 353.6775
1775.0645 354.30054
1775.5693 357.4259
1774.97 360.17892
1774.7511 362.84955
1773.2361 365.0121
1775.1927 366.27655
1773.4606 368.52026
1773.5122 371.38275
1771.0922 371.06223
1771.6649 374.92075
1770.3108 378.28738
1769.5415 382.26028
1767.5981 380.6682
1765.1737 382.66595
1767.3846 385.54495
1765.5142 389.68143
1764.4464 386.90128
1762.7478 384.69525
1760.947 382.86368
1759.0598 384.52365
1758.7827 387.24326
1761.2305 387.69647
1761.8645 390.08908
1763.2018 392.46017
1760.9982 394.1816
1759.8339 396.04095
1758.2983 397.4499
1757.4387 399.14413
1756.0657 396.70847
1754.1318 395.36682
1753.6162 397.6035
1753.5394 399.72598
1755.3789 398.96133
1755.5045 401.0275
1752.6023 401.47113
1750.9956 403.47192
1749.0107 402.44888
1746.4482 401.6318
1747.3486 405.30844
1743.8899 405.95416
1741.2161 408.3463
1738.0896 409.69022
1735.4753 409.69193
1737.24 408.04477
1736.7859 405.7698
1738.8794 406.75137
1740.6624 405.30554
1737.4116 403.58505
1739.3368 402.24063
1741.9751 402.82352
1744.0842 401.47842
1741.6198 399.52362
1739.9479 397.3982
1738.0422 399.5772
1736.0244 400.88733
1733.5386 401.77325
1734.8364 404.20258
1735.0486 407.32184
1732.9949 408.61575
1733.6653 410.76648
1730.8533 410.68555
1728.1187 411.7874
1728.5674 408.3531
1726.6476 410.10797
1724.0731 411.5907
1720.0764 411.95407
1715.54 412.43356
1711.4587 412.98666
1707.2513 412.8744
1703.839 412.66605
1701.0464 413.3382
1699.0286 412.96954
1696.8336 412.97208
1695.5431 411.54187
1694.572 410.15585
1693.4934 412.98364
1692.2021 411.15427
1689.5042 411.83368
1685.4077 411.64334
1680.8258 411.71634
1676.2085 413.4475
1668.4526 414.54868
1662.884 416.06967
1659.6697 413.33902
1656.6294 417.3949
1653.118 419.58997
1649.8752 423.4132
1646.368 425.1091
1636.8783 418.55594
1634.9302 420.55182
1635.669 423.27298
1637.1746 427.23633
1635.7402 429.3655
1632.986 428.25287
1633.346 425.38632
1631.4089 422.8653
1631.0737 419.61252
1633.1055 417.65714
1632.0548 415.11502
1628.7412 414.73715
1627.7689 417.86948
1625.1406 415.05392
1622.03 414.72815
1622.9635 418.45883
1624.6678 420.91486
1624.1461 423.70306
1628.1141 421.54572
1627.0679 424.92047
1629.8778 426.19156
1632.814 431.45007
1629.7179 433.17746
1629.7195 429.73306
1626.414 430.82687
1626.345 427.99725
1622.4497 429.63394
1622.7585 426.59912
1620.1638 424.43054
1616.4265 426.87875
1612.5602 425.5246
1616.343 423.01187
1619.7637 420.7982
1619.6617 415.9361
1618.1716 417.76163
1615.2795 418.81982
1612.8497 421.78915
1609.5732 421.96573
1609.091 426.15738
1605.1423 426.88724
1603.4204 429.16815
1600.7943 430.67065
1598.293 432.0816
1596.8154 434.33838
1600.0625 434.0673
1602.4019 433.27444
1604.7642 432.3007
1606.928 429.4649
1606.7478 434.00085
1609.1577 433.2938
1610.836 435.9401
1613.9312 436.13403
1616.8741 436.3941
1618.9591 435.08472
1616.0062 432.64603
1612.6027 432.99316
1610.2694 430.06042
1613.7012 429.5047
1618.6694 429.01187
1619.4088 432.01956
1621.7997 433.62497
1624.0607 432.65378
1626.4531 433.58466
1627.2632 435.4686
1624.16 436.32294
1621.5892 437.09866
1619.5983 438.7029
1617.6685 440.3659
1615.9197 438.67847
1614.5251 441.31613
1612.5769 438.95886
1611.453 441.7069
1608.9503 443.0358
1605.9854 443.89688
1605.8293 441.89923
1605.612 439.2423
1608.3237 440.52417
1609.0784 437.9504
1606.2693 436.74625
1603.9227 435.61597
1601.6903 436.4156
1602.945 438.7253
1603.1643 441.28253
1603.1471 443.83466
1600.4124 442.94073
1600.1395 440.8922
1597.8868 439.40564
1600.3191 438.6049
1599.1376 436.42975
1596.7771 436.9887
1593.8892 435.1479
1591.5642 433.71405
1594.8427 431.82965
1592.078 430.4086
1589.0684 431.00098
1585.7252 429.8336
1580.8221 429.58765
1583.187 431.34012
1585.6171 433.28696
1588.5342 434.08673
1589.4747 437.04233
1592.0337 438.22818
1594.6218 438.34055
1596.2336 441.027
1593.5237 441.982
1591.4143 444.42545
1589.264 446.70663
1586.8326 445.57056
1586.6997 448.795
1584.5784 446.68097
1584.0994 444.3644
1586.1367 442.9193
1588.6473 443.22885
1590.4102 440.84592
" />
</g></g></svg>
