<?xml version="1.0" encoding="UTF-8" standalone="no"?>
<!-- Created for Inkscape (http://www.inkscape.org/) -->

<svg
   xmlns:dc="http://purl.org/dc/elements/1.1/"
   xmlns:cc="http://creativecommons.org/ns#"
   xmlns:rdf="http://www.w3.org/1999/02/22-rdf-syntax-ns#"
   xmlns:svg="http://www.w3.org/2000/svg"
   xmlns="http://www.w3.org/2000/svg"
   xmlns:sodipodi="http://sodipodi.sourceforge.net/DTD/sodipodi-0.dtd"
   xmlns:inkscape="http://www.inkscape.org/namespaces/inkscape"
   width="3200"
   height="800"
   id="svg2985"
   version="1.1"
   inkscape:version="0.48.1 r9760">
  <defs
     id="defs2987" />
  <sodipodi:namedview
     id="base"
     pagecolor="#ffffff"
     bordercolor="#666666"
     borderopacity="1.0"
     inkscape:pageopacity="0.0"
     inkscape:pageshadow="2"
     inkscape:zoom="0.35"
     inkscape:cx="1600"
     inkscape:cy="400"
     inkscape:document-units="px"
     inkscape:current-layer="layer1"
     showgrid="false"  />
  <metadata
     id="metadata2990">
    <rdf:RDF>
      <cc:Work
         rdf:about="">
        <dc:format>image/svg+xml</dc:format>
        <dc:type
           rdf:resource="http://purl.org/dc/dcmitype/StillImage" />
        <dc:title />
      </cc:Work>
    </rdf:RDF>
  </metadata>
  <g
     inkscape:label="Layer 1"
     inkscape:groupmode="layer"
     id="layer1"> 
     <g>
<path style="fill:none;stroke:black;stroke-width:2px;stroke-linejoin:round;stroke-linecap:round;" d="M 
1644.4563 573.3436
1659.3839 597.3211
1650.8723 615.7463
1666.5146 611.6054
1671.3589 612.3962
1668.4006 618.211
1668.5846 624.31714
1671.115 628.98114
1672.1738 625.8459
1671.8676 622.0012
1674.4666 619.5072
1677.937 621.78485
1676.1943 625.44995
1676.7709 629.0002
1681.589 627.7888
1682.09 623.389
1686.7372 622.3099
1687.2637 627.2098
1692.4861 624.3429
1693.5778 628.5624
1697.7048 625.091
1701.1213 628.03156
1706.5587 628.13965
1703.2141 624.21625
1701.573 620.7068
1696.5779 619.6212
1701.5383 616.78394
1702.0144 612.4145
1697.5072 613.8638
1692.8512 614.54675
1691.4531 619.8657
1686.9436 617.68945
1687.5762 613.6437
1682.3138 613.28534
1682.3336 618.5565
1678.3977 616.52826
1673.2449 615.93005
1676.8027 612.3372
1672.76 593.80756
1657.7395 558.3865
1661.8229 556.3203
1665.9324 555.5163
1665.9756 550.87213
1669.1609 547.3323
1672.6451 550.29865
1670.5786 553.98737
1676.0867 553.84436
1680.9164 553.8926
1683.6328 551.5415
1687.3824 554.45715
1688.4642 550.046
1682.4078 547.1951
1682.0874 541.3548
1677.6251 549.1515
1676.0956 544.1067
1669.2295 542.1988
1662.8024 540.28235
1663.0117 545.40063
1660.9371 550.77185
1656.0175 552.6746
1656.1332 546.46326
1654.9419 540.64124
1646.041 511.5726
1648.5087 509.7583
1650.9319 506.36383
1653.038 509.4455
1656.2665 505.81644
1660.1086 505.2558
1664.4305 507.23108
1667.0665 504.68503
1670.0695 506.74377
1674.2097 506.24484
1678.6589 506.5508
1684.5897 509.47586
1693.4349 513.85986
1692.2771 507.81473
1684.3679 505.48288
1681.6963 502.90607
1681.2634 498.51785
1685.5583 490.65103
1686.2664 480.25616
1679.6772 478.08633
1672.3965 480.97086
1670.076 488.31638
1670.2135 492.13892
1673.5543 493.45102
1677.5912 494.10275
1674.8944 498.65518
1676.9047 502.3108
1671.9645 502.80402
1668.4246 501.13962
1670.5638 497.54803
1667.7538 495.01666
1665.8186 491.72153
1665.1697 499.1202
1662.72 502.3359
1656.302 499.9687
1653.2068 502.49973
1656.8136 495.19965
1660.1791 498.1768
1663.8989 495.659
1661.5314 492.674
1657.6384 491.63998
1658.4281 488.55276
1655.4906 488.03778
1653.593 491.56186
1652.3097 494.8256
1651.2917 498.06125
1648.8435 502.38934
1645.514 506.22842
1644.3357 501.34616
1643.1584 496.08286
1647.0813 497.46277
1649.5721 491.48367
1646.0317 492.49274
1643.0513 487.7232
1641.3256 491.013
1591.7037 502.36124
1586.7051 496.11197
1588.5518 490.99652
1583.6694 490.76718
1580.7205 493.14224
1581.846 497.8674
1585.2347 502.63556
1578.5576 502.26562
1572.9314 502.60898
1566.6272 503.2602
1559.8524 502.21146
1558.404 496.54532
1563.6632 499.28876
1568.8588 498.98654
1568.6521 494.15744
1573.3206 496.97995
1577.2142 495.97314
1578.1821 489.39145
1572.6191 491.40842
1567.0892 487.7183
1564.4034 490.63458
1557.4109 490.17212
1552.5468 487.6366
1554.0856 494.9951
1554.8314 500.65173
1558.4375 507.1675
1541.931 519.0982
1538.6422 508.8155
1534.8322 497.9818
1531.5168 489.7344
1531.5872 485.96362
1528.7261 478.9827
1525.8226 470.4669
1522.5902 461.94467
1519.6108 452.86374
1516.8611 444.13852
1497.2734 436.6018
1500.7219 446.24826
1505.204 458.3562
1510.3628 474.0732
1515.8483 489.6786
1521.5896 504.2228
1526.942 519.2391
1498.8947 504.97818
1494.1067 504.78262
1487.387 504.70395
1481.0359 504.25665
1487.1492 496.17194
1489.7053 501.14944
1495.775 499.7969
1494.649 494.78738
1491.2693 491.7529
1492.3807 485.6382
1482.5686 484.75394
1484.5062 489.13373
1482.9244 492.45395
1475.1396 492.36267
1472.6091 498.30444
1474.8885 503.6772
1467.4071 504.59924
1463.962 499.42694
1463.8768 494.3213
1461.182 490.27313
1469.3842 493.30005
1469.2085 487.03357
1465.56 484.22388
1460.7319 484.6942
1456.717 484.7534
1451.9424 453.0425
1445.384 452.86087
1451.4612 449.00546
1457.1085 451.46738
1461.867 451.51477
1458.7058 446.93073
1457.8556 442.3523
1464.5382 441.7715
1463.668 438.191
1466.2355 433.91382
1468.4825 435.7243
1469.2816 438.8506
1465.5621 446.1131
1466.0062 451.4384
1469.6776 452.106
1473.9878 452.06204
1478.5447 452.93088
1477.0537 447.8132
1472.5635 447.45718
1470.4696 443.23694
1474.4983 440.05066
1472.3506 434.33255
1470.0867 429.09354
1464.7391 429.27786
1459.7817 428.98016
1461.3882 434.52698
1458.4465 437.86874
1454.7018 438.73175
1454.9768 444.0165
1451.3965 444.7774
1451.1792 439.8275
1446.7042 437.8484
1447.3289 442.3583
1446.3707 447.0929
1441.642 447.0382
1442.6425 441.34137
1438.9441 439.74347
1436.7749 435.44553
1433.752 427.89468
1435.4766 431.29935
1440.5315 433.63907
1444.6044 434.26025
1450.1443 434.77173
1449.3262 429.83258
1445.2098 428.78854
1440.0581 428.58206
1443.4316 391.78238
1427.7051 392.43893
1419.6841 404.37936
1412.845 404.51587
1408.1857 406.36563
1411.6552 400.05563
1417.5652 393.9583
1411.4634 370.92496
1432.532 345.31888
1433.6583 337.84732
1437.8596 340.54837
1440.2085 345.15778
1442.4058 338.0789
1438.2834 335.11026
1435.9741 331.24054
1437.1356 326.16113
1440.9072 327.61658
1439.7374 322.35052
1439.881 318.2539
1444.6005 319.2856
1449.9595 319.25122
1464.1906 318.2476
1472.7781 317.9381
1456.2888 318.287
1445.9539 324.61462
1444.7312 329.62738
1442.0986 332.79752
1450.0116 334.95425
1458.0654 334.9801
1467.6465 334.69907
1490.0563 353.87506
1494.9197 337.9071
1534.2297 341.79514
1535.5547 336.27945
1540.916 336.0185
1537.3369 330.99533
1538.8234 325.3492
1542.051 320.9229
1550.8284 320.16443
1548.7307 325.9008
1549.7206 336.69327
1560.345 335.8461
1568.9628 335.23853
1571.8293 324.02682
1565.3824 324.88428
1565.0806 319.7874
1555.8652 323.85495
1559.4437 320.32388
1550.5121 276.27576
1551.5115 269.49216
1554.323 264.43997
1554.2915 260.0207
1536.492 242.9041
1531.6731 260.93866
1512.9344 269.46335
1488.4929 271.3725
1478.7755 274.68817
1471.967 274.6688
1465.3257 275.20102
1463.8895 271.49857
1460.7909 274.29333
1461.6077 279.01828
1461.395 283.61804
1456.6942 283.27643
1451.1017 284.5
1452.5553 279.98288
1457.1469 277.76956
1453.1362 275.1859
1457.1187 272.69998
1454.3773 270.3124
1455.5831 265.87115
1458.0248 268.3707
1461.3877 269.4247
1466.0017 267.77628
1463.7546 264.71066
1460.9631 265.63312
1458.8362 263.74622
1456.5975 261.95334
1458.4412 259.21893
1461.75 260.74747
1465.2876 259.39313
1466.9552 263.034
1469.9907 259.98123
1475.0137 259.88995
1469.6226 228.24402
1470.1797 223.15297
1472.4292 218.91127
1472.5928 214.55421
1474.1847 210.56758
1476.4683 207.53522
1482.2043 207.81058
1480.121 212.46059
1477.1647 216.00089
1478.989 220.32687
1474.8799 224.03372
1476.7649 227.6232
1481.1626 259.29092
1486.8453 259.30988
1491.6083 258.41162
1518.0333 251.43411
1522.5428 235.5919
1525.8577 220.83409
1506.4115 205.3838
1501.3519 207.101
1496.1462 206.7854
1491.0737 206.38478
1486.7583 207.03896
1481.1212 171.71758
1482.1602 163.69077
1525.9363 164.22382
1530.2639 154.6525
1525.8108 170.31255
1530.2979 174.94212
1532.9125 184.58534
1530.9648 203.23454
1542.4117 218.24782
1562.5312 220.97281
1564.661 216.18195
1565.1807 208.42119
1569.4642 205.29422
1570.2168 209.49815
1574.529 207.63219
1575.5067 204.29407
1581.5698 204.17903
1584.6289 207.3897
1587.2279 204.60449
1591.2451 208.75024
1587.4598 209.74513
1582.2605 209.158
1578.7142 206.73592
1579.8087 210.72992
1576.557 210.88358
1577.5676 216.62321
1574.2351 219.46393
1586.51 257.6424
1585.479 217.8076
1594.5636 217.06831
1596.0945 210.09102
1595.0933 206.44456
1592.0521 203.9648
1598.7523 201.83955
1599.0652 207.25981
1649.8564 214.58826
1651.3267 204.01924
1657.4841 201.81319
1664.053 203.89583
1663.3057 214.66978
1666.8643 254.36618
1670.0913 257.4254
1674.6261 255.09995
1680.4143 254.43935
1678.6705 258.62064
1673.5468 259.58524
1672.5854 269.6464
1682.398 284.89532
1678.2477 288.3034
1682.507 289.01974
1686.2295 288.9994
1686.4441 293.05167
1689.8071 293.3883
1691.6333 288.5193
1697.1803 288.0966
1702.805 293.75262
1697.2207 294.3334
1696.359 298.92258
1698.5612 303.62103
1695.4019 304.00296
1688.7859 302.34293
1682.4634 303.02316
1682.1298 307.92438
1681.448 312.77542
1688.5503 311.1395
1695.5195 309.0189
1694.8252 315.10233
1694.1908 321.8781
1700.071 323.57828
1693.5778 328.6748
1693.2455 335.53354
1688.7334 334.80954
1689.079 339.85397
1692.3225 342.96408
1697.3167 365.2423
1700.213 374.28003
1689.5524 372.2217
1683.9718 373.2032
1684.904 365.59262
1680.4355 370.2519
1676.3701 368.81702
1678.7709 364.12097
1674.3971 361.03076
1679.3824 346.46664
1679.8784 340.9769
1675.4526 341.1155
1674.1504 335.519
1669.7393 331.94223
1668.7588 335.31665
1662.5992 332.9248
1670.3315 327.8832
1674.8774 331.47012
1679.9242 331.2327
1678.8625 335.73087
1685.1249 343.67145
1683.7719 338.40686
1684.3309 333.6939
1684.6881 329.49805
1685.5897 324.95557
1686.2881 320.37955
1680.8215 317.32248
1680.6863 321.78842
1681.3763 326.25464
1673.7378 322.4362
1668.8708 322.98212
1666.5487 319.4655
1662.0073 321.5516
1656.4316 323.94763
1650.7136 322.91656
1651.6796 320.00058
1650.1954 316.38962
1654.6733 317.55106
1658.4116 317.95163
1662.8948 316.62076
1668.4806 315.70502
1672.1401 318.48
1674.3949 314.47617
1671.6576 311.43802
1674.4698 308.85754
1672.6674 304.37567
1676.1123 304.24594
1674.7672 299.471
1675.0745 295.4964
1678.2096 293.17938
1683.5085 298.4048
1687.8593 297.52954
1682.8984 293.52728
1679.5887 290.7548
1674.7133 290.81693
1664.0133 276.17972
1664.841 274.9021
1664.8533 272.4249
1662.1902 271.4806
1662.8439 269.06946
1666.7776 269.5962
1665.5383 265.74176
1666.1052 261.436
1665.6948 257.42676
1662.5104 257.90295
1659.8613 254.96536
1654.5518 256.4884
1658.2667 258.44385
1660.7013 261.43857
1655.749 261.17703
1652.9072 262.95905
1653.5068 267.30063
1658.7013 269.89255
1654.7404 270.78558
1652.0953 274.67477
1649.9098 270.22525
1645.6473 270.948
1648.7607 262.25613
1651.2678 259.35806
1649.933 255.84306
1645.3036 255.57986
1641.9408 256.7716
1641.428 260.85944
1644.1566 259.22284
1647.183 259.48056
1644.3 262.71283
1641.0139 264.8367
1641.5328 268.47723
1640.97 272.15234
1639.5 276.03177
1584.874 263.08224
1581.1527 259.03632
1578.8788 263.65662
1576.8591 259.2084
1573.413 260.59888
1569.2029 260.86832
1566.7703 258.5215
1567.8508 264.38867
1564.0194 263.26602
1560.6361 259.2725
1559.754 264.08182
1562.7073 274.44095
1573.2041 265.12604
1571.429 273.24866
1570.3706 319.30466
1574.5503 321.52026
1575.4624 317.93073
1630.7377 327.32916
1631.8726 322.94177
1632.612 317.8679
1636.3057 316.2425
1636.6562 319.82404
1640.6388 320.68134
1640.8196 316.6108
1645.023 316.83344
1647.2482 319.8155
1644.0859 322.288
1646.6627 325.90033
1645.7771 330.76
1642.2816 326.57263
1638.396 325.7494
1635.3787 323.597
1631.5359 330.87506
1636.1903 330.431
1641.0519 331.25067
1645.4948 335.45676
1650.9575 333.00275
1656.2584 331.79254
1659.4264 336.08286
1660.5438 340.57642
1655.5569 341.1507
1655.2145 336.97763
1650.9475 338.64346
1647.4607 340.87625
1642.447 339.68668
1637.3635 340.2903
1638.8792 334.99265
1634.1394 335.8855
1629.7264 335.38974
1630.6658 341.2649
1609.0231 354.74405
1601.3127 391.26837
1579.0681 392.06277
1567.0751 391.96942
1561.8367 392.5548
1555.8013 391.50623
1548.0472 391.77304
1538.3389 392.09573
1526.8849 393.3972
1518.7103 394.37552
1512.6328 394.39572
1507.0203 395.72345
1500.9286 398.46075
1501.7468 392.92072
1501.665 381.25546
1486.4066 367.23575
1484.8635 378.31656
1481.2544 389.30347
1470.693 391.17496
1482.5586 395.64075
1485.029 399.7112
1486.6396 404.74963
1487.5724 412.43973
1490.2952 418.94345
1492.6124 423.91766
1494.8511 429.7703
1509.6406 423.8459
1513.516 434.91156
1534.961 429.77652
1540.0085 431.0866
1537.8475 435.33475
1540.1968 440.1308
1540.7742 445.0864
1542.0999 449.92664
1541.3722 454.77496
1546.0966 449.58878
1550.4121 449.09207
1545.7307 444.3722
1551.0414 442.91528
1550.2085 435.40466
1544.1171 435.40894
1544.7313 430.80243
1549.9097 430.76492
1553.2952 438.669
1557.5737 443.16473
1558.8835 447.0737
1553.9036 446.12262
1556.1687 450.40555
1562.2148 450.46893
1565.1833 448.2918
1562.7203 444.21353
1561.9807 435.12668
1557.2372 434.94193
1560.641 430.19803
1565.8652 430.8882
1566.9768 436.572
1568.28 443.8044
1569.7769 449.03317
1574.2723 449.67667
1578.8999 450.10767
1575.6215 444.49896
1573.7378 434.95526
1571.3701 430.69327
1611.8589 417.53925
1625.7189 390.9008
1651.6904 391.1185
1671.4565 391.68484
1672.9619 405.6651
1671.4977 413.42487
1646.4761 418.46136
1638.3828 432.5831
1642.6869 432.87952
1645.9524 435.89493
1638.8561 437.7511
1634.341 439.93082
1634.2876 434.65677
1635.8167 429.59402
1630.2905 429.84277
1629.3147 433.56775
1630.3617 438.50565
1631.8883 444.2081
1637.4192 445.43936
1633.6387 450.02704
1632.1636 457.6655
1639.1293 451.86102
1644.6333 451.4731
1642.3528 445.68463
1645.0133 441.6342
1647.6841 446.8123
1652.4883 444.5923
1650.4849 450.90045
1654.0468 449.3765
1658.4259 451.24326
1657.626 446.95764
1659.9304 443.6602
1657.2588 438.51343
1651.7552 435.9545
1656.7329 433.0066
1657.3677 427.07376
1660.4985 429.59146
1660.6202 436.19104
1661.7388 432.14374
1665.4038 429.4764
1666.7722 432.4291
1671.0586 433.6633
1669.6528 437.8383
1666.8774 435.50912
1663.6388 434.60355
1665.3761 438.21436
1668.937 442.8081
1666.4977 445.8882
1662.4739 448.83707
1666.2701 450.89566
1670.6184 449.58047
1673.2375 453.25784
1677.51 453.09012
1680.8054 455.25662
1679.2971 459.62732
1674.251 458.06598
1676.3876 464.7637
1682.458 464.6685
1677.7706 471.09415
1683.461 469.96143
1684.7686 474.9331
1693.0303 479.18832
1691.2375 474.97687
1689.7761 470.32224
1688.243 465.79874
1689.1493 460.5614
1684.6096 458.03125
1685.9751 453.52722
1683.1101 450.6083
1679.1887 449.32895
1675.0609 448.0942
1673.5107 444.26135
1673.1339 439.63934
1673.5104 435.0415
1676.5491 436.1306
1676.4846 431.868
1675.2303 428.87967
1680.9493 430.04263
1679.1505 425.27988
1679.9536 406.34268
1678.0133 400.3994
1682.0256 393.39014
1688.4319 393.336
1693.3887 391.45584
1694.1614 395.46063
1697.6421 395.4492
1698.9719 406.99286
1696.9735 423.34174
1700.8857 431.5073
1695.1544 435.72894
1693.3864 430.2425
1689.9486 425.2247
1684.5483 425.92432
1687.873 430.2067
1684.5632 433.13806
1688.9902 435.0264
1691.4197 438.77692
1691.3414 444.25638
1688.2561 442.20517
1685.4868 439.92526
1682.8857 437.52307
1680.2482 434.2598
1678.4489 438.90335
1680.2572 442.21347
1679.6956 445.70816
1684.4208 445.3133
1687.7382 447.84885
1689.7504 451.38828
1690.0316 455.9413
1694.3496 457.89172
1698.9244 458.33658
1699.1978 453.40738
1694.3395 452.38483
1693.0167 447.88565
1697.3464 447.1485
1695.8062 441.81934
1702.1072 439.80676
1719.8674 444.4573
1717.9122 449.17654
1714.5815 453.62094
1711.1008 459.73184
1715.0062 461.93793
1717.5377 457.86478
1719.3546 453.55667
1723.9808 455.20038
1722.9958 450.80844
1724.4722 446.74548
1729.1243 446.2621
1727.7076 451.98965
1732.2129 452.11572
1734.5465 446.32443
1737.5103 450.8163
1741.7737 452.96655
1744.3885 448.81802
1740.2683 445.4989
1737.9535 440.7562
1743.4744 439.46497
1742.4774 434.2389
1748.5764 435.43237
1754.4492 435.42758
1755.7113 428.60086
1761.9336 424.8563
1750.9453 420.99374
1741.1982 424.5052
1735.2521 435.49026
1731.8094 440.50098
1725.739 439.3409
1724.6917 427.65405
1722.1267 403.37
1716.6842 391.32196
1708.5845 396.44983
1701.3065 392.13782
1706.4514 391.91006
1711.022 384.6848
1704.7305 384.6507
1705.9628 380.08966
1705.4224 373.57468
1710.1649 372.3363
1709.5214 376.9244
1713.0198 380.45477
1714.2458 374.39053
1721.0979 367.03665
1734.8402 391.06235
1750.4252 392.4092
1759.6582 391.08875
1765.6244 384.51923
1763.3909 381.45285
1767.8787 383.06882
1770.9927 383.03125
1770.6482 378.4847
1768.4579 380.49
1765.3401 378.43777
1768.0486 375.7257
1768.438 372.2301
1763.9058 373.6735
1761.332 376.93387
1757.9974 372.85065
1766.4346 354.29605
1770.0862 353.98425
1784.8756 363.40402
1793.1351 366.44897
1800.2223 369.56793
1800.8196 375.7829
1796.1127 373.64783
1791.0137 373.8817
1786.9625 369.71375
1782.6477 370.23523
1784.9532 375.45566
1781.8297 378.93875
1778.6543 374.64706
1773.9647 372.7702
1773.531 376.29507
1774.2188 380.93237
1777.9631 381.63644
1783.7555 385.37265
1770.4546 390.31613
1777.7233 391.528
1780.4829 421.31467
1787.1859 419.18872
1796.566 420.62567
1802.9098 419.80676
1803.5718 425.7498
1799.0026 426.42404
1795.4653 430.9164
1791.6931 432.90396
1792.7999 426.6508
1787.3047 428.34186
1781.5312 426.12784
1781.7703 429.6854
1783.6805 432.73724
1787.6499 433.30975
1789.6891 437.74942
1794.6343 437.58044
1797.6223 442.507
1792.1472 444.91788
1787.4214 442.07455
1785.0242 446.3615
1787.7598 449.94962
1786.9148 454.55548
1783.7598 457.33203
1785.2312 461.60382
1780.7527 461.83328
1782.6694 466.80078
1778.9021 466.46246
1776.0745 462.37994
1771.9136 462.86456
1777.2422 458.06558
1778.4397 453.90277
1782.5793 452.09454
1779.5969 448.8126
1779.8042 444.16266
1775.9299 445.84412
1774.0038 449.63864
1773.5669 453.5464
1771.3335 457.31708
1767.3926 460.06973
1764.3982 456.58307
1767.8341 453.0797
1768.8495 448.8787
1764.067 448.9868
1760.7838 453.0867
1759.3219 457.91946
1755.8396 461.3786
1752.1644 464.50195
1750.1786 461.48312
1754.1987 456.71518
1754.7628 452.16464
1758.3988 448.8212
1760.4326 445.19165
1763.8682 443.10397
1767.492 444.37296
1771.5216 445.87924
1771.8821 442.03445
1772.8436 437.5439
1776.5774 436.47092
1775.6868 441.304
1779.057 439.56073
1782.8843 441.57504
1785.1001 437.02286
1781.2106 436.57843
1779.3118 432.92673
1774.85 433.02325
1772.4729 429.99612
1776.9612 429.324
1777.3014 425.45724
1772.9519 425.73138
1768.0729 424.19214
1768.2876 428.3693
1770.104 433.84784
1768.8514 436.79736
1767.9692 440.0474
1763.5247 439.04138
1764.3949 435.15842
1760.7269 432.61902
1759.4681 436.86777
1758.8025 441.3084
1754.7214 440.30994
1750.5769 440.80032
1746.8209 444.05908
1754.4016 445.44727
1750.4536 448.50586
1748.1387 453.1257
1750.2251 457.36328
1746.4551 459.16592
1743.8287 456.63458
1742.1786 461.6281
1739.1586 465.0231
1738.3585 469.6724
1742.131 470.32715
1743.8568 466.5342
1746.5382 463.62628
1748.69 467.14108
1751.7112 469.8897
1746.863 470.55923
1749.1055 474.56622
1745.3226 474.27853
1741.7825 475.13382
1742.8489 479.3335
1747.2532 478.8866
1747.2115 483.5264
1741.7943 483.60944
1738.4451 479.91434
1737.931 474.769
1735.1215 472.5941
1732.615 470.8679
1734.6865 467.84744
1733.4008 464.891
1735.7985 461.49045
1739.2494 457.72998
1735.0452 456.55832
1730.8933 458.96545
1730.0054 463.7389
1726.4358 461.8361
1723.3064 459.30194
1720.1798 463.12064
1717.0684 467.5004
1713.1729 471.7335
1711.4314 467.04214
1699.2334 463.36108
1694.2032 465.11908
1695.471 470.81827
1700.1648 468.34244
1700.585 473.41714
1697.2875 476.4542
1698.6118 480.47693
1702.5 479.2401
1709.6912 483.44238
1710.9506 494.09317
1718.1707 485.46722
1721.5258 485.30374
1725.0344 484.13736
1728.057 480.502
1728.1849 476.23447
1724.5225 477.7148
1721.0297 480.52185
1716.814 477.69623
1717.9736 472.89774
1721.3273 475.19528
1725.1055 472.43607
1722.0115 468.9452
1724.8837 465.50354
1727.9349 467.98492
1729.7224 470.02777
1729.8628 473.3154
1732.3698 476.4455
1734.9977 478.82
1732.5437 482.06262
1729.7936 485.69928
1726.4093 489.61932
1721.761 490.17123
1727.605 493.9228
1732.596 494.37863
1738.267 496.9567
1740.2521 492.71472
1736.0986 491.9416
1732.1555 489.53775
1735.9442 485.27725
1739.2246 487.85846
1743.4268 488.67316
1747.1759 488.4123
1750.2905 490.637
1744.3723 494.48343
1750.936 494.44562
1755.4215 491.37836
1758.5063 488.59732
1756.168 484.9529
1751.8961 485.83972
1752.1217 480.2879
1752.4448 474.90823
1756.2498 476.05756
1757.2028 480.12012
1761.2333 482.19043
1762.3761 485.8974
1767.1493 488.25977
1767.1377 482.04263
1771.1575 477.3717
1762.4686 477.9188
1760.605 473.67368
1760.8403 469.18524
1756.0071 471.23663
1755.4608 466.86206
1759.2377 464.99988
1762.7599 462.57874
1767.7661 465.15616
1765.428 469.25824
1766.4681 474.85776
1771.106 470.7366
1774.9365 468.12985
1779.917 472.68918
1776.2839 476.06598
1773.3328 483.56244
1779.2855 481.69876
1791.8235 491.9456
1788.8999 484.3877
1791.5543 476.23456
1787.4395 472.80298
1790.1904 469.1004
1791.0598 460.6753
1792.0911 455.04382
1793.1055 449.60245
1798.443 456.96445
1798.9822 450.226
1803.4634 446.42133
1803.6915 439.64273
1799.4785 435.66718
1799.6151 431.08356
1803.8301 431.80768
1821.8334 433.06763
1843.6774 435.47726
1844.8562 439.2699
1845.1971 443.38455
1845.2485 447.43326
1850.0972 452.70596
1844.5725 454.52603
1835.8235 452.87082
1822.027 453.3926
1806.4622 454.8241
1803.5593 463.97815
1797.5195 467.2098
1796.4401 472.20807
1804.6155 472.3277
1800.9175 476.2994
1803.544 483.98935
1803.7651 491.52682
1799.7178 500.21848
1807.1393 503.199
1803.4829 510.30325
1798.1472 509.74084
1791.5862 508.54254
1786.8298 515.0916
1785.2769 509.00735
1785.3264 502.8851
1790.0662 499.86795
1782.237 497.73334
1773.699 504.18018
1777.0916 508.26822
1776.0989 513.44293
1776.5806 518.1756
1777.6477 522.60675
1771.989 522.23505
1770.4127 519.27997
1770.6998 515.24567
1770.3035 509.75085
1764.4928 511.15842
1765.9342 515.6445
1765.2233 520.9771
1759.8022 521.40576
1755.9618 518.7054
1752.9957 522.37067
1751.6272 519.4559
1747.6398 521.9669
1745.9441 519.00684
1741.7104 521.00745
1741.7046 515.09576
1746.1583 510.923
1746.5391 515.22784
1750.8724 515.65393
1751.3864 510.59772
1755.9523 513.99365
1760.7382 515.8915
1756.0577 509.54947
1760.6248 508.37338
1765.0256 504.61093
1755.9479 503.9411
1749.6193 505.9176
1745.8906 503.71692
1740.3944 504.05377
1735.1409 505.26993
1741.7488 508.9441
1736.7012 511.21817
1735.1583 515.2862
1737.8994 517.9482
1736.5564 521.6004
1721.1626 529.8691
1717.4833 525.82684
1715.4712 529.9255
1697.1224 540.3733
1689.8394 542.76807
1694.8271 549.20325
1692.8793 555.16675
1701.0559 559.5422
1733.4309 605.7528
1733.6492 612.7266
1734.8525 618.6597
1735.6237 624.3949
1736.1785 631.1774
1737.3367 639.326
1738.539 647.44464
1751.2174 645.91223
1751.1764 639.19055
1753.4536 636.13354
1755.292 632.6057
1759.1334 629.3625
1759.5693 633.1805
1758.0692 636.1251
1762.2986 637.95404
1766.9622 639.051
1766.2515 633.8872
1763.0126 630.98303
1760.0452 624.57776
1764.4385 625.76636
1767.8246 628.0609
1770.3091 631.0187
1772.1521 634.44293
1773.834 628.64453
1776.7073 631.4771
1780.0477 627.5881
1776.1013 625.1836
1772.1241 624.56934
1768.4927 622.81616
1771.7432 619.0942
1768.6953 613.87445
1762.5051 614.5626
1767.0112 618.0409
1763.6815 620.8625
1759.808 619.0962
1756.0968 618.7878
1755.5302 612.56494
1757.1395 605.5818
1749.573 599.70245
1749.5005 594.453
1749.0969 588.5639
1758.1354 596.4711
1756.4785 588.798
1755.5352 579.7767
1767.3584 579.0384
1767.3567 584.1354
1767.8784 589.23944
1768.6436 595.4997
1774.705 601.121
1771.9036 598.4857
1764.9702 597.9125
1764.6969 602.0735
1761.9114 609.51215
1766.9019 608.6897
1770.8784 605.44293
1772.1729 610.00543
1773.7023 614.2226
1775.7572 617.4519
1777.5569 611.6629
1775.7798 607.53674
1782.0378 610.6283
1780.3179 607.20685
1777.7161 604.2553
1778.7217 598.1005
1783.715 598.4248
1783.3092 604.14404
1784.9242 608.0873
1788.1108 606.45105
1791.8156 604.89075
1787.6025 600.8915
1788.8982 597.53467
1792.3369 600.1442
1793.5187 597.89154
1797.8174 599.2937
1802.827 598.9053
1808.4225 598.83295
1809.6241 579.36194
1799.6687 574.65924
1793.814 568.9949
1803.6345 565.46277
1804.3448 570.4136
1808.1323 574.3247
1810.2931 588.11597
1815.9681 598.55365
1818.7744 600.6226
1821.9137 598.34106
1823.7692 602.5848
1828.3062 601.7553
1834.0559 601.35565
1838.0399 605.36847
1841.1504 601.50946
1845.7904 601.83606
1849.4617 600.3804
1851.1707 604.1049
1852.3667 607.7418
1852.2666 611.21436
1855.3577 612.83527
1858.6791 614.77
1857.9701 618.8377
1857.7544 623.0083
1854.5109 623.75085
1852.137 620.7662
1853.9532 617.52655
1850.6794 615.0016
1848.773 618.7595
1844.7954 619.09094
1840.929 618.19385
1840.3232 622.13367
1842.2007 625.2948
1846.2312 622.9283
1849.822 624.1313
1851.8108 627.267
1855.8674 628.5633
1853.9963 631.5234
1851.7991 634.24084
1851.7823 638.68176
1849.0269 642.9272
1850.653 648.15515
1845.856 648.62463
1841.2104 652.21936
1841.3629 647.8307
1836.8658 648.1156
1830.2048 638.8221
1835.6152 638.33936
1840.8694 638.7416
1841.949 634.9503
1846.1543 638.25305
1848.3573 634.93396
1849.1569 630.2766
1845.4478 627.7099
1844.6759 632.04553
1836.936 633.83527
1839.3389 630.00165
1836.8579 626.18054
1836.5454 620.603
1836.9011 615.5048
1841.4309 613.81305
1845.6934 614.7796
1847.757 611.1477
1846.6238 606.5472
1842.6082 608.94525
1837.2064 610.357
1823.9995 614.62946
1823.8645 626.3173
1824.4282 637.6238
1819.3674 638.94525
1824.234 648.9069
1824.4712 659.0654
1824.7676 669.30396
1813.2009 669.58356
1808.8433 662.29425
1813.2133 657.30615
1807.8704 652.4725
1813.592 650.45667
1813.4021 644.41144
1806.8872 645.64874
1807.19 639.25696
1810.0408 640.95404
1814.3074 639.2307
1812.5469 634.92645
1812.6179 629.77844
1812.4866 624.6739
1812.1494 620.07166
1812.0261 615.8072
1812.158 611.4469
1812.0303 606.2917
1812.2551 600.21014
1805.47 605.1118
1800.9194 605.9195
1796.4564 605.1909
1797.3647 609.1887
1792.8953 608.397
1790.9083 611.21234
1786.8618 612.2389
1782.9292 614.38367
1779.5741 615.6003
1779.4452 619.0547
1775.9037 621.3576
1779.6289 623.8158
1784.0972 624.7802
1781.6147 621.21375
1784.7908 620.2019
1786.4604 617.2218
1791.4165 619.10657
1790.0388 615.4315
1793.9692 614.13385
1797.29 612.91174
1800.7722 614.77454
1801.7227 611.1937
1804.7894 608.577
1806.6354 611.3063
1805.4219 614.7675
1806.6605 618.8323
1807.0554 623.3551
1802.5128 617.9514
1798.3738 617.89813
1795.0254 618.5124
1796.0059 622.6058
1798.4587 625.876
1801.8289 621.5352
1803.168 624.9386
1805.7566 627.7442
1807.4624 631.1332
1803.9536 632.5917
1801.0962 629.64575
1796.4755 630.5226
1797.1919 634.4964
1792.4326 634.0905
1788.5476 631.993
1792.8171 627.4312
1789.9147 622.4976
1788.113 626.4836
1784.6234 629.82544
1781.0889 632.2849
1777.5155 636.29443
1777.0402 641.35834
1783.3372 636.0767
1787.912 637.3402
1782.5884 640.94385
1785.1455 645.9657
1787.1232 642.06354
1790.4125 643.6114
1791.7698 639.9254
1795.0913 638.07916
1796.4319 641.6196
1799.6124 638.64435
1803.5256 639.07983
1802.0068 642.68304
1799.5172 644.0921
1796.9691 645.3428
1794.1301 644.3876
1791.9043 646.48254
1789.0825 648.1134
1786.2806 651.01733
1783.9097 654.25104
1781.6782 657.35425
1780.3573 660.94604
1776.3931 658.26514
1778.3129 654.61444
1780.0629 651.6575
1782.4227 649.09326
1780.0305 645.10925
1777.3135 648.2999
1773.3152 646.9901
1771.5568 642.60944
1772.0398 638.4002
1768.4509 646.34015
1764.469 643.75214
1760.438 642.97736
1756.9403 644.72546
1757.7673 639.7961
1754.3795 640.2639
1753.3467 643.5805
1751.5789 650.1841
1755.3214 648.7753
1760.2927 648.12445
1764.8021 649.57623
1769.0271 652.33417
1774.5112 651.8078
1772.3694 655.5117
1771.5787 659.576
1777.1136 663.0027
1773.4543 664.9025
1769.4874 664.02277
1766.4115 660.7751
1765.501 656.89844
1762.6107 653.57294
1758.1975 652.79333
1753.9813 654.1778
1755.3181 658.7951
1760.1626 658.1324
1758.4794 662.909
1762.6533 664.49054
1764.0886 669.0126
1766.92 666.7106
1770.0006 669.661
1775.0132 670.5729
1777.917 667.97687
1782.9238 669.8137
1782.3724 665.5337
1784.4708 661.74945
1786.8497 658.7002
1788.7549 655.7527
1790.377 652.894
1792.854 650.7887
1794.9407 648.02655
1796.6663 651.0175
1799.2534 648.12244
1802.7255 646.9427
1804.5251 650.32806
1800.2402 652.5919
1804.6047 656.3696
1798.3806 657.86755
1801.4592 661.9596
1804.0767 667.94366
1796.5408 668.1471
1794.3164 664.10126
1794.7874 655.0178
1792.6206 659.4955
1788.653 663.8151
1788.3883 668.501
1787.3639 679.8934
1787.8114 685.0287
1792.5244 686.2474
1794.1589 682.1928
1795.9296 677.6726
1798.3594 685.05396
1795.5198 689.8136
1800.8148 690.0848
1798.7856 694.1817
1803.3063 696.0931
1808.0571 695.84344
1807.2253 702.57196
1802.3889 703.98865
1800.5441 700.33203
1796.339 703.63086
1796.2323 699.3496
1794.6821 696.1074
1792.4606 692.736
1789.1093 690.2843
1784.5208 689.5054
1780.9246 692.75146
1777.5454 689.4085
1775.0574 694.2577
1769.6459 690.74457
1772.3064 686.52057
1782.1821 684.7278
1780.8842 678.5947
1777.1039 683.42645
1772.7186 679.85785
1766.9595 681.5421
1763.9845 685.62756
1764.1472 690.5787
1765.7788 694.96124
1769.8242 697.00195
1773.6746 699.6351
1778.5688 700.8984
1781.668 697.82367
1785.4585 701.9548
1785.7593 695.15796
1789.8225 696.9283
1791.1818 702.1565
1790.3506 711.13605
1783.6204 710.91895
1780.7438 716.1576
1778.1642 711.9308
1772.8087 712.36426
1775.5516 717.8926
1778.3666 721.2902
1774.3472 722.60455
1770.7924 722.5571
1775.7632 726.2329
1775.0023 730.2873
1771.7021 729.2895
1768.9614 726.8166
1766.5479 723.0517
1769.9749 718.6277
1767.8971 714.3482
1763.8546 718.0514
1747.6263 717.5577
1749.1779 724.49457
1742.28 726.97186
1740.4827 732.9947
1744.6932 738.8633
1750.4064 738.7365
1747.9097 731.96576
1753.4099 731.14514
1757.3289 736.7702
1755.4409 742.47174
1759.1069 745.9883
1762.5159 741.9407
1766.1426 739.0763
1769.8834 742.3323
1764.8397 747.09735
1764.3478 751.83484
1769.4421 751.36804
1771.4744 747.0694
1775.3113 743.76416
1780.49 741.4171
1786.5806 739.9345
1788.0193 733.4368
1793.4119 733.9261
1789.9619 729.12415
1789.4663 724.4933
1788.908 720.3425
1785.0974 723.9045
1784.8173 728.57825
1783.0498 733.11
1778.1924 732.55145
1779.6945 729.5412
1780.6056 725.685
1782.1217 721.0606
1785.061 718.2987
1786.519 714.6356
1790.6855 716.2878
1795.0236 715.42926
1798.2322 711.77124
1805.1675 710.9866
1809.9976 715.4933
1806.0813 718.4666
1809.8716 721.6224
1808.8513 726.029
1803.1501 724.2315
1799.1143 718.8317
1794.1895 720.8366
1794.011 725.9151
1798.7628 725.8754
1796.1033 730.5993
1799.7639 734.9997
1801.4849 731.00726
1805.3092 729.1929
1806.1294 734.7812
1803.01 741.8756
1800.6881 745.0553
1796.6753 742.17236
1791.3257 743.12866
1785.1981 744.3642
1794.9009 747.65894
1798.7666 749.85144
1800.4066 753.213
1797.9153 755.48816
1793.3679 752.7093
1788.3096 755.0199
1788.8179 748.4415
1783.7172 751.71576
1780.2515 746.62854
1778.5134 750.26117
1774.3987 751.2927
1773.1768 756.0928
1771.0614 759.6781
1777.4688 758.9507
1780.3806 761.5963
1778.209 754.8313
1782.7045 756.5551
1785.426 760.37225
1790.7865 759.0239
1794.6799 757.6104
1798.1978 760.4581
1801.0074 763.56805
1799.1372 768.8034
1794.5103 762.7549
1789.3969 763.15466
1783.4807 768.47394
1788.4664 770.9414
1793.515 770.4151
1799.0564 773.7861
1802.9672 777.76807
1799.1405 779.13086
1797.6079 783.2308
1803.5105 783.2308
1806.7161 780.52075
1810.1224 783.2308
1816.6978 783.2308
1811.4448 778.05334
1807.2821 775.6573
1803.8207 772.7176
1810.9443 771.7415
1806.5372 769.02405
1806.2175 762.96454
1803.3677 760.28314
1801.3453 757.61084
1804.2107 755.75934
1803.804 751.85394
1803.6145 748.12915
1807.2546 745.8434
1807.8776 742.2182
1812.4152 743.1498
1817.1304 743.954
1821.0701 743.06415
1825.7905 744.8817
1821.843 746.3409
1822.2678 750.0525
1820.2123 753.8877
1816.1638 757.19946
1815.3875 752.8735
1818.1575 749.06305
1814.8678 747.1512
1811.8018 748.2657
1809.1086 750.0902
1807.5352 753.2275
1811.6375 755.4691
1808.1018 758.08887
1810.8433 762.75867
1816.117 761.8514
1816.0632 767.492
1816.9624 772.31775
1816.724 777.8032
1823.6519 783.2308
1827.2982 779.0785
1830.94 783.2308
1837.4125 783.2308
1833.5776 777.6622
1838.0792 776.28455
1841.7866 779.54456
1843.6194 783.2308
1847.0911 780.30164
1849.5691 776.62775
1847.9343 772.38983
1850.275 769.4624
1854.4781 768.33234
1855.3027 764.1438
1857.4792 761.5273
1859.3606 767.9454
1858.7246 773.1888
1853.894 773.5282
1854.0806 778.95526
1850.7823 783.2308
1859.5413 783.2308
1860.2825 779.19464
1863.6285 776.24896
1863.5903 769.62396
1864.0205 764.35297
1861.2932 762.5501
1864.0005 759.03
1864.2858 755.2311
1861.0908 754.1351
1863.7107 751.80975
1864.2102 749.0425
1863.3977 746.2153
1862.4036 742.99493
1864.5646 739.2876
1861.3116 738.62427
1857.8931 739.3644
1855.8564 742.5008
1851.9187 741.79144
1848.8555 740.21533
1845.5671 741.5319
1841.6898 743.25616
1843.133 737.42
1839.2361 739.86487
1834.5251 737.3481
1835.7415 742.9238
1837.0936 746.8449
1839.5891 749.5058
1843.3025 747.12823
1847.8218 746.01935
1852.4727 746.26404
1858.3582 745.6495
1859.9445 749.8913
1855.624 749.8684
1857.2195 754.35956
1859.6763 758.09296
1853.9209 756.58777
1851.2214 759.3908
1851.4949 751.71027
1847.0741 751.4068
1842.6089 752.9315
1844.8916 757.02
1846.7002 761.0178
1850.7845 764.42615
1846.8662 766.0235
1843.9907 768.9899
1844.4587 775.7483
1841.2041 772.3858
1842.6533 764.1284
1839.5457 761.8032
1837.4083 758.3997
1837.9521 754.1886
1833.7788 751.46576
1829.3539 753.3404
1832.1796 757.6452
1833.5044 763.637
1837.9923 767.98236
1833.607 770.0539
1830.4739 774.1715
1825.7068 773.7862
1827.9323 769.6207
1826.7681 765.9234
1827.8845 762.0025
1826.4076 758.2755
1824.8259 754.2458
1826.2435 749.7719
1829.268 747.5201
1832.6965 746.52924
1830.6238 742.3359
1825.771 740.5922
1825.831 734.5383
1825.5403 727.1191
1833.7593 730.54926
1837.9788 734.9048
1841.7058 732.6645
1838.3655 729.21783
1836.5723 723.9408
1835.9827 717.5678
1840.4744 718.8627
1844.8745 717.29266
1845.3013 721.76965
1841.7131 725.1515
1844.5667 729.25354
1846.1288 733.2957
1848.187 736.34784
1851.8501 734.0889
1853.334 737.6918
1857.6366 734.8673
1863.2367 734.01117
1854.4669 731.29205
1849.7148 729.98615
1847.2085 725.83734
1850.8811 724.59125
1854.5935 727.2736
1858.5413 725.20544
1859.3666 730.4494
1863.5189 728.00977
1863.7384 722.26984
1858.9116 720.85034
1854.8616 717.71533
1853.3888 721.7354
1849.79 718.41284
1848.6812 712.6086
1843.1652 710.6382
1849.3457 707.68787
1855.2695 707.1975
1853.6567 712.1746
1858.5146 713.76715
1862.2446 717.6238
1863.8328 714.2105
1863.4758 709.88684
1859.1292 708.77356
1863.0076 705.0175
1863.6617 699.89404
1859.7195 697.4849
1858.7101 702.16644
1854.1077 703.18787
1853.7665 698.27246
1856.8538 694.8646
1854.0713 692.77386
1850.3217 693.199
1845.4615 691.44244
1845.0939 685.38367
1841.1003 686.7165
1836.924 683.73267
1836.8477 688.223
1837.4259 693.26337
1841.8076 694.8253
1847.6133 697.5313
1849.8785 702.3756
1845.3037 703.4267
1840.4133 705.54803
1835.9115 708.8211
1841.2944 699.65247
1835.4812 700.97974
1824.7291 690.8536
1824.4895 684.35626
1825.7163 697.7213
1825.9597 703.7036
1825.5498 711.5394
1825.3578 718.977
1815.3473 728.43787
1815.7031 733.4612
1815.7375 738.4747
1811.167 735.7119
1810.2759 730.6996
1815.3834 723.74115
1815.3538 718.3708
1814.756 713.3219
1814.6455 709.1941
1814.2734 704.0159
1812.2303 700.095
1814.1993 695.16785
1814.2283 687.5976
1808.8376 689.4206
1805.0526 688.0135
1803.8046 683.14813
1804.097 678.16077
1812.472 679.7217
1824.4827 676.6907
1836.4265 672.24585
1836.4324 667.02167
1840.1896 664.4232
1839.5465 669.3968
1841.1797 672.57086
1845.1304 672.0822
1849.1034 673.3127
1852.5333 676.8363
1852.9801 681.9661
1849.8345 682.003
1849.4495 687.1224
1853.1477 688.45026
1855.4484 685.10675
1858.8429 686.6719
1857.148 690.08075
1860.2152 692.7667
1863.6018 694.416
1864.5159 689.69745
1861.4854 689.1231
1863.768 685.1582
1860.2583 682.1481
1864.0923 676.9985
1859.6514 675.72754
1863.4019 670.49945
1858.4509 666.58295
1858.1929 671.1573
1853.4847 671.95624
1852.9729 667.5724
1854.2478 663.8475
1850.861 661.08203
1848.1785 664.2432
1848.2262 668.55597
1843.6812 667.2007
1843.715 661.67035
1847.2537 658.85254
1839.1254 658.7923
1836.3777 661.6754
1836.8469 654.31085
1842.7557 656.4853
1846.1897 654.0491
1849.8276 652.7644
1851.729 656.2542
1855.0681 659.54034
1858.562 662.1069
1863.1339 665.005
1864.1646 660.56946
1860.3958 659.46576
1862.9692 654.6807
1857.5181 655.7178
1854.5408 652.1516
1856.2556 646.9235
1858.3403 650.2806
1862.8499 647.7318
1862.8398 640.4923
1857.3701 640.36053
1855.3546 635.69696
1859.2603 636.3255
1863.5802 636.05365
1863.8306 631.8031
1859.2509 631.8793
1859.2424 626.7305
1863.1646 627.7503
1864.1934 623.0453
1861.2549 621.53217
1863.3503 616.9675
1863.1973 611.6316
1858.498 609.32416
1863.1807 605.8906
1863.75 599.65466
1859.5703 601.8886
1856.77 605.2536
1854.0039 601.13574
1856.3105 598.13257
1859.8458 596.67615
1863.4564 593.84485
1864.2112 588.9178
1864.062 583.45294
1861.643 586.1799
1860.1879 589.6886
1858.3556 592.9067
1854.5862 593.7146
1852.3022 596.9213
1850.521 593.3831
1849.3503 588.65466
1849.1367 584.58185
1849.6321 580.5751
1849.1895 576.28766
1854.4028 577.19684
1853.1807 572.75555
1858.5198 572.91284
1859.1558 576.5724
1854.776 581.449
1853.069 585.3738
1852.0377 590.05945
1855.28 589.9026
1856.5385 587.4096
1857.6753 584.9385
1859.7979 582.7604
1859.5017 579.74036
1863.8187 579.048
1863.3987 574.30963
1863.6156 569.42303
1861.1829 566.421
1863.9202 562.4432
1859.7422 561.4668
1857.064 564.721
1857.088 569.4374
1854.0087 566.1997
1850.5513 565.51996
1851.2456 569.17816
1847.9205 571.9685
1846.7924 566.95996
1848.2311 563.13257
1849.8076 559.16876
1846.0015 560.87787
1809.4618 564.9208
1804.2981 559.70496
1805.1552 553.60077
1804.913 540.9692
1805.6727 547.4411
1794.0193 558.29175
1793.799 547.768
1794.7236 539.2565
1804.4265 534.1096
1796.9219 529.2621
1791.4371 529.01526
1786.741 522.7451
1791.9631 519.97614
1801.6418 526.8864
1806.7146 528.58636
1807.8152 521.3027
1800.8684 517.71136
1807.5925 513.45685
1842.6047 515.8385
1844.517 510.30374
1844.977 505.4545
1848.7523 503.3365
1847.9419 498.9003
1844.0276 499.5627
1847.1613 494.90417
1848.8054 490.74844
1844.177 492.06317
1844.1743 486.7462
1847.8735 486.30292
1847.826 482.10187
1844.0262 481.10202
1845.7866 477.1555
1844.9526 471.46884
1844.7898 463.18417
1856.1226 464.76154
1856.2754 470.45267
1857.842 474.7357
1859.8447 479.00824
1855.623 479.85193
1858.8528 483.58408
1856.0505 486.9403
1856.9712 492.1165
1856.7471 497.9792
1856.0989 504.1109
1859.0625 507.5061
1856.2822 512.2984
1851.7556 514.085
1850.5563 508.4
1847.6614 512.4206
1847.3373 516.74744
1845.6716 521.28754
1844.7263 526.1132
1847.8551 529.9836
1850.4185 534.2085
1844.578 533.6926
1846.1123 537.84235
1844.4551 541.5771
1845.4031 546.347
1845.4017 550.59607
1849.4525 549.477
1853.122 549.22723
1857.3157 551.379
1854.0769 554.0976
1848.7141 553.1651
1845.9009 556.1347
1851.4104 556.2571
1852.7848 561.95593
1855.8184 559.3398
1858.6018 555.7661
1863.1934 557.51196
1862.773 553.24805
1863.8174 549.677
1863.6636 545.1658
1860.2653 547.95026
1856.7561 547.2326
1854.8042 544.27625
1858.2765 542.8688
1861.3945 541.519
1864.458 540.01196
1864.2522 533.64343
1862.22 536.88684
1858.4048 537.74493
1852.702 541.5254
1850.6091 545.4131
1847.8502 542.5596
1850.4341 538.5907
1854.7563 537.7126
1855.429 532.5616
1853.2305 528.4901
1850.8558 524.5308
1850.8291 519.5863
1855.4404 518.59
1857.9668 521.456
1857.8451 526.5433
1859.6545 533.02686
1862.1868 529.80096
1863.8751 526.6591
1862.6416 522.92377
1863.5797 518.7672
1861.3224 515.58936
1862.6895 511.49432
1863.7216 506.4263
1862.2593 501.3207
1862.7408 496.1789
1863.4143 491.23297
1862.0559 487.36212
1863.7476 483.03406
1863.6923 478.0746
1863.4698 473.4607
1861.7886 469.40366
1864.3604 465.11655
1860.6708 464.49738
1859.0836 460.4902
1855.8162 457.5834
1856.8228 452.20703
1860.6569 455.77756
1863.8865 458.92978
1863.3022 451.83896
1863.3889 443.7681
1859.4569 446.02365
1855.157 446.34155
1855.3434 441.32718
1858.8162 438.93817
1863.3176 437.1521
1863.3931 431.22418
1858.5355 428.85312
1858.2678 433.63452
1853.4104 435.62283
1852.8429 430.5911
1846.2576 433.2318
1844.0918 428.11246
1845.8772 421.55396
1846.2137 415.8154
1849.5304 425.46594
1855.5835 425.2197
1858.9836 423.19446
1863.1228 426.05588
1863.8799 421.5058
1860.4592 419.2521
1855.7281 419.10355
1858.7114 415.30893
1855.7506 412.84482
1856.5013 408.6272
1860.4836 410.33838
1863.5537 416.48026
1863.7805 412.18967
1864.4067 406.6584
1861.3513 405.50937
1863.7087 399.9494
1863.035 394.75348
1863.2346 390.07782
1864.2351 385.49237
1861.6069 382.94153
1863.5352 378.94556
1864.0269 371.28442
1863.0911 364.03043
1857.1433 362.90384
1855.988 369.8469
1859.9188 375.76614
1856.4985 377.05484
1857.2197 381.89572
1855.0125 386.89566
1859.3767 386.67563
1858.1915 391.17938
1854.1768 393.11737
1857.7759 396.31094
1855.2087 399.99747
1859.7285 402.00375
1856.2698 404.83853
1845.2268 409.16217
1844.4033 402.3821
1843.6436 396.7401
1845.553 391.87704
1844.9008 387.90866
1846.2687 384.19427
1841.8573 384.93958
1842.0083 380.89572
1846.313 379.29807
1843.8688 375.6747
1845.2288 370.84756
1844.6494 364.62085
1844.2471 357.21735
1845.1042 350.58856
1845.8993 344.6531
1846.3333 340.0529
1846.7561 335.18124
1847.7932 329.60223
1849.6569 319.33368
1850.3848 308.2385
1847.6758 286.98065
1855.6096 280.82596
1854.8232 285.12637
1854.308 291.3645
1862.52 290.87012
1863.4019 284.4543
1863.2129 278.0917
1862.2858 271.7774
1855.5535 271.09473
1847.5564 279.86255
1842.6431 275.86035
1841.1509 269.10052
1833.4263 273.9682
1834.337 281.15652
1828.5413 278.73352
1823.1187 283.37823
1834.538 287.22253
1840.8586 291.25955
1829.4069 293.35477
1819.7341 293.37613
1817.3053 304.96582
1814.9604 309.73294
1813.6023 317.17245
1808.6063 316.82684
1810.3464 308.6209
1805.4452 308.5736
1800.7068 309.87247
1799.2329 319.65692
1800.8263 323.8012
1804.7537 319.3291
1810.9961 321.73376
1806.5726 323.79474
1803.4633 331.98352
1801.7256 336.8702
1801.1531 330.70978
1793.7748 324.10968
1786.8986 318.53424
1783.5675 323.88266
1778.1605 323.55133
1773.6871 324.1819
1768.342 323.10892
1766.7672 331.32678
1766.8281 335.95724
1767.3524 341.52026
1767.9661 346.30493
1766.9585 350.01614
1757.1536 349.29288
1755.5217 346.72507
1756.183 340.56665
1752.3628 339.71866
1754.1897 334.6695
1753.6738 328.9617
1748.9302 329.91544
1746.458 325.51428
1743.9014 321.52963
1741.0813 326.1517
1742.4744 330.46484
1744.837 333.89508
1748.6941 335.99432
1748.1858 341.24954
1743.095 338.09222
1739.0221 334.41037
1736.6223 329.9431
1735.898 325.15225
1738.6917 321.13193
1742.0521 316.88757
1746.6597 313.4282
1751.5979 312.88345
1747.5503 318.36752
1751.593 323.11298
1760.1444 323.50375
1765.1858 319.17606
1758.6553 317.37296
1756.8599 310.96564
1763.2542 312.0561
1769.6816 309.17792
1785.6672 307.90308
1785.1359 272.0037
1789.6282 271.94836
1786.3097 268.75357
1773.8854 255.01363
1768.8553 255.77942
1762.6339 256.92236
1758.1222 255.15309
1753.1698 255.58885
1746.9238 255.88287
1742.6384 253.96402
1738.2097 256.1111
1732.3292 257.7194
1732.3728 253.13654
1738.2532 248.71567
1733.0266 246.98769
1679.9196 214.41023
1673.9854 206.23691
1670.0172 201.57588
1678.4685 200.95493
1683.9689 206.26683
1685.4926 201.13101
1688.06 195.79742
1723.0802 174.61803
1736.8942 244.43956
1742.2572 243.9351
1743.2532 248.03854
1747.1598 244.24045
1751.1105 244.20389
1747.0566 250.2137
1750.6011 248.57661
1754.276 250.55017
1758.8217 250.14635
1761.4089 247.8407
1755.1562 246.90538
1754.7732 243.25443
1758.8236 244.15288
1763.2079 243.45699
1764.6655 248.15498
1764.178 252.90741
1768.2074 250.26854
1771.0784 246.24289
1766.9113 245.28659
1769.2261 242.57909
1774.5427 242.69571
1774.9861 247.45256
1772.5724 250.86221
1791.0223 266.8611
1794.1743 271.8466
1797.6597 267.10474
1799.1805 271.7206
1822.6677 274.50983
1822.4866 268.0715
1828.7073 267.86264
1835.2593 263.82443
1834.9501 258.9133
1834.9441 254.1304
1828.9088 259.27475
1822.4792 261.34232
1822.6696 254.74883
1822.3181 247.66618
1822.0994 240.93689
1829.0833 252.37482
1834.7345 250.40565
1834.8301 246.58269
1834.5449 242.53696
1829.6562 244.44016
1828.9346 239.27682
1822.4617 233.64655
1826.1677 223.57713
1823.0302 214.53006
1823.1858 205.30286
1832.3809 200.67099
1822.7307 194.3527
1823.8799 170.05185
1833.305 186.63283
1829.7634 193.08716
1840.1333 191.5272
1840.457 196.84616
1846.7397 195.77524
1846.4812 199.39275
1846.6775 204.04092
1840.9912 204.20279
1840.3164 208.77847
1846.7058 210.42342
1846.5867 216.7658
1847.2051 222.7011
1847.3494 228.25609
1851.4546 227.31758
1852.7582 230.26794
1847.4739 233.22229
1841.3145 230.66818
1840.3356 225.38295
1840.526 219.0252
1837.6465 213.81905
1834.3481 207.99956
1832.8416 220.65991
1833.7539 227.21135
1829.6885 232.51707
1834.7626 232.87953
1834.376 237.96594
1840.7944 235.93109
1839.1538 240.05247
1841.3367 241.99686
1841.014 246.91132
1840.9546 250.63693
1840.9567 253.98882
1841.155 259.12485
1841.5079 263.93564
1848.3673 272.1625
1848.269 264.61588
1854.4534 263.4986
1861.5981 264.59406
1861.0182 257.9093
1860.3169 252.18652
1859.8068 246.79056
1854.2507 246.29611
1855.303 249.44153
1852.9689 250.59056
1854.4768 253.13477
1855.563 255.72672
1855.162 259.8068
1853.482 257.03967
1847.7278 257.64197
1847.8069 251.17186
1847.593 244.72508
1847.574 238.79019
1854.5393 242.8687
1854.4363 239.45439
1854.4495 236.31578
1854.4377 233.27522
1857.2454 229.95752
1863.8341 227.75381
1860.3772 227.8693
1856.37 227.02557
1854.1084 224.49104
1854.2013 220.70564
1853.5502 217.16731
1854.0167 213.2676
1853.3047 208.5304
1852.99 203.04399
1852.8422 197.09471
1846.1824 192.61
1846.2903 188.23137
1844.9492 182.15492
1843.8433 175.43398
1851.798 173.20753
1852.6497 177.40564
1852.6235 190.42337
1852.2366 182.89267
1858.4961 176.92119
1863.3152 176.84958
1852.2318 168.0932
1852.2795 164.1483
1850.2012 161.51294
1842.9785 166.51697
1844.3135 156.8005
1852.477 159.93854
1851.5098 156.35162
1851.5344 152.50423
1851.5272 148.5197
1851.3123 144.5725
1851.5862 139.91348
1850.7834 134.76007
1844.3887 133.23088
1841.4407 128.45006
1845.9988 124.18354
1850.9769 128.29091
1861.2183 121.25218
1853.488 121.71476
1845.9364 119.45854
1850.0886 115.129135
1850.3994 108.193
1850.0486 102.29145
1849.4172 97.95562
1852.0991 90.29116
1855.6562 89.64767
1848.6777 89.3561
1849.3768 93.867615
1843.9485 94.53042
1843.7178 89.874146
1847.5923 84.738075
1850.3444 83.62403
1853.2727 82.13229
1856.6807 82.35687
1860.22 81.35734
1859.7417 89.645615
1863.5656 89.09331
1863.9082 81.47251
1862.6617 75.52849
1856.8936 76.12405
1851.845 76.121025
1848.9376 79.8763
1846.6996 76.36657
1848.7495 71.51422
1848.3132 65.3008
1851.2993 62.32388
1845.3811 58.242565
1849.4553 57.23817
1853.1052 56.670685
1855.2925 59.133602
1856.1685 62.468273
1859.8489 62.306496
1864.2102 61.594116
1861.6353 60.344357
1859.5996 56.007244
1856.7665 54.36273
1863.3767 54.710526
1863.632 50.16113
1862.458 45.54403
1859.0942 49.687725
1855.2368 48.926548
1853.0632 52.997097
1851.3116 47.90869
1848.6655 43.388577
1855.6333 43.194782
1862.4945 41.20652
1862.723 15.210977
1856.5299 16.329855
1850.1666 15.956914
1848.0381 11.232769
1847.354 6.434795
1842.4132 9.270025
1843.4806 14.801756
1840.495 18.139622
1846.903 19.28838
1846.0337 23.847109
1841.9788 26.829311
1834.1326 26.936104
1841.5198 35.45466
1838.7161 44.406597
1843.2236 45.450726
1846.7563 49.01794
1848.719 53.27283
1843.6233 53.195286
1839.1455 50.879143
1838.5924 57.248585
1843.0447 62.781307
1836.3735 63.586838
1829.4165 63.762554
1823.3689 64.51725
1824.3992 57.65467
1818.8014 58.568874
1817.5356 64.54191
1815.8715 71.02494
1816.4648 80.240875
1818.7859 77.548744
1825.2931 77.92974
1830.8928 77.61177
1835.5359 78.44163
1837.8606 76.332436
1842.478 75.96269
1841.8906 79.59933
1844.8574 81.94067
1842.0952 84.380486
1836.8552 83.61174
1831.7256 83.71046
1821.3851 84.07598
1826.3582 84.144424
1832.2676 91.884796
1836.217 90.7359
1839.4047 91.78928
1841.324 97.79272
1844.3962 100.60465
1840.2537 103.15518
1844.0192 105.62086
1844.5961 110.63945
1837.7189 108.7375
1841.1248 114.57389
1838.742 120.81105
1832.0338 116.59654
1833.1638 126.09245
1825.7051 132.65273
1821.9613 142.63283
1833.6768 144.32085
1835.5457 138.0591
1844.9673 139.39697
1843.6326 144.96953
1842.05 150.34738
1832.9796 151.97299
1823.3861 159.6195
1811.826 146.97911
1807.4932 154.27744
1798.2399 147.85576
1796.8666 136.50871
1798.933 129.51086
1798.7432 124.729065
1801.1768 120.61803
1797.5178 119.55363
1799.0648 114.81004
1802.3872 110.84932
1805.4628 116.10168
1813.5608 119.05596
1823.198 100.16154
1827.251 91.65105
1822.1146 92.02566
1816.489 85.19887
1816.1399 93.434586
1810.9598 93.12801
1806.8855 89.09845
1805.2783 94.68385
1799.4336 94.24312
1797.8976 87.63699
1793.4779 95.18168
1793.6165 113.47748
1787.7908 113.77884
1784.2997 118.227005
1788.867 118.17077
1793.4772 117.36816
1793.9054 121.93769
1789.5005 122.88454
1787.5056 129.20569
1793.291 126.729
1793.6362 131.84546
1790.6776 137.02263
1785.1931 135.85396
1779.2578 149.15228
1779.1858 136.8906
1773.3732 131.56548
1780.091 129.8241
1779.489 124.25029
1784.7493 123.59586
1779.7681 118.686935
1775.9708 120.23892
1772.0417 119.95405
1768.4355 121.07951
1764.6803 120.21772
1766.3591 116.716805
1771.3191 115.81333
1776.3687 115.03596
1781.9513 114.305565
1783.5057 95.97933
1777.3802 96.10381
1771.3623 95.259285
1766.1416 96.819725
1767.175 92.020874
1766.0791 87.800255
1764.2944 84.27845
1764.6085 80.79673
1764.3689 76.95171
1764.3186 73.25319
1768.3896 73.457886
1771.727 71.15628
1775.9907 70.78074
1777.9004 75.081055
1778.403 79.492485
1772.9401 75.83913
1768.306 78.39843
1769.3326 84.93039
1773.723 84.5051
1777.6113 84.026566
1782.576 82.575424
1779.2805 88.88621
1784.9236 88.74131
1788.9099 93.996956
1792.0073 88.2028
1787.9213 83.50568
1783.2036 77.29598
1781.4993 72.69932
1780.5731 68.97481
1785.0399 70.157585
1789.2173 68.61971
1793.1276 71.140816
1787.2971 74.032906
1788.5864 78.24484
1793.2233 77.179726
1794.4082 82.992676
1798.1836 79.29358
1803.2661 81.61156
1799.9258 74.32814
1798.8527 68.70483
1806.3455 72.87231
1805.7415 65.30851
1809.1936 57.820942
1813.609 56.86617
1812.347 51.864777
1817.3809 53.213444
1821.9489 52.18053
1826.0571 48.99073
1828.208 53.05791
1830.8704 57.741127
1834.1019 53.9012
1833.1345 48.946827
1833.7576 44.113285
1828.911 44.863483
1823.9668 44.90852
1819.8813 45.73832
1815.9934 47.366817
1810.591 45.956764
1808.0537 50.68659
1800.5837 44.690952
1800.7937 39.106316
1795.0775 36.7109
1798.6547 33.9219
1794.2036 29.369358
1798.6023 27.875305
1803.8712 32.36175
1803.513 25.514227
1810.6107 24.6181
1819.3336 36.035507
1821.1672 27.796402
1817.1725 24.333502
1821.6229 20.663145
1826.4681 20.83361
1827.4263 27.041471
1831.3889 22.378628
1838.4722 22.283524
1834.6522 18.931763
1831.1885 14.175053
1836.8928 13.308901
1836.8801 6.304058
1831.6376 7.8311887
1823.1357 7.2601767
1816.3853 16.656155
1811.5114 8.351747
1801.2114 5.7186084
1799.1399 6.8742204
1797.5503 5.7420597
1794.617 6.1265435
1791.6389 6.532944
1787.9507 6.4306817
1783.1519 6.7369175
1771.1373 6.175305
1779.0887 27.937664
1774.2358 29.749977
1775.8899 34.46848
1772.3984 35.918304
1775.1034 40.366943
1776.4926 43.954483
1780.2405 41.268322
1783.7782 43.179188
1785.3811 38.69432
1780.761 35.862114
1778.4136 31.593851
1782.511 30.890686
1785.0254 27.753906
1789.9635 26.875708
1789.6918 30.951214
1785.8463 33.661785
1790.3578 35.793846
1792.1368 40.921074
1796.5846 43.842243
1792.1787 46.473495
1788.1206 43.62302
1784.8774 47.215458
1780.5664 46.210934
1777.5046 47.549484
1773.8341 47.361626
1770.2722 46.75582
1772.6378 43.317318
1769.561 40.632324
1768.0383 36.948517
1770.3783 31.544888
1766.2212 32.948467
1762.8042 36.464508
1757.5254 37.576824
1762.1464 42.322144
1767.5599 43.45487
1766.0461 46.193573
1757.0354 49.36542
1759.1805 55.344913
1753.1655 53.81622
1753.9946 59.88781
1751.3531 57.844215
1746.627 60.525284
1742.1292 52.327587
1745.9625 49.994743
1746.4066 45.57771
1750.4246 38.160397
1754.769 34.15052
1747.6666 33.42947
1743.2982 38.441616
1737.4386 40.001778
1731.9384 36.883617
1730.08 25.71459
1738.0304 32.441322
1743.2712 32.36451
1737.1942 27.101685
1738.6605 18.794912
1739.2002 9.659767
1716.5103 8.116887
1722.0173 18.826164
1716.5641 32.114815
1703.8535 30.919672
1704.9221 26.82069
1686.6827 6.350529
1662.251 14.86794
1659.651 33.507214
1674.2952 32.742134
1677.8828 28.982594
1674.5525 40.13529
1673.3796 44.947506
1679.0911 75.074326
1674.2185 74.93989
1668.8796 74.76187
1671.8497 79.64689
1668.499 85.49182
1679.7932 84.784996
1678.5344 79.41499
1684.4563 78.35226
1683.4395 73.77919
1687.9945 74.38729
1691.6134 78.08397
1689.615 84.08784
1698.2283 83.261856
1696.8187 77.19034
1700.6873 74.672035
1702.5385 70.09823
1702.7759 51.34492
1703.8892 46.582047
1696.5151 44.125957
1696.175 49.01195
1689.9177 51.88381
1688.0515 43.112904
1693.0938 39.738995
1696.8519 35.53879
1700.8806 41.229107
1702.5127 35.786808
1707.8284 36.639954
1716.8629 46.670784
1707.8127 53.213093
1713.9729 59.4031
1722.8801 50.919613
1729.4794 52.03519
1728.286 45.150135
1735.5876 45.301563
1735.5972 57.24924
1733.2574 66.627464
1743.6254 68.21017
1749.3132 73.93201
1760.5028 76.61292
1757.5712 79.26801
1754.8159 82.669655
1757.1943 85.78484
1760.2859 82.54837
1761.6658 87.361275
1761.9294 93.07559
1760.658 97.23065
1756.2687 92.259056
1747.8251 87.36848
1755.0964 97.324036
1756.5771 101.08996
1752.7759 102.87124
1761.1052 118.64838
1762.491 122.98531
1759.3546 122.155014
1756.6222 121.09072
1755.6309 124.29303
1752.0714 125.79511
1751.4285 130.11436
1755.2332 128.20612
1759.1321 125.606575
1765.1172 125.51995
1765.8628 131.19052
1764.3722 136.49286
1761.6627 155.09134
1756.2611 162.87549
1752.8717 175.63078
1755.2354 168.8977
1752.7844 160.31783
1752.9392 155.39946
1744.2693 153.7617
1728.978 153.6295
1731.3059 137.45706
1731.3096 123.39822
1733.4827 113.3701
1728.3923 113.55898
1723.467 111.53298
1718.4479 109.68104
1720.1383 105.798996
1724.0582 106.68893
1734.5771 108.85223
1738.7495 109.02001
1739.6401 103.52584
1743.7706 106.2469
1746.3115 100.83269
1741.6919 98.94732
1742.1462 94.181465
1737.4817 95.50751
1734.3479 104.45388
1734.4955 99.8361
1732.2654 94.77346
1733.481 89.90963
1738.2445 90.021164
1733.2062 82.85616
1726.2164 92.78043
1720.3815 96.823814
1722.2539 101.26985
1716.2593 104.25799
1712.406 101.10684
1695.6743 114.45423
1690.4993 116.79926
1690.2482 119.97369
1695.1511 119.51165
1693.0442 123.11933
1692.6931 128.7472
1685.545 129.63931
1686.8469 122.341125
1685.5155 118.01446
1682.0718 122.25909
1680.3257 118.42651
1674.2183 118.68942
1664.2598 120.87135
1661.0968 130.01898
1670.61 122.79574
1676.9379 123.01352
1677.9783 130.4703
1671.1406 130.91026
1666.5251 158.74055
1647.7927 154.94589
1624.3033 151.26407
1606.0343 152.50726
1589.5493 129.75168
1599.919 128.70415
1606.6598 128.27234
1608.8679 121.44821
1609.7615 117.24571
1611.2745 113.13893
1603.4675 116.37965
1604.3125 121.01813
1600.0137 120.907524
1595.634 117.659195
1595.5363 122.1871
1590.6608 122.80861
1589.3927 117.859276
1586.9835 86.94959
1588.7427 82.87536
1591.5989 79.279755
1595.859 76.406944
1596.1573 80.123535
1594.5151 85.0073
1600.923 84.80552
1605.8352 82.97724
1610.836 81.69237
1616.2391 82.89639
1618.535 76.13286
1613.4835 75.48486
1607.709 76.70605
1603.4652 74.99534
1601.3965 79.12612
1599.3962 74.96706
1592.7109 74.07221
1588.8276 76.5012
1589.6055 70.95262
1594.1007 69.32111
1596.7975 71.67177
1601.0535 70.8776
1606.1345 71.48149
1612.0696 70.74676
1619.2297 69.27092
1614.5637 43.418205
1609.5634 43.88283
1603.888 44.33058
1599.3884 44.31476
1595.4209 45.05912
1596.3081 41.280396
1598.8562 39.412037
1602.4307 40.13401
1604.9761 37.234562
1606.9656 40.822403
1608.8701 36.982082
1610.9205 39.77577
1614.2462 38.681244
1617.955 38.045383
1620.5785 35.38321
1619.7479 42.317307
1624.1313 40.251995
1627.0586 36.718887
1629.3019 31.214333
1625.9818 31.945936
1621.9243 31.887789
1617.0663 31.693539
1614.521 34.365437
1611.0361 33.830177
1607.1459 33.228985
1603.3589 32.861217
1601.0532 35.635258
1597.5886 35.20636
1585.8733 28.767439
1582.8782 25.55062
1586.7837 23.407421
1599.294 30.154781
1603.3125 28.957378
1607.3582 28.907782
1610.7179 29.242031
1614.0945 28.594347
1618.8113 27.96586
1623.6428 27.4368
1628.9382 26.546146
1626.4099 5.448124
1615.5553 5.771893
1606.2643 6.647299
1600.1196 11.638864
1592.491 8.194496
1590.9067 5.5214086
1589.6475 8.131079
1586.6958 7.005258
1588.2588 11.147709
1589.6262 15.68246
1585.5272 19.426834
1585.4127 14.492245
1570.3689 8.540878
1568.9421 15.211355
1567.0767 20.686731
1561.5494 19.481237
1556.2435 19.54273
1550.7014 20.3031
1545.1964 20.675907
1540.962 23.843939
1537.8105 21.24568
1528.2764 17.813375
1524.6869 20.942823
1528.3287 23.227661
1523.8722 25.761292
1520.6165 28.844593
1520.4203 22.596231
1521.2921 16.98141
1524.29 13.019647
1530.5948 13.51214
1532.7971 7.77928
1527.948 6.2060957
1525.6492 8.860823
1517.0181 7.6966653
1513.7732 12.797344
1511.9368 18.365244
1509.9812 22.866135
1509.5219 27.340677
1506.9958 31.672546
1505.1174 36.898308
1503.3646 43.26515
1498.785 45.08818
1503.0542 48.554737
1503.1602 53.33391
1506.7446 54.771935
1506.7349 59.93768
1507.899 65.89266
1512.565 69.24501
1510.9167 74.38879
1513.3025 80.18594
1514.5106 85.712265
1520.0287 79.12569
1524.7925 80.39214
1528.9644 78.59542
1532.8491 78.4645
1536.4396 76.46333
1526.4434 73.26397
1519.5437 73.74518
1519.7034 68.162224
1524.444 65.13951
1519.4307 61.08493
1515.1814 63.18021
1513.5614 57.344536
1517.9197 56.136574
1521.0078 50.879208
1517.2106 48.461582
1517.108 52.030586
1513.338 52.702614
1510.847 50.34743
1513.5426 47.99281
1509.586 46.36076
1511.6483 43.780746
1514.9602 44.739735
1514.2651 40.656178
1516.5627 36.83598
1518.0917 40.924335
1518.0732 44.64504
1520.39 46.58226
1521.4349 42.48911
1521.675 38.112656
1521.5414 33.60292
1525.5602 34.505497
1525.8524 29.493992
1535.7933 27.419273
1539.6365 29.927814
1535.0461 34.351646
1547.1223 52.283672
1552.3019 52.73595
1541.3374 52.621685
1536.108 53.188015
1531.8734 53.196247
1527.7266 52.105732
1524.9425 53.539906
1521.5853 54.858364
1524.182 58.93064
1528.8105 56.681873
1529.235 62.168335
1530.228 67.77282
1533.761 71.86885
1540.1526 73.05585
1546.455 73.217155
1544.5648 78.02154
1540.0897 80.09777
1543.6882 84.105804
1540.0146 89.48379
1538.1077 84.93514
1535.2928 82.157326
1530.781 83.81354
1525.8964 85.89936
1521.1704 85.112045
1523.6935 90.568825
1516.341 90.62626
1517.5477 95.84469
1518.6733 101.15932
1523.8293 95.24112
1528.3774 94.10136
1529.5862 88.73896
1534.6312 88.10615
1533.4413 92.36569
1532.3667 97.284935
1529.2397 101.01098
1525.5671 99.54971
1527.0104 105.171684
1520.9446 107.34479
1522.2168 113.840935
1528.9214 110.13885
1530.8943 114.320984
1524.3492 119.53345
1525.5522 124.69937
1532.5753 126.66807
1532.4163 122.19981
1533.0369 118.17152
1538.8834 122.32079
1538.7638 115.24826
1536.0448 110.40462
1532.5925 107.04923
1533.1697 102.56957
1538.069 104.96139
1543.2418 107.92522
1544.7106 98.77581
1537.8636 100.168304
1538.2073 94.95212
1546.0522 90.94065
1550.3514 82.699295
1552.4911 74.309494
1554.5887 67.44537
1555.8115 61.59378
1557.8035 55.656837
1558.9142 48.87314
1561.9299 40.57767
1563.9917 32.585533
1565.7823 26.35582
1580.4055 34.37783
1583.3131 31.879358
1582.401 38.10624
1579.8911 42.40594
1578.9988 48.04252
1576.9086 55.272316
1574.927 64.26854
1573.374 71.63589
1570.9617 75.90332
1571.7966 80.45092
1567.7034 91.18947
1579.5059 119.02158
1583.581 118.39815
1586.2579 121.64467
1583.0757 123.48666
1578.6301 124.0691
1579.7063 129.14488
1576.2383 129.91301
1576.5889 133.19292
1579.0161 153.68239
1562.3552 154.7977
1553.4193 153.20749
1551.443 145.1594
1545.8312 139.06506
1537.3804 129.452
1537.0736 136.61678
1532.7668 144.8494
1528.9542 138.08078
1528.1171 133.16461
1526.0924 129.10378
1461.9673 138.01009
1453.914 160.59642
1447.0121 180.20412
1441.0825 197.07245
1435.7664 211.84918
1430.9354 225.8258
1426.5232 238.1736
1422.9514 248.43588
1419.8397 256.86572
1417.0431 265.3149
1413.0222 276.96606
1408.0922 291.0863
1402.7615 306.49475
1397.2496 322.18414
1392.2576 336.08072
1388.19 347.96768
1384.4086 358.92404
1380.7881 368.66623
1377.7744 377.9111
1374.4263 386.9917
1370.564 394.9837
1374.5587 401.284
1377.79 408.58792
1381.2969 415.38702
1384.3038 422.01407
1401.368 416.8522
1405.062 411.45465
1397.5485 422.861
1389.1133 426.1394
1388.6884 431.52698
1391.5149 435.97107
1393.3613 440.7081
1395.6085 446.07855
1397.412 450.54025
1400.0134 454.44193
1399.8303 457.6363
1402.8398 461.12756
1405.1088 465.60693
1407.264 470.132
1408.1133 474.00388
1409.9987 477.209
1411.5586 480.68713
1413.0455 484.06406
1415.3466 488.76282
1418.1467 494.83163
1421.558 502.5966
1425.9388 511.5918
1430.4165 521.62836
1434.8184 530.3016
1437.6425 537.3307
1440.3563 541.80994
1439.898 544.5889
1442.7919 546.95465
1444.524 550.7372
1443.4734 554.6461
1446.9286 555.1759
1448.9105 560.17163
1451.0801 565.77844
1453.9072 571.46826
1457.9297 578.4083
1460.6925 585.8404
1464.0544 593.5173
1469.3683 603.66376
1473.4082 613.21106
1477.4753 623.0914
1485.0594 614.2066
1487.7598 606.3432
1489.8097 599.24133
1487.6346 595.98
1490.6244 593.6099
1493.5245 591.7734
1486.17 591.6559
1488.6149 588.56866
1486.8058 583.8289
1492.8632 587.1222
1492.2223 583.0102
1491.076 552.1353
1494.4583 547.9928
1496.898 551.5302
1501.3413 551.52625
1503.4832 548.08344
1507.9431 546.6237
1506.1877 551.37476
1510.024 552.2052
1512.8334 551.27124
1516.4811 553.5423
1515.4069 548.9729
1511.6556 547.0709
1513.806 544.2831
1511.0653 541.00616
1506.612 540.4768
1501.6973 539.78284
1503.3873 544.02423
1499.0648 546.9378
1496.931 543.1586
1490.2991 546.67303
1485.1537 551.5459
1482.7644 546.01306
1486.883 543.2633
1491.681 540.6715
1483.9517 538.1959
1479.8743 540.28546
1478.5981 534.22705
1487.7277 534.8509
1493.9796 534.8499
1496.6439 538.59937
1500.4623 534.93445
1510.1948 535.79803
1531.2207 532.6753
1535.3624 542.8265
1538.0889 551.35834
1540.4391 557.3579
1542.2886 562.31866
1545.505 565.441
1541.8401 567.21155
1544.598 570.83386
1540.4037 573.70233
1542.9152 577.59235
1541.8389 583.29987
1537.4758 580.47345
1535.981 586.7086
1540.6796 588.4456
1536.9755 592.87823
1540.1873 596.0668
1536.5222 599.39886
1541.0399 602.65045
1541.6772 606.6412
1544.2295 611.4681
1543.801 622.3387
1545.9321 617.08246
1556.9575 613.3182
1554.4424 608.3986
1557.2968 604.63184
1554.3378 598.85754
1548.4479 595.5742
1549.028 589.61804
1550.681 583.71436
1553.6968 582.195
1552.2593 578.65436
1554.336 574.65173
1559.7803 570.2105
1554.6085 569.73346
1549.5596 565.67285
1556.6227 563.3321
1554.4467 556.1136
1552.2262 549.4427
1549.8455 544.368
1548.2505 541.2504
1544.7855 527.09406
1547.1583 534.55396
1550.7588 540.7723
1566.3994 538.9117
1569.3135 539.22015
1572.2407 537.2123
1576.4542 538.48804
1580.6346 538.7794
1584.0502 539.8516
1587.6415 541.2895
1590.6106 539.7004
1592.1407 542.31213
1594.5278 538.74994
1598.5695 540.51227
1603.1249 540.48975
1603.5554 545.6284
1605.811 551.0132
1599.8245 550.937
1598.6821 545.76227
1594.5371 551.7813
1594.4714 547.80896
1594.9811 543.7293
1589.5137 545.15027
1590.0496 549.4961
1589.8059 552.8674
1585.0005 551.6632
1585.4602 547.6965
1584.2961 544.0566
1580.1166 550.5852
1575.79 548.33435
1580.1359 544.315
1576.0751 543.0264
1572.324 542.0227
1569.4784 545.36926
1570.9978 550.3079
1573.0151 554.7856
1574.9143 571.53284
1563.6719 573.38556
1558.9287 575.5087
1561.4388 578.89905
1557.0441 579.85406
1556.2747 584.2213
1554.085 587.276
1560.2819 583.12335
1558.8867 586.491
1557.9597 589.9757
1554.087 592.0382
1557.4012 595.7089
1563.7491 600.05286
1562.1913 607.32733
1562.2708 614.7687
1567.8035 616.2528
1565.8011 610.68414
1569.9968 610.8457
1579.9778 610.6945
1585.1006 613.6047
1588.4514 616.07227
1592.2196 614.53204
1597.4559 615.5653
1592.1532 620.3611
1594.4224 624.1208
1598.8248 620.9464
1598.3551 626.70856
1602.032 624.9558
1604.2742 628.9765
1607.9156 626.8718
1605.5752 623.3355
1605.5417 619.6466
1602.274 616.7835
1608.4525 616.7276
1610.7023 621.68146
1613.4995 617.55566
1618.1487 617.4821
1618.217 621.44696
1621.3751 624.96924
1618.9307 628.35474
1615.2914 629.66956
1615.2905 624.39966
1611.7632 626.6428
1609.3076 631.5118
1605.1392 632.76196
1600.4868 631.3425
1596.0652 631.2833
1590.516 631.29877
1592.7971 628.1529
1588.6765 625.3039
1586.6611 619.88196
1570.8171 621.9712
1565.947 625.80865
1564.3191 620.3375
1560.0176 624.6341
1558.514 619.26544
1548.9202 623.2397
1545.864 626.867
1546.899 630.6629
1545.033 633.78284
1547.8654 637.17786
1546.3701 640.5358
1543.772 641.5447
1544.4725 644.802
1543.5933 648.3708
1543.6165 652.9779
1540.6697 651.8444
1539.2122 655.48
1541.8002 658.4218
1539.6942 664.5019
1533.8665 663.1001
1537.0775 659.3763
1536.0165 652.64197
1539.2095 648.7346
1536.3302 646.22595
1539.8491 644.374
1540.8307 640.8996
1537.8358 639.08655
1542.7719 637.21954
1540.0098 633.34894
1541.1523 627.83057
1532.6248 631.44147
1529.6805 642.1286
1529.2424 649.3479
1527.0648 656.2372
1525.073 664.85956
1529.6469 667.85516
1522.504 677.5562
1518.2903 691.7265
1522.9329 701.62415
1526.2606 708.1318
1528.8988 694.4631
1531.1768 699.56744
1533.1934 705.1226
1534.9769 711.2286
1539.8796 712.3022
1543.4513 708.77155
1539.2784 705.4458
1538.3613 700.0274
1535.7058 694.79645
1533.1788 689.7838
1532.2355 684.4808
1535.1735 678.3482
1532.9009 672.9655
1535.4377 667.0052
1538.1152 672.00745
1543.386 677.8957
1556.3807 679.573
1566.3668 679.0396
1568.5983 675.11487
1567.2192 671.53015
1565.6213 668.6869
1564.7382 665.41144
1563.3807 661.7774
1561.7175 658.01245
1560.0453 653.5832
1569.3036 651.71606
1567.717 646.7702
1572.5793 646.1375
1571.7837 642.2609
1571.529 638.51117
1567.762 639.3016
1565.1171 642.08826
1558.3562 648.71045
1556.1719 643.29987
1554.0225 637.7335
1550.6487 633.66144
1551.8966 629.0721
1556.3627 630.38385
1561.9974 629.865
1562.7168 635.58093
1566.8809 634.968
1567.472 630.5429
1573.2118 629.1532
1571.065 634.33875
1576.3181 636.34314
1577.9631 641.28644
1578.0974 646.3791
1574.5651 650.98004
1571.7788 656.0883
1571.7618 660.6783
1574.8645 662.96
1580.5691 661.9898
1578.158 665.20355
1573.3889 665.78033
1575.0734 668.58276
1578.8943 669.3235
1575.6948 671.63794
1577.6226 674.40265
1581.4918 672.75104
1582.8987 668.0615
1588.1991 671.9612
1584.4912 675.27106
1590.74 678.84796
1586.5276 680.03156
1583.1162 683.6409
1579.5552 682.80817
1582.1122 679.09735
1578.6255 677.88715
1570.6802 680.9051
1572.1244 685.7277
1574.25 690.714
1568.9729 697.0357
1562.06 698.59247
1558.1655 695.36127
1549.6746 692.9823
1552.6184 695.77325
1553.0671 701.02716
1556.1941 704.0569
1560.633 704.4915
1564.8414 704.53076
1569.589 704.0682
1562.6028 722.4729
1563.8375 726.78033
1565.7239 730.43176
1567.249 733.6555
1570.8871 731.829
1573.6891 729.39514
1575.2424 733.9727
1578.2058 731.2035
1579.9553 733.93146
1583.6024 734.81647
1588.1088 734.7371
1591.8799 737.7052
1593.7396 742.62305
1602.7633 744.2235
1604.9944 748.8239
1606.8495 753.7276
1609.9155 757.9803
1609.4917 763.88336
1613.2579 764.5849
1616.5979 761.9035
1619.7261 759.7537
1616.572 756.5089
1613.9546 753.1099
1615.6882 749.0474
1610.2885 749.0638
1613.4517 744.0975
1608.4419 743.5663
1610.9153 738.1475
1609.4519 731.52826
1604.6718 729.0321
1605.4722 734.7214
1604.1312 739.84064
1600.2795 736.2807
1599.382 730.8776
1600.5278 724.61127
1606.2197 724.2073
1604.1797 718.59796
1602.2584 713.37506
1596.3912 711.84485
1600.5485 708.70557
1598.2688 704.9352
1593.338 705.6504
1589.0549 707.4023
1591.9377 710.95624
1592.625 715.8414
1597.9423 716.1927
1599.2827 720.1733
1594.6617 721.04736
1596.3331 726.61346
1590.4637 731.927
1587.2806 725.65814
1587.1046 729.804
1583.7449 731.88617
1581.6742 727.01904
1569.969 724.6719
1576.9987 724.93036
1585.2913 720.4157
1583.1257 714.3012
1580.6652 707.88226
1574.4631 704.5977
1578.3748 701.94714
1575.7161 696.54425
1581.4602 688.32477
1585.005 688.0653
1584.4275 692.83875
1587.0851 697.29944
1588.146 702.4105
1592.666 699.73157
1598.046 699.9427
1595.0912 694.6018
1589.645 691.888
1587.6233 685.3308
1591.9054 684.6399
1594.0221 689.09625
1605.185 684.55884
1609.1327 689.15576
1611.2324 693.05817
1612.8501 696.7641
1613.3636 701.814
1616.3755 699.29156
1617.9928 702.72375
1622.0913 702.4963
1625.4833 701.8619
1629.7732 702.7703
1628.7485 699.3239
1624.4841 697.142
1628.0726 695.3277
1631.0276 693.3464
1632.8271 696.23096
1633.7395 699.7712
1634.2479 703.47064
1625.8812 719.96356
1618.491 718.328
1621.8141 723.9825
1623.084 728.8961
1624.487 732.54553
1626.0275 745.8138
1629.1147 731.3554
1627.3635 726.2169
1631.109 722.6589
1634.0193 727.71027
1634.4443 732.63275
1640.331 732.69385
1639.8352 727.4798
1645.8358 731.1808
1651.7042 730.7245
1650.4857 734.3882
1664.7577 737.63416
1670.8252 737.4163
1668.9929 742.5215
1673.8297 741.66766
1675.5155 737.4689
1681.2286 735.4207
1679.172 731.31995
1676.2828 733.98395
1667.9949 733.24646
1671.8352 732.4084
1676.5021 728.1263
1678.8325 726.52045
1675.3083 723.08716
1677.6509 721.6635
1675.7495 717.94934
1674.6549 714.3417
1674.9736 710.01733
1671.961 707.8378
1672.8047 711.81464
1650.8237 720.1873
1648.843 725.5851
1643.4856 723.58997
1636.7441 721.99066
1638.3553 702.5072
1643.0356 703.682
1642.6422 698.9752
1639.3954 698.32996
1636.6672 695.7114
1640.6494 693.7069
1638.0354 690.67316
1633.9958 691.01965
1629.2722 690.1411
1625.2128 690.0714
1619.9497 689.9212
1623.0562 693.4546
1620.7346 698.7633
1618.2188 695.0327
1615.8955 690.9618
1613.0986 688.7244
1614.5355 669.1787
1609.4556 668.31
1607.2426 663.66284
1605.1704 668.5617
1601.9556 666.61615
1602.2834 662.2778
1599.4697 659.31866
1586.0303 665.0417
1583.4902 657.5409
1576.4893 659.1137
1578.0295 655.2383
1581.5936 651.50574
1592.6854 649.225
1597.7119 654.84576
1600.0679 652.6039
1604.2886 653.58746
1602.7235 656.7005
1606.0277 659.11066
1607.9731 654.85205
1611.7775 654.69385
1609.9827 658.90125
1611.9558 662.11523
1612.2656 665.6016
1616.2535 662.28314
1616.8359 666.57336
1621.0139 668.74097
1620.0582 664.771
1624.0701 664.5994
1626.5339 669.0216
1632.2747 668.9321
1632.1136 663.10144
1628.591 664.60596
1626.4331 660.462
1630.1694 657.4704
1626.2861 655.2589
1620.7944 654.91125
1622.9491 658.0941
1620.6339 661.1405
1618.0986 657.91394
1614.1453 658.49097
1615.7115 654.491
1622.2291 631.65704
1652.938 624.0469
1654.4597 630.9106
1655.7261 636.9885
1658.0702 641.75604
1656.6737 644.5179
1659.0049 648.2331
1659.2738 651.31177
1660.279 656.01984
1662.2292 660.0666
1661.6709 663.4036
1663.2496 667.6691
1664.5697 671.49634
1665.4247 675.45337
1666.572 680.4479
1667.8807 686.0864
1669.1711 691.88696
1670.5864 697.30444
1671.693 702.2878
1674.0142 705.5611
1684.7059 698.6147
1686.5914 695.5326
1690.1946 696.1155
1692.8477 694.3519
1688.965 691.44745
1684.2073 691.7296
1683.0687 687.0534
1687.504 687.10913
1692.0039 687.7085
1694.6196 690.8225
1697.4194 687.46875
1700.1356 691.421
1705.2644 692.33575
1702.882 695.5407
1707.0858 696.94507
1708.0845 690.4297
1703.251 687.7797
1710.2634 687.84076
1709.7104 666.8413
1707.1632 663.5353
1703.2865 665.6827
1704.0892 659.4261
1698.8109 661.56067
1698.3558 665.7844
1694.0906 665.6204
1690.1512 665.5557
1688.0372 662.3045
1684.9375 659.1431
1682.4478 662.4421
1684.8242 666.0994
1678.8539 665.3207
1677.5515 660.74976
1680.801 657.7055
1676.6104 656.0978
1675.4904 651.59766
1679.9026 652.1981
1684.19 651.18207
1684.4259 654.9653
1688.7041 652.04785
1689.0569 657.582
1693.8547 659.6508
1692.8179 653.8956
1697.3391 652.66534
1699.5654 656.9319
1703.2808 653.1462
1708.642 653.29846
1709.0774 658.8627
1713.3269 664.4399
1738.467 657.80676
1740.1925 653.9698
1742.0933 660.8319
1739.7545 662.73474
1739.849 665.78705
1741.6418 668.2554
1740.7678 671.63275
1743.4402 674.2923
1741.8337 677.0324
1743.3999 681.4951
1743.7966 686.72174
1744.6875 691.81464
1744.3749 695.84485
1746.7716 698.6741
1742.2325 700.3177
1744.7361 704.8641
1747.3899 704.38715
1747.1338 710.73334
1741.5625 714.2659
1740.2877 707.52826
1728.0071 705.6322
1723.9017 707.6608
1724.4442 719.7096
1718.5355 721.1527
1720.574 725.79614
1727.0342 727.30304
1731.5371 731.4769
1735.9001 737.2648
1731.1254 740.16766
1729.4111 744.7392
1728.9803 749.55084
1733.8914 748.5724
1734.3876 744.35547
1738.4752 742.2236
1739.4396 746.98224
1741.8389 752.4786
1746.1798 755.38654
1747.7446 764.19885
1742.5908 762.4533
1741.0881 767.8372
1746.0142 769.22845
1750.6053 770.7858
1755.3151 767.337
1759.2631 762.3185
1755.0966 757.08545
1755.5468 762.02606
1751.936 763.7734
1749.1511 758.96326
1751.1072 752.5402
1746.276 749.55774
1745.2567 744.3819
1750.3564 744.6448
1754.028 748.2446
1757.7614 751.5987
1760.6677 754.867
1762.2594 758.507
1767.4052 756.0764
1766.1138 760.7761
1768.9756 762.9939
1767.166 765.98303
1762.9835 763.7429
1763.9199 767.8747
1759.8997 768.5969
1756.0668 772.43274
1760.0917 778.44977
1760.8501 774.549
1764.1005 772.1818
1767.4263 775.0822
1772.8324 773.4422
1777.3345 769.7455
1778.5469 775.1609
1781.3108 779.0281
1783.3042 773.35754
1786.0183 777.7301
1790.1886 776.6412
1794.9781 775.8047
1793.7891 780.0927
1792.0725 783.2308
1787.0527 783.2308
1782.0986 783.2308
1776.6584 783.2308
1774.462 778.74615
1770.5728 783.2308
1764.9285 783.2308
1763.3098 779.21954
1759.2964 783.2308
1753.9778 783.2308
1748.3397 783.2308
1755.8312 777.7453
1751.057 776.76715
1745.7688 776.8664
1741.4861 783.2308
1740.8464 774.72614
1735.3744 770.3555
1735.2528 764.9787
1736.628 760.9696
1735.508 757.3193
1741.2695 757.8773
1737.335 754.43744
1737.2191 750.874
1732.2783 752.1671
1731.5927 755.88477
1727.324 754.1472
1722.738 757.67145
1722.7039 753.5089
1719.173 751.2642
1723.9645 749.422
1725.4719 742.69226
1725.0149 736.5963
1720.6527 731.27783
1720.7384 740.2642
1720.646 745.6877
1712.5815 747.0339
1707.9045 746.39417
1705.0862 748.94
1701.7268 748.04083
1704.1611 744.43634
1702.678 740.0143
1700.4939 743.40753
1698.5625 745.8514
1698.0103 740.2875
1699.8773 736.2367
1704.2644 735.7403
1709.4741 737.3459
1707.0046 740.4201
1711.1271 742.50836
1715.4603 741.72687
1713.4194 738.54645
1713.478 734.48035
1711.7173 731.15137
1716.5156 730.04297
1714.8566 725.3964
1712.9972 720.1643
1709.9177 723.02734
1709.765 727.2735
1706.8291 731.0163
1704.9277 724.5022
1706.7125 719.8297
1709.9647 710.6854
1714.2147 710.5974
1719.0938 709.43805
1720.2906 705.1519
1722.5236 701.0253
1717.181 702.1084
1714.8032 706.4152
1711.5573 704.27423
1714.6283 698.8779
1717.3169 694.75507
1720.2123 688.3876
1714.7009 688.92883
1712.6498 692.20416
1711.0197 695.62537
1709.9742 700.55286
1707.0211 706.04944
1705.4332 701.4552
1701.5863 700.2553
1698.6495 697.84436
1696.7759 694.5177
1694.0974 699.4842
1688.9117 700.2036
1697.4155 704.4913
1702.033 706.5225
1698.0371 712.13275
1696.0403 718.6389
1700.8318 719.3206
1700.0095 724.3834
1695.3766 723.96185
1690.4777 718.878
1691.2913 723.0752
1691.7734 727.4369
1693.4517 730.7987
1697.1694 728.1937
1702.9182 729.1153
1700.2511 731.70416
1696.5513 733.0399
1694.7856 736.8198
1689.8978 738.46484
1685.5044 737.0332
1683.144 739.81464
1678.949 741.4731
1682.1249 744.3831
1694.0698 741.102
1695.3086 745.4081
1698.2356 749.80914
1692.1075 747.46295
1687.0145 749.6544
1682.5021 749.1865
1684.0825 755.73016
1685.7758 762.2962
1688.0116 770.55524
1691.0845 766.0214
1694.3032 763.16284
1695.8126 758.39923
1691.7473 756.2482
1694.446 751.2057
1698.198 754.6481
1702.468 756.6162
1702.2717 752.17194
1706.6113 754.1175
1708.7832 750.1244
1711.4714 752.7479
1709.0469 758.66943
1703.0171 761.27203
1698.8662 769.73566
1697.1791 773.1324
1704.9816 771.7783
1711.9984 770.2967
1721.1254 770.492
1724.4944 766.1929
1719.5225 764.5705
1718.1125 758.5392
1722.4731 761.55176
1726.7915 759.468
1730.8918 760.75214
1729.5488 766.4377
1728.0507 773.46643
1734.2797 777.0121
1733.6655 783.2308
1725.2698 783.2308
1721.2571 776.71423
1715.6714 783.2308
1710.9697 777.9425
1704.7407 783.2308
1694.2192 783.2308
1689.2437 778.0992
1671.191 779.451
1662.0544 783.2308
1651.7161 783.2308
1653.596 776.64465
1644.2843 774.79266
1644.9321 779.1673
1643.0076 783.2308
1638.5505 779.0594
1634.7494 783.2308
1627.977 783.2308
1633.3295 771.7141
1638.0958 773.9346
1639.3022 759.828
1637.6761 755.50146
1645.0145 760.3844
1649.7454 760.3246
1654.4578 759.4805
1659.009 759.7727
1655.7078 751.9993
1650.4395 755.1059
1647.77 751.1076
1644.4832 756.3715
1642.3052 752.9302
1641.0724 749.17633
1636.845 750.67926
1632.9536 747.58276
1629.4044 750.5861
1632.3171 754.1374
1633.0895 759.26874
1621.3599 765.31714
1616.7604 767.4001
1618.0607 771.1855
1623.2156 771.50323
1619.9164 776.69244
1625.0109 777.50653
1622.009 783.2308
1615.1406 783.2308
1608.8049 783.27454
1614.726 776.7008
1610.4674 772.9024
1604.2112 770.3269
1601.5093 763.0522
1596.3442 760.30023
1599.2069 756.95667
1597.4778 752.0679
1595.7123 747.3952
1588.1293 751.584
1592.3452 752.98114
1592.6976 758.03357
1589.68 760.8213
1587.4314 758.0686
1583.1382 759.3357
1582.863 754.873
1581.2561 750.7221
1577.0256 749.5493
1574.0587 748.79474
1571.6964 750.2804
1576.6919 753.16504
1574.23 755.734
1577.7328 758.80695
1568.0446 763.64886
1565.5276 766.8162
1562.3389 765.2572
1561.1982 761.266
1565.6288 760.9285
1564.1395 756.81744
1559.773 756.9746
1561.4026 752.4005
1560.3833 747.15295
1556.8196 748.53204
1556.481 752.93896
1554.1545 756.4153
1552.0519 750.6676
1554.47 745.1167
1558.0021 741.7834
1554.1672 740.1011
1550.4996 741.5135
1549.7585 745.91223
1546.8397 740.9163
1545.9152 736.5178
1550.5459 736.6575
1554.9751 735.65814
1552.863 730.8147
1550.5222 725.79645
1546.7373 727.2115
1548.9734 732.0691
1544.6243 732.5185
1542.0306 729.938
1542.654 726.26154
1543.7135 721.19196
1548.1227 720.5667
1545.0577 715.2191
1539.4675 723.1502
1538.358 717.60913
1529.4988 715.7466
1532.6279 721.6834
1534.7955 727.0255
1536.5948 730.99255
1538.2592 735.91364
1539.6864 737.2571
1540.4471 741.0537
1542.5491 744.1147
1544.0828 748.20764
1545.8242 752.31006
1548.0413 757.00635
1550.3137 762.4718
1553.1674 768.6069
1556.4336 760.5733
1557.9747 765.1174
1560.2623 770.1806
1556.656 775.4215
1563.4598 776.4739
1564.2644 771.31396
1569.7972 767.36206
1568.3616 770.42944
1568.8778 773.79785
1568.0068 778.0638
1565.1902 783.2308
1570.6683 780.8976
1572.1672 777.1756
1574.2098 773.6463
1573.1799 770.1478
" />
</g></g></svg>
