<?xml version="1.0" encoding="UTF-8" standalone="no"?>
<!-- Created for Inkscape (http://www.inkscape.org/) -->

<svg
   xmlns:dc="http://purl.org/dc/elements/1.1/"
   xmlns:cc="http://creativecommons.org/ns#"
   xmlns:rdf="http://www.w3.org/1999/02/22-rdf-syntax-ns#"
   xmlns:svg="http://www.w3.org/2000/svg"
   xmlns="http://www.w3.org/2000/svg"
   xmlns:sodipodi="http://sodipodi.sourceforge.net/DTD/sodipodi-0.dtd"
   xmlns:inkscape="http://www.inkscape.org/namespaces/inkscape"
   width="3200"
   height="800"
   id="svg2985"
   version="1.1"
   inkscape:version="0.92.3 (2405546, 2018-03-11)"
   sodipodi:docname="beta.svg">
  <defs
     id="defs2987" />
  <sodipodi:namedview
     id="base"
     pagecolor="#ffffff"
     bordercolor="#666666"
     borderopacity="1.0"
     inkscape:pageopacity="0.0"
     inkscape:pageshadow="2"
     inkscape:zoom="0.35"
     inkscape:cx="1798.2948"
     inkscape:cy="400"
     inkscape:document-units="px"
     inkscape:current-layer="layer1"
     showgrid="false"
     inkscape:window-width="1920"
     inkscape:window-height="1017"
     inkscape:window-x="1912"
     inkscape:window-y="-8"
     inkscape:window-maximized="1" />
  <metadata
     id="metadata2990">
    <rdf:RDF>
      <cc:Work
         rdf:about="">
        <dc:format>image/svg+xml</dc:format>
        <dc:type
           rdf:resource="http://purl.org/dc/dcmitype/StillImage" />
        <dc:title></dc:title>
      </cc:Work>
    </rdf:RDF>
  </metadata>
  <g
     inkscape:label="Layer 1"
     inkscape:groupmode="layer"
     id="layer1">
    <g
       id="g7"
       transform="matrix(3.7520717,0,0,4.210884,-4365.6389,-1213.9413)">
      <path
         style="fill:none;stroke:#e0dfdc;stroke-width:2px;stroke-linecap:round;stroke-linejoin:round"
         d="m 1367.7216,332.01135 -1.938,1.86635 -2.4485,1.68324 -2.4951,-2.58754 2.0634,-2.87172 3.4877,-0.88476 0.1641,-2.91608 0.6823,-2.54714 -2.8537,-0.82212 -0.865,-2.34876 -2.9263,1.54395 0.9506,3.95486 -4.6679,-1.64169 0.1784,3.349 3.1789,1.04239 -2.5872,2.37515 -0.484,2.99875 -2.9882,-0.82437 v 3.38638 l -0.2958,3.91193 0.014,3.31396 2.4358,0.29467 1.8648,-3.41738 -1.6155,-2.39786 2.3492,-2.14828 2.3967,2.11429 0.3658,3.2012 1.5254,2.99023 -3.9531,0.6379 -1.3209,2.62453 3.6099,0.13487 1.7583,2.6088 2.6198,0.61222 -0.5687,-3.4494 3.5123,-0.23489 2.9384,-1.10403 2.1633,-2.3862 3.4924,0.29137 -0.6151,-4.37259 -0.266,-2.85864 -4.629,2.71526 -2.0604,3.13682 -3.0834,1.89835 -1.0881,-3.63175 1.8973,-3.54748 4.0727,-0.76679 -0.9472,-3.21035 3.2437,-0.0167 3.7559,-0.0979 -0.7872,-3.81146 -2.9811,0.41803 -4.2848,-0.77917 2.7018,-2.2264 -2.5593,-2.15614 1.0231,-2.84674 2.6982,-0.35222 1.5967,3.9457 3.193,-0.31797 -0.1334,-2.91705 -0.6924,-3.03578 1.7516,-5.6399 -1.8604,-2.30186 -3.1223,-0.9444 1.2186,2.86768 1.7993,2.90758 -3.2679,2.19065 -2.6085,-0.0791 -2.8552,-0.51816 -0.9992,3.22901 -2.1449,-2.64197 0.097,-2.94496 3.7198,-1.9545 3.0354,0.4028 -6.1363,-2.09325 -2.8412,1.41172 -1.4245,4.49017 -1.0184,-2.75194 v -4.08632 l -2.8161,1.84432 -2.8133,0.71446 -1.1305,-5.53024 0.5874,-4.27017 4.4227,4.00448 2.9387,-3.3862 3.9613,-0.90123 -2.3234,3.69802 4.3779,2.00613 3.8999,-0.82068 4.3876,-0.74744 0.8915,-4.54563 1.9845,-4.0386 0.2962,-3.7722 -2.7943,1.64028 -0.7072,3.21832 -3.1646,-1.18072 -0.8423,3.07732 3.121,3.27604 -5.1274,-0.72821 -0.9728,-3.76803 -0.7349,-3.10688 -3.3042,0.71765 -2.8589,2.22919 -3.6777,2.40811 -1.8743,-3.2525 0.984,-4.44232 -3.9227,1.59561 -4.5998,1.30768 1.5938,3.25009 -0.4287,4.39569 0.3444,4.82148 -1.1308,3.47237 3.4661,0.38693 -0.8478,2.62253 3.2782,-0.10885 3.2852,0.76068 -1.3505,2.82739 -3.6673,1.68942 0.053,-2.77067 -3.3845,0.29747 1.9873,4.83679 1.4512,2.64566 0.2268,2.95558 -4.7837,-4.49272 1.2234,3.54086 0.5893,2.88251 -1.4184,3.11572 0.1339,3.8324 1.1737,2.97055 -2.6419,1.20111 2.5336,2.18247 1.9887,2.1234 -3.6765,1.86826 1.149,4.88534 2.3275,-2.44417 2.7435,-1.78453 3.3031,0.0961 1.7758,1.83158 -3.864,1.44542 3.2595,1.92952 3.4774,-1.11856 3.2172,1.63819 1.663,-2.20975 2.5098,1.13834 0.019,-3.93764 2.3316,1.11882 0.511,-2.89792 2.6416,-2.44138 2.371,2.33698 -2.5151,4.48434 1.7115,2.07441 -4.4903,0.72647 2.0186,1.51226 -0.3242,3.24812 -1.2292,2.92925 -3.0992,0.62848 0.8961,5.38267 3.4933,-2.40778 2.7759,-3.08237 0.7403,3.53425 -1.3729,5.1603 0.4569,4.75668 -2.2679,2.72489 1.0678,4.08103 2.2782,2.23778 0.8019,3.30115 -2.2287,0.92807 -0.2461,4.15567 -2.0809,-2.61987 -2.915,0.412 -1.8797,2.3151 3.3761,2.3293 3.2359,1.62048 0.9785,3.06875 -0.4442,2.89765 -3.4409,-2.318 -2.8843,2.31025 -1.42,-3.49726 -0.5503,-3.25223 -3.1642,-1.44177 1.1965,-2.47617 1.5517,-2.20706 1.7088,-2.52454 2.7145,0.0431 2.7354,-1.89437 -2.5243,-2.95588 -3.0003,1.55198 -3.0317,0.1913 -0.086,2.94718 -3.465,-0.63156 0.5354,2.97845 -0.2705,2.77411 -2.3325,1.0972 -0.796,-2.22858 0.3376,-3.24032 -2.8328,1.88147 -2.7357,0.29915 -2.0869,-2.02938 3.8075,-0.78885 2.4926,-2.24617 3.2707,-2.18196 2.9711,-1.88586 4.5055,-1.14038 1.3584,-4.24033 0.701,-3.68384 -4.1375,0.47309 -3.1241,2.20291 1.8107,2.69589 -4.329,0.42175 -4.2677,3.49387 -3.5739,3.02516 -0.8981,-3.89687 0.5997,-3.77163 3.934,0.81585 1.3961,-2.84042 2.1289,-2.3631 2.4335,-1.8804 2.7683,-2.74343 -0.161,-3.12278 -3.3885,1.99762 -3.6187,-0.4715 0.5472,3.17146 -2.352,1.51278 -2.4551,-3.47205 -0.079,-4.8533 -0.8223,-3.49908 4.0069,2.08371 3.1588,2.35241 1.4312,-2.21947 3.7782,0.23583 2.9953,-3.4339 -2.7143,-2.20831 -1.8309,2.08678 -2.4043,-3.00573 -0.7938,2.96897 -2.8805,-0.94892 -3.1252,-0.77704 -2.7933,-1.97561 -4.6556,0.76977 1.3059,3.26929 0.837,3.43283 -0.116,3.59699 0.7259,3.39019 -3.3776,0.24216 0.6668,4.02252 2.8975,0.46756 3.7377,-0.94748 -5.0467,5.2903 -0.9904,5.07378 0.9524,3.44982 -2.5376,1.99046 -0.1411,3.7955 2.4605,-1.45146 2.5049,1.83863 -1.9809,2.43657 2.4408,1.65135 2.0051,-2.10035 2.6816,-1.27327 0.581,2.7384 -2.3531,1.99451 -3.3734,2.10754 -3.0301,-1.41836 0.1366,4.36782 3.1184,0.65601 -2.024,2.84833 -2.5232,1.27228 1.9057,2.03374 4.0674,-2.59594 2.9474,-2.22339 -0.8132,-2.8663 3.0333,0.11237 2.7974,-1.69089 -4.2129,-1.02698 2.272,-1.19997 0.302,-2.3187 2.3325,-0.20408 2.0938,2.15821 0.3117,3.2098 1.7379,1.80433 -2.9923,1.5914 -3.2877,-0.45956 0.8181,2.38555 -2.8706,1.15073 -1.9987,3.17842 2.5507,2.51546 2.0696,-2.97101 2.2591,-1.56845 2.9252,-1.729 2.9479,1.5006 3.3973,-1.84546 2.3712,-1.42114 1.8987,2.25092 1.4946,3.21288 -3.3271,-0.2914 -2.8347,0.60684 4.5971,2.66546 -3.7784,0.64945 -3.9447,3.4863 -1.269,-3.18185 1.4451,-2.51408 -3.2412,-1.17108 -2.3996,2.25958 -1.9085,2.27613 3.0623,2.05405 -2.8522,1.48858 -4.4806,-1.49796 -1.9073,-3.05224 -3.8915,-0.73306 0.4567,-2.88502 -3.9373,2.374 0.6187,2.73492 2.6157,0.97425 -2.6615,4.65496 -0.1431,3.46473 2.887,-2.49744 0.2638,-2.42877 2.3028,-1.43465 1.7031,2.59825 2.1782,2.57815 1.6983,-2.3103 3.3063,1.55268 2.5792,-1.59298 3.0652,-0.14845 2.0686,2.56119 2.0782,-3.44476 0.2792,-3.00351 3.4059,0.87473 2.1775,2.71127 -2.9219,0.9096 -1.3348,3.75281 2.9031,2.90142 -1.4153,3.45353 -0.3778,3.69667 1.3593,2.9714 -0.4545,2.92382 -3.564,-2.5267 -3.0772,-2.76038 -3.2546,0.90762 1.0179,-4.86563 4.1545,0.045 -0.7521,-3.84101 -3.7111,-3.27179 -1.8599,3.34415 -4.1852,-1.6595 -4.0813,0.7654 0.3354,2.87805 6.0464,1.22363 -2.3448,2.05372 -2.1006,2.24175 -3.9884,-1.47795 -4.3848,-0.5004 2.417,-2.34745 0.047,-3.49857 0.8619,-3.19238 -2.807,0.42682 -1.604,5.03048 -1.4695,3.6869 2.0487,3.1949 -0.2651,3.01057 -0.866,2.93097 2.6477,2.18296 -2.6953,3.8246 2.1991,2.20853 -2.2023,3.32727 2.3427,3.7433 1.0815,-2.70478 3.2873,-1.88846 0.2402,3.75851 -0.4781,4.862 3.1641,-3.51282 1.9694,1.46381 3.6903,0.97788 2.5397,2.29989 0.6051,-2.85327 -1.5919,-2.68286 1.0713,-3.0001 1.1694,-3.0644 -2.0687,-2.15047 -3.404,-0.0312 1.5203,3.04029 -1.2266,2.44885 -0.6891,2.79236 -3.13,-2.23187 1.1532,-3.04239 -1.2975,-2.49588 -2.6927,-0.76706 -3.1093,-1.26026 3.1135,-2.93505 3.5081,-1.76153 -1.9421,-1.97193 -3.1356,0.035 -0.903,-2.6626 0.3322,-2.28437 2.9455,1.645 5.3866,-1.03314 0.1158,4.13391 -1.7448,5.17233 4.2948,-1.42184 1.915,-4.44016 2.8376,1.6959 -0.7796,4.59853 3.2293,-0.006 1.711,-3.11692 4.2013,2.82401 3.6516,-0.37226 -2.1356,-3.19917 0.5473,-3.428 3.6038,1.28577 3.0164,1.07419 -1.3257,4.45604 3.1851,-1.87166 1.6753,-2.81771 1.6827,1.71984 1.9005,-1.95785 2.7399,0.58798 2.0505,0.2821 2.7672,-0.003 1.3367,1.49911 1.8303,1.73563 0.3977,-3.14435 -0.8017,-2.21261 4.3363,1.86721 -0.9315,2.91425 2.2312,1.6848 1.5385,-2.59288 1.4644,-2.27136 1.7394,2.82196 2.4976,-2.03412 0.5314,3.48196 -2.3719,2.4614 -2.4784,-0.82586 -2.6929,2.33813 -2.6627,-1.50791 -2.8524,-0.1094 1.386,3.22613 2.5336,1.42889 -2.7429,1.65046 -0.9797,3.14438 -2.9142,-2.3975 -4.553,-1.58768 1.2599,-2.52572 3.5204,0.75682 -0.5375,-2.88942 -2.9209,-0.84976 3.3979,-1.74852 -2.324,-1.7138 -2.63,0.0853 -2.1747,-1.11157 -1.1569,1.98014 -2.6944,0.37603 -2.3727,1.79221 0.3987,2.50912 2.6865,-1.43966 4.158,-1.80734 -1.3024,1.92678 -0.4863,2.36646 0.4205,2.73608 -2.8983,-2.10092 -0.8643,2.3704 -1.2146,2.38583 -1.2503,2.26517 1.5314,3.45934 -3.5693,-1.10638 -2.4797,-0.073 -2.197,0.88922 -0.1443,-3.15518 -2.2278,-2.4863 4.2898,-0.30937 1.739,2.03792 1.3904,-2.86795 1.7529,-2.52374 -2.7765,-0.87449 -2.144,-2.27384 -1.6884,4.17088 -2.2247,-3.11994 -3.2815,3.04783 -1.078,-5.05463 -2.8746,1.70492 -1.2823,3.48578 2.4804,2.55231 -3.7298,0.82755 0.2895,3.32907 2.9853,0.0907 2.6817,-0.0795 0.7715,-3.23511 1.6735,2.98135 1.062,2.23029 -5.2058,1.45196 3.5669,0.5662 3.4409,0.48944 3.4764,-0.81409 3.036,-0.0599 4.2378,0.77121 3.2657,-1.71095 3.7351,-2.2997 -2.2723,-0.96985 -2.6399,-0.12512 -2.5647,-0.26633 1.7494,-3.16787 3.4038,0.4346 3.3658,0.35197 2.1789,3.2245 -1.694,4.14634 3.0565,-1.23214 2.8696,-2.69917 3.3742,-3.14337 1.1912,3.7663 -1.7681,2.80314 4.9641,-1.18034 -0.1173,-3.65546 3.7506,1.89536 -0.058,-4.01514 -2.407,-2.23886 -3.6279,-1.3461 2.5913,-2.5246 4.0409,-0.61486 1.5281,3.1197 2.6486,-3.0466 1.0149,2.51662 -0.7358,3.51281 -2.4967,2.08329 2.4349,1.73355 3.8095,-1.4726 1.2319,-2.65893 -1.7623,-1.82236 1.7588,-2.2731 3.3669,5.78558 0.1032,-3.70866 0.2955,-3.90187 4.1429,-0.76786 4.6293,-2.16333 -3.0643,-3.62017 6.1975,-2.02955 -2.5219,-5.74194 6.2697,0.86258 2.7479,-4.24526 -5.5248,-1.73243 -4.9148,-1.4704 -3.7945,2.89688 -4.5204,-1.40565 -5.1325,2.2879 0.8978,2.4788 2.1846,2.4915 2.3842,-1.5741 3.7576,2.0008 -3.9776,3.2435 -4.3828,0.99373 -2.2232,1.89643 6.9854,1.76174 -4.7531,2.1829 -3.6789,-0.96375 -2.0376,-1.80535 -0.8273,-2.53114 3.0427,-1.99319 1.5228,-2.39389 -3.296,-1.18851 -1.519,2.70175 -2.024,-2.30889 -3.216,0.35867 -5.0455,0.5102 2.1539,-1.59925 4.3758,-1.13355 -0.158,-2.91583 2.0678,1.11771 1.8359,1.01626 3.3119,-0.38186 -2.1005,-2.46106 2.4587,-1.94742 -2.2533,-1.74573 0.6414,-2.59854 2.9726,-1.01833 2.0793,3.90078 3.4111,-3.19761 4.849,0.42841 -0.2068,-5.34311 4.4175,-0.8356 4.3446,-1.14637 2.5507,2.65653 -4.5759,2.85132 4.5554,1.88672 4.1128,1.2359 3.182,-1.85997 -0.579,-3.48106 -3.0367,0.0699 -1.3251,-3.70489 3.1252,0.79785 4.4821,2.46939 -1.2086,-2.59284 0.792,-2.47775 1.1462,-2.86682 0.624,-3.29436 -3.1453,-0.87828 -0.9416,3.1969 -0.6096,3.43591 -2.8459,-0.47857 -0.1066,-2.80472 1.0976,-2.24777 -0.2804,-3.05814 0.8658,-2.50913 3.3108,1.52592 4.6117,-2.62308 -2.9866,-1.37326 -2.8479,0.52066 -4.5195,-1.5687 -0.2298,2.95288 -2.703,-0.3757 0.2379,2.24445 0.1961,2.33157 1.1521,2.18991 -2.1206,3.36095 -3.9194,0.17595 -1.2691,-4.30512 2.0955,-3.0339 -4.4186,-1.29169 3.0204,-2.67664 2.7782,-0.85024 1.6001,-2.52402 1.9394,-1.75704 -2.1974,-2.34806 -1.5797,-3.28984 4.9815,1.3962 1.4099,-3.81935 1.9996,-1.95629 -4.4254,-0.40052 -2.5977,-2.06698 -1.4592,-3.08796 -1.8364,-2.69448 -1.4615,2.13978 -1.4665,2.1813 3.3016,0.48656 1.0009,3.47272 -1.6218,2.44605 -2.0674,-2.62119 -3.6044,-0.68854 1.4846,2.82575 -2.3426,1.2305 3.2037,2.2507 3.2875,1.65008 -0.6455,3.64841 -3.0291,-1.37234 0.6325,3.97464 -6.872,0.0511 3.1968,1.92254 0.9309,6.89209 1.1952,4.77212 -4.4069,-0.54992 -2.9759,4.31353 -3.4817,2.76667 1.4758,-6.56375 2.1189,-4.36585 2.8328,-4.19067 -3.5979,0.49304 -0.4138,-3.6388 -0.1172,-3.5053 4.036,-1.88352 2.843,1.65932 0.3196,-3.9723 -2.5232,-0.4406 -2.1084,-0.97863 1.5135,-2.54739 -3.2618,1.20252 -0.6822,3.8526 -1.716,-2.1405 0.8991,-3.89936 3.2543,-1.04834 0.8578,-2.94678 -4.1521,0.26328 1.8337,-2.03214 -2.7324,-3.76919 4.0967,1.25491 1.9535,1.57529 2.818,0.36683 1.5276,-3.08455 -3.3517,-0.0997 1.142,-3.34863 -3.9598,1.16949 -1.5601,-3.56051 -3.6688,0.47717 -2.4473,-4.0579 -2.1645,-3.0461 1.1449,-3.91355 2.0411,-3.76071 -5.1826,-2.8634 -4.0014,-1.32031 0.086,3.7788 4.528,1.05185 -2.0582,3.71106 -4.2051,-1.62939 -1.4526,-3.89591 -0.3263,-4.46429 -2.2423,1.46775 -0.8969,3.07998 -1.6868,1.54394 -3.2131,-2.85244 -2.2795,-2.39058 2.8856,-1.8956 2.8584,0.54295 2.7146,-3.18219 2.7789,-1.52554 -0.1611,2.81543 2.257,-0.63288 2.5587,-0.44699 -1.7358,-2.72192 -1.4204,-2.15236 -2.602,-0.37163 -2.275,-0.80371 -0.2454,2.87604 -2.6555,1.62057 0.3105,-5.42733 -1.1867,2.60284 -2.5351,2.99744 -2.2136,3.08133 -2.376,4.10528 1.5437,3.67795 2.9533,-0.16088 -1.0192,2.60787 -3.4001,0.23173 -4.9345,2.33593 -0.2645,-2.82223 -2.8605,-2.32792 6.239,0.63542 -1.6224,-2.4674 -3.577,-1.3383 -4.2187,-3.2609 0.3162,-2.5463 -3.3463,1.63752 0.596,2.80514 3.4251,1.00098 -1.4528,2.83029 -2.4062,2.66473 2.8773,1.36692 2.9197,1.87979 -4.3256,1.3031 -1.8565,2.82141 4.9605,-0.34548 -2.0674,2.71554 -3.4034,1.61459 -1.0973,3.76581 -3.8253,1.18719 1.0049,-3.03783 0.3504,-4.99064 1.1154,-3.9075 -0.1399,-3.1536 0.3422,-3.18432 1.6364,-2.32358 -1.651,-2.97189 -2.4895,1.82809 -0.9974,-2.80749 4.1212,-2.53281 2.0772,-2.38616 -2.8257,-3.95643 3.153,0.88507 4.2848,2.63724 0.5424,-3.10291 -2.2324,-1.11889 3.6274,-1.5177 4.8987,-1.8194 0.011,3.89447 -3.2229,2.30792 2.7805,1.92773 -3.134,2.18412 -1.5852,2.58288 3.8363,1.06803 2.2204,-2.02396 1.3927,-2.68087 1.5697,-2.56327 3.652,-1.79419 -2.9863,-1.59744 -1.3161,-2.227 1.0451,-3.01995 3.6576,2.38742 1.7716,-3.85177 1.6476,3.04843 2.5768,-1.83258 1.7984,-2.99955 6.5133,1.8935 -3.841,0.35547 -3.491,4.11911 3.406,-0.46103 2.9489,1.80055 1.7027,2.5495 3.0397,-0.48607 -0.9897,-4.57501 2.0318,-2.42188 3.2819,1.5307 2.5315,2.81416 2.2983,-1.83976 3.5928,1.20184 1.92,2.79206 1.105,3.65956 -3.4871,1.06343 -1.1392,-3.22458 -2.8387,0.17125 -2.9861,-1.4738 -3.3197,-2.14307 0.5037,1.97342 0.8353,2.72035 -2.5005,0.7229 -2.5394,0.1355 0.8936,3.2325 -2.2047,2.0046 4.4884,1.76832 1.4764,-4.41495 3.4491,-0.0289 4.3237,1.54913 -1.4953,2.77426 -3.3282,1.44374 4.0463,2.86535 2.9386,1.89279 3.8372,-2.22058 -2.0876,-3.1297 -0.5818,-3.75696 3.5186,0.002 1.9221,-4.56963 0.2184,2.6005 2.7622,2.12933 2.5116,1.05148 -5.8186,2.58475 1.7097,3.23209 2.3228,-2.5647 2.6892,0.91541 -1.9203,2.26614 2.9542,0.16793 2.4115,0.22712 0.1442,3.09186 -3.1189,-0.72668 -3.6544,0.23016 -3.4685,0.18502 -4.8382,1.75257 -4.1808,3.12182 -1.7086,-5.17559 -3.421,1.91362 0.8054,4.6296 6.4667,2.68428 4.7541,-2.39431 -0.3519,3.34323 1.7575,3.04626 2.9917,-0.34311 1.5564,-2.5455 -2.1434,-2.52505 -2.6109,-4.25666 3.2945,0.88242 5.0472,-2.02408 3.2121,2.67484 -2.1769,1.27023 -2.8062,1.4715 -0.8407,6.00097 -0.8326,2.1185 2.8525,1.50628 3.4878,2.21836 2.2495,-2.67036 -2.9308,-0.75725 -1.8706,-1.89785 -1.3501,-2.47572 3.0036,-2.18063 2.2198,-1.3081 1.4112,2.38778 -1.8092,2.3544 4.2828,4.13527 -1.0987,3.67192 -0.1417,4.26783 1.0527,4.22802 -3.6793,1.4112 0.8976,3.46588 1.8458,-1.90228 2.6454,-0.60941 0.324,2.51664 3.5118,-1.10194 -0.306,2.29288 1.7872,3.7756 2.6834,-2.81442 -0.4526,-2.84392 4.0583,-0.9962 4.1579,-0.0414 -3.2529,5.25898 -3.1251,0.84707 6.5753,-0.84667 3.485,-1.23332 3.2931,2.85614 3.4198,1.48338 -3.3034,3.88424 1.9042,4.99972 0.079,-2.73766 4.0871,-3.28736 3.8073,2.94659 0.6853,-4.70533 4.5416,-1.5461 -2.5512,-2.57352 0.9174,-3.13504 0.2789,-3.43731 2.0799,-2.54075 -3.1594,-0.49325 -2.61,1.05929 -0.3705,3.63968 -0.524,3.9319 -3.1559,1.56615 -3.4177,-2.01645 -2.7536,-1.56518 -2.7178,-2.57209 2.0142,-3.38247 2.782,-2.12461 0.072,4.86118 3.4903,2.12369 0.5589,-4.11466 -0.1179,-3.5686 -2.9427,-3.37821 -1.4129,-3.25125 3.2635,-0.2149 -1.1528,-3.54614 3.5652,-0.49716 1.0252,2.56036 2.427,-2.65439 2.5717,-1.32087 -0.9526,2.98817 0.5905,2.52539 0.2532,3.12814 -3.189,-0.98862 -2.916,1.02439 2.9663,2.51873 2.9169,0.36036 2.8759,-0.48032 2.3558,-0.30441 -1.0057,-2.60321 -1.3846,-2.45499 -0.2486,-2.73911 2.4453,-1.41162 -1.801,-3.18542 4.6501,0.95465 2.6208,-2.87778 2.5729,4.19742 -2.4276,0.92548 -3.0199,0.98695 -1.6159,2.80403 2.5124,2.15244 -0.988,2.11767 2.0325,2.4455 -3.1503,1.63326 1.189,3.3664 2.9191,-1.6137 3.4087,1.10864 1.1724,2.99679 4.4295,0.80947 2.5016,2.8212 3.6479,1.64588 -0.05,-3.53408 -0.7673,-3.53834 3.4981,-1.02044 0.5819,3.07308 1.5721,2.24305 -1.2739,2.52385 3.3708,0.34904 2.4347,-1.21218 2.1394,-1.77662 -2.7631,-1.38424 -2.3774,-1.60343 -0.028,-3.63043 3.0785,0.91686 2.8936,1.79747 2.1538,-2.25207 3.5393,0.27132 0.9128,3.89481 -2.769,-0.46808 -2.3669,1.0593 1.9149,3.19155 3.2806,0.18387 2.8674,0.87943 2.0298,3.49856 -1.6223,1.89701 -3.2854,-0.26517 1.173,-2.59897 -3.3434,-0.39533 -0.9471,2.75184 -4.6032,0.76706 1.9635,-1.36887 0.4265,-3.04718 -2.3725,-0.18777 -1.4835,1.85708 -1.8489,2.11334 -3.1681,0.3731 -0.646,-2.53255 -2.9618,1.23853 -2.7395,-0.65253 -2.7029,-0.2193 -3.1524,1.16755 0.044,-4.1676 -2.5895,-2.0963 -5.1777,-3.66207 0.9987,5.43472 2.2024,2.19488 -3.2846,1.3722 -1.7483,-4.92255 -4.1203,-5.03445 -0.1767,3.66217 1.5992,2.9017 1.8844,4.39737 -1.9516,2.73683 -1.444,-2.46117 -2.4758,1.34983 0.6784,3.10251 3.3983,1.32156 2.5369,-2.21625 2.8026,-0.37518 1.8362,-2.04343 1.7261,1.81049 -1.3715,3.40294 -1.429,2.7743 -4.5056,-0.15136 -3.4464,-0.6265 -3.9525,-1.62781 -3.0051,1.14939 -3.2285,3.00894 -1.1491,-4.07749 -4.3509,2.8956 1.3342,3.30619 -0.1353,5.01809 1.4363,3.90491 1.9074,-2.40948 -0.2058,-4.40525 4.2071,-1.89643 3.3666,-1.42434 3.1771,-0.58398 1.7758,3.30337 2.0687,-2.29395 3.3374,-0.0423 2.5214,2.27448 1.0348,-3.95548 2.3663,0.0415 1.5378,6.4855 -5.9644,0.20728 -2.9344,-1.58893 -0.1484,3.16641 -2.3817,1.70349 -0.8393,3.58099 1.7433,1.92398 1.7672,-2.83574 2.4153,-2.085 3.3974,-2.1838 2.9674,1.62356 2.5157,2.04064 -1.1458,3.30305 -0.2696,5.00075 -3.1861,-0.8325 0.8018,-3.22624 -2.7426,-3.43546 -2.1527,1.9524 1.2602,2.7688 -2.4607,2.09122 -2.4645,1.55011 0.7516,-3.19965 -3.5569,-0.0756 -3.0582,-2.7732 0.697,-4.53146 0.4784,-2.39117 -0.2491,-2.3042 -3.3368,-0.7281 -3.1076,2.09516 2.6054,2.88379 -0.9943,3.71957 -0.4819,4.0319 -3.1137,-3.33642 0.3801,-3.26283 -3.6031,4.68943 3.0778,2.58746 1.586,3.74574 2.3184,2.85582 3.3888,0.28571 -1.2249,-3.7905 0.7462,-3.14073 3.3571,2.73848 0.4247,3.04842 -0.214,2.92893 3.4193,0.27497 -1.3053,3.11044 -4.9475,-0.57227 -3.3367,-1.40405 6.3371,5.54324 3.4336,-0.47314 1.2041,2.6543 3.4819,2.78451 2.8928,1.37091 4.0762,-0.54126 0.7477,3.87564 3.4691,-0.31286 -0.3161,-2.78756 -0.6044,-3.08512 2.6892,-2.8721 -0.8664,-3.45203 -2.4063,2.61652 -3.3289,-0.64832 -0.1832,3.23569 -3.8783,-0.63098 -2.4711,-3.98386 4.4744,-0.28317 2.401,-2.35823 1.8705,-1.94795 -4.9052,0.12715 -3.9025,0.3901 -3.2022,-2.97535 2.407,-3.00608 1.6444,2.56943 2.9438,-1.6507 2.8152,2.2954 3.571,-2.28688 0.079,-4.85315 0.094,-2.63193 3.837,3.12576 -3.242,1.88117 0.077,5.21329 3.9592,3.28614 0.055,-3.17472 1.6794,-2.94034 2.1197,-2.07024 4.965,3.73433 -0.3124,3.7786 -5.1382,-1.30228 2.2779,1.96515 0.7819,3.63043 2.4933,3.58383 -5.3621,0.51349 -1.6875,-3.68732 -1.8682,3.96622 3.0135,2.88342 -3.0112,0.79227 0.7968,2.827 2.3192,0.8731 2.5908,-2.83054 -0.2542,4.2776 4.1602,-0.24475 0.9482,-3.33838 3.4451,2.78193 0.7579,2.69313 4.1567,-2.52113 4.502,1.0099 0.3832,-4.5512 0.4774,-3.34397 -3.2033,1.20993 0.2216,-3.44446 0.2157,-3.10952 -3.3144,1.51232 -0.723,4.5817 -0.4035,3.5856 -2.8397,-0.7411 -1.703,-2.20113 -3.7366,-0.18313 3.0374,-2.28342 3.5765,0.13418 -0.8689,-3.9407 2.1002,-3.1073 -5.0745,2.89258 -0.024,-3.56198 2.2101,-2.29065 -0.2727,-3.37732 4.0399,1.70612 4.1002,-0.46628 0.392,3.64933 2.6309,3.14846 3.1604,1.14816 -0.6103,4.02228 -0.3458,3.35776 2.9641,0.48014 0.8745,-4.58992 1.1895,-3.17755 2.7865,-4.00061 3.7109,-0.57612 -2.2872,4.77418 2.1721,3.81909 2.1702,-2.59857 -1.1032,-2.84283 4.3969,1.7894 3.49,1.33033 2.534,1.88735 -2.2506,1.71942 -3.4681,-0.005 -3.3741,0.0874 -2.7723,2.19083 -3.5806,-2.57583 0.402,3.66186 -3.6587,1.76288 -3.6546,1.31073 5.7817,0.49127 3.2676,-0.34684 2.6895,-0.74548 2.5644,0.53784 0.059,-3.15976 2.6517,0.36414 3.277,0.48019 3.3955,0.0957 2.7007,-1.56061 2.6221,-1.47809 -2.6255,-1.58237 -2.6382,-4.00753 -4.8817,-3.09311 -3.5772,-1.49732 0.4881,-3.28607 2.6008,1.91745 3.6606,1.96405 3.1628,-0.37067 1.8356,2.36207 0.4252,2.44616 1.5657,2.35022 2.4187,0.21402 -0.3235,3.0698 0.4251,2.35385 1.6208,-3.73117 0.3234,-3.15811 -2.8134,-1.57316 1.7888,-3.97491 2.4774,0.0636 -0.8085,-3.12957 -0.8112,-4.08997 0.527,-5.48557 -0.8839,-6.63144 -0.033,3.3858 -0.9407,4.86356 -2.4734,2.5719 1.9965,3.58212 -0.907,2.64234 -1.7769,2.15954 -1.2275,-3.94476 -3.8494,0.14621 0.4939,-3.63095 2.11,-2.11194 -3.9841,-0.1152 -0.7891,3.04074 -2.3787,1.94204 -1.9625,-2.6232 -3.1477,-1.59454 0.1034,2.65137 -2.7942,1.02715 -3.4197,-1.09112 -3.6794,0.99265 -1.1458,4.25461 -4.3466,-1.47959 1.047,-3.72265 -3.59,-33.50827 -0.5011,-3.71518 2.2227,-2.60022 0.5686,2.54651 -0.4489,2.23486 2.5718,1.33694 1.271,-4.60174 1.0479,2.79983 3.8344,-0.43963 4.134,0.91702 4.3365,0.83401 2.4694,-3.53356 2.231,-2.32511 4.5643,-0.55652 1.6877,1.4632 2.4528,-0.52884 1.9944,-2.4405 1.1409,3.6096 -5.8751,1.72192 -3.0833,-0.75046 -2.9421,3.38124 4.0548,0.0158 4.646,-1.62213 1.8529,1.3262 2.8716,-0.31097 0.8464,4.5802 0.032,6.6607 -1.5008,4.08578 -0.6021,3.13184 2.4244,0.002 0.6182,-4.3562 -0.8093,-6.09491 1.3188,-6.50375 2.4767,-2.45667 -2.8495,-1.43133 -0.1477,-3.16667 4.1985,-0.25914 0.3008,-3.84836 -3.1704,0.69144 -3.0923,-1.29758 2.398,-2.37103 -1.2278,-2.90283 -2.6817,1.8386 -2.2401,2.7702 -3.4255,2.18548 0.1363,-2.99458 1.5565,-2.19323 -3.7921,-1.62353 -5.0938,-1.32932 -0.3539,3.56973 3.4729,0.32095 0.1628,2.97785 0.3167,2.663 -4.8297,-1.18967 -2.9855,-2.01795 -0.6384,4.9841 -4.7503,0.4722 0.04,-4.04815 -4.1452,3.23327 -3.8626,-1.42593 2.1196,-3.02878 2.9264,-1.40082 1.6191,-2.13802 3.8675,0.37484 2.9355,-1.87164 -0.4242,-4.929 -3.4886,0.8372 -2.52,2.04483 -4.113,0.70624 -2.8787,-2.71947 -3.9189,0.52156 1.2843,3.51587 0.9256,3.50677 -3.697,1.77164 1.2542,2.6228 -2.5307,1.38256 -2.6083,-2.5188 0.35,-3.2605 2.0468,-2.47862 -3.3245,-0.54788 1.4205,-2.81665 -3.0652,-0.84715 -3.0016,0.12348 -2.8332,1.45404 -3.0688,-0.86432 -2.671,0.55347 -3.4538,-1.10513 -3.0885,1.38074 -3.6578,0.17632 -3.6569,-0.61227 -0.305,4.3934 -3.3039,-1.94863 -3.4253,-0.9362 -1.0633,-3.52602 3.4756,0.94642 1.6276,-3.8257 -2.5054,0.854 -3.0981,-1.26803 -2.1212,-1.72707 3.289,-0.6236 2.9373,-0.67313 1.3697,-2.64453 2.5033,0.41473 1.6782,-3.32387 -2.0728,-1.44768 -0.5221,2.25895 -2.287,-1.70932 -2.8099,0.49795 0.3509,-3.4413 3.0658,-0.78056 2.7631,0.1622 1.0394,-2.39859 1.61,1.67395 2.0663,-0.7208 -1.0099,-2.38824 -2.319,-1.24853 -2.9696,1.00555 -2.0549,-1.92938 -2.1664,2.95166 -2.96,-2.03096 -2.5908,0.4673 -0.8303,2.8654 2.7379,1.6661 -4.0074,0.89144 1.3239,2.24561 -2.7562,0.2142 -2.196,-1.1485 -2.7848,1.63937 -2.6585,1.5156 -3.7769,0.48843 -1.9758,-0.78048 3.2696,-1.64527 2.1492,-1.49487 -2.8978,-1.78923 1.5292,-2.4555 -2.1661,-1.0807 1.6257,-3.3192 2.1173,1.74854 1.6024,1.47189 0.098,2.35614 2.6764,1.32447 2.5458,-1.19071 0.1174,-2.79239 -2.9722,0.80249 -0.7446,-4.26849 -2.4279,-0.26664 2.0048,-4.14434 1.3175,-2.43588 2.1668,-3.12808 1.6236,3.16458 2.8405,0.25659 3.6833,-2.76752 -4.2707,-0.71301 0.8076,-2.95212 4.2681,-3.07175 3.3703,-0.24507 4.4281,1.70137 1.7803,-3.84757 -2.2162,-1.1313 3.7173,-4.38923 0.1481,2.98803 0.2707,4.20396 1.0462,5.41699 0.2917,3.12683 2.1746,2.04538 -3.5289,1.84454 -2.5951,-3.29556 -5.4787,-3.01501 -1.7008,5.0021 -3.8708,1.07724 -6.0391,0.81366 -1.7174,1.87802 0.2268,2.9896 3.4083,-0.56479 1.0247,-2.77346 2.7451,1.03334 2.7058,-0.6903 3.1841,0.25781 2.1301,-2.90155 2.2071,3.36423 3.1738,1.06237 2.9056,1.1433 1.8593,-2.09105 1.8356,-1.89111 2.1586,0.45572 2.5105,-0.0656 -1.9899,-3.45242 -2.316,-3.1308 1.918,-3.07397 -3.6117,-0.78003 -1.6774,-1.66922 0.7786,-2.88117 -0.599,-2.8721 2.9229,-3.00634 2.3863,2.69235 2.594,-3.20575 4.2484,-0.35792 4.0336,-1.59362 5.4701,0.83557 -1.3296,3.94589 -2.0945,-2.13834 -3.5876,3.18693 3.2799,2.95553 0.1997,3.35124 2.9742,-0.61827 2.65,-1.79379 -1.9526,-1.61532 3.2398,-2.793 3.6713,1.0672 -0.078,-4.5683 4.0848,0.4198 3.9626,1.58761 3.8892,1.85927 -6.9217,1.5011 0.5283,4.6172 4.2532,0.55317 2.1906,-2.7258 3.7025,-1.99961 3.5499,1.03232 -2.6802,2.1124 -2.0731,2.27282 -2.2951,3.90226 -2.009,3.44937 5.6841,-3.42688 -1.3569,3.11715 -1.8573,2.61637 2.1343,2.2233 1.6596,2.91613 3.4373,0.24588 2.6639,1.59102 2.352,1.09813 2.7673,-2.41853 -2.7398,-0.98085 -2.5542,-1.32511 2.0657,-2.22114 2.5718,1.39268 0.5355,-2.78698 -1.7221,-1.9714 -2.6559,0.0391 -1.4489,-2.74794 -1.1918,4.551 -1.1199,2.64616 -1.4577,-4.45076 1.2095,-3.1178 -0.3538,-2.80244 0.3676,-2.70906 2.5555,0.66594 2.0576,-1.47577 0.3201,3.43698 1.5245,2.28605 2.5996,-1.33567 2.4936,2.30115 -2.3305,1.30352 2.0198,1.90647 1.7108,1.99121 0.4413,2.77817 -2.6448,-0.50052 0.8045,3.18277 -1.9064,2.06442 2.0293,2.34912 1.24,-2.10824 2.1511,2.3753 1.2405,-3.81296 3.0519,-1.75701 3.0409,1.3991 -4.3621,3.90737 -1.3489,2.74324 2.2135,2.80408 -4.1743,0.75082 -2.568,-2.16107 -1.0477,3.6203 -3.5482,2.38525 -3.3262,-3.85217 4.0425,-1.1387 0.8601,-2.98459 -0.9653,-2.59723 -2.2903,2.19159 -3.6083,1.27362 -0.6279,-2.90804 -2.7696,-2.09608 -4.0496,0.22195 -2.5636,-3.11502 -2.7992,-2.55515 -2.8247,-2.64855 -2.1145,-2.83347 4.2082,-2.68423 -2.8327,-1.78058 -3.2603,-5.50653 -3.2682,0.81949 2.6313,2.67035 -0.9488,3.18532 -1.8511,2.9149 -3.713,-2.6306 3.0996,-2.1944 -2.2267,-1.81737 -2.8249,2.02847 -1.4535,3.9225 -0.8936,-2.72248 -3.2011,-1.10996 -2.8975,2.28552 1.097,-4.59451 -2.1058,-2.79177 -2.4089,-3.13615 -4.5407,2.19699 3.5049,3.19266 2.3085,1.95133 -2.5941,2.29193 0.2381,3.45774 3.3328,0.59716 4.3015,-0.4997 3.5026,1.7533 3.5683,-0.7616 1.835,2.82541 3.343,-0.45157 2.9951,1.58335 3.0245,3.57702 3.0605,3.34861 2.3337,3.75256 5.1448,-0.37946 3.5891,5.96924 -3.1228,-1.25925 -4.503,0.30838 0.1534,4.16779 4.8613,1.95876 3.5713,-0.64293 1.6951,3.68039 1.7932,-2.668 2.5117,2.6979 2.2232,1.8035 2.9085,-0.33596 2.2915,-0.99613 2.7639,-0.45093 -1.9489,-2.6438 -4.5921,-0.27487 3.8747,-3.56811 2.8175,-1.3382 2.5755,-0.29786 -1.164,4.0583 1.2422,3.91885 -1.766,2.8194 1.7557,2.12887 2.4524,1.46833 2.9186,-1.07225 3.7473,0.91145 4.1044,0.68857 4.1103,-0.29294 4.5835,0.2998 4.9115,0.37322 0.7784,-32.0439 -2.9912,-0.28653 -6.8238,0.74283 -5.3677,-1.18308 -4.1334,0.71356 -4.2378,0.53174 -1.7764,1.59683 4.0312,0.072 4.5194,-0.86452 4.1126,-2.15921 2.891,-1.28845 3.2571,-0.34892 0.9856,-3.0125 -0.571,-2.64914 3.3137,-0.77423 1.8857,-2.1796 -3.3535,-0.95868 -2.6979,-0.28085 3.3538,-2.87372 -2.5979,-1.78524 -0.9642,-3.27131 3.1639,-2.00051 3.6691,-0.49268 5.4111,0.92603 -0.1355,3.10446 -2.9763,-1.16617 -4.0974,0.99692 2.3045,3.32406 4.0553,-0.0673 -1.5003,3.10778 4.2835,2.14765 -2.9616,2.8003 -3.0536,-0.45227 -3.4319,2.40158 1.764,2.48159 2.8919,0.41705 3.1814,-0.89306 -0.8189,3.68384 2.6068,-1.61273 3.2338,1.68665 1.7744,-2.41496 -2.5132,-1.67681 -0.8644,-3.37113 2.2948,-2.49322 5.8095,-2.30191 -2.3832,2.62213 -0.053,3.74927 1.0085,5.58175 2.9563,-2.39624 -0.3326,-3.95108 4.0371,0.641 -1.5933,-3.73902 3.2072,-0.50021 1.7268,6.17593 0.4148,-3.2555 3.2973,-2.5562 2.7461,-1.19306 0.991,-3.34124 -2.2517,-1.23295 3.4414,-1.61789 -1.5279,-2.83798 -2.8082,0.35486 -3.2472,1.69952 0.7838,3.16461 -1.3193,2.64261 -2.3883,-2.01988 -3.2518,1.11363 -2.6584,-1.51526 1.346,-2.25147 2.3082,0.82127 1.2284,-2.66022 -5.9138,-0.36521 -2.2366,-2.41884 -1.0151,2.28777 0.9944,2.66861 -1.4529,3.05905 -3.8267,-0.7644 0.6273,-3.05113 -2.045,-3.7459 2.6008,0.52377 2.2285,-2.73751 3.6951,0.0521 2.4732,0.96915 1.5422,1.95147 2.6699,-1.35717 3.3982,0.27694 -1.8196,-2.67431 2.1763,-2.05166 1.8506,2.33596 2.8021,0.89264 0.7181,-3.28464 -2.6862,-3.06793 -3.4475,-1.04715 1.2295,-2.67935 -0.2625,-3.33707 -0.5843,-3.25976 3.2421,-0.27692 1.6657,2.45362 0.5765,2.6841 0.6739,2.5901 -0.5198,2.81307 2.8818,-0.49524 1.5164,2.27367 -1.0168,3.25618 2.1111,2.0401 1.5603,-2.21301 0.2974,-2.31202 1.9524,-1.51373 -1.7659,-2.01404 -2.1406,-1.23953 -1.8606,-2.08597 -0.065,-2.68078 1.7452,-2.93146 -3.8962,-0.71237 2.2849,-2.06517 2.3888,-1.64672 -0.3843,-3.52761 -2.9158,1.72137 -2.8526,-0.18079 -2.2961,2.10575 -2.6989,0.32205 -0.5904,-4.23875 -0.7229,-4.08336 4.5179,1.39434 2.3449,-3.99268 2.228,4.7461 2.9131,-2.7816 -0.038,-3.17317 3.7105,2.07687 -0.2172,-4.9041 4.0545,-1.41102 -0.2632,4.73959 -0.6603,3.36908 -3.8491,1.69022 -0.1714,3.91873 1.5776,-1.47275 1.8167,-1.15527 2.396,2.42712 -2.324,0.92575 -1.5327,2.17745 -1.9667,2.33183 3.9418,1.01581 -0.2628,3.32544 -3.1925,-0.87625 -0.4038,3.4985 2.4199,2.42743 1.8199,-2.12054 1.911,2.16534 -2.5196,2.57468 2.0195,1.34372 1.3483,3.89014 1.5281,1.91323 3.5645,-0.4433 -0.8194,-2.58416 -0.6656,-2.72157 -2.7092,1.74494 -0.3941,-2.65298 1.4274,-2.22546 0.8371,-2.64127 -2.2151,-2.49045 3.2593,-0.8501 -2.1541,-3.61151 -2.41,-2.78055 3.0487,-2.28962 -2.5769,-3.362 2.0124,-2.02166 -0.4933,-2.75802 0.1395,-3.15564 1.3153,-3.62118 3.8898,1.24627 2.9535,-2.11011 -1.3717,5.79054 -3.3825,0.85073 0.2321,5.07263 3.0535,-0.15866 -0.874,5.6769 -0.8966,3.1019 0.7952,3.5697 1.0006,2.77448 -1.8689,1.83994 0.8258,3.70566 1.0265,3.36127 -2.1829,5.83547 2.687,-1.95072 3.2717,-0.15514 1.412,2.63922 3.407,1.39332 0.01,-5.07853 2.8935,1.97385 3.4288,-1.85547 5.0363,-0.8458 0.5175,2.49143 -3.0971,0.38357 -2.9028,1.7489 2.4836,1.08429 2.8845,0.30173 3.223,-0.22409 1.4192,-3.11288 3.4242,-1.80652 3.6235,1.24139 1.9645,3.26113 -4.9707,0.14073 -2.6083,2.82947 0.4798,5.3312 3.3825,-3.29663 3.3843,-1.18475 -2.6005,4.98352 -1.9788,3.54576 4.1716,0.37065 3.8944,-0.64145 3.2339,1.41913 2.4007,1.13247 -1.2189,-3.76486 0.3725,-3.38436 -3.0464,-0.30176 -4.0237,0.92621 3.3798,-4.36667 -0.1778,-4.04654 -1.1059,-3.11295 3.8305,-0.82707 0.9462,5.4018 1.9606,-2.91726 4.4607,-0.42569 7.1943,5.63235 10.6797,1.50275 8.2441,-0.26562 -4.0329,0.13077 -9.3712,-0.41934 -10.4961,-0.81086 -2.9541,-1.93734 -3.2383,2.77624 2.0715,3.59012 0.1011,3.79062 1.2704,3.5115 -2.8382,1.30106 -3.1984,0.61206 -3.0411,0.67667 -0.5344,-2.30003 -3.5296,1.4251 -3.8949,-0.19136 -3.8138,0.11164 -1.3869,-4.12626 -2.1753,2.56938 -3.2587,0.92672 -2.7959,1.38318 -0.6063,-4.27182 1.6181,-3.49108 2.2327,2.94316 2.8112,-2.044 0.4706,-3.22386 -2.1138,-1.10454 1.3065,-2.775 -3.0563,0.17534 -2.165,-1.116 0.7634,3.76143 -2.6479,0.93915 -0.8133,-3.30942 -1.8595,2.9592 -2.3638,-0.98046 1.1235,-4.35135 -2.8995,1.40927 -3.1878,-0.0137 -2.6475,-1.23828 -2.7208,-1.66196 -0.7389,2.3619 0.6852,2.8862 4.452,1.09413 3.8503,0.96222 -4.6711,3.62265 4.1148,-0.0419 2.3192,1.89752 2.3558,-3.26947 1.0597,4.04955 -2.2839,2.78013 -3.488,0.44553 -2.2234,-2.6221 -5.1673,-1.82646 -3.1484,0.11106 3.4258,-3.52216 -3.4117,-4.9123 -0.942,-3.22758 -2.3274,-2.31345 -1.6823,2.78046 -2.2076,-2.17253 0.2735,-2.57872 -1.2368,-2.25428 0.3747,-2.2656 -2.8249,0.103 v 3.89368 2.91336 l 0.9309,2.62079 3.1041,2.45413 3.3878,0.94594 2.6126,1.7896 -0.9017,2.57696 -3.7889,-0.87799 2.2932,3.71023 1.3058,3.05158 -4.0096,-2.66052 -3.5871,0.69721 2.3399,3.26803 -4.0972,0.1812 -3.299,-0.18697 -3.3198,1.06424 -1.323,-3.75082 2.4938,-1.45331 4.0254,0.0387 3.1872,-2.38192 -2.5223,-2.31961 3.3774,-1.25739 -2.2908,-1.91754 -3.178,-0.95367 -0.4098,-2.71557 0.3981,-2.71504 -2.8788,-0.76861 -0.139,6.40515 1.4976,2.54254 -1.0508,2.59659 -3.0674,0.93195 -3.1346,1.15884 0.379,2.4823 -1.7247,2.35368 -2.4902,1.47762 -3.182,-1.71057 -1.5822,2.52392 4.853,3.22537 -0.4738,3.86353 3.3492,2.09027 0.7362,3.57766 -4.1307,-0.291 2.2508,2.8737 0.4875,3.47786 2.6579,-1.59644 2.0982,-1.78922 5.2612,-1.3164 -1.8054,2.00113 1.1069,3.52704 2.3652,-1.96357 3.4727,0.6335 0.371,3.7061 -3.0368,1.23996 5.0325,3.76044 -0.029,3.86874 3.1638,1.6308 0.8455,-4.02274 1.8425,-3.26223 -3.3527,-0.60385 -0.594,-2.96492 2.6423,-2.16936 -2.9116,-1.76697 -1.733,-3.32669 1.095,-3.55823 2.513,2.30285 2.2928,2.00364 -0.5884,-5.01837 0.4495,-4.0112 -3.5933,0.38016 -3.2348,1.51377 -2.202,-2.17286 -1.8851,2.55216 2.387,2.9226 -1.079,3.30918 -2.1711,-3.06158 -3.4476,-1.22654 -1.4605,3.05474 -2.4175,-1.74853 0.6048,-2.79785 -1.6662,-2.43274 -2.4836,-1.88232 3.1192,-1.34162 -2.1837,-2.02111 2.0592,-2.19293 3.1468,3.86733 3.1119,-0.76638 -3.3014,4.17233 2.6055,0.70192 1.9614,-1.8719 2.5253,-3.13608 3.837,1.29202 3.3967,-2.42169 4.0874,-0.5777 4.0105,-2.51635 -1.7907,7.0791 -0.7777,3.27612 -0.1786,4.29083 0.3797,3.70099 -0.1086,4.09366 0.457,4.77145 0.056,4.25501 -1.2053,3.54202 -1.9091,2.72009 -2.7995,1.20303 -2.8889,-0.8182 -3.1868,-2.04196 -6.2287,-0.19239 -3.8118,-2.07825 5.1159,-1.40438 2.4632,2.5802 1.3366,-4.28754 -3.5882,-2.07416 -3.7507,1.74766 -3.5399,-0.46171 3.3956,-3.61487 -0.2189,-5.58038 -3.3616,3.62836 -4.1313,-1.00073 0.6579,4.64775 -0.5078,3.53093 2.6768,2.52017 -2.3809,3.46133 -2.9766,-1.53743 -3.414,-0.99858 -6.1155,-0.42587 -10.2455,-0.10937 5.3931,0.18069 8.7953,1.78533 6.7617,3.53514 1.0916,5.55946 1.3612,2.78258 3.9315,-0.58283 1.5785,2.33103 -2.8721,1.72186 -3.8356,0.10831 -10e-4,3.34701 3.3724,4.72391 -2.7046,1.85388 3.0702,1.6629 -1.3489,3.97547 2.973,2.68286 -2.292,0.7016 -2.6604,-0.76856 -0.1943,2.78006 2.3724,1.94876 3.0286,-1.8269 0.537,2.89396 -2.2952,2.53368 -2.4185,1.36936 0.3135,3.87206 2.4677,1.49158 0.8144,-3.30096 2.8777,-2.77692 3.333,0.2758 -0.589,-2.9722 -1.331,-2.2305 -1.2949,-4.03608 2.4133,0.13971 0.1874,-3.43133 -4.6383,-0.0779 2.3429,-2.86955 -1.6099,-4.17127 -3.3745,-4.41943 3.084,-1.61345 2.2917,3.3804 1.2388,-2.79408 -0.9528,-3.08826 1.2498,-3.27182 -2.7774,-1.9892 -5.243,-2.66934 0.4108,-2.9419 1.4873,-2.03408 2.7028,-0.56387 -0.503,3.97558 4.1628,1.85831 0.05,-3.55951 3.7002,0.40079 4.2059,1.42948 -0.5925,3.88665 2.6156,2.56355 -3.2503,0.0881 -1.2267,-4.5533 -2.459,2.4419 0.7235,4.02252 -1.6364,2.26584 3.9602,1.43912 1.6218,2.80957 2.923,-0.40205 -0.3739,-2.5626 -1.3677,-2.60664 3.7124,-0.7569 2.0696,-1.72016 -0.6622,-3.06487 -3.3589,-1.35211 3.6639,-2.83905 3.0152,-1.55051 -0.5,3.37537 0.2878,4.06332 1.5278,4.35587 -2.2256,0.67358 -2.6043,1.16388 -0.3255,3.30698 3.3618,-1.36906 2.3392,1.26847 -1.3658,2.20471 -2.4037,0.15412 -1.9987,2.16262 -2.2199,-2.5061 -0.5436,2.23663 3.7376,3.42978 1.9725,-2.34093 3.4956,-0.15928 -1.1878,2.21042 -1.5378,2.32974 3.4342,2.89432 -2.1558,0.67093 -2.1184,2.06994 -1.8304,2.50513 -0.2932,4.053 -4.0785,0.72782 1.3063,4.3302 3.5688,-0.87286 4.2055,0.1882 -0.8677,-4.32016 0.8649,-3.73987 3.8879,0.0202 -0.7822,3.25769 3.7013,1.49597 -1.661,4.2489 -1.9827,3.81561 1.2418,3.71329 4.0884,-3.95693 3.1782,4.044 3.8623,0.41217 1.3343,-4.35822 -3.6638,-0.7142 -2.9727,-3.56855 1.5981,-3.16046 4.0422,2.27021 4.0677,-1.22241 0.1934,4.23976 2.9579,3.95475 1.0875,-3.31652 0.5381,-3.83579 3.5157,0.24876 2.3733,-2.40882 0.8727,3.9757 2.4139,-1.5036 1.3157,-2.52528 3.2075,2.26997 1.0391,-2.41717 2.9254,-0.0441 1.2751,2.88922 1.9056,-1.94345 0.7397,-2.80887 2.3491,1.65399 2.7079,-2.00002 0.7308,2.34213 3.2991,-1.8454 3.6946,-0.32578 3.5122,-0.0899 3.0466,-1.39926 3.0506,1.19793 1.4531,-1.8193 3.0486,0.86838 3.0877,-1.64073 3.3827,0.42835 2.984,-3.02163 2.7523,-2.58588 2.6555,2.57146 3.4992,-1.58653 -1.0599,-2.09659 -1.4424,-1.71295 -1.6006,-2.25376 -2.6068,1.60861 -2.1272,-1.5961 -2.2945,5.11686 -1.5688,-2.95574 0.852,-3.50523 0.9865,-3.29677 2.1885,-3.39494 -2.8074,-0.9372 1.4146,-3.1709 2.758,-3.23321 2.3147,-3.52408 3.7931,0.043 1.9206,-3.04794 -3.366,-1.05658 3.6438,-3.52695 3.4088,-0.9277 2.8018,-1.4967 1.9122,2.08697 2.8649,1.37249 -2.1979,1.93927 -2.4141,-0.36833 -2.1133,-1.26655 -2.7135,1.12347 2.8122,2.74054 -2.4865,2.76297 1.8745,4.56525 3.6488,-0.67678 -1.6831,-3.2632 3.9737,0.64838 2.7617,1.01767 -0.3753,-3.8132 -3.3952,-0.59952 4.7532,-2.50235 1.2485,-3.61175 1.2043,-2.96845 -2.2461,-1.4664 -2.147,2.48108 -2.6481,-1.28043 0.5299,-7.70153 -4.2805,-7.0423 -2.4258,-3.09534 4.2396,6.54547 4.2177,7.19077 6.1597,0.16025 1.7289,2.38739 -0.4405,2.73782 3.0874,1.65154 3.0543,0.95664 -1.1444,2.97458 -3.1672,-0.33762 -2.6037,-2.22662 -1.3944,1.86562 0.5794,2.4993 -0.9161,2.38234 3.8013,-0.31122 -1.575,3.09225 -3.1873,-0.64621 2.5098,3.57154 -2.7177,-0.15857 -2.1938,1.40537 0.3776,2.9679 -0.1969,3.10912 -3.6405,-2.88257 0.4327,-3.2598 -3.5795,1.1056 -1.2788,3.10168 -4.0178,2.04247 1.031,-3.94008 -2.4185,-2.33902 -1.0416,-3.11008 -2.5346,2.20123 -2.2282,3.05301 3.3233,1.44874 -2.2229,2.52404 -2.9907,1.08298 0.5441,3.11404 2.7597,-0.92576 2.6103,-1.49953 1.0179,2.93448 0.8209,2.60888 2.5887,-0.86923 0.7132,-2.95953 2.2036,-2.32623 4.304,-1.03058 -1.3441,2.60584 -1.9815,1.54266 0.2984,2.86767 2.9697,0.68384 2.0747,-3.81767 2.7725,-0.4263 3.5291,-1.40285 -1.6364,-2.39523 -0.024,-4.37415 2.2932,1.99123 2.9458,-3.21706 3.1265,-2.42587 5.0977,-0.58667 2.1485,-2.71286 -2.1686,-2.39574 -1.8197,3.07015 -4.2567,-0.053 -0.1461,-3.06476 3.0088,-1.27753 1.5888,-3.49817 0.8954,-5.28311 -2.4271,0.14108 -3.6559,-1.34265 -0.5522,-3.21286 3.3586,0.82599 0.2625,-3.38995 -0.6076,-3.26245 -0.8424,-3.25837 0.023,-3.73382 0.3469,-3.85898 -2.344,0.4086 0.4719,-3.61978 1.2612,-2.94688 -2.3823,-1.10647 0.1438,-3.20846 -1.9504,-2.81497 -0.9761,-2.7306 -3.3965,2.90134 -3.3835,1.53986 -4.2595,-2.47324 -2.6219,3.2825 -5.2688,1.60602 -0.6905,6.5784 2.0422,2.76154 -3.6201,-5.8917 -1.9584,-3.55202 -0.3382,-5.5842 2.212,2.8179 4.1184,-0.16733 2.8674,-3.33127 -1.6984,-3.4862 -3.3677,3.32265 -2.1791,-2.99087 -3.2867,-5.1127 -9.6127,-0.91008 4.6111,0.97426 7.9344,-4.48696 1.5301,2.81676 1.7402,3.36987 1.8458,-7.22226 1.7483,2.95843 1.3889,3.79456 3.7997,-2.05911 -2.2389,-5.37881 5.4489,-2.92179 -1.2292,3.42125 1.5277,3.24687 2.5801,-3.37524 0.6866,3.70497 -1.8724,3.25075 -2.3798,2.1976 -3.2414,2.13005 3.6215,2.31932 3.0693,-1.92382 3.148,-1.2444 -0.7641,-3.46798 2.9237,0.24438 2.5349,0.14368 2.928,-1.22961 0.9444,2.55417 -2.2102,1.29486 -2.8814,1.60437 1.9421,0.90593 -0.4472,2.7001 2.5675,-1.96635 1.5516,1.41562 0.8388,-3.32277 2.623,1.58287 3.0089,-3.06955 -4.6058,-1.79785 1.8904,-1.21477 2.3073,-0.82713 -1.6029,-2.61327 1.9075,-4.46562 -2.4576,-0.79666 0.4867,2.54541 -2.9817,-0.44248 -0.8869,3.79117 -3.5631,0.0452 1.4187,-3.47867 -3.296,-0.70102 -3.4063,2.77322 0.6186,-2.50903 -1.4939,-3.54952 3.4226,-0.0488 3.3264,-0.57589 3.0634,0.67083 -0.529,-2.98822 3.2038,0.34284 2.0586,-1.83774 1.19,3.62454 2.0279,3.53244 2.0389,-2.94802 0.1572,-2.36173 1.8991,-1.8909 2.1125,1.94318 0.1892,2.548 4.3311,0.89502 2.598,-3.9411 3.1057,2.54123 4.7326,-0.83286 -1.0353,5.15189 1.9703,4.5665 3.5193,1.76022 1.117,3.23572 -2.2918,1.37445 -3.1376,1.52643 -1.2318,-3.00681 -1.1634,-3.31244 -1.1762,2.05393 -2.3912,-1.1713 1.8041,-3.62948 -2.9854,-3.39695 -1.3066,3.39972 -2.9065,2.55328 0.5072,-4.47997 -3.4975,1.08715 -0.1156,-3.01355 -2.5238,-0.6788 -2.1012,-0.58685 -0.2788,2.64636 -2.0783,2.0155 0.1191,3.03306 2.8524,1.32183 0.6621,-2.80395 1.1347,-2.58218 1.4031,3.75674 0.1547,2.63183 3.1679,1.49123 -4.2539,0.76744 -4.0464,-0.25232 -2.7598,2.71042 2.8534,1.97022 0.3203,-2.05433 2.2658,0.19617 2.5339,0.93903 3.4893,-0.10199 3.2057,-4.16654 -0.4228,-2.63183 4.2188,2.93703 1.0442,2.42298 -2.8806,0.0371 -0.8221,3.23938 4.4142,-1.08783 0.4832,3.59773 2.4558,-2.62605 2.7354,-0.55252 1.3177,3.24367 -1.3394,2.92238 -1.1559,3.21982 3.4208,0.74823 0.4195,3.19027 2.091,1.50125 1.027,-3.13168 -1.3605,-4.13074 1.2986,-2.93013 0.2009,-3.67207 -2.3344,-2.45801 1.9321,-3.04348 2.2602,2.09393 0.7249,-3.68437 2.4966,1.3423 2.4702,0.84393 -3.0081,3.46555 -0.5329,4.55362 -0.4071,3.5897 1.1017,2.94277 -2.092,1.38461 -1.2273,3.46768 2.847,0.41774 -1.818,2.17992 2.6445,0.71928 0.1607,2.89357 -3.6988,-0.58717 -2.1692,-2.1159 -3.0655,-1.38982 -0.2959,3.97102 3.113,1.0942 0.3211,3.46853 2.8558,-0.74503 2.8796,-0.95593 -2.7037,5.17473 -3.4935,1.43544 -0.077,4.55884 3.6836,-1.18622 3.0944,-1.28748 2.2632,-1.56758 -1.1516,-3.2976 1.4656,-3.1543 0.7317,-2.68792 -1.0227,-3.07818 -0.3203,-3.2348 2.4641,0.64062 0.7575,-3.93039 -4.6158,0.478 1.4713,-2.38353 0.8289,-2.35588 1.6582,-2.23292 -1.0005,-3.20455 -2.4234,-1.66867 5.0975,-0.81623 -1.9964,-2.33001 -0.024,-4.94824 -2.8283,-3.98334 -2.2319,2.30164 -1.6979,-3.78855 -2.8291,3.073 -1.5626,-4.1463 -3.9116,-0.0451 -0.2587,-3.54546 1.9657,-2.63708 3.8245,2.39358 5.9316,1.51076 3.8323,3.09572 4.2433,0.6177 1.1776,3.44788 -2.128,3.0702 4.709,1.60686 -1.6916,2.63486 -1.3782,3.29385 -2.0449,2.82513 3.014,3.11704 -3.1788,1.54706 2.2668,2.5505 5.0719,0.56473 -0.5662,-3.34273 -2.4092,-4.24665 0.8842,-2.75339 2.5976,-1.53426 2.0084,2.84044 -2.1157,1.69153 2.7297,2.42473 1.193,3.21724 -0.017,3.05899 -2.6383,1.39221 1.4956,4.78748 -0.702,3.34048 0.5548,3.23227 -2.792,0.72 -1.2256,-2.45675 0.2348,-3.00714 0.275,-3.21938 -3.3775,0.2635 0.2072,-3.40774 -3.297,0.87787 -2.0472,3.44357 4.3816,2.12592 -1.571,2.60565 -2.2938,1.99969 3.2801,1.37018 2.8264,0.47016 3.2625,2.12252 2.8611,1.66016 -2.6184,2.15729 -2.1166,2.1625 -3.3092,-3.21679 -4.203,-2.49018 -0.2243,4.1623 -1.3642,4.1141 -3.559,-0.44455 -3.4717,0.61447 -3.7457,0.17478 -2.2512,3.14733 -3.6898,0.2172 -4.925,2.24612 0.4566,-3.2366 2.3595,-2.10968 -2.9669,-2.36383 -2.3554,1.64146 -1.5096,-2.81523 2.0769,-2.13171 4.8788,2.50171 3.8068,2.01507 -1.9956,-4.66806 3.1914,-0.35873 -0.5615,-3.86307 0.9511,-4.10425 -2.6118,1.25297 -2.6863,1.0221 0.844,2.80757 -3.7997,1.72828 0.605,-2.59467 -2.4715,-2.33005 -2.9674,3.22205 -0.4006,-3.36108 -3.0154,-0.6706 -0.3306,3.4202 0.897,2.9777 -0.8485,3.62056 3.1267,5.34524 2.5885,1.04478 -5.0024,0.33029 -0.8424,-3.12604 -3.15,1.68305 0.2614,-3.26318 -1.9836,-2.06888 2.5896,-2.30616 -3.2422,-0.43029 0.9033,-2.52659 1.846,-3.66922 -2.8797,0.67246 -1.6919,-1.61072 -2.2245,1.75138 -2.7923,0.90382 -2.9403,0.29484 -0.777,2.26276 3.3413,1.3533 -0.9521,2.85385 2.77,0.73885 1.4116,-2.42677 -0.1107,-2.26145 2.1356,-0.93228 -0.4321,6.51788 1.2793,2.94342 -1.0974,2.9862 -2.8968,-1.60363 0.5313,-2.61459 -2.7338,-0.34186 -2.1593,2.37028 1.3646,2.39358 2.2544,1.10336 0.3362,2.21323 2.3104,1.43231 0.7444,-2.15982 3.5497,0.26014 2.4668,-1.6792 2.7438,1.66985 3.1537,-0.29349 2.9901,1.22077 4.3021,-1.20213 4.3675,1.28236 2.3792,4.94311 -0.5315,6.14679 -1.0903,5.37897 1.3742,4.45467 4.0306,-0.54665 -0.8714,-4.28018 2.0246,-3.33867 -1.3282,-4.41307 3.0157,-2.97348 -2.5976,-4.15635 -2.4184,-3.3345 3.1191,-1.28418 3.8723,-0.33837 3.0244,0.27322 3.0356,-2.19431 2.7806,-3.50503 1.1645,3.43847 2.4673,-1.2221 4.1087,-2.05948 1.0614,-2.75409 0.05,5.31473 -0.9793,2.65826 1.5359,2.82752 -2.3199,0.75006 -3.4085,-0.8566 -3.6571,-0.93942 -4.1579,2.64572 -3.968,1.08136 2.7224,2.8761 -0.843,3.56144 -2.0357,2.8251 2.0183,2.91787 -3.5011,2.19103 -0.225,3.14613 -0.135,2.98877 2.5363,2.32998 0.5245,-2.54556 1.8499,-2.35055 0.5932,4.57533 3.4602,-1.32875 3.2764,0.0899 1.2439,-3.01185 -3.7441,-2.63832 -2.6263,-1.29712 0.07,-4.55991 0.791,-4.63665 0.7825,-4.50214 2.8667,1.12224 2.1746,2.92836 1.3405,-3.19471 3.3763,-0.25213 -0.2545,3.28045 1.8986,3.73643 -2.5592,-0.28095 -3.8752,0.46893 -2.8738,-1.14761 0.9858,4.52643 2.0921,2.28918 2.8827,-2.37604 3.1302,1.19284 -1.7685,2.47182 -0.1143,3.97047 2.031,3.71113 -2.51,2.39056 0.8919,2.33929 -2.3767,2.40241 0.3277,2.39911 2.6502,-2.2749 1.8371,1.94153 -1.8942,1.74905 -2.3883,1.26195 -0.311,2.55445 3.4413,1.69608 -2.6306,1.36475 1.5488,3.91098 -2.5192,1.43402 2.1798,2.85472 -2.0092,3.21956 -3.751,-2.59134 -1.8536,-2.18305 3.8734,-4.33004 -3.1413,0.52017 -2.6456,-1.67127 -1.001,2.94517 0.087,4.54903 -3.7946,2.06211 -0.3335,-3.57382 -0.6346,-4.0488 2.1665,0.41278 0.6595,-3.32453 0.5832,-4.74047 2.8384,2.2161 3.1738,2.08303 0.3846,-3.04938 1.1335,-3.01407 -2.9897,-1.23935 -2.6663,0.37415 -4.8308,0.58932 2.2895,-2.26367 3.3832,-2.37317 3.5938,0.84414 1.4453,-3.12117 0.1487,-3.42896 -3.3971,1.9682 -3.982,1.89763 -2.3772,-0.0424 -0.5288,-2.36927 -2.5953,-0.0542 -1.9789,-1.52349 -2.5502,-1.56971 -3.2585,2.07807 -4.6705,-0.64551 -1.2405,-3.43735 -3.9615,1.63715 -0.8137,3.14865 2.8609,4.87619 3.7358,0.71494 2.0748,-3.4498 4.0979,1.66717 3.0651,-1.58557 3.3013,2.0595 -2.8737,3.59376 1.6443,3.53036 -2.5367,1.76603 4.0805,1.85012 -3.5334,1.60923 1.3988,3.23715 -0.4591,3.02573 -0.1524,3.19772 -3.4013,0.8905 0.2395,-3.08307 -1.4036,-3.52483 0.3486,-4.50236 -4.3288,-0.39514 -2.5656,-1.39307 1.9862,-2.0838 3.8179,-0.84506 0.7725,-3.86499 -3.3123,1.96362 -5.2476,1.04138 0.2329,6.99202 -1.4382,2.2403 -2.4752,1.71248 -1.4734,-2.0166 -3.2478,-0.34728 0.091,3.60918 -3.3212,-1.12064 -0.2335,-3.58706 0.8476,-3.58908 3.0224,-0.47626 2.3933,2.091 2.6246,0.87332 1.5761,-2.49621 -3.0676,-2.53305 0.9051,-3.70597 -1.4351,-3.75491 -4.309,-1.29162 0.7422,5.85946 -3.4378,-3.2261 -4.2787,0.94171 -1.6306,3.92103 3.9952,-1.03434 -0.5988,3.60934 -1.8239,2.24762 0.5759,3.75638 -3.3842,0.2582 -2.3096,-3.13662 -1.8965,3.45182 0.3814,4.00213 2.8748,-0.47278 3.7001,-0.60945 2.7698,1.94847 -4.2844,1.87189 -2.0371,3.13351 -1.75,-3.15039 -2.3737,2.42732 -2.5387,-1.4562 -2.9771,2.2141 -4.4405,1.8057 1.0024,-2.37718 1.0536,-2.36945 2.1577,-1.37634 2.7151,-0.58267 1.7436,-2.02173 -1.7347,-4.03549 -3.7508,0.10593 1.6893,3.02847 -2.9366,0.55716 -2.1402,1.83377 -2.258,2.15939 -1.627,2.55039 -2.365,-0.93723 -2.3353,-0.96319 -1.8809,2.27972 -0.8836,-2.78395 -3.4395,-0.22154 -3.2384,-0.62446 -0.3456,-5.06646 -3.467,-0.9783 -2.0405,2.48782 -4.1524,-3.48946 2.6097,-2.87492 5.6137,0.11099 3.8249,1.12093 0.343,-5.7963 -1.0037,-3.55168 4.2399,0.43662 0.6262,-3.66916 2.2604,-2.94806 2.1585,3.02304 0.3096,3.52051 -0.5005,3.6799 3.5379,2.12707 -1.4859,4.30986 -3.8636,-2.40086 -2.7827,-2.93582 1.1881,6.31866 -3.5116,2.19432 3.594,2.07848 3.6168,-0.42624 4.0593,-0.68518 2.4901,-2.02573 -0.4503,-3.28083 -1.9907,-7.58483 3.3467,-0.18027 -0.072,3.39063 2.4314,3.35083 2.3436,-3.35223 -1.7267,-2.07697 3.7991,-0.21521 0.7546,2.94265 -2.1475,2.4065 3.5684,0.0452 0.4885,-4.34863 1.4673,1.90835 2.9804,-0.20022 -0.6438,-4.09842 -3.0409,-1.36515 -3.0313,-0.46789 -2.4369,0.99246 -2.5493,-1.12323 -2.4349,-1.8064 -3.4007,0.19321 -0.1317,-2.93133 -1.5406,-3.10535 -2.3866,-3.69754 -0.017,-5.20694 -3.0646,2.29303 -1.9826,2.92431 2.4619,2.32157 -3.0022,1.04162 -2.3375,2.27213 -1.0537,3.3443 -3.4231,-0.83578 1.3003,-4.152 2.1723,-2.48585 -1.6145,-2.54053 -3.473,-0.0294 0.062,2.99155 0.533,2.80487 -1.7829,0.9505 -0.8581,2.59909 -2.1984,1.92282 3.1256,1.89719 2.9929,1.15935 -0.2701,3.8857 -4.4202,0.0706 -1.9018,-2.44156 -2.3394,3.8959 -1.7528,-2.28881 0.6992,-3.9437 -0.7864,-3.17447 4.7205,-3.95373 -4.0074,0.42393 -4.7332,2.88988 0.6987,4.29472 -3.7944,0.71816 -4.1935,0.61969 -4.2923,0.82645 -4.2067,0.0258 -4.1438,-1.27868 -0.064,2.28734 -4.0813,-1.1867 -3.4592,1.5399 -3.4238,-0.483 -2.4915,2.05513 -1.4022,-2.27579 -4.5629,0.15259 -2.6017,-0.25186 -2.5416,-0.49527 -2.0847,0.5777 -2.0551,1.73505 0.062,3.16738 -2.6165,-0.55703 -1.9958,-3.6759 -1.5074,3.67175 0.634,2.72223 3.7361,0.5289 -2.6877,2.3771 2.8306,1.8627 3.2099,-0.68692 0.2589,-2.90806 1.9236,-2.67925 -1.4315,-2.51663 1.9691,-0.64688 2.5147,1.32641 -1.7117,4.16852 -0.2792,4.00449 2.7711,-2.57883 2.8334,-2.26973 -1.5946,-1.6291 1.0045,-2.35694 2.5339,0.0301 1.1902,2.28635 -0.3042,2.61044 -0.228,2.89526 1.4909,2.69535 -2.2485,2.23045 -0.7662,-2.9278 -1.1387,-2.73218 -1.8707,2.37463 -1.253,2.08635 -2.7113,1.23607 -3.0758,-0.72949 -3.217,1.37918 -3.428,0.35959 -2.0348,-2.57291 -2.2643,-2.81284 0.2387,5.41352 -3.4711,0.45102 -2.6842,-1.52684 -1.6694,3.33973 -3.4811,-0.7196 -1.4062,-3.19503 -3.1135,1.51604 1.0499,-3.3212 4.8584,1.2714 6.9814,-0.44171 -1.5475,-3.65577 4.2233,-2.83776 -3.3587,-1.823 -1.9013,2.1936 -1.2701,4.00565 -2.5924,-0.2865 -3.0429,-0.83595 -2.7841,-5.33324 -0.9639,3.73019 -1.8741,2.91989 -2.6279,1.99158 2.1729,2.25943 -2.1971,1.12375 -3.3708,-1.2241 -1.4872,-2.29107 1.9607,-2.54837 2.2306,-1.22702 2.5284,-0.93088 -5.1089,-3.74036 -2.201,-4.16964 -3.1739,3.76587 3.0533,3.38705 -4.9709,0.85462 2.3004,2.2708 0.3497,3.4399 -4.8328,-2.73182 -1.4768,2.85562 -3.2416,-3.71484 -3.7413,-3.18479 3.5921,-1.08717 4.2326,-0.391 1.656,-4.9027 -3.1895,1.48695 -6.1109,1.11377 -3.0099,-0.52232 -2.6974,-1.66316 2.1827,-3.40567 3.5406,-2.32483 -0.1934,3.79566 2.5314,2.3075 1.9512,-3.21846 1.8421,-2.21972 -2.1575,-3.41022 1.7561,-4.04877 3.8675,1.1882 -1.3916,-2.39859 2.7981,-2.44378 1.3696,-3.5528 -4.3496,2.27724 -1.2471,-4.2786 3.4887,0.37902 -0.4406,-3.05744 -2.7983,-2.121 -2.4063,0.90802 -1.4736,-2.858 -2.521,-2.8491 -1.4844,3.37397 1.3543,3.23926 2.51,3.6326 -0.5634,2.84945 -1.6675,3.0643 2.2561,2.7045"
         id="path5"
         inkscape:connector-curvature="0" />
    </g>
  </g>
</svg>
