<?xml version="1.0" encoding="UTF-8" standalone="no"?>
<!-- Created for Inkscape (http://www.inkscape.org/) -->

<svg
   xmlns:dc="http://purl.org/dc/elements/1.1/"
   xmlns:cc="http://creativecommons.org/ns#"
   xmlns:rdf="http://www.w3.org/1999/02/22-rdf-syntax-ns#"
   xmlns:svg="http://www.w3.org/2000/svg"
   xmlns="http://www.w3.org/2000/svg"
   xmlns:sodipodi="http://sodipodi.sourceforge.net/DTD/sodipodi-0.dtd"
   xmlns:inkscape="http://www.inkscape.org/namespaces/inkscape"
   width="567"
   height="800"
   id="svg2985"
   version="1.1"
   inkscape:version="0.48.1 r9760">
  <defs
     id="defs2987" />
  <sodipodi:namedview
     id="base"
     pagecolor="#ffffff"
     bordercolor="#666666"
     borderopacity="1.0"
     inkscape:pageopacity="0.0"
     inkscape:pageshadow="2"
     inkscape:zoom="0.35"
     inkscape:cx="1600"
     inkscape:cy="400"
     inkscape:document-units="px"
     inkscape:current-layer="layer1"
     showgrid="false"  />
  <metadata
     id="metadata2990">
    <rdf:RDF>
      <cc:Work
         rdf:about="">
        <dc:format>image/svg+xml</dc:format>
        <dc:type
           rdf:resource="http://purl.org/dc/dcmitype/StillImage" />
        <dc:title />
      </cc:Work>
    </rdf:RDF>
  </metadata>
  <g
     inkscape:label="Layer 1"
     inkscape:groupmode="layer"
     id="layer1"> 
     <g>
<path style="fill:none;stroke:black;stroke-width:2px;stroke-linejoin:round;stroke-linecap:round;" d="M 
1701.2063 623.26196
1703.6069 615.411
1709.5474 620.28595
1711.6843 628.4772
1717.7395 622.7403
1725.0961 618.6819
1723.4733 610.9366
1716.3059 615.01544
1708.8086 610.1067
1715.9371 607.06665
1713.2887 600.207
1722.7974 602.30695
1726.8949 594.19507
1718.9495 594.5382
1709.9583 592.83997
1711.7037 584.1447
1702.8969 587.9107
1700.9314 595.34
1705.4175 602.1324
1695.135 601.6721
1699.4861 608.135
1695.9187 615.4242
1690.6129 619.8356
1687.329 626.6625
1680.7902 621.7117
1672.2379 621.2959
1665.8813 616.75305
1665.3044 609.34546
1674.641 613.2122
1683.751 614.3986
1689.9587 608.82855
1680.5498 606.772
1686.4143 600.2164
1684.1964 591.1434
1692.591 593.9573
1692.5352 586.5304
1685.8555 582.0167
1686.3356 573.94147
1691.977 567.16797
1701.4393 570.3306
1694.2809 575.7711
1697.8396 582.14453
1703.9495 579.0383
1709.309 575.2123
1716.0398 575.37805
1723.5256 573.6057
1717.8616 566.7148
1710.6522 567.6678
1705.6522 562.5572
1704.5652 554.9187
1701.053 548.1747
1697.3295 542.9581
1700.8677 535.8792
1707.3185 540.6749
1710.0032 548.4798
1717.782 550.6659
1712.628 557.92993
1720.3219 559.2356
1725.8425 552.9392
1732.7922 548.67676
1732.2217 540.6549
1733.5208 532.8649
1740.3241 542.42645
1740.9604 551.77795
1747.5088 546.42126
1752.4966 540.9083
1759.3142 536.44885
1764.5262 531.34595
1769.6785 537.5772
1763.1301 543.8958
1756.203 549.31885
1748.9648 555.19836
1742.6564 561.8216
1735.0085 556.85974
1728.2837 560.21765
1725.9792 566.7893
1731.5068 572.6043
1734.8131 565.23956
1739.4456 571.5016
1746.4095 570.8607
1751.4203 563.7196
1760.8999 566.2261
1757.9318 558.11035
1764.8152 552.7209
1767.7961 560.5835
1774.2251 554.84485
1771.8142 546.90894
1777.677 541.2849
1782.4106 548.0678
1782.1282 556.83014
1790.0537 553.6211
1793.1483 561.45605
1786.1304 564.1151
1777.2598 564.28577
1769.7999 568.11743
1767.7415 575.416
1760.8293 574.7368
1753.7399 572.16406
1755.8173 581.1419
1747.7327 580.39404
1751.4895 588.2149
1744.6302 590.931
1751.1559 597.51855
1759.5795 599.2529
1768.116 600.9756
1767.5831 591.93964
1758.9436 590.78296
1763.6251 583.6831
1771.4175 582.277
1775.9813 588.1273
1776.1421 595.33746
1776.0264 602.96423
1773.4014 610.0145
1766.666 614.30566
1762.5593 607.68256
1754.078 607.709
1746.5187 605.19635
1741.2393 598.8359
1735.3842 593.8356
1731.4523 600.82947
1730.2932 608.7186
1737.8496 606.6244
1742.227 613.35315
1749.3304 616.03485
1757.624 617.29767
1749.2893 625.05695
1740.2202 622.5053
1733.8381 616.2514
1730.0798 624.60986
1734.2515 630.48804
1722.3663 628.98096
1727.3373 636.3197
1724.1552 644.44495
1718.877 652.02
1714.7146 644.2803
1718.1897 636.24976
1709.9248 636.55457
1705.0555 642.2245
1698.2885 646.34155
1697.3722 637.66156
1703.3608 631.5713
1695.1368 628.5631
1689.0945 635.12506
1689.2858 642.6776
1681.6514 632.38354
1675.5107 628.4042
1672.3145 635.9344
1679.5032 640.29266
1682.0955 647.28204
1691.2638 650.26
1691.952 657.3867
1695.7722 663.3661
1699.0781 670.61365
1707.3748 671.559
1704.0485 662.4463
1700.8154 654.59314
1708.1992 649.91113
1711.7098 656.8406
1711.9065 664.45575
1721.2482 660.85583
1727.8479 653.7755
1733.3448 646.72485
1736.821 656.98004
1730.2094 663.1285
1735.1262 670.52435
1738.8345 678.1538
1746.3812 674.29913
1745.9795 683.93164
1736.0636 686.197
1734.6326 693.89545
1744.5673 692.5779
1747.3969 702.5229
1748.7561 711.2563
1740.0094 708.5461
1739.283 700.49554
1730.8228 702.83417
1730.1865 710.9519
1738.5935 716.11346
1731.4039 719.58154
1737.1534 726.5703
1731.045 733.27435
1723.5448 738.07947
1728.883 744.14355
1735.0969 740.15375
1741.2438 735.24725
1746.2404 729.9887
1752.1528 724.99805
1744.5708 720.8886
1752.7383 717.7462
1760.2871 722.4226
1767.4395 725.8087
1768.4087 717.3545
1765.7239 708.46796
1759.3988 713.55414
1756.8118 705.22375
1753.4033 697.166
1754.4961 689.84973
1754.871 681.6702
1757.1426 674.4896
1764.2095 670.8692
1768.8724 664.3974
1779.1862 665.72144
1785.555 658.906
1788.4329 667.1907
1797.4796 668.05383
1795.0923 660.7435
1795.1603 652.61127
1787.2861 650.6041
1779.4235 651.51733
1774.6947 658.35
1764.7563 656.4918
1758.4141 663.2626
1751.1284 667.34863
1741.7888 664.8816
1748.0918 657.8425
1742.2911 650.36414
1743.5632 641.5464
1735.6754 638.68555
1742.6589 631.72327
1750.6199 635.34204
1751.3737 646.43274
1756.0159 654.06775
1761.9753 646.9035
1758.2335 638.7537
1757.2031 627.9345
1765.007 631.77686
1768.0054 639.3009
1770.4539 649.88806
1775.21 643.2346
1783.4004 642.1705
1792.0311 643.90924
1797.3256 638.7785
1802.0675 646.87805
1803.319 656.4165
1812.1489 652.0025
1822.2233 652.66534
1827.0345 645.46594
1818.275 644.389
1809.8813 643.486
1805.6594 636.3073
1798.2931 631.0786
1801.7911 623.79626
1797.7621 616.9529
1807.3765 617.33026
1806.9348 608.15906
1815.0605 612.8897
1823.0618 608.5716
1828.3171 602.2707
1835.956 598.8421
1844.0054 599.3266
1843.1785 591.3175
1835.0933 590.5116
1827.5593 593.4932
1820.5994 598.4562
1814.5781 603.84534
1807.759 598.398
1800.1805 601.07776
1798.8413 609.0097
1791.4984 603.9708
1790.4966 612.1395
1787.9036 619.6044
1792.2966 625.60693
1788.2085 634.2415
1782.1934 626.4477
1777.5472 634.7593
1772.8286 627.86816
1765.0369 622.5998
1774.3007 619.61084
1781.1072 615.64624
1783.02 607.93884
1783.9368 600.1168
1792.8401 596.0504
1785.281 593.0832
1784.2029 586.4015
1779.8823 580.2072
1775.8962 573.6556
1783.8987 571.8158
1793.1544 570.6721
1796.4971 578.07324
1788.3955 578.9728
1792.8308 587.0232
1800.2816 592.5762
1801.224 584.37915
1805.2832 577.6466
1803.1084 570.4506
1800.2402 564.4773
1800.4276 556.6311
1806.4816 550.7803
1812.3881 544.6487
1819.7974 539.6007
1822.6564 547.7774
1831.5579 551.7121
1823.2687 556.7076
1814.9167 553.6161
1808.5769 561.24316
1816.7401 563.0492
1825.3206 565.9435
1834.1682 567.8552
1831.2837 560.0762
1839.5851 559.4021
1842.1691 552.25616
1850.5498 551.774
1849.9634 559.8591
1843.289 566.4378
1851.2183 568.3037
1852.2588 578.1677
1846.458 574.73193
1839.5839 574.495
1832.5797 576.38257
1826.112 574.6755
1818.8787 571.5907
1811.3595 571.3812
1812.1606 581.94025
1807.6998 588.85364
1814.0498 593.14703
1820.0189 588.46814
1819.5442 579.94727
1827.5895 584.1987
1836.1453 583.0375
1843.8357 582.8758
1850.8469 586.5347
1851.3857 594.93634
1851.5938 603.37646
1850.5702 611.92
1851.6228 620.6708
1845.5304 624.188
1850.769 631.9297
1842.8494 636.67236
1839.5127 629.10986
1836.6885 620.9781
1842.1014 615.1871
1843.0042 607.0218
1834.8063 607.82446
1830.6816 614.51337
1822.6031 618.10254
1829.1483 624.2192
1821.7227 628.80066
1815.2617 622.7087
1809.0597 628.1671
1815.1715 635.1779
1824.5931 637.3441
1831.9557 632.5718
1834.637 641.12836
1832.6189 651.2318
1842.2096 646.1067
1850.535 641.8595
1850.3455 650.45154
1852.2341 659.11475
1845.436 657.5153
1839.3556 654.4575
1835.0088 662.57446
1827.9323 659.53345
1818.4719 660.2555
1810.7263 660.6504
1805.2654 666.38434
1799.5497 675.9256
1806.821 675.0665
1813.1367 679.3299
1805.8977 684.53906
1811.4337 691.4314
1817.7753 685.79065
1824.8838 689.64465
1818.8842 696.50854
1816.383 705.77026
1809.1143 699.5727
1807.592 707.88257
1799.5612 711.15186
1799.3704 701.6374
1802.1326 692.96985
1793.471 691.5588
1796.97 683.8213
1787.1901 683.82764
1791.3795 675.6796
1782.8796 674.4127
1773.3656 672.65295
1766.3276 679.4884
1771.1202 686.9442
1763.0133 688.2064
1763.0211 697.74115
1771.078 702.5936
1773.0037 695.1591
1777.2051 680.5601
1779.3763 688.8082
1784.6935 693.9082
1790.5656 699.8388
1791.0298 707.872
1783.7202 711.4319
1780.8958 702.1176
1775.0778 710.08
1777.2682 718.58417
1774.7076 726.5675
1777.31 735.31335
1783.6765 739.4277
1789.289 733.8488
1782.8103 727.9694
1785.664 720.0829
1792.7156 726.36176
1793.1776 717.0333
1801.3779 720.59344
1808.041 716.8152
1815.5526 715.171
1823.6742 712.50824
1824.9066 703.6325
1828.7683 696.5167
1835.5737 698.2444
1841.0396 702.6128
1842.086 692.9232
1833.9967 688.41956
1835.3756 679.2987
1827.151 681.5336
1820.9441 676.12354
1814.3091 669.48016
1823.172 667.07996
1829.3564 671.8308
1837.0901 670.8922
1843.133 665.4271
1850.5923 667.5099
1851.6832 675.17017
1844.0388 675.3085
1842.4434 684.2695
1850.5139 682.8104
1850.4636 690.42737
1849.5986 697.7435
1852.4512 704.44336
1845.7264 707.32947
1832.4767 707.747
1839.2816 712.77405
1850.5378 712.7815
1852.1838 720.2038
1844.8423 719.67694
1836.8042 721.63763
1829.6783 717.93933
1820.0785 722.76874
1811.3208 726.239
1801.1292 728.3686
1797.9308 737.0588
1805.7996 735.0141
1808.2157 744.3456
1811.9543 752.6133
1802.9368 755.34296
1808.4873 763.206
1799.9498 765.341
1794.4937 759.0043
1784.6863 761.06024
1791.1561 766.46265
1793.5438 774.00824
1802.7983 773.0084
1811.1909 773.5298
1816.2562 767.3656
1817.8763 759.5905
1821.9321 752.38885
1819.2639 743.68164
1813.432 736.3507
1820.8599 733.34515
1827.2904 727.35986
1834.5715 730.226
1843.0718 728.6188
1850.8242 728.25586
1850.2079 736.3356
1850.6675 743.8314
1848.6577 751.1929
1850.4908 758.7558
1851.3474 768.3974
1844.8654 772.5626
1844.0 764.7318
1840.5862 757.85986
1837.3976 751.24554
1840.1475 744.14233
1840.5076 736.7299
1829.655 738.1962
1829.3555 746.89813
1829.99 757.16864
1825.4838 764.8623
1835.0786 765.3617
1837.53 773.7331
1843.0842 780.7663
1851.095 778.2397
1853.357 787.1721
1846.3604 788.1177
1838.3818 788.36206
1834.2627 781.17596
1829.7693 788.3737
1820.9716 788.2406
1825.7155 780.92303
1829.5789 772.95087
1821.2097 773.6374
1816.3616 780.8345
1811.6498 788.3165
1806.7874 781.1504
1801.9159 788.39526
1792.1321 787.91736
1797.3025 781.03906
1784.457 771.2937
1786.657 780.23804
1782.8168 788.519
1777.446 783.2763
1771.6873 788.7292
1762.3318 787.4092
1753.9519 788.06726
1754.5364 780.21606
1761.5242 777.62537
1768.9653 780.89935
1769.5815 772.307
1777.3859 775.7121
1776.9233 766.688
1774.156 759.2047
1771.8557 751.4533
1763.7283 748.24146
1755.3146 745.6879
1756.0477 753.64813
1764.4216 756.6377
1767.3851 764.0499
1761.5421 769.4572
1753.9253 769.9021
1748.4778 774.58496
1741.095 773.04193
1745.9792 765.9646
1737.3724 765.8444
1731.4695 760.5078
1728.8494 768.3773
1733.094 773.96497
1738.0408 780.1073
1745.7246 781.5708
1746.1306 788.5336
1738.3855 788.4535
1732.9342 784.2422
1729.3888 788.93524
1722.8794 788.1828
1716.2937 788.40015
1709.7605 788.5325
1720.3787 781.36804
1727.8599 780.0885
1723.4927 774.06146
1715.2396 775.3805
1712.4044 781.71436
1706.8566 775.5087
1705.034 782.52795
1703.2117 788.9967
1697.0608 787.9187
1690.8552 788.51605
1683.8174 788.7905
1677.2217 788.14026
1670.7407 788.71533
1666.9551 783.4158
1665.3737 777.1117
1660.1946 772.19476
1648.4644 770.1564
1652.9448 775.5688
1659.1183 781.2584
1662.765 788.7058
1655.2118 788.81195
1651.7539 782.9636
1646.4375 788.61884
1644.8508 780.6621
1641.416 767.22
1640.6448 775.5333
1638.4985 787.438
1630.3733 788.145
1633.3218 780.2282
1624.865 780.9154
1624.7013 773.24945
1633.2004 771.9462
1627.5109 765.0089
1634.7588 763.8903
1631.2401 756.2479
1624.1185 752.5258
1619.4543 746.1045
1625.737 739.0541
1629.4071 746.77527
1637.3458 749.0934
1645.5608 751.7162
1639.8843 757.79895
1647.615 761.17255
1654.511 757.3835
1656.0492 765.60516
1662.75 758.8576
1665.8683 766.1769
1670.4437 772.27966
1683.7412 767.4345
1675.8381 765.97534
1671.7297 759.818
1668.2501 751.88586
1676.0293 752.8
1681.7642 759.0089
1685.4492 750.99164
1691.1757 756.0383
1689.9039 763.194
1691.3752 772.1959
1685.1255 775.29224
1677.9314 773.5801
1673.1902 780.2524
1679.9968 781.2517
1686.4897 782.6081
1692.3801 780.0649
1698.802 780.5818
1699.2568 773.8192
1696.2262 766.8639
1699.4153 760.0319
1708.2612 760.56616
1705.645 753.4171
1698.3369 752.0431
1692.9675 746.682
1686.3054 741.7838
1679.5857 746.01196
1672.656 742.9319
1678.8701 736.8593
1673.5647 731.11584
1666.5872 735.78455
1658.9531 731.57825
1651.2678 727.14813
1644.6841 722.92773
1636.5634 725.8651
1641.6284 732.5893
1650.269 735.4699
1657.9622 740.6238
1665.2665 744.01294
1660.3206 750.23676
1653.219 749.7751
1649.9156 743.53577
1642.5127 741.82837
1634.7482 739.3507
1630.2444 731.4155
1623.387 724.4352
1619.9211 731.81494
1617.0247 738.4545
1610.5015 741.7223
1602.834 731.7597
1597.8633 726.5903
1595.5543 735.2677
1590.1041 729.51776
1593.7341 720.79016
1584.998 716.7678
1580.3524 710.6862
1589.0479 706.3859
1580.2731 702.8082
1571.4951 712.4411
1576.7222 718.6681
1569.6641 723.06537
1579.4402 725.9005
1573.9717 732.4299
1567.0271 730.51
1560.1827 732.59906
1558.2979 741.8718
1555.2871 749.90765
1562.0702 750.9372
1568.6884 748.65106
1567.0698 740.0054
1577.7964 741.10297
1584.8538 745.41846
1585.677 736.54584
1591.5664 741.13293
1591.3994 749.66296
1597.4281 756.92725
1606.4476 756.93353
1602.1438 747.21606
1610.5247 749.59326
1615.8075 754.18054
1613.2686 761.7453
1621.8937 759.48413
1619.6704 766.6051
1615.3003 771.85376
1616.7141 779.6879
1621.8915 788.10547
1614.091 788.0407
1605.9269 788.4714
1608.686 781.57513
1608.0297 774.1937
1607.5938 766.5834
1600.8967 763.56116
1598.5425 770.194
1600.3378 776.5973
1597.9209 782.9101
1593.7188 789.029
1589.653 783.1374
1591.3784 775.64154
1590.2794 766.84827
1583.8625 755.21716
1578.6041 749.5805
1574.8024 756.3799
1579.5408 763.2673
1570.6929 763.2341
1561.5504 760.9507
1554.4465 757.9294
1553.5428 766.9323
1560.8987 778.4595
1553.6904 787.47974
1562.4291 787.2722
1572.8834 788.3838
1583.8341 788.51135
1581.6887 778.86273
1575.6584 771.13983
1569.52 779.1295
1566.1191 770.7472
1552.0792 776.55414
1517.1514 780.1791
1516.3121 788.2344
1507.9526 789.16223
1503.4938 783.7588
1510.5769 782.37177
1510.4208 774.8037
1517.4639 772.1387
1517.5638 764.9879
1518.0973 757.83496
1519.7045 750.8533
1517.934 743.75903
1517.9015 736.2026
1507.9443 742.6089
1511.9004 750.47815
1504.1199 751.4419
1497.1002 755.1894
1490.0887 754.1049
1483.0065 750.7568
1475.2646 750.027
1474.6115 758.03516
1466.9656 761.7977
1467.8674 768.97876
1475.5662 765.8026
1482.53 758.1987
1483.804 765.4033
1480.128 772.31415
1481.6459 779.6177
1488.76 780.2594
1495.5355 773.22876
1488.4026 771.7331
1490.7001 762.30896
1496.8667 765.2087
1503.2928 760.7268
1510.3926 758.71576
1510.1138 766.9057
1503.1655 769.51245
1503.0486 776.8398
1496.1135 781.27905
1498.4932 788.8187
1489.9781 788.22723
1480.9927 788.1985
1474.5406 782.59
1472.4025 775.10803
1462.192 774.11487
1465.5494 781.44275
1470.3492 788.7382
1459.917 788.3418
1449.4968 787.3681
1455.7083 780.77136
1447.0051 774.6899
1454.0642 772.22034
1459.1014 765.43286
1450.2412 764.92035
1450.9319 755.86
1458.9813 757.32153
1458.7422 748.6384
1466.8524 754.03467
1467.6067 746.67896
1463.0619 740.65454
1450.5264 747.45703
1453.1458 739.7775
1451.2166 731.89954
1460.436 733.022
1458.4652 724.7924
1451.32 722.35657
1449.5596 713.913
1457.8132 714.4009
1465.489 717.7615
1467.0168 726.46216
1470.0872 734.39966
1473.8358 741.1344
1481.9078 743.1432
1481.4658 735.22156
1476.3799 728.1399
1473.8403 720.2324
1474.4717 711.7731
1480.3406 705.7687
1480.4902 696.30457
1487.0115 689.66003
1494.5679 694.27234
1504.3821 696.4421
1499.2137 703.8595
1489.1575 701.6677
1488.1777 711.12634
1482.5386 718.2063
1485.1432 727.01556
1492.9993 729.9785
1490.6577 737.83093
1490.1293 746.02826
1498.2019 745.1108
1500.4136 736.1713
1509.3231 733.79944
1518.4211 727.22974
1517.4678 717.7165
1510.1744 724.97797
1500.9943 726.334
1492.9377 720.29675
1497.7935 712.39575
1505.3613 717.9189
1508.7783 709.782
1512.3422 701.9083
1513.0802 692.6318
1517.1775 684.8103
1522.1484 678.92847
1508.9285 683.7615
1501.1178 687.7593
1493.086 682.6755
1484.599 679.8294
1477.7313 674.76044
1479.0231 665.9822
1486.7231 670.8677
1494.6642 673.4821
1501.5057 678.23334
1508.8293 674.5476
1516.1536 674.6835
1519.7777 665.32227
1518.054 658.3231
1513.9246 652.6278
1505.0872 651.197
1498.3636 645.6012
1490.7856 642.95447
1483.0874 639.24506
1475.9178 646.7867
1483.2261 649.31445
1489.9998 652.14557
1496.4653 655.03705
1501.9534 660.1074
1509.401 659.4645
1512.1958 666.64014
1503.0144 668.30457
1494.3446 664.53
1486.7863 660.68616
1478.5017 656.77203
1470.8627 661.817
1470.0511 670.72296
1462.9004 675.1339
1456.3562 679.2532
1456.5027 688.7912
1463.2205 696.3115
1464.3787 685.497
1471.3098 680.67285
1478.3368 686.3532
1471.4473 691.8827
1471.4758 701.4928
1465.9039 708.47363
1458.2468 704.7134
1448.9937 703.9271
1453.1836 696.69934
1447.0271 691.2651
1448.8447 682.4413
1448.7291 673.2361
1455.0967 668.6465
1462.5437 665.2187
1463.2426 656.085
1470.1837 652.46594
1466.5637 643.84125
1459.11 648.2939
1455.1229 658.77405
1447.0317 664.6806
1450.5471 651.6415
1451.5854 641.9131
1459.0996 637.8776
1452.6794 632.12
1459.7056 628.58276
1458.2909 620.79114
1462.9767 615.5282
1464.7388 608.81396
1472.5629 610.03296
1470.8677 602.32245
1477.9764 599.5476
1480.6246 607.0366
1479.8079 615.6138
1477.897 623.8452
1470.9423 618.30237
1467.8997 625.5291
1467.034 634.125
1474.0946 639.1559
1476.2217 631.6091
1485.1895 629.6919
1492.1744 634.1859
1500.0182 635.7878
1506.4006 641.4929
1509.3866 633.3539
1511.721 623.97253
1520.3379 622.2787
1517.5826 631.2472
1525.0645 630.507
1526.2466 640.07715
1517.3007 639.3767
1512.6168 645.6916
1521.3301 647.8125
1525.1268 655.58777
1529.625 649.50665
1532.0842 633.4896
1538.0969 637.52905
1534.6166 643.7494
1537.998 651.15564
1533.6338 658.0322
1527.1636 662.67615
1531.4177 667.9078
1523.8536 670.9287
1529.335 676.1659
1527.144 684.7562
1523.7793 692.0338
1522.0503 700.0731
1520.1488 709.10425
1557.9963 714.062
1561.1421 703.35223
1563.1256 694.3083
1569.2717 689.83545
1567.3901 681.69885
1574.2554 672.8408
1576.9045 680.73315
1597.3241 678.08856
1603.5941 667.59106
1607.761 677.83856
1601.0042 687.9807
1591.713 687.6941
1585.9692 695.8174
1595.1694 697.84863
1599.667 710.8186
1600.5454 717.89636
1605.8877 721.55536
1609.5354 712.4015
1606.186 705.2548
1616.1118 703.198
1609.4517 697.7368
1616.5051 692.133
1624.5646 689.1509
1621.2723 681.25586
1631.3301 681.2249
1634.0515 689.7416
1643.0369 691.824
1650.4299 686.09937
1641.9268 682.3507
1638.6589 674.52795
1637.2987 665.095
1629.5328 672.392
1613.8988 666.7386
1611.4048 655.71277
1622.6526 657.2895
1621.4272 646.54346
1631.0829 644.9259
1632.6145 633.56195
1615.2039 618.7013
1608.6328 619.79535
1603.7253 615.683
1601.0645 623.8192
1607.7928 627.17267
1601.3965 634.74994
1595.5131 629.2063
1591.2998 637.6466
1596.1263 644.26746
1586.1631 646.9618
1591.3 654.9628
1582.284 657.40076
1581.7466 666.7772
1567.3154 666.61456
1569.7334 656.9156
1571.7672 647.5466
1575.6038 639.1061
1576.5581 630.2893
1584.4926 629.0331
1581.1469 621.15094
1590.2366 616.45764
1595.1008 607.25305
1608.3885 608.40955
1612.7256 613.1035
1616.16 606.8037
1620.3538 611.27
1623.5505 604.7124
1625.19 598.0276
1629.9761 600.79236
1630.2017 594.0
1635.9088 595.7448
1635.501 589.90857
1636.4751 583.94366
1634.2562 578.5476
1631.3984 584.6786
1627.9359 588.67706
1623.0828 592.4043
1619.0376 598.153
1613.905 601.85175
1609.4022 585.40063
1606.8071 579.09515
1601.0013 589.5973
1606.5056 592.7711
1600.6093 599.07764
1593.1748 597.9267
1586.2195 604.42163
1582.9131 612.5006
1550.8635 589.5832
1553.7681 581.80273
1557.0216 575.0163
1552.2424 569.67346
1550.3042 562.87164
1545.2896 557.5591
1538.0958 557.629
1535.7678 565.40656
1528.6582 569.0397
1522.5037 572.94055
1520.919 581.4994
1529.6077 579.198
1538.5083 581.13306
1536.858 573.5251
1543.3164 566.98175
1546.3743 575.2081
1546.1455 583.06757
1548.4769 597.0066
1546.2228 604.76306
1539.0051 608.49585
1544.7112 613.6545
1535.6798 616.72424
1541.6526 621.69684
1539.4264 629.11316
1531.4312 624.39886
1526.76 617.2043
1530.4465 610.1443
1533.7616 602.82544
1530.2817 596.01074
1539.7576 597.62225
1542.0771 590.00995
1534.1519 588.1614
1526.1172 588.4475
1517.8752 589.20514
1521.1409 597.27136
1524.324 604.70654
1511.7761 594.60645
1504.6089 599.6689
1513.9635 604.2007
1519.886 612.22107
1512.2245 614.3997
1504.8876 608.73334
1496.3651 605.9266
1496.2993 615.7781
1504.2761 618.18066
1502.7705 626.95605
1494.5729 625.178
1487.1392 620.6089
1488.4445 611.5023
1488.2402 601.9741
1484.4666 594.4045
1496.0322 596.13055
1490.386 589.454
1496.0359 584.2122
1501.9557 580.00366
1503.3534 589.8518
1510.7388 584.04065
1514.95 576.0165
1506.5708 574.81195
1511.6086 569.30743
1517.688 565.5137
1522.5664 561.05865
1529.7329 560.1623
1531.1404 552.84705
1538.2115 548.6787
1546.4822 549.4449
1553.1998 544.29364
1544.0066 541.3795
1550.622 535.83484
1561.0505 541.8304
1567.7744 536.4192
1560.2065 533.46326
1554.2156 528.47125
1560.5344 524.1886
1564.2385 517.5233
1567.6855 527.3627
1574.0801 530.9839
1579.9902 534.9258
1575.1602 540.0199
1569.9458 544.6983
1567.669 551.094
1560.0535 550.4035
1552.9949 553.9481
1557.291 560.1986
1564.4519 558.65924
1560.4867 567.0531
1586.4658 575.7146
1590.6508 569.45123
1592.4958 563.2362
1596.2289 557.50977
1597.1133 550.43713
1603.9568 555.0947
1601.0237 564.1189
1609.2803 571.1134
1615.8604 579.0801
1616.7288 572.02905
1623.9946 571.3423
1631.4705 566.2713
1624.499 561.44904
1616.3508 564.44055
1617.984 554.743
1627.3041 552.4203
1634.03 557.32715
1641.6509 550.28076
1635.7526 544.63513
1626.172 543.6006
1618.9624 540.53326
1615.7671 532.4539
1623.4081 526.7749
1616.9475 523.85803
1612.13 519.571
1609.1697 528.34424
1604.2166 523.1738
1606.9205 515.9658
1584.6068 508.81018
1583.821 516.0659
1584.0275 522.876
1581.9175 528.77936
1576.735 522.4813
1570.7542 519.4901
1576.6265 512.97296
1569.1389 510.99622
1571.5299 503.4637
1578.5725 504.40558
1584.7784 500.64398
1576.4624 496.312
1583.459 493.74054
1580.0605 486.7492
1586.3103 485.92316
1586.1792 476.21884
1611.5194 473.1281
1616.5447 478.68524
1606.6038 467.5484
1602.7363 460.96826
1599.0145 453.26392
1606.1318 452.8403
1615.543 449.77563
1624.2432 447.36914
1620.5073 456.87045
1611.5713 458.38666
1615.885 465.21423
1621.5437 471.6157
1625.4877 464.46216
1629.1962 455.58005
1634.4481 448.75568
1639.9133 441.30597
1637.0895 433.1059
1646.5835 433.31506
1643.4377 425.0362
1644.6748 415.88177
1635.5165 423.28
1629.3722 429.08252
1621.4542 424.96295
1615.5022 431.63202
1623.751 435.66855
1630.4377 440.5777
1616.4412 440.77985
1606.5421 438.63364
1608.0475 445.83273
1598.1973 445.00974
1597.0745 436.36865
1596.478 427.02057
1606.3345 430.27393
1602.632 420.70273
1605.6892 411.95163
1611.8224 421.90854
1618.0048 415.66077
1627.1819 418.10266
1635.3457 414.82797
1638.5933 407.5478
1649.9808 407.79175
1651.7833 399.7904
1653.7838 392.65656
1643.9865 392.90552
1643.2439 401.07538
1633.9749 398.81622
1627.8204 408.16183
1622.5574 400.1765
1616.6417 408.0114
1611.0198 401.46783
1600.4304 403.63058
1590.6199 406.23993
1592.9404 416.3662
1581.6222 411.11206
1573.2141 405.07382
1564.2783 396.36163
1557.8108 388.5124
1558.2236 380.3695
1548.5073 377.19476
1553.2969 368.33136
1555.4031 358.0711
1541.7777 365.31064
1544.8545 356.4393
1534.4291 350.36346
1529.1614 334.91232
1520.0773 325.3736
1534.4558 318.33344
1541.2477 301.1482
1549.7468 283.89365
1562.6531 276.7268
1572.1511 272.15167
1576.868 279.34955
1584.6646 273.76385
1595.8137 270.53293
1604.5297 267.16348
1594.6876 278.01996
1598.3208 285.56927
1607.898 287.8136
1613.9178 280.66318
1604.8108 277.34018
1613.4084 270.30984
1622.428 268.59247
1622.698 276.91852
1627.0535 311.5152
1619.2466 316.57654
1612.488 309.60446
1607.2502 318.9016
1596.1927 321.36456
1600.8005 312.99228
1600.4187 294.24344
1591.3508 292.86197
1587.7457 282.7669
1582.3467 288.54523
1573.1107 286.54584
1565.1207 285.1969
1576.4207 315.18137
1586.8052 314.12997
1586.1307 323.12885
1577.7686 328.56967
1573.5063 322.20447
1563.8455 323.8529
1550.8262 321.06573
1544.4087 331.71967
1548.7366 344.59128
1556.1458 332.92746
1568.5714 332.51886
1581.9236 346.38977
1589.5813 352.95642
1593.373 345.20673
1600.7589 350.08347
1597.293 357.80124
1589.0491 366.54126
1567.6326 366.66882
1578.4517 368.14865
1598.667 367.38776
1608.8352 366.79053
1607.8063 356.0393
1611.9113 348.28052
1605.877 343.33508
1618.1277 342.57065
1618.091 354.17392
1625.279 360.1682
1635.62 355.08716
1636.1425 315.34705
1646.3834 315.02405
1656.4457 314.6652
1658.5741 303.04077
1666.6897 314.4551
1677.4426 328.6672
1677.5645 315.06796
1676.9233 299.65903
1670.9619 285.84866
1658.1304 271.54224
1630.8741 270.1313
1629.5175 244.60663
1642.4188 208.53775
1633.5474 205.68161
1634.8076 195.02222
1633.7797 184.88841
1625.22 189.15985
1622.501 197.09007
1612.6399 193.62094
1617.7617 181.84702
1608.9446 172.1326
1606.7747 181.98283
1573.6896 178.39392
1564.8147 175.84978
1556.3408 176.17282
1546.1305 176.83493
1552.0083 182.85997
1555.9706 191.13339
1560.3898 184.72778
1567.2988 183.1969
1573.4956 187.7005
1565.8093 192.46458
1574.0751 196.73935
1573.4484 206.54208
1566.6055 202.0247
1559.016 198.03937
1558.307 205.6892
1564.9215 212.18301
1557.4423 218.65836
1550.1653 206.75883
1550.0016 198.22949
1548.0134 189.73508
1541.7438 184.89655
1536.001 180.03813
1532.9126 189.3688
1526.6038 183.89099
1518.8994 187.61472
1524.229 194.72258
1532.9176 198.55585
1540.7864 193.78268
1541.6969 202.02945
1542.3157 210.1776
1548.8428 216.31143
1547.4447 222.98112
1539.3125 227.0515
1536.833 216.77414
1533.9924 208.00778
1526.1731 205.05289
1518.203 202.26025
1512.8667 195.49423
1509.6013 205.82109
1509.7043 215.40381
1517.7649 221.74185
1518.4731 211.67502
1527.0037 215.44775
1529.9104 227.30408
1510.3042 227.61578
1484.7649 235.96225
1491.1196 195.43027
1490.5137 178.07117
1494.6617 162.95323
1496.6475 143.51219
1500.8219 133.16585
1499.654 122.38753
1500.271 109.23198
1505.1072 96.12894
1510.0315 85.262
1520.1135 73.716125
1531.1349 65.648834
1556.7588 57.621014
1569.5002 52.817017
1574.7859 37.148273
1576.6948 28.35549
1584.7251 23.939558
1590.7229 32.90019
1585.9031 42.13037
1590.242 55.3471
1601.6006 38.027
1596.0367 20.13467
1610.6326 16.242973
1624.368 28.731865
1615.1377 40.583878
1638.4226 42.910427
1636.9061 20.284977
1659.8662 24.447392
1673.3877 31.744858
1706.2045 38.66116
1724.5524 45.704403
1737.3053 61.88653
1748.5835 71.29869
1750.9512 85.07526
1758.4888 92.291214
1766.3806 101.99774
1756.0046 104.99004
1743.6484 95.62477
1737.6548 82.16387
1713.7622 75.630135
1641.5464 51.63185
1630.1234 55.893417
1620.2985 169.49179
1627.9558 176.76154
1634.3564 168.62883
1640.2098 177.18231
1650.6249 178.42418
1646.5405 168.57483
1658.0928 168.62466
1668.07 172.02747
1660.2759 178.17503
1665.1667 185.43237
1674.0316 182.47318
1677.3572 173.67502
1684.9008 178.75012
1682.7178 187.51883
1679.0676 195.03526
1671.4792 193.22263
1663.258 195.84134
1654.6023 198.07841
1654.8708 188.28378
1644.1118 187.29753
1644.9817 196.86734
1653.0204 210.27786
1663.5188 210.28923
1675.218 208.0517
1687.6713 197.27701
1694.5741 201.50139
1702.8849 198.46098
1692.0518 185.80353
1731.3481 156.56119
1743.0227 166.22955
1750.1765 158.40878
1745.7773 130.23416
1746.741 111.243866
1757.4531 119.46567
1771.1392 118.18805
1765.8153 135.52611
1775.5784 134.71536
1773.8754 150.96695
1760.5648 157.52248
1758.3126 167.24951
1751.5515 174.23528
1747.5626 183.59964
1758.7847 182.68102
1770.0222 172.15054
1774.8965 180.83447
1767.0222 186.0999
1758.2745 191.95572
1751.4257 199.08862
1779.0415 204.32957
1785.0652 196.92273
1794.6414 191.61546
1802.5405 197.93158
1805.4952 210.36047
1777.7134 224.87616
1769.1489 214.81902
1769.1436 223.32945
1770.3237 231.40442
1777.1442 232.78415
1771.1776 241.12607
1778.5542 240.02954
1787.3662 268.29492
1757.7222 268.03833
1757.5203 283.65753
1770.1104 292.30176
1756.3269 294.42072
1740.3281 332.15625
1738.086 340.94144
1731.9121 335.10547
1727.6259 342.57355
1723.4155 334.13568
1717.7493 340.92487
1714.7141 331.98846
1706.5592 332.59418
1700.3501 327.23907
1692.8657 329.9899
1688.7654 336.85638
1681.2551 340.59085
1672.8622 340.00735
1678.0566 348.8768
1686.2452 348.46674
1682.9592 356.91895
1687.5459 364.01508
1693.9185 369.16855
1695.7146 360.93893
1693.0452 353.6327
1693.141 344.14496
1699.0659 337.22382
1701.3135 346.436
1708.7617 340.76926
1710.354 349.35776
1719.6155 348.6252
1727.1338 350.99274
1734.8398 348.8684
1731.7825 357.48218
1727.3502 364.45135
1724.6201 371.25607
1719.3801 375.02106
1712.9667 378.17224
1706.6544 376.59872
1711.022 369.50647
1718.0315 365.3851
1722.8931 358.05505
1715.6681 355.90417
1710.0743 360.32294
1702.7646 354.78418
1703.3206 363.68027
1701.792 370.62863
1699.5422 377.9173
1692.46 376.9858
1685.5042 374.1031
1687.3336 383.48935
1679.4907 383.12424
1681.5327 391.19434
1688.0186 397.15927
1691.5127 390.58798
1696.0527 384.63184
1700.7256 391.23056
1704.3016 384.47592
1711.1355 385.4178
1715.5197 390.85876
1722.3862 391.82758
1718.9309 382.9093
1729.6323 384.17023
1737.6652 375.9381
1761.2476 392.1489
1765.9615 382.67316
1774.488 379.06702
1770.8235 371.17432
1774.367 359.54004
1779.7712 364.39252
1779.3928 371.36383
1785.6366 375.59375
1782.3256 382.91064
1790.3894 386.0423
1792.2295 394.22653
1800.0931 389.96518
1799.89 399.49628
1801.3579 406.5396
1798.0573 413.6656
1797.3309 421.19928
1805.0247 419.98737
1805.6093 412.848
1812.9387 415.92053
1811.0714 408.48474
1808.4915 401.35178
1816.7389 404.89954
1820.4846 411.00403
1820.8212 418.64178
1827.3208 416.22412
1840.2382 410.2135
1847.974 410.74155
1846.0945 417.74664
1852.5942 416.55356
1852.1682 423.74384
1848.0759 427.18237
1851.3755 433.6583
1843.0618 431.57578
1838.7244 436.94507
1836.8251 444.00156
1845.6023 439.16345
1852.3923 442.878
1845.7084 446.9829
1851.6941 453.0146
1850.717 461.764
1850.3224 470.33673
1850.1351 477.99585
1852.0125 484.37042
1849.9637 492.00192
1842.0284 494.92682
1841.5505 484.88196
1842.0986 475.40295
1832.7585 477.55957
1834.9503 470.2757
1842.4563 465.24008
1844.4001 456.54135
1839.1849 450.43372
1836.1493 456.79993
1833.6873 462.71686
1826.8748 466.11157
1824.1377 473.19214
1818.5093 464.69592
1809.7937 466.40097
1810.8857 458.44785
1818.1522 455.4942
1825.8198 457.67978
1830.176 451.09055
1828.3094 444.37656
1831.6755 437.5487
1827.3522 431.4021
1834.529 429.7749
1839.7184 425.0323
1833.8834 420.91217
1827.6315 424.01486
1820.6709 426.47528
1814.8518 422.85825
1809.3162 425.9321
1802.499 427.94614
1807.0579 434.02637
1813.8461 432.23862
1820.2832 433.40167
1823.8889 439.107
1821.1107 448.08813
1816.3687 440.84253
1808.9004 441.84277
1811.9387 448.95532
1804.7659 453.32883
1800.6912 446.93085
1801.8656 439.66296
1797.6819 434.51498
1795.3496 428.0826
1793.3226 441.38416
1791.3151 448.5804
1796.1587 455.294
1801.6987 461.72812
1802.5872 470.05298
1804.0792 478.12164
1794.9292 473.17685
1792.5747 464.41196
1787.3104 456.80646
1782.9678 449.0832
1777.7357 455.81503
1768.8601 457.09467
1773.2817 464.7274
1782.1676 464.03912
1785.3293 471.80518
1775.7174 473.5631
1773.8364 483.0301
1782.1685 480.78845
1790.3228 480.09067
1797.8833 484.14044
1812.2427 480.97974
1814.2072 473.2585
1822.0726 480.885
1815.658 488.45428
1824.1587 489.27765
1831.5543 484.61008
1834.2112 492.0399
1826.383 496.7104
1823.5421 504.03915
1829.5032 508.85287
1837.1656 510.1546
1834.15 501.20468
1842.9836 503.7059
1850.5037 499.99374
1851.5786 507.92795
1845.0619 512.4854
1830.805 517.2534
1839.4744 518.6003
1846.571 521.5227
1851.98 517.3866
1851.5618 527.77374
1849.7765 535.50415
1852.4216 543.71704
1844.6489 543.46204
1836.7272 545.3843
1829.678 541.3123
1839.6768 536.7092
1842.9137 528.85486
1834.9688 524.97656
1832.9375 532.3378
1825.3394 533.35626
1817.8038 529.9978
1825.6647 524.22
1817.012 521.2076
1822.3972 513.90796
1813.7504 513.2847
1815.6667 505.12933
1807.4883 507.31464
1799.7976 503.31015
1807.413 497.80807
1816.4636 496.63498
1806.5415 488.35983
1798.9478 493.22833
1792.724 498.52618
1789.6094 489.43872
1780.988 489.73755
1772.1736 491.67273
1770.5714 500.47485
1778.1061 498.06604
1785.3652 499.14667
1792.11 507.87912
1800.6902 512.8069
1807.1692 518.334
1809.4801 526.7533
1810.9572 536.10815
1802.1505 541.6848
1797.5938 549.14343
1791.5343 543.85254
1785.5359 537.9509
1785.269 528.92004
1777.7495 532.8203
1771.7417 527.44946
1778.5371 523.0847
1785.6648 518.0797
1792.0874 525.329
1794.2456 534.4963
1802.7115 532.8003
1800.2295 524.0998
1793.7686 516.7162
1784.3042 508.6548
1776.6027 506.2142
1777.4985 514.45685
1770.2809 518.14246
1764.4808 523.8165
1761.6348 517.304
1759.3353 510.37375
1768.7539 510.02203
1763.5088 503.73923
1763.7201 495.33826
1764.6497 487.15448
1766.3373 479.14594
1766.588 470.82953
1762.57 463.75897
1760.1901 455.46826
1753.1718 458.9388
1754.2549 467.7347
1758.7705 475.0073
1756.3586 483.7656
1755.9263 492.36078
1748.0507 491.01523
1746.4698 483.20404
1750.458 476.6583
1745.0891 471.46555
1745.0962 463.6765
1744.8125 456.39816
1749.0457 449.53357
1756.2288 447.84286
1764.3822 448.13818
1771.8947 448.8891
1776.8855 443.50793
1784.4974 440.38934
1789.7249 433.9791
1782.6753 431.03256
1776.1534 435.04364
1769.0894 439.2591
1761.4634 440.2771
1759.2454 432.6026
1767.8143 430.25714
1775.311 426.05713
1782.1493 422.23712
1789.0293 425.4421
1790.3188 417.7822
1791.0471 410.00302
1792.9214 403.10016
1785.4559 399.67828
1782.8179 406.8016
1783.2817 414.35455
1775.6373 416.03574
1768.5104 420.70956
1760.867 423.9179
1759.4631 415.17993
1767.5967 411.98407
1774.4025 406.94833
1776.5562 398.37756
1783.285 391.7459
1775.1354 388.1168
1769.1042 392.83698
1766.9641 401.26572
1760.7585 406.84796
1756.4368 399.94916
1751.8837 408.80698
1746.327 416.03745
1752.727 419.8316
1752.265 427.83127
1747.1506 433.65503
1752.9387 439.71994
1744.0099 441.83057
1739.771 450.52045
1735.68 458.01514
1729.3728 463.87732
1737.0437 467.57214
1738.3716 476.79602
1738.1545 485.44885
1739.9319 493.23627
1737.7499 500.54852
1734.7162 509.0705
1743.1599 507.61774
1747.478 499.6687
1756.0099 500.90988
1751.8306 508.2793
1747.5062 515.28
1753.9313 518.78015
1746.8589 524.9054
1756.5487 526.8663
1750.9034 532.8512
1742.9161 534.5825
1738.3926 525.75244
1740.2094 516.95935
1731.9963 517.7514
1729.3701 525.2168
1722.3884 528.4685
1724.6638 536.15204
1724.3737 544.6709
1716.2391 541.9589
1715.7029 534.2291
1708.3158 531.8617
1701.5045 528.02814
1707.074 522.9455
1704.3268 514.14795
1699.7421 519.79407
1691.7761 518.2239
1695.6527 512.5586
1697.3331 506.00385
1704.4774 505.54282
1710.8203 508.7741
1718.1077 511.3016
1712.6279 517.2766
1714.8247 525.45355
1721.9386 519.39453
1726.5385 511.29608
1729.4736 501.29257
1721.8431 504.04416
1714.5948 501.2177
1708.0536 497.6804
1701.0212 497.9992
1706.1814 489.15268
1712.0911 481.80988
1721.7737 477.42053
1721.6699 486.29803
1714.407 491.3805
1722.3214 495.29
1730.6843 491.70676
1730.0062 482.03012
1729.1294 472.6314
1715.1553 473.26263
1720.7273 466.14038
1724.9579 456.98303
1729.4479 449.53244
1735.7378 444.68195
1733.9133 438.66565
1739.0127 432.27927
1742.9768 424.529
1714.7651 398.27377
1708.8813 404.25488
1708.675 392.77158
1704.7848 398.16635
1696.1758 397.74603
1692.4048 405.6544
1700.8695 404.18967
1700.4958 410.79797
1693.976 415.29465
1687.6444 420.79285
1681.2345 426.8739
1674.479 431.51202
1669.6489 422.9724
1671.0778 413.3813
1678.4489 418.68393
1686.2355 411.86618
1683.0403 402.44244
1678.2151 408.6582
1669.8748 403.38293
1675.231 396.90512
1671.1672 387.0099
1664.7811 394.14062
1659.8026 402.48425
1662.922 410.08588
1654.0505 414.72327
1661.5981 418.3415
1660.0028 426.33704
1651.962 424.4094
1655.7555 434.92786
1664.803 432.29968
1668.9061 438.54486
1661.2615 443.04172
1655.2231 449.29297
1649.9325 441.78278
1644.7589 448.78412
1648.6133 456.25412
1639.4875 455.97388
1641.8479 464.4419
1633.7156 462.61505
1633.416 470.75397
1627.7102 476.4321
1622.9099 482.83115
1617.2158 503.38855
1625.321 511.95905
1632.0406 523.5162
1637.8708 529.17975
1625.1616 534.0075
1633.0167 536.0055
1643.4456 536.6209
1648.2673 543.03723
1679.63 552.5917
1681.1511 545.1566
1683.8506 537.9798
1686.5588 531.2513
1688.7344 524.75757
1694.9702 524.70746
1694.3735 531.22504
1691.9927 537.26776
1689.5111 543.9595
1688.8354 550.78406
1695.433 554.41144
1697.7822 561.8055
1687.1661 559.1857
1682.2567 566.3225
1676.2277 559.6411
1672.5974 567.79175
1677.8773 574.5957
1677.7981 583.01733
1669.1202 577.2558
1664.4812 586.86194
1670.667 586.1836
1675.9832 591.45557
1677.9265 599.0022
1671.2507 604.72174
1669.092 596.6338
1662.0535 595.30475
1660.1445 603.2217
1657.2955 612.07196
1654.1783 619.625
1660.9624 622.83136
1666.9268 628.5079
1658.3959 631.8712
1651.8541 627.80554
1649.0999 636.1432
1655.2032 641.15173
1661.5105 646.0972
1664.0837 637.69836
1670.3354 644.58167
1674.466 651.2073
1663.2142 653.4707
1669.5552 657.88477
1677.2155 660.57715
1683.4146 654.89264
1685.4874 663.105
1679.1481 669.4992
1684.6675 676.30493
1689.6847 669.6319
1693.5919 677.1807
1689.7515 683.9486
1682.3649 685.67444
1677.1448 679.72644
1671.2861 674.1075
1670.1226 666.5154
1662.4153 663.407
1655.0712 658.83093
1652.9541 650.83673
1646.3093 645.1006
1643.2322 654.5455
1646.8331 661.896
1646.0657 670.5629
1651.7145 677.18823
1654.9149 668.2775
1662.2368 673.67755
1659.5735 682.485
1668.6897 682.0399
1665.8973 690.0558
1657.2971 691.69946
1650.5908 696.75775
1644.0962 701.6033
1639.0083 707.9281
1635.8921 698.87964
1627.3794 698.86835
1629.9182 707.85535
1625.5425 714.8801
1630.4504 720.615
1637.0344 716.31757
1645.3389 714.1613
1650.6362 707.5829
1657.2963 702.20844
1663.8247 698.5395
1671.7441 698.24817
1674.7872 689.63525
1683.4532 693.3491
1679.1135 699.2062
1679.0681 707.06683
1674.2137 713.6059
1668.5713 706.65405
1666.019 716.5746
1659.9922 710.37683
1653.2255 716.8248
1658.9105 722.08734
1666.3345 726.1403
1674.1725 722.31757
1682.1235 726.95746
1686.814 733.5886
1692.6301 728.32074
1689.9155 720.44006
1681.8712 717.63696
1687.3225 710.79065
1696.179 713.945
1704.8381 715.58606
1699.3871 722.8485
1707.8475 724.9026
1716.3855 724.77783
1713.6185 717.04266
1711.4991 709.24036
1713.519 701.67786
1716.4827 693.50916
1715.2102 685.86084
1706.22 689.20886
1706.7715 697.3646
1698.2568 696.95337
1703.4724 706.03485
1695.0822 705.3732
1687.9147 701.3522
1691.1993 692.5741
1697.8936 687.05023
1701.3312 679.27844
1708.6393 680.67596
1715.1493 675.8487
1717.8328 668.6618
1725.3939 671.1176
1730.0767 678.86816
1721.686 680.06494
1725.8069 687.34515
1726.0022 695.0002
1721.9773 701.7899
1720.6826 709.75354
1722.7476 717.96387
1726.8406 725.99756
1721.0326 730.7915
1714.5238 734.50696
1707.0281 733.01636
1700.0514 732.5776
1694.3636 738.16815
1701.3768 743.5858
1708.5815 740.4292
1717.0947 743.3878
1722.5583 748.8942
1709.9069 747.6345
1715.0841 753.41016
1715.8152 761.3395
1703.7501 767.397
1710.8901 768.59644
1718.3794 768.7331
1723.5022 763.9027
1723.0874 756.71265
1730.4045 752.9225
1740.1415 757.5124
1749.1018 759.0424
1757.1548 762.0873
1747.0326 751.05585
1736.9197 749.5986
1741.5659 744.39374
1747.8562 742.3208
1752.2582 737.2511
1755.5659 731.2771
1762.3201 731.4625
1761.4873 739.67206
1769.3977 734.5023
1770.1597 742.4723
1777.5369 745.28467
1780.9381 754.1105
1785.3115 747.68005
1791.664 752.37854
1799.7239 746.91675
1791.9238 742.8147
" />
</g></g></svg>
