<?xml version="1.0" encoding="UTF-8" standalone="no"?>
<!-- Created for Inkscape (http://www.inkscape.org/) -->

<svg
   xmlns:dc="http://purl.org/dc/elements/1.1/"
   xmlns:cc="http://creativecommons.org/ns#"
   xmlns:rdf="http://www.w3.org/1999/02/22-rdf-syntax-ns#"
   xmlns:svg="http://www.w3.org/2000/svg"
   xmlns="http://www.w3.org/2000/svg"
   xmlns:sodipodi="http://sodipodi.sourceforge.net/DTD/sodipodi-0.dtd"
   xmlns:inkscape="http://www.inkscape.org/namespaces/inkscape"
   width="3200"
   height="800"
   id="svg2985"
   version="1.1"
   inkscape:version="0.48.1 r9760">
  <defs
     id="defs2987" />
  <sodipodi:namedview
     id="base"
     pagecolor="#ffffff"
     bordercolor="#666666"
     borderopacity="1.0"
     inkscape:pageopacity="0.0"
     inkscape:pageshadow="2"
     inkscape:zoom="0.35"
     inkscape:cx="1600"
     inkscape:cy="400"
     inkscape:document-units="px"
     inkscape:current-layer="layer1"
     showgrid="false"  />
  <metadata
     id="metadata2990">
    <rdf:RDF>
      <cc:Work
         rdf:about="">
        <dc:format>image/svg+xml</dc:format>
        <dc:type
           rdf:resource="http://purl.org/dc/dcmitype/StillImage" />
        <dc:title />
      </cc:Work>
    </rdf:RDF>
  </metadata>
  <g
     inkscape:label="Layer 1"
     inkscape:groupmode="layer"
     id="layer1"> 
     <g>
<path style="fill:none;stroke:black;stroke-width:2px;stroke-linejoin:round;stroke-linecap:round;" d="M 
1365.6682 762.86664
1360.1304 767.22327
1359.047 758.8561
1352.9572 764.0383
1356.5684 773.9731
1357.4558 781.4929
1359.3634 788.4548
1351.2056 788.08856
1344.1763 784.12054
1338.7744 788.68695
1331.6715 787.7522
1324.8574 787.96375
1318.0349 788.9989
1319.8973 781.2163
1319.7207 774.2021
1320.5139 765.4865
1325.9164 759.81195
1318.9265 758.05536
1319.5735 751.47437
1321.9535 745.0115
1317.648 740.96893
1324.5762 738.12494
1319.048 733.6191
1324.5994 730.682
1330.1204 726.969
1331.8364 733.156
1331.0906 739.2434
1329.2914 745.574
1327.6967 752.6025
1333.194 757.07263
1338.7734 761.9223
1338.0393 769.4263
1331.6484 765.2402
1326.1978 771.3707
1327.7383 779.8823
1333.2333 774.4121
1336.5955 781.00555
1342.6826 775.5132
1349.7715 779.4513
1350.1099 771.29443
1344.8511 766.9381
1346.185 759.46985
1352.042 755.4839
1353.8376 749.07855
1352.1106 742.4752
1343.3978 742.91003
1345.8989 749.8322
1340.9069 754.79144
1336.3076 749.7597
1336.5477 743.35986
1339.488 735.9414
1338.042 727.5651
1335.0426 722.05945
1328.5891 720.3327
1323.6682 723.819
1317.987 725.7711
1318.6548 718.9081
1319.1196 712.2595
1331.5349 709.53046
1337.1355 715.1921
1341.926 720.4189
1345.4554 714.081
1339.9727 708.9841
1335.1449 703.77246
1324.8386 705.88306
1320.0292 698.7169
1328.346 700.6638
1343.9856 700.1332
1346.7458 706.72766
1354.0162 704.22504
1354.0063 711.2172
1361.8121 711.8315
1361.269 705.2825
1369.1019 704.3353
1370.1298 710.73096
1365.8644 718.8458
1372.802 719.12756
1377.4513 713.13184
1376.239 706.7089
1383.4785 705.94696
1385.2654 712.7544
1390.1716 717.1704
1397.4834 716.557
1391.8726 707.803
1399.8123 708.9033
1406.0785 714.1618
1412.3961 709.29004
1420.3323 712.22864
1416.7185 718.1655
1410.9174 721.2185
1404.4128 721.5119
1398.7582 725.4894
1392.2661 724.69946
1385.8882 724.59937
1380.6869 720.62305
1374.4629 725.80725
1380.0323 730.19275
1372.2484 733.5133
1374.0208 742.60156
1367.1033 738.3171
1361.8655 731.76263
1367.3779 726.84296
1360.6501 723.3845
1354.6249 726.5553
1356.4231 717.84766
1349.2205 720.4695
1347.5869 728.20355
1346.8842 735.91547
1353.7712 734.2436
1359.5591 738.6974
1360.3271 745.07886
1361.3679 752.0631
1368.0209 747.0231
1374.5537 752.23303
1367.7974 755.67053
1373.1421 761.4341
1369.7413 769.3998
1364.1267 775.0786
1366.4705 782.581
1368.0281 789.0217
1375.0172 786.95703
1382.5775 788.9612
1387.5818 784.9463
1387.9675 777.97217
1393.1957 772.199
1400.7163 768.32654
1400.5812 776.3324
1395.1511 781.44525
1393.3933 789.0204
1401.4033 788.0603
1406.2946 781.2877
1408.2683 772.98926
1406.2274 763.14294
1399.5737 758.8432
1393.2616 762.6188
1386.653 764.5487
1384.617 771.86426
1380.2744 780.5028
1372.1719 778.5668
1377.0192 773.18353
1379.0898 765.9293
1380.1603 757.7567
1386.9014 755.9426
1393.934 752.695
1400.5947 748.32324
1408.5051 746.2224
1407.0804 754.50134
1414.8969 751.4179
1416.5204 744.4314
1422.0398 753.25507
1413.5054 758.6195
1413.4197 766.3462
1416.9303 773.4699
1422.4814 779.9149
1414.0869 780.5409
1410.0718 788.4113
1418.1361 787.8026
1426.0153 787.8612
1434.3328 788.5188
1430.9379 781.6887
1428.8191 774.9707
1424.0576 769.79736
1420.5962 763.0802
1427.4265 760.7802
1431.8756 767.22
1436.2532 773.95844
1442.9694 769.94257
1438.9539 764.473
1434.7566 758.50696
1429.7798 752.7468
1423.7216 745.7234
1426.0209 738.5731
1432.8604 737.3843
1431.1775 745.47925
1439.9512 743.3218
1446.2854 739.81757
1451.8563 735.7775
1445.9432 731.1669
1451.1274 726.8695
1457.8335 730.4053
1462.6978 725.25586
1456.7605 722.7712
1444.6731 722.28094
1440.7211 727.51086
1438.8729 716.75604
1436.1808 722.41455
1429.633 723.1459
1435.0134 730.2172
1440.2966 735.5741
1428.3679 730.6801
1422.2169 731.13666
1418.7205 737.12415
1412.193 738.1627
1405.3961 738.7532
1398.3995 739.3652
1393.6704 744.3244
1387.3384 748.2257
1380.4736 747.6677
1380.0394 738.124
1387.0516 740.59143
1387.2135 732.90106
1394.6681 732.1433
1402.1158 731.46747
1410.377 729.6958
1416.0259 726.90594
1422.7751 723.6084
1425.0758 716.97754
1427.5251 709.35925
1431.9851 715.4426
1437.3252 710.0764
1444.6321 714.4192
1449.9133 711.0366
1450.955 718.5893
1458.4214 716.1752
1467.373 717.206
1470.2397 724.81
1475.1646 720.286
1481.7588 723.1442
1482.4048 730.42346
1475.2742 729.5707
1466.9381 731.6199
1462.106 736.80505
1452.6753 743.67847
1455.4307 750.4281
1446.3423 748.1898
1437.783 750.4424
1442.2837 756.43054
1446.7859 762.9237
1450.4635 769.5438
1457.5948 768.03735
1453.7571 760.1296
1449.1595 755.1633
1459.9373 757.0173
1464.5638 762.75183
1466.6738 769.1149
1471.6555 764.43054
1477.9706 763.4218
1477.8035 769.98553
1471.5029 772.8667
1462.8574 776.06836
1459.4963 781.4524
1453.2416 783.31805
1455.8867 775.3159
1449.8677 777.071
1443.1954 776.74243
1438.3811 781.973
1442.0676 788.8339
1446.1516 783.2445
1449.9941 789.11584
1457.5845 788.5941
1464.465 789.3898
1465.9291 783.2712
1471.3967 780.1493
1476.6749 777.3894
1481.8303 781.6239
1470.8647 788.0593
1477.4908 787.76135
1483.0933 788.5373
1488.8162 789.18787
1494.064 788.5531
1499.8195 789.37146
1497.9348 783.4767
1492.8828 781.67694
1487.5327 783.22217
1482.971 774.34314
1489.1405 776.5585
1496.1893 776.3281
1501.4675 778.77344
1503.6626 784.45264
1506.1855 789.525
1509.8381 785.0105
1512.7798 790.02826
1515.7529 786.40344
1520.8842 789.4294
1525.0688 784.31903
1528.1312 789.3857
1535.0277 789.02454
1541.5498 788.9335
1538.8159 782.43353
1545.7439 783.79175
1544.5089 776.84784
1544.5768 768.74066
1549.814 773.3485
1550.586 779.64197
1552.5673 785.6081
1549.0774 789.5905
1557.7122 789.18994
1562.3944 783.5657
1565.1094 789.09076
1572.0015 788.77386
1568.7163 782.7714
1571.7783 777.1532
1569.0878 771.23
1563.7561 769.4945
1563.889 776.86755
1557.171 781.6518
1556.1929 775.9386
1558.7712 771.15063
1564.9475 763.4973
1561.3672 757.28485
1555.1638 758.4105
1558.3362 764.14294
1553.2136 768.3262
1550.239 762.5614
1544.4009 760.0461
1539.7721 764.4613
1535.2588 769.142
1539.3303 774.833
1534.181 777.53973
1531.7673 783.7666
1528.0232 778.34296
1522.1771 778.63934
1519.1064 782.68994
1513.6644 780.06586
1517.0416 774.93713
1522.8938 773.0991
1529.4858 771.9526
1523.938 767.4367
1528.2338 764.3699
1533.7107 761.3396
1537.9629 756.5546
1536.5275 749.41815
1530.6362 753.0669
1527.0083 758.331
1515.1558 755.50757
1522.1782 751.4977
1521.7631 743.6501
1529.241 745.6704
1529.0883 737.53314
1521.4159 735.7262
1513.7673 740.67523
1514.399 748.2568
1506.7943 750.89496
1508.1052 757.9944
1501.3268 756.4231
1498.6881 750.2792
1506.3676 743.7014
1499.7 743.3837
1495.3701 738.06274
1488.9819 733.9289
1487.7439 741.2592
1492.4712 746.6913
1483.8552 746.97723
1487.9683 752.7714
1493.7522 755.77094
1496.8109 762.1771
1503.4619 762.85657
1507.3483 767.852
1512.5143 763.3994
1520.3196 760.55334
1518.1707 767.6124
1513.0668 770.0327
1510.1094 774.66614
1507.3184 779.6151
1503.89 773.64844
1500.2838 768.9863
1493.9077 769.54626
1488.1855 770.0893
1483.8862 766.0104
1490.2068 762.55676
1484.4036 758.65765
1479.4911 752.69495
1474.4263 757.0531
1467.5675 756.1327
1471.3499 748.5314
1463.6917 750.01526
1460.5547 744.1306
1467.5459 741.70056
1472.8513 737.3252
1476.9542 743.7653
1481.2227 737.5919
1488.8191 726.11346
1492.8209 720.5937
1496.4722 712.41614
1503.3978 720.7492
1503.0322 728.09247
1496.1104 729.3076
1504.1556 735.71606
1512.6422 733.303
1510.9119 726.05005
1517.936 719.8109
1519.3833 727.9755
1527.6895 729.0769
1535.8225 731.5377
1543.6476 727.2748
1552.8079 728.0036
1556.0626 719.0094
1560.3213 727.0881
1558.7638 732.7959
1553.8987 736.9958
1547.7247 733.46375
1547.544 740.4787
1536.5488 740.3202
1542.9215 745.56885
1550.362 747.205
1543.4852 752.2837
1549.5835 754.7863
1555.5065 751.71313
1556.4663 744.17676
1561.4197 738.9265
1563.8649 744.5761
1560.9572 750.3368
1566.4868 751.2045
1567.8035 757.703
1572.0935 753.0429
1577.7146 754.2656
1583.569 752.8105
1574.248 759.3308
1571.2795 764.8259
1575.448 770.49115
1579.1465 776.278
1576.0532 782.5976
1579.1155 788.6557
1585.5441 788.52826
1583.383 781.9043
1586.6055 775.2081
1590.6466 767.2572
1582.1887 769.85364
1578.5726 764.2302
1581.9082 758.6791
1586.2588 762.6882
1593.4106 760.913
1597.675 755.30945
1605.0099 754.31323
1611.3364 756.32434
1612.6063 763.298
1605.3439 767.6753
1606.7335 761.23846
1600.8911 760.64594
1598.1171 765.9188
1599.8702 772.15735
1605.9753 775.4292
1612.1122 777.3678
1607.7303 782.66077
1601.5627 781.6935
1595.8478 778.3105
1592.8688 772.99426
1590.581 781.7924
1591.5399 788.72864
1597.1847 787.478
1603.1991 788.8222
1609.542 788.954
1615.5504 788.9308
1620.7241 789.2787
1625.7167 788.8113
1630.9772 788.7029
1635.9005 789.1405
1641.9106 789.23413
1644.6389 783.1152
1638.6083 784.61633
1638.6357 779.3842
1632.4365 776.09216
1638.7202 773.8269
1644.5049 777.0088
1643.2156 769.6726
1635.1262 769.39624
1631.4331 763.6184
1629.2642 770.85394
1623.2473 772.423
1626.1425 777.7943
1633.1025 782.2075
1627.6862 783.32196
1621.4209 783.53076
1614.4724 783.28314
1618.9543 778.223
1617.1852 772.2771
1611.1917 770.3989
1619.3706 766.24774
1625.4095 766.0392
1624.531 759.85596
1618.1918 758.83563
1616.9426 752.3634
1610.9895 748.80786
1607.0359 743.6002
1602.4833 748.78925
1598.5297 743.88
1595.0354 750.49414
1589.4629 755.97876
1588.0753 749.3114
1592.2437 745.521
1593.4807 739.92566
1586.8411 742.2532
1581.4744 745.82117
1576.605 748.1174
1570.8663 745.49774
1568.9143 739.78235
1565.7994 734.4015
1567.4337 729.0541
1574.2389 727.96936
1573.1904 734.5727
1575.7274 741.048
1581.7802 738.1987
1579.3154 733.0001
1585.3906 731.0991
1587.9092 736.16034
1596.4095 734.5193
1602.2108 739.2067
1603.564 733.71313
1609.3052 736.8782
1614.42 732.26575
1614.0314 741.59686
1620.357 739.0104
1626.2324 735.9319
1632.6829 737.50195
1634.1511 744.1613
1630.4946 750.2345
1626.3833 744.49536
1619.2842 746.3279
1623.8083 752.5077
1630.0466 756.68274
1635.6641 758.1189
1636.994 751.0703
1641.1311 756.9957
1638.4362 764.1455
1644.4316 763.34174
1646.7451 757.01044
1643.5352 750.6669
1641.3472 744.6765
1639.8756 738.665
1647.048 739.0918
1648.3431 745.6493
1653.7477 741.8882
1659.5681 738.79333
1666.3114 741.716
1660.1235 745.3823
1660.576 752.3594
1654.8383 748.9904
1649.5779 751.90643
1654.118 756.02386
1659.4431 758.4573
1656.538 763.01404
1650.8057 761.6387
1650.7977 767.485
1657.0681 768.3095
1661.7523 772.1645
1661.5052 777.7717
1655.4456 774.0775
1649.4978 772.89374
1650.5652 778.82196
1656.5247 780.3047
1651.3448 784.23865
1647.8204 789.34143
1654.2803 789.5988
1657.8663 785.2876
1661.2958 789.6616
1664.2075 783.38715
1667.948 789.2632
1675.008 789.18933
1678.2761 783.64844
1680.2194 777.16815
1673.9397 778.5387
1670.8276 783.8452
1667.6484 777.38293
1674.2416 772.229
1667.5468 771.2838
1663.4845 765.3134
1664.57 759.49243
1670.444 760.43726
1671.2795 766.426
1677.964 764.9302
1680.8364 771.19946
1685.627 781.7623
1687.5872 774.78925
1694.2622 774.67847
1692.6193 782.2682
1682.9329 788.9697
1689.4651 788.52704
1696.6831 788.84924
1705.2844 789.31805
1701.2634 785.1484
1699.3278 779.82996
1706.8516 781.65466
1712.918 778.99976
1717.4307 782.73706
1712.1808 787.94824
1719.4391 789.1129
1722.7493 778.1273
1724.1002 784.24414
1727.3894 789.52386
1731.1592 784.8493
1735.7124 789.32605
1737.2825 783.06494
1742.2174 779.7025
1747.5461 782.7976
1742.9524 788.38885
1750.5741 788.93695
1754.9788 783.2829
1758.5144 789.18726
1766.5403 788.685
1774.2856 788.8566
1781.8274 788.77026
1777.9374 781.91205
1770.9619 782.6877
1765.7867 778.563
1761.8921 783.4169
1751.9727 777.7855
1740.1423 773.185
1746.6528 773.9956
1753.8578 771.79706
1759.2507 776.41547
1760.1902 769.07074
1766.1426 771.52356
1771.7976 775.311
1777.4963 773.79126
1783.0983 777.0449
1785.7561 783.133
1790.3341 777.38226
1793.3993 783.4003
1789.6144 788.9531
1797.4695 789.3353
1805.6533 788.8812
1800.6656 783.7685
1806.0479 780.51575
1811.0232 783.9797
1813.9116 789.72375
1817.2693 785.1261
1823.0306 789.47644
1829.2513 784.0596
1831.6471 789.6797
1835.8833 785.4623
1841.1382 789.1936
1848.9314 788.5832
1857.9219 788.9973
1867.6837 789.07776
1877.3794 789.2207
1861.8562 782.59644
1853.7893 782.8176
1847.9504 781.27466
1846.2908 761.7213
1843.5457 774.90686
1841.2484 782.125
1833.8289 778.9406
1824.3519 777.87354
1823.2258 783.82007
1818.2131 779.1892
1812.0353 777.163
1803.2288 774.7584
1797.4905 777.70984
1794.4008 771.40393
1784.8208 770.2554
1779.1306 767.0045
1772.4895 766.8635
1766.1941 764.0388
1760.0581 761.9274
1754.4684 764.98236
1749.1034 767.3737
1753.6361 758.6697
1757.5442 753.1509
1747.9177 754.38525
1747.133 760.97107
1740.7437 760.7019
1743.3153 767.3142
1737.3851 766.2309
1733.1521 761.2877
1741.3333 754.147
1735.8999 756.41254
1729.6412 754.2637
1722.5564 755.7278
1720.3156 761.7362
1726.7485 761.07043
1729.9106 766.66156
1733.8163 771.05115
1734.769 777.0034
1729.0927 779.2912
1727.2966 773.19086
1723.8203 768.0368
1718.1562 767.7947
1718.7155 774.3203
1713.0999 771.1377
1707.9728 774.73114
1702.2283 773.4485
1707.6394 767.6252
1702.3756 764.4227
1697.7107 768.6107
1691.2812 768.19116
1684.6544 766.55566
1676.1357 758.8484
1679.8384 753.3347
1683.2211 758.52515
1688.9548 761.8
1690.4187 755.6157
1695.4197 761.4092
1700.5836 757.64325
1708.3054 760.1799
1713.6185 763.5077
1715.2933 756.73065
1711.2098 751.4653
1706.231 754.6338
1701.9188 750.0813
1695.7655 751.964
1691.237 743.71594
1686.4143 749.9502
1682.1731 742.6257
1678.8889 747.7068
1672.8716 753.0305
1666.9438 754.3507
1666.1145 748.27026
1672.1644 746.7405
1674.5107 740.46893
1673.2838 729.5832
1774.208 480.31732
1786.125 480.0923
1795.7712 476.8131
1787.9501 464.3314
1808.736 406.86493
1818.7163 406.8332
1824.8757 399.2978
1816.1096 387.4878
1814.8481 400.20483
1801.0459 404.17978
1725.6947 364.9572
1709.8036 366.8512
1718.5151 364.06418
1739.669 348.09326
1733.114 345.1963
1720.8445 346.2868
1711.8821 350.0401
1690.4773 346.4337
1677.4905 351.17474
1675.9724 358.34515
1670.5032 356.7442
1667.4705 352.6114
1667.7544 362.6363
1673.3569 364.82574
1668.3323 370.14648
1663.0059 366.5134
1657.4156 365.34247
1661.2668 372.74985
1669.4735 376.51096
1679.0386 379.56995
1686.1128 377.27197
1692.9928 373.2761
1701.044 369.8283
1698.5386 391.04388
1722.865 402.03357
1715.391 406.66132
1699.5117 411.90793
1692.3538 406.7375
1681.7296 407.61627
1669.2332 408.1574
1653.9696 408.6836
1639.5007 405.78595
1630.147 407.93164
1639.3892 365.17868
1633.2554 362.5362
1644.9648 362.37146
1645.9111 368.74408
1653.4241 370.4939
1650.952 363.86935
1654.9033 358.7976
1662.3494 359.25568
1659.6252 353.77283
1652.2644 352.69244
1652.0529 346.48862
1653.0996 340.42798
1650.9706 335.00366
1646.6136 341.89655
1640.124 344.90857
1639.3403 351.59506
1645.6205 349.6422
1647.3777 356.6506
1640.322 357.8565
1633.7241 355.78818
1626.6306 357.5902
1628.5364 351.38892
1622.6879 349.63507
1630.1378 342.82886
1633.8705 347.91708
1641.0061 338.4063
1644.7709 333.95062
1648.8706 328.41772
1641.919 327.82117
1637.1113 332.78046
1635.1014 339.82977
1630.4995 334.607
1628.3153 328.15945
1634.6223 326.49106
1640.0635 321.62732
1646.8264 322.04968
1645.7372 315.99045
1643.948 309.43
1639.2461 314.979
1633.9575 318.937
1628.8165 322.0827
1622.5677 321.5177
1627.2456 315.73917
1621.5039 313.40588
1615.0413 311.3014
1609.3275 308.38525
1603.2273 306.14584
1601.0203 300.9023
1608.3289 301.25403
1615.7338 296.72833
1614.1343 302.64932
1617.5964 306.9017
1623.0511 305.8413
1627.7991 308.56998
1632.8223 312.17725
1637.832 308.6921
1640.9988 303.38007
1636.1614 298.45096
1633.5188 304.35904
1628.5006 300.8707
1631.9976 293.945
1627.5203 288.79523
1626.0277 295.31433
1621.1163 299.99353
1621.0778 292.65106
1615.7852 289.95557
1621.2708 286.0581
1625.5593 282.40402
1621.3899 277.93237
1615.8611 283.458
1614.4036 278.08237
1616.4675 272.8305
1621.4697 270.64114
1622.1001 263.7874
1617.4421 264.19937
1613.5195 267.3723
1609.9458 271.76074
1604.6108 273.91455
1608.7361 277.73508
1608.6849 283.4378
1610.0835 288.5042
1610.3745 294.4858
1604.7198 295.81494
1603.6035 289.60165
1601.5288 283.5847
1596.3643 288.58472
1590.0331 286.88388
1584.3894 284.51157
1595.5042 281.20395
1590.7649 277.65704
1584.3445 277.07556
1577.1722 273.795
1571.6964 278.96747
1578.7183 280.46988
1575.696 285.74533
1568.271 293.91425
1574.3195 292.42706
1580.7805 290.4123
1585.925 294.10248
1591.9307 294.96783
1598.3694 294.9475
1594.844 301.90265
1587.802 302.08258
1579.9004 298.1034
1581.1478 304.54813
1574.2555 305.93542
1572.902 299.5119
1566.4198 301.88943
1567.0424 308.70566
1560.6599 307.6433
1559.0771 300.85706
1562.2404 295.81235
1555.5438 294.3274
1551.2786 288.53375
1548.1488 279.8798
1554.6824 281.94324
1557.6079 287.46588
1563.158 289.47864
1569.0137 285.91785
1563.0077 282.27835
1566.2767 275.8246
1570.6615 269.9366
1565.9011 264.77167
1560.0537 262.55853
1555.5039 258.26752
1551.8679 262.53418
1548.2112 266.73676
1555.0348 268.99857
1561.689 270.5287
1559.4781 276.71713
1553.6938 275.44647
1548.7014 272.71182
1543.0543 273.2666
1541.9854 279.31888
1537.1068 276.35867
1537.0032 270.61584
1529.8695 270.38336
1529.352 264.6707
1534.9857 265.5031
1542.2346 266.80133
1544.5042 260.35645
1548.9231 256.9623
1538.8362 261.4638
1532.6808 259.1198
1538.1188 255.70274
1543.5065 252.96307
1538.1853 249.09082
1532.9225 251.752
1528.229 254.837
1525.7329 260.0052
1517.3289 253.85452
1509.3486 261.48633
1504.6266 266.1167
1501.7168 260.6982
1510.1942 255.53368
1522.7079 247.70154
1525.3833 240.39774
1529.6859 233.37805
1532.4907 225.98373
1535.2494 219.33502
1538.4651 212.78912
1541.508 206.28813
1543.9058 199.34074
1548.2101 193.29875
1554.7405 180.06424
1550.8799 186.69409
1535.3752 187.395
1525.569 188.93433
1516.1132 194.5158
1515.8553 183.68536
1510.7229 179.59258
1516.5231 174.70871
1518.0938 166.84973
1525.6443 168.2176
1530.3799 157.96799
1537.6055 155.62735
1541.7905 150.25992
1548.5383 148.53172
1553.7217 143.909
1557.8757 149.8553
1564.9404 146.04364
1566.2792 151.95741
1572.9414 154.04816
1565.8743 159.48828
1561.3999 165.52663
1558.0095 172.87901
1592.0892 172.89264
1593.6298 165.35307
1601.0027 163.5009
1597.1764 158.35876
1599.5851 152.07977
1605.3046 156.51622
1608.9384 163.61108
1613.3903 170.1063
1606.1039 168.7854
1598.898 170.30038
1598.6338 176.94296
1599.0696 183.1381
1599.2053 190.76416
1593.4606 186.82288
1590.1287 179.5081
1587.3567 186.21567
1587.537 193.44658
1594.0923 194.6856
1588.7488 199.87094
1594.4209 202.25688
1590.9397 208.59415
1591.3508 215.65176
1598.5066 207.35043
1598.0122 214.2346
1598.7598 221.53616
1599.4219 229.89197
1601.4209 237.09164
1596.3267 239.1298
1596.1553 246.7113
1596.2468 252.53143
1601.3335 244.30772
1606.3921 246.81393
1603.0214 252.15863
1609.9944 253.92294
1605.8596 258.99048
1599.592 257.87927
1600.4471 263.85162
1602.5326 268.8609
1607.6183 265.23773
1612.5454 260.17206
1618.7932 257.24628
1618.021 251.24747
1618.2545 245.18181
1616.0107 239.73459
1619.7281 235.63708
1614.8097 232.51994
1619.1559 228.41153
1614.7334 225.43639
1619.4626 221.06415
1614.1335 218.9881
1612.5005 212.9013
1615.6672 208.35342
1619.1276 214.77861
1620.8286 208.66495
1621.3486 202.20056
1614.47 202.97478
1610.5286 198.42664
1600.1633 199.12512
1606.011 192.98373
1608.2854 187.57648
1610.9666 181.9199
1612.4753 176.18773
1620.1099 175.84209
1619.4885 181.83151
1615.2847 186.7791
1613.3606 192.57048
1617.3007 197.58719
1622.8337 194.44711
1622.1433 188.10474
1627.6842 185.11607
1627.3302 179.41985
1635.1152 180.27008
1633.324 173.45435
1643.099 169.77908
1640.7803 175.4007
1646.0988 181.10193
1653.322 179.58037
1649.1829 173.771
1656.7529 171.22888
1650.608 166.15044
1647.765 139.08258
1657.6221 142.68607
1666.7529 142.50446
1665.0579 148.02612
1674.7039 149.39604
1681.7003 146.3994
1675.1898 141.34828
1681.6301 138.61649
1686.2118 133.00177
1688.3119 140.67783
1688.8418 148.25941
1683.5273 153.2327
1677.5411 155.88712
1670.0316 155.3548
1664.2778 169.13242
1659.6172 177.37213
1665.2874 174.63593
1671.3754 169.58829
1677.4946 168.00243
1682.623 165.17813
1688.6533 164.79456
1685.8503 159.17775
1691.2175 154.8953
1696.5105 150.46323
1694.8245 144.03821
1702.0142 145.70581
1703.5552 152.37625
1698.3044 157.47366
1693.705 161.35953
1693.7959 168.00366
1699.3683 169.40959
1700.6987 163.7503
1707.5403 164.13945
1710.6614 161.4032
1704.9758 158.27986
1710.9851 154.05154
1709.0724 147.74622
1713.3042 143.38269
1707.3398 140.28537
1700.7585 138.94467
1704.7983 133.61914
1699.5343 129.9256
1694.8777 136.92569
1692.6003 130.93498
1689.1061 125.14093
1666.651 116.803856
1659.1704 113.45467
1652.8158 114.86041
1647.0447 111.37062
1646.5586 118.289024
1640.1162 115.89001
1640.6404 124.21215
1635.1595 121.60959
1629.5127 119.351135
1633.1592 113.24567
1639.0404 108.50716
1632.2631 104.75339
1625.4297 101.112
1622.5807 108.705475
1610.878 115.28627
1608.9469 124.47569
1623.7643 129.97156
1632.0725 135.40718
1607.2124 138.31258
1604.9623 147.28119
1599.7806 144.40784
1600.774 133.53989
1603.8594 115.14401
1604.6067 106.322266
1611.1625 106.03826
1617.2577 100.54666
1621.0776 93.417404
1612.8381 91.03708
1607.5989 97.65715
1598.1483 101.38138
1589.6836 98.96832
1577.6641 94.1217
1580.908 99.39013
1583.8445 104.88251
1590.4502 104.44284
1594.5658 107.512436
1594.3794 112.94893
1587.8914 110.807465
1588.1182 117.954155
1598.2262 119.39537
1593.7451 127.4627
1584.6161 126.59374
1581.2736 121.67734
1582.3348 115.90967
1575.8301 119.156586
1568.9138 122.31134
1576.4658 125.118576
1572.5823 129.34311
1578.0632 131.13498
1583.8414 136.23286
1577.7866 141.71179
1577.5096 147.9266
1571.5765 147.07205
1570.3397 141.00809
1573.335 135.62994
1566.1299 134.59055
1563.7312 139.50066
1559.3392 143.34033
1557.1434 136.70319
1548.72 138.435
1540.7738 143.59065
1533.0583 150.1232
1525.0134 153.06949
1523.2347 160.86606
1517.3956 157.69485
1511.3502 160.31221
1510.6578 167.28575
1508.9299 173.44156
1502.5377 169.93057
1503.5518 162.39801
1494.1694 165.50235
1497.3335 176.1615
1492.873 181.18073
1493.8928 188.01797
1486.8142 189.35513
1482.005 195.8518
1476.2871 203.6032
1482.2964 207.2775
1486.0923 199.05107
1491.9165 194.65465
1498.7671 193.33804
1503.2611 188.97232
1499.5498 183.73535
1503.8768 178.62315
1508.7113 186.11691
1509.2549 196.76273
1505.1685 201.37009
1502.0754 206.47032
1497.8705 200.56499
1491.5981 203.16594
1494.8918 208.60413
1478.7771 213.91173
1485.3215 217.32318
1489.7676 225.04932
1493.913 231.27875
1479.042 222.85715
1472.3098 227.63121
1482.0627 230.96129
1477.7551 237.73564
1487.4829 240.67908
1482.3911 247.89127
1480.7474 256.96576
1487.1151 264.7028
1479.7288 266.07904
1473.2449 261.02625
1469.5049 253.93988
1475.6321 252.86302
1474.2495 245.84198
1469.8848 240.1939
1465.3022 246.79236
1458.4331 241.95978
1457.1812 249.41669
1461.4651 253.7155
1464.5065 259.5318
1467.5789 265.70267
1460.4617 265.109
1449.649 273.34222
1459.8608 275.40778
1466.6913 273.9369
1463.4474 283.85623
1470.7568 285.67142
1483.6099 291.24686
1487.6279 285.23083
1480.5681 279.13538
1472.3901 278.7998
1472.9197 269.71237
1477.9331 273.43335
1484.9934 272.76526
1491.5413 270.26343
1495.2114 264.96643
1499.3738 269.28616
1496.8688 275.60498
1492.0002 279.00476
1495.1754 283.6037
1501.4435 281.16467
1503.0017 274.40295
1508.7954 272.81757
1511.9926 267.68112
1517.8472 267.7488
1518.1107 261.8283
1523.5232 265.33472
1523.3533 270.94476
1525.5312 276.5547
1519.578 275.75613
1514.9159 273.03833
1513.42 279.28848
1507.495 278.8813
1507.6569 284.85052
1514.8552 285.6112
1516.7964 291.70947
1510.7023 290.7162
1504.6436 290.62817
1499.7837 287.59113
1492.4972 289.81628
1490.1831 295.5979
1498.1857 294.28326
1505.1246 296.4192
1511.9565 296.93274
1518.3145 298.25125
1522.5532 293.8096
1522.3812 287.86548
1519.6123 281.72653
1525.2559 282.922
1530.2482 287.06845
1530.3016 280.86725
1531.6882 275.52557
1535.6523 282.56616
1540.4941 285.9466
1544.9341 289.06787
1547.9916 294.6493
1551.0492 299.91272
1554.3751 304.5227
1553.3945 309.8026
1547.1576 306.52307
1540.1039 307.1302
1537.4106 301.2945
1544.0067 300.68558
1540.7421 294.67117
1536.029 289.88895
1533.6763 295.79004
1528.441 292.6053
1525.6704 299.0681
1531.2278 301.6148
1527.2507 306.30322
1528.6555 313.50488
1533.5873 308.25763
1536.1969 314.6032
1542.3411 312.89832
1547.9995 313.5463
1548.7194 320.0196
1541.6768 319.75922
1536.4574 323.9888
1532.3131 319.66425
1528.1914 325.99185
1525.959 319.9417
1520.2344 322.7647
1521.0422 315.9308
1522.4966 310.16052
1520.9231 304.11877
1514.632 303.73468
1515.9436 310.9204
1514.618 318.05618
1508.5437 314.29797
1510.1731 308.3684
1508.0929 302.19672
1501.2594 301.4817
1503.9178 307.57394
1500.7913 312.6045
1496.3937 317.45456
1492.6506 322.07642
1500.2695 324.47064
1503.2538 318.68152
1508.7483 321.54663
1507.1301 327.65332
1514.0619 325.6225
1513.8618 332.37393
1519.2405 336.47687
1520.2885 329.1002
1525.7229 331.7666
1526.1255 338.01562
1528.808 343.60324
1531.0935 349.55756
1535.2229 354.8676
1540.4861 361.0051
1537.2433 367.0084
1533.2032 360.20435
1531.039 365.25598
1530.9636 371.6435
1530.8545 377.8619
1536.9528 380.90088
1536.9585 373.7474
1542.7017 375.42114
1543.8676 368.1701
1548.8848 373.7882
1550.3751 380.9035
1543.8572 381.5909
1546.6082 387.67526
1553.8391 387.15378
1549.6821 393.00534
1540.0332 387.52496
1541.8767 394.02582
1546.5852 398.69238
1540.4467 400.94208
1534.7815 398.8696
1535.1251 393.0343
1533.9937 387.0332
1529.3547 384.0687
1524.5692 380.63446
1524.1221 374.03537
1525.6931 367.89536
1525.0012 361.4406
1527.9153 355.5134
1523.7754 349.69223
1520.678 355.71747
1517.772 361.7822
1519.8782 367.6921
1516.4888 372.99854
1518.8984 378.2192
1518.675 384.15625
1523.3821 387.63666
1528.5103 390.93475
1528.867 396.8283
1528.5093 403.02487
1529.0725 408.5324
1524.004 411.40503
1521.975 405.7365
1517.8888 411.77438
1517.7661 417.54138
1523.6536 417.8059
1529.1433 415.0549
1534.1921 411.38266
1534.6196 404.87482
1538.8634 414.3087
1544.8965 411.74268
1539.7501 407.9226
1545.2283 405.45117
1551.2404 410.16846
1550.6647 403.90546
1553.5659 398.4566
1557.0825 393.30185
1560.3441 399.6773
1556.5383 404.57855
1557.6259 410.35934
1563.1085 406.009
1563.1678 412.6662
1561.236 418.56335
1555.553 415.98315
1549.3196 416.28082
1543.7461 418.10822
1546.2528 423.71387
1551.5343 421.59326
1556.825 422.5083
1561.6914 425.9056
1565.7393 422.8167
1567.6157 417.50803
1569.9279 412.53098
1574.3601 416.1844
1578.6147 411.0158
1581.001 417.48456
1586.4529 413.94513
1585.2168 408.4046
1592.8948 408.42026
1601.7065 406.66882
1621.2568 407.55157
1610.469 406.81284
1598.2084 412.26105
1592.414 416.73962
1586.7517 421.11963
1580.9612 424.86188
1576.677 421.91724
1571.3318 422.5815
1574.6487 428.2895
1568.3357 428.39722
1567.8945 433.95624
1562.4183 431.4555
1561.4478 437.31064
1556.5269 433.82358
1556.3777 428.4436
1550.8495 427.81747
1545.2332 430.46347
1538.642 429.59216
1540.8715 434.81848
1535.3989 437.76263
1540.7164 440.97726
1546.6929 437.973
1550.7693 434.0492
1554.9324 439.24335
1551.2756 443.1529
1545.7117 444.49866
1541.9053 448.72595
1536.4001 452.45764
1529.9646 452.7124
1530.2372 458.8954
1523.5781 455.67184
1522.743 461.63177
1516.3477 460.17035
1513.9185 465.97498
1507.0857 470.01953
1500.754 465.0803
1499.9028 472.74606
1493.6082 476.72043
1493.5535 468.0595
1488.112 472.33234
1486.1196 479.07874
1479.2495 480.85938
1473.5945 478.2414
1470.6028 483.1869
1467.158 477.3851
1462.6024 473.67725
1458.9276 478.91684
1463.4305 483.976
1456.5903 485.62643
1450.0212 487.5244
1442.3558 488.27325
1435.4927 490.39392
1435.2539 484.26044
1440.739 482.29523
1446.7864 482.17905
1443.2869 476.50116
1437.5579 471.95782
1435.9086 477.82013
1429.9102 486.49582
1427.5247 491.48776
1420.5151 491.38782
1423.5466 485.1988
1423.2366 477.53143
1429.1312 480.25293
1430.4568 473.87805
1424.912 471.16858
1418.3486 472.19135
1413.1692 468.1561
1419.8137 466.1504
1426.373 465.37534
1426.2151 459.38464
1420.136 460.24216
1421.9204 454.48764
1423.4949 449.4758
1417.4373 449.63547
1415.3876 455.60666
1410.2478 451.73068
1413.3104 446.31976
1407.941 445.43958
1404.2031 448.96002
1409.0726 457.9109
1414.0386 461.9659
1407.7098 464.1344
1406.3406 469.80756
1399.8856 466.06003
1400.431 472.31036
1404.5149 476.6812
1410.1239 482.041
1410.8145 474.36505
1415.7627 477.46506
1418.394 482.08066
1415.4227 486.83698
1413.3279 491.95187
1407.3381 491.13257
1401.8813 494.10516
1396.0585 498.35556
1395.6288 490.61923
1400.0126 485.07593
1393.3956 483.1069
1396.9441 477.77643
1389.4417 475.0951
1394.1069 470.35995
1393.3577 463.27295
1398.2467 458.2992
1402.9812 460.92966
1403.7948 454.66623
1398.5195 450.759
1400.0254 444.59882
1405.3213 440.6206
1411.4739 440.43274
1417.2201 442.0728
1422.2037 443.6557
1428.1049 446.6046
1431.9565 461.2595
1432.708 467.6029
1438.0078 461.822
1440.2129 466.5138
1446.1196 463.12936
1444.7203 470.20154
1449.701 474.02182
1452.4045 479.58115
1456.1725 472.19263
1451.1201 467.10144
1453.4207 459.8283
1457.508 465.07397
1463.4678 467.76477
1463.6366 461.5074
1459.9019 456.9327
1462.7799 448.9198
1467.1682 455.13315
1474.7827 456.60345
1481.459 459.14465
1476.7605 465.19272
1470.2041 462.39825
1469.5334 469.81027
1475.0231 472.28076
1481.095 473.3451
1483.8906 466.6906
1488.6335 462.28207
1495.1227 460.06293
1495.8448 452.7132
1487.8821 455.22604
1489.3708 448.87485
1497.5554 445.232
1490.762 442.48895
1483.6072 444.02365
1480.5985 451.11212
1471.7179 449.7777
1475.9673 444.4287
1478.8468 437.99384
1480.326 431.16565
1486.0631 428.19818
1491.248 431.04233
1486.1191 436.39014
1493.9066 437.15796
1500.4086 437.93658
1507.1602 436.34967
1512.3641 441.12634
1514.3102 434.44672
1519.462 438.4222
1524.3395 442.60385
1517.6062 445.7274
1510.8022 448.3006
1505.164 443.33118
1503.4688 450.38885
1502.2527 457.46835
1508.0598 462.2155
1509.9093 455.4211
1516.9202 453.0919
1523.5267 449.18726
1530.2417 446.79144
1536.3909 445.27954
1530.6389 440.6093
1526.407 435.68137
1520.8069 431.2668
1527.6849 429.14612
1532.9375 432.4292
1533.7612 425.60617
1540.8727 424.6676
1538.1853 420.25513
1533.4062 418.60345
1528.5793 422.0728
1523.5345 424.90436
1518.5479 423.42416
1514.8154 427.55405
1509.5918 429.9718
1503.668 430.44946
1497.7445 430.93124
1493.9462 424.62054
1500.9875 424.3657
1507.4397 424.00476
1512.3402 420.79745
1511.4929 414.59274
1510.7892 408.60077
1515.963 406.03076
1511.288 401.81573
1505.9192 404.43027
1499.9952 406.96375
1505.2114 411.33917
1505.1028 417.85193
1499.0928 413.35895
1494.1353 409.15338
1495.0393 401.89453
1489.3826 399.64685
1493.0731 394.3949
1499.2773 395.3764
1501.1271 400.85773
1506.304 397.05258
1513.0288 395.99866
1517.6521 399.6073
1523.4509 399.9852
1522.2725 394.2091
1517.1464 391.13336
1510.085 391.04135
1504.0852 390.5493
1498.3379 388.94797
1493.0839 386.92328
1488.4047 389.7835
1482.6937 389.23215
1485.1506 395.79245
1483.293 403.18198
1488.7468 405.83752
1481.9419 410.2271
1484.3306 416.7109
1488.2217 411.88245
1492.4456 416.48865
1498.1162 419.1928
1488.2815 421.7572
1481.3435 423.15744
1475.5106 425.8802
1473.2363 432.37997
1470.8195 438.0357
1467.613 443.414
1460.7202 439.91147
1464.01 433.32196
1468.2609 427.83762
1472.167 420.71823
1477.8081 417.0649
1476.7373 406.39462
1469.7957 410.94415
1465.342 402.47168
1461.1509 397.39563
1456.8502 391.90912
1463.1797 391.02887
1467.4194 396.5444
1473.4165 395.58807
1472.1989 401.99042
1478.5859 399.72296
1479.2793 393.7202
1478.6656 384.54797
1478.2054 378.8905
1478.282 372.74188
1471.5013 376.52368
1471.9534 382.90805
1475.135 389.0993
1469.3474 390.12897
1466.0464 384.69785
1463.583 379.1329
1465.7712 373.9127
1465.3245 368.526
1462.2949 363.84796
1465.4263 358.3349
1462.6656 352.6866
1458.6965 347.26727
1461.4995 341.30698
1468.2146 340.8017
1470.5256 334.5875
1474.0024 328.93436
1477.8998 334.34686
1475.1549 340.4318
1466.1652 347.27805
1472.6848 347.27304
1479.1375 346.03094
1483.4824 351.87817
1476.9276 353.19952
1470.2523 354.1844
1474.8527 360.212
1469.6296 363.17352
1472.4552 369.26755
1478.9673 365.8752
1481.4005 358.81622
1485.9751 363.82416
1491.1925 368.51837
1484.8938 370.53745
1484.8418 376.79233
1484.9141 383.40466
1490.2552 381.0437
1496.2465 381.35162
1501.7963 383.30038
1507.6255 384.62177
1513.3469 385.80322
1512.4546 379.20847
1505.6556 378.17123
1503.54 371.8916
1498.74 375.77
1492.0177 374.70224
1497.8335 368.4217
1505.2318 365.89557
1509.7483 372.75006
1512.8696 367.38458
1510.8102 361.8864
1505.7363 358.5622
1499.5654 361.33234
1492.935 362.3272
1488.1481 356.99594
1494.8657 355.68005
1501.3683 353.7428
1503.4661 346.85852
1509.9368 345.6131
1508.4546 352.12744
1513.6064 356.11215
1516.2734 349.78622
1522.0037 343.52747
1516.1307 342.94073
1511.2852 339.0307
1503.864 339.63083
1507.41 334.06766
1501.3951 331.7814
1495.0371 329.3131
1490.0745 335.53122
1491.2028 342.30298
1496.6763 336.4118
1497.8704 342.69077
1496.5228 348.80652
1490.2644 349.98972
1485.5706 345.31158
1483.0095 339.49826
1484.434 333.10687
1488.7811 327.95694
1485.4031 321.93573
1487.6362 315.56213
1492.7798 311.58298
1496.5499 306.73547
1495.1793 300.094
1489.5154 303.13925
1486.5182 308.36523
1480.6946 309.99838
1480.8822 303.19458
1483.762 297.90454
1473.9293 304.76822
1469.2534 310.6978
1466.471 316.9274
1475.1765 312.04233
1480.6099 316.95163
1481.4424 327.72192
1477.4589 323.00952
1473.2026 317.9532
1469.8502 323.52335
1462.7334 322.46786
1459.2327 328.03683
1466.2402 328.7789
1463.3895 334.59186
1457.048 335.93628
1453.5844 330.90765
1449.5942 336.09467
1454.179 341.93588
1447.2927 342.9178
1451.1471 348.2796
1455.0905 353.31207
1458.2527 358.5099
1456.6162 365.23215
1458.5704 371.98752
1456.7019 378.8465
1459.4197 385.141
1452.83 386.08392
1450.0583 380.24268
1451.2772 374.27393
1451.3298 367.7802
1451.281 360.46002
1444.4309 362.76495
1444.3203 370.8193
1438.2708 368.24496
1438.8699 375.7539
1438.6304 382.87244
1431.5875 372.79297
1426.0026 368.7794
1421.7173 374.76605
1418.8053 369.20154
1414.2063 365.2292
1414.8114 358.91406
1421.2051 356.68042
1421.3721 363.1964
1428.0431 360.7271
1432.1548 365.60104
1437.207 361.07516
1441.2192 355.56995
1447.9056 354.83163
1443.7549 348.80283
1443.2311 338.0271
1439.5125 342.9885
1433.303 344.061
1436.5078 349.8032
1433.355 355.44394
1427.1251 353.96362
1428.3655 347.64197
1421.6842 349.66724
1415.1406 352.3508
1408.055 355.83554
1408.3103 361.68262
1408.7444 368.89166
1413.4491 373.62497
1406.3064 375.83298
1400.7625 379.92535
1397.3368 373.30774
1402.0317 370.1683
1402.9644 364.16647
1400.017 358.01364
1396.148 364.25903
1389.6836 360.86945
1377.4685 363.58554
1366.4209 365.86
1357.1819 369.63806
1359.7692 375.25543
1366.0364 376.0736
1367.8087 382.25412
1362.1111 381.9333
1350.255 373.54266
1342.0643 374.61865
1345.345 380.89856
1342.8845 387.57275
1338.7512 393.89462
1334.8904 386.33923
1335.7334 378.69263
1327.3252 380.94724
1319.981 385.06586
1326.5822 388.36035
1330.618 394.00934
1326.9733 399.80933
1320.0264 393.655
1320.0953 401.90695
1325.5796 407.07016
1335.4102 400.7318
1332.4076 406.36728
1329.6885 412.53766
1318.8152 408.44342
1318.2264 414.92645
1323.4498 414.05627
1327.8298 418.6512
1331.028 423.93457
1325.2126 424.9004
1320.3295 420.66803
1318.9998 426.872
1326.5957 431.56406
1325.3657 438.99512
1324.5122 449.40106
1331.7356 450.78473
1331.2443 443.7103
1332.1113 436.58313
1333.7522 429.63947
1338.8615 434.42896
1339.2776 441.16733
1345.8572 433.46396
1346.7064 440.9637
1353.9829 441.8668
1352.9459 434.5224
1351.487 427.5893
1341.4761 427.5271
1346.0127 423.29367
1343.3752 416.67688
1341.274 408.0495
1346.7245 395.53256
1345.0671 402.21677
1348.2622 410.64
1351.2413 418.01575
1356.6287 423.06207
1359.7102 429.1246
1359.974 436.16913
1361.4045 442.4301
1360.6614 449.02362
1353.4216 449.20227
1346.6069 448.2494
1338.7388 448.16553
1343.1096 454.3663
1336.0575 456.83627
1335.0651 464.58734
1337.1956 472.23755
1344.232 468.60223
1343.0513 461.67685
1350.3846 457.06406
1358.059 455.45996
1358.111 462.1181
1351.0498 465.40878
1352.6119 474.21933
1358.5474 469.2523
1361.1774 476.17697
1356.696 482.38535
1349.0266 482.18793
1345.1484 475.5877
1339.6926 480.20233
1334.9412 486.1406
1331.614 478.89963
1329.0225 471.6048
1326.6953 464.59143
1328.0181 457.54962
1320.5563 455.8982
1319.2029 463.442
1320.4856 470.7641
1323.1158 478.54388
1326.5543 485.91196
1330.8923 492.96246
1338.4963 492.90573
1343.5912 487.34357
1351.9977 490.18005
1357.1152 496.69354
1364.5939 496.6389
1360.565 489.09454
1368.5253 489.90036
1373.5072 484.10797
1366.0938 481.77634
1369.5325 472.76974
1374.6125 475.94858
1377.9022 465.94662
1387.1743 467.5482
1381.9485 472.5459
1380.3591 479.53094
1386.7561 481.11752
1388.5598 488.09296
1389.8833 495.47253
1389.1295 502.7177
1383.911 507.86386
1381.3615 514.5718
1374.028 516.81647
1370.4635 522.69336
1376.3647 524.3688
1381.2095 521.5864
1382.8042 529.0034
1382.1567 537.3108
1377.7522 531.2005
1371.8231 529.4042
1370.0251 535.8204
1375.5898 536.7035
1376.6542 542.4348
1369.3606 541.52856
1365.7185 546.3756
1368.9856 552.0797
1372.1512 547.2178
1377.6329 548.9635
1382.3882 545.30817
1380.8319 553.7815
1374.7463 554.3313
1372.6849 559.37683
1367.2135 563.7429
1367.3364 557.58386
1361.7245 558.60754
1363.1172 552.5886
1357.127 553.6381
1352.0963 551.0345
1354.8052 546.5748
1359.8625 547.7012
1361.0054 541.7689
1363.5066 536.96686
1360.4044 530.6353
1366.2029 531.34784
1364.9629 525.24255
1359.1322 523.71594
1354.5621 528.3903
1346.1721 522.89264
1352.6241 521.4346
1353.9508 513.4974
1359.2463 517.543
1365.8895 517.8863
1368.082 511.30893
1375.7712 509.6704
1377.1904 502.5702
1382.7561 499.52707
1383.5073 492.88434
1380.7988 486.44757
1376.4534 492.6515
1371.8491 497.41846
1369.8784 504.36505
1362.8569 503.7529
1360.8224 510.81915
1355.9386 505.078
1349.3845 508.01254
1342.6182 510.4052
1347.5438 515.86804
1340.6975 517.36896
1338.9764 523.9061
1337.4933 530.8857
1343.3832 528.6458
1349.2378 529.8516
1349.9666 536.3972
1356.4103 535.2252
1354.6536 540.8562
1349.3241 544.435
1346.8932 551.15076
1343.3893 546.05206
1345.1387 540.2593
1343.2026 534.8053
1339.2516 541.7149
1336.7007 547.0871
1335.8225 552.78625
1341.1724 551.19354
1342.8258 556.22925
1346.284 560.2836
1350.5586 556.63165
1355.9382 559.52277
1350.9323 563.58624
1356.1238 565.12476
1361.8625 564.5387
1359.428 569.3528
1353.3838 570.39514
1350.4495 575.2517
1345.3676 578.6454
1338.2034 580.9114
1330.745 579.2413
1332.4651 584.78
1325.6569 587.15485
1318.9329 590.5489
1317.4142 577.87683
1319.4353 570.1566
1323.6957 564.5121
1318.2092 562.06586
1318.7355 554.8082
1324.3021 558.36505
1329.0769 555.4664
1324.3091 550.884
1318.612 547.5363
1318.9766 540.5705
1320.6078 532.0332
1324.4822 537.2559
1325.0739 544.1625
1330.437 548.85645
1332.5449 542.4972
1336.7401 537.00806
1331.3413 534.6085
1330.6105 528.521
1325.6844 530.45026
1325.4434 523.1174
1319.9081 525.541
1319.7087 517.63434
1318.4836 511.06012
1336.9103 499.83994
1343.521 503.01904
1345.4231 495.1942
1350.6025 499.87622
" />
</g></g></svg>
