<?xml version="1.0" encoding="UTF-8" standalone="no"?>
<!-- Created for Inkscape (http://www.inkscape.org/) -->

<svg
   xmlns:dc="http://purl.org/dc/elements/1.1/"
   xmlns:cc="http://creativecommons.org/ns#"
   xmlns:rdf="http://www.w3.org/1999/02/22-rdf-syntax-ns#"
   xmlns:svg="http://www.w3.org/2000/svg"
   xmlns="http://www.w3.org/2000/svg"
   xmlns:sodipodi="http://sodipodi.sourceforge.net/DTD/sodipodi-0.dtd"
   xmlns:inkscape="http://www.inkscape.org/namespaces/inkscape"
   width="3200"
   height="800"
   id="svg2985"
   version="1.1"
   inkscape:version="0.48.1 r9760">
  <defs
     id="defs2987" />
  <sodipodi:namedview
     id="base"
     pagecolor="#ffffff"
     bordercolor="#666666"
     borderopacity="1.0"
     inkscape:pageopacity="0.0"
     inkscape:pageshadow="2"
     inkscape:zoom="0.35"
     inkscape:cx="1600"
     inkscape:cy="400"
     inkscape:document-units="px"
     inkscape:current-layer="layer1"
     showgrid="false"  />
  <metadata
     id="metadata2990">
    <rdf:RDF>
      <cc:Work
         rdf:about="">
        <dc:format>image/svg+xml</dc:format>
        <dc:type
           rdf:resource="http://purl.org/dc/dcmitype/StillImage" />
        <dc:title />
      </cc:Work>
    </rdf:RDF>
  </metadata>
  <g
     inkscape:label="Layer 1"
     inkscape:groupmode="layer"
     id="layer1"> 
     <g>
<path style="fill:none;stroke:black;stroke-width:2px;stroke-linejoin:round;stroke-linecap:round;" d="M 
1827.6233 433.14777
1826.1747 441.2866
1834.6353 441.015
1841.8386 436.9284
1845.0607 443.9096
1837.6802 448.5896
1834.1663 456.0617
1843.9006 452.3812
1850.5903 455.38556
1851.2922 463.23495
1845.2709 470.48553
1842.1896 461.20905
1834.5436 463.9867
1832.7571 470.95325
1823.2366 469.59775
1825.7983 463.45166
1825.1036 455.81763
1829.7039 448.6755
1821.7935 447.6666
1817.9136 460.4
1808.8726 467.4569
1800.267 460.18146
1788.2734 460.82935
1786.8457 453.6042
1781.6387 448.63757
1784.532 439.82233
1783.2496 432.20294
1792.127 431.7717
1800.9768 431.22986
1796.8792 440.22592
1790.7283 445.7298
1799.5513 450.3578
1809.8737 454.9073
1816.3221 451.9867
1815.0378 442.52637
1807.9373 447.06232
1805.2407 439.50934
1811.6714 434.15875
1820.0563 436.4858
1819.6534 429.0605
1816.495 422.8327
1809.2139 426.77722
1802.4738 422.6159
1794.6176 421.25085
1786.8618 423.46576
1778.4264 425.0678
1771.2175 429.68674
1767.4883 436.98944
1773.1715 443.3214
1764.8604 447.63043
1770.5471 453.1981
1769.4181 461.9265
1756.5247 457.54907
1753.5824 450.44345
1758.0273 444.50494
1762.6805 432.3764
1754.4836 432.3259
1751.3845 442.0407
1745.0269 447.93585
1739.6404 440.9503
1736.095 447.86896
1731.0862 453.60864
1732.1874 460.86435
1734.7129 467.42358
1736.2488 473.65826
1735.593 480.34204
1744.1202 480.2004
1744.7863 472.31027
1750.2822 463.16794
1742.242 464.16583
1739.5652 455.98557
1747.6128 456.08057
1757.6205 466.64355
1751.6724 470.42853
1754.8641 476.42957
1765.4207 479.58447
1766.4375 472.35956
1778.3535 476.72296
1778.9209 468.4514
1780.3772 459.39008
1786.5793 467.39716
1786.6367 474.56442
1787.3755 481.9909
1780.8339 483.8912
1774.0272 485.77563
1768.1191 489.66168
1772.8372 495.50006
1779.6252 491.66675
1787.4412 490.30112
1778.2258 500.81198
1784.9385 497.56296
1792.086 498.63315
1795.9861 505.4557
1801.8429 500.749
1807.3287 506.32162
1801.8677 511.68317
1808.5774 514.38684
1803.5297 521.28613
1794.687 519.6919
1795.0216 512.9354
1787.0956 514.6527
1786.1321 505.847
1778.5051 509.01462
1770.8156 505.23975
1765.3291 497.73813
1762.2234 504.05902
1763.654 511.32846
1754.4469 508.29498
1746.0099 513.5656
1738.4993 519.5743
1747.1143 522.5055
1750.166 529.8883
1760.474 532.74927
1770.7681 532.9265
1780.5216 532.50104
1769.4609 525.3065
1757.7678 524.9664
1755.0303 516.422
1763.6992 519.423
1771.5134 515.3553
1779.3733 516.6561
1785.3353 524.6651
1790.7285 533.4944
1801.4744 533.38324
1811.8746 521.9501
1810.9025 529.78455
1809.9368 538.8271
1812.4644 548.1848
1815.4506 559.1484
1820.5344 552.46533
1819.5385 542.67145
1819.2101 533.62415
1828.2607 535.6045
1828.3889 544.3119
1828.2346 553.1983
1826.1478 562.92084
1817.4133 567.6235
1816.4226 576.469
1816.5579 585.6761
1826.0822 573.8009
1826.5562 583.7718
1826.4536 593.358
1830.2572 604.0868
1832.4363 617.2811
1834.5731 627.6159
1823.927 623.8474
1826.292 633.3732
1834.2991 640.9529
1842.7366 633.56714
1843.0967 646.66614
1859.7351 651.3002
1855.5754 660.2388
1845.7328 659.1368
1836.1426 656.47766
1828.3477 650.9037
1822.3286 642.0907
1815.1216 630.83124
1811.9424 621.0718
1818.5862 615.99915
1825.0521 610.7974
1814.1975 607.1228
1821.371 601.2595
1815.0454 594.8955
1762.783 595.93774
1743.1573 634.7731
1735.9434 651.8983
1751.8807 676.7108
1751.8987 662.3338
1794.5017 648.8678
1777.9194 669.5189
1770.1171 689.609
1782.4224 683.5444
1791.654 695.2914
1780.3896 703.8458
1778.4338 717.0815
1793.0249 718.0758
1797.1207 742.0844
1829.1637 733.8237
1836.7944 715.99524
1838.5834 698.7275
1829.7687 697.27954
1816.3662 696.06024
1810.1387 721.22766
1809.1218 700.5055
1800.5518 684.2888
1803.4092 674.11487
1813.9789 663.34314
1816.8866 686.5876
1831.9404 670.6776
1847.1731 690.1775
1854.5869 704.21356
1862.6152 691.522
1874.7808 704.01117
1870.0259 736.3263
1864.7708 755.66125
1869.1407 781.8493
1834.4373 783.51184
1849.19 753.173
1827.7107 754.7082
1815.0972 770.1815
1794.4706 781.48474
1763.5957 770.03955
1759.729 784.3115
1746.8745 776.13513
1735.0397 779.25433
1715.4169 789.0741
1691.3552 786.81226
1663.3212 786.6828
1656.9463 778.0171
1643.4358 786.2018
1627.6345 786.07196
1628.6028 769.896
1618.5928 775.0846
1606.1637 785.27014
1592.4424 785.66595
1597.0415 772.51556
1596.7924 757.82336
1603.6565 750.6545
1615.8694 759.52515
1615.7505 745.86707
1604.8009 734.82806
1598.7302 723.5312
1585.2906 718.4206
1591.3762 700.9189
1610.4723 701.42017
1608.0928 692.19745
1617.3352 687.6427
1620.0842 677.77765
1611.1895 676.6352
1589.7339 683.3113
1582.166 693.1086
1570.904 690.705
1580.5635 668.2024
1578.1188 641.5684
1564.7108 675.9912
1549.4475 671.52734
1538.3066 682.36523
1525.3456 680.9033
1512.9364 666.336
1530.2305 670.3865
1538.6 640.5665
1521.0486 609.8851
1503.2069 609.3755
1497.3628 602.51
1506.3599 598.80505
1509.7654 589.8023
1513.6472 580.2538
1506.0037 580.9237
1500.3835 587.3436
1496.009 593.9067
1493.214 580.444
1500.8134 575.5327
1508.3289 570.6875
1515.7784 571.5034
1516.8885 563.26807
1509.2875 560.6404
1501.3511 565.734
1495.5533 559.83093
1501.9016 556.245
1506.8131 550.6639
1499.176 547.0907
1493.5294 551.3535
1487.8408 558.22015
1480.9941 556.6293
1481.8577 566.6675
1489.9536 565.6649
1494.2869 571.5139
1485.4181 574.17346
1481.3589 581.0702
1488.7349 587.3448
1480.6985 591.5167
1487.5588 597.6365
1480.5166 603.3587
1480.5702 612.9651
1485.3464 620.8782
1489.4471 607.2914
1493.27 614.7084
1501.5781 619.1521
1500.4839 628.65735
1493.3635 624.57556
1487.7789 631.3964
1478.9559 629.569
1476.6306 622.5811
1467.7358 630.52686
1478.2203 637.3446
1471.1882 642.3175
1472.9877 654.1731
1480.012 657.56506
1487.5731 655.3458
1480.6586 647.245
1487.601 640.32434
1491.2906 648.291
1497.4458 643.5392
1496.7008 635.6095
1514.608 642.70306
1496.8528 655.8809
1487.0206 664.4933
1502.0284 669.56165
1498.617 679.76056
1512.9352 685.01733
1513.9292 698.9406
1536.43 696.9147
1552.3506 694.442
1554.6786 721.75757
1582.3159 738.30444
1564.1882 751.9826
1576.421 769.43555
1565.2334 786.5691
1553.0653 785.09595
1557.1455 774.831
1542.7994 770.6211
1529.3544 782.31165
1511.9219 777.22406
1527.3499 761.66064
1525.3296 742.06213
1523.2056 729.94434
1506.8116 742.30707
1481.8777 754.4812
1497.605 767.4647
1493.0468 780.8693
1458.8094 785.6928
1457.0486 771.3759
1455.8092 759.8906
1450.8147 775.2458
1432.6866 777.0436
1414.312 770.21625
1399.5127 778.39136
1370.6584 785.3572
1359.3113 786.2487
1344.7756 786.3956
1353.0468 769.7314
1341.4384 758.04114
1336.6384 776.78235
1319.4532 785.2287
1322.029 762.2261
1322.0457 740.8297
1336.0388 749.00635
1338.1927 736.74316
1373.803 743.02606
1402.1875 745.83563
1421.4214 738.04706
1435.7635 723.86145
1433.7444 709.979
1444.2935 702.57074
1456.3999 704.5988
1451.025 718.8786
1443.3406 741.37787
1455.1907 735.5839
1471.3169 735.9905
1464.471 723.621
1463.9468 714.00165
1468.2092 704.84937
1466.4314 695.1631
1475.5511 696.29785
1479.4927 703.3395
1478.9684 712.12195
1482.4445 723.07227
1500.8906 719.5073
1499.2938 708.7749
1497.0343 692.4194
1485.4236 695.5478
1483.2815 686.5019
1485.071 674.1017
1475.6528 664.7234
1473.3418 672.4486
1464.6984 678.59534
1478.2007 680.3208
1471.5662 687.632
1460.0745 690.50824
1454.9178 684.62964
1447.0073 678.2974
1441.9382 685.6303
1439.5193 693.7338
1425.9958 701.12646
1424.5247 692.0107
1424.262 681.9393
1432.366 687.4557
1435.061 677.8857
1440.6556 669.0355
1452.0293 654.83765
1436.5002 660.5538
1427.5193 671.5835
1422.6444 661.23035
1415.2593 669.9933
1412.0508 679.45746
1410.8928 691.79553
1395.9058 687.7795
1385.9905 682.71326
1394.7928 674.75635
1405.4143 665.2749
1394.235 660.6604
1373.6687 663.85
1377.2418 677.20636
1382.772 694.24506
1407.904 704.5967
1418.4266 710.0779
1398.7349 711.03516
1391.5153 722.94214
1367.0841 704.3632
1371.9319 696.72723
1354.9583 697.02954
1346.7844 689.6259
1335.559 689.0593
1333.2144 698.3888
1326.4608 710.27966
1323.8756 701.11664
1321.5894 693.08044
1327.4968 688.071
1330.5829 680.2053
1319.8425 679.9861
1318.5449 668.1461
1326.2548 670.3307
1334.4332 671.7959
1342.1945 671.03345
1340.7197 680.56537
1349.6246 679.5654
1354.286 687.4225
1362.053 685.663
1371.3516 686.7534
1360.3584 676.52423
1350.9178 670.6613
1350.7301 658.9439
1336.334 655.25226
1323.8784 649.01556
1321.0994 631.18115
1322.4 607.031
1340.034 609.5123
1339.0972 620.2258
1343.5076 631.5955
1352.1761 632.84357
1350.4701 642.0854
1359.168 645.4264
1369.3947 647.07056
1368.8125 639.0393
1360.9835 634.46704
1357.102 624.8601
1376.9696 618.67175
1411.3333 629.088
1444.675 610.4629
1394.082 614.10693
1368.429 609.7643
1366.6843 603.4552
1360.1827 607.0581
1361.7377 616.7362
1353.986 615.4889
1347.6943 623.21564
1346.5623 613.0084
1352.5928 605.54974
1347.5924 599.8238
1342.5433 593.1211
1337.6482 601.37695
1330.5479 596.7362
1331.6179 589.41345
1341.0798 584.97473
1350.3779 586.9957
1348.5281 576.501
1341.002 568.97595
1340.5295 576.95276
1332.1128 581.13275
1333.0066 572.73505
1333.8776 564.2077
1341.4036 559.8523
1347.5508 565.5397
1347.9612 555.21387
1342.276 550.4152
1335.459 554.42224
1335.1074 547.42017
1337.5929 541.22345
1337.0605 533.8724
1337.2565 526.68256
1335.0542 518.6776
1337.9749 510.72028
1341.9138 514.713
1343.2301 522.0163
1346.5005 528.1821
1344.0812 536.4503
1347.8179 544.4107
1350.7996 534.54156
1353.9116 524.8458
1355.9935 517.14294
1348.8914 516.74066
1354.5403 508.9526
1347.3582 507.89645
1342.4332 502.59274
1347.8523 496.07617
1352.5449 500.66138
1357.826 492.99652
1359.8522 501.7657
1366.4429 497.61108
1368.7051 490.55853
1375.4536 495.43994
1379.681 487.33176
1383.468 493.6173
1387.8137 499.64764
1381.2839 503.16595
1373.717 503.3357
1367.2087 505.60388
1361.5203 510.14853
1363.331 517.6623
1369.0955 512.667
1373.1182 518.03107
1376.7426 510.80103
1384.3291 511.53674
1380.8699 518.6006
1387.569 521.48303
1395.0084 522.8922
1402.8757 522.991
1410.5022 523.4988
1419.0034 525.53064
1427.6808 528.31445
1436.1062 528.03094
1444.4194 528.6507
1449.6503 522.73486
1457.0171 521.9008
1458.3433 513.4493
1462.0093 504.68842
1453.6351 505.09686
1455.766 495.30713
1448.1119 497.84033
1445.8323 489.87497
1453.7285 486.66718
1463.6112 494.78052
1472.8329 494.50397
1469.7593 502.7301
1468.4298 512.8165
1465.2554 521.0644
1473.187 522.6152
1475.163 530.9262
1480.6707 537.8304
1481.1208 545.6201
1486.1835 550.03394
1489.7625 542.3293
1497.7732 539.0548
1503.0444 533.0249
1509.1542 527.81866
1512.9749 521.4868
1511.1335 535.0913
1505.6198 541.77374
1512.9585 544.0647
1513.7559 552.11884
1519.2253 555.2438
1521.2732 545.8281
1517.7616 537.97235
1523.9508 535.73083
1518.2827 528.57886
1527.3119 527.1183
1535.7842 525.9392
1544.271 525.8098
1550.5398 520.17474
1544.226 516.49097
1537.0784 516.5878
1529.6597 518.3232
1521.6016 520.27356
1516.2272 513.7156
1508.1086 515.52454
1501.4205 512.61127
1494.2007 509.53644
1493.8531 501.88837
1486.9482 499.5866
1485.4156 507.82248
1487.8745 515.6749
1495.8225 518.72815
1503.1113 522.5517
1496.8129 528.3093
1489.896 524.45825
1490.9867 534.247
1483.9237 530.41125
1481.91 522.5626
1478.4287 515.2701
1476.2715 508.18893
1478.7684 500.9121
1481.6412 493.45093
1491.0524 492.0503
1498.314 488.26706
1498.3351 496.17896
1502.3156 503.75107
1509.3914 507.5687
1511.5408 499.74738
1505.6108 495.07312
1506.1848 486.7623
1505.1575 478.84555
1497.3569 480.65533
1490.0132 482.4494
1484.7847 486.65497
1481.2988 478.20496
1474.8853 471.78577
1467.3262 468.74814
1462.3586 475.29364
1470.9993 478.99152
1476.8842 485.97235
1468.6112 487.3282
1461.4478 484.24622
1453.5874 477.6887
1445.7776 480.91135
1438.7356 477.33484
1431.7478 479.82227
1437.3179 487.05377
1430.71 493.1999
1439.2803 496.56104
1432.8809 502.12085
1430.2118 510.7916
1438.3652 510.2356
1444.0176 504.81323
1448.4028 513.2344
1441.2019 519.23804
1433.0105 519.12244
1425.1119 520.0571
1422.2798 512.6687
1423.7808 504.9591
1416.1129 517.19464
1408.5498 514.88995
1399.9535 515.02264
1391.7144 514.8323
1390.1743 506.72986
1397.6671 506.7247
1405.4862 507.59485
1415.1685 507.46637
1409.225 500.88095
1415.507 497.63068
1423.7571 497.92896
1420.8401 490.64206
1413.0605 488.8885
1406.2906 491.73767
1401.9484 498.42242
1395.1343 498.34985
1391.3542 491.5573
1389.834 483.8971
1399.062 488.07602
1399.9363 479.5849
1408.3912 481.78082
1408.2966 472.5957
1416.2189 473.40256
1418.1249 481.89917
1426.7441 485.56244
1425.0173 475.61066
1430.4042 461.61743
1422.9863 466.80817
1413.2863 463.5315
1406.5881 456.7894
1405.7479 446.04315
1414.6981 452.0669
1422.3833 456.65997
1424.8834 445.7955
1432.3353 452.63586
1439.5822 460.64154
1439.113 447.2508
1442.9307 436.63544
1435.4644 429.64682
1433.1013 439.9037
1425.5492 433.98984
1416.2949 433.43115
1415.6799 442.52435
1406.8328 435.52948
1409.3967 425.14746
1418.747 424.41577
1428.3418 423.53235
1438.5914 419.31354
1444.6396 425.96667
1451.2574 430.88644
1454.4518 438.55795
1463.7413 440.52454
1472.634 437.4995
1468.9496 430.30225
1460.5758 430.49347
1465.0929 420.64752
1474.4639 424.45343
1480.8499 430.24878
1481.3265 438.47787
1481.0831 446.93112
1472.4646 446.2324
1464.7139 450.9094
1456.5455 456.48102
1456.4353 447.6837
1447.8994 444.76816
1446.5062 453.76324
1449.0911 462.4658
1433.6647 469.84424
1444.1608 470.47836
1453.7461 469.9692
1459.3483 464.63574
1466.4741 460.1975
1472.65 455.192
1476.1876 463.42273
1480.3461 455.08948
1485.706 461.25818
1483.4224 469.55182
1490.3285 474.56152
1492.4795 466.43506
1498.81 472.3209
1506.3615 469.74362
1512.6147 474.7829
1513.8848 482.7237
1520.6191 477.0499
1528.5588 473.603
1534.7952 479.08783
1541.9993 482.4013
1543.1958 490.13544
1541.7642 498.37347
1533.8069 499.03442
1527.3091 493.01202
1534.8578 489.1397
1527.5455 483.09668
1520.7793 487.47662
1513.262 491.21738
1519.5769 496.7557
1525.9307 502.36713
1517.7853 505.5428
1524.4175 511.27728
1532.3966 508.59836
1540.3657 506.9901
1547.7413 509.16928
1550.5321 502.37823
1550.1855 495.18405
1552.1134 488.26105
1549.8759 481.2556
1557.2942 477.967
1564.4689 475.5777
1572.1525 475.34875
1577.2999 479.9267
1575.1025 485.83105
1578.1808 491.64612
1580.127 498.45728
1583.4149 509.2663
1575.9934 504.3662
1567.8679 506.54843
1569.0933 498.43878
1567.708 490.8687
1567.0841 482.5035
1559.7388 486.2728
1559.425 495.46222
1559.2339 503.95825
1561.62 512.2228
1554.0896 512.37744
1558.4901 520.00073
1553.7067 527.2743
1562.35 527.59406
1572.1157 526.84247
1566.1461 521.3552
1568.7561 514.73224
1575.8676 512.37897
1574.7505 520.5082
1581.4111 526.44684
1589.6775 524.723
1582.2168 518.4333
1589.5557 516.2988
1598.2996 516.3767
1597.8984 523.9883
1606.8141 522.453
1615.5869 521.427
1607.2805 513.40564
1604.3518 501.58832
1600.029 507.70612
1592.4115 508.6303
1587.8245 502.08197
1595.843 498.09515
1588.0552 493.3858
1586.6013 485.6751
1585.8531 478.3753
1592.853 471.05566
1595.6426 478.73776
1596.129 487.46066
1603.4451 492.42868
1611.0844 496.2363
1612.4141 505.28806
1616.9675 512.75684
1626.4617 511.40842
1624.7661 519.6476
1634.1477 516.4793
1640.5208 511.51917
1647.5686 507.91736
1651.3596 518.58154
1655.2378 511.86523
1657.1627 503.5218
1658.9501 494.6245
1667.7375 492.1891
1675.3395 488.34436
1683.8582 485.07684
1681.3856 494.74106
1674.5542 499.64996
1665.956 501.1383
1663.4794 510.28918
1661.4747 519.3941
1657.6151 526.81104
1660.3201 535.287
1667.4736 531.3273
1669.8965 524.4591
1670.4688 516.35
1671.9264 508.0072
1679.454 512.1907
1681.8256 504.21216
1688.6143 509.03867
1689.0776 499.5537
1689.74 491.8175
1693.6519 484.59265
1692.711 475.65143
1700.6248 477.9333
1708.7383 477.2031
1707.4376 468.67065
1698.5945 467.52332
1703.4266 458.32874
1697.5632 449.76498
1692.0352 458.5584
1688.1301 467.0191
1684.0624 475.79355
1675.917 478.01306
1667.793 481.8474
1659.1948 485.14767
1650.812 479.4995
1642.5684 474.16718
1632.7451 473.04468
1624.37 476.71347
1633.1637 483.10748
1642.2822 486.3871
1650.3209 490.05087
1649.91 498.7893
1641.4382 499.41455
1635.254 493.36606
1632.49 503.87207
1622.3741 503.6969
1619.1072 495.79083
1627.121 493.35336
1622.2966 485.17902
1613.772 487.30078
1605.7988 483.89948
1604.8113 475.8405
1602.8003 468.16635
1599.6155 460.8916
1590.5033 461.12338
1585.634 467.64804
1580.6445 473.0832
1576.9916 466.86572
1570.2349 469.13434
1566.6001 464.11102
1561.6648 469.45374
1555.0449 469.4676
1549.1504 473.62985
1541.7119 473.67145
1535.4102 468.95578
1529.1833 463.62524
1522.3989 468.20117
1515.04 466.55917
1521.5376 459.13342
1529.1329 454.65912
1536.407 459.46863
1542.366 464.3662
1548.6802 465.13806
1554.7146 461.45465
1560.6411 461.68195
1557.894 453.67108
1550.1378 456.5422
1543.3635 454.78082
1536.4202 450.48102
1533.2188 442.88794
1525.7031 447.29257
1518.7649 450.8006
1513.3312 456.74304
1508.1725 461.74313
1500.5415 462.99628
1494.5424 457.70724
1488.5192 452.08875
1497.0021 448.80115
1503.728 453.7979
1510.1885 448.39767
1516.6216 442.31808
1524.8438 438.237
1512.6062 433.50867
1518.5493 425.87085
1508.8937 425.4239
1509.1451 417.24316
1503.7343 410.74933
1500.0016 417.66245
1498.9838 426.11633
1502.9185 433.33862
1504.7892 442.29596
1496.9363 439.87634
1489.0762 443.03925
1491.0547 433.9842
1489.5846 426.29807
1482.6692 420.20184
1492.0419 418.3722
1494.953 408.60254
1502.1494 403.2763
1502.311 390.1396
1497.9761 396.12457
1491.6731 400.56567
1489.1143 392.19818
1494.0878 387.29684
1498.962 382.86032
1506.7607 381.95508
1514.5685 383.08026
1509.617 389.79645
1507.9669 397.9068
1515.895 400.65894
1511.7815 407.94812
1521.3002 409.34692
1517.5796 416.75412
1526.4299 420.12878
1529.8649 412.99506
1524.987 402.40732
1522.8923 396.0816
1516.6775 391.55817
1526.0563 390.5006
1531.8362 386.59973
1539.107 388.50378
1544.0852 394.029
1533.137 395.93036
1532.0591 404.81454
1540.3418 401.02972
1546.4102 406.71844
1551.4033 400.24948
1554.005 409.8694
1546.1494 415.90332
1538.6519 410.16376
1537.539 418.98102
1533.418 427.00696
1541.4185 427.13617
1549.7367 424.0329
1555.6483 417.91022
1559.7799 425.2129
1556.9966 435.25998
1548.0328 432.08313
1539.4762 436.12817
1542.5161 444.70532
1549.7991 440.49622
1549.8572 448.88098
1556.8004 445.37497
1564.2229 448.4023
1570.8435 451.35718
1565.6648 456.38306
1572.5892 460.39365
1577.1897 454.9012
1581.6333 461.07
1584.674 454.5395
1592.5104 453.7627
1600.0399 450.0398
1600.4333 442.31613
1608.548 444.49243
1615.9939 447.87976
1612.8765 433.90683
1604.2192 434.9557
1595.1941 436.81732
1606.1428 426.07428
1614.7871 423.1599
1616.2539 413.21542
1607.2534 416.00238
1599.394 420.0714
1597.1189 428.50836
1590.6648 422.41293
1584.5068 427.12436
1589.356 432.08127
1592.4163 445.31433
1584.5891 447.2644
1586.6417 439.48352
1580.6211 433.3867
1578.5474 440.53757
1576.8851 447.43488
1570.1823 442.45038
1562.84 440.31174
1565.206 432.1277
1572.3298 434.7534
1574.9937 427.0418
1568.0759 423.3435
1563.8479 414.96213
1560.9502 405.89917
1570.3756 406.6816
1574.1494 416.7611
1582.0426 420.7275
1584.6382 413.5726
1578.6938 408.252
1567.6001 399.64047
1559.0339 396.69016
1551.8541 390.9073
1560.7744 387.35712
1566.7994 391.85437
1574.6066 391.99426
1577.399 399.48438
1583.4238 391.06946
1578.1113 383.40192
1569.3456 383.37292
1572.6671 374.84213
1581.8208 374.07654
1583.3525 365.0595
1573.9282 365.01093
1563.3406 360.92645
1554.255 356.69983
1556.2485 367.08737
1565.2947 369.5802
1562.1713 377.5737
1554.6256 382.7367
1546.2312 383.34018
1537.8632 379.92404
1529.6055 378.64075
1526.8477 371.07532
1522.4819 384.4112
1520.9893 377.39844
1518.3562 370.92328
1512.5363 375.40912
1506.4504 372.836
1500.7512 376.53064
1491.9977 377.70197
1486.6472 382.8866
1480.8694 387.972
1475.981 381.25607
1482.1522 375.78473
1487.6078 370.3685
1496.1711 371.3999
1493.0414 365.30927
1499.1753 361.0748
1502.4558 367.10168
1510.6605 365.92465
1517.695 364.90155
1518.4678 358.79773
1522.1313 353.38803
1525.2384 346.92245
1532.4182 343.467
1537.0677 350.86237
1530.5735 355.48364
1525.1106 362.45404
1532.1462 364.77734
1536.8724 371.11725
1544.5931 374.0367
1552.8517 374.81122
1547.1759 365.11438
1539.0992 361.09344
1545.3553 354.62457
1556.8386 345.95554
1563.7549 351.5374
1566.8904 342.5833
1569.0955 333.91235
1568.9575 324.98492
1569.8899 314.33966
1562.2056 318.27045
1553.058 316.0068
1558.1261 326.89233
1558.9978 336.21472
1549.5131 335.21396
1548.8727 345.76672
1541.3641 343.18857
1539.0364 335.66583
1529.4924 334.35004
1520.5548 340.1875
1520.219 332.13586
1526.4323 325.06952
1534.8176 321.09113
1534.4392 328.3014
1542.6517 327.953
1549.8091 324.22717
1543.0 318.79095
1544.7725 310.84174
1551.2959 305.70056
1543.8395 301.1023
1549.8164 295.00262
1544.2144 286.91898
1536.9612 282.72278
1530.5725 286.96655
1539.5098 292.26953
1535.7933 297.9546
1537.3015 305.90207
1536.1357 313.5086
1529.5032 309.54327
1527.7163 317.02716
1521.6978 311.77594
1516.2517 306.08597
1511.8396 300.6853
1515.6072 294.65784
1521.3419 298.52582
1523.1881 305.05725
1529.6206 302.1797
1529.0164 294.81277
1523.5334 290.0452
1527.6702 277.6708
1518.9913 273.23474
1520.408 281.64023
1517.2402 288.3465
1508.0399 293.57968
1500.5117 295.528
1504.1335 302.7819
1496.9016 305.28955
1492.4036 298.33484
1495.7961 288.8521
1488.7703 283.16254
1498.2137 281.1672
1503.9338 286.35175
1511.6265 285.7624
1510.1431 278.98682
1509.9915 271.2437
1502.3374 274.3565
1496.779 268.32886
1492.1235 275.55704
1487.9773 268.2008
1479.6909 266.22247
1474.9585 272.2071
1482.5641 276.48022
1480.0009 285.82224
1485.6034 292.35373
1483.9688 300.66
1488.4486 307.17926
1476.7257 305.3244
1467.7886 307.86725
1465.3433 317.67316
1473.894 314.74005
1481.5858 312.6962
1488.8289 315.7434
1495.7755 313.72745
1502.9473 311.91864
1509.1326 308.65756
1514.0363 313.87323
1519.3826 318.62842
1518.6328 325.17703
1511.9158 324.7658
1511.8564 332.6011
1512.0892 339.78583
1515.345 347.82208
1512.6768 356.06247
1506.15 359.59567
1506.5845 351.56488
1499.5986 353.4586
1492.5585 350.88995
1492.4873 357.89807
1485.9792 361.28955
1480.1045 367.0637
1473.6771 372.3845
1467.6378 377.53232
1462.3967 383.86853
1454.558 381.48227
1451.3135 389.70923
1446.8273 398.77765
1455.5383 398.7016
1460.6888 391.93982
1469.8953 387.70862
1474.7129 393.9189
1482.4565 396.56763
1484.5071 404.1806
1487.2385 411.92416
1478.926 410.6296
1473.6603 416.5295
1468.384 409.83652
1474.9009 402.9049
1467.048 398.22543
1461.2263 404.87448
1458.7073 413.5559
1455.1399 422.1889
1447.846 416.20972
1451.3182 407.42807
1441.6465 408.31696
1432.0718 413.9591
1422.571 415.32748
1412.492 415.50168
1416.3704 407.18903
1420.3318 398.94623
1425.3782 406.30328
1433.8447 404.9198
1439.0298 396.82654
1442.9464 387.84286
1446.1174 378.44208
1437.2517 380.13898
1433.6555 388.40366
1429.9424 396.99265
1423.5002 391.10083
1426.3159 383.55524
1429.2294 376.0289
1429.4728 367.46918
1438.0271 371.44037
1445.1458 367.04053
1437.4858 361.61346
1428.8481 358.42566
1427.2671 347.18967
1433.5828 351.37384
1441.3298 353.60657
1447.8308 358.6965
1451.7793 371.68152
1459.6028 373.93365
1464.6216 367.4797
1471.8767 364.23175
1469.7236 356.79376
1462.2842 357.9922
1455.5667 363.7213
1455.1744 353.3961
1448.7806 348.2368
1461.5264 347.21606
1469.1743 349.02316
1469.1283 341.2074
1470.9957 332.536
1477.099 337.94385
1480.1946 344.84198
1476.4076 351.17328
1478.3896 358.82037
1484.7781 352.54205
1489.3435 344.56113
1485.658 337.5298
1494.5121 337.74557
1498.7881 345.01398
1506.882 344.8414
1503.3297 336.7411
1497.5847 330.00955
1504.8448 327.77637
1508.4458 318.4857
1500.7938 320.60922
1492.9048 322.823
1489.0608 329.9944
1480.2139 329.9987
1483.2139 321.89554
1474.1182 323.32178
1465.9155 326.56497
1458.3638 325.89813
1461.5028 335.49817
1455.2125 341.61908
1451.5366 332.0473
1450.637 323.21283
1443.6157 324.4654
1436.5724 325.0581
1432.0188 331.5967
1440.8265 333.59436
1446.8916 339.07822
1440.6561 344.87708
1434.0951 340.7135
1425.908 337.57037
1424.8947 327.2882
1431.2673 320.00912
1423.6489 316.86865
1415.285 306.27985
1398.8044 307.78766
1406.565 304.07175
1414.5796 297.41663
1418.3142 289.02167
1409.5044 283.9992
1405.7213 293.9566
1399.7423 287.1432
1390.396 282.03674
1381.62 277.67603
1392.5989 272.28854
1400.6819 277.3365
1409.3457 273.58942
1411.4414 265.1503
1412.3774 256.89136
1403.1289 257.17487
1401.0574 266.60312
1392.4131 260.66858
1384.28 255.47728
1380.8951 265.17056
1371.8503 269.93338
1364.8315 265.28094
1364.5824 275.52573
1366.8793 283.68738
1368.4141 297.0756
1360.3081 293.96515
1357.3788 283.08636
1347.9481 286.0589
1353.4875 291.62155
1355.3119 301.35913
1361.9586 304.05426
1367.8647 309.46646
1376.7454 307.9566
1385.5286 301.86417
1390.9231 292.99213
1396.2446 299.7724
1390.2542 309.66943
1382.2521 312.34875
1373.8922 315.36758
1366.6697 318.4152
1363.8729 325.6872
1357.4143 330.1401
1358.3047 321.05133
1360.4276 312.99738
1353.7374 309.37088
1352.2793 316.47327
1346.883 320.30975
1352.8711 325.6014
1347.8555 328.7796
1341.1575 323.3946
1337.9656 318.01416
1342.8167 313.16406
1346.8247 307.0091
1334.3112 308.40097
1339.7625 302.3622
1348.5826 298.91153
1343.9185 292.9393
1336.5903 295.12213
1329.5942 298.12573
1329.7341 289.07208
1338.1047 284.48044
1339.1399 276.32587
1348.0356 278.97046
1348.6713 270.98657
1356.4187 273.47778
1356.2432 264.06775
1363.3712 255.5446
1373.2354 257.8153
1369.9397 246.16733
1378.47 247.75145
1387.9312 244.91312
1379.0996 237.36406
1369.6146 232.95349
1378.2169 225.6491
1388.5889 234.17809
1388.279 224.55609
1389.6763 216.45328
1398.263 212.35905
1403.2458 219.81818
1397.8173 227.85663
1397.5405 239.29076
1395.81 250.37608
1405.6741 247.09921
1415.0796 244.65985
1423.8127 237.89685
1431.75 250.42526
1435.0691 242.07916
1439.2231 233.04266
1431.1533 233.67822
1416.31 235.1881
1406.8909 237.03026
1407.7074 227.9517
1416.1697 226.81335
1423.6914 223.29373
1431.982 226.00354
1439.6705 223.71948
1445.7137 218.80768
1437.3948 213.27649
1431.0963 218.10802
1421.7986 215.08763
1428.3914 209.86491
1426.9464 202.28569
1417.8004 207.06834
1413.9283 218.81554
1409.3792 212.37503
1407.7603 205.11267
1400.5048 203.39336
1393.6119 203.95801
1393.0859 194.7985
1391.3218 185.99783
1388.2538 169.03342
1390.699 177.8593
1399.7212 185.85716
1402.3948 195.1271
1408.8461 189.03197
1411.8639 197.8496
1420.1917 198.11473
1419.4294 189.7871
1426.5155 184.09856
1435.7816 181.69238
1430.3274 175.31653
1433.2922 166.49376
1439.0625 172.2027
1445.033 178.80783
1452.9702 184.19272
1443.6018 185.54265
1435.9313 191.04355
1428.9043 193.9863
1435.4341 203.338
1444.6174 192.29105
1442.0665 199.50137
1444.1992 209.23517
1452.8407 213.65637
1454.6099 221.94843
1457.9946 228.8441
1465.9001 231.11644
1469.6621 239.02432
1476.1619 244.01282
1479.9523 235.51056
1474.4863 229.03036
1467.5975 221.97765
1462.4033 215.22307
1473.0441 212.23509
1484.6328 210.6655
1497.9316 207.99304
1491.6007 217.41296
1478.4811 220.01895
1484.925 226.28119
1493.7156 228.17577
1489.1868 235.88657
1485.4973 243.84909
1480.6959 251.40276
1476.1367 258.04663
1470.1317 251.21619
1463.4065 256.96448
1461.7128 247.01065
1460.194 238.54106
1452.2324 237.0532
1447.592 229.252
1444.1675 239.84892
1451.3425 246.39331
1442.1014 248.53674
1438.1292 255.87924
1438.7627 263.707
1439.48 271.2721
1443.6598 278.44965
1443.596 286.14197
1447.5378 291.8523
1449.3148 299.23364
1451.626 307.12216
1441.5544 305.0722
1432.5706 301.36694
1438.8733 294.97546
1435.5559 285.19632
1433.6552 277.12296
1428.9719 270.17493
1430.7257 261.2992
1424.1599 255.64049
1421.105 262.93707
1419.9313 271.45483
1417.8556 279.42517
1426.191 281.6568
1429.3135 291.03256
1423.8606 297.53094
1423.8793 307.0062
1431.7556 310.51822
1439.1146 314.70633
1447.0286 315.01483
1455.9812 316.8072
1459.8438 309.72595
1459.3057 300.71378
1455.859 291.3546
1452.9636 282.73212
1463.2494 282.90775
1463.657 292.31772
1469.0583 299.25333
1477.1753 295.49503
1471.3015 289.1677
1472.8461 280.5761
1466.9794 273.4926
1458.5195 274.64368
1450.5315 273.297
1446.8038 265.93222
1447.1455 256.6983
1455.4019 254.20592
1454.7158 263.69305
1462.1418 266.12164
1470.2288 263.58698
1485.6334 259.76678
1495.0126 260.30255
1489.9304 252.54257
1494.6072 245.86687
1497.8877 238.77438
1504.7288 245.95337
1500.3445 253.71397
1504.4357 263.69202
1509.5845 255.71774
1516.6445 249.03409
1519.6237 258.95465
1514.5193 264.81604
1526.1646 267.42688
1535.4778 274.9184
1536.362 267.79706
1544.8602 263.13995
1546.0864 278.4754
1551.7661 285.48465
1558.2273 279.5915
1568.471 270.3762
1567.4241 283.83636
1574.7252 290.6637
1566.5518 294.63986
1558.775 289.9823
1558.1293 299.68048
1559.5334 309.39975
1566.8074 305.14682
1576.7074 306.23068
1578.7963 320.54398
1578.9939 337.68024
1575.4807 346.6341
1571.4974 355.86935
1580.7013 355.32782
1589.5415 357.8855
1597.5797 359.70728
1605.9521 358.3352
1615.1877 356.45908
1623.8966 352.1988
1628.4653 360.19434
1620.1626 363.482
1611.0986 366.94174
1612.45 376.83777
1604.4574 379.54364
1601.8986 369.7684
1591.6924 369.71237
1595.3774 378.87457
1587.0756 381.51282
1592.575 389.60645
1597.0991 400.29608
1589.5316 397.14584
1584.5305 402.71136
1590.8698 407.0503
1592.6931 415.01837
1599.0542 410.2467
1605.6782 406.54126
1612.9252 404.16266
1614.6584 395.44858
1604.7219 397.0149
1599.8411 388.29803
1608.1105 388.38828
1616.0176 386.4587
1622.2346 382.24936
1629.6641 378.3672
1620.4526 372.81287
1628.8271 369.2426
1637.2557 364.2791
1647.2545 361.0705
1641.2678 355.72726
1634.2837 353.62302
1632.5886 345.77808
1642.2029 344.16608
1648.6255 350.79028
1652.3767 341.03955
1658.0366 348.38278
1656.4681 357.0808
1654.2805 366.28146
1654.8145 374.27548
1653.6709 382.36713
1660.3892 388.41046
1666.6655 383.02597
1663.6123 375.0018
1662.8619 363.66855
1670.8579 367.18027
1674.3306 374.55945
1683.6888 370.78574
1680.5088 362.61945
1672.269 358.26523
1666.7378 351.41827
1662.9485 340.50842
1673.4595 341.22147
1683.8672 342.00653
1693.3524 339.9698
1693.1433 349.39465
1678.3815 350.5218
1687.2961 355.8741
1692.0663 365.26807
1699.0172 358.2281
1704.0817 365.1048
1705.0208 374.0901
1697.1893 373.15485
1690.2104 377.44843
1682.796 380.55023
1675.5232 383.3371
1671.5076 390.58774
1664.823 397.1349
1673.8904 398.0072
1677.0107 410.57944
1677.6531 419.2162
1667.4841 415.88312
1660.7983 422.52924
1653.4626 415.94177
1660.6743 408.29047
1669.7119 405.84628
1656.4602 399.10165
1650.471 406.99646
1646.3738 397.97583
1652.0457 391.15204
1643.8629 388.74802
1645.2029 379.06464
1645.5806 370.00607
1637.3088 373.87274
1637.0343 383.96323
1629.5342 388.17432
1624.4355 394.52637
1621.6584 403.13327
1635.8843 395.15155
1640.3369 404.0785
1631.5559 404.41052
1625.9585 411.48676
1625.0786 420.79303
1622.7709 428.9912
1620.4478 438.89368
1630.075 434.94525
1636.732 428.34653
1633.9667 417.78687
1641.7456 412.55634
1644.3447 421.98288
1653.0317 426.60327
1647.763 433.5642
1641.2776 439.3896
1634.012 444.13583
1625.7306 447.63293
1618.9532 457.08246
1608.6116 456.36945
1613.26 466.1206
1614.7102 476.3443
1623.7013 467.06244
1628.2734 458.05444
1636.4115 464.49054
1636.4662 453.90143
1644.8873 450.26367
1652.1284 443.75708
1659.1174 435.5929
1673.2577 430.99057
1681.6039 439.50793
1675.6221 448.34058
1669.3608 456.9026
1669.9442 440.0932
1662.888 447.47565
1655.8691 456.03528
1645.9713 461.47845
1652.6449 468.41107
1660.4922 474.88095
1662.5951 464.05316
1669.7207 470.43945
1677.9268 466.53708
1680.7422 457.4994
1687.0544 449.08884
1692.1416 440.0466
1693.7012 429.7777
1686.2201 424.43958
1686.1185 415.54636
1695.0092 417.75385
1700.359 422.9099
1706.3512 415.77817
1701.685 409.30225
1710.2277 406.7265
1714.7386 413.6285
1715.6758 422.00668
1708.615 424.3949
1703.5728 431.3198
1700.9636 439.30527
1705.9473 445.937
1710.9199 437.95697
1715.7355 430.75446
1720.2234 439.72034
1716.4917 447.4184
1715.4465 455.75763
1716.511 463.5589
1717.7117 471.27875
1717.4856 478.879
1712.184 485.68954
1703.4998 486.55377
1698.1709 493.60052
1703.0144 500.2524
1708.5024 494.42587
1715.4519 500.6996
1708.2019 505.5633
1701.4036 509.40472
1695.5859 503.42572
1694.6741 513.8966
1695.5203 522.6793
1696.0634 530.1779
1691.8508 536.4015
1678.0242 543.26654
1684.2806 536.70276
1687.2666 527.13245
1687.0566 517.909
1678.7456 520.6356
1678.7842 528.7521
1675.6807 535.3611
1669.4971 539.9957
1662.8107 544.14453
1664.7184 553.92957
1669.6509 548.3724
1676.6217 550.624
1682.5548 555.1542
1679.0464 563.2871
1673.1902 557.9421
1666.9504 562.13025
1670.8903 568.8657
1673.6737 577.2874
1678.0114 584.90405
1680.6274 594.3567
1689.481 600.92993
1693.1617 609.89624
1693.6583 618.6036
1697.6172 626.756
1704.0338 631.3142
1704.4348 639.54535
1695.2771 637.6057
1664.2727 620.9542
1630.8024 613.97485
1614.3513 642.2159
1605.7515 659.4361
1618.8928 659.6804
1637.3389 651.8473
1659.8743 648.6113
1663.508 669.0757
1675.1757 657.8236
1689.2726 666.1863
1690.9287 676.1056
1679.1104 683.13794
1673.2888 677.932
1668.919 685.0012
1675.1345 693.2436
1687.4943 704.9496
1684.478 717.9523
1685.2583 732.86096
1665.959 729.75214
1671.5186 719.56006
1665.3508 705.4945
1664.2179 694.089
1658.298 685.37756
1656.3618 696.4467
1644.44 693.81244
1642.144 673.00256
1631.917 667.3312
1632.4695 677.4726
1630.7742 690.1124
1626.7561 705.3549
1635.3687 720.8069
1649.146 720.35767
1645.6592 737.192
1629.3334 738.74457
1627.9318 752.3346
1638.0369 751.02673
1641.5673 759.87646
1644.4291 771.339
1660.6272 759.4374
1675.11 783.49365
1691.0872 776.16907
1682.5758 758.4485
1707.2737 749.3999
1711.9912 723.59436
1728.199 738.8179
1742.2101 751.5441
1731.4098 761.2629
1740.546 765.6985
1751.044 763.0739
1758.3274 753.35706
1763.0598 732.7411
1746.3905 733.44525
1741.9629 719.29675
1754.4564 705.07324
1766.4294 703.1238
1759.9923 694.7803
1749.0806 693.28217
1737.555 682.8374
1718.8557 696.13495
1713.2212 684.03656
1706.8612 695.6881
1699.8606 689.38763
1697.7561 698.8156
1688.007 695.39026
1688.082 687.34564
1694.7666 683.203
1701.589 678.87683
1708.9121 674.19006
1699.0557 669.86664
1697.4584 661.4021
1696.0012 653.3878
1701.1808 647.1642
1705.9215 656.0202
1707.9639 665.0396
1717.2699 666.86774
1716.3905 657.9042
1713.4529 650.1053
1711.2812 643.49536
1718.8695 639.49744
1712.7216 633.37177
1719.9695 628.04034
1721.8741 618.83765
1724.6533 610.09753
1712.8257 615.0256
1710.5034 624.02344
1702.7988 618.2506
1704.1941 609.5541
1699.1714 602.1575
1697.3815 594.19226
1689.896 591.71606
1687.2335 585.10376
1683.5093 577.8135
1679.5835 570.82635
1688.8746 570.768
1693.461 578.73315
1699.737 585.8808
1706.1226 592.95715
1708.9698 601.4183
1715.9829 606.48773
1723.2831 599.84503
1716.1178 594.5233
1712.3114 586.3096
1710.6704 578.2245
1702.5948 578.14233
1697.6292 569.63916
1706.4753 569.90094
1703.8108 561.0012
1695.4348 561.0088
1687.489 562.5393
1690.934 553.2784
1685.8705 546.04956
1694.3226 544.4805
1700.0902 552.9645
1702.8787 545.604
1701.6262 538.0325
1704.0387 530.60864
1706.2167 523.4834
1701.6804 517.6113
1709.2184 515.16785
1714.4337 508.78833
1723.3967 505.71747
1729.8695 513.1318
1737.9406 509.05463
1731.3298 502.86426
1738.8007 498.36874
1746.0989 505.04132
1755.1355 500.1938
1746.8674 497.5311
1750.456 491.0755
1758.0808 489.84912
1751.4792 483.16113
1743.9313 489.31125
1737.3962 488.08908
1729.2439 484.60138
1731.3777 493.11
1724.2783 496.2053
1716.9917 492.73468
1722.0417 486.12457
1726.6525 475.99374
1725.8098 466.9676
1723.4727 457.51892
1725.1895 448.1534
1729.8252 441.4332
1734.0947 434.57614
1727.3425 433.14862
1729.1562 424.822
1728.5671 416.525
1726.5361 409.27426
1733.4961 405.3921
1738.6527 412.7696
1738.3064 420.34784
1741.2247 426.6947
1745.5914 432.85583
1748.6995 426.66928
1745.7007 419.36874
1746.3978 411.8484
1741.9736 405.80542
1739.8887 398.54468
1732.8043 395.696
1725.8337 391.74536
1725.9836 401.4724
1719.4973 398.38593
1714.0923 394.463
1703.6384 390.791
1696.7559 393.49994
1704.3058 400.03345
1696.2208 401.9886
1693.1738 409.33258
1685.5652 406.70175
1680.4811 400.81467
1688.7916 397.7126
1681.5629 390.9062
1689.5527 388.02426
1696.6819 383.67255
1704.2576 382.08997
1711.303 386.98816
1718.9829 387.5122
1733.6113 386.62366
1735.3175 378.3421
1727.6625 374.36923
1725.9868 382.68823
1719.0885 377.9402
1711.8552 379.268
1712.2313 370.60327
1720.0702 369.07504
1727.0087 365.64877
1721.7732 357.78952
1713.5095 362.30493
1711.3479 354.30286
1703.2207 350.08838
1703.0054 341.0173
1712.1764 343.7848
1720.5464 347.922
1729.4034 351.8203
1733.1274 360.40747
1739.3723 352.8219
1747.2352 348.10007
1750.3293 355.98032
1759.5519 352.21173
1757.001 344.7436
1766.8881 341.1627
1777.7612 336.3824
1786.7947 345.44873
1787.4088 355.542
1796.6871 350.74875
1788.1229 335.45807
1796.9651 338.80548
1807.6125 338.89166
1807.566 347.6533
1812.471 356.45416
1804.9127 356.91455
1799.3752 361.85483
1792.5295 362.98166
1785.071 365.75836
1778.342 362.08044
1778.112 353.69965
1775.8615 345.40012
1768.2639 352.30182
1769.5671 361.98315
1775.4324 370.47485
1770.2177 377.12073
1764.6099 369.59613
1759.8499 361.2982
1755.5878 372.11597
1751.1465 364.88232
1742.4004 362.55566
1736.2637 369.73425
1745.398 372.80576
1743.3693 381.99448
1741.4509 389.8613
1747.6301 394.98056
1748.844 402.0909
1752.735 407.74652
1759.3713 407.7486
1765.8174 404.71396
1769.0741 398.8321
1762.668 393.71265
1756.7675 398.67343
1752.4186 389.23254
1752.1581 380.56494
1762.0571 378.57187
1760.9943 386.05063
1771.5947 386.30963
1778.3794 380.342
1781.5376 387.99472
1779.7808 395.52087
1787.6246 395.4406
1795.6333 393.93445
1801.2545 387.076
1796.9436 380.03476
1791.4226 387.4155
1787.8274 380.80902
1783.558 373.8814
1791.8811 372.4996
1799.7295 371.56442
1806.6755 367.69513
1814.3635 365.67126
1821.3721 375.40808
1812.9373 374.84277
1805.6292 378.62994
1810.9662 385.0997
1806.9521 392.48056
1801.9362 397.96054
1802.1193 405.46594
1793.386 402.69052
1785.086 404.38705
1775.4758 405.09125
1772.5957 411.586
1765.6482 413.59302
1760.071 417.6246
1753.309 415.1223
1753.3689 422.31296
1758.8298 426.0688
1765.6492 423.77942
1771.9373 420.07724
1779.1312 415.74387
1788.1503 413.28522
1795.343 411.148
1802.5039 414.4787
1810.8307 417.14108
1809.684 409.11215
1811.0393 400.99194
1814.6163 393.09912
1818.5151 383.01816
1826.1547 386.1214
1822.2598 392.01648
1830.4534 396.74213
1835.358 406.15512
1839.739 414.45148
1844.0713 421.6859
1831.9893 416.6644
1826.831 411.9312
1826.7198 404.27722
1820.4202 399.73138
1817.9062 408.35153
1820.5724 416.61044
1826.7528 423.85727
1835.6667 423.65088
1834.4497 431.8431
1841.7859 429.31732
1849.0505 429.76685
1851.1576 437.09592
1857.9192 441.49066
1853.2231 447.37582
1858.9922 454.75583
1864.8608 448.55637
1868.9912 458.00644
1874.8827 449.7627
1878.7662 456.17566
1876.3447 465.17334
1876.0537 474.36774
1877.2377 483.13434
1867.3032 469.9126
1861.3647 462.86337
1856.8595 470.22946
1864.1873 479.40686
1869.803 486.61215
1877.0696 495.35358
1865.6562 496.11743
1856.552 489.14618
1854.3584 477.50055
1846.3292 482.81918
1839.029 476.52783
1828.523 500.78607
1832.8406 506.5916
1833.2231 514.34204
1827.9749 511.27136
1822.6263 507.96213
1820.4304 501.54242
1812.0181 499.14807
1814.772 507.42245
1816.1589 514.5989
1823.338 515.8768
1820.2039 521.7099
1827.8684 527.7894
1830.308 520.8961
" />
</g></g></svg>
