<?xml version="1.0" encoding="UTF-8" standalone="no"?>
<!-- Created for Inkscape (http://www.inkscape.org/) -->

<svg
   xmlns:dc="http://purl.org/dc/elements/1.1/"
   xmlns:cc="http://creativecommons.org/ns#"
   xmlns:rdf="http://www.w3.org/1999/02/22-rdf-syntax-ns#"
   xmlns:svg="http://www.w3.org/2000/svg"
   xmlns="http://www.w3.org/2000/svg"
   xmlns:sodipodi="http://sodipodi.sourceforge.net/DTD/sodipodi-0.dtd"
   xmlns:inkscape="http://www.inkscape.org/namespaces/inkscape"
   width="567"
   height="800"
   id="svg2985"
   version="1.1"
   inkscape:version="0.48.1 r9760">
  <defs
     id="defs2987" />
  <sodipodi:namedview
     id="base"
     pagecolor="#ffffff"
     bordercolor="#666666"
     borderopacity="1.0"
     inkscape:pageopacity="0.0"
     inkscape:pageshadow="2"
     inkscape:zoom="0.35"
     inkscape:cx="1600"
     inkscape:cy="400"
     inkscape:document-units="px"
     inkscape:current-layer="layer1"
     showgrid="false"  />
  <metadata
     id="metadata2990">
    <rdf:RDF>
      <cc:Work
         rdf:about="">
        <dc:format>image/svg+xml</dc:format>
        <dc:type
           rdf:resource="http://purl.org/dc/dcmitype/StillImage" />
        <dc:title />
      </cc:Work>
    </rdf:RDF>
  </metadata>
  <g
     inkscape:label="Layer 1"
     inkscape:groupmode="layer"
     id="layer1"> 
     <g>
<path style="fill:none;stroke:black;stroke-width:2px;stroke-linejoin:round;stroke-linecap:round;" d="M 
1672.342 517.0526
1667.6787 513.5501
1667.4988 519.1125
1663.1478 519.0207
1660.7709 515.4651
1658.3062 511.6003
1656.4446 507.88477
1660.4624 506.69662
1663.152 511.38876
1666.8491 507.7586
1663.7167 504.23907
1666.6067 501.68146
1667.8038 496.33508
1671.5577 491.93466
1666.3389 490.1131
1668.1088 484.96188
1666.1191 478.41522
1672.0876 480.636
1674.7689 486.34882
1678.3691 481.0589
1683.4487 479.6395
1685.1034 484.6032
1681.0287 487.80075
1686.0806 491.2093
1685.9258 497.81625
1680.6243 498.4231
1681.3663 493.9308
1676.7263 492.11267
1674.4836 497.69995
1670.9952 502.07745
1678.4454 502.10483
1674.8062 505.2304
1671.6763 508.70404
1674.1726 512.89935
1679.4395 512.9493
1678.1338 518.6968
1672.0847 521.7331
1666.0845 524.8413
1660.7585 523.2627
1657.3373 519.10876
1655.1956 514.7958
1651.0309 516.2198
1646.9728 518.6322
1649.5955 523.466
1645.0002 523.85974
1642.4143 528.9901
1647.5487 529.78815
1643.6095 534.53424
1647.9324 536.3601
1652.7374 538.8274
1658.1968 539.9891
1658.5934 535.26215
1652.3572 533.14545
1652.8285 527.4835
1654.3029 522.2289
1659.1631 527.07825
1656.853 530.8582
1662.9325 531.0012
1667.8458 529.9305
1665.2385 535.9781
1668.3378 540.48444
1671.3805 536.60333
1673.2384 541.45844
1675.3301 544.6273
1679.6692 544.3051
1678.5513 539.1833
1675.7794 534.6499
1679.9989 533.836
1678.3184 529.02527
1672.1438 531.5968
1672.3794 526.4351
1677.3468 524.1968
1682.6091 523.25366
1684.395 517.6272
1686.6144 512.8055
1683.4224 508.88367
1679.1487 507.2561
1684.4121 502.97693
1688.2333 507.12756
1690.6097 502.69513
1701.4658 507.75888
1692.7882 498.85153
1689.6555 495.4433
1694.8696 493.7794
1691.4702 490.80026
1689.6553 486.89728
1695.7308 487.98877
1697.4963 483.0692
1698.1548 477.2031
1697.0701 472.31445
1698.8383 468.26608
1693.3376 468.3872
1690.7944 471.8259
1693.0685 475.61725
1694.1888 479.77707
1691.853 483.42758
1688.8245 479.65295
1687.0889 475.11285
1681.6843 474.40674
1675.7897 474.72357
1670.1194 474.41132
1670.6881 468.45135
1662.9543 469.54382
1656.2125 473.6806
1655.5988 483.21826
1662.2863 483.50122
1658.5078 487.6876
1660.7312 492.13934
1662.428 496.8924
1660.1035 501.7798
1657.0197 498.53387
1653.3016 495.2402
1653.9529 490.4465
1647.6599 492.78134
1642.3994 490.82947
1649.53 487.25024
1649.591 477.34644
1644.5249 483.82358
1638.4536 485.03207
1637.6344 490.87183
1634.2102 493.9582
1632.6791 488.52533
1628.6768 493.28644
1623.959 496.56857
1626.926 500.278
1631.2623 501.93768
1632.6189 497.98434
1638.861 497.6601
1644.3373 497.2295
1647.0337 501.83698
1651.3418 499.82764
1653.7765 504.41782
1651.9988 510.47913
1648.095 507.1727
1645.9702 513.06433
1642.7085 508.47763
1641.7776 503.42297
1636.6436 503.1112
1637.0315 509.20917
1639.9409 513.2668
1641.4607 517.8688
1640.6907 522.46533
1635.2059 515.8619
1629.1467 514.82526
1631.8824 511.12732
1632.9929 506.38318
1628.386 506.18286
1626.0516 510.92664
1624.483 516.82385
1621.6095 513.47034
1616.5902 512.4961
1617.9211 516.95166
1620.2472 520.36725
1624.4082 521.4549
1621.7275 526.16754
1623.5427 530.99817
1624.5413 536.14294
1621.8678 540.7591
1619.0581 536.2632
1617.7018 530.8075
1614.0261 535.0894
1614.9932 541.67676
1611.3853 539.18835
1607.9958 542.8514
1603.5391 545.23975
1606.9552 549.375
1610.6823 546.48444
1617.312 544.8547
1621.0142 546.51514
1625.0835 544.8393
1629.3154 544.0814
1634.2446 544.2791
1629.4541 539.1716
1628.9829 533.7589
1630.8179 529.5073
1626.7568 526.6687
1628.5935 522.46423
1630.5121 518.93066
1635.8035 520.9732
1632.7975 524.9298
1638.2319 525.97
1636.414 529.9968
1639.0994 534.80524
1633.9609 534.9209
1636.4729 539.93616
1642.3704 540.31165
1640.3408 545.79285
1639.0024 551.51184
1634.0537 549.3281
1628.799 549.7645
1623.6448 550.4204
1626.021 554.70154
1622.3556 558.37115
1620.7411 554.2187
1616.9443 556.1288
1618.0608 550.3319
1613.6794 548.83704
1614.022 553.3228
1609.8484 553.8138
1606.0728 556.723
1603.741 552.8386
1601.439 556.8539
1597.9624 558.3815
1601.9734 562.80786
1597.9673 562.9431
1595.2856 565.83295
1591.3767 564.9902
1587.9543 566.57526
1593.7135 569.54474
1590.6079 572.3197
1585.6904 570.1688
1587.0327 574.8147
1582.2799 575.0587
1580.6926 569.90686
1577.2139 574.86774
1579.3488 580.1779
1584.7029 579.72925
1589.2921 578.83374
1593.5844 578.46674
1595.0242 574.47784
1598.7589 573.21436
1602.5728 571.8808
1598.9658 568.06854
1603.6356 567.55676
1607.2717 572.59656
1611.0471 569.5262
1617.6631 569.7002
1615.2551 566.5895
1612.1239 563.84875
1607.6792 566.0459
1605.872 561.4851
1609.6982 559.5422
1613.4534 558.9217
1617.2205 560.5946
1619.6981 562.9248
1620.6013 566.2935
1622.7433 569.97864
1623.9094 573.5385
1618.5007 573.7447
1616.6068 578.3177
1613.1893 573.76495
1610.2167 578.1959
1604.0302 576.8109
1599.4691 578.8842
1596.9619 582.9326
1601.9473 584.64154
1605.935 581.8547
1610.6414 584.40674
1615.448 583.0906
1619.793 585.7226
1621.9116 581.53394
1622.4554 577.3729
1627.5793 579.7118
1628.5367 575.3124
1633.876 576.14813
1632.762 571.9898
1637.1055 569.4697
1632.897 567.2445
1636.5104 564.3866
1640.8594 566.10626
1642.3098 570.104
1647.822 567.8418
1645.3213 564.56104
1642.2311 561.136
1638.3484 560.6708
1633.8685 559.672
1631.1891 562.8866
1628.5405 565.8722
1628.1196 570.41614
1624.7839 566.40436
1624.6266 562.2613
1627.9343 559.61487
1630.3309 555.69305
1634.1868 554.3601
1638.6357 556.49677
1643.8911 555.64667
1644.205 550.4366
1648.2826 548.34344
1647.1359 542.6533
1652.822 544.5149
1658.154 545.7413
1662.8982 541.8958
1667.2422 545.1499
1670.5748 548.40234
1671.7228 553.9074
1666.9353 553.13464
1667.1262 558.7826
1663.7548 562.97266
1667.8386 565.6841
1670.3893 562.2647
1672.6813 558.8533
1675.9421 556.5437
1677.4594 553.17865
1675.366 548.9741
1679.5789 549.76306
1690.1289 554.48193
1679.355 558.83386
1679.7279 564.6377
1675.8672 562.6897
1673.0996 566.2213
1673.2705 570.4806
1678.4517 569.0874
1682.2627 573.5328
1679.8418 577.8641
1676.3755 573.6008
1674.5818 578.10266
1670.3502 575.14246
1668.6437 570.1844
1663.5732 568.48413
1659.3147 561.5513
1654.4642 560.8046
1656.6371 555.97375
1662.3987 556.2612
1663.6616 548.82
1659.164 551.1778
1653.3766 550.8142
1650.0996 555.5286
1646.8706 559.6765
1650.3369 562.7361
1653.2211 566.84436
1650.3689 571.98895
1655.6372 571.68164
1658.5321 567.1819
1661.1482 573.00415
1665.7114 573.97485
1665.1946 578.8084
1670.5598 580.23486
1673.241 584.9436
1677.8334 583.21545
1683.0455 582.20557
1684.3911 588.3114
1677.9006 589.0856
1672.144 589.5326
1667.234 589.6203
1662.1377 590.3281
1664.1658 585.55115
1668.175 584.12714
1661.508 581.35205
1658.5321 576.8567
1652.8738 575.81964
1653.6167 579.9099
1656.8512 582.33276
1659.3048 586.2239
1656.0717 590.34814
1653.9995 586.814
1651.0327 584.46564
1649.3586 589.5619
1646.544 585.1099
1643.1824 582.2101
1648.675 580.92395
1647.6066 577.08484
1646.1984 572.19507
1643.2871 574.6769
1642.2836 578.0768
1638.4146 573.87714
1638.1471 578.7214
1638.2338 582.779
1633.222 580.2484
1634.3832 585.27875
1639.3082 587.0752
1644.0706 588.0287
1641.8722 591.1931
1635.1448 590.0583
1630.1519 588.80817
1630.1299 583.7
1625.5161 585.1002
1624.9845 589.9182
1619.8235 590.002
1614.0002 589.02026
1607.2754 588.75867
1601.8564 590.3755
1597.2268 588.53723
1590.9907 590.8073
1585.8749 589.14844
1592.669 587.77893
1592.8345 583.49445
1588.6816 584.38116
1584.1362 584.0487
1580.8375 586.2242
1579.4004 590.38916
1574.7329 589.1768
1576.0956 584.69446
1573.6492 580.1964
1571.7714 575.24036
1573.5977 570.8076
1576.2672 567.4136
1579.5875 564.33356
1584.032 564.6451
1582.7126 559.7863
1578.1763 559.0118
1574.5289 562.2217
1570.9797 565.9103
1567.9404 570.1994
1562.3069 571.92377
1566.4917 575.3275
1568.0845 579.8301
1564.2588 583.4462
1570.1039 584.65454
1570.0338 589.74146
1565.673 588.79535
1560.8572 589.69507
1556.9187 589.036
1555.2959 584.9208
1559.1058 582.99817
1555.5554 579.787
1553.8499 576.07184
1560.946 578.0654
1558.0973 574.368
1555.949 570.44275
1554.5648 565.81195
1556.7224 561.51337
1559.6523 566.771
1564.285 566.74384
1567.3293 562.7175
1562.3488 561.15515
1559.1519 556.54816
1553.9106 555.2378
1550.8398 559.2731
1548.3257 554.3302
1548.2695 548.40796
1548.2036 543.2865
1542.4941 542.86755
1543.1881 547.174
1538.2098 549.4195
1537.9868 555.1479
1543.2366 552.29785
1543.2585 557.50507
1544.7623 561.41455
1549.8975 563.82275
1543.9553 565.89136
1540.9132 570.7837
1546.114 570.4013
1550.3324 568.5392
1550.9451 573.0606
1544.0625 574.81213
1548.2727 576.81287
1547.7461 581.4047
1551.623 581.2009
1550.5823 585.8287
1552.5632 590.11865
1547.1338 589.5735
1542.1283 591.1904
1536.8948 588.1273
1531.6653 588.6246
1524.752 589.80035
1525.2625 585.0495
1529.5125 583.3653
1533.4714 581.05054
1537.67 582.2363
1541.5073 585.44196
1545.8735 585.4109
1543.3789 580.2651
1539.6226 576.9034
1534.9644 576.13605
1531.4985 573.2107
1528.3538 570.7848
1532.9634 566.80206
1536.3784 571.14075
1538.4708 565.2754
1536.9026 560.33435
1530.9388 561.20856
1532.1951 554.8505
1527.3037 551.96606
1528.0984 547.6621
1523.2253 546.53217
1520.6449 549.8424
1522.417 553.82336
1526.0647 557.76184
1524.9451 563.5871
1527.4707 566.9236
1522.3916 570.0058
1518.0354 568.8723
1511.8287 569.35034
1514.1619 574.2583
1519.0884 575.89966
1525.189 574.36816
1528.92 578.06934
1523.1674 579.45306
1519.7725 584.48303
1517.4775 589.01337
1512.1897 586.37683
1511.9691 593.231
1506.8385 589.8806
1503.5496 585.42944
1508.6932 582.144
1515.1544 580.6693
1508.3052 575.6208
1503.5166 579.1948
1505.5283 570.61444
1495.9121 568.1677
1505.7349 563.715
1509.3713 565.10065
1508.3298 558.4274
1512.7778 562.15356
1516.4027 564.4238
1520.5903 561.8546
1519.133 557.02496
1513.9552 557.49524
1515.3625 552.24286
1515.8303 547.00946
1519.3983 543.48444
1521.0363 538.8596
1519.8523 534.57733
1515.2676 536.8092
1515.3828 541.041
1511.5569 542.7376
1509.8678 548.05273
1509.031 553.0563
1502.1311 545.4887
1495.8289 543.85474
1502.3335 539.9988
1506.8989 542.61975
1505.1655 534.0239
1509.7618 536.547
1514.6698 532.19525
1509.9857 529.951
1505.9014 526.3633
1501.2173 528.5793
1496.0204 530.9425
1500.0073 534.5994
1496.5356 538.38135
1489.9648 543.55084
1491.3901 538.74896
1492.0209 533.5387
1487.7428 532.768
1484.7361 536.0072
1486.1265 539.7824
1479.7058 538.5979
1474.3153 539.0238
1475.143 534.2614
1470.1825 533.28534
1475.5172 529.545
1480.4023 532.91486
1484.8082 529.6875
1481.7223 526.5585
1478.0024 525.338
1480.5732 520.3063
1486.6521 519.17944
1486.446 524.17065
1490.7698 527.2777
1493.0684 520.78577
1496.0552 525.30725
1500.7815 522.0583
1503.4424 517.28265
1507.46 519.9219
1510.8125 523.3482
1514.7545 526.42255
1519.5254 529.5449
1524.2803 532.539
1528.3818 529.9919
1528.9283 524.98505
1534.4457 525.2047
1531.3264 520.4808
1536.3889 518.1792
1532.5847 514.82965
1536.1057 511.13486
1541.4568 511.5374
1542.311 517.20276
1539.1058 521.8248
1543.2687 523.81445
1539.471 527.6908
1533.5258 530.5316
1538.1602 532.68823
1535.7427 537.20874
1530.8739 535.27637
1526.5897 537.4811
1524.7885 542.121
1529.2451 543.61914
1532.1609 540.96277
1533.2467 548.444
1536.7843 543.5961
1540.3942 539.13965
1542.5151 535.2919
1543.7249 530.7649
1547.8965 531.6102
1551.5273 534.5385
1546.8037 537.705
1552.2527 540.00836
1556.6016 536.8386
1559.3655 541.3345
1561.8961 546.2747
1555.1604 544.7377
1552.8146 549.6108
1557.9695 550.5477
1563.4581 552.1658
1566.0557 556.63696
1570.8762 558.73645
1574.6572 554.91
1570.6227 551.864
1567.6191 547.9611
1563.8225 539.41046
1561.7771 535.016
1566.276 530.1887
1562.1875 525.8556
1567.4204 525.9955
1567.1359 534.5582
1568.9003 538.91797
1567.2728 543.2763
1573.1978 545.6367
1577.3662 548.98425
1573.8132 540.85236
1572.964 536.06946
1571.3732 531.6865
1572.8699 527.86066
1576.6134 532.36145
1578.6761 538.001
1579.5448 542.9587
1583.3619 545.8137
1583.8027 550.3204
1579.9763 553.9717
1585.2511 554.2677
1586.3011 557.85736
1588.5072 561.38586
1593.762 560.8546
1590.6377 557.0626
1590.5479 552.38354
1588.5322 548.11957
1593.3372 547.41675
1594.6895 555.61646
1596.8384 551.9933
1600.968 549.49854
1597.3447 546.30664
1599.0227 542.334
1599.1835 536.87305
1603.2025 539.69727
1606.6318 537.25635
1608.3074 533.1911
1611.6161 529.44916
1615.277 526.46484
1618.1208 523.7199
1614.5044 521.06604
1609.8787 523.4249
1605.8999 527.8822
1603.6787 522.6277
1600.5891 517.4752
1594.6345 515.7899
1591.2507 520.96826
1596.6941 522.4655
1599.3274 527.3127
1602.2019 532.33325
1595.8823 533.0176
1592.9242 528.41144
1588.1497 525.28265
1587.792 531.8618
1590.7893 535.99194
1594.5173 539.93787
1590.5535 542.9897
1586.2423 540.68854
1584.4744 536.66644
1581.3752 533.1161
1584.4946 528.61176
1582.652 522.7125
1580.5747 527.80054
1577.1045 526.1475
1576.1018 520.9575
1571.6063 523.26715
1566.4548 520.92834
1570.6746 517.83923
1569.9521 512.39526
1564.3853 515.08234
1561.7305 520.35
1556.9706 522.16736
1557.6434 517.6726
1552.5181 516.9703
1552.4001 523.384
1556.9471 526.7972
1560.6456 530.71594
1555.6172 531.4635
1551.5967 528.3834
1547.0508 526.202
1548.051 520.7815
1547.4652 515.58527
1547.0396 510.26825
1543.8336 504.91415
1548.5479 502.999
1552.3811 506.6585
1552.8169 511.3269
1557.53 512.95135
1561.5962 510.5389
1559.5515 506.1833
1556.3121 502.8523
1553.5613 499.32578
1550.6387 495.07635
1547.826 498.3886
1543.5865 497.2848
1546.0027 492.2912
1545.2799 488.1589
1545.4567 483.59335
1550.0182 481.2961
1550.344 486.26788
1551.2251 490.99243
1554.7898 489.26807
1558.2302 487.14487
1562.3215 488.03198
1566.5065 486.5551
1564.7632 482.1684
1569.7551 480.83994
1566.4873 477.165
1570.9314 474.67102
1571.6451 470.4002
1567.3835 470.42065
1564.7517 473.72638
1562.2095 470.9441
1559.4855 467.82263
1561.0879 464.09534
1565.0381 463.38608
1564.5063 467.30905
1569.0876 466.04205
1568.6458 461.71985
1568.5933 457.34137
1573.5492 459.29028
1577.7631 458.26535
1580.116 461.34933
1583.7631 462.8647
1581.169 466.8116
1577.7947 464.94772
1573.967 463.55798
1574.4364 467.68866
1576.8226 471.1363
1578.8358 474.98996
1578.9895 479.9315
1574.4285 478.02954
1573.4441 484.27475
1578.0485 485.20325
1577.0461 490.6716
1572.4761 494.54465
1570.6721 489.0404
1565.7783 493.38538
1559.935 492.2907
1555.7646 494.62302
1560.4719 497.83362
1567.9515 499.0468
1563.706 502.11887
1566.1313 507.4063
1570.9039 506.4294
1573.1506 501.22485
1579.0032 502.66626
1584.2152 501.37756
1582.9155 496.3841
1577.8442 497.10715
1582.6373 491.9653
1582.6943 487.45557
1587.2375 489.25534
1590.3451 485.98785
1595.1152 484.68564
1596.4937 480.43332
1594.1532 475.80493
1599.953 476.7634
1605.4796 476.84473
1608.8107 473.0005
1612.5286 468.6687
1616.2124 465.18146
1615.9374 459.8274
1615.2778 455.27975
1617.4332 450.50934
1621.2207 450.64865
1620.5935 444.99084
1615.0703 445.8647
1612.4662 450.59222
1608.5653 447.86362
1606.3665 443.3891
1603.0117 446.37656
1601.9033 450.51715
1595.3176 456.22113
1591.6139 461.52985
1595.7625 460.55255
1600.3331 461.02463
1599.2725 456.07147
1603.0425 455.26886
1606.5728 452.94293
1610.1497 455.6333
1610.799 461.0628
1605.1561 459.9597
1607.2828 465.33246
1604.5857 470.1285
1599.6177 471.9244
1594.5736 471.03625
1601.1233 466.2086
1596.7366 465.5449
1593.0013 466.0918
1590.2 469.48785
1587.6544 472.7081
1588.8689 476.83173
1591.2712 480.71286
1586.6008 482.31213
1582.5416 482.8214
1583.7913 476.9673
1582.4839 471.3827
1585.7273 467.60345
1589.0776 464.9909
1587.1248 461.8802
1587.6965 458.39203
1591.4789 457.284
1590.2101 453.37384
1592.1678 448.52515
1593.6326 452.4925
1597.2839 451.58588
1597.8237 447.1462
1594.114 444.84576
1589.564 442.99896
1587.1666 446.1379
1582.5695 444.1175
1578.576 448.62964
1583.283 449.86462
1587.5299 450.4613
1586.0237 454.5909
1583.0583 457.8785
1580.5813 453.9476
1575.12 454.00537
1573.2668 448.69382
1567.3501 447.79883
1564.1521 443.1015
1560.2279 439.35266
1555.6017 435.76913
1554.4297 431.1258
1547.8267 430.21335
1552.188 426.82788
1552.7294 421.70346
1547.9644 419.46747
1547.5278 424.45868
1543.2504 426.7479
1541.0476 421.30487
1540.0803 415.3933
1536.8092 412.81848
1543.7362 410.40894
1544.5732 416.24554
1548.5605 412.92926
1552.3948 409.92365
1551.7544 404.9493
1552.1053 399.69727
1556.8146 404.90967
1561.6566 405.59506
1565.3638 400.9195
1569.1101 407.11142
1574.7002 403.35138
1582.2152 406.31256
1582.0583 412.3413
1589.5797 408.85715
1590.1571 413.65356
1586.047 417.86395
1593.0807 418.24704
1590.5781 422.60706
1585.3663 424.81085
1589.7219 428.56793
1585.7937 432.32257
1580.5371 429.46564
1574.9998 434.97495
1568.8188 429.92804
1573.4912 424.35046
1579.4976 420.98608
1574.7324 413.2257
1568.2659 417.69678
1564.3141 423.56808
1564.6232 412.2516
1558.2935 411.1684
1553.7021 415.90073
1560.7101 416.7783
1558.0078 420.69257
1557.9604 425.7734
1561.4404 429.56616
1562.4757 434.5731
1567.6814 437.44843
1570.7289 442.66577
1577.3038 442.3899
1581.2175 436.6721
1585.3372 439.36285
1590.0532 438.8603
1590.016 434.8685
1594.5297 432.6715
1595.3466 437.34714
1594.0276 440.7849
1598.4536 442.1693
1602.2714 440.69635
1607.3091 438.45508
1611.0552 442.30283
1615.4868 440.5616
1619.5204 438.75958
1624.13 440.68466
1626.3035 444.09946
1626.5688 447.79285
1624.9016 451.00818
1620.8198 455.77
1626.2314 454.879
1630.6047 455.89465
1636.1567 458.15527
1634.9702 464.76764
1630.8962 460.8963
1628.3331 466.05597
1625.5483 460.22653
1620.6697 460.93396
1622.1766 466.11298
1625.3008 471.44025
1619.187 471.7835
1613.7812 474.93427
1618.5205 478.37604
1624.3416 478.4395
1620.3904 485.85138
1615.6072 484.17316
1611.8418 480.2441
1606.8457 482.648
1601.593 481.72217
1601.127 486.55505
1596.4159 489.35455
1592.2542 491.27728
1587.7991 494.49265
1589.4021 499.63263
1592.6814 496.22363
1597.2112 495.47787
1601.1597 492.16193
1606.625 494.967
1605.9923 489.23206
1610.7098 487.08246
1615.3864 490.38013
1611.5458 493.48752
1613.9553 498.27722
1609.4575 499.73312
1604.8335 501.38464
1601.7739 497.62476
1599.6355 503.47955
1595.4376 500.58673
1593.6008 505.15363
1588.6583 504.75534
1585.2896 508.2414
1580.3663 507.69458
1575.5315 508.14185
1575.5176 514.4607
1581.4543 512.9493
1580.1099 517.90894
1585.981 518.3616
1587.9779 513.87616
1591.6256 510.38654
1597.0906 509.09937
1600.8411 512.05304
1603.518 507.07578
1606.2831 512.148
1606.7399 517.6612
1612.0573 517.46173
1611.7549 513.1913
1611.3882 509.01108
1608.1748 505.53268
1612.8722 503.93726
1616.637 507.092
1620.6948 508.83643
1624.0016 505.8247
1621.6958 501.972
1617.4403 501.91797
1618.5027 496.69443
1619.428 492.24323
1623.5925 491.25104
1626.0251 487.04468
1630.6478 484.00244
1633.2294 475.99496
1642.012 477.5938
1640.1841 471.38058
1642.3646 461.34433
1647.0911 468.36847
1653.614 464.61374
1659.8113 461.91525
1665.6096 459.25058
1672.615 456.5843
1675.9175 463.66
1678.448 469.3429
1682.7461 465.19647
1685.7546 469.82397
1688.1022 464.83978
1693.3049 464.40024
1691.5444 460.69028
1688.4121 458.66724
1685.0286 456.3791
1681.7461 460.2329
1677.4567 456.72473
1682.3932 452.54944
1677.909 450.3795
1673.1932 449.13718
1667.0741 449.88632
1668.9272 445.0282
1669.7166 440.2459
1674.1934 442.34555
1678.925 444.16693
1684.0911 446.6978
1683.7861 439.57697
1688.6646 442.45007
1690.3887 437.5287
1695.2236 442.2865
1690.4409 446.9065
1688.5718 452.112
1695.0837 449.48608
1693.9891 454.72656
1696.0076 459.03833
1697.6965 463.4321
1702.3896 464.62402
1701.6599 459.75436
1700.5688 455.58423
1701.0818 451.14352
1700.3085 445.5178
1701.043 438.99545
1696.2026 435.50787
1701.1937 431.6507
1697.3354 428.4648
1691.8193 430.55487
1687.5527 433.27307
1684.9849 427.87903
1685.0177 422.49716
1689.4808 424.6273
1693.8821 424.8065
1697.5312 421.83844
1694.0725 418.24512
1689.5388 419.4359
1687.503 415.56396
1691.5717 413.73666
1688.9297 409.52026
1692.4498 405.91437
1694.553 401.90314
1691.4696 400.0053
1688.1123 398.023
1685.7563 393.98956
1688.255 389.0583
1691.5166 384.24985
1685.8093 384.55466
1682.3081 381.32675
1685.4916 377.3945
1689.2942 373.51654
1684.3425 371.88196
1679.4307 370.92566
1677.5182 367.0074
1672.8563 366.9496
1675.3928 362.18384
1679.2462 356.60495
1681.3046 361.77158
1684.0148 366.11154
1689.7239 366.66406
1694.0063 370.67758
1699.7495 373.94666
1694.4019 376.43964
1689.9874 379.8958
1696.803 380.75546
1700.2488 385.52902
1695.9215 385.92365
1693.1853 389.4729
1690.9261 393.7618
1695.2435 394.75183
1697.2786 397.95386
1698.4031 401.46954
1697.8812 404.9843
1701.0902 407.6157
1697.4409 409.0166
1694.2341 410.7285
1697.5797 414.03125
1700.5049 416.74988
1701.9019 420.81662
1703.6599 425.0005
1715.8167 416.0813
1703.4841 403.9854
1701.9697 400.31213
1700.644 394.52594
1698.518 390.48712
1704.2439 389.60666
1713.3457 394.79694
1704.6599 384.63046
1706.3828 380.6355
1701.5778 378.88593
1705.642 375.0703
1706.3043 369.73972
1700.0803 368.46472
1696.6395 364.77478
1695.6631 360.17
1688.6147 360.16315
1685.1624 355.46417
1680.5679 350.1677
1675.0211 350.5418
1674.4993 357.15082
1670.1704 359.08493
1669.427 363.8004
1662.8052 365.6506
1657.5681 364.40906
1651.8375 364.24493
1651.093 370.0351
1648.3523 375.59827
1643.3049 377.55258
1651.637 380.89685
1648.0948 384.05664
1643.9382 382.88092
1639.019 381.51648
1635.7622 387.26587
1640.6235 387.96945
1644.9863 388.63547
1649.3179 389.57776
1649.8491 394.19177
1651.7831 398.26855
1651.6677 402.6615
1652.5869 406.60028
1655.984 409.3307
1657.9205 405.79193
1655.6274 402.27612
1656.743 397.86365
1654.8693 393.94385
1653.9536 389.72644
1653.3849 385.61987
1657.5442 381.45728
1662.5385 378.83978
1658.8049 375.39203
1653.8212 376.04144
1657.5154 369.9653
1663.6616 372.1045
1667.624 376.60828
1666.8396 367.7817
1669.9979 371.2251
1674.4589 373.0184
1673.0132 377.47766
1679.5293 376.31152
1676.7651 381.42822
1671.5509 382.18066
1665.4866 382.86835
1659.822 385.63965
1658.4528 390.03015
1660.4583 393.66562
1663.9233 388.69275
1668.5289 391.0659
1669.3193 386.285
1673.8508 388.50165
1678.9423 386.0647
1682.8882 389.62445
1677.6835 391.9072
1671.88 394.3847
1665.3792 394.94394
1661.6516 398.1095
1660.4648 402.0571
1665.7473 401.6096
1669.409 398.87146
1675.4912 397.77356
1681.2175 395.95862
1684.2761 401.2072
1687.377 404.7519
1679.233 401.44525
1672.526 403.5404
1677.7726 406.10364
1682.7278 407.82465
1684.719 412.3595
1683.4714 418.12482
1680.3678 415.42188
1678.1357 411.59296
1673.8733 409.6504
1669.5402 409.01428
1666.5892 406.69284
1662.5464 406.45502
1659.9866 410.49652
1662.8704 412.94452
1666.7465 413.55002
1671.6671 413.96655
1675.8633 417.0332
1674.2549 421.5993
1679.9467 421.70685
1678.9795 426.0492
1678.3716 431.14752
1682.8031 433.16513
1678.833 437.47186
1674.3203 436.41046
1668.8749 435.8618
1663.9121 435.85278
1664.3987 431.3276
1668.917 430.42645
1672.9609 432.16827
1674.3074 427.5168
1670.7905 425.32736
1665.9846 425.99506
1662.0007 427.65182
1658.1982 429.0979
1655.6819 425.9852
1655.8259 420.3145
1660.6968 422.91626
1667.7996 421.9383
1669.8599 418.05478
1664.3047 418.76926
1659.801 417.26538
1656.2413 414.51962
1651.8905 416.18796
1646.6993 416.9538
1643.5887 419.6665
1640.2957 416.43503
1639.0315 420.86505
1641.287 424.15613
1644.9209 424.0632
1647.9905 422.49127
1651.0024 420.01227
1652.2943 424.326
1649.2925 427.51575
1653.3313 431.24176
1659.0547 433.80823
1659.4327 439.61786
1664.5212 440.78574
1663.6656 445.59454
1658.984 445.06284
1661.419 450.18042
1658.4692 455.14523
1655.4291 451.15195
1650.1193 456.41367
1643.1548 453.32883
1638.6299 453.05804
1640.9346 448.18713
1645.3667 446.55493
1647.9485 450.36655
1650.9065 446.05273
1653.395 441.55774
1655.2114 436.7697
1650.8596 437.10284
1648.8622 433.39252
1646.6892 430.80942
1644.2407 427.88727
1640.0723 428.72095
1638.1847 432.7977
1636.3184 436.8521
1636.0115 441.71335
1641.4122 439.68073
1642.043 436.02817
1643.1364 432.5116
1646.2959 437.5752
1647.6317 441.90894
1641.5625 443.45746
1636.2568 447.29675
1634.2079 452.68527
1630.6058 450.17514
1631.763 445.2844
1630.0303 440.84406
1630.9558 436.899
1632.5393 432.45932
1634.8635 428.924
1637.2948 424.9846
1633.0703 424.39145
1635.573 418.6152
1631.0857 419.90588
1626.067 421.92133
1628.5953 425.8678
1623.6445 428.79758
1628.4889 429.95135
1626.9558 433.87582
1624.238 436.62878
1620.8547 433.20435
1618.2124 428.886
1616.1564 424.3853
1621.3103 424.05063
1621.861 418.31418
1616.8638 418.93927
1611.6722 421.14243
1611.5835 416.45322
1611.5798 410.3731
1615.6469 413.28058
1620.1558 412.41455
1624.6798 412.34277
1627.4258 416.3957
1632.1953 413.86163
1637.0978 412.7761
1633.9988 407.9122
1628.7188 408.76898
1623.1643 405.8465
1627.7621 402.0569
1633.0443 402.49057
1631.4678 396.55627
1636.5497 398.1015
1641.4336 398.81555
1638.3087 403.6451
1639.5924 408.49896
1642.573 412.99512
1645.9379 411.43683
1649.1687 412.8624
1652.6047 411.25958
1648.456 407.4729
1643.9779 407.2704
1643.383 402.97552
1647.7667 402.39206
1646.322 398.03537
1644.9391 393.60852
1640.2303 393.70923
1635.3674 392.3961
1629.9846 390.2594
1626.1945 395.3094
1621.9119 398.88666
1620.2632 392.97238
1624.1575 388.62604
1619.424 385.7638
1615.6852 389.4643
1613.8376 382.57477
1611.9491 376.597
1609.6613 368.97815
1606.7942 372.8038
1604.9705 377.78583
1608.1389 381.78168
1605.4736 386.7175
1604.1382 392.05365
1610.103 388.57562
1611.8981 393.53394
1615.4967 397.62518
1617.7234 402.3944
1617.1292 407.54767
1611.7966 404.27435
1609.4298 398.12036
1603.8035 397.75342
1598.8162 395.07565
1597.4369 389.72006
1592.2732 392.50525
1594.1561 397.13208
1597.136 400.24814
1600.7019 402.97382
1605.9865 402.99286
1606.7617 408.16882
1601.7833 409.00806
1602.2256 415.0114
1607.0756 413.66656
1606.0131 419.1507
1607.0386 423.73813
1603.3617 426.4251
1608.1213 429.05612
1611.7175 426.0578
1613.1685 430.6727
1616.1709 434.6644
1611.4099 435.8962
1606.4669 432.90793
1603.0466 436.1539
1598.8162 435.7234
1601.124 431.49023
1598.8779 427.5974
1594.3615 428.1931
1595.9163 423.42328
1600.5005 421.0924
1597.4111 416.2003
1596.2231 411.40646
1596.5151 406.6233
1592.9874 403.56018
1588.1726 403.5366
1590.4236 398.5291
1586.4078 396.5141
1582.2751 400.7823
1579.374 397.12164
1578.2578 392.21582
1581.7914 388.47485
1586.4822 390.6615
1591.3029 386.55664
1595.7654 383.91144
1601.2847 384.33234
1599.2642 378.50497
1591.5902 378.8243
1586.7991 374.09808
1592.2407 370.70978
1601.2589 372.7776
1605.0708 367.48694
1595.3054 364.89084
1590.4753 362.88733
1586.3356 359.3043
1585.7427 368.47577
1581.2363 365.45203
1574.6538 364.88013
1578.6003 359.18896
1583.5934 353.6844
1589.3726 351.57434
1593.852 355.5678
1597.2228 359.1566
1601.0314 361.86737
1607.7238 363.14545
1609.2504 358.7528
1613.3916 360.44565
1616.9409 362.03415
1618.3511 365.6517
1612.4545 365.15833
1616.3091 368.98303
1613.2827 371.57825
1617.8187 375.08014
1620.2887 379.1982
1624.6813 375.62714
1629.3658 379.353
1627.9818 384.67404
1633.736 382.70905
1636.5669 376.44598
1630.7881 374.15045
1629.764 369.24155
1625.1875 370.43994
1620.6489 370.54315
1623.3689 365.80127
1621.4028 361.84015
1624.9805 359.3197
1618.2317 357.7972
1621.9021 355.25055
1626.5466 353.76074
1630.2866 356.63898
1629.8313 360.7055
1627.266 364.41925
1631.7856 365.27832
1635.8813 366.1493
1636.0376 371.01733
1640.4314 366.4477
1642.6428 372.0952
1645.8525 367.18787
1645.0494 361.69946
1650.1763 358.96625
1655.3319 358.50934
1659.8795 356.0091
1661.2788 360.27643
1665.8114 360.33044
1665.6489 354.4898
1670.6052 353.77808
1669.2045 348.05103
1663.6986 347.37738
1658.627 344.80917
1661.4835 351.47336
1656.5566 351.73462
1651.1321 352.62598
1653.1555 347.4065
1652.0427 341.83667
1647.2888 345.58508
1644.688 350.70166
1646.5869 355.5686
1641.547 356.36423
1639.1794 361.04462
1634.5006 361.504
1635.5908 356.3034
1638.1548 351.13605
1640.9879 345.90564
1644.8696 339.84747
1638.7522 340.5688
1636.9541 334.5365
1633.051 340.9024
1634.0402 346.37012
1632.0874 351.69946
1627.5375 348.52814
1627.9728 343.6925
1627.2307 338.7176
1622.2129 337.21902
1618.3062 341.58313
1622.6062 344.3739
1622.0094 350.08652
1616.8229 352.71722
1612.813 355.6046
1611.0801 349.84982
1616.7762 347.19794
1606.489 336.36743
1600.7269 335.4162
1595.5769 337.6996
1593.5724 342.69724
1586.7872 344.4148
1588.4656 334.01312
1581.2184 334.1488
1578.5309 326.8085
1586.7269 312.58847
1596.6569 313.2998
1588.4906 322.4118
1595.1179 329.64572
1599.3391 322.5104
1606.6703 329.74417
1613.1587 328.83954
1617.2358 323.623
1626.1913 332.6757
1631.8978 335.15305
1630.2454 329.08417
1625.8448 325.6053
1621.6316 318.513
1625.2727 312.49323
1626.5809 296.82568
1624.2191 305.7709
1616.6857 310.33142
1613.2648 317.84882
1605.56 318.82635
1607.3224 309.94836
1612.301 301.9571
1619.2476 299.0725
1616.7605 290.8554
1623.5918 284.26987
1621.3723 272.9312
1623.3281 265.12918
1634.2605 262.56183
1637.7444 269.84454
1633.249 279.58517
1634.926 291.6839
1641.1074 281.34625
1648.605 268.44354
1636.6782 255.19482
1628.152 253.48969
1636.7697 247.55496
1632.8401 242.42746
1621.0781 248.52017
1613.3677 244.29773
1604.0381 240.54686
1612.2109 231.43921
1619.099 230.04361
1630.7739 236.23851
1625.9501 229.53606
1618.6987 222.31479
1612.3647 217.53345
1604.8203 215.2957
1601.7432 221.8974
1607.6404 221.30809
1611.0867 225.63004
1604.9155 228.59973
1599.0881 229.71152
1596.8497 225.06741
1592.4006 228.32182
1590.0135 222.9066
1595.7964 220.36844
1597.6362 215.07388
1591.5115 216.24448
1585.2832 216.67314
1578.4677 220.1578
1583.5801 223.90894
1586.3306 229.5521
1577.8873 229.65623
1572.6814 224.78506
1569.2688 231.1353
1563.5308 233.30948
1569.6825 240.48505
1560.9966 239.73412
1559.9497 246.55698
1559.2074 255.69891
1567.6755 250.56409
1577.9736 250.23764
1582.9464 240.51994
1593.9219 237.49228
1592.7634 249.61008
1589.7742 263.73892
1584.2314 269.5122
1580.8429 261.9418
1571.6904 263.14304
1577.9475 270.08148
1572.2385 272.21802
1567.4393 279.05563
1563.5962 289.1125
1560.6765 282.74615
1556.2345 277.6202
1561.9258 271.06082
1558.5469 263.8244
1551.5598 269.3842
1554.6384 285.52322
1557.5186 294.59943
1566.9302 300.22363
1570.5503 306.60068
1569.7795 293.05444
1577.399 282.1039
1589.9548 275.63165
1600.8799 266.84634
1604.6162 255.5778
1614.5784 261.5343
1610.2654 269.40604
1608.263 280.2671
1606.8397 292.01013
1601.4636 300.6986
1596.6686 292.33264
1589.4856 300.58954
1586.6354 288.20724
1579.3059 293.78476
1576.9738 300.9493
1582.9899 305.32498
1577.9795 312.0438
1570.8718 314.3401
1574.9958 320.8109
1569.2488 333.2977
1567.259 341.0147
1567.1573 348.46094
1560.8307 344.34967
1554.5173 346.92395
1547.8059 349.34872
1542.37 353.86874
1536.9675 353.67493
1541.0073 359.97186
1539.6982 364.96973
1537.8573 369.62457
1537.6082 375.5584
1542.7963 376.76953
1548.6156 377.43982
1548.5374 371.92108
1543.444 369.87402
1550.4224 365.9199
1555.0349 368.94443
1554.7653 374.81113
1554.5417 380.21735
1549.9125 383.08542
1544.6901 382.4714
1539.0582 382.0033
1538.4193 387.10446
1542.9358 387.8878
1547.6449 388.63596
1552.2795 388.63364
1555.7404 385.3017
1559.8097 380.97498
1560.9131 384.68317
1562.0764 388.70215
1566.0458 389.9408
1565.6753 384.5998
1566.0815 379.84494
1561.2771 376.94785
1561.104 371.80673
1560.1443 365.8546
1557.5354 360.52246
1551.5667 359.69836
1545.7637 363.03363
1546.3635 356.62537
1552.8721 353.67743
1559.7635 353.10736
1566.3696 355.18024
1565.2075 361.09677
1566.2151 367.57025
1566.8068 373.8177
1576.1836 372.13983
1581.097 374.09003
1583.8951 378.6108
1585.762 383.53168
1579.7391 382.15356
1575.4357 378.24054
1573.0417 383.54465
1576.5881 387.16364
1571.6587 389.49582
1574.3102 395.73413
1569.5979 396.75104
1558.6233 398.9729
1561.263 394.07117
1557.7214 389.90607
1554.4631 394.12143
1548.8745 394.4848
1543.5759 393.69128
1545.2635 399.49863
1546.7968 405.11862
1540.9745 406.57227
1540.1011 401.56638
1538.4263 397.7175
1538.7794 393.05835
1535.1478 390.85263
1530.5134 389.88043
1533.4384 385.57916
1533.7046 379.76648
1533.2517 371.52472
1529.3704 375.201
1521.4628 374.20923
1520.2961 369.28656
1527.3477 368.77313
1533.1614 365.21423
1535.7522 359.54895
1530.7546 356.75653
1528.8209 361.84314
1523.6642 359.06665
1521.0662 363.55725
1513.863 364.8037
1511.8928 371.16443
1504.2468 371.02634
1507.8186 377.11072
1514.7457 376.53464
1511.9927 381.90186
1511.4141 387.5206
1507.0459 383.67474
1501.8589 378.57233
1497.0071 381.28314
1491.737 388.013
1497.8875 387.8055
1502.1111 386.1892
1505.779 389.51364
1510.2603 392.23724
1507.5581 397.61072
1504.384 394.5548
1500.3721 393.78833
1495.8676 393.12878
1491.9393 396.69598
1493.3843 400.99982
1490.3745 405.2212
1496.7609 405.40793
1498.8062 399.35812
1503.4817 401.523
1508.5941 403.66245
1514.3954 404.12195
1511.1693 400.60458
1513.0269 395.76483
1516.613 392.19812
1521.653 391.25873
1520.7086 385.6025
1516.1259 387.562
1516.6224 382.6131
1520.2747 379.62885
1525.5006 379.05634
1529.0801 382.99326
1525.232 386.20834
1526.9337 392.06647
1528.1907 396.93042
1533.1289 396.2323
1529.603 401.3554
1524.5958 400.65894
1523.4832 395.91638
1519.1104 397.1773
1515.5225 399.58447
1520.2295 402.53784
1518.0903 406.64352
1519.1868 410.67456
1512.752 409.5423
1507.0295 407.67743
1501.8867 406.81873
1504.8835 412.63058
1499.793 411.57202
1494.2196 410.82538
1488.8804 412.24103
1487.0898 417.97577
1493.1113 417.2031
1496.4266 421.84943
1499.0684 416.78134
1504.9935 418.6727
1504.4332 423.56287
1511.9492 422.14914
1509.5237 414.3075
1513.3619 416.93158
1517.8726 415.98495
1522.8114 415.13034
1525.5469 410.7407
1524.5847 405.69946
1529.8174 407.5466
1532.9943 403.0261
1536.5142 404.0079
1535.2557 408.62314
1531.6162 413.12646
1528.905 416.63123
1535.405 419.1225
1531.8768 422.71246
1534.1069 428.36725
1538.5339 427.16403
1543.4296 433.35776
1539.1022 434.68124
1534.6082 434.00742
1529.5571 431.8518
1528.3162 427.22968
1524.9081 423.7188
1525.1448 419.5411
1518.6451 422.359
1516.3496 429.02332
1521.9482 428.25775
1524.4004 432.84943
1519.6658 434.9785
1518.347 439.78088
1519.1056 444.92657
1522.7009 441.81662
1524.9565 437.6965
1530.4402 436.88217
1535.9066 440.08188
1542.7727 440.2282
1549.0132 435.3319
1548.9902 440.09265
1554.4229 441.4442
1558.7507 445.2365
1552.8435 446.85938
1548.0234 444.98816
1543.7915 447.3426
1539.3687 445.22485
1534.8545 446.51706
1531.0978 443.79645
1528.2222 440.99997
1525.5874 445.69934
1530.2816 449.55536
1525.7139 450.3393
1522.9113 453.351
1520.0452 449.40063
1514.9249 453.27826
1514.9504 448.2516
1509.7894 449.0896
1509.6829 453.3272
1504.1975 453.75607
1498.7369 456.20615
1500.9984 460.2043
1496.6324 464.25653
1493.8547 459.54547
1488.8129 458.09738
1493.2809 454.28537
1489.0403 453.05807
1484.6962 454.86652
1485.3145 450.3023
1485.2672 446.10007
1489.653 448.31638
1493.7819 448.09372
1496.5178 451.4167
1500.4661 450.84494
1504.5375 449.02777
1498.134 445.97446
1500.1678 441.3747
1503.4333 444.5351
1507.5431 445.24072
1511.9133 444.66724
1514.4824 441.76022
1514.27 436.206
1511.3633 431.82104
1509.7327 426.8973
1505.8099 432.825
1508.8508 436.50958
1509.1031 440.87628
1504.5875 439.416
1501.9835 435.77585
1498.0059 436.03735
1495.6282 440.13586
1492.1858 443.69104
1487.0944 442.05038
1490.3772 439.08765
1490.9554 435.3596
1484.9321 436.299
1488.7986 431.3794
1494.6083 433.7325
1495.023 429.1051
1499.5342 430.98947
1503.9891 428.7599
1499.3389 425.46274
1491.9058 426.38165
1489.1959 422.21396
1486.2255 426.0744
1483.477 429.9989
1479.6992 432.90845
1479.7649 438.40247
1482.0334 442.43344
1477.5271 445.1903
1480.5345 448.17285
1481.3079 452.0206
1476.0459 451.52118
1478.5376 454.33847
1475.3937 457.3329
1471.7067 460.41562
1472.202 467.36716
1470.3431 472.9139
1475.3826 476.039
1474.574 482.77267
1468.4016 480.47113
1465.5801 488.0777
1471.635 488.70264
1476.6956 494.47406
1478.6522 488.07822
1484.1118 491.7092
1485.3569 497.05725
1480.6781 498.10596
1470.4434 495.9109
1465.0403 494.86688
1462.3639 498.38022
1463.0083 502.7403
1467.5542 504.2777
1472.6987 501.0233
1477.8278 503.2142
1472.7156 507.07623
1463.0151 507.9048
1467.7947 510.90012
1467.4215 516.10693
1467.9065 522.26184
1469.6299 527.334
1473.867 523.2711
1473.6871 517.79877
1474.9004 511.78027
1479.9062 514.9921
1480.5883 508.23505
1484.5217 511.9752
1488.5635 514.2113
1493.1765 515.7169
1498.1802 515.63
1503.1934 512.2738
1508.8083 513.9539
1504.9744 506.8645
1499.8411 508.5091
1493.8752 510.08173
1488.0792 507.3963
1484.0791 503.1024
1489.4307 500.73987
1492.7571 504.31833
1496.313 499.87823
1493.3586 496.40878
1489.3546 494.87238
1493.2441 491.40768
1489.5642 488.494
1493.4843 485.30554
1496.7992 489.55258
1500.1052 488.61484
1499.0552 484.87854
1497.6245 481.59042
1495.7583 477.6847
1492.1311 480.6301
1487.144 481.0162
1484.574 485.8398
1480.636 480.12415
1484.2983 474.9135
1490.3464 474.80078
1486.7236 469.302
1481.5466 465.80048
1479.0299 470.8864
1475.9984 464.187
1479.3069 461.1223
1480.7983 457.166
1483.9517 459.74402
1486.4968 463.22324
1490.9929 464.61154
1493.8296 469.01746
1495.4319 472.94696
1499.3717 474.1473
1501.0667 478.07776
1502.9757 481.2446
1503.5405 484.99335
1504.3252 488.94235
1503.022 492.89145
1497.6224 494.25513
1501.0936 497.40216
1497.8981 504.49402
1503.6447 501.64047
1507.4113 496.3774
1512.2424 498.9649
1509.7544 490.97067
1508.7651 484.47485
1507.0275 480.05246
1512.0276 477.57715
1516.4551 485.041
1517.9253 492.8333
1520.4421 500.81158
1524.7334 505.5645
1523.1771 510.9051
1519.0585 508.33286
1514.9976 504.68304
1509.3845 503.44504
1509.2748 508.96698
1513.6611 509.54745
1515.0725 513.29016
1512.8818 517.74005
1516.3407 520.69464
1519.6788 524.13416
1523.918 526.4193
1525.4827 520.8478
1521.1658 519.2736
1518.8334 514.9889
1523.7822 515.26697
1527.9698 516.1221
1528.7302 511.18796
1530.1833 507.10077
1534.2444 505.0289
1528.5797 497.10043
1527.9128 487.9167
1536.8959 488.33737
1539.6418 482.02145
1534.3777 476.95212
1528.0134 475.4334
1520.6418 477.84497
1525.0361 468.64694
1524.7085 463.3036
1519.3043 463.10785
1518.4728 468.23688
1514.2146 471.73932
1511.2991 467.51743
1513.2461 463.6842
1506.1937 467.16156
1508.2959 471.77588
1506.8977 476.17316
1503.7517 474.0031
1501.0452 469.81836
1501.5237 465.19562
1506.8201 462.1812
1506.0559 457.40857
1511.0459 458.43878
1515.8539 459.12262
1519.0718 455.83966
1523.6226 458.36493
1528.9366 455.8563
1534.5432 452.7376
1540.2067 451.3667
1539.7949 456.3679
1534.7026 459.0772
1530.0964 462.2087
1531.0828 468.17526
1535.7234 471.33887
1540.2205 474.3202
1544.6775 474.19516
1546.3801 478.2229
1549.8612 474.42517
1554.446 473.58246
1554.2164 477.49774
1554.6448 480.79245
1554.881 484.4449
1559.5359 482.36908
1561.6671 478.48615
1559.2762 475.53085
1557.8137 471.57553
1555.1207 467.96313
1556.5757 463.73932
1559.6743 459.64124
1564.3008 459.08737
1562.3103 454.7042
1567.4156 453.1786
1562.8749 449.25122
1558.1726 450.57526
1556.9006 455.45065
1554.3372 459.71225
1549.3832 459.96338
1551.4878 464.60004
1551.6488 469.77988
1547.469 469.21527
1546.2827 463.92157
1542.4812 468.4366
1536.5911 465.9885
1539.8572 462.8574
1543.2015 460.07324
1545.6667 456.09155
1551.1057 455.46753
1553.0493 451.44604
1547.224 451.24033
" />
</g></g></svg>
