<?xml version="1.0" encoding="UTF-8" standalone="no"?>
<!-- Created for Inkscape (http://www.inkscape.org/) -->

<svg
   xmlns:dc="http://purl.org/dc/elements/1.1/"
   xmlns:cc="http://creativecommons.org/ns#"
   xmlns:rdf="http://www.w3.org/1999/02/22-rdf-syntax-ns#"
   xmlns:svg="http://www.w3.org/2000/svg"
   xmlns="http://www.w3.org/2000/svg"
   xmlns:sodipodi="http://sodipodi.sourceforge.net/DTD/sodipodi-0.dtd"
   xmlns:inkscape="http://www.inkscape.org/namespaces/inkscape"
   width="3200"
   height="800"
   id="svg2985"
   version="1.1"
   inkscape:version="0.48.1 r9760">
  <defs
     id="defs2987" />
  <sodipodi:namedview
     id="base"
     pagecolor="#ffffff"
     bordercolor="#666666"
     borderopacity="1.0"
     inkscape:pageopacity="0.0"
     inkscape:pageshadow="2"
     inkscape:zoom="0.35"
     inkscape:cx="1600"
     inkscape:cy="400"
     inkscape:document-units="px"
     inkscape:current-layer="layer1"
     showgrid="false"  />
  <metadata
     id="metadata2990">
    <rdf:RDF>
      <cc:Work
         rdf:about="">
        <dc:format>image/svg+xml</dc:format>
        <dc:type
           rdf:resource="http://purl.org/dc/dcmitype/StillImage" />
        <dc:title />
      </cc:Work>
    </rdf:RDF>
  </metadata>
  <g
     inkscape:label="Layer 1"
     inkscape:groupmode="layer"
     id="layer1"> 
     <g>
<path style="fill:none;stroke:black;stroke-width:2px;stroke-linejoin:round;stroke-linecap:round;" d="M 
1478.1971 170.68698
1481.0082 166.81354
1483.9763 171.9115
1486.0197 167.06883
1490.3353 169.36038
1489.5701 174.00302
1489.3009 178.6948
1485.2719 181.93748
1483.8925 177.18872
1479.0604 175.29095
1478.58 180.42682
1474.3347 177.67363
1473.6776 172.42145
1470.7996 168.57985
1475.176 166.40036
1469.6754 164.17155
1473.5894 161.25093
1476.6831 157.3347
1478.8564 162.4544
1484.9067 162.14853
1481.3685 158.28021
1481.2606 153.3573
1476.0823 152.3183
1471.9226 155.7197
1468.4863 159.66875
1465.2869 165.22192
1463.7764 161.81564
1459.694 159.65613
1459.1002 163.74768
1461.3269 167.43585
1465.9369 168.94908
1467.794 172.43643
1469.8588 175.82489
1464.4377 176.27365
1462.5494 172.21136
1458.6973 171.60306
1456.7715 167.62955
1454.2526 164.16571
1455.3905 160.88144
1451.9219 158.18414
1456.0471 157.11385
1453.7944 154.216
1454.6143 150.53226
1454.8242 146.84161
1450.7412 145.93721
1450.4546 151.5368
1447.4336 148.14629
1447.9474 142.0859
1443.8634 145.36836
1439.2954 144.38345
1437.1428 148.0181
1432.9229 156.3267
1433.26 150.92624
1433.0262 145.78384
1434.3488 140.74626
1438.7058 139.08437
1443.2373 139.99484
1447.3313 137.08614
1450.3843 133.53885
1450.8734 127.25143
1445.8113 130.90868
1441.2661 133.97598
1435.3569 134.76192
1435.8354 128.6307
1440.8219 127.32666
1437.4324 121.51418
1443.9094 119.90084
1445.9729 124.81659
1450.3895 120.289
1446.5052 113.40561
1441.3694 114.96334
1436.9443 114.33566
1440.1233 108.15776
1442.1382 102.80112
1442.6185 97.05768
1447.0314 92.63198
1449.6252 86.349075
1454.7994 81.17614
1455.5167 87.39317
1453.0068 93.188965
1453.9529 98.7629
1448.3221 99.783615
1447.5945 107.47203
1452.8829 104.92406
1455.3942 110.854004
1451.9692 114.42196
1456.6191 118.26216
1463.4141 122.15109
1455.8423 124.494835
1459.519 129.58652
1454.8076 131.37968
1454.298 137.35393
1458.867 135.22849
1463.637 134.99301
1468.1528 133.0025
1472.348 134.66211
1474.7045 138.76584
1473.0065 142.82639
1468.8854 144.92078
1468.6523 138.84184
1464.3037 141.38324
1459.9023 140.16522
1452.6775 141.41063
1457.0684 143.28993
1460.2635 146.61844
1464.5225 146.6748
1462.9728 151.95682
1458.5587 151.04956
1459.492 155.16756
1463.5654 157.3594
1467.2153 155.05014
1467.186 150.42027
1471.2397 150.44684
1474.3624 147.25905
1479.1521 147.83679
1483.6683 149.40845
1485.9525 156.90631
1488.3293 152.66261
1492.7253 148.61356
1487.9646 147.18492
1490.2123 142.37692
1494.5347 138.36703
1501.9152 136.12628
1499.5925 140.35202
1495.8376 144.23405
1502.1151 145.5316
1498.3422 150.03687
1494.354 154.27069
1490.9574 158.40611
1490.4373 163.4471
1494.8499 166.29787
1495.6857 171.7854
1494.4529 177.90558
1499.3164 181.41287
1504.1559 181.83908
1508.9219 180.94577
1511.3722 176.50113
1517.0366 177.02066
1519.4194 182.03287
1513.9863 182.79863
1508.9856 186.19995
1503.1136 186.90805
1497.7998 187.83824
1494.7649 183.85844
1489.8981 183.70927
1491.502 188.83899
1484.8308 187.69534
1481.4375 184.10696
1478.03 186.67198
1473.6632 183.23027
1469.8613 179.96158
1466.033 182.75348
1383.2357 362.74927
1378.974 371.98398
1375.1584 381.22803
1369.8956 390.7697
1365.7866 399.639
1361.1619 409.50705
1356.0679 419.79382
1354.9143 426.42355
1353.9883 435.09607
1352.6664 441.26306
1351.4235 447.53278
1351.8638 453.65778
1352.4647 458.67407
1352.2085 463.78647
1352.5177 470.6454
1354.4698 476.66357
1349.626 477.1593
1351.9363 481.73096
1357.311 481.5765
1356.1589 487.26935
1351.7288 486.46225
1353.025 491.40292
1353.615 496.9621
1355.9471 500.57666
1359.9338 498.3066
1357.3884 493.1931
1360.6367 488.211
1366.2289 491.00226
1369.8676 494.0747
1365.9441 496.92206
1362.05 493.91208
1363.7914 501.21704
1358.3552 504.2348
1362.8209 505.92377
1361.1575 510.92612
1365.2219 513.3738
1366.3651 520.12573
1370.2286 514.60425
1375.3555 515.2639
1376.8577 509.79718
1371.7494 509.778
1366.981 508.61023
1368.2053 503.98068
1370.6819 499.9575
1373.9751 496.72388
1377.4336 500.42078
1373.4365 504.66107
1378.6454 504.86176
1383.6505 502.9095
1382.207 508.83398
1380.7144 514.2255
1385.7267 514.05164
1392.032 512.44775
1386.3318 519.38513
1385.0135 525.694
1380.0818 523.83044
1379.3942 519.12134
1374.4769 523.1406
1369.8441 523.45825
1377.6602 528.396
1406.7747 716.22766
1505.7914 702.9303
1608.0863 697.0189
1631.0643 684.2825
1638.8718 677.96277
1646.2537 683.8276
1640.3793 686.5327
1636.8162 696.037
1643.9617 692.595
1651.3442 689.5126
1653.1589 682.44745
1657.9978 686.4562
1659.1262 693.72046
1666.7358 692.6293
1663.6807 686.89856
1660.4681 679.1416
1666.5311 680.72375
1674.1423 681.85645
1669.8038 685.87634
1673.3479 689.61914
1678.1559 686.83704
1681.5165 683.00134
1679.7748 692.424
1684.8599 690.4197
1687.3123 686.1831
1687.1234 680.26904
1687.7351 674.51495
1681.3197 671.47534
1682.4176 677.08496
1677.0391 677.267
1675.154 672.29675
1671.01 669.15027
1670.3738 676.1487
1664.8984 673.2162
1658.8462 671.7788
1652.4155 670.8924
1654.319 676.58563
1647.2476 676.863
1645.9059 670.0742
1649.7246 665.45306
1643.9716 662.933
1641.8899 654.4961
1647.2329 656.92554
1651.2516 660.2883
1655.9209 664.97217
1661.4337 666.2501
1666.4525 666.9209
1665.2253 661.0149
1660.0862 660.15625
1655.6001 657.8156
1652.3381 652.9052
1646.7463 650.80963
1641.7422 647.1263
1646.9406 644.51544
1651.2639 646.9651
1656.602 647.8164
1661.8013 648.79596
1658.2427 653.1681
1663.0399 655.29407
1668.4517 656.5806
1673.3468 657.5548
1670.3032 662.5564
1674.9553 663.44104
1678.356 659.99963
1677.7107 667.2333
1682.9495 664.35016
1686.4127 668.94165
1691.0762 666.4932
1690.8026 661.1618
1685.8239 659.83606
1690.3658 655.31976
1695.8391 657.2197
1701.6716 658.81274
1707.613 660.3186
1708.7059 666.3249
1714.9397 667.50757
1713.4396 661.6552
1719.0544 662.03406
1724.7576 662.3368
1721.4543 667.095
1727.0327 667.8939
1723.6902 672.92456
1718.9553 671.598
1718.7867 677.27454
1714.5879 673.88403
1709.473 671.8834
1705.1768 677.02136
1699.1982 676.3352
1703.4551 671.056
1702.6567 664.8644
1696.567 663.2928
1697.7805 669.30164
1693.137 672.23224
1693.4205 677.9727
1691.8402 683.2367
1697.6277 683.0454
1694.3137 688.1113
1700.5536 689.6609
1707.0 687.96204
1702.8936 682.9989
1708.7756 682.65497
1711.0481 677.61707
1714.7849 681.91376
1713.4232 687.57947
1719.3005 686.89545
1720.3724 682.0298
1724.3539 689.67896
1729.7612 684.3906
1725.0924 683.9203
1724.6575 678.2175
1729.901 678.6374
1728.8611 673.20435
1733.545 671.5149
1732.4746 666.99133
1736.6442 664.47815
1741.5271 664.1765
1738.4836 669.79156
1741.1703 674.5288
1735.1185 676.02026
1734.395 681.8761
1738.8966 680.07947
1743.8248 680.1997
1744.1942 669.4203
1749.0012 671.9052
1747.0603 676.52734
1753.3787 676.8002
1759.8987 675.78186
1764.4084 670.9797
1770.3705 670.65405
1776.9307 670.2659
1783.7094 669.0529
1789.6871 670.0832
1800.764 667.5798
1811.6627 667.1082
1820.1609 666.61237
1834.325 665.0848
1827.1202 666.3432
1815.5809 665.9059
1805.9102 667.595
1795.4082 667.42096
1789.537 665.2789
1779.2715 665.4918
1772.4543 665.34326
1765.5232 664.6215
1757.8699 663.62213
1759.8218 668.73267
1755.1016 671.22534
1751.715 666.9673
1752.0686 661.24915
1747.0173 664.55664
1745.5278 659.99274
1739.3279 658.7882
1733.9419 659.71387
1729.7798 662.8333
1729.412 657.66345
1723.3937 657.00037
1717.5586 656.1838
1711.9983 655.1732
1706.1387 654.0702
1700.3105 652.66125
1694.4363 651.0985
1688.6614 649.7529
1685.0868 653.84033
1681.2067 656.6862
1679.6172 650.9494
1683.5408 648.4163
1678.262 645.50354
1683.1879 643.427
1682.6223 637.2773
1679.0906 640.0532
1674.575 640.36597
1677.4956 634.06476
1674.0184 629.0531
1671.7861 635.8694
1666.1334 638.2529
1669.9299 642.2085
1673.7819 646.8883
1676.1714 653.3998
1671.5637 651.6682
1666.371 651.5571
1668.1482 647.12256
1664.3379 643.8617
1659.8651 642.3963
1654.4865 642.87976
1650.5049 639.4386
1643.7506 640.6396
1640.9385 636.9153
1643.3572 632.65344
1647.989 635.3239
1647.5339 629.4004
1643.1985 626.34076
1647.5739 623.9595
1652.1984 625.5198
1655.921 622.78394
1660.8655 622.0246
1663.2898 626.36255
1657.7885 628.1821
1652.2593 631.30054
1656.437 633.49884
1655.8394 638.052
1661.2102 636.85614
1662.771 631.917
1668.2749 632.425
1668.4927 627.41187
1668.4355 622.3667
1664.7664 618.56665
1660.0054 616.51794
1654.9359 618.023
1657.301 612.50165
1654.0769 609.4991
1653.1035 605.1846
1649.5842 608.25745
1651.7112 613.96216
1649.7317 619.2354
1644.1974 620.223
1646.8849 614.20325
1645.9829 608.7996
1645.8943 603.15344
1649.9316 602.50494
1649.2429 598.01587
1644.7476 597.7292
1644.9656 592.2244
1650.2548 593.76746
1654.5249 591.1345
1655.4827 596.1317
1654.2686 600.3397
1660.5101 594.25195
1659.9763 600.2095
1657.4851 604.5641
1660.2727 607.9064
1663.1658 611.8255
1663.9904 604.31116
1664.8618 598.1985
1666.5052 592.7217
1667.6023 586.0869
1667.6959 580.24884
1662.8652 577.1915
1657.4893 572.7303
1657.4022 578.2748
1652.4448 580.77075
1660.9342 582.97375
1663.3514 588.53656
1658.7844 588.8072
1654.7578 585.25836
1649.5847 588.3031
1643.3109 586.9608
1647.5171 583.4674
1646.0613 578.7595
1645.6831 573.3677
1651.8389 575.3243
1649.5392 570.2157
1653.993 569.0489
1653.6627 564.1301
1654.6023 559.72144
1649.0343 558.66656
1648.575 564.25024
1644.72 567.90466
1639.9153 565.4614
1643.5093 560.915
1644.1006 555.8311
1648.4159 552.337
1653.0818 550.72815
1653.4015 555.43274
1659.3251 561.92694
1659.1643 566.8817
1662.3425 571.6389
1667.5857 573.6328
1669.496 567.66327
1665.2263 568.14355
1664.4097 563.6459
1669.2046 560.813
1664.1051 558.52594
1659.3862 557.04584
1658.1621 552.828
1657.5974 548.6132
1657.3442 544.2361
1652.0536 545.88855
1646.7224 546.6047
1642.9603 550.6439
1635.1346 549.659
1634.9319 543.0789
1639.0708 538.27527
1640.6401 545.3345
1643.7795 541.3825
1645.0103 536.23083
1646.5359 531.29553
1652.3087 530.86475
1651.0725 535.8041
1649.1439 541.07263
1654.5529 540.3113
1657.3906 530.48254
1657.4106 535.9601
1660.9491 540.8954
1664.6484 537.80774
1662.3997 533.36615
1667.1487 529.97815
1662.3445 528.1763
1653.9012 525.5197
1648.461 526.5695
1643.001 526.5227
1640.5913 531.975
1611.9504 529.97205
1614.6599 537.7469
1615.6355 546.34326
1618.1606 554.7062
1619.9811 563.60767
1615.7196 559.72424
1612.1145 552.7732
1608.5271 547.02454
1608.0703 540.9997
1603.7534 537.34393
1604.2516 531.8635
1606.9106 525.3274
1600.6855 527.33496
1599.5331 520.8394
1597.0002 514.77405
1603.317 515.01074
1603.2051 509.79926
1598.5698 508.86298
1594.7919 508.44577
1594.8267 503.19833
1600.5717 504.4459
1605.589 500.9469
1610.0378 494.13266
1599.2039 499.8595
1593.7227 498.22717
1594.1301 492.82944
1600.2336 495.07703
1599.0796 489.3734
1593.1553 487.83005
1597.16 482.85345
1604.6873 486.87888
1609.761 488.36115
1608.2756 481.76083
1605.8167 473.34714
1594.7239 476.82306
1591.6168 481.3092
1591.1353 472.12598
1591.408 466.14655
1590.0708 460.48993
1593.0096 456.06686
1597.1969 458.65436
1599.0271 462.72858
1600.2092 468.43286
1606.2715 467.9045
1606.4443 463.32016
1612.1587 465.6799
1610.6321 460.54285
1612.5835 456.06604
1616.5662 455.7874
1619.895 458.3797
1615.4022 461.29785
1619.0468 463.77536
1617.334 468.5306
1611.6495 470.9842
1609.9897 476.51178
1616.586 473.87744
1615.2123 479.42282
1614.4902 484.75558
1614.9624 490.71225
1615.3726 496.5266
1612.7705 500.31406
1615.543 504.7928
1606.69 519.1127
1615.2882 521.8726
1637.2034 526.6799
1639.2887 521.95386
1640.9116 516.1288
1644.6316 520.7401
1649.4645 522.11847
1653.6455 519.86176
1657.861 520.33545
1658.7109 525.1813
1662.6213 522.01184
1666.4222 525.0828
1670.9314 523.9076
1675.2231 526.23
1672.2291 530.1766
1669.0576 534.62964
1670.4806 539.44116
1666.8624 543.29803
1662.368 546.6325
1666.7227 549.3288
1663.0278 552.60657
1667.5425 555.2883
1671.1257 553.22485
1670.9465 547.7094
1673.4484 544.13837
1676.1204 539.6368
1675.2253 535.04596
1678.0908 530.58246
1680.4121 525.17505
1676.2512 521.2433
1681.7068 519.4098
1684.565 514.18475
1682.2759 509.08347
1684.5146 504.479
1683.9326 498.98572
1684.9873 492.935
1679.051 487.44183
1678.75 493.03415
1678.3572 498.80377
1678.313 504.66327
1676.0743 510.1439
1679.8251 513.75446
1675.9865 516.1297
1671.4875 518.083
1666.9592 519.68945
1671.088 512.5233
1666.5065 509.27966
1666.2417 514.66895
1661.5277 516.9925
1661.3649 511.97714
1656.6853 509.69556
1650.4612 502.19055
1652.241 506.9632
1651.5139 512.42896
1656.1587 515.0668
1649.7874 517.14526
1645.8203 514.576
1642.7024 510.13422
1647.637 508.75897
1644.4016 504.50732
1645.3613 499.3841
1645.2517 493.9071
1650.6831 495.73325
1655.7915 498.8166
1656.6521 503.9355
1661.6602 506.6356
1661.7665 501.30637
1661.561 496.16016
1656.3643 493.41132
1657.0184 488.12347
1652.0347 484.45105
1651.4495 490.099
1646.2168 487.81525
1645.9644 482.1777
1649.3887 474.1762
1651.3113 479.02414
1657.8833 483.31723
1656.353 479.00067
1654.8043 473.95798
1660.3485 475.92047
1662.6559 480.43063
1662.9373 485.52344
1667.929 487.44186
1662.0997 490.78662
1667.2881 493.16296
1667.3278 498.62778
1667.0879 503.92017
1671.9858 506.77985
1672.8933 501.4452
1672.9036 495.74585
1672.9966 489.9852
1679.7118 481.39758
1684.6914 486.02936
1686.5259 479.68195
1680.9972 475.91147
1676.4365 472.9344
1673.4971 468.94724
1670.107 473.21802
1673.8501 478.1191
1673.8685 484.1433
1668.5676 481.87292
1666.8695 477.17477
1664.4404 472.89984
1659.6538 471.00717
1655.8264 468.6599
1657.2737 464.30685
1654.9397 460.63696
1652.2614 465.1395
1650.9208 469.66486
1645.3455 469.42746
1646.8411 465.47552
1649.6921 461.4128
1654.8877 456.3991
1650.7366 456.66855
1646.9917 457.37042
1619.6932 452.1657
1615.2402 450.69666
1619.5364 446.79437
1620.3542 441.42953
1643.7146 441.33685
1644.5194 446.14206
1648.8259 447.9786
1647.0829 451.98962
1651.8069 452.1809
1656.31 451.9686
1660.4485 451.526
1663.8394 453.9354
1659.4336 456.58588
1660.7407 461.14352
1664.6143 458.43066
1666.134 463.20172
1661.3667 466.07028
1664.9696 468.57065
1669.1094 467.39838
1672.3253 463.29938
1669.6532 459.1103
1673.3478 455.66394
1676.3074 460.1356
1677.606 465.65448
1681.3606 469.7137
1686.0979 472.69318
1687.6129 466.5477
1683.3478 464.68954
1681.2964 460.27563
1686.9109 460.17963
1687.1295 455.04517
1682.9744 455.42053
1678.3846 454.9277
1676.0697 450.5349
1677.0878 445.7265
1681.7908 449.94214
1687.063 449.51196
1685.8026 444.76056
1681.1917 444.5864
1678.3855 439.96283
1682.4443 439.54086
1686.4806 439.80048
1684.9181 435.14377
1683.7097 430.3902
1684.851 425.133
1680.9905 425.57318
1676.706 424.07428
1679.36 430.0036
1679.8982 434.9726
1675.51 432.61633
1675.1843 427.95032
1670.951 429.30304
1672.2698 423.29428
1668.852 425.82825
1664.8922 424.05505
1667.6599 420.87057
1670.8779 417.7341
1675.1602 419.2262
1679.7234 420.86517
1683.2683 418.6532
1678.854 415.65802
1673.8337 413.92627
1673.6652 408.73602
1678.3539 410.38
1682.9078 412.41565
1682.7406 406.84863
1681.947 400.94446
1677.8489 404.618
1672.9924 403.09344
1670.4541 398.92267
1674.7576 394.04376
1677.4053 398.36505
1682.4457 394.05502
1679.5079 389.10126
1681.148 382.72858
1675.678 383.27307
1672.9918 388.25397
1669.2489 392.3747
1665.9678 396.09882
1664.2566 400.6568
1666.694 404.34058
1669.0364 407.67026
1668.6484 412.32346
1663.3519 410.25586
1661.1829 405.79294
1657.2837 414.1012
1661.8726 415.13403
1666.2136 416.35422
1661.9276 420.34924
1656.8804 419.20325
1656.6863 424.05286
1660.9761 425.99216
1665.0134 428.75867
1666.6577 432.52002
1664.4683 436.21762
1660.4001 437.60788
1656.4135 438.5396
1655.5243 443.0776
1661.2274 443.19916
1665.2827 441.07956
1669.2346 437.57504
1671.0234 433.56174
1674.4257 436.99457
1674.3678 441.65643
1670.0378 442.05066
1672.3345 446.37936
1670.6072 450.60034
1668.1581 454.081
1667.1357 445.96246
1664.2454 448.83667
1658.7198 447.2138
1653.5619 447.5067
1649.5603 443.23834
1651.9265 438.5371
1655.3059 433.60312
1660.9238 432.07175
1656.8599 428.85385
1651.7228 428.57428
1649.3462 433.18356
1647.2402 438.15027
1643.3931 434.65765
1643.9473 429.86035
1647.2339 425.8055
1643.2866 422.0527
1647.7957 419.28427
1651.9641 422.5338
1652.4988 415.91025
1647.8416 413.40607
1644.0928 408.9991
1651.1433 409.2755
1656.8679 409.5636
1655.9253 404.30945
1651.4144 403.63144
1646.0839 403.95575
1639.4609 403.21713
1643.4156 399.03772
1640.0288 394.85046
1635.437 398.47974
1629.1973 400.53757
1630.1641 405.60773
1624.4553 405.5019
1619.8903 402.44028
1624.5632 397.84457
1629.4835 394.41904
1624.4058 390.36224
1621.9229 384.75092
1619.2933 379.63666
1615.1647 384.04233
1617.5806 389.63458
1610.6902 387.76074
1610.7429 392.83752
1605.4829 392.29407
1600.6451 389.88828
1596.1549 392.51483
1594.3999 397.67868
1599.6107 396.21237
1604.0712 397.34827
1609.1101 398.37387
1614.8915 395.16223
1619.9785 395.65656
1614.5477 400.74545
1609.4958 403.98972
1615.3174 406.7496
1619.5066 409.81442
1620.2891 415.494
1619.9404 419.9541
1624.6454 421.188
1627.1486 416.48315
1624.2323 412.0912
1629.011 410.8833
1637.9639 408.60474
1638.1155 414.0317
1642.9744 415.53354
1638.2849 419.94687
1639.7715 426.39072
1623.9431 426.85947
1619.6953 424.3335
1619.5712 428.71307
1621.8873 432.48972
1619.6274 436.4333
1616.4738 431.8194
1613.7483 435.6135
1616.0028 440.22934
1614.8008 444.91797
1611.1125 440.10434
1606.8206 437.93463
1608.4385 433.7169
1611.5369 429.91254
1614.7324 426.55783
1614.5468 421.94507
1614.6038 417.47687
1613.7286 413.12476
1610.296 409.45627
1605.006 408.06152
1603.3778 402.28415
1599.7963 406.27948
1595.1543 409.61194
1595.5254 415.53668
1600.7373 412.40314
1602.5391 418.27658
1606.7834 413.83167
1608.5798 418.90524
1609.2451 423.9836
1606.4451 428.39536
1602.3569 431.6776
1602.2855 437.2401
1599.5757 441.95612
1604.5072 442.74084
1601.0946 447.52255
1606.041 448.58942
1608.9573 444.3062
1611.3401 448.1397
1609.8082 452.14032
1607.7944 455.86484
1603.4646 452.93628
1598.4221 453.0692
1593.2395 449.85397
1588.6829 452.76413
1588.2549 439.79492
1596.232 436.36166
1597.0024 426.84668
1602.6499 424.42844
1597.4407 420.53784
1589.1467 419.28076
1590.054 413.02985
1589.1853 407.33447
1594.5204 403.9205
1589.8999 402.0666
1590.072 396.2169
1591.3651 391.13672
1595.4121 387.49777
1591.2344 384.90173
1592.9586 380.15155
1592.5493 374.28235
1597.2712 371.19238
1602.9688 372.2004
1608.2937 367.81036
1603.1461 365.99786
1598.1328 365.61874
1592.6392 366.88083
1592.3743 358.79175
1596.1475 360.82187
1601.1257 359.05
1606.3716 360.48874
1602.3965 352.8403
1596.3372 353.35886
1590.582 352.3819
1591.702 346.74036
1595.2378 342.18115
1600.565 339.67297
1603.2178 332.97937
1609.7661 335.88873
1616.1516 335.3332
1622.6565 335.9913
1619.4581 341.04163
1620.8026 349.32492
1616.343 345.97662
1612.1653 341.68564
1605.9287 340.1378
1598.8572 347.07867
1604.9739 346.4057
1610.3628 348.22638
1614.8815 352.05695
1607.9932 354.2252
1613.2174 357.3806
1611.2146 362.5066
1614.96 365.8852
1620.4119 365.80188
1623.5482 363.10675
1619.1962 370.19305
1613.0913 371.09955
1608.7201 374.17236
1604.908 377.5151
1602.3645 381.4698
1598.2767 377.1129
1598.1912 383.73773
1604.7379 386.40143
1608.791 382.05048
1612.906 378.2606
1617.0269 374.72357
1622.7738 374.54233
1625.6562 379.33575
1628.2974 383.83582
1630.821 388.36328
1634.8821 392.44662
1637.6412 387.73083
1634.9912 383.3935
1632.3916 378.76898
1632.6189 373.31903
1628.1465 374.2566
1625.2429 369.1264
1630.4739 368.3214
1635.7662 366.02252
1640.1268 368.37952
1635.9069 370.25977
1637.3206 374.97955
1642.1521 373.81787
1644.1888 369.57428
1644.5803 377.9996
1639.2144 379.60007
1642.4755 384.05194
1642.4343 390.00424
1647.4456 388.07928
1652.0327 392.28717
1646.487 393.97864
1649.6644 398.479
1655.002 397.53027
1659.2205 400.70163
1660.7404 395.89853
1657.9707 391.8742
1655.7358 387.8255
1651.6989 385.24554
1647.8286 381.95087
1653.0981 379.37753
1656.994 382.7723
1658.4883 378.04523
1660.7848 373.83105
1664.647 370.5802
1661.0579 366.60153
1656.8506 369.25317
1654.2585 373.6672
1649.4229 376.2756
1648.0701 371.91827
1651.7104 368.25134
1651.201 363.22186
1656.4253 363.4358
1653.1777 358.57782
1658.6364 358.12396
1657.2361 353.7069
1654.9412 349.34613
1652.0067 353.59882
1647.963 356.674
1646.8151 361.2517
1646.5736 365.99408
1641.6947 363.48276
1643.024 358.46515
1643.2664 353.90027
1647.9949 351.21017
1646.5299 346.82513
1647.075 342.49078
1642.575 340.6998
1642.0782 336.33218
1645.1447 332.9911
1643.9802 328.60925
1648.6412 328.4523
1647.3157 337.7787
1651.5159 341.04517
1653.368 336.85358
1649.7253 333.72754
1653.3657 331.20276
1657.0769 333.5986
1660.6016 336.05045
1657.3033 339.90356
1655.0509 344.18808
1650.9121 346.59888
1659.4578 345.8045
1662.0184 341.85995
1661.0569 350.33026
1663.6653 354.68134
1669.2966 352.5321
1671.9148 358.18915
1667.182 359.09357
1662.3236 361.2843
1666.8105 365.16217
1672.424 364.61826
1675.9187 371.0396
1670.3357 370.76645
1667.3345 375.987
1663.6798 380.45758
1661.2766 385.7995
1663.566 390.90036
1667.0156 386.432
1669.8914 381.75702
1674.0186 377.15173
1680.3447 375.296
1678.6396 366.1153
1677.0171 360.3027
1682.967 357.12094
1675.7758 354.46045
1675.6167 349.18488
1675.4272 343.71823
1670.5652 346.95224
1665.2388 347.4963
1666.8489 342.2655
1671.406 341.42145
1664.6093 337.57526
1669.2279 336.99228
1674.842 337.3849
1671.2957 332.95496
1671.7227 328.49124
1665.7834 332.807
1666.8123 327.95636
1662.2129 325.48767
1661.5842 330.68115
1657.6929 328.12213
1653.0574 326.69644
1650.825 322.95514
1645.3933 323.86826
1647.1332 319.58813
1644.7944 315.8563
1641.4071 319.5362
1640.6729 325.38257
1637.2019 321.93005
1635.5088 317.0932
1640.2 314.1046
1644.8982 311.0039
1649.6605 314.13892
1651.9448 318.28354
1656.6757 323.3831
1656.6584 318.78754
1655.3752 314.2909
1659.4939 311.10242
1661.4392 315.55872
1661.2943 320.45947
1665.747 322.03748
1669.7441 323.50775
1666.8832 317.40494
1666.2239 312.22406
1663.1128 307.78827
1654.3739 309.50812
1650.0281 309.40533
1646.8494 306.16565
1647.231 300.99792
1652.4446 304.0345
1657.7999 305.85577
1661.4746 302.18115
1656.6321 300.40253
1658.9779 296.30148
1657.4677 291.30206
1652.7325 294.02948
1651.4211 298.51245
1646.8727 294.23718
1642.7615 289.09143
1641.6583 283.58563
1646.5632 279.7143
1646.9509 284.3465
1648.6702 288.65796
1653.2983 288.9882
1654.6012 284.72278
1651.6865 281.0135
1651.096 276.22443
1645.083 275.80182
1648.1025 272.83914
1647.7068 268.89716
1647.2341 264.64474
1643.1962 263.87354
1645.1229 257.96136
1640.7361 254.83081
1643.2611 250.51138
1638.668 248.6793
1631.1234 250.08188
1635.271 253.11954
1636.2659 258.0503
1640.2086 260.67844
1636.9015 264.7677
1641.5424 268.28186
1642.0938 272.5474
1641.1427 278.3872
1637.3914 274.54773
1635.8198 269.76904
1631.0413 266.08237
1632.4132 260.9161
1629.8342 255.78055
1623.9182 255.99004
1626.5353 260.88696
1620.2065 261.42072
1619.5889 266.1443
1625.2407 265.81396
1626.689 270.6236
1631.0435 272.29767
1632.906 276.8663
1627.9943 278.49875
1624.3112 274.99872
1621.0803 270.49597
1618.4735 274.7533
1615.7338 278.51782
1610.7728 275.76584
1615.1562 271.19388
1614.147 265.55148
1613.9546 259.7928
1609.1367 261.97253
1604.1631 260.09735
1599.7676 262.1881
1597.0413 266.5537
1594.0082 269.59003
1589.4855 270.0672
1584.7917 271.3947
1581.5184 274.74792
1584.6047 278.44427
1588.897 275.7285
1594.0249 274.7348
1599.3988 272.17645
1602.6354 266.71393
1607.7971 266.55048
1610.2773 270.65125
1605.1177 271.81192
1604.179 276.46094
1599.1536 278.02496
1599.3647 284.45474
1603.4248 281.93158
1607.98 280.09943
1612.71 282.07233
1618.1421 284.17163
1621.1995 279.2695
1624.3022 282.75797
1627.8093 286.10327
1631.9589 282.7075
1636.7446 280.5726
1637.0278 286.3437
1631.819 288.9533
1631.0667 294.70685
1636.9633 303.1102
1636.0867 297.78186
1636.4668 291.85025
1641.0388 294.11978
1642.33 298.7159
1642.325 303.66754
1640.5686 308.11865
1636.5042 310.83215
1633.1499 306.9442
1628.0546 305.53757
1630.8359 300.93488
1625.9902 297.7429
1622.7677 301.82492
1616.9496 300.33984
1620.3315 295.59723
1625.7937 292.03314
1622.583 287.8919
1618.4823 290.29272
1614.46 293.3563
1612.0515 297.66998
1608.0703 301.34802
1602.4858 300.50262
1605.9874 296.11102
1608.9237 291.5989
1613.4734 287.6654
1608.6796 285.515
1604.2479 287.3765
1602.6913 291.7227
1597.6952 289.70337
1594.3682 285.06424
1594.7788 279.86166
1590.1434 281.06873
1585.5972 283.19278
1581.505 283.8371
1580.1146 288.24677
1578.3789 292.56647
1582.8242 294.7591
1582.6299 300.04163
1588.3005 294.3056
1585.0892 289.5316
1588.9977 286.15253
1591.6843 289.89526
1594.5068 294.1792
1599.6094 295.7912
1596.3699 300.35657
1591.7394 298.58978
1587.8895 301.35944
1590.6615 305.72852
1596.4299 305.28253
1601.4266 305.41248
1606.2036 307.04437
1612.4467 304.7205
1617.8809 306.21634
1623.2383 307.2186
1621.1038 312.08606
1615.7446 311.48315
1612.3694 316.06274
1618.4246 317.71353
1613.6227 322.56647
1619.7935 324.0663
1624.0845 320.7362
1624.8284 315.93774
1627.3494 311.27014
1631.8723 313.04413
1629.7251 318.5674
1632.2448 323.03503
1636.0737 327.34586
1639.8264 331.16315
1637.5056 335.3632
1637.3647 339.7641
1638.098 343.90784
1642.1707 345.28137
1642.89 349.541
1638.4508 350.16705
1635.2639 347.17474
1632.1359 351.19434
1633.2952 355.19678
1637.9373 354.26233
1638.4722 358.35556
1636.9758 362.16974
1631.894 363.31708
1627.7488 363.0694
1633.0723 359.27386
1628.5288 356.85767
1623.8721 358.0641
1618.0344 360.54047
1619.9846 354.87347
1626.0981 351.71005
1629.5428 346.7683
1624.2417 345.16272
1626.8505 340.34656
1632.4009 342.64685
1632.5751 337.74878
1634.012 332.30627
1630.8534 328.4288
1628.7753 334.7362
1625.9655 330.65784
1626.4205 325.13452
1620.8247 330.0829
1615.4319 328.4229
1610.2786 330.53525
1607.3673 326.01105
1601.0767 326.8579
1596.1907 330.23438
1595.6543 335.90298
1589.4685 333.57184
1589.6208 339.95483
1584.5542 343.259
1585.5913 349.03427
1579.1709 346.38257
1577.1852 340.02692
1583.3983 337.14447
1578.7412 332.8005
1584.3481 329.94055
1578.8396 325.93008
1580.8496 320.28308
1576.4714 317.55606
1577.8517 309.5362
1580.7914 313.6138
1585.5704 316.76956
1585.552 323.60507
1590.6963 327.07092
1596.0039 323.06424
1591.2183 319.74515
1595.331 315.34564
1599.7681 317.4226
1602.9722 321.3014
1608.2899 319.77057
1610.3131 310.37274
1605.5437 314.2035
1600.5641 311.0619
1594.5839 309.87744
1590.1934 313.13068
1585.9263 310.06073
1583.116 305.80786
1577.6066 303.36694
1577.1768 297.79813
1573.2434 293.35745
1574.7853 288.23196
1571.4335 284.586
1576.5342 283.54037
1579.0438 279.25635
1572.9598 279.57507
1571.4128 274.83856
1573.2275 269.95926
1576.2917 274.74445
1579.3145 269.8648
1576.5435 264.92722
1581.4551 264.68222
1585.7306 265.90805
1590.2133 263.98767
1594.3745 261.69733
1597.3645 257.33414
1601.945 254.58157
1608.433 255.94426
1605.6439 250.44511
1603.3784 245.2136
1599.393 249.2089
1594.8247 252.67755
1590.5466 257.34293
1589.595 249.84271
1585.2225 253.8869
1584.9418 259.51672
1579.2974 259.66986
1571.7963 264.61264
1568.7 261.33527
1573.4835 258.79434
1577.8352 255.10388
1579.9392 250.82231
1584.245 247.13512
1579.0588 244.8305
1574.1478 246.9762
1573.228 252.15039
1568.4728 255.012
1568.6604 248.3051
1566.1104 242.8439
1569.0227 237.96591
1573.1553 241.66418
1578.9446 239.11223
1575.2251 235.45276
1576.5759 230.13701
1581.72 226.8928
1581.9304 233.99359
1584.0033 240.79802
1588.734 234.9309
1586.18 230.17633
1591.7087 230.02884
1596.531 228.6222
1601.5759 230.46613
1600.68 236.55096
1595.5742 234.25299
1594.2163 239.56793
1589.0107 239.45178
1589.2299 244.31529
1594.5537 246.0604
1598.953 242.24736
1605.3232 239.90569
1606.7281 234.24028
1611.215 240.32053
1612.7029 235.50488
1618.3052 235.5152
1618.9042 229.88055
1623.3739 234.26085
1623.782 240.29053
1621.3374 245.5745
1619.2395 250.87376
1615.1191 246.1395
1617.3071 240.81004
1609.0336 245.20602
1611.3223 250.33585
1614.3278 254.07481
1618.7754 256.59045
1625.3275 250.78679
1627.3726 245.69308
1630.4204 241.68883
1628.9214 236.76775
1635.8391 239.87883
1634.5176 245.59424
1640.8549 242.97354
1639.0542 235.00662
1633.8383 234.34795
1637.0198 228.28642
1633.0664 219.43405
1628.0576 215.38116
1622.6682 218.82501
1627.4258 221.30121
1631.6843 224.8042
1631.8608 229.69714
1627.2811 231.04114
1624.5498 226.41594
1619.417 224.22295
1613.7942 225.20337
1612.5742 230.46536
1607.2361 228.40012
1603.6471 224.22026
1609.2166 222.95483
1605.8777 218.91801
1608.4043 214.3563
1607.3293 209.69572
1610.6653 206.05875
1612.1741 200.1069
1615.6918 203.61784
1617.0308 208.81572
1613.3042 212.33997
1612.0569 218.13327
1616.6796 219.55457
1618.9983 214.41412
1623.2944 210.9041
1628.7285 209.87018
1625.2489 203.64597
1621.081 205.21819
1619.2896 199.23666
1619.6222 194.4262
1614.4641 190.22205
1612.6641 195.23367
1607.1411 200.39355
1604.0847 204.84525
1600.3937 200.51653
1597.61 204.70703
1602.1707 209.59555
1602.6567 214.43262
1600.1177 218.9937
1598.609 223.99045
1596.5352 213.66327
1597.6676 209.16891
1589.925 213.30215
1592.4912 208.14323
1593.8289 201.48718
1588.7739 203.1372
1586.4395 208.4296
1581.628 204.18425
1581.1646 210.21794
1575.9578 208.39183
1575.408 203.09027
1571.3982 199.35553
1566.1741 201.4107
1561.8369 198.87616
1559.7078 204.811
1564.1877 206.8148
1569.9436 206.11845
1571.7041 211.95474
1566.1678 211.87372
1568.9545 216.61884
1573.8578 219.45181
1576.9471 214.55615
1583.7583 215.15942
1589.1125 218.80437
1594.5322 218.17142
1593.216 223.58263
1588.2511 225.27567
1584.3726 221.50748
1579.6497 219.7869
1576.7375 224.44241
1571.865 226.03008
1568.8921 221.7756
1564.5121 222.66435
1567.2336 228.60165
1570.6328 232.39236
1563.8376 235.63628
1560.825 230.98705
1562.7672 227.19058
1556.8655 225.94977
1559.6351 221.41882
1554.6067 219.86002
1551.2474 214.8079
1557.0115 215.38522
1562.9429 217.08472
1560.8843 211.52881
1556.1892 209.80267
1551.3727 209.13268
1547.5197 208.95457
1548.5663 203.69116
1553.9099 204.7038
1556.7593 200.44888
1552.0425 198.98955
1547.3074 198.04735
1547.091 193.62372
1544.9587 190.26431
1550.264 188.13841
1553.3114 183.92401
1556.7339 179.69363
1556.7659 174.81995
1563.8728 178.58408
1561.6248 173.804
1558.5819 168.38535
1562.8455 162.53447
1568.6571 161.51411
1565.1204 156.6768
1559.2104 156.59209
1562.664 151.19624
1568.5414 151.16826
1570.9922 155.90538
1575.0989 151.08421
1580.7527 150.72974
1580.1989 155.1539
1580.8931 160.00053
1575.7572 157.20636
1574.3052 162.04626
1569.1648 167.23581
1563.8054 168.15753
1567.3667 172.52481
1569.9989 176.32382
1569.7781 181.58653
1565.7556 184.01898
1560.1156 183.89294
1557.0815 189.02188
1552.2906 193.17517
1556.8948 195.1563
1561.7148 193.2999
1563.9216 188.85764
1570.0496 188.73827
1567.344 194.67178
1573.6748 194.11247
1576.4023 189.15317
1580.2607 192.88792
1578.4674 198.29057
1584.5369 199.09929
1585.6147 193.52863
1589.9502 189.92957
1594.8243 191.7481
1590.2384 196.59949
1595.7261 196.89786
1600.0049 194.43701
1603.8818 196.858
1606.6615 193.40701
1609.3501 189.46393
1611.6277 185.29845
1606.9066 182.3703
1603.4141 178.49834
1604.8474 187.52379
1600.2671 189.67068
1595.1552 186.15121
1600.7354 184.02545
1597.8357 180.03961
1598.7122 174.92847
1603.4625 172.331
1595.1858 170.9613
1593.2103 175.99199
1592.8398 181.20024
1588.8945 184.47935
1584.0619 181.47052
1584.0168 187.93102
1579.6265 184.4556
1574.2476 184.2427
1574.7516 178.76306
1579.3503 178.15332
1579.1787 170.76695
1574.4025 172.91995
1574.3406 167.4383
1579.5713 165.04074
1585.1455 163.32642
1584.2489 168.94708
1583.0923 174.73407
1587.9628 178.12286
1588.7166 172.68472
1589.4224 167.41782
1594.1512 166.42712
1589.9948 161.60837
1586.1873 157.07185
1585.5731 151.57205
1582.8976 146.14081
1580.9514 140.92757
1578.2397 136.23746
1578.7256 130.79929
1576.5483 125.85292
1575.844 120.22335
1570.3245 122.41115
1570.526 117.60489
1574.1287 114.23422
1575.2803 109.932274
1570.2916 107.69835
1569.9385 102.03346
1565.8599 103.6635
1561.2871 104.24695
1562.5958 98.96444
1566.92 97.501915
1563.7898 93.304596
1559.3994 94.544174
1557.7649 99.01824
1557.0569 103.16494
1554.3491 105.88692
1549.5361 105.71267
1547.2655 100.713524
1552.408 100.85477
1554.498 95.79159
1549.9432 96.41048
1547.0764 92.43271
1551.1774 91.639404
1555.6119 91.05914
1560.0222 89.8966
1564.5902 86.31036
1556.9175 86.407974
1553.7441 83.60726
1551.5192 79.87959
1548.7355 83.569336
1551.7491 87.39017
1546.7292 87.895996
1542.2981 86.65435
1544.1759 82.85518
1541.2672 79.29077
1546.7874 78.78719
1543.673 75.274315
1536.6846 78.281494
1538.9182 73.39443
1534.0696 70.285904
1533.8871 74.550415
1531.1633 78.13582
1528.5107 82.398155
1524.5061 81.07206
1522.5967 84.50899
1520.7047 88.25842
1523.4102 91.20983
1526.2358 87.69414
1530.4297 86.52173
1533.5408 82.636566
1538.2115 83.11182
1538.3994 87.46629
1534.338 88.14682
1530.358 91.36069
1527.0911 93.668045
1523.4705 95.87778
1520.1436 97.98894
1518.373 101.81302
1514.2094 103.45734
1513.3496 107.650986
1512.5942 111.88861
1508.2177 113.20108
1505.6711 117.52266
1510.9755 117.76332
1508.0919 122.1828
1512.0354 125.28514
1517.0789 125.632805
1515.3564 120.9482
1519.1395 117.235535
1515.1343 115.55914
1517.837 111.5461
1517.9891 106.72829
1522.2743 104.94089
1523.5133 100.698654
1527.73 98.583755
1531.7695 96.84929
1534.5437 93.55273
1538.3359 91.56787
1542.7131 91.669975
1544.714 96.272095
1541.8679 99.84303
1539.2004 95.89531
1536.1951 99.579315
1531.7184 102.21062
1527.3716 103.52224
1526.4524 107.849106
1531.3297 107.8817
1536.075 109.538994
1535.5786 104.80095
1539.8069 104.155075
1544.4202 104.774475
1546.4844 109.62158
1541.3501 109.681015
1538.2816 114.264175
1532.9163 113.99359
1528.161 112.40087
1522.4453 109.82461
1522.6185 114.23157
1525.8853 117.14886
1529.8973 118.828094
1534.5568 119.16043
1539.376 120.73177
1542.0615 117.153564
1545.3838 114.80194
1550.1636 113.27181
1553.2777 109.86135
1555.649 114.06183
1559.0176 109.24383
1564.495 109.02916
1567.8861 113.064476
1561.5518 114.52242
1565.0189 118.65088
1564.8802 124.26522
1559.4935 127.307205
1565.6312 129.20941
1570.7035 127.270325
1573.5215 131.33383
1572.5547 136.3043
1567.9324 134.13504
1562.4388 133.2792
1558.3153 135.40985
1556.1069 131.62842
1550.5134 132.37666
1553.3457 127.61929
1553.3928 122.91302
1559.9363 121.77764
1556.5925 118.45511
1550.2234 118.57537
1545.5332 121.810196
1547.9117 126.428375
1540.7991 126.9616
1536.3547 125.41311
1531.0935 124.26305
1526.2437 122.96835
1521.6198 121.069214
1522.1276 126.603355
1527.0133 128.58421
1523.246 132.86871
1518.3647 130.49532
1516.9236 135.13123
1515.7029 139.86209
1521.4866 138.4733
1527.1212 137.16043
1529.6389 133.34874
1532.6941 129.35696
1535.3809 133.99553
1532.9812 138.74725
1530.7919 143.59792
1526.6555 141.7262
1522.9034 144.00214
1517.8364 143.9076
1520.5062 148.31906
1526.6277 148.13193
1528.2098 153.53613
1530.4211 158.3328
1534.4744 161.32942
1537.942 157.76596
1542.4263 156.00105
1533.9645 154.03986
1532.1969 148.92825
1535.7961 144.8664
1538.5659 140.0841
1540.3452 134.90942
1544.5658 130.57631
1545.4843 135.22723
1544.1401 140.14575
1540.8491 145.64166
1538.2317 150.89621
1543.7861 150.64287
1548.6421 148.80269
1545.8243 144.77393
1550.66 142.56958
1549.4735 137.7527
1554.3904 137.96872
1560.3225 139.70435
1565.019 139.45706
1569.7003 140.94568
1575.1648 140.95473
1577.4656 145.68608
1571.8706 146.2754
1566.3119 145.79004
1561.1838 145.50491
1556.5309 143.36812
1553.4366 147.13875
1557.3004 150.77646
1552.344 152.79381
1553.433 158.1229
1557.1104 162.33826
1548.4047 160.27707
1547.6031 155.07474
1543.1865 161.81013
1539.241 164.2219
1538.0632 168.71512
1533.4845 166.34247
1528.9464 164.26407
1525.5383 161.28375
1523.3777 157.18791
1522.6145 152.71912
1517.1388 152.32047
1516.692 157.22078
1512.027 160.50255
1507.2891 156.43774
1504.3826 160.79668
1505.5955 165.90865
1511.0593 165.90082
1516.8629 165.98796
1519.6826 161.60028
1523.0674 166.75452
1528.471 169.51646
1532.999 171.88675
1528.7991 175.87663
1523.3406 178.24968
1524.4587 172.70946
1519.5417 171.87657
1514.0721 171.31116
1508.1633 171.34348
1505.065 176.27866
1499.6254 175.68262
1502.0066 170.60985
1499.8895 165.22543
1496.6477 160.40857
1500.435 156.0994
1504.1853 151.51859
1507.9404 147.53922
1511.3674 153.22444
1514.0195 147.97815
1511.3407 143.11942
1505.9836 140.84169
1511.0908 137.2073
1507.0604 134.12436
1512.7029 131.17403
1507.8483 128.584
1503.7197 125.60915
1502.4272 130.535
1497.4371 130.37517
1498.1763 125.18167
1489.5764 128.04173
1487.0137 124.018906
1484.9171 129.47551
1484.3613 134.44165
1489.4784 136.01141
1485.8022 139.44357
1483.7827 144.00484
1478.3401 142.97293
1480.8722 138.95413
1478.1289 135.15445
1480.3344 130.9306
1482.116 125.440414
1481.2262 120.862045
1484.9177 118.92407
1489.3026 119.61785
1492.3567 115.99081
1497.1194 119.567566
1502.1345 121.06212
1500.3322 116.077225
1503.6543 112.83846
1503.9308 108.32143
1508.4758 108.50459
1509.3556 104.25995
1510.6254 100.430466
1514.2142 98.89331
1516.8561 96.43609
1519.3031 93.02385
1514.0822 93.65491
1511.8704 90.0141
1508.5721 91.81203
1510.2521 95.965485
1506.3896 99.45604
1504.8944 103.84473
1501.0852 101.5582
1502.001 97.35257
1505.6008 94.80379
1501.4882 92.504135
1497.482 94.566055
1497.5178 89.372856
1493.816 86.855804
1493.0054 81.867584
1498.3489 83.22379
1496.5627 77.533424
1501.3601 73.02869
1501.5192 78.66234
1506.5132 77.661514
1504.4497 83.10984
1501.431 87.09062
1505.0046 89.43432
1508.2941 86.36243
1512.9288 85.84948
1516.3422 89.59488
1517.677 85.12979
1509.791 81.51843
1512.9951 77.005455
1514.6766 81.565094
1518.9236 80.33257
1522.0259 77.10132
1526.5323 76.6394
1528.9752 72.54273
1526.4894 68.425995
1522.8335 71.913925
1519.072 67.87161
1518.0403 74.56836
1514.0842 71.50482
1511.7626 66.9503
1508.4641 73.08418
1506.1189 68.33856
1500.7024 67.3067
1495.4009 68.14101
1494.1406 72.799126
1490.6311 76.96425
1487.1614 72.52867
1489.2356 67.763336
1482.5883 69.18782
1476.8555 71.31742
1472.4197 74.349495
1466.808 75.76724
1461.5667 78.353455
1459.9464 83.720085
1465.8768 82.60597
1470.8 80.391884
1472.6755 85.471695
1477.7175 84.93332
1479.7627 89.59999
1479.1608 94.59441
1483.6714 96.973755
1484.4685 91.65023
1483.7234 86.248856
1481.5791 81.25317
1476.2184 79.23036
1480.2241 74.979866
1484.9062 77.19353
1487.4124 81.62366
1488.7693 86.08417
1489.4653 90.30554
1488.6023 94.92898
1488.134 99.61879
1492.8088 98.017235
1493.4526 92.64321
1497.415 98.75279
1499.9642 105.858055
1499.3374 110.708145
1495.951 113.63248
1495.4856 107.540764
1495.9966 102.74101
1491.7202 103.67431
1488.6074 107.49446
1486.802 103.80776
1482.7837 102.116486
1478.6951 99.8663
1474.2644 96.99242
1469.1667 99.082664
1464.0186 99.35028
1464.8875 93.65157
1470.188 93.407166
1474.723 90.92192
1468.3909 88.19189
1463.072 88.02113
1458.9929 91.26928
1459.3291 96.17465
1458.7236 101.47499
1458.8733 106.09534
1461.1097 110.38793
1463.0546 114.60802
1469.1926 114.318665
1466.9463 109.71808
1464.4749 104.68145
1469.722 104.729614
1474.1844 102.6568
1478.3268 105.60205
1483.1489 107.451645
1479.1849 110.763535
1473.2097 108.70221
1474.6531 113.333855
1473.456 118.261314
1468.2545 120.00072
1472.1572 123.64851
1465.1936 128.83823
1469.9326 127.52386
1474.6794 130.7559
1477.0282 126.86257
1476.9678 122.05664
1478.6816 116.54433
1483.0125 114.53998
1485.8901 111.39909
1492.2886 110.457695
" />
</g></g></svg>
