<?xml version="1.0" encoding="UTF-8" standalone="no"?>
<!-- Created for Inkscape (http://www.inkscape.org/) -->

<svg
   xmlns:dc="http://purl.org/dc/elements/1.1/"
   xmlns:cc="http://creativecommons.org/ns#"
   xmlns:rdf="http://www.w3.org/1999/02/22-rdf-syntax-ns#"
   xmlns:svg="http://www.w3.org/2000/svg"
   xmlns="http://www.w3.org/2000/svg"
   xmlns:sodipodi="http://sodipodi.sourceforge.net/DTD/sodipodi-0.dtd"
   xmlns:inkscape="http://www.inkscape.org/namespaces/inkscape"
   width="3200"
   height="800"
   id="svg2985"
   version="1.1"
   inkscape:version="0.48.1 r9760">
  <defs
     id="defs2987" />
  <sodipodi:namedview
     id="base"
     pagecolor="#ffffff"
     bordercolor="#666666"
     borderopacity="1.0"
     inkscape:pageopacity="0.0"
     inkscape:pageshadow="2"
     inkscape:zoom="0.35"
     inkscape:cx="1600"
     inkscape:cy="400"
     inkscape:document-units="px"
     inkscape:current-layer="layer1"
     showgrid="false"  />
  <metadata
     id="metadata2990">
    <rdf:RDF>
      <cc:Work
         rdf:about="">
        <dc:format>image/svg+xml</dc:format>
        <dc:type
           rdf:resource="http://purl.org/dc/dcmitype/StillImage" />
        <dc:title />
      </cc:Work>
    </rdf:RDF>
  </metadata>
  <g
     inkscape:label="Layer 1"
     inkscape:groupmode="layer"
     id="layer1"> 
     <g>
<path style="fill:none;stroke:black;stroke-width:2px;stroke-linejoin:round;stroke-linecap:round;" d="M 
1826.49 17.453835
1844.2738 18.25995
1860.1602 18.635227
1854.8352 35.4077
1857.6489 51.827663
1855.7097 72.35533
1858.7627 91.8193
1843.5598 90.40146
1833.2142 103.104
1814.8563 98.08601
1827.0409 87.5426
1814.1188 75.77805
1813.4495 52.71673
1833.9698 72.73842
1843.731 59.1589
1830.5688 51.993393
1834.6259 35.636604
1811.7589 32.8959
1803.9858 16.417671
1786.0363 23.813416
1793.4548 46.33084
1798.9102 68.08485
1795.887 89.179436
1795.7229 111.03859
1810.5944 112.41141
1822.8505 118.41124
1809.7114 127.25915
1805.2249 137.59709
1792.9022 144.10828
1797.9097 169.68233
1805.2726 159.29083
1812.0924 149.4787
1820.4812 155.63025
1828.1077 153.199
1832.8324 146.87146
1822.3182 141.4332
1825.614 132.47348
1834.9365 127.33309
1836.3577 115.0632
1849.0573 105.97154
1858.9961 111.408264
1846.7408 124.1891
1860.8667 127.090546
1860.4556 140.50464
1857.0195 152.40048
1848.5056 139.1101
1838.6426 139.95383
1841.1241 154.13832
1846.6392 163.50133
1858.0676 165.1764
1860.812 176.28276
1858.585 188.88013
1846.0159 187.95062
1840.341 176.25284
1830.5183 165.08368
1815.8414 167.11227
1823.897 178.38885
1808.407 182.52847
1808.578 200.62366
1826.5886 195.46959
1843.0994 201.50418
1858.4607 211.10571
1837.4358 218.49707
1853.4045 235.66635
1856.4172 259.10852
1834.1722 259.27777
1823.8553 237.37761
1810.2094 220.0465
1805.564 256.9088
1786.8734 286.35413
1803.6577 292.28693
1821.9163 288.45648
1839.4326 283.6812
1858.8298 283.6068
1855.5236 304.1706
1857.7131 321.86456
1848.5159 331.79245
1860.2662 336.92236
1863.5658 352.7661
1858.228 367.49374
1844.7772 363.95343
1853.0653 346.9464
1840.2568 349.90936
1837.2611 339.03268
1837.449 326.6618
1837.8857 310.37823
1825.4692 326.0683
1816.3334 310.2561
1792.0558 313.4605
1773.8904 308.9933
1763.5322 319.92108
1775.5022 327.15222
1779.2769 336.96487
1785.2017 342.96567
1771.0703 345.47287
1780.336 349.37567
1783.9856 355.6141
1777.6903 364.2151
1789.5084 367.4395
1798.9509 357.81503
1794.3065 350.86884
1807.7845 352.94113
1813.4048 339.78485
1802.7263 339.94336
1793.5486 342.51047
1791.2002 331.03726
1802.6902 324.49146
1813.8494 326.73718
1825.7249 342.51764
1818.8711 352.85947
1830.8547 360.34018
1819.5751 369.84277
1804.1692 369.2799
1805.3279 395.5954
1841.1636 394.38025
1850.071 432.9304
1839.6823 476.6943
1851.7452 512.6476
1822.4331 523.9125
1796.7339 507.3298
1796.0211 464.6479
1814.3545 433.95834
1781.0133 413.68384
1767.5859 385.71814
1768.4114 370.39136
1767.8003 358.0019
1760.3015 349.67856
1760.2012 336.84476
1746.1261 334.77722
1736.4807 325.5374
1725.9668 318.98126
1718.3611 310.21075
1728.9901 306.6922
1738.1177 310.1526
1746.5305 317.1194
1752.5205 325.72296
1751.3015 305.15753
1739.7709 299.04718
1742.0046 289.44244
1736.7816 277.355
1742.136 263.53815
1733.3849 260.62317
1723.1321 253.35887
1721.5217 265.72742
1724.6897 277.8185
1711.6863 279.74084
1718.8027 287.16342
1728.4634 293.13843
1718.6062 298.5731
1709.215 292.78107
1698.811 288.09225
1686.2416 285.16232
1676.2422 275.04327
1668.0082 287.456
1670.7745 299.85992
1679.531 294.36154
1689.7764 298.1636
1679.8828 306.00357
1675.9874 314.93088
1663.4729 305.28012
1664.7911 315.99963
1672.0706 324.06348
1685.8755 315.42197
1681.0527 325.56683
1674.8181 333.47827
1673.051 342.98407
1663.601 348.00598
1656.4109 340.38342
1665.8354 337.62982
1661.8834 328.68274
1653.681 321.95654
1642.8179 324.38037
1646.803 336.83136
1646.0972 351.09116
1634.8317 361.5167
1648.8568 367.67334
1655.7705 355.21606
1661.065 365.46945
1665.023 374.48508
1673.8489 372.89874
1679.2568 384.64853
1689.3281 388.68933
1694.5669 380.54855
1685.1501 375.2944
1678.388 366.70334
1679.3206 360.45068
1668.2769 358.72046
1672.7676 351.42236
1680.0681 352.468
1681.9697 342.77338
1687.3468 335.97952
1694.0754 342.8869
1688.8019 350.32248
1687.2166 358.37204
1690.1254 365.8604
1697.1008 371.78198
1705.4656 378.70258
1716.1313 382.0138
1723.9716 381.2933
1731.1595 377.80603
1739.7101 372.6277
1746.5966 365.6338
1737.4655 356.2939
1730.8351 365.96985
1722.6409 372.06982
1714.0598 371.6854
1706.1129 367.91492
1699.5021 362.70822
1696.9099 355.32355
1703.5754 348.0615
1710.1653 357.6551
1720.66 360.5897
1724.9343 349.6405
1714.6753 343.4747
1706.8306 335.71185
1697.9457 332.59436
1687.7811 328.75174
1692.7815 324.4008
1695.4653 317.20264
1694.1853 308.14493
1700.3595 299.4959
1709.4725 303.72522
1706.5692 313.04657
1703.6427 323.02325
1714.3947 325.0708
1724.1593 333.2943
1734.9191 341.12183
1747.6833 347.52325
1752.7405 357.66455
1757.0449 366.5968
1757.5541 375.67188
1750.9259 378.86945
1746.2139 385.64816
1737.5741 386.9608
1729.7098 390.07626
1720.4553 389.8286
1710.5594 389.86163
1701.3804 391.2982
1685.8873 396.83264
1681.9458 404.43146
1673.965 409.57553
1676.2026 396.20895
1667.0951 394.4018
1654.9048 397.7656
1667.772 384.66254
1655.55 381.12192
1640.374 378.6778
1627.7373 374.8811
1616.0457 379.97546
1626.4298 393.2224
1644.5708 390.4675
1637.338 402.45032
1641.072 414.02112
1654.4442 413.5335
1663.9557 406.41034
1668.7637 420.8237
1659.2124 427.58734
1647.428 428.0832
1635.1143 425.87946
1625.3485 420.81226
1621.312 410.836
1615.7236 402.5908
1610.5973 392.50415
1601.4221 384.03693
1594.2527 374.90833
1605.9685 372.11667
1614.5225 361.70087
1599.1597 363.47406
1596.2834 353.59875
1600.9568 345.35864
1600.2172 333.89087
1599.3683 320.27283
1585.0835 316.54785
1578.73 331.38535
1576.998 345.36853
1584.5957 357.59216
1570.4758 361.21164
1555.3407 357.7995
1523.082 368.43677
1508.3652 375.19418
1494.3015 364.19275
1488.206 377.48138
1478.1013 390.27692
1470.1157 406.09225
1483.8303 420.5976
1498.2472 400.1074
1518.029 392.51697
1506.1853 420.59042
1524.2628 414.08896
1540.2673 428.70905
1550.9065 445.66156
1567.4037 451.1366
1573.1356 439.19775
1585.3457 447.1585
1598.3247 444.6388
1608.363 439.59448
1610.3732 429.33932
1600.6868 427.1703
1595.1699 433.7046
1586.6074 431.66412
1578.6489 429.48584
1567.46 427.62363
1557.0659 425.29187
1549.3191 409.1284
1539.4728 396.84152
1536.453 377.69373
1555.5938 382.91425
1569.1063 379.96677
1584.8428 368.51706
1582.7943 379.32074
1590.2507 389.89557
1576.2341 393.8086
1565.4531 405.748
1576.2689 417.78732
1579.4263 406.45923
1590.2876 402.5406
1600.0795 397.56592
1605.4851 407.42224
1598.3164 411.79956
1588.1971 413.28455
1589.8827 423.04968
1595.4574 418.73715
1603.7627 419.75262
1612.0774 418.80505
1619.8452 434.48572
1623.1698 446.41144
1631.1707 439.86395
1641.2104 439.76266
1653.2898 441.1635
1664.9995 440.96295
1674.272 437.7015
1677.0411 429.45697
1682.3864 419.60217
1687.355 431.34912
1698.0251 434.2988
1690.3594 444.0521
1681.9736 448.10608
1670.711 452.5101
1683.4473 460.1145
1683.2949 472.30856
1684.7529 481.32867
1680.01 488.5393
1670.6885 484.07965
1669.2747 474.20325
1672.3665 464.14682
1658.997 465.2142
1656.9001 453.4546
1643.8279 453.4372
1632.4419 456.41736
1629.0378 467.53802
1625.2451 478.84503
1636.5281 476.95306
1644.1746 467.63745
1653.1544 476.95172
1659.5092 485.47845
1661.4122 496.90427
1658.8518 506.17395
1664.855 512.9801
1673.6191 524.0005
1663.521 523.0712
1662.7532 532.1085
1669.9269 533.7833
1675.0771 538.98096
1665.4314 543.7263
1660.5764 550.0294
1651.9595 546.2846
1644.5757 552.3883
1644.7554 540.588
1645.9576 533.35486
1656.5807 538.1107
1653.446 526.9272
1653.8286 516.97015
1641.6931 516.2322
1641.8691 526.2014
1630.9031 535.58234
1636.6583 545.0811
1627.6136 548.1207
1619.5447 542.0305
1609.4169 552.95135
1620.9849 554.9896
1630.9373 559.4909
1617.7151 563.90204
1619.5563 575.1973
1612.4968 584.3944
1623.8972 592.8613
1627.5492 583.0383
1637.3501 580.1586
1646.667 580.3795
1648.291 571.8903
1648.9126 563.1797
1640.6493 566.84814
1630.7415 570.0311
1637.8772 555.67035
1650.7339 555.7838
1658.6992 557.50854
1656.954 565.22473
1657.61 572.4736
1658.0516 579.93414
1670.0935 573.0305
1665.6306 565.4437
1668.7699 556.8578
1675.697 550.08307
1684.7413 543.7311
1695.6475 552.15906
1690.4302 560.3048
1678.0791 562.4276
1685.0908 572.3589
1681.5475 582.4014
1678.2778 592.9007
1690.605 593.3126
1697.4908 583.39856
1704.1504 599.6585
1711.1973 586.5648
1701.0645 570.69214
1710.939 558.8197
1714.7861 545.12976
1699.2297 543.70483
1690.3057 530.89844
1681.9529 529.2717
1697.3456 532.8046
1705.035 535.3771
1713.6599 534.249
1730.5354 536.0559
1720.8008 528.54846
1716.6897 520.3075
1711.7971 512.8612
1707.9001 525.5033
1701.3741 520.91876
1692.6243 519.57446
1683.4534 516.1122
1674.4515 513.4385
1672.6821 503.93176
1672.8013 494.61298
1683.732 502.84372
1692.4084 508.33954
1688.2355 493.28278
1698.5781 497.95944
1702.8328 508.98438
1714.9808 500.59677
1709.2762 491.53986
1697.483 483.27478
1694.4067 470.19897
1697.194 458.02206
1706.4403 468.0289
1711.0983 481.21994
1720.276 475.64633
1718.7783 463.03217
1713.6953 453.73508
1700.228 447.96887
1708.7267 444.14886
1708.3094 431.2688
1718.5819 430.07513
1720.5105 442.17502
1729.4832 431.6229
1728.0869 421.50986
1715.3416 417.7312
1699.0947 420.60812
1690.0269 411.5927
1694.597 400.01984
1703.092 406.59406
1714.338 405.24335
1723.5958 399.12354
1731.148 410.0522
1739.0137 400.21103
1752.5115 396.28485
1748.9579 412.26697
1739.3768 420.44324
1744.3422 432.37817
1733.7888 441.7855
1729.42 454.82404
1750.2195 453.62207
1767.4122 481.32617
1733.2772 472.67224
1729.618 490.30234
1726.1667 506.4814
1730.5076 518.1592
1758.2661 509.3221
1757.4446 535.9608
1782.9504 548.0049
1799.925 566.717
1826.4719 553.9158
1854.2853 546.9097
1847.8374 570.68243
1854.0718 588.2694
1857.9352 609.4446
1853.8201 632.5565
1841.9551 616.93396
1829.8794 628.3175
1828.2842 644.6373
1827.3489 659.56885
1838.6135 671.0014
1828.9714 688.3916
1839.1774 697.69006
1827.6044 704.3525
1811.6831 694.39325
1816.2892 675.0697
1799.6118 683.4897
1787.3684 667.6079
1801.1958 653.26733
1808.4843 632.6971
1812.2058 611.43335
1831.7777 602.37555
1822.6051 584.0522
1793.1946 596.1904
1787.3683 625.8205
1765.4751 616.7684
1763.0001 590.00574
1753.1934 567.0464
1733.773 556.27576
1723.6201 576.16406
1732.1628 600.7574
1741.9495 621.29346
1733.2544 643.35675
1719.4762 658.7895
1735.0232 665.2805
1751.929 646.91
1772.3782 649.1334
1753.6289 673.61365
1762.562 689.86615
1771.3066 677.23126
1783.4451 688.69696
1770.6531 703.90173
1744.5009 703.38513
1743.8394 715.7445
1756.3528 719.1174
1770.0188 722.2517
1781.1866 734.7087
1798.4778 743.91254
1787.6818 718.5425
1793.6377 703.1071
1812.1577 712.0739
1804.989 726.50775
1825.8628 720.6447
1842.1228 716.74335
1846.9854 700.9423
1844.1921 684.1867
1855.2532 662.2559
1853.9851 648.7793
1856.8005 674.00806
1861.0894 682.75903
1852.4581 691.63403
1860.8472 695.9106
1863.216 706.9167
1853.386 706.59143
1857.6313 722.45166
1833.2537 735.17444
1820.4755 744.9338
1837.7527 759.3064
1853.0865 738.86035
1859.1598 758.6074
1856.679 780.88025
1837.452 782.00775
1819.5607 778.62616
1809.2234 760.2263
1798.3477 780.59174
1772.3053 779.7926
1780.3253 758.5561
1763.0023 741.719
1746.5248 734.6281
1748.605 757.31006
1742.8958 780.4174
1719.8495 770.60443
1696.9897 756.4921
1695.8059 780.8699
1668.8806 783.45135
1661.0427 766.5658
1647.2617 779.40393
1629.3428 781.56976
1609.5874 779.4399
1584.6357 783.64545
1591.8927 767.55396
1619.9688 757.80023
1636.8573 761.819
1649.1328 753.1999
1642.589 739.8608
1651.3369 737.1591
1658.7783 744.42596
1663.6573 737.58264
1671.8405 734.8424
1673.6204 759.13184
1679.4056 745.9367
1685.0309 735.3673
1677.6364 725.23865
1687.9028 722.9155
1702.2595 710.863
1696.7766 720.6437
1698.2598 735.415
1713.5747 740.33044
1729.8538 744.8877
1734.259 726.29095
1721.403 723.7067
1708.9144 722.75037
1729.696 711.25964
1727.1873 698.74115
1713.1346 704.8369
1710.5315 687.6406
1719.436 682.81537
1733.2825 688.2606
1749.444 691.85004
1739.2174 677.5736
1723.9213 672.1106
1711.3657 671.0244
1698.6725 668.1269
1696.2776 677.71094
1700.4712 689.9402
1698.0107 699.341
1691.3813 708.0671
1683.0862 705.2631
1680.29 714.5439
1673.684 704.1023
1664.6791 701.6234
1671.8285 692.4953
1683.5693 694.9258
1689.3213 686.46204
1678.8846 680.3932
1667.2013 674.29114
1664.9456 684.4431
1659.2896 692.58093
1652.4875 677.10114
1655.249 664.08276
1658.2585 649.51355
1664.9204 639.0995
1653.2349 634.28796
1641.3494 630.5769
1649.9459 620.0665
1656.6332 601.7956
1657.4012 613.0909
1663.0012 622.74255
1670.5032 628.4692
1669.1482 611.20715
1677.5332 618.7677
1689.0981 620.26636
1693.4346 633.34875
1679.1777 635.24066
1677.421 649.00903
1670.5964 662.15515
1684.4404 665.4586
1693.1475 650.5975
1705.2141 660.3771
1714.5391 640.6441
1717.2451 623.3314
1703.8334 614.8971
1691.4602 607.6001
1680.1755 604.3092
1668.3185 601.4673
1666.5518 592.0115
1669.0057 582.3804
1654.9985 589.53406
1641.8506 591.5523
1645.7592 602.25793
1640.9001 612.47986
1631.3975 603.8085
1620.5916 609.66974
1614.2986 599.8916
1606.8313 595.86786
1602.8813 588.31824
1596.7368 596.0931
1601.2747 606.755
1609.1766 615.01697
1621.4353 623.0499
1632.8297 621.66034
1625.2117 636.24817
1637.3755 643.84296
1643.948 656.3725
1636.6837 676.07324
1648.31 689.38416
1637.3972 694.51917
1648.018 704.9716
1655.6339 701.9192
1660.7898 711.32245
1654.123 718.27606
1670.3027 716.7741
1665.4875 725.45624
1655.9141 729.12305
1642.8695 721.269
1642.7927 730.4109
1631.5774 739.88354
1627.6748 728.9535
1614.5762 737.9604
1601.3191 750.9409
1590.2168 729.7031
1587.1926 714.3959
1580.3594 721.4105
1581.4125 739.8259
1577.2084 756.2473
1558.943 740.3982
1554.4845 759.40247
1562.1566 780.33813
1538.9725 781.33984
1527.9902 770.27875
1512.6387 776.59467
1500.8374 762.01825
1490.7388 753.1282
1483.4702 769.91565
1498.1873 784.90894
1471.4872 784.97845
1466.8447 766.5973
1475.7552 747.5481
1463.5334 750.9249
1453.0125 774.8825
1441.3843 784.2173
1423.5889 783.4114
1411.0591 774.688
1413.0521 761.68713
1405.24 745.5092
1400.3384 728.6116
1401.9493 707.0718
1418.5642 696.0432
1439.8416 704.0364
1437.8688 685.5856
1418.1144 674.5615
1393.2925 682.5375
1371.6309 694.79016
1379.2917 715.6731
1378.6375 738.5158
1366.5548 750.9782
1392.133 761.7146
1406.3884 786.3332
1391.3711 783.13354
1370.6416 785.2256
1377.5929 769.4538
1361.8284 768.23065
1351.7943 777.22845
1340.9001 783.26855
1337.5623 757.123
1349.6162 754.63153
1346.6895 732.4259
1349.4769 712.0466
1345.2344 689.4414
1344.0792 665.88135
1345.104 645.1704
1339.5956 621.42883
1358.4203 621.74927
1369.3334 647.8596
1370.721 669.6525
1402.887 659.2868
1392.7964 640.6905
1414.1238 634.8038
1395.5442 610.673
1379.1005 624.9258
1376.7589 601.87396
1356.9269 601.6278
1341.5208 595.40326
1363.8779 583.8694
1377.1875 577.5752
1388.0228 575.6488
1393.8433 590.22644
1397.3993 574.3893
1406.7969 572.2311
1413.1125 582.10156
1413.3457 597.4132
1416.6406 615.11707
1434.6741 641.5469
1434.1816 658.15826
1445.3712 668.0521
1456.6367 677.3004
1467.1392 684.6223
1473.8447 676.0834
1479.731 666.31213
1486.7612 677.83167
1496.3059 670.3863
1499.1918 687.62024
1511.9327 687.8466
1514.0436 695.925
1513.2681 704.70337
1513.3033 714.69617
1527.2434 717.68524
1543.1997 714.90344
1537.6658 725.04755
1519.7268 726.8334
1504.705 722.63666
1492.344 713.2252
1475.8344 710.8898
1479.5051 695.5608
1459.8721 697.3806
1453.4006 715.5222
1438.6418 732.67285
1423.6211 719.9843
1425.5791 746.00195
1433.507 764.9274
1448.2441 753.57
1455.937 735.265
1468.3102 726.00244
1482.4978 730.2532
1491.0101 741.4836
1500.3268 733.7997
1512.2379 742.57776
1522.1356 753.9396
1537.045 743.82825
1551.4521 725.8188
1553.4204 715.93665
1555.2859 705.89014
1562.9186 720.79803
1570.8986 727.24994
1573.9114 713.5288
1564.6633 711.9048
1565.6854 703.0348
1569.2437 694.67847
1580.3701 692.4643
1576.9917 703.93567
1586.8685 703.51434
1591.2472 691.62244
1604.1228 696.4048
1605.0648 707.0536
1610.8198 712.537
1604.3479 729.69666
1614.7783 724.8388
1621.4354 714.14966
1631.9614 717.2546
1638.3704 708.58777
1623.2744 701.4789
1624.0125 686.63275
1611.3739 681.3301
1620.4751 667.5394
1632.075 660.5135
1621.1692 649.89
1610.1013 639.0494
1610.1553 627.94104
1598.6273 622.8357
1588.1354 622.94147
1575.4923 614.29535
1588.5747 608.4707
1587.1731 596.02405
1580.1503 586.84766
1570.0242 574.3025
1579.5472 574.94354
1589.4224 572.6581
1591.1515 584.76056
1599.9504 578.46936
1608.7069 571.5061
1600.9414 564.10986
1590.4484 557.1311
1579.3003 563.157
1576.7775 552.0635
1586.6742 538.5547
1572.9648 541.6056
1565.8074 548.2175
1560.251 557.9749
1567.0251 564.8956
1556.6504 576.1967
1546.6401 574.28625
1537.4175 570.5634
1526.616 575.7452
1532.4653 583.7754
1542.5376 586.91327
1534.7847 596.7976
1541.8 600.504
1553.0085 601.62634
1554.5566 590.58356
1567.6272 586.8507
1573.5356 599.6425
1561.0325 611.47424
1562.9828 626.35364
1573.8328 627.80725
1584.0359 635.2152
1585.6971 646.6636
1590.6185 654.8398
1596.6171 661.3883
1600.5092 648.01904
1596.2533 637.6016
1609.5396 653.48474
1606.722 666.212
1593.9565 674.10864
1586.403 682.82294
1579.2491 675.47675
1583.5652 665.1764
1578.495 653.57227
1568.7126 651.3618
1560.4595 655.5906
1558.131 665.166
1573.1652 662.56964
1567.7161 671.3647
1571.0549 683.18774
1559.3213 688.6754
1557.2356 676.9188
1547.8792 659.1865
1546.3005 670.0049
1544.1777 683.14
1535.3745 689.91034
1547.853 697.24164
1537.6082 706.04755
1528.0322 703.353
1525.1091 693.6295
1520.958 683.69714
1511.5216 678.54504
1531.4348 676.7976
1536.1256 664.4226
1532.8494 655.7623
1523.973 653.13464
1531.7719 645.3617
1541.5703 650.0649
1551.6053 646.49
1563.1501 641.0993
1574.4254 641.0571
1552.0573 634.1127
1547.8352 622.95135
1544.4612 612.03625
1533.5945 622.20435
1539.13 635.2371
1527.5874 635.37537
1518.8955 632.2749
1517.4424 644.0208
1514.0885 655.70166
1524.15 662.3676
1518.8356 669.2516
1507.8093 666.6809
1502.2743 657.4364
1504.833 647.5039
1503.2178 637.95374
1508.7535 630.39325
1513.7843 623.1996
1521.8345 618.4593
1529.6016 611.3535
1529.7303 603.3576
1510.7893 613.8131
1501.5968 610.9068
1501.0629 623.51154
1492.3401 634.2363
1493.2766 619.86646
1484.0287 611.29565
1485.6134 618.7793
1478.5092 625.4343
1479.7134 636.26404
1490.4102 647.7709
1491.2867 660.32947
1478.797 654.1792
1464.3704 660.23975
1468.2314 642.0751
1452.6155 645.0248
1446.0693 626.39453
1460.6016 621.65356
1470.2922 614.3424
1475.239 601.49176
1485.7603 601.32385
1493.5834 606.3574
1491.0437 590.4894
1505.6708 586.90137
1500.8794 598.3426
1511.0823 600.6096
1519.9148 602.37305
1526.7002 592.7639
1518.3408 587.2521
1513.1975 576.00085
1512.6752 564.4635
1525.5767 563.5465
1533.9753 555.41327
1544.9723 560.78375
1549.3473 549.69745
1556.6732 542.80585
1562.9332 535.7346
1553.7344 529.8747
1545.0365 537.06824
1529.0471 539.6185
1533.368 527.66724
1544.0385 521.1389
1555.3157 518.82336
1565.1609 514.45386
1564.5107 525.2804
1574.4414 529.17017
1590.7148 524.00433
1582.2666 510.02026
1568.2365 503.39636
1546.195 509.54968
1554.3204 502.93933
1562.4343 490.66428
1556.464 479.83704
1575.3098 488.518
1588.6931 491.2021
1599.9656 486.2813
1609.0588 494.5291
1620.6278 502.10925
1610.5635 505.68365
1595.0851 502.2484
1599.8 513.58826
1612.1284 518.2417
1604.2317 526.92786
1599.056 537.9578
1598.0978 549.1997
1610.8232 537.4227
1620.985 527.21906
1632.387 523.0269
1623.9419 514.4814
1629.7067 505.63904
1637.6699 508.5896
1638.5479 497.78613
1648.7944 506.36908
1649.8315 494.56836
1643.5519 485.57208
1632.5493 487.38318
1628.2245 495.39838
1620.3976 489.23703
1611.5339 482.07562
1615.2372 473.91086
1616.6316 466.13654
1619.2046 457.42346
1610.3672 450.30673
1605.5492 461.46872
1592.4539 459.2948
1599.2971 473.65317
1585.4971 475.88092
1575.8561 465.4818
1564.4725 468.94183
1553.9829 463.02386
1541.482 471.13937
1530.8119 483.43073
1545.645 490.75702
1535.2806 500.01764
1513.4929 481.6272
1488.0449 472.56183
1506.4834 460.9402
1528.6534 459.01404
1520.1826 440.62115
1497.415 439.89853
1479.6201 444.56482
1469.5886 466.00055
1468.9939 480.38644
1459.9546 487.66428
1452.752 499.761
1464.5905 502.52838
1474.3849 493.24908
1487.8097 494.87012
1505.2606 498.61646
1497.7316 519.71893
1527.3708 511.04047
1514.7634 522.0654
1508.0195 536.7821
1522.7104 547.32336
1510.3691 549.05
1501.2389 561.60645
1496.7363 576.56396
1489.7394 556.5102
1493.2825 545.8257
1494.1256 533.3847
1480.2766 532.22345
1465.2795 535.33466
1485.4294 515.71436
1476.5732 509.07703
1465.321 518.0276
1452.1138 518.8955
1440.3495 512.2019
1445.7526 532.2573
1432.5563 544.5213
1452.0815 549.38965
1456.4468 566.59784
1469.3708 558.07275
1477.9937 548.4291
1486.7148 567.6824
1478.3529 585.9027
1471.7949 574.50446
1451.207 582.90955
1461.7927 595.64136
1441.8524 607.2644
1429.9341 588.1866
1437.3917 566.5552
1418.4971 569.5536
1414.8357 554.4791
1414.718 540.9889
1413.4506 528.14514
1424.2789 520.0815
1408.5874 513.6747
1401.9027 501.9048
1410.573 494.64917
1419.7673 505.6703
1429.3668 500.2557
1439.3872 498.88928
1443.1462 487.06232
1432.2252 487.6246
1422.7025 490.26257
1415.94 484.7948
1413.6108 476.94128
1412.1592 469.63788
1404.7965 481.97223
1396.4733 487.40057
1388.949 496.63458
1391.596 507.41537
1382.0762 513.05286
1383.1338 523.773
1374.6263 527.03687
1384.948 535.80115
1391.4214 518.193
1398.624 523.77527
1399.8921 535.0171
1400.688 544.9551
1400.8997 553.12573
1407.1924 561.48083
1396.8315 565.36316
1396.0759 559.13885
1390.4558 556.1992
1387.4185 548.53064
1375.5962 548.27014
1383.2751 562.1914
1367.7494 563.5145
1357.1528 553.7022
1345.4512 574.04895
1340.2208 557.4693
1344.9875 543.3239
1336.0286 538.0465
1347.6221 530.885
1356.3854 537.2042
1367.5061 538.30426
1364.9905 524.63257
1354.335 521.9666
1340.8494 522.5498
1337.7007 510.0464
1350.4443 505.73102
1337.1902 495.44025
1348.4319 487.51642
1339.0504 476.82898
1340.9126 462.98438
1342.6848 449.864
1336.7957 436.26062
1349.6412 427.42126
1352.7991 440.0545
1361.4626 441.24945
1366.7568 447.32135
1370.2015 439.74738
1377.7358 437.10406
1381.3829 429.49313
1391.8057 436.9382
1399.5125 431.90793
1404.4507 423.7876
1410.2059 431.16846
1421.4761 433.91656
1434.0193 430.19342
1449.9263 433.061
1445.0076 445.26266
1438.109 455.39215
1426.3196 446.88705
1414.1301 442.03342
1403.4247 443.25366
1391.6011 446.6872
1382.5115 448.90402
1373.4924 451.75742
1375.8376 472.46857
1368.9094 463.4655
1359.6962 452.4673
1355.9191 462.0067
1356.9651 475.519
1368.2279 483.5061
1360.8862 496.22906
1360.2032 512.09424
1370.2847 512.5254
1376.575 504.82236
1374.4829 495.666
1382.1409 486.99472
1386.8256 477.77548
1400.3162 472.82623
1391.5769 468.22656
1381.4347 461.42987
1391.3232 458.19733
1400.427 453.182
1403.8484 462.12793
1413.0806 452.73862
1416.082 462.52008
1425.3699 460.72717
1437.3395 466.82074
1424.2783 474.6611
1435.5864 477.81177
1449.345 473.83896
1453.1276 458.5133
1461.8105 445.58627
1464.9181 426.45813
1452.8235 419.45944
1453.8662 406.12836
1439.1194 407.56512
1427.1808 412.95374
1419.3767 422.00433
1410.1947 414.99802
1400.359 412.0437
1395.9896 420.6191
1388.0394 423.09796
1375.6323 418.02402
1364.6277 429.03864
1360.0321 417.89706
1367.6024 408.0217
1361.6146 397.80457
1351.7024 408.118
1338.898 418.9441
1338.3162 404.79138
1340.0222 394.7125
1337.7881 385.74985
1347.2898 381.58398
1352.255 392.62988
1356.9451 379.54102
1351.84 369.6491
1337.1187 371.48862
1343.6769 361.21188
1339.4674 348.47083
1355.2506 353.11566
1368.0369 351.11456
1367.9761 362.1363
1364.202 370.41183
1374.3579 378.44684
1382.9313 373.14014
1393.1852 375.78162
1400.7168 381.20667
1408.5161 382.6953
1394.5896 390.32312
1384.2015 388.87204
1364.4078 384.7613
1372.105 391.9038
1376.5159 400.23175
1384.4563 403.28674
1388.8108 410.9419
1398.9971 402.2209
1406.6799 394.11777
1416.6404 403.08517
1430.9281 392.8625
1419.0726 387.6756
1427.4606 376.0617
1431.1718 365.12067
1445.055 360.39194
1446.3552 370.0752
1442.4885 379.9771
1449.2905 390.00244
1462.1705 392.1156
1464.4331 378.7877
1475.8445 371.97278
1459.9622 366.9027
1461.1333 354.4048
1451.6333 347.1458
1443.4619 352.081
1432.1042 353.464
1420.9858 349.6446
1420.332 338.53128
1414.9834 329.3613
1413.3868 317.7881
1418.137 307.9762
1423.3325 299.96335
1429.3904 291.8011
1436.146 303.6992
1427.1418 314.3234
1434.5957 322.7004
1425.7539 327.33398
1432.0193 339.4649
1440.9374 343.22546
1448.237 336.6855
1441.5516 329.20352
1443.0215 314.83316
1454.418 313.45166
1465.7227 315.87558
1454.5337 327.60437
1466.1353 329.91315
1462.5234 341.98468
1476.4197 336.66766
1480.0288 348.61618
1475.4543 359.796
1493.9865 349.7544
1508.228 351.8728
1521.432 344.28928
1536.6027 353.0368
1556.9487 332.3924
1531.334 330.5138
1516.4629 322.4744
1523.2958 316.26035
1536.1517 318.3894
1549.133 314.23474
1568.8391 309.82114
1567.2565 291.2257
1579.9769 275.27454
1587.9563 288.47318
1595.4591 302.27435
1608.0713 296.57117
1603.7992 284.68448
1598.2538 273.75946
1589.0707 264.81067
1576.1924 259.5822
1579.0061 246.86954
1569.8298 237.28961
1557.4846 232.47063
1552.2421 244.57071
1561.1562 256.2183
1548.8401 255.19035
1539.0483 254.50873
1531.7909 262.39655
1528.7838 250.88719
1528.5529 238.2197
1519.759 244.87936
1516.0149 238.58682
1517.4661 229.65826
1516.0652 220.4903
1526.9728 224.11412
1537.1787 215.7404
1535.9746 229.79251
1538.6859 242.49612
1546.4644 235.26323
1544.9895 225.89246
1551.1847 219.52422
1549.14 208.00891
1543.0027 197.07858
1533.8198 202.76566
1523.5659 208.7421
1514.406 202.01933
1508.3125 215.78476
1502.6578 206.56177
1496.3121 196.07335
1510.5667 193.25992
1523.9456 190.65643
1535.0648 186.64171
1546.761 187.14108
1557.6313 180.73015
1543.7474 175.11003
1527.649 175.69713
1516.2318 167.54172
1531.9812 163.1887
1545.398 159.32516
1544.051 142.53056
1531.8516 147.59793
1519.7375 153.79535
1508.0264 155.31653
1490.0627 157.36316
1487.6858 169.43222
1500.3915 166.81718
1509.1434 175.72208
1514.0759 183.6804
1501.2739 184.56137
1491.2094 182.48521
1479.8529 189.13379
1479.3936 177.59056
1468.5607 174.84433
1461.4622 182.89842
1460.5499 192.28838
1471.8601 194.30692
1469.9596 203.01883
1480.7412 203.38286
1489.6799 205.59233
1480.7117 222.73898
1493.8235 218.96585
1497.2347 231.53789
1507.8099 233.36449
1502.0132 246.27728
1504.3069 258.7501
1517.4348 255.32909
1511.5928 268.0938
1522.7716 268.4188
1531.9243 273.73157
1530.6519 283.02814
1542.6523 286.18292
1541.1213 274.2253
1548.9705 266.2718
1562.103 272.6784
1551.8469 278.34448
1554.3629 287.71393
1550.5698 298.05063
1541.8315 302.4328
1533.8898 305.7106
1534.5059 293.40216
1523.8372 287.66714
1518.0381 277.6383
1509.3881 282.127
1516.5735 289.54846
1524.2607 297.55243
1525.5409 306.66626
1516.7957 306.05212
1513.1729 298.27744
1510.5857 311.7344
1502.8711 308.3999
1498.5374 299.7135
1506.3871 293.16333
1498.2311 286.7683
1497.7413 272.29095
1487.915 257.27878
1483.4421 239.60971
1466.1891 245.7305
1463.8 232.7296
1465.4072 220.04077
1473.8385 214.3139
1464.98 209.75497
1458.8702 201.76077
1453.9208 211.61351
1455.9319 222.62906
1445.599 221.95952
1442.862 234.60995
1443.1165 249.74724
1458.0442 258.22574
1471.9324 263.6681
1479.7034 274.95886
1486.0332 284.6487
1486.4187 296.91898
1481.7916 309.09518
1491.6445 308.99268
1497.0254 316.58453
1501.2212 322.18823
1506.838 327.48288
1514.7032 335.01404
1500.3967 337.81146
1489.6887 333.0403
1488.0608 320.339
1478.7399 325.40186
1475.3264 315.7232
1475.0374 298.54175
1463.8473 300.55493
1451.1112 297.21506
1441.7335 286.6621
1464.9811 283.9627
1451.9109 272.88702
1436.5226 266.95294
1427.705 278.60303
1418.9929 286.14
1409.2168 280.79266
1412.5293 295.47195
1400.3064 294.7167
1406.0057 305.74286
1397.9375 313.6345
1392.99 328.45825
1404.2303 326.76428
1406.4379 340.44455
1407.5715 353.3902
1417.965 362.2873
1414.9384 374.7057
1405.6997 368.07516
1395.9625 361.99603
1384.2156 362.86755
1378.6226 357.02637
1394.098 347.1467
1384.215 344.19385
1377.3743 347.52344
1365.331 339.49918
1382.22 335.19052
1376.0674 326.00415
1384.389 314.53604
1386.4691 301.94525
1380.834 290.03964
1371.5325 287.30713
1370.6194 276.13556
1375.8396 266.5146
1384.7136 267.6055
1394.5339 266.4566
1381.9758 277.87973
1391.1481 288.73206
1396.8184 277.99762
1406.8926 265.15366
1419.6472 267.76685
1423.2485 253.71873
1426.3652 239.90005
1429.7596 226.77795
1423.6125 217.31787
1435.1335 212.68625
1446.3481 205.83098
1447.6187 195.6282
1445.7412 186.02594
1450.469 175.70872
1440.4038 175.15567
1431.2223 173.67862
1427.225 183.62567
1434.3645 191.25926
1432.9283 201.92316
1420.8644 196.48938
1417.4327 205.21646
1410.5184 212.24301
1412.5469 224.91281
1411.8644 237.62315
1408.9152 251.01099
1397.1511 254.00446
1387.5757 257.21198
1377.7864 255.32951
1378.198 244.71086
1387.9332 246.14154
1399.5964 241.60187
1390.7958 234.52574
1380.0278 235.04288
1382.4581 223.68906
1385.3273 210.57068
1398.7299 226.45499
1398.6339 212.97223
1400.9995 199.23497
1413.1338 189.43309
1415.7573 179.4183
1412.7776 170.2707
1414.5631 156.01901
1423.6401 148.35303
1422.188 135.21078
1428.96 123.233505
1419.4807 116.19917
1414.7393 107.14449
1405.1606 113.10054
1396.2303 120.87685
1405.7979 123.272514
1413.779 127.126205
1412.753 138.8646
1407.5381 146.58536
1399.9844 135.90588
1388.5001 129.74283
1377.295 135.44507
1386.3579 143.4831
1397.3357 150.8852
1385.5043 157.32129
1385.1937 168.42056
1395.8817 163.13748
1406.2928 161.61157
1404.2112 174.3334
1398.6079 187.6397
1395.5547 176.63174
1385.1157 178.03264
1380.0769 185.1057
1382.0613 197.38847
1369.6145 202.54025
1367.6072 190.13762
1366.6182 177.08014
1370.2122 165.21999
1376.2686 153.78922
1369.2164 148.17923
1358.1448 150.05508
1353.7197 159.37288
1353.0825 170.73767
1355.1023 186.55289
1354.9089 200.29889
1360.5682 211.4053
1370.7979 217.54019
1368.4623 230.1718
1366.5859 240.38416
1367.4288 250.33513
1366.3992 258.88968
1366.4224 267.0988
1361.0945 273.93652
1361.2136 282.7473
1361.9781 292.29468
1353.2759 296.53113
1352.7771 312.44855
1360.1062 304.28864
1372.0068 301.577
1368.9812 314.49783
1360.4185 325.0484
1351.7036 335.6537
1338.8291 330.42303
1342.0579 318.6973
1336.3455 308.98547
1336.8374 298.4735
1345.6848 299.00122
1349.8198 286.26807
1337.8328 286.741
1340.8219 278.17102
1336.2654 268.45596
1351.9495 275.39346
1356.1224 263.6571
1346.0463 267.07242
1343.4336 257.23547
1337.3845 244.59949
1346.8245 247.11603
1356.655 249.50021
1349.8953 236.07231
1355.511 223.89275
1339.0371 223.91394
1341.1564 208.13693
1339.6143 193.22997
1344.3684 181.6552
1337.1636 175.23004
1339.3561 165.48836
1337.1919 152.95459
1346.081 148.37105
1337.2563 138.48459
1349.9133 138.37213
1347.999 126.76733
1337.196 124.50827
1339.3093 113.19908
1337.5615 103.74335
1337.7495 93.09774
1339.2192 81.513824
1348.6367 73.32946
1337.3385 65.2604
1337.8445 46.65167
1342.0583 32.325356
1337.7595 18.672638
1348.3674 17.994034
1358.0658 13.940337
1371.7164 12.061207
1372.1753 21.272911
1361.1289 27.779552
1356.3499 39.679066
1351.5469 50.945053
1348.4386 60.560005
1359.5371 65.11095
1369.7737 61.270027
1379.1946 64.85719
1387.6907 58.259686
1399.5137 55.823616
1399.2882 44.389458
1387.7881 42.738274
1377.7916 50.27758
1365.2317 50.340477
1373.6962 36.635857
1381.9402 25.356031
1385.783 13.338427
1396.5778 15.6586485
1403.7788 11.062414
1409.5319 14.986893
1416.8121 13.369591
1422.6495 17.388927
1414.8723 25.481865
1404.8009 23.322063
1391.3545 27.397778
1398.4045 33.31382
1408.3738 32.72128
1409.1187 42.298203
1412.219 52.634697
1408.8914 64.545425
1419.8345 65.790054
1426.0637 80.23893
1413.4227 79.569336
1402.2976 75.72966
1395.2688 68.06597
1385.4056 74.63954
1373.9263 82.30194
1370.4413 72.579834
1360.6399 79.203766
1352.8987 87.60143
1348.017 99.45199
1359.2244 99.17064
1355.7675 108.33678
1350.9598 116.54578
1364.3809 115.57214
1361.1008 124.21275
1357.2104 132.23175
1362.4376 140.27852
1368.5918 131.32126
1374.7537 120.625656
1385.4431 118.153534
1381.3888 107.32332
1370.1772 105.913315
1366.6075 92.56636
1377.7673 93.93545
1387.684 85.23759
1401.573 87.80649
1389.7532 96.9462
1394.4792 107.50844
1403.9218 100.48903
1413.8265 95.254845
1424.4899 92.80959
1430.1338 106.09848
1442.521 111.48538
1440.0588 126.74367
1450.1086 123.81252
1458.1188 113.448074
1459.7986 128.2211
1471.7113 125.33532
1468.0212 138.91638
1454.9375 144.0499
1446.3497 138.33783
1433.4353 138.35051
1440.0751 150.08627
1429.8862 158.38971
1422.3976 167.10515
1440.2021 163.73306
1450.6804 158.921
1459.2366 167.67368
1462.966 153.68713
1474.4374 164.08676
1475.6235 152.54163
1482.6001 143.50021
1498.5859 144.9541
1487.9095 131.60272
1480.8896 119.04312
1470.6882 108.571335
1459.8384 100.384026
1447.1503 97.53427
1438.45 89.428276
1446.3663 76.20488
1433.145 70.75827
1441.0923 62.505684
1449.9375 56.84866
1456.1631 64.59893
1467.1189 61.452362
1476.6139 57.607605
1477.9792 70.83926
1462.5758 74.40952
1458.0902 86.961975
1473.1721 86.078415
1480.5391 96.61278
1485.1184 106.94551
1498.5928 101.79867
1492.5219 116.797424
1503.9176 118.716705
1507.9065 131.56303
1518.2849 139.49484
1529.5028 129.85986
1518.5505 114.775375
1514.1515 99.31163
1529.6018 98.762665
1533.0895 112.86247
1542.3024 123.404434
1552.5833 113.12138
1544.0869 95.8471
1527.9589 83.52601
1514.468 74.59342
1505.2583 86.38324
1490.1409 83.01527
1495.2704 67.19699
1487.1643 53.18565
1477.0126 43.878094
1470.5365 48.824173
1462.2705 42.42698
1459.5798 51.601315
1447.2584 44.892555
1456.4641 34.744972
1444.942 34.103386
1436.4392 28.522533
1431.3328 35.940582
1433.0417 44.394085
1438.5222 52.024685
1427.4274 57.20661
1421.8992 46.719017
1418.1838 37.099934
1423.6501 28.574942
1429.2188 21.883636
1428.219 12.015585
1436.9757 11.705198
1446.5306 12.482998
1435.8423 19.647343
1442.5721 20.441513
1449.5559 23.982527
1456.6318 20.99808
1455.0184 12.083533
1463.0134 12.867439
1469.575 17.390587
1474.5994 11.804808
1484.7726 14.481185
1496.1215 17.136822
1508.8481 14.634296
1523.7511 13.661095
1522.2208 26.718605
1506.4321 30.663593
1521.097 41.87104
1535.4382 47.14105
1543.0991 35.461533
1542.4133 25.033638
1536.4597 15.81905
1552.0544 13.846085
1563.7466 16.34923
1557.553 27.32678
1566.1655 36.381786
1606.834 22.213858
1627.2654 38.486355
1643.106 19.345013
1694.3743 27.924023
1668.5227 34.35363
1650.5093 57.415432
1622.4944 70.996185
1643.9155 87.90109
1631.0177 111.02237
1615.5261 132.95047
1597.6545 140.24713
1606.2771 145.55121
1616.0801 146.7638
1627.9889 150.67802
1636.7324 158.08453
1640.8795 136.36472
1655.2585 145.02158
1649.7572 154.5239
1646.24 164.41519
1649.4292 171.43631
1645.1906 178.90868
1639.3252 188.13925
1627.1725 190.69394
1616.938 189.59555
1609.5376 202.389
1593.9543 202.16864
1602.3242 215.45447
1613.1017 220.26819
1620.4658 208.0936
1631.2754 204.87024
1636.5046 198.28159
1647.9497 197.37682
1660.2327 194.27635
1652.0634 184.7667
1664.0555 182.33257
1658.1188 174.11491
1662.4673 166.10902
1667.6918 155.68733
1680.7185 151.7593
1665.5837 138.66245
1663.1786 111.73623
1675.0579 78.356804
1708.5366 104.82183
1707.1469 115.58806
1717.2628 116.99118
1726.0913 114.667015
1722.5952 102.48235
1712.8024 92.44066
1723.9282 87.62805
1733.2637 78.29963
1744.7568 71.57474
1747.8451 81.6214
1755.2673 89.871544
1743.94 92.92199
1733.4797 94.25008
1734.6837 111.52464
1741.6393 106.55447
1754.7135 101.34601
1750.2131 110.77563
1756.2816 117.89568
1747.1302 123.996994
1750.2146 136.16415
1750.155 148.43607
1739.2904 148.73444
1726.727 150.6418
1734.5697 140.1123
1737.6505 131.33456
1731.6052 123.74596
1724.6908 137.62457
1718.1191 129.43184
1705.2169 126.618576
1690.7667 125.22994
1679.6918 135.7771
1691.249 144.17598
1698.9998 138.25562
1708.424 139.30905
1716.0957 145.6814
1717.7716 158.10062
1707.2664 153.17383
1696.5598 154.28516
1687.6296 161.9535
1696.7378 169.10944
1705.5304 164.6029
1715.269 169.71971
1714.8022 178.03073
1718.8823 186.25584
1727.079 177.3422
1725.5712 166.44446
1733.2208 159.70195
1743.5286 160.16295
1752.4153 161.05246
1747.5905 173.14946
1737.0316 170.80913
1740.3757 180.50699
1735.5582 187.4174
1749.4021 187.46997
1749.1088 200.3992
1738.1028 196.44498
1726.4099 196.75153
1727.1299 186.91278
1718.8945 194.76892
1711.3181 184.92404
1704.2169 176.53653
1701.6559 186.43925
1707.7607 191.8334
1711.1112 200.45425
1710.113 210.47916
1722.2903 207.08481
1730.6736 203.19815
1736.8237 208.52252
1745.9358 213.5039
1752.7004 221.88254
1742.139 226.43176
1749.5603 236.26817
1743.6383 249.56424
1731.1831 245.31805
1739.5219 239.02759
1731.2844 218.44077
1718.5249 217.30923
1719.1803 228.6508
1730.5831 231.30713
1717.7484 240.21855
1709.3553 251.1807
1707.2378 265.88217
1701.197 277.82635
1692.1794 272.75616
1685.2214 262.1613
1695.2594 253.44968
1684.2877 244.95541
1674.8574 236.5158
1688.375 230.73222
1700.4329 238.57425
1706.8114 228.08188
1702.3817 218.92523
1691.3617 217.29985
1698.9314 207.38768
1699.2549 197.68445
1687.5282 202.23138
1691.3613 191.93503
1684.2794 185.54828
1694.4888 181.57217
1686.8585 174.148
1675.9426 167.58559
1674.2036 180.78958
1676.4275 194.32542
1667.6882 204.32584
1678.6622 209.25256
1678.8302 221.50992
1665.1846 221.47583
1662.9504 236.47226
1651.843 239.24625
1647.1163 254.66978
1657.998 253.7865
1672.1857 251.6544
1667.7604 263.27814
1665.0461 274.95343
1654.787 271.7862
1641.3641 271.1812
1645.2859 281.59958
1655.5044 286.3396
1655.7775 296.70654
1651.6294 308.09125
1638.925 306.9132
1629.5414 316.52866
1631.3114 331.8969
1634.0195 345.81244
1620.5721 351.0814
1617.2662 338.03424
1615.469 324.17758
1613.4137 309.894
1623.3054 296.84018
1638.2059 294.1328
1627.2397 282.9937
1626.2383 267.7187
1616.1528 274.98846
1610.1202 264.84467
1599.7236 256.6428
1593.8041 245.22375
1613.6351 255.86691
1620.5325 249.57275
1626.4691 256.9344
1636.4131 260.6667
1635.2253 250.0369
1636.202 240.70505
1636.4868 230.02495
1649.9095 225.26816
1656.1094 210.01804
1643.5486 212.50308
1631.9941 215.8006
1626.2427 224.04666
1619.0927 231.33661
1623.6914 240.24579
1608.151 245.39822
1608.0957 233.85788
1598.6874 229.35446
1589.3013 220.12865
1584.0742 233.43243
1575.822 220.64609
1563.7377 217.9267
1581.5652 208.25877
1576.5836 199.29053
1564.4496 203.94199
1556.2292 193.83249
1564.301 188.96878
1570.5344 193.9202
1573.4207 187.09361
1583.156 191.93945
1591.7847 190.19029
1604.8225 190.42181
1596.4307 181.93095
1594.9391 171.57642
1585.7871 178.09305
1577.2673 181.85504
1576.2354 174.8582
1568.1697 179.16985
1563.0065 172.65598
1557.074 165.50882
1569.1382 165.4471
1576.1992 167.90402
1582.5356 167.86792
1588.0621 165.18307
1593.0858 158.577
1599.6594 161.64658
1605.8448 166.2976
1606.3884 176.9603
1616.237 173.01634
1625.656 177.67838
1636.4226 174.95316
1627.0222 165.46477
1614.8123 163.8772
1618.2761 156.30042
1608.8772 155.34671
1602.2292 153.3565
1596.7603 149.56012
1589.037 147.17038
1584.1953 136.21661
1592.416 130.93283
1581.5471 121.24979
1572.4836 131.13263
1570.7526 142.26547
1579.5874 147.86638
1585.1411 156.4537
1576.8909 158.39516
1568.6577 154.54225
1558.8812 153.07292
1557.1343 142.83057
1555.4143 131.42938
1563.1865 123.96792
1567.903 115.415405
1572.5144 106.422874
1558.5594 101.13827
1561.5913 89.25171
1549.9819 81.119026
1564.4009 74.7726
1554.9236 67.999756
1563.3834 58.19337
1559.3695 49.02546
1557.3245 39.30336
1548.276 47.574383
1547.127 59.017143
1539.3774 71.56585
1529.344 61.482754
1514.5688 59.59738
1503.9895 51.47136
1496.2808 40.905773
1489.2908 28.35658
1483.4897 37.76862
1471.0968 34.792038
1464.1852 26.141447
1476.489 24.948147
" />
</g></g></svg>
