<?xml version="1.0" encoding="UTF-8" standalone="no"?>
<!-- Created for Inkscape (http://www.inkscape.org/) -->

<svg
   xmlns:dc="http://purl.org/dc/elements/1.1/"
   xmlns:cc="http://creativecommons.org/ns#"
   xmlns:rdf="http://www.w3.org/1999/02/22-rdf-syntax-ns#"
   xmlns:svg="http://www.w3.org/2000/svg"
   xmlns="http://www.w3.org/2000/svg"
   xmlns:sodipodi="http://sodipodi.sourceforge.net/DTD/sodipodi-0.dtd"
   xmlns:inkscape="http://www.inkscape.org/namespaces/inkscape"
   width="3200"
   height="800"
   id="svg2985"
   version="1.1"
   inkscape:version="0.48.1 r9760">
  <defs
     id="defs2987" />
  <sodipodi:namedview
     id="base"
     pagecolor="#ffffff"
     bordercolor="#666666"
     borderopacity="1.0"
     inkscape:pageopacity="0.0"
     inkscape:pageshadow="2"
     inkscape:zoom="0.35"
     inkscape:cx="1600"
     inkscape:cy="400"
     inkscape:document-units="px"
     inkscape:current-layer="layer1"
     showgrid="false"  />
  <metadata
     id="metadata2990">
    <rdf:RDF>
      <cc:Work
         rdf:about="">
        <dc:format>image/svg+xml</dc:format>
        <dc:type
           rdf:resource="http://purl.org/dc/dcmitype/StillImage" />
        <dc:title />
      </cc:Work>
    </rdf:RDF>
  </metadata>
  <g
     inkscape:label="Layer 1"
     inkscape:groupmode="layer"
     id="layer1"> 
     <g>
<path style="fill:none;stroke:black;stroke-width:2px;stroke-linejoin:round;stroke-linecap:round;" d="M 
1813.792 704.3456
1817.4674 710.2466
1811.018 710.2038
1807.4678 703.00085
1800.5664 696.7477
1807.234 695.7135
1813.9525 697.7636
1813.0281 691.0779
1814.2041 684.3564
1807.3313 685.9421
1802.2528 689.594
1795.6467 690.13104
1788.1177 690.50793
1782.0867 684.4429
1790.0308 684.5712
1788.6274 678.079
1780.3115 676.63416
1773.9502 682.5222
1769.8864 675.2339
1779.4668 669.4102
1784.1451 664.4805
1776.7723 660.28625
1771.1326 665.9315
1762.8945 665.1882
1755.5955 665.7563
1758.8894 679.0923
1765.3545 683.4028
1768.7798 689.5243
1771.7983 695.59784
1776.8674 690.3672
1782.8701 693.64276
1783.5237 699.56104
1786.1989 704.29193
1792.2114 703.5602
1791.7178 696.77655
1797.943 701.83215
1802.5066 706.06323
1804.6348 711.49725
1798.4377 714.7637
1796.4366 708.9332
1789.2434 709.7938
1791.7688 715.6576
1785.1895 719.59
1783.2083 713.16125
1779.375 707.1833
1776.9983 700.03467
1771.5981 709.5058
1770.7317 702.8654
1765.1721 698.5088
1757.9176 701.059
1761.3862 693.9118
1759.9291 687.9819
1754.1788 686.09174
1754.174 693.30707
1750.5153 698.641
1752.6099 706.08826
1758.8916 709.6435
1764.4965 706.22046
1764.5521 714.3869
1769.258 718.99115
1775.4283 714.5596
1778.4985 720.26654
1779.359 726.88806
1785.9836 727.53265
1790.3057 722.6655
1795.6892 722.5949
1800.1091 721.0969
1804.3827 717.9008
1809.4076 715.8649
1814.268 717.81586
1809.5197 722.20874
1813.8157 725.9861
1813.9282 733.4651
1810.6453 739.8493
1810.8081 747.87933
1808.3884 755.7763
1801.3784 759.7661
1792.5664 761.1019
1782.8365 761.34546
1787.4265 755.94403
1795.1907 753.1289
1802.0691 749.49097
1794.074 744.03845
1788.219 748.30273
1782.1041 751.4506
1778.3999 756.08905
1774.5482 761.1723
1767.5151 762.4674
1767.5398 757.05707
1771.6833 754.2324
1774.5635 749.63983
1771.4241 744.306
1765.7666 750.30054
1762.2473 758.14136
1759.0417 752.4123
1758.1284 745.6032
1764.4407 743.6313
1765.7427 736.83264
1772.2043 737.9254
1778.5605 739.3469
1779.7406 745.55194
1785.7855 741.33636
1795.8022 736.39746
1801.8972 741.5795
1804.6797 735.0775
1808.2709 729.55896
1804.1396 724.98505
1799.8801 729.7859
1793.031 729.385
1788.7863 735.3248
1782.0071 733.6208
1774.615 732.1045
1772.3333 724.8881
1767.3723 730.0332
1758.5107 737.9668
1759.4255 730.7631
1753.2888 725.4696
1762.9573 723.953
1758.0378 719.0464
1750.1204 718.62915
1753.3057 713.00256
1745.7892 711.6232
1746.701 704.23914
1740.9055 705.3651
1735.4177 702.1019
1736.9648 696.12494
1732.1869 692.3654
1739.8661 690.184
1743.2832 697.65906
1747.4801 691.3345
1745.0918 685.42426
1751.0977 681.5886
1745.5143 678.1705
1750.823 674.053
1748.5315 666.394
1745.5385 660.9615
1750.4152 655.97754
1756.5938 653.2879
1750.4021 647.7051
1744.4746 648.5276
1742.861 654.38165
1737.858 657.7323
1732.6355 660.83386
1726.7632 659.70996
1721.8157 663.82104
1721.6875 669.69684
1725.3978 674.8518
1729.3204 667.2556
1733.8502 672.0983
1738.1599 665.27576
1742.7427 670.74054
1738.9331 676.4224
1739.1436 682.6234
1731.4899 679.07965
1733.7863 685.6509
1727.645 687.41833
1724.7478 682.0732
1716.2969 674.1328
1718.2147 680.09174
1719.3948 687.46716
1724.5381 692.67285
1720.2787 696.74384
1728.7124 698.62787
1724.6504 704.40784
1730.7283 706.7958
1737.2681 711.0698
1734.9862 719.049
1742.0186 717.64984
1745.9958 724.61084
1739.2566 725.5404
1731.6034 725.1613
1724.4205 725.672
1717.3367 725.0915
1710.5566 726.2013
1710.3357 720.1111
1717.5571 717.6892
1725.2311 719.13855
1730.4397 714.095
1723.7819 711.7435
1717.565 710.1311
1711.204 713.0801
1704.8867 715.5612
1703.3813 723.40295
1699.3756 717.6899
1693.1731 716.0861
1686.9443 715.51855
1696.1865 722.7715
1689.6956 722.4775
1683.6987 721.8296
1680.1616 714.98553
1671.0952 714.0204
1675.1433 718.1357
1677.7162 723.48804
1670.642 722.18915
1664.7915 722.85376
1656.8013 723.1156
1660.2766 719.16766
1658.0276 712.7946
1665.0311 715.7829
1666.5072 709.4552
1665.5339 703.7431
1672.7937 703.9971
1676.0123 709.4171
1681.0629 703.95325
1684.4711 709.25415
1689.4183 703.2854
1691.8864 709.13983
1698.2015 710.84906
1703.8146 708.5905
1697.8469 703.1698
1705.1926 701.53046
1709.45 706.62683
1714.4641 704.91986
1719.431 702.5381
1712.7192 699.53125
1707.4325 689.2422
1712.6709 685.01904
1709.7291 679.0502
1709.172 672.8435
1714.7146 666.9337
1719.5083 657.91675
1714.018 660.2302
1709.055 656.14813
1704.3079 652.73425
1698.4896 653.0387
1696.0226 647.5372
1702.0216 645.45636
1696.1082 640.87335
1690.3663 638.0454
1694.5364 632.5328
1686.7612 632.26
1678.0944 631.49164
1681.3976 637.3059
1685.7593 642.0886
1689.866 646.9514
1691.7307 654.25696
1695.2087 660.14014
1701.8868 658.83826
1707.4199 661.7113
1707.5447 666.9602
1700.1431 664.94336
1694.0475 668.05334
1687.2922 670.91327
1701.5868 670.59143
1701.2234 676.0505
1703.7056 681.43854
1701.2543 686.7236
1698.7808 691.99963
1692.2881 694.23285
1691.0869 687.73364
1695.8025 682.449
1694.0867 675.08215
1688.3757 680.0839
1682.6066 675.0679
1680.6653 680.92664
1676.8502 686.55347
1683.5701 687.3248
1685.2362 693.5851
1678.4133 694.49115
1672.3982 691.44745
1670.8451 683.68225
1663.5647 682.8415
1657.0634 684.0839
1654.1421 678.058
1649.8589 671.8899
1656.915 671.6562
1660.929 676.75977
1664.4833 668.93225
1667.9518 676.43726
1675.1498 676.66797
1678.7555 668.99347
1671.862 669.6462
1669.3925 662.60895
1676.6387 655.6819
1680.2787 662.9424
1688.7401 663.47626
1685.3 657.86646
1684.0999 651.8112
1680.6212 646.2344
1673.96 646.87683
1674.1934 639.5053
1670.502 633.8665
1664.0288 632.9032
1663.9941 641.0559
1666.9257 648.5609
1668.7347 655.68176
1659.8164 655.9803
1650.6924 655.0299
1640.2762 655.11584
1628.6779 655.06067
1626.4865 670.98364
1633.7021 671.6288
1638.1917 675.3042
1633.3026 679.10535
1637.5784 684.3764
1637.3881 689.2944
1631.977 685.6781
1626.1437 682.61816
1626.9304 689.06067
1621.2833 689.974
1626.5607 696.4209
1631.9725 692.2129
1633.8247 697.8159
1639.6931 692.9862
1643.0356 697.26117
1646.0474 691.7336
1644.2134 685.60974
1640.749 680.39996
1641.9902 670.6459
1644.7164 675.77014
1648.4247 679.97766
1651.1198 686.3828
1651.8646 693.94543
1658.3967 696.79126
1659.0618 690.22266
1665.8721 688.98914
1666.6404 695.6659
1659.3889 706.1806
1653.0874 706.5451
1649.7765 712.75024
1653.2426 717.92084
1649.9958 723.27954
1640.3616 723.5683
1633.4651 721.0632
1626.8373 723.60077
1625.5347 717.6117
1630.256 713.54
1636.1338 712.06555
1640.0825 716.707
1645.9187 718.84174
1643.7942 710.3384
1647.0549 704.467
1638.7781 705.45404
1630.8522 706.0231
1623.6765 710.98035
1623.162 705.29395
1619.9426 696.8052
1613.9635 694.7876
1606.8926 695.9048
1599.3403 695.4817
1598.849 705.3852
1591.8605 706.8939
1591.041 714.07935
1596.2347 714.0509
1600.8344 710.63544
1600.7527 718.3181
1605.6406 714.7921
1611.0433 711.47437
1606.9221 706.21265
1615.4254 706.4966
1617.9309 714.17175
1619.9791 721.5238
1613.7162 723.1039
1612.0521 717.78674
1606.7523 722.41724
1599.7778 723.9994
1594.0984 721.0829
1588.9966 723.5343
1587.3296 718.3554
1582.148 722.43945
1575.5349 723.3356
1567.6283 723.4985
1569.9994 718.50574
1575.7432 716.5231
1581.6179 716.0129
1585.762 711.10126
1583.4668 705.51044
1578.0674 710.2241
1573.4949 705.9191
1569.2491 712.21454
1561.2776 713.2528
1564.8174 706.2732
1556.5261 705.5934
1554.0874 712.6108
1562.634 720.5634
1556.2815 721.4791
1549.1881 723.3747
1543.1993 719.9181
1538.2681 722.44324
1532.2312 721.79584
1525.7864 722.19446
1519.7787 721.47675
1513.5668 722.0321
1506.823 721.9204
1509.1426 715.8603
1515.0807 714.7589
1518.389 708.7645
1521.4014 714.71576
1528.4236 715.99365
1535.8641 714.43445
1543.433 712.4799
1549.3638 716.34686
1548.0629 706.1372
1545.1096 695.3876
1553.8088 695.60834
1561.2997 695.4957
1557.5566 688.0592
1565.7052 688.12427
1568.907 695.93604
1574.6826 690.7546
1577.5103 696.2018
1584.5502 696.6095
1591.7725 696.11597
1593.9934 688.8425
1588.8601 683.6574
1584.8253 690.215
1580.7327 684.6008
1572.6951 685.20435
1574.8834 679.1726
1580.3196 677.01654
1586.8782 676.38116
1594.0381 678.4351
1600.1934 681.0468
1607.9528 680.39087
1602.0797 688.38763
1609.2394 688.3341
1615.5803 686.7672
1614.8713 678.43097
1620.4346 681.7274
1628.0839 676.6466
1621.9172 675.4242
1618.0234 671.2234
1611.4214 672.35455
1605.2974 673.0814
1599.1227 672.63464
1591.7045 671.5719
1585.6252 659.22394
1582.6375 653.4484
1589.96 654.3082
1596.2129 657.9665
1598.2942 651.83093
1609.1824 658.21826
1616.7683 654.81604
1607.9915 652.23376
1601.3997 639.14624
1596.0042 640.828
1592.8794 636.36884
1598.4202 632.5124
1607.0822 640.395
1612.7954 638.82916
1619.4327 638.8157
1626.7012 640.282
1626.3596 632.87024
1636.3977 632.6188
1634.9141 639.75
1643.7659 639.7718
1646.6099 632.75995
1652.9951 639.6792
1656.9108 633.77637
1659.674 623.15924
1660.6411 617.0247
1654.3796 616.79004
1652.3105 623.75714
1648.6964 613.91376
1654.502 609.39233
1643.0646 605.45447
1648.8473 603.1598
1650.2534 594.24817
1643.3777 595.2036
1640.0881 588.619
1640.3765 582.2078
1640.3348 575.54987
1650.6096 575.6836
1647.8818 584.7504
1655.7783 582.8137
1663.0552 582.75134
1668.4407 585.99695
1662.0708 589.44403
1654.9174 588.4678
1657.3889 595.0958
1664.7432 595.15485
1663.2615 601.5814
1655.6418 602.9741
1662.6128 606.188
1661.7384 611.9701
1669.1608 609.15735
1671.6198 603.084
1670.8445 593.92645
1679.0507 602.0641
1678.3352 609.4487
1673.6953 614.881
1667.1932 616.4037
1666.8372 623.16174
1673.8401 622.79297
1680.0029 620.0677
1684.7893 614.4568
1687.5588 622.7682
1696.2439 622.496
1703.895 621.3157
1710.7368 621.88525
1716.888 620.82886
1714.639 631.0115
1714.5347 637.17584
1708.3701 632.9535
1702.2937 630.4768
1700.3538 635.6303
1704.3092 639.4479
1709.88 641.3888
1707.8241 647.73584
1712.7095 652.0259
1718.5654 651.92206
1714.9121 645.78894
1719.1141 640.87317
1720.7137 632.6277
1726.5918 631.8278
1724.6359 639.0337
1730.3629 639.91766
1728.2395 646.5293
1722.2068 646.63727
1725.0494 653.2978
1731.645 653.0862
1737.5154 650.0674
1734.3516 644.6731
1741.085 643.1406
1737.4713 637.909
1732.3674 634.6836
1732.9869 629.41974
1722.8094 620.70087
1723.9116 612.7616
1716.1462 612.17847
1721.4209 604.998
1727.9341 606.79236
1730.719 612.6626
1728.6646 618.7117
1736.8339 612.42126
1742.7294 612.17395
1749.8633 610.513
1746.8439 617.3775
1752.6072 618.11865
1757.242 614.0025
1760.7324 608.495
1754.9878 605.85565
1760.331 600.3759
1767.6079 598.7665
1774.0958 598.8943
1779.367 596.4846
1782.4497 604.4598
1787.9414 605.4093
1787.1412 611.703
1792.4612 614.72437
1793.8624 608.04254
1792.3284 601.5557
1787.2048 598.55206
1790.7112 593.1359
1794.773 587.3246
1802.1412 587.9324
1805.082 595.18774
1798.8027 593.2388
1795.3457 597.03815
1799.0186 602.175
1800.1959 609.71967
1805.352 615.3731
1797.7148 616.39526
1800.4857 621.50806
1806.4335 622.7138
1806.1837 628.8685
1798.1355 627.86755
1793.127 622.7654
1787.376 618.9126
1781.6321 616.6151
1775.5542 620.4662
1780.7975 623.4163
1786.5403 625.39136
1782.8821 631.1007
1776.6128 628.99493
1770.5437 631.499
1771.0032 625.1871
1767.9702 620.15393
1771.5048 615.5233
1776.4926 613.1487
1781.3715 610.13727
1776.2394 606.3031
1771.231 609.07526
1766.3105 606.3846
1765.4115 613.3628
1761.7512 619.0764
1756.9701 623.8406
1750.2516 624.7393
1745.0734 629.2352
1738.886 630.8019
1744.006 636.0219
1748.2192 641.14514
1750.8276 633.12085
1757.3167 631.31494
1763.7598 626.3298
1764.0334 633.455
1762.474 640.04144
1755.2183 638.7521
1756.234 645.0698
1761.3973 648.25916
1764.9185 653.25244
1771.1742 654.4381
1767.0673 645.8281
1772.8112 645.31323
1770.6172 638.26575
1778.2771 636.6322
1778.7544 643.7467
1785.3743 641.87427
1787.6357 636.31714
1790.8915 630.1042
1795.3162 635.3418
1802.334 633.4082
1794.3254 641.90765
1790.7648 647.0699
1783.9409 649.1206
1777.1865 651.56885
1782.934 656.3622
1788.8335 660.1746
1790.1451 653.5409
1795.1338 658.4209
1801.2769 657.80505
1807.5518 661.1604
1799.5023 663.84265
1792.9651 666.07666
1787.7783 671.26135
1795.9768 673.3511
1796.1136 681.73584
1802.1112 680.9003
1803.3585 674.3629
1802.5918 668.09344
1808.7615 669.7212
1808.9833 678.4442
1814.8126 675.8983
1814.6841 669.40186
1813.5966 663.37964
1815.4185 657.1946
1811.8867 653.06586
1813.5172 646.6962
1807.0406 648.1986
1804.94 653.7363
1797.2388 651.1506
1800.7737 645.7884
1802.158 639.23267
1807.9648 641.62366
1813.9238 638.8213
1811.043 633.60547
1813.2449 626.58594
1812.5603 618.719
1813.4668 611.2728
1807.3474 608.8093
1805.3154 602.59875
1813.1051 603.537
1812.2356 596.79944
1812.1047 589.6719
1812.6422 582.05145
1806.3896 583.77844
1797.9126 580.46405
1790.6427 581.2921
1791.5034 574.0867
1798.2457 571.0724
1803.5464 576.4702
1810.1599 574.5609
1805.869 567.7394
1802.9641 560.3622
1797.0183 563.3915
1790.136 566.46436
1783.6035 575.9185
1787.6288 587.3843
1783.8989 592.71185
1771.8125 591.0741
1769.3433 584.76245
1768.3069 577.516
1761.9832 571.9738
1749.6782 568.71106
1754.3539 576.00586
1753.1227 587.37244
1759.0798 587.427
1754.6714 596.4993
1749.5531 600.99097
1746.6185 595.7324
1741.0098 594.2297
1736.0592 589.7697
1729.8701 586.72943
1725.147 581.37866
1719.6011 576.6984
1727.1006 575.03094
1732.6423 581.39935
1741.9221 582.7091
1737.296 575.4244
1733.4641 570.4713
1731.6409 565.01917
1735.445 560.1377
1739.8271 567.25366
1743.7793 562.4491
1750.3433 559.6455
1761.6416 561.1596
1769.4215 559.9988
1772.1932 570.2001
1776.2145 563.7654
1781.2522 554.9045
1779.5178 544.48157
1775.7452 537.6413
1778.8276 528.69714
1764.4026 525.70435
1771.7089 523.425
1780.1443 521.3511
1785.5164 524.4298
1791.8717 526.0185
1787.3246 530.9847
1785.4559 536.57355
1788.4128 543.0414
1788.4849 550.5263
1789.1584 558.6025
1797.1011 554.56604
1795.6823 547.55
1798.2428 527.7348
1804.4299 526.2164
1811.5182 525.2182
1820.2515 521.6371
1824.6038 514.3749
1826.8239 504.35583
1818.7136 511.6992
1814.2004 518.96655
1810.8672 513.1759
1805.3049 519.1545
1797.7361 522.1168
1797.5853 516.27124
1791.2355 519.3753
1785.8777 516.83374
1781.6196 512.912
1786.479 508.915
1791.3901 512.18115
1797.7284 508.6595
1803.3503 512.1316
1807.6368 506.90305
1816.1753 505.3718
1816.644 497.80417
1810.1741 500.78452
1805.609 495.77722
1802.6716 500.96515
1796.3657 493.23486
1784.615 498.34882
1781.3727 505.87177
1763.3121 502.06714
1759.9918 494.14813
1757.2433 488.1012
1754.2915 482.29758
1753.0271 475.25818
1749.0172 471.02597
1747.9186 465.13818
1744.3208 459.97534
1742.064 453.97015
1738.249 448.12155
1735.0316 442.0732
1732.0103 435.74188
1731.977 428.22504
1725.3887 433.82526
1728.4194 440.98517
1731.4021 447.6456
1734.4884 453.97955
1737.727 459.61606
1740.215 465.7693
1742.8086 471.37415
1744.3484 477.45175
1749.2987 478.36243
1747.2863 484.12497
1750.8411 489.09094
1750.1396 495.09592
1754.5579 496.21014
1758.2117 500.4793
1752.5085 503.90814
1757.8254 507.4126
1750.9269 511.84872
1742.3228 515.69885
1734.6927 516.98737
1748.5876 518.9436
1760.0498 513.30774
1764.7628 508.98483
1767.6641 515.8148
1763.3386 519.86176
1756.2034 518.3395
1755.126 525.0154
1753.9302 532.6177
1760.996 532.12317
1768.81 533.6127
1765.5449 543.20776
1753.9004 545.16284
1743.9243 547.05237
1742.3088 555.31006
1732.2739 550.42413
1720.3071 550.2853
1717.7756 538.7568
1724.9243 540.0486
1732.9504 539.60535
1739.7848 536.48724
1746.8729 534.8849
1745.8496 525.83435
1738.9456 524.8674
1731.4187 526.5813
1729.4247 533.37354
1722.2216 530.2081
1722.9327 521.81433
1727.4807 515.31775
1718.1329 514.3352
1713.4001 521.1581
1708.4244 514.4203
1700.1874 514.21436
1692.4282 515.5482
1689.7178 508.51703
1683.862 514.8596
1679.6599 507.52625
1675.9573 514.96783
1668.0452 515.9004
1670.5059 508.0129
1663.4377 505.3944
1661.5956 513.111
1662.8257 525.86316
1672.9093 522.68823
1686.5034 524.0855
1695.6182 524.4387
1704.7562 525.5853
1713.2114 529.85974
1710.5378 538.6425
1703.8502 536.34216
1699.6418 549.4526
1686.1107 561.52905
1677.6921 560.45764
1695.5343 559.34174
1703.6072 564.725
1704.5266 557.245
1710.1683 551.34766
1715.8109 558.59406
1711.7542 565.037
1719.9705 567.5796
1713.0212 574.19714
1702.9478 583.2023
1699.5913 592.50806
1691.3997 595.8873
1693.8777 604.4462
1698.406 598.6185
1705.7361 596.5598
1713.8286 588.63654
1723.064 597.1505
1714.736 602.94104
1709.872 608.6892
1708.1052 602.63806
1701.5292 605.54004
1708.5013 614.84717
1700.9382 613.2737
1693.9152 615.47925
1690.8845 610.5926
1685.9872 604.54816
1684.2178 595.3747
1677.1802 594.2186
1674.4926 585.1654
1681.0938 586.52893
1687.3694 588.4071
1694.0758 588.24023
1705.7281 572.2994
1697.3613 569.2196
1689.8918 568.5079
1688.8046 578.0017
1680.4824 576.2867
1682.0255 568.48303
1674.787 570.39075
1669.9646 576.05676
1659.5878 574.10754
1665.2344 569.1452
1670.9312 564.23254
1668.1284 557.558
1661.4702 561.89075
1655.3972 568.0724
1651.8042 561.527
1642.9493 561.82153
1635.1024 561.1269
1630.3019 576.8781
1632.5449 585.1901
1625.3851 583.4962
1619.7606 585.49976
1613.9414 589.1564
1611.6414 583.19165
1615.9242 580.53284
1618.939 574.4382
1626.5383 560.93066
1631.3624 554.624
1638.9895 553.2091
1646.2258 555.53186
1650.6685 550.33167
1657.341 555.2178
1655.8173 545.3801
1644.467 545.9935
1636.5475 545.6311
1630.7644 541.93896
1638.1921 530.9876
1645.1748 533.0665
1659.598 533.4989
1652.3452 531.77313
1642.5834 524.9032
1635.2351 522.9756
1631.6733 529.0144
1627.8885 523.20374
1624.07 528.9024
1620.5854 522.89514
1616.5522 528.0141
1612.9283 522.1366
1616.9275 515.64124
1609.3132 515.0884
1605.9602 521.55786
1595.3569 519.5315
1588.7554 521.26843
1590.0947 515.18066
1594.6897 511.85596
1601.3896 515.26825
1599.7726 508.80994
1594.8446 504.86972
1603.6698 504.12665
1606.5046 509.66327
1611.5806 503.8143
1614.2217 509.50873
1620.2123 504.07407
1621.2734 510.86993
1625.7288 515.2527
1632.6981 514.588
1627.2006 506.6112
1635.2065 508.6977
1641.1445 514.10535
1648.4548 512.5641
1650.6722 524.31555
1655.4281 516.8238
1655.9082 507.2325
1649.478 503.8919
1641.8904 504.6062
1633.4043 502.7561
1635.3076 427.6351
1631.5966 422.47522
1625.589 425.34796
1618.4696 427.54913
1616.7737 422.0739
1622.9412 412.22266
1630.3347 411.872
1640.1406 422.84955
1645.0725 427.43243
1649.4683 422.75525
1653.6187 427.0417
1660.6544 428.57745
1659.9675 422.93076
1667.0305 423.9293
1669.1326 428.6256
1674.3553 423.50143
1677.354 428.79852
1682.4854 423.90033
1684.4868 429.59216
1690.0562 426.514
1696.3181 426.72702
1703.0762 428.0295
1708.5973 423.59845
1712.5928 428.63934
1718.6888 430.77814
1723.0232 425.29547
1718.3201 418.4321
1710.4625 413.66425
1700.8113 415.84906
1691.5938 414.9067
1683.4951 414.07904
1677.2874 411.78546
1672.6505 414.5477
1666.5562 409.2617
1665.1982 414.42075
1659.1201 411.63678
1653.8401 413.96112
1649.2432 409.87122
1643.4431 411.43356
1636.9888 411.67578
1623.3677 407.0971
1616.0789 409.87396
1609.5417 409.95306
1602.0618 410.0916
1595.3551 410.247
1588.2739 410.0704
1580.719 412.14584
1581.2781 406.47516
1573.8362 408.00327
1573.5586 412.70404
1567.2086 410.72995
1561.1383 410.0782
1555.6155 412.25632
1549.8239 410.97223
1543.4524 411.18222
1536.1146 411.02768
1528.1637 412.80054
1519.2218 412.98288
1510.2246 413.002
1501.3694 413.85583
1493.529 416.94403
1486.8059 414.40167
1480.0771 416.2391
1474.4291 414.1632
1471.0734 418.825
1465.6049 423.4056
1459.1062 427.11096
1455.513 435.2478
1455.7347 442.35254
1448.8806 445.98352
1444.1262 455.8326
1440.5132 464.07272
1436.6112 472.57614
1442.5583 476.71405
1445.3438 468.5128
1448.6663 461.28476
1450.4573 454.1236
1454.7291 449.12128
1461.2024 437.44257
1464.3461 431.3646
1470.8452 428.8879
1477.4095 427.0509
1485.1344 427.16638
1492.7722 427.46973
1500.8223 427.48215
1507.6422 425.31332
1513.5497 427.6532
1518.4161 422.8784
1522.1394 428.07837
1528.1837 425.10284
1535.1621 425.61902
1541.7036 422.78455
1543.1909 427.70175
1550.9696 427.641
1549.4479 422.222
1555.635 423.87555
1558.8671 428.14914
1560.9402 422.00787
1565.5293 427.1314
1569.1141 422.1632
1573.523 427.2252
1580.9702 428.75208
1579.116 422.51495
1587.8828 422.60736
1596.3572 422.90643
1605.112 422.3025
1610.5281 426.95822
1602.4015 428.33807
1594.4719 428.94626
1587.6655 428.7148
1587.5065 505.12656
1588.0588 509.8745
1583.723 514.90784
1580.9056 508.93994
1574.0471 510.0628
1567.5923 510.1405
1561.117 509.93335
1555.7562 512.12537
1548.8901 509.77466
1540.6705 510.06836
1532.5862 509.8808
1525.4895 509.97607
1528.1852 515.8378
1535.947 515.42773
1543.624 515.42065
1550.9521 516.0276
1562.2633 516.0043
1569.9132 515.68427
1577.2754 515.275
1574.3734 521.8794
1581.6228 521.6747
1583.4532 527.166
1586.0188 538.98376
1590.3661 544.0204
1593.9647 539.3408
1588.9601 526.83954
1594.9316 526.926
1599.7871 523.40656
1603.2278 527.5966
1609.85 527.67163
1616.5178 539.2984
1611.5918 542.391
1607.2175 539.0645
1600.3297 539.15497
1602.6189 544.47424
1597.0852 546.2874
1591.0931 550.037
1586.1001 553.1184
1584.7921 560.50836
1592.0278 558.6421
1596.5037 553.444
1602.6031 552.2748
1599.6323 559.7977
1605.8076 559.17523
1609.2283 552.6177
1607.3367 546.8028
1614.0712 548.135
1618.3081 544.166
1624.0057 541.7935
1628.7296 548.6692
1621.8787 548.86273
1622.9512 555.4106
1616.3408 553.78534
1617.602 560.8922
1611.6682 559.1155
1607.541 575.9063
1606.759 584.24493
1601.5055 583.08044
1598.4059 575.7665
1590.3381 577.28845
1581.8485 575.7074
1575.2712 580.03735
1575.1069 586.4724
1582.4108 584.3804
1588.8701 585.00806
1595.4363 584.26074
1593.0708 592.6566
1586.1997 594.00684
1578.9893 592.82495
1579.0104 599.6222
1579.6216 606.40186
1585.6511 603.33215
1591.7341 600.64545
1597.7344 597.6172
1599.9746 591.0594
1604.5402 595.8789
1606.8081 590.5432
1611.915 595.1842
1619.6523 593.6632
1627.5068 593.22015
1634.8044 594.6361
1637.0159 602.20215
1629.5743 604.1842
1623.4761 599.9558
1621.7737 606.5103
1615.6353 610.93494
1614.4946 616.32544
1617.0452 622.2893
1622.4802 614.5053
1629.7384 614.41565
1635.7004 610.58563
1642.121 614.0559
1644.9185 622.10187
1637.4906 620.3445
1631.1433 622.5907
1624.0281 622.27295
1615.9097 631.9116
1606.5437 632.7711
1609.3257 623.5122
1601.7625 621.61395
1594.0916 623.59656
1590.2427 631.5825
1586.1636 636.49866
1589.2295 641.3128
1582.3293 641.1384
1579.5094 635.90735
1582.8464 631.42944
1575.3019 631.5538
1567.2761 631.4475
1562.2722 623.0039
1561.9203 616.7982
1566.2764 612.9332
1571.508 616.73645
1569.9551 622.88873
1577.7076 622.199
1585.4131 623.19763
1589.5074 617.8078
1595.3158 617.24915
1598.4689 613.1487
1608.0741 617.5514
1606.2319 613.0956
1611.3004 606.61115
1616.0209 601.6361
1608.5282 601.5899
1602.4121 602.2407
1603.9913 607.63074
1597.3679 605.3704
1591.7742 607.88745
1587.2634 611.8069
1582.8782 616.3082
1577.886 613.73145
1572.3884 609.5387
1571.9812 602.8696
1564.742 598.76154
1564.9064 605.7863
1558.7378 610.73804
1558.5898 602.5277
1552.6936 605.752
1547.2164 610.06177
1552.5062 613.23584
1554.6543 617.9732
1554.5364 623.4664
1548.7928 634.6732
1545.8171 630.5838
1547.1926 622.8891
1539.9707 622.0506
1546.272 616.78
1541.4106 613.16693
1536.342 615.33545
1531.6462 618.84375
1522.5833 613.4279
1529.1975 613.5177
1535.6279 608.5035
1541.8667 605.5053
1536.2264 600.95953
1530.9424 603.97974
1525.7546 606.67993
1523.57 601.13586
1517.9573 604.9688
1514.5222 611.4564
1517.3055 617.36206
1515.3186 623.2267
1508.8112 615.49817
1506.1309 622.3613
1503.0745 632.8727
1493.6782 633.15753
1485.0443 640.3863
1485.6527 632.88574
1485.2369 621.55115
1496.384 623.21277
1500.0105 615.0335
1491.9944 615.81995
1487.7072 610.7904
1479.7445 613.66284
1471.1233 612.52454
1474.866 604.1852
1479.593 598.2556
1482.7809 604.9012
1490.3654 601.49084
1495.7109 606.7515
1502.2972 602.9546
1504.8976 609.1535
1510.915 603.8306
1507.394 597.03357
1511.6305 591.6548
1516.8724 595.34344
1524.4204 593.344
1531.8406 593.8235
1539.4753 592.4321
1542.2839 598.09973
1547.2378 602.1875
1552.6257 598.4949
1548.1077 592.6855
1556.3252 593.009
1562.8163 592.1154
1571.5183 594.89636
1568.4077 588.66754
1567.1194 582.5157
1567.9744 574.4236
1559.4576 583.8915
1554.7616 576.2819
1551.2852 584.27765
1543.3422 577.17993
1543.3782 585.0262
1535.3933 584.36383
1527.1467 584.82434
1520.9756 576.8812
1516.9323 570.5355
1511.4716 575.77405
1518.6238 585.59717
1510.4159 584.82697
1502.8125 585.6325
1503.4083 591.75977
1496.6106 589.1201
1497.5713 596.73724
1485.5325 594.8993
1490.9663 591.9071
1493.8055 580.7366
1485.0696 582.8865
1476.9856 586.2717
1470.0774 591.2416
1464.4426 597.1269
1467.5479 604.28564
1459.5603 605.3307
1448.102 612.5622
1444.4838 619.1494
1438.2412 620.6669
1439.7789 611.77826
1433.569 615.5915
1430.377 609.0514
1426.3204 613.4966
1422.6274 618.2095
1417.1052 621.8791
1421.612 632.9397
1429.1705 631.6741
1424.2649 626.2294
1428.9147 621.2315
1433.6887 625.8256
1436.5929 631.6204
1434.6528 637.15344
1441.3582 636.5592
1442.4133 628.83496
1449.9951 629.85205
1456.8215 616.13995
1461.1085 611.3259
1465.0487 620.48047
1474.8328 621.3342
1467.8799 630.5598
1477.1628 631.3229
1477.8451 637.89545
1477.4219 644.4189
1485.1016 648.24
1490.6931 652.8808
1497.309 656.1708
1498.5833 648.0189
1491.8601 643.1145
1497.947 638.83795
1504.5358 641.4905
1510.1865 637.301
1511.2251 631.6349
1517.7811 633.6935
1521.522 639.209
1528.0465 641.3756
1528.4956 636.0968
1524.5312 631.8572
1524.388 622.0314
1532.6255 623.9032
1532.6992 632.45337
1538.811 631.50183
1543.3206 635.2647
1538.3322 636.9584
1534.1907 640.21533
1540.7402 641.6636
1546.0383 640.15063
1552.5303 637.672
1553.6299 631.63135
1560.6401 631.9651
1557.8821 636.2733
1556.8395 641.32886
1562.5995 641.01953
1565.332 636.8003
1569.6183 641.219
1571.6561 635.6754
1575.9211 640.48145
1575.9347 656.31903
1581.7749 671.03955
1572.3973 672.1118
1567.9471 679.33356
1561.2968 680.91547
1551.5947 683.8341
1548.9938 690.0006
1543.9882 684.4443
1537.2345 683.48456
1539.7012 690.6955
1532.5996 689.69226
1530.2554 695.75244
1537.814 697.2572
1539.7537 706.2694
1532.4875 706.69336
1526.223 710.19086
1524.9856 704.3729
1517.3279 703.383
1522.4841 695.95337
1524.9502 688.8695
1529.9578 683.63855
1531.9082 677.33844
1534.8154 671.2749
1540.1089 676.6041
1545.2104 671.3823
1547.7577 677.64856
1555.4692 678.1063
1554.5464 671.82245
1563.452 672.4523
1565.458 658.2187
1565.8408 652.50635
1558.053 652.87134
1557.3676 658.3762
1550.2515 658.06396
1549.8035 652.91974
1550.7391 641.8855
1541.1082 651.2566
1543.9229 657.3761
1538.2511 658.4494
1534.0973 656.11597
1530.5076 653.135
1527.1809 659.3866
1520.17 654.8565
1514.1318 659.83844
1511.839 654.00977
1515.0181 648.849
1520.8318 646.4987
1514.0615 642.1929
1507.115 648.03503
1505.1692 655.926
1502.1244 662.8058
1500.8171 669.56775
1509.0471 671.3827
1509.9897 664.7283
1519.8647 664.15393
1517.4509 671.16833
1525.4835 672.53174
1523.5002 679.90497
1518.3258 684.4265
1517.7965 690.87036
1512.2539 694.7985
1505.701 692.70276
1505.5482 684.87744
1511.5144 686.97107
1514.2517 678.0181
1505.5375 677.2737
1497.6868 676.17114
1498.5458 682.0321
1498.4116 687.987
1499.4216 694.126
1493.0586 693.01514
1490.8325 685.8594
1490.8635 678.4963
1484.5732 679.5554
1480.1243 675.1964
1475.451 672.17706
1477.5774 667.07587
1483.8943 667.2273
1487.3042 671.90234
1493.5063 670.6668
1493.2384 663.25635
1486.7156 660.4224
1481.9867 655.4881
1478.7246 661.20667
1473.9469 654.16034
1478.0813 650.2914
1470.1334 648.61566
1469.9988 642.5071
1470.1677 636.4429
1462.2379 640.546
1462.1797 634.41785
1456.9288 630.8655
1454.9004 637.9022
1448.1493 635.4458
1445.4927 641.3508
1450.9165 643.47473
1451.2789 650.2568
1453.4241 656.7552
1460.1006 657.24713
1457.3231 651.53577
1456.6771 645.2291
1463.2839 646.31586
1463.3497 651.8777
1467.6619 655.01697
1466.2473 660.73785
1472.4849 659.8336
1471.2705 665.93823
1465.5232 667.605
1461.023 662.8864
1454.9478 662.7427
1448.7545 661.4488
1448.5818 667.4894
1454.019 668.62006
1459.6036 668.3794
1458.8071 674.2147
1464.2739 673.9628
1469.9974 672.9827
1473.6819 679.2484
1467.7529 679.7956
1470.8835 686.00995
1477.3335 689.0459
1478.3687 682.83734
1483.585 686.6958
1486.0725 692.0138
1485.4358 701.271
1490.5024 703.5427
1497.1176 704.6166
1503.1968 703.6847
1509.9319 703.6645
1510.87 709.172
1503.3142 710.07764
1502.5857 716.5615
1499.1099 722.311
1492.2316 721.8484
1496.3381 714.4823
1492.2094 709.6902
1488.1455 715.7702
1484.9248 709.56006
1481.1366 704.5156
1477.4121 699.78296
1474.0779 704.12836
1468.3326 705.6108
1460.6235 709.1472
1457.4602 705.21234
1453.4421 701.7414
1454.7134 695.18396
1449.9071 697.30676
1443.406 694.78876
1445.7268 699.42645
1441.3796 701.7417
1441.0442 706.73413
1447.8021 704.59656
1444.5121 710.30756
1447.8462 714.13196
1450.7518 718.09735
1451.9158 708.8417
1455.4384 713.8436
1460.7656 721.2626
1461.3035 715.5875
1466.0885 711.8144
1471.7683 711.1155
1477.6018 709.7959
1480.4354 716.12415
1484.9333 722.60156
1478.5135 724.0354
1472.4507 725.62146
1473.5923 717.5109
1467.4199 719.27527
1465.254 725.8519
1457.3604 726.4502
1454.6418 721.1184
1449.8634 726.0512
1442.0421 726.318
1445.6453 721.2527
1441.4713 716.2584
1437.7422 721.2538
1434.067 726.4067
1428.94 720.52893
1433.3662 716.42377
1436.9858 711.50073
1435.0327 705.265
1428.865 704.9384
1426.611 694.45935
1423.9255 700.72015
1417.6217 704.36176
1423.24 708.1372
1429.4102 711.4254
1423.2545 715.9065
1417.1478 711.4118
1414.4215 717.84595
1420.8456 722.5946
1414.7662 725.8872
1412.6575 732.4662
1410.0242 737.92676
1417.7749 734.0375
1422.5018 730.1557
1427.4478 726.8046
1429.5627 734.25525
1423.3007 737.45276
1416.6914 741.50354
1409.5642 744.6213
1414.6968 748.51794
1410.2297 753.4023
1418.314 754.53973
1421.3718 748.50903
1424.2408 743.49384
1430.2443 741.7997
1429.8169 749.281
1426.1837 754.2089
1423.5343 759.3806
1417.833 760.87585
1412.4385 759.458
1406.5287 759.9814
1402.0935 755.07983
1399.6775 761.1608
1394.3262 759.527
1388.1201 761.74634
1388.5184 757.5696
1390.488 753.2689
1396.6912 752.00946
1399.338 745.9066
1405.088 749.3501
1403.7883 741.1389
1397.6614 738.291
1393.1763 742.8777
1390.9467 747.92175
1391.4111 736.2539
1395.6593 731.3314
1388.4055 730.9989
1381.7891 732.202
1381.1105 739.2162
1386.8828 739.21704
1385.1675 744.968
1383.5725 750.1628
1383.4597 754.81433
1382.8542 760.13477
1378.3003 757.4067
1376.5234 751.90625
1378.4745 746.04846
1372.3242 744.4219
1375.2412 740.02563
1375.0961 734.1022
1375.0038 727.85565
1379.7396 724.162
1372.3997 719.3612
1374.225 713.2448
1379.0828 717.8762
1385.8209 725.246
1386.4026 718.27026
1388.706 711.5055
1395.7351 709.64087
1394.4397 716.8166
1392.898 724.1677
1400.3264 720.38513
1400.6228 727.2555
1403.1057 734.31055
1407.5117 729.70404
1407.6421 723.22046
1407.1775 716.54004
1410.0283 709.2936
1402.1316 712.0722
1402.7806 704.589
1396.973 702.4562
1390.2952 704.35425
1390.4144 697.5873
1391.9951 690.59247
1382.0813 685.98035
1384.3022 692.00214
1382.2971 698.23676
1383.2119 704.7314
1381.3972 711.2914
1375.0029 706.6823
1374.9485 699.9213
1375.2178 692.54834
1374.8651 685.0978
1384.4913 679.7998
1378.463 676.41644
1372.4596 677.096
1372.6133 669.57764
1378.6139 668.9263
1383.2513 665.44464
1385.6924 673.0907
1390.1904 684.11566
1397.186 682.406
1392.5406 676.4586
1400.7621 675.62805
1407.7018 674.9081
1406.8159 667.0565
1401.7654 667.8821
1395.6716 670.066
1389.814 667.4771
1390.1719 660.32556
1396.7706 662.8688
1401.2832 658.33215
1406.5916 660.34595
1412.6879 662.1196
1411.0404 655.0177
1416.5878 655.39624
1422.1528 653.9592
1421.931 648.6035
1422.3279 643.33185
1427.9724 645.50116
1427.3552 651.2455
1431.5566 654.3894
1436.7103 653.9886
1437.6875 658.9183
1436.0374 663.99854
1431.6471 667.4508
1428.6158 663.68054
1425.2114 667.2213
1421.5061 663.5559
1417.7012 666.64825
1412.7593 670.0843
1417.6539 676.2717
1424.5845 680.97705
1418.1631 683.5464
1411.3804 681.1317
1404.6149 682.4315
1399.7257 688.88495
1397.7083 695.7134
1404.4194 695.9491
1407.8787 701.6918
1413.3744 701.08875
1412.2368 694.7007
1406.9736 689.3429
1412.9178 687.632
1418.2169 690.41547
1419.5175 696.2958
1423.274 688.3674
1428.2659 688.1903
1431.0924 683.4973
1430.2635 678.4375
1436.0449 680.0565
1435.7524 674.29224
1440.7136 676.1527
1445.3745 678.78613
1447.2473 684.9279
1441.6897 682.4011
1437.7179 685.7534
1433.5808 688.73047
1433.0999 694.0449
1431.1428 699.5253
1437.4268 698.40393
1438.6357 692.0106
1443.2295 688.5841
1448.6382 691.3703
1453.94 689.5759
1452.5602 684.59985
1458.4004 685.2507
1459.6001 691.4838
1463.705 695.9286
1459.075 698.966
1463.8662 702.5671
1470.0022 698.64056
1466.9501 691.68207
1464.2617 686.5482
1462.1061 680.31244
1456.231 679.5359
1450.5045 679.43274
1453.2096 674.10297
1447.8899 673.71277
1443.1333 671.11053
1438.0524 669.15173
1442.141 664.5209
1443.0334 658.271
1447.2373 654.666
1441.4368 650.8612
1445.542 647.57776
1439.4578 643.8596
1434.0071 648.5704
1433.6841 642.9542
1429.05 639.2723
1424.2183 637.5281
1417.7219 640.2692
1416.1125 648.6233
1405.1187 652.90784
1409.287 648.5864
1411.8597 643.9095
1411.6162 638.50757
1414.8677 633.5757
1417.5215 627.9166
1410.8501 626.87646
1403.6968 628.67053
1407.4711 633.7163
1405.2161 639.8678
1403.0693 645.8536
1398.7166 640.942
1399.2458 633.7158
1393.6967 637.59106
1389.0874 641.5863
1394.0879 646.4784
1399.1698 650.7525
1395.2654 655.4375
1389.5702 652.8237
1385.991 647.2036
1381.0549 642.1545
1382.3842 654.009
1383.2582 659.48486
1375.3992 660.72205
1372.461 653.605
1378.6019 649.74207
1373.9885 645.074
1375.1824 638.2914
1374.2476 631.25806
1376.8494 625.5412
1383.4926 627.4582
1380.2673 633.444
1385.4226 636.1986
1390.5985 632.2466
1390.0015 626.1933
1396.1486 627.1416
1400.6375 622.48645
1406.6472 621.32275
1411.6943 617.6255
1417.2428 614.3857
1419.5272 608.3344
1425.0972 605.5383
1431.3241 601.2949
1435.4001 606.05334
1438.8154 598.9745
1444.3766 594.85175
1439.2379 586.9888
1433.4612 587.02435
1428.6251 587.86835
1420.8906 585.23145
1424.9749 573.4369
1418.9556 577.24347
1415.1199 584.12317
1415.4858 591.7459
1412.375 598.6117
1406.5896 595.5481
1400.5234 599.7597
1406.5593 605.6981
1412.6862 608.7605
1406.5134 613.3591
1399.9092 615.4847
1394.0449 619.30225
1386.8167 620.81244
1387.9819 613.9708
1393.5436 610.9529
1401.009 608.5148
1396.0624 604.45935
1389.4229 604.0433
1382.9856 605.6373
1381.4843 612.1649
1379.9052 619.08655
1372.2277 620.8629
1374.3254 612.2543
1375.036 604.8198
1375.5287 596.92676
1375.4163 590.1892
1375.3247 580.1598
1379.0334 572.7859
1383.8546 580.8475
1384.1282 589.1115
1384.0159 597.43823
1392.9994 597.2451
1391.8208 590.0576
1400.5029 592.0894
1398.1825 585.1581
1392.3563 580.30273
1400.8917 575.30225
1416.041 570.6306
1410.8718 565.94037
1395.3071 568.223
1388.3486 572.46014
1383.4601 564.56055
1389.537 559.6995
1389.5815 550.60126
1399.2306 537.4015
1406.2466 533.3149
1397.9403 530.6375
1402.2668 527.202
1400.491 517.0048
1393.8236 515.3723
1389.6312 520.251
1396.6687 523.064
1390.718 526.9816
1385.1074 525.4
1380.4939 527.8364
1375.0929 526.3765
1369.0247 524.6926
1364.9117 520.54236
1372.426 521.68115
1376.4503 518.30383
1379.2567 522.314
1383.1866 518.05725
1386.6438 512.3467
1390.3643 507.51178
1364.8157 499.76718
1376.3461 494.21448
1387.0059 497.6546
1394.7754 497.28278
1395.7104 503.6949
1403.2937 503.24512
1398.9465 509.81677
1405.4248 511.53845
1405.5276 520.75024
1409.4644 526.6417
1415.1267 534.21857
1413.2621 543.48016
1405.6598 542.64856
1397.3025 545.35205
1396.6384 552.9265
1399.0 560.30945
1405.8098 553.4069
1413.9927 560.3605
1419.2988 563.15063
1425.5101 560.4614
1432.105 570.1145
1434.1544 577.53766
1444.544 582.9466
1452.0204 585.27344
1450.2954 591.55133
1457.2357 587.45496
1455.5461 578.792
1461.6882 575.41455
1462.2021 582.737
1468.5583 580.1813
1476.6375 576.36554
1469.722 574.6968
1466.6587 569.75977
1463.9847 564.0324
1469.4835 563.1317
1473.9136 568.2214
1479.8114 570.7212
1486.6389 571.76807
1491.7075 565.36926
1485.8541 562.4104
1480.8708 562.8574
1475.4841 561.5386
1477.2402 555.3672
1479.8679 551.5583
1484.5155 549.5815
1490.4617 551.8545
1489.5889 557.3814
1498.3994 563.0698
1496.5992 570.80884
1502.2755 577.0805
1504.8259 570.4381
1511.0961 567.336
1505.3993 562.5067
1512.4915 561.1328
1518.2805 559.8463
1520.3953 565.31287
1525.2366 571.20105
1532.2798 575.35803
1532.512 569.1626
1527.294 564.4779
1524.3677 558.84375
1530.1708 555.68616
1530.6716 546.5037
1537.313 546.12134
1545.3044 545.7409
1551.5931 544.68225
1557.2986 541.8719
1563.7915 542.392
1570.285 541.2202
1574.6238 545.8668
1572.7805 553.2304
1566.8636 549.4082
1561.0138 554.9301
1558.7812 548.7338
1552.1815 552.4575
1545.6578 555.06116
1541.456 550.8801
1535.8481 553.9874
1532.8989 561.3516
1537.8926 564.5195
1540.242 559.21497
1545.642 562.8257
1550.6777 560.1342
1556.0742 560.9252
1562.6013 561.53015
1568.705 558.83215
1576.4269 560.61926
1579.7651 555.7312
1579.4744 549.6971
1583.7087 545.28345
1578.1956 539.6095
1577.648 527.4773
1571.9666 527.5043
1566.1377 522.88464
1566.3013 528.7977
1560.4113 528.47986
1557.5427 522.83026
1553.3528 529.7992
1549.0765 524.49133
1541.2031 524.76086
1545.4949 531.96326
1537.3845 535.02374
1535.946 529.6435
1531.1014 525.35077
1527.6025 534.01904
1522.7938 526.4119
1520.4231 515.2024
1519.1233 507.88123
1513.2788 510.42273
1514.6718 517.8019
1513.1931 524.77106
1503.6335 525.3825
1498.8616 522.7799
1505.5256 519.5541
1506.9458 514.38745
1507.4888 507.21066
1500.7872 508.73215
1498.5271 515.9946
1489.2009 515.7795
1493.6257 512.1828
1494.4403 506.3774
1487.8815 506.75983
1482.9314 511.72485
1480.7542 506.18744
1474.5331 508.5204
1468.4067 507.86044
1461.835 508.19415
1454.2632 509.47018
1448.1643 511.4929
1444.7834 517.7683
1436.4534 517.6877
1442.2217 525.3479
1450.3923 526.95703
1457.0563 527.5486
1452.6423 517.37885
1458.8496 513.02295
1460.5413 517.77026
1466.6067 513.2289
1469.4192 517.4172
1475.4142 515.15173
1481.5637 517.20526
1477.2635 525.9401
1486.3546 522.70435
1495.57 525.255
1490.5356 525.3213
1483.5905 526.92285
1480.1273 532.22656
1484.7115 537.39374
1489.0281 545.249
1479.6423 539.3694
1473.4008 531.8933
1470.3788 526.8141
1463.6843 527.09235
1466.7612 532.5377
1469.2473 538.4762
1474.83 537.33563
1473.474 543.76917
1469.0476 550.9739
1471.4731 556.7702
1457.7521 550.6265
1464.8749 543.5668
1463.2428 537.9374
1459.7837 533.2936
1458.0201 540.8584
1453.1243 537.7612
1446.4943 536.31116
1447.2548 544.4175
1445.754 553.00903
1444.8174 560.7114
1452.7397 562.7026
1457.2275 569.58984
1449.9943 572.06433
1440.9049 568.4252
1437.355 560.9136
1435.554 545.7725
1424.4784 543.1139
1439.5564 534.7652
1431.5581 532.26355
1423.5862 529.9417
1417.7915 523.22845
1421.772 516.17114
1429.381 520.9036
1429.9365 512.1028
1424.0428 505.90656
1428.4722 495.65158
1435.4503 481.49164
1434.2971 489.31598
1432.7822 503.22336
1439.578 511.67236
" />
</g></g></svg>
