<?xml version="1.0" encoding="UTF-8" standalone="no"?>
<!-- Created for Inkscape (http://www.inkscape.org/) -->

<svg
   xmlns:dc="http://purl.org/dc/elements/1.1/"
   xmlns:cc="http://creativecommons.org/ns#"
   xmlns:rdf="http://www.w3.org/1999/02/22-rdf-syntax-ns#"
   xmlns:svg="http://www.w3.org/2000/svg"
   xmlns="http://www.w3.org/2000/svg"
   xmlns:sodipodi="http://sodipodi.sourceforge.net/DTD/sodipodi-0.dtd"
   xmlns:inkscape="http://www.inkscape.org/namespaces/inkscape"
   width="567"
   height="800"
   id="svg2985"
   version="1.1"
   inkscape:version="0.48.1 r9760">
  <defs
     id="defs2987" />
  <sodipodi:namedview
     id="base"
     pagecolor="#ffffff"
     bordercolor="#666666"
     borderopacity="1.0"
     inkscape:pageopacity="0.0"
     inkscape:pageshadow="2"
     inkscape:zoom="0.35"
     inkscape:cx="1600"
     inkscape:cy="400"
     inkscape:document-units="px"
     inkscape:current-layer="layer1"
     showgrid="false"  />
  <metadata
     id="metadata2990">
    <rdf:RDF>
      <cc:Work
         rdf:about="">
        <dc:format>image/svg+xml</dc:format>
        <dc:type
           rdf:resource="http://purl.org/dc/dcmitype/StillImage" />
        <dc:title />
      </cc:Work>
    </rdf:RDF>
  </metadata>
  <g
     inkscape:label="Layer 1"
     inkscape:groupmode="layer"
     id="layer1"> 
     <g>
<path style="fill:none;stroke:black;stroke-width:2px;stroke-linejoin:round;stroke-linecap:round;" d="M 
1448.7329 338.84747
1452.9263 347.88763
1458.6968 343.15198
1467.0281 341.39877
1476.7703 340.77533
1472.0415 350.22498
1464.1638 351.39398
1458.4474 355.87262
1464.4495 369.2201
1475.0182 361.6655
1484.7076 359.917
1479.2534 352.73035
1485.5342 347.70923
1486.5935 337.84302
1494.3385 346.18347
1492.9982 357.21625
1501.0673 353.5902
1518.1914 383.4464
1515.9082 395.73627
1526.1096 377.90588
1509.1345 348.87595
1503.7372 341.769
1514.0156 341.14093
1510.7717 332.6598
1511.8347 322.75906
1507.5437 310.6446
1504.9581 301.14496
1502.0367 290.9626
1502.4592 279.1417
1509.8899 284.37433
1513.4412 274.8204
1508.1443 267.1108
1499.4048 269.5868
1492.7817 275.92368
1492.2114 284.69186
1482.9253 276.89294
1481.1477 286.3048
1483.4926 295.5503
1492.7355 293.45038
1494.008 302.21448
1497.8541 310.5426
1502.947 319.24866
1501.5289 328.57352
1496.6504 336.2762
1489.6151 328.54663
1493.2717 320.165
1487.3861 312.4786
1483.5408 305.08447
1474.4109 302.21786
1464.6418 303.58154
1463.3661 314.2407
1471.1055 321.95038
1474.5182 312.0407
1481.6866 320.5366
1478.7087 330.36237
1468.5223 332.1213
1457.469 333.61194
1460.8105 324.7603
1452.9407 319.81488
1446.9458 329.89194
1442.5371 322.1122
1446.5913 312.17264
1454.649 308.03186
1454.1696 298.27866
1463.0624 292.87408
1472.7847 293.6231
1470.7205 284.94815
1462.8611 280.7282
1464.973 270.35373
1464.4962 260.4605
1473.6934 256.37592
1475.8197 266.53888
1473.3971 276.19812
1487.4478 268.29837
1484.2659 260.2735
1481.8728 251.45496
1493.1831 243.83244
1498.64 234.8781
1502.8097 242.13292
1500.2526 250.60173
1491.2001 253.08337
1495.5352 261.33597
1504.3171 258.15268
1517.822 263.59595
1522.344 269.7554
1526.022 276.9274
1529.541 285.3592
1519.28 283.68167
1522.8552 293.1867
1512.7228 293.4137
1516.2253 302.48108
1515.4313 312.744
1538.9359 314.70728
1542.226 307.8554
1547.3545 302.127
1560.7611 330.33157
1569.3677 321.3393
1571.8866 312.08694
1582.7275 313.25128
1591.8544 307.4329
1585.4662 302.11053
1576.639 302.8181
1579.9553 291.46942
1588.85 293.7645
1597.1758 298.79303
1602.38 307.46002
1608.6895 299.38763
1613.8004 307.56067
1623.1333 307.4884
1627.4187 316.05878
1637.1521 318.68713
1644.164 330.0432
1660.1179 330.2296
1654.3358 311.25467
1648.448 301.0568
1635.0203 304.81445
1631.048 295.9724
1619.6807 298.1631
1622.574 287.70703
1612.74 288.16742
1603.5696 291.57556
1604.0183 281.92856
1595.8798 287.21844
1587.2375 284.15274
1576.7577 281.06653
1585.6998 276.0382
1580.7041 269.48907
1590.0437 267.39264
1595.6951 276.1665
1604.31 271.4966
1611.5721 276.7979
1618.2423 280.28058
1626.2341 278.88092
1634.5203 278.4536
1632.6475 286.7182
1642.3927 285.4126
1640.4785 294.4162
1650.2905 291.19513
1658.4299 295.7771
1662.2202 303.60205
1673.1206 306.9128
1685.519 312.53082
1684.6161 332.22766
1695.5835 342.9112
1700.8162 318.01715
1715.9225 321.05594
1735.2686 321.09134
1736.0494 292.761
1728.5889 293.47537
1729.7068 284.48563
1738.029 281.98764
1742.943 288.36945
1748.8965 281.73404
1756.4905 277.2138
1763.2852 268.78903
1763.5737 256.68103
1761.8555 245.35422
1753.2325 250.78429
1747.5527 257.81418
1745.7316 267.28882
1742.2362 274.51407
1734.4617 266.44125
1731.2574 275.00522
1721.6445 278.3523
1721.7673 289.19513
1715.1669 285.2502
1709.7021 279.15427
1714.1458 270.94226
1702.9725 272.46982
1696.9038 264.8947
1704.1594 254.6807
1707.1335 263.7489
1716.2217 259.92264
1723.5638 268.39694
1726.7996 259.36877
1733.6063 251.63316
1739.0193 258.54306
1742.8209 246.87415
1734.2292 241.43889
1731.5857 232.0777
1720.6317 228.96045
1727.8942 221.26715
1737.1641 214.44931
1738.3239 224.65141
1748.036 222.53783
1744.3601 233.67455
1750.9364 240.95453
1758.5591 235.50024
1757.2672 226.59543
1757.9551 216.21143
1759.1666 206.54794
1760.2969 196.42284
1774.1704 188.58885
1768.9136 178.2957
1765.698 185.43802
1757.8652 187.33875
1749.717 190.87451
1750.614 200.70074
1748.4668 211.82983
1741.4625 204.35336
1731.9297 204.88794
1729.5227 194.60309
1740.2911 194.42023
1734.8584 185.44052
1743.229 183.0385
1752.084 180.17827
1760.2426 177.55792
1763.3818 169.55728
1754.1829 169.8291
1756.1781 161.30801
1748.73 155.90706
1741.1372 151.25629
1733.1182 147.18503
1730.4402 156.2349
1721.7922 153.81067
1723.4855 144.52194
1713.7755 141.51036
1713.1995 150.22092
1703.9507 143.84268
1693.868 142.4567
1684.6016 148.54164
1675.3821 155.41223
1664.8627 158.58905
1655.0002 164.57285
1644.7614 170.9791
1653.527 174.62079
1655.8806 182.69778
1651.7529 191.9701
1662.5385 189.0328
1674.8328 187.9161
1685.0215 190.96294
1696.1802 186.03966
1694.3832 197.12961
1700.7461 206.81778
1705.028 197.08176
1707.9147 188.4246
1704.5903 179.56046
1715.3364 181.50212
1712.5374 170.94315
1702.0203 171.16545
1705.0348 163.12015
1694.9097 162.75449
1693.331 173.68755
1686.4045 179.95947
1677.1973 177.28978
1667.0607 179.80246
1663.5519 170.54236
1673.3236 167.04552
1683.8267 167.43405
1686.0652 157.71735
1695.3749 152.10513
1704.5094 154.07434
1713.5798 160.08917
1721.8325 163.86082
1730.5243 166.85103
1738.3722 161.00659
1746.0326 164.77733
1746.2327 173.75517
1738.0837 172.82372
1730.2433 177.30821
1721.9336 173.83112
1724.2601 185.66867
1716.7524 193.79825
1721.8501 202.00412
1723.8372 211.94835
1712.2164 206.34729
1705.1956 216.49345
1715.7078 218.5151
1709.3429 228.41264
1713.7706 237.43674
1723.3181 239.94077
1724.2916 249.76971
1714.6826 249.86156
1707.6616 243.50589
1675.3643 244.68127
1670.5193 247.94115
1666.2789 243.75873
1670.4485 239.81796
1663.8156 237.92125
1634.2905 211.84288
1639.1643 204.1483
1645.5415 198.1684
1644.3672 183.00195
1634.2871 180.52702
1636.9497 192.14616
1627.4658 187.23204
1622.2958 195.13937
1629.4667 201.0774
1617.4509 204.30972
1625.552 210.51372
1628.7153 220.61534
1620.4349 224.24632
1618.4276 215.56387
1610.9333 212.68864
1611.4563 224.59117
1604.0547 220.19025
1596.1919 220.9701
1593.5306 210.61716
1586.751 219.74492
1591.3689 229.55557
1603.5762 231.8391
1615.902 233.29832
1611.6035 240.74402
1609.8911 250.8945
1618.4478 248.60477
1626.2977 231.27142
1624.4946 240.50041
1627.2542 250.6058
1618.4363 258.8941
1627.4487 260.64777
1629.3076 269.87567
1620.6604 270.07828
1612.7014 267.2253
1608.1598 260.02515
1600.5634 253.99442
1599.2766 264.60965
1592.2255 258.14505
1583.5063 258.5165
1591.8276 248.71149
1602.3291 244.01398
1595.531 238.19322
1586.4973 240.79881
1581.6206 233.33752
1579.366 225.51337
1570.4177 223.23041
1568.8909 209.50989
1576.3257 215.95483
1585.0356 210.01395
1584.4312 199.85934
1577.3076 205.98747
1572.1609 198.97008
1576.1362 192.37906
1566.8745 188.24457
1560.5571 180.35046
1555.5579 186.10486
1550.2375 179.05148
1544.9296 172.2454
1534.0737 169.75958
1530.1582 177.2009
1520.8098 167.51251
1521.6259 176.24536
1523.0917 185.67307
1532.7054 185.59149
1540.1874 179.99643
1538.9038 191.16263
1547.2427 188.92194
1550.3268 197.9235
1541.988 199.91089
1534.1338 202.5155
1528.6824 194.14581
1516.7809 192.76494
1513.1833 182.8634
1512.474 173.74487
1509.1063 166.29765
1497.9661 165.81339
1486.5127 166.91112
1491.8215 173.97533
1502.5369 175.71904
1504.6238 186.1124
1506.5 195.16321
1505.7 204.31381
1497.042 201.73593
1495.3491 192.47662
1494.9487 183.34146
1485.5833 181.55258
1479.6604 175.0343
1476.8358 167.80238
1469.1761 170.62584
1474.5706 182.31403
1471.2164 190.9707
1464.2002 181.66258
1460.8851 170.91277
1453.9272 175.30502
1453.8025 185.73654
1445.2665 178.24297
1437.7285 183.0922
1431.3525 189.44867
1344.0618 109.629074
1424.5647 195.52298
1420.2887 203.81108
1412.1724 207.86188
1428.9944 214.65245
1418.93 217.07614
1407.1353 215.99644
1400.4287 224.24469
1411.1229 225.40508
1419.8745 229.75739
1428.0464 225.12836
1437.3191 228.13701
1447.202 226.38786
1440.2363 217.01616
1445.2976 207.43268
1432.8722 205.90976
1438.2706 197.9234
1444.0554 189.22256
1449.9539 196.9028
1460.5844 192.92456
1466.5781 200.7177
1455.9695 204.47556
1462.4332 211.09668
1452.5698 216.83228
1457.1356 229.40039
1446.5486 236.79448
1457.2456 240.38995
1466.5132 237.3385
1468.8955 228.05554
1462.9502 220.38031
1471.9164 208.85716
1473.5453 218.24594
1483.7925 217.90967
1481.1001 208.45938
1477.2198 198.95291
1483.5881 190.33598
1487.4304 199.57742
1490.3608 209.48924
1493.3683 218.83072
1499.802 211.502
1503.8882 219.51025
1510.7429 211.50665
1514.951 202.46262
1524.0212 202.297
1520.4894 212.55121
1512.9615 219.8624
1519.3799 224.71086
1527.4243 220.16765
1530.4224 210.89049
1541.2932 211.44818
1536.8207 218.54643
1544.6162 223.9622
1553.1404 226.58963
1551.8884 216.87096
1548.6925 207.76205
1556.4762 203.97537
1558.1887 193.55151
1564.1719 199.7384
1560.074 210.72697
1562.7205 218.37125
1561.9647 227.18542
1558.5234 235.3648
1548.5956 234.96867
1544.2035 243.34874
1545.2942 251.82915
1553.7732 253.26402
1554.3141 244.34436
1564.2355 241.95068
1562.723 252.29126
1570.727 247.42192
1570.0997 233.193
1575.8835 240.65439
1581.1804 249.30441
1572.9883 255.09966
1575.5948 263.09595
1571.5762 271.93124
1566.9211 261.93628
1561.5696 268.18903
1557.6266 260.77826
1547.5027 260.5531
1551.5033 268.0513
1543.8679 273.15744
1535.8593 277.5451
1540.5078 266.9174
1537.7881 259.22855
1531.6543 268.21606
1527.9374 259.40207
1536.0908 251.1818
1527.4797 248.90192
1520.2065 253.67435
1512.4291 257.07623
1510.2834 248.20563
1518.729 243.92831
1526.9988 238.78899
1534.7244 242.4871
1538.987 234.78839
1535.8676 227.20932
1527.793 230.18988
1518.4141 233.83035
1510.2539 237.78703
1508.5748 228.81116
1498.5342 226.703
1488.9207 227.23865
1488.2905 235.5202
1479.3513 226.69107
1477.2534 235.43185
1483.7717 243.10803
1474.2712 244.8477
1466.246 248.4642
1458.5554 251.91592
1449.7386 247.00175
1451.8138 257.74832
1454.6414 266.3927
1455.0623 276.0684
1455.0652 287.61896
1436.204 290.41205
1435.1531 286.0141
1434.4209 281.4144
1432.6938 276.7592
1402.3668 263.52344
1407.2195 256.05338
1409.4884 246.87811
1401.7578 242.8356
1411.02 236.46269
1403.751 233.16537
1395.1766 233.84332
1392.9275 244.98318
1399.6135 252.93588
1391.7344 256.66736
1392.466 265.94604
1400.3916 272.69965
1392.6962 276.12524
1392.7617 284.11084
1392.5627 292.11145
1395.1348 299.20547
1396.9468 305.85876
1399.4666 312.05637
1402.4922 318.17224
1402.9316 323.84912
1404.2346 328.11322
1346.2192 393.72498
1347.8716 409.71973
1346.3809 423.2437
1360.5575 418.3695
1356.8525 429.41895
1369.7607 433.42194
1359.0321 440.41696
1369.395 449.10486
1380.2402 444.12775
1392.041 453.19308
1380.1074 456.40973
1381.6802 468.6283
1388.5197 476.8039
1383.3729 486.52084
1375.4862 478.41977
1372.2131 465.29584
1347.5854 458.91614
1350.7804 470.3777
1354.2161 484.93536
1354.9344 502.61496
1360.2311 521.5982
1380.5015 514.871
1394.9717 512.1531
1396.0547 523.562
1400.1078 533.0569
1404.8903 517.51904
1408.2073 526.8057
1409.6183 536.8871
1417.8809 531.7554
1421.3511 541.0818
1428.9069 535.15173
1425.5377 526.2633
1424.583 516.8696
1415.7424 520.31433
1413.5907 510.0013
1409.0101 498.81113
1403.1047 491.68164
1404.1442 507.4062
1396.6663 501.08713
1388.0438 497.27582
1393.3862 489.1402
1398.8983 480.9438
1398.4794 470.62598
1391.0721 463.78876
1403.9084 460.99985
1415.1339 466.34888
1408.3519 473.37668
1409.208 483.58945
1416.3848 490.19073
1418.4058 500.3285
1423.3486 508.21762
1433.9622 511.872
1433.8655 520.78015
1437.4596 528.22076
1446.9089 524.61835
1442.9834 516.4973
1449.8105 510.36047
1441.8314 505.08887
1436.613 496.69397
1431.1516 503.5191
1426.6287 495.30322
1425.9492 486.19196
1418.8179 478.35828
1425.5844 470.63165
1431.6604 479.04257
1436.5894 471.53244
1443.4939 481.17697
1436.5636 487.6388
1445.1447 493.66046
1451.515 500.62457
1459.8479 496.9477
1458.784 508.14368
1455.2592 518.4152
1455.1122 529.2974
1462.353 534.7067
1463.5597 524.5043
1465.7456 515.0053
1467.2635 504.7129
1469.9697 495.3269
1452.5662 488.40854
1459.1118 481.34363
1464.1057 488.2496
1473.4788 485.0145
1467.9546 477.68066
1476.641 473.86935
1470.3967 467.20932
1460.7935 471.4035
1451.8937 476.57062
1445.697 469.96497
1453.7747 464.9261
1462.7207 461.45892
1471.7805 456.93915
1479.6442 462.7075
1485.1572 453.03662
1478.709 449.84906
1486.741 443.15622
1496.7567 430.12555
1502.2227 420.69565
1508.5697 407.67468
1545.8821 445.7279
1540.833 456.97043
1550.4432 458.96783
1555.3036 468.62097
1545.0735 469.56393
1536.6721 467.87485
1548.4747 480.02365
1537.0612 479.15414
1534.894 489.29608
1532.0636 499.83017
1539.4543 510.2821
1529.1602 511.2451
1526.6938 522.6107
1537.1555 520.2672
1535.4121 530.11255
1525.6038 533.3237
1522.4802 542.07214
1529.6586 548.01904
1535.9712 540.958
1543.9497 536.4042
1546.4758 527.47424
1547.9274 518.51013
1550.2079 509.5638
1542.669 500.30038
1546.5204 490.5277
1554.2909 502.15887
1564.4619 497.145
1564.7303 508.659
1558.3295 516.2786
1567.0751 521.21643
1574.397 517.0985
1573.9331 530.72577
1582.0697 524.9838
1583.276 515.0476
1576.1433 506.80945
1587.0228 503.576
1593.1984 516.3667
1597.9243 508.50302
1596.8242 498.8575
1604.4785 492.22406
1588.1145 490.9432
1578.1074 494.11914
1575.5227 484.4048
1560.6995 480.98602
1567.7786 472.26172
1568.1453 453.89746
1558.929 450.36212
1554.6624 434.41895
1555.9878 421.44238
1566.9128 419.57318
1578.8881 416.92767
1576.7211 407.5587
1570.2052 399.92145
1567.574 410.64038
1557.8379 408.6745
1561.51 397.12128
1576.0955 393.3862
1567.126 387.18466
1535.4661 369.97827
1572.4602 376.2966
1579.2631 370.53546
1580.0929 362.89636
1587.853 365.30133
1590.6637 358.98706
1596.0726 367.12177
1604.6516 374.20428
1608.9202 386.5689
1600.6377 383.5239
1595.606 377.17065
1589.7787 372.57867
1590.4221 384.32434
1583.5181 378.89868
1577.1665 384.61584
1586.162 391.33484
1583.052 400.4122
1594.1333 400.7845
1586.9675 409.229
1589.8667 418.99585
1584.5256 426.0257
1574.497 426.49155
1564.9346 430.08884
1567.0475 443.0649
1578.3954 438.54407
1588.322 435.7778
1588.3721 444.87787
1580.3828 450.03705
1591.2014 455.4426
1581.9993 462.43018
1591.46 467.19504
1597.848 474.06796
1586.679 478.59274
1596.73 483.85773
1607.4905 478.28925
1618.0166 478.30774
1628.496 471.8377
1618.5809 465.22296
1609.1681 455.25595
1602.5374 463.45483
1598.8376 451.363
1600.4938 439.65906
1594.8217 429.18298
1599.1802 420.4237
1595.9574 411.7462
1602.7355 407.25037
1596.6133 391.52625
1604.0061 396.23303
1613.6006 395.5564
1623.1802 386.1742
1616.4816 378.4055
1619.5177 368.54254
1621.5764 355.72052
1611.1571 339.73758
1600.9274 345.68698
1610.7003 351.7426
1608.3103 361.80615
1603.4011 355.6014
1597.029 354.07507
1590.8651 351.54623
1592.1221 345.53818
1594.741 339.36887
1601.9987 330.4024
1604.8933 321.37195
1607.8967 314.37506
1617.436 317.78323
1617.7323 329.47867
1627.4667 330.03842
1628.0248 343.412
1638.5311 343.61737
1640.4923 352.8927
1650.5948 358.898
1656.0559 348.20062
1671.8655 349.7557
1669.4602 367.14987
1695.5889 383.19696
1673.39 415.81625
1670.177 394.86606
1663.8539 380.15305
1648.1124 381.92026
1648.4661 370.8265
1634.6606 364.6681
1629.7117 374.00266
1635.8414 381.99326
1631.4354 393.30847
1643.6588 393.79523
1654.2802 401.53888
1643.5698 404.25732
1642.2234 414.46375
1634.2805 405.6853
1629.5637 413.4266
1619.6608 412.51984
1623.568 402.4591
1612.6895 406.3513
1621.1064 422.93744
1607.8265 417.9421
1604.0895 427.8381
1610.7252 444.2009
1617.1985 435.73767
1625.6177 441.5227
1634.6462 433.66486
1634.2756 421.50986
1647.883 433.58075
1665.3835 444.22458
1700.317 450.02023
1687.884 466.74753
1683.3049 474.6478
1675.5142 481.58102
1687.8818 484.75986
1694.6333 477.99924
1698.0393 466.42444
1706.6663 459.75302
1709.5226 470.149
1718.571 478.53656
1717.7439 460.80307
1727.4645 457.44342
1716.1908 452.82336
1724.6619 441.01218
1758.9006 436.0208
1769.1345 474.20038
1764.4279 482.98547
1764.4146 490.92673
1757.1621 477.89508
1745.7217 481.40582
1750.7898 490.75348
1740.0571 494.29208
1736.0605 505.0395
1732.7587 515.92535
1742.2787 514.00726
1740.3248 523.34045
1745.296 531.05133
1749.6934 522.78876
1758.9475 523.27527
1768.6074 518.9536
1777.4972 516.55115
1784.676 523.14886
1776.5574 527.7832
1782.8911 535.3274
1776.8867 542.2604
1783.8928 547.8616
1780.68 556.65686
1772.1908 560.56604
1773.2991 550.72754
1771.1716 535.9868
1767.1426 527.88916
1761.5784 534.52264
1753.5367 533.70996
1745.9402 539.7246
1750.794 545.36115
1758.1494 543.41833
1766.625 543.8935
1764.0535 552.7357
1761.871 560.9959
1757.8335 569.1605
1753.1833 578.3786
1754.833 589.0918
1764.0126 584.56006
1763.4072 576.17316
1767.9524 568.6929
1776.8104 570.44556
1783.1682 565.84644
1789.9419 559.49036
1792.7305 551.20953
1802.5532 554.7407
1812.7739 553.7658
1823.0132 552.2257
1817.4366 542.38525
1808.3372 544.1216
1799.334 544.7106
1790.7046 540.6852
1791.5513 529.7306
1793.3624 518.2766
1787.5239 511.49142
1786.561 501.77454
1778.3263 506.07288
1769.0779 507.8292
1761.1792 513.52856
1752.8528 512.29803
1748.2158 502.86365
1759.7842 502.62042
1771.588 498.3822
1779.1643 491.93954
1779.4976 480.8026
1809.8708 468.92282
1809.0023 494.6622
1797.9612 486.53854
1790.9427 492.6783
1797.8438 503.087
1807.4247 508.54895
1801.988 514.9796
1810.6372 522.1251
1801.0021 525.546
1800.0762 535.4953
1809.9167 533.1787
1819.7175 528.73584
1832.7744 509.86853
1835.4407 518.3717
1837.0002 529.4083
1840.9796 537.91925
1834.2637 544.336
1845.3446 546.8539
1844.9081 555.3769
1851.036 563.2666
1841.6501 566.36804
1849.6472 573.444
1849.739 582.42346
1850.5465 591.78046
1849.0687 601.3669
1842.7064 608.97076
1849.0531 619.92615
1838.9309 620.5005
1830.8624 626.36194
1822.7986 622.2222
1830.6139 614.9735
1830.0813 604.2794
1836.415 595.7168
1841.4288 586.952
1837.2079 578.0382
1829.668 585.6888
1824.5736 576.7796
1828.7184 563.5862
1819.5493 563.4307
1816.2773 572.9402
1808.0417 567.3688
1798.873 564.69525
1791.1699 570.32587
1798.4072 576.06573
1807.7777 579.77075
1798.953 586.3024
1789.8499 584.9059
1784.1035 578.1079
1772.8713 579.0067
1774.4065 588.5531
1783.5472 591.9854
1784.3069 601.94763
1793.0713 606.33606
1802.1438 603.5392
1793.6681 595.95135
1804.6215 593.14386
1812.9678 595.62726
1816.2578 585.0887
1823.9896 593.3186
1820.274 601.9564
1820.7787 611.48303
1814.5286 617.6034
1811.3405 606.1837
1806.4668 613.74054
1797.5222 614.7611
1805.0347 622.57263
1796.7045 625.33344
1788.5918 629.6194
1789.0553 620.11053
1785.889 611.9791
1777.0006 609.7667
1774.3157 600.1377
1767.4425 606.54004
1763.7836 596.61615
1758.0918 603.703
1750.597 598.22406
1749.6489 608.3738
1742.602 615.3564
1734.0956 612.11633
1739.9661 604.0951
1742.573 593.7018
1735.024 585.7395
1734.1539 576.20667
1745.8391 585.1766
1743.1626 576.5457
1748.5511 569.1481
1751.8035 561.0912
1754.3284 553.1146
1743.7146 550.1864
1737.5547 543.89905
1737.1437 535.26263
1733.0388 528.865
1728.5272 541.8092
1720.2759 540.70056
1717.1495 531.6289
1720.5486 521.10016
1710.0369 521.9319
1705.2461 512.90845
1714.3181 509.88367
1725.6667 509.99457
1720.5219 501.57068
1729.6558 496.78912
1730.7163 486.9356
1718.5708 491.74597
1706.7441 480.73947
1705.9524 491.87082
1710.4492 500.4741
1701.8081 503.6255
1690.6715 505.02148
1693.9783 492.49167
1683.8191 498.72406
1674.4441 495.46405
1665.7448 490.45282
1666.3208 481.6361
1672.3086 471.15353
1678.8245 464.18344
1667.1085 459.62875
1660.3915 473.00885
1656.6891 465.04123
1648.7915 459.59558
1644.4436 447.0079
1632.0979 449.48822
1622.4636 453.78925
1628.9116 461.59872
1638.0295 457.9629
1639.132 467.65668
1647.4966 471.79108
1649.7023 482.13837
1639.4469 490.45627
1625.3728 487.2052
1617.9381 496.19977
1609.9055 505.81927
1615.2885 514.7246
1618.3687 524.89484
1628.4685 525.6043
1624.4617 516.2707
1621.7847 505.77295
1636.8757 504.14105
1633.8811 513.93726
1639.5466 523.2598
1645.7802 513.644
1647.0028 503.60883
1656.219 506.97992
1654.9819 496.8431
1665.7067 501.19165
1665.7074 510.6733
1656.361 516.3483
1650.5576 523.6916
1656.2047 530.584
1661.5427 538.31323
1651.7344 540.52765
1645.492 532.17847
1635.1283 532.7562
1639.9883 541.07544
1646.9603 549.96136
1657.6389 550.2631
1654.3916 559.41425
1659.3772 568.51935
1653.7457 576.8036
1667.1165 587.89575
1663.998 578.681
1669.375 570.30554
1675.2991 579.16284
1679.6469 570.53925
1687.7668 573.09143
1696.5127 577.0973
1705.4304 579.02277
1704.7858 567.33997
1714.5135 561.94965
1706.4078 556.38696
1697.3549 555.3514
1688.3705 551.0354
1695.1628 565.58136
1685.9152 561.2268
1675.1792 562.0563
1665.169 560.0917
1667.9873 550.9255
1677.5587 553.1803
1680.4468 542.7143
1683.3717 528.7425
1674.0398 533.07825
1665.9164 528.895
1663.7756 520.9873
1675.3206 523.5324
1673.186 515.3029
1676.4641 505.8775
1683.0399 514.3046
1692.806 514.5695
1697.7678 522.90875
1699.3573 534.5645
1704.0933 545.10425
1713.446 549.92786
1723.1049 551.3621
1723.724 560.55963
1733.2045 559.32556
1733.1216 551.03796
1743.0226 558.2481
1739.6912 566.8987
1730.2599 568.2687
1721.6704 570.5233
1713.6033 573.9212
1715.4895 585.2028
1724.8301 580.1781
1724.7375 590.7849
1733.0022 596.46796
1726.6189 604.21796
1725.2122 614.4489
1715.7318 611.6736
1706.8999 608.0588
1713.9689 598.3109
1702.822 598.1227
1706.4177 589.0641
1695.7427 588.60614
1686.7004 583.2777
1678.2808 587.8068
1674.9519 596.3736
1670.7731 604.8329
1664.01 598.09796
1654.8785 595.5261
1655.7861 586.15735
1645.0168 585.16693
1643.717 576.2909
1648.6921 567.7447
1642.8975 559.6061
1636.6008 551.61285
1627.015 550.31104
1630.9988 560.3522
1637.688 568.6801
1634.0471 580.01
1645.7053 594.4669
1637.0455 601.81415
1635.8896 590.6482
1626.1729 586.62866
1628.4712 571.4964
1621.0325 577.119
1615.6005 584.9075
1608.9258 578.8972
1600.95 583.1513
1592.4646 578.7103
1582.58 575.40393
1583.5176 585.518
1573.323 582.5681
1565.8462 574.7982
1554.3146 576.10474
1546.5641 581.27264
1537.6023 585.40564
1535.6204 576.6853
1543.4814 572.1159
1549.4819 565.7351
1549.5461 555.98596
1558.7864 555.35815
1568.109 552.54346
1558.4023 566.28357
1567.013 563.4304
1575.8811 559.6169
1575.3765 570.0092
1591.222 569.621
1596.2466 561.73035
1598.8174 553.1598
1607.3765 561.44604
1601.815 571.3877
1613.2589 569.79297
1621.7479 564.6737
1617.5442 556.7105
1609.2188 550.25476
1618.8431 545.5791
1624.4319 536.08813
1611.0962 537.92896
1601.8181 532.9402
1609.386 527.0307
1604.165 518.2737
1593.1292 525.5049
1584.722 533.92285
1582.9371 542.8805
1595.128 541.29443
1588.5723 552.6382
1584.7261 562.6829
1578.2408 550.652
1569.8242 542.6072
1563.98 533.59357
1556.7509 526.44226
1553.7808 536.5698
1559.6783 544.9052
1548.551 546.0474
1539.155 551.2303
1540.4906 560.7595
1534.2551 567.4192
1529.3584 558.7954
1520.8743 553.2665
1518.6537 563.98865
1525.2944 570.0127
1527.0587 579.3754
1528.5381 589.13574
1540.4264 593.6475
1548.0963 598.7615
1549.4658 589.51263
1559.1603 585.8401
1557.4517 595.84503
1562.9945 603.0293
1572.2563 602.20605
1567.2454 591.7958
1577.042 593.30743
1587.2418 595.81775
1593.4309 588.8959
1597.8037 598.1252
1603.6067 606.0639
1605.927 593.7457
1611.9291 600.7737
1618.4572 594.28174
1627.9604 597.68616
1622.9226 605.5368
1632.3997 610.5385
1630.5566 619.18494
1626.8279 626.3453
1628.332 634.4198
1624.4874 642.44696
1617.8806 633.88696
1610.1504 625.0996
1617.8843 623.9608
1621.1475 615.4292
1613.8376 609.1136
1609.2338 615.83154
1597.0835 613.7334
1599.636 622.7317
1596.7014 630.433
1588.8102 633.65564
1590.6262 622.7255
1581.7289 623.45593
1586.9773 613.37006
1592.3147 605.2772
1582.2222 603.32666
1577.879 611.4958
1567.9856 612.01715
1559.414 612.7257
1552.6857 606.2764
1545.6145 613.3124
1541.0371 604.35376
1530.6221 605.85583
1533.2025 597.6532
1524.3253 598.5474
1520.9069 607.3322
1511.1128 609.13
1506.4243 598.8965
1514.6757 600.24554
1518.5872 592.24365
1518.9274 583.7036
1515.6013 575.26184
1510.2805 588.69006
1498.3967 595.4343
1458.9238 585.5571
1457.817 594.8114
1449.4913 590.18274
1442.44 584.13727
1439.5332 593.16626
1431.217 598.1858
1439.0276 603.9635
1433.9827 612.2027
1441.6088 618.6167
1447.0493 610.71606
1447.9473 599.8445
1456.31 604.07935
1456.7454 613.2936
1454.9333 621.2851
1456.0377 631.0694
1455.4849 642.22144
1454.2517 651.99207
1445.4034 646.8536
1443.3516 657.3956
1438.3322 668.5058
1432.0254 661.9078
1435.3196 650.30804
1431.165 640.44885
1439.4563 638.42163
1447.9697 636.3005
1446.665 626.64526
1437.0287 628.53766
1427.1741 630.9799
1429.3901 621.7278
1422.8862 615.45605
1425.9163 605.80756
1416.9141 601.58356
1422.3037 594.03485
1412.7375 588.89795
1419.9897 584.0399
1425.5631 578.29156
1430.4344 587.90015
1434.7738 579.6053
1436.98 570.83344
1433.9751 562.4276
1443.0808 563.9021
1450.8562 561.5244
1457.7358 559.3552
1453.0481 570.13586
1444.4648 574.4834
1451.812 579.94385
1461.4086 576.12317
1462.7441 566.7629
1463.8403 555.18585
1462.2649 545.0763
1454.1843 550.0795
1453.9827 539.97644
1446.6619 534.311
1438.2845 537.2053
1444.7587 544.7733
1446.0499 554.20276
1437.3784 553.3582
1433.9099 544.5887
1426.2 548.3405
1428.0581 556.2861
1418.331 553.5589
1413.1558 545.87634
1403.3818 544.9464
1397.8053 555.8927
1407.895 555.30444
1414.758 562.12695
1423.1362 563.53357
1428.2223 570.40405
1417.4788 572.3373
1410.4727 578.85034
1408.1957 566.9649
1401.7996 573.5833
1364.1006 572.9997
1370.2296 593.0486
1375.5868 610.6249
1376.0629 624.0717
1373.1912 634.9518
1382.1848 636.6836
1377.7356 644.2117
1384.5669 648.55426
1392.2634 651.26886
1423.6372 646.8761
1425.7329 654.9907
1420.1865 662.4581
1416.0587 672.44604
1427.4495 673.331
1437.654 678.3273
1432.4724 686.54193
1421.7035 683.72675
1410.5977 682.2727
1398.916 686.1828
1401.1572 677.1758
1391.94 669.44476
1384.2715 674.7481
1381.425 664.7342
1386.8282 659.2513
1377.5773 655.3716
1370.387 646.4269
1363.894 641.4072
1353.6179 643.2437
1360.5774 650.11835
1352.4735 654.10077
1360.4102 660.1204
1368.5718 655.08923
1370.5239 663.96387
1376.8036 671.39526
1361.1115 669.2851
1351.2229 664.3451
1345.8601 671.9954
1354.865 675.9343
1346.61 681.48926
1345.1904 689.76874
1345.8379 698.79614
1346.0076 707.36176
1346.4614 715.0906
1356.9917 713.1417
1355.3062 703.6384
1365.6749 707.9362
1368.3606 718.1447
1376.0822 712.33484
1385.9277 718.25793
1377.4972 723.2462
1365.7533 728.31506
1360.5128 722.11444
1352.4001 722.2411
1344.6312 722.4687
1346.3678 729.8269
1345.3564 736.8834
1345.7622 744.6371
1345.2258 751.85126
1344.5774 759.6318
1352.5812 758.8135
1360.4832 759.94617
1363.6224 752.8547
1354.7019 749.87195
1354.3207 740.81006
1355.3915 731.3874
1363.0061 736.72644
1363.7534 745.1642
1369.8127 759.3723
1378.4482 760.3579
1388.9027 761.9431
1398.3411 761.8393
1401.8589 752.95605
1409.315 758.6074
1424.697 757.2228
1418.147 750.1637
1409.5664 746.5666
1400.1713 743.062
1396.8997 733.43884
1389.9329 741.06555
1392.4839 751.3605
1383.4541 753.32294
1381.0046 744.91907
1373.1611 750.7042
1372.0724 740.6657
1373.3644 731.36444
1381.2634 735.48596
1387.1611 729.05115
1394.5447 722.90894
1386.9749 709.21387
1378.3948 703.2255
1370.165 699.4318
1361.7178 696.39465
1353.1744 693.0561
1357.8182 685.78534
1364.6426 679.8252
1369.873 674.15814
1368.6205 688.5456
1377.8815 692.6674
1377.5059 682.25916
1390.8503 680.1981
1387.2769 688.7023
1387.1396 698.6296
1396.9637 695.3615
1396.0864 704.6102
1398.035 713.87445
1406.5933 703.52246
1406.6901 692.56464
1415.7296 694.05664
1425.067 695.9652
1428.489 707.8827
1417.3984 705.55145
1408.8823 714.0043
1420.8313 716.1318
1429.2126 722.52124
1427.8716 733.82996
1419.7524 728.64105
1412.6968 723.57587
1403.5669 724.72504
1407.8724 734.6994
1416.6549 738.644
1424.9247 742.87177
1430.0808 749.9567
1435.5554 756.3588
1443.9646 760.03174
1452.5168 757.8457
1460.9825 760.0641
1469.6506 758.9901
1479.7195 757.78015
1485.0762 750.9372
1491.1423 760.06903
1501.7579 761.91064
1512.3962 761.0454
1520.0997 754.2575
1526.2415 761.91125
1530.7375 753.6384
1538.1649 757.0509
1546.4019 759.61597
1555.2397 755.0453
1564.5835 755.42554
1572.8167 760.0634
1580.5083 758.4497
1587.5806 756.1423
1595.7285 758.0172
1601.8605 753.27167
1609.0125 750.47235
1615.7435 753.6125
1617.6503 746.29144
1622.7896 740.8725
1631.0273 735.5888
1636.315 741.0971
1629.1377 746.4213
1623.0571 752.8718
1629.645 756.18933
1637.8057 757.4834
1646.6221 756.7019
1651.3096 748.9611
1637.9285 749.89734
1644.45 744.3064
1652.075 738.44934
1661.282 738.74335
1660.4192 747.7519
1657.5679 756.69324
1668.3329 754.246
1679.0933 754.24603
1678.782 745.675
1669.9341 743.8323
1668.3972 732.8415
1678.0574 734.9852
1686.1188 740.4348
1689.6566 750.95593
1695.5101 741.9362
1702.6174 749.359
1704.7732 737.90106
1710.9021 726.8136
1717.6228 719.63446
1715.7457 734.90424
1712.6855 745.0695
1724.2341 741.9011
1725.7251 729.38245
1728.5345 717.7969
1721.0038 708.86365
1710.446 710.3051
1704.4457 701.6365
1701.9934 691.9228
1711.1497 686.8585
1713.9631 698.2319
1724.9993 699.53613
1733.3232 705.59143
1744.2515 707.5007
1738.6968 716.65955
1738.2598 728.82635
1735.2104 739.16235
1748.3975 739.532
1761.966 739.9082
1755.185 730.49335
1747.6921 723.209
1753.0928 713.9192
1762.1577 720.671
1768.2435 729.4452
1774.8066 739.3962
1786.5415 739.5167
1798.1456 739.68286
1810.6218 738.37885
1803.6948 729.21875
1810.7751 719.1098
1814.8936 705.8369
1805.4388 698.7003
1805.0487 710.14154
1794.8105 707.892
1792.3066 697.9687
1783.1174 705.66284
1786.0264 716.6247
1797.8486 719.20575
1791.0427 728.4982
1779.49 727.18896
1773.874 715.8767
1763.3728 709.2228
1763.0396 697.3546
1772.363 703.09985
1779.887 694.9066
1771.1807 689.539
1760.5804 687.2526
1766.5901 679.51184
1764.8843 669.858
1756.6826 673.50287
1752.2449 681.8488
1750.8265 691.5719
1753.4213 701.9499
1741.6584 696.5724
1732.55 691.52875
1722.2618 689.4883
1719.2789 679.9773
1722.8619 670.7334
1730.292 679.7669
1740.8707 684.1387
1745.8646 674.52563
1749.5641 665.7486
1741.4071 660.9912
1737.1697 671.82434
1731.7532 664.55444
1724.744 650.14307
1734.1385 653.47064
1740.0717 643.5175
1731.1279 642.34106
1720.9899 640.7717
1717.3418 632.31415
1713.6239 645.9192
1715.9918 654.7922
1724.1132 660.1012
1714.234 664.2305
1704.5325 665.8677
1710.5222 673.84644
1702.7993 680.2566
1693.889 684.3432
1687.0403 677.73145
1677.3359 681.57764
1671.1344 692.11194
1681.3125 698.9203
1682.444 688.6527
1690.7031 693.34973
1693.9087 701.2683
1688.359 709.2819
1698.728 710.61475
1704.3187 719.0022
1692.9557 720.15857
1700.4078 728.7948
1691.6404 732.22253
1684.3237 726.76556
1682.1025 717.4108
1678.6256 708.2399
1670.5181 703.07544
1661.3008 700.13196
1655.9584 692.3039
1662.2693 685.8893
1668.9514 679.72986
1669.2131 670.28864
1678.5155 670.85333
1687.807 667.21735
1696.7781 672.4199
1696.7849 660.7671
1705.9534 655.50793
1704.2178 645.9452
1695.6333 649.6303
1697.3528 639.01355
1686.8917 639.19836
1676.4657 649.08325
1685.537 648.1555
1688.9242 656.98413
1680.6941 659.20984
1672.687 660.5222
1664.9409 657.40125
1667.6521 647.90607
1676.4348 637.96234
1665.2467 638.6316
1657.7205 630.9275
1648.4319 626.7202
1646.5859 636.4508
1655.0764 642.20996
1658.3518 651.77106
1649.7261 652.38855
1643.3396 645.83887
1646.2379 661.8622
1654.5719 662.39734
1661.7552 666.1819
1658.9126 675.42426
1649.2643 672.2163
1650.9993 682.5752
1642.5396 689.16644
1648.7736 699.5371
1643.5945 709.3183
1653.421 708.08496
1653.7476 718.6041
1662.2715 711.64355
1671.418 714.78186
1674.3193 724.74316
1664.1614 722.2763
1657.9062 729.1779
1648.5981 728.04297
1642.3884 734.64667
1637.1672 726.5776
1643.9172 719.50903
1635.2146 715.4948
1626.9663 719.52747
1625.0845 710.57214
1632.9949 705.61584
1639.3896 699.2016
1632.1577 693.37317
1632.1375 684.05383
1622.7347 689.60706
1624.6069 699.95105
1616.1497 706.11584
1616.6863 715.84753
1618.0278 724.7299
1628.3723 727.3039
1622.5175 732.5549
1615.3801 734.96045
1610.8597 742.42786
1602.2087 744.309
1595.177 740.4905
1607.2498 735.685
1600.1069 733.6091
1598.941 725.09924
1609.0369 727.584
1607.3824 719.6245
1606.8975 711.3635
1606.5671 702.1626
1614.8584 696.23267
1612.7178 686.43933
1620.0544 680.20526
1628.0758 676.56323
1640.2781 678.3049
1640.1615 667.6233
1632.4822 669.60376
1623.4222 668.5936
1615.1133 671.09863
1610.1736 676.9098
1603.1641 682.7262
1605.0814 692.43005
1595.4921 687.58777
1588.1212 693.3046
1585.7074 682.9076
1593.937 677.56885
1596.0161 667.23865
1602.3953 673.0559
1606.0164 664.3391
1615.2057 662.0559
1610.7222 654.616
1604.0334 647.8607
1599.4958 656.4852
1589.9661 652.7584
1590.1378 662.10767
1585.9547 672.45825
1578.3826 668.7772
1570.4427 671.29535
1575.1357 679.1386
1578.0486 687.8158
1579.7477 697.43207
1578.9055 706.995
1588.4454 704.0867
1597.0964 697.9403
1597.4479 707.6752
1596.69 716.5232
1586.8289 714.20746
1588.3698 723.6266
1590.574 732.0349
1586.5095 740.6382
1592.5056 748.83594
1581.3832 747.4375
1572.6948 750.4614
1579.957 734.7441
1578.7787 725.58923
1577.2039 716.45306
1568.7583 721.95306
1569.2444 731.9271
1571.956 741.00604
1562.6547 745.3512
1559.1382 735.8137
1559.743 726.0237
1549.6472 728.00244
1552.5161 718.9088
1543.8367 717.3049
1550.6127 709.0486
1540.3715 707.77167
1540.864 698.373
1550.7522 698.9844
1559.9753 705.195
1560.5734 715.2155
1569.0222 711.0805
1570.113 701.6299
1570.4419 692.213
1564.9929 685.0303
1562.9417 676.88715
1555.3494 671.90625
1547.313 665.1444
1545.7743 673.3623
1540.7888 679.724
1552.2219 680.86707
1555.521 689.1291
1561.342 695.81146
1545.6025 689.2479
1536.2701 686.8491
1532.8271 694.2062
1529.8247 702.7446
1524.1445 695.0319
1518.3181 702.0596
1510.4856 709.5893
1509.3792 698.27563
1503.48 690.6903
1497.9209 696.4054
1501.9404 704.96216
1492.1597 702.7239
1492.5918 710.92847
1500.4495 714.6255
1506.5117 720.605
1515.5513 718.56683
1521.0431 710.59485
1525.741 719.4109
1530.7742 710.97406
1534.9783 718.7895
1540.1499 726.81384
1538.8127 736.02234
1547.8822 737.34216
1552.8944 744.7712
1545.7356 750.1095
1537.9985 745.536
1526.5717 746.1413
1529.605 738.2561
1530.5066 728.8764
1521.3152 727.10785
1512.4634 728.3271
1510.0447 737.54803
1520.2072 736.1852
1516.605 745.114
1509.8939 752.8734
1505.2589 745.32074
1500.1353 754.3115
1494.8833 748.35736
1488.3859 741.968
1481.6931 735.3756
1477.1532 743.2859
1472.0374 750.147
1466.0343 740.25696
1461.8965 749.8739
1452.5986 747.654
1443.1296 749.90295
1435.6833 742.5663
1437.5112 732.71234
1439.7695 724.022
1437.139 714.83374
1440.1716 705.73535
1434.2932 697.7904
1442.6495 693.49725
1445.8112 685.1776
1455.196 681.71655
1447.8096 675.2937
1447.9102 666.14795
1455.3118 661.08813
1458.0103 671.2803
1468.3076 673.2304
1464.9448 680.3541
1461.5004 688.38525
1454.0914 693.5195
1449.1412 701.4866
1449.3782 711.61096
1448.837 720.76294
1449.0543 730.3713
1445.4779 739.7538
1456.095 738.60254
1460.124 729.3869
1472.1542 732.8986
1468.7019 724.06726
1458.4213 718.69507
1466.4731 713.74066
1458.2751 706.0681
1464.0829 697.1381
1468.0591 704.33716
1475.6025 707.8367
1475.8868 717.8886
1481.115 725.80164
1490.7683 731.6731
1498.3491 738.6111
1503.1464 730.72656
1497.0676 724.43085
1489.4259 720.33734
1483.6462 712.9271
1483.3689 702.938
1476.0979 697.105
1470.4536 690.18677
1474.4951 683.55566
1477.0371 676.8043
1477.4973 669.1492
1484.4058 664.2041
1485.8627 656.4991
1491.8834 651.121
1490.1305 643.819
1493.9324 636.8216
1495.0906 627.91266
1501.9814 624.6502
1497.3273 616.9499
1500.8925 607.6767
1506.9468 616.81946
1519.2268 616.30115
1521.0105 627.86035
1528.0189 623.4419
1528.044 614.4836
1536.9048 612.50574
1536.8796 620.8305
1545.0195 623.891
1545.314 633.3681
1555.6584 633.9831
1565.8798 633.0554
1554.3135 626.4929
1552.9963 618.0454
1563.3411 622.66174
1573.3098 619.0969
1572.6116 627.72845
1579.5023 633.4749
1573.6215 640.6614
1565.9465 646.5779
1560.633 640.4702
1549.4159 641.6572
1537.2089 638.83264
1535.9755 629.75757
1527.9403 634.2722
1520.6394 639.5805
1529.058 644.1786
1525.2313 652.9043
1517.7124 647.5213
1508.4967 650.6135
1509.8765 641.6305
1514.4495 633.84924
1514.064 622.28687
1508.7214 628.41956
1502.9275 635.2798
1500.1975 645.0064
1500.5267 654.7004
1500.6444 664.10657
1493.1217 660.07117
1492.9398 668.78
1485.4629 673.0127
1485.2751 681.7185
1481.6674 689.2065
1487.9814 694.60986
1493.5598 687.25256
1493.4135 677.9448
1502.0886 681.89105
1501.0612 673.38226
1508.0557 668.8197
1508.8505 660.3438
1516.1272 656.56177
1522.7174 661.84186
1516.4313 668.44666
1519.7395 679.37256
1510.8845 676.87756
1510.8135 685.8913
1516.8503 690.9072
1526.3495 685.83813
1530.9645 677.56445
1525.624 670.53314
1536.8112 669.2823
1531.6012 661.67053
1541.0454 658.914
1534.292 652.4859
1540.3248 646.445
1546.9756 651.01227
1556.5364 648.73224
1552.1965 656.949
1556.8013 663.14124
1564.3232 666.0181
1563.495 655.9431
1572.54 660.37537
1581.9991 660.1853
1572.9867 650.96326
1581.0388 650.60944
1584.5419 642.30286
1594.1555 645.2852
1599.1094 638.6803
1606.3146 631.88043
1609.1437 639.6183
1614.7592 645.76904
1621.8488 651.86
1623.8137 659.78
1632.3792 659.7987
1639.9609 655.252
1632.0479 649.23517
1635.9148 639.8613
1637.8716 629.95123
1640.505 620.0776
1652.7104 617.3151
1642.7255 611.0939
1648.8228 604.3013
1657.366 606.96564
1664.248 612.49915
1662.7607 621.6825
1669.654 628.641
1680.9402 627.9221
1677.0364 616.7516
1687.6061 609.5943
1680.2122 604.90356
1685.7 595.1855
1693.4683 599.94824
1697.877 609.5006
1704.1261 618.41785
1691.5886 620.33606
1691.3562 630.3115
1701.733 628.94336
1708.2798 636.4848
1711.7384 623.9148
1722.6019 623.15173
1727.5093 632.3991
1736.8689 633.1231
1745.851 636.0475
1733.1996 622.8469
1743.0669 625.2954
1752.3687 627.594
1762.0122 630.94434
1761.4008 621.95355
1751.8225 618.3842
1759.8062 612.8155
1769.6635 616.2632
1770.6676 625.94714
1779.0693 619.43384
1780.4827 628.03516
1774.5287 634.4859
1781.8716 637.98035
1789.7737 638.8825
1786.1724 646.96564
1782.6066 654.92535
1776.4963 645.23206
1767.8553 637.4627
1754.5273 636.31836
1751.9514 645.7518
1744.1791 651.2045
1751.9073 656.0577
1759.159 662.44653
1761.3643 652.8911
1760.4004 642.34265
1767.7651 646.5585
1772.6538 654.01025
1769.182 661.8131
1779.0765 663.11426
1773.9268 672.1123
1778.7725 681.6819
1787.2413 687.85254
1791.0994 677.88525
1783.8192 671.9635
1789.9507 664.27203
1792.7441 654.70764
1796.0425 646.14374
1796.6497 635.0724
1804.7065 631.65894
1812.6868 635.644
1813.7759 626.7577
1822.4199 632.45483
1830.5063 637.80896
1839.8705 631.4055
1839.7798 640.9527
1834.2468 648.45984
1825.2117 647.30066
1819.6058 641.64294
1815.5671 652.88403
1811.043 644.8775
1803.4097 641.1425
1804.7031 652.01904
1800.2839 660.08636
1799.0088 669.6477
1809.5402 663.1404
1819.3169 661.87415
1826.6669 656.78546
1835.4954 663.2857
1838.834 673.1907
1850.8839 680.03955
1845.8806 692.2716
1848.6737 703.2536
1852.1288 714.18176
1843.1066 720.5371
1835.8381 712.6267
1836.3871 701.027
1831.9299 691.4415
1837.7859 682.4571
1827.2781 680.56146
1817.2971 682.765
1827.7866 669.15546
1818.2202 671.9127
1808.8932 674.51843
1801.1633 680.02466
1797.896 689.25604
1809.0946 688.465
1819.9905 694.0596
1825.7637 704.65076
1822.683 716.30457
1830.2053 725.7653
1817.178 727.98474
1823.3538 737.06384
1834.9695 739.89685
1840.4678 731.47675
1852.2898 730.6167
1848.3431 741.7195
" />
</g></g></svg>
