<?xml version="1.0" encoding="UTF-8" standalone="no"?>
<!-- Created for Inkscape (http://www.inkscape.org/) -->

<svg
   xmlns:dc="http://purl.org/dc/elements/1.1/"
   xmlns:cc="http://creativecommons.org/ns#"
   xmlns:rdf="http://www.w3.org/1999/02/22-rdf-syntax-ns#"
   xmlns:svg="http://www.w3.org/2000/svg"
   xmlns="http://www.w3.org/2000/svg"
   xmlns:sodipodi="http://sodipodi.sourceforge.net/DTD/sodipodi-0.dtd"
   xmlns:inkscape="http://www.inkscape.org/namespaces/inkscape"
   width="3200"
   height="800"
   id="svg2985"
   version="1.1"
   inkscape:version="0.48.1 r9760">
  <defs
     id="defs2987" />
  <sodipodi:namedview
     id="base"
     pagecolor="#ffffff"
     bordercolor="#666666"
     borderopacity="1.0"
     inkscape:pageopacity="0.0"
     inkscape:pageshadow="2"
     inkscape:zoom="0.35"
     inkscape:cx="1600"
     inkscape:cy="400"
     inkscape:document-units="px"
     inkscape:current-layer="layer1"
     showgrid="false"  />
  <metadata
     id="metadata2990">
    <rdf:RDF>
      <cc:Work
         rdf:about="">
        <dc:format>image/svg+xml</dc:format>
        <dc:type
           rdf:resource="http://purl.org/dc/dcmitype/StillImage" />
        <dc:title />
      </cc:Work>
    </rdf:RDF>
  </metadata>
  <g
     inkscape:label="Layer 1"
     inkscape:groupmode="layer"
     id="layer1"> 
     <g>
<path style="fill:none;stroke:black;stroke-width:2px;stroke-linejoin:round;stroke-linecap:round;" d="M 
1506.2274 407.16
1504.6772 400.97504
1510.6975 402.53247
1516.0288 401.89523
1521.6606 404.2634
1525.5232 410.63055
1528.377 417.94586
1535.0815 417.35556
1540.1799 415.16382
1544.4143 411.3526
1549.9336 409.18658
1556.3964 411.01562
1560.4734 414.87732
1565.3274 409.04816
1561.2749 404.8709
1563.9683 399.9824
1561.8522 393.78525
1569.929 396.59274
1570.0518 390.1073
1573.0405 383.61032
1565.7534 382.93634
1570.5737 377.2411
1577.2812 377.72482
1580.9833 383.0631
1577.7612 388.5818
1578.7648 394.25998
1576.2017 398.9599
1572.733 404.1565
1579.6609 405.24835
1584.06 401.5493
1584.7756 395.55768
1584.5565 388.93454
1590.417 386.5179
1594.7225 389.68994
1590.2697 392.8448
1590.5016 398.47882
1589.9556 404.19846
1591.644 409.1135
1596.7732 406.75867
1595.9763 400.77487
1596.6816 395.04395
1602.0742 397.60284
1602.2 392.26788
1599.6594 388.52832
1596.8712 384.13275
1598.105 378.5879
1600.9789 374.58557
1603.38 370.3664
1608.5529 367.42664
1608.4396 374.91498
1613.5553 371.86414
1619.6289 369.12778
1614.9863 364.6867
1608.7987 360.73816
1601.5067 364.8106
1596.3313 370.65842
1593.5212 364.61285
1586.2823 366.17072
1589.4133 370.97473
1591.9783 375.6557
1592.8414 380.8188
1587.356 381.93665
1584.6954 377.16953
1582.7693 371.96774
1576.5305 370.43658
1570.1501 370.26904
1564.5795 374.3412
1568.1178 363.05627
1573.4373 362.1666
1579.3113 364.01254
1576.6519 354.7724
1568.7253 354.8105
1561.9547 352.9408
1563.2487 358.81317
1562.8275 366.96738
1557.8994 370.54065
1551.594 370.67197
1559.9257 377.7055
1556.5776 382.33603
1552.7769 376.64572
1549.6824 383.13782
1543.314 386.42523
1537.9305 382.32532
1532.404 378.53537
1526.4045 379.41205
1522.2275 374.90305
1515.9762 376.9249
1519.4006 381.85028
1524.6028 385.83997
1531.3812 385.39807
1536.7744 389.35678
1541.6587 393.4377
1546.9053 396.66864
1548.3729 390.32343
1554.3724 387.87146
1561.0819 387.72998
1554.2119 393.69
1556.3334 398.9928
1555.1543 405.11557
1550.3297 401.76913
1544.2773 403.95236
1538.4958 407.93503
1532.4366 411.27942
1532.3877 404.42075
1528.4658 399.3302
1539.3169 400.5725
1534.9866 396.6124
1530.2216 392.23883
1523.68 391.94873
1521.4442 397.20334
1517.7552 388.62537
1515.4215 394.9775
1509.3347 395.19882
1511.1384 388.90012
1513.02 383.18832
1509.7546 377.70517
1506.1284 382.50522
1504.8872 388.5597
1502.7289 393.98346
1498.8105 390.34503
1495.6951 395.0999
1499.6843 398.66034
1495.3326 400.7456
1490.416 402.15427
1493.0132 407.34064
1499.7959 406.80475
1495.6686 413.31982
1491.125 417.28256
1488.2505 411.25754
1483.8123 414.90277
1477.698 412.71948
1469.9539 417.10126
1460.7095 418.7547
1460.2539 429.37347
1455.0569 442.17346
1470.5336 442.6831
1478.8198 430.37085
1481.0837 420.8156
1495.6394 427.67755
1492.3347 441.54648
1492.5786 456.64133
1506.9478 444.30817
1505.3569 431.57965
1506.356 421.31635
1503.271 415.51266
1510.4941 412.09787
1518.0449 409.58295
1518.3248 417.08392
1516.0193 423.36594
1519.3959 430.27832
1527.7622 426.34088
1533.4291 423.39203
1540.2388 423.98752
1546.4248 421.2269
1551.8464 416.75806
1557.8999 422.45715
1551.0646 429.24792
1543.8729 434.5897
1536.7205 430.8125
1529.7346 434.0761
1538.1355 441.54205
1547.7588 442.328
1554.7709 438.1244
1559.1318 431.02634
1567.5483 428.12692
1567.5669 417.95343
1574.5977 411.4939
1581.053 415.75464
1584.4175 409.64523
1589.6506 413.83746
1586.2386 418.4703
1584.4817 424.87677
1590.1057 423.46796
1593.4211 418.5794
1596.789 413.37708
1603.3528 415.49084
1599.1787 419.70557
1604.6155 422.0012
1601.8513 426.8055
1595.8152 425.11182
1596.8892 431.667
1590.2959 429.66675
1585.6187 433.8142
1591.9946 436.66034
1595.9009 441.76474
1585.7317 440.69443
1589.7455 444.73288
1588.6931 451.39474
1595.7157 448.62128
1601.3517 452.3691
1594.9796 455.93896
1588.583 459.71625
1589.7076 467.57617
1596.0026 463.4123
1602.0933 468.37277
1596.3248 472.03284
1590.5264 475.76056
1590.8218 483.10303
1592.4049 489.9111
1599.0078 489.8423
1602.2203 495.49472
1593.7802 497.50037
1596.8038 503.91098
1591.4133 506.6152
1595.773 512.1626
1594.0382 518.238
1599.3862 520.24
1594.89 528.2612
1600.755 529.897
1594.9535 536.9397
1599.5771 544.228
1604.7141 536.6998
1607.5056 529.7747
1609.1893 541.47534
1609.7826 552.7969
1611.9092 560.12415
1603.8387 559.66235
1596.3273 567.4944
1601.9315 575.33826
1605.938 568.26373
1613.012 567.5204
1610.8556 574.8941
1615.8777 587.01044
1610.7491 595.7543
1600.335 597.4906
1606.7524 605.5778
1607.8999 622.7916
1611.9766 631.76984
1602.2255 632.07806
1608.1514 644.6144
1608.532 653.2667
1604.6741 659.54456
1602.7418 666.5513
1612.1544 662.6561
1617.556 666.37646
1617.3121 673.48773
1609.5592 674.51624
1615.3445 683.4623
1606.5831 691.64966
1606.3418 701.3667
1607.9708 708.96326
1609.7916 716.69476
1609.8503 727.54333
1606.2496 735.6422
1609.3843 745.1472
1618.4159 761.0487
1617.941 768.6052
1610.2642 764.39514
1610.1632 771.7422
1611.8337 778.9592
1612.2534 789.24725
1618.9553 789.00256
1625.4478 788.5161
1631.1838 788.7182
1630.0826 782.8037
1629.973 776.7917
1623.3741 781.2768
1616.922 783.66846
1617.2175 776.0949
1623.2844 773.37256
1629.0168 769.73413
1624.2792 765.69336
1628.6868 761.49
1625.6499 756.2533
1628.1476 750.39185
1619.8428 749.1083
1618.6404 741.85004
1613.9572 735.8325
1620.2089 732.86597
1627.0017 743.7028
1626.7892 736.37244
1626.3204 727.3744
1617.6803 724.51306
1625.2432 719.5808
1625.2863 711.02435
1617.1378 711.3645
1623.083 703.83887
1615.1638 699.5985
1616.4258 690.9248
1623.8667 696.64087
1624.3518 688.58435
1622.7903 681.1111
1623.5255 673.97986
1624.3541 666.64087
1622.251 659.8773
1615.7927 655.6012
1622.0253 652.003
1618.8033 645.7444
1619.5183 638.3103
1620.741 629.3452
1618.1154 620.02747
1617.8074 610.8034
1618.2477 602.41846
1619.8885 594.1582
1616.5707 580.31195
1619.2316 572.92065
1618.6196 564.3816
1617.6693 556.19226
1615.4681 547.3997
1615.5078 539.6085
1614.2195 532.9055
1613.159 526.1919
1612.3381 520.482
1612.7532 514.96594
1605.307 523.2592
1605.5527 516.53015
1601.9006 510.27094
1608.134 510.53528
1613.969 508.8275
1613.0546 502.57385
1607.6863 504.3247
1602.3776 502.26886
1609.4329 497.00742
1610.314 490.34662
1610.0686 481.8238
1604.7183 486.19882
1597.9016 481.8885
1602.4164 476.97247
1608.9104 474.5891
1608.2794 467.05762
1608.9662 459.86176
1602.402 460.144
1607.6835 453.21393
1607.4774 446.05307
1601.9961 444.24884
1600.4265 437.37506
1607.8362 438.094
1604.053 432.4408
1609.1903 429.60165
1609.864 422.58276
1615.4065 423.50388
1617.1246 431.24667
1616.6653 441.74176
1620.146 449.72552
1621.9553 438.8316
1636.2677 439.0598
1647.7341 438.93567
1643.7257 428.365
1652.7665 429.21875
1654.2805 414.62103
1644.1926 417.68872
1643.2645 409.5576
1636.7638 406.87875
1627.7522 411.73312
1629.5541 420.67676
1635.6088 415.08417
1637.925 421.93787
1635.5549 429.37952
1626.1199 429.83398
1622.2505 424.32883
1621.912 417.79547
1615.5309 416.85986
1609.6637 416.52
1608.2501 411.23105
1601.8274 410.0052
1605.556 406.27112
1601.147 403.17404
1606.7086 400.95258
1611.0405 405.71664
1612.3446 400.1466
1617.5479 398.34363
1617.1272 404.78552
1614.2717 410.6694
1620.0813 411.52417
1623.2843 406.32324
1628.2567 402.6091
1633.4156 398.0979
1631.5356 391.29196
1626.7493 395.43848
1622.5736 399.92395
1620.7972 392.3631
1625.5902 387.96582
1620.7175 383.40033
1615.4482 387.90683
1614.4028 393.58844
1608.4905 395.48376
1607.6532 388.2352
1603.0013 384.41327
1604.3889 379.09198
1608.9633 382.466
1613.5806 379.88348
1618.242 375.94968
1624.0562 376.82507
1628.519 381.61066
1633.5063 385.53415
1639.949 388.31516
1638.0118 393.88568
1644.8369 395.608
1640.7137 401.2959
1649.2004 402.57874
1659.0905 398.53912
1652.6895 393.37103
1647.755 388.53024
1643.5474 383.16498
1638.3037 381.16254
1642.2078 373.0719
1642.769 364.6528
1637.3253 361.4979
1642.5142 355.61066
1644.1293 347.587
1645.9338 341.02533
1650.6321 350.5113
1653.4889 358.83627
1661.3331 351.10925
1665.4468 344.70798
1653.9744 344.5196
1660.0339 340.14648
1664.8674 335.32794
1670.6947 337.9239
1672.3477 346.53058
1669.7468 354.6306
1673.6361 361.88507
1682.2593 359.70258
1687.2423 353.15707
1677.9082 352.66757
1682.1544 346.57544
1676.9927 341.35425
1682.4731 337.8
1690.1196 346.5649
1691.8477 360.88245
1700.842 365.46198
1700.0884 356.78265
1695.1576 351.22214
1688.3838 341.0639
1688.9065 335.06305
1690.6077 329.406
1689.3682 323.6095
1696.791 326.07864
1703.0974 330.51358
1696.967 334.334
1703.3761 338.7613
1696.7512 342.48117
1701.7314 348.61932
1706.9971 344.61792
1712.953 346.82553
1714.8651 353.65204
1707.9419 353.0645
1708.075 361.00098
1713.8223 360.66977
1710.4072 369.91833
1723.4409 373.51743
1730.8298 373.66953
1727.6008 382.33237
1734.9708 390.50568
1739.9403 405.8153
1741.4939 396.0875
1742.9899 385.26596
1737.1621 379.29565
1736.7212 370.3963
1732.3727 364.28186
1726.6895 366.52594
1720.6066 366.27646
1720.3948 359.5195
1721.462 353.1572
1719.8628 347.3364
1717.456 341.2426
1723.8374 341.54236
1727.4609 347.2395
1727.1566 352.87433
1727.1039 359.29697
1737.1682 360.37408
1732.6893 354.9432
1734.7466 345.27338
1730.261 340.6646
1728.262 334.76096
1725.6462 328.59448
1717.1442 329.9472
1719.9921 335.27893
1711.9528 338.80035
1709.5076 333.38037
1710.254 326.6964
1704.1458 322.98895
1704.4171 315.15704
1698.3121 318.60956
1692.5636 318.25223
1685.3872 317.58932
1682.3433 312.09302
1678.008 318.4145
1675.4832 312.2467
1677.7727 306.84552
1672.2606 303.60425
1672.1648 296.6897
1671.0344 289.5696
1661.8301 286.84512
1657.2473 291.66968
1651.5272 293.28546
1652.6434 299.78378
1658.8171 298.32916
1663.6147 294.41602
1665.6195 300.9209
1663.8503 307.4513
1669.4166 309.55878
1670.302 315.98605
1665.7028 320.9463
1671.9988 322.27393
1677.0923 326.2334
1682.8374 323.7077
1683.1997 330.44995
1676.7374 333.51163
1671.0547 329.73605
1665.5436 327.44415
1660.2394 330.05347
1654.8014 331.10062
1653.5483 337.03314
1647.3312 334.39343
1640.0583 335.46182
1642.9541 329.75003
1649.0137 327.52576
1654.0706 324.1668
1654.2837 317.14752
1659.646 321.59845
1663.1279 314.66635
1657.3788 311.58972
1658.2673 304.64032
1651.8513 307.0963
1646.7485 302.33362
1643.9475 308.7232
1648.7448 313.1302
1647.7034 319.86575
1642.7683 323.32224
1641.0635 315.43054
1636.0054 309.67993
1640.0604 303.42978
1634.2454 301.7916
1636.3427 294.546
1644.006 295.66415
1647.5098 286.63318
1639.6262 287.8964
1639.8303 280.11053
1631.955 281.46957
1631.9742 273.91315
1622.4124 275.4343
1615.4548 279.4535
1609.5437 283.01056
1607.5747 290.0862
1599.1162 291.61984
1590.7422 290.50104
1584.6282 288.6179
1578.935 285.51776
1580.5005 277.37564
1587.8242 279.1415
1584.6426 269.6771
1586.5103 261.8625
1593.5898 267.42487
1597.6687 260.538
1604.1267 260.68774
1604.37 268.03513
1598.8077 274.0844
1599.268 282.641
1607.293 275.8966
1614.1616 270.41754
1612.4441 262.04025
1612.597 253.36206
1607.8032 253.99902
1602.2903 252.8584
1599.0637 246.98752
1605.2418 245.46959
1607.5183 234.87158
1607.3452 227.11072
1614.2424 231.28915
1619.6667 231.44444
1624.1089 233.62401
1620.833 239.15222
1615.9078 245.02348
1623.2045 247.62057
1632.061 247.02539
1639.5333 248.16531
1646.1919 247.06865
1648.4178 253.70206
1653.1338 248.7818
1658.3927 245.72179
1661.7009 250.50204
1655.9229 254.658
1655.2161 261.24863
1648.8745 261.067
1641.4568 256.3689
1628.5175 255.84978
1628.5696 264.98306
1637.9832 268.92493
1645.095 273.25333
1650.5808 278.82535
1654.7028 284.79352
1659.364 280.0932
1659.2407 273.52838
1665.8741 275.7719
1667.9996 282.49066
1675.7515 276.9613
1681.156 277.8913
1684.604 282.89227
1691.7007 280.31482
1689.6211 287.1642
1694.5276 290.56708
1697.5286 284.26678
1702.8983 287.87497
1704.5283 293.769
1709.1604 298.75516
1702.1289 299.69165
1698.1094 294.63464
1686.6532 300.31174
1686.2607 306.96042
1690.4038 312.23407
1693.2695 305.70343
1698.0427 311.08484
1706.0282 305.32947
1711.9248 305.01123
1711.1057 311.61188
1711.3735 318.3269
1716.2986 323.09094
1722.0225 321.87994
1718.6494 315.279
1717.7811 308.7083
1722.79 303.6635
1725.6862 308.578
1727.2861 314.9768
1729.103 320.84857
1732.332 325.08682
1734.3804 331.2683
1736.1044 337.2231
1742.0093 340.4878
1753.849 333.8081
1754.2484 325.9525
1745.8843 319.82336
1746.7753 326.82608
1742.5427 332.45612
1738.3683 324.9396
1736.7935 317.38132
1732.6705 310.75732
1737.8662 307.64154
1743.4119 305.31454
1744.9839 312.42584
1749.5984 308.17117
1752.0685 313.41174
1751.9557 319.39825
1761.8544 311.98862
1756.3342 307.03778
1767.116 297.04248
1758.702 290.05884
1753.065 283.06403
1747.5109 289.29974
1751.0713 294.15955
1756.6001 298.31256
1750.801 301.10287
1744.7275 297.51428
1741.4019 292.75046
1736.5728 289.64264
1732.944 285.8169
1729.973 291.65524
1734.7784 295.92432
1738.0975 300.87772
1731.1152 303.2274
1728.161 297.7777
1722.9929 293.56
1721.7654 298.54724
1715.9414 300.2234
1716.156 293.70444
1710.4316 292.0053
1708.9746 285.4269
1714.8428 286.02316
1719.4514 288.49664
1724.7034 288.5657
1727.7792 285.21252
1726.6685 280.49854
1721.0529 282.61554
1715.4714 279.8393
1709.9543 278.67282
1703.7134 280.1387
1698.2036 276.63303
1692.7778 271.9847
1686.7982 275.29187
1679.7588 271.14746
1685.2183 268.18546
1690.2795 264.18787
1684.8029 258.65866
1688.6273 251.41618
1693.6168 256.84363
1696.555 265.13693
1701.3716 270.19373
1706.8518 273.0243
1713.1594 271.95483
1718.6031 275.30014
1723.429 276.9249
1728.9932 274.49695
1732.1305 279.6322
1737.1064 281.61877
1741.3572 285.7713
1746.1506 282.42273
1746.4391 275.97183
1740.8003 277.68335
1740.1382 271.08688
1734.9744 273.77722
1729.8662 268.23798
1735.606 266.0622
1737.5126 259.2669
1744.8362 264.4126
1756.147 268.61108
1750.4758 260.30725
1752.8381 246.47073
1751.3207 235.86272
1742.8445 244.39273
1740.821 252.16588
1733.901 253.29892
1726.5259 253.64258
1730.0323 260.9588
1722.9613 259.35074
1723.561 265.18256
1724.095 271.11316
1718.4888 269.3354
1715.9092 264.434
1716.634 258.39587
1719.4019 253.28929
1711.918 251.43869
1719.4194 246.57744
1727.3057 245.87506
1736.3965 246.05258
1735.05 237.67412
1738.749 232.28839
1744.7657 227.8527
1752.1755 228.36156
1749.7441 221.29443
1746.3389 217.58128
1745.6813 212.11203
1742.507 206.10721
1735.1803 204.46075
1736.3464 213.17668
1729.5809 210.39427
1727.5054 204.69461
1722.587 209.09027
1722.9968 215.56444
1728.893 217.0042
1733.8552 219.76541
1737.269 224.91156
1733.9467 228.49083
1731.0309 232.64983
1728.49 238.24309
1725.4065 232.22101
1728.2007 225.8322
1723.175 222.06476
1718.5953 226.15665
1720.0289 231.44601
1721.793 238.7277
1712.3506 242.09221
1705.0059 246.10312
1705.7322 256.16287
1710.6948 259.5747
1708.8391 265.93417
1702.3816 262.02017
1698.7714 253.7266
1695.2814 245.79057
1689.1656 243.5919
1693.4208 237.59555
1685.1465 237.50308
1680.823 244.45929
1680.0356 251.1305
1675.9214 256.58353
1677.9705 264.3137
1673.153 270.62573
1669.1136 265.3401
1659.2095 266.24014
1662.2612 258.78403
1670.9187 248.913
1673.8257 242.35477
1677.8639 237.75952
1677.4761 231.36508
1683.9636 231.68706
1693.2817 229.46786
1687.8602 225.33537
1682.23 220.98497
1676.561 217.81528
1670.4829 214.8502
1665.8992 210.22495
1660.3837 205.49596
1665.7922 202.01085
1672.3628 202.97125
1674.8618 209.52048
1681.3325 212.0257
1687.3501 212.62149
1688.9143 218.22343
1694.6005 221.39249
1699.6642 231.46341
1702.0156 238.73483
1707.3606 233.1911
1714.4119 234.42638
1712.8079 226.52922
1710.4103 221.3559
1705.9894 224.72293
1700.5496 223.09457
1705.5824 217.32431
1709.5192 210.38951
1711.6172 215.95966
1716.859 219.91856
1716.9421 212.96977
1716.0619 206.66663
1716.1599 199.51572
1721.7881 202.0991
1729.386 198.90305
1723.2831 195.23956
1715.823 192.74643
1709.936 195.56834
1707.874 188.46826
1699.5465 187.67363
1702.8011 193.58653
1704.5231 199.97685
1710.4996 202.9899
1704.8254 206.29315
1701.7488 211.75015
1699.5991 217.37224
1694.6019 214.42029
1692.5422 208.47018
1698.2866 205.68832
1698.1722 199.19952
1694.2368 193.9273
1691.2075 188.71158
1683.1852 189.6576
1685.9277 196.3949
1691.646 201.13133
1686.2787 205.27878
1680.0757 203.70111
1677.8623 196.76958
1674.919 190.46983
1669.3584 195.05699
1661.2668 196.20158
1659.4894 187.34839
1660.0101 179.59386
1663.3611 174.28754
1657.7921 170.22876
1654.0171 175.8204
1647.7607 178.9729
1653.1038 183.19041
1647.549 185.86969
1645.0123 191.93881
1641.7417 197.18887
1647.4404 204.12706
1649.8938 197.22661
1652.7286 191.2606
1654.8085 202.38354
1655.6725 212.18216
1657.0869 218.05502
1652.1438 222.50653
1653.3223 229.09154
1658.0762 224.3197
1660.2468 229.62517
1665.9038 228.64514
1672.0588 229.37982
1669.8773 235.84576
1664.2819 235.64769
1665.872 242.96538
1658.6609 239.75793
1652.7808 241.80151
1656.0417 234.52965
1650.0435 234.38477
1647.5994 239.31244
1642.8407 240.60269
1643.343 232.23917
1647.5411 227.26654
1643.3618 223.67331
1647.8956 218.87555
1648.3738 212.54031
1642.1716 215.78098
1641.8748 209.02817
1640.9417 202.78874
1635.9988 205.81769
1634.9916 198.6082
1627.3881 197.25584
1627.6255 205.86266
1632.0078 214.3193
1625.1787 212.57396
1619.1895 218.39612
1626.2878 220.46646
1624.377 226.49858
1618.7753 225.43854
1611.5946 220.66185
1612.828 213.84439
1618.1985 212.3247
1614.2471 205.58453
1619.1576 206.61566
1621.9778 201.21951
1619.4294 195.85918
1614.5583 198.76677
1607.231 199.07846
1609.856 193.27347
1603.4702 190.62589
1604.5428 183.70312
1609.7799 186.37335
1615.1682 189.5629
1621.2208 182.71562
1626.5564 186.37645
1627.5767 178.49014
1632.1005 182.74802
1637.826 191.8606
1640.8647 185.2465
1636.3907 176.7476
1643.6438 172.71216
1650.6614 167.06558
1657.6113 160.0069
1663.2732 165.0947
1668.9031 169.7326
1674.3193 163.5144
1677.9183 157.13907
1677.3073 149.45108
1682.1895 151.0033
1683.1365 144.19275
1684.6272 137.21297
1678.252 133.82613
1671.606 136.07178
1672.4731 141.29532
1668.3898 147.45535
1667.965 158.21515
1663.4442 153.01065
1655.3679 144.14468
1664.3848 141.30998
1665.3168 135.58777
1660.0262 138.31828
1655.5061 137.16531
1652.4368 132.28911
1645.1953 137.11383
1650.9153 139.6169
1649.0509 144.81198
1648.333 150.10117
1643.9316 154.3069
1638.4407 158.92078
1630.646 157.84332
1628.824 164.71085
1635.2633 165.74062
1629.7291 171.70679
1621.7954 175.92615
1622.3505 170.10284
1621.4509 162.55148
1614.6727 166.83733
1609.5958 169.96085
1615.315 174.69199
1612.2803 180.5283
1607.1565 176.49585
1602.4696 170.87454
1595.1593 172.06377
1597.2567 178.06638
1592.5282 181.17807
1596.9562 186.68643
1595.2332 192.98515
1600.6373 196.71202
1601.8237 202.09593
1605.2351 206.63345
1606.1891 212.77481
1603.626 219.52068
1596.6622 221.60223
1589.7433 225.34225
1592.5605 233.43192
1600.1277 232.10284
1599.5985 239.38773
1593.4824 242.11845
1587.9812 238.4165
1581.8843 238.9791
1574.3702 238.79205
1579.3467 245.0238
1583.8477 250.9274
1587.16 245.71469
1593.575 250.44876
1589.2933 255.06389
1582.4663 257.24878
1576.4048 257.47662
1577.4513 251.61581
1572.9735 247.65996
1569.7433 242.85002
1566.4861 237.69974
1569.2319 232.52353
1575.9615 232.08665
1582.7627 230.78091
1579.533 224.72137
1580.6892 217.94757
1589.6228 215.2291
1598.8033 213.13751
1596.4407 206.59619
1591.7803 200.75699
1587.8618 194.64908
1580.9431 196.07976
1583.1975 189.34898
1589.8127 187.81717
1585.9908 182.58958
1581.4232 178.13626
1587.3923 176.09813
1582.7012 171.5698
1577.2815 173.14659
1572.7048 170.53603
1570.827 165.33105
1565.5547 166.93205
1560.9647 169.69646
1555.5356 168.49481
1549.9766 167.15503
1547.1545 162.78302
1544.1825 158.52179
1544.3682 152.94594
1540.7231 149.05092
1536.2129 146.38477
1535.452 140.36336
1541.3889 141.09377
1545.5664 145.46387
1549.4183 150.94052
1554.7717 149.89352
1560.3503 150.3534
1556.4551 156.0222
1550.1093 156.90059
1553.7731 161.87547
1559.9773 162.52985
1566.1719 161.20999
1562.2317 156.35754
1568.1453 155.72142
1566.4937 150.27348
1571.8514 146.90689
1572.5896 140.0354
1567.2466 141.36548
1563.6011 145.05875
1557.8134 144.26083
1551.0007 144.76862
1553.8645 139.94003
1547.6262 138.05019
1553.7966 133.97885
1553.4763 127.3586
1555.6936 120.37057
1550.6917 115.8952
1542.2491 117.925446
1547.3933 122.91365
1547.2483 130.1788
1542.3518 133.98753
1540.1282 126.7032
1535.5581 121.70186
1535.1407 115.22469
1538.2007 109.53911
1545.6025 110.89252
1542.2771 103.84192
1549.0969 103.03869
1555.9786 101.92139
1553.7246 108.99916
1559.7849 113.43402
1559.9563 126.10073
1560.5911 132.20096
1560.7689 138.48767
1567.1361 134.80048
1573.7626 133.56505
1578.7043 141.73634
1586.2347 140.82648
1587.6125 148.08598
1580.3071 149.24521
1574.513 153.43549
1573.613 160.08875
1576.9225 165.23056
1581.93 164.66531
1580.4387 157.62257
1589.2192 155.37503
1588.8853 162.54893
1588.6194 169.34784
1597.2627 164.78018
1598.6577 158.23631
1605.75 163.05634
1612.309 159.25172
1607.015 154.20103
1608.4128 146.80602
1614.3107 151.06265
1618.2205 144.68369
1624.4951 138.5881
1627.4996 144.46375
1624.167 150.70189
1621.2622 156.0286
1632.328 150.75658
1639.0996 150.93738
1642.6796 144.31912
1635.8906 142.96867
1631.8666 136.35384
1630.3455 126.33419
1638.9259 124.84607
1638.457 134.33398
1644.5695 129.76183
1648.729 124.62297
1655.9598 126.44689
1659.8132 131.7952
1663.6461 126.53427
1666.7542 130.17363
1671.6167 130.48843
1675.0408 127.09007
1669.42 122.75655
1661.4537 122.06877
1654.6534 119.58353
1648.3848 116.92816
1638.6726 116.92793
1628.0355 117.34233
1621.7533 124.55743
1626.2405 130.79607
1619.5431 131.53166
1616.0544 136.69849
1611.1997 140.40375
1593.8826 137.89368
1584.0764 132.86295
1589.8281 126.22574
1580.673 126.156815
1573.2524 127.38045
1582.6067 118.015884
1573.939 114.50499
1571.5376 121.37283
1566.8145 127.7502
1563.4236 120.85296
1566.5348 115.5318
1567.8634 108.93948
1561.9363 105.49687
1561.0461 96.70145
1552.9692 94.95636
1543.77 96.43623
1533.8116 101.038475
1524.3643 105.49783
1524.3794 98.51396
1515.3413 99.21886
1506.5967 103.25932
1508.2037 110.10295
1504.5356 116.63454
1499.7529 111.81027
1498.1516 105.79593
1490.1486 105.0587
1486.291 115.07101
1491.6729 122.566574
1496.2928 117.99148
1501.4043 124.428734
1507.4833 127.94186
1509.0581 120.1689
1514.46 122.07259
1514.8357 114.52127
1516.182 106.86709
1522.3586 112.14489
1521.0872 119.00546
1530.423 109.65981
1528.1172 117.38036
1530.145 124.49258
1532.8728 130.11519
1536.642 134.40588
1529.7898 137.59738
1526.2266 131.89697
1524.6526 125.30493
1519.2764 125.84689
1513.9454 128.71892
1519.4845 132.56473
1522.9319 138.14761
1525.4886 143.94003
1530.8517 144.61176
1523.001 150.2148
1529.3644 150.61392
1535.0547 152.47446
1538.8524 156.60892
1540.5327 163.71921
1544.1312 168.66986
1537.3385 169.74025
1531.897 175.40088
1532.4285 166.31255
1535.1985 161.64014
1531.2523 157.85056
1525.921 155.96043
1520.9082 158.25427
1526.0657 163.102
1518.2537 164.2833
1514.6543 158.50676
1508.877 159.42749
1506.562 164.53851
1512.1141 166.58917
1515.3824 172.2511
1509.022 174.10777
1503.9912 169.89612
1501.8383 176.63889
1495.2194 177.21727
1495.1401 170.46913
1488.8011 172.0814
1488.6738 179.97818
1495.6343 183.1381
1502.2661 185.2235
1504.6826 191.04999
1510.2396 187.48979
1507.2278 180.97533
1513.8514 180.26636
1519.8318 176.27695
1521.685 169.3143
1528.1714 169.58752
1525.6771 175.00554
1527.0972 181.3403
1533.8257 181.884
1540.6676 181.13237
1544.0476 176.09067
1549.5092 173.08972
1549.6356 179.61284
1551.6348 184.83383
1545.6492 186.86961
1549.9392 192.17259
1551.0977 198.60287
1545.0293 199.57184
1541.802 205.4661
1538.6798 198.72614
1543.0383 193.42111
1537.9587 188.4353
1530.4923 187.9478
1533.5125 193.60735
1526.7161 194.99931
1521.1711 192.4986
1524.291 187.53087
1520.3126 182.58105
1516.6907 187.42355
1514.8625 193.48248
1509.1212 195.47905
1513.5481 200.03185
1512.4651 205.66649
1511.1345 210.96155
1513.1116 216.18832
1515.0884 221.43198
1520.7949 217.99307
1527.4912 217.34729
1525.171 223.76575
1530.2231 227.29436
1532.6736 221.41699
1536.1833 216.6187
1531.3131 212.45276
1524.2102 210.96489
1517.834 211.72128
1519.0652 205.43187
1519.9219 198.56339
1524.6667 202.55176
1529.0183 206.69
1530.8207 199.91943
1534.8279 204.82013
1537.1903 210.12918
1542.0239 213.715
1546.6893 210.36864
1548.943 204.79626
1553.9062 210.46977
1555.1743 205.31183
1561.2504 206.87791
1557.0958 200.44287
1556.5481 194.34903
1556.2855 188.34088
1562.7283 192.32742
1568.7859 189.73016
1572.0504 184.54794
1566.091 181.22679
1562.597 186.10013
1557.8162 181.55093
1555.238 175.6704
1561.4719 176.29674
1567.1697 173.64087
1571.2928 177.3081
1575.9432 179.79582
1579.3336 184.62268
1575.9412 190.3017
1574.014 196.2332
1568.1831 196.90625
1562.4114 199.00687
1566.951 204.05919
1573.134 203.06912
1578.6511 202.57709
1584.8789 203.36185
1581.6274 209.61394
1575.3567 213.57823
1572.2578 208.92459
1566.4271 212.01074
1566.8625 218.55667
1573.492 219.74144
1572.1418 226.14456
1565.7524 225.71129
1560.501 222.08665
1559.7102 214.10822
1555.3458 219.23062
1551.0613 215.25714
1546.5591 218.56293
1540.926 220.62537
1537.7406 225.8696
1535.0125 231.69153
1537.7056 237.42857
1544.0082 237.48291
1549.855 238.27002
1555.3035 234.86504
1549.015 231.25085
1541.9193 231.52684
1545.0135 225.79605
1550.9421 223.64532
1556.1548 227.80899
1561.995 230.90427
1560.5392 237.26422
1563.0752 243.59558
1557.207 243.07182
1551.8662 244.38492
1547.9551 250.69446
1546.1206 244.4199
1540.3995 243.6892
1541.8588 251.20697
1536.1431 248.94238
1533.9718 243.60083
1531.262 238.27963
1528.2338 233.42009
1522.7456 231.3924
1519.0819 225.87651
1511.4668 226.61603
1515.4751 231.981
1518.2579 237.55655
1523.8254 239.43811
1527.4583 244.70059
1529.9109 251.52295
1522.9137 250.57767
1518.2843 244.85965
1511.3435 247.02519
1512.1594 239.45245
1508.3871 232.58136
1503.1809 236.56439
1505.5841 241.86388
1503.9412 247.45767
1501.2683 252.43393
1503.4307 257.88586
1498.8591 261.943
1496.6418 255.77786
1496.417 249.04099
1498.3799 243.56635
1496.7129 238.17139
1494.5562 232.44298
1500.4078 231.02823
1504.1637 226.11261
1508.122 220.81927
1505.6626 215.00717
1501.156 220.11407
1499.133 213.4116
1499.5754 206.85577
1505.3363 208.79515
1506.3915 202.75658
1503.3595 198.16833
1499.092 194.24808
1496.2499 189.21988
1492.461 195.10565
1485.2686 193.47937
1489.5427 187.73856
1483.2773 185.12071
1480.353 178.8841
1476.925 170.634
1468.8853 165.50674
1460.8142 169.30502
1451.3308 168.3001
1444.9587 160.03098
1452.3005 151.6628
1463.8416 153.67131
1466.0994 146.04681
1472.6396 150.25984
1474.1702 157.42485
1480.8718 153.7805
1482.8727 145.62598
1489.8755 145.87993
1496.0266 148.19397
1502.1345 149.20125
1503.4431 155.77806
1496.6243 155.68848
1490.033 154.87053
1483.5093 163.25372
1490.7642 163.84972
1500.6938 162.8378
1509.907 152.68256
1507.3933 146.43774
1513.732 146.53558
1517.1821 152.20615
1519.3986 144.60773
1516.2644 139.04617
1512.0271 134.2792
1509.7704 140.74928
1505.7927 135.45212
1500.532 132.70802
1494.5437 130.5244
1501.9982 141.55795
1495.7427 139.66003
1489.637 136.57932
1481.1377 134.51102
1486.775 129.26599
1480.6523 123.38982
1471.7769 115.78035
1472.7983 128.37238
1474.8883 140.04976
1460.7046 139.30035
1453.7283 143.1965
1451.3665 135.88231
1443.9614 142.2666
1437.1456 148.99399
1432.5925 159.00525
1438.6375 171.10315
1452.0713 186.45987
1447.7433 192.8215
1445.8748 199.24268
1444.8394 205.5164
1443.8777 212.91708
1457.9335 209.28142
1463.9868 214.45319
1461.5109 222.98088
1475.6919 224.70291
1476.6825 214.81334
1476.7352 204.98633
1464.7067 203.71173
1457.7859 197.60455
1466.387 195.33203
1461.1234 188.47482
1457.3689 182.05533
1465.8523 180.29271
1473.8771 182.83861
1470.9912 188.98889
1478.9155 189.49948
1475.4716 195.7858
1482.4436 199.83653
1485.3955 206.96306
1489.5233 200.69965
1497.37 200.86871
1492.9098 206.28302
1491.9949 212.22356
1486.1155 214.49332
1489.9259 220.71402
1494.8394 218.34149
1496.6685 225.3052
1490.636 227.13524
1484.7405 223.97751
1483.169 230.73633
1488.3127 232.53409
1489.8948 237.76688
1483.6655 240.25786
1491.2263 243.50021
1488.6775 248.4599
1489.5503 255.1048
1481.5854 248.5097
1472.2432 254.44461
1464.28 254.57364
1467.7986 261.43234
1459.853 266.05734
1461.2556 260.00485
1454.8048 257.25464
1452.3386 265.4483
1446.7295 260.29083
1440.3435 266.0722
1445.9409 269.37866
1439.5696 273.2399
1432.8716 269.58038
1434.1704 276.8212
1441.418 284.0102
1444.6361 289.34818
1437.1118 289.6565
1433.009 295.8243
1429.7532 301.62442
1416.1921 301.57874
1422.133 299.17627
1426.7157 293.3078
1421.6831 290.94617
1416.8346 287.86182
1421.0587 282.45627
1425.9767 285.75082
1430.6403 282.02185
1427.0852 277.41446
1425.9666 271.3427
1420.5453 275.78375
1414.6094 279.60196
1410.4221 284.91443
1403.4558 288.78378
1393.0024 292.3058
1380.989 297.7914
1398.9016 303.08435
1403.4133 296.99997
1409.2015 291.589
1417.0791 294.62787
1411.1202 297.2703
1407.833 302.04218
1411.0869 307.13284
1404.8278 308.24622
1405.6389 314.98892
1396.8407 312.50928
1391.4001 320.21335
1387.4348 328.9792
1400.4563 319.74725
1403.8784 325.8969
1406.7786 333.78967
1402.2344 341.28238
1410.87 342.46765
1416.6731 347.32495
1423.9565 348.16168
1427.6714 340.81723
1432.8057 346.40344
1437.9551 339.78683
1432.0764 334.63504
1438.99 329.1328
1430.049 327.4936
1424.0673 333.0489
1419.734 340.15015
1414.894 333.93262
1416.5729 326.57513
1423.3698 324.10843
1416.9713 318.3217
1423.18 315.83484
1417.5981 308.71185
1425.7434 308.05258
1429.3777 313.01892
1434.0593 308.27563
1437.5366 302.93625
1440.0739 296.46063
1446.75 295.7178
1451.0015 300.31366
1452.8549 306.0387
1448.2753 309.04486
1445.2151 302.3508
1442.1763 307.28912
1439.3826 312.07315
1435.1384 315.81818
1429.4866 319.90173
1435.4167 322.64423
1441.0547 319.35397
1445.5848 323.25436
1450.8425 327.76526
1454.22 321.77493
1450.2175 317.79715
1444.8752 313.89813
1454.4105 312.58145
1458.9656 317.18784
1465.1841 319.484
1461.0999 323.43866
1456.2085 327.77216
1463.7256 330.31998
1473.1887 326.86945
1474.6934 319.06467
1477.758 312.36792
1481.2092 316.92365
1486.2451 316.23526
1491.8108 316.74136
1497.5427 312.855
1504.5513 311.7328
1500.3108 307.12317
1497.7301 300.443
1499.2424 293.96274
1499.9874 288.18182
1497.2206 280.07822
1487.7886 280.90692
1482.1023 278.73544
1475.7657 278.45154
1473.691 284.37506
1481.5798 286.45053
1491.1749 288.63785
1491.9263 295.4144
1489.064 301.85406
1494.2795 306.49417
1488.0848 310.2851
1482.8291 306.67938
1480.2856 299.21332
1474.8402 291.21542
1470.2867 296.53064
1467.3562 288.31818
1467.3755 279.7129
1460.9106 283.14334
1462.0311 292.882
1464.618 299.7259
1465.4741 305.79205
1472.2717 304.49957
1467.2544 311.95874
1461.2871 311.69434
1458.9412 306.24533
1457.535 300.5456
1455.1155 295.09476
1450.9722 290.5342
1457.1023 288.33328
1451.9651 283.45288
1445.5034 278.06927
1453.0593 275.8994
1459.2537 275.32553
1465.4899 271.71802
1471.862 273.07428
1478.7751 271.86398
1484.9341 272.3155
1482.5646 266.03983
1475.1299 266.5874
1479.1759 259.75943
1485.765 261.10165
1491.8977 260.72296
1490.3136 266.8266
1490.3782 273.338
1499.2026 269.28662
1506.9951 266.57776
1511.96 269.78098
1509.4208 277.53845
1509.4517 284.96265
1507.0835 290.97406
1505.0564 297.69983
1505.096 304.16156
1512.6343 294.74304
1511.4111 301.28198
1510.441 308.73608
1514.6042 312.22272
1519.9763 310.44382
1518.5708 304.41483
1519.3546 297.43073
1517.6189 290.03644
1515.9768 282.92554
1524.5267 277.2312
1517.9683 272.66953
1517.3916 264.89337
1512.9865 260.5619
1509.8833 254.60814
1516.1145 252.97215
1523.0574 258.6103
1525.4294 268.55405
1532.3788 266.1345
1538.518 262.96347
1531.3729 258.958
1536.0712 255.23106
1541.4019 258.31705
1546.1787 257.16583
1551.1045 258.63217
1556.6508 256.20526
1554.7365 250.23679
1560.2758 250.19724
1564.2578 254.25577
1566.5447 248.57994
1571.0151 254.06851
1567.5026 258.9754
1572.2734 262.21802
1579.7694 263.53574
1577.2246 269.0998
1572.2869 273.60623
1570.2617 268.0069
1565.672 264.30045
1561.2203 259.34915
1559.3789 265.21262
1552.8865 272.281
1551.4263 265.0135
1545.9131 265.92548
1539.4275 270.7069
1531.7258 275.01093
1530.5032 282.1783
1539.4856 280.43445
1547.2175 280.65762
1555.6573 282.27322
1563.3154 273.03046
1570.5537 279.24786
1568.0347 289.43488
1561.6481 286.97952
1555.0424 290.32568
1552.5397 296.91156
1545.9142 294.49347
1537.3928 291.90384
1527.687 292.92572
1528.0328 307.825
1529.4388 320.25708
1544.3868 326.6999
1544.372 317.73462
1540.8689 311.56543
1536.6548 304.10242
1545.7776 303.92966
1557.894 311.51767
1559.375 322.73404
1566.9071 324.2614
1561.5725 328.3875
1555.1797 329.44507
1559.3252 335.48474
1565.4802 332.40503
1571.2897 330.22437
1575.7618 325.12634
1578.7446 318.61206
1584.9813 318.6933
1582.5743 323.9872
1581.8989 329.28928
1577.1453 332.5301
1573.0634 338.5758
1579.2484 339.76205
1583.9019 342.15906
1589.6052 340.68134
1589.6769 335.27707
1584.0059 335.30643
1588.7664 329.97675
1591.2366 325.2874
1594.5419 332.90692
1596.0784 328.12018
1599.7042 324.12238
1604.9144 322.39194
1609.2657 325.29755
1608.5907 318.2819
1613.5121 320.7904
1615.1454 326.52942
1612.0659 331.57578
1619.0822 332.995
1625.9602 331.15848
1622.2765 325.62695
1625.2891 318.72772
1619.5848 318.23425
1614.0774 314.11426
1619.0208 309.0312
1612.154 302.51776
1610.75 307.93884
1607.9536 312.7521
1601.2487 313.13757
1600.6714 318.89664
1596.1627 316.01624
1595.3506 321.9452
1590.5526 318.45105
1587.7598 312.60297
1581.6389 311.8182
1573.5671 306.20804
1574.6453 311.95804
1570.3213 317.68152
1562.9526 316.67987
1567.1001 310.8047
1562.738 305.40286
1555.2335 303.85913
1560.077 298.3651
1565.4272 294.5937
1568.9047 301.36456
1575.8062 299.62726
1575.1262 292.6247
1582.031 296.17297
1588.0371 298.73846
1581.1738 304.67856
1588.1228 305.91498
1596.2489 308.45258
1603.3297 306.18793
1598.0806 300.75085
1605.7058 298.664
1612.1234 295.74142
1615.5354 289.06018
1624.2867 291.70282
1624.6104 283.82953
1631.1998 289.01736
1629.8237 296.22513
1619.751 299.2298
1627.1571 304.33063
1627.6045 311.77386
1631.7705 316.93
1636.9667 321.03973
1630.4362 324.35486
1636.8848 327.53357
1632.6453 331.29172
1632.0947 337.24335
1631.79 343.28403
1638.8167 342.49567
1637.5266 349.45288
1634.6652 355.31714
1630.5626 349.8189
1626.8547 355.83823
1630.4935 360.73755
1630.65 366.53183
1635.3547 370.15158
1634.7314 377.2103
1629.8162 374.21423
1625.4366 369.73923
1623.4958 362.82578
1618.5164 358.34943
1612.7188 354.70325
1605.9208 354.28387
1607.3748 348.6793
1614.4441 346.90063
1621.2189 351.47968
1623.6067 345.01718
1624.5933 338.1187
1617.7825 340.64587
1612.8704 337.46735
1609.6096 342.51904
1604.3303 343.3563
1598.7295 343.68335
1606.6685 336.73535
1606.6536 330.91235
1602.221 327.9069
1600.2986 332.81268
1600.1665 338.00632
1594.9492 338.505
1593.6189 344.57465
1592.7281 349.54572
1599.3466 350.22824
1599.395 358.1773
1593.9104 355.36926
1589.54 359.74457
1583.8455 356.99683
1588.229 352.82788
1587.4318 346.3713
1582.9261 350.35156
1577.7988 346.52548
1571.3601 346.31097
1564.9725 338.1925
1562.0425 342.02637
1556.1509 341.41083
1551.8757 336.5124
1547.6218 332.39233
1541.5845 335.6228
1545.5516 339.76483
1548.8446 344.4308
1553.8483 346.35925
1560.6687 346.98483
1556.5623 351.2939
1553.8347 355.51624
1557.743 359.21277
1553.5774 364.63788
1548.1185 360.39093
1542.2256 362.10263
1546.5514 366.88168
1545.5903 373.31503
1544.5806 379.57385
1539.3285 375.3438
1539.6377 367.9846
1532.7847 366.77917
1534.0402 372.59528
1527.7488 371.6383
1528.8196 361.69357
1525.2012 365.0099
1521.1592 368.10556
1517.0789 370.75537
1512.0453 371.5003
1513.7357 364.76678
1507.8193 366.61276
1502.8304 363.4026
1507.6528 360.2027
1512.8748 358.0832
1519.0566 361.8416
1523.4292 357.2391
1528.7432 355.92197
1534.7393 360.97324
1538.9692 357.37982
1544.0786 354.42578
1549.2523 351.12546
1543.4846 346.80383
1538.682 350.08615
1538.3768 342.37244
1534.7864 336.33337
1530.138 340.6436
1532.8093 346.65985
1533.7249 353.60638
1527.3839 350.0489
1523.6592 345.0882
1520.7195 350.34003
1517.9413 355.4793
1513.5358 351.30902
1515.7593 345.4132
1512.5393 339.6029
1509.081 343.65033
1507.9814 348.57825
1507.1907 354.011
1501.6086 356.64178
1497.0371 360.1723
1491.1633 358.32224
1495.0845 353.4068
1500.8401 350.49518
1494.8823 346.18417
1498.6483 340.17163
1502.3551 344.93854
1505.5084 339.04498
1503.8278 334.0937
1497.4923 333.91818
1493.2795 329.00388
1500.0181 327.15482
1505.8152 329.24164
1505.6248 323.31262
1512.2556 322.23196
1513.2328 327.77875
1512.3357 333.44092
1517.4678 336.0297
1519.1876 329.94672
1518.1104 324.48074
1517.4208 318.06042
1512.5464 316.9073
1507.7788 317.00552
1502.6624 317.72815
1498.5923 320.02075
1494.5103 323.3686
1489.0868 323.5832
1483.8151 323.3068
1478.6056 323.9047
1478.7903 331.61575
1485.2721 329.68015
1490.1318 333.83344
1484.2356 337.10806
1476.1093 338.32715
1470.8918 333.70615
1468.9059 340.4667
1461.7983 341.32874
1456.139 335.49756
1448.5815 336.79425
1446.2852 342.6158
1449.5933 348.71362
1454.0662 342.2658
1457.7141 348.68005
1465.7721 348.74374
1474.1276 346.71564
1480.3296 342.8954
1478.8 352.42892
1471.8713 353.7092
1471.0688 360.9685
1465.412 356.2166
1462.9868 362.43542
1458.3386 356.03973
1451.1989 356.1662
1442.1006 361.8219
1444.4658 354.35693
1441.2422 347.3562
1437.5107 354.55258
1429.5885 353.08875
1424.5779 357.31894
1423.7196 364.27234
1417.4462 361.9072
1417.386 354.58176
1409.4084 352.30884
1409.2833 359.98615
1399.8616 362.4079
1405.4329 369.73035
1400.5718 376.55847
1410.6923 380.8481
1418.8345 387.54916
1423.1514 383.31894
1417.6687 378.73605
1412.1788 374.4472
1412.9177 367.06393
1419.0044 370.4582
1423.6377 376.45758
1426.3724 370.27182
1432.9269 363.87384
1442.0493 373.01584
1437.0524 381.70325
1442.5625 398.17938
1445.8303 391.2874
1446.7056 383.24265
1453.7017 381.14264
1449.8838 375.91382
1454.3788 370.52988
1449.1289 368.23227
1454.6422 362.69696
1459.7439 367.84308
1463.1685 372.84375
1457.7903 376.07672
1460.62 382.21295
1465.1042 378.82996
1467.7073 367.49716
1469.2842 373.62204
1471.1766 379.02362
1474.1439 383.27158
1467.6907 384.63617
1467.7812 391.61093
1472.6521 388.52844
1478.5481 386.09088
1482.2473 390.4187
1484.2258 385.34225
1489.5735 385.22552
1487.0522 390.5105
1484.1498 395.59998
1478.1342 395.85486
1477.4524 391.11142
1472.6707 394.54846
1473.6145 400.52118
1468.5553 398.79218
1463.6882 395.84058
1462.9827 388.10278
1457.2458 387.09058
1451.6013 387.3429
1458.8479 392.94745
1453.6694 393.94006
1450.419 398.82468
1447.1735 404.28638
1441.6875 407.93292
1440.5891 415.4636
1447.8479 427.55414
1450.1721 419.56088
1452.3151 413.4126
1459.338 409.13757
1454.049 405.2955
1457.4008 399.81857
1463.076 402.08765
1467.5754 408.64764
1473.5082 407.3789
1477.7118 404.4753
1482.2405 407.9795
1487.2195 405.87506
1480.2356 400.21103
1485.0323 401.1717
1489.8596 397.55548
1490.4407 393.45966
1493.0433 389.94467
1495.2861 386.10382
1500.4878 384.81918
1499.7179 379.78217
1503.1248 376.2772
1506.7661 372.3685
1501.2722 370.40753
1497.7726 366.14062
1491.8881 364.78314
1493.7793 370.56213
1496.1525 375.3288
1494.625 381.5427
1490.8823 378.79538
1485.9482 379.94336
1480.5812 381.14682
1476.8647 377.72397
1475.0928 372.62314
1474.3455 366.62976
1480.7012 369.77692
1482.429 375.0871
1488.5726 373.931
1486.716 368.4626
1480.0352 363.96848
1478.0284 358.51953
1485.737 362.1053
1485.0977 355.69064
1489.2445 350.4826
1482.8947 348.30392
1487.7567 343.60388
1492.2982 339.3656
" />
</g></g></svg>
