<?xml version="1.0" encoding="UTF-8" standalone="no"?>
<!-- Created for Inkscape (http://www.inkscape.org/) -->

<svg
   xmlns:dc="http://purl.org/dc/elements/1.1/"
   xmlns:cc="http://creativecommons.org/ns#"
   xmlns:rdf="http://www.w3.org/1999/02/22-rdf-syntax-ns#"
   xmlns:svg="http://www.w3.org/2000/svg"
   xmlns="http://www.w3.org/2000/svg"
   xmlns:sodipodi="http://sodipodi.sourceforge.net/DTD/sodipodi-0.dtd"
   xmlns:inkscape="http://www.inkscape.org/namespaces/inkscape"
   width="567"
   height="800"
   id="svg2985"
   version="1.1"
   inkscape:version="0.48.1 r9760">
  <defs
     id="defs2987" />
  <sodipodi:namedview
     id="base"
     pagecolor="#ffffff"
     bordercolor="#666666"
     borderopacity="1.0"
     inkscape:pageopacity="0.0"
     inkscape:pageshadow="2"
     inkscape:zoom="0.35"
     inkscape:cx="1600"
     inkscape:cy="400"
     inkscape:document-units="px"
     inkscape:current-layer="layer1"
     showgrid="false"  />
  <metadata
     id="metadata2990">
    <rdf:RDF>
      <cc:Work
         rdf:about="">
        <dc:format>image/svg+xml</dc:format>
        <dc:type
           rdf:resource="http://purl.org/dc/dcmitype/StillImage" />
        <dc:title />
      </cc:Work>
    </rdf:RDF>
  </metadata>
  <g
     inkscape:label="Layer 1"
     inkscape:groupmode="layer"
     id="layer1"> 
     <g>
<path style="fill:none;stroke:black;stroke-width:2px;stroke-linejoin:round;stroke-linecap:round;" d="M 
1715.7609 204.87834
1709.6589 208.21732
1706.8235 213.80028
1707.9026 221.02478
1701.9652 218.03716
1697.3684 221.4044
1694.9409 228.61716
1703.2773 226.83263
1712.7009 226.21263
1715.6599 220.80698
1713.1625 215.33958
1716.389 210.46384
1721.7595 204.84708
1722.0793 210.87949
1721.2312 216.6691
1728.081 216.88385
1735.0754 217.79077
1736.4172 226.02202
1739.1699 231.96191
1732.6191 234.89178
1728.3148 241.95053
1721.7511 242.85612
1724.8851 234.5816
1728.7036 226.70316
1721.8608 223.45445
1719.3046 230.04248
1715.3866 236.77216
1708.8857 233.91075
1701.7106 235.89964
1693.7521 235.52298
1686.2288 236.92955
1689.9596 245.08556
1697.5613 243.93533
1695.2275 252.88467
1688.4121 258.01178
1682.0839 259.80368
1677.092 264.0117
1675.3569 269.04465
1675.4016 273.6706
1668.9532 270.77557
1669.9141 265.30298
1664.2434 259.56653
1675.4834 254.79953
1683.4752 251.35553
1675.9658 247.00833
1679.7231 241.08112
1674.7837 233.02805
1681.4326 231.59998
1687.6987 226.59601
1681.2441 220.97136
1673.8496 217.16222
1671.8978 210.33414
1666.0696 212.1682
1664.4518 203.44373
1671.6298 203.25436
1678.4375 207.65494
1679.9387 213.52025
1680.0555 201.97269
1681.0215 195.90556
1683.621 188.92168
1687.3805 194.39133
1690.6752 199.88742
1691.804 189.49039
1697.5931 188.24011
1703.311 188.09628
1708.6702 189.4878
1704.5398 195.3955
1697.3684 195.52475
1697.782 202.28308
1693.1151 207.67947
1686.2461 205.70573
1686.6218 213.33722
1689.7382 219.78802
1693.7161 214.92657
1699.2384 212.2459
1702.675 207.59526
1704.48 201.9523
1710.3143 202.2025
1710.9141 196.42924
1714.5898 192.03545
1720.0876 194.34935
1716.758 199.41653
1723.3795 199.56131
1727.1532 195.88611
1733.2572 200.43456
1728.2933 203.45872
1727.1821 209.1734
1733.8341 209.65698
1741.0667 204.75473
1744.4807 211.87029
1748.1862 218.39828
1748.9147 224.39832
1748.3586 230.7521
1754.2798 229.74841
1752.3881 239.94077
1753.0176 250.32372
1742.0807 244.44542
1734.8169 246.11053
1738.8896 253.00243
1742.6201 261.07953
1753.7712 265.91565
1742.1969 271.8507
1737.1057 268.17572
1731.8207 269.0807
1725.4702 272.22058
1726.4668 264.828
1732.6277 260.25403
1727.9973 251.916
1723.1775 257.92426
1720.0272 251.77165
1714.8079 247.62944
1707.6921 245.64806
1713.4829 256.52435
1704.5197 256.0369
1696.2073 260.5163
1704.0728 264.85352
1710.7401 263.01154
1718.4348 262.6505
1719.4854 268.71356
1718.6115 275.0072
1723.4169 279.6477
1725.8127 286.58963
1717.4774 293.62473
1716.9891 300.0687
1718.8369 306.80624
1712.4121 308.75305
1706.2961 305.13483
1710.2036 300.51294
1710.622 293.966
1705.1173 290.52457
1701.1119 285.8755
1708.2852 283.44147
1714.001 287.79498
1720.5724 287.12567
1716.8713 281.6704
1711.5598 277.34784
1712.0568 270.0041
1704.4955 274.37747
1699.3479 279.90158
1695.0878 274.5605
1697.9927 268.3307
1690.6892 268.26416
1684.4058 266.51697
1680.9729 271.39438
1686.3679 274.46933
1690.024 279.83936
1683.1077 281.48053
1679.3752 277.62344
1673.4485 277.59387
1671.439 290.20612
1666.3611 296.1032
1661.0103 296.70978
1661.0554 304.6894
1655.3643 303.75137
1648.5267 303.80713
1643.2812 298.05048
1650.0415 296.03232
1655.5125 297.0291
1656.4187 290.77884
1649.8801 288.27234
1641.1989 289.07227
1638.2017 281.39566
1631.5361 275.11966
1625.3151 266.33185
1630.2894 256.80533
1632.7534 265.48904
1638.917 270.4024
1645.8037 273.7508
1648.2604 280.6883
1654.9125 278.43787
1656.0242 284.42975
1661.4784 281.39844
1662.3992 288.55457
1668.52 283.40906
1666.0634 276.77924
1660.3052 274.07794
1658.1841 266.58554
1656.9723 260.18027
1655.9697 253.52507
1648.4287 259.76294
1641.492 251.71306
1648.052 250.00194
1655.5222 246.41617
1663.9829 248.13144
1659.3965 239.09036
1667.719 240.0824
1667.5828 230.27971
1660.2793 230.43712
1657.7408 223.63556
1651.7943 227.24054
1652.3849 233.50507
1651.4529 240.05475
1644.836 242.06476
1644.1675 233.57288
1644.5166 226.38666
1649.6548 220.61449
1643.458 218.08835
1648.9575 212.62354
1656.3582 216.58978
1659.3767 209.1911
1655.8433 203.58203
1660.0287 196.4646
1667.4683 194.98434
1673.7665 196.7949
1675.2914 190.24792
1659.4404 184.84378
1652.2579 181.67809
1652.9083 175.53844
1660.876 176.83751
1658.4124 169.30843
1666.8853 170.72336
1673.0862 165.69867
1677.4249 159.71484
1673.3243 155.45453
1680.1426 153.6912
1683.6599 148.81248
1682.1288 144.10605
1685.8914 140.57059
1681.6855 138.44405
1685.3022 134.46782
1677.9269 132.56985
1672.2526 128.81647
1667.3207 133.52046
1667.9773 123.09027
1661.5188 126.175995
1654.2397 129.05922
1653.9028 120.15826
1645.5266 124.66103
1644.9167 131.96265
1639.4127 135.89088
1638.7273 142.14346
1635.5571 147.01083
1631.3376 138.46567
1633.2498 132.02182
1637.399 125.30105
1640.4304 116.622604
1627.8351 117.71917
1626.8687 125.6563
1619.4084 129.48215
1624.9121 132.25403
1623.5491 139.30309
1628.821 145.13266
1623.0931 147.84177
1621.0393 154.88916
1613.8237 159.45277
1605.5266 159.08618
1607.4976 152.09671
1614.5662 150.54892
1617.1415 143.38773
1614.7395 136.48395
1609.6953 143.51028
1589.0421 150.95683
1583.1936 148.03894
1587.2249 143.11084
1595.1604 138.99008
1591.0859 127.29944
1584.5791 122.6661
1580.5525 115.48508
1574.2769 119.76062
1570.9984 111.82637
1563.9473 108.06758
1561.7273 101.287735
1558.4578 95.990654
1550.4347 94.29918
1551.8054 100.77517
1556.0942 106.11581
1550.7192 110.55049
1557.0026 113.350815
1563.9357 115.165306
1567.9946 120.07583
1559.6699 120.22952
1554.0623 123.77932
1558.139 127.24594
1564.1522 125.65027
1568.1686 130.66101
1571.6665 125.99872
1578.6488 126.46264
1583.7236 130.98901
1585.8284 136.79584
1579.5259 140.56735
1576.0404 148.13683
1571.2997 153.55182
1569.1229 147.70221
1573.2404 142.12108
1574.7505 132.63031
1570.9224 136.96614
1566.9377 142.38245
1561.6599 140.64777
1565.6808 136.31055
1561.8738 132.70795
1556.9192 137.96387
1556.505 132.59474
1551.5352 130.78682
1548.6775 136.51385
1551.8362 140.98914
1544.47 141.84949
1542.26 135.8165
1538.2312 141.80338
1536.5474 148.19662
1531.842 143.49539
1526.2666 145.62515
1520.6995 150.20148
1525.5682 155.3898
1529.1986 149.84976
1532.6598 153.7051
1535.2284 158.27165
1539.2732 161.65442
1538.1766 168.55139
1531.8971 173.66937
1524.4136 174.97134
1527.2029 169.40356
1531.9597 165.7211
1529.7103 160.31862
1523.3265 163.12614
1519.0055 157.76984
1514.1586 153.4884
1511.9359 147.40915
1516.8762 144.44208
1522.0061 143.0605
1524.8599 138.1363
1527.044 132.33911
1531.4661 137.30951
1537.0964 134.50276
1534.025 129.6629
1529.1527 126.14889
1529.7828 120.333824
1535.8608 122.934135
1535.6147 116.61577
1530.1497 114.44554
1529.7334 109.59695
1534.5061 107.622025
1538.1416 111.16491
1541.2825 115.8327
1542.7322 121.3701
1540.7639 127.532646
1545.5897 130.83058
1548.1498 124.86502
1551.958 118.35106
1546.9481 116.321915
1544.1599 110.390366
1546.9277 104.749405
1540.8152 104.94278
1542.2914 97.97949
1533.616 100.43286
1526.056 105.14242
1524.4735 98.55114
1515.5338 98.56912
1518.622 105.51399
1522.5046 110.786064
1514.2711 111.12894
1511.4587 116.894554
1511.0946 105.77087
1506.3918 101.32826
1504.0083 107.59607
1505.5656 113.213
1504.9617 118.530655
1508.5425 122.718765
1512.0776 126.42157
1517.198 127.25408
1516.2296 121.37438
1518.3713 115.80969
1524.5034 116.41805
1523.0024 121.98306
1522.9365 127.63994
1519.7557 132.7656
1517.6711 138.02393
1511.5885 140.54114
1513.1765 133.10468
1507.8188 130.17392
1503.6504 127.82888
1501.4299 123.37924
1498.7732 118.42677
1493.804 115.981384
1498.5139 111.203476
1496.8706 104.603485
1489.695 105.20267
1486.9622 115.169395
1480.4714 118.816376
1470.5525 116.67334
1476.6533 127.01442
1485.0125 126.80624
1482.0574 133.44528
1488.5298 135.51584
1480.8157 140.7001
1475.0984 137.245
1471.2477 145.01251
1476.8921 153.23721
1482.2207 148.85056
1491.5122 152.44057
1498.2626 147.89828
1489.1013 145.92566
1492.7274 141.06677
1498.6106 140.82603
1495.5012 135.04599
1491.3716 130.24023
1492.574 122.65227
1497.5403 128.38596
1501.7007 133.51077
1507.9276 136.08395
1503.58 139.00812
1505.4213 144.55296
1506.176 151.34341
1500.3894 155.66986
1492.5125 160.13596
1483.1849 159.81654
1485.2899 165.7764
1492.7308 168.25179
1488.484 173.51642
1488.3103 179.52185
1488.613 185.55264
1486.6382 190.5138
1494.9651 183.09695
1495.1316 189.25864
1501.1111 191.33633
1501.6267 197.96286
1502.2651 202.93077
1506.1406 205.32658
1508.6957 200.04509
1505.9286 194.90465
1511.6847 193.96475
1517.0063 191.8834
1519.6575 185.38101
1513.0612 185.99791
1507.1838 188.56622
1502.4009 184.63223
1500.5975 178.30797
1494.6208 175.93236
1500.3981 170.18584
1504.6619 164.10326
1508.8184 158.27515
1514.1616 163.60988
1519.8113 169.5226
1512.7859 170.98975
1506.5494 173.00156
1508.9766 180.00235
1516.8174 178.04472
1525.3298 181.14671
1532.963 180.24954
1531.2795 186.06609
1525.8044 188.00473
1523.2883 192.80742
1519.7532 197.656
1514.8967 200.45554
1512.3253 205.86478
1517.965 209.2902
1520.8694 203.44403
1524.3429 207.78317
1526.2216 212.13676
1527.9042 216.7948
1532.9272 216.0281
1536.9673 213.17206
1531.5269 209.64677
1535.867 205.87265
1533.2705 200.294
1528.449 203.86868
1526.3232 198.23764
1530.9138 193.3985
1536.9175 189.20763
1538.4741 196.04123
1544.0471 196.57343
1541.9519 203.05182
1540.8508 209.37823
1546.916 207.92326
1548.9819 201.10223
1545.2578 189.34616
1540.5883 183.6445
1541.3242 177.21387
1547.4636 181.13068
1552.463 179.7199
1557.8706 178.35681
1560.7955 171.4668
1553.6692 173.49706
1547.1426 172.2039
1545.0933 165.20692
1545.3828 157.70108
1539.9113 154.03468
1543.3119 149.24359
1547.7869 146.37814
1552.7214 147.10268
1557.6445 144.8674
1562.8145 147.68509
1564.9229 153.81354
1559.3253 157.95224
1557.3447 152.21628
1550.1677 153.1367
1552.0538 160.05057
1552.2451 166.74512
1559.1613 164.8349
1564.5426 162.00009
1569.2314 159.76143
1567.5471 167.54056
1574.3306 166.82962
1573.533 172.89069
1567.4513 174.63474
1563.4707 178.99487
1559.3672 184.66742
1552.4878 186.5471
1557.1776 191.7605
1550.5216 193.87767
1556.1125 198.17778
1554.4548 204.03854
1552.5482 209.7485
1558.2155 209.21037
1558.6621 215.12616
1552.8506 215.90088
1547.8562 220.45456
1547.925 214.27145
1543.0127 215.15399
1538.603 219.04478
1541.8315 222.67715
1541.3025 227.81877
1535.3129 225.89598
1532.3875 221.81566
1525.979 221.30217
1526.3235 226.93375
1531.0974 230.40387
1536.7241 231.72531
1536.7921 238.17215
1531.0093 236.40378
1525.071 233.29514
1519.4026 231.13626
1514.6935 228.51097
1514.4868 222.48943
1520.4999 223.41917
1521.4426 215.54532
1516.046 216.75365
1512.1572 212.36829
1507.0962 210.11797
1505.0352 215.1753
1501.2871 210.7395
1498.6611 206.85944
1494.0198 205.44006
1496.9221 201.06218
1496.1345 195.57225
1490.9749 200.87547
1490.5627 195.11652
1484.4956 196.39384
1485.0071 201.98509
1489.314 207.75279
1486.4788 214.00352
1482.975 207.07372
1476.4309 201.86632
1476.7151 211.4191
1476.6875 218.55551
1465.2278 208.17056
1458.2682 204.00757
1458.3301 194.867
1465.8085 196.5393
1471.5676 191.7598
1470.906 183.54373
1478.7186 194.60632
1478.5491 187.94585
1482.4758 182.94473
1477.6567 179.45561
1477.1849 171.9539
1473.8121 165.28908
1473.2843 157.3943
1469.0972 151.60522
1462.7571 151.0461
1465.0854 163.44412
1464.8767 174.58177
1462.3711 185.27087
1455.1903 183.98416
1452.8513 173.11053
1452.2043 164.51877
1443.283 160.60468
1451.3271 152.38914
1453.4163 145.06357
1461.5145 142.03152
1466.3036 132.23434
1453.9684 136.54027
1446.3785 140.32565
1437.9965 148.61035
1431.5112 159.07455
1437.7825 171.14246
1449.0118 189.56418
1446.8047 195.86316
1446.6136 201.55002
1444.3325 206.3035
1443.3071 213.45544
1458.4138 214.10161
1465.1208 218.25957
1461.1682 225.12683
1475.6011 226.76337
1483.9978 226.74045
1491.0776 229.30371
1485.8376 235.91986
1493.0458 237.11082
1499.3911 241.75623
1498.3823 233.03824
1501.4158 227.54333
1495.6621 223.44365
1488.8672 221.66226
1492.5117 216.87053
1494.0691 211.35
1498.5186 216.32733
1502.5731 220.94249
1509.4684 218.65378
1508.2505 224.92764
1509.0082 231.28168
1504.7175 236.17484
1513.739 237.0376
1520.2046 237.69408
1525.5732 240.58334
1531.0806 242.49503
1536.4951 243.86107
1541.1616 245.54271
1546.7676 245.19359
1551.6997 245.42834
1555.429 241.3862
1550.1443 239.43286
1547.2009 235.62914
1543.0469 240.1928
1541.4429 234.51714
1545.884 230.85031
1547.568 226.03168
1555.2731 220.91333
1553.3263 225.8853
1552.2322 231.73047
1557.1462 234.98454
1560.5778 241.61148
1564.9403 245.48132
1574.298 250.41016
1571.4941 243.7796
1576.8567 238.27264
1571.4412 235.29076
1565.803 238.27533
1562.35 233.00446
1559.3635 227.19322
1566.3179 228.7738
1568.5713 222.23766
1561.759 221.25113
1565.4905 215.81108
1563.8982 209.93964
1572.4357 215.85938
1570.2739 209.77423
1567.7507 204.52898
1561.2166 204.08891
1562.4827 198.98395
1563.8296 194.02371
1563.55 188.92871
1567.156 184.06012
1571.5447 179.5366
1575.1604 184.8234
1571.093 189.38127
1570.4231 194.43335
1568.7656 199.19254
1574.3423 202.33873
1577.1243 208.60968
1579.7328 215.10391
1576.8645 222.1716
1572.9015 228.67813
1580.2329 229.40092
1586.7402 220.70377
1592.486 227.44359
1598.4924 219.61246
1606.087 212.50272
1612.35 218.92133
1617.4131 211.68451
1616.0669 203.11688
1613.5166 194.48619
1611.978 186.38943
1603.8191 183.59918
1604.8191 190.245
1604.8148 197.49254
1603.7772 204.18756
1596.6608 209.26608
1585.8809 208.84135
1581.7451 202.2238
1576.9067 195.88892
1579.9209 189.91574
1585.3682 195.2299
1592.7937 199.74272
1596.2928 190.62357
1594.2067 182.75371
1587.8641 187.2086
1582.2764 182.74425
1578.3677 177.65393
1580.9783 171.4617
1586.7637 176.6141
1595.7233 176.12479
1596.813 169.23882
1588.6458 167.84021
1581.0631 164.28345
1575.4343 161.16092
1577.0658 154.64929
1581.8671 157.03464
1588.945 158.38441
1596.695 160.36267
1602.897 165.17548
1609.4528 165.59393
1610.2307 171.56946
1603.9617 173.62692
1608.5964 179.12857
1613.5901 178.1601
1616.7134 173.14908
1617.151 167.24069
1623.0068 163.29883
1630.3817 163.51715
1627.8728 156.18742
1632.8833 152.6351
1640.886 152.63048
1644.1051 146.4706
1648.155 151.02979
1651.9088 144.35
1647.1002 139.49905
1654.0474 136.36594
1659.2909 141.62073
1661.7556 135.40605
1673.138 137.71248
1668.7438 143.91287
1677.0684 148.42241
1665.0405 153.08063
1665.3174 162.28232
1657.3754 160.57306
1647.8899 168.76675
1641.8958 157.88815
1636.2495 160.01312
1635.2368 167.3815
1629.0171 171.38316
1623.4221 174.07007
1619.4565 179.68259
1623.5139 184.62059
1628.801 180.21643
1635.9016 177.82385
1643.7605 175.56566
1645.8119 183.70781
1646.4392 191.26935
1653.0498 189.94073
1650.0223 197.71228
1645.2825 204.64716
1639.8555 210.82957
1635.6116 201.39337
1640.8975 197.23236
1639.5479 189.49254
1630.6017 189.4849
1622.8123 197.46603
1626.4862 203.05113
1628.3658 210.53989
1625.5278 218.8895
1622.262 224.8299
1624.229 231.54639
1623.4254 239.3671
1620.5433 246.6002
1628.6731 246.8534
1636.47 246.83572
1624.5188 252.12895
1612.7041 248.63882
1615.9001 243.14285
1618.7867 236.89813
1618.4304 231.35509
1614.4265 228.00345
1606.7845 226.706
1608.78 235.21219
1600.0779 233.91454
1602.0353 242.46666
1596.44 249.2924
1590.3203 253.9729
1589.1017 245.32358
1594.8837 239.83623
1590.2865 234.7283
1584.4441 239.06839
1580.302 245.36174
1582.8403 251.6013
1584.2463 258.44965
1591.0028 264.47455
1591.0004 273.37466
1599.24 281.36606
1588.216 286.31802
1582.3525 279.58197
1581.7046 272.22662
1582.1667 264.48917
1576.9402 258.0752
1571.5034 263.79654
1576.5554 268.234
1570.9236 270.8888
1571.3835 277.5321
1563.7627 269.59222
1556.0007 266.3459
1559.843 260.94894
1566.3239 261.7873
1570.1031 255.8001
1565.2942 250.7791
1563.4407 256.49954
1558.6241 253.62279
1556.8496 248.2965
1554.05 256.25305
1548.5251 258.8738
1544.0125 263.1255
1540.3625 269.76605
1534.948 270.875
1530.2734 267.2865
1528.7955 274.57007
1527.7024 280.875
1534.2128 277.70898
1537.1677 286.72455
1540.1782 279.72684
1545.8503 280.06775
1548.6594 271.3057
1548.1494 266.9213
1551.4265 262.91162
1555.0171 274.0429
1558.5408 282.5465
1560.5015 288.76263
1565.7583 287.0711
1567.1326 292.85992
1560.706 296.1126
1554.5916 297.28635
1554.001 292.72174
1554.5547 287.91876
1551.3933 282.26923
1545.518 293.57828
1537.2151 293.74774
1527.3055 292.80908
1518.4492 294.1513
1517.7693 287.7585
1513.1367 283.08905
1510.5029 289.52844
1510.6559 297.50986
1517.1644 298.9976
1520.2422 302.83817
1513.8618 304.30008
1507.1448 303.32837
1503.4475 307.6134
1502.2708 299.85962
1505.1257 293.81418
1502.4573 287.44785
1498.5361 293.17096
1494.686 296.7576
1490.0728 291.79993
1494.1204 286.53983
1494.4343 277.90335
1508.2102 278.2868
1516.9446 275.8712
1522.7643 270.96814
1522.981 263.34772
1524.3181 258.05933
1522.519 253.298
1528.6278 252.85156
1532.7826 255.62054
1531.5962 260.87164
1536.0021 264.66
1538.6698 260.9803
1541.6873 257.469
1545.4177 255.37497
1549.5392 251.45946
1544.5829 250.17601
1540.51 251.8039
1537.107 255.5631
1536.1536 249.74553
1531.3367 248.06229
1524.7963 247.3571
1517.9883 249.84134
1519.4587 243.69153
1513.2612 244.44894
1507.0488 242.3923
1505.1273 248.87927
1511.7598 251.73016
1501.6262 258.33026
1510.1538 259.1266
1516.4183 258.6117
1514.9504 267.0036
1508.9062 268.72998
1499.4617 268.0828
1492.0491 262.6641
1496.5676 255.88159
1498.5159 249.52914
1492.3201 244.9689
1489.5771 255.38248
1484.8904 246.36284
1476.355 252.65707
1470.5701 255.76318
1465.5902 254.5693
1460.696 256.71536
1454.7302 256.37408
1451.5481 262.54767
1447.6128 257.62308
1443.3906 263.6715
1445.3213 269.40598
1453.0018 268.53748
1458.9812 263.20923
1466.5032 262.46378
1471.5895 272.7881
1465.5555 278.66342
1462.7256 270.74228
1456.3195 276.0788
1452.1698 282.38153
1446.0095 276.91174
1439.1772 271.60452
1434.1797 267.9279
1435.9751 277.71057
1428.5598 280.6919
1430.9849 273.87048
1425.182 271.55768
1420.9381 277.54816
1414.3564 281.1319
1409.6965 287.26944
1402.6814 292.0597
1406.9939 299.8031
1398.583 303.97067
1383.9177 295.51736
1392.0117 319.18933
1386.3401 329.60742
1404.9568 333.38367
1405.633 342.8227
1412.1244 336.38275
1413.9207 326.84277
1402.9763 322.95724
1400.7549 314.02234
1406.475 308.2046
1414.2798 303.44806
1420.3422 300.71408
1427.0521 307.38782
1433.2484 307.15314
1438.3804 304.7677
1442.138 296.97998
1435.3971 300.1617
1432.556 294.82962
1428.9401 300.59558
1423.0703 293.95184
1415.1621 294.49026
1419.8796 286.5711
1426.7216 287.0909
1437.571 289.99716
1441.8884 284.21722
1445.8712 289.71326
1448.8585 295.44305
1453.7133 289.8217
1460.6982 284.92017
1458.7876 294.47595
1453.9685 298.93182
1454.3037 305.03076
1460.0133 301.9676
1465.3481 292.22583
1469.385 286.6045
1473.1658 280.64197
1479.1517 277.62546
1480.763 270.55768
1476.0403 266.6504
1476.3949 260.02682
1482.6908 260.58948
1485.6396 265.15698
1489.897 270.04947
1485.9662 276.2213
1485.6249 283.6889
1478.5455 286.48618
1474.5496 292.1621
1470.8259 297.1261
1466.4316 301.06326
1463.3909 306.70657
1468.332 309.09564
1476.0728 314.82867
1477.3188 320.5158
1476.6171 326.6848
1472.08 325.0035
1468.386 318.72137
1462.0813 318.8021
1464.8403 314.38922
1461.4368 311.64575
1457.4352 308.94214
1452.585 311.3784
1447.51 311.62225
1448.7472 306.9123
1448.401 301.58826
1443.3468 303.12964
1443.0015 308.07538
1441.6489 312.23492
1437.1162 310.3968
1437.1093 314.97498
1434.8096 318.45724
1431.7277 321.54724
1439.0178 321.77585
1441.4626 317.4672
1444.8862 314.81778
1447.7443 318.6366
1452.3 317.24393
1457.3281 314.7395
1457.0153 319.33887
1454.0582 323.1622
1449.5055 323.2188
1444.0718 322.68283
1445.626 327.496
1439.7489 328.39777
1434.7659 325.96805
1428.3435 325.83713
1426.5822 318.44394
1430.7223 313.48312
1423.0583 312.35635
1414.4419 311.59134
1418.0062 318.3757
1421.345 323.7474
1419.0063 330.56268
1419.1516 337.08246
1414.6437 343.94992
1416.9243 350.04016
1409.8374 352.23633
1411.7295 361.42474
1406.0233 358.7378
1398.7512 363.96872
1406.1982 368.48492
1401.5393 376.33273
1411.6296 380.5083
1419.3694 387.33923
1422.5331 383.27792
1422.0941 378.35022
1417.217 375.62973
1411.884 373.23227
1414.6061 367.18048
1419.2709 363.02536
1416.2255 356.74927
1422.066 353.29443
1422.8419 347.0177
1425.6147 342.65073
1426.1732 336.89264
1425.7648 331.18652
1432.092 332.3679
1437.8167 335.57416
1431.9391 339.9093
1438.4365 343.28046
1443.0913 349.0017
1448.166 349.09717
1453.9727 347.90363
1450.801 355.80798
1444.2152 357.78656
1441.6829 365.8993
1437.758 359.44226
1437.4902 352.24594
1432.0425 347.00558
1428.2214 351.65326
1429.7866 357.00555
1423.2244 358.1677
1426.4567 362.3598
1424.6776 367.36472
1419.8085 370.11804
1425.4146 373.24814
1432.7327 366.57617
1437.435 381.74423
1444.6687 376.27844
1449.806 370.14746
1452.1704 376.61322
1457.602 377.14145
1459.0713 382.5355
1448.7095 385.40057
1443.6833 395.40024
1448.6797 401.7132
1442.6228 406.7594
1440.9204 414.4983
1451.6052 416.57037
1454.877 408.32968
1462.1172 416.2862
1458.6694 425.75192
1447.8335 425.16516
1453.6433 442.5382
1466.507 434.54623
1472.069 444.71887
1492.7783 456.0307
1507.0647 445.5243
1492.5974 441.05026
1494.3258 428.08276
1497.027 417.01096
1507.2906 417.84116
1503.62 426.39426
1506.5779 434.80527
1528.0387 433.478
1533.2726 429.169
1527.8369 424.37793
1517.2285 424.471
1516.9407 413.6812
1513.2378 404.68475
1519.604 403.26276
1523.4216 408.94873
1527.0598 415.82227
1533.3228 418.65906
1539.44 423.62305
1539.9116 433.36777
1537.3362 441.44598
1546.4062 441.1383
1555.1552 439.09308
1551.4886 431.30548
1547.8425 423.5313
1549.4277 415.5304
1556.5868 412.03076
1557.4712 421.04834
1561.0266 430.4991
1568.3447 424.39966
1565.3779 415.28357
1573.4504 411.00598
1563.29 408.1533
1564.2397 401.17538
1557.4 400.46432
1552.748 405.85663
1546.0566 402.63718
1544.2788 409.64032
1539.5225 414.60654
1532.5264 410.11508
1538.4685 404.90768
1531.1271 402.53952
1530.8298 394.219
1530.9324 387.06406
1524.6655 397.52927
1522.6505 391.04926
1524.5562 385.32648
1521.5575 381.05084
1516.7426 384.84213
1514.4861 390.05292
1517.0619 396.4923
1510.3865 395.79016
1507.1001 401.9021
1505.9913 408.87582
1499.7924 401.52686
1497.0449 408.39746
1490.1838 411.6554
1484.7092 416.80804
1480.4404 427.87582
1470.0615 421.96228
1477.4194 416.84033
1480.8894 410.4848
1484.6462 405.73425
1489.6768 403.7839
1492.8857 399.44748
1496.5316 395.2219
1502.3539 394.82666
1506.9335 389.4725
1509.4049 384.0361
1500.5425 388.988
1502.4208 384.00464
1503.9835 379.49347
1505.9495 375.38315
1501.1366 373.6228
1498.2273 377.62936
1495.9974 383.15228
1495.0583 388.76306
1493.1494 378.13232
1493.7574 373.352
1488.5752 373.94308
1489.3032 380.80295
1484.0024 382.71088
1478.8966 384.5697
1477.9066 377.87692
1483.8594 376.0999
1490.0673 368.11017
1494.3966 368.89093
1498.0168 370.38995
1501.3916 367.47998
1503.4993 362.94562
1498.7979 361.46082
1495.0969 364.51154
1493.0718 358.99988
1488.8502 362.93845
1482.8315 362.74228
1484.7166 368.68372
1479.3916 370.86438
1475.5254 365.93454
1468.949 367.5019
1472.5127 373.14502
1470.7878 379.65707
1474.2717 384.89795
1470.1694 387.49094
1464.6217 389.6971
1464.2432 394.80573
1470.8623 393.456
1473.5667 398.21094
1477.4955 392.38705
1483.1827 389.8136
1489.1174 386.70212
1490.784 392.37372
1487.3877 395.86813
1483.2426 397.71017
1479.2207 400.18405
1476.8969 405.3651
1472.2178 410.72382
1471.1162 404.02097
1466.3267 399.3094
1464.7532 407.89624
1460.2539 402.71002
1454.7896 399.72076
1458.568 394.85828
1451.7354 393.2984
1457.0925 387.94153
1465.0543 383.9035
1464.9895 376.7563
1463.077 370.96567
1457.2086 368.78403
1452.4696 363.67136
1457.6066 360.22922
1456.9429 353.15588
1459.4816 346.71515
1465.3232 347.35663
1472.1099 345.4348
1478.4434 344.3147
1476.3428 349.93787
1469.2604 352.5434
1463.3466 355.61523
1463.5701 363.12616
1470.0901 360.0074
1475.013 355.3651
1477.6819 360.33713
1481.7383 355.1052
1487.2344 357.19836
1488.6031 351.78937
1482.7703 349.5963
1484.4578 345.0123
1489.2473 346.83075
1488.9269 341.33215
1493.2483 343.7702
1498.7917 342.08832
1494.895 339.81143
1492.1586 336.69833
1487.9463 336.32053
1483.3174 334.46356
1483.9703 340.28754
1479.4498 338.47382
1474.118 338.82248
1467.5984 338.56934
1461.543 340.56833
1455.5134 340.72443
1450.0529 342.89105
1444.9445 340.11008
1450.2438 336.17264
1456.862 334.44208
1451.8815 328.76855
1456.8867 327.7762
1459.4576 323.37012
1463.9922 324.54138
1464.1057 331.2865
1471.8513 332.4461
1477.8103 332.93152
1481.1572 328.69604
1485.5756 327.10852
1487.3369 331.4547
1493.1892 331.7518
1490.3901 326.76837
1494.9667 326.2777
1498.5138 322.64838
1494.8247 316.81512
1491.1992 319.49957
1487.8121 322.023
1482.5885 322.91107
1483.5085 317.25476
1482.4521 311.51505
1488.438 313.58063
1493.0582 310.02954
1487.7334 306.3222
1481.9077 305.64328
1473.6572 304.76157
1481.2742 299.1252
1489.7992 299.77112
1495.814 302.16858
1497.899 306.3127
1498.8567 311.69388
1500.2949 316.67896
1504.5929 320.1147
1503.4851 325.98926
1499.754 330.53387
1497.4893 335.63702
1502.5923 336.94666
1506.7656 331.47745
1510.2231 325.1052
1515.4844 321.48193
1509.8145 317.63696
1505.1803 313.38513
1510.627 310.3659
1515.7927 315.16064
1518.4 309.75995
1524.6292 308.85144
1532.5415 307.93414
1540.2845 303.93805
1548.7183 298.46094
1547.3624 305.2616
1542.7488 314.0895
1544.4326 325.81314
1527.0813 321.23474
1518.8096 327.35843
1515.9501 332.25412
1513.6073 338.19537
1507.838 337.8918
1506.9893 343.3061
1513.8984 344.91833
1519.9451 342.32492
1521.0356 348.29684
1515.5076 351.78735
1520.593 354.46457
1519.7413 360.27118
1514.6265 357.9388
1509.437 354.72726
1510.3956 348.99744
1505.1836 350.18164
1501.6603 345.37204
1499.8104 350.83456
1494.9622 348.1781
1493.9961 353.6158
1498.7915 356.2199
1503.8761 356.79636
1508.4374 360.12573
1512.5181 363.1908
1512.3064 368.62534
1507.75 365.72668
1506.0028 370.20544
1510.2998 373.4093
1511.2812 379.06097
1517.1373 378.69116
1515.1086 374.0804
1517.381 369.31488
1517.5378 364.5454
1524.4348 364.13013
1522.8792 368.841
1520.5433 373.3288
1523.7566 376.6263
1527.6603 373.85336
1528.5785 379.979
1534.3628 381.09613
1533.5673 374.70944
1528.8813 369.44635
1535.5771 368.58762
1535.8647 362.93127
1530.2921 364.92746
1529.9404 359.1322
1524.7544 358.63022
1526.583 352.9813
1527.3694 346.4812
1530.528 341.03424
1533.4836 336.21777
1538.9097 337.80963
1545.139 334.44144
1545.1473 341.1438
1551.8381 338.70782
1550.8212 331.97827
1558.0555 330.5318
1559.1453 323.9259
1558.0712 314.67972
1558.936 308.76428
1554.813 303.0793
1560.6796 303.16815
1565.0573 299.95734
1567.2308 306.77057
1564.9685 313.25464
1566.4285 320.46118
1565.7892 328.0484
1565.3674 335.02017
1559.3632 337.64288
1563.353 343.3049
1557.5286 343.40582
1552.3987 346.0112
1546.162 347.3425
1540.3577 345.76218
1534.8362 345.70605
1532.105 351.53964
1535.2206 357.13605
1538.5719 352.31198
1544.122 353.97067
1550.7183 351.94394
1555.3557 356.43018
1559.5586 350.2976
1561.4113 357.5942
1567.8645 354.75842
1576.9276 356.7871
1573.0237 362.22064
1579.3202 366.7868
1579.9504 374.1458
1573.2717 373.8846
1569.8088 379.49915
1567.0771 385.96796
1558.8 386.22644
1551.248 387.20544
1554.2346 380.1718
1556.4733 373.65878
1562.3958 379.69745
1563.9072 372.7906
1570.383 368.958
1565.0665 364.6505
1557.4603 365.68872
1552.0974 367.73322
1548.6469 360.06006
1541.4305 360.47653
1546.856 365.24997
1542.1458 367.85834
1539.7769 372.97717
1540.7858 378.18738
1547.8323 373.29047
1547.0887 380.0824
1544.6744 385.98114
1539.1365 384.40442
1537.3582 390.3276
1537.0271 397.29803
1543.0996 397.24927
1545.3641 391.83444
1550.8718 396.76523
1555.3643 392.4629
1562.2783 393.60907
1570.4349 391.30344
1574.8131 386.42194
1576.1326 380.83398
1581.6438 380.95856
1585.6836 376.61865
1591.3002 377.05957
1596.0702 380.8871
1591.5769 384.8529
1589.9766 389.74567
1586.907 383.18518
1582.199 387.1828
1578.0809 392.21613
1570.5173 396.8099
1573.1727 402.8766
1578.1659 398.34967
1579.145 405.89612
1584.594 403.8796
1584.3441 410.94025
1580.403 415.63153
1584.1876 424.3578
1585.5781 418.5738
1591.3992 414.48035
1590.0155 409.18512
1592.1919 404.26947
1589.5398 399.52707
1584.4307 397.66696
1584.8462 392.48218
1592.2728 394.39087
1595.7396 398.89868
1599.7273 403.32166
1596.739 408.7379
1600.3768 413.6336
1604.0073 408.45602
1607.8374 415.23056
1609.5247 421.474
1602.9578 420.27975
1596.5774 417.78168
1591.3403 420.70764
1589.606 425.50583
1597.3348 423.58783
1595.238 428.53815
1590.4082 430.85858
1585.5685 430.94678
1584.6825 436.864
1589.7723 436.4323
1595.2104 435.79657
1597.1653 442.05396
1592.1456 442.59796
1586.3901 442.62653
1588.9294 448.8807
1589.4515 456.19067
1594.9536 451.67792
1599.0883 457.6789
1593.5137 461.71722
1588.1675 463.1452
1589.2012 470.9931
1593.937 468.675
1598.4211 464.63083
1600.8762 470.53796
1596.3928 474.5184
1595.2936 480.15903
1589.8552 477.16144
1589.8723 483.93085
1591.6213 491.0999
1597.1194 493.2035
1599.825 499.20923
1593.1185 499.1056
1592.5786 505.5063
1591.5256 512.1789
1597.1875 513.1975
1603.1753 511.74033
1598.9744 505.89902
1606.2864 501.74103
1604.7877 506.26596
1609.1006 509.27377
1609.459 515.3027
1602.8938 517.66724
1601.9398 523.39453
1594.9728 519.854
1596.5182 527.1026
1594.3302 533.30237
1594.7563 541.01025
1599.6208 548.4354
1607.8218 556.9616
1597.5131 566.52356
1599.829 574.9211
1612.4524 583.3307
1613.6453 594.3451
1605.1311 593.2311
1601.0103 601.0414
1611.1854 602.25824
1606.302 608.82764
1613.0166 615.7495
1611.5005 623.8436
1604.2329 624.7742
1601.78 633.7931
1610.1733 631.271
1613.823 637.879
1607.0597 646.69336
1612.1521 653.81177
1604.9927 657.5336
1604.0251 666.2616
1613.6632 661.70984
1616.3998 668.7846
1614.1869 679.03674
1615.7303 688.8974
1606.2991 691.47534
1613.2136 697.35974
1606.1072 700.3417
1605.2858 708.9242
1610.8169 706.6902
1612.4976 713.9721
1606.9373 716.9453
1609.5166 726.8601
1619.0768 726.069
1616.1431 731.9694
1608.4243 735.56537
1620.1615 739.1521
1614.5459 741.55554
1607.7725 744.515
1610.0593 750.32587
1609.8693 766.9382
1612.94 776.53687
1619.0203 782.06683
1610.6954 788.2526
1616.053 787.78656
1622.0338 788.35126
1626.9417 788.9604
1631.33 787.8501
1631.9891 780.581
1626.375 781.44916
1622.534 776.5062
1629.9165 774.4496
1629.9619 764.1488
1623.4341 764.0847
1625.8826 770.5216
1618.9028 771.8114
1616.099 766.61475
1617.9913 759.95886
1626.5994 755.8254
1619.9529 748.20233
1627.1996 747.70306
1627.4214 740.28235
1625.1058 733.5604
1625.9642 727.27704
1626.0737 720.4504
1617.2288 721.193
1617.8712 715.05853
1624.0962 713.74963
1627.3344 710.40247
1624.1287 706.22504
1617.8295 710.6194
1618.7644 706.2028
1618.9448 700.6763
1626.5676 700.5505
1622.9177 695.26953
1624.7122 689.1062
1622.9194 682.18115
1621.9998 675.2916
1623.7167 668.9406
1623.2836 661.51056
1620.115 655.0849
1621.2196 648.9013
1615.7068 644.7992
1621.1592 640.90845
1623.4751 633.5226
1617.8499 633.39453
1619.8079 627.333
1619.0339 621.5856
1619.9291 615.36707
1618.3435 608.6704
1619.4954 601.6372
1620.8629 593.9918
1617.6086 587.3929
1618.7339 579.8619
1618.2499 572.4464
1612.2924 575.4646
1605.8857 571.19775
1605.7303 562.88794
1612.5005 566.83374
1619.3828 565.3645
1615.5215 559.5018
1616.4329 553.38293
1610.4219 550.82056
1616.5272 546.3933
1610.1985 542.1352
1615.627 539.26965
1610.1859 534.3484
1605.9296 537.66895
1601.8008 542.1619
1600.6396 534.561
1604.9224 529.23096
1615.506 533.0248
1613.0376 527.2814
1608.3492 522.5739
1613.7505 519.6714
1614.1284 511.00888
1612.7219 504.41318
1611.6753 498.33203
1610.4929 491.69354
1605.9622 496.39413
1603.3088 491.86432
1605.6968 485.9156
1600.2179 486.51605
1595.2173 486.0127
1601.3904 479.79785
1608.4736 480.4277
1611.3624 485.17307
1611.14 475.5658
1604.9823 475.24994
1607.2883 469.80316
1609.2618 465.16895
1603.666 463.25082
1609.0302 459.50073
1619.7137 450.82404
1614.1521 444.53305
1611.5674 434.7695
1606.5447 437.52527
1608.2928 441.95105
1605.7664 446.94702
1608.8296 451.16357
1606.5691 455.7854
1602.297 452.31772
1599.0964 447.46164
1602.586 442.3032
1601.7256 436.59668
1599.5752 432.0499
1602.9895 426.57642
1606.2295 431.16864
1611.1968 427.08228
1617.5535 429.91586
1616.5796 422.3606
1616.0657 415.91943
1617.0544 409.74744
1610.7808 410.3962
1609.3893 404.8337
1605.3356 400.97495
1600.9939 396.91245
1602.2495 391.592
1597.3379 391.06174
1597.4224 385.97736
1602.5168 377.963
1608.481 377.15466
1611.5853 383.85095
1603.4834 383.5814
1606.7109 387.80612
1614.1802 392.06537
1608.0901 395.44394
1612.4519 398.96466
1615.2468 403.101
1618.9238 394.63184
1621.1208 399.7264
1620.3208 404.6989
1624.893 407.96857
1625.0443 413.95627
1623.1509 420.38583
1624.2587 426.86694
1621.8519 435.1974
1620.2815 441.87753
1636.2081 439.86322
1648.065 437.96555
1653.3962 426.3635
1653.457 411.14294
1641.6182 408.328
1643.767 415.22626
1640.7148 421.53854
1644.6345 427.56976
1639.116 430.73938
1632.1011 430.14352
1633.0565 421.3656
1634.0363 413.6218
1638.3499 402.46982
1628.2156 402.7628
1625.4469 396.14355
1621.5305 389.01917
1619.229 382.50473
1614.731 377.1737
1618.0156 371.72717
1619.0854 365.20493
1611.0035 369.9558
1603.1969 370.9758
1597.2317 375.00925
1595.6611 368.811
1587.9956 370.88818
1587.7751 364.51804
1592.5972 361.0909
1599.8369 360.75168
1605.7572 364.42822
1612.1653 362.60504
1609.9126 356.78925
1604.9883 353.14243
1610.7742 350.07513
1616.1112 345.13348
1617.8892 357.08115
1620.998 351.01825
1624.116 344.4773
1622.2917 338.5968
1613.96 338.9973
1608.513 343.43713
1603.7836 346.06647
1598.4701 341.12518
1592.2158 336.19113
1586.3466 337.33862
1580.2776 340.06207
1584.4524 344.95175
1588.1094 349.99066
1591.0839 343.02667
1595.3036 347.11737
1598.9905 351.87692
1593.1713 354.2186
1585.9524 356.62082
1579.4851 350.10376
1572.7444 344.7896
1574.4773 335.95224
1573.7018 328.52612
1581.8746 330.61633
1588.829 328.39294
1595.1317 330.93985
1599.523 335.2301
1600.8906 327.96716
1606.2097 331.40802
1606.6003 337.78406
1612.0621 332.17197
1618.9684 333.24927
1624.9473 330.37418
1625.665 322.90485
1634.2477 323.21005
1629.0326 315.23068
1626.0989 304.94867
1619.3865 313.77414
1618.1382 319.85062
1616.016 326.19543
1608.7 324.86176
1609.9344 318.8999
1609.7273 313.49957
1609.2397 308.5995
1611.6582 303.68494
1605.8323 303.3131
1598.5496 307.07123
1600.3511 314.08722
1601.0796 321.02353
1594.7566 324.35846
1593.7406 317.81763
1583.7332 319.30133
1578.1091 323.10544
1573.0056 313.9359
1580.4727 310.13873
1587.1409 312.63153
1587.9177 304.97693
1580.3052 300.7964
1574.593 306.16785
1572.137 299.79208
1574.7349 293.0567
1578.3812 286.6492
1582.2388 293.55573
1588.2734 297.1214
1599.2468 298.6995
1606.4014 296.23453
1595.9873 290.338
1603.4768 288.50677
1609.072 289.52704
1613.9172 293.1647
1611.7413 298.2765
1617.0032 308.28897
1617.0345 301.43365
1620.7573 296.8651
1623.5 288.8214
1614.4425 286.0052
1609.8767 279.98114
1603.0999 273.2758
1599.2631 266.08356
1601.5637 258.72687
1604.3784 249.53748
1608.2795 254.95444
1613.3523 259.68094
1607.4014 263.8965
1612.2631 268.99698
1616.4226 273.76773
1621.442 279.53207
1628.2982 282.8462
1632.1194 288.67514
1628.8091 295.32452
1635.4757 294.6847
1634.8467 301.4716
1641.3345 306.20013
1634.4282 308.89648
1638.9829 315.66162
1643.7488 322.493
1650.4851 318.52838
1645.883 312.21652
1652.8817 310.7212
1659.7908 312.8589
1666.0181 308.96198
1667.1199 302.32843
1672.5972 297.3628
1674.2153 304.19135
1685.5997 299.1729
1687.8885 286.9446
1693.9343 285.7908
1696.1501 292.66632
1702.6034 297.41418
1697.8076 304.63983
1689.9603 304.84576
1688.9532 311.83066
1683.97 307.88495
1679.1798 310.54236
1672.634 309.89307
1668.6215 315.03772
1666.1697 320.65976
1659.3931 319.8858
1655.5267 324.9234
1650.974 327.89563
1645.3545 330.35184
1639.1449 329.36932
1632.4465 330.99823
1630.4103 338.21628
1634.4022 342.80347
1631.1577 346.6615
1636.9192 348.98105
1643.0125 349.41196
1641.6758 342.9295
1639.226 336.68964
1645.7529 336.77246
1652.0491 335.12167
1658.0836 333.6148
1662.0917 328.26428
1668.7667 327.55908
1672.5872 334.2041
1666.281 335.79742
1661.2886 340.40823
1666.2859 345.3775
1671.8839 341.76022
1671.133 351.0772
1676.2815 347.89343
1679.9097 353.31967
1676.3622 356.88852
1669.322 358.30768
1662.4888 352.83347
1659.0509 347.21088
1653.9768 341.89893
1647.4221 343.03302
1650.8501 349.11395
1653.8562 358.39514
1644.8479 356.0752
1638.48 355.39685
1632.651 353.65826
1627.781 351.3862
1626.293 357.154
1633.083 359.97186
1625.4402 362.75803
1625.7024 369.65952
1623.3484 376.25803
1625.346 382.96906
1628.4623 387.9891
1629.6201 392.61865
1632.9924 397.66492
1636.7792 392.9847
1636.0762 386.71967
1631.848 383.0145
1629.437 377.38348
1632.9668 372.4311
1632.4458 366.0052
1640.1255 361.88446
1642.1986 367.7251
1641.7712 374.32187
1636.4332 378.7647
1642.3357 382.40094
1642.728 387.93857
1642.885 395.26837
1647.4008 401.0825
1657.1432 397.38684
1649.8901 390.5234
1675.56 364.057
1683.3715 360.10236
1691.9877 362.20456
1694.5691 353.86145
1688.341 354.19577
1683.8281 351.16858
1687.5834 347.3397
1681.711 346.1903
1684.9104 341.5547
1686.2133 335.37247
1678.394 341.19904
1679.2611 335.28552
1683.3325 329.61652
1676.1896 328.09552
1673.7625 321.61182
1676.8154 316.20496
1684.9459 316.7701
1681.3512 322.6546
1688.3286 323.95355
1691.5249 330.57748
1697.7592 333.12936
1704.3387 333.2574
1708.1604 338.8367
1712.7522 334.80234
1709.1975 329.36328
1705.1477 325.6893
1699.1912 326.6344
1694.9614 322.94708
1693.8129 317.0291
1695.0669 310.04327
1700.9565 313.35162
1703.285 319.66907
1708.8849 314.92188
1712.3615 321.05298
1714.3173 326.50867
1718.6884 329.3855
1720.5886 322.48456
1716.339 315.54828
1723.1434 314.0848
1724.7928 307.2569
1730.1543 306.32663
1733.7701 302.59186
1738.6403 298.84442
1743.3434 303.5968
1745.8901 309.37836
1737.8896 308.4169
1731.8169 313.0513
1741.8677 315.93622
1748.0825 319.633
1750.588 313.52383
1753.5907 307.08966
1752.2065 299.10352
1746.565 296.63965
1750.4132 290.95508
1742.1831 291.6491
1736.021 292.04303
1730.752 297.23343
1724.3854 300.5319
1723.635 293.8959
1729.3605 291.4975
1732.2748 286.27814
1729.4619 281.42593
1730.6382 275.93378
1737.0693 276.9925
1737.7385 284.03452
1744.6074 285.12805
1744.5743 278.42224
1752.9442 282.5663
1761.6819 292.03525
1759.2281 300.8583
1760.8281 311.88773
1753.6357 318.48645
1745.0149 325.24985
1751.3938 325.1392
1755.893 324.51526
1755.756 330.66452
1752.1863 335.3448
1749.2405 330.18823
1742.8574 332.243
1741.3339 339.46948
1732.6152 337.15643
1734.9431 343.3869
1730.7482 349.3376
1725.6992 344.5011
1724.3339 352.24985
1724.6078 360.164
1729.4878 365.78915
1731.4111 356.5206
1736.1624 360.94748
1736.3373 368.13388
1732.9397 373.30194
1739.1482 374.94128
1738.2899 380.24408
1732.0007 379.28635
1734.6536 385.88815
1744.2131 383.04553
1741.3507 387.79648
1743.2161 393.8424
1745.3696 402.37653
1737.1667 408.9969
1736.4011 400.22882
1734.8893 392.7057
1726.109 384.76987
1722.8853 377.1996
1726.5305 372.5016
1721.1727 366.57123
1718.1141 357.06683
1711.9767 353.42343
1710.897 361.0108
1710.7095 369.88684
1701.2509 366.50864
1701.4025 358.84113
1701.8604 352.58905
1698.1367 347.23926
1692.5066 346.46027
1690.4055 339.8061
1696.1669 340.2159
1701.5737 339.5734
1704.5465 344.99704
1707.8875 349.91235
1712.2517 343.80853
1718.1124 348.2639
1718.7125 341.34274
1718.8522 335.44037
1725.864 337.81403
1724.4125 330.28192
1729.9127 330.6968
1736.2529 332.04224
1737.8256 325.61603
1736.1709 319.19025
1730.5961 324.5149
1727.9982 319.11603
" />
</g></g></svg>
