<?xml version="1.0" encoding="UTF-8" standalone="no"?>
<!-- Created for Inkscape (http://www.inkscape.org/) -->

<svg
   xmlns:dc="http://purl.org/dc/elements/1.1/"
   xmlns:cc="http://creativecommons.org/ns#"
   xmlns:rdf="http://www.w3.org/1999/02/22-rdf-syntax-ns#"
   xmlns:svg="http://www.w3.org/2000/svg"
   xmlns="http://www.w3.org/2000/svg"
   xmlns:sodipodi="http://sodipodi.sourceforge.net/DTD/sodipodi-0.dtd"
   xmlns:inkscape="http://www.inkscape.org/namespaces/inkscape"
   width="567"
   height="800"
   id="svg2985"
   version="1.1"
   inkscape:version="0.48.1 r9760">
  <defs
     id="defs2987" />
  <sodipodi:namedview
     id="base"
     pagecolor="#ffffff"
     bordercolor="#666666"
     borderopacity="1.0"
     inkscape:pageopacity="0.0"
     inkscape:pageshadow="2"
     inkscape:zoom="0.35"
     inkscape:cx="1600"
     inkscape:cy="400"
     inkscape:document-units="px"
     inkscape:current-layer="layer1"
     showgrid="false"  />
  <metadata
     id="metadata2990">
    <rdf:RDF>
      <cc:Work
         rdf:about="">
        <dc:format>image/svg+xml</dc:format>
        <dc:type
           rdf:resource="http://purl.org/dc/dcmitype/StillImage" />
        <dc:title />
      </cc:Work>
    </rdf:RDF>
  </metadata>
  <g
     inkscape:label="Layer 1"
     inkscape:groupmode="layer"
     id="layer1"> 
     <g>
<path style="fill:none;stroke:black;stroke-width:2px;stroke-linejoin:round;stroke-linecap:round;" d="M 
1439.4152 323.95416
1446.7755 330.97665
1455.6979 336.52444
1458.5688 324.7861
1468.3716 321.32272
1464.2313 332.03598
1471.3062 335.88217
1477.783 327.98398
1478.7014 317.9249
1476.6284 308.54443
1467.0336 302.0602
1466.5211 311.13068
1457.3763 313.9118
1449.9856 321.5081
1444.5142 313.02557
1450.6825 305.78833
1457.797 300.5442
1448.0009 293.8255
1452.4685 282.8447
1457.7928 290.3773
1466.5414 292.8362
1465.9285 283.8299
1459.6833 278.1523
1451.8445 272.08655
1437.9244 274.62735
1434.1343 286.29453
1431.3716 299.34198
1429.0906 314.13235
1413.02 306.91937
1396.3606 307.86533
1397.0231 293.58694
1414.9309 288.74548
1424.6372 273.06915
1433.2676 256.61926
1420.3259 243.68878
1426.8257 232.69492
1442.8909 240.3046
1437.8083 230.58855
1443.4166 223.76006
1450.4438 231.03062
1454.5914 240.58395
1448.6779 250.16191
1458.3527 249.70477
1457.481 258.72134
1449.1293 261.58185
1458.8628 268.8011
1464.2646 263.52026
1470.3989 263.0339
1474.7942 270.4395
1467.2651 273.5312
1474.052 280.23227
1475.416 288.96967
1475.7756 297.90283
1486.0386 293.12552
1484.3131 302.2708
1493.5044 304.2614
1502.6226 304.10074
1501.9014 315.7493
1500.666 326.8621
1488.7725 312.26395
1489.7 321.62177
1489.236 331.76672
1482.1548 339.7386
1471.9618 347.04468
1482.6959 351.16797
1491.1663 357.42413
1473.2291 359.3343
1481.8676 369.1928
1501.6687 370.42453
1503.4182 351.66977
1493.714 343.0926
1504.6641 337.41608
1515.3064 343.50836
1515.3066 329.10645
1514.5442 317.23663
1512.7429 307.06757
1518.6669 298.66882
1525.897 291.13968
1535.5751 284.61
1535.4344 273.97595
1525.2124 279.30313
1515.5548 286.74045
1508.3926 295.37872
1496.9072 294.58084
1493.136 286.01154
1504.3572 286.3794
1506.664 276.72668
1515.1448 276.5193
1510.7512 266.34735
1519.6704 258.4619
1521.2605 268.95404
1530.0747 265.46237
1531.7434 255.81287
1541.7892 264.12323
1546.7178 275.84094
1554.6073 266.8335
1567.1366 267.17108
1577.752 268.77417
1576.4427 279.0804
1562.47 280.5791
1552.5208 296.13382
1541.2711 300.93414
1546.0308 311.27966
1530.3706 309.9348
1535.2329 323.3181
1535.1284 341.6992
1553.4395 345.63745
1555.7043 328.3927
1570.5006 337.85965
1568.6387 352.31012
1584.286 348.31427
1598.2922 352.32727
1595.2317 340.01996
1609.3647 341.46384
1617.9797 330.71332
1622.6232 345.96887
1634.5808 355.8309
1623.2542 359.8499
1630.9893 371.0344
1615.1373 370.76276
1611.896 354.7678
1603.7349 364.54303
1590.4897 364.6528
1598.9663 376.41864
1592.2668 386.2335
1578.8317 387.99738
1580.0518 375.54602
1577.563 363.01312
1562.0645 365.9499
1565.1622 381.42758
1569.5952 394.41937
1577.4277 403.85324
1584.444 412.5301
1589.2593 399.2752
1602.8364 395.86334
1609.7411 384.95102
1622.3379 382.26953
1633.6628 386.09933
1646.7579 391.56293
1646.8008 406.57965
1636.8739 412.39526
1640.1838 424.0576
1651.3157 421.15735
1659.7903 413.75424
1658.3475 401.73215
1660.2329 390.04437
1656.8506 378.21338
1644.185 377.32812
1643.7698 364.76514
1656.6123 364.03708
1668.2347 371.3381
1670.1582 359.89526
1675.057 349.0178
1673.2179 338.20325
1661.6123 336.7923
1657.4258 325.47232
1670.2659 324.81427
1668.9993 311.61154
1682.0845 317.18127
1694.1487 313.58124
1694.8204 328.82327
1682.7386 330.57678
1687.9923 343.60458
1700.9451 344.28027
1708.0068 332.83734
1717.7712 339.2145
1712.2274 353.58417
1720.2954 366.62457
1707.3126 368.8845
1697.1145 358.89392
1684.425 358.16705
1682.1609 371.3834
1694.6384 375.36972
1706.0375 383.99847
1719.7925 381.5161
1705.935 398.67804
1694.6682 392.46555
1683.7954 386.66803
1671.6506 383.02728
1672.0356 396.5444
1672.6543 409.12317
1670.8977 421.13586
1661.9044 430.0732
1658.5198 442.38937
1648.3359 448.22034
1637.9094 445.45895
1646.9298 434.53427
1631.6477 433.94562
1627.8015 421.46323
1617.3574 428.34106
1614.8606 415.2154
1624.713 408.3963
1634.1001 398.8897
1618.7716 396.8081
1606.8347 407.16394
1596.1372 411.97006
1604.5083 424.06958
1592.1732 424.3736
1580.8574 423.43637
1570.476 416.32333
1564.6912 405.5293
1556.537 413.49118
1546.7665 406.37915
1556.5596 394.85883
1541.215 390.78915
1549.188 376.75665
1542.6075 360.2212
1522.0569 359.55527
1531.2626 375.17535
1515.8066 379.56552
1523.3557 391.07
1531.619 406.07953
1523.9446 419.03256
1514.5223 431.25128
1511.5947 446.13293
1510.9985 461.50497
1519.5234 473.38428
1534.5436 472.19785
1540.4316 482.97772
1529.0182 484.39795
1533.473 495.10052
1545.7164 494.91602
1556.515 490.50262
1552.0822 478.0376
1545.534 467.03906
1532.8328 459.51514
1527.8761 447.38562
1533.124 432.80182
1543.8359 421.95355
1558.9323 425.2848
1552.2686 434.92004
1543.2642 443.0953
1546.0927 454.0376
1559.0281 448.0029
1567.1772 439.44244
1570.4814 428.5937
1581.7278 435.9245
1579.0858 447.05258
1569.9424 456.26196
1557.5914 461.8297
1564.6858 472.21515
1566.9248 484.47314
1568.9441 499.63754
1558.3699 503.7833
1549.7299 509.35934
1540.0332 505.51547
1529.1594 505.42303
1517.6589 507.77814
1505.9501 512.0746
1514.1426 522.0747
1507.9785 533.4414
1520.0317 533.75977
1525.4004 525.81165
1525.6946 516.8965
1534.3667 514.94904
1543.6208 518.9495
1535.7494 525.78253
1530.0964 534.2022
1539.587 536.7188
1548.1035 529.5188
1555.051 520.5869
1564.2576 515.6417
1575.3003 512.8073
1582.3812 503.10617
1589.0449 513.0193
1572.2427 526.28296
1572.7236 539.2357
1561.0369 532.21375
1550.9933 540.57104
1561.0347 546.3684
1571.1277 552.5365
1574.1842 564.2832
1560.2897 562.4445
1551.2393 554.83923
1542.6738 547.9992
1537.0647 557.934
1546.2424 566.5146
1543.6938 578.21826
1556.0564 577.41547
1566.832 573.5701
1577.4462 578.4754
1585.6653 571.0025
1584.6892 559.5796
1583.5637 548.49176
1585.1398 536.5495
1584.2085 524.5393
1597.4209 521.61237
1597.7651 532.1676
1596.9069 543.7135
1596.1125 554.94006
1595.7819 565.53314
1599.8171 574.27966
1590.4847 581.5196
1596.2546 592.2201
1590.8097 600.718
1595.8972 611.1393
1598.4124 621.2802
1591.1694 629.685
1586.7382 639.8368
1595.153 647.8678
1601.551 656.5529
1612.7388 655.2722
1608.1567 644.2234
1601.432 635.24316
1616.01 631.90686
1609.9451 624.2641
1611.3068 613.45715
1606.1506 603.61597
1608.5707 593.92346
1604.0259 583.39844
1612.9738 574.2114
1616.7488 584.9298
1626.6292 580.3768
1636.6139 574.1913
1647.8157 572.55566
1659.5508 571.8746
1654.5681 584.3783
1663.7698 594.9352
1669.6136 581.9298
1679.9319 571.7746
1685.2238 581.5713
1681.4438 591.8506
1675.587 600.8975
1676.7606 612.6141
1686.5925 608.56616
1693.9249 600.89856
1697.4718 590.3396
1712.3485 593.5073
1707.5483 604.07
1709.1958 617.08124
1697.3124 614.87885
1702.1938 626.8818
1712.8978 630.12024
1726.5654 641.5508
1715.8124 641.7908
1702.2715 639.7061
1705.3734 650.8454
1715.6306 656.25806
1714.0073 667.6727
1702.074 664.3693
1693.0798 655.84174
1689.9719 643.56464
1679.6296 649.97925
1668.8433 657.6121
1659.7029 667.1626
1655.3219 653.75134
1648.5426 661.71875
1645.06 672.46045
1633.5748 679.17896
1644.9246 686.1947
1658.0082 680.0438
1671.9929 672.81104
1681.6837 662.82043
1689.4645 672.90967
1701.5676 678.13403
1709.2836 687.28174
1716.9592 677.9429
1721.2866 689.8962
1728.8206 680.4316
1727.3306 667.31036
1738.5339 674.1675
1742.2422 665.39624
1725.8541 653.7703
1735.7516 657.04175
1747.0269 655.05994
1752.2112 646.31824
1738.1187 644.68005
1748.1826 637.5863
1753.2933 627.4247
1743.7153 618.0107
1731.7578 616.37964
1741.0691 629.0509
1731.7578 631.6046
1722.5757 625.24725
1719.4414 611.6958
1726.9846 602.5191
1739.7858 605.82086
1750.8345 601.6992
1740.5349 592.7399
1726.2488 591.3611
1733.0657 581.7106
1747.5267 581.28973
1756.0476 589.0852
1767.0132 582.725
1760.419 572.0437
1748.7036 569.4741
1737.935 571.79376
1732.6323 562.72925
1742.726 557.758
1739.3031 545.5486
1743.5701 536.27515
1740.5688 524.51636
1731.545 532.1204
1728.571 522.2128
1732.6836 513.119
1743.2699 514.4712
1738.2048 503.37244
1740.4159 491.64832
1748.902 497.1296
1751.0922 508.1997
1753.983 519.30963
1751.5969 529.26776
1756.7102 539.8746
1751.0363 548.3458
1754.5894 560.33813
1763.0016 554.8441
1767.7832 542.92255
1763.6013 530.828
1764.4696 520.04834
1762.5171 509.99017
1759.7864 500.40033
1758.8674 489.399
1750.2598 482.8757
1739.5315 478.66107
1731.2761 485.77655
1728.4575 495.8768
1724.637 505.17755
1719.9497 514.4095
1717.605 525.4337
1717.7042 536.10156
1728.0258 541.35016
1718.7358 548.1024
1711.4551 556.61194
1730.6222 552.11774
1721.812 560.5495
1724.457 572.23846
1718.2963 581.86365
1706.4785 580.78375
1695.916 576.83606
1712.2715 569.45404
1701.4224 564.8915
1690.4441 551.8141
1701.4165 552.2292
1706.3213 542.2893
1705.8164 529.775
1694.8977 524.629
1693.4229 537.8702
1680.4076 540.0507
1680.0061 557.0969
1690.1069 565.6358
1670.6641 567.0055
1664.0282 558.1439
1670.9485 549.1601
1656.2997 545.5585
1666.0745 537.2841
1669.6478 525.7798
1681.0691 525.8736
1685.8608 514.38074
1697.9994 510.92746
1707.6417 517.66614
1711.5404 506.66855
1702.9567 499.7258
1715.7052 496.13852
1720.0143 485.63538
1725.2026 474.99017
1712.5483 474.17072
1707.5935 486.34375
1695.8176 491.5958
1687.1045 501.99805
1673.0173 510.20135
1661.9791 495.7312
1674.5631 496.23297
1684.483 487.46442
1671.6514 481.9808
1669.4545 469.39093
1655.0276 470.44623
1657.9805 483.67505
1645.2585 484.72992
1635.4833 495.55026
1646.8242 500.70184
1657.8555 507.15924
1660.7517 518.15796
1654.0835 529.2709
1645.0366 537.5943
1642.9368 549.1848
1653.0706 559.04504
1641.4006 561.2307
1630.605 553.59595
1629.8374 565.80054
1619.5994 564.3406
1607.579 563.10364
1608.3357 551.42596
1619.6864 549.62994
1609.5157 538.29395
1611.0149 525.1278
1603.7607 512.48987
1597.4855 502.52118
1589.008 493.7572
1578.002 490.5837
1579.9832 478.92755
1577.0857 467.78815
1584.1136 458.4375
1595.1992 459.6914
1591.7506 471.17194
1592.6378 482.31842
1600.1091 490.77182
1610.9622 493.96436
1611.8456 503.5185
1617.3977 514.12573
1626.111 523.1147
1621.1316 534.845
1631.8381 539.91235
1638.322 527.07184
1646.3345 516.4084
1634.0972 511.50214
1624.1577 503.53586
1622.957 490.50287
1609.3661 483.85187
1604.6062 475.07092
1604.8607 463.76865
1615.8762 466.28793
1618.2278 454.555
1606.2341 451.3308
1593.3271 447.80164
1593.8824 435.91864
1605.5009 438.16623
1616.944 440.4422
1626.5897 445.4854
1631.8745 456.89038
1627.6938 467.57104
1619.3497 477.9801
1632.0796 480.7475
1640.9144 470.77832
1645.0065 459.6522
1658.7897 456.8966
1671.1227 456.16705
1683.5552 461.19763
1684.7373 473.1555
1696.0575 479.26013
1701.3602 468.84235
1711.4705 459.20407
1696.9094 457.89743
1684.168 446.8584
1670.8209 442.5223
1678.3663 431.7762
1685.3948 418.1333
1684.8633 402.47607
1697.0632 408.77905
1712.2986 411.7451
1718.4392 397.31158
1732.1667 394.97205
1735.6724 381.81134
1748.4175 394.1316
1753.7655 382.285
1766.5098 369.98846
1786.6189 366.27808
1774.74 352.83252
1758.1729 350.88635
1763.5016 334.38745
1780.5565 335.4945
1781.907 316.7203
1764.9766 317.2479
1773.501 299.30164
1760.4443 281.47464
1762.9401 266.30115
1741.6171 253.2365
1755.2866 253.82675
1767.6957 250.37616
1760.1833 237.2338
1748.8403 243.76184
1742.3186 236.21164
1740.7705 225.76903
1730.6343 228.90268
1729.7617 239.56796
1730.6793 250.30595
1732.8488 263.2282
1744.4412 265.63495
1747.5991 275.98044
1746.2379 287.65735
1734.5448 278.68106
1723.7356 271.33118
1720.5814 260.2623
1717.033 248.55487
1717.6105 236.4636
1719.6346 225.9367
1711.1448 217.2948
1720.2058 213.98001
1713.3374 207.56131
1720.9824 203.2509
1728.1777 198.22159
1728.451 189.22289
1719.3577 191.49187
1712.375 198.0515
1702.6946 196.44658
1693.0757 194.27777
1690.9563 184.95726
1700.233 185.8117
1709.5449 188.38518
1715.8528 180.58366
1715.2025 168.36404
1724.5354 169.05472
1724.6741 180.17938
1738.5133 188.46024
1734.8381 180.81198
1733.5638 171.18494
1739.1399 163.3196
1753.2495 160.53973
1757.8418 170.08391
1744.5212 174.61249
1752.7942 180.2261
1758.63 187.53984
1765.1794 194.0326
1755.9324 199.54192
1764.6787 207.16917
1756.105 213.15894
1748.1951 208.57457
1746.657 199.6438
1747.5393 189.38104
1737.466 197.77206
1738.8751 207.22757
1729.4346 207.9652
1727.2188 218.96167
1735.7114 216.52133
1745.9795 217.49112
1752.3958 226.95738
1762.2683 222.44633
1782.0223 227.42741
1786.6018 206.4903
1776.471 188.81944
1766.8729 177.96204
1780.083 160.38734
1781.4606 133.5529
1771.7689 107.05643
1800.8147 95.057304
1809.9274 121.86601
1809.0698 153.71083
1806.3666 183.25566
1812.2605 218.18364
1792.302 246.2869
1782.252 271.81622
1810.1279 268.02567
1801.4374 295.34015
1815.9231 322.48883
1797.2395 346.95428
1812.2983 365.9806
1802.2576 387.41208
1798.6943 410.45172
1781.8062 400.51556
1782.8259 383.10556
1767.4556 389.13806
1763.3551 406.29636
1746.6884 408.48267
1729.6907 409.71344
1721.506 421.91455
1710.4557 432.55673
1700.9954 422.48218
1691.9451 433.0739
1698.339 444.59833
1711.6843 445.73712
1724.4384 449.23657
1724.0902 462.13647
1735.4929 466.80316
1740.9524 454.78757
1746.8851 439.76624
1735.1348 441.72983
1726.9762 433.20346
1740.2983 423.3423
1754.6206 425.562
1768.7118 420.73737
1783.097 418.44186
1798.2053 432.48926
1783.5338 437.27182
1767.8107 435.4421
1758.2632 445.87436
1756.9542 458.85175
1748.3591 468.85275
1760.6807 473.50366
1768.281 482.54034
1770.6824 493.78607
1772.1431 503.70044
1781.139 484.90308
1776.9941 472.97922
1771.5133 463.1914
1773.1655 450.29706
1788.6758 455.04953
1789.636 472.92517
1805.5449 480.79572
1794.3898 487.39685
1795.3062 499.3946
1783.3342 496.0393
1782.4795 506.7433
1791.7759 509.80966
1795.1683 518.03564
1797.9609 527.3092
1801.6306 537.2351
1795.17 546.7273
1789.3438 536.4214
1786.0869 526.4298
1782.7063 517.73755
1773.2129 514.2493
1773.9679 525.6498
1776.7274 535.0016
1781.0579 544.47546
1785.3337 554.0642
1773.7997 554.6019
1771.6836 567.19525
1784.1677 564.994
1779.6362 578.6012
1791.2 574.351
1798.8895 585.09766
1788.1785 590.5358
1776.5536 591.7107
1772.1392 601.31793
1761.8815 600.05615
1754.5228 614.20123
1766.153 612.2573
1781.367 608.0894
1793.0332 601.9125
1804.877 609.7337
1806.9149 596.76337
1822.1483 596.97754
1818.1128 611.3625
1834.8098 609.94653
1827.187 622.96783
1835.2358 634.65173
1831.8512 650.96643
1821.0072 665.0673
1812.8943 652.5974
1820.4014 640.76654
1813.9639 628.9824
1803.9994 623.0704
1792.853 615.90247
1783.6846 622.9608
1773.8164 620.3803
1764.1389 625.44226
1763.4626 637.1387
1763.3301 648.0052
1759.7195 657.7416
1753.3271 665.5294
1765.1317 669.01514
1762.853 679.56793
1775.1034 680.3202
1768.1757 689.5393
1768.25 699.5652
1769.7648 711.459
1771.6074 722.9424
1781.696 729.01044
1770.4006 733.9907
1761.2094 728.8239
1760.2944 718.31226
1758.9144 707.7117
1755.6282 697.7932
1754.0748 687.5874
1751.326 675.8303
1741.7654 684.3935
1743.9082 696.162
1732.8677 692.79517
1725.0353 701.3541
1728.1791 713.6898
1735.8635 705.6168
1746.7424 707.38696
1749.2517 717.1494
1738.6038 718.3032
1742.4507 730.35205
1751.4363 726.822
1751.1735 738.487
1742.5092 742.0173
1733.3674 740.45166
1724.9336 735.9419
1733.7573 728.9826
1726.5234 723.80176
1716.9097 719.2519
1716.8818 709.2048
1712.4117 699.01855
1702.9608 706.8888
1705.5667 717.8615
1692.8165 716.1474
1678.7859 715.63245
1665.4575 718.6415
1653.8816 724.8805
1642.6028 729.2866
1632.0168 732.52026
1623.726 724.3329
1632.9666 719.8166
1642.9927 714.5099
1653.9354 709.66626
1666.6957 705.17957
1678.0878 699.07684
1689.5156 703.7825
1699.9192 694.5315
1690.1289 688.4555
1679.3881 683.41785
1668.07 689.072
1656.3303 695.20764
1643.3446 699.59656
1632.325 704.932
1623.3062 711.69507
1613.9125 713.8351
1606.0546 719.5012
1613.9276 725.9182
1613.362 736.53534
1621.9116 736.9162
1615.4458 750.4979
1620.3123 765.88495
1602.2738 760.6719
1605.6543 781.1896
1624.5363 783.1193
1641.579 779.14136
1659.8816 781.5922
1665.8574 762.5398
1651.9231 758.74854
1637.8065 760.0744
1628.5486 754.3363
1628.2365 744.7117
1639.8997 741.39294
1645.0725 749.88794
1653.7509 739.1522
1661.3496 749.31805
1673.1439 742.026
1666.8267 731.30585
1679.754 730.615
1689.8687 728.3877
1699.6565 729.08044
1708.8741 728.9184
1718.4375 729.21747
1713.0596 738.47144
1723.3898 746.5002
1709.7119 747.4736
1698.7734 740.7477
1699.5393 753.52997
1687.4711 757.72485
1686.8262 744.0863
1675.512 753.6356
1682.0562 780.02997
1704.8141 780.03345
1716.0769 763.25946
1736.8242 763.2729
1729.2124 782.146
1752.806 781.9867
1776.9692 782.55383
1782.4799 762.14343
1763.3394 766.20325
1752.0829 752.5085
1760.2008 739.45447
1767.9923 745.60376
1777.7523 740.747
1787.3682 741.5327
1792.7941 729.93036
1797.0286 740.28925
1800.3083 760.53955
1817.6277 759.51556
1833.6216 763.3554
1799.23 781.69885
1820.423 782.1777
1842.1145 783.302
1849.1902 766.7675
1851.5559 743.93353
1849.4084 729.7065
1840.98 741.63025
1830.7422 739.8813
1825.1349 731.81165
1817.0632 738.63324
1806.8376 740.77515
1805.3186 729.9995
1816.0305 725.68286
1807.5803 718.03705
1798.2244 718.5397
1789.0015 718.209
1780.3601 715.3789
1779.5983 704.0864
1781.9716 692.84174
1786.645 680.93475
1791.25 668.1714
1784.2771 657.0153
1777.7949 668.77295
1771.4711 657.9873
1775.3264 646.4039
1777.147 634.19507
1788.6151 644.18396
1792.8059 631.3714
1803.4128 640.5893
1798.1514 655.2156
1806.8104 666.8518
1799.8408 678.53076
1813.6243 680.1047
1835.2023 666.11115
1830.5646 679.4509
1834.4127 696.3745
1822.6387 690.09076
1818.0765 701.1828
1807.1885 693.17694
1795.2153 690.9508
1792.0629 704.47974
1804.2295 706.13403
1816.3368 713.35565
1827.3682 709.698
1828.3015 721.4386
1839.0226 726.10803
1839.1172 711.2141
1850.9937 713.3693
1847.4263 695.9906
1847.6843 680.02454
1848.4967 663.7455
1848.4729 644.14197
1847.2286 622.53784
1848.7228 604.01746
1837.6846 593.3629
1851.3077 578.7744
1847.5725 562.15564
1834.553 552.58936
1820.9929 555.20935
1817.7261 569.9973
1831.6888 566.2827
1839.6426 578.04395
1826.1692 582.1003
1812.23 583.4008
1803.1582 571.4275
1796.6545 559.0145
1808.9622 559.8733
1808.8312 547.5109
1823.2988 541.58716
1832.9497 531.7661
1839.7329 541.8828
1850.7225 545.0802
1846.583 529.6652
1846.759 515.5577
1832.9485 517.9419
1834.9751 505.33127
1848.2135 498.79355
1833.4736 489.94977
1822.8123 500.66656
1817.6781 512.0182
1821.7888 525.1526
1813.0513 535.70874
1809.9474 525.6734
1805.99 517.0717
1804.709 506.9713
1808.3804 495.82373
1818.2295 487.16174
1825.6532 476.08673
1815.0242 466.76926
1801.6583 466.2917
1805.4587 450.563
1817.7526 437.24695
1824.8696 452.2606
1837.8875 465.78625
1847.058 480.0212
1845.4921 448.40704
1840.785 422.18774
1816.9248 419.70956
1821.373 398.40894
1842.4374 384.3685
1839.1995 347.66144
1844.5728 313.90845
1832.5798 289.19385
1844.0093 263.87076
1824.3647 244.15314
1844.5032 225.62976
1835.948 196.23795
1840.2032 168.31847
1839.4575 138.342
1838.9575 101.64086
1845.357 64.754196
1819.9314 73.87453
1790.9635 67.43512
1800.3474 42.90362
1826.6455 44.44444
1844.4891 25.311544
1815.0807 19.335686
1785.0508 20.106781
1771.5505 45.717125
1756.9288 21.825064
1732.1041 24.7514
1704.8748 24.764427
1675.7511 24.166107
1646.4155 31.648129
1615.3278 24.856464
1582.2908 29.684645
1546.6267 24.284964
1532.2177 52.64147
1534.5826 84.72635
1564.0288 104.62587
1569.923 65.14934
1594.9612 91.13708
1623.0509 102.1927
1651.0999 106.699265
1613.5437 60.966187
1647.3726 72.80343
1678.23 57.617958
1703.5492 80.106125
1715.4293 54.106335
1745.333 54.76233
1765.7388 78.734726
1736.2672 86.447876
1742.53 116.51227
1754.7333 139.14981
1742.5859 153.23602
1731.9929 146.52066
1725.4133 157.49835
1712.5938 155.24535
1697.5203 160.79689
1705.622 166.34865
1706.762 177.50346
1697.1061 174.75366
1690.1901 167.06651
1686.6564 175.74802
1681.9066 183.43694
1675.4249 176.33804
1679.3767 166.74475
1685.4778 156.97937
1690.6344 145.42271
1686.939 129.18188
1703.957 138.58572
1701.7155 151.03966
1718.5747 142.5599
1712.5483 109.514336
1678.7454 96.814026
1662.4617 130.85611
1676.7842 146.23384
1671.0051 157.4019
1657.344 150.59618
1660.0696 163.08794
1668.346 169.30992
1664.3513 179.32573
1655.071 172.59073
1646.5496 162.73872
1630.7505 162.65501
1643.2871 175.49535
1636.2351 183.72281
1635.3293 194.56177
1627.0476 201.38168
1635.0022 207.987
1639.532 218.05057
1647.644 233.26959
1654.2493 220.16882
1668.039 221.8274
1678.2885 232.63335
1672.9158 245.5647
1663.9089 237.42862
1658.7368 250.17401
1658.0602 265.17825
1662.315 280.92383
1678.1118 278.07867
1672.7567 261.19003
1697.7738 269.0838
1688.9424 260.3382
1688.9653 243.94078
1694.275 229.21245
1684.6558 216.80542
1674.4355 204.58562
1662.6049 205.18585
1650.2092 203.23972
1642.2278 200.75621
1645.7197 189.39252
1654.3025 182.85397
1655.3591 192.7725
1665.3944 190.59836
1672.9689 185.90125
1681.144 192.58914
1686.2405 202.22372
1695.9884 205.3505
1705.059 206.53082
1700.8572 216.15652
1708.5999 227.48827
1706.4354 239.88794
1703.6465 252.79611
1708.731 262.4052
1709.926 274.67517
1709.7743 287.72058
1721.3999 282.72083
1723.5391 293.64102
1735.6213 293.69537
1751.5939 304.40234
1749.9097 320.5328
1747.7069 334.0566
1741.0919 345.31567
1746.1621 358.20187
1749.1437 370.40894
1734.2257 369.00473
1730.1486 357.0693
1726.857 346.36057
1731.7576 332.0976
1735.6036 318.69202
1725.6406 308.8078
1719.8646 322.75745
1706.0275 319.85797
1710.3606 307.72455
1696.9457 299.9482
1691.0579 285.95493
1681.4421 303.74408
1670.257 296.57718
1656.0042 293.7322
1659.3196 304.40292
1653.4907 314.9466
1646.1569 302.96664
1648.6887 285.60648
1640.9553 291.7307
1634.3712 298.2848
1633.0323 308.68698
1641.0115 316.61465
1643.987 329.1587
1650.1609 339.6682
1660.9998 349.88535
1648.1636 352.59912
1637.947 343.82874
1629.8643 336.2707
1631.4963 325.20996
1623.2429 317.004
1620.9241 305.17267
1625.2046 294.78265
1615.6611 293.84103
1607.2793 300.37317
1609.8391 310.48914
1610.6072 320.7824
1602.127 329.6769
1596.6416 318.11743
1595.0782 305.36066
1581.4138 302.64462
1582.4526 315.03064
1585.457 330.28912
1570.1047 323.4563
1567.8657 311.16498
1567.2222 296.74884
1578.2932 290.35095
1589.3701 292.80573
1598.3434 292.9278
1606.9437 286.86365
1597.894 279.96265
1587.4712 281.87167
1589.8179 272.1494
1586.5841 263.25528
1583.9276 254.20934
1579.7999 245.0509
1573.5908 256.7802
1562.2324 257.3277
1559.3462 247.90202
1568.9503 245.46158
1574.1067 235.31633
1566.4658 227.76305
1555.7993 226.14526
1547.6022 231.14067
1543.8125 239.44151
1559.5422 236.7898
1550.6416 244.94786
1550.8264 256.7546
1541.724 252.03362
1534.8801 244.77759
1524.0884 248.53008
1513.8241 247.82756
1508.6389 255.9409
1501.1221 262.41858
1491.4639 267.37836
1499.7974 270.49515
1497.7549 278.829
1489.4532 276.30328
1483.512 284.30194
1481.1903 275.88153
1482.9661 267.29462
1476.56 260.9146
1483.6589 257.79236
1487.1812 248.75085
1491.3029 258.5971
1497.3884 254.10785
1501.2773 248.0285
1505.5433 241.00226
1507.7754 233.16417
1517.3027 237.6063
1526.9188 238.71194
1535.5808 233.22307
1537.0176 223.68771
1545.4937 220.56165
1552.8358 214.54617
1561.2573 217.78075
1569.1609 215.17383
1576.3132 222.92465
1584.1174 228.13538
1587.5363 237.5081
1592.6532 247.59128
1599.0111 239.95175
1608.987 243.57744
1604.6086 254.29485
1595.3911 257.49048
1599.9974 267.3003
1608.5515 275.3162
1618.6328 271.13077
1610.8721 264.04132
1621.6307 260.99603
1629.1196 265.7528
1633.386 274.68448
1625.094 276.85132
1617.7732 282.88666
1629.407 285.6272
1638.501 282.31396
1646.6721 272.8565
1641.1931 260.48602
1642.8765 247.1171
1630.8876 238.52948
1628.4744 252.40616
1615.8103 253.22893
1621.0052 243.98369
1618.2424 233.65005
1615.6249 221.75494
1627.8217 226.85875
1626.9285 216.05687
1620.0311 208.72589
1615.5934 196.6073
1625.0323 189.73003
1626.0745 177.90044
1601.239 159.69402
1631.4753 134.89653
1601.871 126.97805
1574.7548 133.87437
1529.8927 116.94737
1542.9778 144.6322
1565.121 158.72769
1580.0466 179.79227
1592.7963 191.336
1596.2421 206.89975
1610.2649 210.19847
1601.9983 219.1591
1606.7526 231.00206
1595.2719 228.2467
1588.9358 217.42593
1578.2709 211.7463
1585.4104 204.57584
1578.7698 195.68079
1569.1594 203.30736
1559.0869 206.36407
1549.3557 201.71964
1557.9758 194.46538
1568.236 189.75937
1565.6685 175.83987
1554.5326 181.6655
1549.1346 167.21954
1533.3125 163.7573
1524.4519 177.29535
1516.0375 164.18744
1518.6139 146.89899
1498.9956 135.7937
1498.0243 156.47098
1499.8433 171.19333
1509.7241 178.43512
1515.6534 188.82318
1518.3723 198.83134
1510.7555 204.28624
1507.2726 214.47931
1518.0536 215.54282
1525.1858 207.60233
1527.8953 196.80255
1531.5757 187.60515
1539.9971 178.49286
1545.4373 190.78009
1537.8647 199.75891
1544.2744 210.01459
1535.3467 211.21783
1528.2983 218.58148
1525.3988 228.21739
1515.4679 225.74023
1504.7275 224.73485
1495.4148 231.20654
1494.3063 241.3135
1484.8076 238.04088
1482.3011 228.47221
1488.8064 221.92442
1480.4209 215.56421
1490.7349 210.73686
1497.6763 218.20782
1498.6444 203.74106
1502.3661 192.71484
1494.0958 183.78711
1484.8033 192.00089
1485.0795 202.4313
1473.3419 197.25458
1472.7483 207.48209
1461.2142 203.3659
1462.7584 193.9887
1471.1152 185.36078
1460.4227 182.09192
1455.5288 172.55518
1458.2664 158.96393
1469.9459 169.6494
1481.057 179.56584
1485.4087 167.36993
1477.9065 152.0397
1458.0068 140.2682
1438.3706 149.18828
1415.937 147.88626
1390.1829 150.78775
1389.8074 129.5403
1370.9038 118.114456
1399.0657 91.84564
1418.7734 116.55325
1444.7382 113.30865
1464.8557 89.8837
1476.5417 124.83233
1499.503 99.06075
1495.7769 64.26496
1502.4142 26.203297
1461.2463 24.232353
1458.9329 55.60517
1428.1597 72.03491
1416.7175 27.269545
1392.0784 56.42798
1367.5347 22.790585
1357.0405 54.04217
1349.0806 87.49509
1365.3512 99.102005
1349.7373 114.53863
1369.7739 137.02838
1349.2119 135.91127
1346.9386 160.6585
1358.7578 150.78009
1373.456 157.60568
1382.7234 171.746
1362.3092 170.24796
1364.2085 185.92126
1348.7233 179.75432
1349.4648 197.5236
1373.065 204.58153
1387.5735 189.06169
1405.0667 170.7384
1425.4681 169.15909
1441.7834 168.92183
1434.7001 182.39915
1446.7815 182.70306
1453.368 192.55052
1444.114 194.734
1451.1166 206.5463
1460.8367 212.9913
1469.9766 217.46
1471.7592 226.28766
1473.3434 235.42722
1476.5896 244.19994
1476.2618 252.2653
1467.1428 253.32892
1465.8773 242.75372
1461.9966 232.76639
1460.1753 223.40579
1451.4158 218.50208
1441.5272 213.97684
1440.7363 204.00763
1432.1874 193.03674
1430.1088 202.35454
1430.7997 211.68353
1432.904 221.33734
1423.4652 222.43558
1415.7408 229.55838
1408.2482 235.4898
1406.4473 245.45804
1403.5479 255.55121
1416.9553 256.8937
1409.4365 265.97055
1404.5853 276.54706
1396.0642 267.07678
1392.5326 280.30542
1383.053 295.29364
1366.3403 289.55325
1378.6338 280.09302
1380.7703 266.22412
1378.8616 251.7653
1370.7227 238.4572
1386.0469 234.25562
1392.1353 255.9932
1393.758 244.52841
1398.3159 232.30777
1405.0986 222.51495
1413.6831 218.337
1420.5105 210.9674
1419.0107 199.42479
1419.6498 185.21216
1405.7351 191.60703
1407.1998 207.75467
1393.1567 204.68333
1393.8865 218.88123
1379.5327 220.97783
1363.4979 222.17802
1349.3076 220.61975
1349.784 241.70236
1363.0011 254.41759
1348.4573 264.34485
1363.708 271.86218
1349.7644 283.9658
1347.603 301.7644
1362.7823 304.4223
1377.3871 309.96625
1363.1389 321.44324
1347.3599 320.30096
1347.1326 339.3096
1362.8706 340.3099
1375.6519 330.7787
1387.96 321.87866
1402.7865 323.13486
1419.155 328.18738
1406.7732 340.2878
1391.15 339.83475
1378.111 350.45355
1362.3938 357.93723
1347.1154 362.5658
1347.4672 379.86462
1357.3436 389.70163
1365.6134 375.7552
1379.7537 367.95627
1395.588 359.64642
1411.3851 362.26538
1419.8181 351.7342
1431.4977 341.66156
1446.5198 340.4875
1451.926 348.97626
1462.0697 345.6202
1459.0234 358.58063
1464.0687 372.4345
1468.4792 390.73535
1471.577 407.86017
1490.7787 404.46567
1487.5603 388.32883
1504.5769 391.12567
1512.1511 404.35492
1502.8887 416.99298
1496.5493 432.05173
1484.6318 421.01154
1470.99 430.7693
1458.9526 420.9751
1458.8427 442.42358
1482.0952 440.36182
1493.847 449.72937
1494.1405 467.97617
1504.1561 481.5287
1518.7451 492.93246
1504.7228 497.51715
1489.5769 494.16144
1482.0645 480.54578
1473.5413 491.18686
1462.4661 490.35773
1467.5522 477.03622
1477.5669 467.51898
1478.56 453.88513
1465.039 459.682
1455.2267 469.33725
1454.1846 481.0719
1450.3016 493.53708
1447.0447 504.30334
1446.3684 515.159
1436.4451 511.0173
1427.2985 505.5699
1437.1093 497.07025
1424.4133 493.92517
1431.296 483.91135
1442.7188 484.67743
1439.9562 471.94366
1430.5653 462.0147
1447.678 456.84592
1438.9512 443.11578
1444.6735 423.8416
1429.2815 429.7457
1416.7009 418.36328
1414.1108 437.80737
1400.915 432.32593
1386.5376 425.63397
1383.976 408.7893
1400.9895 412.76352
1433.5719 409.0144
1451.8025 401.44037
1433.0508 390.33102
1448.0068 381.9535
1438.4348 362.6181
1426.9912 373.58014
1416.8691 398.60095
1398.6135 395.54175
1409.5388 379.7359
1390.8755 379.76462
1377.6375 392.8012
1368.4119 417.5986
1361.6802 404.82224
1347.4534 399.7362
1348.6354 416.25867
1347.0818 431.5641
1359.3708 427.02512
1373.7905 433.26752
1360.8975 440.8147
1348.826 447.5741
1362.9319 456.1222
1348.1553 461.91315
1347.5267 473.77716
1361.1545 469.64594
1376.019 467.86227
1370.7094 479.8222
1356.5209 482.63806
1347.7166 491.0866
1360.1749 495.08615
1351.4924 505.1076
1365.0448 515.9714
1350.7817 518.4845
1350.7194 531.31274
1364.7727 531.52954
1359.9565 545.6238
1346.9583 546.0776
1352.1062 558.39453
1349.3549 571.15015
1364.1626 572.41064
1367.5056 560.4407
1382.6442 554.9527
1371.4141 547.5027
1379.8029 539.9885
1389.3983 533.72546
1377.1221 525.9642
1371.3948 504.56122
1371.9834 492.60327
1382.1729 487.9768
1387.8855 476.212
1389.2352 462.94043
1379.3228 456.05194
1373.0039 446.29712
1388.3451 444.68063
1401.8785 453.4397
1421.1846 450.3913
1413.7307 465.2798
1422.1036 476.39243
1400.1731 469.44458
1406.4739 479.8923
1413.771 489.74304
1401.4634 493.73596
1393.6216 486.88428
1388.2773 500.86407
1381.9728 513.6929
1393.0393 523.0431
1397.1034 512.834
1403.2122 503.94427
1414.678 502.98737
1408.9723 515.7771
1419.8462 514.4508
1428.7997 520.8484
1439.8274 524.6216
1447.0559 536.4924
1456.7583 533.74084
1453.9413 547.1151
1463.5632 541.71136
1466.4849 528.43726
1466.6692 517.1775
1452.9689 524.1917
1457.1785 513.0237
1458.9392 502.27673
1469.3213 503.78503
1479.9062 509.82443
1493.1372 509.54932
1498.7998 523.4032
1491.7583 534.95404
1482.5205 524.13074
1476.5054 539.22656
1485.854 548.4657
1501.5974 543.81726
1498.8914 555.8296
1501.657 568.6489
1490.5759 577.0772
1508.362 581.95447
1521.3495 581.02966
1517.2681 570.3203
1514.636 558.9437
1514.9131 546.2086
1524.2216 542.0639
1532.719 546.092
1524.3567 553.0465
1526.9886 563.3304
1532.5244 572.5106
1533.4568 585.3185
1527.5505 595.10846
1516.594 592.9298
1505.7107 594.8583
1493.5056 590.7908
1477.6206 591.9184
1462.0891 601.36523
1451.8882 601.517
1442.5165 597.194
1439.7235 606.19867
1438.6783 615.4299
1448.2574 612.0042
1457.4255 610.8321
1464.9576 618.70245
1472.9738 607.703
1480.7524 619.6068
1472.3701 629.1411
1486.2926 633.5063
1487.3683 645.4286
1498.1329 641.2918
1501.586 630.22174
1502.7585 616.9047
1492.8998 621.1122
1486.3687 606.17426
1497.7166 605.41327
1509.495 606.16943
1512.489 619.0033
1520.2012 606.36523
1528.3877 614.36365
1521.687 622.1675
1514.0658 631.38934
1510.6576 642.3817
1513.8975 655.1994
1503.9519 652.14966
1503.3027 665.1462
1522.9146 662.2995
1525.6394 651.6686
1521.7926 641.7499
1527.4269 632.89496
1532.8092 624.4468
1533.4253 605.9181
1540.5879 597.98456
1546.889 589.2095
1558.3372 590.879
1569.1138 587.68884
1582.4408 589.93835
1577.2097 599.65717
1566.4214 601.8735
1553.882 601.7642
1546.7157 609.9093
1541.0151 618.01044
1559.9241 613.0169
1553.0646 622.72797
1541.532 630.6217
1553.5508 634.4414
1564.3726 633.85
1567.1316 623.3774
1572.8757 613.2827
1583.763 609.9696
1583.3828 621.1962
1577.2175 630.95154
1574.064 641.82007
1560.8496 645.72406
1545.0779 640.9318
1549.1157 649.81494
1555.1035 658.1771
1546.2917 664.5216
1538.5131 654.14233
1534.44 642.88617
1533.4414 663.9149
1539.124 675.1133
1527.7195 675.0181
1518.8805 681.9951
1515.4481 668.98663
1507.8701 676.9918
1497.5564 678.9425
1490.3699 687.72266
1479.1194 687.11255
1468.7106 685.6921
1474.463 678.1343
1465.5013 674.4435
1458.8538 666.44836
1469.472 658.4839
1477.3136 668.4263
1485.2222 677.0686
1490.8066 667.2799
1494.1682 655.3917
1482.9194 657.4381
1474.1378 645.96735
1465.623 637.38135
1458.8046 645.3982
1451.8561 639.03436
1456.6663 630.1669
1455.519 620.7444
1447.5443 621.8704
1439.7467 624.248
1446.5457 631.1657
1441.0759 639.12164
1441.1785 647.90857
1431.9062 645.9526
1424.1147 651.46716
1428.9447 661.81165
1430.1157 673.04004
1440.2654 667.4418
1439.3481 656.77295
1449.5615 649.274
1457.5032 655.5033
1448.8514 659.66974
1450.0234 668.5345
1446.8956 676.05444
1455.8497 677.34143
1459.3278 685.5128
1463.41 694.5607
1473.0248 695.6267
1482.7109 697.13324
1492.3494 699.3617
1501.0276 694.2248
1509.263 689.0717
1519.8789 695.3125
1522.6932 706.5183
1510.6875 704.5155
1500.0277 708.5171
1507.165 718.90955
1518.8882 718.90643
1531.3611 714.32605
1542.5558 717.09827
1546.4592 706.69257
1534.9774 700.69543
1529.4583 688.5441
1540.424 687.25604
1549.3835 697.1116
1552.2424 686.88745
1550.7787 675.76746
1562.4868 681.6894
1573.1343 677.98004
1584.7529 677.587
1575.0718 665.98944
1561.2897 669.6023
1565.1921 658.91766
1572.5167 652.52875
1583.6201 652.22003
1586.6261 663.5137
1596.8986 665.6265
1596.9763 675.9729
1595.2758 687.1221
1604.8708 694.0968
1607.9797 681.5426
1608.9897 669.317
1619.8516 664.7612
1624.8755 654.1681
1631.6997 645.2304
1619.95 642.81415
1627.8871 632.468
1639.2184 636.3723
1636.1111 623.00305
1624.2585 619.52435
1622.8066 607.39404
1620.6432 596.0445
1637.0237 608.1053
1632.8217 595.7013
1640.3864 585.48975
1647.7324 596.4923
1653.9415 606.17914
1665.4922 610.1461
1657.982 619.89594
1646.0325 615.94556
1648.1783 628.3582
1659.1008 633.8142
1667.2667 628.08386
1674.6222 622.595
1686.3909 622.078
1692.2157 631.504
1679.939 634.5941
1670.8462 641.4424
1661.8242 645.9999
1650.309 641.0162
1643.1742 649.3162
1636.8057 658.6168
1631.1338 667.584
1621.1858 677.0905
1617.7369 688.34045
1631.1193 691.2477
1619.6987 699.44446
1608.353 704.41943
1599.2959 710.3207
1593.5605 700.7291
1585.2871 707.874
1575.1127 702.4546
1584.9341 692.20715
1573.9486 690.05896
1562.7515 693.86
1561.4985 704.3384
1553.6523 715.37
1565.4424 714.431
1569.9335 725.5593
1575.8953 714.65356
1589.2571 717.3639
1597.5775 722.03235
1602.8169 731.04944
1590.4695 730.3605
1580.7737 724.8795
1581.5513 736.8124
1594.1923 740.75336
1605.9816 741.36615
1601.571 750.0359
1590.4911 756.0559
1585.1191 747.51044
1574.3152 748.4968
1571.1565 737.0315
1561.3386 733.8471
1557.9785 724.2726
1552.8137 739.09375
1562.3455 746.59143
1565.5851 757.8086
1577.0717 760.6294
1587.4724 770.11
1584.941 784.41327
1565.2583 778.5442
1545.145 781.7318
1542.158 763.51874
1553.9797 759.3922
1549.1531 747.3588
1540.7346 751.7073
1530.3638 753.2683
1522.9268 743.141
1536.303 739.3468
1547.2439 730.183
1536.7725 726.47546
1526.4927 729.16815
1515.4337 733.5956
1505.0323 731.5901
1494.041 731.22595
1484.9159 738.18176
1474.316 734.7021
1465.7172 741.9624
1475.791 747.84326
1464.3623 754.14734
1454.4348 748.1933
1457.9478 735.7836
1449.814 739.9975
1443.2014 732.7645
1439.448 723.1846
1432.7512 732.3673
1440.7754 744.05
1435.5332 750.90393
1432.677 759.6882
1442.5336 765.10657
1450.2395 757.0642
1458.8857 766.9813
1471.9465 763.4961
1482.7024 758.2899
1488.1904 748.632
1498.0398 756.1921
1497.957 742.8231
1509.029 747.84985
1518.0039 756.1433
1526.8087 766.1081
1523.2122 782.56195
1503.4869 782.7807
1509.289 765.2348
1492.5905 768.0665
1483.4935 782.1674
1466.6339 783.092
1448.3201 782.0531
1430.1229 784.0146
1424.3755 771.3896
1408.4287 782.6296
1391.2932 779.72675
1375.8384 784.9873
1370.4424 772.7148
1385.3962 762.29065
1397.6614 763.2892
1410.7861 765.1592
1408.6165 753.6864
1423.1992 754.8292
1426.1228 740.842
1417.0781 745.4987
1409.2773 739.54095
1421.2468 729.06244
1409.2329 727.55457
1399.2129 735.30414
1398.3502 749.50586
1388.6708 747.8173
1378.5875 752.8652
1378.8606 741.1682
1388.1252 735.3047
1378.3267 729.13513
1383.7833 719.528
1392.5071 725.46844
1400.513 719.7312
1406.8783 712.20496
1416.2351 718.0309
1429.2737 719.3253
1422.6445 710.26953
1432.2107 705.1022
1434.0962 696.0319
1444.1588 701.5561
1438.8562 712.0857
1449.4429 709.4423
1448.8706 718.49457
1452.3281 727.3279
1460.331 719.1193
1464.4231 728.62274
1472.7488 723.1354
1483.3805 726.5502
1493.8843 719.6726
1487.9884 708.9279
1480.7786 716.07587
1477.2124 705.9043
1469.5403 713.51746
1467.0056 703.778
1459.1672 709.54663
1455.5778 700.6091
1452.4565 692.2834
1442.3757 692.2097
1447.1707 684.739
1439.042 678.27936
1434.1604 685.5468
1422.3126 681.07874
1425.4818 691.37134
1421.7434 700.3498
1411.1246 702.7097
1414.2557 691.3677
1403.1399 692.43896
1398.3368 703.187
1391.6699 691.36395
1396.842 681.203
1409.9048 680.5574
1406.2827 669.2453
1418.7861 670.01624
1415.7898 659.0616
1410.8413 646.9112
1418.7549 639.27515
1428.8865 635.8897
1435.925 631.3691
1430.7412 623.05347
1428.3945 614.1714
1428.9329 604.0927
1431.4392 594.46094
1438.9349 586.78265
1433.9779 576.53644
1442.1409 568.29626
1454.2124 569.7024
1447.5338 579.16876
1451.0308 589.8451
1461.4589 591.09155
1460.5018 579.6571
1474.668 576.53674
1482.6053 562.164
1465.8567 553.52795
1464.2476 565.2911
1451.0659 558.44635
1434.6892 559.87354
1430.4788 548.13257
1442.0654 549.01697
1437.147 536.85
1427.909 533.0431
1417.6077 527.21545
1405.4147 526.61475
1400.9805 537.77435
1411.3059 538.3279
1420.6389 542.57
1420.5465 555.99274
1408.7644 551.2104
1393.819 548.0652
1397.6101 561.77026
1402.7001 574.86615
1402.3287 589.9503
1414.8269 580.26355
1412.6057 565.8782
1424.8116 569.0305
1425.2339 584.0862
1419.0658 594.78296
1418.3909 609.1508
1407.3851 602.7974
1392.7162 604.06824
1386.521 590.5549
1390.8179 578.07324
1382.9476 566.80005
1376.2308 577.7631
1371.5889 589.443
1378.0884 600.69196
1378.5928 612.0873
1388.5796 618.85596
1401.2736 616.6864
1412.6442 619.787
1420.9321 626.8448
1406.5588 632.4664
1393.1633 630.67365
1376.1102 625.4606
1360.2385 626.6396
1366.2949 614.0249
1364.9995 601.0187
1360.5796 585.75415
1346.7261 586.2429
1349.8198 601.4553
1348.9464 616.75037
1347.3794 636.1827
1347.8965 649.6362
1359.2883 649.9685
1359.1951 640.61536
1370.5249 648.62024
1370.9934 637.43726
1382.7656 637.0632
1381.9885 648.1413
1390.516 656.3315
1396.7457 644.06323
1402.926 657.01587
1393.977 669.2484
1383.1261 668.13043
1377.6722 658.99335
1367.1018 660.2027
1372.5194 671.67896
1360.6519 670.70795
1356.2727 659.8956
1347.4457 667.9404
1347.9868 679.4784
1347.5759 690.41156
1358.6537 680.91486
1370.2764 683.0381
1384.3147 679.36224
1380.0688 689.678
1385.1975 700.4823
1391.1929 711.6147
1378.7087 708.53577
1368.0941 708.3027
1371.4298 696.71234
1360.0826 691.4927
1359.6694 702.23267
1348.2021 701.02527
1344.7975 712.6115
1344.4963 727.3727
1353.7628 727.6106
1355.0023 713.23584
1362.7875 718.34546
1373.1324 719.1398
1364.6754 727.83655
1369.5742 735.8579
1368.0944 746.70667
1357.3069 750.5166
1370.0166 759.1816
1358.6675 762.2643
1354.5974 785.3591
1348.6122 775.614
1347.3591 759.76025
1347.0333 743.1129
1357.7156 738.1672
" />
</g></g></svg>
